<?xml version="1.0" standalone="no"?>
<!DOCTYPE svg PUBLIC "-//W3C//DTD SVG 1.1//EN" "http://www.w3.org/Graphics/SVG/1.1/DTD/svg11.dtd" >
<svg xmlns="http://www.w3.org/2000/svg" xmlns:xlink="http://www.w3.org/1999/xlink" version="1.1">
<metadata>
Created by FontForge 20170731 at Thu Nov  6 18:53:24 2014
 By Aleksey,,,
Freeware for personal use. If it is for commercial use then this font is donationware through PayPal: turoturom@yahoo.es.
</metadata>
<defs>
<font id="Angelface" horiz-adv-x="778" >
  <font-face 
    font-family="Angelface"
    font-weight="400"
    font-stretch="normal"
    units-per-em="1000"
    panose-1="0 0 0 0 0 0 0 0 0 0"
    ascent="581"
    descent="-419"
    x-height="218.5"
    cap-height="607"
    bbox="-298.909 -383.766 982.44 800.882"
    underline-thickness="50"
    underline-position="-200"
    unicode-range="U+0020-20AC"
  />
<missing-glyph horiz-adv-x="201" 
 />
    <glyph glyph-name=".notdef" horiz-adv-x="201" 
 />
    <glyph glyph-name=".null" horiz-adv-x="0" 
 />
    <glyph glyph-name="nonmarkingreturn" horiz-adv-x="333" 
 />
    <glyph glyph-name="space" unicode=" " horiz-adv-x="201" 
 />
    <glyph glyph-name="exclam" unicode="!" horiz-adv-x="231" 
d="M102 57q-1 -9 -8 -11t-12 3.5t-3 12.5q9 33 48.5 176t75.5 272t41 145q7 16 18 14.5t20 -13.5t6 -21q-172 -526 -186 -578zM84 -1q9 -7 8.5 -18.5t-11.5 -20t-25 -4.5q-22 6 -11 31q4 11 16.5 14.5t22.5 -2.5z" />
    <glyph glyph-name="quotedbl" unicode="&#x22;" horiz-adv-x="112" 
d="M48 458q-1 -7 -12 -9q-12 -2 -12 7q0 3 1 16.5t2 25.5t2 15q2 6 11 5t10 -6q-1 -46 -2 -54zM87 512q0 -2 -2 -29t-2 -31q0 -3 -5.5 -4t-11 0.5t-5.5 4.5q-1 8 5 59q0 5 5.5 5.5t10.5 -1t5 -4.5z" />
    <glyph glyph-name="numbersign" unicode="#" horiz-adv-x="233" 
d="M134 253l6 39l-39 -1q-1 -6 -3.5 -19.5t-4.5 -20.5q7 1 20.5 1.5t20.5 0.5zM179 430q6 0 9.5 -2t4.5 -4t0 -4q-13 -59 -21 -103q33 2 36 0q8 -2 6.5 -13.5t-10.5 -10.5q-8 2 -37 0q-2 -7 -4.5 -20t-3.5 -19q25 1 35 -1q8 -2 7 -13.5t-11 -10.5q-8 2 -35 0
q-11 -54 -18 -100q-1 -2 -6 -2.5t-10.5 3t-4.5 8.5q2 20 13 90l-40 -1q-3 -19 -16 -98q-2 -9 -14 -7q-9 2 -8 16q0 1 5 35t8 53q-14 -1 -27 -1q-8 0 -11 15q-1 4 1 4q7 2 41 5l7 41q-13 -1 -24 -1q-4 0 -7.5 5.5t-4 11t0.5 6.5h5q5 1 14.5 1.5t19.5 0.5q6 33 19 108
q1 7 22 3q8 -2 8 -5q-1 -3 -23 -105q7 0 20 0.5t20 0.5q7 44 18 106q0 8 16 8z" />
    <glyph glyph-name="dollar" unicode="$" horiz-adv-x="470" 
d="M194 37q56 14 91 49t29 80q-5 35 -67 64q-28 -105 -53 -193zM267 436q-53 -22 -92 -52q-22 -17 -23 -36t10 -32.5t30 -25.5q14 -9 36 -18q28 114 39 164zM367 462q-34 -3 -66 -14q-12 -55 -46 -187q73 -32 88 -68q24 -57 -27.5 -115t-130.5 -75l-15 -55q-3 -5 -9 -5.5
t-11.5 4.5t-4.5 11q1 3 4.5 17t5.5 24q-64 -6 -116 29q-7 10 -6 15.5t7.5 5t11.5 -3.5q34 -19 85 -17q9 0 27 2q8 32 28.5 109.5t27.5 102.5q-31 13 -48.5 22t-35 28t-19.5 42q-3 30 24.5 58t60 44.5t72.5 30.5q10 48 15 89q1 6 9.5 8.5t16.5 -0.5t7 -10q-3 -21 -14 -77
q69 20 116 7q8 -9 3.5 -17.5t-14.5 -6.5q-15 5 -46 2z" />
    <glyph glyph-name="percent" unicode="%" horiz-adv-x="352" 
d="M144 349q15 -6 15 -23v-3q11 4 23 11t22 15t20.5 18.5t18 19.5t15.5 20t12.5 17t9.5 13.5t5 8.5l1 2q3 7 12.5 7t16 -5t3.5 -12q-194 -397 -246 -488q-1 -2 -8 -2.5t-12 4t-1 13.5q68 135 178 364q-43 -35 -80 -41q-14 -28 -38 -52q-28 -27 -53.5 -19.5t-23.5 37.5
q1 40 49 77q10 33 61 18zM88 306q-16 -16 -25 -41q-8 -21 3 -26q13 -5 40 27q10 11 16 22q-19 3 -34 18zM127 329q-8 0 -18 -6q11 -4 24 -4q-1 10 -6 10zM279 137q-10 0 -23 -15q0 -4 -4 -5q-3 -1 -8.5 -5t-15 -15t-14.5 -24q-6 -18 5 -23q13 -6 38 24q20 23 25 38.5t2 20
t-5 4.5zM269 157q5 1 14 2t18.5 -5t9.5 -20q0 -45 -52 -90q-30 -24 -52.5 -15.5t-20.5 33.5q1 22 20.5 44.5t33.5 29.5q5 14 29 21z" />
    <glyph glyph-name="ampersand" unicode="&#x26;" horiz-adv-x="355" 
d="M182 165q-15 57 -17 133q-82 -89 -108 -171q-21 -65 7 -93.5t76 -22t94 33.5q-27 39 -45 95q-26 -12 -40 -25q-3 -2 -8.5 0t-8 7t2.5 13q13 18 47 30zM196 367q95 91 106 105q37 48 14 68q-18 17 -52 -4q-27 -18 -43 -55q-18 -42 -25 -114zM256 60q45 33 46 70
q1 17 -26.5 22.5t-60.5 -4.5q14 -47 41 -88zM297 10q6 -6 3 -11t-9.5 -7.5t-8.5 -0.5q-15 13 -31 32q-43 -25 -91 -35t-87 -1.5t-56.5 42.5t0.5 97q25 86 149 212q4 89 24 142q23 61 80 84q49 20 75 -4q32 -30 -21 -99q-3 -3 -6 -7q-15 -18 -34.5 -38t-48.5 -48t-42 -41
q-2 -86 15 -153q45 16 88.5 6t40.5 -50q-3 -49 -64 -93q11 -15 24 -27z" />
    <glyph glyph-name="quotesingle" unicode="'" horiz-adv-x="71" 
d="M27 415q1 7 12 9t11 -7q0 -42 -4 -58q-2 -6 -11.5 -4.5t-10.5 6.5q2 46 3 54z" />
    <glyph glyph-name="parenleft" unicode="(" horiz-adv-x="112" 
d="M269 799q2 2 11 0t15.5 -7t2.5 -11q-154 -217 -224.5 -466.5t-27.5 -496.5q0 -4 -7 -7t-15.5 -1.5t-9.5 7.5q-29 134 -17.5 274.5t55 276.5t100 246.5t117.5 184.5z" />
    <glyph glyph-name="parenright" unicode=")" horiz-adv-x="230" 
d="M-42 -189q-2 -2 -10.5 -0.5t-15 7t-2.5 11.5q154 217 224.5 466.5t27.5 496.5q-1 4 6 6q18 7 25 -3l1 -3q29 -134 17.5 -274t-55 -276t-100.5 -246.5t-118 -184.5z" />
    <glyph glyph-name="asterisk" unicode="*" horiz-adv-x="139" 
d="M44 450l8 16h-29q-12 0 -9 13q2 10 12 10h24l-13 22q-6 10 5 14q12 5 16 -4l12 -18l13 26q6 8 14 0q6 -6 3 -15q0 -3 -12 -25q20 0 26 -1q5 0 8.5 -4t1.5 -8q-2 -10 -16 -10q-4 -1 -15 -1q6 -9 9 -15q7 -11 -5 -15q-11 -3 -18 7q-2 3 -8 13l-12 -24q-5 -7 -16 -2
q-9 4 -4 14q1 2 2.5 4t2.5 3z" />
    <glyph glyph-name="plus" unicode="+" horiz-adv-x="268" 
d="M135 61q-12 4 -8 16q5 17 15 55q-30 1 -63 1q-12 0 -10 14q4 14 15 14h65q17 71 18 73q3 11 14 4q10 -5 9 -20q0 -1 -13 -57q44 0 56 -1q16 -2 12 -15t-23 -14q-31 0 -52 1q-3 -11 -7 -27t-6.5 -25t-3.5 -12q-3 -10 -18 -7z" />
    <glyph glyph-name="comma" unicode="," horiz-adv-x="67" 
d="M32 36q9 11 15 -6q3 -9 0 -14q-25 -39 -44 -46q-1 0 -2.5 0.5t-3.5 2t-4.5 3.5t-4 4.5t-2 5t0.5 5.5t3 5q22 14 42 40z" />
    <glyph glyph-name="hyphen" unicode="-" horiz-adv-x="274" 
d="M243 153q8 -2 6 -13t-11 -10q-10 1 -81 -2l-71 -3q-4 0 -7.5 5t-4 9.5t0.5 5.5q1 0 11.5 2t26.5 4t29 3q17 1 56 1t45 -2z" />
    <glyph glyph-name="period" unicode="." horiz-adv-x="67" 
d="M47 38q15 -10 3.5 -29.5t-29.5 -13.5t-7 31q14 24 33 12z" />
    <glyph glyph-name="slash" unicode="/" horiz-adv-x="233" 
d="M323 617q-51 -103 -174.5 -341t-153.5 -293q-3 -5 -10.5 -5.5t-11.5 5.5t0 15q2 3 139.5 273t178.5 356q4 5 12 5.5t15.5 -4.5t4.5 -11z" />
    <glyph glyph-name="zero" unicode="0" horiz-adv-x="350" 
d="M163 9q-59 -43 -108.5 -21t-48.5 96q1 83 64.5 186t137.5 147q58 36 100 14t32 -91q-11 -75 -65.5 -183t-111.5 -148zM308 333q9 56 -17 70.5t-73 -19.5q-37 -26 -75 -72.5t-57 -80.5q-55 -97 -38 -167q12 -48 51 -47q57 0 119 101q13 21 25 45q52 101 65 170z" />
    <glyph glyph-name="one" unicode="1" horiz-adv-x="347" 
d="M248 429q18 2 33 8.5t23 12.5l9 7q11 3 21 -7t0 -20q-148 -210 -288 -447q-6 -11 -20 9q-8 12 -5 17q131 233 246 391q2 3 -7 5q-6 2 -19 3q-2 1 -1.5 5.5t3 10t5.5 5.5z" />
    <glyph glyph-name="two" unicode="2" horiz-adv-x="510" 
d="M156 67q-48 18 -83 -3q-49 -30 -41 -46q10 -15 53 4q28 13 71 45zM173 304q32 60 111 118t145 60q39 1 57 -24.5t0.5 -78.5t-77.5 -118q-98 -107 -196 -184l21 -12t21.5 -12t18 -8.5t19 -6.5t15.5 -2q11 1 22 3.5t20.5 7t17 9t15 11t11 9.5t8.5 9l6 6q4 3 8 0.5t5 -6.5
t-1 -7q-2 -5 -15 -19.5t-41 -33.5t-56 -22q-13 -1 -29.5 4t-29 11.5t-33.5 18.5t-32 17q-78 -58 -129 -72q-23 -6 -35.5 6.5t-11 30.5t5.5 30q25 51 94 59q34 2 78 -17q67 54 136 123t95 107q47 70 42.5 102t-42.5 31.5t-84 -31.5q-24 -16 -46.5 -36t-38.5 -38.5t-27.5 -33
t-19.5 -26t-9 -12.5q-8 -10 -17 14q-4 10 -2 13z" />
    <glyph glyph-name="three" unicode="3" horiz-adv-x="434" 
d="M280 265q-28 14 -60 6q-41 -10 -43 -27q-2 -10 12 -13q14 -2 34 4q26 7 57 30zM198 386q16 27 63.5 57t97.5 30q13 0 28 -5.5t29 -18t11.5 -39t-26.5 -62.5q-25 -36 -79 -81q31 -27 32 -76q3 -60 -76.5 -136.5t-175.5 -76.5q-45 0 -71.5 29.5t-26.5 72.5q0 28 11 57
t30 44q5 3 11 1.5t9 -6t0 -7.5q-19 -22 -28.5 -58t4.5 -68.5t58 -34.5q65 -2 142 55.5t81 126.5q3 35 -23 61q-46 -33 -84 -40q-27 -5 -44 3.5t-20 23t9 31t37 24.5q9 6 43 4.5t61 -15.5q37 32 64 69t27 58q0 23 -12 30.5t-38 5.5q-27 -2 -68 -31t-61 -56q-8 -10 -15 4
q-7 12 0 24z" />
    <glyph glyph-name="four" unicode="4" horiz-adv-x="450" 
d="M251 162q112 167 143 207q12 14 4 16q-5 1 -12 -3q-196 -105 -276 -185q-60 -58 -38 -53q73 14 179 18zM377 132q-74 2 -104 1q-71 -102 -82 -124q-1 -1 -1.5 -5.5t-2.5 -9t-6 -6.5q-10 -6 -20 3t-4 22q9 20 74 119q-124 -3 -198 -24q-10 -3 -15.5 6t-4.5 22t7 19
q85 88 183.5 155.5t230.5 134.5q33 16 43 1q3 -7 -1 -14q-1 -1 -166 -245l-17 -24q45 0 59 -2q25 -1 30 -19q2 -11 -5 -10z" />
    <glyph glyph-name="five" unicode="5" horiz-adv-x="440" 
d="M201 309q-22 -35 -14 -35q3 0 16 5q47 18 85 4.5t39 -51.5q1 -49 -25.5 -100t-77.5 -91q-21 -17 -42.5 -29.5t-47 -22.5t-50 -8t-43.5 17q-23 19 -31 51t-5 54t8 28q9 9 17.5 9t13 -7t0.5 -15q-6 -11 -7 -39t8 -43q20 -26 57.5 -21t73.5 32.5t68.5 64t44 73t-1.5 60.5
q-21 24 -71 12.5t-74 -36.5q-2 -2 -9 3.5t-10.5 14t1.5 19.5q26 47 75 113.5t62 69.5q68 12 153 17q11 1 16 -14q4 -11 -3 -11q-55 0 -137 -13q-14 -1 -22 -11q-15 -20 -28 -39.5t-23.5 -36.5t-15.5 -24z" />
    <glyph glyph-name="six" unicode="6" horiz-adv-x="413" 
d="M83 205q-4 -7 -10 -21q-36 -80 -29 -127.5t44.5 -43.5t85.5 41q34 30 56.5 65t29.5 64t5 52t-12 33q-16 10 -40.5 12t-61.5 -18t-68 -57zM379 450q-46 4 -119 -46.5t-131 -126.5q36 24 73 30t74 -13q25 -16 28 -52t-12 -76.5t-45 -82.5t-68 -69q-57 -40 -96 -32t-59 40.5
t-18 73.5q3 59 42 127t92 120.5t112.5 88t102.5 37.5q22 1 39 -3.5t11 -14.5q-3 -5 -8 -5t-10.5 2t-7.5 2z" />
    <glyph glyph-name="seven" unicode="7" horiz-adv-x="389" 
d="M164 429q45 10 198 18q17 1 23.5 -4t2 -17.5t-22.5 -32.5q-110 -124 -332 -402q-12 -11 -20 10q-7 17 0 27q120 164 314 364q13 15 10.5 18t-21.5 2q-72 -2 -156 -18q-6 -1 -7 6q-2 17 8 27q1 2 3 2z" />
    <glyph glyph-name="eight" unicode="8" horiz-adv-x="392" 
d="M338 376q1 22 -8.5 39.5t-32.5 17.5q-31 0 -61 -31t-33 -67q-2 -36 21 -74q51 22 82 53t32 62zM206 228q-33 -10 -46.5 -15t-38.5 -17.5t-41.5 -29t-29.5 -40.5q-20 -36 -3.5 -75t57.5 -42q19 -1 46.5 10t54 37t29 68.5t-27.5 103.5zM344 313q-43 -51 -105 -73
q15 -22 22 -34.5t12.5 -36t1.5 -49.5q-10 -58 -58 -99.5t-118 -36.5q-59 4 -84 48.5t-2 100.5q10 24 23.5 41t35 29t34 17.5t45 16t42.5 13.5q-31 50 -27 85q11 87 81 117q54 22 99 -3q47 -27 31 -81q-8 -26 -33 -55z" />
    <glyph glyph-name="nine" unicode="9" horiz-adv-x="392" 
d="M311 277q6 12 9 17q31 70 17.5 107t-65.5 27.5t-106 -65.5q-33 -35 -45 -77t10 -68q32 -28 85 -8.5t95 67.5zM28 11q42 8 109.5 58.5t127.5 134.5q-23 -20 -53 -27.5t-53.5 -4t-37.5 13.5q-25 17 -34.5 45.5t2 67.5t48.5 78q40 43 80 63.5t69 18.5t49 -10.5t28 -21.5
q33 -53 -13.5 -147.5t-135.5 -182.5q-116 -115 -197 -110q-17 1 -7 13q7 10 18 11z" />
    <glyph glyph-name="colon" unicode=":" horiz-adv-x="67" 
d="M47 38q15 -10 3.5 -29.5t-29.5 -13.5t-7 31q14 24 33 12zM57 171q15 -10 3.5 -29.5t-29.5 -13.5t-7 31q14 23 33 12z" />
    <glyph glyph-name="semicolon" unicode=";" horiz-adv-x="67" 
d="M32 36q9 11 15 -6q3 -9 0 -14q-25 -39 -44 -46q-1 0 -2.5 0.5t-3.5 2t-4.5 3.5t-4 4.5t-2 5t0.5 5.5t3 5q22 14 42 40zM46 171q15 -10 3.5 -29.5t-29.5 -13.5q-8 3 -9.5 13t3.5 18q5 9 14 13t18 -1z" />
    <glyph glyph-name="less" unicode="&#x3c;" horiz-adv-x="218" 
d="M189 70q12 -3 6 -15q-7 -14 -25 -10q-114 26 -120 27q-61 14 -29 29q31 14 79.5 38t92.5 44q2 1 3 -3q5 -15 -4 -27q-1 -2 -3 -3q-27 -14 -115 -54q47 -12 115 -26z" />
    <glyph glyph-name="equal" unicode="=" horiz-adv-x="260" 
d="M217 189q8 -2 7 -13.5t-11 -10.5q-9 1 -71 -1.5t-65 -2.5q-4 0 -6 5.5t-1.5 11t2.5 5.5q4 1 71.5 4t73.5 2zM217 125q8 -2 6 -13.5t-11 -10.5q-7 1 -38.5 -0.5t-63.5 -3t-34 -1.5q-4 0 -7 5t-4 9.5t1 5.5q17 6 68 9q66 4 83 0z" />
    <glyph glyph-name="greater" unicode="&#x3e;" horiz-adv-x="218" 
d="M25 159q-12 2 -5 15t23 9q9 -2 37.5 -8.5t53 -12t29.5 -6.5q50 -11 38 -24q-2 -2 -8 -5q-36 -17 -84 -40.5t-88 -41.5q-2 -1 -3 3q-5 15 3 27q1 2 3 3q62 30 116 54q-48 12 -115 27z" />
    <glyph glyph-name="question" unicode="?" horiz-adv-x="357" 
d="M100 6q23 -5 21 -28q-1 -12 -11.5 -18.5t-22.5 -4.5q-18 5 -20 23q-1 13 9.5 21.5t23.5 6.5zM144 541q-6 -6 -15 -3t-12 11t3 16q45 51 90.5 73.5t80 17t60 -26t35 -55t0.5 -70.5q-10 -41 -40 -83.5t-66.5 -80.5t-73 -79.5t-65 -95t-37.5 -112.5q-1 -6 -6.5 -7t-10 2.5
t-3.5 9.5q7 66 35.5 124t65 98.5t72 76.5t63 75t33.5 77q4 31 -4 55.5t-27.5 37t-46 13t-61.5 -18t-70 -55.5z" />
    <glyph glyph-name="at" unicode="@" horiz-adv-x="556" 
d="M341 268q-12 -16 -10.5 -47t25.5 -31q32 0 71.5 46.5t49.5 102.5q10 54 -18 89.5t-100 35.5q-87 0 -165 -57t-105 -142q-26 -82 12.5 -137.5t134.5 -55.5q74 0 144 37t110 104q5 8 13 -7t2 -25q-44 -70 -120.5 -104.5t-156.5 -34.5q-114 0 -158.5 66t-13.5 165
q29 92 121.5 155t188.5 63q93 0 126 -43.5t19 -109.5q-13 -68 -63 -124t-99 -53q-22 1 -37.5 21t-9.5 40q-44 -61 -88 -59q-32 1 -38 35q-4 26 12 60q29 63 93 86q48 18 67 -3q13 -13 1 -39q-13 -20 -23 -10q16 35 -12 35q-32 0 -68 -35q-15 -13 -24 -29q-21 -38 -9 -62
q13 -25 48 7q16 14 34 40q10 14 33 50t36 54q2 3 9 0t11.5 -9t0.5 -11q-10 -13 -44 -64z" />
    <glyph glyph-name="A" unicode="A" 
d="M515 268q62 0 146 -4q43 69 114 160q28 37 39 63.5t8.5 36t-9.5 9.5q-20 0 -52.5 -21.5t-78 -66.5t-79 -80.5t-88.5 -96.5zM828 558q26 -3 26 -39t-26 -74q-13 -20 -60 -87t-68 -97q25 -2 30 -3q9 -3 -1 -11q-10 -7 -26 -6l-17 1q-5 -7 -13 -19l-14 -21t-11 -17
q-24 -38 -38 -77t-13.5 -64t13.5 -28q20 -6 54.5 12.5t53.5 42.5q11 13 18 -1q2 -6 0 -10q-56 -63 -99 -72t-60 17t-11 60q13 69 82 179q-76 5 -159 -5q-82 -91 -118 -126q-118 -115 -218 -119q-52 -3 -89.5 30.5t-51.5 69.5q-9 24 11 32q11 5 14 -3q99 -239 410 110
q-38 -6 -60 -10q-6 -1 -6 5q0 15 18 28q7 5 13 6q18 3 65 5l3 4q149 175 225 234.5t123 52.5z" />
    <glyph glyph-name="B" unicode="B" horiz-adv-x="656" 
d="M290 35q-2 -2 -22 -16q-71 -43 -128.5 -40t-93 46t-33.5 109q3 85 93 187t232 175.5t276 73.5q42 0 73.5 -7.5t47 -17.5t24.5 -23.5t11 -23t1 -17.5q-2 -42 -34.5 -81.5t-75.5 -64.5t-80.5 -40.5t-55.5 -16.5q42 -16 77.5 -48t33.5 -73q-2 -43 -23.5 -77t-54 -53.5
t-66 -29.5t-65.5 -10q-74 0 -137 48zM468 263q-81 -137 -155 -208q48 -38 113 -39q60 -2 115 32.5t60 105.5q1 25 -11 45.5t-34 32.5t-43 19.5t-45 11.5zM405 295q12 1 29.5 0t20.5 -1q17 29 33.5 60t28.5 55.5t21 43t15 31.5l6 13q7 15 16 3q10 -13 0 -34
q-48 -100 -88 -170q75 12 157.5 67t90.5 105q7 37 -25.5 58t-97.5 20q-93 -3 -197.5 -47.5t-184 -107.5t-133 -135t-54.5 -128q-1 -41 23.5 -80.5t73.5 -41.5q59 -1 126 51q-34 36 -36 59q-2 15 6 24q5 4 9 -3q17 -31 44 -61q73 68 150 191q-11 1 -19 1q-11 0 -20 14
q-8 12 5 13z" />
    <glyph glyph-name="C" unicode="C" horiz-adv-x="405" 
d="M469 340q-86 -75 -132 -53q-29 14 -20 54q5 24 24 44q30 31 61 37q5 1 7.5 -6t1 -15.5t-7.5 -10.5q-42 -17 -51 -48q-3 -23 17 -26q27 0 71 35.5t68 77.5q26 43 13 78t-66 35q-84 0 -180 -66.5t-159.5 -157t-65.5 -159.5q-1 -22 2.5 -43t12.5 -43t30 -38.5t51 -22.5
q50 -10 109 17t97 65q14 14 27 7q8 -4 -1 -14q-54 -61 -119.5 -87t-119 -17t-89.5 53t-36 114q0 83 54 168t139 150q80 60 162.5 86t136.5 8.5t54 -76.5q0 -66 -91 -146z" />
    <glyph glyph-name="D" unicode="D" horiz-adv-x="699" 
d="M242 19q-95 28 -125 27q-46 -1 -68 -20.5t-4 -39.5t71 -20q55 -1 126 53zM573 468q9 7 16 -2t2 -20q-30 -67 -111.5 -195.5t-174.5 -215.5q67 -18 122 -18q105 0 200 115q57 68 77.5 141t5.5 129.5t-64 93t-122 36.5q-91 0 -177.5 -40.5t-109.5 -67.5q-4 -5 -19 -1
q-13 4 -4 13q37 39 123 79.5t184 40.5q118 0 179 -68.5t48 -172.5t-96 -202q-98 -115 -227 -121q-75 -3 -150 17q-95 -77 -174 -70q-38 3 -62 17.5t-28 33.5t4.5 37.5t35.5 32t65 16.5q50 3 157 -31q147 133 300 423z" />
    <glyph glyph-name="E" unicode="E" horiz-adv-x="378" 
d="M233 342q20 -47 86 -47q56 0 63 24q6 19 -26 30q-19 7 -47 7q-36 0 -76 -14zM344 132q7 12 16 -1q7 -9 2 -16q-76 -126 -210 -126q-51 0 -95.5 40t-41.5 110q3 79 53 132t125 83q-8 41 17 88t85 92q64 47 136 65t120 5.5t54 -46.5q7 -40 -43.5 -73t-86.5 -35q-10 0 -14 4
t-2 9.5t8 7.5q44 15 78 37.5t26 46.5q-5 18 -40.5 23t-97.5 -13t-125 -62q-42 -29 -63 -66t-18 -70q48 13 87 15q67 1 94.5 -29t-1 -58.5t-93.5 -24.5q-83 5 -112 60q-62 -28 -104.5 -78.5t-44.5 -107.5q-3 -122 114 -122q57 0 105 34.5t72 75.5z" />
    <glyph glyph-name="F" unicode="F" horiz-adv-x="470" 
d="M670 512q54 -15 101 -8q48 7 58 34q9 21 -17 29q-13 5 -32 3q-49 -5 -110 -58zM345 314q19 5 126 3q80 123 135 180q-17 6 -58 23t-68.5 27t-69.5 19t-80 8q-44 -1 -76 -21t-47.5 -49.5t-21.5 -58t-4 -51.5q1 -6 -4 -6q-12 1 -24 20q-5 9 -5 16q4 87 54 131t130 46
q47 1 94 -7.5t74 -17.5t72.5 -27.5t61.5 -24.5q63 56 131 69q50 10 78 -9t17.5 -49t-54.5 -48q-69 -27 -164 -2q-60 -60 -134 -169q60 -4 70 -6q11 -4 4 -25l-4 -5q-22 5 -90 7l-7 -11q-4 -6 -31.5 -53.5t-50.5 -79t-60.5 -72t-83.5 -61t-97 -18.5q-42 2 -73 22t-46.5 48
t-23 60t-6.5 58.5t7 41.5q10 26 29 18q11 -4 8 -11q-9 -20 -9 -53.5t10 -69t40 -61.5t76 -27q30 -1 61.5 14.5t55.5 36t53 56t43.5 57.5t38 59t28.5 44l1 2q-28 0 -124 -2q-6 -2 -6 3q0 11 16 22q4 3 8 4z" />
    <glyph glyph-name="G" unicode="G" horiz-adv-x="455" 
d="M306 23q-69 -30 -124.5 -61.5t-91.5 -58.5t-62 -53.5t-38.5 -48t-18 -39.5t-4 -29.5t7.5 -17.5q18 -18 65 2.5t87 66.5q89 104 179 239zM395 59q-11 -5 -31 -13q-97 -147 -191 -255q-37 -43 -74 -71t-66 -38t-51.5 -7.5t-35.5 17.5q-5 5 -9 16t-3.5 32t9 45t35.5 56.5
t69 66t115.5 74t169.5 79.5q41 62 83 132q-159 -165 -280 -185q-81 -14 -106 44q-30 68 37 184q47 81 134 163q91 86 222 144.5t230 56.5q35 -1 54 -16t19 -33q0 -22 -24 -39q-2 -1 -2.5 1t-0.5 7.5t-0.5 11.5t-4 13t-9.5 12q-13 11 -46.5 11t-82.5 -12t-104 -34.5
t-118.5 -62t-118.5 -89.5q-54 -49 -91.5 -103t-51.5 -98t-11.5 -78t21.5 -48q32 -23 108.5 15.5t152.5 101.5t126 122q16 27 36 62t31.5 55t24 40.5t20 31.5t11.5 14q10 7 27 4q13 -4 2 -17q-21 -21 -52.5 -75.5t-82.5 -147t-98 -167.5l16 6q7 3 7 -6q0 -13 -15 -23z" />
    <glyph glyph-name="H" unicode="H" horiz-adv-x="734" 
d="M779 575q8 5 19.5 -2t3.5 -17q-107 -130 -170 -228q2 0 6 -0.5t6 -0.5q12 -2 16 -20q4 -15 -7 -15q-2 0 -5 1q-12 2 -37 2q-44 -74 -71 -139q-22 -56 -7.5 -99t54.5 -43q34 0 70.5 28.5t47.5 44.5q3 3 7 0t6 -8.5t1 -7.5l-5 -5q-5 -6 -11 -12.5t-16 -16t-20.5 -17.5
t-25 -16.5t-28.5 -13.5q-47 -17 -84 15.5t-36 94.5q0 64 77 194q-83 -3 -206 -12q-15 -26 -40 -70.5t-36.5 -64t-30.5 -50t-31 -44t-28.5 -30t-32.5 -24t-34 -10.5q-42 -8 -73.5 24t-42.5 66.5t-9 49.5q1 10 14 18q14 8 16 -12q2 -40 26.5 -78t66.5 -29q12 2 25.5 10.5
t27 24t25 30t27 38.5t25 40.5t26 43.5t24.5 41l13 23q-12 -1 -36 -3.5t-33 -3.5q-12 -1 -1 15q14 20 31 24q1 0 9.5 1t23 2t29.5 2q140 230 170 255q3 5 21 4q16 0 8 -12q-85 -119 -158 -243q133 10 205 9q51 81 108.5 155.5t79.5 90.5z" />
    <glyph glyph-name="I" unicode="I" horiz-adv-x="341" 
d="M646 592q-3 -2 -16.5 -8t-38.5 -17.5t-46 -21.5q-44 -51 -149 -224q-18 -30 -46 -79t-45 -79.5t-41.5 -67.5t-44 -57.5t-44 -35t-48.5 -14.5q-35 0 -61.5 22.5t-36.5 54t-13.5 64.5t5.5 54q7 19 28 18q7 0 6 -3q-3 -15 -4 -39.5t2.5 -55.5t21 -54.5t47.5 -27.5
q28 -4 67.5 38t70.5 94.5t71 123.5t58 97q49 71 107 149q-156 -71 -157 -71q-25 -13 -43.5 -30t-31.5 -41.5t-9.5 -59t25.5 -73.5q4 -7 -8 -8q-17 -2 -22 9l-4 9q-5 9 -8 16.5t-7.5 20t-6.5 28.5t-2 33q0 86 152 143q66 25 113 45t86.5 40.5t44.5 22.5q12 6 27 -6q7 -6 1 -9
z" />
    <glyph glyph-name="J" unicode="J" horiz-adv-x="335" 
d="M252 60q-92 -140 -191 -255q-37 -43 -74 -71t-66.5 -38t-51.5 -7.5t-35 17.5q-8 9 -12.5 27.5t7.5 56.5t47.5 79.5t125.5 98t224 109.5q166 254 176 408q3 34 -6.5 54.5t-27.5 26t-41 0t-50 -20.5q-71 -39 -157 -155q-26 -35 -43 -75.5t-21 -76.5t1 -66.5t21 -48
t41 -18.5q6 0 -5 -12q-13 -15 -33 -17q-33 -3 -53 52t-8 122q13 75 68 158t130.5 138.5t140.5 52.5q44 -2 63.5 -33.5t17.5 -78.5q-2 -64 -47 -168t-119 -223l16 6q8 3 8 -7q-1 -12 -15 -23q-11 -4 -31 -12zM15 -202q107 127 186 241q-70 -30 -127 -61.5t-93.5 -59
t-63 -54.5t-39.5 -48t-19 -39.5t-4.5 -30t7.5 -17.5q18 -18 65.5 2.5t87.5 66.5z" />
    <glyph glyph-name="K" unicode="K" horiz-adv-x="536" 
d="M185 281q3 5 42 68q-9 1 -27 -1q-33 -6 -54.5 -21t-17.5 -26q9 -25 57 -20zM294 318q-15 15 -34 24q-19 -30 -30 -48l-2 -4q37 13 66 28zM746 603q7 3 22 -10q11 -11 0 -14q-39 -12 -171 -94.5t-240 -159.5q-3 -1 -7 -4t-7 -5q19 -29 36 -84t28 -98.5t37 -82t63 -46.5
q10 -2 12 -10t-1 -14.5t-6 -7.5q-45 -2 -76 34.5t-45.5 84t-36 110t-42.5 94.5q-59 -34 -105 -42q-132 -220 -185 -259q-11 -9 -25 4q-8 6 -3 11q52 45 171 240l1 1q-32 1 -50 16q-37 34 -10.5 67t85.5 43q26 5 54 0q115 182 151 218q14 12 31 -2q5 -6 3 -9
q-52 -63 -152 -215q30 -12 49 -32q8 5 38 25q67 50 123.5 90t94.5 64.5t67.5 42t47 25.5t27.5 12.5t15 5.5z" />
    <glyph glyph-name="L" unicode="L" horiz-adv-x="562" 
d="M249 68q-75 41 -118 41q-38 0 -59.5 -14t-23.5 -34q-2 -13 5.5 -26.5t24.5 -22t40 -9t57.5 15.5t73.5 49zM607 464q94 -1 152.5 28t64.5 63q2 14 -16 16q-36 5 -99 -30q-50 -28 -102 -77zM400 567q35 -89 165 -101q67 74 134 110q25 14 53 21.5t55.5 4.5t40.5 -20
q22 -28 -23.5 -75t-116.5 -62q-68 -13 -131 -12l-8 -9q-9 -10 -62.5 -92.5t-96.5 -138.5q-55 -74 -111 -123q71 -39 113 -39q12 0 23.5 3t21 8.5t18.5 12t16 14.5t13 15t10.5 14.5l7.5 12.5t5 9l2 4q3 4 7.5 2t9 -8.5t4.5 -11.5q1 -20 -37 -60t-93 -43q-47 -3 -142 49
q-48 -39 -92.5 -57t-75.5 -16.5t-55 13.5t-35 31.5t-10 38.5q2 33 34 55.5t88 18.5q58 -5 137 -49q58 55 113 131q7 10 65 93.5t93 125.5q-120 16 -159 104q-7 14 8 26q8 8 11 0z" />
    <glyph glyph-name="M" unicode="M" horiz-adv-x="889" 
d="M32 79q1 -6 6 -18.5t18.5 -27.5t29.5 -15q33 0 94 62t145 205q85 144 148 221.5t108 78.5q20 0 26 -14.5t-3 -45.5t-24 -65t-41 -86q-38 -77 -81 -185.5t-32 -119.5q5 -4 23 14t42.5 49.5t47 62t41.5 57t21 29.5q148 183 218 250q27 27 51.5 44t42.5 22t28.5 -1
t11.5 -21.5t-10.5 -43.5t-34.5 -63q-3 -4 -25 -36t-42 -63t-45.5 -72t-47.5 -83t-35 -76q-40 -105 13 -107q42 -2 102 49q10 9 19 18q5 4 10.5 3t8.5 -5t1 -7q-75 -80 -132 -92t-68 34.5t12 121.5q24 63 74.5 144.5t98 149t53.5 78.5q9 19 -4 20q-18 0 -53 -32
q-65 -60 -148 -159.5t-155 -192.5t-89 -112q-14 -16 -27.5 -23.5t-24.5 3.5t-9 48q3 57 93 260q80 183 81 189q4 19 -8 18q-18 -2 -53 -43q-42 -49 -176 -268q-151 -243 -243 -243q-25 0 -42 11.5t-24.5 30t-10 28t-3.5 18.5q0 6 5.5 7.5t11.5 -0.5t6 -6z" />
    <glyph glyph-name="N" unicode="N" horiz-adv-x="630" 
d="M41 83q-1 -18 14.5 -42.5t43.5 -21.5q12 1 24.5 10.5t27.5 29t25.5 35.5t29.5 46.5t28 45.5q22 32 83 127q136 211 184 243q39 26 38 -32q0 -25 -7 -64q-38 -230 -55 -387q-1 -28 15 -13q11 10 28 39q72 121 106 180t65 116.5t41 78t49 100.5q5 10 17 -10q6 -11 4 -15
l-12 -23q-11 -23 -29 -59t-41.5 -82t-52 -97.5t-57.5 -101.5t-60 -97.5t-58 -80.5q-20 -25 -37 0q-13 21 -11 57q2 43 9 101.5t16 114t16.5 101.5t14.5 80l6 34q2 15 -6 15q-10 -3 -25 -22q-65 -85 -179 -273q-37 -60 -56.5 -89.5t-49 -68.5t-53 -55t-44.5 -15
q-28 1 -48 21.5t-27 41.5t-6 36q0 7 7.5 9.5t14.5 -1t7 -12.5z" />
    <glyph glyph-name="O" unicode="O" horiz-adv-x="447" 
d="M235 452q-51 -57 -70 -106q-6 -16 6 -23q5 -2 8 2q13 27 44 67.5t69 74.5q41 37 83.5 53.5t73.5 9.5t50 -31.5t15 -72t-33 -108.5q-55 -112 -153 -206.5t-174 -94.5q-47 0 -77.5 38.5t-30.5 98.5q0 82 62 167t127 131zM260 478q-6 17 -21 20q-12 2 -49 -30.5t-77.5 -81.5
t-71.5 -117.5t-31 -128.5t41.5 -106.5t105.5 -46.5q51 0 111 37.5t111 94.5t92.5 122t62.5 121q17 43 17 75q0 63 -32.5 95.5t-83 31t-106.5 -33.5q-35 -20 -69 -52z" />
    <glyph glyph-name="P" unicode="P" horiz-adv-x="509" 
d="M398 229q-62 -98 -108 -153q-35 -42 -72.5 -64.5t-70 -22t-61 14t-46 42.5t-25 64.5t1.5 80t34 87.5q68 116 213.5 203t287.5 87q77 0 129.5 -26t52.5 -83q0 -84 -94 -158t-206 -74q-14 0 -36 2zM576 515q9 2 9.5 -6t-2.5 -10q-14 -12 -29.5 -30t-34 -45.5t-32 -49
t-37.5 -61t-38 -61.5q9 -1 27 -1q80 1 170 69.5t91 127.5q1 42 -26.5 67.5t-107.5 25.5q-136 0 -278 -81t-204 -193q-64 -116 -26 -192q26 -53 85 -53q70 -1 126 75q1 2 2 3q46 65 91 137q-47 15 -55 44q-3 10 2 11q1 0 2 -1q2 -1 12 -7.5t23.5 -13.5t29.5 -12
q11 17 41.5 66t44.5 70q74 112 114 121z" />
    <glyph glyph-name="Q" unicode="Q" horiz-adv-x="478" 
d="M136 -16q-70 9 -106 76q-22 44 -19.5 99.5t28.5 103.5q35 63 75 110q34 39 70 65.5t52 31.5q18 7 25 -12q26 29 52 47q48 36 94.5 52t81 12t58.5 -25t33 -54.5t-0.5 -80.5t-39.5 -99q-61 -108 -123.5 -176.5t-166.5 -124.5q-43 -23 -84 -26q17 -46 60 -55q27 -6 56.5 5.5
t43 22t21.5 20.5q12 11 19 6q3 -2 0 -7q-22 -37 -57 -58t-76 -15q-76 10 -97 82zM165 127q5 7 14 -5q6 -10 3 -15q-29 -41 -24 -94q33 1 75 21q149 72 272 286q39 68 41 124t-24.5 81t-77.5 16.5t-109 -57.5q-85 -72 -133 -151q-4 -4 -9 -3.5t-7 5.5t1 15q25 53 65 99
q-38 -10 -91.5 -71t-86.5 -123q-41 -74 -24.5 -151t81.5 -89q-3 61 34 112z" />
    <glyph glyph-name="R" unicode="R" horiz-adv-x="649" 
d="M412 243q-3 0 -8 -1t-9 -1.5t-7 -0.5q-96 -138 -108 -154q-26 -37 -55.5 -60.5t-57 -32t-53 -6t-45.5 15.5t-34 35.5t-19 51.5t0.5 65.5t23.5 74.5q39 85 112.5 153.5t155.5 107.5t150 60t119 26q64 7 107.5 -5.5t59.5 -39t12 -60t-34 -71.5t-80 -72q-84 -55 -192 -79
q27 -35 59 -95.5t53 -103t51.5 -69.5t64.5 -16q16 5 20 -11q3 -7 -1 -8q-29 -12 -55 -8t-44.5 14.5t-36 32.5t-31 46t-28 54t-27 56t-29.5 54t-34 47zM361 259l12 17q-21 13 -43 17q-37 7 -48 -7q-9 -12 15 -21q23 -8 64 -6zM573 522q7 6 11.5 2.5t4.5 -10t-2 -9.5
q-48 -47 -168 -221l15 -15q69 16 158 62q75 40 113 104q40 67 -2 98q-27 20 -87 17q-155 -7 -309 -97t-222 -208q-30 -52 -37.5 -97t4.5 -72.5t30.5 -43.5t39.5 -17q63 -4 134 91q13 17 91 131q-28 0 -50 5q-45 11 -49 38q-5 26 32 38q20 7 47 6q33 -1 65 -20
q118 168 181 218z" />
    <glyph glyph-name="S" unicode="S" horiz-adv-x="458" 
d="M83 273q-27 -35 -32 -79t9.5 -81.5t51.5 -63.5t89 -26q75 0 136 61.5t58 113.5q-2 29 -25 49t-54.5 32t-62.5 24.5t-52.5 34t-21.5 52.5t24 59.5t62 49.5t71 35t64 23q77 22 133 10q74 -17 6 -95q-17 -20 -43 -36.5t-43 -19.5q-12 -2 -15 3t-1 11t4 7q34 7 68 40t30 49
q-4 18 -63 12q-54 -6 -116.5 -30t-112.5 -64q-28 -22 -31.5 -43.5t10 -37.5t39.5 -28q18 -9 55.5 -23t52.5 -21q55 -27 61 -82t-36 -108q-81 -104 -191 -113q-58 -4 -105 25.5t-68.5 74t-18 98t36.5 93.5q11 13 27 6q10 -5 4 -12z" />
    <glyph glyph-name="T" unicode="T" horiz-adv-x="389" 
d="M593 508q43 -10 75 -6q45 5 53 26q5 13 -15 16q-16 2 -41 -4q-38 -9 -72 -32zM312 576q35 0 73.5 -7t56.5 -12t63.5 -21t49.5 -17q54 42 111 54q65 15 84 -17q14 -26 -14 -51q-23 -21 -63 -25q-54 -6 -108 7q-45 -38 -90.5 -106t-81 -132.5t-73.5 -125t-83 -98t-93 -37.5
t-83.5 40.5t-43.5 91.5t6 98q4 7 11 7t12.5 -6t2.5 -12q-11 -19 -6.5 -51.5t15.5 -64t36.5 -53t55.5 -19.5q45 3 92 58.5t83.5 125.5t93 157t110.5 137q-9 3 -35.5 12.5t-41.5 14t-40 10.5t-50.5 9t-54.5 4q-69 1 -117.5 -34.5t-54.5 -89.5q-5 -59 19 -81q4 -4 1 -15t-12 -6
q-16 10 -29.5 38t-12.5 59q4 68 65 113t146 45z" />
    <glyph glyph-name="U" unicode="U" horiz-adv-x="456" 
d="M408 -8q6 -6 3.5 -18t-17.5 -10q-27 4 -41.5 33t-13.5 63q4 71 28 132q-45 -54 -95 -101q-51 -48 -99 -73.5t-82.5 -28t-56 15.5t-24.5 51.5t18.5 86t66.5 113.5q62 83 171 200q57 62 25 64q-10 1 -26 -5q-1 1 -2.5 3.5t-3.5 8.5t-0.5 11t9 10t22.5 7q18 2 35 -4
t23 -23.5t-20 -49.5q-13 -17 -90.5 -102t-116.5 -137q-35 -47 -53 -88.5t-18 -68.5t14.5 -41.5t40 -12.5t63.5 24t79 62q52 51 118 125.5t112.5 131t88.5 109.5l41 52q4 2 13 1t16 -7t2 -13q-1 -1 -37 -44t-75 -91t-78 -103.5t-51 -86.5q-11 -30 -19 -68t-3 -79t33 -49z" />
    <glyph glyph-name="V" unicode="V" horiz-adv-x="308" 
d="M35 402q-5 -9 -11.5 4.5t-0.5 25.5q2 5 12.5 20.5t28.5 37t45 35t54 9.5q80 -12 -46 -306l-1.5 -3l-1.5 -3t-1.5 -3.5l-1 -3t-1.5 -2.5q-64 -153 -63 -185q0 -16 11 -15q28 3 136 119t166 200q49 68 68.5 122t18.5 83q-1 8 13 11q21 5 23 -21v-12q-5 -54 -52 -133
t-111 -153t-114 -126.5t-80 -78.5q-47 -39 -75.5 -37.5t-35.5 32.5q-2 6 -2 12.5t1.5 15.5t3 16.5t6 20.5t8 23.5t11 29t13 32.5t16 39.5t18.5 45.5q82 203 67 238q-4 12 -18 11q-18 -1 -44.5 -27t-40 -45t-19.5 -29z" />
    <glyph glyph-name="W" unicode="W" horiz-adv-x="638" 
d="M576 485q-2 -4 -42.5 -69t-88 -144t-70.5 -125q-39 -78 -17 -113q18 -30 65 3l8 6q119 97 212 225t117 195q5 13 7 23t2 20t-0.5 14.5t-3.5 15.5t-3 13q-3 16 11 22t21 -2q20 -20 10 -77q-10 -67 -84 -173.5t-148 -186t-118 -114.5q-45 -32 -79 -28.5t-50 37.5t-4 81
t55 119.5t96 148t57 81.5q27 44 9 43q-8 0 -18 -11q-89 -93 -221 -271.5t-145 -193.5q-32 -37 -68 -40t-55.5 29.5t-7.5 89.5q10 45 50 108.5t92 133t70 102.5q27 50 3 55q-14 1 -29 -10q-13 -10 -44.5 -41t-34.5 -33q-7 -5 -13.5 6t-3.5 16q78 97 134 98q50 1 33 -63
q-12 -42 -46 -92q-6 -8 -33 -46.5t-40 -58t-35 -53.5t-37.5 -63.5t-26.5 -57.5q-13 -30 -9.5 -50t14.5 -30.5t33 -0.5t46 42q11 14 88 121.5t148 196.5t124 136q25 22 46.5 21t26.5 -18t-3 -37z" />
    <glyph glyph-name="X" unicode="X" horiz-adv-x="832" 
d="M808 433q19 6 26 -5q4 -8 -7 -16q-39 -26 -49 -61q-7 -25 14 -24q8 0 21 6q45 20 96 83q46 56 36 101t-71 45q-80 0 -190.5 -81.5t-164.5 -169.5q-23 -37 -35 -85.5t-10 -94.5t27 -79.5t72 -37.5q95 -7 227 106q6 6 11 -6q3 -9 0 -15q-5 -10 -31 -34t-82 -51t-115 -27
q-71 0 -115.5 58t-24.5 156q-77 -112 -164.5 -170.5t-165.5 -36.5q-50 14 -80.5 65t-24.5 106q3 20 22 12q17 -8 16 -21v-2q-11 -35 19.5 -85t79.5 -50q53 0 111.5 37.5t107.5 94t87.5 118t59.5 115.5q15 44 15 81.5t-21.5 58t-52.5 25.5t-77 -15t-96 -64q-22 -20 -54.5 -63
t-43.5 -70q-2 -9 -11 -1q-11 9 -6 27q19 61 106 139.5t162 78.5q69 0 106 -45t10 -130q73 83 170.5 129.5t155.5 46.5q62 0 89 -28.5t16.5 -73.5t-53.5 -92q-27 -30 -65 -55.5t-70 -33.5t-43 15q-16 39 12 75.5t48 43.5z" />
    <glyph glyph-name="Y" unicode="Y" horiz-adv-x="387" 
d="M139 -32q-144 -59 -240 -123q-91 -60 -108 -116q-11 -36 19 -41q26 -4 70 23q102 62 259 257zM191 553q45 17 64 -8t-8 -72q-14 -24 -84.5 -118.5t-98.5 -152.5q-18 -38 -11.5 -80t38.5 -54t94 34q14 11 28.5 25t25.5 26t27.5 33t24.5 31t26.5 36.5t24 34t26.5 38.5
t24 36l105 155q5 7 16 -7q10 -12 4 -22q-170 -292 -294 -463q63 19 136 38q3 1 5.5 -4t1.5 -10.5t-7 -7.5q-89 -26 -163 -52q-209 -277 -341 -327q-55 -21 -84.5 3.5t-20.5 62.5q35 162 423 283q59 75 87 123q-70 -91 -141.5 -99.5t-92 50.5t8.5 141q7 15 14.5 30t17.5 30.5
t17 26.5t19 27.5t17.5 25t19.5 25.5t18 22t19 23t16 20q39 48 27 60q-6 6 -24 -1q-68 -25 -134 -86q-6 -6 -8 7q-2 21 9 33q16 16 54.5 43.5t73.5 40.5z" />
    <glyph glyph-name="Z" unicode="Z" horiz-adv-x="425" 
d="M288 26q-168 -76 -315 -173q-100 -65 -118 -120q-13 -38 22 -42q27 -4 73 17q75 35 136 79t100 88t62.5 80t39.5 71zM231 168q-37 4 -80 -7.5t-73 -32.5q-35 -25 -31 -43q6 -12 28.5 -8.5t65.5 28t90 63.5zM70 151q104 66 196 48q70 65 129 145q30 41 34.5 76t-13.5 53.5
t-58.5 16t-92.5 -30.5q-23 -12 -45 -26t-39 -26t-34 -25.5t-29 -24t-24 -21.5t-18 -17.5t-12.5 -13l-7.5 -7.5q-6 -5 -11.5 -1.5t-7 10.5t1.5 12q74 93 219 170q44 24 92 33.5t85 -1.5t42.5 -51.5t-35.5 -117.5q-35 -63 -145 -163q66 -32 46 -114q40 16 48 19q4 2 7 -6
q2 -11 -7 -16q-3 -2 -11 -5t-21 -9t-25 -11q-6 -15 -15 -30q-24 -43 -62.5 -94t-92 -107t-121.5 -100t-135 -59q-55 -12 -78 15t-13 64q13 45 67 94t132.5 93t145 75t138.5 60q2 5 4 13q19 69 -39 90q-41 -35 -79 -61t-73.5 -43t-61.5 -17t-37 21q-9 16 5.5 41.5t50.5 48.5z
" />
    <glyph glyph-name="backslash" unicode="\" horiz-adv-x="233" 
d="M-27 617q-3 6 4 11t15.5 4.5t12.5 -5.5q41 -86 178.5 -356t139.5 -273q4 -9 0 -15t-11.5 -5.5t-10.5 5.5q-30 55 -153.5 293t-174.5 341z" />
    <glyph glyph-name="asciicircum" unicode="^" horiz-adv-x="179" 
d="M48 185q68 59 73 37q5 -32 8 -40q1 -7 -11 -12.5t-13 6.5q-1 4 -7 22q-4 -3 -19.5 -14t-20.5 -15q-2 -2 -5.5 1.5t-5 8t0.5 6.5z" />
    <glyph glyph-name="underscore" unicode="_" horiz-adv-x="233" 
d="M205 24q8 -3 6.5 -14t-11.5 -10q-9 1 -86.5 -0.5t-80.5 -1.5q-4 0 -7.5 5t-4 9.5t1.5 5.5q1 0 11.5 2t26.5 4t29 2q12 1 60.5 0t54.5 -2z" />
    <glyph glyph-name="grave" unicode="`" horiz-adv-x="229" 
d="M143 187q2 -2 0 -9t-5 -9q-6 -5 -49 38v5t1.5 11t4 8.5t7.5 -1.5q5 -3 21.5 -21t19.5 -22z" />
    <glyph glyph-name="a" unicode="a" horiz-adv-x="364" 
d="M386 86q-11 -11 -27 -25t-53 -38t-65 -28q-38 -6 -58 17t-9 60q-52 -55 -79.5 -69.5t-54.5 -10.5q-32 5 -38.5 44t30.5 97q36 50 81 74.5t73 24.5q18 0 32 -11.5t18 -29.5q15 19 19 20q6 3 17.5 -6t11.5 -13q0 -1 -49 -54q-47 -73 -29.5 -98t87.5 10q41 20 88 61
q8 7 9 -8q0 -13 -4 -17zM196 136l10 14h-1q1 2 2 5.5t1.5 12t-1 15t-8 12t-17.5 5.5q-56 0 -109 -67q-43 -53 -39 -87q2 -15 15 -18q14 -4 33 5t38 25.5t35 33t28 30t13 14.5z" />
    <glyph glyph-name="b" unicode="b" horiz-adv-x="250" 
d="M203 128q35 44 26 66q-6 14 -19 0l-11 -15q-10 -22 -8 -35t12 -16zM38 99q-18 -69 28 -70q45 0 109 67q-13 16 -13.5 46.5t20.5 60.5q37 44 64 26t3 -69q-29 -62 -82.5 -110t-97.5 -52q-23 -2 -46 26t-16 68q20 120 125 247t193 165q26 11 41.5 11.5t19 -14.5t-21.5 -55
q-27 -46 -116.5 -144.5t-209.5 -202.5zM51 139q86 83 166.5 169.5t101.5 113.5q48 61 29 64q-15 2 -63 -38q-71 -60 -137 -148t-97 -161z" />
    <glyph glyph-name="c" unicode="c" horiz-adv-x="244" 
d="M16 38q-9 17 -11 38t15 55.5t58 67.5q63 52 117 43q34 -6 34 -33q0 -4 -1 -8q-7 -26 -42 -53q-3 -2 -8 2.5t-6.5 10.5t5.5 13q19 16 14 32.5t-26 11.5q-17 -4 -50 -29t-52 -53q-40 -59 -12 -91q28 -33 99 -6q53 21 111 72q8 7 9 -8q1 -12 -3 -17q-77 -77 -136 -85
q-85 -13 -115 37z" />
    <glyph glyph-name="d" unicode="d" horiz-adv-x="332" 
d="M208 147q42 40 83.5 83.5t72.5 79t32 36.5q95 101 89 124q-5 17 -59 -27q-48 -40 -103 -105q-80 -97 -115 -191zM188 184q-15 31 -53 11t-65 -60q-50 -78 -30 -97q18 -17 71 25q9 6 55 45q5 35 22 76zM377 281q-89 -95 -181 -176q-15 -73 23 -76q36 -2 130 82q8 7 9 -8
q1 -12 -3 -17q-88 -88 -136 -86q-23 1 -38.5 21t-16.5 56q-47 -42 -68 -54q-53 -31 -81 -2t0 88q12 25 34 50q34 39 68.5 55.5t53.5 14.5t33 -10q36 67 98 139q102 119 172 148q45 18 44 -15q-1 -56 -122 -189z" />
    <glyph glyph-name="e" unicode="e" horiz-adv-x="227" 
d="M38 84q53 29 89 64q48 47 37 59t-57 -25q-7 -5 -14 -11q-42 -38 -55 -87zM157 45q31 16 87 66q8 7 9 -8q0 -13 -4 -17q-5 -6 -25 -24t-56 -40.5t-64 -26.5q-76 -10 -97 48q-12 30 3 68.5t50 70.5q70 64 115 58q31 -4 22 -39q-6 -25 -32 -55q-15 -16 -61.5 -52t-67.5 -45
q13 -57 121 -4z" />
    <glyph glyph-name="f" unicode="f" horiz-adv-x="252" 
d="M79 6q-3 30 -15 46q-14 19 -27 7q-15 -13 -1 -34q4 -5 10 -10q10 -9 33 -9zM63 121q141 102 281 279q65 83 45 93q-18 9 -75 -43q-27 -25 -54 -58q-98 -122 -197 -271zM68 84q37 -21 42 -71q73 22 159 98q8 7 9 -8q0 -13 -4 -17q-85 -85 -163 -98q-5 -99 -97 -225
q-61 -82 -126 -103q-57 -19 -71 26q-11 39 18 115q36 92 206.5 346t267.5 335q40 33 69 42t39.5 -4t1 -45t-39.5 -74q-37 -52 -138.5 -160t-172.5 -157zM3 28q-87 -138 -120 -205q-51 -110 -27 -131q15 -13 43 3t56 47q118 135 124 243q-55 2 -76 43z" />
    <glyph glyph-name="g" unicode="g" horiz-adv-x="323" 
d="M219 163q0 18 -9 29.5t-25 10.5q-60 -4 -111 -73q-39 -53 -34 -84q5 -24 38 -10q16 7 30.5 15.5t25 16t22 18t18 17t15 17.5t12 15.5t10.5 15.5t8 12zM105 -60q-89 -43 -147 -96.5t-72.5 -89t1.5 -45.5q7 -1 18.5 0t32 13t36.5 32q78 95 131 186zM268 229q7 8 26 2
q12 -5 4 -12q-10 -9 -19.5 -19.5t-20 -26.5t-18 -28.5t-19.5 -35t-18 -34.5l-20 -40l-20 -40q86 46 124 73q20 14 53 43q8 7 8 -8q1 -13 -3 -17q-31 -31 -64 -54q-40 -29 -137 -74q-80 -152 -157 -229q-36 -34 -73 -46t-53 2q-13 9 -18 26t4 44t34.5 58t83 71.5t139.5 80.5
q3 2 10.5 5.5t10.5 5.5q17 33 44 88q-111 -100 -154 -48q-25 30 -1 87t80 98t110 30q24 -5 37 -35q12 16 27 33z" />
    <glyph glyph-name="h" unicode="h" horiz-adv-x="330" 
d="M108 212q85 77 174.5 176.5t73.5 113.5q-24 24 -140 -120q-62 -74 -108 -170zM81 150l-3 -8q53 48 108.5 78.5t76.5 11.5q28 -25 -54 -132q-18 -23 -19.5 -39.5t7 -23.5t20.5 -8q35 -2 130 82q8 7 9 -8q0 -13 -4 -17q-88 -88 -136 -86q-23 1 -39.5 16t-18.5 38
q-1 17 4.5 32t13 25t31.5 38q32 38 23 52.5t-51 -15.5q-31 -22 -65 -55.5t-55.5 -60t-40 -49.5t-19.5 -24q-7 -6 -13 11q-7 21 3 40q180 377 308 460q28 18 49.5 23t32 -2t13 -21.5t-8 -37t-31.5 -46.5q-133 -153 -271 -274z" />
    <glyph glyph-name="i" unicode="i" horiz-adv-x="168" 
d="M51 30q-33 3 -10 55q6 15 23 41t35 51t19 26q4 7 1.5 14t-8 11.5t-9.5 1.5q-11 -8 -60 -80q-32 -46 -39 -81.5t16 -53.5q12 -9 28.5 -9.5t31 3.5t32.5 14.5t28.5 18.5t25 20.5t17 15l8.5 8.5q6 7 3 22q-3 6 -8 3q-96 -84 -134 -81zM167 305q12 -8 10.5 -22t-15.5 -26
t-29 -7q-11 4 -13 16.5t4 22.5q6 12 18.5 17t24.5 -1z" />
    <glyph glyph-name="j" unicode="j" horiz-adv-x="139" 
d="M149 305q12 -8 11.5 -22t-13.5 -26t-28 -7q-11 4 -14.5 16t1.5 23q5 13 18 17.5t25 -1.5zM-54 -14q28 47 64 109.5t53 90.5t22 32q3 3 9 -2.5t9.5 -13.5t-0.5 -14q-1 -1 -14.5 -24t-42.5 -70.5t-53 -86.5q103 48 163 104q8 7 9 -8q0 -13 -4 -17q-26 -26 -51 -44t-39 -25
t-44 -21q-49 -20 -54 -23l-2 -3q-11 -18 -41.5 -69.5t-44 -73.5t-39.5 -54t-51 -53q-49 -37 -77.5 -1t-7.5 85q28 63 116 124q34 22 120 58zM-238 -178q-37 -50 -29 -81q6 -26 41 -2l7 5q7 5 15 13.5t18 22t17.5 24t21 32t21 33t25 40t25.5 41.5v1q-102 -49 -162 -129z" />
    <glyph glyph-name="k" unicode="k" horiz-adv-x="344" 
d="M236 386q-72 -88 -125 -174q78 70 154 154q68 73 79 98q6 14 1 21q-4 5 -18 -4.5t-32.5 -29t-32 -34.5t-26.5 -31zM108 110q29 -21 82.5 2t77.5 54q23 29 0 34q-15 3 -37 -8q-61 -30 -123 -82zM348 416q-17 -24 -46.5 -56.5t-60 -63.5t-63.5 -63.5t-58 -55.5t-43 -40
l-18 -17q-6 -12 -8 -17q99 86 175 119q49 22 78.5 5.5t-8.5 -70.5q-44 -55 -134 -81q-10 -3 7 -20q25 -26 62 -26q36 -2 130 81q8 7 9 -8q0 -13 -4 -17q-5 -6 -25 -24.5t-54 -40t-57 -21.5q-88 0 -136 97q-25 -22 -48 -45t-35 -36.5t-13 -14.5q-6 -7 -20 -3.5t-7 19.5
q39 91 147 258t165 214q28 22 52.5 27.5t36 -4.5t6.5 -36t-30 -60z" />
    <glyph glyph-name="l" unicode="l" horiz-adv-x="183" 
d="M46 105q-4 -16 -4 -35q0 -39 28 -41q36 -2 130 82q8 7 9 -8q1 -12 -3 -17q-88 -88 -136 -86q-28 1 -42 18t-14.5 43.5t3 49t10.5 44.5q18 56 50.5 111.5t68.5 97t67.5 70t54.5 43.5q31 20 55.5 23.5t28.5 -7.5q16 -22 -14.5 -74t-91 -117t-108 -110.5t-92.5 -86.5z
M54 139q87 78 186.5 192.5t79.5 133.5q-11 11 -55 -24q-54 -41 -119.5 -131.5t-91.5 -170.5z" />
    <glyph glyph-name="m" unicode="m" horiz-adv-x="436" 
d="M292 119q2 3 11 14t13.5 17t12 18.5t7 17l-1.5 13.5q-6 11 -34.5 -2.5t-57.5 -39.5q-20 -18 -66.5 -75.5t-51.5 -61.5t-14 -0.5t-5 11.5q2 3 14 21.5t29.5 47t31.5 54.5q28 49 4 50q-11 -1 -23 -10q-37 -30 -68 -61.5t-46.5 -50t-30.5 -39t-17 -22.5q-11 -14 -19 1
q-8 14 0 26q94 157 130 193q1 1 5 -2t6.5 -8.5t2.5 -9.5q-1 -8 -37 -59q52 52 79 68q15 9 31 8t26.5 -15.5t-0.5 -51.5q38 37 78.5 56t59.5 1q7 -9 8 -23.5t-10 -39.5t-33 -50q-23 -26 -27 -46.5t4 -29.5t20 -10q35 -2 130 82q8 7 9 -8q0 -13 -4 -17q-84 -84 -136 -86
q-20 -1 -37 12t-21 39.5t28 67.5z" />
    <glyph glyph-name="n" unicode="n" horiz-adv-x="279" 
d="M79 165q27 31 69.5 55.5t63.5 11.5q19 -15 8 -48t-44 -75q-18 -22 -25 -40.5t-3 -28.5t18 -11q35 -2 130 82q8 7 9 -8q0 -13 -4 -17q-5 -6 -25.5 -25t-54.5 -40.5t-55 -20.5q-49 2 -49 46q0 20 10 41.5t29 48t21 30.5q22 34 2 36q-20 3 -57 -30q-54 -47 -90 -90
q-34 -61 -40 -67q-11 -10 -17 7q-5 13 1 26q54 85 114 200q3 5 16 1t13 -9q0 -2 -40 -75z" />
    <glyph glyph-name="o" unicode="o" horiz-adv-x="231" 
d="M121 197q3 -5 0 -8q-90 -76 -85 -134q3 -29 26 -33h6q37 3 82 58q69 84 52 123q-12 27 -54 9q-13 -5 -27 -15zM94 203q2 8 20 19.5t35 16.5q59 17 79 -20q25 -46 -33 -127q-19 -25 -44 -51q-31 -32 -61 -44t-50 -3t-30.5 28t-5 51t28.5 65q24 34 60 61q0 3 1 4z" />
    <glyph glyph-name="p" unicode="p" horiz-adv-x="221" 
d="M56 101q-15 -42 -19 -60q13 -34 46.5 -19.5t61.5 57.5q46 72 28 98q-5 8 -17 8q-33 0 -100 -84zM37 131q28 116 43 139q5 8 24 5q12 -1 9 -10q-15 -45 -30 -87q45 42 80 42q26 -1 38 -23.5t3 -60.5t-40 -79q-81 -105 -137 -54q-28 -107 -58.5 -193t-64.5 -143t-61 -50
q-81 20 20.5 236t173.5 278zM-103 -150q-46 -96 -51 -147q-11 -89 16 -53q30 41 75 161q1 2 1 3q46 131 71 216q0 4 4 14v0q-69 -99 -116 -194z" />
    <glyph glyph-name="q" unicode="q" horiz-adv-x="256" 
d="M137 1q-9 1 -15 6q-116 -172 -137 -253q-18 -70 -1 -69q11 1 37 44q42 70 75 149t41 123zM206 173q-4 20 -31 24q-29 5 -73.5 -30t-65.5 -81q-18 -41 -6 -58t47 8q42 32 73 57zM98 15q-37 -30 -64 -26q-27 3 -35.5 27.5t1.5 57.5t32 65q36 52 85 72.5t76 10.5
q21 -7 29 -29q24 32 34 42q7 7 15 -1t5 -13l-3 -4q-3 -4 -9.5 -12t-15 -19.5t-19.5 -26.5t-23 -31.5t-26.5 -36.5t-27.5 -39q9 -7 10 -20q34 11 112 79q8 7 9 -8q0 -13 -4 -17q-70 -70 -118 -84q-10 -73 -62.5 -185.5t-104.5 -150.5q-19 -14 -35 8q-28 37 8 121q7 15 16 31
q55 98 115 189z" />
    <glyph glyph-name="r" unicode="r" horiz-adv-x="257" 
d="M101 206q17 27 17 28q6 15 -5 14q-13 0 -19 -17q-1 -2 -1 -5q-3 -15 8 -20zM144 0q-30 1 -42.5 21.5t-3 55.5t42.5 73q33 37 25 45q-6 2 -12 0t-19.5 -5.5t-22.5 -3.5q-37 -49 -96 -107q-5 -4 -8 7q-4 12 -1 16q39 33 82 88q-24 13 -17 43q9 38 42 45q26 6 33 -13
q4 -9 -1 -21q-6 -14 -20 -37q11 3 33 11q35 13 46.5 -2t-17.5 -51q-11 -14 -23.5 -32.5t-26 -42.5t-13 -41.5t19.5 -19.5q33 -3 130 82q8 7 8 -8q1 -13 -3 -17q-88 -88 -136 -86z" />
    <glyph glyph-name="s" unicode="s" horiz-adv-x="243" 
d="M92 7q-36 17 -54 78l-3 6q-15 -21 -1 -52t42 -33q6 -1 16 1zM122 211q39 42 36 54q-2 10 -15 4q-15 -8 -22 -35q-4 -11 1 -23zM38 129q33 30 67 65q-9 22 -5 43q5 27 29.5 47t42.5 17q33 -6 8 -53q-12 -22 -46 -59q1 -1 12.5 -16t14.5 -20.5t8.5 -19.5t5.5 -27
q2 -40 -13 -69q34 17 98 74q8 7 9 -8q0 -13 -4 -17q-5 -6 -23 -23t-50.5 -38t-57.5 -25q-20 -16 -46 -20q-40 -5 -65 26.5t-23 75.5q0 24 8 38t16.5 13.5t13.5 -4.5zM127 30q18 23 18 57q0 28 -29 84q-29 -29 -67 -63q39 -72 78 -78z" />
    <glyph glyph-name="t" unicode="t" horiz-adv-x="185" 
d="M178 336l64 3q25 29 37.5 48t11.5 24.5t-4 7.5q-10 1 -42.5 -23.5t-66.5 -59.5zM61 153q96 92 157 160q-42 -2 -63 -4q-64 -76 -94 -156zM255 315l-5 -5q-89 -98 -202 -201q-5 -23 -5 -39q0 -39 29 -41q40 -2 130 77q9 8 9 -6q-1 -10 -4 -14q-5 -6 -25.5 -25t-54.5 -40.5
t-55 -20.5q-37 1 -52 28t-8.5 66t22 79t35.5 72q22 33 46 62l-93 -6q-8 -1 -8 5q0 11 13 18q2 2 4 2t15 1t40 2.5t50 3.5q85 99 150 120q39 12 40 -17q2 -32 -49 -94q146 7 156 5q5 -1 5 -14t-5 -13q-61 2 -178 -5z" />
    <glyph glyph-name="u" unicode="u" horiz-adv-x="302" 
d="M189 0q-35 0 -49 30t6 60q-63 -79 -108 -82q-37 -2 -33 55q1 21 9 42.5t18.5 38.5t23.5 33t23 26l18 18l8 8q5 5 17.5 -1t4.5 -17q-1 -2 -14.5 -17.5t-24.5 -29t-23.5 -33.5t-18.5 -36q-14 -36 -5.5 -48t42.5 12q66 50 142 167q4 8 19 3t7 -16q-51 -68 -73 -117
q-14 -32 -9 -49t20.5 -16.5t29.5 4.5q25 9 100 76q8 7 9 -8q0 -13 -4 -17q-5 -6 -25 -24.5t-54 -40t-56 -21.5z" />
    <glyph glyph-name="v" unicode="v" horiz-adv-x="233" 
d="M142 54q-31 -31 -51.5 -46.5t-26.5 -17t-15 -1.5q-6 0 -13.5 3.5t-16 12t-13 26.5t-1.5 42q9 64 96 151q4 2 10.5 1t11.5 -5.5t2 -8.5q-14 -17 -42.5 -59.5t-40.5 -71.5q-17 -40 1 -54q12 -9 28 6q53 46 92.5 97t57 80.5t20.5 31.5q9 5 14.5 -5t2.5 -16
q-43 -92 -116 -166z" />
    <glyph glyph-name="w" unicode="w" horiz-adv-x="353" 
d="M135 62l1 5q-22 -24 -52 -47.5t-47 -25.5q-20 -2 -30.5 16.5t-6.5 54.5q5 42 45.5 91.5t57.5 57.5q18 8 25 -7q2 -4 0 -6q-52 -54 -80 -106q-31 -57 -14 -67q14 -9 62 35t76 87q33 50 48 59q9 5 16 0t8 -12.5t-1 -10.5q-8 -6 -39 -44q-29 -38 -39 -83q-10 -41 17 -38
q6 1 12 3q29 11 93.5 92t81.5 123q2 6 13 -6q7 -9 5 -16q-11 -37 -84.5 -133.5t-125.5 -95.5q-20 0 -31 15.5t-11 31.5v27z" />
    <glyph glyph-name="x" unicode="x" horiz-adv-x="270" 
d="M278 237q4 1 9.5 -4.5t8.5 -11.5t1 -7q-88 -44 -167 -104q-12 -35 -6 -53t12.5 -22.5t20.5 -5.5q35 -2 130 82q8 7 9 -8q1 -12 -3 -17q-83 -83 -133 -88q-34 -4 -53 15t-12 70q-82 -66 -103 -97q-1 -1 -5 4.5t-6 12t2 13.5q44 53 123 113q5 19 7 31.5t-0.5 20t-12.5 3.5
t-28 -20q-3 -3 -7.5 1t-7 10.5t-0.5 9.5q4 6 26 26q37 31 57.5 16.5t3.5 -71.5q94 66 134 81z" />
    <glyph glyph-name="y" unicode="y" horiz-adv-x="249" 
d="M122 -2q31 68 32 71q-70 -82 -116 -74q-34 6 -32 60q2 51 36.5 98.5t56.5 60.5q16 10 31 -4q4 -4 2 -6q-12 -9 -26 -21.5t-38.5 -50.5t-28.5 -76q-1 -16 6.5 -22t22 -1t31.5 20q24 20 58.5 60t59 72t25.5 33q4 3 10 0.5t11 -8t2 -9.5q-39 -59 -91 -164q61 45 92 74
q8 7 9 -8q1 -13 -3 -17q-24 -24 -124 -101q-102 -208 -148 -257q-38 -40 -74 -55t-58 3t-4.5 65t65.5 93q79 76 193 164zM-14 -152q-28 -30 -49 -55t-31.5 -42t-15.5 -30t-4.5 -20t4.5 -10q9 -8 30 4t57.5 55.5t78.5 113.5q11 17 42 83q-78 -63 -112 -99z" />
    <glyph glyph-name="z" unicode="z" horiz-adv-x="248" 
d="M103 -46q-146 -106 -200 -158q-29 -28 -44 -51.5t-14 -33.5t5 -16q12 -8 66.5 30t99.5 86q63 69 87 143zM-72 -137q73 56 182 131q2 42 -32 48q-43 -24 -86 -36q-23 -6 -31.5 0.5t-1 18t23.5 18.5q32 14 67 18q108 68 123 99q7 12 -0.5 24.5t-29.5 9.5q-25 -4 -55.5 -20
t-46.5 -28.5t-22 -18.5q-8 -8 -14 11q-4 14 1 19q61 53 140 66q37 6 54.5 -11t13.5 -41.5t-21 -42.5q-38 -37 -89 -70q33 -10 42 -40q71 50 119 93q8 7 9 -8q0 -13 -4 -17q-42 -43 -123 -100q-7 -50 -52 -118t-89 -109q-56 -52 -108.5 -79.5t-76.5 -3.5q-26 25 6 79.5
t101 107.5z" />
    <glyph glyph-name="asciitilde" unicode="~" horiz-adv-x="229" 
d="M172 203q3 -2 1.5 -7.5t-7 -10.5t-10.5 -3q-23 8 -45 0t-46 0q-8 3 -2 20l2 3q16 -5 50.5 2t56.5 -4z" />
    <glyph glyph-name="exclamdown" unicode="&#xa1;" horiz-adv-x="180" 
d="M209 567q-40 -143 -186 -578q-3 -9 6.5 -20.5t20 -13.5t17.5 14q7 20 81 289t84 304q2 7 -3 12.5t-11.5 4t-8.5 -11.5zM227 625q-9 8 -8.5 19t12 19.5t25.5 4.5q20 -6 10 -31q-4 -11 -16.5 -14.5t-22.5 2.5z" />
    <glyph glyph-name="sterling" unicode="&#xa3;" horiz-adv-x="631" 
d="M98 84q-29 1 -42.5 -10.5t-11.5 -26.5q2 -16 18.5 -27t43.5 -10q54 1 100 41q-75 33 -108 33zM451 276q16 -2 12 -15t-23 -14q-48 0 -86 1q-9 -17 -26.5 -52l-25.5 -51q-27 -51 -55 -86q72 -33 125 -39q17 -2 20 -5q6 -5 0 -11q-12 -10 -33 -7q-44 6 -129 44
q-53 -56 -130 -56q-57 0 -79 32.5t3 63.5t81 27q44 -3 119 -39q35 40 67 106q22 50 32 73q-44 1 -91 1q-7 -1 -9.5 4t-0.5 10q2 14 15 14h98q18 38 27 55q46 81 114 128q32 21 72 27t65 -14q17 -18 -1.5 -51.5t-57.5 -57.5q-6 -4 -18 5q-13 9 1 20q52 31 54 57q0 5 -5 9
t-15 5t-22.5 -0.5t-28.5 -8.5t-31 -19q-62 -47 -120 -155q21 0 50 -0.5t32 -0.5z" />
    <glyph glyph-name="acute" unicode="&#xb4;" horiz-adv-x="229" 
d="M89 187q3 4 19.5 22t21.5 21q9 9 12 -12l1 -11q-43 -43 -49 -38q-3 2 -5 9t0 9z" />
    <glyph glyph-name="questiondown" unicode="&#xbf;" horiz-adv-x="324" 
d="M317 605q-22 5 -20 27q1 12 11.5 19t21.5 4q19 -5 21 -23q1 -13 -10 -21.5t-24 -5.5zM273 69q9 9 21.5 -1t2.5 -22q-45 -51 -90.5 -74t-80 -17.5t-60 26t-35 55t-0.5 70.5q10 41 40.5 83.5t67 81t72.5 79.5t64.5 95t37.5 112q1 6 6.5 7.5t10 -2.5t4.5 -10
q-8 -66 -36.5 -123.5t-65 -98.5t-72 -77t-63 -74.5t-33.5 -76.5q-4 -31 4 -55.5t27.5 -37t46 -13.5t61.5 17.5t70 55.5z" />
    <glyph glyph-name="Agrave" unicode="&#xc0;" 
d="M515 268q55 61 88.5 96.5t79 80.5t78 66.5t52.5 21.5q7 0 9.5 -9.5t-8.5 -36t-39 -63.5q-71 -91 -114 -160q-84 4 -146 4zM828 558q-47 7 -123 -52.5t-225 -234.5l-3 -4q-47 -2 -65 -5q-18 -2 -28 -25q-5 -14 3 -14q22 4 60 10q-311 -349 -410 -110q-3 9 -16 2
q-16 -10 -9 -31q14 -36 51.5 -69.5t89.5 -30.5q100 4 218 119q36 35 118 126q83 10 159 5q-69 -110 -82 -179q-6 -34 11 -60t60 -17t99 72q3 3 0.5 9t-7 7.5t-11.5 -5.5q-19 -24 -53.5 -42.5t-54.5 -12.5q-13 3 -13.5 28t13.5 64t38 77q5 8 11 17l14 21t13 19l17 -1
q24 -2 30 11q2 4 -3 6q-5 1 -30 3q21 30 68 97t60 87q26 38 26 74t-26 39zM851 610q2 -2 0.5 -9t-5.5 -10q-3 -2 -22 14t-27 25v5t1.5 11t4 8.5t7.5 -1.5q5 -3 21.5 -21t19.5 -22z" />
    <glyph glyph-name="Aacute" unicode="&#xc1;" 
d="M515 268q62 0 146 -4q43 69 114 160q28 37 39 63.5t8.5 36t-9.5 9.5q-20 0 -52.5 -21.5t-78 -66.5t-79 -80.5t-88.5 -96.5zM828 558q26 -3 26 -39t-26 -74q-13 -20 -60 -87t-68 -97q25 -2 30 -3q9 -3 -1 -11q-10 -7 -26 -6l-17 1q-5 -7 -13 -19l-14 -21t-11 -17
q-24 -38 -38 -77t-13.5 -64t13.5 -28q20 -6 54.5 12.5t53.5 42.5q11 13 18 -1q2 -6 0 -10q-56 -63 -99 -72t-60 17t-11 60q13 69 82 179q-76 5 -159 -5q-82 -91 -118 -126q-118 -115 -218 -119q-52 -3 -89.5 30.5t-51.5 69.5q-9 24 11 32q11 5 14 -3q99 -239 410 110
q-38 -6 -60 -10q-6 -1 -6 5q0 15 18 28q7 5 13 6q18 3 65 5l3 4q149 175 225 234.5t123 52.5zM862 610q2 3 19.5 21t21.5 22q9 9 12 -12l1 -11q-8 -9 -27 -25t-21 -14q-4 3 -6 10t0 9z" />
    <glyph glyph-name="Acircumflex" unicode="&#xc2;" 
d="M515 268q55 61 88.5 96.5t79 80.5t78 66.5t52.5 21.5q7 0 9.5 -9.5t-8.5 -36t-39 -63.5q-71 -91 -114 -160q-84 4 -146 4zM828 558q-47 7 -123 -52.5t-225 -234.5l-3 -4q-47 -2 -65 -5q-18 -2 -28 -25q-5 -14 3 -14q22 4 60 10q-311 -349 -410 -110q-3 9 -16 2
q-16 -10 -9 -31q14 -36 51.5 -69.5t89.5 -30.5q100 4 218 119q36 35 118 126q83 10 159 5q-69 -110 -82 -179q-6 -34 11 -60t60 -17t99 72q3 3 0.5 9t-7 7.5t-11.5 -5.5q-19 -24 -53.5 -42.5t-54.5 -12.5q-13 3 -13.5 28t13.5 64t38 77q5 8 11 17l14 21t13 19l17 -1
q24 -2 30 11q2 4 -3 6q-5 1 -30 3q21 30 68 97t60 87q26 38 26 74t-26 39zM819 609q5 5 13.5 12.5t23 18t23 12t12.5 -5.5q0 -2 2 -12t4 -18.5t2 -9.5q1 -7 -10.5 -12.5t-13.5 6.5q0 3 -6 23q-4 -4 -20 -15.5t-20 -14.5q-3 -2 -6.5 1.5t-4.5 8t1 6.5z" />
    <glyph glyph-name="Atilde" unicode="&#xc3;" 
d="M515 268q55 61 88.5 96.5t79 80.5t78 66.5t52.5 21.5q7 0 9.5 -9.5t-8.5 -36t-39 -63.5q-71 -91 -114 -160q-84 4 -146 4zM828 558q-47 7 -123 -52.5t-225 -234.5l-3 -4q-47 -2 -65 -5q-18 -2 -28 -25q-5 -14 3 -14q22 4 60 10q-311 -349 -410 -110q-3 9 -16 2
q-16 -10 -9 -31q14 -36 51.5 -69.5t89.5 -30.5q100 4 218 119q36 35 118 126q83 10 159 5q-69 -110 -82 -179q-6 -34 11 -60t60 -17t99 72q3 3 0.5 9t-7 7.5t-11.5 -5.5q-19 -24 -53.5 -42.5t-54.5 -12.5q-13 3 -13.5 28t13.5 64t38 77q5 8 11 17l14 21t13 19l17 -1
q24 -2 30 11q2 4 -3 6q-5 1 -30 3q21 30 68 97t60 87q26 38 26 74t-26 39zM904 615q3 -2 1.5 -8t-7 -11t-10.5 -3q-23 8 -45 0t-46 1q-9 2 -3 19l3 3q16 -5 50 2.5t57 -3.5z" />
    <glyph glyph-name="Adieresis" unicode="&#xc4;" 
d="M515 268q55 61 88.5 96.5t79 80.5t78 66.5t52.5 21.5q7 0 9.5 -9.5t-8.5 -36t-39 -63.5q-71 -91 -114 -160q-84 4 -146 4zM828 558q-47 7 -123 -52.5t-225 -234.5l-3 -4q-47 -2 -65 -5q-18 -2 -28 -25q-5 -14 3 -14q22 4 60 10q-311 -349 -410 -110q-3 9 -16 2
q-16 -10 -9 -31q14 -36 51.5 -69.5t89.5 -30.5q100 4 218 119q36 35 118 126q83 10 159 5q-69 -110 -82 -179q-6 -34 11 -60t60 -17t99 72q3 3 0.5 9t-7 7.5t-11.5 -5.5q-19 -24 -53.5 -42.5t-54.5 -12.5q-13 3 -13.5 28t13.5 64t38 77q5 8 11 17l14 21t13 19l17 -1
q24 -2 30 11q2 4 -3 6q-5 1 -30 3q21 30 68 97t60 87q26 38 26 74t-26 39zM823 626q16 -7 5.5 -23.5t-28.5 -10.5q-16 5 -10 22q5 19 25 15q4 -1 8 -3zM900 626q16 -7 5.5 -23.5t-28.5 -10.5q-16 5 -10 22q5 19 25 15q4 -1 8 -3z" />
    <glyph glyph-name="Aring" unicode="&#xc5;" 
d="M515 268q55 61 88.5 96.5t79 80.5t78 66.5t52.5 21.5q7 0 9.5 -9.5t-8.5 -36t-39 -63.5q-71 -91 -114 -160q-84 4 -146 4zM828 558q-47 7 -123 -52.5t-225 -234.5l-3 -4q-47 -2 -65 -5q-18 -2 -28 -25q-5 -14 3 -14q22 4 60 10q-311 -349 -410 -110q-3 9 -16 2
q-16 -10 -9 -31q14 -36 51.5 -69.5t89.5 -30.5q100 4 218 119q36 35 118 126q83 10 159 5q-69 -110 -82 -179q-6 -34 11 -60t60 -17t99 72q3 3 0.5 9t-7 7.5t-11.5 -5.5q-19 -24 -53.5 -42.5t-54.5 -12.5q-13 3 -13.5 28t13.5 64t38 77q5 8 11 17l14 21t13 19l17 -1
q24 -2 30 11q2 4 -3 6q-5 1 -30 3q21 30 68 97t60 87q26 38 26 74t-26 39zM870 633q-12 2 -17 -13q-2 -10 6 -13q12 -2 17 13q2 11 -6 13zM880 655q14 -1 18 -13.5t-1 -22.5q-5 -19 -18 -27t-27 -6q-15 1 -21 13.5t1 25.5q6 13 19.5 22.5t28.5 7.5z" />
    <glyph glyph-name="Ccedilla" unicode="&#xc7;" horiz-adv-x="405" 
d="M171 -19q-68 -1 -112.5 44t-44.5 125q0 83 54 168t139 150q80 60 162.5 86t136.5 8.5t54 -76.5q0 -66 -91 -146q-86 -75 -132 -53q-29 14 -20 54q5 24 24 44q30 31 61 37q5 1 7.5 -6t1 -15.5t-7.5 -10.5q-42 -17 -51 -48q-3 -23 17 -26q27 0 71 35.5t68 77.5q26 43 13 78
t-66 35q-84 0 -180 -66.5t-159.5 -157t-65.5 -159.5q-1 -22 2.5 -43t12.5 -43t30 -38.5t51 -22.5q50 -10 109 17t97 65q14 14 27 7q8 -4 -1 -14q-89 -99 -195 -106q0 -8 -4 -12q-2 -4 -10 -5q-11 -2 -14 -11q-3 -8 5 -8q5 -1 14 6q2 2 4 1.5t3 -3.5t0 -4q-19 -18 -32 -6
q-12 12 1 25q7 7 18 10q3 0 3 7z" />
    <glyph glyph-name="Egrave" unicode="&#xc8;" horiz-adv-x="378" 
d="M233 342q40 14 76 14q60 0 72 -25q10 -19 -20 -30q-16 -6 -42 -6q-66 0 -86 47zM344 132q-24 -41 -72 -75.5t-105 -34.5q-117 0 -114 122q2 57 44.5 107.5t104.5 78.5q29 -55 112 -60q65 -4 93.5 24.5t1 58.5t-94.5 29q-39 -2 -87 -15q-3 33 18 70t63 66q63 44 125 62
t97.5 13t40.5 -23q8 -24 -26 -46.5t-78 -37.5q-6 -2 -8 -7.5t2 -9.5t14 -4q36 2 86.5 35t43.5 73q-6 34 -54 46.5t-120 -5.5t-136 -65q-60 -45 -85 -92t-17 -88q-75 -30 -125 -83t-53 -132q-3 -70 41.5 -110t95.5 -40q134 0 210 126q6 10 -5 19q-8 7 -13 -2zM578 636
q2 -2 0 -8.5t-5 -9.5q-5 -6 -49 38v5.5t1.5 11t4 8.5t7.5 -1q5 -3 21.5 -21.5t19.5 -22.5z" />
    <glyph glyph-name="Eacute" unicode="&#xc9;" horiz-adv-x="378" 
d="M233 342q20 -47 86 -47q56 0 63 24q6 19 -26 30q-19 7 -47 7q-36 0 -76 -14zM344 132q7 12 16 -1q7 -9 2 -16q-76 -126 -210 -126q-51 0 -95.5 40t-41.5 110q3 79 53 132t125 83q-8 41 17 88t85 92q64 47 136 65t120 5.5t54 -46.5q7 -40 -43.5 -73t-86.5 -35q-10 0 -14 4
t-2 9.5t8 7.5q44 15 78 37.5t26 46.5q-5 18 -40.5 23t-97.5 -13t-125 -62q-42 -29 -63 -66t-18 -70q48 13 87 15q67 1 94.5 -29t-1 -58.5t-93.5 -24.5q-83 5 -112 60q-62 -28 -104.5 -78.5t-44.5 -107.5q-3 -122 114 -122q57 0 105 34.5t72 75.5zM569 636q3 4 19.5 22.5
t21.5 21.5q9 8 12 -11l1 -13q-11 -11 -28.5 -26t-20.5 -12t-5 9.5t0 8.5z" />
    <glyph glyph-name="Ecircumflex" unicode="&#xca;" horiz-adv-x="378" 
d="M233 342q40 14 76 14q60 0 72 -25q10 -19 -20 -30q-16 -6 -42 -6q-66 0 -86 47zM344 132q-24 -41 -72 -75.5t-105 -34.5q-117 0 -114 122q2 57 44.5 107.5t104.5 78.5q29 -55 112 -60q65 -4 93.5 24.5t1 58.5t-94.5 29q-39 -2 -87 -15q-3 33 18 70t63 66q63 44 125 62
t97.5 13t40.5 -23q8 -24 -26 -46.5t-78 -37.5q-6 -2 -8 -7.5t2 -9.5t14 -4q36 2 86.5 35t43.5 73q-6 34 -54 46.5t-120 -5.5t-136 -65q-60 -45 -85 -92t-17 -88q-75 -30 -125 -83t-53 -132q-3 -70 41.5 -110t95.5 -40q134 0 210 126q6 10 -5 19q-8 7 -13 -2zM550 639
q1 1 6 5q62 53 67 31l8 -40q1 -4 -5 -9t-12.5 -4.5t-7.5 8.5q-1 6 -6 22q-20 -15 -40 -29q-3 -2 -6.5 1t-4.5 8t1 7z" />
    <glyph glyph-name="Edieresis" unicode="&#xcb;" horiz-adv-x="378" 
d="M233 342q40 14 76 14q60 0 72 -25q10 -19 -20 -30q-16 -6 -42 -6q-66 0 -86 47zM344 132q-24 -41 -72 -75.5t-105 -34.5q-117 0 -114 122q2 57 44.5 107.5t104.5 78.5q29 -55 112 -60q65 -4 93.5 24.5t1 58.5t-94.5 29q-39 -2 -87 -15q-3 33 18 70t63 66q63 44 125 62
t97.5 13t40.5 -23q8 -24 -26 -46.5t-78 -37.5q-6 -2 -8 -7.5t2 -9.5t14 -4q36 2 86.5 35t43.5 73q-6 34 -54 46.5t-120 -5.5t-136 -65q-60 -45 -85 -92t-17 -88q-75 -30 -125 -83t-53 -132q-3 -70 41.5 -110t95.5 -40q134 0 210 126q6 10 -5 19q-8 7 -13 -2zM576 657
q15 -7 6 -23q-10 -18 -29 -12q-16 6 -10 24q7 20 28 13q3 -1 5 -2zM654 657q15 -7 6 -23q-10 -18 -29 -12q-16 6 -11 24q7 20 29 13z" />
    <glyph glyph-name="Igrave" unicode="&#xcc;" horiz-adv-x="341" 
d="M646 592q9 5 -7 13q-13 6 -21 2q-5 -2 -44.5 -22.5t-86.5 -40.5t-113 -45q-152 -57 -152 -143q0 -17 2 -33t6.5 -28.5t7.5 -20t8 -16.5l4 -9q6 -12 24 -9q9 2 6 8q-22 39 -25.5 73.5t9.5 59t31.5 41.5t43.5 30q1 0 157 71q-58 -78 -107 -149q-18 -26 -58 -97t-71 -123.5
t-70.5 -94.5t-67.5 -38q-30 4 -47.5 27.5t-21 54.5t-2.5 55.5t4 39.5q1 6 -14 2t-20 -17q-9 -21 -5.5 -54t13.5 -64.5t36.5 -54t61.5 -22.5q24 0 48.5 14.5t44 35t44 57.5t41.5 67.5t45 79.5t46 79q105 173 149 224q21 10 46 21.5t38.5 17.5t16.5 8zM523 626q2 -2 0 -8.5
t-5 -9.5t-20.5 12t-28.5 26v5.5t1.5 11t4 8.5t7.5 -1q5 -3 21.5 -21.5t19.5 -22.5z" />
    <glyph glyph-name="Iacute" unicode="&#xcd;" horiz-adv-x="341" 
d="M646 592q-3 -2 -16.5 -8t-38.5 -17.5t-46 -21.5q-44 -51 -149 -224q-18 -30 -46 -79t-45 -79.5t-41.5 -67.5t-44 -57.5t-44 -35t-48.5 -14.5q-35 0 -61.5 22.5t-36.5 54t-13.5 64.5t5.5 54q7 19 28 18q7 0 6 -3q-3 -15 -4 -39.5t2.5 -55.5t21 -54.5t47.5 -27.5
q28 -4 67.5 38t70.5 94.5t71 123.5t58 97q49 71 107 149q-156 -71 -157 -71q-25 -13 -43.5 -30t-31.5 -41.5t-9.5 -59t25.5 -73.5q4 -7 -8 -8q-17 -2 -22 9l-4 9q-5 9 -8 16.5t-7.5 20t-6.5 28.5t-2 33q0 86 152 143q66 25 113 45t86.5 40.5t44.5 22.5q12 6 27 -6q7 -6 1 -9
zM509 626q3 4 19.5 22.5t21.5 21.5q9 8 12 -11l1 -13q-11 -11 -28.5 -26t-20.5 -12t-5 9.5t0 8.5z" />
    <glyph glyph-name="Icircumflex" unicode="&#xce;" horiz-adv-x="341" 
d="M646 592q9 5 -7 13q-13 6 -21 2q-5 -2 -44.5 -22.5t-86.5 -40.5t-113 -45q-152 -57 -152 -143q0 -17 2 -33t6.5 -28.5t7.5 -20t8 -16.5l4 -9q6 -12 24 -9q9 2 6 8q-22 39 -25.5 73.5t9.5 59t31.5 41.5t43.5 30q1 0 157 71q-58 -78 -107 -149q-18 -26 -58 -97t-71 -123.5
t-70.5 -94.5t-67.5 -38q-30 4 -47.5 27.5t-21 54.5t-2.5 55.5t4 39.5q1 6 -14 2t-20 -17q-9 -21 -5.5 -54t13.5 -64.5t36.5 -54t61.5 -22.5q24 0 48.5 14.5t44 35t44 57.5t41.5 67.5t45 79.5t46 79q105 173 149 224q21 10 46 21.5t38.5 17.5t16.5 8zM505 629q1 1 6 5
q62 53 67 31l8 -40q1 -4 -5 -9t-12.5 -4.5t-7.5 8.5q-1 6 -6 22q-20 -15 -40 -29q-3 -2 -6.5 1t-4.5 8t1 7z" />
    <glyph glyph-name="Idieresis" unicode="&#xcf;" horiz-adv-x="341" 
d="M646 592q9 5 -7 13q-13 6 -21 2q-5 -2 -44.5 -22.5t-86.5 -40.5t-113 -45q-152 -57 -152 -143q0 -17 2 -33t6.5 -28.5t7.5 -20t8 -16.5l4 -9q6 -12 24 -9q9 2 6 8q-22 39 -25.5 73.5t9.5 59t31.5 41.5t43.5 30q1 0 157 71q-58 -78 -107 -149q-18 -26 -58 -97t-71 -123.5
t-70.5 -94.5t-67.5 -38q-30 4 -47.5 27.5t-21 54.5t-2.5 55.5t4 39.5q1 6 -14 2t-20 -17q-9 -21 -5.5 -54t13.5 -64.5t36.5 -54t61.5 -22.5q24 0 48.5 14.5t44 35t44 57.5t41.5 67.5t45 79.5t46 79q105 173 149 224q21 10 46 21.5t38.5 17.5t16.5 8zM509 662q16 -7 5.5 -24
t-28.5 -10q-16 5 -11 22q6 19 26 15q4 -1 8 -3zM586 662q16 -7 5.5 -24t-28.5 -10q-16 5 -10 22q5 19 25 15q4 -1 8 -3z" />
    <glyph glyph-name="Ntilde" unicode="&#xd1;" horiz-adv-x="630" 
d="M41 83q0 9 -7 12.5t-14.5 1t-7.5 -9.5q-1 -15 6 -36t27 -41.5t48 -21.5q21 -1 44.5 15t53 55t49 68.5t56.5 89.5q114 188 179 273q27 35 31 16q1 -4 0 -9l-6 -34q-7 -34 -14.5 -80t-16.5 -101.5t-16 -114t-9 -101.5q-3 -50 19 -65q14 -10 29 8q27 33 58 80.5t60 97.5
t57.5 101.5t52 97.5t41.5 82t29 59l12 23q3 7 -9 22q-8 10 -12 3q-39 -80 -49 -100.5t-41 -78t-65 -116.5t-106 -180q-40 -68 -43 -33v7q17 157 55 387q18 105 -11 104q-8 0 -20 -8q-48 -32 -184 -243q-61 -95 -83 -127q-9 -15 -28 -45.5t-29.5 -46.5t-25.5 -35.5t-27.5 -29
t-24.5 -10.5q-28 -3 -43.5 21.5t-14.5 42.5zM719 615q2 -2 0.5 -8t-7 -11t-10.5 -3q-23 8 -44.5 0t-46.5 1q-8 2 -2 19l2 3q16 -5 50.5 2.5t57.5 -3.5z" />
    <glyph glyph-name="Ograve" unicode="&#xd2;" horiz-adv-x="447" 
d="M235 452q-51 -57 -70 -106q-6 -16 6 -23q5 -2 8 2q13 27 44 67.5t69 74.5q41 37 83.5 53.5t73.5 9.5t50 -31.5t15 -72t-33 -108.5q-55 -112 -153 -206.5t-174 -94.5q-47 0 -77.5 38.5t-30.5 98.5q0 82 62 167t127 131zM260 478q-6 17 -21 20q-12 2 -49 -30.5t-77.5 -81.5
t-71.5 -117.5t-31 -128.5t41.5 -106.5t105.5 -46.5q51 0 111 37.5t111 94.5t92.5 122t62.5 121q17 43 17 75q0 63 -32.5 95.5t-83 31t-106.5 -33.5q-35 -20 -69 -52zM494 615q2 -2 0 -9t-5 -10q-3 -2 -22 14t-27 25v5t1.5 11t4 8.5t7.5 -1.5q5 -3 21.5 -21t19.5 -22z" />
    <glyph glyph-name="Oacute" unicode="&#xd3;" horiz-adv-x="447" 
d="M235 452q-65 -46 -127 -131t-62 -167q0 -60 30.5 -98.5t77.5 -38.5q76 0 174 94.5t153 206.5q29 61 33 108.5t-15 72t-50 31.5t-73.5 -9.5t-83.5 -53.5q-38 -34 -69 -74.5t-44 -67.5q-4 -9 -12 1q-7 9 -2 20q19 49 70 106zM260 478q34 32 69 52q56 32 106.5 33.5t83 -31
t32.5 -95.5q0 -32 -17 -75q-21 -56 -62.5 -121t-92.5 -122t-111 -94.5t-111 -37.5q-64 0 -105.5 46.5t-41.5 106.5t31 128.5t71.5 117.5t77.5 81.5t49 30.5q15 -3 21 -20zM480 615q3 4 19.5 22t21.5 21q9 9 12 -12l1 -11q-8 -9 -27 -25t-22 -14q-3 3 -5 10t0 9z" />
    <glyph glyph-name="Ocircumflex" unicode="&#xd4;" horiz-adv-x="447" 
d="M235 452q-51 -57 -70 -106q-6 -16 6 -23q5 -2 8 2q13 27 44 67.5t69 74.5q41 37 83.5 53.5t73.5 9.5t50 -31.5t15 -72t-33 -108.5q-55 -112 -153 -206.5t-174 -94.5q-47 0 -77.5 38.5t-30.5 98.5q0 82 62 167t127 131zM260 478q-6 17 -21 20q-12 2 -49 -30.5t-77.5 -81.5
t-71.5 -117.5t-31 -128.5t41.5 -106.5t105.5 -46.5q51 0 111 37.5t111 94.5t92.5 122t62.5 121q17 43 17 75q0 63 -32.5 95.5t-83 31t-106.5 -33.5q-35 -20 -69 -52zM475 619q1 1 6 5q62 53 67 31l8 -40q1 -4 -5 -9t-12.5 -4.5t-7.5 8.5q-1 6 -6 22q-20 -15 -40 -29
q-3 -2 -6.5 1t-4.5 8t1 7z" />
    <glyph glyph-name="Otilde" unicode="&#xd5;" horiz-adv-x="447" 
d="M235 452q-51 -57 -70 -106q-6 -16 6 -23q5 -2 8 2q13 27 44 67.5t69 74.5q41 37 83.5 53.5t73.5 9.5t50 -31.5t15 -72t-33 -108.5q-55 -112 -153 -206.5t-174 -94.5q-47 0 -77.5 38.5t-30.5 98.5q0 82 62 167t127 131zM260 478q-6 17 -21 20q-12 2 -49 -30.5t-77.5 -81.5
t-71.5 -117.5t-31 -128.5t41.5 -106.5t105.5 -46.5q51 0 111 37.5t111 94.5t92.5 122t62.5 121q17 43 17 75q0 63 -32.5 95.5t-83 31t-106.5 -33.5q-35 -20 -69 -52zM552 628q3 -2 1.5 -8t-7 -11t-10.5 -3q-23 8 -45 0t-47 1q-7 2 -2 19l3 4q16 -6 50 1.5t57 -3.5z" />
    <glyph glyph-name="Odieresis" unicode="&#xd6;" horiz-adv-x="447" 
d="M235 452q-51 -57 -70 -106q-6 -16 6 -23q5 -2 8 2q13 27 44 67.5t69 74.5q41 37 83.5 53.5t73.5 9.5t50 -31.5t15 -72t-33 -108.5q-55 -112 -153 -206.5t-174 -94.5q-47 0 -77.5 38.5t-30.5 98.5q0 82 62 167t127 131zM260 478q-6 17 -21 20q-12 2 -49 -30.5t-77.5 -81.5
t-71.5 -117.5t-31 -128.5t41.5 -106.5t105.5 -46.5q51 0 111 37.5t111 94.5t92.5 122t62.5 121q17 43 17 75q0 63 -32.5 95.5t-83 31t-106.5 -33.5q-35 -20 -69 -52zM432 637q17 -8 6 -25q-11 -15 -28 -10q-16 6 -11 23q7 20 28 14q3 -1 5 -2zM510 637q17 -8 5 -25
q-10 -16 -28 -10q-16 6 -11 23q7 20 29 14q3 -1 5 -2z" />
    <glyph glyph-name="multiply" unicode="&#xd7;" horiz-adv-x="268" 
d="M83 79q-7 8 3 18q22 19 50 45q-32 50 -34 53q-8 8 7 16q13 6 20 -2q2 -3 6.5 -9.5t11.5 -17t12 -17.5q55 52 56 53q9 8 14 -4q4 -10 -5 -21q0 -1 -6.5 -7t-20.5 -19.5t-24 -22.5q5 -8 12.5 -19t12 -18.5t7.5 -11.5q7 -13 -7 -19q-13 -5 -24 9q-12 16 -24 36
q-9 -8 -21 -19t-18.5 -17t-8.5 -8q-8 -9 -19 2z" />
    <glyph glyph-name="Oslash" unicode="&#xd8;" horiz-adv-x="447" 
d="M79 52q312 384 384 474q-33 12 -79 -3t-92 -56q-38 -34 -69 -74.5t-44 -67.5q-4 -9 -12 1q-7 9 -2 20q19 49 70 106q-65 -46 -127 -131t-62 -167q0 -64 33 -102zM490 509q-187 -234 -391 -476q26 -16 55 -16q76 0 174 94.5t153 206.5q33 67 34 118.5t-25 72.5zM550 584
q-4 -5 -16.5 -20.5t-20.5 -25.5q38 -33 38 -101q0 -32 -17 -75q-21 -56 -62.5 -121t-92.5 -122t-111 -94.5t-111 -37.5q-42 0 -78 23q-20 -24 -32 -38q-4 -4 -11 -2.5t-9.5 7t3.5 14.5q3 4 12.5 16t15.5 20q-48 46 -48 113q0 60 31 128.5t71.5 117.5t77.5 81.5t49 30.5
q15 -3 21 -20q34 32 69 52q93 51 157 25q14 17 35 45q5 5 13 3.5t14 -7.5t2 -12z" />
    <glyph glyph-name="Ugrave" unicode="&#xd9;" horiz-adv-x="456" 
d="M408 -8q-28 8 -33 49t3 79t19 68q12 31 51 86.5t78 103.5t75 91t37 44q5 7 -2 13t-16 7t-13 -1l-41 -52q-42 -53 -88.5 -109.5t-112.5 -131t-118 -125.5q-41 -40 -79 -62t-63.5 -24t-40 12.5t-14.5 41.5t18 68.5t53 88.5q39 52 116.5 137t90.5 102q26 32 20 49.5
t-23 23.5t-35 4q-23 -4 -29.5 -14t-0.5 -18l5 -8q39 15 37 -6q-4 -18 -36 -53q-109 -117 -171 -200q-45 -61 -66.5 -113.5t-18.5 -86t24.5 -51.5t56 -15.5t82.5 28t99 73.5q50 47 95 101q-24 -61 -28 -132q-1 -34 13.5 -63t41.5 -33q15 -2 17.5 10t-3.5 18zM472 580
q2 -2 0.5 -9t-5.5 -10q-3 -2 -21 13t-28 25v5.5t1.5 11t4 8.5t7.5 -1q3 -2 12.5 -12t18.5 -20t10 -11z" />
    <glyph glyph-name="Uacute" unicode="&#xda;" horiz-adv-x="456" 
d="M408 -8q6 -6 3.5 -18t-17.5 -10q-27 4 -41.5 33t-13.5 63q4 71 28 132q-45 -54 -95 -101q-51 -48 -99 -73.5t-82.5 -28t-56 15.5t-24.5 51.5t18.5 86t66.5 113.5q62 83 171 200q57 62 25 64q-10 1 -26 -5q-1 1 -2.5 3.5t-3.5 8.5t-0.5 11t9 10t22.5 7q18 2 35 -4
t23 -23.5t-20 -49.5q-13 -17 -90.5 -102t-116.5 -137q-35 -47 -53 -88.5t-18 -68.5t14.5 -41.5t40 -12.5t63.5 24t79 62q52 51 118 125.5t112.5 131t88.5 109.5l41 52q4 2 13 1t16 -7t2 -13q-1 -1 -37 -44t-75 -91t-78 -103.5t-51 -86.5q-11 -30 -19 -68t-3 -79t33 -49z
M478 580q1 1 10 11t18.5 20t12.5 12q9 8 12 -11l1 -13q-10 -10 -28 -25t-20 -13q-4 3 -6 10t0 9z" />
    <glyph glyph-name="Ucircumflex" unicode="&#xdb;" horiz-adv-x="456" 
d="M408 -8q-28 8 -33 49t3 79t19 68q12 31 51 86.5t78 103.5t75 91t37 44q5 7 -2 13t-16 7t-13 -1l-41 -52q-42 -53 -88.5 -109.5t-112.5 -131t-118 -125.5q-41 -40 -79 -62t-63.5 -24t-40 12.5t-14.5 41.5t18 68.5t53 88.5q39 52 116.5 137t90.5 102q26 32 20 49.5
t-23 23.5t-35 4q-23 -4 -29.5 -14t-0.5 -18l5 -8q39 15 37 -6q-4 -18 -36 -53q-109 -117 -171 -200q-45 -61 -66.5 -113.5t-18.5 -86t24.5 -51.5t56 -15.5t82.5 28t99 73.5q50 47 95 101q-24 -61 -28 -132q-1 -34 13.5 -63t41.5 -33q15 -2 17.5 10t-3.5 18zM451 578
q68 59 73 36q8 -37 8 -39q1 -8 -12 -13q-10 -2 -13 7q-1 6 -6 22q-2 -2 -18 -13t-22 -16q-3 -2 -6.5 1.5t-4.5 8t1 6.5z" />
    <glyph glyph-name="Udieresis" unicode="&#xdc;" horiz-adv-x="456" 
d="M408 -8q-28 8 -33 49t3 79t19 68q12 31 51 86.5t78 103.5t75 91t37 44q5 7 -2 13t-16 7t-13 -1l-41 -52q-42 -53 -88.5 -109.5t-112.5 -131t-118 -125.5q-41 -40 -79 -62t-63.5 -24t-40 12.5t-14.5 41.5t18 68.5t53 88.5q39 52 116.5 137t90.5 102q26 32 20 49.5
t-23 23.5t-35 4q-23 -4 -29.5 -14t-0.5 -18l5 -8q39 15 37 -6q-4 -18 -36 -53q-109 -117 -171 -200q-45 -61 -66.5 -113.5t-18.5 -86t24.5 -51.5t56 -15.5t82.5 28t99 73.5q50 47 95 101q-24 -61 -28 -132q-1 -34 13.5 -63t41.5 -33q15 -2 17.5 10t-3.5 18zM467 608
q17 -8 5 -25q-10 -16 -28 -10q-16 6 -10 23q7 20 28 14q3 -1 5 -2zM544 608q17 -8 5 -25q-10 -16 -28 -10q-16 6 -10 23q7 20 28 14q3 -1 5 -2z" />
    <glyph glyph-name="Yacute" unicode="&#xdd;" horiz-adv-x="387" 
d="M139 -32q-144 -59 -240 -123q-91 -60 -108 -116q-11 -36 19 -41q26 -4 70 23q102 62 259 257zM191 553q45 17 64 -8t-8 -72q-14 -24 -84.5 -118.5t-98.5 -152.5q-18 -38 -11.5 -80t38.5 -54t94 34q14 11 28.5 25t25.5 26t27.5 33t24.5 31t26.5 36.5t24 34t26.5 38.5
t24 36l105 155q5 7 16 -7q10 -12 4 -22q-170 -292 -294 -463q63 19 136 38q3 1 5.5 -4t1.5 -10.5t-7 -7.5q-89 -26 -163 -52q-209 -277 -341 -327q-55 -21 -84.5 3.5t-20.5 62.5q35 162 423 283q59 75 87 123q-70 -91 -141.5 -99.5t-92 50.5t8.5 141q7 15 14.5 30t17.5 30.5
t17 26.5t19 27.5t17.5 25t19.5 25.5t18 22t19 23t16 20q39 48 27 60q-6 6 -24 -1q-68 -25 -134 -86q-6 -6 -8 7q-2 21 9 33q16 16 54.5 43.5t73.5 40.5zM378 570q1 1 10 11t18.5 20t12.5 12q9 8 12 -11l1 -13q-10 -10 -28 -25t-21 -13q-4 3 -5.5 10t0.5 9z" />
    <glyph glyph-name="germandbls" unicode="&#xdf;" horiz-adv-x="326" 
d="M276 393q85 6 129 61q29 37 14 60q-7 11 -23 13q-37 3 -78 -23.5t-80.5 -78.5t-75 -107.5t-71.5 -129.5t-59 -123t-48 -109q-4 -9 -25 -7q-12 3 -11 8q30 88 98.5 223.5t145.5 234.5q11 14 28 32.5t41 41t50 40t52 29t51 8.5t42 -23q16 -17 10 -46q-6 -39 -52.5 -78
t-95.5 -45q28 -20 34.5 -60.5t-5 -87t-39.5 -94t-65 -84t-87 -54t-100 -5.5q-3 1 -4.5 8.5t0.5 13.5t7 5q100 -21 183 73q64 73 78 162q13 84 -35 105q-14 6 -34 5q-7 1 -5.5 7.5t6.5 12.5q11 11 24 12z" />
    <glyph glyph-name="agrave" unicode="&#xe0;" horiz-adv-x="364" 
d="M386 86q7 7 3 22q-1 8 -8 3q-47 -41 -88 -61q-70 -35 -87.5 -10t29.5 98q49 53 49 54q0 4 -11.5 13t-17.5 6q-4 -1 -19 -20q-4 18 -18 29.5t-32 11.5q-28 0 -73 -24.5t-81 -74.5q-37 -58 -30.5 -97t38.5 -44q27 -4 54.5 10.5t79.5 69.5q-11 -37 9 -60t58 -17q28 4 65 28
t53 38t27 25zM206 150l-10 -14q-1 -1 -13 -14.5t-28 -30t-35 -33t-38 -25.5t-33 -5q-28 7 -5 58q25 57 76 92q33 22 62 22q18 0 24 -12.5t2 -25.5l-3 -12h1zM213 287q2 -1 0.5 -8t-5.5 -10q-6 -5 -49 38v5.5t1.5 11t4 8.5t7.5 -1q22 -19 41 -44z" />
    <glyph glyph-name="aacute" unicode="&#xe1;" horiz-adv-x="364" 
d="M386 86q-11 -11 -27 -25t-53 -38t-65 -28q-38 -6 -58 17t-9 60q-52 -55 -79.5 -69.5t-54.5 -10.5q-32 5 -38.5 44t30.5 97q36 50 81 74.5t73 24.5q18 0 32 -11.5t18 -29.5q15 19 19 20q6 3 17.5 -6t11.5 -13q0 -1 -49 -54q-47 -73 -29.5 -98t87.5 10q41 20 88 61
q8 7 9 -8q0 -13 -4 -17zM196 136l10 14h-1q1 2 2 5.5t1.5 12t-1 15t-8 12t-17.5 5.5q-56 0 -109 -67q-43 -53 -39 -87q2 -15 15 -18q14 -4 33 5t38 25.5t35 33t28 30t13 14.5zM214 287q9 12 41 44q9 8 12 -11l1 -13q-11 -11 -28.5 -26t-19.5 -12q-4 3 -6 9.5t0 8.5z" />
    <glyph glyph-name="acircumflex" unicode="&#xe2;" horiz-adv-x="364" 
d="M386 86q7 7 3 22q-1 8 -8 3q-47 -41 -88 -61q-70 -35 -87.5 -10t29.5 98q49 53 49 54q0 4 -11.5 13t-17.5 6q-4 -1 -19 -20q-4 18 -18 29.5t-32 11.5q-28 0 -73 -24.5t-81 -74.5q-37 -58 -30.5 -97t38.5 -44q27 -4 54.5 10.5t79.5 69.5q-11 -37 9 -60t58 -17q28 4 65 28
t53 38t27 25zM206 150l-10 -14q-1 -1 -13 -14.5t-28 -30t-35 -33t-38 -25.5t-33 -5q-28 7 -5 58q25 57 76 92q33 22 62 22q18 0 24 -12.5t2 -25.5l-3 -12h1zM177 285q1 1 6 5q62 53 67 31q0 -1 2 -11t4 -18.5t2 -10.5q1 -4 -5 -9t-12 -4.5t-7 8.5q-1 4 -7 22q-2 -2 -18 -13
t-22 -16q-2 -2 -5.5 1.5t-5 8t0.5 6.5z" />
    <glyph glyph-name="atilde" unicode="&#xe3;" horiz-adv-x="364" 
d="M386 86q7 7 3 22q-1 8 -8 3q-47 -41 -88 -61q-70 -35 -87.5 -10t29.5 98q49 53 49 54q0 4 -11.5 13t-17.5 6q-4 -1 -19 -20q-4 18 -18 29.5t-32 11.5q-28 0 -73 -24.5t-81 -74.5q-37 -58 -30.5 -97t38.5 -44q27 -4 54.5 10.5t79.5 69.5q-11 -37 9 -60t58 -17q28 4 65 28
t53 38t27 25zM206 150l-10 -14q-1 -1 -13 -14.5t-28 -30t-35 -33t-38 -25.5t-33 -5q-28 7 -5 58q25 57 76 92q33 22 62 22q18 0 24 -12.5t2 -25.5l-3 -12h1zM278 303q3 -2 1.5 -8t-7 -11t-10.5 -3q-23 8 -45 0t-47 1q-7 2 -2 19l3 4q16 -6 50 1.5t57 -3.5z" />
    <glyph glyph-name="adieresis" unicode="&#xe4;" horiz-adv-x="364" 
d="M386 86q7 7 3 22q-1 8 -8 3q-47 -41 -88 -61q-70 -35 -87.5 -10t29.5 98q49 53 49 54q0 4 -11.5 13t-17.5 6q-4 -1 -19 -20q-4 18 -18 29.5t-32 11.5q-28 0 -73 -24.5t-81 -74.5q-37 -58 -30.5 -97t38.5 -44q27 -4 54.5 10.5t79.5 69.5q-11 -37 9 -60t58 -17q28 4 65 28
t53 38t27 25zM206 150l-10 -14q-1 -1 -13 -14.5t-28 -30t-35 -33t-38 -25.5t-33 -5q-28 7 -5 58q25 57 76 92q33 22 62 22q18 0 24 -12.5t2 -25.5l-3 -12h1zM195 307q16 -7 5.5 -24t-28.5 -10q-16 5 -11 22q6 19 26 15q4 -1 8 -3zM272 307q16 -7 5.5 -24t-28.5 -10
q-16 5 -10 22q5 19 25 15q4 -1 8 -3z" />
    <glyph glyph-name="aring" unicode="&#xe5;" horiz-adv-x="364" 
d="M386 86q7 7 3 22q-1 8 -8 3q-47 -41 -88 -61q-70 -35 -87.5 -10t29.5 98q49 53 49 54q0 4 -11.5 13t-17.5 6q-4 -1 -19 -20q-4 18 -18 29.5t-32 11.5q-28 0 -73 -24.5t-81 -74.5q-37 -58 -30.5 -97t38.5 -44q27 -4 54.5 10.5t79.5 69.5q-11 -37 9 -60t58 -17q28 4 65 28
t53 38t27 25zM206 150l-10 -14q-1 -1 -13 -14.5t-28 -30t-35 -33t-38 -25.5t-33 -5q-28 7 -5 58q25 57 76 92q33 22 62 22q18 0 24 -12.5t2 -25.5l-3 -12h1zM226 309q-12 2 -16 -13q-2 -10 6 -13q12 -2 16 13q4 12 -6 13zM236 332q27 -4 18 -37q-6 -18 -19 -26.5t-27 -6.5
q-15 2 -20.5 14t0.5 25t19.5 22.5t28.5 8.5z" />
    <glyph glyph-name="ccedilla" unicode="&#xe7;" horiz-adv-x="244" 
d="M111 -1q-69 -5 -95 39q-9 17 -11 38t15 55.5t58 67.5q63 52 117 43q34 -6 34 -33q0 -4 -1 -8q-7 -26 -42 -53q-3 -2 -8 2.5t-6.5 10.5t5.5 13q19 16 14 32.5t-26 11.5q-17 -4 -50 -29t-52 -53q-40 -59 -12 -91q28 -33 99 -6q53 21 111 72q8 7 9 -8q1 -12 -3 -17
q-77 -77 -136 -85q-3 -1 -8 -1q0 -9 -4 -13q-1 -3 -10 -4q-15 -3 -15 -14q0 -10 13 -4l7 5q2 2 4 1t3 -3.5t0 -3.5q-20 -20 -32 -6q-12 13 2 26q7 5 17 8q3 0 3 7z" />
    <glyph glyph-name="egrave" unicode="&#xe8;" horiz-adv-x="227" 
d="M38 84q13 49 55 87q49 43 68 38q17 -5 -17 -43q-7 -9 -17 -18q-36 -35 -89 -64zM157 45q-108 -53 -121 4q21 9 67.5 45t61.5 52q47 55 30 82q-16 26 -69 0q-32 -15 -66 -46q-35 -32 -50 -70.5t-3 -68.5q21 -58 97 -48q28 4 64 26.5t56 40.5t25 24q7 7 3 22q-1 8 -8 3
q-56 -50 -87 -66zM178 287q2 -1 0.5 -8t-5.5 -10q-5 -5 -49 38v5.5t1.5 11t4 8.5t7.5 -1q22 -19 41 -44z" />
    <glyph glyph-name="eacute" unicode="&#xe9;" horiz-adv-x="227" 
d="M38 84q53 29 89 64q48 47 37 59t-57 -25q-7 -5 -14 -11q-42 -38 -55 -87zM157 45q31 16 87 66q8 7 9 -8q0 -13 -4 -17q-5 -6 -25 -24t-56 -40.5t-64 -26.5q-76 -10 -97 48q-12 30 3 68.5t50 70.5q70 64 115 58q31 -4 22 -39q-6 -25 -32 -55q-15 -16 -61.5 -52t-67.5 -45
q13 -57 121 -4zM209 287q9 12 41 44q9 8 12 -11l1 -13q-11 -11 -28.5 -26t-19.5 -12q-4 3 -6 9.5t0 8.5z" />
    <glyph glyph-name="ecircumflex" unicode="&#xea;" horiz-adv-x="227" 
d="M38 84q13 49 55 87q49 43 68 38q17 -5 -17 -43q-7 -9 -17 -18q-36 -35 -89 -64zM157 45q-108 -53 -121 4q21 9 67.5 45t61.5 52q47 55 30 82q-16 26 -69 0q-32 -15 -66 -46q-35 -32 -50 -70.5t-3 -68.5q21 -58 97 -48q28 4 64 26.5t56 40.5t25 24q7 7 3 22q-1 8 -8 3
q-56 -50 -87 -66zM152 285q1 1 6 5q62 53 67 31q0 -1 2 -11t4 -18.5t2 -10.5q1 -4 -5 -9t-12 -4.5t-7 8.5q-1 4 -7 22q-2 -2 -18 -13t-22 -16q-2 -2 -5.5 1.5t-5 8t0.5 6.5z" />
    <glyph glyph-name="edieresis" unicode="&#xeb;" horiz-adv-x="227" 
d="M38 84q13 49 55 87q49 43 68 38q17 -5 -17 -43q-7 -9 -17 -18q-36 -35 -89 -64zM157 45q-108 -53 -121 4q21 9 67.5 45t61.5 52q47 55 30 82q-16 26 -69 0q-32 -15 -66 -46q-35 -32 -50 -70.5t-3 -68.5q21 -58 97 -48q28 4 64 26.5t56 40.5t25 24q7 7 3 22q-1 8 -8 3
q-56 -50 -87 -66zM160 307q16 -7 5.5 -24t-28.5 -10q-16 5 -11 22q6 19 26 15q4 -1 8 -3zM237 307q16 -7 5.5 -24t-28.5 -10q-16 5 -10 22q5 19 25 15q4 -1 8 -3z" />
    <glyph glyph-name="igrave" unicode="&#xec;" horiz-adv-x="168" 
d="M51 30q-33 3 -10 55q6 15 23 41t35 51t19 26q4 7 1.5 14t-8 11.5t-9.5 1.5q-11 -8 -60 -80q-32 -46 -39 -81.5t16 -53.5q12 -9 28.5 -9.5t31 3.5t32.5 14.5t28.5 18.5t25 20.5t17 15l8.5 8.5q6 7 3 22q-3 6 -8 3q-96 -84 -134 -81zM143 287q2 -1 0.5 -8t-5.5 -10
q-6 -5 -49 38v5.5t1.5 11t4 8.5t7.5 -1q22 -19 41 -44z" />
    <glyph glyph-name="iacute" unicode="&#xed;" horiz-adv-x="168" 
d="M51 30q38 -3 134 81q8 7 8 -8q1 -13 -3 -17q-90 -90 -148 -80q-13 2 -23 9q-23 18 -16 53.5t39 81.5q49 72 60 80q4 3 9.5 -1.5t8 -11.5t-1.5 -14q-1 -1 -19 -26t-35 -51t-23 -41q-23 -52 10 -55zM144 287q9 12 41 44q9 8 12 -11l1 -13q-11 -11 -28.5 -26t-19.5 -12
q-4 3 -6 9.5t0 8.5z" />
    <glyph glyph-name="icircumflex" unicode="&#xee;" horiz-adv-x="168" 
d="M51 30q-33 3 -10 55q6 15 23 41t35 51t19 26q4 7 1.5 14t-8 11.5t-9.5 1.5q-11 -8 -60 -80q-32 -46 -39 -81.5t16 -53.5q12 -9 28.5 -9.5t31 3.5t32.5 14.5t28.5 18.5t25 20.5t17 15l8.5 8.5q6 7 3 22q-3 6 -8 3q-96 -84 -134 -81zM112 285q1 1 6 5q62 53 67 31
q0 -1 2 -11t4 -18.5t2 -10.5q1 -4 -5 -9t-12 -4.5t-7 8.5q-1 4 -7 22q-2 -2 -18 -13t-22 -16q-2 -2 -5.5 1.5t-5 8t0.5 6.5z" />
    <glyph glyph-name="idieresis" unicode="&#xef;" horiz-adv-x="168" 
d="M51 30q-33 3 -10 55q6 15 23 41t35 51t19 26q4 7 1.5 14t-8 11.5t-9.5 1.5q-11 -8 -60 -80q-32 -46 -39 -81.5t16 -53.5q12 -9 28.5 -9.5t31 3.5t32.5 14.5t28.5 18.5t25 20.5t17 15l8.5 8.5q6 7 3 22q-3 6 -8 3q-96 -84 -134 -81zM115 307q16 -7 5.5 -24t-28.5 -10
q-16 5 -11 22q6 19 26 15q4 -1 8 -3zM192 307q16 -7 5.5 -24t-28.5 -10q-16 5 -10 22q5 19 25 15q4 -1 8 -3z" />
    <glyph glyph-name="ntilde" unicode="&#xf1;" horiz-adv-x="279" 
d="M79 165q40 73 40 75q0 5 -13 9t-16 -1q-60 -115 -114 -200q-9 -20 2 -33q7 -7 14 0q6 6 40 67q36 43 90 90q44 38 61 29q11 -8 -6 -35q-2 -4 -21 -30.5t-29 -48t-10 -41.5q0 -44 49 -46q21 -1 55 20.5t54.5 40.5t25.5 25q7 7 3 22q-1 8 -8 3q-95 -84 -130 -82
q-14 1 -18 11t3 28.5t25 40.5q33 42 44 75t-8 48q-21 13 -63.5 -11.5t-69.5 -55.5zM263 303q3 -2 1.5 -8t-7 -11t-10.5 -3q-23 8 -45 0t-47 1q-7 2 -2 19l3 4q16 -6 50 1.5t57 -3.5z" />
    <glyph glyph-name="ograve" unicode="&#xf2;" horiz-adv-x="231" 
d="M121 197q3 -5 0 -8q-90 -76 -85 -134q3 -29 26 -33h6q37 3 82 58q69 84 52 123q-12 27 -54 9q-13 -5 -27 -15zM94 203q2 8 20 19.5t35 16.5q59 17 79 -20q25 -46 -33 -127q-19 -25 -44 -51q-31 -32 -61 -44t-50 -3t-30.5 28t-5 51t28.5 65q24 34 60 61q0 3 1 4zM213 287
q2 -1 0.5 -8t-5.5 -10q-6 -5 -49 38v5.5t1.5 11t4 8.5t7.5 -1q22 -19 41 -44z" />
    <glyph glyph-name="oacute" unicode="&#xf3;" horiz-adv-x="231" 
d="M121 197q3 -5 0 -8q-90 -76 -85 -134q3 -29 26 -33h6q37 3 82 58q69 84 52 123q-12 27 -54 9q-13 -5 -27 -15zM94 203q2 8 20 19.5t35 16.5q59 17 79 -20q25 -46 -33 -127q-19 -25 -44 -51q-31 -32 -61 -44t-50 -3t-30.5 28t-5 51t28.5 65q24 34 60 61q0 3 1 4zM214 287
q9 12 41 44q9 8 12 -11l1 -13q-11 -11 -28.5 -26t-19.5 -12q-4 3 -6 9.5t0 8.5z" />
    <glyph glyph-name="ocircumflex" unicode="&#xf4;" horiz-adv-x="231" 
d="M121 197q47 33 72 16q29 -19 -7 -82q-14 -24 -36 -51q-45 -55 -82 -58q-23 -1 -30 25q-13 50 59 120q11 11 24 22q3 3 0 8zM94 203q-1 -1 -1 -4q-36 -27 -60 -61q-23 -33 -28.5 -65t5 -51t30.5 -28t50 3t61 44q91 93 83 158q-5 41 -49 45q-16 1 -36 -5q-17 -5 -35 -16.5
t-20 -19.5zM177 285q1 1 6 5q62 53 67 31q0 -1 2 -11t4 -18.5t2 -10.5q1 -4 -5 -9t-12 -4.5t-7 8.5q-1 4 -7 22q-2 -2 -18 -13t-22 -16q-2 -2 -5.5 1.5t-5 8t0.5 6.5z" />
    <glyph glyph-name="otilde" unicode="&#xf5;" horiz-adv-x="231" 
d="M121 197q47 33 72 16q29 -19 -7 -82q-14 -24 -36 -51q-45 -55 -82 -58q-23 -1 -30 25q-13 50 59 120q11 11 24 22q3 3 0 8zM94 203q-1 -1 -1 -4q-36 -27 -60 -61q-23 -33 -28.5 -65t5 -51t30.5 -28t50 3t61 44q91 93 83 158q-5 41 -49 45q-16 1 -36 -5q-17 -5 -35 -16.5
t-20 -19.5zM278 303q3 -2 1.5 -8t-7 -11t-10.5 -3q-23 8 -45 0t-47 1q-7 2 -2 19l3 4q16 -6 50 1.5t57 -3.5z" />
    <glyph glyph-name="odieresis" unicode="&#xf6;" horiz-adv-x="231" 
d="M121 197q47 33 72 16q29 -19 -7 -82q-14 -24 -36 -51q-45 -55 -82 -58q-23 -1 -30 25q-13 50 59 120q11 11 24 22q3 3 0 8zM94 203q-1 -1 -1 -4q-36 -27 -60 -61q-23 -33 -28.5 -65t5 -51t30.5 -28t50 3t61 44q91 93 83 158q-5 41 -49 45q-16 1 -36 -5q-17 -5 -35 -16.5
t-20 -19.5zM195 307q16 -7 5.5 -24t-28.5 -10q-16 5 -11 22q6 19 26 15q4 -1 8 -3zM272 307q16 -7 5.5 -24t-28.5 -10q-16 5 -10 22q5 19 25 15q4 -1 8 -3z" />
    <glyph glyph-name="divide" unicode="&#xf7;" horiz-adv-x="274" 
d="M243 153q8 -2 6 -13t-11 -10q-10 1 -81 -2l-71 -3q-4 0 -7.5 5t-4 9.5t0.5 5.5q1 0 11.5 2t26.5 4t29 3q17 1 56 1t45 -2zM191 222q9 -6 7.5 -17.5t-12.5 -21t-22 -5.5q-18 6 -7 31q10 22 34 13zM163 98q-23 10 -34 -12q-8 -22 10 -29q12 -4 22 5t10.5 19.5t-8.5 16.5z
" />
    <glyph glyph-name="ugrave" unicode="&#xf9;" horiz-adv-x="302" 
d="M189 0q-35 0 -49 30t6 60q-63 -79 -108 -82q-37 -2 -33 55q1 21 9 42.5t18.5 38.5t23.5 33t23 26l18 18l8 8q5 5 17.5 -1t4.5 -17q-1 -2 -14.5 -17.5t-24.5 -29t-23.5 -33.5t-18.5 -36q-14 -36 -5.5 -48t42.5 12q66 50 142 167q4 8 19 3t7 -16q-51 -68 -73 -117
q-14 -32 -9 -49t20.5 -16.5t29.5 4.5q25 9 100 76q8 7 9 -8q0 -13 -4 -17q-5 -6 -25 -24.5t-54 -40t-56 -21.5zM183 287q2 -1 0.5 -8t-5.5 -10q-6 -5 -49 38v5.5t1.5 11t4 8.5t7.5 -1q22 -19 41 -44z" />
    <glyph glyph-name="uacute" unicode="&#xfa;" horiz-adv-x="302" 
d="M189 0q-35 0 -49 30t6 60q-63 -79 -108 -82q-37 -2 -33 55q1 21 9 42.5t18.5 38.5t23.5 33t23 26l18 18l8 8q5 5 17.5 -1t4.5 -17q-1 -2 -14.5 -17.5t-24.5 -29t-23.5 -33.5t-18.5 -36q-14 -36 -5.5 -48t42.5 12q66 50 142 167q4 8 19 3t7 -16q-51 -68 -73 -117
q-14 -32 -9 -49t20.5 -16.5t29.5 4.5q25 9 100 76q8 7 9 -8q0 -13 -4 -17q-5 -6 -25 -24.5t-54 -40t-56 -21.5zM189 287q9 12 41 44q9 8 12 -11l1 -13q-11 -11 -28.5 -26t-19.5 -12q-4 3 -6 9.5t0 8.5z" />
    <glyph glyph-name="ucircumflex" unicode="&#xfb;" horiz-adv-x="302" 
d="M189 0q-35 0 -49 30t6 60q-63 -79 -108 -82q-37 -2 -33 55q1 21 9 42.5t18.5 38.5t23.5 33t23 26l18 18l8 8q5 5 17.5 -1t4.5 -17q-1 -2 -14.5 -17.5t-24.5 -29t-23.5 -33.5t-18.5 -36q-14 -36 -5.5 -48t42.5 12q66 50 142 167q4 8 19 3t7 -16q-51 -68 -73 -117
q-14 -32 -9 -49t20.5 -16.5t29.5 4.5q25 9 100 76q8 7 9 -8q0 -13 -4 -17q-5 -6 -25 -24.5t-54 -40t-56 -21.5zM157 285q1 1 6 5q62 53 67 31q0 -1 2 -11t4 -18.5t2 -10.5q1 -4 -5 -9t-12 -4.5t-7 8.5q-1 4 -7 22q-2 -2 -18 -13t-22 -16q-2 -2 -5.5 1.5t-5 8t0.5 6.5z" />
    <glyph glyph-name="udieresis" unicode="&#xfc;" horiz-adv-x="302" 
d="M189 0q-35 0 -49 30t6 60q-63 -79 -108 -82q-37 -2 -33 55q1 21 9 42.5t18.5 38.5t23.5 33t23 26l18 18l8 8q5 5 17.5 -1t4.5 -17q-1 -2 -14.5 -17.5t-24.5 -29t-23.5 -33.5t-18.5 -36q-14 -36 -5.5 -48t42.5 12q66 50 142 167q4 8 19 3t7 -16q-51 -68 -73 -117
q-14 -32 -9 -49t20.5 -16.5t29.5 4.5q25 9 100 76q8 7 9 -8q0 -13 -4 -17q-5 -6 -25 -24.5t-54 -40t-56 -21.5zM180 307q16 -7 5.5 -24t-28.5 -10q-16 5 -11 22q6 19 26 15q4 -1 8 -3zM257 307q16 -7 5.5 -24t-28.5 -10q-16 5 -10 22q5 19 25 15q4 -1 8 -3z" />
    <glyph glyph-name="yacute" unicode="&#xfd;" horiz-adv-x="249" 
d="M122 -2q31 68 32 71q-70 -82 -116 -74q-34 6 -32 60q2 51 36.5 98.5t56.5 60.5q16 10 31 -4q4 -4 2 -6q-12 -9 -26 -21.5t-38.5 -50.5t-28.5 -76q-1 -16 6.5 -22t22 -1t31.5 20q24 20 58.5 60t59 72t25.5 33q4 3 10 0.5t11 -8t2 -9.5q-39 -59 -91 -164q61 45 92 74
q8 7 9 -8q1 -13 -3 -17q-24 -24 -124 -101q-102 -208 -148 -257q-38 -40 -74 -55t-58 3t-4.5 65t65.5 93q79 76 193 164zM-14 -152q-28 -30 -49 -55t-31.5 -42t-15.5 -30t-4.5 -20t4.5 -10q9 -8 30 4t57.5 55.5t78.5 113.5q11 17 42 83q-78 -63 -112 -99zM184 272
q9 12 41 44q9 8 12 -11l1 -13q-11 -11 -28.5 -26t-19.5 -12q-4 3 -6 9.5t0 8.5z" />
    <glyph glyph-name="ydieresis" unicode="&#xff;" horiz-adv-x="249" 
d="M122 -2q-114 -88 -193 -164q-48 -46 -65.5 -93t4.5 -65t58 -3t74 55q46 49 148 257q100 77 124 101q6 6 2 22q-2 8 -8 3q-31 -29 -92 -74q52 105 91 164q3 4 -2 9.5t-11 8t-10 -0.5q-1 -1 -25.5 -33t-59 -72t-58.5 -60q-17 -15 -31.5 -20t-22 1t-6.5 22q4 38 28.5 76
t38.5 50.5t26 21.5q4 4 -8 10q-14 6 -25 0q-22 -13 -56.5 -60.5t-36.5 -98.5q-2 -59 37 -61q46 -1 111 75q-1 -3 -32 -71zM-14 -152q34 36 112 99q-31 -66 -42 -83q-42 -70 -78.5 -113.5t-57.5 -55.5t-30 -4q-4 3 -4.5 10t4.5 20t15.5 30t31.5 42t49 55zM180 297
q16 -7 5.5 -24t-28.5 -10q-16 5 -11 22q6 19 26 15q4 -1 8 -3zM257 297q16 -7 5.5 -24t-28.5 -10q-16 5 -10 22q5 19 25 15q4 -1 8 -3z" />
    <glyph glyph-name="Scaron" unicode="&#x160;" horiz-adv-x="458" 
d="M83 273q7 9 -7 13q-15 4 -24 -7q-33 -40 -36.5 -93.5t18 -98t68.5 -74t105 -25.5q110 9 191 113q42 53 36 108t-61 82q-15 7 -52.5 21t-55.5 23q-26 12 -39.5 28t-10 37.5t31.5 43.5q50 40 112.5 64t116.5 30q59 6 63 -12q4 -16 -30 -49t-68 -40q-2 -1 -4 -7t1 -11t15 -3
q17 3 43 19.5t43 36.5q68 78 -6 95q-56 12 -133 -10q-31 -9 -64 -23t-71 -35t-62 -49.5t-24 -59.5t21.5 -52.5t52.5 -34t62.5 -24.5t54.5 -32t25 -49q3 -52 -58 -113.5t-136 -61.5q-52 0 -89 26t-51.5 63.5t-9.5 81.5t32 79zM594 637q-1 -1 -6 -5q-62 -53 -67 -31q0 1 -2 11
t-4 18.5t-2 10.5q-1 4 5 9t12.5 4.5t7.5 -8.5q1 -6 6 -22q2 2 18 13t22 16q3 2 6.5 -1.5t4.5 -8t-1 -6.5z" />
    <glyph glyph-name="scaron" unicode="&#x161;" horiz-adv-x="243" 
d="M92 7q-10 -2 -16 -1q-28 2 -42 33t1 52l1 -1q1 -2 2 -6t2.5 -9t4 -11t5.5 -12.5t7.5 -13t9 -12t11.5 -11t14 -8.5zM122 211q-5 12 -1 23q9 34 28 36q7 0 9 -5q3 -12 -36 -54zM38 129q-5 4 -13.5 4.5t-16.5 -13.5t-8 -38q-2 -44 23 -75.5t65 -26.5q26 4 46 20
q25 4 57.5 25t50.5 38t23 23q7 7 3 22q-1 8 -8 3q-64 -57 -98 -74q15 29 13 69q0 13 -5.5 27t-8.5 19.5t-14.5 20.5t-12.5 16q34 37 46 59q25 47 -8 53q-18 3 -42.5 -17t-29.5 -47q-4 -21 5 -43q-34 -35 -67 -65zM127 30q-39 6 -78 78q38 34 67 63q29 -56 29 -84
q0 -34 -18 -57zM252 370q-1 -1 -6 -5q-62 -53 -66 -31q-8 20 -8 40q-1 4 4.5 9t12 4.5t7.5 -8.5q1 -6 6 -22q20 15 40 29q3 2 6.5 -1t4.5 -8t-1 -7z" />
    <glyph glyph-name="Ydieresis" unicode="&#x178;" horiz-adv-x="387" 
d="M139 -32q-157 -195 -259 -257q-62 -39 -85 -16q-20 21 15 70q30 41 89 80q96 64 240 123zM191 553q-35 -13 -73.5 -40.5t-54.5 -43.5q-13 -12 -9 -34q2 -12 8 -6q66 61 134 86q29 11 26 -9q-4 -19 -29 -50q-1 -2 -16 -20t-19 -23t-18 -22t-19.5 -25.5t-17.5 -25
t-19 -27.5t-17 -26.5t-17.5 -30.5t-14.5 -30q-29 -82 -8.5 -141t92 -50.5t141.5 99.5q-28 -48 -87 -123q-388 -121 -423 -283q-9 -38 20.5 -62.5t84.5 -3.5q132 50 341 327q74 26 163 52q6 2 7 7.5t-1.5 10.5t-5.5 4q-73 -19 -136 -38q124 171 294 463q8 14 -9 27
q-8 7 -11 2q-37 -55 -105 -155q-3 -5 -24 -36t-26.5 -38.5t-24 -34t-26.5 -36.5t-24.5 -31t-27.5 -33t-25.5 -26t-28.5 -25q-35 -28 -63 -34.5t-43 6t-22.5 33.5t-5 47t12.5 48q28 58 98.5 152.5t84.5 118.5q27 47 8 72t-64 8zM369 594q15 -7 6 -23q-11 -17 -29 -12
q-16 6 -11 24q7 20 29 13q3 -1 5 -2zM446 594q15 -7 6 -23q-11 -17 -29 -12q-16 6 -10 24q7 20 28 13q3 -1 5 -2z" />
    <glyph glyph-name="Zcaron" unicode="&#x17d;" horiz-adv-x="425" 
d="M288 26q-16 -35 -39.5 -71t-62.5 -80t-100 -88t-136 -79q-73 -34 -93 -7q-19 25 28 79q32 37 88 73q147 97 315 173zM231 168q-47 -39 -90 -63.5t-65.5 -28t-28.5 8.5q-4 18 31 43q30 21 73 32.5t80 7.5zM70 151q-36 -23 -50.5 -48.5t-5.5 -41.5q11 -21 37 -21t61.5 17
t73.5 43t79 61q58 -21 39 -90q-2 -8 -4 -13q-72 -29 -138.5 -60t-145 -75t-132.5 -93t-67 -94q-10 -37 13 -64t78 -15q67 15 135 59t121.5 100t92 107t62.5 94q9 15 15 30q12 5 25 11t21 9t11 5q13 7 5 19q-3 4 -5 3q-8 -3 -48 -19q20 82 -46 114q110 100 145 163
q41 77 35.5 117.5t-42.5 51.5t-85 1.5t-92 -33.5q-145 -77 -219 -170q-3 -4 -1.5 -11.5t6.5 -11t12 1.5l7.5 7.5t12.5 13t18 17.5t24 21.5t29 24t34 25.5t39 26t45 26q52 28 92.5 30.5t58.5 -16t13.5 -53.5t-34.5 -76q-59 -80 -129 -145q-92 18 -196 -48zM512 611
q-1 -1 -6 -5q-62 -53 -67 -31q0 1 -2 11.5t-4 19t-2 9.5q-1 4 5 9t12 4.5t7 -8.5q1 -4 7 -22q20 15 40 29q5 5 10 -7q2 -6 0 -9z" />
    <glyph glyph-name="zcaron" unicode="&#x17e;" horiz-adv-x="248" 
d="M103 -46q-24 -74 -87 -143q-45 -48 -99.5 -86t-66.5 -30q-4 6 -5 16t14 33.5t44 51.5q54 52 200 158zM-72 -137q-69 -53 -101 -107.5t-6 -79.5q24 -24 76.5 3.5t108.5 79.5q44 41 89 109t52 118q81 57 123 100q7 7 3 22q-1 8 -8 3q-48 -43 -119 -93q-9 30 -42 40
q51 33 89 70q17 18 21 42.5t-13.5 41.5t-54.5 11q-79 -13 -140 -66q-8 -6 1 -24q5 -12 12 -6q6 6 22 18.5t46.5 28.5t55.5 20q22 3 29.5 -9.5t0.5 -24.5q-15 -31 -123 -99q-35 -4 -67 -18q-16 -7 -23.5 -18.5t1 -18t31.5 -0.5q43 12 86 36q34 -6 32 -48q-109 -75 -182 -131z
M262 310q-1 -1 -6 -5q-62 -53 -66 -31q-8 20 -8 40q-1 4 4.5 9t12 4.5t7.5 -8.5q1 -6 6 -22q20 15 40 29q3 2 6.5 -1t4.5 -8t-1 -7z" />
    <glyph glyph-name="quoteleft" unicode="&#x2018;" horiz-adv-x="71" 
d="M48 363q-1 -7 -12 -9t-11 7q0 42 4 58q2 6 11.5 4.5t10.5 -6.5q-2 -46 -3 -54z" />
    <glyph glyph-name="quoteright" unicode="&#x2019;" horiz-adv-x="0" 
d="M43 289q2 -8 -8 -12q-3 -3 -7.5 -2.5t-4.5 4.5q-4 31 -22 63q-4 6 9 9.5t15 -2.5q18 -30 18 -60z" />
    <glyph glyph-name="Euro" unicode="&#x20ac;" horiz-adv-x="577" 
d="M133 145q-1 -41 19 -77.5t67 -45.5q41 -8 90 14t81 54q11 12 22 8q15 -4 3 -16q-61 -68 -136.5 -85t-128 22.5t-52.5 119.5q0 16 6 48q-90 0 -94 2q-11 3 -11 16t14 12q6 -1 100 -1q3 8 11 26h-43t-35.5 0.5t-14.5 0.5q-7 -1 -9.5 4t-0.5 10q1 5 5 9.5t10 4.5h103
q52 88 147 152t177 68q102 4 102 -39q0 -36 -41.5 -64t-70.5 -29q-14 -1 -16 8.5t8 13.5q36 12 62.5 30t23.5 38q-2 20 -55 19q-80 -2 -162.5 -60t-134.5 -137q94 0 122 -2q7 0 10.5 -4.5t1.5 -9.5q-4 -13 -23 -14q-15 -1 -128 1q-8 -18 -12 -26h9h141q13 -2 8 -13
q-4 -11 -17 -14q-5 0 -151 -2q-5 -18 -7 -42z" />
    </font>
</defs>
</svg>
