<?xml version="1.0" standalone="no"?>
<!DOCTYPE svg PUBLIC "-//W3C//DTD SVG 1.1//EN" "http://www.w3.org/Graphics/SVG/1.1/DTD/svg11.dtd" >
<svg>
<metadata>
Created by FontForge 20120731 at Wed Sep 21 17:58:26 2016
 By ,,,
Copyright (c) 2013 by Aviation Partners. All rights reserved.
</metadata>
<defs>
<font id="AlleynW01-Bold" horiz-adv-x="632" >
  <font-face 
    font-family="AlleynW01-Bold"
    font-weight="700"
    font-stretch="normal"
    units-per-em="1000"
    panose-1="2 0 0 0 0 0 0 0 0 0"
    ascent="800"
    descent="-200"
    x-height="532"
    cap-height="725"
    bbox="-116.923 -212 1166 980"
    underline-thickness="50"
    underline-position="-125"
    unicode-range="U+0020-2122"
  />
<missing-glyph horiz-adv-x="496" 
d="M437 725v-725h-379v725h379zM103 45h289v635h-289v-635z" />
    <glyph glyph-name=".notdef" horiz-adv-x="496" 
d="M437 725v-725h-379v725h379zM103 45h289v635h-289v-635z" />
    <glyph glyph-name=".null" horiz-adv-x="0" 
 />
    <glyph glyph-name="nonmarkingreturn" horiz-adv-x="333" 
 />
    <glyph glyph-name="space" unicode=" " horiz-adv-x="347" 
 />
    <glyph glyph-name="exclam" unicode="!" horiz-adv-x="356" 
d="M255 249q0 -17 -12 -29t-29 -12h-53q-17 0 -28.5 12t-12.5 29l-14 265v170q0 17 12 29t29 12h81q17 0 29 -12t12 -29v-169zM97 79q0 19 7 35.5t19.5 29t29 19.5t35.5 7q38 0 64.5 -26.5t26.5 -64.5q0 -19 -7 -35.5t-19.5 -29t-29 -19.5t-35.5 -7q-38 0 -64.5 26.5
t-26.5 64.5z" />
    <glyph glyph-name="quotedbl" unicode="&#x22;" horiz-adv-x="416" 
d="M318 742q17 0 28.5 -13t13.5 -29l-18 -216q-3 -14 -14 -24t-27 -10h-14q-15 0 -27.5 12t-14.5 26l-18 210q-2 18 10.5 31t30.5 13h50zM148 742q16 0 27.5 -14t13.5 -28l-18 -212q-2 -14 -13 -26t-27 -12h-16q-14 0 -26.5 12t-13.5 26l-18 210q-2 18 11 31t31 13h49z" />
    <glyph glyph-name="numbersign" unicode="#" 
d="M610 467q0 -20 -13 -32.5t-33 -12.5h-81l-29 -125h84q20 0 32 -13t12 -33v-17q0 -20 -12 -33t-32 -13h-110q-6 -36 -14.5 -73.5t-18.5 -85.5q-5 -15 -17.5 -25t-26.5 -10h-16q-23 0 -36 16.5t-8 39.5l31 138h-87l-38 -158q-2 -15 -15.5 -25.5t-28.5 -10.5h-17
q-23 0 -35.5 15t-8.5 38q4 21 7.5 38t7.5 33t8 33t9 37h-57q-19 0 -32.5 13t-13.5 33v17q0 20 13.5 33t32.5 13h80l29 125h-81q-20 0 -33 12.5t-13 32.5v19q0 20 13 32t33 12h107l35 160q4 13 16 23.5t29 10.5h16q23 0 36.5 -16t8.5 -39q-8 -34 -17 -68t-16 -71h90
q10 48 16 76t9.5 44t5 22.5t2.5 12.5q5 14 18 26.5t27 12.5h19q22 0 35 -16.5t8 -39.5l-31 -138h55q20 0 33 -12t13 -32v-19zM375 422h-89q-8 -34 -14.5 -61t-14.5 -64h90z" />
    <glyph glyph-name="dollar" unicode="$" horiz-adv-x="664" 
d="M405 -53q0 -17 -12 -29t-29 -12h-81q-17 0 -29 12t-12 29v49q-56 11 -99.5 35t-80.5 60q-12 11 -14.5 27.5t8.5 29.5l48 58q11 13 27.5 14.5t29.5 -9.5q22 -18 41 -31t38.5 -21.5t41.5 -12.5t49 -4q54 0 86 20.5t32 55.5q0 33 -38 51t-122 32q-114 20 -172 76t-58 141
q0 38 14 71.5t38.5 60t58 46t72.5 29.5v48q0 17 12 29t29 12h81q17 0 29 -12t12 -29v-43q50 -10 96 -33.5t92 -60.5q13 -11 15 -27t-9 -30l-48 -58q-11 -13 -27.5 -14.5t-29.5 9.5q-38 31 -78 49t-87 18q-46 0 -72 -17.5t-26 -46.5q0 -23 27 -39.5t87 -26.5
q134 -24 204.5 -79.5t70.5 -151.5q0 -44 -15.5 -81.5t-43.5 -67t-68 -49.5t-88 -29v-48v0z" />
    <glyph glyph-name="percent" unicode="%" horiz-adv-x="770" 
d="M185 731q74 0 115.5 -48t41.5 -155t-41 -155t-116 -48q-73 0 -114.5 48t-41.5 155t41.5 155t114.5 48zM185 423q24 0 38 25t14 80q0 56 -14 80.5t-38 24.5q-23 0 -37 -24.5t-14 -80.5q0 -55 14 -80t37 -25zM268 34q-10 -17 -25 -25.5t-32 -8.5h-24q-17 0 -27 15.5t0 32.5
l381 644q10 17 25 25t32 8h24q17 0 27 -15.5t0 -32.5zM613 400q74 0 115.5 -48t41.5 -155t-41.5 -155t-115.5 -48q-73 0 -114.5 48t-41.5 155t41.5 155t114.5 48zM613 92q25 0 38.5 24.5t13.5 80.5q0 55 -13.5 80t-38.5 25q-23 0 -37 -25t-14 -80q0 -56 14 -80.5t37 -24.5z
" />
    <glyph glyph-name="ampersand" unicode="&#x26;" horiz-adv-x="776" 
d="M333 613q-26 0 -43 -15t-17 -36q0 -32 41 -85q29 20 51.5 45t22.5 42q0 24 -15 36.5t-40 12.5zM325 142q19 0 40 10.5t41 27.5l-122 122q-22 -17 -35 -32.5t-13 -34.5q0 -18 5.5 -34.5t17 -29.5t28 -21t38.5 -8zM546 395q5 16 19 24.5t31 3.5l53 -18q16 -4 24 -19t4 -31
q-10 -37 -27 -74t-38 -79q14 -13 35 -34t43.5 -44t43.5 -44l34 -34q17 -17 12.5 -31.5t-21.5 -14.5h-137q-17 0 -35 9t-35 26l-35 34q-52 -44 -102.5 -62.5t-101.5 -18.5q-53 0 -98.5 18t-78.5 49.5t-51.5 73.5t-18.5 91q0 65 29 109.5t81 83.5q-30 36 -43 68t-13 67
q0 36 15 70.5t42.5 60.5t66.5 42t87 16q43 0 80 -13.5t64 -37.5t42.5 -57t15.5 -71q0 -48 -24 -89.5t-81 -82.5l79 -77q14 23 24 46t15 40z" />
    <glyph glyph-name="quotesingle" unicode="'" horiz-adv-x="245" 
d="M148 742q16 0 27.5 -14t13.5 -28l-18 -212q-2 -14 -13 -26t-27 -12h-16q-14 0 -26.5 12t-13.5 26l-18 210q-2 18 11 31t31 13h49z" />
    <glyph glyph-name="parenleft" unicode="(" horiz-adv-x="378" 
d="M219 271q0 -46 7 -101.5t21 -113t35.5 -113t50.5 -101.5q9 -14 -0.5 -28t-26.5 -14h-72q-17 0 -34 11.5t-26 26.5q-51 98 -84.5 210t-33.5 223q0 112 33.5 223t84.5 210q9 14 26 26t34 12h72q17 0 27 -14t0 -28q-29 -47 -50.5 -102t-35.5 -112.5t-21 -113t-7 -101.5z" />
    <glyph glyph-name="parenright" unicode=")" horiz-adv-x="378" 
d="M159 271q0 46 -7 101.5t-21 113t-35.5 112.5t-50.5 102q-10 14 0 28t27 14h72q17 0 34 -12t26 -26q51 -99 84.5 -210t33.5 -223q0 -111 -33.5 -223t-84.5 -210q-9 -15 -26 -26.5t-34 -11.5h-72q-17 0 -26.5 14t-0.5 28q29 46 50.5 101.5t35.5 113t21 113t7 101.5z" />
    <glyph glyph-name="asterisk" unicode="*" horiz-adv-x="525" 
d="M455 602q17 0 29 -12t12 -29v-50q0 -17 -12 -29t-29 -12l-101 13l61 -80q8 -16 4 -32t-18 -24l-44 -26q-14 -8 -31 -3.5t-25 19.5l-39 93l-39 -93q-8 -15 -24 -19.5t-32 3.5l-43 26q-14 8 -18.5 24t3.5 32l62 80l-101 -13q-17 0 -28.5 12t-11.5 29v50q0 17 11.5 29
t28.5 12l101 -13l-62 80q-8 14 -3.5 31t18.5 25l43 25q16 8 32 4t24 -19l39 -93l39 93q8 15 25 19t31 -4l44 -25q14 -8 18 -25t-4 -31l-61 -80l101 13v0z" />
    <glyph glyph-name="plus" unicode="+" 
d="M592 300q0 -17 -12 -29t-29 -12h-162v-162q0 -17 -12 -29t-29 -12h-62q-17 0 -29 12t-12 29v162h-163q-17 0 -29 12t-12 29v62q0 17 12 29t29 12h163v163q0 17 12 29t29 12h62q17 0 29 -12t12 -29v-163h162q17 0 29 -12t12 -29v-62v0z" />
    <glyph glyph-name="comma" unicode="," horiz-adv-x="307" 
d="M62 -118q4 6 11 21t14.5 32.5t13.5 35t9 29.5q1 3 0 6l-2 6q-17 8 -29 28.5t-12 48.5q0 18 6.5 34.5t18.5 29t28 20.5t35 8t36.5 -7t30.5 -20.5t21 -33t8 -45.5q0 -21 -10.5 -53.5t-27.5 -68t-37.5 -68.5t-40.5 -55q-8 -8 -18.5 -9t-20.5 6l-10.5 6t-6.5 3t-5.5 2.5
t-6.5 4.5q-8 8 -10 18t5 21z" />
    <glyph glyph-name="hyphen" unicode="-" horiz-adv-x="389" 
d="M363 262q0 -17 -12 -29t-29 -12h-256q-17 0 -29 12t-12 29v56q0 17 12 29t29 12h256q17 0 29 -12t12 -29v-56v0z" />
    <glyph glyph-name="period" unicode="." horiz-adv-x="295" 
d="M56 79q0 19 7 35.5t19.5 29t29 19.5t35.5 7t36 -7t29.5 -19.5t19.5 -29t7 -35.5t-7 -35.5t-19.5 -29t-29.5 -19.5t-36 -7q-38 0 -64.5 26.5t-26.5 64.5z" />
    <glyph glyph-name="slash" unicode="/" horiz-adv-x="410" 
d="M148 -45q-6 -17 -19.5 -27t-30.5 -10h-60q-9 0 -17.5 4.5t-14.5 11.5t-9 15.5t0 16.5l256 739q6 17 19.5 27t30.5 10h60q9 0 17.5 -4.5t14.5 -11t9 -15t0 -17.5z" />
    <glyph glyph-name="zero" unicode="0" 
d="M316 737q135 0 206 -90.5t71 -284.5q0 -196 -71 -285t-206 -89q-134 0 -205.5 89t-71.5 285q0 194 71.5 284.5t205.5 90.5zM316 142q52 0 78.5 52t26.5 168q0 115 -26.5 168t-78.5 53t-79 -53t-27 -168q0 -116 27 -168t79 -52z" />
    <glyph glyph-name="one" unicode="1" 
d="M470 41q0 -17 -12 -29t-29 -12h-87q-17 0 -29 12t-12 29v440l-92 -77q-13 -11 -29.5 -9t-27.5 15l-44 56q-11 13 -9 29.5t14 27.5l192 174q20 17 33 22.5t30 5.5h61q17 0 29 -12t12 -29v-643z" />
    <glyph glyph-name="two" unicode="2" 
d="M64 546q9 40 31.5 74.5t55.5 60.5t75 41t92 15q54 0 100.5 -18t80 -49.5t52.5 -74t19 -92.5q0 -53 -19 -98t-63 -89l-165 -162h206q17 0 29 -12t12 -29v-72q0 -17 -12 -29t-29 -12h-423q-17 0 -29 12t-12 29v72q0 20 14 31l292 291q18 17 24 33.5t6 33.5q0 35 -23 58
t-60 23q-31 0 -58.5 -24.5t-41.5 -64.5q-5 -16 -20 -23.5t-32 -2.5l-76 26q-17 5 -23.5 20t-2.5 32z" />
    <glyph glyph-name="three" unicode="3" 
d="M71 134q-8 15 -2.5 31t21.5 24l72 37q15 8 31 2.5t24 -20.5q17 -32 38 -49.5t53 -17.5q36 0 62 25t26 65q0 39 -25.5 61.5t-60.5 22.5h-57q-17 0 -29 12t-12 29v64q0 17 12 29t29 12h48q28 0 46.5 20t18.5 46q0 23 -16.5 39.5t-39.5 16.5q-12 0 -23.5 -5.5t-21 -13.5
t-17 -17.5t-11.5 -18.5q-9 -15 -25 -19.5t-30 3.5l-69 39q-15 8 -19.5 24t3.5 32q11 21 29 44t43.5 42t60.5 31.5t80 12.5q48 0 89 -16t71 -44t47 -65.5t17 -80.5q0 -42 -12.5 -74t-35.5 -55q38 -30 58.5 -76.5t20.5 -100.5q0 -50 -20 -93t-55 -75t-82 -50.5t-100 -18.5
t-92 14t-67 35.5t-47 47t-31 49.5z" />
    <glyph glyph-name="four" unicode="4" 
d="M348 308v167q-24 -29 -60.5 -75.5t-71.5 -91.5h132zM352 692q14 17 30.5 25t33.5 8h58q17 0 29 -12t12 -29v-373h57q17 0 29 -12t12 -29v-72q0 -17 -12 -29t-29 -12h-57v-116q0 -17 -12 -29t-29 -12h-87q-17 0 -29 12t-12 29v116h-286q-17 0 -29 12t-12 29v58
q0 17 9 31.5t23 29.5z" />
    <glyph glyph-name="five" unicode="5" 
d="M114 684q2 17 14.5 29t29.5 12h355q17 0 29 -12t12 -29v-71q0 -17 -12 -29t-29 -12h-243l-7 -71q11 2 23 3t25 1q56 0 105 -18.5t85 -52.5t56.5 -81.5t20.5 -104.5q0 -56 -21 -103.5t-57.5 -82t-86 -54.5t-106.5 -20q-56 0 -97.5 14t-71.5 35.5t-49 47.5t-31 49
q-8 15 -2.5 31t19.5 24l73 36q15 8 30.5 2.5t24.5 -19.5q21 -30 45.5 -48.5t58.5 -18.5q41 0 71 30t30 78q0 47 -30.5 75t-74.5 28q-31 0 -46.5 -5t-31.5 -19q-13 -11 -25 -20t-28 -3l-63 25q-16 8 -21.5 24t-3.5 33z" />
    <glyph glyph-name="six" unicode="6" 
d="M317 141q40 0 67.5 29t27.5 76q0 48 -27.5 76.5t-67.5 28.5q-41 0 -70 -26.5t-29 -72.5q0 -48 27 -79.5t72 -31.5zM470 579q-77 0 -133 -26.5t-85 -62.5l4 -6q14 9 34 15t43 6q56 0 101.5 -19.5t77.5 -54.5t49.5 -82.5t17.5 -102.5t-21 -102t-56.5 -81.5t-83 -54.5
t-101.5 -20q-126 0 -195.5 79t-69.5 220q0 90 24 171t75 141.5t130 96t189 35.5q17 0 29 -11.5t12 -28.5v-71q0 -17 -12 -29t-29 -12z" />
    <glyph glyph-name="seven" unicode="7" 
d="M585 644q0 -29 -16 -51q-14 -25 -45.5 -81.5t-72.5 -131.5t-88 -163t-92 -175q-8 -17 -27 -29.5t-36 -12.5h-99q-17 0 -26 13.5t1 30.5q83 162 156 298t129 230h-282q-17 0 -29 12t-12 29v71q0 17 12 29t29 12h458q17 0 28.5 -12t11.5 -29v-40z" />
    <glyph glyph-name="eight" unicode="8" 
d="M472 397q17 -11 34.5 -28.5t31.5 -39t23 -47t9 -51.5q0 -51 -19 -95t-53 -77t-80.5 -52t-101.5 -19t-101.5 19t-80.5 52t-53 77t-19 95q0 26 9 51.5t23 47t31.5 39t34.5 28.5v7q-11 9 -23 21.5t-22 29t-16 35t-6 39.5q0 44 17.5 82t47.5 66t70.5 44t87.5 16t88 -16
t71 -44t47.5 -66t17.5 -82q0 -21 -6.5 -39.5t-16 -35t-21.5 -29t-24 -21.5v-7zM316 594q-27 0 -46 -19.5t-19 -45.5q0 -13 5 -25.5t14 -22.5t20.5 -16t25.5 -6q13 0 25 6t21 16t14 22.5t5 25.5q0 26 -19 45.5t-46 19.5zM316 141q18 0 33 7t26.5 19.5t18 29t6.5 34.5
q0 16 -6.5 31.5t-18 27.5t-26.5 19.5t-33 7.5t-33 -7.5t-26 -19.5t-17.5 -27.5t-6.5 -31.5q0 -18 6.5 -34.5t17.5 -29t26 -19.5t33 -7z" />
    <glyph glyph-name="nine" unicode="9" 
d="M314 584q-40 0 -67.5 -28.5t-27.5 -76.5t27.5 -76.5t67.5 -28.5q41 0 70 26.5t29 72.5q0 49 -27 80t-72 31zM161 146q77 0 133.5 27t84.5 63l-4 5q-14 -9 -33.5 -15t-42.5 -6q-56 0 -102 19.5t-78 54.5t-49.5 82t-17.5 103q0 55 21 102t56.5 81.5t83 54.5t101.5 20
q126 0 195.5 -79t69.5 -219q0 -91 -24 -172t-75 -141.5t-130 -96t-189 -35.5q-17 0 -29 12t-12 29v70q0 17 12 29t29 12z" />
    <glyph glyph-name="colon" unicode=":" horiz-adv-x="310" 
d="M65 452q0 19 7 36t19.5 29.5t29 19.5t35.5 7t36 -7t29.5 -19.5t19.5 -29.5t7 -36t-7 -35.5t-19.5 -29t-29.5 -19.5t-36 -7q-38 0 -64.5 26.5t-26.5 64.5zM65 79q0 19 7 35.5t19.5 29t29 19.5t35.5 7t36 -7t29.5 -19.5t19.5 -29t7 -35.5t-7 -35.5t-19.5 -29t-29.5 -19.5
t-36 -7q-38 0 -64.5 26.5t-26.5 64.5z" />
    <glyph glyph-name="semicolon" unicode=";" horiz-adv-x="320" 
d="M69 -118q4 6 11.5 21t14.5 32.5t13 35t9 29.5q1 3 0 6l-2 6q-17 8 -29 28.5t-12 48.5q0 18 6.5 34.5t18.5 29t28 20.5t35 8t36.5 -7t30.5 -20.5t21 -33t8 -45.5q0 -21 -10.5 -53.5t-27.5 -68t-37.5 -68.5t-40.5 -55q-7 -8 -18 -9t-21 6l-10.5 6t-6.5 3t-5.5 2.5t-6.5 4.5
q-8 8 -10 18t5 21zM74 452q0 19 7 36t19.5 29.5t29 19.5t35.5 7t36 -7t29.5 -19.5t19.5 -29.5t7 -36t-7 -35.5t-19.5 -29t-29.5 -19.5t-36 -7q-38 0 -64.5 26.5t-26.5 64.5z" />
    <glyph glyph-name="less" unicode="&#x3c;" 
d="M585 500q0 -17 -11.5 -33t-28.5 -24l-273 -112l273 -112q17 -7 28.5 -23t11.5 -33v-69q0 -17 -13.5 -27t-30.5 -3l-454 196q-17 7 -29 23t-12 33v31q0 17 12 33t29 23l454 196q17 7 30.5 -3t13.5 -27v-69v0z" />
    <glyph glyph-name="equal" unicode="=" 
d="M592 411q0 -17 -12 -29t-29 -12h-469q-17 0 -29 12t-12 29v62q0 17 12 29t29 12h469q17 0 29 -12t12 -29v-62zM592 193q0 -17 -12 -29t-29 -12h-469q-17 0 -29 12t-12 29v62q0 17 12 29t29 12h469q17 0 29 -12t12 -29v-62z" />
    <glyph glyph-name="greater" unicode="&#x3e;" 
d="M46 569q0 17 14 27t31 3l454 -196q17 -7 28.5 -23t11.5 -33v-31q0 -17 -11.5 -33t-28.5 -23l-454 -196q-17 -7 -31 3t-14 27v69q0 17 12 33t29 23l272 112l-272 112q-18 8 -29.5 24t-11.5 33v69z" />
    <glyph glyph-name="question" unicode="?" horiz-adv-x="559" 
d="M180 79q0 19 7 35.5t19 29t28.5 19.5t35.5 7t36 -7t29.5 -19.5t19.5 -29t7 -35.5t-7 -35.5t-19.5 -29t-29.5 -19.5t-36 -7q-38 0 -64 26.5t-26 64.5zM144 543q-14 -11 -30.5 -8t-26.5 17l-39 55q-9 14 -6.5 30.5t16.5 26.5q50 35 103.5 54t118.5 19q55 0 100 -15.5
t77 -42.5t49 -64.5t17 -81.5q0 -64 -43.5 -120t-126.5 -113v-62q0 -17 -12 -29t-29 -12h-81q-17 0 -29 12t-12 29v107q0 12 8 26.5t21 21.5q26 17 51 33.5t44 33t30.5 33.5t11.5 34q0 28 -22.5 45.5t-55.5 17.5q-66 0 -134 -47z" />
    <glyph glyph-name="at" unicode="@" horiz-adv-x="990" 
d="M708 216q-1 -5 -2 -15t-2 -21t-2 -21t-1 -16q0 -12 4.5 -23.5t15.5 -11.5q28 0 49 21t34.5 53.5t20.5 72.5t7 78q0 66 -21.5 120t-62 92t-99.5 58.5t-134 20.5q-79 0 -144.5 -29t-112 -79t-72.5 -116.5t-26 -141.5q0 -83 27.5 -147.5t76 -108t114.5 -66t143 -22.5
q74 0 135 13.5t103 30.5q16 7 31.5 1t22.5 -22l3 -10q7 -17 1 -31.5t-21 -21.5q-52 -22 -117.5 -41t-157.5 -19q-107 0 -193 32.5t-146.5 91t-93 139t-32.5 177.5q0 104 35.5 190.5t98 148.5t146.5 96t181 34q91 0 167.5 -28t132 -81t86.5 -128.5t31 -169.5
q0 -61 -17 -116.5t-49 -98t-77.5 -68t-102.5 -25.5q-20 0 -36.5 7.5t-29 19t-20.5 26.5t-11 30h-7q-20 -34 -58 -58.5t-88 -24.5q-44 0 -80 17t-62 47.5t-40.5 73t-14.5 93.5q0 48 17.5 101.5t51 99t81.5 75t109 29.5q35 0 63 -17.5t46 -36.5q1 2 1.5 4.5t1.5 4.5
q4 14 16 23.5t27 9.5h56q17 0 28 -11.5t9 -28.5zM452 143q26 0 49 21.5t39.5 54.5t26 72t9.5 74q-1 3 -5.5 11t-12.5 16.5t-21 14.5t-31 6q-23 0 -42.5 -14.5t-34 -39t-23 -56.5t-8.5 -66q0 -48 14.5 -71t39.5 -23z" />
    <glyph glyph-name="A" unicode="A" horiz-adv-x="753" 
d="M749 44q8 -17 -2 -30.5t-27 -13.5h-104q-35 0 -51 38l-53 127h-271l-53 -127q-17 -38 -51 -38h-104q-17 0 -27 13.5t-2 30.5l288 643q14 38 50 38h69q17 0 30 -9.5t20 -28.5zM376 537q-10 -32 -22 -70q-11 -32 -26 -74t-32 -88h161q-18 46 -32.5 88t-25.5 74
q-12 38 -23 70z" />
    <glyph glyph-name="B" unicode="B" horiz-adv-x="728" 
d="M406 725q53 0 95.5 -16t72 -44t45.5 -65t16 -80q0 -40 -16.5 -71t-42.5 -51v-10q42 -26 66.5 -68.5t24.5 -93.5q0 -45 -14.5 -85.5t-47 -72t-84.5 -50t-127 -18.5h-267q-17 0 -28.5 12t-11.5 29v643q0 17 11.5 29t28.5 12h279zM256 154h123q53 0 85.5 15.5t32.5 56.5
q0 44 -29 60t-78 16h-134v-148zM256 571v-116h130q38 0 59 15t21 45q0 26 -18 41t-51 15h-141z" />
    <glyph glyph-name="C" unicode="C" horiz-adv-x="741" 
d="M690 157q11 -12 9.5 -29t-13.5 -28q-53 -52 -118 -82t-148 -30q-84 0 -152 28t-116 77.5t-74.5 118.5t-26.5 151t26.5 151t74.5 118.5t116 77t152 27.5q83 0 148 -29t117 -82q13 -12 14.5 -28.5t-9.5 -29.5l-49 -53q-11 -13 -28 -14t-30 10q-37 33 -77 52.5t-86 19.5
q-41 0 -77.5 -15.5t-63.5 -44.5t-43 -69.5t-16 -90.5t16 -90.5t43 -69.5t63.5 -45t77.5 -16q46 0 86 20t77 52q13 11 30 10.5t28 -13.5z" />
    <glyph glyph-name="D" unicode="D" horiz-adv-x="806" 
d="M361 725q87 0 159.5 -23t124.5 -69t81 -113.5t29 -156.5t-29 -157t-81 -113.5t-124.5 -69t-159.5 -23.5h-234q-17 0 -28.5 12t-11.5 29v643q0 17 11.5 29t28.5 12h234zM378 154q45 0 83 14.5t65.5 41.5t43 66t15.5 87q0 49 -15.5 87.5t-43 65.5t-65.5 41t-83 14h-122
v-417h122z" />
    <glyph glyph-name="E" unicode="E" horiz-adv-x="692" 
d="M595 725q17 0 28.5 -12t11.5 -29v-72q0 -17 -11.5 -29t-28.5 -12h-339v-123h295q17 0 29 -12t12 -29v-72q0 -17 -12 -29t-29 -12h-295v-140h339q17 0 28.5 -12t11.5 -29v-72q0 -17 -11.5 -29t-28.5 -12h-468q-17 0 -28.5 12t-11.5 29v643q0 17 11.5 29t28.5 12h468z" />
    <glyph glyph-name="F" unicode="F" horiz-adv-x="651" 
d="M595 725q17 0 28.5 -12t11.5 -29v-72q0 -17 -11.5 -29t-28.5 -12h-339v-123h295q17 0 29 -12t12 -29v-72q0 -17 -12 -29t-29 -12h-295v-253q0 -17 -12 -29t-29 -12h-88q-17 0 -28.5 12t-11.5 29v643q0 17 11.5 29t28.5 12h468z" />
    <glyph glyph-name="G" unicode="G" horiz-adv-x="780" 
d="M705 88q-63 -54 -133 -77t-142 -23q-84 0 -153.5 28.5t-119.5 78.5t-78 118.5t-28 148.5q0 83 26.5 152t75 118.5t116.5 77t152 27.5q85 0 150 -28t116 -84q12 -12 13.5 -28.5t-9.5 -28.5l-46 -51q-12 -13 -28.5 -13.5t-28.5 10.5q-37 32 -79 50.5t-88 18.5
q-41 0 -77.5 -15.5t-63.5 -44.5t-43 -69.5t-16 -90.5q0 -48 16 -89t44 -70t66 -45.5t82 -16.5q32 0 65.5 10t61.5 28v73h-148q-17 0 -29 12t-12 29v72q0 17 12 29t29 12h275q17 0 29 -12t12 -29v-230q0 -17 -4 -28t-15 -20z" />
    <glyph glyph-name="H" unicode="H" horiz-adv-x="805" 
d="M718 41q0 -17 -12 -29t-29 -12h-87q-17 0 -29 12t-12 29v254h-293v-254q0 -17 -12 -29t-29 -12h-88q-17 0 -28.5 12t-11.5 29v643q0 17 11.5 29t28.5 12h88q17 0 29 -12t12 -29v-235h293v235q0 17 12 29t29 12h87q17 0 29 -12t12 -29v-643z" />
    <glyph glyph-name="I" unicode="I" horiz-adv-x="343" 
d="M256 41q0 -17 -12 -29t-29 -12h-88q-17 0 -28.5 12t-11.5 29v643q0 17 11.5 29t28.5 12h88q17 0 29 -12t12 -29v-643z" />
    <glyph glyph-name="J" unicode="J" horiz-adv-x="523" 
d="M12 69q-11 13 -11.5 29.5t11.5 29.5l51 51q13 12 29.5 12t28.5 -11q17 -17 34 -27.5t40 -10.5q39 0 59 26.5t20 71.5v444q0 17 12 29t29 12h88q17 0 29 -12t12 -29v-449q0 -55 -18 -100.5t-50.5 -78t-78 -50.5t-100.5 -18q-35 0 -63 6.5t-50 18t-39.5 26t-32.5 30.5z" />
    <glyph glyph-name="K" unicode="K" horiz-adv-x="720" 
d="M494 684q16 17 36.5 29t37.5 12h113q12 0 20.5 -6t11.5 -15.5t0.5 -20.5t-11.5 -21l-300 -277l315 -322q10 -10 12.5 -21t-1 -20.5t-11.5 -15.5t-20 -6h-114q-17 0 -37.5 12t-36.5 29l-225 234l-28 -24v-210q0 -17 -12 -29t-29 -12h-88q-17 0 -28.5 12t-11.5 29v643
q0 17 11.5 29t28.5 12h88q17 0 29 -12t12 -29v-221l238 221v0z" />
    <glyph glyph-name="L" unicode="L" horiz-adv-x="625" 
d="M584 154q17 0 29 -12t12 -29v-72q0 -17 -12 -29t-29 -12h-457q-17 0 -28.5 12t-11.5 29v643q0 17 11.5 29t28.5 12h88q17 0 29 -12t12 -29v-530h328z" />
    <glyph glyph-name="M" unicode="M" horiz-adv-x="924" 
d="M850 42q0 -18 -11.5 -30t-28.5 -12h-87q-17 0 -29.5 12t-13.5 29l-7 228q-1 20 -0.5 41.5t1 40.5t1.5 35t2 25h-5l-135 -247q-10 -17 -28.5 -29t-35.5 -12h-22q-17 0 -36 12t-28 29l-135 247h-6q1 -9 2 -25t1.5 -35t1 -40.5t0.5 -41.5l-8 -228q-1 -17 -13 -29t-29 -12
h-88q-17 0 -28.5 12t-10.5 30l22 642q1 17 13.5 29t29.5 12h72q17 0 35.5 -12t27.5 -29l188 -325l187 325q10 17 28.5 29t35.5 12h72q17 0 29 -12t13 -29l23 -642v0z" />
    <glyph glyph-name="N" unicode="N" horiz-adv-x="797" 
d="M669 725q17 0 29 -12t12 -29v-643q0 -17 -12 -29t-29 -12h-88q-11 0 -22 5.5t-16 15.5q-1 2 -4 5.5t-12 15.5t-27 37t-49.5 68.5t-78.5 109.5t-115 162h-5q1 -14 2.5 -48.5t1.5 -77.5v-252q0 -17 -12 -29t-29 -12h-88q-17 0 -28.5 12t-11.5 29v643q0 17 11.5 29t28.5 12
h88q13 0 23.5 -7t15.5 -17l287 -395h5q-1 14 -3 47.5t-2 68.5v262q0 17 11.5 29t28.5 12h88v0z" />
    <glyph glyph-name="O" unicode="O" horiz-adv-x="837" 
d="M786 360q0 -83 -29.5 -151.5t-80 -117.5t-117 -76t-140.5 -27t-141 27t-117.5 76t-80 117.5t-29.5 151.5q0 76 26.5 144.5t74.5 120.5t116 82t151 30t150.5 -30t115.5 -82t74.5 -120.5t26.5 -144.5zM419 142q41 0 76.5 16.5t62 45.5t42 69t15.5 87q0 50 -15.5 91
t-42 70.5t-62 45.5t-76.5 16t-77 -16t-62.5 -45.5t-42 -70.5t-15.5 -91q0 -47 15.5 -87t42 -69t62.5 -45.5t77 -16.5z" />
    <glyph glyph-name="P" unicode="P" horiz-adv-x="709" 
d="M381 725q65 0 117.5 -17.5t90 -49.5t58 -77.5t20.5 -101.5t-20.5 -101t-58 -76.5t-90.5 -49t-117 -17.5h-125v-194q0 -17 -12 -29t-29 -12h-88q-17 0 -28.5 12t-11.5 29v643q0 17 11.5 29t28.5 12h254zM397 389q46 0 72.5 24t26.5 66t-26.5 67t-72.5 25h-140v-182h140z
" />
    <glyph glyph-name="Q" unicode="Q" horiz-adv-x="865" 
d="M786 360q0 -58 -14.5 -109t-40.5 -93l93 -105q17 -18 9 -35.5t-31 -17.5h-96q-33 0 -60 35l-16 18q-45 -32 -98.5 -48.5t-112.5 -16.5q-74 0 -141 27t-117.5 76t-80 117.5t-29.5 151.5q0 76 26.5 144.5t74.5 120.5t116 82t151 30t150.5 -30t115.5 -82t74.5 -120.5
t26.5 -144.5zM419 142q55 0 99 27l-125 148q-17 19 -9 36t31 17h96q31 0 60 -34l37 -49q11 35 11 73q0 50 -16 91t-43 70.5t-63.5 45.5t-77.5 16t-77 -16t-62.5 -45.5t-42 -70.5t-15.5 -91q0 -47 15.5 -87t42 -69t62.5 -45.5t77 -16.5z" />
    <glyph glyph-name="R" unicode="R" horiz-adv-x="753" 
d="M711 53q16 -19 8.5 -36t-31.5 -17h-113q-33 0 -60 35l-165 200h-94v-194q0 -17 -12 -29t-29 -12h-88q-17 0 -28.5 12t-11.5 29v643q0 17 11.5 29t28.5 12h254q65 0 117.5 -17.5t90 -49.5t58 -77.5t20.5 -101.5q0 -70 -36.5 -125.5t-96.5 -88.5zM397 389q45 0 72 24t27 66
t-27 67t-72 25h-141v-182h141z" />
    <glyph glyph-name="S" unicode="S" horiz-adv-x="675" 
d="M66 91q-12 11 -14.5 27.5t8.5 29.5l48 58q11 13 27.5 14.5t29.5 -9.5q22 -18 41 -31t39 -21.5t42 -12.5t49 -4q54 0 85.5 20.5t31.5 55.5q0 33 -38 51t-122 32q-114 20 -172 76t-58 141q0 49 22 89t59.5 69t87 45t103.5 16q72 0 136 -25t126 -76q13 -11 15 -27t-9 -30
l-48 -58q-11 -13 -27.5 -14.5t-29.5 9.5q-38 31 -78 49t-86 18q-47 0 -73 -17.5t-26 -46.5q0 -23 27 -39.5t87 -26.5q134 -24 204.5 -79.5t70.5 -151.5q0 -52 -21.5 -95t-60 -74t-91.5 -48t-117 -17q-89 0 -153 26.5t-115 76.5z" />
    <glyph glyph-name="T" unicode="T" horiz-adv-x="635" 
d="M590 725q17 0 28.5 -12t11.5 -29v-72q0 -17 -11.5 -29t-28.5 -12h-187v-530q0 -17 -12 -29t-29 -12h-88q-17 0 -28.5 12t-11.5 29v530h-188q-17 0 -29 12t-12 29v72q0 17 12 29t29 12h544z" />
    <glyph glyph-name="U" unicode="U" horiz-adv-x="811" 
d="M81 684q0 17 11.5 29t28.5 12h88q17 0 29 -12t12 -29v-357q0 -41 10.5 -75t30.5 -58.5t49 -38t66 -13.5q74 0 114.5 51.5t40.5 133.5v357q0 17 12 29t29 12h88q17 0 28.5 -11.5t11.5 -28.5v-368q0 -74 -24 -135t-66.5 -104t-102 -66.5t-131.5 -23.5q-73 0 -133 23.5
t-102.5 67t-66 104t-23.5 134.5v367v0z" />
    <glyph glyph-name="V" unicode="V" horiz-adv-x="736" 
d="M703 725q20 0 28.5 -14.5t1.5 -31.5l-279 -644q-12 -34 -46 -34h-80q-33 0 -45 34l-280 644q-6 17 2 31.5t29 14.5h101q31 0 46 -33l133 -310q11 -26 20.5 -53t17.5 -50q9 -26 16 -52q8 26 17 52q8 23 17.5 50t20.5 53l133 310q13 33 46 33h101v0z" />
    <glyph glyph-name="W" unicode="W" horiz-adv-x="981" 
d="M895 725q21 0 30 -12t5 -29l-106 -647q-8 -37 -45 -37h-91q-32 0 -45 34l-152 359l-152 -359q-15 -34 -46 -34h-91q-17 0 -29 10t-16 27l-106 647q-4 17 5 29t31 12h89q35 0 45 -37l47 -281q4 -25 6 -46.5t4 -38.5q2 -19 2 -36h9l126 313q13 33 46 33h59q32 0 46 -33
l127 -313h8q0 17 2 36q2 17 3.5 38.5t6.5 46.5l47 281q10 37 45 37h90v0z" />
    <glyph glyph-name="X" unicode="X" horiz-adv-x="765" 
d="M757 46q13 -17 3.5 -31.5t-30.5 -14.5h-106q-17 0 -35 7.5t-32 24.5l-175 210l-174 -210q-14 -17 -32 -24.5t-35 -7.5h-106q-11 0 -19 4t-12 10.5t-3.5 14.5t7.5 17l268 323l-257 309q-7 9 -7.5 17t3.5 15t12 11t19 4h106q17 0 35 -7.5t32 -24.5l163 -197l164 197
q14 17 32 24.5t35 7.5h106q21 0 30.5 -15t-3.5 -32l-258 -309l269 -323v0z" />
    <glyph glyph-name="Y" unicode="Y" horiz-adv-x="698" 
d="M669 725q10 0 18 -5t11.5 -13t3.5 -17.5t-6 -18.5l-263 -382v-248q0 -17 -11.5 -29t-28.5 -12h-88q-17 0 -29 12t-12 29v248l-262 382q-6 9 -6 18.5t3.5 17.5t11.5 13t19 5h94q17 0 34 -7.5t29 -24.5l162 -239l163 239q11 17 28 24.5t34 7.5h95v0z" />
    <glyph glyph-name="Z" unicode="Z" horiz-adv-x="698" 
d="M611 154q17 0 29 -12t12 -29v-72q0 -17 -12 -29t-29 -12h-524q-17 0 -29 12t-12 29v64q0 23 9 35l353 431h-313q-17 0 -29 12t-12 29v72q0 17 12 29t29 12h507q17 0 29 -12t12 -29v-64q0 -11 -2.5 -19.5t-11.5 -19.5l-353 -427h335v0z" />
    <glyph glyph-name="bracketleft" unicode="[" horiz-adv-x="395" 
d="M359 -160q0 -17 -12 -28.5t-29 -11.5h-201q-17 0 -29 11.5t-12 28.5v862q0 17 12 28.5t29 11.5h201q17 0 29 -11.5t12 -28.5v-53q0 -17 -12 -29t-29 -12h-82v-674h82q17 0 29 -12t12 -29v-53v0z" />
    <glyph glyph-name="backslash" unicode="\" horiz-adv-x="410" 
d="M7 694q-3 9 0 17.5t9 15t14.5 11t17.5 4.5h60q17 0 30.5 -10t19.5 -27l256 -739q3 -8 0 -16.5t-9 -15.5t-14.5 -11.5t-17.5 -4.5h-60q-17 0 -30.5 10t-19.5 27z" />
    <glyph glyph-name="bracketright" unicode="]" horiz-adv-x="395" 
d="M36 -107q0 17 11.5 29t28.5 12h83v674h-83q-17 0 -28.5 12t-11.5 29v53q0 17 11.5 28.5t28.5 11.5h201q17 0 29 -11.5t12 -28.5v-862q0 -17 -12 -28.5t-29 -11.5h-201q-17 0 -28.5 11.5t-11.5 28.5v53z" />
    <glyph glyph-name="asciicircum" unicode="^" horiz-adv-x="653" 
d="M602 339q8 -17 -1 -31t-26 -14h-88q-34 0 -55 35l-103 187l-103 -187q-19 -35 -54 -35h-88q-17 0 -26 14t-1 31l195 338q8 17 22.5 26.5t31.5 9.5h47q17 0 31.5 -9.5t22.5 -26.5l195 -338v0z" />
    <glyph glyph-name="underscore" unicode="_" horiz-adv-x="559" 
d="M584 -152h-610v80h610v-80z" />
    <glyph glyph-name="grave" unicode="`" horiz-adv-x="531" 
d="M138 738q-6 9 -7 17.5t2.5 15t10.5 11t15 4.5h84q17 0 30.5 -9.5t20.5 -26.5l47 -114q7 -17 -1.5 -29t-25.5 -12h-40q-33 0 -57 31z" />
    <glyph glyph-name="a" unicode="a" horiz-adv-x="586" 
d="M351 236h-8q-62 0 -102.5 -13.5t-40.5 -50.5q0 -26 16 -41t42 -15q15 0 31.5 6.5t30 18.5t22.5 28t9 34v33zM345 371q0 17 -18.5 29t-51.5 12q-32 0 -69 -7t-60 -15q-17 -7 -31.5 -1t-21.5 22l-14 36q-7 15 0 30t21 23q37 19 82 31.5t109 12.5q40 0 79.5 -11.5
t70.5 -37.5t50 -67.5t19 -101.5v-285q0 -17 -12 -29t-29 -12h-74q-17 0 -29 12t-12 29v6h-7q-19 -29 -55.5 -44t-69.5 -15t-65.5 11.5t-58 34t-41.5 55t-16 73.5q0 58 25.5 93t67 54t95 25t110.5 6h6v31z" />
    <glyph glyph-name="b" unicode="b" horiz-adv-x="631" 
d="M330 131q45 0 70.5 35.5t25.5 99.5q0 62 -25 98t-67 36q-37 0 -65.5 -39.5t-28.5 -111.5v-90q14 -11 36 -19.5t54 -8.5zM591 269q0 -64 -18 -116t-49.5 -88.5t-74.5 -56.5t-93 -20q-47 0 -85 18t-58 41v-6q0 -17 -12 -29t-29 -12h-55q-17 0 -29 12t-12 29v660q0 17 12 29
t29 12h82q17 0 29 -12t12 -29v-139q0 -20 -1 -41.5t-2 -33.5h7q24 29 55.5 43t66.5 14q46 0 86.5 -18t71.5 -53t49 -86t18 -118z" />
    <glyph glyph-name="c" unicode="c" horiz-adv-x="546" 
d="M514 130q11 -14 10.5 -30.5t-12.5 -27.5q-45 -41 -93.5 -62.5t-113.5 -21.5q-60 0 -108.5 18.5t-83 54t-53.5 87t-19 118.5t19 119t53.5 87t83 53.5t108.5 18.5q65 0 113.5 -22t93.5 -63q12 -11 12.5 -28t-10.5 -30l-44 -48q-11 -12 -27.5 -13t-29.5 10q-26 23 -51 36.5
t-57 13.5q-45 0 -73 -34.5t-28 -99.5q0 -64 28 -99t73 -35q32 0 57 13t51 36q13 12 29.5 11t27.5 -14z" />
    <glyph glyph-name="d" unicode="d" horiz-adv-x="631" 
d="M301 401q-44 0 -70 -35.5t-26 -100.5q0 -61 25.5 -97t67.5 -36q37 0 65.5 39.5t28.5 111.5v87q-15 12 -36.5 21.5t-54.5 9.5zM41 262q0 64 18.5 116t50.5 89t75 57t93 20q47 0 72 -8t42 -17v182q0 17 11.5 29t28.5 12h82q17 0 29 -12t12 -29v-660q0 -17 -12 -29t-29 -12
h-78q-17 0 -29 12t-12 29v6h-7q-25 -30 -56.5 -44.5t-66.5 -14.5q-45 0 -86 18t-71.5 52.5t-48.5 86t-18 117.5z" />
    <glyph glyph-name="e" unicode="e" horiz-adv-x="597" 
d="M304 415q-32 0 -60.5 -23.5t-34.5 -65.5h181q0 21 -8 37.5t-20.5 28t-27.5 17.5t-30 6zM204 220q1 -20 11.5 -38t26 -31.5t34.5 -22t37 -8.5q16 0 35.5 3t38.5 7.5t36.5 10.5t31.5 13q14 8 30.5 2t23.5 -21l16 -41q7 -16 1 -31t-20 -23q-38 -23 -85.5 -37.5t-106.5 -14.5
q-63 0 -113.5 18.5t-86 53.5t-54.5 86t-19 117t19 118t54 88t84 55.5t108 19.5q53 0 98 -17t78 -51.5t51.5 -88t18.5 -126.5q0 -17 -12 -29t-29 -12h-307z" />
    <glyph glyph-name="f" unicode="f" horiz-adv-x="392" 
d="M419 728q16 -8 24 -21.5t3 -29.5l-17 -51q-5 -17 -19.5 -25t-31.5 -2q-11 5 -34 9t-48 4q-21 0 -31.5 -10.5t-10.5 -35.5v-34h106q17 0 29 -11.5t12 -28.5v-51q0 -17 -12 -29t-29 -12h-106v-359q0 -17 -12 -29t-29 -12h-81q-17 0 -29 12t-12 29v359h-35q-17 0 -29 12
t-12 29v51q0 17 12 28.5t29 11.5h35v23q0 90 52.5 143.5t154.5 53.5q42 0 73 -8t48 -16z" />
    <glyph glyph-name="g" unicode="g" horiz-adv-x="631" 
d="M301 401q-44 0 -70 -31t-26 -93q0 -58 25.5 -88t67.5 -30q37 0 65.5 34t28.5 106v72q-15 11 -36.5 20.5t-54.5 9.5zM158 -50q23 -7 54 -12.5t81 -5.5q18 0 35.5 6.5t31.5 17t23 24.5t9 29q0 20 1 35.5t2 27.5h-7q-25 -29 -56.5 -43.5t-66.5 -14.5q-45 0 -86 17t-71.5 50
t-48.5 81.5t-18 111.5q0 61 18 111t49.5 85.5t74 54.5t92.5 19q48 0 85.5 -18t57.5 -40v6q0 17 12 28.5t29 11.5h54q17 0 29.5 -11.5t12.5 -28.5v-458q0 -54 -17.5 -99t-51.5 -77t-85 -50t-117 -18q-47 0 -92.5 8.5t-74.5 21.5q-15 8 -23 21.5t-3 29.5l16 52q5 17 20 24.5
t31 2.5z" />
    <glyph glyph-name="h" unicode="h" horiz-adv-x="615" 
d="M360 544q91 0 136 -57t45 -160v-286q0 -17 -12 -29t-29 -12h-82q-17 0 -29 12t-12 29v273q0 41 -13 62.5t-43 21.5q-35 0 -58 -21t-23 -50v-286q0 -17 -12 -29t-29 -12h-82q-17 0 -29 12t-12 29v660q0 17 12 29t29 12h82q17 0 29 -12t12 -29v-140q0 -20 -1 -41.5
t-2 -34.5h7q24 30 55.5 44.5t60.5 14.5z" />
    <glyph glyph-name="i" unicode="i" horiz-adv-x="316" 
d="M240 41q0 -17 -12 -29t-29 -12h-82q-17 0 -29 12t-12 29v451q0 17 12 28.5t29 11.5h82q17 0 29 -11.5t12 -28.5v-451zM245 670q0 -34 -25.5 -57.5t-61.5 -23.5q-18 0 -33.5 6.5t-27.5 17.5t-19 25.5t-7 31.5t7 32t19 26t27.5 17.5t33.5 6.5q36 0 61.5 -24t25.5 -58z" />
    <glyph glyph-name="j" unicode="j" horiz-adv-x="316" 
d="M-89 -186q-15 7 -23 21t-3 30l16 51q5 17 20 24.5t31 2.5q11 -3 34 -6.5t49 -3.5q20 0 31 10.5t11 34.5v514q0 17 11.5 28.5t28.5 11.5h82q17 0 29 -11.5t12 -28.5v-505q0 -91 -52.5 -144t-154.5 -53q-42 0 -73 8t-49 16zM246 670q0 -34 -25.5 -57.5t-61.5 -23.5
q-18 0 -33.5 6.5t-27.5 17.5t-19 25.5t-7 31.5t7 32t19 26t27.5 17.5t33.5 6.5q36 0 61.5 -24t25.5 -58z" />
    <glyph glyph-name="k" unicode="k" horiz-adv-x="565" 
d="M552 51q12 -17 4.5 -34t-27.5 -17h-105q-19 0 -34 10.5t-27 27.5l-116 165l-7 -6v-156q0 -17 -12 -29t-29 -12h-82q-17 0 -29 12t-12 29v660q0 17 12 29t29 12h82q17 0 29 -12t12 -29v-266q0 -7 -0.5 -17t-1.5 -20t-2 -19.5t-1 -15.5h4q5 8 14.5 20.5t17.5 20.5l73 88
q14 17 30.5 28.5t35.5 11.5h105q20 0 28 -17t-5 -34l-177 -182l191 -248v0z" />
    <glyph glyph-name="l" unicode="l" horiz-adv-x="316" 
d="M240 41q0 -17 -12 -29t-29 -12h-82q-17 0 -29 12t-12 29v660q0 17 12 29t29 12h82q17 0 29 -12t12 -29v-660v0z" />
    <glyph glyph-name="m" unicode="m" horiz-adv-x="899" 
d="M356 544q39 0 72 -16t55 -48q31 32 64.5 48t75.5 16q94 0 146.5 -53t52.5 -149v-301q0 -17 -12 -29t-29 -12h-81q-17 0 -29 12t-12 29v277q0 39 -12 60t-40 21q-34 0 -55 -21.5t-21 -50.5v-286q0 -17 -11 -29t-28 -12h-83q-17 0 -29 12t-12 29v278q0 80 -52 80
q-35 0 -55.5 -22.5t-20.5 -51.5v-284q0 -17 -12 -29t-29 -12h-82q-17 0 -29 12t-12 29v451q0 17 12 28.5t29 11.5h79q17 0 29 -11.5t12 -28.5v-8h7q24 30 53 45t59 15z" />
    <glyph glyph-name="n" unicode="n" horiz-adv-x="617" 
d="M363 544q91 0 134.5 -56t43.5 -159v-288q0 -17 -12 -29t-29 -12h-82q-17 0 -29 12t-12 29v275q0 41 -13 62t-43 21q-35 0 -58 -21.5t-23 -50.5v-286q0 -17 -12 -29t-29 -12h-82q-17 0 -29 12t-12 29v451q0 17 12 28.5t29 11.5h79q17 0 29 -11.5t12 -28.5v-8h7
q24 30 57 45t62 15z" />
    <glyph glyph-name="o" unicode="o" horiz-adv-x="623" 
d="M311 129q47 0 77 37.5t30 99.5t-30 99.5t-77 37.5q-46 0 -76 -37.5t-30 -100.5q0 -61 30 -98.5t76 -37.5zM311 544q58 0 107.5 -21t86 -58t57 -87.5t20.5 -110.5q0 -62 -20.5 -113t-57 -88t-86 -57.5t-107.5 -20.5t-107.5 20t-85.5 57t-56.5 87.5t-20.5 112.5
q0 60 20.5 111.5t56.5 88.5t85.5 58t107.5 21z" />
    <glyph glyph-name="p" unicode="p" horiz-adv-x="631" 
d="M330 131q45 0 70.5 35.5t25.5 99.5q0 62 -25 98t-67 36q-37 0 -65.5 -39.5t-28.5 -111.5v-87q14 -11 36 -21t54 -10zM591 269q0 -64 -18.5 -116t-50.5 -88.5t-75.5 -56.5t-93.5 -20q-46 0 -71.5 8t-41.5 17v-172q0 -17 -12 -29t-29 -12h-82q-17 0 -29 12t-12 29v651
q0 17 12 28.5t29 11.5h79q17 0 29 -11.5t12 -28.5v-8h7q24 30 55.5 45t66.5 15q46 0 86.5 -18t71.5 -53t49 -86t18 -118z" />
    <glyph glyph-name="q" unicode="q" horiz-adv-x="631" 
d="M301 401q-44 0 -70 -35t-26 -100q0 -61 25.5 -97.5t67.5 -36.5q18 0 35 10t30 29.5t21 48t8 64.5v87q-15 11 -36.5 20.5t-54.5 9.5zM41 263q0 64 18 116t49.5 89t74 56.5t92.5 19.5q48 0 85.5 -18t57.5 -40v6q0 17 12 28.5t29 11.5h55q17 0 29 -11.5t12 -28.5v-651
q0 -17 -12 -29t-29 -12h-82q-17 0 -28.5 12t-11.5 29v129q0 20 1 42t2 34h-7q-25 -30 -56.5 -44t-66.5 -14q-45 0 -86 18t-71.5 53t-48.5 86.5t-18 117.5z" />
    <glyph glyph-name="r" unicode="r" horiz-adv-x="458" 
d="M386 380q-7 4 -18 10t-35 6q-37 0 -65 -39.5t-28 -111.5v-204q0 -17 -12 -29t-29 -12h-82q-17 0 -29 12t-12 29v451q0 17 12 28.5t29 11.5h79q17 0 29 -11.5t12 -28.5v-8h7q48 60 107 60q29 0 44.5 -6.5t26.5 -11.5q15 -7 24 -19.5t5 -29.5l-16 -67q-5 -16 -20 -27
t-29 -3z" />
    <glyph glyph-name="s" unicode="s" horiz-adv-x="510" 
d="M246 123q26 0 43.5 10t17.5 27t-21 26.5t-61 18.5q-30 7 -61 18.5t-55.5 31t-40.5 47.5t-16 68q0 36 15 67.5t42 55.5t65.5 37.5t85.5 13.5q56 0 96.5 -12t73.5 -26q16 -6 22.5 -21.5t0.5 -30.5l-18 -43q-8 -16 -22.5 -22.5t-31.5 0.5q-20 8 -53.5 14.5t-63.5 6.5
q-22 0 -36 -9.5t-14 -23.5q0 -16 19.5 -24.5t54.5 -16.5q34 -9 67 -20t58 -30t40.5 -48t15.5 -72q0 -38 -17 -70.5t-47 -56.5t-71.5 -37.5t-90.5 -13.5q-56 0 -100.5 14.5t-77.5 30.5q-15 7 -21 21.5t1 30.5l22 47q7 15 23 20.5t31 -0.5q21 -9 54 -19t71 -10z" />
    <glyph glyph-name="t" unicode="t" horiz-adv-x="422" 
d="M411 64q5 -16 -3 -29.5t-23 -21.5q-16 -7 -45.5 -16t-64.5 -9q-95 0 -142.5 49t-47.5 135v228h-34q-17 0 -29 12t-12 29v51q0 17 12 28.5t29 11.5h34v87q0 17 11.5 29t28.5 12h82q17 0 29 -12t12 -29v-87h109q17 0 29 -11.5t12 -28.5v-51q0 -17 -12 -29t-29 -12h-109
v-225q0 -43 31 -43q23 0 40 4.5t23 6.5q16 5 31 -2.5t20 -24.5l18 -52v0z" />
    <glyph glyph-name="u" unicode="u" horiz-adv-x="617" 
d="M254 -12q-91 0 -134.5 56t-43.5 159v289q0 17 12 28.5t29 11.5h82q17 0 29 -11.5t12 -28.5v-276q0 -41 13 -62t43 -21q35 0 58 21.5t23 50.5v287q0 17 12 28.5t29 11.5h82q17 0 29 -11.5t12 -28.5v-451q0 -17 -12 -29t-29 -12h-79q-17 0 -29 12t-12 29v7h-7
q-24 -30 -57 -45t-62 -15z" />
    <glyph glyph-name="v" unicode="v" horiz-adv-x="557" 
d="M240 0q-34 0 -46 34l-171 453q-6 17 2.5 31t28.5 14h82q31 0 46 -33l65 -170q12 -35 20 -60q4 -14 7 -26h9q3 12 7 26q6 25 20 60l65 170q13 33 46 33h82q20 0 28.5 -14t1.5 -31l-170 -453q-12 -34 -46 -34h-77z" />
    <glyph glyph-name="w" unicode="w" horiz-adv-x="852" 
d="M783 532q22 0 31 -11.5t5 -28.5l-114 -455q-4 -17 -16 -27t-29 -10h-99q-34 0 -46 34l-45 129q-7 20 -14.5 45t-13.5 48q-7 26 -14 54h-6q-7 -28 -14 -54q-6 -23 -13.5 -48t-14.5 -45l-44 -129q-13 -34 -46 -34h-98q-37 0 -45 37l-114 455q-4 17 5 28.5t30 11.5h82
q17 0 29 -9.5t16 -26.5l26 -112q4 -17 9 -47l10 -60q5 -35 11 -75h8q7 35 14 66q6 26 12 53t11 43l38 117q11 34 45 34h92q36 0 46 -34l38 -117q5 -16 11 -43t12 -53q7 -31 15 -66h8q6 40 11 75q5 30 9.5 60t8.5 47l27 112q4 17 16 26.5t29 9.5h81v0z" />
    <glyph glyph-name="x" unicode="x" horiz-adv-x="581" 
d="M287 159l-10 -18q-5 -8 -9.5 -17t-9.5 -17l-53 -75q-12 -17 -25.5 -24.5t-30.5 -7.5h-98q-8 0 -15 4t-11 11t-3.5 15t6.5 17l166 225l-157 214q-13 17 -3.5 31.5t26.5 14.5h98q33 0 56 -31l38 -55q5 -8 11 -17.5t11 -19.5q6 -11 13 -23h9q6 12 12 23q5 10 10.5 19.5
t10.5 17.5l38 55q14 17 26.5 24t29.5 7h98q9 0 16 -4t11 -10.5t3.5 -15t-6.5 -16.5l-157 -214l166 -225q6 -9 6.5 -17t-3.5 -15t-11 -11t-16 -4h-98q-17 0 -30 7t-26 25l-53 75q-5 8 -9.5 17l-8.5 17l-9 18h-9z" />
    <glyph glyph-name="y" unicode="y" horiz-adv-x="557" 
d="M286 -170q-15 -34 -46 -34h-82q-20 0 -29 14.5t-2 31.5l70 185l-174 460q-6 17 2.5 31t28.5 14h82q32 0 46 -33l65 -171q7 -17 11.5 -32t8.5 -27q4 -14 7 -26h9q3 12 7 26q3 12 8 27t12 32l65 171q15 33 46 33h82q20 0 29 -14t1 -31z" />
    <glyph glyph-name="z" unicode="z" horiz-adv-x="528" 
d="M457 139q17 0 29 -12t12 -29v-57q0 -17 -12 -29t-29 -12h-386q-17 0 -28.5 12t-11.5 29v49q0 13 2 20t7 14l228 270h-188q-17 0 -29 12t-12 29v57q0 17 12 28.5t29 11.5h369q17 0 29 -11.5t12 -28.5v-49q0 -12 -3 -20.5t-11 -18.5l-227 -265h208v0z" />
    <glyph glyph-name="braceleft" unicode="{" horiz-adv-x="441" 
d="M192 266q39 -21 64.5 -71t25.5 -110v-89q0 -35 10 -49.5t38 -14.5h34q17 0 29 -12t12 -28v-52q0 -17 -12 -28.5t-29 -11.5h-45q-98 0 -147 46t-49 143v90q0 26 -7.5 48t-20 37.5t-28 24.5t-31.5 9q-17 0 -29 11.5t-12 28.5v69q0 17 12 28.5t29 11.5q16 0 31.5 8.5
t28 24.5t20 37.5t7.5 48.5v87q0 97 49 143t147 46h45q17 0 29 -11.5t12 -28.5v-52q0 -16 -12 -28t-29 -12h-34q-28 0 -38 -14.5t-10 -49.5v-86q0 -60 -25.5 -110t-64.5 -71v-13v0z" />
    <glyph glyph-name="bar" unicode="|" horiz-adv-x="341" 
d="M248 -159q0 -17 -12 -29t-29 -12h-73q-17 0 -29 12t-12 29v860q0 17 12 29t29 12h73q17 0 29 -12t12 -29v-860v0z" />
    <glyph glyph-name="braceright" unicode="}" horiz-adv-x="441" 
d="M248 279q-39 21 -64.5 71t-25.5 110v86q0 35 -10 49.5t-38 14.5h-34q-17 0 -29 12t-12 28v52q0 17 12 28.5t29 11.5h45q98 0 147 -46t49 -143v-87q0 -27 7.5 -48.5t20 -37.5t28 -24.5t31.5 -8.5q17 0 29 -11.5t12 -28.5v-69q0 -17 -12 -28.5t-29 -11.5q-16 0 -31.5 -9
t-28 -24.5t-20 -37.5t-7.5 -48v-90q0 -97 -49 -143t-147 -46h-45q-17 0 -29 11.5t-12 28.5v52q0 16 12 28t29 12h34q28 0 38 14.5t10 49.5v89q0 60 25.5 110t64.5 71v13z" />
    <glyph glyph-name="asciitilde" unicode="~" horiz-adv-x="693" 
d="M305 271q-22 14 -40.5 26.5t-29.5 12.5q-13 0 -25 -17t-12 -47q0 -17 -12 -29t-29 -12h-72q-17 0 -29 12t-12 29q0 51 17 90.5t45 66.5t63 41t70 14q43 0 82 -21.5t74 -46.5q20 -14 39.5 -26t30.5 -12q12 0 24.5 17t12.5 47q0 17 12 29t29 12h72q17 0 29 -12t12 -29
q0 -51 -17.5 -90.5t-45 -66.5t-62.5 -41t-70 -14q-21 0 -41.5 6t-40 16t-38 22t-36.5 23z" />
    <glyph glyph-name="exclamdown" unicode="&#xa1;" horiz-adv-x="356" 
d="M100 289q0 17 12 28.5t29 11.5h53q17 0 28.5 -11.5t12.5 -28.5l14 -283v-165q0 -17 -12 -29t-29 -12h-82q-17 0 -28.5 12t-11.5 29v164zM259 453q0 -19 -7 -36t-19.5 -29.5t-29 -19.5t-35.5 -7t-36 7t-29.5 19.5t-19.5 29.5t-7 36t7 35.5t19.5 29t29.5 19.5t36 7
q38 0 64.5 -26.5t26.5 -64.5z" />
    <glyph glyph-name="cent" unicode="&#xa2;" horiz-adv-x="540" 
d="M374 41q0 -17 -11.5 -29t-28.5 -12h-70q-17 0 -29 12t-12 29v51q-86 21 -135.5 89t-49.5 180q0 111 49.5 179.5t135.5 89.5v54q0 17 12 29t29 12h70q17 0 28.5 -12t11.5 -29v-53q38 -10 70.5 -28.5t64.5 -47.5q12 -11 12.5 -28t-10.5 -30l-44 -48q-11 -13 -27.5 -14
t-29.5 11q-26 23 -51 36.5t-57 13.5q-45 0 -73 -35t-28 -100t28 -100t73 -35q32 0 57 13.5t51 35.5q13 13 29.5 12t27.5 -14l44 -49q11 -13 10.5 -29.5t-12.5 -27.5q-32 -28 -64.5 -47.5t-70.5 -28.5v-50v0z" />
    <glyph glyph-name="sterling" unicode="&#xa3;" horiz-adv-x="612" 
d="M554 5q-6 -2 -22 -3.5t-35.5 -3.5t-39.5 -3t-33 -1q-44 0 -87.5 10t-90.5 10q-15 0 -34 -2t-39 -4.5t-39 -6t-34 -6.5q-17 -3 -30.5 6.5t-17.5 26.5l-15 69q-4 17 5.5 31t26.5 17q16 3 28 15t20.5 30.5t13 41.5t4.5 47v5h-45q-17 0 -29 11.5t-12 28.5v58q0 17 12 29
t29 12h28q-5 31 -5.5 47t-0.5 36q0 49 18 91t50.5 73t77 49t97.5 18q62 0 105 -16.5t82 -45.5q14 -10 16 -26.5t-8 -30.5l-38 -53q-10 -13 -26.5 -15.5t-30.5 7.5q-22 16 -48.5 26t-49.5 10q-34 0 -53.5 -24t-19.5 -61q0 -17 1.5 -38t5.5 -47h127q17 0 29 -12t12 -29v-58
q0 -17 -12 -28.5t-29 -11.5h-113v-7q0 -29 -7 -57t-26 -60q17 -2 35 -4.5t37 -4.5q23 -2 46 -4.5t43 -2.5q18 0 44.5 3.5t45.5 7.5q17 4 31 -5.5t17 -26.5l14 -70q5 -16 -5 -29.5t-26 -18.5z" />
    <glyph glyph-name="currency" unicode="&#xa4;" 
d="M551 198q12 -12 12 -29t-12 -29l-44 -44q-12 -11 -29 -11t-29 11l-21 19q-25 -13 -53 -20t-59 -7q-60 0 -114 28l-18 -18q-13 -12 -29.5 -12t-29.5 12l-43 44q-12 11 -12 28.5t12 28.5l19 19q-13 26 -20.5 54.5t-7.5 57.5q0 31 7.5 59.5t20.5 54.5l-19 20
q-13 11 -13 28.5t13 28.5l43 44q12 12 29 12t29 -12l19 -19q26 13 54.5 20.5t59.5 7.5q62 0 113 -28l20 20q12 12 29 12t29 -12l44 -44q12 -12 12 -29t-12 -29l-20 -20q28 -53 28 -114t-29 -113zM216 330q0 -42 29 -70.5t71 -28.5t71 28.5t29 70.5q0 21 -8 39.5t-21.5 32
t-31.5 21.5t-39 8t-39 -8t-31.5 -21.5t-21.5 -32t-8 -39.5z" />
    <glyph glyph-name="yen" unicode="&#xa5;" horiz-adv-x="677" 
d="M613 389q0 -17 -12 -29t-29 -12h-109l-32 -47h140q17 0 29 -12t12 -29v-36q0 -17 -12 -28.5t-29 -11.5h-148v-143q0 -17 -12 -29t-29 -12h-87q-17 0 -29 12t-12 29v143h-152q-17 0 -29 11.5t-12 28.5v36q0 17 12 29t29 12h144l-33 47h-111q-17 0 -29 12t-12 29v35
q0 17 12 29t29 12h31l-141 206q-6 9 -6 18.5t3.5 17.5t11 13t18.5 5h95q17 0 34 -7.5t28 -24.5l163 -239l163 239q11 17 28 24.5t34 7.5h95q10 0 17.5 -5t11.5 -13t3.5 -17.5t-6.5 -18.5l-141 -206h28q17 0 29 -12t12 -29v-35v0z" />
    <glyph glyph-name="brokenbar" unicode="&#xa6;" horiz-adv-x="341" 
d="M248 348q0 -17 -12 -29t-29 -12h-73q-17 0 -29 12t-12 29v353q0 17 12 29t29 12h73q17 0 29 -12t12 -29v-353zM248 -159q0 -17 -12 -29t-29 -12h-73q-17 0 -29 12t-12 29v353q0 17 12 29t29 12h73q17 0 29 -12t12 -29v-353z" />
    <glyph glyph-name="section" unicode="&#xa7;" horiz-adv-x="603" 
d="M264 350q-17 -11 -35 -25.5t-18 -28.5q0 -15 10 -27.5t27 -24.5t40 -24.5t50 -25.5q24 14 39 27t15 26q0 28 -37 52t-91 51zM295 -210q-58 0 -111.5 22t-102.5 60q-14 11 -14 29t13 32l44 54q13 13 32 12.5t33 -12.5q9 -10 23 -18t29 -13.5t29.5 -8.5t25.5 -3
q29 0 47.5 10t18.5 26q-2 23 -32 41.5t-93 48.5q-88 44 -137 92.5t-49 111.5q0 42 18 77.5t63 68.5q-30 26 -48 57.5t-18 77.5q0 41 15 77t44.5 62.5t74.5 42t105 15.5q62 0 119.5 -21.5t97.5 -59.5q14 -12 14 -30.5t-13 -31.5l-47 -47q-12 -14 -30.5 -13t-32.5 12
q-21 17 -51.5 28t-56.5 11q-30 0 -46.5 -8t-16.5 -26q0 -11 7 -21t22 -21t38.5 -23.5t57.5 -28.5q92 -45 138.5 -93t46.5 -112q0 -41 -18.5 -75.5t-62.5 -66.5q30 -27 48.5 -59t18.5 -77q0 -42 -15 -78t-45.5 -63t-76 -42.5t-106.5 -15.5z" />
    <glyph glyph-name="dieresis" unicode="&#xa8;" horiz-adv-x="545" 
d="M87 705q0 35 23.5 58.5t57.5 23.5q35 0 59 -23.5t24 -58.5q0 -34 -24 -58t-59 -24q-34 0 -57.5 24t-23.5 58zM298 705q0 35 24 58.5t57 23.5q35 0 59 -23.5t24 -58.5q0 -34 -24 -58t-59 -24q-33 0 -57 24t-24 58z" />
    <glyph glyph-name="copyright" unicode="&#xa9;" horiz-adv-x="838" 
d="M590 235q8 -13 7.5 -29.5t-14.5 -30.5q-32 -28 -73.5 -43.5t-86.5 -15.5q-53 0 -95.5 17.5t-73.5 49t-47.5 75.5t-16.5 97t16.5 97t47.5 75.5t73.5 49t95.5 17.5q44 0 85.5 -16t73.5 -45q14 -11 14.5 -29t-8.5 -30l-20 -23q-10 -10 -28 -9.5t-29 11.5q-16 15 -40 24.5
t-48 9.5q-25 0 -47.5 -9.5t-39 -26.5t-26 -41.5t-9.5 -54.5t9.5 -54.5t26 -41.5t39 -26.5t47.5 -9.5q23 0 47.5 9.5t40.5 22.5q11 11 30 10.5t30 -11.5zM419 748q82 0 153.5 -31t125 -84.5t84.5 -125t31 -153.5q0 -81 -31 -153t-84.5 -125.5t-125 -84.5t-153.5 -31
q-81 0 -153 31t-125.5 84.5t-84.5 125.5t-31 153q0 82 31 153.5t84.5 125t125.5 84.5t153 31zM419 62q60 0 113.5 23t93 63t62.5 93t23 113t-23 113t-62.5 93t-93 63t-113.5 23t-113 -23t-93 -63t-63 -93t-23 -113t23 -113t63 -93t93 -63t113 -23z" />
    <glyph glyph-name="ordfeminine" unicode="&#xaa;" horiz-adv-x="569" 
d="M316 500q-57 0 -88 -12t-31 -38q0 -17 12 -27t38 -10q12 0 26 6t25.5 16t19.5 23.5t8 29.5v12h-10zM326 603q0 15 -19 29.5t-46 14.5q-30 0 -52 -6.5t-34 -12.5q-13 -4 -25.5 1t-19.5 17q-4 5 -6.5 10.5t-8.5 21.5q-3 12 4 25.5t19 18.5q22 12 54 20.5t81 8.5
q30 0 59.5 -9.5t53 -30.5t37.5 -54t14 -80v-215q0 -16 -11.5 -28.5t-30.5 -12.5h-37q-25 0 -25 26v11q-13 -15 -35 -30.5t-60 -15.5q-33 0 -61.5 10t-49 28t-32 43t-11.5 55q0 47 20 75.5t53 44t75.5 20.5t87.5 5h6v10z" />
    <glyph glyph-name="guillemotleft" unicode="&#xab;" horiz-adv-x="659" 
d="M198 290l138 -138q11 -11 11 -28.5t-11 -28.5l-40 -40q-13 -12 -29.5 -12t-28.5 12l-210 210q-13 13 -13 29.5t13 28.5l209 209q12 13 28.5 13t29.5 -13l51 -51q11 -12 7.5 -25t-14.5 -26zM493 290l137 -138q12 -11 12 -28.5t-12 -28.5l-39 -40q-13 -12 -29.5 -12
t-29.5 12l-210 210q-12 13 -12 29.5t12 28.5l209 209q13 13 29.5 13t29.5 -13l51 -51q11 -12 7.5 -25t-15.5 -26z" />
    <glyph glyph-name="logicalnot" unicode="&#xac;" 
d="M78 314q-17 0 -29 7t-12 24v72q0 17 12 29t29 12h476q17 0 29 -12t12 -29v-273q0 -17 -12 -29t-29 -12h-75q-17 0 -28.5 12t-11.5 29v170h-361z" />
    <glyph glyph-name="uni00AD" unicode="&#xad;" horiz-adv-x="401" 
d="M371 262q0 -17 -12 -29t-29 -12h-256q-17 0 -28.5 12t-11.5 29v56q0 17 11.5 29t28.5 12h256q17 0 29 -12t12 -29v-56v0z" />
    <glyph glyph-name="registered" unicode="&#xae;" horiz-adv-x="838" 
d="M600 207q7 -9 8 -23.5t-3.5 -28t-15 -23.5t-25.5 -10h-21q-12 0 -25.5 7t-21.5 17l-88 124h-57v-105q0 -16 -12 -29.5t-32 -13.5h-22q-20 0 -32 13.5t-12 29.5v381q0 15 12 29t32 14h142q40 0 73.5 -11.5t57.5 -32.5t37 -51t13 -66q0 -44 -22 -79t-57 -56zM437 377
q27 0 43 14t16 37q0 25 -16 38.5t-43 13.5h-86v-103h86zM419 748q82 0 153.5 -31t125 -84.5t84.5 -125t31 -153.5q0 -81 -31 -153t-84.5 -125.5t-125 -84.5t-153.5 -31q-81 0 -153 31t-125.5 84.5t-84.5 125.5t-31 153q0 82 31 153.5t84.5 125t125.5 84.5t153 31zM419 62
q60 0 113.5 23t93 63t62.5 93t23 113t-23 113t-62.5 93t-93 63t-113.5 23t-113 -23t-93 -63t-63 -93t-23 -113t23 -113t63 -93t93 -63t113 -23z" />
    <glyph glyph-name="macron" unicode="&#xaf;" horiz-adv-x="507" 
d="M448 658q0 -17 -12 -29t-29 -12h-302q-17 0 -29 12t-12 29v45q0 17 12 29t29 12h302q17 0 29 -12t12 -29v-45v0z" />
    <glyph glyph-name="degree" unicode="&#xb0;" horiz-adv-x="458" 
d="M56 567q0 35 13.5 66t36.5 54t54 36.5t66 13.5t66 -13.5t54.5 -36.5t37 -54t13.5 -66t-13.5 -66t-37 -54t-54.5 -36t-66 -13t-66 13t-54 36t-36.5 54t-13.5 66zM168 567q0 -24 17.5 -40.5t40.5 -16.5q25 0 42 16.5t17 40.5q0 25 -17 41.5t-42 16.5q-23 0 -40.5 -16.5
t-17.5 -41.5z" />
    <glyph glyph-name="plusminus" unicode="&#xb1;" horiz-adv-x="601" 
d="M575 41q0 -17 -12 -29t-29 -12h-469q-17 0 -29 12t-12 29v62q0 17 12 29t29 12h469q17 0 29 -12t12 -29v-62zM575 418q0 -17 -12 -29t-29 -12h-162v-162q0 -17 -12 -29t-29 -12h-62q-17 0 -29 12t-12 29v162h-163q-17 0 -29 12t-12 29v62q0 17 12 29t29 12h163v163
q0 17 12 29t29 12h62q17 0 29 -12t12 -29v-163h162q17 0 29 -12t12 -29v-62z" />
    <glyph glyph-name="uni00B2" unicode="&#xb2;" horiz-adv-x="283" 
d="M6 657q8 13 20 27t29 26t38.5 19.5t48.5 7.5q29 0 54 -10t43.5 -27.5t29 -41t10.5 -51.5q0 -26 -9 -52t-28 -47l-77 -74h75q16 0 27.5 -11.5t11.5 -27.5v-18q0 -19 -11.5 -30t-27.5 -11h-196q-17 0 -29 11t-12 30v17q0 17 8.5 27.5t16.5 17.5l132 132q9 9 13.5 18.5
t4.5 16.5q0 14 -9.5 23.5t-26.5 9.5q-14 0 -25 -11t-22 -28q-8 -14 -24.5 -18t-30.5 4l-20 15q-16 10 -19 26t5 30z" />
    <glyph glyph-name="uni00B3" unicode="&#xb3;" horiz-adv-x="268" 
d="M91 448q4 -8 13.5 -13.5t21.5 -5.5q16 0 27.5 10.5t11.5 27.5q0 15 -11 25t-28 10h-17q-40 0 -40 41v16q0 17 10 26t24 9h19q14 0 24 8t10 19t-9 18t-21 7q-10 0 -18 -6t-12 -10q-11 -19 -22 -24t-28 3l-16 10q-15 8 -19 23t3 30q5 10 14 21t22.5 21t32 16.5t43.5 6.5
q26 0 49 -9t39.5 -24.5t26 -36.5t9.5 -45q0 -19 -5.5 -36.5t-19.5 -27.5q22 -14 31.5 -40t9.5 -54q0 -29 -11 -53.5t-30 -42.5t-44.5 -28t-54.5 -10t-51 8t-37 19.5t-24 24.5t-13 22q-6 14 -2 29t18 24l19 10q16 8 31.5 2.5t23.5 -21.5z" />
    <glyph glyph-name="acute" unicode="&#xb4;" horiz-adv-x="531" 
d="M319 626q-23 -31 -57 -31h-40q-17 0 -25 12t-1 29l47 114q7 17 20.5 26.5t30.5 9.5h83q17 0 25.5 -15.5t-3.5 -32.5z" />
    <glyph glyph-name="mu" unicode="&#xb5;" horiz-adv-x="606" 
d="M236 -159q0 -17 -12 -29t-29 -12h-81q-17 0 -29 12t-12 29v332q-1 8 -1 15v15v289q0 17 12 28.5t29 11.5h82q17 0 29 -11.5t12 -28.5v-284q0 -75 56 -75q35 0 58 21.5t23 50.5v287q0 17 12 28.5t29 11.5h82q17 0 29 -11.5t12 -28.5v-451q0 -17 -12 -29t-29 -12h-79
q-17 0 -29 12t-12 29v7h-7q-24 -30 -57 -45t-62 -15q-4 0 -7.5 0.5t-6.5 0.5v-148v0z" />
    <glyph glyph-name="paragraph" unicode="&#xb6;" horiz-adv-x="576" 
d="M544 660q0 -15 -10 -26t-24 -14v-778q0 -19 -12 -30.5t-29 -11.5h-27q-17 0 -29 11.5t-12 30.5v778h-66v-778q0 -19 -13 -30.5t-29 -11.5h-25q-19 0 -30.5 11.5t-11.5 30.5v448q-46 3 -83.5 21.5t-63.5 47.5t-40.5 67t-14.5 81q0 102 63 160t182 58h234q17 0 29 -12
t12 -30v-23z" />
    <glyph glyph-name="periodcentered" unicode="&#xb7;" horiz-adv-x="354" 
d="M104 335q0 19 7 35.5t19.5 29t29 19.5t35.5 7t36 -7t29.5 -19.5t19.5 -29t7 -35.5t-7 -35.5t-19.5 -29t-29.5 -19.5t-36 -7q-38 0 -64.5 26.5t-26.5 64.5z" />
    <glyph glyph-name="cedilla" unicode="&#xb8;" horiz-adv-x="494" 
d="M342 -32q17 -14 25.5 -31t8.5 -34q0 -26 -12 -46.5t-33.5 -35.5t-50 -23t-61.5 -8q-21 0 -37 1t-32 6q-12 3 -20 14.5t-8 23.5v17q0 16 13 28t29 12q9 0 19 -2t22 -2q30 0 43.5 6.5t13.5 18.5q0 4 -4 8t-8.5 9t-8.5 11.5t-4 16.5l7 47q3 12 14.5 22t26.5 10h18
q19 0 31 -13.5t10 -31.5z" />
    <glyph glyph-name="uni00B9" unicode="&#xb9;" horiz-adv-x="247" 
d="M163 725q38 0 38 -41v-314q0 -16 -10.5 -28.5t-30.5 -12.5h-22q-20 0 -28.5 12.5t-8.5 28.5v203l-25 -21q-11 -14 -28 -13.5t-30 14.5l-6 9t-7 9q-22 26 3 51l103 90q5 5 12.5 9t18.5 4h21z" />
    <glyph glyph-name="ordmasculine" unicode="&#xba;" horiz-adv-x="618" 
d="M309 423q40 0 65 30t25 78q0 49 -25 78.5t-65 29.5q-39 0 -64 -29.5t-25 -79.5q0 -48 25 -77.5t64 -29.5zM309 751q45 0 83 -16.5t66 -46t44 -69.5t16 -87q0 -49 -16 -89.5t-44 -69.5t-66 -45t-83 -16t-83.5 16t-66 44.5t-43.5 68.5t-16 89q0 48 16 88.5t43.5 70t66 46
t83.5 16.5z" />
    <glyph glyph-name="guillemotright" unicode="&#xbb;" horiz-adv-x="660" 
d="M326 430q-11 13 -14.5 26t7.5 25l51 51q13 13 29.5 13t28.5 -13l209 -209q13 -12 13 -28.5t-13 -29.5l-210 -210q-12 -12 -28.5 -12t-29.5 12l-40 40q-11 11 -11 28.5t11 28.5l138 138zM32 430q-12 13 -15.5 26t7.5 25l51 51q13 13 29.5 13t29.5 -13l209 -209
q12 -12 12 -28.5t-12 -29.5l-210 -210q-13 -12 -29.5 -12t-29.5 12l-39 40q-12 11 -12 28.5t12 28.5l137 138z" />
    <glyph glyph-name="onequarter" unicode="&#xbc;" horiz-adv-x="717" 
d="M538 382q4 5 16 13t23 8h18q19 0 29.5 -12t10.5 -29v-179h12q16 0 28 -11t12 -30v-18q0 -17 -12 -29t-28 -12h-12v-41q0 -42 -40 -42h-20q-20 0 -31 11t-11 31v41h-133q-20 0 -31 12t-11 29v15q0 14 8 30zM539 172v86q-13 -16 -31.5 -39.5t-37.5 -46.5h69zM173 725
q38 0 38 -41v-314q0 -16 -10.5 -28.5t-30.5 -12.5h-22q-20 0 -28.5 12.5t-8.5 28.5v203l-24 -21q-12 -14 -29 -13.5t-29 14.5q-3 3 -7 9t-7 9q-22 26 3 51l103 90q5 5 12.5 9t18.5 4h21zM207 34q-10 -17 -25 -25.5t-32 -8.5h-25q-8 0 -15 4.5t-11 11t-4.5 15t4.5 17.5
l380 644q21 33 58 33h24q16 0 26.5 -15.5t0.5 -32.5z" />
    <glyph glyph-name="onehalf" unicode="&#xbd;" horiz-adv-x="746" 
d="M173 725q38 0 38 -41v-314q0 -16 -10.5 -28.5t-30.5 -12.5h-22q-20 0 -28.5 12.5t-8.5 28.5v203l-24 -21q-12 -14 -29 -13.5t-29 14.5q-3 3 -7 9t-7 9q-22 26 3 51l103 90q5 5 12.5 9t18.5 4h21zM211 34q-10 -17 -25 -25.5t-32 -8.5h-24q-17 0 -27 15.5t0 32.5l380 644
q21 33 58 33h24q17 0 27 -15.5t0 -32.5zM452 320q7 13 19.5 27.5t29 26.5t38.5 19.5t49 7.5q29 0 54 -10t43.5 -27.5t29 -41.5t10.5 -52q0 -26 -9 -51.5t-29 -47.5l-76 -73h74q17 0 28.5 -11.5t11.5 -28.5v-17q0 -20 -11.5 -30.5t-28.5 -10.5h-195q-17 0 -29 10.5t-12 30.5
v16q0 18 8 28.5t16 17.5l133 132q18 18 18 34q0 15 -9.5 24.5t-26.5 9.5q-14 0 -25 -11t-22 -29q-9 -14 -25 -17.5t-30 4.5l-20 14q-16 10 -19 26t5 30z" />
    <glyph glyph-name="threequarters" unicode="&#xbe;" horiz-adv-x="738" 
d="M568 382q4 5 16.5 13t23.5 8h17q20 0 30.5 -12t10.5 -29v-179h11q17 0 29 -11t12 -30v-18q0 -17 -12 -29t-29 -12h-11v-41q0 -42 -41 -42h-19q-42 0 -42 42v41h-134q-19 0 -30 12t-11 29v15q0 14 8 30zM569 172v86q-12 -16 -31 -39.5t-37 -46.5h68zM245 34
q-10 -17 -25 -25.5t-32 -8.5h-25q-8 0 -15 4.5t-11.5 11t-4.5 15t5 17.5l380 644q10 17 25 25t32 8h25q8 0 15 -4.5t11.5 -11t4.5 -15t-5 -17.5zM104 448q4 -8 13.5 -13.5t22.5 -5.5q15 0 26.5 10.5t11.5 27.5q0 15 -11 25t-27 10h-18q-39 0 -39 41v16q0 17 9.5 26t23.5 9
h20q13 0 23 8t10 19t-9 18t-20 7t-19 -6t-12 -10q-11 -19 -21.5 -24t-28.5 3l-16 10q-15 8 -19 23t4 30q4 10 13 21t22.5 21t32.5 16.5t44 6.5q26 0 48.5 -9t39 -24.5t26 -36.5t9.5 -45q0 -19 -5 -36.5t-19 -27.5q21 -14 30.5 -40t9.5 -54q0 -29 -11 -53.5t-29.5 -42.5
t-44 -28t-54.5 -10q-30 0 -51.5 8t-37 19.5t-24.5 24.5t-13 22q-6 14 -2 29t19 24l18 10q16 8 31.5 2.5t23.5 -21.5z" />
    <glyph glyph-name="questiondown" unicode="&#xbf;" horiz-adv-x="559" 
d="M379 453q0 -19 -7 -36t-19 -29.5t-28.5 -19.5t-35.5 -7t-36 7t-29.5 19.5t-19.5 29.5t-7 36t7 35.5t19.5 29t29.5 19.5t36 7q38 0 64 -26.5t26 -64.5zM415 -15q14 10 30.5 7t26.5 -17l39 -55q9 -14 6.5 -30t-16.5 -27q-50 -35 -103.5 -54t-119.5 -19q-55 0 -100 15.5
t-76.5 42.5t-48.5 64.5t-17 81.5q0 65 43.5 120.5t126.5 112.5v63q0 17 12 28.5t29 11.5h81q17 0 29 -11.5t12 -28.5v-107q0 -13 -8 -27t-21 -21q-26 -17 -51 -34t-44 -33.5t-30.5 -33.5t-11.5 -34q0 -28 22.5 -45t54.5 -17q69 0 135 47z" />
    <glyph glyph-name="Agrave" unicode="&#xc0;" horiz-adv-x="753" 
d="M749 44q8 -17 -2 -30.5t-27 -13.5h-104q-35 0 -51 38l-53 127h-271l-53 -127q-17 -38 -51 -38h-104q-17 0 -27 13.5t-2 30.5l288 643q14 38 50 38h69q17 0 30 -9.5t20 -28.5zM376 537q-10 -32 -22 -70q-11 -32 -26 -74t-32 -88h161q-18 46 -32.5 88t-25.5 74
q-12 38 -23 70zM239 931q-6 9 -7 17.5t2.5 15t10.5 11t15 4.5h84q17 0 30.5 -9.5t20.5 -26.5l47 -114q7 -17 -1.5 -29t-25.5 -12h-40q-33 0 -57 31z" />
    <glyph glyph-name="Aacute" unicode="&#xc1;" horiz-adv-x="753" 
d="M749 44q8 -17 -2 -30.5t-27 -13.5h-104q-35 0 -51 38l-53 127h-271l-53 -127q-17 -38 -51 -38h-104q-17 0 -27 13.5t-2 30.5l288 643q14 38 50 38h69q17 0 30 -9.5t20 -28.5zM376 537q-10 -32 -22 -70q-11 -32 -26 -74t-32 -88h161q-18 46 -32.5 88t-25.5 74
q-12 38 -23 70zM437 819q-23 -31 -57 -31h-40q-17 0 -25 12t-1 29l47 114q7 17 20.5 26.5t30.5 9.5h83q17 0 25.5 -15.5t-3.5 -32.5z" />
    <glyph glyph-name="Acircumflex" unicode="&#xc2;" horiz-adv-x="753" 
d="M749 44q8 -17 -2 -30.5t-27 -13.5h-104q-35 0 -51 38l-53 127h-271l-53 -127q-17 -38 -51 -38h-104q-17 0 -27 13.5t-2 30.5l288 643q14 38 50 38h69q17 0 30 -9.5t20 -28.5zM376 537q-10 -32 -22 -70q-11 -32 -26 -74t-32 -88h161q-18 46 -32.5 88t-25.5 74
q-12 38 -23 70zM375 872l-31 -53q-10 -17 -25 -24t-32 -7h-66q-17 0 -23 14.5t6 32.5l74 108q11 16 27 26t33 10h75q17 0 33 -10t27 -26l74 -108q12 -18 5.5 -32.5t-23.5 -14.5h-65q-17 0 -32 7t-25 24z" />
    <glyph glyph-name="Atilde" unicode="&#xc3;" horiz-adv-x="753" 
d="M749 44q8 -17 -2 -30.5t-27 -13.5h-104q-35 0 -51 38l-53 127h-271l-53 -127q-17 -38 -51 -38h-104q-17 0 -27 13.5t-2 30.5l288 643q14 38 50 38h69q17 0 30 -9.5t20 -28.5zM376 537q-10 -32 -22 -70q-11 -32 -26 -74t-32 -88h161q-18 46 -32.5 88t-25.5 74
q-12 38 -23 70zM343 822q-14 11 -23 17.5t-17 6.5q-9 0 -17.5 -10t-8.5 -24q0 -13 -10 -21.5t-21 -8.5h-44q-12 0 -22 10t-10 23q0 39 12 68.5t31.5 50t43.5 30.5t49 10q29 0 51.5 -14t48.5 -32q14 -11 23 -17.5t17 -6.5q9 0 17.5 10t8.5 24q0 13 9.5 22t21.5 9h44
q12 0 21.5 -10.5t9.5 -23.5q0 -39 -12 -68.5t-31 -50t-43 -31t-49 -10.5q-29 0 -52.5 14t-47.5 33z" />
    <glyph glyph-name="Adieresis" unicode="&#xc4;" horiz-adv-x="753" 
d="M749 44q8 -17 -2 -30.5t-27 -13.5h-104q-35 0 -51 38l-53 127h-271l-53 -127q-17 -38 -51 -38h-104q-17 0 -27 13.5t-2 30.5l288 643q14 38 50 38h69q17 0 30 -9.5t20 -28.5zM376 537q-10 -32 -22 -70q-11 -32 -26 -74t-32 -88h161q-18 46 -32.5 88t-25.5 74
q-12 38 -23 70zM188 898q0 35 23.5 58.5t57.5 23.5q35 0 59 -23.5t24 -58.5q0 -34 -24 -58t-59 -24q-34 0 -57.5 24t-23.5 58zM399 898q0 35 24 58.5t57 23.5q35 0 59 -23.5t24 -58.5q0 -34 -24 -58t-59 -24q-33 0 -57 24t-24 58z" />
    <glyph glyph-name="Aring" unicode="&#xc5;" horiz-adv-x="753" 
d="M238 772q0 29 11 54.5t29.5 44t43.5 29.5t54 11t54.5 -11t44 -29.5t29.5 -44t11 -54.5q0 -31 -12.5 -57t-33.5 -46l280 -625q8 -17 -2 -30.5t-27 -13.5h-104q-35 0 -51 38l-53 127h-271l-53 -127q-17 -38 -51 -38h-104q-17 0 -27 13.5t-2 30.5l280 625q-22 20 -34 46
t-12 57zM450 315q-15 39 -28.5 75.5t-23 65.5t-15.5 47.5t-7 21.5q-1 -2 -6.5 -20t-15 -46.5t-22.5 -66t-29 -77.5h147zM329 772q0 -19 14 -33t33 -14q20 0 33.5 14t13.5 33q0 20 -13.5 34t-33.5 14q-19 0 -33 -14t-14 -34z" />
    <glyph glyph-name="AE" unicode="&#xc6;" horiz-adv-x="1149" 
d="M713 571v-123h295q17 0 29 -12t12 -29v-72q0 -17 -12 -29t-29 -12h-295v-140h339q17 0 28.5 -12t11.5 -29v-72q0 -17 -11.5 -29t-28.5 -12h-468q-17 0 -28.5 12t-11.5 29v124h-246l-101 -127q-15 -18 -31.5 -28t-33.5 -10h-111q-8 0 -13.5 6.5t-8 16t-0.5 20.5t9 19
l518 632q5 7 20 19t38 12h468q17 0 28.5 -12t11.5 -29v-72q0 -17 -11.5 -29t-28.5 -12h-339zM544 315v176q-20 -29 -53.5 -75.5t-74.5 -100.5h128z" />
    <glyph glyph-name="Ccedilla" unicode="&#xc7;" horiz-adv-x="741" 
d="M478 -32q17 -14 26 -32t9 -35q0 -26 -12 -46.5t-33.5 -35.5t-50 -23t-61.5 -8q-22 0 -37.5 1t-31.5 6q-13 3 -20.5 14.5t-7.5 23.5v17q0 16 12.5 28t29.5 12q9 0 18.5 -2t22.5 -2q57 0 57 25q0 4 -4 8.5t-9 9.5t-9 12t-4 17l4 32q-75 7 -135 37t-102.5 79t-65.5 114.5
t-23 142.5q0 82 26.5 151t74.5 118.5t116 77t152 27.5q83 0 148 -29t117 -82q13 -12 14.5 -28.5t-9.5 -29.5l-49 -53q-11 -13 -28 -14t-30 10q-37 33 -77 52.5t-86 19.5q-41 0 -77.5 -15.5t-63.5 -44.5t-43 -69.5t-16 -90.5t16 -90.5t43 -69.5t63.5 -45t77.5 -16q46 0 86 20
t77 52q13 11 29.5 10t28.5 -13l49 -54q11 -12 9.5 -29t-13.5 -28q-43 -42 -93.5 -70t-112.5 -38z" />
    <glyph glyph-name="Egrave" unicode="&#xc8;" horiz-adv-x="692" 
d="M595 725q17 0 28.5 -12t11.5 -29v-72q0 -17 -11.5 -29t-28.5 -12h-339v-123h295q17 0 29 -12t12 -29v-72q0 -17 -12 -29t-29 -12h-295v-140h339q17 0 28.5 -12t11.5 -29v-72q0 -17 -11.5 -29t-28.5 -12h-468q-17 0 -28.5 12t-11.5 29v643q0 17 11.5 29t28.5 12h468z
M204 931q-6 9 -7 17.5t2.5 15t10.5 11t15 4.5h84q17 0 30.5 -9.5t20.5 -26.5l47 -114q7 -17 -1.5 -29t-25.5 -12h-40q-33 0 -57 31z" />
    <glyph glyph-name="Eacute" unicode="&#xc9;" horiz-adv-x="692" 
d="M595 725q17 0 28.5 -12t11.5 -29v-72q0 -17 -11.5 -29t-28.5 -12h-339v-123h295q17 0 29 -12t12 -29v-72q0 -17 -12 -29t-29 -12h-295v-140h339q17 0 28.5 -12t11.5 -29v-72q0 -17 -11.5 -29t-28.5 -12h-468q-17 0 -28.5 12t-11.5 29v643q0 17 11.5 29t28.5 12h468z
M410 819q-23 -31 -57 -31h-40q-17 0 -25 12t-1 29l47 114q7 17 20.5 26.5t30.5 9.5h83q17 0 25.5 -15.5t-3.5 -32.5z" />
    <glyph glyph-name="Ecircumflex" unicode="&#xca;" horiz-adv-x="692" 
d="M595 725q17 0 28.5 -12t11.5 -29v-72q0 -17 -11.5 -29t-28.5 -12h-339v-123h295q17 0 29 -12t12 -29v-72q0 -17 -12 -29t-29 -12h-295v-140h339q17 0 28.5 -12t11.5 -29v-72q0 -17 -11.5 -29t-28.5 -12h-468q-17 0 -28.5 12t-11.5 29v643q0 17 11.5 29t28.5 12h468z
M364 872l-31 -53q-10 -17 -25 -24t-32 -7h-66q-17 0 -23 14.5t6 32.5l74 108q11 16 27 26t33 10h75q17 0 33 -10t27 -26l74 -108q12 -18 5.5 -32.5t-23.5 -14.5h-65q-17 0 -32 7t-25 24z" />
    <glyph glyph-name="Edieresis" unicode="&#xcb;" horiz-adv-x="692" 
d="M595 725q17 0 28.5 -12t11.5 -29v-72q0 -17 -11.5 -29t-28.5 -12h-339v-123h295q17 0 29 -12t12 -29v-72q0 -17 -12 -29t-29 -12h-295v-140h339q17 0 28.5 -12t11.5 -29v-72q0 -17 -11.5 -29t-28.5 -12h-468q-17 0 -28.5 12t-11.5 29v643q0 17 11.5 29t28.5 12h468z
M177 898q0 35 23.5 58.5t57.5 23.5q35 0 59 -23.5t24 -58.5q0 -34 -24 -58t-59 -24q-34 0 -57.5 24t-23.5 58zM388 898q0 35 24 58.5t57 23.5q35 0 59 -23.5t24 -58.5q0 -34 -24 -58t-59 -24q-33 0 -57 24t-24 58z" />
    <glyph glyph-name="Igrave" unicode="&#xcc;" horiz-adv-x="343" 
d="M256 41q0 -17 -12 -29t-29 -12h-88q-17 0 -28.5 12t-11.5 29v643q0 17 11.5 29t28.5 12h88q17 0 29 -12t12 -29v-643zM47 931q-6 9 -7 17.5t2.5 15t10.5 11t15 4.5h84q17 0 30.5 -9.5t20.5 -26.5l47 -114q7 -17 -1.5 -29t-25.5 -12h-40q-33 0 -57 31z" />
    <glyph glyph-name="Iacute" unicode="&#xcd;" horiz-adv-x="343" 
d="M256 41q0 -17 -12 -29t-29 -12h-88q-17 0 -28.5 12t-11.5 29v643q0 17 11.5 29t28.5 12h88q17 0 29 -12t12 -29v-643zM213 819q-23 -31 -57 -31h-40q-17 0 -25 12t-1 29l47 114q7 17 20.5 26.5t30.5 9.5h83q17 0 25.5 -15.5t-3.5 -32.5z" />
    <glyph glyph-name="Icircumflex" unicode="&#xce;" horiz-adv-x="343" 
d="M256 41q0 -17 -12 -29t-29 -12h-88q-17 0 -28.5 12t-11.5 29v643q0 17 11.5 29t28.5 12h88q17 0 29 -12t12 -29v-643zM174 872l-31 -53q-10 -17 -25 -24t-32 -7h-66q-17 0 -23 14.5t6 32.5l74 108q11 16 27 26t33 10h75q17 0 33 -10t27 -26l74 -108q12 -18 5.5 -32.5
t-23.5 -14.5h-65q-17 0 -32 7t-25 24z" />
    <glyph glyph-name="Idieresis" unicode="&#xcf;" horiz-adv-x="343" 
d="M256 41q0 -17 -12 -29t-29 -12h-88q-17 0 -28.5 12t-11.5 29v643q0 17 11.5 29t28.5 12h88q17 0 29 -12t12 -29v-643zM-16 898q0 35 23.5 58.5t57.5 23.5q35 0 59 -23.5t24 -58.5q0 -34 -24 -58t-59 -24q-34 0 -57.5 24t-23.5 58zM195 898q0 35 24 58.5t57 23.5
q35 0 59 -23.5t24 -58.5q0 -34 -24 -58t-59 -24q-33 0 -57 24t-24 58z" />
    <glyph glyph-name="Eth" unicode="&#xd0;" horiz-adv-x="786" 
d="M342 725q87 0 159 -23t124 -69t81 -113.5t29 -156.5t-29 -157t-81 -113.5t-124 -69t-159 -23.5h-234q-17 0 -29 12t-12 29v246h-12q-17 0 -29 11.5t-12 28.5v73q0 17 12 29t29 12h12v243q0 17 12 29t29 12h234zM359 154q45 0 83 14.5t65.5 41.5t43 66t15.5 87
q0 49 -15.5 87.5t-43 65.5t-65.5 41t-83 14h-122v-130h74q17 0 29 -12t12 -29v-73q0 -17 -12 -28.5t-29 -11.5h-74v-133h122z" />
    <glyph glyph-name="Ntilde" unicode="&#xd1;" horiz-adv-x="797" 
d="M669 725q17 0 29 -12t12 -29v-643q0 -17 -12 -29t-29 -12h-88q-11 0 -22 5.5t-16 15.5q-1 2 -4 5.5t-12 15.5t-27 37t-49.5 68.5t-78.5 109.5t-115 162h-5q1 -14 2.5 -48.5t1.5 -77.5v-252q0 -17 -12 -29t-29 -12h-88q-17 0 -28.5 12t-11.5 29v643q0 17 11.5 29t28.5 12
h88q13 0 23.5 -7t15.5 -17l287 -395h5q-1 14 -3 47.5t-2 68.5v262q0 17 11.5 29t28.5 12h88zM365 822q-14 11 -23 17.5t-17 6.5q-9 0 -17.5 -10t-8.5 -24q0 -13 -10 -21.5t-21 -8.5h-44q-12 0 -22 10t-10 23q0 39 12 68.5t31.5 50t43.5 30.5t49 10q29 0 51.5 -14t48.5 -32
q14 -11 23 -17.5t17 -6.5q9 0 17.5 10t8.5 24q0 13 9.5 22t21.5 9h44q12 0 21.5 -10.5t9.5 -23.5q0 -39 -12 -68.5t-31 -50t-43 -31t-49 -10.5q-29 0 -52.5 14t-47.5 33z" />
    <glyph glyph-name="Ograve" unicode="&#xd2;" horiz-adv-x="837" 
d="M786 360q0 -83 -29.5 -151.5t-80 -117.5t-117 -76t-140.5 -27t-141 27t-117.5 76t-80 117.5t-29.5 151.5q0 76 26.5 144.5t74.5 120.5t116 82t151 30t150.5 -30t115.5 -82t74.5 -120.5t26.5 -144.5zM419 142q41 0 76.5 16.5t62 45.5t42 69t15.5 87q0 50 -15.5 91
t-42 70.5t-62 45.5t-76.5 16t-77 -16t-62.5 -45.5t-42 -70.5t-15.5 -91q0 -47 15.5 -87t42 -69t62.5 -45.5t77 -16.5zM288 931q-6 9 -7 17.5t2.5 15t10.5 11t15 4.5h84q17 0 30.5 -9.5t20.5 -26.5l47 -114q7 -17 -1.5 -29t-25.5 -12h-40q-33 0 -57 31z" />
    <glyph glyph-name="Oacute" unicode="&#xd3;" horiz-adv-x="837" 
d="M786 360q0 -83 -29.5 -151.5t-80 -117.5t-117 -76t-140.5 -27t-141 27t-117.5 76t-80 117.5t-29.5 151.5q0 76 26.5 144.5t74.5 120.5t116 82t151 30t150.5 -30t115.5 -82t74.5 -120.5t26.5 -144.5zM419 142q41 0 76.5 16.5t62 45.5t42 69t15.5 87q0 50 -15.5 91
t-42 70.5t-62 45.5t-76.5 16t-77 -16t-62.5 -45.5t-42 -70.5t-15.5 -91q0 -47 15.5 -87t42 -69t62.5 -45.5t77 -16.5zM475 819q-23 -31 -57 -31h-40q-17 0 -25 12t-1 29l47 114q7 17 20.5 26.5t30.5 9.5h83q17 0 25.5 -15.5t-3.5 -32.5z" />
    <glyph glyph-name="Ocircumflex" unicode="&#xd4;" horiz-adv-x="837" 
d="M786 360q0 -83 -29.5 -151.5t-80 -117.5t-117 -76t-140.5 -27t-141 27t-117.5 76t-80 117.5t-29.5 151.5q0 76 26.5 144.5t74.5 120.5t116 82t151 30t150.5 -30t115.5 -82t74.5 -120.5t26.5 -144.5zM419 142q41 0 76.5 16.5t62 45.5t42 69t15.5 87q0 50 -15.5 91
t-42 70.5t-62 45.5t-76.5 16t-77 -16t-62.5 -45.5t-42 -70.5t-15.5 -91q0 -47 15.5 -87t42 -69t62.5 -45.5t77 -16.5zM419 872l-31 -53q-10 -17 -25 -24t-32 -7h-66q-17 0 -23 14.5t6 32.5l74 108q11 16 27 26t33 10h75q17 0 33 -10t27 -26l74 -108q12 -18 5.5 -32.5
t-23.5 -14.5h-65q-17 0 -32 7t-25 24z" />
    <glyph glyph-name="Otilde" unicode="&#xd5;" horiz-adv-x="837" 
d="M786 360q0 -83 -29.5 -151.5t-80 -117.5t-117 -76t-140.5 -27t-141 27t-117.5 76t-80 117.5t-29.5 151.5q0 76 26.5 144.5t74.5 120.5t116 82t151 30t150.5 -30t115.5 -82t74.5 -120.5t26.5 -144.5zM419 142q41 0 76.5 16.5t62 45.5t42 69t15.5 87q0 50 -15.5 91
t-42 70.5t-62 45.5t-76.5 16t-77 -16t-62.5 -45.5t-42 -70.5t-15.5 -91q0 -47 15.5 -87t42 -69t62.5 -45.5t77 -16.5zM391 822q-14 11 -23 17.5t-17 6.5q-9 0 -17.5 -10t-8.5 -24q0 -13 -10 -21.5t-21 -8.5h-44q-12 0 -22 10t-10 23q0 39 12 68.5t31.5 50t43.5 30.5t49 10
q29 0 51.5 -14t48.5 -32q14 -11 23 -17.5t17 -6.5q9 0 17.5 10t8.5 24q0 13 9.5 22t21.5 9h44q12 0 21.5 -10.5t9.5 -23.5q0 -39 -12 -68.5t-31 -50t-43 -31t-49 -10.5q-29 0 -52.5 14t-47.5 33z" />
    <glyph glyph-name="Odieresis" unicode="&#xd6;" horiz-adv-x="837" 
d="M786 360q0 -83 -29.5 -151.5t-80 -117.5t-117 -76t-140.5 -27t-141 27t-117.5 76t-80 117.5t-29.5 151.5q0 76 26.5 144.5t74.5 120.5t116 82t151 30t150.5 -30t115.5 -82t74.5 -120.5t26.5 -144.5zM419 142q41 0 76.5 16.5t62 45.5t42 69t15.5 87q0 50 -15.5 91
t-42 70.5t-62 45.5t-76.5 16t-77 -16t-62.5 -45.5t-42 -70.5t-15.5 -91q0 -47 15.5 -87t42 -69t62.5 -45.5t77 -16.5zM233 898q0 35 23.5 58.5t57.5 23.5q35 0 59 -23.5t24 -58.5q0 -34 -24 -58t-59 -24q-34 0 -57.5 24t-23.5 58zM444 898q0 35 24 58.5t57 23.5
q35 0 59 -23.5t24 -58.5q0 -34 -24 -58t-59 -24q-33 0 -57 24t-24 58z" />
    <glyph glyph-name="multiply" unicode="&#xd7;" 
d="M125 563q12 12 29 12t29 -12l132 -133l134 134q12 12 29 12t29 -12l44 -44q12 -12 12 -29t-12 -29l-134 -133l134 -133q12 -12 12 -29t-12 -29l-44 -44q-12 -11 -29 -11t-29 11l-134 133l-131 -131q-13 -12 -29.5 -12t-29.5 12l-43 44q-12 11 -12 28.5t12 28.5l132 132
l-132 133q-13 11 -13 28.5t13 28.5l43 44v0z" />
    <glyph glyph-name="Oslash" unicode="&#xd8;" horiz-adv-x="837" 
d="M657 652q61 -53 95 -128.5t34 -163.5q0 -83 -29.5 -151.5t-80 -117.5t-117 -76t-140.5 -27q-72 0 -139 25q-20 -25 -52 -25h-35q-17 0 -27 15.5t0 32.5l20 32q-62 50 -98.5 124t-36.5 168q0 76 26.5 144.5t74.5 120.5t116 82t151 30q39 0 75.5 -7t68.5 -20
q10 14 24.5 20.5t29.5 6.5h36q8 0 15 -4.5t11.5 -11t4.5 -15t-5 -16.5zM222 360q0 -44 13 -81t35 -66l212 359q-31 11 -63 11q-41 0 -77 -16t-62.5 -45.5t-42 -70.5t-15.5 -91zM419 142q41 0 76.5 16.5t62 45.5t42 69t15.5 87q0 43 -11.5 80t-32.5 66l-210 -356q29 -8 58 -8
z" />
    <glyph glyph-name="Ugrave" unicode="&#xd9;" horiz-adv-x="811" 
d="M81 684q0 17 11.5 29t28.5 12h88q17 0 29 -12t12 -29v-357q0 -41 10.5 -75t30.5 -58.5t49 -38t66 -13.5q74 0 114.5 51.5t40.5 133.5v357q0 17 12 29t29 12h88q17 0 28.5 -11.5t11.5 -28.5v-368q0 -74 -24 -135t-66.5 -104t-102 -66.5t-131.5 -23.5q-73 0 -133 23.5
t-102.5 67t-66 104t-23.5 134.5v367zM264 931q-6 9 -7 17.5t2.5 15t10.5 11t15 4.5h84q17 0 30.5 -9.5t20.5 -26.5l47 -114q7 -17 -1.5 -29t-25.5 -12h-40q-33 0 -57 31z" />
    <glyph glyph-name="Uacute" unicode="&#xda;" horiz-adv-x="811" 
d="M81 684q0 17 11.5 29t28.5 12h88q17 0 29 -12t12 -29v-357q0 -41 10.5 -75t30.5 -58.5t49 -38t66 -13.5q74 0 114.5 51.5t40.5 133.5v357q0 17 12 29t29 12h88q17 0 28.5 -11.5t11.5 -28.5v-368q0 -74 -24 -135t-66.5 -104t-102 -66.5t-131.5 -23.5q-73 0 -133 23.5
t-102.5 67t-66 104t-23.5 134.5v367zM459 819q-23 -31 -57 -31h-40q-17 0 -25 12t-1 29l47 114q7 17 20.5 26.5t30.5 9.5h83q17 0 25.5 -15.5t-3.5 -32.5z" />
    <glyph glyph-name="Ucircumflex" unicode="&#xdb;" horiz-adv-x="811" 
d="M81 684q0 17 11.5 29t28.5 12h88q17 0 29 -12t12 -29v-357q0 -41 10.5 -75t30.5 -58.5t49 -38t66 -13.5q74 0 114.5 51.5t40.5 133.5v357q0 17 12 29t29 12h88q17 0 28.5 -11.5t11.5 -28.5v-368q0 -74 -24 -135t-66.5 -104t-102 -66.5t-131.5 -23.5q-73 0 -133 23.5
t-102.5 67t-66 104t-23.5 134.5v367zM407 872l-31 -53q-10 -17 -25 -24t-32 -7h-66q-17 0 -23 14.5t6 32.5l74 108q11 16 27 26t33 10h75q17 0 33 -10t27 -26l74 -108q12 -18 5.5 -32.5t-23.5 -14.5h-65q-17 0 -32 7t-25 24z" />
    <glyph glyph-name="Udieresis" unicode="&#xdc;" horiz-adv-x="811" 
d="M81 684q0 17 11.5 29t28.5 12h88q17 0 29 -12t12 -29v-357q0 -41 10.5 -75t30.5 -58.5t49 -38t66 -13.5q74 0 114.5 51.5t40.5 133.5v357q0 17 12 29t29 12h88q17 0 28.5 -11.5t11.5 -28.5v-368q0 -74 -24 -135t-66.5 -104t-102 -66.5t-131.5 -23.5q-73 0 -133 23.5
t-102.5 67t-66 104t-23.5 134.5v367zM220 898q0 35 23.5 58.5t57.5 23.5q35 0 59 -23.5t24 -58.5q0 -34 -24 -58t-59 -24q-34 0 -57.5 24t-23.5 58zM431 898q0 35 24 58.5t57 23.5q35 0 59 -23.5t24 -58.5q0 -34 -24 -58t-59 -24q-33 0 -57 24t-24 58z" />
    <glyph glyph-name="Yacute" unicode="&#xdd;" horiz-adv-x="677" 
d="M659 725q10 0 18 -5t11.5 -13t3.5 -17.5t-6 -18.5l-263 -382v-248q0 -17 -11.5 -29t-28.5 -12h-88q-17 0 -29 12t-12 29v248l-262 382q-6 9 -6 18.5t3.5 17.5t11.5 13t19 5h94q17 0 34 -7.5t29 -24.5l162 -239l163 239q11 17 28 24.5t34 7.5h95zM399 819q-23 -31 -57 -31
h-40q-17 0 -25 12t-1 29l47 114q7 17 20.5 26.5t30.5 9.5h83q17 0 25.5 -15.5t-3.5 -32.5z" />
    <glyph glyph-name="Thorn" unicode="&#xde;" horiz-adv-x="683" 
d="M250 613h124q65 0 117.5 -17.5t90 -50t58 -78t20.5 -101.5q0 -55 -20.5 -100t-58 -77t-90.5 -49.5t-117 -17.5h-124v-81q0 -17 -12 -29t-29 -12h-88q-17 0 -28.5 12t-11.5 29v643q0 17 11.5 29t28.5 12h88q17 0 29 -12t12 -29v-71zM391 276q45 0 71.5 24t26.5 66
q0 43 -26.5 68t-71.5 25h-141v-183h141z" />
    <glyph glyph-name="germandbls" unicode="&#xdf;" horiz-adv-x="666" 
d="M459 410q78 -29 117 -80t39 -114q0 -47 -16.5 -88t-46.5 -72.5t-71.5 -49.5t-91.5 -18q-32 0 -57 8t-41 16q-15 8 -23 22t-2 30l16 58q5 16 20.5 24t31.5 1q11 -5 24 -8t30 -3q28 0 45 24t17 54q0 15 -8.5 31t-25 29.5t-42 22t-58.5 8.5q-17 0 -29 12t-12 29v64
q0 17 12 32.5t29 20.5q32 9 46.5 25.5t14.5 48.5q0 19 -16.5 36.5t-42.5 17.5q-13 0 -27 -4.5t-25 -17.5t-18.5 -35t-7.5 -57v-436q0 -17 -12 -29t-29 -12h-82q-17 0 -29 12t-12 29v436q0 66 17 114.5t49 81t77.5 48.5t102.5 16q50 0 90.5 -13.5t69.5 -37.5t45 -57t16 -72
q0 -37 -20 -75.5t-64 -71.5z" />
    <glyph glyph-name="agrave" unicode="&#xe0;" horiz-adv-x="586" 
d="M351 236h-8q-62 0 -102.5 -13.5t-40.5 -50.5q0 -26 16 -41t42 -15q15 0 31.5 6.5t30 18.5t22.5 28t9 34v33zM345 371q0 17 -18.5 29t-51.5 12q-32 0 -69 -7t-60 -15q-17 -7 -31.5 -1t-21.5 22l-14 36q-7 15 0 30t21 23q37 19 82 31.5t109 12.5q40 0 79.5 -11.5
t70.5 -37.5t50 -67.5t19 -101.5v-285q0 -17 -12 -29t-29 -12h-74q-17 0 -29 12t-12 29v6h-7q-19 -29 -55.5 -44t-69.5 -15t-65.5 11.5t-58 34t-41.5 55t-16 73.5q0 58 25.5 93t67 54t95 25t110.5 6h6v31zM157 738q-6 9 -7 17.5t2.5 15t10.5 11t15 4.5h84q17 0 30.5 -9.5
t20.5 -26.5l47 -114q7 -17 -1.5 -29t-25.5 -12h-40q-33 0 -57 31z" />
    <glyph glyph-name="aacute" unicode="&#xe1;" horiz-adv-x="586" 
d="M351 236h-8q-62 0 -102.5 -13.5t-40.5 -50.5q0 -26 16 -41t42 -15q15 0 31.5 6.5t30 18.5t22.5 28t9 34v33zM345 371q0 17 -18.5 29t-51.5 12q-32 0 -69 -7t-60 -15q-17 -7 -31.5 -1t-21.5 22l-14 36q-7 15 0 30t21 23q37 19 82 31.5t109 12.5q40 0 79.5 -11.5
t70.5 -37.5t50 -67.5t19 -101.5v-285q0 -17 -12 -29t-29 -12h-74q-17 0 -29 12t-12 29v6h-7q-19 -29 -55.5 -44t-69.5 -15t-65.5 11.5t-58 34t-41.5 55t-16 73.5q0 58 25.5 93t67 54t95 25t110.5 6h6v31zM339 626q-23 -31 -57 -31h-40q-17 0 -25 12t-1 29l47 114
q7 17 20.5 26.5t30.5 9.5h83q17 0 25.5 -15.5t-3.5 -32.5z" />
    <glyph glyph-name="acircumflex" unicode="&#xe2;" horiz-adv-x="586" 
d="M351 236h-8q-62 0 -102.5 -13.5t-40.5 -50.5q0 -26 16 -41t42 -15q15 0 31.5 6.5t30 18.5t22.5 28t9 34v33zM345 371q0 17 -18.5 29t-51.5 12q-32 0 -69 -7t-60 -15q-17 -7 -31.5 -1t-21.5 22l-14 36q-7 15 0 30t21 23q37 19 82 31.5t109 12.5q40 0 79.5 -11.5
t70.5 -37.5t50 -67.5t19 -101.5v-285q0 -17 -12 -29t-29 -12h-74q-17 0 -29 12t-12 29v6h-7q-19 -29 -55.5 -44t-69.5 -15t-65.5 11.5t-58 34t-41.5 55t-16 73.5q0 58 25.5 93t67 54t95 25t110.5 6h6v31zM290 679l-31 -53q-10 -17 -25 -24t-32 -7h-66q-17 0 -23 14.5t6 32.5
l74 108q11 16 27 26t33 10h75q17 0 33 -10t27 -26l74 -108q12 -18 5.5 -32.5t-23.5 -14.5h-65q-17 0 -32 7t-25 24z" />
    <glyph glyph-name="atilde" unicode="&#xe3;" horiz-adv-x="586" 
d="M351 236h-8q-62 0 -102.5 -13.5t-40.5 -50.5q0 -26 16 -41t42 -15q15 0 31.5 6.5t30 18.5t22.5 28t9 34v33zM345 371q0 17 -18.5 29t-51.5 12q-32 0 -69 -7t-60 -15q-17 -7 -31.5 -1t-21.5 22l-14 36q-7 15 0 30t21 23q37 19 82 31.5t109 12.5q40 0 79.5 -11.5
t70.5 -37.5t50 -67.5t19 -101.5v-285q0 -17 -12 -29t-29 -12h-74q-17 0 -29 12t-12 29v6h-7q-19 -29 -55.5 -44t-69.5 -15t-65.5 11.5t-58 34t-41.5 55t-16 73.5q0 58 25.5 93t67 54t95 25t110.5 6h6v31zM261 629q-14 11 -23 17.5t-17 6.5q-9 0 -17.5 -10t-8.5 -24
q0 -13 -10 -21.5t-21 -8.5h-44q-12 0 -22 10t-10 23q0 39 12 68.5t31.5 50t43.5 30.5t49 10q29 0 51.5 -14t48.5 -32q14 -11 23 -17.5t17 -6.5q9 0 17.5 10t8.5 24q0 13 9.5 22t21.5 9h44q12 0 21.5 -10.5t9.5 -23.5q0 -39 -12 -68.5t-31 -50t-43 -31t-49 -10.5
q-29 0 -52.5 14t-47.5 33z" />
    <glyph glyph-name="adieresis" unicode="&#xe4;" horiz-adv-x="586" 
d="M351 236h-8q-62 0 -102.5 -13.5t-40.5 -50.5q0 -26 16 -41t42 -15q15 0 31.5 6.5t30 18.5t22.5 28t9 34v33zM345 371q0 17 -18.5 29t-51.5 12q-32 0 -69 -7t-60 -15q-17 -7 -31.5 -1t-21.5 22l-14 36q-7 15 0 30t21 23q37 19 82 31.5t109 12.5q40 0 79.5 -11.5
t70.5 -37.5t50 -67.5t19 -101.5v-285q0 -17 -12 -29t-29 -12h-74q-17 0 -29 12t-12 29v6h-7q-19 -29 -55.5 -44t-69.5 -15t-65.5 11.5t-58 34t-41.5 55t-16 73.5q0 58 25.5 93t67 54t95 25t110.5 6h6v31zM102 705q0 35 23.5 58.5t57.5 23.5q35 0 59 -23.5t24 -58.5
q0 -34 -24 -58t-59 -24q-34 0 -57.5 24t-23.5 58zM313 705q0 35 24 58.5t57 23.5q35 0 59 -23.5t24 -58.5q0 -34 -24 -58t-59 -24q-33 0 -57 24t-24 58z" />
    <glyph glyph-name="aring" unicode="&#xe5;" horiz-adv-x="586" 
d="M351 236h-8q-62 0 -102.5 -13.5t-40.5 -50.5q0 -26 16 -41t42 -15q15 0 31.5 6.5t30 18.5t22.5 28t9 34v33zM345 371q0 17 -18.5 29t-51.5 12q-32 0 -69 -7t-60 -15q-17 -7 -31.5 -1t-21.5 22l-14 36q-7 15 0 30t21 23q37 19 82 31.5t109 12.5q40 0 79.5 -11.5
t70.5 -37.5t50 -67.5t19 -101.5v-285q0 -17 -12 -29t-29 -12h-74q-17 0 -29 12t-12 29v6h-7q-19 -29 -55.5 -44t-69.5 -15t-65.5 11.5t-58 34t-41.5 55t-16 73.5q0 58 25.5 93t67 54t95 25t110.5 6h6v31zM149 701q0 28 11 53.5t29.5 44t44 29.5t54.5 11q28 0 53.5 -11
t44.5 -29.5t30 -44t11 -53.5q0 -29 -11 -54t-30 -44t-44.5 -29.5t-53.5 -10.5q-29 0 -54.5 10.5t-44 29.5t-29.5 44t-11 54zM241 701q0 -20 13.5 -33.5t33.5 -13.5t33.5 13.5t13.5 33.5t-13.5 34t-33.5 14t-33.5 -14t-13.5 -34z" />
    <glyph glyph-name="ae" unicode="&#xe6;" horiz-adv-x="899" 
d="M854 255q0 -17 -12 -29t-29 -12h-303q1 -20 11 -36t25 -27.5t33 -18t36 -6.5q33 0 72 10t66 24q14 8 30.5 2t23.5 -21l20 -47q7 -16 1 -31t-20 -23q-38 -23 -85.5 -37.5t-106.5 -14.5q-137 0 -210 82q-40 -48 -88 -65t-96 -17q-33 0 -65.5 11.5t-58 34t-41.5 55t-16 73.5
q0 60 25.5 96t67 55.5t95 26t110.5 6.5h6v20q0 17 -18.5 29t-51.5 12q-16 0 -33 -2t-34 -5t-32 -7t-27 -8q-17 -7 -31.5 -1t-21.5 22l-17 42q-7 15 0 29.5t21 22.5q37 19 82 31.5t109 12.5q41 0 80.5 -13t70.5 -39q33 25 75 38.5t91 13.5q53 0 98 -16t78 -50.5t51.5 -89.5
t18.5 -133zM347 226h-8q-58 0 -96.5 -11t-38.5 -43q0 -20 15 -33.5t40 -13.5q13 0 28.5 6.5t28.5 17.5t22 26t9 33v18zM687 333q0 16 -7 30t-18.5 24.5t-26 16t-29.5 5.5q-32 0 -57 -20.5t-32 -55.5h170z" />
    <glyph glyph-name="ccedilla" unicode="&#xe7;" horiz-adv-x="541" 
d="M514 130q11 -14 10.5 -30.5t-12.5 -27.5q-38 -33 -76.5 -54t-86.5 -27l-2 -23q17 -14 25.5 -32t8.5 -35q0 -26 -12 -46.5t-33.5 -35.5t-50 -23t-61.5 -8q-21 0 -37 1t-32 6q-12 3 -20 14.5t-8 23.5v17q0 16 13 28t29 12q10 0 19.5 -2t21.5 -2q30 0 43.5 6.5t13.5 18.5
q0 4 -4 8.5t-8.5 9.5t-8.5 12t-4 17l5 35q-96 16 -151 85.5t-55 187.5q0 67 19 119t53.5 87.5t83 54t108.5 18.5q65 0 113.5 -22t93.5 -63q12 -11 12.5 -28t-10.5 -30l-44 -48q-11 -12 -27.5 -13t-29.5 10q-26 23 -51 36.5t-57 13.5q-45 0 -73 -35t-28 -100q0 -64 28 -99
t73 -35q32 0 57 13t51 36q13 12 29.5 11t27.5 -14z" />
    <glyph glyph-name="egrave" unicode="&#xe8;" horiz-adv-x="597" 
d="M304 415q-32 0 -60.5 -23.5t-34.5 -65.5h181q0 21 -8 37.5t-20.5 28t-27.5 17.5t-30 6zM204 220q1 -20 11.5 -38t26 -31.5t34.5 -22t37 -8.5q16 0 35.5 3t38.5 7.5t36.5 10.5t31.5 13q14 8 30.5 2t23.5 -21l16 -41q7 -16 1 -31t-20 -23q-38 -23 -85.5 -37.5t-106.5 -14.5
q-63 0 -113.5 18.5t-86 53.5t-54.5 86t-19 117t19 118t54 88t84 55.5t108 19.5q53 0 98 -17t78 -51.5t51.5 -88t18.5 -126.5q0 -17 -12 -29t-29 -12h-307zM169 738q-6 9 -7 17.5t2.5 15t10.5 11t15 4.5h84q17 0 30.5 -9.5t20.5 -26.5l47 -114q7 -17 -1.5 -29t-25.5 -12h-40
q-33 0 -57 31z" />
    <glyph glyph-name="eacute" unicode="&#xe9;" horiz-adv-x="597" 
d="M304 415q-32 0 -60.5 -23.5t-34.5 -65.5h181q0 21 -8 37.5t-20.5 28t-27.5 17.5t-30 6zM204 220q1 -20 11.5 -38t26 -31.5t34.5 -22t37 -8.5q16 0 35.5 3t38.5 7.5t36.5 10.5t31.5 13q14 8 30.5 2t23.5 -21l16 -41q7 -16 1 -31t-20 -23q-38 -23 -85.5 -37.5t-106.5 -14.5
q-63 0 -113.5 18.5t-86 53.5t-54.5 86t-19 117t19 118t54 88t84 55.5t108 19.5q53 0 98 -17t78 -51.5t51.5 -88t18.5 -126.5q0 -17 -12 -29t-29 -12h-307zM351 626q-23 -31 -57 -31h-40q-17 0 -25 12t-1 29l47 114q7 17 20.5 26.5t30.5 9.5h83q17 0 25.5 -15.5t-3.5 -32.5z
" />
    <glyph glyph-name="ecircumflex" unicode="&#xea;" horiz-adv-x="597" 
d="M304 415q-32 0 -60.5 -23.5t-34.5 -65.5h181q0 21 -8 37.5t-20.5 28t-27.5 17.5t-30 6zM204 220q1 -20 11.5 -38t26 -31.5t34.5 -22t37 -8.5q16 0 35.5 3t38.5 7.5t36.5 10.5t31.5 13q14 8 30.5 2t23.5 -21l16 -41q7 -16 1 -31t-20 -23q-38 -23 -85.5 -37.5t-106.5 -14.5
q-63 0 -113.5 18.5t-86 53.5t-54.5 86t-19 117t19 118t54 88t84 55.5t108 19.5q53 0 98 -17t78 -51.5t51.5 -88t18.5 -126.5q0 -17 -12 -29t-29 -12h-307zM307 679l-31 -53q-10 -17 -25 -24t-32 -7h-66q-17 0 -23 14.5t6 32.5l74 108q11 16 27 26t33 10h75q17 0 33 -10
t27 -26l74 -108q12 -18 5.5 -32.5t-23.5 -14.5h-65q-17 0 -32 7t-25 24z" />
    <glyph glyph-name="edieresis" unicode="&#xeb;" horiz-adv-x="597" 
d="M304 415q-32 0 -60.5 -23.5t-34.5 -65.5h181q0 21 -8 37.5t-20.5 28t-27.5 17.5t-30 6zM204 220q1 -20 11.5 -38t26 -31.5t34.5 -22t37 -8.5q16 0 35.5 3t38.5 7.5t36.5 10.5t31.5 13q14 8 30.5 2t23.5 -21l16 -41q7 -16 1 -31t-20 -23q-38 -23 -85.5 -37.5t-106.5 -14.5
q-63 0 -113.5 18.5t-86 53.5t-54.5 86t-19 117t19 118t54 88t84 55.5t108 19.5q53 0 98 -17t78 -51.5t51.5 -88t18.5 -126.5q0 -17 -12 -29t-29 -12h-307zM120 705q0 35 23.5 58.5t57.5 23.5q35 0 59 -23.5t24 -58.5q0 -34 -24 -58t-59 -24q-34 0 -57.5 24t-23.5 58z
M331 705q0 35 24 58.5t57 23.5q35 0 59 -23.5t24 -58.5q0 -34 -24 -58t-59 -24q-33 0 -57 24t-24 58z" />
    <glyph glyph-name="igrave" unicode="&#xec;" horiz-adv-x="316" 
d="M240 41q0 -17 -12 -29t-29 -12h-82q-17 0 -29 12t-12 29v451q0 17 12 28.5t29 11.5h82q17 0 29 -11.5t12 -28.5v-451zM36 738q-6 9 -7 17.5t2.5 15t10.5 11t15 4.5h84q17 0 30.5 -9.5t20.5 -26.5l47 -114q7 -17 -1.5 -29t-25.5 -12h-40q-33 0 -57 31z" />
    <glyph glyph-name="iacute" unicode="&#xed;" horiz-adv-x="316" 
d="M240 41q0 -17 -12 -29t-29 -12h-82q-17 0 -29 12t-12 29v451q0 17 12 28.5t29 11.5h82q17 0 29 -11.5t12 -28.5v-451zM202 626q-23 -31 -57 -31h-40q-17 0 -25 12t-1 29l47 114q7 17 20.5 26.5t30.5 9.5h83q17 0 25.5 -15.5t-3.5 -32.5z" />
    <glyph glyph-name="icircumflex" unicode="&#xee;" horiz-adv-x="316" 
d="M240 41q0 -17 -12 -29t-29 -12h-82q-17 0 -29 12t-12 29v451q0 17 12 28.5t29 11.5h82q17 0 29 -11.5t12 -28.5v-451zM160 679l-31 -53q-10 -17 -25 -24t-32 -7h-66q-17 0 -23 14.5t6 32.5l74 108q11 16 27 26t33 10h75q17 0 33 -10t27 -26l74 -108q12 -18 5.5 -32.5
t-23.5 -14.5h-65q-17 0 -32 7t-25 24z" />
    <glyph glyph-name="idieresis" unicode="&#xef;" horiz-adv-x="316" 
d="M240 41q0 -17 -12 -29t-29 -12h-82q-17 0 -29 12t-12 29v451q0 17 12 28.5t29 11.5h82q17 0 29 -11.5t12 -28.5v-451zM-28 705q0 35 23.5 58.5t57.5 23.5q35 0 59 -23.5t24 -58.5q0 -34 -24 -58t-59 -24q-34 0 -57.5 24t-23.5 58zM183 705q0 35 24 58.5t57 23.5
q35 0 59 -23.5t24 -58.5q0 -34 -24 -58t-59 -24q-33 0 -57 24t-24 58z" />
    <glyph glyph-name="eth" unicode="&#xf0;" horiz-adv-x="606" 
d="M424 657q68 -73 110 -164.5t42 -197.5q0 -73 -19.5 -130t-55 -96.5t-85.5 -60t-110 -20.5q-57 0 -106 17t-85 51.5t-56.5 85t-20.5 118.5q0 63 20 111.5t53.5 81t78 49t92.5 16.5q23 0 53 -8t49 -18q-10 21 -29.5 45.5t-44.5 47.5l-67 -42q-15 -10 -31.5 -6t-25.5 18
l-9 13q-8 15 -4.5 31t18.5 25l44 28q-8 5 -15 10.5t-12 10.5q-6 5 -11 13t-5.5 17t4 18t16.5 16l29 19q23 14 41.5 9.5t32.5 -15.5q8 -6 17.5 -12.5t17.5 -13.5l61 39q14 9 31 5t25 -18l8 -13q10 -14 6 -30.5t-18 -26.5zM306 135q19 0 37 6.5t32 22t22 41.5t8 65
q0 32 -9.5 54t-24 35.5t-32.5 19t-34 5.5q-39 0 -67 -31.5t-28 -93.5q0 -65 28 -94.5t68 -29.5z" />
    <glyph glyph-name="ntilde" unicode="&#xf1;" horiz-adv-x="623" 
d="M369 544q91 0 134.5 -56t43.5 -159v-288q0 -17 -12 -29t-29 -12h-82q-17 0 -29 12t-12 29v275q0 41 -13 62t-43 21q-35 0 -58 -21.5t-23 -50.5v-286q0 -17 -12 -29t-29 -12h-82q-17 0 -29 12t-12 29v451q0 17 12 28.5t29 11.5h79q17 0 29 -11.5t12 -28.5v-8h7
q24 30 57 45t62 15zM278 629q-14 11 -23 17.5t-17 6.5q-9 0 -17.5 -10t-8.5 -24q0 -13 -10 -21.5t-21 -8.5h-44q-12 0 -22 10t-10 23q0 39 12 68.5t31.5 50t43.5 30.5t49 10q29 0 51.5 -14t48.5 -32q14 -11 23 -17.5t17 -6.5q9 0 17.5 10t8.5 24q0 13 9.5 22t21.5 9h44
q12 0 21.5 -10.5t9.5 -23.5q0 -39 -12 -68.5t-31 -50t-43 -31t-49 -10.5q-29 0 -52.5 14t-47.5 33z" />
    <glyph glyph-name="ograve" unicode="&#xf2;" horiz-adv-x="623" 
d="M311 129q47 0 77 37.5t30 99.5t-30 99.5t-77 37.5q-46 0 -76 -37.5t-30 -100.5q0 -61 30 -98.5t76 -37.5zM311 544q58 0 107.5 -21t86 -58t57 -87.5t20.5 -110.5q0 -62 -20.5 -113t-57 -88t-86 -57.5t-107.5 -20.5t-107.5 20t-85.5 57t-56.5 87.5t-20.5 112.5
q0 60 20.5 111.5t56.5 88.5t85.5 58t107.5 21zM183 738q-6 9 -7 17.5t2.5 15t10.5 11t15 4.5h84q17 0 30.5 -9.5t20.5 -26.5l47 -114q7 -17 -1.5 -29t-25.5 -12h-40q-33 0 -57 31z" />
    <glyph glyph-name="oacute" unicode="&#xf3;" horiz-adv-x="623" 
d="M311 129q47 0 77 37.5t30 99.5t-30 99.5t-77 37.5q-46 0 -76 -37.5t-30 -100.5q0 -61 30 -98.5t76 -37.5zM311 544q58 0 107.5 -21t86 -58t57 -87.5t20.5 -110.5q0 -62 -20.5 -113t-57 -88t-86 -57.5t-107.5 -20.5t-107.5 20t-85.5 57t-56.5 87.5t-20.5 112.5
q0 60 20.5 111.5t56.5 88.5t85.5 58t107.5 21zM366 626q-23 -31 -57 -31h-40q-17 0 -25 12t-1 29l47 114q7 17 20.5 26.5t30.5 9.5h83q17 0 25.5 -15.5t-3.5 -32.5z" />
    <glyph glyph-name="ocircumflex" unicode="&#xf4;" horiz-adv-x="623" 
d="M311 129q47 0 77 37.5t30 99.5t-30 99.5t-77 37.5q-46 0 -76 -37.5t-30 -100.5q0 -61 30 -98.5t76 -37.5zM311 544q58 0 107.5 -21t86 -58t57 -87.5t20.5 -110.5q0 -62 -20.5 -113t-57 -88t-86 -57.5t-107.5 -20.5t-107.5 20t-85.5 57t-56.5 87.5t-20.5 112.5
q0 60 20.5 111.5t56.5 88.5t85.5 58t107.5 21zM317 679l-31 -53q-10 -17 -25 -24t-32 -7h-66q-17 0 -23 14.5t6 32.5l74 108q11 16 27 26t33 10h75q17 0 33 -10t27 -26l74 -108q12 -18 5.5 -32.5t-23.5 -14.5h-65q-17 0 -32 7t-25 24z" />
    <glyph glyph-name="otilde" unicode="&#xf5;" horiz-adv-x="623" 
d="M311 129q47 0 77 37.5t30 99.5t-30 99.5t-77 37.5q-46 0 -76 -37.5t-30 -100.5q0 -61 30 -98.5t76 -37.5zM311 544q58 0 107.5 -21t86 -58t57 -87.5t20.5 -110.5q0 -62 -20.5 -113t-57 -88t-86 -57.5t-107.5 -20.5t-107.5 20t-85.5 57t-56.5 87.5t-20.5 112.5
q0 60 20.5 111.5t56.5 88.5t85.5 58t107.5 21zM281 629q-14 11 -23 17.5t-17 6.5q-9 0 -17.5 -10t-8.5 -24q0 -13 -10 -21.5t-21 -8.5h-44q-12 0 -22 10t-10 23q0 39 12 68.5t31.5 50t43.5 30.5t49 10q29 0 51.5 -14t48.5 -32q14 -11 23 -17.5t17 -6.5q9 0 17.5 10t8.5 24
q0 13 9.5 22t21.5 9h44q12 0 21.5 -10.5t9.5 -23.5q0 -39 -12 -68.5t-31 -50t-43 -31t-49 -10.5q-29 0 -52.5 14t-47.5 33z" />
    <glyph glyph-name="odieresis" unicode="&#xf6;" horiz-adv-x="623" 
d="M311 129q47 0 77 37.5t30 99.5t-30 99.5t-77 37.5q-46 0 -76 -37.5t-30 -100.5q0 -61 30 -98.5t76 -37.5zM311 544q58 0 107.5 -21t86 -58t57 -87.5t20.5 -110.5q0 -62 -20.5 -113t-57 -88t-86 -57.5t-107.5 -20.5t-107.5 20t-85.5 57t-56.5 87.5t-20.5 112.5
q0 60 20.5 111.5t56.5 88.5t85.5 58t107.5 21zM129 705q0 35 23.5 58.5t57.5 23.5q35 0 59 -23.5t24 -58.5q0 -34 -24 -58t-59 -24q-34 0 -57.5 24t-23.5 58zM340 705q0 35 24 58.5t57 23.5q35 0 59 -23.5t24 -58.5q0 -34 -24 -58t-59 -24q-33 0 -57 24t-24 58z" />
    <glyph glyph-name="divide" unicode="&#xf7;" 
d="M592 297q0 -17 -12 -29t-29 -12h-469q-17 0 -29 12t-12 29v62q0 17 12 29t29 12h469q17 0 29 -12t12 -29v-62zM218 126q0 19 7 36t19.5 29.5t29 19.5t35.5 7t36 -7t29.5 -19.5t19.5 -29.5t7 -36t-7 -35.5t-19.5 -28.5t-29.5 -19t-36 -7q-38 0 -64.5 26t-26.5 64zM218 526
q0 19 7 36t19.5 29.5t29 19.5t35.5 7t36 -7t29.5 -19.5t19.5 -29.5t7 -36t-7 -35.5t-19.5 -28.5t-29.5 -19t-36 -7q-38 0 -64.5 26t-26.5 64z" />
    <glyph glyph-name="oslash" unicode="&#xf8;" horiz-adv-x="621" 
d="M310 545q49 0 95 -17q17 17 44 17h35q17 0 27 -15.5t0 -32.5l-14 -25q39 -38 61.5 -90t22.5 -115q0 -62 -20.5 -113t-57 -88t-86 -57.5t-107.5 -20.5q-26 0 -49.5 4t-46.5 11q-18 -15 -42 -15h-35q-17 0 -27 15.5t0 32.5l13 22q-40 37 -61.5 90t-21.5 117
q0 60 20.5 111.5t56.5 89t85.5 58.5t107.5 21zM194 265q0 -39 12 -67l121 205q-5 1 -8.5 1h-8.5q-51 0 -83.5 -38t-32.5 -101zM310 129q51 0 84 37.5t33 99.5q0 39 -13 68l-120 -204q5 -1 16 -1z" />
    <glyph glyph-name="ugrave" unicode="&#xf9;" horiz-adv-x="617" 
d="M254 -12q-91 0 -134.5 56t-43.5 159v289q0 17 12 28.5t29 11.5h82q17 0 29 -11.5t12 -28.5v-276q0 -41 13 -62t43 -21q35 0 58 21.5t23 50.5v287q0 17 12 28.5t29 11.5h82q17 0 29 -11.5t12 -28.5v-451q0 -17 -12 -29t-29 -12h-79q-17 0 -29 12t-12 29v7h-7
q-24 -30 -57 -45t-62 -15zM175 738q-6 9 -7 17.5t2.5 15t10.5 11t15 4.5h84q17 0 30.5 -9.5t20.5 -26.5l47 -114q7 -17 -1.5 -29t-25.5 -12h-40q-33 0 -57 31z" />
    <glyph glyph-name="uacute" unicode="&#xfa;" horiz-adv-x="617" 
d="M254 -12q-91 0 -134.5 56t-43.5 159v289q0 17 12 28.5t29 11.5h82q17 0 29 -11.5t12 -28.5v-276q0 -41 13 -62t43 -21q35 0 58 21.5t23 50.5v287q0 17 12 28.5t29 11.5h82q17 0 29 -11.5t12 -28.5v-451q0 -17 -12 -29t-29 -12h-79q-17 0 -29 12t-12 29v7h-7
q-24 -30 -57 -45t-62 -15zM358 626q-23 -31 -57 -31h-40q-17 0 -25 12t-1 29l47 114q7 17 20.5 26.5t30.5 9.5h83q17 0 25.5 -15.5t-3.5 -32.5z" />
    <glyph glyph-name="ucircumflex" unicode="&#xfb;" horiz-adv-x="617" 
d="M254 -12q-91 0 -134.5 56t-43.5 159v289q0 17 12 28.5t29 11.5h82q17 0 29 -11.5t12 -28.5v-276q0 -41 13 -62t43 -21q35 0 58 21.5t23 50.5v287q0 17 12 28.5t29 11.5h82q17 0 29 -11.5t12 -28.5v-451q0 -17 -12 -29t-29 -12h-79q-17 0 -29 12t-12 29v7h-7
q-24 -30 -57 -45t-62 -15zM312 679l-31 -53q-10 -17 -25 -24t-32 -7h-66q-17 0 -23 14.5t6 32.5l74 108q11 16 27 26t33 10h75q17 0 33 -10t27 -26l74 -108q12 -18 5.5 -32.5t-23.5 -14.5h-65q-17 0 -32 7t-25 24z" />
    <glyph glyph-name="udieresis" unicode="&#xfc;" horiz-adv-x="617" 
d="M254 -12q-91 0 -134.5 56t-43.5 159v289q0 17 12 28.5t29 11.5h82q17 0 29 -11.5t12 -28.5v-276q0 -41 13 -62t43 -21q35 0 58 21.5t23 50.5v287q0 17 12 28.5t29 11.5h82q17 0 29 -11.5t12 -28.5v-451q0 -17 -12 -29t-29 -12h-79q-17 0 -29 12t-12 29v7h-7
q-24 -30 -57 -45t-62 -15zM123 705q0 35 23.5 58.5t57.5 23.5q35 0 59 -23.5t24 -58.5q0 -34 -24 -58t-59 -24q-34 0 -57.5 24t-23.5 58zM334 705q0 35 24 58.5t57 23.5q35 0 59 -23.5t24 -58.5q0 -34 -24 -58t-59 -24q-33 0 -57 24t-24 58z" />
    <glyph glyph-name="yacute" unicode="&#xfd;" horiz-adv-x="557" 
d="M286 -170q-15 -34 -46 -34h-82q-20 0 -29 14.5t-2 31.5l70 185l-174 460q-6 17 2.5 31t28.5 14h82q32 0 46 -33l65 -171q7 -17 11.5 -32t8.5 -27q4 -14 7 -26h9q3 12 7 26q3 12 8 27t12 32l65 171q15 33 46 33h82q20 0 29 -14t1 -31zM335 626q-23 -31 -57 -31h-40
q-17 0 -25 12t-1 29l47 114q7 17 20.5 26.5t30.5 9.5h83q17 0 25.5 -15.5t-3.5 -32.5z" />
    <glyph glyph-name="thorn" unicode="&#xfe;" horiz-adv-x="631" 
d="M330 131q45 0 70.5 35.5t25.5 99.5q0 62 -25 98.5t-67 36.5q-18 0 -35 -10.5t-30 -30t-21 -47.5t-8 -64v-87q14 -11 36 -21t54 -10zM591 269q0 -64 -18.5 -116t-50.5 -88.5t-75.5 -56.5t-93.5 -20q-46 0 -71.5 8t-41.5 17v-176q0 -17 -12 -29t-29 -12h-82q-17 0 -29 12
t-12 29v846q0 17 12 29t29 12h81q17 0 29.5 -12t12.5 -29v-119q0 -14 -0.5 -28.5t-1.5 -25.5q-1 -13 -1 -26h7q24 30 55.5 45.5t66.5 15.5q46 0 86.5 -18t71.5 -53t49 -86.5t18 -118.5z" />
    <glyph glyph-name="ydieresis" unicode="&#xff;" horiz-adv-x="557" 
d="M286 -170q-15 -34 -46 -34h-82q-20 0 -29 14.5t-2 31.5l70 185l-174 460q-6 17 2.5 31t28.5 14h82q32 0 46 -33l65 -171q7 -17 11.5 -32t8.5 -27q4 -14 7 -26h9q3 12 7 26q3 12 8 27t12 32l65 171q15 33 46 33h82q20 0 29 -14t1 -31zM91 705q0 35 23.5 58.5t57.5 23.5
q35 0 59 -23.5t24 -58.5q0 -34 -24 -58t-59 -24q-34 0 -57.5 24t-23.5 58zM302 705q0 35 24 58.5t57 23.5q35 0 59 -23.5t24 -58.5q0 -34 -24 -58t-59 -24q-33 0 -57 24t-24 58z" />
    <glyph glyph-name="dotlessi" unicode="&#x131;" horiz-adv-x="316" 
d="M240 41q0 -17 -12 -29t-29 -12h-82q-17 0 -29 12t-12 29v451q0 17 12 28.5t29 11.5h82q17 0 29 -11.5t12 -28.5v-451v0z" />
    <glyph glyph-name="OE" unicode="&#x152;" horiz-adv-x="1222" 
d="M1125 725q17 0 29 -12t12 -29v-72q0 -17 -12 -29t-29 -12h-339v-123h295q17 0 29 -12t12 -29v-72q0 -17 -12 -29t-29 -12h-295v-140h339q17 0 29 -12t12 -29v-72q0 -17 -12 -29t-29 -12h-467q-17 0 -29 10t-12 27v7q-44 -27 -94 -41.5t-104 -14.5q-74 0 -141 27
t-117.5 76t-80 117.5t-29.5 151.5q0 76 26.5 144.5t74.5 120.5t116 82t151 30q57 0 106.5 -14.5t91.5 -41.5v7q0 17 12 27t29 10h467zM419 142q41 0 76.5 16.5t62 45.5t42 69t15.5 87q0 50 -15.5 91t-42 70.5t-62 45.5t-76.5 16t-77 -16t-62.5 -45.5t-42 -70.5t-15.5 -91
q0 -47 15.5 -87t42 -69t62.5 -45.5t77 -16.5z" />
    <glyph glyph-name="oe" unicode="&#x153;" horiz-adv-x="941" 
d="M584 214q1 -20 11 -36t25 -27.5t33.5 -18t36.5 -6.5q16 0 34.5 3t37 7.5t35.5 10.5t30 13q15 8 31 2t23 -21l21 -47q7 -16 1 -31t-21 -23q-38 -23 -85.5 -37.5t-105.5 -14.5q-126 0 -196 69q-36 -33 -83.5 -51t-101.5 -18q-58 0 -107.5 20t-85.5 57t-56.5 87.5
t-20.5 112.5q0 60 20.5 111.5t56.5 88.5t85.5 58t107.5 21q54 0 102 -19t84 -53q35 35 81.5 53.5t104.5 18.5q53 0 98 -16t78 -50.5t51.5 -89.5t18.5 -133q0 -17 -12 -29t-29 -12h-303zM310 129q47 0 77 37.5t30 99.5t-30 100t-77 38q-46 0 -76 -38t-30 -101q0 -61 30 -98.5
t76 -37.5zM680 409q-32 0 -56.5 -20.5t-31.5 -55.5h170q0 16 -7.5 30t-19 24.5t-26 16t-29.5 5.5z" />
    <glyph glyph-name="Scaron" unicode="&#x160;" horiz-adv-x="675" 
d="M66 91q-12 11 -14.5 27.5t8.5 29.5l48 58q11 13 27.5 14.5t29.5 -9.5q22 -18 41 -31t39 -21.5t42 -12.5t49 -4q54 0 85.5 20.5t31.5 55.5q0 33 -38 51t-122 32q-114 20 -172 76t-58 141q0 49 22 89t59.5 69t87 45t103.5 16q72 0 136 -25t126 -76q13 -11 15 -27t-9 -30
l-48 -58q-11 -13 -27.5 -14.5t-29.5 9.5q-38 31 -78 49t-86 18q-47 0 -73 -17.5t-26 -46.5q0 -23 27 -39.5t87 -26.5q134 -24 204.5 -79.5t70.5 -151.5q0 -52 -21.5 -95t-60 -74t-91.5 -48t-117 -17q-89 0 -153 26.5t-115 76.5zM373 948q10 17 25 24t32 7h65
q17 0 23.5 -14.5t-5.5 -32.5l-74 -108q-11 -16 -27 -26t-33 -10h-75q-17 0 -33 10t-27 26l-74 108q-12 18 -6 32.5t23 14.5h66q17 0 32 -7t25 -24l31 -53z" />
    <glyph glyph-name="scaron" unicode="&#x161;" horiz-adv-x="510" 
d="M246 123q26 0 43.5 10t17.5 27t-21 26.5t-61 18.5q-30 7 -61 18.5t-55.5 31t-40.5 47.5t-16 68q0 36 15 67.5t42 55.5t65.5 37.5t85.5 13.5q56 0 96.5 -12t73.5 -26q16 -6 22.5 -21.5t0.5 -30.5l-18 -43q-8 -16 -22.5 -22.5t-31.5 0.5q-20 8 -53.5 14.5t-63.5 6.5
q-22 0 -36 -9.5t-14 -23.5q0 -16 19.5 -24.5t54.5 -16.5q34 -9 67 -20t58 -30t40.5 -48t15.5 -72q0 -38 -17 -70.5t-47 -56.5t-71.5 -37.5t-90.5 -13.5q-56 0 -100.5 14.5t-77.5 30.5q-15 7 -21 21.5t1 30.5l22 47q7 15 23 20.5t31 -0.5q21 -9 54 -19t71 -10zM297 755
q10 17 25 24t32 7h65q17 0 23.5 -14.5t-5.5 -32.5l-74 -108q-11 -16 -27 -26t-33 -10h-75q-17 0 -33 10t-27 26l-74 108q-12 18 -6 32.5t23 14.5h66q17 0 32 -7t25 -24l31 -53z" />
    <glyph glyph-name="Ydieresis" unicode="&#x178;" horiz-adv-x="677" 
d="M659 725q10 0 18 -5t11.5 -13t3.5 -17.5t-6 -18.5l-263 -382v-248q0 -17 -11.5 -29t-28.5 -12h-88q-17 0 -29 12t-12 29v248l-262 382q-6 9 -6 18.5t3.5 17.5t11.5 13t19 5h94q17 0 34 -7.5t29 -24.5l162 -239l163 239q11 17 28 24.5t34 7.5h95zM153 898q0 35 23.5 58.5
t57.5 23.5q35 0 59 -23.5t24 -58.5q0 -34 -24 -58t-59 -24q-34 0 -57.5 24t-23.5 58zM364 898q0 35 24 58.5t57 23.5q35 0 59 -23.5t24 -58.5q0 -34 -24 -58t-59 -24q-33 0 -57 24t-24 58z" />
    <glyph glyph-name="Zcaron" unicode="&#x17d;" horiz-adv-x="698" 
d="M611 154q17 0 29 -12t12 -29v-72q0 -17 -12 -29t-29 -12h-524q-17 0 -29 12t-12 29v64q0 23 9 35l353 431h-313q-17 0 -29 12t-12 29v72q0 17 12 29t29 12h507q17 0 29 -12t12 -29v-64q0 -11 -2.5 -19.5t-11.5 -19.5l-353 -427h335zM393 948q10 17 25 24t32 7h65
q17 0 23.5 -14.5t-5.5 -32.5l-74 -108q-11 -16 -27 -26t-33 -10h-75q-17 0 -33 10t-27 26l-74 108q-12 18 -6 32.5t23 14.5h66q17 0 32 -7t25 -24l31 -53z" />
    <glyph glyph-name="zcaron" unicode="&#x17e;" horiz-adv-x="528" 
d="M457 139q17 0 29 -12t12 -29v-57q0 -17 -12 -29t-29 -12h-386q-17 0 -28.5 12t-11.5 29v49q0 13 2 20t7 14l228 270h-188q-17 0 -29 12t-12 29v57q0 17 12 28.5t29 11.5h369q17 0 29 -11.5t12 -28.5v-49q0 -12 -3 -20.5t-11 -18.5l-227 -265h208zM308 755q10 17 25 24
t32 7h65q17 0 23.5 -14.5t-5.5 -32.5l-74 -108q-11 -16 -27 -26t-33 -10h-75q-17 0 -33 10t-27 26l-74 108q-12 18 -6 32.5t23 14.5h66q17 0 32 -7t25 -24l31 -53z" />
    <glyph glyph-name="florin" unicode="&#x192;" horiz-adv-x="569" 
d="M34 -150q-17 2 -26.5 15.5t-6.5 30.5l10 55q3 17 17.5 29t30.5 7q8 -2 22 -4.5t23 -2.5q20 0 32 26t22 80l50 273h-53q-17 0 -27 12t-7 29l10 51q3 17 16.5 29t30.5 12h55l12 71q23 87 72.5 137t132.5 50q20 0 37.5 -3.5t37.5 -5.5q17 -3 26.5 -16t6.5 -30l-10 -55
q-3 -17 -17 -27.5t-31 -8.5q-4 0 -11 0.5t-13.5 1t-11.5 1t-6 0.5q-14 0 -30.5 -22.5t-24.5 -61.5q-2 -8 -2.5 -15.5t-2.5 -15.5h74q17 0 26.5 -12t6.5 -29l-9 -51q-3 -17 -17 -29t-31 -12h-75l-51 -281q-14 -62 -31 -106.5t-41 -73.5t-57 -43t-80 -14q-17 0 -37 3t-42 6z
" />
    <glyph glyph-name="circumflex" unicode="&#x2c6;" horiz-adv-x="552" 
d="M278 679l-31 -53q-10 -17 -25 -24t-32 -7h-66q-17 0 -23 14.5t6 32.5l74 108q11 16 27 26t33 10h75q17 0 33 -10t27 -26l74 -108q12 -18 5.5 -32.5t-23.5 -14.5h-65q-17 0 -32 7t-25 24z" />
    <glyph glyph-name="tilde" unicode="&#x2dc;" horiz-adv-x="512" 
d="M227 629q-14 11 -23 17.5t-17 6.5q-9 0 -17.5 -10t-8.5 -24q0 -13 -10 -21.5t-21 -8.5h-44q-12 0 -22 10t-10 23q0 39 12 68.5t31.5 50t43.5 30.5t49 10q29 0 51.5 -14t48.5 -32q14 -11 23 -17.5t17 -6.5q9 0 17.5 10t8.5 24q0 13 9.5 22t21.5 9h44q12 0 21.5 -10.5
t9.5 -23.5q0 -39 -12 -68.5t-31 -50t-43 -31t-49 -10.5q-29 0 -52.5 14t-47.5 33z" />
    <glyph glyph-name="endash" unicode="&#x2013;" horiz-adv-x="593" 
d="M567 262q0 -17 -12 -29t-29 -12h-460q-17 0 -29 12t-12 29v56q0 17 12 29t29 12h460q17 0 29 -12t12 -29v-56v0z" />
    <glyph glyph-name="emdash" unicode="&#x2014;" horiz-adv-x="948" 
d="M922 262q0 -17 -12 -29t-29 -12h-815q-17 0 -29 12t-12 29v56q0 17 12 29t29 12h815q17 0 29 -12t12 -29v-56v0z" />
    <glyph glyph-name="quoteleft" unicode="&#x2018;" horiz-adv-x="307" 
d="M245 721q-4 -6 -11 -21t-14.5 -33t-13.5 -35.5t-9 -28.5q-1 -3 0 -6l2 -6q17 -8 29 -28.5t12 -48.5q0 -18 -6.5 -34.5t-18.5 -29t-28 -20.5t-35 -8t-36.5 7t-30.5 20t-21 32.5t-8 45.5q0 21 10.5 53.5t27.5 68t37.5 69t40.5 55.5q8 7 18.5 8t20.5 -5q13 -8 17 -8.5
t12 -7.5q8 -8 10 -18.5t-5 -20.5z" />
    <glyph glyph-name="quoteright" unicode="&#x2019;" horiz-adv-x="307" 
d="M62 486q4 6 11 21t14.5 32.5t13.5 35t9 29.5q1 3 0 6l-2 6q-17 8 -29 28.5t-12 48.5q0 17 6.5 33.5t18.5 29t28 20.5t35 8t36.5 -6.5t30.5 -20t21 -33t8 -45.5q0 -21 -10.5 -53.5t-27.5 -68t-37.5 -69t-40.5 -55.5q-8 -7 -18.5 -8t-20.5 5l-10.5 6t-6.5 3.5t-5.5 3
t-6.5 4.5q-8 8 -10 18t5 21z" />
    <glyph glyph-name="quotesinglbase" unicode="&#x201a;" horiz-adv-x="307" 
d="M62 -118q4 6 11 21t14.5 32.5t13.5 35t9 29.5q1 3 0 6l-2 6q-17 8 -29 28.5t-12 48.5q0 18 6.5 34.5t18.5 29t28 20.5t35 8t36.5 -7t30.5 -20.5t21 -33t8 -45.5q0 -21 -10.5 -53.5t-27.5 -68t-37.5 -68.5t-40.5 -55q-8 -8 -18.5 -9t-20.5 6l-10.5 6t-6.5 3t-5.5 2.5
t-6.5 4.5q-8 8 -10 18t5 21z" />
    <glyph glyph-name="quotedblleft" unicode="&#x201c;" horiz-adv-x="518" 
d="M456 721q-4 -6 -11 -21t-14.5 -33t-13.5 -35.5t-9 -28.5q-1 -3 0 -6l2 -6q17 -8 29 -28.5t12 -48.5q0 -18 -6.5 -34.5t-18.5 -29t-28 -20.5t-35 -8t-36.5 7t-30.5 20t-21 32.5t-8 45.5q0 21 10.5 53.5t27.5 68t38 69t41 55.5q7 7 17.5 8t20.5 -5q7 -4 11 -6t7 -3t5 -2.5
l6 -4.5q8 -8 10 -18.5t-5 -20.5zM245 721q-4 -6 -11 -21t-14.5 -33t-13.5 -35.5t-9 -28.5q-1 -3 0 -6l2 -6q17 -8 29 -28.5t12 -48.5q0 -18 -6.5 -34.5t-18.5 -29t-28 -20.5t-35 -8t-36.5 7t-30.5 20t-21 32.5t-8 45.5q0 21 10.5 53.5t27.5 68t37.5 69t40.5 55.5q8 7 18.5 8
t20.5 -5q13 -8 17 -8.5t12 -7.5q8 -8 10 -18.5t-5 -20.5z" />
    <glyph glyph-name="quotedblright" unicode="&#x201d;" horiz-adv-x="518" 
d="M62 486q4 6 11 21t14.5 32.5t13.5 35t9 29.5q1 3 0 6l-2 6q-17 8 -29 28.5t-12 48.5q0 17 6.5 33.5t18.5 29t28 20.5t35 8t36.5 -6.5t30.5 -20t21 -33t8 -45.5q0 -21 -10.5 -53.5t-27.5 -68t-37.5 -69t-40.5 -55.5q-8 -7 -18.5 -8t-20.5 5l-10.5 6t-6.5 3.5t-5.5 3
t-6.5 4.5q-8 8 -10 18t5 21zM273 486q4 6 11.5 21t14.5 32.5t13 35t9 29.5q1 3 0 6l-2 6q-17 8 -29 28.5t-12 48.5q0 17 6.5 33.5t18.5 29t28 20.5t35 8t36.5 -6.5t30.5 -20t21 -33t8 -45.5q0 -21 -10.5 -53.5t-27.5 -68t-37.5 -69t-40.5 -55.5q-7 -7 -18 -8t-21 5l-10.5 6
t-6.5 3.5t-5.5 3t-6.5 4.5q-8 8 -10 18t5 21z" />
    <glyph glyph-name="quotedblbase" unicode="&#x201e;" horiz-adv-x="518" 
d="M62 -118q4 6 11 21t14.5 32.5t13.5 35t9 29.5q1 3 0 6l-2 6q-17 8 -29 28.5t-12 48.5q0 18 6.5 34.5t18.5 29t28 20.5t35 8t36.5 -7t30.5 -20.5t21 -33t8 -45.5q0 -21 -10.5 -53.5t-27.5 -68t-37.5 -68.5t-40.5 -55q-8 -8 -18.5 -9t-20.5 6l-10.5 6t-6.5 3t-5.5 2.5
t-6.5 4.5q-8 8 -10 18t5 21zM273 -118q4 6 11.5 21t14.5 32.5t13 35t9 29.5q1 3 0 6l-2 6q-17 8 -29 28.5t-12 48.5q0 18 6.5 34.5t18.5 29t28 20.5t35 8t36.5 -7t30.5 -20.5t21 -33t8 -45.5q0 -21 -10.5 -53.5t-27.5 -68t-37.5 -68.5t-40.5 -55q-7 -8 -18 -9t-21 6l-10.5 6
t-6.5 3t-5.5 2.5t-6.5 4.5q-8 8 -10 18t5 21z" />
    <glyph glyph-name="dagger" unicode="&#x2020;" horiz-adv-x="566" 
d="M209 697q0 17 12 28.5t29 11.5h69q17 0 29 -11.5t12 -28.5v-165h130q17 0 28.5 -11.5t11.5 -28.5v-53q0 -17 -11.5 -29t-28.5 -12h-130v-410q0 -17 -12 -29t-29 -12h-69q-17 0 -29 12t-12 29v410h-133q-17 0 -28.5 12t-11.5 29v53q0 17 11.5 28.5t28.5 11.5h133v165v0z
" />
    <glyph glyph-name="daggerdbl" unicode="&#x2021;" horiz-adv-x="566" 
d="M209 697q0 17 12 28.5t29 11.5h69q17 0 29 -11.5t12 -28.5v-165h130q17 0 28.5 -11.5t11.5 -28.5v-53q0 -17 -11.5 -29t-28.5 -12h-130v-130h130q17 0 28.5 -12t11.5 -29v-53q0 -17 -11.5 -28.5t-28.5 -11.5h-130v-146q0 -17 -12 -29t-29 -12h-69q-17 0 -29 12t-12 29
v146h-133q-17 0 -28.5 11.5t-11.5 28.5v53q0 17 11.5 29t28.5 12h133v130h-133q-17 0 -28.5 12t-11.5 29v53q0 17 11.5 28.5t28.5 11.5h133v165v0z" />
    <glyph glyph-name="bullet" unicode="&#x2022;" horiz-adv-x="425" 
d="M44 333q0 35 13 66t36 54.5t54 37t67 13.5t67 -13.5t54.5 -37t37 -54.5t13.5 -66q0 -36 -13.5 -67t-37 -54t-54.5 -36.5t-67 -13.5t-67 13.5t-54 36.5t-36 54t-13 67z" />
    <glyph glyph-name="ellipsis" unicode="&#x2026;" horiz-adv-x="830" 
d="M56 79q0 19 7 35.5t19.5 29t29 19.5t35.5 7t36 -7t29.5 -19.5t19.5 -29t7 -35.5t-7 -35.5t-19.5 -29t-29.5 -19.5t-36 -7q-38 0 -64.5 26.5t-26.5 64.5zM323 79q0 19 7 35.5t19.5 29t29 19.5t35.5 7t36 -7t29.5 -19.5t19.5 -29t7 -35.5t-7 -35.5t-19.5 -29t-29.5 -19.5
t-36 -7q-38 0 -64.5 26.5t-26.5 64.5zM592 79q0 19 7 35.5t19 29t28.5 19.5t35.5 7t36 -7t29.5 -19.5t19.5 -29t7 -35.5t-7 -35.5t-19.5 -29t-29.5 -19.5t-36 -7q-38 0 -64 26.5t-26 64.5z" />
    <glyph glyph-name="perthousand" unicode="&#x2030;" horiz-adv-x="1135" 
d="M185 731q74 0 115.5 -48t41.5 -155t-41 -155t-116 -48q-73 0 -114.5 48t-41.5 155t41.5 155t114.5 48zM185 423q24 0 38 25t14 80q0 56 -14 80.5t-38 24.5q-23 0 -37 -24.5t-14 -80.5q0 -55 14 -80t37 -25zM268 34q-10 -17 -25 -25.5t-32 -8.5h-24q-17 0 -27 15.5t0 32.5
l381 644q10 17 25 25t32 8h24q17 0 27 -15.5t0 -32.5zM613 400q74 0 115.5 -48t41.5 -155t-41.5 -155t-115.5 -48q-73 0 -114.5 48t-41.5 155t41.5 155t114.5 48zM613 92q25 0 38.5 24.5t13.5 80.5q0 55 -13.5 80t-38.5 25q-23 0 -37 -25t-14 -80q0 -56 14 -80.5t37 -24.5z
M956 400q74 0 115.5 -48t41.5 -155t-41.5 -155t-115.5 -48q-73 0 -114.5 48t-41.5 155t41.5 155t114.5 48zM956 92q24 0 38 24.5t14 80.5q0 55 -14 80t-38 25q-23 0 -37 -25t-14 -80q0 -56 14 -80.5t37 -24.5z" />
    <glyph glyph-name="guilsinglleft" unicode="&#x2039;" horiz-adv-x="391" 
d="M198 290l138 -138q11 -11 11 -28.5t-11 -28.5l-40 -40q-13 -12 -29.5 -12t-28.5 12l-210 210q-13 13 -13 29.5t13 28.5l209 209q12 13 28.5 13t29.5 -13l51 -51q11 -12 7.5 -25t-14.5 -26z" />
    <glyph glyph-name="guilsinglright" unicode="&#x203a;" horiz-adv-x="391" 
d="M32 430q-12 13 -15.5 26t7.5 25l51 51q13 13 29.5 13t29.5 -13l209 -209q12 -12 12 -28.5t-12 -29.5l-210 -210q-13 -12 -29.5 -12t-29.5 12l-39 40q-12 11 -12 28.5t12 28.5l137 138z" />
    <glyph glyph-name="Euro" unicode="&#x20ac;" horiz-adv-x="729" 
d="M673 108q9 -14 5.5 -31t-17.5 -26q-44 -30 -95.5 -46.5t-112.5 -16.5q-64 0 -119.5 16.5t-100 47.5t-77 74t-50.5 96h-61q-17 0 -29 12t-12 29v36q0 17 12 29t29 12h40q-1 6 -1 11.5v11.5v12t1 12h-40q-17 0 -29 11.5t-12 28.5v36q0 17 12 29t29 12h61q18 53 50.5 96
t77 73.5t100 47t119.5 16.5q61 0 112.5 -16t95.5 -46q14 -10 17.5 -26.5t-5.5 -30.5l-42 -62q-9 -14 -25.5 -18t-30.5 6q-28 18 -58 28.5t-64 10.5q-48 0 -88.5 -20.5t-68.5 -58.5h218q17 0 29 -12t12 -29v-36q0 -17 -12 -28.5t-29 -11.5h-260q0 -6 -0.5 -12t-0.5 -12
t0.5 -11.5t0.5 -11.5h260q17 0 29 -12t12 -29v-36q0 -17 -12 -29t-29 -12h-218q28 -38 68.5 -59t88.5 -21q34 0 64 10.5t58 30.5q14 9 30.5 5t25.5 -18z" />
    <glyph glyph-name="trademark" unicode="&#x2122;" horiz-adv-x="818" 
d="M621 401q-5 -13 -16 -18.5t-20 -7.5h-14q-10 0 -22 4.5t-17 21.5l-71 166h-4v-204q0 -16 -11.5 -28t-29.5 -12h-10q-17 0 -29 12t-12 28v320q0 18 12 30t29 12h63q10 0 21 -8t16 -17l70 -173l72 173q4 9 15 17t22 8h59q16 0 28.5 -12t12.5 -30v-320q0 -16 -12.5 -28
t-28.5 -12h-12q-16 0 -28.5 12t-12.5 28v204h-5zM335 676q0 -17 -11.5 -29t-29.5 -12h-74v-272q0 -16 -11.5 -28t-28.5 -12h-15q-16 0 -28 12t-12 28v272h-73q-17 0 -29 12t-12 29v7q0 18 12 30t29 12h242q18 0 29.5 -12t11.5 -30v-7z" />
    </font>
</defs>
</svg>
