<?xml version="1.0" standalone="no"?>
<!DOCTYPE svg PUBLIC "-//W3C//DTD SVG 1.1//EN" "http://www.w3.org/Graphics/SVG/1.1/DTD/svg11.dtd" >
<svg xmlns="http://www.w3.org/2000/svg" xmlns:xlink="http://www.w3.org/1999/xlink" version="1.1">
<metadata>
Created by FontForge 20170731 at Sat Jul 23 01:17:27 2011
 By Aleksey,,,
Copyright (c) 2010 by Natalia Raices. All rights reserved.
</metadata>
<defs>
<font id="Delius-Regular" horiz-adv-x="436" >
  <font-face 
    font-family="Delius"
    font-weight="400"
    font-stretch="normal"
    units-per-em="1000"
    panose-1="2 0 6 3 0 0 0 0 0 0"
    ascent="800"
    descent="-200"
    x-height="505"
    cap-height="756"
    bbox="-66 -270 1187 986"
    underline-thickness="50"
    underline-position="-250"
    unicode-range="U+0020-FB03"
  />
<missing-glyph horiz-adv-x="1000" 
 />
    <glyph glyph-name=".notdef" horiz-adv-x="1000" 
 />
    <glyph glyph-name=".null" horiz-adv-x="0" 
 />
    <glyph glyph-name="nonmarkingreturn" horiz-adv-x="333" 
 />
    <glyph glyph-name="space" unicode=" " horiz-adv-x="238" 
 />
    <glyph glyph-name="exclam" unicode="!" horiz-adv-x="242" 
d="M156 85q11 -15 11 -38.5t-14.5 -42.5t-35 -19t-31.5 16t-11 38.5t14.5 41.5t35 19t31.5 -15zM154 468l3 -212q0 -50 -36 -50t-36 50l3 212q0 59 -3.5 147.5t-3.5 94.5q0 50 40 50t40 -50q0 -6 -3.5 -94.5t-3.5 -147.5z" />
    <glyph glyph-name="quotedbl" unicode="&#x22;" horiz-adv-x="342" 
d="M276.5 711.5q10.5 -13.5 10.5 -27.5t-6 -58t-7.5 -74.5t-6.5 -46t-19.5 -15.5t-20 16t-7 46t-7.5 73.5t-6 58t10.5 28t29.5 13.5t29.5 -13.5zM124.5 711.5q10.5 -13.5 10.5 -27.5t-6 -58t-7.5 -74.5t-6.5 -46t-19.5 -15.5t-20 16t-7 46t-7.5 73.5t-6 58t10.5 28
t29.5 13.5t29.5 -13.5z" />
    <glyph glyph-name="numbersign" unicode="#" horiz-adv-x="803" 
d="M472 274l32 167h-176l-32 -167h176zM665 212l-141 2q-13 -70 -33 -187q-8 -41 -41 -41q-13 0 -21 9t-8 22.5t5 36.5q20 95 32 162h-173q-11 -57 -21 -117.5t-12 -72.5q-8 -41 -41 -41q-13 0 -21 9t-8 22.5t5 36.5t15.5 70t18.5 92l-127 -3q-46 0 -46 33t46 33l140 -3
l32 165l-129 -3q-46 0 -46 33t46 33l139 -3q11 51 20.5 106t11.5 66q8 41 41 41q13 0 21 -9.5t8 -22t-5 -35t-14.5 -65t-17.5 -82.5h173q11 51 21 107t12 67q8 41 41 41q13 0 21 -9.5t8 -22t-5 -35t-14.5 -65t-17.5 -82.5l129 3q46 0 46 -33t-46 -33l-142 3l-32 -165l130 3
q46 0 46 -33t-46 -33z" />
    <glyph glyph-name="dollar" unicode="$" horiz-adv-x="554" 
d="M503 186q0 -75 -50 -129.5t-134 -67.5q2 -25 2 -48q0 -51 -35 -51t-35 51l1 46q-77 5 -138.5 39.5t-61.5 66.5q0 14 8 22.5t21 8.5t33 -16q65 -52 140 -57q2 140 2 307q-81 46 -127.5 92t-46.5 105.5t47 103t123 51.5v39q0 51 34 51t34 -51v-39q64 -6 107 -30t43 -53
q0 -11 -7.5 -19.5t-22 -8.5t-52 22.5t-70.5 23.5q-2 -120 -2 -241q81 -48 119 -83t53 -67t15 -68zM396 98.5q32 36.5 32 82t-29 77.5t-83 65q0 -202 1 -269q47 8 79 44.5zM155 555q0 -53 101 -117q0 136 -2 207q-43 -5 -71 -28t-28 -62z" />
    <glyph glyph-name="percent" unicode="%" horiz-adv-x="804" 
d="M585 706q0 -43 -56 -104q-198 -567 -208 -592t-36 -25q-13 0 -22 9t-9 24.5t25 76.5q101 247 178 482q-17 -8 -45.5 -8t-75.5 14q5 -18 5 -41q0 -73 -40.5 -123t-106 -50t-106 48.5t-40.5 123t42 124.5t101 50t112 -43.5t100.5 -43.5t68.5 18l8 28q18 65 37 79
q9 7 25.5 7t29.5 -15.5t13 -38.5zM257.5 458.5q22.5 32.5 22.5 82.5t-22 83.5t-62 33.5t-62.5 -32.5t-22.5 -82.5t22.5 -83.5t62 -33.5t62 32.5zM716.5 282.5q40.5 -48.5 40.5 -123t-42 -124.5t-107.5 -50t-106 48.5t-40.5 123t42 124.5t107.5 50t106 -48.5zM670.5 74.5
q22.5 32.5 22.5 82.5t-22 83.5t-61.5 33.5t-62 -32.5t-22.5 -82.5t22 -83.5t61.5 -33.5t62 32.5z" />
    <glyph glyph-name="ampersand" unicode="&#x26;" horiz-adv-x="765" 
d="M410 354l125 -5q52 0 96 26t44 75q0 74 -76 100q-29 10 -41.5 19t-12.5 24.5t10.5 24t27.5 8.5q55 0 107.5 -54t52.5 -115.5t-37 -100.5q-64 -70 -198 -70q27 -45 27 -109t-63.5 -128t-174 -64t-180.5 71t-70 176q0 60 34.5 117t92.5 95q-30 27 -53 66t-23 80
q0 64 46 109.5t126 45.5q52 0 96 -23t44 -50q0 -16 -9.5 -24.5t-21.5 -8.5t-42 20.5t-71.5 20.5t-69.5 -24t-28 -60.5t17.5 -69t42.5 -49.5q21 6 47.5 6t45.5 -12.5t19 -34t-20 -34t-48 -12.5t-50 11q-49 -24 -76 -67t-27 -99q0 -78 50.5 -130t126.5 -52t122.5 42t46.5 99
q0 87 -50 87q-13 0 -33 -9t-35 -9t-24.5 10.5t-9.5 25.5q0 25 28.5 40t68.5 15z" />
    <glyph glyph-name="quotesingle" unicode="'" horiz-adv-x="190" 
d="M124.5 711.5q10.5 -13.5 10.5 -27.5t-6 -58t-7.5 -74.5t-6.5 -46t-19.5 -15.5t-20 16t-7 46t-7.5 73.5t-6 58t10.5 28t29.5 13.5t29.5 -13.5z" />
    <glyph glyph-name="parenleft" unicode="(" horiz-adv-x="302" 
d="M272.5 749q9.5 -11 9.5 -25.5t-9.5 -29.5t-30.5 -41.5t-37 -55.5q-84 -149 -84 -358q0 -163 56 -291q30 -71 79 -132q12 -15 12 -25q0 -21 -19 -21q-31 0 -72 54.5t-67 116.5q-64 150 -64 343q0 83 21 171.5t51 154t64.5 108t57.5 42.5t32.5 -11z" />
    <glyph glyph-name="parenright" unicode=")" horiz-adv-x="303" 
d="M256 284q0 -193 -64 -343q-26 -62 -67 -116.5t-72 -54.5q-19 0 -19 21q0 10 12 25q135 169 135 423q0 209 -84 358q-16 29 -37 55.5t-30.5 41.5t-9.5 29.5t9.5 25.5t32.5 11t57.5 -42.5t64.5 -108t51 -154t21 -171.5z" />
    <glyph glyph-name="asterisk" unicode="*" horiz-adv-x="424" 
d="M234 555l11 -90q0 -18 -9 -29.5t-24 -11.5t-24 11.5t-9 23.5t4.5 43t6.5 53q-18 -12 -40.5 -30.5t-33.5 -25t-22.5 -6.5t-21 8.5t-9.5 21.5t7.5 21.5t18 12.5t35.5 13.5t46 20.5q-21 11 -46 20.5t-35.5 13.5t-18 12.5t-7.5 21.5t9.5 21.5t21 8.5t22.5 -6.5t33.5 -25
t40.5 -30.5l-11 92q0 18 9 29.5t24 11.5t24 -11.5t9 -24t-4.5 -44t-6.5 -53.5q18 12 40.5 30.5t33.5 25t22.5 6.5t21 -8.5t9.5 -21.5t-7.5 -21.5t-18 -12.5t-35.5 -13.5t-46 -20.5q21 -11 46 -20.5t35.5 -13.5t18 -12.5t7.5 -21.5t-9.5 -21.5t-21 -8.5t-22.5 6.5t-33.5 25
t-40.5 30.5z" />
    <glyph glyph-name="plus" unicode="+" horiz-adv-x="529" 
d="M296 291l146 3q18 0 29.5 -9t11.5 -24t-11.5 -24t-29.5 -9q-50 0 -146 3l4 -157q0 -19 -9.5 -30t-25.5 -11q-33 0 -33 41q0 5 4 157q-102 -3 -134 -3t-43.5 9t-11.5 24t11.5 24t29.5 9l148 -3q-4 140 -4 143q0 41 33 41q16 0 25.5 -11t9.5 -22t-4 -151z" />
    <glyph glyph-name="comma" unicode="," horiz-adv-x="210" 
d="M151 49q0 -68 -34.5 -135t-68.5 -67q-8 0 -14 5.5t-6 13t18.5 39t18.5 57t-4 44t-4 38.5t14.5 39t36 19t32.5 -15.5t11 -37.5z" />
    <glyph glyph-name="hyphen" unicode="-" horiz-adv-x="428" 
d="M214 291l107 3q18 0 29.5 -9t11.5 -24t-11.5 -24t-29.5 -9l-107 3l-107 -3q-18 0 -29.5 9t-11.5 24t11.5 24t29.5 9z" />
    <glyph glyph-name="period" unicode="." horiz-adv-x="207" 
d="M139 91.5q11 -15.5 11 -39t-14.5 -43t-35.5 -19.5t-32.5 16t-11.5 39.5t14.5 42.5t36 19t32.5 -15.5z" />
    <glyph glyph-name="slash" unicode="/" horiz-adv-x="363" 
d="M92 -152q-36 0 -36 40q0 17 36.5 173.5t56.5 250t38.5 187t29 150.5t13.5 69q9 42 40 42q36 0 36 -42q0 -14 -12 -67q-94 -398 -148 -692q-11 -57 -14 -69q-8 -42 -40 -42z" />
    <glyph glyph-name="zero" unicode="0" horiz-adv-x="658" 
d="M596 350q0 -149 -74 -257t-193 -108t-193 108t-74 257t74 257t193 108t193 -108t74 -257zM524 350q0 120 -55.5 209.5t-139.5 89.5t-139.5 -89.5t-55.5 -209.5t55.5 -209.5t139.5 -89.5t139.5 89.5t55.5 209.5z" />
    <glyph glyph-name="one" unicode="1" horiz-adv-x="397" 
d="M297.5 91q1.5 -43 1.5 -58t-11 -29t-28 -14t-28 14t-11 29t1 58q4 100 4 260v251l-48 -60q-12 -15 -27.5 -35.5t-23.5 -30.5t-18.5 -23t-16 -19t-12.5 -12q-13 -10 -26 -10t-22 10t-9 20.5t2.5 17t11.5 18t18 21.5t29.5 32.5t41 46.5t45 55.5t35.5 44.5q25 32 47.5 32
t34 -14t11.5 -29t-1 -59q-4 -103 -4 -217.5t1 -185.5t2.5 -114z" />
    <glyph glyph-name="two" unicode="2" horiz-adv-x="548" 
d="M267 64l190 5q22 0 36 -11t14 -26q0 -37 -50 -37l-190 5l-171 -5q-50 0 -50 46q0 37 28 72.5t46 55.5t60 65.5t58 63t35 38t27 30t25.5 30.5t26.5 35.5t20 33.5q21 36 21 67q0 50 -36 83.5t-81.5 33.5t-74 -16.5t-41.5 -36.5q-33 -53 -59 -53q-14 0 -23.5 9.5t-9.5 23.5
q0 39 58 89t146 50t140.5 -55t52.5 -121t-39 -125q-31 -45 -71.5 -89t-59 -65.5t-62.5 -67.5t-70 -76t-35 -52h139z" />
    <glyph glyph-name="three" unicode="3" horiz-adv-x="568" 
d="M267 700l152 4q60 0 60 -46q0 -21 -19 -44.5t-68 -72.5t-89 -98q97 -20 150 -80t53 -148t-63.5 -159t-174.5 -71q-84 0 -147.5 46t-63.5 86q0 11 7 20t17.5 9t18 -5.5t17 -17t21.5 -22.5t25 -20.5t44 -19.5t69 -10q69 0 113.5 48t44.5 120t-51 117.5t-120 49.5
q-31 -31 -51 -43t-41 -12t-32.5 11.5t-11.5 32t25 43t75 32.5q87 96 156 182l-116 4l-152 -5q-22 0 -35 10t-13 27t13 27t35 10z" />
    <glyph glyph-name="four" unicode="4" horiz-adv-x="578" 
d="M432 228l5 -188q0 -23 -10.5 -36.5t-28.5 -13.5t-28.5 13.5t-10.5 36.5l4 190l-74 1l-219 -4q-21 0 -33 11.5t-12 24.5t1.5 20.5t8 18.5t13 21t22.5 30.5t31 38.5q16 19 97 122l117 149q36 47 70 47q52 0 52 -60q0 -6 -1 -51q-4 -105 -4 -302l57 3q22 0 36 -10t14 -27
t-14 -27t-27.5 -10t-65.5 2zM115 295h249q2 73 2 179l-2 140q-44 -51 -129.5 -161t-119.5 -158z" />
    <glyph glyph-name="five" unicode="5" horiz-adv-x="575" 
d="M432 631l-142 5q-54 0 -88 -2t-46 -2q6 -51 6 -88q0 -61 -6 -115l-2 -18q71 54 147 54q106 0 163.5 -66t57.5 -166.5t-65.5 -174t-176.5 -73.5q-88 0 -153 53.5t-65 100.5q0 15 8.5 24.5t21.5 9.5t20.5 -6.5t16.5 -22t15 -22.5q60 -71 136 -71t123 56t47 127t-41.5 118
t-111.5 47q-68 0 -140 -55q-24 -19 -37 -19q-39 0 -39 42q0 11 6.5 67.5t6.5 96.5t-5.5 77t-5.5 50q0 47 55 47l152 -5l142 5q22 0 35 -10t13 -27t-13 -27t-35 -10z" />
    <glyph glyph-name="six" unicode="6" horiz-adv-x="577" 
d="M468 385q56 -68 56 -162t-59.5 -166t-168.5 -72t-171.5 79.5t-62.5 201.5q0 185 102.5 314.5t259.5 129.5q64 0 64 -35q0 -37 -55 -37q-115 0 -196 -82t-96 -195q25 37 71 64.5t102 27.5q98 0 154 -68zM409 98q43 49 43 121t-41 121t-110.5 49t-114.5 -54t-45 -122
t46.5 -116t112.5 -48t109 49z" />
    <glyph glyph-name="seven" unicode="7" horiz-adv-x="490" 
d="M243 700l162 5q60 0 60 -47q0 -20 -17.5 -58.5t-57.5 -118t-76 -161.5q-68 -157 -96 -256l-11 -40q-13 -34 -41 -34q-15 0 -24.5 11.5t-9.5 24.5t1.5 23.5t5.5 24.5t7.5 26.5t11.5 32t14 34.5t17 41.5t19 44.5t22 51.5t33.5 78t60 134.5t50.5 115l-131 4l-162 -5
q-50 0 -50 37t50 37z" />
    <glyph glyph-name="eight" unicode="8" horiz-adv-x="576" 
d="M472.5 309.5q44.5 -51.5 44.5 -129t-64 -136.5t-165 -59t-165 59t-64 136.5t46.5 129.5t117.5 84q-60 34 -93 72.5t-33 97.5t54 105t136.5 46t137 -46.5t54.5 -104.5t-31.5 -96.5t-86.5 -73.5q67 -33 111.5 -84.5zM445 188q0 100 -157 167q-157 -67 -157 -167
q0 -62 45 -99.5t112 -37.5t112 37.5t45 99.5zM378 491q31 30 31 68t-36 64t-84 26t-85 -26t-37 -64t32 -67.5t91 -61.5q57 31 88 61z" />
    <glyph glyph-name="nine" unicode="9" horiz-adv-x="575" 
d="M107 318q-56 71 -56 164t62.5 163t168.5 70t168.5 -79.5t62.5 -201.5q0 -191 -101.5 -317.5t-260.5 -126.5q-64 0 -64 35q0 37 55 37q117 0 197 79t95 198q-25 -37 -71 -64.5t-102 -27.5q-98 0 -154 71zM167.5 602q-44.5 -49 -44.5 -121t41 -121t110.5 -49t114.5 54
t45 122t-45 116t-111 48t-110.5 -49z" />
    <glyph glyph-name="colon" unicode=":" horiz-adv-x="226" 
d="M149 494.5q11 -15.5 11 -39t-14.5 -43t-35.5 -19.5t-32.5 16t-11.5 39.5t14.5 42.5t36 19t32.5 -15.5zM149 91.5q11 -15.5 11 -39t-14.5 -43t-35.5 -19.5t-32.5 16t-11.5 39.5t14.5 42.5t36 19t32.5 -15.5z" />
    <glyph glyph-name="semicolon" unicode=";" horiz-adv-x="242" 
d="M170 49q0 -68 -34.5 -135t-68.5 -67q-8 0 -14 5.5t-6 13t18.5 39t18.5 57t-4 44t-4 38.5t14.5 39t36 19t32.5 -15.5t11 -37.5zM160 494.5q11 -15.5 11 -39t-14.5 -43t-35.5 -19.5t-32.5 16t-11.5 39.5t14.5 42.5t36 19t32.5 -15.5z" />
    <glyph glyph-name="less" unicode="&#x3c;" horiz-adv-x="543" 
d="M52 268q-7 11 -7 23t3 19t11.5 15t18 14t28.5 15.5t35.5 17.5t46.5 22.5t57.5 28.5t62 31.5t49.5 25.5t33 16q29 13 45 13t26.5 -9.5t10.5 -23t-7 -22t-25 -17.5t-38 -17q-74 -30 -103.5 -44t-44.5 -21t-24 -11t-22.5 -11t-22 -11.5t-17.5 -9.5q-17 -11 -17 -18
q0 -16 195 -102q38 -17 57 -25t37 -18q33 -18 33 -36.5t-10.5 -29.5t-22.5 -11t-24.5 4t-31.5 13t-36 19q-109 58 -161 82.5t-71 33.5t-38 21t-26 23z" />
    <glyph glyph-name="equal" unicode="=" horiz-adv-x="592" 
d="M296 363l177 3q18 0 29.5 -9t11.5 -24t-11.5 -24t-29.5 -9l-177 3l-177 -3q-18 0 -29.5 9t-11.5 24t11.5 24t29.5 9zM296 219l177 3q18 0 29.5 -9t11.5 -24t-11.5 -24t-29.5 -9l-177 3l-177 -3q-18 0 -29.5 9t-11.5 24t11.5 24t29.5 9z" />
    <glyph glyph-name="greater" unicode="&#x3e;" horiz-adv-x="543" 
d="M495 310q3 -7 3 -19t-7 -23t-26 -23t-38 -21t-57.5 -27t-66.5 -32.5t-59 -31t-48.5 -26t-36.5 -18.5q-36 -17 -52 -17t-26.5 11t-10.5 25t7 22.5t25.5 18.5t37.5 18q49 21 150.5 67.5t101.5 59.5q0 10 -56 39q-14 7 -23 11q-35 15 -56.5 26t-58.5 26.5t-57 23.5t-38 17
t-25 17.5t-7 22t10.5 23t21.5 9.5t21.5 -2.5t28.5 -10.5t33 -16t49.5 -25.5t62 -31.5t57.5 -28.5t46.5 -22.5t35.5 -17.5t28.5 -15.5t18 -14t11.5 -15z" />
    <glyph glyph-name="question" unicode="?" horiz-adv-x="451" 
d="M339 436q-26 -28 -52 -54q-62 -62 -62 -120.5t-35 -58.5q-37 0 -37 56q0 76 62 143q26 28 52 54q62 64 62 125q0 48 -34.5 81.5t-71 33.5t-60.5 -12t-35 -26q-28 -38 -45 -38t-25.5 9.5t-8.5 22.5q0 35 51.5 71.5t114.5 36.5q83 0 134.5 -51.5t51.5 -129.5t-62 -143z
M224 85q11 -15 11 -38.5t-14.5 -42.5t-35 -19t-31.5 16t-11 38.5t14.5 41.5t35 19t31.5 -15z" />
    <glyph glyph-name="at" unicode="@" horiz-adv-x="1003" 
d="M710 413q0 -15 -20 -170v-44q0 -141 76 -141q44 0 78.5 51t34.5 164.5t-52.5 200t-136 128.5t-183.5 42q-154 0 -263.5 -125t-109.5 -297.5t95 -279t225 -106.5q54 0 99.5 12.5t69.5 27t45 27t31.5 12.5t18.5 -8.5t8 -21.5t-20.5 -32t-55 -37.5t-88.5 -32t-113 -13.5
q-165 0 -277.5 125.5t-112.5 322.5q0 133 57.5 246t161 179.5t230.5 66.5q194 0 320 -119t126 -324q0 -119 -54.5 -197.5t-132.5 -78.5q-112 0 -131 126q-24 -54 -68 -90t-105.5 -36t-103.5 40q-74 70 -74 195q0 103 61.5 179.5t158.5 76.5q61 0 124 -45q8 45 42 45
q39 0 39 -69zM630 216v149q-53 51 -119 51t-111 -53.5t-45 -128.5t29 -127.5t81.5 -52.5t96 47t68.5 115z" />
    <glyph glyph-name="A" unicode="A" horiz-adv-x="642" 
d="M510 318l44 1q22 0 36 -11t14 -28q0 -38 -70 -38q16 -49 23.5 -72t20.5 -58q26 -72 26 -86t-9 -25t-25 -11q-29 0 -44 35q-14 38 -34.5 106t-35.5 115q-120 3 -167 3t-112 -3q-62 -208 -66 -219q-14 -37 -39 -37q-15 0 -24 10t-9 24.5t9 45t27.5 84.5t29.5 90h-18
q-48 0 -48 37t48 37q23 0 41 -1q3 8 131 383q21 60 58 60q25 0 38.5 -14.5t22.5 -37t30 -86.5q66 -201 102 -304zM199 315q56 -3 119.5 -3t115.5 3q-103 331 -115 331q-14 0 -93 -248z" />
    <glyph glyph-name="B" unicode="B" horiz-adv-x="655" 
d="M110 83l3 285q0 56 -1 160.5t-1 117.5q-12 -2 -16 -2q-30 0 -30 33q0 22 26 40.5t63 28.5q77 19 138.5 19t115 -18t84.5 -46q60 -56 60 -120q0 -116 -108 -173q71 -20 117 -76.5t46 -125.5q0 -106 -87 -163.5t-232 -57.5q-101 0 -166.5 21.5t-65.5 55.5q0 12 7.5 20
t20.5 8t26 -7zM285 52q111 0 177 41.5t66 118.5q0 63 -52.5 103.5t-112.5 50.5q-87 -15 -118.5 -15t-59.5 7q0 -220 4 -297q47 -9 96 -9zM285 697q-44 0 -97 -14q-3 -53 -3 -251q19 10 68.5 10t91.5 -8q21 1 50.5 15.5t56.5 49.5t27 80.5t-47.5 81.5t-146.5 36z" />
    <glyph glyph-name="C" unicode="C" horiz-adv-x="658" 
d="M620 95q0 -32 -71.5 -71t-167.5 -39q-140 0 -232 113.5t-92 277t93 276.5t233 113q83 0 149 -31t66 -70q0 -16 -9.5 -25t-26 -9t-39 16t-57 32.5t-83.5 16.5q-107 0 -176 -94.5t-69 -223t69 -225.5t175 -97q49 0 88.5 10.5t59.5 22.5t37 22.5t26 10.5q27 0 27 -26z" />
    <glyph glyph-name="D" unicode="D" horiz-adv-x="709" 
d="M114 368l-5 286q-48 0 -48 38q0 34 66 51t149 17t158 -34t122 -90q96 -116 96 -272q0 -150 -93 -260q-45 -54 -117.5 -86.5t-166 -32.5t-156 21.5t-62.5 55.5q0 12 7.5 20t20.5 8t26 -7zM498 589q-37 45 -97 72t-135 27q-37 0 -75 -9q-5 -77 -5 -287.5t6 -330.5
q24 -5 84 -5q142 0 220 91t78 220.5t-76 221.5z" />
    <glyph glyph-name="E" unicode="E" horiz-adv-x="588" 
d="M329 66l162 5q50 0 50 -38t-50 -38l-162 5l-175 -5q-45 0 -45 38q0 35 2.5 118t2.5 212q-9 -1 -20 -1q-48 0 -48 37q0 17 13 28t29.5 11t25.5 -1q-2 201 -7 243q-12 17 -12 37q0 38 53 38l193 -5l150 5q50 0 50 -38t-50 -38l-150 5q-114 0 -150 -4q-5 -131 -5 -245
q44 -2 70 -2l180 5q23 0 36.5 -10.5t13.5 -28.5q0 -37 -50 -37l-180 5q-28 0 -70 -2v-99q0 -149 5 -196q70 -4 138 -4z" />
    <glyph glyph-name="F" unicode="F" horiz-adv-x="566" 
d="M255 433l169 5q23 0 37 -11t14 -28t-14 -27t-37 -10l-169 5q-28 0 -70 -2l5 -317q0 -58 -41 -58t-41 58q0 39 2.5 137t2.5 178q-9 -1 -20 -1q-48 0 -48 37q0 17 13 28t29.5 11t25.5 -1q-2 201 -7 243q-12 17 -12 37q0 38 56 38l190 -5l146 5q54 0 54 -38t-54 -38l-146 5
q-114 0 -150 -4q-5 -131 -5 -245q44 -2 70 -2z" />
    <glyph glyph-name="G" unicode="G" horiz-adv-x="722" 
d="M365 395l132 -5q34 0 79 3t50 3q51 0 51 -44q0 -169 -83 -268.5t-217.5 -99.5t-227 114t-92.5 277.5t95.5 276.5t240.5 113q90 0 162.5 -35t72.5 -76q0 -16 -9.5 -25t-25.5 -9t-35.5 11.5t-37 26t-51.5 26t-76 11.5q-111 0 -183 -94.5t-72 -223t69 -225.5t175 -97
q90 0 149.5 69.5t61.5 195.5q-50 4 -96 4l-132 -5q-48 0 -48 37q0 18 13 28.5t35 10.5z" />
    <glyph glyph-name="H" unicode="H" horiz-adv-x="718" 
d="M612 709l-5 -273h16q22 0 36.5 -11.5t14.5 -28.5t-14 -27.5t-37 -10.5h-16l5 -317q0 -22 -12 -36.5t-29 -14.5t-29 14.5t-12 36.5l5 320q-147 3 -212.5 3t-140.5 -3q0 -162 2.5 -237t2.5 -90t-12 -29.5t-29 -14.5t-29 14.5t-12 29.5t1 60q4 103 4 265h-18q-48 0 -48 37
q0 18 13 28.5t35 10.5h18l-5 274q0 22 12 36.5t29 14.5t29 -14.5t12 -36.5l-5 -277q100 -2 190 -2t163 3l-5 276q0 22 12 36.5t29 14.5t29 -14.5t12 -36.5z" />
    <glyph glyph-name="I" unicode="I" 
d="M260 66l88 5q23 0 36.5 -10.5t13.5 -27.5t-14 -28t-36 -11l-129 6l-132 -5q-50 0 -50 38t50 38q11 0 91 -5q5 225 5 308.5t-5 308.5q-88 -4 -91 -4q-48 0 -48 37q0 18 13 28.5t35 10.5l132 -5q34 0 79 3t58.5 3t28 -11.5t14.5 -28.5t-14 -27.5t-29.5 -10.5t-95.5 5
q-5 -230 -5 -311t5 -306z" />
    <glyph glyph-name="J" unicode="J" horiz-adv-x="523" 
d="M411 374l1 -120q0 -136 -63 -200t-142 -64t-127.5 35.5t-48.5 65.5q0 16 9.5 25.5t22.5 9.5t26 -11t24 -24t34 -24t53 -11q57 0 97.5 52.5t40.5 167.5l1 98q0 224 -2 310q-11 1 -32 1l-135 -5q-48 0 -48 37q0 17 13 28t35 11l132 -5q34 0 79 3t58.5 3t28 -11.5
t14.5 -28.5t-15.5 -27.5t-38.5 -10.5h-15q-2 -92 -2 -305z" />
    <glyph glyph-name="K" unicode="K" horiz-adv-x="618" 
d="M175 345l5 -304q0 -22 -12 -36.5t-29 -14.5t-29 14.5t-12 36.5l5 331l-5 336q0 22 12 36.5t29 14.5t29 -14.5t12 -29t-1 -52.5q-4 -152 -4 -239q30 12 86 12q2 0 47 -3q49 42 89.5 124t55.5 159q10 44 41 44q14 0 24 -10t10 -27q0 -67 -54 -175.5t-108 -161.5
q27 -62 78 -151t77 -125q24 -29 45.5 -38.5t29.5 -9t8 -5.5q0 -29 -15.5 -48t-38.5 -19q-38 0 -87 68.5t-166 290.5q-49 -9 -73 -9t-49 5z" />
    <glyph glyph-name="L" unicode="L" horiz-adv-x="544" 
d="M180 709l-5 -337q0 -101 4 -301q41 -5 105.5 -5t118 3.5t68 3.5t28 -10.5t13.5 -28.5t-13.5 -28.5t-36.5 -10.5l-151 5l-162 -5q-23 0 -37 13t-14 38l5 326l-5 337q0 23 11 37t30 14t30 -14t11 -37z" />
    <glyph glyph-name="M" unicode="M" horiz-adv-x="812" 
d="M103 372l-5 332q0 26 11.5 38.5t33.5 12.5t37 -35q81 -183 102.5 -228.5t65.5 -140t59 -124.5q98 189 180 390q32 78 46 108t41 30q41 0 41 -51q0 -8 -1.5 -54.5t-2.5 -122.5t-1 -155t1 -154.5t2.5 -122t1.5 -61.5t-12 -29.5t-29 -14.5t-29 14.5t-12 29.5t1 62
q6 170 6 276v194l-193 -424q-14 -31 -38.5 -31t-38.5 34q-121 270 -195 425v-198l5 -331q0 -22 -12 -36.5t-29 -14.5t-29 14.5t-12 36.5z" />
    <glyph glyph-name="N" unicode="N" horiz-adv-x="691" 
d="M103 372l-5 336q0 22 12 37t30 15q32 0 48 -27q9 -14 147.5 -262.5t182.5 -319.5v221q0 169 -2.5 249t-2.5 95t12 29.5t29 14.5t29 -14.5t12 -29.5t-1 -63q-4 -112 -4 -281l2 -331q0 -23 -12.5 -37t-34.5 -14t-38 27q-5 8 -37 65q-97 178 -144.5 258.5t-90.5 159
t-60 105.5v-233l5 -331q0 -22 -12 -36.5t-29 -14.5t-29 14.5t-12 36.5z" />
    <glyph glyph-name="O" unicode="O" horiz-adv-x="774" 
d="M564.5 154q71.5 96 71.5 223.5t-71 221t-178 93.5t-178 -93.5t-71 -221t71.5 -223.5t177.5 -96t177.5 96zM717 376q0 -163 -95 -277t-235.5 -114t-235 114t-94.5 276.5t95 276t236 113.5t235 -113t94 -276z" />
    <glyph glyph-name="P" unicode="P" horiz-adv-x="601" 
d="M283 696q-72 0 -103 -18q-3 -45 -3 -151t2 -151q56 -17 130 -17t130 48t56 112q0 79 -55.5 128t-156.5 49zM179 308l5 -267q0 -22 -12 -36.5t-29 -14.5t-29 14.5t-12 30t2 63.5q4 142 4 247.5t-1 165t-2.5 94t-1.5 41.5q-12 -2 -16 -2q-30 0 -30 33q0 41 79 64.5
t141 23.5q142 0 217 -71.5t75 -167t-74.5 -164.5t-190.5 -69q-70 0 -125 15z" />
    <glyph glyph-name="Q" unicode="Q" horiz-adv-x="754" 
d="M616 376q0 129 -68 222.5t-171 93.5t-171 -93.5t-68 -221t68.5 -223.5t170.5 -96q43 0 71 12q-20 34 -41.5 67t-28.5 45t-7 26t12 25t30 11t34 -28l58 -110q53 43 82 114.5t29 155.5zM697 376q0 -107 -41 -195.5t-114 -139.5q70 -115 76.5 -126.5t6.5 -26t-8.5 -25.5
t-27.5 -11t-36 30q-6 10 -29.5 54t-39.5 72q-50 -23 -108 -23q-136 0 -227.5 114t-91.5 276.5t92.5 276t228.5 113.5t227.5 -113t91.5 -276z" />
    <glyph glyph-name="R" unicode="R" horiz-adv-x="636" 
d="M179 307l5 -266q0 -22 -12 -36.5t-29 -14.5t-29 14.5t-12 30t2 63.5q4 142 4 247.5t-1 165t-2.5 94t-1.5 41.5q-12 -2 -16 -2q-30 0 -30 33q0 41 79 64.5t141 23.5q137 0 207 -64.5t70 -158.5q0 -64 -40.5 -122.5t-110.5 -87.5q94 -223 157 -258q18 -10 28 -8
q21 3 21 -12q0 -28 -18 -46t-41 -18q-38 0 -80 56q-60 86 -139 263q-48 -9 -95 -9zM480 536q0 71 -51 115.5t-134.5 44.5t-114.5 -18q-3 -52 -3 -161t1 -132q45 12 92 12t86 -10q45 9 84.5 52.5t39.5 96.5z" />
    <glyph glyph-name="S" unicode="S" horiz-adv-x="556" 
d="M512 200q0 -91 -68 -153t-175 -62q-83 0 -155 39.5t-72 78.5q0 15 9.5 25t24.5 10t33.5 -13t35 -28.5t50 -28.5t74.5 -13q70 0 116.5 39.5t46.5 105.5q0 44 -37.5 82.5t-91 69t-107 62.5t-91 77t-37.5 99q0 71 61.5 123t143.5 52t140 -28t58 -63q0 -16 -9.5 -25t-24.5 -9
t-30 8.5t-27.5 19t-38.5 19t-69.5 8.5t-83.5 -29.5t-40 -71t37.5 -76t91 -65t107 -64t91 -82.5t37.5 -107z" />
    <glyph glyph-name="T" unicode="T" horiz-adv-x="523" 
d="M267 750l181 6q23 0 37 -10.5t14 -28.5t-14 -28.5t-37 -10.5l-140 5q-5 -225 -5 -311l5 -331q0 -23 -11 -37t-30 -14t-30 14t-11 37l5 331q0 87 -5 312l-151 -5q-48 0 -48 38t48 38z" />
    <glyph glyph-name="U" unicode="U" horiz-adv-x="683" 
d="M341 -15q-117 0 -179.5 76.5t-64.5 185.5q-6 458 -6 471.5t11 27.5t30 14t30 -14t11 -30t-1 -68q-4 -123 -4 -239t3.5 -153t14 -77t28.5 -65q43 -59 127 -59q105 0 142 83q32 72 32 190.5t-2.5 248.5t-2.5 132q0 23 11 37t30 14t30 -14t11 -37q0 -188 -6 -463
q-2 -109 -65 -185t-180 -76z" />
    <glyph glyph-name="V" unicode="V" horiz-adv-x="625" 
d="M371 30q-15 -40 -51 -40t-51 37q-48 125 -98.5 265t-73 201.5t-33.5 91t-22 59.5q-17 50 -17 71.5t10.5 33t27.5 11.5q29 0 44 -37q1 -2 22.5 -68t51 -155.5t60.5 -179.5q74 -214 81 -214t50.5 134t96 306.5t52.5 173.5q12 40 42 40q18 0 27.5 -11t9.5 -26t-13.5 -58
t-46 -139.5t-82 -249.5t-87.5 -246z" />
    <glyph glyph-name="W" unicode="W" horiz-adv-x="909" 
d="M681 34q-16 -44 -52.5 -44t-52.5 41q-4 11 -33 110t-56.5 186.5t-31.5 87.5t-31 -88t-55 -186.5t-31 -106.5q-17 -44 -52 -44t-51 41q-17 53 -74.5 244t-86.5 277q-47 145 -47 165t10 31.5t25 11.5q30 0 44 -36q1 -2 45 -160q128 -458 140 -458t84 267q29 108 33 122
q14 51 50.5 51t50.5 -48q2 -6 33 -116q80 -276 89 -276q7 0 70 229t104 385q11 40 41 40q33 0 33 -40q0 -24 -24 -105.5t-44 -149.5q-100 -339 -130 -431z" />
    <glyph glyph-name="X" unicode="X" horiz-adv-x="625" 
d="M542 749q10 -11 10 -22.5t-9.5 -29.5t-35.5 -59q-86 -136 -157 -250q137 -229 181 -283q19 -24 36.5 -34t26.5 -9t14 -1t5 -12q0 -28 -16 -45t-38 -17q-38 0 -83 63q-49 72 -170 271q-91 -145 -136.5 -222.5t-50.5 -84.5q-17 -24 -39 -24q-40 0 -40 35q0 16 9 30.5
t42 64.5t83.5 126.5t89.5 137.5q-93 170 -149 263q-16 22 -32.5 31.5t-26.5 8.5q-23 -2 -23 15q0 28 15.5 44.5t37.5 16.5t39.5 -12t43.5 -50q26 -44 139 -253q50 83 105 178.5t68 114.5t32 19t29 -11z" />
    <glyph glyph-name="Y" unicode="Y" horiz-adv-x="554" 
d="M237 40q0 7 1 46q4 91 4 228l-110 193q-19 33 -40 68l-33 55q-33 56 -38.5 70t-5.5 26t9 23t24 11t25 -8t22 -28t23 -42q75 -154 163 -291q92 145 153 271q7 15 15.5 30.5t13 24.5t10 17.5t9 12.5t8.5 7q7 6 19.5 6t21 -9t8.5 -20.5t-3 -22t-13 -29.5t-19.5 -35.5
t-32 -54.5t-40.5 -70l-117 -205q0 -139 2.5 -204t2.5 -70q0 -50 -41 -50t-41 50z" />
    <glyph glyph-name="Z" unicode="Z" horiz-adv-x="568" 
d="M280 750l189 6q21 0 36 -9.5t15 -28.5t-8 -32.5t-32 -51.5q-151 -239 -239.5 -391.5t-101.5 -173.5q60 -3 146 -3l200 6q23 0 36.5 -10.5t13.5 -29.5q0 -38 -50 -38l-200 6l-202 -5q-49 0 -49 40q0 13 8 26t38 61q84 132 195 317.5t140 240.5l-135 4l-182 -5
q-23 0 -37 10.5t-14 28.5q0 37 51 37z" />
    <glyph glyph-name="bracketleft" unicode="[" horiz-adv-x="348" 
d="M194 -160l87 3q18 0 29.5 -9t11.5 -24t-11.5 -24t-29.5 -9l-87 3l-77 -4q-18 0 -29.5 9t-11.5 20.5t3 160.5t3 299t-3 299t-3 160.5t11.5 20.5t29.5 9l77 -4l87 3q18 0 29.5 -9t11.5 -24t-11.5 -24t-29.5 -9l-87 3h-44q-6 -342 -6 -425t6 -425h44z" />
    <glyph glyph-name="backslash" unicode="\" horiz-adv-x="363" 
d="M307 -112q0 -40 -36 -40q-32 0 -40 42q-3 12 -13 69q-54 293 -95 466t-53.5 226t-12.5 67q0 42 36 42q31 0 40 -42q3 -12 13 -69q50 -266 93.5 -453.5t55.5 -240t12 -67.5z" />
    <glyph glyph-name="bracketright" unicode="]" horiz-adv-x="348" 
d="M154 750l77 4q18 0 29.5 -9t11.5 -20.5t-3 -160.5t-3 -299t3 -299t3 -160.5t-11.5 -20.5t-29.5 -9l-77 4l-87 -3q-18 0 -29.5 9t-11.5 24t11.5 24t29.5 9l87 -3h44q6 342 6 425t-6 425h-44l-87 -3q-18 0 -29.5 9t-11.5 24t11.5 24t29.5 9z" />
    <glyph glyph-name="asciicircum" unicode="^" horiz-adv-x="521" 
d="M476.5 417q4.5 -12 4.5 -21.5t-9.5 -18.5t-26.5 -9t-30 24q0 3 -37.5 73.5t-59.5 112t-38 68t-20 26.5t-20 -26.5t-38 -68t-42 -79.5q-55 -103 -55 -106q-13 -24 -30 -24t-25 8.5t-8 20.5t12.5 36t42 73.5t44.5 75.5t33 60q47 87 51 95q13 23 36.5 23t36.5 -22
q38 -76 106 -192.5t72.5 -128.5z" />
    <glyph glyph-name="underscore" unicode="_" horiz-adv-x="576" 
d="M288 -160l197 3q18 0 29.5 -9t11.5 -24t-11.5 -24t-29.5 -9l-197 3l-197 -3q-18 0 -29.5 9t-11.5 24t11.5 24t29.5 9z" />
    <glyph glyph-name="grave" unicode="`" horiz-adv-x="285" 
d="M215 614q0 -21 -27 -21t-72.5 43t-45.5 86q0 15 9 26.5t27 11.5t29.5 -14t22 -39.5t18 -35t18.5 -22.5q21 -23 21 -35z" />
    <glyph glyph-name="a" unicode="a" horiz-adv-x="571" 
d="M467 242q0 -75 11 -122.5t26 -53.5q6 -3 14.5 -4t12 -3t3.5 -8q0 -27 -14.5 -44t-43.5 -17t-45 37t-16 95q-25 -56 -73.5 -94t-109 -38t-104.5 40q-80 73 -80 209q0 109 63 190t162 81q75 0 130 -51q0 51 38 51q46 0 46 -70.5t-20 -197.5zM409 233l-5 154
q-60 58 -125.5 58t-112.5 -59t-47 -141.5t30.5 -136t86.5 -53.5t102 50t71 128z" />
    <glyph glyph-name="b" unicode="b" horiz-adv-x="552" 
d="M505 261q0 -109 -63 -190t-162 -81q-75 0 -130 51q0 -51 -38 -51q-46 0 -46 70.5t20 197.5q0 68 -9 256.5t-9 203.5t10.5 28.5t28.5 13.5t28.5 -13.5t10.5 -36.5v-316q27 51 72.5 83.5t104 32.5t101.5 -40q81 -73 81 -209zM387 114q47 59 47 141.5t-30.5 136t-86.5 53.5
t-102 -50t-71 -128l5 -154q60 -58 125.5 -58t112.5 59z" />
    <glyph glyph-name="c" unicode="c" horiz-adv-x="509" 
d="M446 103q25 0 25 -26.5t-58 -59t-122 -32.5q-105 0 -175 77.5t-70 187.5t70.5 187.5t185.5 77.5q63 0 111.5 -28.5t48.5 -58.5q0 -16 -10 -26.5t-23 -10.5t-30 15q-52 44 -106 44q-69 0 -120.5 -58t-51.5 -141t52 -142t129 -59q59 0 115 40q19 13 29 13z" />
    <glyph glyph-name="d" unicode="d" horiz-adv-x="588" 
d="M424 228v159q-60 58 -142 58q-64 0 -112.5 -59t-48.5 -138.5t35 -136t95 -56.5q105 0 173 173zM530 64q26 0 26 -15q0 -19 -13.5 -39t-42.5 -20t-45.5 32t-23.5 102q-73 -134 -185 -134q-65 0 -112 42t-67 97t-20 110q0 109 66 190t169 81q75 0 142 -49q2 139 2 203.5
t9.5 80t31 15.5t35 -17.5t13.5 -51.5t-4 -83.5t-12 -131t-13 -147.5q0 -122 9 -191t35 -74z" />
    <glyph glyph-name="e" unicode="e" horiz-adv-x="539" 
d="M378.5 292q40.5 23 40.5 62t-26.5 67.5t-75.5 28.5q-66 0 -111 -49.5t-58 -115.5q55 -16 122.5 -16t108 23zM439.5 470q50.5 -45 50.5 -117t-62.5 -109.5t-153.5 -37.5q-52 0 -127 15q6 -70 52.5 -120.5t103.5 -50.5q34 0 63 9.5t44 20.5q40 31 52.5 31t20 -7.5
t7.5 -18.5q0 -28 -57.5 -64t-124.5 -36q-104 0 -165 73t-66 176q-53 16 -53 52q0 15 8.5 23.5t20.5 8.5t30 -9q22 90 83.5 148t142 58t131 -45z" />
    <glyph glyph-name="f" unicode="f" horiz-adv-x="327" 
d="M175 500l97 2q16 0 27 -8t11 -24q0 -30 -38 -30l-97 2v-67q0 -138 3 -232t3 -109.5t-10.5 -29.5t-28.5 -14t-28.5 14t-10.5 29.5t1 62.5q5 141 5 279v67l-51 -2q-38 0 -38 30q0 16 11 24t27 8l50 -2v85q0 93 36.5 134t84.5 41t79.5 -18.5t31.5 -39.5q0 -33 -28 -33
q-13 0 -34 12t-41 12q-62 0 -62 -117v-76z" />
    <glyph glyph-name="g" unicode="g" horiz-adv-x="558" 
d="M408 234v153q-55 58 -121.5 58t-116 -59.5t-49.5 -141t31 -135.5t85.5 -54t100.5 51t70 128zM406 463q2 47 38 47q46 0 46 -70.5t-20 -197.5q12 -122 12 -182q0 -131 -61.5 -210.5t-172.5 -79.5q-62 0 -117 25.5t-55 51t23 25.5q9 0 51.5 -18.5t97.5 -18.5q80 0 126 60
t46 155q0 39 -5 72q-22 -54 -71.5 -93t-102 -39t-89.5 23t-60 60q-45 75 -45 174.5t67.5 181t166.5 81.5q69 0 125 -47z" />
    <glyph glyph-name="h" unicode="h" horiz-adv-x="577" 
d="M494 315l-5 -157q0 -28 0.5 -42.5t6 -30t13.5 -19t16.5 -4.5t12 -3t3.5 -8q0 -26 -16.5 -43.5t-38.5 -17.5q-38 0 -52.5 30t-14.5 88l4 184q0 68 -29 110t-80.5 42t-99.5 -57t-67 -129l3 -217q0 -51 -38 -51q-46 0 -46 70.5t20 197.5q0 68 -9 256.5t-9 203.5t10.5 28.5
t28.5 13.5t28.5 -13.5t10.5 -36.5v-327q73 127 180 127q80 0 124 -57t44 -138z" />
    <glyph glyph-name="i" unicode="i" horiz-adv-x="224" 
d="M148 711.5q10 -13.5 10 -34t-14 -41t-35 -20.5t-31.5 14t-10.5 37t14.5 40.5t35.5 17.5t31 -13.5zM145 250l5 -210q0 -50 -38 -50t-38 50l5 210l-5 210q0 50 38 50t38 -50z" />
    <glyph glyph-name="j" unicode="j" horiz-adv-x="223" 
d="M148 711.5q10 -13.5 10 -34t-14 -41t-35 -20.5t-31.5 14t-10.5 37t14.5 40.5t35.5 17.5t31 -13.5zM145 230l-1 -220q0 -86 -43.5 -142.5t-80.5 -56.5q-27 0 -27 19q0 14 43 56q17 16 30.5 51.5t13.5 82.5l-1 210l-5 230q0 50 38 50t38 -50z" />
    <glyph glyph-name="k" unicode="k" horiz-adv-x="510" 
d="M147 258l3 -217q0 -51 -38 -51q-46 0 -46 70.5t20 197.5q0 68 -9 256.5t-9 203.5t10.5 28.5t28.5 13.5t28.5 -13.5t10.5 -36.5v-327q73 127 180 127q58 0 93 -34t35 -83q0 -82 -85 -140q-19 -13 -49 -32l74 -114q19 -29 40 -38t31.5 -9t10.5 -9q0 -24 -15 -42.5
t-36 -18.5t-32.5 6.5t-25 25t-25.5 38.5q-58 95 -89 139q-26 0 -43 14.5t-17 34.5t13.5 33t35.5 13t45 -25q38 17 67.5 52t29.5 63t-15.5 44t-46.5 16q-56 0 -106 -56.5t-69 -129.5z" />
    <glyph glyph-name="l" unicode="l" horiz-adv-x="224" 
d="M145 375l5 -335q0 -50 -38 -50t-38 50l5 335l-5 335q0 50 38 50t38 -50z" />
    <glyph glyph-name="m" unicode="m" horiz-adv-x="877" 
d="M794 315l-5 -157q0 -28 0.5 -42.5t6 -30t13.5 -19t16.5 -4.5t12 -3t3.5 -8q0 -26 -16.5 -43.5t-38.5 -17.5q-38 0 -52.5 30t-14.5 88l4 184q0 68 -26.5 110t-74 42t-92.5 -57t-63 -129l3 -217q0 -51 -38 -51q-46 0 -46 70.5t20 197.5q0 186 -102 186q-47 0 -92 -57
t-63 -129l3 -217q0 -51 -38 -51q-46 0 -46 70.5t20 197.5q0 42 -8.5 116t-8.5 91.5t10.5 31t28.5 13.5t28.5 -13.5t10.5 -30.5t-0.5 -41.5t-0.5 -41.5q68 127 170 127q59 0 96.5 -34.5t51.5 -92.5q68 127 170 127q75 0 116.5 -57t41.5 -138z" />
    <glyph glyph-name="n" unicode="n" horiz-adv-x="579" 
d="M496 315l-5 -157q0 -28 0.5 -42.5t6 -30t13.5 -19t16.5 -4.5t12 -3t3.5 -8q0 -26 -16.5 -43.5t-38.5 -17.5q-38 0 -52.5 30t-14.5 88l4 184q0 68 -29 110t-80.5 42t-99.5 -57t-67 -129l3 -217q0 -51 -38 -51q-46 0 -46 70.5t20 197.5q0 42 -8.5 116t-8.5 91.5t10.5 31
t28.5 13.5t28.5 -13.5t10.5 -30.5t-0.5 -41.5t-0.5 -41.5q73 127 180 127q80 0 124 -57t44 -138z" />
    <glyph glyph-name="o" unicode="o" horiz-adv-x="562" 
d="M445 251q0 83 -46.5 141t-115.5 58t-117.5 -59t-48.5 -142t46.5 -141t115.5 -58t117.5 59t48.5 142zM450 438.5q66 -76.5 66 -187.5t-67 -188.5t-169 -77.5t-168 76.5t-66 187.5t66.5 188.5t169 77.5t168.5 -76.5z" />
    <glyph glyph-name="p" unicode="p" horiz-adv-x="570" 
d="M400.5 114q48.5 59 48.5 138.5t-35 136t-95 56.5q-105 0 -173 -173v-159q60 -58 142 -58q64 0 112.5 59zM84 190l1 38v16q0 42 -9 123t-9 98.5t10.5 31t28.5 13.5t28.5 -13.5t10.5 -30.5t-0.5 -42.5t-0.5 -42.5q33 61 74 95t106 34t112 -42t67 -97t20 -110
q0 -109 -66 -190t-169 -81q-75 0 -142 49q-2 -121 -2 -179.5t-10 -74t-31 -15.5t-34.5 17.5t-13.5 50.5t4 78.5t12 120t13 134.5v19z" />
    <glyph glyph-name="q" unicode="q" horiz-adv-x="553" 
d="M48 239q0 109 63 190t162 81q75 0 130 -51q0 51 38 51q46 0 46 -70.5t-20 -197.5q0 -63 9 -239t9 -191t-10.5 -28.5t-28.5 -13.5t-28.5 13.5t-10.5 36.5v286q-27 -51 -72.5 -83.5t-104 -32.5t-102.5 40q-80 73 -80 209zM166 386q-47 -59 -47 -141.5t30.5 -136t86.5 -53.5
t102 50t71 128l-5 154q-60 58 -125.5 58t-112.5 -59z" />
    <glyph glyph-name="r" unicode="r" horiz-adv-x="408" 
d="M149 229l3 -188q0 -51 -38 -51q-46 0 -46 70.5t20 197.5q0 42 -8.5 115t-8.5 91t10.5 32t28.5 14t28.5 -14t10.5 -30.5t-0.5 -42t-0.5 -42.5q20 51 62.5 90t87.5 39t69.5 -18.5t24.5 -39.5t-11 -33t-28.5 -12t-38 18.5t-32.5 18.5q-33 0 -77 -71t-56 -144z" />
    <glyph glyph-name="s" unicode="s" horiz-adv-x="455" 
d="M416 144q0 -68 -55.5 -111t-133 -43t-134.5 35.5t-57 70.5q0 15 9 24.5t20.5 9.5t18.5 -4.5t19 -17.5t21.5 -22t39 -20t54.5 -11q55 0 90.5 22.5t35.5 65.5q0 52 -100 87q-41 14 -82.5 30.5t-70.5 45.5t-29 69q0 54 49 94.5t120 40.5t112.5 -24.5t41.5 -51.5
q0 -33 -35 -33q-15 0 -30 11q-47 33 -90 33t-70 -19.5t-27 -45t29 -43.5t70.5 -33t83.5 -33.5t71 -51t29 -75.5z" />
    <glyph glyph-name="t" unicode="t" horiz-adv-x="337" 
d="M183 439l-2 -237q0 -91 7.5 -119t39.5 -28q15 0 36.5 10.5t28.5 10.5q21 0 21 -20.5t-37 -43t-73 -22.5q-87 0 -87 128l-1 321q-33 -3 -46 -3q-50 0 -50 33t50 33q4 0 44 -2l-2 112q0 50 38 50t38 -50l-3 -113l81 4q50 0 50 -34q0 -32 -50 -32q-9 0 -83 2z" />
    <glyph glyph-name="u" unicode="u" horiz-adv-x="584" 
d="M151 428l-8 -220q0 -68 29 -110.5t80.5 -42.5t99.5 57.5t67 129.5l-3 217q0 51 38 51q46 0 46 -70.5t-20 -197.5q0 -75 11 -122.5t26 -53.5q6 -3 14.5 -4t12 -3t3.5 -8q0 -27 -16.5 -44t-41.5 -17q-63 0 -63 128q-74 -128 -186 -128q-80 0 -124 59.5t-44 145.5l6 151
q0 40 -8 74.5t-8 49.5t12 27.5t31 12.5q46 0 46 -82z" />
    <glyph glyph-name="v" unicode="v" horiz-adv-x="485" 
d="M244 80q3 0 8.5 10.5t14.5 33.5t15.5 41t19.5 53l17 49q16 44 40 119.5t29 87.5q14 36 39 36q15 0 25.5 -9.5t10.5 -23t-8.5 -36t-31 -80t-64 -173.5t-62.5 -157t-55.5 -41t-52.5 36q-7 14 -52 132.5t-60 156.5t-23.5 59t-15.5 42q-15 42 -15 58.5t10 26t25 9.5
q27 0 41 -35q5 -12 29.5 -87.5t35.5 -105t23 -63.5t18.5 -53t15.5 -42t14.5 -33.5t8.5 -10.5z" />
    <glyph glyph-name="w" unicode="w" horiz-adv-x="786" 
d="M229 80q9 0 65 190t62 204q14 36 44.5 36t42.5 -35q11 -34 30 -105t28 -102q55 -188 64.5 -188t65.5 187q13 43 33 117t24 87q12 39 37 39q15 0 25.5 -9t10.5 -21.5t-2.5 -23t-9 -30t-13.5 -41.5t-20.5 -61.5t-46.5 -143.5t-52 -152q-15 -38 -55 -38t-58 52
q-36 104 -69 219.5t-41 115.5q-7 0 -18.5 -39.5t-18 -62t-8.5 -30.5q-53 -184 -72 -220q-17 -35 -55 -35t-57 55q-7 20 -28.5 86t-35 106.5t-27 78.5t-21.5 60t-15 43q-13 39 -13 55t10.5 26t25.5 10q29 0 40 -35q4 -12 26.5 -87.5t32 -106t19.5 -62.5t16.5 -52t14.5 -43
q14 -44 19 -44z" />
    <glyph glyph-name="x" unicode="x" horiz-adv-x="492" 
d="M385 109q26 -34 48.5 -46t32 -12t9.5 -5q0 -25 -14.5 -43t-30 -18t-24.5 3.5t-19 13.5t-19 20.5t-23.5 31.5t-27 39.5t-34.5 51.5t-41 61q-42 -61 -85.5 -126.5t-54 -77.5t-23 -12t-23 9.5t-10.5 21.5t3 20t15 24.5t27 36.5q42 54 114 159l-86 128q-21 27 -40 41t-29 15
q-22 2 -22 11q0 25 13.5 42t37.5 17t46 -26t58 -80.5t40 -60.5t10.5 -16t12.5 -19q112 169 115 173q17 24 31.5 24t24.5 -10.5t10 -23t-12 -32t-56 -79t-76 -103.5z" />
    <glyph glyph-name="y" unicode="y" horiz-adv-x="568" 
d="M419 242l-3 217q0 51 38 51q46 0 46 -75q0 -59 -21 -193q12 -122 12 -182q0 -131 -64 -210.5t-180 -79.5q-62 0 -117 25.5t-55 51t23 25.5q10 0 55.5 -18.5t93.5 -18.5q84 0 133 60t49 155q0 35 -3 68q-74 -128 -186 -128q-80 0 -124 59.5t-44 145.5l6 151q0 40 -8 74.5
t-8 49.5t12 27.5t31 12.5q46 0 46 -82l-8 -220q0 -68 29 -110.5t80.5 -42.5t99.5 57.5t67 129.5z" />
    <glyph glyph-name="z" unicode="z" horiz-adv-x="478" 
d="M245 60l150 5q50 0 50 -35t-50 -35l-150 5l-162 -5q-48 0 -48 35q0 26 35 66q61 71 107.5 134.5t70.5 95t36 47.5q32 45 42 64q-75 3 -85 3l-146 -5q-50 0 -50 35t50 35l146 -5l142 5q48 0 48 -35q0 -22 -18.5 -46t-35.5 -44q-45 -53 -119 -152.5t-119 -165.5
q60 -2 106 -2z" />
    <glyph glyph-name="braceleft" unicode="{" horiz-adv-x="307" 
d="M254 -167.5q11 -10.5 11 -26t-10 -26t-27 -10.5q-43 0 -75.5 28t-32.5 80q0 26 7.5 92.5t7.5 110.5t-7.5 85t-23.5 49q-20 -9 -39.5 -9t-35 13t-15.5 37.5t16 40.5t39 16t35 -6q12 15 22 59t10 84.5t-7.5 107t-7.5 92.5q0 52 32.5 81t75.5 29q17 0 27 -10.5t10 -26
t-11 -26t-26 -10.5q-38 0 -38 -47q0 -15 7.5 -78t7.5 -114q0 -115 -49 -179q17 -22 25 -36.5t15.5 -53.5t7.5 -94.5t-7.5 -118.5t-7.5 -78q0 -45 38 -45q15 0 26 -10.5z" />
    <glyph glyph-name="bar" unicode="|" horiz-adv-x="220" 
d="M144 750l-4 -495q0 -235 2.5 -348.5t2.5 -126.5q0 -50 -35 -50t-35 50q0 13 1 81q4 159 4 394l-4 495q0 50 34 50t34 -50z" />
    <glyph glyph-name="braceright" unicode="}" horiz-adv-x="307" 
d="M277 297q16 -16 16 -40.5t-15.5 -37.5t-35 -13t-39.5 9q-16 -8 -23.5 -49t-7.5 -85t7.5 -110.5t7.5 -92.5q0 -52 -32.5 -80t-75.5 -28q-17 0 -27 10.5t-10 26t11 26t26 10.5q38 0 38 45q0 15 -7.5 78t-7.5 118.5t7.5 94.5t15.5 53.5t25 36.5q-49 64 -49 179q0 51 7.5 114
t7.5 78q0 47 -38 47q-15 0 -26 10.5t-11 26t10 26t27 10.5q43 0 75.5 -29t32.5 -81q0 -26 -7.5 -92.5t-7.5 -107t10 -84.5t22 -59q12 6 35 6t39 -16z" />
    <glyph glyph-name="asciitilde" unicode="~" horiz-adv-x="552" 
d="M458 238q-36 -30 -74.5 -30t-92 29t-83 29t-61 -30.5t-50 -30.5t-28.5 9.5t-10 23.5q0 32 43 61t93.5 29t105 -29t78 -29t40.5 12.5t29 25t23 12.5q23 0 23 -26t-36 -56z" />
    <glyph glyph-name="nbspace" unicode="&#xa0;" horiz-adv-x="238" 
 />
    <glyph glyph-name="exclamdown" unicode="&#xa1;" horiz-adv-x="220" 
d="M145 529q11 -16 11 -38.5t-14.5 -41.5t-35 -19t-31.5 15t-11 38.5t14.5 42.5t35 19t31.5 -16zM146 274l-3 -212q0 -59 3.5 -147.5t3.5 -94.5q0 -50 -40 -50t-40 50q0 6 3.5 94.5t3.5 147.5l-3 212q0 50 36 50t36 -50z" />
    <glyph glyph-name="cent" unicode="&#xa2;" horiz-adv-x="534" 
d="M326 594l-2 -80q60 -3 104.5 -30.5t44.5 -55.5q0 -16 -10 -26.5t-23 -10.5t-46.5 26.5t-70.5 31.5q-1 -52 -1 -169.5t2 -229.5q43 3 84 28t49 25q25 0 25 -25t-49 -55.5t-108 -36.5l2 -70q0 -51 -35 -51t-35 51q0 37 1 73q-89 16 -145 89.5t-56 170.5t54.5 170t147.5 91
q-1 42 -1 88.5t34 46.5t34 -51zM260 58q2 110 2 174.5t-0.5 126t-0.5 84.5q-55 -17 -92 -70t-37 -121t35.5 -121.5t92.5 -72.5z" />
    <glyph glyph-name="sterling" unicode="&#xa3;" horiz-adv-x="536" 
d="M365 321l-150 3q2 -40 1.5 -71t-11 -68.5t-21 -59.5t-31.5 -60q33 -1 100.5 -1t121 3.5t68 3.5t28 -10t13.5 -28t-13.5 -28t-36.5 -10l-151 5l-162 -5q-23 0 -37 13t-14 34.5t19.5 52t39.5 74t20.5 80.5t-1.5 73l-47 -1q-18 0 -29.5 9t-11.5 24t11.5 24t21.5 9t22.5 -0.5
t22.5 -0.5q-3 14 -12 54q-17 74 -17 109q0 70 50.5 118t141.5 48q54 0 104.5 -28t51.5 -58q0 -11 -8 -21t-23.5 -10t-53.5 25.5t-84 25.5t-76.5 -26t-30.5 -70t25 -169l159 3q18 0 29.5 -9t11.5 -24t-11.5 -24t-29.5 -9z" />
    <glyph glyph-name="currency" unicode="&#xa4;" horiz-adv-x="641" 
d="M498 413q31 -54 31 -120.5t-31 -120.5l60 -57q20 -18 20 -34.5t-11 -27.5t-25.5 -11t-30.5 14.5t-58 59.5q-56 -48 -133 -48t-132 49l-53 -55q-22 -19 -37 -19t-25.5 10.5t-10.5 27t20 34.5l61 59q-29 52 -29 117t30 119q-56 54 -62 61q-20 22 -20 36.5t11 25.5t27.5 11
t34.5 -20l55 -57q56 48 130.5 48t131.5 -47l53 56q22 19 37 19t25.5 -10.5t10.5 -27t-20 -34.5q-29 -29 -60 -58zM419.5 181q41.5 47 41.5 112.5t-39.5 111t-97.5 45.5t-99.5 -47t-41.5 -112.5t39.5 -111t97.5 -45.5t99.5 47z" />
    <glyph glyph-name="yen" unicode="&#xa5;" horiz-adv-x="585" 
d="M326 225l146 3q18 0 29.5 -8.5t11.5 -23.5t-11.5 -23.5t-44 -8.5t-131.5 3l3 -127q0 -50 -39 -50t-39 50l4 127q-93 -3 -124 -3t-42.5 8.5t-11.5 23.5t11.5 23.5t29.5 8.5l137 -3v79q-93 -3 -124 -3t-42.5 8.5t-11.5 23.5t11.5 23.5t24.5 8.5q38 0 113 -3l-82 145
q-43 74 -57.5 98.5t-22.5 38.5q-11 23 -11 37.5t10 24t21.5 9.5t18 -2.5t13 -10t11.5 -14.5t13 -21t13 -25t15.5 -32t52.5 -105.5t72 -131.5q26 39 93 175t78 151.5t27.5 15.5t27 -9.5t10.5 -18t-0.5 -12t-1.5 -7.5t-4.5 -10.5l-7 -13t-11 -19t-15 -25.5t-20.5 -35.5
t-26 -45.5l-89 -157q81 3 108.5 3t39 -8.5t11.5 -23.5t-11.5 -23.5t-45.5 -8.5t-130 3v-79z" />
    <glyph glyph-name="brokenbar" unicode="&#xa6;" horiz-adv-x="232" 
d="M146 533l5 -148q0 -21 -9.5 -33.5t-26.5 -12.5q-34 0 -34 46l5 148l-4 151q0 43 33 43q35 0 35 -43zM146 -36l5 -148q0 -21 -9.5 -33.5t-26.5 -12.5q-34 0 -34 46l5 148l-4 151q0 43 33 43q35 0 35 -43z" />
    <glyph glyph-name="section" unicode="&#xa7;" horiz-adv-x="536" 
d="M453.5 343.5q31.5 -41.5 31.5 -92t-28 -94.5t-74 -69q66 -61 66 -136t-60.5 -131t-152.5 -56q-65 0 -123.5 33t-58.5 66q0 14 8.5 22t21.5 8t27 -10t26.5 -21.5t39 -21.5t59.5 -10q56 0 94.5 34t38.5 88q0 37 -31.5 72t-76 63.5t-89 58t-76 68.5t-31.5 89.5t37 91.5
t99 55q-100 80 -100 150t52.5 117t123.5 47t119 -23t48 -54q0 -12 -8 -20t-20 -8t-28 10q-48 29 -96.5 29t-79.5 -25.5t-31 -64.5t31.5 -73t76 -62.5t89 -58.5t76 -71.5zM387.5 177.5q23.5 33.5 23.5 78.5t-55 90t-104 45t-81 -25t-32 -64q0 -36 41 -71q29 -24 77.5 -56
t67.5 -45q39 14 62.5 47.5z" />
    <glyph glyph-name="dieresis" unicode="&#xa8;" horiz-adv-x="391" 
d="M151 711.5q10 -13.5 10 -34t-14 -41t-35 -20.5t-31.5 14t-10.5 37t14.5 40.5t35.5 17.5t31 -13.5zM311 711.5q10 -13.5 10 -34t-14 -41t-35 -20.5t-31.5 14t-10.5 37t14.5 40.5t35.5 17.5t31 -13.5z" />
    <glyph glyph-name="copyright" unicode="&#xa9;" horiz-adv-x="756" 
d="M383 635q42 0 77 -16.5t35 -38.5q0 -28 -27 -28q-8 0 -32.5 14t-47.5 14q-58 0 -90.5 -41.5t-32.5 -98.5t35.5 -97t87.5 -40q28 0 58 12.5t36 12.5q22 0 22 -23q0 -16 -35 -36.5t-86 -20.5q-76 0 -127.5 57t-51.5 137t50 136.5t129 56.5zM692 442q0 -132 -92 -225
t-222 -93t-222 93t-92 225t92 225t222 93t222 -93t92 -225zM631 442q0 110 -74.5 187.5t-179.5 77.5t-179 -77.5t-74 -187.5t74 -187.5t179 -77.5t179.5 77.5t74.5 187.5z" />
    <glyph glyph-name="ordfeminine" unicode="&#xaa;" horiz-adv-x="410" 
d="M318 546q0 -22 6 -56q6 -40 24 -44q4 -1 7 -2q7 -1 7 -5q0 -21 -12.5 -34t-33.5 -13q-39 0 -47 80q-13 -33 -42.5 -56.5t-64.5 -23.5q-54 0 -84.5 47t-30.5 109.5t40 112t101 49.5q44 0 76 -32q5 32 33 32q33 0 33 -57q0 -9 -12 -107zM266 550l-3 73q-32 32 -70 32
t-63 -31.5t-25 -76t16.5 -73.5t45 -29t57.5 31.5t42 73.5z" />
    <glyph glyph-name="guillemotleft" unicode="&#xab;" horiz-adv-x="507" 
d="M51 327q-7 11 -7 23.5t8 23.5t34 34.5t37 34.5t25.5 27t21.5 22q17 18 32.5 18t24.5 -9.5t9 -23t-9.5 -23.5t-30 -24.5t-30.5 -23.5q-48 -43 -48 -57t48 -57q10 -9 30.5 -23.5t30 -24.5t9.5 -23.5t-9 -23t-20.5 -9.5t-21 5.5t-16 12t-21 22.5t-26 27.5t-29.5 28
t-26.5 24.5t-15.5 19zM260 327q-7 11 -7 23.5t8 23.5t34 34.5t37 34.5t25.5 27t20.5 22q18 18 33.5 18t24.5 -9.5t9 -23t-9.5 -23.5t-30 -24.5t-30.5 -23.5q-48 -43 -48 -57t48 -57q10 -9 30.5 -23.5t30 -24.5t9.5 -23.5t-9 -23t-20.5 -9.5t-21 5.5t-16 12t-21 22.5
t-26 27.5t-29.5 28t-26.5 24.5t-15.5 19z" />
    <glyph glyph-name="logicalnot" unicode="&#xac;" horiz-adv-x="634" 
d="M554 191l2 -60q0 -18 -10 -29.5t-25 -11.5t-25 11.5t-10 29.5l3 60v38q-78 2 -173 2l-197 -3q-19 0 -30 9t-11 24t11 24t30 9l197 -3l197 3q43 0 43 -43z" />
    <glyph glyph-name="uni00AD" unicode="&#xad;" horiz-adv-x="428" 
d="M214 291l107 3q18 0 29.5 -9t11.5 -24t-11.5 -24t-29.5 -9l-107 3l-107 -3q-18 0 -29.5 9t-11.5 24t11.5 24t29.5 9z" />
    <glyph glyph-name="registered" unicode="&#xae;" horiz-adv-x="756" 
d="M692 442q0 -132 -92 -225t-222 -93t-222 93t-92 225t92 225t222 93t222 -93t92 -225zM631 442q0 110 -74.5 187.5t-179.5 77.5t-179 -77.5t-74 -187.5t74 -187.5t179 -77.5t179.5 77.5t74.5 187.5zM246 459l-5 137q0 47 123 47q72 0 109.5 -36t37.5 -81q0 -72 -81 -110
q10 -16 18 -32q17 -29 29 -44q17 -25 42 -25q7 0 7 -5q0 -19 -12.5 -32.5t-29 -13.5t-31 13.5t-24 29.5t-26.5 46.5t-29 49.5q-24 -4 -36.5 -4t-36.5 4q3 -72 3 -94.5t-9 -34t-23 -11.5q-30 0 -30 38zM433.5 480q18.5 19 18.5 45t-20.5 45t-61 19t-69.5 -9q0 -12 -1.5 -53
t-1.5 -64q20 9 43 9t55 -11q19 0 37.5 19z" />
    <glyph glyph-name="macron" unicode="&#xaf;" 
d="M218 700l127 3q18 0 29.5 -9t11.5 -24t-11.5 -24t-29.5 -9l-127 3l-127 -3q-18 0 -29.5 9t-11.5 24t11.5 24t29.5 9z" />
    <glyph glyph-name="degree" unicode="&#xb0;" horiz-adv-x="334" 
d="M285 569q0 -62 -32.5 -104t-85.5 -42t-85.5 42t-32.5 104t32.5 104t85.5 42t85.5 -42t32.5 -104zM225 569q0 40 -15 65.5t-42.5 25.5t-43 -26t-15.5 -65t15.5 -65t43 -26t42.5 25.5t15 65.5z" />
    <glyph glyph-name="plusminus" unicode="&#xb1;" horiz-adv-x="570" 
d="M285 60l177 3q18 0 29.5 -9t11.5 -24t-11.5 -24t-29.5 -9l-177 3l-177 -3q-18 0 -29.5 9t-11.5 24t11.5 24t29.5 9zM316 356l146 3q18 0 29.5 -9t11.5 -24t-11.5 -24t-29.5 -9q-50 0 -146 3l4 -127q0 -19 -9.5 -30t-25.5 -11q-33 0 -33 41q0 3 4 127q-102 -3 -134 -3
t-43.5 9t-11.5 24t11.5 24t29.5 9l148 -3q-4 108 -4 113q0 41 33 41q16 0 25.5 -11t9.5 -23t-4 -120z" />
    <glyph glyph-name="twosuperior" unicode="&#xb2;" horiz-adv-x="374" 
d="M181 393l103 5q42 0 42 -32t-42 -32l-102 4l-93 -4q-16 0 -28 9.5t-12 25.5t8.5 31.5t20.5 29.5q157 176 157 226q0 22 -14.5 36t-41.5 14t-50.5 -22.5t-37.5 -22.5t-21.5 8t-7.5 21q0 22 35 48.5t88 26.5t84 -31t31 -70q0 -27 -9 -45.5t-13.5 -28t-15 -25t-15 -21.5
t-17 -22.5t-21.5 -29t-40.5 -50.5t-38.5 -49h51z" />
    <glyph glyph-name="threesuperior" unicode="&#xb3;" horiz-adv-x="370" 
d="M176 763l73 2q54 0 54 -37q0 -12 -10.5 -25t-37 -40t-48.5 -54q55 -12 86 -48.5t31 -88.5t-40 -95t-108 -43q-48 0 -88 30t-40 55.5t24 25.5q12 0 25 -13q40 -38 80 -38t62 23t22 60t-25.5 61.5t-62.5 26.5q-32 -33 -55 -33q-36 0 -36 34q0 14 15 27.5t45 19.5
q38 40 83 91q-45 3 -59 3l-71 -3q-39 0 -39 29q0 14 10.5 23t28.5 9z" />
    <glyph glyph-name="acute" unicode="&#xb4;" horiz-adv-x="285" 
d="M215 722q0 -43 -45.5 -86t-72.5 -43t-27 21q0 12 16 30t23.5 27.5t18 35t22 39.5t29.5 14t27 -11.5t9 -26.5z" />
    <glyph glyph-name="mu" unicode="&#xb5;" horiz-adv-x="611" 
d="M163 40l7 -219q0 -23 -10.5 -37t-28.5 -14t-28.5 14t-10.5 37l6 349q-15 206 -15 264q0 75 46 75q40 0 40 -61q0 -10 -1 -41q-4 -72 -4 -218q0 -59 30 -96t80 -37t98 57t67 129l-3 217q0 51 38 51q46 0 46 -70.5t-20 -197.5q0 -75 11 -122.5t26 -53.5q6 -3 14.5 -4t12 -3
t3.5 -8q0 -27 -16.5 -44t-41.5 -17q-63 0 -63 128q-28 -48 -74 -88t-102.5 -40t-106.5 50z" />
    <glyph glyph-name="paragraph" unicode="&#xb6;" horiz-adv-x="628" 
d="M526 709l-5 -444q0 -180 3 -306t3 -143.5t-10.5 -31.5t-28.5 -14t-28.5 14t-10.5 31.5t1 80.5q5 189 5 369l-5 430q-34 2 -59 2t-59 -2q-5 -280 -5 -406.5t1.5 -228t3 -164.5t1.5 -75q0 -51 -39 -51t-39 51q0 12 1 75q5 189 5 369v63q-95 4 -156 62.5t-61 142.5
q0 106 65.5 165.5t180.5 61.5l101 -3l87 3q22 0 35 -14t13 -37z" />
    <glyph glyph-name="periodcentered" unicode="&#xb7;" horiz-adv-x="222" 
d="M147 299.5q11 -15.5 11 -39t-14.5 -43t-35.5 -19.5t-32.5 16t-11.5 39.5t14.5 42.5t36 19t32.5 -15.5z" />
    <glyph glyph-name="cedilla" unicode="&#xb8;" horiz-adv-x="331" 
d="M271 -137q0 -40 -35 -66.5t-84 -26.5t-79 23t-30 47q0 7 5 13t13 6t34.5 -12.5t49 -12.5t38 9t15.5 21t-15 23.5t-33 21t-33 27t-15 38.5v38h64v-22q0 -30 52 -58q20 -11 36.5 -29t16.5 -40z" />
    <glyph glyph-name="onesuperior" unicode="&#xb9;" horiz-adv-x="297" 
d="M226 550l3 -172q0 -18 -9 -29t-23.5 -11t-23.5 11t-9 29l3 172v120l-31 -35q-4 -5 -23 -29q-36 -47 -56 -47q-31 0 -31 30q0 17 33.5 50t62.5 68t41.5 46.5t29.5 11.5q36 0 36 -51z" />
    <glyph glyph-name="ordmasculine" unicode="&#xba;" horiz-adv-x="358" 
d="M273.5 669q36.5 -46 36.5 -116t-36.5 -115t-94.5 -45t-94.5 45t-36.5 115t36.5 116t94.5 46t94.5 -46zM231.5 476.5q18.5 28.5 18.5 76.5t-19 77.5t-52 29.5t-52 -30t-19 -77.5t19 -76t52.5 -28.5t52 28.5z" />
    <glyph glyph-name="guillemotright" unicode="&#xbb;" horiz-adv-x="506" 
d="M456 371q7 -11 7 -23.5t-8 -23.5t-34 -34.5t-37 -34.5t-25.5 -27t-20.5 -22q-18 -18 -33.5 -18t-24.5 9.5t-9 23t9.5 23.5t30 24.5t30.5 23.5q48 43 48 57t-48 57q-10 9 -30.5 23.5t-30 24.5t-9.5 23.5t9 23t20.5 9.5t21 -5.5t16 -12t21 -22.5t26 -27.5t29.5 -28
t26.5 -24.5t15.5 -19zM247 371q7 -11 7 -23.5t-8 -23.5t-34 -34.5t-37 -34.5t-25.5 -27t-21.5 -22q-17 -18 -32.5 -18t-24.5 9.5t-9 23t9.5 23.5t30 24.5t30.5 23.5q48 43 48 57t-48 57q-10 9 -30.5 23.5t-30 24.5t-9.5 23.5t9 23t20.5 9.5t21 -5.5t16 -12t21 -22.5
t26 -27.5t29.5 -28t26.5 -24.5t15.5 -19z" />
    <glyph glyph-name="onequarter" unicode="&#xbc;" horiz-adv-x="844" 
d="M241 550l3 -172q0 -18 -9 -29t-23.5 -11t-23.5 11t-9 29l3 172v120l-31 -35q-4 -5 -23 -29q-36 -47 -56 -47q-31 0 -31 30q0 17 33.5 50t62.5 68t41.5 46.5t29.5 11.5q36 0 36 -51zM498 547.5q-35 -85.5 -64.5 -168.5t-55.5 -161q-42 -130 -55.5 -170t-25 -51t-24.5 -11
t-23 8t-10 25.5t15.5 58.5t50.5 127.5t63.5 169t55 160t42.5 124t23 65.5q13 42 45 42q10 0 20 -8t10 -25.5t-16 -58.5t-51 -126.5zM734 130l3 -97q0 -43 -30.5 -43t-30.5 43l3 99l-39 1l-131 -3q-17 0 -25 9t-8 22.5t15.5 37t70.5 95.5l75 97q32 41 54.5 41t34 -16.5
t11.5 -40.5l-3 -193q30 2 38.5 2t17 -8.5t8.5 -18.5t-8.5 -19t-24 -9t-31.5 1zM547 182h131q1 39 1 96l-1 78q-18 -20 -131 -174z" />
    <glyph glyph-name="onehalf" unicode="&#xbd;" horiz-adv-x="854" 
d="M241 550l3 -172q0 -18 -9 -29t-23.5 -11t-23.5 11t-9 29l3 172v120l-31 -35q-4 -5 -23 -29q-36 -47 -56 -47q-31 0 -31 30q0 17 33.5 50t62.5 68t41.5 46.5t29.5 11.5q36 0 36 -51zM658 56l103 5q42 0 42 -32t-42 -32l-102 4l-93 -4q-16 0 -28 9.5t-12 25.5t8.5 31.5
t20.5 28.5q157 177 157 227q0 22 -14.5 36t-41.5 14t-50.5 -22.5t-37.5 -22.5t-21.5 8t-7.5 21q0 22 35 48.5t88 26.5t84 -31t31 -70q0 -27 -9 -45.5t-13.5 -28t-15 -25t-15 -21.5t-17 -22.5t-21.5 -29t-40.5 -50.5t-38.5 -49h51zM498 547.5q-35 -85.5 -64.5 -168.5
t-55.5 -161q-42 -130 -55.5 -170t-25 -51t-24.5 -11t-23 8t-10 25.5t15.5 58.5t50.5 127.5t63.5 169t55 160t42.5 124t23 65.5q13 42 45 42q10 0 20 -8t10 -25.5t-16 -58.5t-51 -126.5z" />
    <glyph glyph-name="threequarters" unicode="&#xbe;" horiz-adv-x="894" 
d="M550 547.5q-35 -85.5 -64.5 -168.5t-55.5 -161q-42 -130 -55.5 -170t-25 -51t-24.5 -11t-23 8t-10 25.5t15.5 58.5t50.5 127.5t63.5 169t55 160t42.5 124t23 65.5q13 42 45 42q10 0 20 -8t10 -25.5t-16 -58.5t-51 -126.5zM786 130l3 -97q0 -43 -30.5 -43t-30.5 43l3 99
l-39 1l-131 -3q-17 0 -25 9t-8 22.5t15.5 37t70.5 95.5l75 97q32 41 54.5 41t34 -16.5t11.5 -40.5l-3 -193q30 2 38.5 2t17 -8.5t8.5 -18.5t-8.5 -19t-24 -9t-31.5 1zM599 182h131q1 39 1 96l-1 78q-18 -20 -131 -174zM182 763l73 2q54 0 54 -37q0 -12 -10.5 -25t-37 -40
t-48.5 -54q55 -12 86 -48.5t31 -88.5t-40 -95t-108 -43q-48 0 -88 30t-40 55.5t24 25.5q12 0 25 -13q40 -38 80 -38t62 23t22 60t-25.5 61.5t-62.5 26.5q-32 -33 -55 -33q-36 0 -36 34q0 14 15 27.5t45 19.5q38 40 83 91q-45 3 -59 3l-71 -3q-39 0 -39 29q0 14 10.5 23
t28.5 9z" />
    <glyph glyph-name="questiondown" unicode="&#xbf;" horiz-adv-x="443" 
d="M295 271q0 -76 -62 -143q-26 -28 -52 -54q-62 -64 -62 -125q0 -48 34.5 -81.5t71 -33.5t60.5 12t35 26q28 38 45 38t25.5 -9.5t8.5 -22.5q0 -35 -51.5 -71.5t-114.5 -36.5q-83 0 -134.5 51.5t-51.5 127.5q0 80 62 145q26 28 52 54q62 62 62 120.5t35 58.5q37 0 37 -56z
M294 529q11 -16 11 -38.5t-14.5 -41.5t-35 -19t-31.5 15t-11 38.5t14.5 42.5t35 19t31.5 -16z" />
    <glyph glyph-name="Agrave" unicode="&#xc0;" horiz-adv-x="642" 
d="M510 318l44 1q22 0 36 -11t14 -28q0 -38 -70 -38q16 -49 23.5 -72t20.5 -58q26 -72 26 -86t-9 -25t-25 -11q-29 0 -44 35q-14 38 -34.5 106t-35.5 115q-120 3 -167 3t-112 -3q-62 -208 -66 -219q-14 -37 -39 -37q-15 0 -24 10t-9 24.5t9 45t27.5 84.5t29.5 90h-18
q-48 0 -48 37t48 37q23 0 41 -1q3 8 131 383q21 60 58 60q25 0 38.5 -14.5t22.5 -37t30 -86.5q66 -201 102 -304zM199 315q56 -3 119.5 -3t115.5 3q-103 331 -115 331q-14 0 -93 -248zM364 824q0 -21 -27 -21t-72.5 43t-45.5 86q0 15 9 26.5t27 11.5t29.5 -14t22 -39.5
t18 -35t19.5 -22.5q20 -23 20 -35z" />
    <glyph glyph-name="Aacute" unicode="&#xc1;" horiz-adv-x="642" 
d="M510 318l44 1q22 0 36 -11t14 -28q0 -38 -70 -38q16 -49 23.5 -72t20.5 -58q26 -72 26 -86t-9 -25t-25 -11q-29 0 -44 35q-14 38 -34.5 106t-35.5 115q-120 3 -167 3t-112 -3q-62 -208 -66 -219q-14 -37 -39 -37q-15 0 -24 10t-9 24.5t9 45t27.5 84.5t29.5 90h-18
q-48 0 -48 37t48 37q23 0 41 -1q3 8 131 383q21 60 58 60q25 0 38.5 -14.5t22.5 -37t30 -86.5q66 -201 102 -304zM199 315q56 -3 119.5 -3t115.5 3q-103 331 -115 331q-14 0 -93 -248zM414 932q0 -43 -45.5 -86t-72.5 -43t-27 21q0 12 16 30t23.5 27.5t18 35t22 39.5
t29.5 14t27 -11.5t9 -26.5z" />
    <glyph glyph-name="Acircumflex" unicode="&#xc2;" horiz-adv-x="642" 
d="M510 318l44 1q22 0 36 -11t14 -28q0 -38 -70 -38q16 -49 23.5 -72t20.5 -58q26 -72 26 -86t-9 -25t-25 -11q-29 0 -44 35q-14 38 -34.5 106t-35.5 115q-120 3 -167 3t-112 -3q-62 -208 -66 -219q-14 -37 -39 -37q-15 0 -24 10t-9 24.5t9 45t27.5 84.5t29.5 90h-18
q-48 0 -48 37t48 37q23 0 41 -1q3 8 131 383q21 60 58 60q25 0 38.5 -14.5t22.5 -37t30 -86.5q66 -201 102 -304zM199 315q56 -3 119.5 -3t115.5 3q-103 331 -115 331q-14 0 -93 -248zM463 857.5q4 -7.5 4 -18t-9 -19t-21.5 -8.5t-23.5 9t-21.5 23.5t-14.5 17.5
q-40 48 -55.5 48t-55.5 -48q-4 -3 -14 -18q-24 -32 -41 -32t-26 8.5t-9 19t4.5 18t9 12t18 16t25.5 23t29.5 34.5t29 32t29.5 9t30 -9t30 -32t30 -34.5t25 -23t18 -16t9 -12z" />
    <glyph glyph-name="Atilde" unicode="&#xc3;" horiz-adv-x="642" 
d="M510 318l44 1q22 0 36 -11t14 -28q0 -38 -70 -38q16 -49 23.5 -72t20.5 -58q26 -72 26 -86t-9 -25t-25 -11q-29 0 -44 35q-14 38 -34.5 106t-35.5 115q-120 3 -167 3t-112 -3q-62 -208 -66 -219q-14 -37 -39 -37q-15 0 -24 10t-9 24.5t9 45t27.5 84.5t29.5 90h-18
q-48 0 -48 37t48 37q23 0 41 -1q3 8 131 383q21 60 58 60q25 0 38.5 -14.5t22.5 -37t30 -86.5q66 -201 102 -304zM199 315q56 -3 119.5 -3t115.5 3q-103 331 -115 331q-14 0 -93 -248zM500 912q0 -34 -25.5 -59.5t-60 -25.5t-82.5 27.5t-68.5 27.5t-34 -15t-25.5 -30.5
t-26.5 -15.5t-24.5 11t-10 25q0 35 32 61.5t73.5 26.5t93 -28t73 -28t38.5 25.5t26 25.5t15 -8.5t6 -19.5z" />
    <glyph glyph-name="Adieresis" unicode="&#xc4;" horiz-adv-x="642" 
d="M510 318l44 1q22 0 36 -11t14 -28q0 -38 -70 -38q16 -49 23.5 -72t20.5 -58q26 -72 26 -86t-9 -25t-25 -11q-29 0 -44 35q-14 38 -34.5 106t-35.5 115q-120 3 -167 3t-112 -3q-62 -208 -66 -219q-14 -37 -39 -37q-15 0 -24 10t-9 24.5t9 45t27.5 84.5t29.5 90h-18
q-48 0 -48 37t48 37q23 0 41 -1q3 8 131 383q21 60 58 60q25 0 38.5 -14.5t22.5 -37t30 -86.5q66 -201 102 -304zM199 315q56 -3 119.5 -3t115.5 3q-103 331 -115 331q-14 0 -93 -248zM282 941.5q10 -13.5 10 -34t-14 -41t-35 -20.5t-31.5 14t-10.5 37t14.5 40.5t35.5 17.5
t31 -13.5zM442 941.5q10 -13.5 10 -34t-14 -41t-35 -20.5t-31.5 14t-10.5 37t14.5 40.5t35.5 17.5t31 -13.5z" />
    <glyph glyph-name="Aring" unicode="&#xc5;" horiz-adv-x="642" 
d="M510 318l44 1q22 0 36 -11t14 -28q0 -38 -70 -38q16 -49 23.5 -72t20.5 -58q26 -72 26 -86t-9 -25t-25 -11q-29 0 -44 35q-14 38 -34.5 106t-35.5 115q-120 3 -167 3t-112 -3q-62 -208 -66 -219q-14 -37 -39 -37q-15 0 -24 10t-9 24.5t9 45t27.5 84.5t29.5 90h-18
q-48 0 -48 37t48 37q23 0 41 -1q3 8 131 383q21 60 58 60q25 0 38.5 -14.5t22.5 -37t30 -86.5q66 -201 102 -304zM199 315q56 -3 119.5 -3t115.5 3q-103 331 -115 331q-14 0 -93 -248zM409 891q0 -40 -25 -67t-66 -27t-66 26.5t-25 67t26 68t65 27.5t65 -27.5t26 -67.5z
M349 858.5q13 14.5 13 33t-13.5 33t-30.5 14.5t-30.5 -14.5t-13.5 -33t13 -33t31 -14.5t31 14.5z" />
    <glyph glyph-name="AE" unicode="&#xc6;" horiz-adv-x="841" 
d="M383 313q-38 240 -64 333q-14 0 -93 -248l-27 -83q56 -3 95.5 -3t60.5 0.5t28 0.5zM628 0l-149 -5q-48 0 -55 43q-13 74 -34 212q-130 0 -213 -4q-64 -215 -72 -233q-15 -20 -29 -21q-37 0 -37 37q0 16 27.5 97t38.5 118h-18q-48 0 -48 37t48 37q23 0 41 -1
q12 34 130 378q21 60 59 60l212 -5l140 5q50 0 50 -38t-50 -38l-140 5q-106 0 -140 -4q20 -126 40 -240q44 -2 73 -2l170 5q23 0 36.5 -10.5t13.5 -28.5q0 -37 -50 -37l-170 5q-24 0 -60 -2q51 -275 58 -300q64 -4 128 -4l152 5q50 0 50 -38t-50 -38z" />
    <glyph glyph-name="Ccedilla" unicode="&#xc7;" horiz-adv-x="637" 
d="M487 -137q0 -40 -35 -66.5t-84 -26.5t-79 23t-30 47q0 7 5 13t13 6t34.5 -12.5t49 -12.5t38 9t15.5 21t-15 24t-33 22.5t-33 32t-15 47.5q-116 22 -188.5 131t-72.5 263.5t90 267.5t226 113q79 0 142 -31t63 -70q0 -16 -9.5 -25t-25.5 -9t-37 16q-64 49 -133 49
q-102 0 -168.5 -94.5t-66.5 -223t66.5 -225.5t167.5 -97q60 0 103 16.5t65.5 33t32.5 16.5q27 0 27 -28.5t-65 -66.5t-153 -41q3 -28 55 -55q19 -10 34.5 -27.5t15.5 -39.5z" />
    <glyph glyph-name="Egrave" unicode="&#xc8;" horiz-adv-x="588" 
d="M329 66l162 5q50 0 50 -38t-50 -38l-162 5l-175 -5q-45 0 -45 38q0 35 2.5 118t2.5 212q-9 -1 -20 -1q-48 0 -48 37q0 17 13 28t29.5 11t25.5 -1q-2 201 -7 243q-12 17 -12 37q0 38 53 38l193 -5l150 5q50 0 50 -38t-50 -38l-150 5q-114 0 -150 -4q-5 -131 -5 -245
q44 -2 70 -2l180 5q23 0 36.5 -10.5t13.5 -28.5q0 -37 -50 -37l-180 5q-28 0 -70 -2v-99q0 -149 5 -196q70 -4 138 -4zM346 824q0 -21 -27 -21t-72.5 43t-45.5 86q0 15 9 26.5t27 11.5t29.5 -14t22 -39.5t18 -35t19.5 -22.5q20 -23 20 -35z" />
    <glyph glyph-name="Eacute" unicode="&#xc9;" horiz-adv-x="588" 
d="M329 66l162 5q50 0 50 -38t-50 -38l-162 5l-175 -5q-45 0 -45 38q0 35 2.5 118t2.5 212q-9 -1 -20 -1q-48 0 -48 37q0 17 13 28t29.5 11t25.5 -1q-2 201 -7 243q-12 17 -12 37q0 38 53 38l193 -5l150 5q50 0 50 -38t-50 -38l-150 5q-114 0 -150 -4q-5 -131 -5 -245
q44 -2 70 -2l180 5q23 0 36.5 -10.5t13.5 -28.5q0 -37 -50 -37l-180 5q-28 0 -70 -2v-99q0 -149 5 -196q70 -4 138 -4zM416 932q0 -43 -45.5 -86t-72.5 -43t-27 21q0 12 16 30t23.5 27.5t18 35t22 39.5t29.5 14t27 -11.5t9 -26.5z" />
    <glyph glyph-name="Ecircumflex" unicode="&#xca;" horiz-adv-x="588" 
d="M329 66l162 5q50 0 50 -38t-50 -38l-162 5l-175 -5q-45 0 -45 38q0 35 2.5 118t2.5 212q-9 -1 -20 -1q-48 0 -48 37q0 17 13 28t29.5 11t25.5 -1q-2 201 -7 243q-12 17 -12 37q0 38 53 38l193 -5l150 5q50 0 50 -38t-50 -38l-150 5q-114 0 -150 -4q-5 -131 -5 -245
q44 -2 70 -2l180 5q23 0 36.5 -10.5t13.5 -28.5q0 -37 -50 -37l-180 5q-28 0 -70 -2v-99q0 -149 5 -196q70 -4 138 -4zM455 857.5q4 -7.5 4 -18t-9 -19t-21.5 -8.5t-23.5 9t-21.5 23.5t-14.5 17.5q-40 48 -55.5 48t-55.5 -48q-4 -3 -14 -18q-24 -32 -41 -32t-26 8.5t-9 19
t4.5 18t9 12t18 16t25.5 23t29.5 34.5t29 32t29.5 9t30 -9t30 -32t30 -34.5t25 -23t18 -16t9 -12z" />
    <glyph glyph-name="Edieresis" unicode="&#xcb;" horiz-adv-x="588" 
d="M329 66l162 5q50 0 50 -38t-50 -38l-162 5l-175 -5q-45 0 -45 38q0 35 2.5 118t2.5 212q-9 -1 -20 -1q-48 0 -48 37q0 17 13 28t29.5 11t25.5 -1q-2 201 -7 243q-12 17 -12 37q0 38 53 38l193 -5l150 5q50 0 50 -38t-50 -38l-150 5q-114 0 -150 -4q-5 -131 -5 -245
q44 -2 70 -2l180 5q23 0 36.5 -10.5t13.5 -28.5q0 -37 -50 -37l-180 5q-28 0 -70 -2v-99q0 -149 5 -196q70 -4 138 -4zM279 941.5q10 -13.5 10 -34t-14 -41t-35 -20.5t-31.5 14t-10.5 37t14.5 40.5t35.5 17.5t31 -13.5zM439 941.5q10 -13.5 10 -34t-14 -41t-35 -20.5
t-31.5 14t-10.5 37t14.5 40.5t35.5 17.5t31 -13.5z" />
    <glyph glyph-name="Igrave" unicode="&#xcc;" 
d="M260 66l88 5q23 0 36.5 -10.5t13.5 -27.5t-14 -28t-36 -11l-129 6l-132 -5q-50 0 -50 38t50 38q11 0 91 -5q5 225 5 308.5t-5 308.5q-88 -4 -91 -4q-48 0 -48 37q0 18 13 28.5t35 10.5l132 -5q34 0 79 3t58.5 3t28 -11.5t14.5 -28.5t-14 -27.5t-29.5 -10.5t-95.5 5
q-5 -230 -5 -311t5 -306zM261 824q0 -21 -27 -21t-72.5 43t-45.5 86q0 15 9 26.5t27 11.5t29.5 -14t22 -39.5t18 -35t18.5 -22.5q21 -23 21 -35z" />
    <glyph glyph-name="Iacute" unicode="&#xcd;" 
d="M260 66l88 5q23 0 36.5 -10.5t13.5 -27.5t-14 -28t-36 -11l-129 6l-132 -5q-50 0 -50 38t50 38q11 0 91 -5q5 225 5 308.5t-5 308.5q-88 -4 -91 -4q-48 0 -48 37q0 18 13 28.5t35 10.5l132 -5q34 0 79 3t58.5 3t28 -11.5t14.5 -28.5t-14 -27.5t-29.5 -10.5t-95.5 5
q-5 -230 -5 -311t5 -306zM321 932q0 -43 -45.5 -86t-72.5 -43t-27 21q0 12 16 30t23.5 27.5t18 35t22 39.5t29.5 14t27 -11.5t9 -26.5z" />
    <glyph glyph-name="Icircumflex" unicode="&#xce;" 
d="M260 66l88 5q23 0 36.5 -10.5t13.5 -27.5t-14 -28t-36 -11l-129 6l-132 -5q-50 0 -50 38t50 38q11 0 91 -5q5 225 5 308.5t-5 308.5q-88 -4 -91 -4q-48 0 -48 37q0 18 13 28.5t35 10.5l132 -5q34 0 79 3t58.5 3t28 -11.5t14.5 -28.5t-14 -27.5t-29.5 -10.5t-95.5 5
q-5 -230 -5 -311t5 -306zM361 857.5q4 -7.5 4 -18t-9 -19t-21.5 -8.5t-23.5 9t-21.5 23.5t-14.5 17.5q-40 48 -55.5 48t-55.5 -48q-4 -3 -14 -18q-24 -32 -41 -32t-26 8.5t-9 19t4.5 18t9 12t18 16t25.5 23t29.5 34.5t29 32t29.5 9t30 -9t30 -32t30 -34.5t25 -23t18 -16
t9 -12z" />
    <glyph glyph-name="Idieresis" unicode="&#xcf;" 
d="M260 66l88 5q23 0 36.5 -10.5t13.5 -27.5t-14 -28t-36 -11l-129 6l-132 -5q-50 0 -50 38t50 38q11 0 91 -5q5 225 5 308.5t-5 308.5q-88 -4 -91 -4q-48 0 -48 37q0 18 13 28.5t35 10.5l132 -5q34 0 79 3t58.5 3t28 -11.5t14.5 -28.5t-14 -27.5t-29.5 -10.5t-95.5 5
q-5 -230 -5 -311t5 -306zM174 941.5q10 -13.5 10 -34t-14 -41t-35 -20.5t-31.5 14t-10.5 37t14.5 40.5t35.5 17.5t31 -13.5zM334 941.5q10 -13.5 10 -34t-14 -41t-35 -20.5t-31.5 14t-10.5 37t14.5 40.5t35.5 17.5t31 -13.5z" />
    <glyph glyph-name="Eth" unicode="&#xd0;" horiz-adv-x="728" 
d="M134 401l-5 253q-48 0 -48 38q0 34 66 51t149 17t158 -34t122 -90q96 -116 96 -272q0 -150 -93 -260q-45 -54 -117.5 -86.5t-166 -32.5t-156 21.5t-62.5 55.5q0 12 7.5 20t20.5 8t26 -7l3 257q-80 -2 -92 -2t-23.5 9t-11.5 24t11.5 24t32 9t83.5 -3zM361.5 347
q-11.5 -9 -40 -9t-115.5 3q0 -169 6 -279q28 -6 84 -6q142 0 220 91t78 222q0 128 -76 220q-37 45 -97 72t-135 27q-37 0 -75 -9q-5 -70 -5 -278l126 3q18 0 29.5 -9t11.5 -24t-11.5 -24z" />
    <glyph glyph-name="Ntilde" unicode="&#xd1;" horiz-adv-x="691" 
d="M594 709l-5 -337l2 -331q0 -23 -12.5 -37t-34.5 -14t-38 27q-5 8 -36 65q-98 178 -145.5 258.5t-90.5 159t-60 105.5v-233q0 -168 2.5 -245.5t2.5 -92.5t-12 -29.5t-29 -14.5t-29 14.5t-12 29.5t1.5 61.5t2.5 122t1 154.5t-1 156t-2.5 124.5t-1.5 62.5t12 30t30 15
q32 0 48 -27q9 -14 147.5 -262.5t182.5 -319.5v221l-5 337q0 22 12 36.5t29 14.5t29 -14.5t12 -36.5zM527 904q0 -34 -25.5 -59.5t-60 -25.5t-82.5 27.5t-68.5 27.5t-34 -15t-25.5 -30.5t-26.5 -15.5t-24.5 11t-10 25q0 35 32 61.5t73.5 26.5t93 -28t73 -28t38.5 25.5
t26 25.5t15 -8.5t6 -19.5z" />
    <glyph glyph-name="Ograve" unicode="&#xd2;" horiz-adv-x="774" 
d="M564.5 154q71.5 96 71.5 223.5t-71 221t-178 93.5t-178 -93.5t-71 -221t71.5 -223.5t177.5 -96t177.5 96zM717 376q0 -163 -95 -277t-235.5 -114t-235 114t-94.5 276.5t95 276t236 113.5t235 -113t94 -276zM429 824q0 -21 -27 -21t-72.5 43t-45.5 86q0 15 9 26.5t27 11.5
t29.5 -14t22 -39.5t18 -35t18.5 -22.5q21 -23 21 -35z" />
    <glyph glyph-name="Oacute" unicode="&#xd3;" horiz-adv-x="774" 
d="M564.5 154q71.5 96 71.5 223.5t-71 221t-178 93.5t-178 -93.5t-71 -221t71.5 -223.5t177.5 -96t177.5 96zM717 376q0 -163 -95 -277t-235.5 -114t-235 114t-94.5 276.5t95 276t236 113.5t235 -113t94 -276zM489 932q0 -43 -45.5 -86t-72.5 -43t-27 21q0 12 16 30
t23.5 27.5t18 35t22 39.5t29.5 14t27 -11.5t9 -26.5z" />
    <glyph glyph-name="Ocircumflex" unicode="&#xd4;" horiz-adv-x="774" 
d="M564.5 154q71.5 96 71.5 223.5t-71 221t-178 93.5t-178 -93.5t-71 -221t71.5 -223.5t177.5 -96t177.5 96zM717 376q0 -163 -95 -277t-235.5 -114t-235 114t-94.5 276.5t95 276t236 113.5t235 -113t94 -276zM528 857.5q4 -7.5 4 -18t-9 -19t-21.5 -8.5t-23.5 9t-21.5 23.5
t-14.5 17.5q-40 48 -55.5 48t-55.5 -48q-4 -3 -15 -18q-23 -32 -40 -32t-26 8.5t-9 19t4.5 18t9 12t18 16t25.5 23t29.5 34.5t29 32t29.5 9t30 -9t30 -32t30 -34.5t25 -23t18 -16t9 -12z" />
    <glyph glyph-name="Otilde" unicode="&#xd5;" horiz-adv-x="774" 
d="M564.5 154q71.5 96 71.5 223.5t-71 221t-178 93.5t-178 -93.5t-71 -221t71.5 -223.5t177.5 -96t177.5 96zM717 376q0 -163 -95 -277t-235.5 -114t-235 114t-94.5 276.5t95 276t236 113.5t235 -113t94 -276zM565 912q0 -34 -25.5 -59.5t-60 -25.5t-82.5 27.5t-68.5 27.5
t-34 -15t-25.5 -30.5t-26.5 -15.5t-24.5 11t-10 25q0 35 32 61.5t73.5 26.5t93 -28t73 -28t38.5 25.5t26 25.5t15 -8.5t6 -19.5z" />
    <glyph glyph-name="Odieresis" unicode="&#xd6;" horiz-adv-x="774" 
d="M564.5 154q71.5 96 71.5 223.5t-71 221t-178 93.5t-178 -93.5t-71 -221t71.5 -223.5t177.5 -96t177.5 96zM717 376q0 -163 -95 -277t-235.5 -114t-235 114t-94.5 276.5t95 276t236 113.5t235 -113t94 -276zM342 941.5q10 -13.5 10 -34t-14 -41t-35 -20.5t-31.5 14
t-10.5 37t14.5 40.5t35.5 17.5t31 -13.5zM502 941.5q10 -13.5 10 -34t-14 -41t-35 -20.5t-31.5 14t-10.5 37t14.5 40.5t35.5 17.5t31 -13.5z" />
    <glyph glyph-name="multiply" unicode="&#xd7;" horiz-adv-x="504" 
d="M421 432.5q10 -9.5 10 -23t-9.5 -24t-31.5 -31.5q-71 -69 -97 -97q28 -29 75 -75t56.5 -55.5t9.5 -23t-9.5 -23.5t-23.5 -10t-25.5 11t-29.5 31q-42 46 -94 101q-109 -119 -122 -131.5t-27 -12.5t-23.5 10t-9.5 23.5t9.5 23t31.5 30.5q72 71 100 100q-26 28 -72.5 73
t-56 55.5t-9.5 24t10 23t24 9.5t25.5 -11.5t52 -56t67.5 -72.5q100 110 115.5 125.5t29.5 15.5t24 -9.5z" />
    <glyph glyph-name="Oslash" unicode="&#xd8;" horiz-adv-x="755" 
d="M698 376q0 -163 -92.5 -277t-228.5 -114q-57 0 -109 22q-4 -8 -16 -39.5t-39 -31.5q-15 0 -25 10t-10 26t24 74q-67 53 -105.5 140.5t-38.5 189.5q0 162 92.5 275.5t228.5 113.5q53 0 105 -21l10 25q15 35 41 35q17 0 26 -11t9 -25t-19 -62q68 -52 107.5 -139.5
t39.5 -190.5zM519 632q-123 -287 -224 -554q38 -20 83 -20q102 0 170.5 96t68.5 222q0 76 -26 144t-72 112zM344 382l114 292q-37 18 -80 18q-103 0 -171 -93.5t-68 -222.5q0 -74 25.5 -141.5t69.5 -112.5q48 108 110 260z" />
    <glyph glyph-name="Ugrave" unicode="&#xd9;" horiz-adv-x="683" 
d="M341 -15q-117 0 -179.5 76.5t-64.5 185.5q-6 458 -6 471.5t11 27.5t30 14t30 -14t11 -30t-1 -68q-4 -123 -4 -239t3.5 -153t14 -77t28.5 -65q43 -59 127 -59q105 0 142 83q32 72 32 190.5t-2.5 248.5t-2.5 132q0 23 11 37t30 14t30 -14t11 -37q0 -188 -6 -463
q-2 -109 -65 -185t-180 -76zM394 824q0 -21 -27 -21t-72.5 43t-45.5 86q0 15 9 26.5t27 11.5t29.5 -14t22 -39.5t18 -35t19.5 -22.5q20 -23 20 -35z" />
    <glyph glyph-name="Uacute" unicode="&#xda;" horiz-adv-x="683" 
d="M341 -15q-117 0 -179.5 76.5t-64.5 185.5q-6 458 -6 471.5t11 27.5t30 14t30 -14t11 -30t-1 -68q-4 -123 -4 -239t3.5 -153t14 -77t28.5 -65q43 -59 127 -59q105 0 142 83q32 72 32 190.5t-2.5 248.5t-2.5 132q0 23 11 37t30 14t30 -14t11 -37q0 -188 -6 -463
q-2 -109 -65 -185t-180 -76zM444 932q0 -43 -45.5 -86t-72.5 -43t-27 21q0 12 16 30t23.5 27.5t18 35t22 39.5t29.5 14t27 -11.5t9 -26.5z" />
    <glyph glyph-name="Ucircumflex" unicode="&#xdb;" horiz-adv-x="683" 
d="M341 -15q-117 0 -179.5 76.5t-64.5 185.5q-6 458 -6 471.5t11 27.5t30 14t30 -14t11 -30t-1 -68q-4 -123 -4 -239t3.5 -153t14 -77t28.5 -65q43 -59 127 -59q105 0 142 83q32 72 32 190.5t-2.5 248.5t-2.5 132q0 23 11 37t30 14t30 -14t11 -37q0 -188 -6 -463
q-2 -109 -65 -185t-180 -76zM485 857.5q4 -7.5 4 -18t-9 -19t-21.5 -8.5t-23.5 9t-21.5 23.5t-14.5 17.5q-40 48 -55.5 48t-55.5 -48q-4 -3 -14 -18q-24 -32 -41 -32t-26 8.5t-9 19t4.5 18t9 12t18 16t25.5 23t29.5 34.5t29 32t29.5 9t30 -9t30 -32t30 -34.5t25 -23t18 -16
t9 -12z" />
    <glyph glyph-name="Udieresis" unicode="&#xdc;" horiz-adv-x="683" 
d="M341 -15q-117 0 -179.5 76.5t-64.5 185.5q-6 458 -6 471.5t11 27.5t30 14t30 -14t11 -30t-1 -68q-4 -123 -4 -239t3.5 -153t14 -77t28.5 -65q43 -59 127 -59q105 0 142 83q32 72 32 190.5t-2.5 248.5t-2.5 132q0 23 11 37t30 14t30 -14t11 -37q0 -188 -6 -463
q-2 -109 -65 -185t-180 -76zM298 941.5q10 -13.5 10 -34t-14 -41t-35 -20.5t-31.5 14t-10.5 37t14.5 40.5t35.5 17.5t31 -13.5zM458 941.5q10 -13.5 10 -34t-14 -41t-35 -20.5t-31.5 14t-10.5 37t14.5 40.5t35.5 17.5t31 -13.5z" />
    <glyph glyph-name="Yacute" unicode="&#xdd;" horiz-adv-x="554" 
d="M237 40q0 7 1 46q4 91 4 228l-110 193q-19 33 -40 68l-33 55q-33 56 -38.5 70t-5.5 26t9 23t24 11t25 -8t22 -28t23 -42q75 -154 163 -291q92 145 153 271q7 15 15.5 30.5t13 24.5t10 17.5t9 12.5t8.5 7q7 6 19.5 6t21 -9t8.5 -20.5t-3 -22t-13 -29.5t-19.5 -35.5
t-32 -54.5t-40.5 -70l-117 -205q0 -139 2.5 -204t2.5 -70q0 -50 -41 -50t-41 50zM388 932q0 -43 -45.5 -86t-72.5 -43t-27 21q0 12 16 30t23.5 27.5t18 35t22 39.5t29.5 14t27 -11.5t9 -26.5z" />
    <glyph glyph-name="Thorn" unicode="&#xde;" horiz-adv-x="567" 
d="M103 375l-5 335q0 50 38 50t38 -50q0 -18 -3 -105q48 17 118 17q112 0 181 -60t69 -150.5t-69 -150.5t-182 -60q-70 0 -118 17l4 -178q0 -50 -38 -50t-38 50zM414.5 304.5q49.5 40.5 49.5 107t-49 107t-120 40.5t-123 -16q-2 -42 -2 -131.5t1 -131.5q52 -16 123 -16
t120.5 40.5z" />
    <glyph glyph-name="germandbls" unicode="&#xdf;" horiz-adv-x="544" 
d="M58 502l50 -2v85q0 93 45 134t118 41t114 -41.5t41 -103.5q0 -40 -17 -76t-38 -57q-55 -53 -55 -85.5t20.5 -56.5t50 -42.5t58.5 -39t49.5 -53t20.5 -74.5q0 -61 -42 -101t-99.5 -40t-98 23t-40.5 50q0 34 33 34q8 0 38 -21t59.5 -21t53 20t23.5 50.5t-15 52.5t-37 36
t-48.5 32t-48.5 35.5t-37 46t-15 60t17 61.5t38 52q55 58 55 101t-23 67t-61.5 24t-62 -25t-23.5 -92v-535q0 -23 -10.5 -37t-28.5 -14t-28.5 14t-10.5 29.5t1 62.5q5 141 5 279v67l-51 -2q-38 0 -38 30q0 16 11 24t27 8z" />
    <glyph glyph-name="agrave" unicode="&#xe0;" horiz-adv-x="571" 
d="M467 242q0 -75 11 -122.5t26 -53.5q6 -3 14.5 -4t12 -3t3.5 -8q0 -27 -14.5 -44t-43.5 -17t-45 37t-16 95q-25 -56 -73.5 -94t-109 -38t-104.5 40q-80 73 -80 209q0 109 63 190t162 81q75 0 130 -51q0 51 38 51q46 0 46 -70.5t-20 -197.5zM409 233l-5 154
q-60 58 -125.5 58t-112.5 -59t-47 -141.5t30.5 -136t86.5 -53.5t102 50t71 128zM338 614q0 -21 -27 -21t-72.5 43t-45.5 86q0 15 9 26.5t27 11.5t29.5 -14t22 -39.5t18 -35t18.5 -22.5q21 -23 21 -35z" />
    <glyph glyph-name="aacute" unicode="&#xe1;" horiz-adv-x="571" 
d="M467 242q0 -75 11 -122.5t26 -53.5q6 -3 14.5 -4t12 -3t3.5 -8q0 -27 -14.5 -44t-43.5 -17t-45 37t-16 95q-25 -56 -73.5 -94t-109 -38t-104.5 40q-80 73 -80 209q0 109 63 190t162 81q75 0 130 -51q0 51 38 51q46 0 46 -70.5t-20 -197.5zM409 233l-5 154
q-60 58 -125.5 58t-112.5 -59t-47 -141.5t30.5 -136t86.5 -53.5t102 50t71 128zM388 722q0 -43 -45.5 -86t-72.5 -43t-27 21q0 12 16 30t23.5 27.5t18 35t22 39.5t29.5 14t27 -11.5t9 -26.5z" />
    <glyph glyph-name="acircumflex" unicode="&#xe2;" horiz-adv-x="571" 
d="M467 242q0 -75 11 -122.5t26 -53.5q6 -3 14.5 -4t12 -3t3.5 -8q0 -27 -14.5 -44t-43.5 -17t-45 37t-16 95q-25 -56 -73.5 -94t-109 -38t-104.5 40q-80 73 -80 209q0 109 63 190t162 81q75 0 130 -51q0 51 38 51q46 0 46 -70.5t-20 -197.5zM409 233l-5 154
q-60 58 -125.5 58t-112.5 -59t-47 -141.5t30.5 -136t86.5 -53.5t102 50t71 128zM427 633.5q4 -7.5 4 -18t-9 -19t-21.5 -8.5t-23.5 9t-21.5 23.5t-14.5 17.5q-40 48 -55.5 48t-55.5 -48q-4 -3 -14 -18q-24 -32 -41 -32t-26 8.5t-9 19t4.5 18t9 12t18 16t25.5 23t29.5 34.5
t29 32t29.5 9t30 -9t30 -32t30 -34.5t25 -23t18 -16t9 -12z" />
    <glyph glyph-name="atilde" unicode="&#xe3;" horiz-adv-x="571" 
d="M467 242q0 -75 11 -122.5t26 -53.5q6 -3 14.5 -4t12 -3t3.5 -8q0 -27 -14.5 -44t-43.5 -17t-45 37t-16 95q-25 -56 -73.5 -94t-109 -38t-104.5 40q-80 73 -80 209q0 109 63 190t162 81q75 0 130 -51q0 51 38 51q46 0 46 -70.5t-20 -197.5zM409 233l-5 154
q-60 58 -125.5 58t-112.5 -59t-47 -141.5t30.5 -136t86.5 -53.5t102 50t71 128zM484 682q0 -34 -25.5 -59.5t-60 -25.5t-82.5 27.5t-68.5 27.5t-34 -15t-25.5 -30.5t-26.5 -15.5t-24.5 11t-10 25q0 35 32 61.5t73.5 26.5t93 -28t73 -28t38.5 25.5t26 25.5t15 -8.5t6 -19.5z
" />
    <glyph glyph-name="adieresis" unicode="&#xe4;" horiz-adv-x="571" 
d="M467 242q0 -75 11 -122.5t26 -53.5q6 -3 14.5 -4t12 -3t3.5 -8q0 -27 -14.5 -44t-43.5 -17t-45 37t-16 95q-25 -56 -73.5 -94t-109 -38t-104.5 40q-80 73 -80 209q0 109 63 190t162 81q75 0 130 -51q0 51 38 51q46 0 46 -70.5t-20 -197.5zM409 233l-5 154
q-60 58 -125.5 58t-112.5 -59t-47 -141.5t30.5 -136t86.5 -53.5t102 50t71 128zM241 711.5q10 -13.5 10 -34t-14 -41t-35 -20.5t-31.5 14t-10.5 37t14.5 40.5t35.5 17.5t31 -13.5zM401 711.5q10 -13.5 10 -34t-14 -41t-35 -20.5t-31.5 14t-10.5 37t14.5 40.5t35.5 17.5
t31 -13.5z" />
    <glyph glyph-name="aring" unicode="&#xe5;" horiz-adv-x="571" 
d="M467 242q0 -75 11 -122.5t26 -53.5q6 -3 14.5 -4t12 -3t3.5 -8q0 -27 -14.5 -44t-43.5 -17t-45 37t-16 95q-25 -56 -73.5 -94t-109 -38t-104.5 40q-80 73 -80 209q0 109 63 190t162 81q75 0 130 -51q0 51 38 51q46 0 46 -70.5t-20 -197.5zM409 233l-5 154
q-60 58 -125.5 58t-112.5 -59t-47 -141.5t30.5 -136t86.5 -53.5t102 50t71 128zM372 670q0 -40 -25 -67t-66 -27t-66 26.5t-25 67t26 68t65 27.5t65 -27.5t26 -67.5zM312 637.5q13 14.5 13 33t-13.5 33t-30.5 14.5t-30.5 -14.5t-13.5 -33t13 -33t31 -14.5t31 14.5z" />
    <glyph glyph-name="ae" unicode="&#xe6;" horiz-adv-x="837" 
d="M143 220.5q-33 -30.5 -33 -72t33 -69.5t84.5 -28t96 46.5t44.5 129.5q-67 24 -129.5 24t-95.5 -30.5zM737.5 470q50.5 -45 50.5 -117t-62.5 -109.5t-144 -37.5t-136.5 11q6 -68 52.5 -117.5t103.5 -49.5q34 0 63 9.5t44 20.5q40 31 52.5 31t20 -7.5t7.5 -18.5
q0 -28 -57.5 -64t-124.5 -36q-134 0 -198 121q-62 -121 -191 -121q-75 0 -126.5 46.5t-51.5 117.5t53.5 119t121.5 48t156 -25q0 85 -36.5 121.5t-93.5 36.5q-28 0 -51 -9t-35 -20q-31 -30 -49 -30q-34 0 -34 31.5t51 62.5t116.5 31t112 -30.5t70.5 -80.5q72 111 194 111
q72 0 122.5 -45zM676.5 292q40.5 23 40.5 62t-26.5 67.5t-75.5 28.5q-66 0 -111 -50.5t-58 -117.5q52 -13 121 -13t109.5 23z" />
    <glyph glyph-name="ccedilla" unicode="&#xe7;" horiz-adv-x="509" 
d="M398 -137q0 -40 -35 -66.5t-84 -26.5t-79 23t-30 47q0 7 5 13t13 6t34.5 -12.5t49 -12.5t38 9t15.5 21t-15 24t-33 23t-33 33t-15 50q-82 21 -132.5 92t-50.5 172.5t70.5 179t185.5 77.5q63 0 111.5 -28.5t48.5 -58.5q0 -16 -10 -26.5t-23 -10.5t-30 15q-52 44 -106 44
q-69 0 -120.5 -58t-51.5 -141t52 -142t129 -59q59 0 115 40q19 13 29 13q25 0 25 -26.5t-57 -58.5t-121 -33q3 -28 55 -55q19 -10 34.5 -27.5t15.5 -39.5z" />
    <glyph glyph-name="egrave" unicode="&#xe8;" horiz-adv-x="539" 
d="M378.5 292q40.5 23 40.5 62t-26.5 67.5t-75.5 28.5q-66 0 -111 -49.5t-58 -115.5q55 -16 122.5 -16t108 23zM439.5 470q50.5 -45 50.5 -117t-62.5 -109.5t-153.5 -37.5q-52 0 -127 15q6 -70 52.5 -120.5t103.5 -50.5q34 0 63 9.5t44 20.5q40 31 52.5 31t20 -7.5
t7.5 -18.5q0 -28 -57.5 -64t-124.5 -36q-104 0 -165 73t-66 176q-53 16 -53 52q0 15 8.5 23.5t20.5 8.5t30 -9q22 90 83.5 148t142 58t131 -45zM336 614q0 -21 -27 -21t-72.5 43t-45.5 86q0 15 9 26.5t27 11.5t29.5 -14t22 -39.5t18 -35t18.5 -22.5q21 -23 21 -35z" />
    <glyph glyph-name="eacute" unicode="&#xe9;" horiz-adv-x="539" 
d="M378.5 292q40.5 23 40.5 62t-26.5 67.5t-75.5 28.5q-66 0 -111 -49.5t-58 -115.5q55 -16 122.5 -16t108 23zM439.5 470q50.5 -45 50.5 -117t-62.5 -109.5t-153.5 -37.5q-52 0 -127 15q6 -70 52.5 -120.5t103.5 -50.5q34 0 63 9.5t44 20.5q40 31 52.5 31t20 -7.5
t7.5 -18.5q0 -28 -57.5 -64t-124.5 -36q-104 0 -165 73t-66 176q-53 16 -53 52q0 15 8.5 23.5t20.5 8.5t30 -9q22 90 83.5 148t142 58t131 -45zM399 722q0 -43 -45.5 -86t-72.5 -43t-27 21q0 12 16 30t23.5 27.5t18 35t22 39.5t29.5 14t27 -11.5t9 -26.5z" />
    <glyph glyph-name="ecircumflex" unicode="&#xea;" horiz-adv-x="539" 
d="M378.5 292q40.5 23 40.5 62t-26.5 67.5t-75.5 28.5q-66 0 -111 -49.5t-58 -115.5q55 -16 122.5 -16t108 23zM439.5 470q50.5 -45 50.5 -117t-62.5 -109.5t-153.5 -37.5q-52 0 -127 15q6 -70 52.5 -120.5t103.5 -50.5q34 0 63 9.5t44 20.5q40 31 52.5 31t20 -7.5
t7.5 -18.5q0 -28 -57.5 -64t-124.5 -36q-104 0 -165 73t-66 176q-53 16 -53 52q0 15 8.5 23.5t20.5 8.5t30 -9q22 90 83.5 148t142 58t131 -45zM440 633.5q4 -7.5 4 -18t-9 -19t-21.5 -8.5t-23.5 9t-21.5 23.5t-14.5 17.5q-40 48 -55.5 48t-55.5 -48q-4 -3 -15 -18
q-23 -32 -40 -32t-26 8.5t-9 19t4.5 18t9 12t18 16t25.5 23t29.5 34.5t29 32t29.5 9t30 -9t30 -32t30 -34.5t25 -23t18 -16t9 -12z" />
    <glyph glyph-name="edieresis" unicode="&#xeb;" horiz-adv-x="539" 
d="M378.5 292q40.5 23 40.5 62t-26.5 67.5t-75.5 28.5q-66 0 -111 -49.5t-58 -115.5q55 -16 122.5 -16t108 23zM439.5 470q50.5 -45 50.5 -117t-62.5 -109.5t-153.5 -37.5q-52 0 -127 15q6 -70 52.5 -120.5t103.5 -50.5q34 0 63 9.5t44 20.5q40 31 52.5 31t20 -7.5
t7.5 -18.5q0 -28 -57.5 -64t-124.5 -36q-104 0 -165 73t-66 176q-53 16 -53 52q0 15 8.5 23.5t20.5 8.5t30 -9q22 90 83.5 148t142 58t131 -45zM257 711.5q10 -13.5 10 -34t-14 -41t-35 -20.5t-31.5 14t-10.5 37t14.5 40.5t35.5 17.5t31 -13.5zM417 711.5q10 -13.5 10 -34
t-14 -41t-35 -20.5t-31.5 14t-10.5 37t14.5 40.5t35.5 17.5t31 -13.5z" />
    <glyph glyph-name="igrave" unicode="&#xec;" horiz-adv-x="224" 
d="M145 250l5 -210q0 -50 -38 -50t-38 50l5 210l-5 210q0 50 38 50t38 -50zM175 614q0 -21 -27 -21t-72.5 43t-45.5 86q0 15 9 26.5t27 11.5t29.5 -14t22 -39.5t18 -35t18.5 -22.5q21 -23 21 -35z" />
    <glyph glyph-name="iacute" unicode="&#xed;" horiz-adv-x="224" 
d="M145 250l5 -210q0 -50 -38 -50t-38 50l5 210l-5 210q0 50 38 50t38 -50zM194 722q0 -43 -45.5 -86t-72.5 -43t-27 21q0 12 16 30t23.5 27.5t18 35t22 39.5t29.5 14t27 -11.5t9 -26.5z" />
    <glyph glyph-name="icircumflex" unicode="&#xee;" horiz-adv-x="224" 
d="M145 250l5 -210q0 -50 -38 -50t-38 50l5 210l-5 210q0 50 38 50t38 -50zM254 633.5q4 -7.5 4 -18t-9 -19t-21.5 -8.5t-23.5 9t-21.5 23.5t-14.5 17.5q-40 48 -55.5 48t-55.5 -48q-4 -3 -15 -18q-23 -32 -40 -32t-26 8.5t-9 19t4.5 18t9 12t18 16t25.5 23t29.5 34.5t29 32
t29.5 9t30 -9t30 -32t30 -34.5t25 -23t18 -16t9 -12z" />
    <glyph glyph-name="idieresis" unicode="&#xef;" horiz-adv-x="224" 
d="M145 250l5 -210q0 -50 -38 -50t-38 50l5 210l-5 210q0 50 38 50t38 -50zM68 711.5q10 -13.5 10 -34t-14 -41t-35 -20.5t-31.5 14t-10.5 37t14.5 40.5t35.5 17.5t31 -13.5zM228 711.5q10 -13.5 10 -34t-14 -41t-35 -20.5t-31.5 14t-10.5 37t14.5 40.5t35.5 17.5t31 -13.5z
" />
    <glyph glyph-name="eth" unicode="&#xf0;" horiz-adv-x="572" 
d="M510 301q0 -139 -59.5 -225t-177.5 -86q-100 0 -162.5 76t-62.5 175t56 173t154 74q56 0 102 -24.5t71 -57.5q-25 127 -116 206q-18 -16 -35 -33.5t-24 -24.5q-17 -17 -31.5 -17t-23.5 8.5t-9 18.5t2.5 15.5t10 13t14.5 13t22.5 17.5t27.5 22q-42 25 -95 30q-22 2 -32 5
q-24 6 -24 30q0 12 12.5 21.5t35.5 9.5q71 0 153 -47q15 13 31.5 29.5t23.5 22.5q18 17 33 17t24 -8.5t9 -19t-2 -16t-9 -13t-13 -12.5t-21 -17t-27 -22q68 -62 105 -156.5t37 -197.5zM386 107.5q45 53.5 45 128t-45 131.5t-114.5 57t-110.5 -52t-41 -130.5t44.5 -133
t110.5 -54.5t111 53.5z" />
    <glyph glyph-name="ntilde" unicode="&#xf1;" horiz-adv-x="579" 
d="M496 315l-5 -157q0 -28 0.5 -42.5t6 -30t13.5 -19t16.5 -4.5t12 -3t3.5 -8q0 -26 -16.5 -43.5t-38.5 -17.5q-38 0 -52.5 30t-14.5 88l4 184q0 68 -29 110t-80.5 42t-99.5 -57t-67 -129l3 -217q0 -51 -38 -51q-46 0 -46 70.5t20 197.5q0 42 -8.5 116t-8.5 91.5t10.5 31
t28.5 13.5t28.5 -13.5t10.5 -30.5t-0.5 -41.5t-0.5 -41.5q73 127 180 127q80 0 124 -57t44 -138zM461 682q0 -34 -25.5 -59.5t-60 -25.5t-82.5 27.5t-68.5 27.5t-34 -15t-25.5 -30.5t-26.5 -15.5t-24.5 11t-10 25q0 35 32 61.5t73.5 26.5t93 -28t73 -28t38.5 25.5t26 25.5
t15 -8.5t6 -19.5z" />
    <glyph glyph-name="ograve" unicode="&#xf2;" horiz-adv-x="562" 
d="M445 251q0 83 -46.5 141t-115.5 58t-117.5 -59t-48.5 -142t46.5 -141t115.5 -58t117.5 59t48.5 142zM450 438.5q66 -76.5 66 -187.5t-67 -188.5t-169 -77.5t-168 76.5t-66 187.5t66.5 188.5t169 77.5t168.5 -76.5zM333 614q0 -21 -27 -21t-72.5 43t-45.5 86q0 15 9 26.5
t27 11.5t29.5 -14t22 -39.5t18 -35t18.5 -22.5q21 -23 21 -35z" />
    <glyph glyph-name="oacute" unicode="&#xf3;" horiz-adv-x="562" 
d="M445 251q0 83 -46.5 141t-115.5 58t-117.5 -59t-48.5 -142t46.5 -141t115.5 -58t117.5 59t48.5 142zM450 438.5q66 -76.5 66 -187.5t-67 -188.5t-169 -77.5t-168 76.5t-66 187.5t66.5 188.5t169 77.5t168.5 -76.5zM383 722q0 -43 -45.5 -86t-72.5 -43t-27 21q0 12 16 30
t23.5 27.5t18 35t22 39.5t29.5 14t27 -11.5t9 -26.5z" />
    <glyph glyph-name="ocircumflex" unicode="&#xf4;" horiz-adv-x="562" 
d="M445 251q0 83 -46.5 141t-115.5 58t-117.5 -59t-48.5 -142t46.5 -141t115.5 -58t117.5 59t48.5 142zM450 438.5q66 -76.5 66 -187.5t-67 -188.5t-169 -77.5t-168 76.5t-66 187.5t66.5 188.5t169 77.5t168.5 -76.5zM422 633.5q4 -7.5 4 -18t-9 -19t-21.5 -8.5t-23.5 9
t-21.5 23.5t-14.5 17.5q-40 48 -55.5 48t-55.5 -48q-4 -3 -14 -18q-24 -32 -41 -32t-26 8.5t-9 19t4.5 18t9 12t18 16t25.5 23t29.5 34.5t29 32t29.5 9t30 -9t30 -32t30 -34.5t25 -23t18 -16t9 -12z" />
    <glyph glyph-name="otilde" unicode="&#xf5;" horiz-adv-x="562" 
d="M445 251q0 83 -46.5 141t-115.5 58t-117.5 -59t-48.5 -142t46.5 -141t115.5 -58t117.5 59t48.5 142zM450 438.5q66 -76.5 66 -187.5t-67 -188.5t-169 -77.5t-168 76.5t-66 187.5t66.5 188.5t169 77.5t168.5 -76.5zM459 682q0 -34 -25.5 -59.5t-60 -25.5t-82.5 27.5
t-68.5 27.5t-34 -15t-25.5 -30.5t-26.5 -15.5t-24.5 11t-10 25q0 35 32 61.5t73.5 26.5t93 -28t73 -28t38.5 25.5t26 25.5t15 -8.5t6 -19.5z" />
    <glyph glyph-name="odieresis" unicode="&#xf6;" horiz-adv-x="562" 
d="M445 251q0 83 -46.5 141t-115.5 58t-117.5 -59t-48.5 -142t46.5 -141t115.5 -58t117.5 59t48.5 142zM450 438.5q66 -76.5 66 -187.5t-67 -188.5t-169 -77.5t-168 76.5t-66 187.5t66.5 188.5t169 77.5t168.5 -76.5zM236 711.5q10 -13.5 10 -34t-14 -41t-35 -20.5t-31.5 14
t-10.5 37t14.5 40.5t35.5 17.5t31 -13.5zM396 711.5q10 -13.5 10 -34t-14 -41t-35 -20.5t-31.5 14t-10.5 37t14.5 40.5t35.5 17.5t31 -13.5z" />
    <glyph glyph-name="divide" unicode="&#xf7;" horiz-adv-x="558" 
d="M279 291l177 3q18 0 29.5 -9t11.5 -24t-11.5 -24t-29.5 -9l-177 3l-177 -3q-18 0 -29.5 9t-11.5 24t11.5 24t29.5 9zM313.5 136.5q10.5 -14.5 10.5 -37t-14 -41t-34 -18.5t-31 15.5t-11 37.5t14 40t34.5 18t31 -14.5zM313.5 467.5q10.5 -14.5 10.5 -37t-14 -41t-34 -18.5
t-31 15.5t-11 37.5t14 40t34.5 18t31 -14.5z" />
    <glyph glyph-name="oslash" unicode="&#xf8;" horiz-adv-x="562" 
d="M516 250q0 -110 -67 -187.5t-168 -77.5q-28 0 -64 9l-18 -50q-14 -35 -41 -35q-15 0 -25 11t-10 26t27 80q-49 35 -76.5 94t-27.5 130q0 110 66.5 187.5t167.5 77.5q33 0 63 -9q5 14 17 46q15 35 41 35q15 0 25 -10.5t10 -27.5t-26 -75q50 -35 78 -94t28 -130zM396.5 109
q48.5 59 48.5 150t-63 151q-61 -141 -142 -355q22 -5 40 -5q68 0 116.5 59zM179 91q74 169 142 353q-18 6 -39 6q-68 0 -116.5 -59t-48.5 -151t62 -149z" />
    <glyph glyph-name="ugrave" unicode="&#xf9;" horiz-adv-x="584" 
d="M151 428l-8 -220q0 -68 29 -110.5t80.5 -42.5t99.5 57.5t67 129.5l-3 217q0 51 38 51q46 0 46 -70.5t-20 -197.5q0 -75 11 -122.5t26 -53.5q6 -3 14.5 -4t12 -3t3.5 -8q0 -27 -16.5 -44t-41.5 -17q-63 0 -63 128q-74 -128 -186 -128q-80 0 -124 59.5t-44 145.5l6 151
q0 40 -8 74.5t-8 49.5t12 27.5t31 12.5q46 0 46 -82zM324 614q0 -21 -27 -21t-72.5 43t-45.5 86q0 15 9 26.5t27 11.5t29.5 -14t22 -39.5t18 -35t18.5 -22.5q21 -23 21 -35z" />
    <glyph glyph-name="uacute" unicode="&#xfa;" horiz-adv-x="584" 
d="M151 428l-8 -220q0 -68 29 -110.5t80.5 -42.5t99.5 57.5t67 129.5l-3 217q0 51 38 51q46 0 46 -70.5t-20 -197.5q0 -75 11 -122.5t26 -53.5q6 -3 14.5 -4t12 -3t3.5 -8q0 -27 -16.5 -44t-41.5 -17q-63 0 -63 128q-74 -128 -186 -128q-80 0 -124 59.5t-44 145.5l6 151
q0 40 -8 74.5t-8 49.5t12 27.5t31 12.5q46 0 46 -82zM384 722q0 -43 -45.5 -86t-72.5 -43t-27 21q0 12 16 30t23.5 27.5t18 35t22 39.5t29.5 14t27 -11.5t9 -26.5z" />
    <glyph glyph-name="ucircumflex" unicode="&#xfb;" horiz-adv-x="584" 
d="M151 428l-8 -220q0 -68 29 -110.5t80.5 -42.5t99.5 57.5t67 129.5l-3 217q0 51 38 51q46 0 46 -70.5t-20 -197.5q0 -75 11 -122.5t26 -53.5q6 -3 14.5 -4t12 -3t3.5 -8q0 -27 -16.5 -44t-41.5 -17q-63 0 -63 128q-74 -128 -186 -128q-80 0 -124 59.5t-44 145.5l6 151
q0 40 -8 74.5t-8 49.5t12 27.5t31 12.5q46 0 46 -82zM425 633.5q4 -7.5 4 -18t-9 -19t-21.5 -8.5t-23.5 9t-21.5 23.5t-14.5 17.5q-40 48 -55.5 48t-55.5 -48q-4 -3 -14 -18q-24 -32 -41 -32t-26 8.5t-9 19t4.5 18t9 12t18 16t25.5 23t29.5 34.5t29 32t29.5 9t30 -9t30 -32
t30 -34.5t25 -23t18 -16t9 -12z" />
    <glyph glyph-name="udieresis" unicode="&#xfc;" horiz-adv-x="584" 
d="M151 428l-8 -220q0 -68 29 -110.5t80.5 -42.5t99.5 57.5t67 129.5l-3 217q0 51 38 51q46 0 46 -70.5t-20 -197.5q0 -75 11 -122.5t26 -53.5q6 -3 14.5 -4t12 -3t3.5 -8q0 -27 -16.5 -44t-41.5 -17q-63 0 -63 128q-74 -128 -186 -128q-80 0 -124 59.5t-44 145.5l6 151
q0 40 -8 74.5t-8 49.5t12 27.5t31 12.5q46 0 46 -82zM247 711.5q10 -13.5 10 -34t-14 -41t-35 -20.5t-31.5 14t-10.5 37t14.5 40.5t35.5 17.5t31 -13.5zM407 711.5q10 -13.5 10 -34t-14 -41t-35 -20.5t-31.5 14t-10.5 37t14.5 40.5t35.5 17.5t31 -13.5z" />
    <glyph glyph-name="yacute" unicode="&#xfd;" horiz-adv-x="568" 
d="M419 242l-3 217q0 51 38 51q46 0 46 -75q0 -59 -21 -193q12 -122 12 -182q0 -131 -64 -210.5t-180 -79.5q-62 0 -117 25.5t-55 51t23 25.5q10 0 55.5 -18.5t93.5 -18.5q84 0 133 60t49 155q0 35 -3 68q-74 -128 -186 -128q-80 0 -124 59.5t-44 145.5l6 151q0 40 -8 74.5
t-8 49.5t12 27.5t31 12.5q46 0 46 -82l-8 -220q0 -68 29 -110.5t80.5 -42.5t99.5 57.5t67 129.5zM390 722q0 -43 -45.5 -86t-72.5 -43t-27 21q0 12 16 30t23.5 27.5t18 35t22 39.5t29.5 14t27 -11.5t9 -26.5z" />
    <glyph glyph-name="thorn" unicode="&#xfe;" horiz-adv-x="568" 
d="M398.5 114q48.5 59 48.5 138.5t-35 136t-95 56.5q-105 0 -173 -173v-159q60 -58 142 -58q64 0 112.5 59zM82 190l1 38v16q0 68 -9.5 263.5t-9.5 210.5t10.5 28.5t28.5 13.5t28.5 -13.5t10.5 -36.5v-329q33 61 74 95t106 34t112 -42t67 -97t20 -110q0 -109 -66 -190
t-169 -81q-75 0 -142 49q-2 -121 -2 -179.5t-10 -74t-31 -15.5t-34.5 17.5t-13.5 50.5t4 78.5t12 120t13 134.5v19z" />
    <glyph glyph-name="ydieresis" unicode="&#xff;" horiz-adv-x="568" 
d="M419 242l-3 217q0 51 38 51q46 0 46 -75q0 -59 -21 -193q12 -122 12 -182q0 -131 -64 -210.5t-180 -79.5q-62 0 -117 25.5t-55 51t23 25.5q10 0 55.5 -18.5t93.5 -18.5q84 0 133 60t49 155q0 35 -3 68q-74 -128 -186 -128q-80 0 -124 59.5t-44 145.5l6 151q0 40 -8 74.5
t-8 49.5t12 27.5t31 12.5q46 0 46 -82l-8 -220q0 -68 29 -110.5t80.5 -42.5t99.5 57.5t67 129.5zM249 711.5q10 -13.5 10 -34t-14 -41t-35 -20.5t-31.5 14t-10.5 37t14.5 40.5t35.5 17.5t31 -13.5zM409 711.5q10 -13.5 10 -34t-14 -41t-35 -20.5t-31.5 14t-10.5 37
t14.5 40.5t35.5 17.5t31 -13.5z" />
    <glyph glyph-name="Hbar" unicode="&#x126;" horiz-adv-x="750" 
d="M546 41l5 320q-147 3 -212.5 3t-140.5 -3q0 -162 2.5 -237t2.5 -90t-12 -29.5t-29 -14.5t-29 14.5t-12 29.5t1 60q4 103 4 265h-18q-48 0 -48 37q0 18 13 28.5t35 10.5h15v172h-65q-18 0 -29.5 9t-11.5 24t11.5 24t38 9t54.5 -1v37q0 22 12 36.5t29 14.5t29 -14.5t12 -36
t-1 -38.5q54 -1 172.5 -1t171.5 1v38q0 22 12 36.5t29 14.5t29 -14.5t12 -35.5t-1 -38q29 1 56 1t38.5 -9t11.5 -24t-11.5 -24t-29.5 -9h-67q-2 -90 -2 -171h16q22 0 36.5 -11.5t14.5 -28.5t-14 -27.5t-37 -10.5h-16l5 -317q0 -22 -12 -36.5t-29 -14.5t-29 14.5t-12 36.5z
M548 609l-173 1l-175 -1q-2 -94 -2 -177q100 -2 190.5 -2t159.5 3v176z" />
    <glyph glyph-name="hbar" unicode="&#x127;" horiz-adv-x="577" 
d="M146 661l127 3q18 0 29.5 -9t11.5 -24t-11.5 -24t-29.5 -9l-127 3v-218q73 127 180 127q80 0 124 -57t44 -138l-5 -157q0 -28 0.5 -42.5t6 -30t13.5 -19t16.5 -4.5t12 -3t3.5 -8q0 -26 -16.5 -43.5t-38.5 -17.5q-38 0 -52.5 30t-14.5 88l4 184q0 68 -29 110t-80.5 42
t-99.5 -57t-67 -129l3 -217q0 -51 -38 -51q-46 0 -46 70.5t20 197.5q0 90 -14 342q-48 -2 -59.5 -2t-23 9t-11.5 24t11.5 24t22.5 9t57 -2q-1 22 -1 46.5t10.5 38t28.5 13.5t28.5 -13.5t10.5 -36.5v-49z" />
    <glyph glyph-name="Itilde" unicode="&#x128;" 
d="M260 66l88 5q23 0 36.5 -10.5t13.5 -27.5t-14 -28t-36 -11l-129 6l-132 -5q-50 0 -50 38t50 38q11 0 91 -5q5 225 5 308.5t-5 308.5q-88 -4 -91 -4q-48 0 -48 37q0 18 13 28.5t35 10.5l132 -5q34 0 79 3t58.5 3t28 -11.5t14.5 -28.5t-14 -27.5t-29.5 -10.5t-95.5 5
q-5 -230 -5 -311t5 -306zM397 902q0 -34 -25.5 -59.5t-60 -25.5t-82.5 27.5t-68.5 27.5t-34 -15t-25.5 -30.5t-26.5 -15.5t-24.5 11t-10 25q0 35 32 61.5t73.5 26.5t93 -28t73 -28t38.5 25.5t26 25.5t15 -8.5t6 -19.5z" />
    <glyph glyph-name="itilde" unicode="&#x129;" horiz-adv-x="224" 
d="M145 250l5 -210q0 -50 -38 -50t-38 50l5 210l-5 210q0 50 38 50t38 -50zM291 682q0 -34 -25.5 -59.5t-60 -25.5t-82.5 27.5t-68.5 27.5t-34 -15t-25.5 -30.5t-26.5 -15.5t-24.5 11t-10 25q0 35 32 61.5t73.5 26.5t93 -28t73 -28t38.5 25.5t26 25.5t15 -8.5t6 -19.5z" />
    <glyph glyph-name="Idotaccent" unicode="&#x130;" 
d="M260 66l88 5q23 0 36.5 -10.5t13.5 -27.5t-14 -28t-36 -11l-129 6l-132 -5q-50 0 -50 38t50 38q11 0 91 -5q5 225 5 308.5t-5 308.5q-88 -4 -91 -4q-48 0 -48 37q0 18 13 28.5t35 10.5l132 -5q34 0 79 3t58.5 3t28 -11.5t14.5 -28.5t-14 -27.5t-29.5 -10.5t-95.5 5
q-5 -230 -5 -311t5 -306zM259 941.5q10 -13.5 10 -34t-14 -41t-35 -20.5t-31.5 14t-10.5 37t14.5 40.5t35.5 17.5t31 -13.5z" />
    <glyph glyph-name="dotlessi" unicode="&#x131;" horiz-adv-x="224" 
d="M145 250l5 -210q0 -50 -38 -50t-38 50l5 210l-5 210q0 50 38 50t38 -50z" />
    <glyph glyph-name="IJ" unicode="&#x132;" horiz-adv-x="921" 
d="M260 66l88 5q23 0 36.5 -10.5t13.5 -27.5t-14 -28t-36 -11l-129 6l-132 -5q-50 0 -50 38t50 38q11 0 91 -5q5 225 5 308.5t-5 308.5q-88 -4 -91 -4q-48 0 -48 37q0 18 13 28.5t35 10.5l132 -5q34 0 79 3t58.5 3t28 -11.5t14.5 -28.5t-14 -27.5t-29.5 -10.5t-95.5 5
q-5 -230 -5 -311t5 -306zM809 374l1 -120q0 -136 -63 -200t-142 -64t-127.5 35.5t-48.5 65.5q0 16 9.5 25.5t22.5 9.5t26 -11t24 -24t34 -24t53 -11q57 0 97.5 52.5t40.5 167.5l1 98q0 224 -2 310q-11 1 -32 1l-135 -5q-48 0 -48 37q0 17 13 28t35 11l132 -5q34 0 79 3
t58.5 3t28 -11.5t14.5 -28.5t-15.5 -27.5t-38.5 -10.5h-15q-2 -92 -2 -305z" />
    <glyph glyph-name="ij" unicode="&#x133;" horiz-adv-x="465" 
d="M148 711.5q10 -13.5 10 -34t-14 -41t-35 -20.5t-31.5 14t-10.5 37t14.5 40.5t35.5 17.5t31 -13.5zM145 250l5 -210q0 -50 -38 -50t-38 50l5 210l-5 210q0 50 38 50t38 -50zM390 711.5q10 -13.5 10 -34t-14 -41t-35 -20.5t-31.5 14t-10.5 37t14.5 40.5t35.5 17.5t31 -13.5
zM387 230l-1 -220q0 -86 -43.5 -142.5t-80.5 -56.5q-27 0 -27 19q0 14 43 56q17 16 30.5 51.5t13.5 82.5l-1 210l-5 230q0 50 38 50t38 -50z" />
    <glyph glyph-name="Jcircumflex" unicode="&#x134;" horiz-adv-x="508" 
d="M396 374l1 -120q0 -136 -63 -200t-142 -64t-127.5 35.5t-48.5 65.5q0 16 9.5 25.5t22.5 9.5t26 -11t24 -24t34 -24t53 -11q57 0 97.5 52.5t40.5 167.5l1 98q0 224 -2 310q-11 1 -32 1l-135 -5q-48 0 -48 37q0 17 13 28t35 11l132 -5q34 0 79 3t58.5 3t28 -11.5
t14.5 -28.5t-15.5 -27.5t-38.5 -10.5h-15q-2 -92 -2 -305zM431 857.5q4 -7.5 4 -18t-9 -19t-21.5 -8.5t-23.5 9t-21.5 23.5t-14.5 17.5q-40 48 -55.5 48t-55.5 -48q-4 -3 -14 -18q-24 -32 -41 -32t-26 8.5t-9 19t4.5 18t9 12t18 16t25.5 23t29.5 34.5t29 32t29.5 9t30 -9
t30 -32t30 -34.5t25 -23t18 -16t9 -12z" />
    <glyph glyph-name="jcircumflex" unicode="&#x135;" horiz-adv-x="223" 
d="M145 230l-1 -220q0 -86 -43.5 -142.5t-80.5 -56.5q-27 0 -27 19q0 14 43 56q17 16 30.5 51.5t13.5 82.5l-1 210l-5 230q0 50 38 50t38 -50zM253 633.5q4 -7.5 4 -18t-9 -19t-21.5 -8.5t-23.5 9t-21.5 23.5t-14.5 17.5q-40 48 -55.5 48t-55.5 -48q-4 -3 -14 -18
q-24 -32 -41 -32t-26 8.5t-9 19t4.5 18t9 12t18 16t25.5 23t29.5 34.5t29 32t29.5 9t30 -9t30 -32t30 -34.5t25 -23t18 -16t9 -12z" />
    <glyph glyph-name="Kcommaaccent" unicode="&#x136;" horiz-adv-x="618" 
d="M220.5 -70.5q10.5 15.5 29 15.5t28.5 -13t10 -31q0 -43 -38.5 -89.5t-63.5 -46.5q-10 0 -16.5 6t-6.5 13.5t3.5 15.5t12 21t13.5 24t11.5 40t17 44.5zM175 345l5 -304q0 -22 -12 -36.5t-29 -14.5t-29 14.5t-12 36.5l5 331l-5 336q0 22 12 36.5t29 14.5t29 -14.5t12 -29
t-1 -52.5q-4 -152 -4 -239q30 12 86 12q2 0 47 -3q49 42 89.5 124t55.5 159q10 44 41 44q14 0 24 -10t10 -27q0 -63 -54.5 -174t-107.5 -163q27 -62 78 -151t77 -125q24 -29 45.5 -38.5t29.5 -9t8 -5.5q0 -29 -15.5 -48t-38.5 -19q-38 0 -87 68.5t-166 290.5q-49 -9 -73 -9
t-49 5z" />
    <glyph glyph-name="kcedilla" unicode="&#x137;" horiz-adv-x="510" 
d="M216.5 -70.5q10.5 15.5 29 15.5t28.5 -13t10 -31q0 -43 -38.5 -89.5t-63.5 -46.5q-10 0 -16.5 6t-6.5 13.5t4 15t12 21t13 24.5t11.5 40t17 44.5zM147 258l3 -217q0 -51 -38 -51q-46 0 -46 70.5t20 197.5q0 68 -9 256.5t-9 203.5t10.5 28.5t28.5 13.5t28.5 -13.5
t10.5 -36.5v-327q73 127 180 127q58 0 93 -34t35 -83q0 -82 -85 -140q-19 -13 -49 -32l74 -114q19 -29 40 -38t31.5 -9t10.5 -9q0 -24 -15 -42.5t-36 -18.5t-32.5 6.5t-25 25t-25.5 38.5q-58 95 -89 139q-26 0 -43 14.5t-17 34.5t13.5 33t35.5 13t45 -25q38 17 67.5 52
t29.5 63t-15.5 44t-46.5 16q-56 0 -106 -56.5t-69 -129.5z" />
    <glyph glyph-name="kgreenlandic" unicode="&#x138;" horiz-adv-x="505" 
d="M79 250l-5 210q0 50 38 50t38 -50q0 -6 -2.5 -63.5t-2.5 -99.5q42 14 68.5 14t46.5 -2q36 24 66 73t45 93q11 35 39 35q13 0 22.5 -10t9.5 -23q0 -40 -41.5 -105.5t-91.5 -109.5l91 -154q19 -28 40 -37.5t31.5 -10t10.5 -8.5q0 -24 -15 -42.5t-36.5 -18.5t-34 7.5t-28 29
t-28.5 43.5q-43 77 -90 153q-25 -10 -64 -10l-41 4q5 -170 5 -178q0 -50 -38 -50t-38 50z" />
    <glyph glyph-name="Ldot" unicode="&#x13f;" horiz-adv-x="544" 
d="M180 709l-5 -337q0 -101 4 -301q41 -5 105.5 -5t118 3.5t68 3.5t28 -10.5t13.5 -28.5t-13.5 -28.5t-36.5 -10.5l-151 5l-162 -5q-23 0 -37 13t-14 38l5 326l-5 337q0 23 11 37t30 14t30 -14t11 -37zM377 424.5q11 -15.5 11 -39t-14.5 -43t-35.5 -19.5t-32.5 16
t-11.5 39.5t14.5 42.5t36 19t32.5 -15.5z" />
    <glyph glyph-name="ldot" unicode="&#x140;" horiz-adv-x="338" 
d="M145 375l5 -335q0 -50 -38 -50t-38 50l5 335l-5 335q0 50 38 50t38 -50zM313 424.5q11 -15.5 11 -39t-14.5 -43t-35.5 -19.5t-32.5 16t-11.5 39.5t14.5 42.5t36 19t32.5 -15.5z" />
    <glyph glyph-name="Lslash" unicode="&#x141;" horiz-adv-x="552" 
d="M111 449l-5 260q0 23 11 37t30 14t30 -14t11 -29.5t-1 -42.5q-3 -83 -3 -164l67 61q15 12 28.5 12t22.5 -9t9 -24t-17 -30q-1 0 -42 -32.5t-69 -56.5v-59q0 -101 4 -301q41 -5 105.5 -5t118 3.5t68 3.5t28 -10.5t13.5 -28.5t-13.5 -28.5t-36.5 -10.5l-151 5l-162 -5
q-23 0 -37 13t-14 29.5t1 61.5q4 180 4 270l-42 -38q-15 -12 -28.5 -12t-22.5 9t-9 24t17 30q5 5 34.5 27.5t50.5 39.5z" />
    <glyph glyph-name="lslash" unicode="&#x142;" horiz-adv-x="256" 
d="M98 445l-5 265q0 50 38 50t38 -50q0 -9 -1 -37t-2 -76.5t-2 -95.5q20 17 47 41.5t37 32.5t23.5 8t22.5 -9t9 -24t-17 -30q-2 -2 -44 -35q-54 -42 -78 -63v-47q0 -169 2.5 -248t2.5 -87q0 -50 -38 -50t-38 50q0 8 1 54q4 107 4 270l-37 -33q-15 -12 -28.5 -12t-22.5 9
t-9 24t17 30q40 31 80 63z" />
    <glyph glyph-name="Nacute" unicode="&#x143;" horiz-adv-x="692" 
d="M103 372l-5 336q0 22 12 37t30 15q32 0 48 -27q9 -14 147.5 -262.5t182.5 -319.5v221q0 169 -2.5 249t-2.5 95t12 29.5t29 14.5t29 -14.5t12 -29.5t-1 -63q-4 -112 -4 -281l2 -331q0 -23 -12.5 -37t-34.5 -14t-38 27q-5 8 -37 65q-97 178 -144.5 258.5t-90.5 159
t-60 105.5v-233l5 -331q0 -22 -12 -36.5t-29 -14.5t-29 14.5t-12 36.5zM459 932q0 -43 -45.5 -86t-72.5 -43t-27 21q0 12 16 30t23.5 27.5t18 35t22 39.5t29.5 14t27 -11.5t9 -26.5z" />
    <glyph glyph-name="nacute" unicode="&#x144;" horiz-adv-x="579" 
d="M496 315l-5 -157q0 -28 0.5 -42.5t6 -30t13.5 -19t16.5 -4.5t12 -3t3.5 -8q0 -26 -16.5 -43.5t-38.5 -17.5q-38 0 -52.5 30t-14.5 88l4 184q0 68 -29 110t-80.5 42t-99.5 -57t-67 -129l3 -217q0 -51 -38 -51q-46 0 -46 70.5t20 197.5q0 42 -8.5 116t-8.5 91.5t10.5 31
t28.5 13.5t28.5 -13.5t10.5 -30.5t-0.5 -41.5t-0.5 -41.5q73 127 180 127q80 0 124 -57t44 -138zM400 722q0 -43 -45.5 -86t-72.5 -43t-27 21q0 12 16 30t23.5 27.5t18 35t22 39.5t29.5 14t27 -11.5t9 -26.5z" />
    <glyph glyph-name="OE" unicode="&#x152;" horiz-adv-x="947" 
d="M663 433q120 5 138.5 5t32 -10.5t13.5 -28.5q0 -37 -50 -37q-2 0 -130 4q-1 -89 -31 -166.5t-81 -130.5q52 -3 135 -3l162 5q50 0 50 -38t-50 -38l-162 5l-175 -5q-30 0 -40 16q-50 -26 -109 -26q-132 0 -220.5 114t-88.5 276.5t89.5 276t221.5 113.5q53 0 98 -21
q13 11 43 11l193 -5l150 5q50 0 50 -38t-50 -38l-150 5q-113 0 -146 -4q90 -93 107 -247zM523 154q63 96 63 223.5t-62.5 221t-158.5 93.5t-161.5 -93.5t-65.5 -221t65.5 -223.5t161 -96t158.5 96z" />
    <glyph glyph-name="oe" unicode="&#x153;" horiz-adv-x="908" 
d="M808.5 470q50.5 -45 50.5 -117t-62.5 -109.5t-153.5 -37.5q-52 0 -127 15q6 -70 52.5 -120.5t103.5 -50.5q34 0 63 9.5t44 20.5q40 31 52.5 31t20 -7.5t7.5 -18.5q0 -28 -57.5 -64t-124.5 -36q-134 0 -198 121q-31 -56 -83 -88.5t-115 -32.5q-103 0 -169 76.5t-66 187.5
t66.5 188.5t167.5 77.5q67 0 120 -34t83 -92q71 126 203 126q72 0 122.5 -45zM445 251q0 83 -46.5 141t-115.5 58t-117.5 -59t-48.5 -142t46.5 -141t115.5 -58t117.5 59t48.5 142zM747.5 292q40.5 23 40.5 62t-26.5 67.5t-75.5 28.5q-66 0 -111 -49.5t-58 -115.5
q55 -16 122.5 -16t108 23z" />
    <glyph glyph-name="Racute" unicode="&#x154;" horiz-adv-x="636" 
d="M179 307l5 -266q0 -22 -12 -36.5t-29 -14.5t-29 14.5t-12 30t2 63.5q4 142 4 247.5t-1 165t-2.5 94t-1.5 41.5q-12 -2 -16 -2q-30 0 -30 33q0 41 79 64.5t141 23.5q137 0 207 -64.5t70 -158.5q0 -64 -40.5 -122.5t-110.5 -87.5q94 -223 157 -258q18 -10 28 -8
q21 3 21 -12q0 -28 -18 -46t-41 -18q-38 0 -80 56q-60 86 -139 263q-48 -9 -95 -9zM480 536q0 71 -51 115.5t-134.5 44.5t-114.5 -18q-3 -52 -3 -161t1 -132q45 12 92 12t86 -10q45 9 84.5 52.5t39.5 96.5zM401 932q0 -43 -45.5 -86t-72.5 -43t-27 21q0 12 16 30t23.5 27.5
t18 35t22 39.5t29.5 14t27 -11.5t9 -26.5z" />
    <glyph glyph-name="Rcommaaccent" unicode="&#x156;" horiz-adv-x="636" 
d="M210.5 -70.5q10.5 15.5 29 15.5t28.5 -13t10 -31q0 -43 -38.5 -89.5t-63.5 -46.5q-10 0 -16.5 6t-6.5 13.5t4 15t12 21t13 24.5t11.5 40t17 44.5zM555 542q0 -64 -40.5 -122.5t-110.5 -87.5q94 -223 157 -258q18 -10 27 -8q22 3 22 -12q0 -28 -18 -46t-41 -18
q-38 0 -80 56q-60 86 -139 263q-48 -9 -95 -9l-57 7q0 -139 2.5 -199t2.5 -74.5t-12 -29t-29 -14.5t-29 14.5t-12 30t1 63.5q5 142 5 247.5t-1.5 165t-2.5 94t-1 41.5q-12 -2 -16 -2q-30 0 -30 33q0 41 79 64.5t141 23.5q137 0 207 -64.5t70 -158.5zM481 536q0 71 -51 115.5
t-134.5 44.5t-114.5 -18q-3 -52 -3 -161t1 -132q45 12 92 12t86 -10q45 9 84.5 52.5t39.5 96.5z" />
    <glyph glyph-name="rcommaaccent" unicode="&#x157;" horiz-adv-x="408" 
d="M75.5 -70.5q10.5 15.5 29 15.5t28.5 -13t10 -31q0 -43 -38.5 -89.5t-63.5 -46.5q-10 0 -16.5 6t-6.5 13.5t4 15t12 21t13 24.5t11.5 40t17 44.5zM149 229l3 -188q0 -51 -38 -51q-46 0 -46 70.5t20 197.5q0 42 -8.5 115t-8.5 91t10.5 32t28.5 14t28.5 -14t10.5 -30.5
t-0.5 -42t-0.5 -42.5q20 51 62.5 90t87.5 39t69.5 -18.5t24.5 -39.5t-11 -33t-28.5 -12t-38 18.5t-32.5 18.5q-33 0 -77 -71t-56 -144z" />
    <glyph glyph-name="Rcaron" unicode="&#x158;" horiz-adv-x="636" 
d="M179 307l5 -266q0 -22 -12 -36.5t-29 -14.5t-29 14.5t-12 30t2 63.5q4 142 4 247.5t-1 165t-2.5 94t-1.5 41.5q-12 -2 -16 -2q-30 0 -30 33q0 41 79 64.5t141 23.5q137 0 207 -64.5t70 -158.5q0 -64 -40.5 -122.5t-110.5 -87.5q94 -223 157 -258q18 -10 28 -8
q21 3 21 -12q0 -28 -18 -46t-41 -18q-38 0 -80 56q-60 86 -139 263q-48 -9 -95 -9zM480 536q0 71 -51 115.5t-134.5 44.5t-114.5 -18q-3 -52 -3 -161t1 -132q45 12 92 12t86 -10q45 9 84.5 52.5t39.5 96.5zM415 975.5q9 -8.5 9 -19t-4 -18t-9 -12t-18 -16t-25 -23t-30 -34.5
t-30 -32t-30 -9t-29.5 9t-29 32t-29.5 34.5t-25.5 23t-18.5 15.5q-13 14 -13 27.5t9 22t21.5 8.5t23 -8t23 -24.5t13.5 -17.5q45 -48 55.5 -48t55.5 48q1 1 14 18q24 32 41 32t26 -8.5z" />
    <glyph glyph-name="rcaron" unicode="&#x159;" horiz-adv-x="408" 
d="M149 229l3 -188q0 -51 -38 -51q-46 0 -46 70.5t20 197.5q0 42 -8.5 115t-8.5 91t10.5 32t28.5 14t28.5 -14t10.5 -30.5t-0.5 -42t-0.5 -42.5q20 51 62.5 90t87.5 39t69.5 -18.5t24.5 -39.5t-11 -33t-28.5 -12t-38 18.5t-32.5 18.5q-33 0 -77 -71t-56 -144zM360 751.5
q9 -8.5 9 -19t-4 -18t-9 -12t-18 -16t-25 -23t-30 -34.5t-30 -32t-30 -9t-29.5 9t-29 32t-29.5 34.5t-25.5 23t-17.5 15.5q-14 14 -14 27.5t9 22t21.5 8.5t23 -8t23 -24.5t13.5 -17.5q45 -48 55.5 -48t55.5 48q1 1 13 18q25 32 42 32t26 -8.5z" />
    <glyph glyph-name="Ydieresis" unicode="&#x178;" horiz-adv-x="554" 
d="M237 40q0 7 1 46q4 91 4 228l-110 193q-19 33 -40 68l-33 55q-33 56 -38.5 70t-5.5 26t9 23t24 11t25 -8t22 -28t23 -42q75 -154 163 -291q92 145 153 271q7 15 15.5 30.5t13 24.5t10 17.5t9 12.5t8.5 7q7 6 19.5 6t21 -9t8.5 -20.5t-3 -22t-13 -29.5t-19.5 -35.5
t-32 -54.5t-40.5 -70l-117 -205q0 -139 2.5 -204t2.5 -70q0 -50 -41 -50t-41 50zM241 941.5q10 -13.5 10 -34t-14 -41t-35 -20.5t-31.5 14t-10.5 37t14.5 40.5t35.5 17.5t31 -13.5zM401 941.5q10 -13.5 10 -34t-14 -41t-35 -20.5t-31.5 14t-10.5 37t14.5 40.5t35.5 17.5
t31 -13.5z" />
    <glyph glyph-name="circumflex" unicode="&#x2c6;" horiz-adv-x="411" 
d="M347 633.5q4 -7.5 4 -18t-9 -19t-21.5 -8.5t-23.5 9t-21.5 23.5t-14.5 17.5q-40 48 -55.5 48t-55.5 -48q-4 -3 -14 -18q-24 -32 -41 -32t-26 8.5t-9 19t4.5 18t9 12t18 16t25.5 23t29.5 34.5t29 32t29.5 9t30 -9t30 -32t30 -34.5t25 -23t18 -16t9 -12z" />
    <glyph glyph-name="caron" unicode="&#x2c7;" horiz-adv-x="411" 
d="M342 751.5q9 -8.5 9 -19t-4 -18t-9 -12t-18 -16t-25 -23t-30 -34.5t-30 -32t-30 -9t-29.5 9t-29 32t-29.5 34.5t-25.5 23t-17.5 15.5q-14 14 -14 27.5t9 22t21.5 8.5t23 -8t23 -24.5t13.5 -17.5q45 -48 55.5 -48t55.5 48q1 1 13 18q25 32 42 32t26 -8.5z" />
    <glyph glyph-name="breve" unicode="&#x2d8;" horiz-adv-x="415" 
d="M325 760q30 0 30 -38.5t-42 -81t-106 -42.5t-105.5 42.5t-41.5 81t30 38.5q25 0 46 -50q7 -18 25.5 -33.5t45.5 -15.5t45.5 15.5t26.5 33.5q21 50 46 50z" />
    <glyph glyph-name="dotaccent" unicode="&#x2d9;" horiz-adv-x="191" 
d="M131 746.5q10 -13.5 10 -34t-14 -41t-35 -20.5t-31.5 14t-10.5 37t14.5 40.5t35.5 17.5t31 -13.5z" />
    <glyph glyph-name="ring" unicode="&#x2da;" horiz-adv-x="182" 
d="M182 670q0 -40 -25 -67t-66 -27t-66 26.5t-25 67t26 68t65 27.5t65 -27.5t26 -67.5zM122 637.5q13 14.5 13 33t-13.5 33t-30.5 14.5t-30.5 -14.5t-13.5 -33t13 -33t31 -14.5t31 14.5z" />
    <glyph glyph-name="ogonek" unicode="&#x2db;" horiz-adv-x="355" 
d="M311 -160q0 -25 -32.5 -47.5t-79 -22.5t-81.5 28t-35 75q0 74 95 121h74q-102 -51 -102 -113q0 -23 17.5 -35t41 -12t50 12.5t34.5 12.5t13 -6t5 -13z" />
    <glyph glyph-name="tilde" unicode="&#x2dc;" horiz-adv-x="497" 
d="M427 682q0 -34 -25.5 -59.5t-60 -25.5t-82.5 27.5t-68.5 27.5t-34 -15t-25.5 -30.5t-26.5 -15.5t-24.5 11t-10 25q0 35 32 61.5t73.5 26.5t93 -28t73 -28t38.5 25.5t26 25.5t15 -8.5t6 -19.5z" />
    <glyph glyph-name="Omega" unicode="&#x3a9;" horiz-adv-x="829" 
d="M76 71l112 -5q31 0 46 1q-136 136 -136 311q0 138 94.5 237.5t223.5 99.5t222.5 -98t93.5 -236q0 -177 -136 -315q14 -1 46 -1l112 5q22 0 35 -10.5t13 -28t-13 -28t-35 -10.5l-112 6q-29 0 -67 -3t-51.5 -3t-27.5 10.5t-14 30t24 32.5q64 34 106 126.5t42 195t-67.5 180
t-170.5 77.5t-171.5 -78.5t-68.5 -181t42 -193t106 -125.5q24 -14 24 -33t-14 -29.5t-27.5 -10.5t-51.5 3t-67 3l-112 -6q-22 0 -35 10.5t-13 27.5t13 28t35 11z" />
    <glyph glyph-name="endash" unicode="&#x2013;" horiz-adv-x="568" 
d="M284 291l177 3q18 0 29.5 -9t11.5 -24t-11.5 -24t-29.5 -9l-177 3l-177 -3q-18 0 -29.5 9t-11.5 24t11.5 24t29.5 9z" />
    <glyph glyph-name="emdash" unicode="&#x2014;" horiz-adv-x="848" 
d="M424 291l317 3q18 0 29.5 -9t11.5 -24t-11.5 -24t-29.5 -9l-317 3l-317 -3q-18 0 -29.5 9t-11.5 24t11.5 24t29.5 9z" />
    <glyph glyph-name="quoteleft" unicode="&#x2018;" horiz-adv-x="218" 
d="M138 609l6 -73q0 -22 -13.5 -41t-36 -19t-33.5 15.5t-11 34.5q0 69 35.5 135.5t69.5 66.5q8 0 14 -5.5t6 -13t-18.5 -38.5t-18.5 -62z" />
    <glyph glyph-name="quoteright" unicode="&#x2019;" horiz-adv-x="219" 
d="M85 595l-6 73q0 22 13.5 41t36 19t33.5 -15.5t11 -34.5q0 -69 -35.5 -135.5t-69.5 -66.5q-8 0 -14 5.5t-6 12.5t18.5 38.5t18.5 62.5z" />
    <glyph glyph-name="quotesinglbase" unicode="&#x201a;" horiz-adv-x="210" 
d="M62 -114l3 80q0 21 -4 39.5t-4 38.5t14.5 39t36 19t32.5 -15.5t11 -37.5q0 -62 -22.5 -123t-46.5 -61q-20 0 -20 21z" />
    <glyph glyph-name="quotedblleft" unicode="&#x201c;" horiz-adv-x="380" 
d="M300 609l6 -73q0 -22 -13.5 -41t-36 -19t-33.5 15.5t-11 34.5q0 69 35.5 135.5t69.5 66.5q8 0 14 -5.5t6 -13t-18.5 -38.5t-18.5 -62zM138 609l6 -73q0 -22 -13.5 -41t-36 -19t-33.5 15.5t-11 34.5q0 69 35.5 135.5t69.5 66.5q8 0 14 -5.5t6 -13t-18.5 -38.5t-18.5 -62z
" />
    <glyph glyph-name="quotedblright" unicode="&#x201d;" horiz-adv-x="381" 
d="M85 595l-6 73q0 22 13.5 41t36 19t33.5 -15.5t11 -34.5q0 -69 -35.5 -135.5t-69.5 -66.5q-8 0 -14 5.5t-6 12.5t18.5 38.5t18.5 62.5zM247 595l-6 73q0 22 13.5 41t36 19t33.5 -15.5t11 -34.5q0 -69 -35.5 -135.5t-69.5 -66.5q-8 0 -14 5.5t-6 12.5t18.5 38.5t18.5 62.5z
" />
    <glyph glyph-name="quotedblbase" unicode="&#x201e;" horiz-adv-x="390" 
d="M62 -114l3 80q0 21 -4 39.5t-4 38.5t14.5 39t36 19t32.5 -15.5t11 -37.5q0 -62 -22.5 -123t-46.5 -61q-20 0 -20 21zM242 -114l3 80q0 21 -4 39.5t-4 38.5t14.5 39t36 19t32.5 -15.5t11 -37.5q0 -62 -22.5 -123t-46.5 -61q-20 0 -20 21z" />
    <glyph glyph-name="dagger" unicode="&#x2020;" horiz-adv-x="526" 
d="M291 500l154 3q18 0 29.5 -9t11.5 -24t-11.5 -24t-29.5 -9q-50 0 -155 3v-144q0 -202 2.5 -298t2.5 -112.5t-10 -30.5t-26 -14t-26 14t-10 30.5t1 74.5q4 134 4 285t-1 195q-99 -3 -131.5 -3t-44 9t-11.5 24t11.5 24t29.5 9l145 -3l-3 209q0 23 10 37t26 14t26 -14
t10 -44t-4 -202z" />
    <glyph glyph-name="daggerdbl" unicode="&#x2021;" horiz-adv-x="547" 
d="M301 440l-1 -144l1 -70l154 3q18 0 29.5 -9t11.5 -24t-11.5 -24t-45 -9t-138.5 3l5 -284q0 -23 -10 -37t-26 -14t-26 14t-10 37l4 284q-99 -3 -132 -3t-44.5 9t-11.5 24t11.5 24t29.5 9l148 -3v70q0 100 -1 144q-99 -3 -131.5 -3t-44 9t-11.5 24t11.5 24t29.5 9l145 -3
l-3 209q0 23 10 37t26 14t26 -14t10 -44t-4 -202l154 3q18 0 29.5 -9t11.5 -24t-11.5 -24t-29.5 -9q-50 0 -155 3z" />
    <glyph glyph-name="bullet" unicode="&#x2022;" horiz-adv-x="289" 
d="M217 479.5q22 -30.5 22 -78.5t-29 -86.5t-71 -38.5t-65 32.5t-23 79t29 84.5t72 38t65 -30.5z" />
    <glyph glyph-name="ellipsis" unicode="&#x2026;" horiz-adv-x="583" 
d="M139 91.5q11 -15.5 11 -39t-14.5 -43t-35.5 -19.5t-32.5 16t-11.5 39.5t14.5 42.5t36 19t32.5 -15.5zM327 91.5q11 -15.5 11 -39t-14.5 -43t-35.5 -19.5t-32.5 16t-11.5 39.5t14.5 42.5t36 19t32.5 -15.5zM515 91.5q11 -15.5 11 -39t-14.5 -43t-35.5 -19.5t-32.5 16
t-11.5 39.5t14.5 42.5t36 19t32.5 -15.5z" />
    <glyph glyph-name="perthousand" unicode="&#x2030;" horiz-adv-x="1154" 
d="M1067.5 282.5q40.5 -48.5 40.5 -123t-42 -124.5t-107.5 -50t-106 48.5t-40.5 123t42 124.5t107.5 50t106 -48.5zM1021.5 74.5q22.5 32.5 22.5 82.5t-22 83.5t-61.5 33.5t-62 -32.5t-22.5 -82.5t22 -83.5t61.5 -33.5t62 32.5zM586 706q0 -43 -56 -104q-198 -567 -208 -592
t-36 -25q-13 0 -22 9t-9 24.5t25 76.5q101 247 178 482q-17 -8 -45.5 -8t-75.5 14q5 -18 5 -41q0 -73 -40.5 -123t-106 -50t-106 48.5t-40.5 123t42 124.5t101 50t112 -43.5t100.5 -43.5t68.5 18l8 28q18 65 37 79q9 7 25.5 7t29.5 -15.5t13 -38.5zM258.5 458.5
q22.5 32.5 22.5 82.5t-22 83.5t-62 33.5t-62.5 -32.5t-22.5 -82.5t22.5 -83.5t62 -33.5t62 32.5zM717.5 282.5q40.5 -48.5 40.5 -123t-42 -124.5t-107.5 -50t-106 48.5t-40.5 123t42 124.5t107.5 50t106 -48.5zM671.5 74.5q22.5 32.5 22.5 82.5t-22 83.5t-61.5 33.5
t-62 -32.5t-22.5 -82.5t22 -83.5t61.5 -33.5t62 32.5z" />
    <glyph glyph-name="guilsinglleft" unicode="&#x2039;" horiz-adv-x="298" 
d="M51 327q-7 11 -7 23.5t8 23.5t34 34.5t37 34.5t25.5 27t21.5 22q17 18 32.5 18t24.5 -9.5t9 -23t-9.5 -23.5t-30 -24.5t-30.5 -23.5q-48 -43 -48 -57t48 -57q10 -9 30.5 -23.5t30 -24.5t9.5 -23.5t-9 -23t-20.5 -9.5t-21 5.5t-16 12t-21 22.5t-26 27.5t-29.5 28
t-26.5 24.5t-15.5 19z" />
    <glyph glyph-name="guilsinglright" unicode="&#x203a;" horiz-adv-x="297" 
d="M247 371q7 -11 7 -23.5t-8 -23.5t-34 -34.5t-37 -34.5t-25.5 -27t-21.5 -22q-17 -18 -32.5 -18t-24.5 9.5t-9 23t9.5 23.5t30 24.5t30.5 23.5q48 43 48 57t-48 57q-10 9 -30.5 23.5t-30 24.5t-9.5 23.5t9 23t20.5 9.5t21 -5.5t16 -12t21 -22.5t26 -27.5t29.5 -28
t26.5 -24.5t15.5 -19z" />
    <glyph glyph-name="fraction" unicode="&#x2044;" horiz-adv-x="354" 
d="M273 546.5q-35 -85.5 -64.5 -168.5t-54.5 -161q-43 -130 -56.5 -170t-25 -51t-24.5 -11t-23 8t-10 25.5t15.5 58.5t50.5 127.5t63.5 169t55 160t42.5 124t22 66.5q14 41 46 41q10 0 20 -8t10 -25.5t-16 -58.5t-51 -126.5z" />
    <glyph glyph-name="Euro" unicode="&#x20ac;" horiz-adv-x="643" 
d="M269 315l177 3q18 0 29.5 -9t11.5 -24t-11.5 -24t-29.5 -9l-177 3q-40 0 -60 -1q17 -93 65 -149t122 -56q32 0 59.5 10.5t42.5 22.5q41 33 54.5 33t21.5 -9t8 -21q0 -30 -55 -65t-131 -35q-100 0 -168 74.5t-89 193.5q-21 -1 -43 -1t-33.5 9t-11.5 24t11.5 24t29.5 9z
M269 439l177 3q18 0 29.5 -9t11.5 -24t-11.5 -24t-29.5 -9l-177 3l-177 -3q-18 0 -29.5 9t-11.5 24t11.5 24t29.5 9l46 -1q19 122 87.5 198t170.5 76q71 0 121.5 -31.5t50.5 -66.5q0 -11 -7.5 -20.5t-21.5 -9.5t-27.5 10t-25.5 22.5t-36 22.5t-54 10q-75 0 -124 -58.5
t-65 -154.5h62z" />
    <glyph glyph-name="trademark" unicode="&#x2122;" horiz-adv-x="865" 
d="M211 751l97 4q20 0 31.5 -8.5t11.5 -21.5q0 -30 -43 -30l-67 2q-3 -69 -3 -150l3 -174q0 -38 -30 -38t-30 38l3 174q0 115 -3 151l-73 -3q-41 0 -41 29.5t41 29.5zM410 628l-1 89q0 16 9 27t24 11q34 0 52 -37q24 -50 102 -226q22 44 51 115t47 109.5t45 38.5
q16 0 25 -11t9 -27l-1 -89v-83l2 -173q0 -37 -29 -37q-31 0 -31 38l3 172q0 75 -1 104q-96 -224 -99 -230q-7 -17 -22 -17t-24 19q0 2 -37 83t-68 145q-1 -29 -1 -104l3 -172q0 -38 -31 -38q-29 0 -29 38l2 172v83z" />
    <glyph glyph-name="arrowleft" unicode="&#x2190;" horiz-adv-x="814" 
d="M405 379l329 5q22 0 36.5 -10.5t14.5 -27.5t-14.5 -27.5t-36.5 -10.5l-329 5h-283l81 -68q21 -18 49 -41q63 -52 78 -67t15 -30t-10 -25t-26.5 -10t-35.5 16q-45 40 -95 90t-92 87.5t-46 41.5q-20 20 -20 39t20 39q4 4 46 41.5t92 87.5t95 90q19 16 35.5 16t26.5 -10
t10 -25t-13 -28t-32 -29t-47.5 -39.5t-49.5 -41.5l-81 -68h283z" />
    <glyph glyph-name="arrowup" unicode="&#x2191;" horiz-adv-x="574" 
d="M325 34q0 -15 -10.5 -29.5t-27.5 -14.5t-27.5 14.5t-10.5 29.5t1 61q4 107 4 275v283l-68 -81q-18 -21 -42 -50q-51 -62 -66 -77t-30 -15t-25 10t-10 26.5t16 35.5q40 45 90 95t87.5 92t41.5 46q20 20 39 20t39 -20q4 -4 41.5 -46t87.5 -92t90 -95q16 -19 16 -35.5
t-10 -26.5t-25 -10t-28 13t-29 32t-39.5 47.5t-41.5 49.5l-68 81v-283q0 -168 2.5 -244.5t2.5 -91.5z" />
    <glyph glyph-name="arrowright" unicode="&#x2192;" horiz-adv-x="814" 
d="M80 384l329 -5h283l-81 68q-21 18 -49 41q-63 52 -78 67t-15 30t10 25t26.5 10t35.5 -16q45 -40 95 -90t92 -87.5t46 -41.5q20 -20 20 -39t-20 -39q-4 -4 -46 -41.5t-92 -87.5t-95 -90q-19 -16 -35.5 -16t-26.5 10t-10 25t13 28t32 29t47.5 39.5t49.5 41.5l81 68h-283
l-329 -5q-22 0 -36.5 10.5t-14.5 27.5t14.5 27.5t36.5 10.5z" />
    <glyph glyph-name="arrowdown" unicode="&#x2193;" horiz-adv-x="574" 
d="M287 -10q-19 0 -39 20q-4 4 -41.5 46t-87.5 92t-90 95q-16 19 -16 35.5t10 26.5t25 10t28 -13t29 -32t39.5 -47.5t41.5 -49.5l68 -81v283q0 168 -2.5 244.5t-2.5 91.5t10.5 29.5t27.5 14.5t27.5 -14.5t10.5 -29.5t-1 -61q-4 -107 -4 -275v-283l68 81l42 49q51 63 66 78
t30 15t25 -10t10 -26.5t-16 -35.5q-40 -45 -90 -95t-87.5 -92t-41.5 -46q-20 -20 -39 -20z" />
    <glyph glyph-name="minus" unicode="&#x2212;" horiz-adv-x="632" 
d="M316 291l197 3q18 0 29.5 -9t11.5 -24t-11.5 -24t-29.5 -9l-197 3l-197 -3q-18 0 -29.5 9t-11.5 24t11.5 24t29.5 9z" />
    <glyph glyph-name="approxequal" unicode="&#x2248;" horiz-adv-x="594" 
d="M477 304q-36 -30 -74.5 -30t-92 29t-83 29t-61 -30.5t-50 -30.5t-28.5 9.5t-10 23.5q0 32 43 61t93.5 29t105 -29t78 -29t40.5 12.5t29 25t23 12.5q23 0 23 -26t-36 -56zM480 150q-36 -30 -74.5 -30t-92 29t-83 29t-61 -30.5t-50 -30.5t-28.5 9.5t-10 23.5q0 32 43 61
t93.5 29t105 -29t78 -29t40.5 12.5t29 25t23 12.5q23 0 23 -26t-36 -56z" />
    <glyph glyph-name="notequal" unicode="&#x2260;" horiz-adv-x="558" 
d="M288 219l168 3q18 0 29.5 -9t11.5 -24t-11.5 -24t-29.5 -9l-208 3l-59 -93q-14 -23 -31.5 -23t-26 9.5t-8.5 23t10 28.5l41 53l-72 -1q-18 0 -29.5 9t-11.5 24t11.5 24t36.5 9t106 -3l56 84l-169 -3q-18 0 -29.5 9t-11.5 24t11.5 24t29.5 9l208 -3l57 89q16 21 31 21
t25 -9t10 -23.5t-6 -23t-19 -25.5t-21 -28q60 2 73.5 2t25 -9t11.5 -24t-11.5 -24t-25.5 -9t-114 2z" />
    <glyph glyph-name="lessequal" unicode="&#x2264;" horiz-adv-x="563" 
d="M278 60l177 3q18 0 29.5 -9t11.5 -24t-11.5 -24t-29.5 -9l-177 3l-177 -3q-18 0 -29.5 9t-11.5 24t11.5 24t29.5 9zM484.5 191q7.5 -8 7.5 -20t-8.5 -20.5t-20 -8.5t-24 4t-31.5 12.5t-37.5 18t-50.5 25t-56 27t-54 26t-45.5 21.5t-36 17t-30 16.5t-19.5 14.5t-13.5 16
t-3.5 16t4 15t14 15t20.5 15t31.5 18t38 19t49 24l56 28q24 12 51 26l40 21q64 33 75.5 35t22 2t20 -10t9.5 -21t-2 -16.5t-8.5 -11.5t-14 -10.5t-22.5 -11.5t-30 -13q-57 -25 -78.5 -35.5t-46 -21.5t-42.5 -19.5t-38 -19.5q-43 -22 -43 -30t13 -15t21.5 -12t22 -11.5
t22.5 -11t24 -11t34 -15.5t57.5 -25.5t57.5 -25t38 -18.5t26.5 -18z" />
    <glyph glyph-name="greaterequal" unicode="&#x2265;" horiz-adv-x="563" 
d="M285 60l177 3q18 0 29.5 -9t11.5 -24t-11.5 -24t-29.5 -9l-177 3l-177 -3q-18 0 -29.5 9t-11.5 24t11.5 24t29.5 9zM501 356q0 -8 -3.5 -16t-13.5 -16t-19.5 -14.5t-30 -16.5t-36 -17t-45.5 -21.5t-54 -26t-56 -27t-50.5 -25t-37.5 -18.5q-37 -16 -52 -16t-23.5 8.5
t-8.5 20.5t7.5 20t26.5 18t38 18.5t57.5 25t57.5 25.5t34 15.5t24 11t22.5 11t22 11.5t17.5 10q17 9 17 17q0 14 -123 69q-25 11 -41.5 19t-42.5 19.5t-41 18t-30 13.5t-22.5 11.5t-14.5 10.5q-10 10 -10 24.5t9.5 24.5t20 10t16 -1t13.5 -4t15.5 -6t23 -11t28.5 -15l41 -21
q27 -14 51 -26l56 -28q32 -16 49 -24t38 -19t31.5 -18t20.5 -15t14 -15t4 -15z" />
    <glyph glyph-name="Th" unicode="&#xe062;" horiz-adv-x="1013" 
d="M267 750l291 6q23 0 37 -10.5t14 -27t-2.5 -128t-2.5 -208.5q70 127 180 127q80 0 124 -57t44 -138l-5 -157q0 -28 0.5 -42.5t6 -30t13.5 -19t16.5 -4.5t12 -3t3.5 -8q0 -26 -16.5 -43.5t-38.5 -17.5q-39 0 -53 29.5t-14 88.5l4 184q0 67 -29.5 109.5t-80.5 42.5
t-99.5 -57.5t-66.5 -128.5l3 -217q0 -51 -38 -51q-46 0 -46 70.5t20 197.5q0 87 -5.5 252t-5.5 169l-225 5q-5 -225 -5 -311l5 -331q0 -23 -11 -37t-30 -14t-30 14t-11 37l5 331q0 87 -5 312l-151 -5q-48 0 -48 38t48 38z" />
    <glyph glyph-name="f_b" unicode="&#xe092;" horiz-adv-x="889" 
d="M58 502l50 -1v84q0 93 59.5 134t147 41t145.5 -29q28 -16 28 -58q0 -7 -1 -43q-4 -146 -4 -236q27 51 72.5 83.5t104 32.5t102.5 -40q80 -73 80 -209q0 -109 -63 -190t-162 -81q-75 0 -130 51q0 -51 -38 -51q-46 0 -46 70.5t20 196.5q0 87 -5.5 252t-5.5 169
q-49 15 -95 15q-142 0 -142 -117v-76l97 2q16 0 27 -8t11 -24q0 -30 -38 -30l-97 2v-67q0 -138 3 -232t3 -109.5t-10.5 -29.5t-28.5 -14t-28.5 14t-10.5 29.5t1 62.5q5 141 5 279v66l-51 -1q-38 0 -38 30q0 16 11 24t27 8zM724 114q47 59 47 141.5t-30.5 136t-86.5 53.5
t-102 -50t-71 -128l5 -154q60 -58 125.5 -58t112.5 59z" />
    <glyph glyph-name="f_f_b" unicode="&#xe093;" horiz-adv-x="1198" 
d="M419 440l-89 1q-15 0 -156 -3v-63q0 -138 3 -232t3 -102q0 -51 -38.5 -51t-38.5 51q0 8 1 55q4 110 4 279v61h-40q-48 0 -48 33q0 35 48 35q22 0 39 -1v82q0 93 36.5 134t84.5 41t79.5 -18.5t31.5 -39.5q0 -33 -28 -33q-13 0 -35 12t-40 12q-62 0 -62 -117v-75
q94 -2 154 -2t89 1v89q0 91 59.5 131t147 40t145.5 -29q28 -16 28 -58q0 -7 -1 -43q-4 -86 -4 -236q27 51 72.5 83.5t104 32.5t101.5 -40q81 -73 81 -209q0 -109 -63 -190t-162 -81q-75 0 -130 51q0 -51 -38 -51q-46 0 -46 70.5t20 196.5q0 87 -5.5 252t-5.5 169
q-49 15 -95 15q-142 0 -142 -117v-76l85 5q23 0 37 -9.5t14 -26.5q0 -34 -51 -34q-27 0 -84 3v-63q0 -138 3 -232t3 -102q0 -51 -38 -51q-18 0 -28.5 14t-10.5 37l5 334v65zM1033 114q47 59 47 141.5t-30.5 136t-86.5 53.5t-102 -50t-71 -128l5 -154q60 -58 125.5 -58
t112.5 59z" />
    <glyph glyph-name="f_f_h" unicode="&#xe094;" horiz-adv-x="1224" 
d="M419 440l-89 1q-15 0 -156 -3v-63q0 -138 3 -232t3 -102q0 -51 -38.5 -51t-38.5 51q0 8 1 55q4 110 4 279v61h-40q-48 0 -48 33q0 35 48 35q22 0 39 -1v82q0 93 36.5 134t84.5 41t79.5 -18.5t31.5 -39.5q0 -33 -28 -33q-13 0 -35 12t-40 12q-62 0 -62 -117v-75
q94 -2 154 -2t89 1v89q0 91 59.5 131t147 40t145.5 -29q28 -16 28 -58q0 -7 -1 -47q-4 -92 -4 -244q73 127 180 127q80 0 124 -57t44 -138l-5 -157q0 -28 0.5 -42.5t6 -30t13.5 -19t16.5 -4.5t12 -3t3.5 -8q0 -26 -16.5 -43.5t-38.5 -17.5q-38 0 -52.5 30t-14.5 88l4 184
q0 68 -29 110t-80.5 42t-99.5 -57t-67 -129l3 -217q0 -51 -38 -51q-46 0 -46 70.5t20 197.5q0 87 -5.5 252t-5.5 169q-49 15 -95 15q-142 0 -142 -117v-76l85 5q23 0 37 -9.5t14 -26.5q0 -34 -51 -34q-27 0 -84 3v-63q0 -138 3 -232t3 -102q0 -51 -38 -51q-18 0 -28.5 14
t-10.5 37l5 334v65z" />
    <glyph glyph-name="f_f_j" unicode="&#xe095;" horiz-adv-x="864" 
d="M717 633q-11 14 -11 37t14.5 40.5t35.5 17.5t31 -13.5t10 -34.5t-12.5 -41t-34.5 -20t-33 14zM506 500l245 6q39 0 39 -49l-5 -230l-1 -220q0 -86 -43.5 -142.5t-80.5 -56.5q-27 0 -27 19q0 14 43 56q17 16 30.5 51.5t13.5 82.5l-1 210q0 28 -5 213q-66 4 -119 4t-111 -2
v-67q0 -138 3 -232t3 -109.5t-10.5 -29.5t-28.5 -14q-37 0 -37 51l5 334v65l-89 1q-15 0 -156 -3v-63q0 -138 3 -232t3 -102q0 -51 -38.5 -51t-38.5 51q0 8 1 55q4 110 4 279v61h-40q-48 0 -48 33q0 35 48 35q22 0 39 -1v82q0 93 36.5 134t84.5 41t79.5 -18.5t31.5 -39.5
q0 -33 -28 -33q-13 0 -35 12t-40 12q-62 0 -62 -117v-75q94 -2 154.5 -2t89.5 1v85q0 93 36.5 134t84.5 41t79.5 -18.5t31.5 -39.5q0 -33 -28 -33q-13 0 -35.5 12t-39.5 12q-62 0 -62 -117v-76h21z" />
    <glyph glyph-name="f_f_k" unicode="&#xe096;" horiz-adv-x="1158" 
d="M419 440l-89 1q-15 0 -156 -3v-63q0 -138 3 -232t3 -102q0 -51 -38.5 -51t-38.5 51q0 8 1 55q4 110 4 279v61h-40q-48 0 -48 33q0 35 48 35q22 0 39 -1v82q0 93 36.5 134t84.5 41t79.5 -18.5t31.5 -39.5q0 -33 -28 -33q-13 0 -35 12t-40 12q-62 0 -62 -117v-75
q94 -2 154 -2t89 1v89q0 91 59.5 131t147.5 40t146 -29q28 -16 28 -58q0 -7 -1 -47q-3 -118 -3 -243q73 127 180 127q58 0 93 -34t35 -83q0 -82 -85 -140q-19 -13 -49 -32l74 -114q19 -29 40 -38t31.5 -9t10.5 -9q0 -24 -15 -42.5t-36 -18.5t-32.5 6.5t-25 25t-25.5 38.5
q-58 95 -89 139q-26 0 -43 14.5t-17 34.5t13.5 33t35.5 13t45 -25q38 17 67.5 52t29.5 63t-15.5 44t-46.5 16q-56 0 -106 -56.5t-69 -129.5l3 -217q0 -51 -38 -51q-46 0 -46 70.5t20 197.5q0 87 -6 251.5t-6 168.5q-49 15 -96 15q-142 0 -142 -117v-76l85 5q23 0 37 -9.5
t14 -26.5q0 -34 -51 -34q-27 0 -84 3v-63q0 -138 3 -232t3 -102q0 -51 -38 -51q-18 0 -28.5 14t-10.5 37l5 334v65z" />
    <glyph glyph-name="fh" unicode="&#xe098;" horiz-adv-x="915" 
d="M484 257l3 -217q0 -51 -38 -51q-46 0 -46 70.5t20 197.5q0 87 -5.5 252t-5.5 169q-49 15 -95 15q-142 0 -142 -117v-76l97 2q16 0 27 -8t11 -24q0 -30 -38 -30l-97 2v-67q0 -138 3 -232t3 -109.5t-10.5 -29.5t-28.5 -14t-28.5 14t-10.5 29.5t1 62.5q5 141 5 279v66
l-51 -1q-38 0 -38 30q0 16 11 24t27 8l50 -1v84q0 93 59.5 134t147 41t145.5 -29q28 -16 28 -58q0 -7 -1 -47q-4 -158 -4 -244q73 127 180 127q80 0 124 -57t44 -138l-5 -157q0 -28 0.5 -42.5t6 -30t13.5 -19t16.5 -4.5t12 -3t3.5 -8q0 -26 -16.5 -43.5t-38.5 -17.5
q-38 0 -52.5 30t-14.5 88l4 184q0 68 -29 110t-80.5 42t-99.5 -57t-67 -129z" />
    <glyph glyph-name="f_j" unicode="&#xe09a;" horiz-adv-x="555" 
d="M408 633q-11 14 -11 37t14.5 40.5t35.5 17.5t31 -13.5t10 -34.5t-12.5 -41t-34.5 -20t-33 14zM411 17l-1 210q0 28 -5 213q-66 4 -119 4t-111 -2v-67q0 -138 3 -232t3 -109.5t-10.5 -29.5t-28.5 -14t-28.5 14t-10.5 29.5t1 62.5q5 141 5 279v67l-51 -2q-38 0 -38 30
q0 16 11 24t27 8l50 -2v85q0 93 36.5 134t84.5 41t79.5 -18.5t31.5 -39.5q0 -33 -28 -33q-13 0 -35.5 12t-39.5 12q-62 0 -62 -117v-76h22l245 6q39 0 39 -49l-5 -230l-1 -220q0 -86 -43.5 -142.5t-80.5 -56.5q-27 0 -27 19q0 14 44 56q16 16 29.5 51.5t13.5 82.5z" />
    <glyph glyph-name="f_k" unicode="&#xe09b;" horiz-adv-x="848" 
d="M485 258l3 -217q0 -51 -38 -51q-46 0 -46 70.5t20 197.5q0 87 -6 251.5t-6 168.5q-49 15 -95 15q-142 0 -142 -117v-76l97 2q16 0 27 -8t11 -24q0 -30 -38 -30l-97 2v-67q0 -138 3 -232t3 -109.5t-10.5 -29.5t-28.5 -14t-28.5 14t-10.5 29.5t1 62.5q5 141 5 279v66
l-51 -1q-38 0 -38 30q0 16 11 24t27 8l50 -1v84q0 93 59.5 134t147 41t145.5 -29q28 -16 28 -58q0 -7 -1 -47q-3 -118 -3 -243q73 127 180 127q58 0 93 -34t35 -83q0 -82 -85 -140q-19 -13 -49 -32l74 -114q19 -29 40 -38t31.5 -9t10.5 -9q0 -24 -15 -42.5t-36 -18.5
t-32.5 6.5t-25 25t-25.5 38.5q-58 95 -89 139q-26 0 -43 14.5t-17 34.5t13.5 33t35.5 13t45 -25q38 17 67.5 52t29.5 63t-15.5 44t-46.5 16q-56 0 -106 -56.5t-69 -129.5z" />
    <glyph glyph-name="f_f_l" unicode="&#xe0b0;" horiz-adv-x="871" 
d="M419 440l-89 1q-15 0 -156 -3v-63q0 -138 3 -232t3 -102q0 -51 -38.5 -51t-38.5 51q0 8 1 55q4 110 4 279v61h-40q-48 0 -48 33q0 35 48 35q22 0 39 -1v82q0 93 36.5 134t84.5 41t79.5 -18.5t31.5 -39.5q0 -33 -28 -33q-13 0 -35 12t-40 12q-62 0 -62 -117v-75
q94 -2 154 -2t89 1v89q0 91 59.5 131t147 40t145.5 -29q28 -16 28 -58q0 -7 -1 -49q-4 -96 -4 -212t1.5 -192.5t3 -123.5t1.5 -55q0 -51 -39 -51t-39 51q0 8 2 55q4 141 4 279l-5 303q-49 15 -95 15q-142 0 -142 -117v-76l85 5q23 0 37 -9.5t14 -26.5q0 -34 -51 -34
q-27 0 -84 3v-63q0 -138 3 -232t3 -102q0 -51 -38 -51q-18 0 -28.5 14t-10.5 37l5 334v65z" />
    <glyph glyph-name="commaaccent" unicode="&#xf6c3;" horiz-adv-x="214" 
d="M92.5 -70.5q10.5 15.5 29 15.5t28.5 -13t10 -31q0 -43 -38.5 -89.5t-63.5 -46.5q-10 0 -16.5 6t-6.5 13.5t4 15t12 21t13 24.5t11.5 40t17 44.5z" />
    <glyph glyph-name="f_i" unicode="&#xfb01;" horiz-adv-x="555" 
d="M408 633q-11 14 -11 37t14.5 40.5t35.5 17.5t31 -13.5t10 -34.5t-12.5 -41t-34.5 -20t-33 14zM58 502l50 -2v85q0 93 36.5 134t84.5 41t79.5 -18.5t31.5 -39.5q0 -33 -28 -33q-13 0 -35.5 12t-39.5 12q-62 0 -62 -117v-76h22l245 6q39 0 39 -48l-5 -208l6 -209
q0 -23 -11 -37t-29 -14t-28 14t-10 37l6 209q0 5 -5 190q-66 4 -119 4t-111 -2v-67q0 -138 3 -232t3 -109.5t-10.5 -29.5t-28.5 -14t-28.5 14t-10.5 29.5t1 62.5q5 141 5 279v67l-51 -2q-38 0 -38 30q0 16 11 24t27 8z" />
    <glyph glyph-name="f_l" unicode="&#xfb02;" horiz-adv-x="562" 
d="M488 673l-5 -298q0 -138 3 -232t3 -102q0 -51 -39 -51t-39 51q0 8 1 55q5 141 5 279l-5 303q-49 15 -95 15q-142 0 -142 -117v-76l97 2q16 0 27 -8t11 -24q0 -30 -38 -30l-97 2v-67q0 -138 3 -232t3 -109.5t-10.5 -29.5t-28.5 -14t-28.5 14t-10.5 29.5t1 62.5
q5 141 5 279v66l-51 -1q-38 0 -38 30q0 16 11 24t27 8l50 -1v84q0 93 59.5 134t147 41t145.5 -29q28 -16 28 -58z" />
    <glyph glyph-name="f_f_i" unicode="&#xfb03;" horiz-adv-x="864" 
d="M717 633q-11 14 -11 37t14.5 40.5t35.5 17.5t31 -13.5t10 -34.5t-12.5 -41t-34.5 -20t-33 14zM506 500l245 6q39 0 39 -48l-5 -208l6 -209q0 -23 -11 -37t-29 -14t-28 14t-10 37l6 209q0 5 -5 190q-66 4 -119 4t-111 -2v-67q0 -138 3 -232t3 -109.5t-10.5 -29.5
t-28.5 -14q-37 0 -37 51l5 334v65l-89 1q-15 0 -156 -3v-63q0 -138 3 -232t3 -102q0 -51 -38.5 -51t-38.5 51q0 8 1 55q4 110 4 279v61h-40q-48 0 -48 33q0 35 48 35q22 0 39 -1v82q0 93 36.5 134t84.5 41t79.5 -18.5t31.5 -39.5q0 -33 -28 -33q-13 0 -35 12t-40 12
q-62 0 -62 -117v-75q94 -2 154.5 -2t89.5 1v85q0 93 36.5 134t84.5 41t79.5 -18.5t31.5 -39.5q0 -33 -28 -33q-13 0 -35.5 12t-39.5 12q-62 0 -62 -117v-76h21z" />
    <glyph glyph-name="CR" horiz-adv-x="270" 
 />
    <glyph glyph-name="f.alt" horiz-adv-x="327" 
d="M58 502l50 -2v85q0 93 36.5 134t84.5 41t79.5 -18.5t31.5 -39.5q0 -33 -28 -33q-13 0 -34 12t-41 12q-62 0 -62 -117v-76l97 2q16 0 27 -8t11 -24q0 -30 -38 -30l-97 2l3 -359q0 -98 -36.5 -152t-75 -54t-38.5 19q0 9 8 16.5t19.5 17.5t22.5 26q29 40 33 127
q2 49 2 153.5t-4 205.5l-51 -2q-38 0 -38 30q0 16 11 24t27 8z" />
    <glyph glyph-name="A.alt" horiz-adv-x="817" 
d="M577 338q-95 308 -107 308q-13 0 -85 -228l-24 -76q40 6 98 6t118 -10zM266 259q-70 -23 -119.5 -72t-49.5 -92q0 -21 10.5 -32.5t27.5 -11.5q55 0 131 208zM792 52q0 -31 -16.5 -49t-39.5 -18q-45 0 -67 65q-45 134 -72 222q-71 13 -138 13t-115 -10q-64 -162 -96 -212
q-50 -78 -116 -78q-48 0 -74 32t-26 76q0 69 69.5 139.5t182.5 95.5q35 94 79 229t47 143q21 60 58 60q25 0 38.5 -14.5t22.5 -37.5t28.5 -83t49.5 -151t49 -149q43 -13 68 -32t25 -32q0 -23 -25 -23q-10 0 -48 14q42 -137 55.5 -157.5t22.5 -25.5q13 -8 25.5 -8t12.5 -9z
" />
    <glyph glyph-name="B.alt" horiz-adv-x="742" 
d="M192 497q-9 153 -9 174q0 94 182 94q127 0 198 -52t71 -130t-78 -146q133 -73 133 -194q0 -82 -50.5 -141.5t-129.5 -88t-163 -28.5t-154 22t-109 51t-39 48.5t10.5 29.5t24 10t44.5 -22.5t85.5 -45.5t125.5 -23q118 0 196.5 52.5t78.5 133.5q0 47 -28 87t-76 64
q-103 -76 -241 -94l4 -128q0 -23 -10.5 -37t-29 -14t-30 14t-11.5 37l5 125q-69 3 -104 32.5t-35 66.5t36 65t103 38zM262 672q0 -68 2 -169q122 0 229 -38q67 51 67 112.5t-50.5 89.5t-125 28t-122.5 -23zM262 435v-69q41 1 96 17t85 36q-55 18 -153 18q-21 0 -28 -2z
M193 362v68q-71 -8 -71 -33q0 -33 71 -35z" />
    <glyph glyph-name="C.alt" horiz-adv-x="696" 
d="M383 765q111 0 182 -61.5t71 -145.5q0 -66 -41 -108t-97 -42t-94 36.5t-38 81t19 73t46 28.5q15 0 25 -8.5t10 -21.5t-14 -31.5t-14 -40.5t17 -36.5t44 -14.5t46 21t19 58q0 53 -47.5 97.5t-133.5 44.5q-107 0 -176 -94.5t-69 -223t72 -225.5t182 -97q51 0 93 13.5
t63 30.5q53 44 64.5 44t19.5 -7.5t8 -18.5q0 -38 -74.5 -85t-174.5 -47q-144 0 -239 113.5t-95 277t93 276.5t233 113z" />
    <glyph glyph-name="D.alt" horiz-adv-x="823" 
d="M767 373q0 -101 -46.5 -188t-142 -143.5t-225 -56.5t-216.5 75t-87 186q0 81 52.5 139t125.5 71q0 70 -4 202q-48 0 -48 34t66 51t149 17t158 -33t121 -89q97 -115 97 -265zM225 215l4 123v48q-47 -13 -74 -52t-27 -88q0 -78 63.5 -134.5t165.5 -56.5q139 0 233.5 91
t94.5 222q0 121 -74 218q-36 47 -96 75.5t-134 28.5q-35 0 -75 -9l-5 -220q67 -4 121 -42t54 -78q0 -16 -9.5 -25t-23 -9t-28 13.5t-28 30t-37 30t-50.5 13.5l1 -72q1 -24 3 -59.5t2 -52t-11.5 -30t-28.5 -13.5t-29 13t-12 35z" />
    <glyph glyph-name="E.alt" horiz-adv-x="631" 
d="M182.5 714q67.5 51 152 51t149 -31t64.5 -70q0 -16 -9.5 -25t-25.5 -9t-37 16q-64 49 -127 49t-111.5 -30.5t-48.5 -93t44 -98.5q74 35 134.5 35t90.5 -25t30 -56t-32.5 -58t-99.5 -27q-33 0 -71.5 14.5t-66.5 35.5q-85 -58 -85 -157q0 -67 59 -123.5t166 -56.5
q50 0 90.5 13.5t60.5 29.5t38.5 29.5t31.5 13.5q28 0 28 -26q0 -22 -32.5 -52t-92.5 -54t-124 -24q-142 0 -223.5 74.5t-81.5 166.5q0 134 117 211q-55 57 -55 141.5t67.5 135.5zM273 428q35 -26 88 -26t53 25q0 21 -59 21q-40 0 -71 -15z" />
    <glyph glyph-name="F.alt" horiz-adv-x="642" 
d="M170 48l5 295q-66 11 -66 46q0 16 9.5 25t18 9t38.5 -5q-1 112 -3 161q-66 8 -106.5 39t-40.5 79q0 30 24.5 59t76.5 29t81 -38.5t36 -99.5q84 0 150 22t107 47.5t62.5 41.5t33 16t19.5 -7.5t8 -18.5q0 -41 -59.5 -82t-147.5 -67t-169 -26v-165q25 -4 76.5 -4t109 11
t66 11t18.5 -7t10 -21q0 -28 -71.5 -46t-122 -18t-86.5 2l5 -288q0 -58 -41 -58t-41 58zM170 651q-7 69 -46 69q-12 0 -21 -8t-9 -18q0 -34 76 -43z" />
    <glyph glyph-name="G.alt" horiz-adv-x="781" 
d="M585 341q-12 14 -44.5 26t-64.5 12t-48 -6q-31 -11 -31 -25q0 -26 64.5 -26t123.5 19zM595 281q-67 -24 -134 -24t-104.5 25t-37.5 62t37.5 70t106 33t118.5 -25t69 -51q18 7 48.5 30t42 23t18.5 -8t7 -22q0 -34 -96 -85q0 -139 -81.5 -232t-205.5 -93q-141 0 -233.5 114
t-92.5 277.5t95.5 276.5t240.5 113q90 0 162.5 -35t72.5 -76q0 -16 -9.5 -25t-25.5 -9t-35.5 11.5t-37 26t-51.5 26t-76 11.5q-111 0 -183 -94.5t-72 -223t69 -225.5t175 -97q87 0 149 69t64 157z" />
    <glyph glyph-name="H.alt" horiz-adv-x="715" 
d="M607 437l7 -396q0 -22 -12 -36.5t-29 -14.5t-29 14.5t-12 36.5l6 304v32q-41 -32 -107.5 -51t-133 -19t-113.5 10l5 -276q0 -22 -12 -36.5t-29 -14.5t-29 14.5t-12 36.5l4 293q-66 22 -66 63q0 17 9 26t22 9t37 -16l-6 293q0 22 12 36.5t29 14.5t29 -14.5t12 -29.5
t-1 -61q-4 -107 -4 -266q44 -15 115 -15q160 0 238 98l-5 221q0 67 44 67q34 0 42 -31q7 -23 7 -96t-18 -196z" />
    <glyph glyph-name="I.alt" horiz-adv-x="598" 
d="M487 444l-1 -169q0 -147 -70 -218.5t-171 -71.5t-154.5 58.5t-53.5 131t46 118t106.5 45.5t95 -38t34.5 -83t-18.5 -70.5t-35 -25.5t-16.5 14q0 4 4.5 23.5t4.5 42.5t-20.5 46.5t-52.5 23.5t-54 -25t-22 -69.5t32.5 -83t95.5 -38.5q83 0 130 55.5t47 155.5l1 178
q0 161 -2 227q-58 -9 -99 -9q-216 0 -216 63q0 35 38 35q2 0 64 -12.5t114 -12.5t124.5 12.5t77.5 12.5q42 0 42 -33.5t-69 -45.5q-2 -70 -2 -237z" />
    <glyph glyph-name="J.alt" horiz-adv-x="576" 
d="M459 75q0 -155 -67 -232.5t-169 -77.5t-158.5 64t-56.5 143t48 132t111.5 53t100.5 -38.5t37 -83t-18.5 -70t-35 -25.5t-16.5 14q0 4 4.5 23.5t4.5 43t-21 47t-57 23.5t-61 -34t-25 -86.5t37.5 -95t100.5 -42.5q82 0 126.5 65t44.5 178q0 318 -1.5 455.5t-1.5 140.5
q-59 -9 -99 -9q-216 0 -216 63q0 35 38 35q3 0 64 -12.5t113.5 -12.5t125 12.5t77.5 12.5q42 0 42 -33.5t-69 -45.5q0 -5 -1.5 -151t-1.5 -456z" />
    <glyph glyph-name="K.alt" horiz-adv-x="706" 
d="M238 437l1 -88q63 6 95 28q-33 50 -96 60zM170 355v86q-27 -4 -43 -15.5t-16 -26.5q0 -30 59 -44zM168 515l-5 194q0 23 11 37t30 14t30 -13.5t11 -41.5t-5 -193q98 -16 150 -86q47 53 82 130.5t47 159.5q7 44 41 44q14 0 24 -10t10 -27q0 -73 -50 -178.5t-114 -176.5
q102 -208 161 -303q40 -66 89 -69h8q14 0 15.5 -3.5t1.5 -6.5q0 -29 -17 -48t-49 -19q-27 0 -45.5 18t-30 31.5t-27.5 39t-28 45.5t-31 56.5t-32 62t-36.5 72t-39.5 77.5q-56 -32 -129 -41l7 -239q0 -23 -11 -37t-30 -14t-30 14t-11 37l3 242q-61 12 -93.5 45t-32.5 74
t33.5 73.5t92.5 39.5z" />
    <glyph glyph-name="L.alt" horiz-adv-x="621" 
d="M519.5 32.5q-67.5 -47.5 -153.5 -47.5t-206 28q-48 -22 -70.5 -22t-38.5 16.5t-16 41t15 40.5t32 16t45 -7q20 65 20 284q0 110 -13 223t-13 114q0 19 11 31t28 12q37 0 44 -51q15 -109 15 -326.5t-21 -307.5q70 -22 168 -22q60 0 103.5 28.5t43.5 75.5q0 23 -14.5 39.5
t-35.5 16.5t-32.5 -12t-14.5 -27q-10 -39 -29 -39q-13 0 -21.5 16t-8.5 35q0 36 30 64.5t77 28.5t85 -33t38 -89q0 -79 -67.5 -126.5z" />
    <glyph glyph-name="M.alt" horiz-adv-x="989" 
d="M868 707l-5 -332q0 -251 38 -299q5 -6 15.5 -6.5t18.5 -1.5t8 -7q0 -31 -18 -49.5t-42 -18.5q-90 0 -90 240v336l-193 -424q-14 -31 -36.5 -31t-40.5 34q-4 8 -25 58q-69 162 -170 367v-233q0 -160 -26 -232q-29 -80 -77 -104q-29 -14 -66 -14q-58 0 -93 42t-35 97.5
t37 99t90 43.5q21 0 36 -10t15 -31q0 -37 -48 -37q-22 0 -38 -18t-16 -45.5t14.5 -45.5t42.5 -18q55 0 73.5 79.5t18.5 248.5q0 159 -2.5 231.5t-2.5 89.5t11.5 29.5t33.5 12.5t37 -35q143 -325 227 -493q98 189 180 390q32 78 46 108t41 30q41 0 41 -51z" />
    <glyph glyph-name="N.alt" horiz-adv-x="878" 
d="M159 -8q-58 0 -93 42t-35 97.5t37 99t90 43.5q21 0 36 -10t15 -31q0 -37 -48 -37q-22 0 -38 -18t-16 -45.5t14.5 -45.5t42.5 -18q93 0 93 288q0 75 -16 207t-16 151.5t14 32.5t33 13q28 0 45 -35q40 -80 155.5 -282.5t171.5 -290.5q-4 0 -9.5 132t-5.5 191.5t4.5 101.5
t17.5 87.5t42.5 70.5t69 25t65.5 -21t26 -42q0 -32 -23 -32q-6 0 -28.5 9t-39.5 9q-63 0 -63 -289q0 -75 11 -208t11 -152.5t-13.5 -32.5t-31.5 -13q-28 0 -47 35q-7 12 -35 61.5t-78.5 138t-76.5 135t-51 91.5q-59 108 -76 134q14 -127 14 -251q0 -341 -168 -341z" />
    <glyph glyph-name="O.alt" horiz-adv-x="811" 
d="M462 695q-68 0 -120.5 -50.5t-77 -122t-24.5 -135t5.5 -95.5t5.5 -42q0 -25 -23 -25q-20 0 -37 50.5t-17 108.5q0 152 79.5 266.5t207.5 114.5t210 -110.5t82 -275t-94.5 -279.5t-245.5 -115t-254.5 109t-103.5 280q0 66 14 111.5t44 45.5q14 0 23 -9.5t9 -24t-6.5 -47.5
t-6.5 -76q0 -147 83 -233t195 -86q82 0 144 45.5t92 117t30 156.5q0 132 -58 226.5t-156 94.5z" />
    <glyph glyph-name="P.alt" horiz-adv-x="691" 
d="M200 318q0 108 -3 183q-41 -6 -64.5 -29.5t-23.5 -53t23.5 -57.5t67.5 -43zM269 238q5 -155 5 -187t-12 -46.5t-29 -14.5t-29 14.5t-12 36.5l7 209q-77 17 -118.5 64.5t-41.5 102.5t41.5 98t113.5 53l-5 119q1 35 32 48q63 25 147 25q124 0 206.5 -71.5t82.5 -167
t-49 -161.5q-91 -123 -293 -123q-31 0 -46 1zM267 501q1 -39 1 -196q9 -1 28 -1q123 0 203 53t80 161q0 73 -62.5 123t-149.5 50q-59 0 -101 -13q0 -54 2 -110q60 -7 107.5 -44t47.5 -76q0 -16 -9.5 -25t-23 -9t-30 20t-40.5 42t-53 25z" />
    <glyph glyph-name="Q.alt" horiz-adv-x="829" 
d="M239 404q0 -66 15 -111t15 -52q0 -21 -21 -21q-28 0 -53.5 61t-25.5 124q0 149 85 254.5t215 105.5t216 -109.5t86 -271.5q0 -107 -44.5 -197.5t-119.5 -143.5q76 -105 81.5 -117t5.5 -21.5t-9 -21.5t-22 -12t-21 5t-18 18.5t-18 26.5t-26 41l-31 49q-63 -26 -127 -26
q-150 0 -257.5 118t-107.5 291q0 126 25 156q12 15 29 15t27.5 -11.5t10.5 -22t-5 -23.5q-12 -38 -12 -122q0 -136 85.5 -232.5t204.5 -96.5q59 0 85 15q-79 113 -79 129t8.5 28.5t22 12.5t21 -4.5t16.5 -17.5t16 -26q25 -45 54 -91q60 43 95 120.5t35 167.5
q0 129 -65 214.5t-162.5 85.5t-163.5 -81t-66 -206z" />
    <glyph glyph-name="R.alt" horiz-adv-x="739" 
d="M236 672q0 -39 4 -197q60 -6 112 -40.5t81 -76.5q49 30 78 77.5t29 97.5q0 75 -57.5 118.5t-144.5 43.5q-48 0 -102 -23zM239 410v-94q22 -2 57 -2t68 13q-43 64 -125 83zM170 323v91q-59 -7 -59 -39.5t59 -51.5zM240 250l6 -209q0 -23 -11 -37t-30 -14t-30 14t-11 40
t4 214q-64 14 -95 45.5t-31 71t35.5 69.5t90.5 35l-8 199q0 44 35 60q60 27 144 27q122 0 200.5 -66t78.5 -164q0 -70 -41 -133t-108 -102q111 -201 132 -233q46 -70 89 -73h8q14 0 15.5 -3.5t1.5 -6.5q0 -27 -17 -46.5t-36 -19.5t-34.5 8t-32.5 26.5t-31.5 38.5t-35 54.5
t-36.5 64.5l-92 161q-63 -22 -127 -22q-23 0 -33 1z" />
    <glyph glyph-name="S.alt" horiz-adv-x="581" 
d="M467.5 51.5q-71.5 -66.5 -182 -66.5t-175 58.5t-64.5 127.5t37.5 108t94.5 39t85.5 -29.5t28.5 -63.5t-18.5 -57.5t-40 -23.5t-21.5 19q0 8 8.5 21t8.5 27t-13.5 25.5t-37 11.5t-42 -16.5t-18.5 -48.5q0 -45 44 -86.5t120 -41.5t126.5 45t50.5 110q0 49 -38.5 88
t-93.5 67t-110 57.5t-93.5 74.5t-38.5 108t61.5 111.5t143.5 48.5t140 -31t58 -70q0 -16 -9.5 -25t-24.5 -9t-30 10t-27 22.5t-38 22.5t-70 10t-84 -27t-40 -66.5t38.5 -73t93.5 -62.5t110 -62t93.5 -83t38.5 -111q0 -92 -71.5 -158.5z" />
    <glyph glyph-name="T.alt" horiz-adv-x="629" 
d="M320.5 87.5q1.5 -38.5 1.5 -54t-11 -29.5t-30 -14t-30 14t-11 29.5t1 50.5q3 107 3 292.5t11 247.5q-55 5 -117 23q-118 36 -118 78q0 14 9.5 26t23.5 12t26 -6.5t26 -16.5t57.5 -23t107.5 -23q25 53 80 81.5t117.5 28.5t98 -27.5t35.5 -64t-41.5 -67.5t-144.5 -31
q-57 0 -89 3q-10 -32 -10 -190t1.5 -229.5t3 -110zM461 734q-84 0 -118 -48q21 -4 57 -4t68.5 6t45 13t12.5 12q0 21 -65 21z" />
    <glyph glyph-name="U.alt" horiz-adv-x="793" 
d="M152 690q-23 0 -38.5 -18t-15.5 -43t9 -40.5t18 -23.5t9 -15q0 -24 -28 -24t-53 31t-25 73q0 43 26 86q14 22 41 35.5t62 13.5q61 0 96 -45t35 -102.5t-25.5 -193t-25.5 -168.5q0 -89 29 -145t89.5 -56t113 70t80 159.5t31.5 167.5q-3 71 -3 242q0 66 43 66q52 0 52 -83
q0 -25 -26 -256q1 -108 21.5 -218.5t39.5 -131.5q6 -7 18 -8t21 -2t9 -9.5t-3.5 -22t-19.5 -29t-34 -15.5t-28 5t-17.5 15t-14 21t-11.5 29t-9 32t-7.5 35.5t-6 35.5t-5.5 36.5t-5 32.5q-24 -93 -80 -164q-29 -36 -69 -57t-90 -21t-90 20.5t-63 56.5q-44 70 -44 156
t27.5 213.5t27.5 177.5q0 81 -61 81z" />
    <glyph glyph-name="V.alt" horiz-adv-x="737" 
d="M210 358l3 170q0 163 -74 163q-21 0 -34 -12.5t-13 -26.5t10 -22t21.5 -11.5t21.5 -12t10 -22.5q0 -35 -38 -35t-65.5 30.5t-27.5 73.5t30 77.5t80 34.5t81 -17t47 -50q28 -56 28 -162l-4 -174q0 -139 27 -220.5t74 -81.5q33 0 59.5 56.5t68.5 202t66.5 231.5t35 125
t11.5 42q13 42 44 42q19 0 28.5 -13t9.5 -27t-10 -45q-61 -196 -110 -363.5t-79 -228.5q-48 -97 -130.5 -97t-126.5 98t-44 275z" />
    <glyph glyph-name="W.alt" horiz-adv-x="1060" 
d="M209 358l3 170q0 163 -74 163q-20 0 -33 -13t-13 -27t10 -22t21.5 -11.5t21.5 -12t10 -22.5q0 -35 -38 -35t-65.5 30.5t-27.5 74t30 78t79.5 34.5t80.5 -17t47 -50q28 -56 28 -162l-4 -174q0 -140 24.5 -221t66.5 -81q49 0 90 83t41 180l-2 223q0 66 43 66q52 0 52 -83
q0 -30 -20 -212q2 -95 43 -174t88 -79q44 0 69 80t25 221l-4 171q0 104 25 162q29 67 119 67q38 0 66 -24t28 -48q0 -12 -6.5 -18t-15 -6t-29 11t-36.5 11q-74 0 -74 -163l3 -167q0 -177 -43 -274t-130 -97q-57 0 -98.5 51t-65.5 135q-23 -86 -65 -138.5t-100 -52.5
q-86 0 -128 97.5t-42 275.5z" />
    <glyph glyph-name="X.alt" horiz-adv-x="752" 
d="M365 321q-100 -162 -140.5 -231t-45.5 -76q-17 -24 -39 -24q-40 0 -40 35q0 16 9 30.5t44 66.5q79 116 177 269q-53 142 -103.5 222t-90.5 80q-20 0 -30 -13t-10 -27.5t10 -22.5t21.5 -11.5t21.5 -12t10 -22.5q0 -35 -38 -35t-65.5 30.5t-27.5 73.5t29.5 77t81.5 34
q68 0 121.5 -71t115.5 -230q49 80 100.5 169.5t64.5 108.5t32 19t29 -11t10 -22.5t-9.5 -29.5t-33.5 -57.5t-73.5 -118t-82.5 -131.5q119 -335 198 -335q20 0 31 13t11 31.5t-13.5 28t-29.5 10.5q-42 3 -42 22t18.5 27t36.5 8q38 0 67 -28.5t29 -71.5t-29.5 -77t-81.5 -34
q-55 0 -104 56q-41 48 -90 163q-20 45 -49 118z" />
    <glyph glyph-name="Y.alt" horiz-adv-x="583" 
d="M182 347q-41 39 -80.5 122.5t-60 150t-20.5 93.5q0 47 36 47q10 0 22.5 -12t18 -40.5t22 -80t41 -108.5t58 -97.5t65.5 -40.5q11 0 19 4q43 278 115 349q30 30 66 30t54 -23t18 -60q0 -84 -57 -177.5t-126 -161.5q-8 -53 -8 -118t2.5 -123t5 -94t2.5 -50.5t-11 -28
t-30 -13.5q-29 0 -36.5 40.5t-7.5 128t11 226.5q-9 -2 -26 -2q-52 0 -93 39zM477 692q-21 0 -59 -104.5t-42 -153.5q40 47 76 121t36 116q0 21 -11 21z" />
    <glyph glyph-name="Z.alt" horiz-adv-x="623" 
d="M93 111q103 169 179 297t150 278q-68 -17 -128.5 -17t-92 2.5t-66.5 8.5t-56.5 19.5t-21.5 32.5q0 33 35 33q2 0 63.5 -13t120.5 -13t128 13t76 13q47 0 47 -39q0 -21 -33.5 -82t-107.5 -185.5t-112 -187.5q-86 -143 -105 -177q124 -39 196.5 -39t113 25.5t40.5 74.5
q0 29 -16.5 45.5t-38 16.5t-35.5 -15.5t-14 -32t4.5 -29t4.5 -15.5q0 -15 -18 -15t-34 21t-16 55t30.5 65.5t79 31.5t86 -35.5t37.5 -95.5q0 -75 -59.5 -121t-151.5 -46t-241 45q-29 -36 -62 -36t-48 16t-15 38t21 41t60 22z" />
    </font>
</defs>
</svg>
