<svg xmlns="http://www.w3.org/2000/svg">
<defs>
<font id="TofinoPersonal-ThinItalic" horiz-adv-x="0" >
  <font-face 
    font-family="Tofino Personal Thin Italic"
    font-weight="405"
    font-style="italic"
    font-stretch="normal"
    units-per-em="1000"
    panose-1="2 0 0 0 0 0 0 0 0 0"
    ascent="760"
    descent="-240"
    x-height="524"
    cap-height="702"
    bbox="-675 -240 1029.67 1038"
    underline-thickness="50"
    underline-position="-225"
    unicode-range="U+000D-FB04"
  />
<missing-glyph horiz-adv-x="691" 
d="M362 540q8 -13 55 -18q1 -1 4 -1q1 1 1 3l4 9q-42 39 -54 36q-5 -2 -9 -14q-3 -10 -1 -15zM464 495l5 -1q15 0 17 11q2 9 -1 13q-3 5 -12 8q-1 1 -5 1q-14 0 -17 -11q-1 -5 2 -12q4 -8 11 -9zM582 486q4 2 2 16q0 10 -5 15q-12 8 -57 -7q-2 -1 -5 -1q0 -9 -2 -13
q2 -1 3 -1q56 -15 64 -9zM306 239q4 16 -3 25l-2 3h-1q-24 12 -85 12q-22 0 -38.5 -2.5t-22 -5.5t-5.5 -4q-3 -25 6 -50t31 -29q15 -3 38 -3q38 0 54 6q17 11 28 48zM485 188q22 2 30.5 27t6.5 52q-12 12 -67 12q-60 0 -84 -12q-1 0 -1 -2l-3 -1q-7 -8 -2 -25q3 -33 28 -48
q14 -6 52 -6q7 0 40 3zM511 465q77 -80 77 -194q0 -112 -74.5 -191t-178.5 -79t-177.5 79t-73.5 191q0 119 80 197q-27 39 -10 82q16 40 67 66t114 26q65 0 118 -27t70 -70q0 -1 1 -3q52 15 72 -1q18 -13 19 -38q2 -27 -14 -41q-13 -9 -31 -9q-17 0 -59 12zM241 439
q22 -44 102 -78t207 -28q-21 82 -85 132q-7 0 -10 1q-20 7 -28 23h-1q-2 1 -6.5 1.5t-6.5 0.5q-45 6 -62 18q-6 1 -16 1q-47 0 -88 -19q-20 -24 -6 -52zM182 539q-10 -25 5 -50q65 51 144 52q-1 11 3 26q13 28 32 32q29 6 80 -43l3 -2q12 4 19 4q1 0 13 -3q-22 26 -63 41
t-83 15q-52 0 -96 -21t-57 -51zM205 465q-69 -57 -85 -143q37 -1 78 12.5t66 34.5q-36 27 -50 57q-9 20 -9 39zM133 291l10 -9q20 11 72 11q67 0 91 -12q30 -15 59 0q24 12 90 12q54 0 72 -11q10 15 18 21q-10 -1 -31 -1q-133 0 -223 50q-28 -25 -71.5 -42t-86.5 -19z
M335 31q92 0 157 70.5t65 169.5q0 14 -1 21q-10 -9 -20 -23v-1q4 -35 -9 -64t-41 -32q-20 -2 -41 -2q-43 0 -60 9q-27 15 -36 57q-1 3 -1 6q-3 13 -14 13q-8 0 -11 -13q-2 -1 -2 -6q-9 -43 -37 -57q-14 -9 -60 -9q-21 0 -39 2q-28 3 -41.5 32t-9.5 64v1l-19 18v-16

<glyph glyph-name="f_f" unicode="ff" horiz-adv-x="530" 
d="M570 768h40l-4 -20h-40q-72 0 -105 -41.5t-51 -130.5l-10 -46h153l-4 -19h-153l-106 -511h-20l106 511h-245l-106 -511h-20l106 511h-72l4 19h72l10 46q20 99 57.5 145.5t122.5 46.5h40l-4 -20h-40q-72 0 -105 -41.5t-51 -130.5l-10 -46h245l10 46q20 99 57.5 145.5
t122.5 46.5z" />
    <glyph glyph-name="fi" unicode="fi" horiz-adv-x="461" 
d="M305 768h40l-4 -20h-40q-72 0 -105 -41.5t-51 -130.5l-10 -46h154l-4 -19h-154l-106 -511h-20l106 511h-72l4 19h72l10 46q20 99 57.5 145.5t122.5 46.5zM402 650l23 109h21l-23 -109h-21zM267 0l110 530h20l-110 -530h-20z" />
    <glyph glyph-name="fl" unicode="fl" horiz-adv-x="467" 
d="M305 768h40l-4 -20h-40q-72 0 -105 -41.5t-51 -130.5l-10 -46h154l-4 -19h-154l-106 -511h-20l106 511h-72l4 19h72l10 46q20 99 57.5 145.5t122.5 46.5zM270 0l158 760h20l-158 -760h-20z" />
    <glyph glyph-name="f_f_i" unicode="ffi" horiz-adv-x="733" 
d="M549 511h-153l-106 -511h-20l106 511h-245l-106 -511h-20l106 511h-72l4 19h72l10 46q20 99 57.5 145.5t122.5 46.5h40l-4 -20h-40q-72 0 -105 -41.5t-51 -130.5l-10 -46h245l10 46q20 99 57.5 145.5t122.5 46.5h40l-4 -20h-40q-72 0 -105 -41.5t-51 -130.5l-10 -46h153z
M697 768h21l-27 -128h-21zM537 0l110 530h20l-110 -530h-20z" />
    <glyph glyph-name="f_f_l" unicode="ffl" horiz-adv-x="727" 
d="M549 511h-153l-106 -511h-20l106 511h-245l-106 -511h-20l106 511h-72l4 19h72l10 46q20 99 57.5 145.5t122.5 46.5h40l-4 -20h-40q-72 0 -105 -41.5t-51 -130.5l-10 -46h245l10 46q20 99 57.5 145.5t122.5 46.5h40l-4 -20h-40q-72 0 -105 -41.5t-51 -130.5l-10 -46h153z
M688 760h20l-158 -760h-20z" />
    <glyph glyph-name=".notdef" horiz-adv-x="691" 
d="M362 540q8 -13 55 -18q1 -1 4 -1q1 1 1 3l4 9q-42 39 -54 36q-5 -2 -9 -14q-3 -10 -1 -15zM464 495l5 -1q15 0 17 11q2 9 -1 13q-3 5 -12 8q-1 1 -5 1q-14 0 -17 -11q-1 -5 2 -12q4 -8 11 -9zM582 486q4 2 2 16q0 10 -5 15q-12 8 -57 -7q-2 -1 -5 -1q0 -9 -2 -13
q2 -1 3 -1q56 -15 64 -9zM306 239q4 16 -3 25l-2 3h-1q-24 12 -85 12q-22 0 -38.5 -2.5t-22 -5.5t-5.5 -4q-3 -25 6 -50t31 -29q15 -3 38 -3q38 0 54 6q17 11 28 48zM485 188q22 2 30.5 27t6.5 52q-12 12 -67 12q-60 0 -84 -12q-1 0 -1 -2l-3 -1q-7 -8 -2 -25q3 -33 28 -48
q14 -6 52 -6q7 0 40 3zM511 465q77 -80 77 -194q0 -112 -74.5 -191t-178.5 -79t-177.5 79t-73.5 191q0 119 80 197q-27 39 -10 82q16 40 67 66t114 26q65 0 118 -27t70 -70q0 -1 1 -3q52 15 72 -1q18 -13 19 -38q2 -27 -14 -41q-13 -9 -31 -9q-17 0 -59 12zM241 439
q22 -44 102 -78t207 -28q-21 82 -85 132q-7 0 -10 1q-20 7 -28 23h-1q-2 1 -6.5 1.5t-6.5 0.5q-45 6 -62 18q-6 1 -16 1q-47 0 -88 -19q-20 -24 -6 -52zM182 539q-10 -25 5 -50q65 51 144 52q-1 11 3 26q13 28 32 32q29 6 80 -43l3 -2q12 4 19 4q1 0 13 -3q-22 26 -63 41
t-83 15q-52 0 -96 -21t-57 -51zM205 465q-69 -57 -85 -143q37 -1 78 12.5t66 34.5q-36 27 -50 57q-9 20 -9 39zM133 291l10 -9q20 11 72 11q67 0 91 -12q30 -15 59 0q24 12 90 12q54 0 72 -11q10 15 18 21q-10 -1 -31 -1q-133 0 -223 50q-28 -25 -71.5 -42t-86.5 -19z
M335 31q92 0 157 70.5t65 169.5q0 14 -1 21q-10 -9 -20 -23v-1q4 -35 -9 -64t-41 -32q-20 -2 -41 -2q-43 0 -60 9q-27 15 -36 57q-1 3 -1 6q-3 13 -14 13q-8 0 -11 -13q-2 -1 -2 -6q-9 -43 -37 -57q-14 -9 -60 -9q-21 0 -39 2q-28 3 -41.5 32t-9.5 64v1l-19 18v-16
q0 -99 64.5 -169.5t155.5 -70.5zM403 106q0 -20 -20 -33.5t-49 -13.5t-49 13.5t-20 33.5q0 19 20.5 32.5t48.5 13.5t48.5 -13.5t20.5 -32.5zM249 269l-4 -18q14 -8 14 -26q0 -13 -9 -22t-22 -9q-12 0 -21.5 9t-9.5 22q0 6 2 10l-14 11q-4 3 0 7q2 2 6 0l12 -11l3 6l-7 14
q-2 1 -1.5 3t2.5 3q4 2 6 -3l8 -12q0 1 2 1t3 1l-2 16q0 5 5 5q3 0 5 -4l1 -16q2 0 4.5 -0.5t3.5 -0.5l4 17q2 4 6 4q4 -3 3 -7zM491 253q1 -4 -1 -7l-13 -13q0 -1 0.5 -3.5t0.5 -4.5q0 -13 -9.5 -22t-22.5 -9q-12 0 -21 9t-9 22q0 18 15 26l-5 18q0 4 4 7q5 0 5 -4l4 -17
q2 1 7 1l3 16q0 4 5 4q4 0 4 -5l-3 -16l7 -2l7 12q3 5 5 3q2 -1 3 -3t0 -3l-9 -14q4 -3 4 -6l13 11q1 1 3 1t3 -1z" />
    <glyph glyph-name=".null" 
 />
    <glyph glyph-name="nonmarkingreturn" horiz-adv-x="333" 
 />
    <glyph glyph-name="NULL" 
 />
    <glyph glyph-name="NULL" 
 />
    <glyph glyph-name="CR" unicode="&#xd;" horiz-adv-x="220" 
 />
    <glyph glyph-name="space" unicode=" " horiz-adv-x="220" 
 />
    <glyph glyph-name="exclam" unicode="!" horiz-adv-x="190" 
d="M36 150l115 552h20l-115 -552h-20zM5 0l19 90h20l-19 -90h-20z" />
    <glyph glyph-name="quotedbl" unicode="&#x22;" horiz-adv-x="197" 
d="M94 610l26 150h26l-36 -150h-16zM168 610l26 150h26l-36 -150h-16z" />
    <glyph glyph-name="numbersign" unicode="#" horiz-adv-x="668" 
d="M603 480h-110l-97 -240h111l-4 -20h-115l-89 -220h-20l89 220h-215l-89 -220h-20l89 220h-108l4 20h112l97 240h-113l4 20h117l81 202h20l-81 -202h215l81 202h20l-81 -202h106zM376 240l97 240h-215l-97 -240h215z" />
    <glyph glyph-name="dollar" unicode="$" horiz-adv-x="532" 
d="M342 770l-15 -73q102 -2 138.5 -49t19.5 -124h-21q33 150 -141 153l-61 -291q21 -4 33.5 -7t32 -8t31 -10t26.5 -13.5t23.5 -17.5t17 -22t11.5 -28.5t3 -35.5t-5 -44q-16 -75 -82 -118.5t-163 -45.5l-20 -94h-19l20 94q-200 6 -161 196h21q-17 -83 15.5 -128t128.5 -48
l66 315q-19 4 -31 7t-29.5 8t-28.5 9.5t-24.5 12t-21 16t-15.5 20t-10.5 25t-2.5 31.5t4 38q15 71 73.5 114t153.5 45l15 73h18zM104 538q-8 -38 -0.5 -65t31.5 -43t47.5 -24t62.5 -16l60 287q-87 -3 -138 -42t-63 -97zM413 200q4 20 4.5 37.5t-2.5 31t-10 25.5t-15 20.5
t-20.5 16t-24 12.5t-28 9.5t-29 7.5t-30.5 7l-64 -311q90 1 147.5 40.5t71.5 103.5z" />
    <glyph glyph-name="percent" unicode="%" horiz-adv-x="673" 
d="M169 381q-137 0 -103 161q34 165 171 165t103 -165q-34 -161 -171 -161zM173 399q115 0 145 143q15 74 -3 110.5t-82 36.5q-113 0 -145 -147q-16 -73 2 -108t83 -35zM-1 0l597 702h28l-597 -702h-28zM381 -5q-138 0 -104 161q34 165 171 165t103 -165q-34 -161 -170 -161
zM385 13q113 0 144 143q15 73 -3 110t-82 37q-113 0 -145 -147q-16 -73 2.5 -108t83.5 -35z" />
    <glyph glyph-name="ampersand" unicode="&#x26;" horiz-adv-x="680" 
d="M544 342h23q-35 -167 -92 -250l64 -92h-28l-52 73q-42 -49 -98.5 -69t-136.5 -20q-230 0 -186 212q12 55 37.5 96.5t57 63.5t54.5 32t44 15q-25 39 -31.5 70.5t2.5 85.5q32 159 200 159q157 0 126 -158h-21q13 69 -10.5 103.5t-98.5 34.5q-146 0 -174 -139
q-5 -25 -4.5 -47t3 -36.5t15.5 -39t20.5 -35.5t32 -45t35.5 -50l135 -194q52 79 83 230zM229 4q145 0 217 88q-55 78 -148 214q-11 17 -30 43.5t-26 37.5q-20 -4 -41 -13.5t-51 -29.5t-54.5 -58.5t-35.5 -89.5q-20 -94 16.5 -143t152.5 -49z" />
    <glyph glyph-name="quotesingle" unicode="'" horiz-adv-x="123" 
d="M94 610l26 150h26l-36 -150h-16z" />
    <glyph glyph-name="parenleft" unicode="(" horiz-adv-x="239" 
d="M252 760h22l-14 -22q-15 -23 -40 -67.5t-51.5 -101t-53.5 -135.5t-44 -158q-27 -149 -21.5 -254t25.5 -162l20 -58h-22q-3 7 -8.5 21t-17 61t-17 98.5t-2 131.5t20.5 162t44.5 162.5t54 136t50.5 99t39 64.5z" />
    <glyph glyph-name="parenright" unicode=")" horiz-adv-x="240" 
d="M110 760h21q3 -8 6.5 -22.5t11 -63t10 -101t-3.5 -134t-23 -163.5t-46 -161.5t-58 -133.5t-56 -96t-44 -63l-16 -20h-23q7 8 18 22.5t42 62.5t58 100t57 131t47 158q27 144 26.5 251.5t-13.5 170.5z" />
    <glyph glyph-name="asterisk" unicode="*" horiz-adv-x="322" 
d="M78 646l11 19l79 -31l18 91h20l-20 -91l91 31l3 -19l-91 -28l46 -72l-19 -15l-45 76l-77 -76l-13 15l76 72z" />
    <glyph glyph-name="plus" unicode="+" horiz-adv-x="470" 
d="M398 315l-4 -19h-175l-37 -175h-20l37 175h-175l4 19h175l37 175h20l-37 -175h175z" />
    <glyph glyph-name="comma" unicode="," horiz-adv-x="158" 
d="M-58 -81h-20q29 40 55 101q12 27 19.5 49.5t9.5 31.5l1 9h24q-3 -31 -30 -90q-12 -26 -26.5 -51.5t-23.5 -37.5z" />
    <glyph glyph-name="hyphen" unicode="-" horiz-adv-x="370" 
d="M57 310l4 20h213l-4 -20h-213z" />
    <glyph glyph-name="period" unicode="." horiz-adv-x="141" 
d="M-27 0l23 110h23l-22 -110h-24z" />
    <glyph glyph-name="slash" unicode="/" horiz-adv-x="424" 
d="M-36 -40l479 840h25l-479 -840h-25z" />
    <glyph glyph-name="zero" unicode="0" horiz-adv-x="610" 
d="M218 -10q-134 0 -171 88t4 270q39 188 110.5 274t205.5 86q133 0 170.5 -89t-4.5 -271q-39 -188 -110.5 -273t-204.5 -85zM222 11q114 0 182.5 77.5t106.5 259.5q39 185 5.5 262.5t-153.5 77.5q-114 0 -183 -78.5t-107 -261.5q-39 -185 -5.5 -261t154.5 -76z" />
    <glyph glyph-name="one" unicode="1" horiz-adv-x="217" 
d="M11 611l5 23l149 68l-5 -22zM19 0l143 688l3 14h21l-146 -702h-21z" />
    <glyph glyph-name="two" unicode="2" horiz-adv-x="485" 
d="M-56 6l6 30q120 90 252 197q60 48 90 74.5t64.5 63t52 71.5t26.5 77q35 169 -146 169q-82 0 -140.5 -43.5t-74.5 -121.5h-21q17 86 81.5 135.5t158.5 49.5q95 0 138.5 -49.5t24.5 -138.5q-18 -84 -69 -144.5t-164 -152.5q-58 -48 -120.5 -97t-95.5 -74l-33 -25h394
l-5 -21h-419z" />
    <glyph glyph-name="three" unicode="3" horiz-adv-x="498" 
d="M500 691l-5 -20l-304 -231q21 3 46 3q110 0 155.5 -61.5t23.5 -164.5q-22 -107 -89.5 -167t-183.5 -60q-106 0 -150.5 53t-28.5 129h20q-15 -71 26 -116t137 -45q99 0 163 52.5t85 153.5q20 98 -21 152t-141 54q-18 0 -39.5 -2.5t-33.5 -4.5l-13 -3l4 20l309 238h-354
l5 20h389z" />
    <glyph glyph-name="four" unicode="4" horiz-adv-x="498" 
d="M454 699l-1 -1l-105 -505h85l-4 -20h-85l-36 -173h-20l36 173h-359l4 20l463 509h22l-1 -3h1zM328 193l99 476l-429 -476h330z" />
    <glyph glyph-name="five" unicode="5" horiz-adv-x="549" 
d="M519 671h-319l-107 -287q66 69 191 69q108 0 155 -61t24 -170q-23 -110 -92.5 -171t-182.5 -61t-161.5 53t-32.5 129h21q-15 -71 29 -116t148 -45q96 0 162 54t87 157q21 104 -21.5 157.5t-139.5 53.5q-61 0 -111.5 -21.5t-70.5 -42.5l-19 -21h-21l121 323l8 20h337z" />
    <glyph glyph-name="six" unicode="6" horiz-adv-x="594" 
d="M364 711q45 0 78.5 -12t51 -31t29 -43t10.5 -48.5t-4 -46.5h-22q8 28 3 56.5t-19 52t-48 38t-83 14.5q-105 0 -173.5 -82t-114.5 -288q87 140 250 140q222 0 172 -236q-49 -235 -280 -235q-122 0 -162 76.5t-6 241.5q45 217 119.5 310t198.5 93zM318 441q-55 0 -103 -20
t-80 -52t-47 -52t-25 -38q-27 -144 10.5 -206t144.5 -62q209 0 254 214q23 109 -14.5 162.5t-139.5 53.5z" />
    <glyph glyph-name="seven" unicode="7" horiz-adv-x="440" 
d="M64 0h-24q16 77 47.5 155.5t70 143t81 124.5t82 105t71.5 79t51 51l19 18h-399l5 20h429l-5 -20q-14 -12 -38.5 -35t-89 -95.5t-118 -147.5t-107 -184.5t-75.5 -213.5z" />
    <glyph glyph-name="eight" unicode="8" horiz-adv-x="580" 
d="M12 188q10 49 34 86.5t52.5 57t52.5 29t44 10.5q-36 2 -71 40t-20 110q39 190 248 190q208 0 169 -190q-15 -72 -65 -110t-89 -40q18 -1 38 -10t42 -30t28.5 -55.5t-1.5 -87.5q-41 -198 -272 -198t-190 198zM34 188q-19 -93 22.5 -135t149.5 -42q209 0 246 177
q18 89 -21.5 131t-151.5 42q-209 0 -245 -173zM126 521q-15 -71 20.5 -105.5t136.5 -34.5q187 0 216 140q18 88 -18 129t-133 41q-187 0 -222 -170z" />
    <glyph glyph-name="nine" unicode="9" horiz-adv-x="592" 
d="M352 711q125 0 162.5 -77.5t-0.5 -265.5q-44 -212 -115 -295t-197 -83q-47 0 -83.5 12t-56.5 31t-33.5 42.5t-14 47.5t2.5 46h22q-14 -63 25.5 -110.5t141.5 -47.5q71 0 119.5 26.5t90.5 103t72 211.5q-89 -137 -250 -137q-220 0 -167 259q50 237 281 237zM244 236
q43 0 83.5 14t67 32.5t50 43t34 40t17.5 28.5q32 167 -2.5 232t-145.5 65q-209 0 -255 -217q-50 -238 151 -238z" />
    <glyph glyph-name="colon" unicode=":" horiz-adv-x="180" 
d="M75 380l23 110h24l-24 -110h-23zM2 30l23 110h23l-22 -110h-24z" />
    <glyph glyph-name="semicolon" unicode=";" horiz-adv-x="187" 
d="M63 350l24 110h24l-24 -110h-24zM-52 -81h-20q29 40 55 101q12 27 19.5 49.5t9.5 31.5l1 9h24q-4 -31 -31 -90q-12 -26 -26.5 -51.5t-23.5 -37.5z" />
    <glyph glyph-name="less" unicode="&#x3c;" horiz-adv-x="524" 
d="M428 454l-4 -22l-347 -122l295 -120l-4 -20l-321 135l3 14z" />
    <glyph glyph-name="equal" unicode="=" horiz-adv-x="510" 
d="M66 355l4 19h350l-4 -19h-350zM39 226l4 19h350l-4 -19h-350z" />
    <glyph glyph-name="greater" unicode="&#x3e;" horiz-adv-x="525" 
d="M107 454l322 -135l-3 -14l-379 -135l4 22l347 121l-295 121z" />
    <glyph glyph-name="question" unicode="?" horiz-adv-x="457" 
d="M163 150h-20l10 46q10 45 28.5 77.5t40 49.5t45.5 35.5t45 35t39 48.5t27 75q17 85 -9.5 125.5t-103.5 40.5q-70 0 -118.5 -42t-64.5 -124h-21q39 185 208 185q86 0 118 -48t13 -137q-11 -53 -36 -90.5t-53 -58.5t-56 -40.5t-51 -52t-32 -79.5zM112 0l19 90h20l-19 -90
h-20z" />
    <glyph glyph-name="at" unicode="@" horiz-adv-x="811" 
d="M475 682q98 0 162 -32.5t90 -88t31 -129t-15 -155.5q-29 -138 -69 -195.5t-97 -58.5h-1q-87 1 -69 129q-63 -91 -166 -91q-91 0 -117 56.5t-5 160.5q22 106 72 164t141 58q54 0 84 -29.5t40 -72.5l4 19l16 71h20l-63 -298q-17 -74 -7 -111.5t54 -37.5q91 0 141 236
q80 387 -250 387q-170 0 -270.5 -105.5t-137.5 -281.5q-19 -81 -15 -149t29.5 -117t85.5 -76.5t152 -27.5q101 0 172 32l-6 -23q-81 -28 -171 -28q-96 0 -160 30t-91 82.5t-32.5 123.5t14.5 153q18 86 50.5 156t83.5 127.5t127.5 89.5t172.5 32zM345 80q54 0 99.5 33
t67.5 74q1 1 1 3l34 163q-2 48 -30 88.5t-89 40.5q-144 0 -187 -204q-23 -92 -0.5 -145t104.5 -53z" />
    <glyph glyph-name="A" unicode="A" horiz-adv-x="576" 
d="M469 0l-37 217h-349l-127 -217h-24l414 702h23l122 -702h-22zM95 237h333l-75 439z" />
    <glyph glyph-name="B" unicode="B" horiz-adv-x="621" 
d="M572 534q-15 -72 -50 -111t-118 -51q149 -27 116 -183q-10 -50 -25 -82.5t-44.5 -59.5t-78.5 -39t-122 -12h-245l148 710h245q113 0 151.5 -46t22.5 -126zM107 383l223 -1q103 -1 153.5 36.5t66.5 115.5t-20.5 115t-135.5 37h-224zM498 189q18 86 -21.5 129.5
t-150.5 43.5h-224l-72 -345l224 -1q113 -1 168.5 38t75.5 135z" />
    <glyph glyph-name="C" unicode="C" horiz-adv-x="629" 
d="M240 -16q-78 0 -126.5 25.5t-68 75.5t-19 114t18.5 151t44 151t66.5 114.5t100 76.5t137.5 26q121 0 168 -61.5t26 -173.5h-22q19 107 -22.5 161t-153.5 54q-131 0 -208.5 -87t-113.5 -261q-23 -113 -17.5 -190t53.5 -116.5t142 -39.5q99 0 167 52t94 150h22
q-58 -222 -288 -222z" />
    <glyph glyph-name="D" unicode="D" horiz-adv-x="641" 
d="M153 706h157q104 0 166 -23t87 -68t25.5 -111.5t-19.5 -153.5q-19 -94 -44.5 -155t-71 -108.5t-116.5 -69t-175 -21.5h-157zM547 350q26 118 16.5 193t-70 109.5t-187.5 34.5h-136l-140 -670l136 -1q176 -1 259.5 74.5t121.5 259.5z" />
    <glyph glyph-name="E" unicode="E" horiz-adv-x="529" 
d="M561 682h-393l-63 -303h343l-4 -20h-343l-71 -339h397l-4 -20h-418l146 702h414z" />
    <glyph glyph-name="F" unicode="F" horiz-adv-x="516" 
d="M562 682h-394l-65 -313h344l-4 -20h-344l-73 -349h-21l146 702h415z" />
    <glyph glyph-name="G" unicode="G" horiz-adv-x="638" 
d="M393 718q118 0 167.5 -63.5t29.5 -153.5h-22q18 85 -26.5 141t-152.5 56q-131 0 -208.5 -87.5t-113.5 -261.5q-23 -113 -17.5 -189.5t53.5 -116t142 -39.5q61 0 118 17t85.5 35t30.5 26l48 227h-169l5 20h189l-53 -255q-2 -9 -29.5 -29t-91 -40.5t-138.5 -20.5
q-103 0 -155.5 45.5t-57 127t17.5 192.5q18 87 44 151t66.5 115t100 77t137.5 26z" />
    <glyph glyph-name="H" unicode="H" horiz-adv-x="663" 
d="M611 702h21l-146 -702h-21l75 359h-439l-75 -359h-21l146 702h21l-67 -323h439z" />
    <glyph glyph-name="I" unicode="I" horiz-adv-x="203" 
d="M5 0l146 702h21l-146 -702h-21z" />
    <glyph glyph-name="J" unicode="J" horiz-adv-x="322" 
d="M-40 0h-46l4 21h46q113 0 157 47.5t71 180.5l93 453h21l-92 -453q-15 -74 -31 -117t-44.5 -75t-70.5 -44.5t-108 -12.5z" />
    <glyph glyph-name="K" unicode="K" horiz-adv-x="547" 
d="M591 702l-340 -311l195 -391h-23l-189 376l-160 -146l-48 -230h-21l146 702h21l-91 -439l478 439h32z" />
    <glyph glyph-name="L" unicode="L" horiz-adv-x="481" 
d="M30 19h354l-4 -19h-375l146 702h21z" />
    <glyph glyph-name="M" unicode="M" horiz-adv-x="777" 
d="M746 702l-148 -702h-22l142 674l-409 -676h-23l-120 680l-140 -678h-21l146 702h32l120 -674l408 674h35z" />
    <glyph glyph-name="N" unicode="N" horiz-adv-x="684" 
d="M631 702h22l-146 -702h-22l-315 667l-143 -667h-22l151 702h22l314 -667z" />
    <glyph glyph-name="O" unicode="O" horiz-adv-x="670" 
d="M245 -16q-79 0 -129 25.5t-70 75.5t-19.5 114t18.5 151q37 179 118.5 273.5t234.5 94.5q80 0 129.5 -26t69.5 -76.5t19.5 -114.5t-18.5 -151q-37 -179 -118 -272.5t-235 -93.5zM250 4q134 0 212 86t114 260q23 113 17 190.5t-54.5 117.5t-144.5 40q-134 0 -212.5 -87
t-114.5 -261q-37 -177 2.5 -261.5t180.5 -84.5z" />
    <glyph glyph-name="P" unicode="P" horiz-adv-x="600" 
d="M152 706h245q113 0 159.5 -47.5t21.5 -166.5t-91 -166.5t-179 -47.5h-224l-58 -278h-21zM556 492q8 36 8.5 65t-5 49t-17.5 34.5t-26 23.5t-35 14t-41.5 6.5t-46.5 1.5h-224l-81 -387l224 -1q43 0 76.5 7t68.5 26.5t60.5 60t38.5 100.5z" />
    <glyph glyph-name="Q" unicode="Q" horiz-adv-x="670" 
d="M596 350q-48 -230 -161 -311l97 -96l-18 -17l-97 101q-71 -43 -173 -43q-79 0 -128.5 25.5t-69.5 75.5t-19.5 114t18.5 151t44.5 151t67 114.5t101 76.5t139.5 26q80 0 129.5 -26t69 -76.5t19 -114.5t-18.5 -151zM249 4q134 0 211.5 86t113.5 260q23 113 17.5 190.5
t-54 117.5t-144.5 40q-134 0 -212 -87t-114 -261q-23 -113 -17 -190t54.5 -116.5t144.5 -39.5z" />
    <glyph glyph-name="R" unicode="R" horiz-adv-x="621" 
d="M152 706h245q113 0 160 -43.5t24 -155.5q-20 -95 -67 -139.5t-126 -54.5l99 -313h-24l-96 310q-34 -2 -53 -2h-224l-64 -308h-21zM558 507q7 34 7 61t-5 45.5t-17 32t-26 21t-35.5 12t-41.5 6t-47 1.5h-224l-75 -357l225 -1q34 0 59.5 3t56.5 13.5t53 29t41 52.5t29 81z
" />
    <glyph glyph-name="S" unicode="S" horiz-adv-x="603" 
d="M10 202h21q-41 -195 187 -198q108 -1 176.5 44t84.5 118q13 58 -4.5 95.5t-54.5 55t-83.5 28t-93.5 21t-84.5 27.5t-55 54t-5.5 95q17 83 82.5 130t180.5 46q120 -1 167 -53.5t29 -137.5h-21q3 23 4.5 46.5t-9.5 46t-29.5 39.5t-56 27.5t-88.5 11.5q-57 1 -101 -11.5
t-71 -35.5t-42.5 -50t-22.5 -59q-10 -47 3 -79.5t42.5 -47.5t68 -27t80.5 -17.5t80.5 -19.5t66.5 -33.5t40 -57.5t0 -94q-18 -87 -92.5 -135t-195.5 -47q-117 2 -171.5 55.5t-31.5 162.5z" />
    <glyph glyph-name="T" unicode="T" horiz-adv-x="523" 
d="M573 702l-4 -19h-241l-147 -683h-21l147 683h-241l4 19h503z" />
    <glyph glyph-name="U" unicode="U" horiz-adv-x="660" 
d="M239 -16q-104 0 -152 46t-47 127.5t23 192.5l74 352h21l-74 -352q-23 -113 -23 -190t43.5 -116.5t139.5 -39.5q131 0 199 84t105 262l74 352h22l-74 -352q-19 -90 -41 -151t-59 -113t-94.5 -77t-136.5 -25z" />
    <glyph glyph-name="V" unicode="V" horiz-adv-x="519" 
d="M549 702h25l-403 -702h-24l-112 702h22l106 -673z" />
    <glyph glyph-name="W" unicode="W" horiz-adv-x="878" 
d="M897 702h26l-353 -702h-24l-64 672l-334 -672h-23l-70 702h22l65 -667l332 667h25l65 -667z" />
    <glyph glyph-name="X" unicode="X" horiz-adv-x="574" 
d="M614 702l-326 -351l175 -351h-24l-167 334l-307 -334h-32l329 355l-173 347h24l165 -330l305 330h31z" />
    <glyph glyph-name="Y" unicode="Y" horiz-adv-x="510" 
d="M527 702h28l-320 -412l-61 -290h-22l61 290l-158 412h23l150 -383z" />
    <glyph glyph-name="Z" unicode="Z" horiz-adv-x="512" 
d="M546 697l-4 -19l-576 -654h444l-4 -19h-472l2 11l2 8l575 654h-409l4 19h438z" />
    <glyph glyph-name="bracketleft" unicode="[" horiz-adv-x="287" 
d="M325 740h-139l-191 -916h139l-4 -20h-159l199 956h159z" />
    <glyph glyph-name="backslash" unicode="\" horiz-adv-x="363" 
d="M209 -40h-22l-128 840h22z" />
    <glyph glyph-name="bracketright" unicode="]" horiz-adv-x="286" 
d="M260 760l-199 -956h-159l4 20h139l191 916h-139l4 20h159z" />
    <glyph glyph-name="asciicircum" unicode="^" horiz-adv-x="347" 
d="M300 472h-22l-58 232l-156 -232h-23l176 260h14z" />
    <glyph glyph-name="underscore" unicode="_" horiz-adv-x="545" 
d="M-8 0l4 20h389l-4 -20h-389z" />
    <glyph glyph-name="grave" unicode="`" horiz-adv-x="212" 
d="M196 640h-20l-46 120h27z" />
    <glyph glyph-name="a" unicode="a" horiz-adv-x="524" 
d="M290 538q53 0 86.5 -15.5t48 -33t14.5 -60t-4 -64.5t-16 -78q-3 -16 -5 -24l-29 -134l-15 -128h-19l13 102q-64 -112 -229 -112q-92 0 -123.5 37.5t-16.5 112.5q5 25 14.5 44.5t19 34.5t28 26t31.5 18.5t40.5 12.5t43 7.5t51 3.5t53 1.5t60.5 0t63 -0.5v1q23 118 17 156
q-10 57 -79 69q-22 4 -51 4q-51 0 -89.5 -14t-60.5 -36.5t-33.5 -44.5t-16.5 -46h-20q35 160 224 160zM139 10q84 0 146 38t85 98l25 124q-23 0 -61.5 0.5t-58 0.5t-51 -1t-47.5 -3t-40 -6t-36.5 -10.5t-28.5 -16.5t-25 -23t-17.5 -30.5t-12.5 -39.5q-13 -66 12 -98.5
t110 -32.5z" />
    <glyph glyph-name="b" unicode="b" horiz-adv-x="570" 
d="M342 538q103 0 134.5 -74t5.5 -202q-56 -270 -253 -270q-148 0 -173 120l-32 -112h-19l37 132l131 628h20l-69 -328q30 38 86.5 72t131.5 34zM460 262q54 257 -122 257q-42 0 -81.5 -15t-68.5 -38.5t-44.5 -40t-27.5 -32.5l-49 -237q0 -55 39 -100t127 -45q86 0 144 65.5
t83 185.5z" />
    <glyph glyph-name="c" unicode="c" horiz-adv-x="516" 
d="M177 -8q-114 0 -145.5 70.5t-5.5 201.5q26 129 88.5 201.5t176.5 72.5q98 0 138 -50t22 -137h-21q17 81 -19 124.5t-124 43.5q-185 0 -239 -255q-30 -120 -0.5 -186.5t133.5 -66.5q80 0 136.5 40t70.5 107h22q-15 -75 -76 -120.5t-157 -45.5z" />
    <glyph glyph-name="d" unicode="d" horiz-adv-x="561" 
d="M522 760h20l-130 -628l-18 -132h-19l15 113q-76 -121 -224 -121q-196 0 -141 270q26 128 89 202t166 74q41 0 73.5 -12.5t52 -33t30 -37.5t16.5 -34zM170 11q86 0 146 48t82 103l46 220q-3 13 -7 26t-16.5 34.5t-29.5 37t-47.5 27.5t-67.5 12q-84 0 -144 -68.5
t-85 -188.5q-52 -251 123 -251z" />
    <glyph glyph-name="e" unicode="e" horiz-adv-x="532" 
d="M295 538q102 0 144 -58.5t15 -187.5h-398l-7 -31q-9 -45 -12.5 -78t1 -67.5t20 -56t47.5 -35.5t81 -14q92 0 146.5 48t64.5 94h23q-3 -17 -15 -39t-37 -52t-74 -50t-112 -20q-113 0 -148.5 66t-6.5 205q29 140 92.5 208t175.5 68zM61 311h375q18 99 -14 153t-131 54
q-168 0 -230 -207z" />
    <glyph glyph-name="f" unicode="f" horiz-adv-x="265" 
d="M305 768h40l-4 -20h-40q-72 0 -105 -41.5t-51 -130.5l-10 -46h154l-4 -19h-154l-106 -511h-20l106 511h-72l4 19h72l10 46q20 99 57.5 145.5t122.5 46.5z" />
    <glyph glyph-name="g" unicode="g" horiz-adv-x="561" 
d="M482 530h19l-35 -126l-84 -404q-9 -44 -18 -73t-27.5 -63.5t-44 -55t-67.5 -34.5t-98 -14q-41 0 -71 10t-46 26t-25.5 35.5t-11 39.5t-1 36t3.5 26l2 10l20 1q-1 -3 -2.5 -9t-3 -23.5t0 -33t9.5 -34.5t22.5 -32.5t42 -23t64.5 -9.5q61 0 103.5 17t67.5 51.5t37 68
t23 84.5l22 106q-77 -114 -219 -114q-196 0 -141 270q26 128 89 202t166 74q41 0 74.5 -12t53 -30.5t30.5 -35t16 -31.5zM169 11q83 0 142 45t83 99l50 241q-4 17 -13 34t-27 39t-51.5 36t-77.5 14q-84 0 -144 -68.5t-85 -188.5q-52 -251 123 -251z" />
    <glyph glyph-name="h" unicode="h" horiz-adv-x="550" 
d="M324 538q92 0 124 -50t7 -174l-65 -314h-20l65 314q22 109 -1.5 157t-113.5 48q-68 0 -124 -44t-92 -97l-79 -378h-20l158 760h20l-71 -342q35 47 89 83.5t123 36.5z" />
    <glyph glyph-name="i" unicode="i" horiz-adv-x="196" 
d="M137 650l23 109h21l-23 -109h-21zM2 0l110 530h20l-110 -530h-20z" />
    <glyph glyph-name="j" unicode="j" horiz-adv-x="206" 
d="M147 650l23 109h21l-23 -109h-21zM-139 -166l4 20q35 0 58.5 7t37.5 16t25 35.5t16 46t15 67.5l104 504h21l-105 -504q-7 -36 -12 -55t-12.5 -43.5t-15.5 -36t-20 -25t-28 -19t-37.5 -9.5t-50.5 -4z" />
    <glyph glyph-name="k" unicode="k" horiz-adv-x="457" 
d="M445 530l-240 -203l161 -327h-23l-154 313l-120 -102l-44 -211h-20l158 760h20l-108 -519l338 289h32z" />
    <glyph glyph-name="l" unicode="l" horiz-adv-x="202" 
d="M5 0l158 760h20l-158 -760h-20z" />
    <glyph glyph-name="m" unicode="m" horiz-adv-x="877" 
d="M657 538q89 0 119.5 -50t5.5 -174l-65 -314h-20l65 314q25 104 1 154.5t-110 50.5q-65 0 -119.5 -44t-90.5 -96q-4 -34 -10 -65l-65 -314h-20l65 314q25 104 1.5 154.5t-108.5 50.5q-45 0 -91 -27.5t-71.5 -55.5t-46.5 -59l-78 -377h-20l82 395l18 135h19l-16 -118
q91 126 208 126q69 0 102 -30t32 -100q35 50 89.5 90t123.5 40z" />
    <glyph glyph-name="n" unicode="n" horiz-adv-x="544" 
d="M318 538q92 0 124 -50t7 -174l-65 -314h-20l65 314q25 104 0 154.5t-115 50.5q-48 0 -96 -27.5t-74 -55.5t-48 -59l-77 -377h-20l82 395l18 135h19l-16 -118q35 49 90 87.5t126 38.5z" />
    <glyph glyph-name="o" unicode="o" horiz-adv-x="543" 
d="M184 -9q-62 0 -101 19.5t-54.5 57t-15 84.5t13.5 111q28 133 89.5 204t180.5 72q62 0 101 -19.5t54 -58.5t15 -86.5t-14 -111.5q-28 -132 -89 -202t-180 -70zM188 10q101 0 159 64t84 189q16 80 13.5 137t-39.5 88.5t-111 31.5q-102 0 -160.5 -66t-84.5 -191
q-16 -80 -12.5 -136t40.5 -86.5t111 -30.5z" />
    <glyph glyph-name="p" unicode="p" horiz-adv-x="560" 
d="M333 538q196 0 139 -276q-56 -270 -253 -270q-145 0 -172 117l-72 -349h-20l134 644l16 126h19l-14 -112q16 23 41.5 47t76.5 48.5t105 24.5zM450 262q54 257 -122 257q-41 0 -80 -15.5t-68.5 -41t-46 -43t-29.5 -35.5l-47 -226q0 -19 4 -38t16 -39t29.5 -35t48 -25
t68.5 -10q85 0 143.5 65.5t83.5 185.5z" />
    <glyph glyph-name="q" unicode="q" horiz-adv-x="551" 
d="M484 530h19l-31 -102l-139 -668h-20l72 346q-75 -114 -219 -114q-196 0 -141 270q26 128 89 202t166 74q74 0 116.5 -34.5t56.5 -72.5zM170 11q83 0 142 45t83 99l50 241q-4 17 -13 34t-27 39t-51.5 36t-77.5 14q-84 0 -144 -68.5t-85 -188.5q-52 -251 123 -251z" />
    <glyph glyph-name="r" unicode="r" horiz-adv-x="315" 
d="M118 530l-18 -132q9 19 23.5 38.5t40.5 44.5t66.5 41t88.5 16l-4 -18q-42 0 -80 -17t-61.5 -39t-44 -51t-27.5 -43.5t-12 -26.5l-71 -343h-20l79 384l21 146h19z" />
    <glyph glyph-name="s" unicode="s" horiz-adv-x="486" 
d="M-10 157h20q-15 -71 20 -107.5t129 -37.5q177 -3 204 120q8 40 -6.5 65.5t-44 38t-66.5 20t-74.5 15.5t-67 21t-44.5 40.5t-6 69.5q13 65 68 101t151 35q181 -3 149 -156h-20q14 65 -12.5 100.5t-120.5 36.5q-90 1 -137 -33t-57 -84q-8 -37 7.5 -61t45.5 -35t67.5 -18.5
t74.5 -16.5t66.5 -23t43.5 -43t5 -73q-30 -143 -230 -140q-96 2 -139.5 42.5t-25.5 122.5z" />
    <glyph glyph-name="t" unicode="t" horiz-adv-x="280" 
d="M135 511l-68 -326q-6 -28 -8.5 -44t-4 -38.5t3 -34.5t14 -24.5t27.5 -18t45 -5.5h40l-4 -20h-40q-58 0 -83.5 26t-22 67t12.5 92l68 326h-66l4 19h66l34 163l22 7l-36 -170h148l-4 -19h-148z" />
    <glyph glyph-name="u" unicode="u" horiz-adv-x="577" 
d="M469 530h20l-80 -384l-20 -146h-19l18 137q-11 -18 -28.5 -39t-45.5 -47t-68 -42.5t-83 -16.5q-93 0 -125 50t-6 174l65 314h20l-65 -314q-25 -104 0 -154.5t115 -50.5q35 0 70 15.5t59 34.5t48 46.5t33.5 40.5t17.5 27z" />
    <glyph glyph-name="v" unicode="v" horiz-adv-x="447" 
d="M447 530h24l-317 -530h-32l-84 530h21l82 -510z" />
    <glyph glyph-name="w" unicode="w" horiz-adv-x="703" 
d="M693 530h24l-268 -530h-32l-52 494l-249 -494h-32l-56 530h21l54 -510l257 510h23l53 -510z" />
    <glyph glyph-name="x" unicode="x" horiz-adv-x="432" 
d="M446 530l-248 -265l131 -265h-24l-123 248l-228 -248h-30l248 268l-129 262h23l122 -245l228 245h30z" />
    <glyph glyph-name="y" unicode="y" horiz-adv-x="424" 
d="M423 530h25l-428 -748h-24l124 218h-6l-97 530h23l92 -511z" />
    <glyph glyph-name="z" unicode="z" horiz-adv-x="387" 
d="M392 524l-4 -18l-428 -482l328 1l-4 -19h-354l4 18l427 482l-317 -1l4 19h344z" />
    <glyph glyph-name="braceleft" unicode="{" horiz-adv-x="347" 
d="M390 762l-4 -20q-83 0 -114 -25t-45 -93l-56 -272q-5 -24 -17.5 -40t-21 -20t-14.5 -5l6 -2t8.5 -5.5t8.5 -11.5t4.5 -18.5t-2.5 -27.5l-56 -271q-10 -43 -8 -69t28.5 -37.5t89.5 -11.5l-4 -20q-69 0 -99.5 13.5t-34.5 44t8 80.5l56 271q6 32 -7.5 44t-65.5 12l4 20
q49 0 69.5 11.5t27.5 42.5l56 272q12 55 26.5 81.5t51 41.5t105.5 15z" />
    <glyph glyph-name="bar" unicode="|" horiz-adv-x="340" 
d="M19 -196l216 1016h20l-216 -1016h-20z" />
    <glyph glyph-name="braceright" unicode="}" horiz-adv-x="347" 
d="M-96 -187l4 20q83 0 114 25t45 93l57 272q11 53 53 65q-38 8 -26 65l56 271q10 43 8.5 69t-28 37.5t-89.5 11.5l4 20q69 0 99 -13.5t33.5 -44t-7.5 -80.5l-56 -271q-7 -32 7 -44t66 -12l-3 -20q-50 0 -70.5 -11.5t-26.5 -42.5l-57 -272q-12 -55 -26.5 -81.5t-51 -41.5
t-105.5 -15z" />
    <glyph glyph-name="asciitilde" unicode="~" horiz-adv-x="478" 
d="M381 334h19q-5 -23 -31.5 -48t-72.5 -25q-47 0 -90 27.5t-80 27.5q-34 0 -56 -19.5t-25 -35.5h-19q6 23 32 48t72 25q47 0 90 -27.5t80 -27.5q34 0 56 19.5t25 35.5z" />
    <glyph glyph-name="uni00A0" unicode="&#xa0;" horiz-adv-x="220" 
 />
    <glyph glyph-name="exclamdown" unicode="&#xa1;" horiz-adv-x="179" 
d="M82 440l19 90h20l-19 -90h-20zM-45 -172l116 552h20l-116 -552h-20z" />
    <glyph glyph-name="cent" unicode="&#xa2;" horiz-adv-x="516" 
d="M319 710l-19 -92q94 -2 131.5 -51.5t19.5 -135.5h-21q17 79 -16.5 123t-117.5 46l-106 -509q76 2 130.5 42t68.5 105h22q-16 -73 -74.5 -118.5t-150.5 -47.5l-19 -92h-20l19 92q-73 3 -110.5 38.5t-41 95t11.5 138.5q26 126 86 198t168 76l19 92h20zM47 344
q-28 -117 -0.5 -183t123.5 -70l106 509q-177 -8 -229 -256z" />
    <glyph glyph-name="sterling" unicode="&#xa3;" horiz-adv-x="524" 
d="M373 708q81 0 121.5 -50.5t23.5 -134.5h-21q16 79 -18 122t-110 43q-68 0 -124 -44.5t-72 -124.5q-7 -35 -8.5 -69.5t0 -79.5t0.5 -70h162l-4 -19h-159q-4 -63 -14 -108q-24 -116 -118 -156h371l-4 -21h-419l4 21q5 1 13 3t29.5 13t39.5 26.5t36.5 45.5t26.5 68
q10 46 14 108h-103l4 19h99q1 24 -0.5 68.5t0 79.5t9.5 72q18 88 79 138t142 50z" />
    <glyph glyph-name="currency" unicode="&#xa4;" horiz-adv-x="599" 
d="M523 82l-14 -14l-79 79q-56 -56 -161 -56t-161 56l-79 -79l-15 14l81 80q-43 58 -43 161q0 101 40 158l-79 79l14 15l77 -78q57 62 165 62q102 0 157 -53l78 77l14 -14l-78 -78q46 -61 46 -168q0 -104 -43 -160zM269 110q196 0 196 213q0 217 -196 217t-196 -217
q0 -213 196 -213z" />
    <glyph glyph-name="yen" unicode="&#xa5;" horiz-adv-x="456" 
d="M501 702l-288 -362h92l-4 -19h-103l-1 -1l-17 -80h104l-4 -19h-104l-46 -221h-22l46 221h-108l4 19h108l17 80v1h-108l4 19h96l-147 362h23l147 -355l285 355h26z" />
    <glyph glyph-name="brokenbar" unicode="&#xa6;" horiz-adv-x="340" 
d="M145 395l90 425h20l-90 -425h-20zM133 245l-90 -425h-20l90 425h20z" />
    <glyph glyph-name="section" unicode="&#xa7;" horiz-adv-x="521" 
d="M322 768q101 0 136 -37.5t19 -113.5h-20q7 27 5 51t-13 42t-44 28.5t-87 10.5q-166 0 -190 -117q-8 -37 7.5 -61t45.5 -35.5t68 -19t75.5 -16t67 -22.5t43.5 -43t5 -73q-7 -35 -27 -62.5t-35 -39t-30 -18.5q54 -35 38 -110q-30 -140 -230 -140q-102 0 -142.5 39
t-23.5 121h20q-14 -71 19 -105.5t131 -34.5q90 0 141.5 32.5t62.5 87.5q9 45 -12 73t-60 37.5t-84 20t-84 21t-60 40.5t-12 78q11 55 38.5 85.5t52.5 41.5q-52 33 -37 103q28 136 216 136zM417 362q10 47 -15.5 75.5t-62.5 37t-92.5 20.5t-83.5 24q-27 -12 -53.5 -40.5
t-35.5 -76.5q-7 -36 7 -59.5t44.5 -35.5t63.5 -18.5t74 -15.5t66 -21q73 38 88 110z" />
    <glyph glyph-name="dieresis" unicode="&#xa8;" horiz-adv-x="300" 
d="M105 640l23 109h21l-23 -109h-21zM224 640l22 109h21l-22 -109h-21z" />
    <glyph glyph-name="copyright" unicode="&#xa9;" horiz-adv-x="775" 
d="M293 -1q-73 0 -125 19t-81.5 50.5t-42.5 77t-12 95t13 107.5q16 74 44.5 134t74.5 111.5t117 80t161 28.5q74 0 126.5 -19.5t81.5 -51.5t42 -78.5t11.5 -96t-13.5 -108.5q-74 -349 -397 -349zM296 18q161 0 251 91t122 239q12 56 13 104t-12 91t-40.5 73.5t-76 48.5
t-115.5 18q-83 0 -148.5 -26.5t-109.5 -74.5t-71.5 -105.5t-42.5 -128.5q-17 -67 -12 -127t27.5 -105t77 -71.5t137.5 -26.5zM327 145q-86 0 -111 53t-4 152q22 100 69.5 153t132.5 53q66 0 94 -35.5t16 -97.5h-22q10 55 -14.5 84.5t-77.5 29.5q-72 0 -114.5 -47t-62.5 -140
q-19 -94 3 -140t94 -46q52 0 89 28t50 79h21q-14 -60 -56 -93t-107 -33z" />
    <glyph glyph-name="ordfeminine" unicode="&#xaa;" horiz-adv-x="395" 
d="M256 737q38 0 61.5 -9.5t34.5 -20.5t11.5 -39.5t-2 -45t-11.5 -58.5q-1 -4 -1.5 -6.5t-1 -6.5t-1.5 -7l-19 -93l-11 -90h-19l8 67q-46 -74 -158 -74q-65 0 -87.5 26.5t-11.5 78.5q4 17 10.5 31t13 24.5t20 18.5t22 13.5t28.5 9t30 5.5t35.5 2.5t36.5 0.5h42h44
q23 85 10.5 121t-86.5 36q-67 0 -98 -29.5t-39 -67.5h-20q26 113 159 113zM152 370q55 0 97 25t60 66l18 87q-14 0 -46 0.5t-44 0t-37 -1t-35 -3t-28 -6.5t-26 -11t-18.5 -16t-16 -22t-8.5 -30q-9 -44 8.5 -66.5t75.5 -22.5z" />
    <glyph glyph-name="guillemotleft" unicode="&#xab;" horiz-adv-x="382" 
d="M216 414l-154 -154l89 -143h-25l-86 138l3 14l145 145h28zM311 414l-151 -154l90 -143h-25l-87 138l3 14l145 145h25z" />
    <glyph glyph-name="registered" unicode="&#xae;" horiz-adv-x="775" 
d="M442 702q74 0 126.5 -19.5t81.5 -51.5t42.5 -78.5t12 -96.5t-14.5 -108q-74 -349 -397 -349q-73 0 -125 19t-81.5 50.5t-42.5 77t-12 95t13 107.5q16 74 44.5 134t74.5 111.5t117 80t161 28.5zM669 348q12 56 13 104t-12 91t-40.5 73.5t-76 48.5t-115.5 18
q-83 0 -148.5 -26.5t-109.5 -74.5t-71.5 -105.5t-42.5 -128.5q-12 -56 -13 -103t12 -89.5t41 -72.5t76 -47.5t115 -17.5q161 0 250.5 91t121.5 239zM285 544h141q65 0 92.5 -24.5t13.5 -87.5q-11 -56 -41 -81t-81 -30l56 -175h-23l-55 174h-131l-37 -174h-20zM511 432
q12 57 -13 75.5t-76 18.5h-121l-40 -188h121q34 0 55.5 4.5t43.5 26.5t30 63z" />
    <glyph glyph-name="macron" unicode="&#xaf;" horiz-adv-x="316" 
d="M116 689h192l-4 -19h-192z" />
    <glyph glyph-name="degree" unicode="&#xb0;" horiz-adv-x="284" 
d="M115 527q-82 0 -62 95q20 97 103 97q81 0 61 -97q-20 -95 -102 -95zM119 545q60 0 77 77q18 79 -44 79q-60 0 -78 -79q-17 -77 45 -77z" />
    <glyph glyph-name="plusminus" unicode="&#xb1;" horiz-adv-x="530" 
d="M261 356h165l-4 -19h-165l-29 -137h-20l29 137h-165l4 19h165l29 134h20zM28 127l4 19h350l-4 -19h-350z" />
    <glyph glyph-name="uni00B2" unicode="&#xb2;" horiz-adv-x="385" 
d="M-50 354l5 25q85 62 178 136q57 45 82 67.5t50 57t33 72.5q24 116 -101 116q-57 0 -98 -29.5t-53 -83.5h-20q14 62 60 96.5t115 34.5q68 0 99 -35t18 -98q-12 -58 -48 -99.5t-117 -106.5l-174 -134h276l-4 -19h-301z" />
    <glyph glyph-name="uni00B3" unicode="&#xb3;" horiz-adv-x="398" 
d="M355 834l-4 -18l-213 -157q16 2 28 2q79 0 112 -43t18 -116q-16 -75 -65 -117t-132 -42q-76 0 -107.5 37.5t-20.5 92.5h19q-10 -49 17.5 -79.5t95.5 -30.5t113.5 35.5t59.5 103.5q14 67 -14.5 104t-99.5 37l-62 -7l3 18l216 162h-248l4 18h280z" />
    <glyph glyph-name="acute" unicode="&#xb4;" horiz-adv-x="212" 
d="M106 640l87 120h28l-95 -120h-20z" />
    <glyph glyph-name="paragraph" unicode="&#xb6;" horiz-adv-x="486" 
d="M467 760l-157 -760h-20l153 741h-97l-154 -741h-20l69 332q-120 1 -160 47t-14 167q25 121 84 167t179 47h137zM89 546q-9 -42 -10 -73t6.5 -52t19.5 -34.5t34 -21t46.5 -10.5t59.5 -3l81 388q-46 0 -79.5 -7.5t-66.5 -26.5t-55.5 -59t-35.5 -101z" />
    <glyph glyph-name="periodcentered" unicode="&#xb7;" horiz-adv-x="176" 
d="M42 240l23 110h23l-22 -110h-24z" />
    <glyph glyph-name="cedilla" unicode="&#xb8;" horiz-adv-x="244" 
d="M50 3l-36 -56q38 -2 56.5 -18t11.5 -49q-8 -41 -34.5 -55.5t-73.5 -14.5l-40 5l4 19q19 -5 40 -5q38 0 57.5 10t25.5 41q6 28 -13 39.5t-58 11.5h-7l46 72h21z" />
    <glyph glyph-name="uni00B9" unicode="&#xb9;" horiz-adv-x="202" 
d="M123 842h19l-104 -492h-20l99 471l-106 -48l4 21z" />
    <glyph glyph-name="ordmasculine" unicode="&#xba;" horiz-adv-x="371" 
d="M153 353q-85 0 -108.5 49.5t-3.5 141.5q20 94 63.5 143.5t128.5 50.5q84 1 107 -49.5t3 -144.5q-20 -93 -63 -142t-127 -49zM157 371q68 0 108 44t58 129q11 55 9.5 94.5t-27 61t-76.5 21.5q-130 0 -167 -177q-21 -82 -0.5 -127.5t95.5 -45.5z" />
    <glyph glyph-name="guillemotright" unicode="&#xbb;" horiz-adv-x="383" 
d="M181 269l-3 -14l-143 -138h-25l149 145l-87 152h25zM195 414l84 -145l-3 -14l-143 -138h-25l149 145l-87 152h25z" />
    <glyph glyph-name="onequarter" unicode="&#xbc;" horiz-adv-x="766" 
d="M674 800h27l-739 -840h-27zM18 270l99 471l-106 -48l4 21l108 48h19l-104 -492h-20zM689 491l-75 -353h61l-4 -19h-61l-25 -119h-19l25 119h-255l4 19l329 353h20zM366 138h229l69 326z" />
    <glyph glyph-name="onehalf" unicode="&#xbd;" horiz-adv-x="827" 
d="M674 800h27l-739 -840h-27zM18 270l99 471l-106 -48l4 21l108 48h19l-104 -492h-20zM760 363q-12 -58 -48 -99.5t-117 -106.5l-174 -134h276l-4 -19h-301l5 25q85 62 178 136q57 45 82 67.5t50 57t33 72.5q24 116 -101 116q-57 0 -98 -29.5t-53 -83.5h-20q14 62 60 96.5
t115 34.5q68 0 99 -35t18 -98z" />
    <glyph glyph-name="threequarters" unicode="&#xbe;" horiz-adv-x="952" 
d="M860 800h27l-739 -840h-27zM296 422q-16 -75 -65 -117t-132 -42q-76 0 -107.5 37.5t-20.5 92.5h19q-10 -49 17.5 -79.5t95.5 -30.5t113.5 35.5t59.5 103.5q14 67 -14.5 104t-99.5 37l-62 -7l3 18l216 162h-248l4 18h280l-4 -18l-213 -157q16 2 28 2q79 0 112 -43t18 -116
zM875 491l-75 -353h61l-4 -19h-61l-25 -119h-19l25 119h-255l4 19l329 353h20zM552 138h229l69 326z" />
    <glyph glyph-name="questiondown" unicode="&#xbf;" horiz-adv-x="457" 
d="M283 530l-19 -90h-20l19 90h20zM233 380h19l-10 -46q-10 -45 -28.5 -77.5t-40 -49.5t-45.5 -35.5t-45 -35t-39 -48.5t-27 -75q-17 -85 9.5 -125.5t103.5 -40.5q69 0 117.5 42t66.5 124h21q-19 -89 -71.5 -137t-137.5 -48q-86 0 -118 48t-13 137q10 45 29 79t40.5 52.5
t46 38t46 36t39.5 46t27 69.5z" />
    <glyph glyph-name="Agrave" unicode="&#xc0;" horiz-adv-x="576" 
d="M364 760h-18l-49 100h26zM469 0l-37 217h-349l-127 -217h-24l414 702h23l122 -702h-22zM95 237h333l-75 439z" />
    <glyph glyph-name="Aacute" unicode="&#xc1;" horiz-adv-x="576" 
d="M471 860l-92 -100h-23l84 100h31zM469 0l-37 217h-349l-127 -217h-24l414 702h23l122 -702h-22zM95 237h333l-75 439z" />
    <glyph glyph-name="Acircumflex" unicode="&#xc2;" horiz-adv-x="576" 
d="M382 832l-90 -72h-29l116 95h14l74 -95h-26zM469 0l-37 217h-349l-127 -217h-24l414 702h23l122 -702h-22zM95 237h333l-75 439z" />
    <glyph glyph-name="Atilde" unicode="&#xc3;" horiz-adv-x="576" 
d="M331 810q-35 0 -48 -50h-20q17 69 72 69q20 0 31 -7t13.5 -16t11 -16t24.5 -7q38 0 48 50h20q-14 -69 -72 -69q-20 0 -31 7t-13.5 16t-11 16t-24.5 7zM469 0l-37 217h-349l-127 -217h-24l414 702h23l122 -702h-22zM95 237h333l-75 439z" />
    <glyph glyph-name="Adieresis" unicode="&#xc4;" horiz-adv-x="576" 
d="M340 869l-23 -109h-21l23 109h21zM456 869l-22 -109h-21l22 109h21zM469 0l-37 217h-349l-127 -217h-24l414 702h23l122 -702h-22zM95 237h333l-75 439z" />
    <glyph glyph-name="Aring" unicode="&#xc5;" horiz-adv-x="576" 
d="M364 760q-28 0 -40.5 17t-7.5 43t25.5 43t48.5 17t40.5 -17t7.5 -43t-25 -43t-49 -17zM337 820q-8 -42 31 -42q17 0 31 11.5t18 30.5q10 42 -31 42q-18 0 -31.5 -11.5t-17.5 -30.5zM469 0l-37 217h-349l-127 -217h-24l414 702h23l122 -702h-22zM95 237h333l-75 439z" />
    <glyph glyph-name="AE" unicode="&#xc6;" horiz-adv-x="854" 
d="M886 682h-393l-63 -303h343l-4 -20h-343l-71 -339h397l-4 -20h-418l45 217h-251l-165 -217h-27l538 702h420zM140 237h239l90 433z" />
    <glyph glyph-name="Ccedilla" unicode="&#xc7;" horiz-adv-x="629" 
d="M393 718q121 0 168 -61.5t26 -173.5h-22q19 107 -22.5 161t-153.5 54q-131 0 -208.5 -87t-113.5 -261q-23 -113 -17.5 -190t53.5 -116.5t142 -39.5q99 0 167 52t94 150h22q-56 -215 -274 -222l-30 -47q38 -2 56.5 -18t11.5 -49q-8 -41 -34.5 -55.5t-73.5 -14.5l-40 5
l4 19q19 -5 40 -5q38 0 57.5 10t25.5 41q6 28 -13 39.5t-58 11.5h-7l40 63q-100 1 -151 47.5t-55 127.5t18 191q18 87 44 151t66.5 114.5t100 76.5t137.5 26z" />
    <glyph glyph-name="Egrave" unicode="&#xc8;" horiz-adv-x="529" 
d="M361 760h-18l-49 100h26zM561 682h-393l-63 -303h343l-4 -20h-343l-71 -339h397l-4 -20h-418l146 702h414z" />
    <glyph glyph-name="Eacute" unicode="&#xc9;" horiz-adv-x="529" 
d="M468 860l-92 -100h-23l84 100h31zM561 682h-393l-63 -303h343l-4 -20h-343l-71 -339h397l-4 -20h-418l146 702h414z" />
    <glyph glyph-name="Ecircumflex" unicode="&#xca;" horiz-adv-x="529" 
d="M379 832l-90 -72h-29l116 95h14l74 -95h-26zM561 682h-393l-63 -303h343l-4 -20h-343l-71 -339h397l-4 -20h-418l146 702h414z" />
    <glyph glyph-name="Edieresis" unicode="&#xcb;" horiz-adv-x="529" 
d="M337 869l-23 -109h-21l23 109h21zM453 869l-22 -109h-21l22 109h21zM561 682h-393l-63 -303h343l-4 -20h-343l-71 -339h397l-4 -20h-418l146 702h414z" />
    <glyph glyph-name="Igrave" unicode="&#xcc;" horiz-adv-x="203" 
d="M173 760h-18l-49 100h26zM5 0l146 702h21l-146 -702h-21z" />
    <glyph glyph-name="Iacute" unicode="&#xcd;" horiz-adv-x="203" 
d="M165 760l84 100h31l-92 -100h-23zM5 0l146 702h21l-146 -702h-21z" />
    <glyph glyph-name="Icircumflex" unicode="&#xce;" horiz-adv-x="203" 
d="M276 760h-26l-59 72l-90 -72h-29l116 95h14zM5 0l146 702h21l-146 -702h-21z" />
    <glyph glyph-name="Idieresis" unicode="&#xcf;" horiz-adv-x="203" 
d="M105 760l23 109h21l-23 -109h-21zM222 760l22 109h21l-22 -109h-21zM5 0l146 702h21l-146 -702h-21z" />
    <glyph glyph-name="Eth" unicode="&#xd0;" horiz-adv-x="641" 
d="M153 706h157q104 0 166 -23t87 -68t25.5 -111.5t-19.5 -153.5q-19 -94 -44.5 -155t-71 -108.5t-116.5 -69t-175 -21.5h-157l72 345h-77l4 20h77zM547 350q26 118 16.5 193t-70 109.5t-187.5 34.5h-136l-68 -326h134l-4 -20h-134l-68 -324l136 -1q176 -1 259.5 74.5
t121.5 259.5z" />
    <glyph glyph-name="Ntilde" unicode="&#xd1;" horiz-adv-x="684" 
d="M381 810q-35 0 -48 -50h-20q17 69 72 69q20 0 31 -7t13.5 -16t11 -16t24.5 -7q38 0 48 50h20q-14 -69 -72 -69q-20 0 -31 7t-13.5 16t-11 16t-24.5 7zM631 702h22l-146 -702h-22l-315 667l-143 -667h-22l151 702h22l314 -667z" />
    <glyph glyph-name="Ograve" unicode="&#xd2;" horiz-adv-x="670" 
d="M406 760h-18l-49 100h26zM245 -16q-79 0 -129 25.5t-70 75.5t-19.5 114t18.5 151q37 179 118.5 273.5t234.5 94.5q80 0 129.5 -26t69.5 -76.5t19.5 -114.5t-18.5 -151q-37 -179 -118 -272.5t-235 -93.5zM250 4q134 0 212 86t114 260q23 113 17 190.5t-54.5 117.5
t-144.5 40q-134 0 -212.5 -87t-114.5 -261q-37 -177 2.5 -261.5t180.5 -84.5z" />
    <glyph glyph-name="Oacute" unicode="&#xd3;" horiz-adv-x="670" 
d="M398 760l84 100h31l-92 -100h-23zM245 -16q-79 0 -129 25.5t-70 75.5t-19.5 114t18.5 151q37 179 118.5 273.5t234.5 94.5q80 0 129.5 -26t69.5 -76.5t19.5 -114.5t-18.5 -151q-37 -179 -118 -272.5t-235 -93.5zM250 4q134 0 212 86t114 260q23 113 17 190.5t-54.5 117.5
t-144.5 40q-134 0 -212.5 -87t-114.5 -261q-37 -177 2.5 -261.5t180.5 -84.5z" />
    <glyph glyph-name="Ocircumflex" unicode="&#xd4;" horiz-adv-x="670" 
d="M424 832l-90 -72h-29l116 95h14l74 -95h-26zM398 718q80 0 129.5 -26t69.5 -76.5t19.5 -114.5t-18.5 -151q-37 -179 -118 -272.5t-235 -93.5q-79 0 -129 25.5t-70 75.5t-19.5 114t18.5 151q37 179 118.5 273.5t234.5 94.5zM576 350q23 113 17 190.5t-54.5 117.5
t-144.5 40q-134 0 -212.5 -87t-114.5 -261q-37 -177 2.5 -261.5t180.5 -84.5q134 0 212 86t114 260z" />
    <glyph glyph-name="Otilde" unicode="&#xd5;" horiz-adv-x="670" 
d="M505 833h20q-14 -69 -72 -69q-20 0 -31 7t-13.5 16t-11 16t-24.5 7q-35 0 -48 -50h-20q17 69 72 69q20 0 31 -7t13.5 -16t11 -16t24.5 -7q38 0 48 50zM245 -16q-79 0 -129 25.5t-70 75.5t-19.5 114t18.5 151q37 179 118.5 273.5t234.5 94.5q80 0 129.5 -26t69.5 -76.5
t19.5 -114.5t-18.5 -151q-37 -179 -118 -272.5t-235 -93.5zM250 4q134 0 212 86t114 260q23 113 17 190.5t-54.5 117.5t-144.5 40q-134 0 -212.5 -87t-114.5 -261q-37 -177 2.5 -261.5t180.5 -84.5z" />
    <glyph glyph-name="Odieresis" unicode="&#xd6;" horiz-adv-x="670" 
d="M338 760l23 109h21l-23 -109h-21zM455 760l22 109h21l-22 -109h-21zM245 -16q-79 0 -129 25.5t-70 75.5t-19.5 114t18.5 151q37 179 118.5 273.5t234.5 94.5q80 0 129.5 -26t69.5 -76.5t19.5 -114.5t-18.5 -151q-37 -179 -118 -272.5t-235 -93.5zM250 4q134 0 212 86
t114 260q23 113 17 190.5t-54.5 117.5t-144.5 40q-134 0 -212.5 -87t-114.5 -261q-37 -177 2.5 -261.5t180.5 -84.5z" />
    <glyph glyph-name="multiply" unicode="&#xd7;" horiz-adv-x="487" 
d="M403 446l-170 -144l108 -144l-18 -15l-108 144l-170 -144l-11 15l170 144l-108 144l17 14l108 -144l170 144z" />
    <glyph glyph-name="Oslash" unicode="&#xd8;" horiz-adv-x="670" 
d="M648 711l-63 -72q55 -88 13 -289q-37 -179 -118 -272.5t-235 -93.5q-124 0 -177 65l-49 -55h-28l64 73q-51 87 -10 283q37 179 118.5 273.5t234.5 94.5q121 0 174 -62l48 55h28zM67 350q-39 -183 4 -265l486 554q-47 59 -163 59q-134 0 -212.5 -87t-114.5 -261zM576 350
q40 192 -7 271l-486 -554q47 -63 167 -63q134 0 212 86t114 260z" />
    <glyph glyph-name="Ugrave" unicode="&#xd9;" horiz-adv-x="660" 
d="M392 760h-18l-49 100h26zM239 -16q-104 0 -152 46t-47 127.5t23 192.5l74 352h21l-74 -352q-23 -113 -23 -190t43.5 -116.5t139.5 -39.5q131 0 199 84t105 262l74 352h22l-74 -352q-19 -90 -41 -151t-59 -113t-94.5 -77t-136.5 -25z" />
    <glyph glyph-name="Uacute" unicode="&#xda;" horiz-adv-x="660" 
d="M384 760l84 100h31l-92 -100h-23zM239 -16q-104 0 -152 46t-47 127.5t23 192.5l74 352h21l-74 -352q-23 -113 -23 -190t43.5 -116.5t139.5 -39.5q131 0 199 84t105 262l74 352h22l-74 -352q-19 -90 -41 -151t-59 -113t-94.5 -77t-136.5 -25z" />
    <glyph glyph-name="Ucircumflex" unicode="&#xdb;" horiz-adv-x="660" 
d="M410 832l-90 -72h-29l116 95h14l74 -95h-26zM622 702h22l-74 -352q-19 -90 -41 -151t-59 -113t-94.5 -77t-136.5 -25q-104 0 -152 46t-47 127.5t23 192.5l74 352h21l-74 -352q-23 -113 -23 -190t43.5 -116.5t139.5 -39.5q131 0 199 84t105 262z" />
    <glyph glyph-name="Udieresis" unicode="&#xdc;" horiz-adv-x="660" 
d="M324 760l23 109h21l-23 -109h-21zM441 760l22 109h21l-22 -109h-21zM239 -16q-104 0 -152 46t-47 127.5t23 192.5l74 352h21l-74 -352q-23 -113 -23 -190t43.5 -116.5t139.5 -39.5q131 0 199 84t105 262l74 352h22l-74 -352q-19 -90 -41 -151t-59 -113t-94.5 -77
t-136.5 -25z" />
    <glyph glyph-name="Yacute" unicode="&#xdd;" horiz-adv-x="510" 
d="M423 860l-92 -100h-23l84 100h31zM527 702h28l-320 -412l-61 -290h-22l61 290l-158 412h23l150 -383z" />
    <glyph glyph-name="Thorn" unicode="&#xde;" horiz-adv-x="563" 
d="M146 576h214q113 0 159.5 -47.5t21.5 -166.5t-91 -166.5t-179 -47.5h-214l-31 -148h-21l146 702h21zM519 362q6 43 8 74t-9.5 52.5t-24.5 35t-37 20.5t-46.5 9.5t-53.5 2.5h-214l-81 -387l214 -1q43 0 76.5 7t69 26.5t60.5 60t38 100.5z" />
    <glyph glyph-name="germandbls" unicode="&#xdf;" horiz-adv-x="528" 
d="M482 570q-9 -42 -30.5 -74t-45 -48.5t-53 -28t-45.5 -14.5t-32 -4q9 0 18.5 -0.5t26 -3t30.5 -8t30.5 -15t27 -23.5t20 -34.5t8.5 -48t-6 -62.5q-23 -111 -100 -158.5t-242 -47.5l4 20q153 0 223.5 41t92.5 145q6 27 6 50t-4 40.5t-14 31t-21 23t-28.5 16.5t-34 11.5
t-39.5 7t-42 3.5t-45 2l4 19q236 0 269 160q17 84 -8.5 131.5t-112.5 47.5q-81 -1 -130 -49.5t-66 -129.5l-118 -570h-20l119 570q18 88 71.5 142.5t146.5 55.5h1q93 0 125.5 -55t13.5 -143z" />
    <glyph glyph-name="agrave" unicode="&#xe0;" horiz-adv-x="524" 
d="M311 640h-20l-46 120h27zM290 538q53 0 86.5 -15.5t48 -33t14.5 -60t-4 -64.5t-16 -78q-3 -16 -5 -24l-29 -134l-15 -128h-19l13 102q-64 -112 -229 -112q-92 0 -123.5 37.5t-16.5 112.5q5 25 14.5 44.5t19 34.5t28 26t31.5 18.5t40.5 12.5t43 7.5t51 3.5t53 1.5t60.5 0
t63 -0.5v1q23 118 17 156q-10 57 -79 69q-22 4 -51 4q-51 0 -89.5 -14t-60.5 -36.5t-33.5 -44.5t-16.5 -46h-20q35 160 224 160zM139 10q84 0 146 38t85 98l25 124q-23 0 -61.5 0.5t-58 0.5t-51 -1t-47.5 -3t-40 -6t-36.5 -10.5t-28.5 -16.5t-25 -23t-17.5 -30.5
t-12.5 -39.5q-13 -66 12 -98.5t110 -32.5z" />
    <glyph glyph-name="aacute" unicode="&#xe1;" horiz-adv-x="524" 
d="M391 760l-95 -120h-20l87 120h28zM290 538q53 0 86.5 -15.5t48 -33t14.5 -60t-4 -64.5t-16 -78q-3 -16 -5 -24l-29 -134l-15 -128h-19l13 102q-64 -112 -229 -112q-92 0 -123.5 37.5t-16.5 112.5q5 25 14.5 44.5t19 34.5t28 26t31.5 18.5t40.5 12.5t43 7.5t51 3.5t53 1.5
t60.5 0t63 -0.5v1q23 118 17 156q-10 57 -79 69q-22 4 -51 4q-51 0 -89.5 -14t-60.5 -36.5t-33.5 -44.5t-16.5 -46h-20q35 160 224 160zM139 10q84 0 146 38t85 98l25 124q-23 0 -61.5 0.5t-58 0.5t-51 -1t-47.5 -3t-40 -6t-36.5 -10.5t-28.5 -16.5t-25 -23t-17.5 -30.5
t-12.5 -39.5q-13 -66 12 -98.5t110 -32.5z" />
    <glyph glyph-name="acircumflex" unicode="&#xe2;" horiz-adv-x="524" 
d="M326 736l-97 -96h-26l120 120h14l70 -120h-23zM290 538q53 0 86.5 -15.5t48 -33t14.5 -60t-4 -64.5t-16 -78q-3 -16 -5 -24l-29 -134l-15 -128h-19l13 102q-64 -112 -229 -112q-92 0 -123.5 37.5t-16.5 112.5q5 25 14.5 44.5t19 34.5t28 26t31.5 18.5t40.5 12.5t43 7.5
t51 3.5t53 1.5t60.5 0t63 -0.5v1q23 118 17 156q-10 57 -79 69q-22 4 -51 4q-51 0 -89.5 -14t-60.5 -36.5t-33.5 -44.5t-16.5 -46h-20q35 160 224 160zM139 10q84 0 146 38t85 98l25 124q-23 0 -61.5 0.5t-58 0.5t-51 -1t-47.5 -3t-40 -6t-36.5 -10.5t-28.5 -16.5t-25 -23
t-17.5 -30.5t-12.5 -39.5q-13 -66 12 -98.5t110 -32.5z" />
    <glyph glyph-name="atilde" unicode="&#xe3;" horiz-adv-x="524" 
d="M271 691q-16 0 -27 -10.5t-15.5 -20.5t-6.5 -20h-19q14 69 71 69q20 0 31 -7.5t13.5 -16t11 -16t24.5 -7.5t27 10.5t15.5 20.5t6.5 20h19q-14 -69 -71 -69q-20 0 -31 7.5t-13.5 16t-11 16t-24.5 7.5zM290 538q53 0 86.5 -15.5t48 -33t14.5 -60t-4 -64.5t-16 -78
q-3 -16 -5 -24l-29 -134l-15 -128h-19l13 102q-64 -112 -229 -112q-92 0 -123.5 37.5t-16.5 112.5q5 25 14.5 44.5t19 34.5t28 26t31.5 18.5t40.5 12.5t43 7.5t51 3.5t53 1.5t60.5 0t63 -0.5v1q23 118 17 156q-10 57 -79 69q-22 4 -51 4q-51 0 -89.5 -14t-60.5 -36.5
t-33.5 -44.5t-16.5 -46h-20q35 160 224 160zM139 10q84 0 146 38t85 98l25 124q-23 0 -61.5 0.5t-58 0.5t-51 -1t-47.5 -3t-40 -6t-36.5 -10.5t-28.5 -16.5t-25 -23t-17.5 -30.5t-12.5 -39.5q-13 -66 12 -98.5t110 -32.5z" />
    <glyph glyph-name="adieresis" unicode="&#xe4;" horiz-adv-x="524" 
d="M280 749l-23 -109h-21l23 109h21zM398 749l-22 -109h-21l22 109h21zM290 538q53 0 86.5 -15.5t48 -33t14.5 -60t-4 -64.5t-16 -78q-3 -16 -5 -24l-29 -134l-15 -128h-19l13 102q-64 -112 -229 -112q-92 0 -123.5 37.5t-16.5 112.5q5 25 14.5 44.5t19 34.5t28 26
t31.5 18.5t40.5 12.5t43 7.5t51 3.5t53 1.5t60.5 0t63 -0.5v1q23 118 17 156q-10 57 -79 69q-22 4 -51 4q-51 0 -89.5 -14t-60.5 -36.5t-33.5 -44.5t-16.5 -46h-20q35 160 224 160zM139 10q84 0 146 38t85 98l25 124q-23 0 -61.5 0.5t-58 0.5t-51 -1t-47.5 -3t-40 -6
t-36.5 -10.5t-28.5 -16.5t-25 -23t-17.5 -30.5t-12.5 -39.5q-13 -66 12 -98.5t110 -32.5z" />
    <glyph glyph-name="aring" unicode="&#xe5;" horiz-adv-x="524" 
d="M306 640q-29 0 -41.5 17t-6.5 43t25 43t47 17q29 0 42 -17t8 -43t-25.5 -43t-48.5 -17zM278 700q-8 -42 32 -42q17 0 31 11.5t18 30.5q8 42 -32 42q-17 0 -31 -11.5t-18 -30.5zM290 538q53 0 86.5 -15.5t48 -33t14.5 -60t-4 -64.5t-16 -78q-3 -16 -5 -24l-29 -134
l-15 -128h-19l13 102q-64 -112 -229 -112q-92 0 -123.5 37.5t-16.5 112.5q5 25 14.5 44.5t19 34.5t28 26t31.5 18.5t40.5 12.5t43 7.5t51 3.5t53 1.5t60.5 0t63 -0.5v1q23 118 17 156q-10 57 -79 69q-22 4 -51 4q-51 0 -89.5 -14t-60.5 -36.5t-33.5 -44.5t-16.5 -46h-20
q35 160 224 160zM139 10q84 0 146 38t85 98l25 124q-23 0 -61.5 0.5t-58 0.5t-51 -1t-47.5 -3t-40 -6t-36.5 -10.5t-28.5 -16.5t-25 -23t-17.5 -30.5t-12.5 -39.5q-13 -66 12 -98.5t110 -32.5z" />
    <glyph glyph-name="ae" unicode="&#xe6;" horiz-adv-x="883" 
d="M807 300l-4 -17v-2h-399l-4 -20q-9 -45 -12 -78t1.5 -67t20 -55.5t47.5 -35.5t80 -14q50 0 90.5 15.5t64.5 39t37.5 45.5t17.5 41h24q-3 -17 -15 -39t-37 -52t-74 -50t-112 -20q-149 0 -166 123q-61 -123 -233 -123t-138 160q9 45 30 74.5t51.5 44.5t71.5 22.5t89 7.5
h105h44q10 38 24 74q8 74 -18 109.5t-108 35.5q-51 0 -90 -13.5t-61 -36.5t-33.5 -45t-16.5 -46h-20q35 160 225 160q80 0 111.5 -32.5t30.5 -90.5q68 123 215 123q101 0 143 -53.5t18 -184.5zM138 10q84 0 144 38t83 100q-1 45 13 114l4 19q-169 1 -204 -3
q-102 -10 -138 -68q-15 -25 -22 -59q-14 -67 11 -104t109 -37zM409 300h376q20 110 -11.5 164.5t-131.5 54.5q-176 0 -233 -219z" />
    <glyph glyph-name="ccedilla" unicode="&#xe7;" horiz-adv-x="516" 
d="M291 538q98 0 138 -50t22 -137h-21q17 81 -19 124.5t-124 43.5q-185 0 -239 -255q-30 -120 -0.5 -186.5t133.5 -66.5q80 0 136.5 40t70.5 107h22q-14 -70 -70 -115.5t-145 -50.5l-30 -47q38 -2 56.5 -18t11.5 -49q-8 -41 -34.5 -55.5t-73.5 -14.5l-40 5l4 19q19 -5 40 -5
q38 0 57.5 10t25.5 41q6 28 -13 39.5t-58 11.5h-7l40 63q-112 1 -143 71.5t-5 200.5q26 129 88.5 201.5t176.5 72.5z" />
    <glyph glyph-name="egrave" unicode="&#xe8;" horiz-adv-x="532" 
d="M322 640h-20l-46 120h27zM295 538q102 0 144 -58.5t15 -187.5h-398l-7 -31q-9 -45 -12.5 -78t1 -67.5t20 -56t47.5 -35.5t81 -14q92 0 146.5 48t64.5 94h23q-3 -17 -15 -39t-37 -52t-74 -50t-112 -20q-113 0 -148.5 66t-6.5 205q29 140 92.5 208t175.5 68zM61 311h375
q18 99 -14 153t-131 54q-168 0 -230 -207z" />
    <glyph glyph-name="eacute" unicode="&#xe9;" horiz-adv-x="532" 
d="M402 760l-95 -120h-20l87 120h28zM295 538q102 0 144 -58.5t15 -187.5h-398l-7 -31q-9 -45 -12.5 -78t1 -67.5t20 -56t47.5 -35.5t81 -14q92 0 146.5 48t64.5 94h23q-3 -17 -15 -39t-37 -52t-74 -50t-112 -20q-113 0 -148.5 66t-6.5 205q29 140 92.5 208t175.5 68z
M61 311h375q18 99 -14 153t-131 54q-168 0 -230 -207z" />
    <glyph glyph-name="ecircumflex" unicode="&#xea;" horiz-adv-x="532" 
d="M337 736l-97 -96h-26l120 120h14l70 -120h-23zM295 538q102 0 144 -58.5t15 -187.5h-398l-7 -31q-9 -45 -12.5 -78t1 -67.5t20 -56t47.5 -35.5t81 -14q92 0 146.5 48t64.5 94h23q-3 -17 -15 -39t-37 -52t-74 -50t-112 -20q-113 0 -148.5 66t-6.5 205q29 140 92.5 208
t175.5 68zM61 311h375q18 99 -14 153t-131 54q-168 0 -230 -207z" />
    <glyph glyph-name="edieresis" unicode="&#xeb;" horiz-adv-x="532" 
d="M291 749l-23 -109h-21l23 109h21zM409 749l-22 -109h-21l22 109h21zM295 538q102 0 144 -58.5t15 -187.5h-398l-7 -31q-9 -45 -12.5 -78t1 -67.5t20 -56t47.5 -35.5t81 -14q92 0 146.5 48t64.5 94h23q-3 -17 -15 -39t-37 -52t-74 -50t-112 -20q-113 0 -148.5 66t-6.5 205
q29 140 92.5 208t175.5 68zM61 311h375q18 99 -14 153t-131 54q-168 0 -230 -207z" />
    <glyph glyph-name="igrave" unicode="&#xec;" horiz-adv-x="196" 
d="M151 640h-20l-46 120h27zM2 0l110 530h20l-110 -530h-20z" />
    <glyph glyph-name="iacute" unicode="&#xed;" horiz-adv-x="196" 
d="M116 640l87 120h28l-95 -120h-20zM2 0l110 530h20l-110 -530h-20z" />
    <glyph glyph-name="icircumflex" unicode="&#xee;" horiz-adv-x="196" 
d="M247 640h-23l-58 96l-97 -96h-26l120 120h14zM2 0l110 530h20l-110 -530h-20z" />
    <glyph glyph-name="idieresis" unicode="&#xef;" horiz-adv-x="196" 
d="M76 640l23 109h21l-23 -109h-21zM195 640l22 109h21l-22 -109h-21zM2 0l110 530h20l-110 -530h-20z" />
    <glyph glyph-name="eth" unicode="&#xf0;" horiz-adv-x="539" 
d="M510 711l-103 -50q77 -197 35 -398q-45 -272 -264 -272q-209 0 -152 272q58 276 245 276q125 0 163 -109q-5 111 -46 222l-109 -53l-8 18l109 53q-10 25 -21.5 47.5t-17.5 32.5l-6 10h23q20 -29 41 -81l103 50zM182 10q97 0 159 66t79 187l1 7q8 39 12 92q-4 60 -43 109
t-122 49q-82 0 -138.5 -67.5t-81.5 -189.5q-26 -125 4 -189t130 -64z" />
    <glyph glyph-name="ntilde" unicode="&#xf1;" horiz-adv-x="544" 
d="M291 691q-16 0 -27 -10.5t-15.5 -20.5t-6.5 -20h-19q14 69 71 69q20 0 31 -7.5t13.5 -16t11 -16t24.5 -7.5t27 10.5t15.5 20.5t6.5 20h19q-14 -69 -71 -69q-20 0 -31 7.5t-13.5 16t-11 16t-24.5 7.5zM318 538q92 0 124 -50t7 -174l-65 -314h-20l65 314q25 104 0 154.5
t-115 50.5q-48 0 -96 -27.5t-74 -55.5t-48 -59l-77 -377h-20l82 395l18 135h19l-16 -118q35 49 90 87.5t126 38.5z" />
    <glyph glyph-name="ograve" unicode="&#xf2;" horiz-adv-x="543" 
d="M323 631h-20l-46 120h27zM184 -9q-62 0 -101 19.5t-54.5 57t-15 84.5t13.5 111q28 133 89.5 204t180.5 72q62 0 101 -19.5t54 -58.5t15 -86.5t-14 -111.5q-28 -132 -89 -202t-180 -70zM188 10q101 0 159 64t84 189q16 80 13.5 137t-39.5 88.5t-111 31.5
q-102 0 -160.5 -66t-84.5 -191q-16 -80 -12.5 -136t40.5 -86.5t111 -30.5z" />
    <glyph glyph-name="oacute" unicode="&#xf3;" horiz-adv-x="543" 
d="M288 631l87 120h28l-95 -120h-20zM184 -9q-62 0 -101 19.5t-54.5 57t-15 84.5t13.5 111q28 133 89.5 204t180.5 72q62 0 101 -19.5t54 -58.5t15 -86.5t-14 -111.5q-28 -132 -89 -202t-180 -70zM188 10q101 0 159 64t84 189q16 80 13.5 137t-39.5 88.5t-111 31.5
q-102 0 -160.5 -66t-84.5 -191q-16 -80 -12.5 -136t40.5 -86.5t111 -30.5z" />
    <glyph glyph-name="ocircumflex" unicode="&#xf4;" horiz-adv-x="543" 
d="M338 727l-97 -96h-26l120 120h14l70 -120h-23zM297 539q62 0 101 -19.5t54 -58.5t15 -86.5t-14 -111.5q-28 -132 -89 -202t-180 -70q-62 0 -101 19.5t-54.5 57t-15 84.5t13.5 111q28 133 89.5 204t180.5 72zM431 263q16 80 13.5 137t-39.5 88.5t-111 31.5
q-102 0 -160.5 -66t-84.5 -191q-16 -80 -12.5 -136t40.5 -86.5t111 -30.5q101 0 159 64t84 189z" />
    <glyph glyph-name="otilde" unicode="&#xf5;" horiz-adv-x="543" 
d="M415 704h19q-14 -69 -71 -69q-20 0 -31 7.5t-13.5 16t-11 16t-24.5 7.5t-27 -10.5t-15.5 -20.5t-6.5 -20h-19q14 69 71 69q20 0 31 -7.5t13.5 -16t11 -16t24.5 -7.5t27 10.5t15.5 20.5t6.5 20zM184 -9q-62 0 -101 19.5t-54.5 57t-15 84.5t13.5 111q28 133 89.5 204
t180.5 72q62 0 101 -19.5t54 -58.5t15 -86.5t-14 -111.5q-28 -132 -89 -202t-180 -70zM188 10q101 0 159 64t84 189q16 80 13.5 137t-39.5 88.5t-111 31.5q-102 0 -160.5 -66t-84.5 -191q-16 -80 -12.5 -136t40.5 -86.5t111 -30.5z" />
    <glyph glyph-name="odieresis" unicode="&#xf6;" horiz-adv-x="543" 
d="M248 631l23 109h21l-23 -109h-21zM367 631l22 109h21l-22 -109h-21zM184 -9q-62 0 -101 19.5t-54.5 57t-15 84.5t13.5 111q28 133 89.5 204t180.5 72q62 0 101 -19.5t54 -58.5t15 -86.5t-14 -111.5q-28 -132 -89 -202t-180 -70zM188 10q101 0 159 64t84 189
q16 80 13.5 137t-39.5 88.5t-111 31.5q-102 0 -160.5 -66t-84.5 -191q-16 -80 -12.5 -136t40.5 -86.5t111 -30.5z" />
    <glyph glyph-name="divide" unicode="&#xf7;" horiz-adv-x="470" 
d="M221 401l19 89h20l-19 -89h-20zM24 296l4 19h370l-4 -19h-370zM162 121l18 89h20l-18 -89h-20z" />
    <glyph glyph-name="oslash" unicode="&#xf8;" horiz-adv-x="543" 
d="M496 535l-52 -58q41 -66 9 -214q-28 -132 -89 -202t-180 -70q-95 0 -136 47l-36 -40h-26l50 56q-40 64 -9 209q28 133 89.5 204t180.5 72q95 0 135 -46l38 42h26zM49 263q-28 -135 3 -192l365 405q-35 44 -123 44q-102 0 -160.5 -66t-84.5 -191zM431 263q29 137 -3 197
l-365 -406q35 -44 125 -44q101 0 159 64t84 189z" />
    <glyph glyph-name="ugrave" unicode="&#xf9;" horiz-adv-x="577" 
d="M313 640h-20l-46 120h27zM469 530h20l-80 -384l-20 -146h-19l18 137q-11 -18 -28.5 -39t-45.5 -47t-68 -42.5t-83 -16.5q-93 0 -125 50t-6 174l65 314h20l-65 -314q-25 -104 0 -154.5t115 -50.5q35 0 70 15.5t59 34.5t48 46.5t33.5 40.5t17.5 27z" />
    <glyph glyph-name="uacute" unicode="&#xfa;" horiz-adv-x="577" 
d="M393 760l-95 -120h-20l87 120h28zM469 530h20l-80 -384l-20 -146h-19l18 137q-11 -18 -28.5 -39t-45.5 -47t-68 -42.5t-83 -16.5q-93 0 -125 50t-6 174l65 314h20l-65 -314q-25 -104 0 -154.5t115 -50.5q35 0 70 15.5t59 34.5t48 46.5t33.5 40.5t17.5 27z" />
    <glyph glyph-name="ucircumflex" unicode="&#xfb;" horiz-adv-x="577" 
d="M328 736l-97 -96h-26l120 120h14l70 -120h-23zM469 530h20l-80 -384l-20 -146h-19l18 137q-11 -18 -28.5 -39t-45.5 -47t-68 -42.5t-83 -16.5q-93 0 -125 50t-6 174l65 314h20l-65 -314q-25 -104 0 -154.5t115 -50.5q35 0 70 15.5t59 34.5t48 46.5t33.5 40.5t17.5 27z
" />
    <glyph glyph-name="udieresis" unicode="&#xfc;" horiz-adv-x="577" 
d="M282 749l-23 -109h-21l23 109h21zM400 749l-22 -109h-21l22 109h21zM469 530h20l-80 -384l-20 -146h-19l18 137q-11 -18 -28.5 -39t-45.5 -47t-68 -42.5t-83 -16.5q-93 0 -125 50t-6 174l65 314h20l-65 -314q-25 -104 0 -154.5t115 -50.5q35 0 70 15.5t59 34.5t48 46.5
t33.5 40.5t17.5 27z" />
    <glyph glyph-name="yacute" unicode="&#xfd;" horiz-adv-x="424" 
d="M343 760l-95 -120h-20l87 120h28zM423 530h25l-428 -748h-24l124 218h-6l-97 530h23l92 -511z" />
    <glyph glyph-name="thorn" unicode="&#xfe;" horiz-adv-x="560" 
d="M333 538q196 0 139 -276q-56 -270 -253 -270q-145 0 -172 116l-72 -348h-20l208 1000h20l-70 -337q30 41 87.5 78t132.5 37zM450 262q54 257 -122 257q-53 0 -104.5 -29t-75.5 -54t-43 -51l-48 -229q0 -25 8 -48t25.5 -46t51.5 -37t81 -14q85 0 143.5 65.5t83.5 185.5z
" />
    <glyph glyph-name="ydieresis" unicode="&#xff;" horiz-adv-x="424" 
d="M232 749l-23 -109h-21l23 109h21zM350 749l-22 -109h-21l22 109h21zM423 530h25l-428 -748h-24l124 218h-6l-97 530h23l92 -511z" />
    <glyph glyph-name="Amacron" unicode="&#x100;" horiz-adv-x="576" 
d="M471 809l-5 -20h-192l5 20h192zM469 0l-37 217h-349l-127 -217h-24l414 702h23l122 -702h-22zM95 237h333l-75 439z" />
    <glyph glyph-name="amacron" unicode="&#x101;" horiz-adv-x="524" 
d="M411 689l-4 -19h-192l4 19h192zM290 538q53 0 86.5 -15.5t48 -33t14.5 -60t-4 -64.5t-16 -78q-3 -16 -5 -24l-29 -134l-15 -128h-19l13 102q-64 -112 -229 -112q-92 0 -123.5 37.5t-16.5 112.5q5 25 14.5 44.5t19 34.5t28 26t31.5 18.5t40.5 12.5t43 7.5t51 3.5t53 1.5
t60.5 0t63 -0.5v1q23 118 17 156q-10 57 -79 69q-22 4 -51 4q-51 0 -89.5 -14t-60.5 -36.5t-33.5 -44.5t-16.5 -46h-20q35 160 224 160zM139 10q84 0 146 38t85 98l25 124q-23 0 -61.5 0.5t-58 0.5t-51 -1t-47.5 -3t-40 -6t-36.5 -10.5t-28.5 -16.5t-25 -23t-17.5 -30.5
t-12.5 -39.5q-13 -66 12 -98.5t110 -32.5z" />
    <glyph glyph-name="Abreve" unicode="&#x102;" horiz-adv-x="576" 
d="M365 760q-47 0 -66.5 25.5t-13.5 53.5h21q-5 -23 10 -41t54 -18q36 0 58.5 18.5t26.5 40.5h23q-6 -29 -33.5 -54t-79.5 -25zM469 0l-37 217h-349l-127 -217h-24l414 702h23l122 -702h-22zM95 237h333l-75 439z" />
    <glyph glyph-name="abreve" unicode="&#x103;" horiz-adv-x="524" 
d="M306 640q-49 0 -67 29.5t-11 59.5h20q-6 -24 8 -46.5t54 -22.5q36 0 60 22.5t30 46.5h21q-7 -31 -36 -60t-79 -29zM290 538q53 0 86.5 -15.5t48 -33t14.5 -60t-4 -64.5t-16 -78q-3 -16 -5 -24l-29 -134l-15 -128h-19l13 102q-64 -112 -229 -112q-92 0 -123.5 37.5
t-16.5 112.5q5 25 14.5 44.5t19 34.5t28 26t31.5 18.5t40.5 12.5t43 7.5t51 3.5t53 1.5t60.5 0t63 -0.5v1q23 118 17 156q-10 57 -79 69q-22 4 -51 4q-51 0 -89.5 -14t-60.5 -36.5t-33.5 -44.5t-16.5 -46h-20q35 160 224 160zM139 10q84 0 146 38t85 98l25 124
q-23 0 -61.5 0.5t-58 0.5t-51 -1t-47.5 -3t-40 -6t-36.5 -10.5t-28.5 -16.5t-25 -23t-17.5 -30.5t-12.5 -39.5q-13 -66 12 -98.5t110 -32.5z" />
    <glyph glyph-name="Aogonek" unicode="&#x104;" horiz-adv-x="576" 
d="M381 -100q-5 -24 5.5 -35t28.5 -11q11 0 23.5 3t19.5 7l7 3l-4 -18q-23 -13 -50 -13q-30 0 -43.5 17t-7.5 47q5 26 29 51.5t42.5 36.5t36.5 20l-36 209h-349l-127 -217h-24l414 702h23l122 -702q-11 -4 -27.5 -12.5t-47 -34.5t-35.5 -53zM95 237h333l-75 439z" />
    <glyph glyph-name="aogonek" unicode="&#x105;" horiz-adv-x="524" 
d="M290 538q53 0 86.5 -15.5t48 -33t14.5 -60t-4 -64.5t-16 -78q-3 -16 -5 -24l-29 -134l-15 -128q-11 -4 -27.5 -12.5t-47 -34.5t-35.5 -53q-5 -24 5.5 -35t28.5 -11q11 0 23.5 3.5t19.5 6.5l7 3l-4 -18q-23 -13 -50 -13q-30 0 -43.5 17t-7.5 47q12 61 113 111l12 91
q-64 -112 -229 -112q-92 0 -123.5 37.5t-16.5 112.5q5 25 14.5 44.5t19 34.5t28 26t31.5 18.5t40.5 12.5t43 7.5t51 3.5t53 1.5t60.5 0t63 -0.5v1q23 118 17 156q-10 57 -79 69q-22 4 -51 4q-51 0 -89.5 -14t-60.5 -36.5t-33.5 -44.5t-16.5 -46h-20q35 160 224 160zM139 10
q84 0 146 38t85 98l25 124q-23 0 -61.5 0.5t-58 0.5t-51 -1t-47.5 -3t-40 -6t-36.5 -10.5t-28.5 -16.5t-25 -23t-17.5 -30.5t-12.5 -39.5q-13 -66 12 -98.5t110 -32.5z" />
    <glyph glyph-name="Cacute" unicode="&#x106;" horiz-adv-x="629" 
d="M387 760l84 100h31l-92 -100h-23zM240 -16q-78 0 -126.5 25.5t-68 75.5t-19 114t18.5 151t44 151t66.5 114.5t100 76.5t137.5 26q121 0 168 -61.5t26 -173.5h-22q19 107 -22.5 161t-153.5 54q-131 0 -208.5 -87t-113.5 -261q-23 -113 -17.5 -190t53.5 -116.5t142 -39.5
q99 0 167 52t94 150h22q-58 -222 -288 -222z" />
    <glyph glyph-name="cacute" unicode="&#x107;" horiz-adv-x="516" 
d="M279 640l87 120h28l-95 -120h-20zM177 -8q-114 0 -145.5 70.5t-5.5 201.5q26 129 88.5 201.5t176.5 72.5q98 0 138 -50t22 -137h-21q17 81 -19 124.5t-124 43.5q-185 0 -239 -255q-30 -120 -0.5 -186.5t133.5 -66.5q80 0 136.5 40t70.5 107h22q-15 -75 -76 -120.5
t-157 -45.5z" />
    <glyph glyph-name="Ccircumflex" unicode="&#x108;" horiz-adv-x="629" 
d="M413 832l-90 -72h-29l116 95h14l74 -95h-26zM393 718q121 0 168 -61.5t26 -173.5h-22q19 107 -22.5 161t-153.5 54q-131 0 -208.5 -87t-113.5 -261q-23 -113 -17.5 -190t53.5 -116.5t142 -39.5q99 0 167 52t94 150h22q-58 -222 -288 -222q-78 0 -126.5 25.5t-68 75.5
t-19 114t18.5 151t44 151t66.5 114.5t100 76.5t137.5 26z" />
    <glyph glyph-name="ccircumflex" unicode="&#x109;" horiz-adv-x="516" 
d="M329 736l-97 -96h-26l120 120h14l70 -120h-23zM291 538q98 0 138 -50t22 -137h-21q17 81 -19 124.5t-124 43.5q-185 0 -239 -255q-30 -120 -0.5 -186.5t133.5 -66.5q80 0 136.5 40t70.5 107h22q-15 -75 -76 -120.5t-157 -45.5q-114 0 -145.5 70.5t-5.5 201.5
q26 129 88.5 201.5t176.5 72.5z" />
    <glyph glyph-name="Cdotaccent" unicode="&#x10a;" horiz-adv-x="629" 
d="M386 760l23 109h21l-23 -109h-21zM240 -16q-78 0 -126.5 25.5t-68 75.5t-19 114t18.5 151t44 151t66.5 114.5t100 76.5t137.5 26q121 0 168 -61.5t26 -173.5h-22q19 107 -22.5 161t-153.5 54q-131 0 -208.5 -87t-113.5 -261q-23 -113 -17.5 -190t53.5 -116.5t142 -39.5
q99 0 167 52t94 150h22q-58 -222 -288 -222z" />
    <glyph glyph-name="cdotaccent" unicode="&#x10b;" horiz-adv-x="516" 
d="M300 650l23 109h21l-23 -109h-21zM177 -8q-114 0 -145.5 70.5t-5.5 201.5q26 129 88.5 201.5t176.5 72.5q98 0 138 -50t22 -137h-21q17 81 -19 124.5t-124 43.5q-185 0 -239 -255q-30 -120 -0.5 -186.5t133.5 -66.5q80 0 136.5 40t70.5 107h22q-15 -75 -76 -120.5
t-157 -45.5z" />
    <glyph glyph-name="Ccaron" unicode="&#x10c;" horiz-adv-x="629" 
d="M403 760h-15l-74 95h26l58 -72l91 72h29zM393 718q121 0 168 -61.5t26 -173.5h-22q19 107 -22.5 161t-153.5 54q-131 0 -208.5 -87t-113.5 -261q-23 -113 -17.5 -190t53.5 -116.5t142 -39.5q99 0 167 52t94 150h22q-58 -222 -288 -222q-78 0 -126.5 25.5t-68 75.5
t-19 114t18.5 151t44 151t66.5 114.5t100 76.5t137.5 26z" />
    <glyph glyph-name="ccaron" unicode="&#x10d;" horiz-adv-x="516" 
d="M316 640h-14l-71 120h24l57 -96l98 96h25zM291 538q98 0 138 -50t22 -137h-21q17 81 -19 124.5t-124 43.5q-185 0 -239 -255q-30 -120 -0.5 -186.5t133.5 -66.5q80 0 136.5 40t70.5 107h22q-15 -75 -76 -120.5t-157 -45.5q-114 0 -145.5 70.5t-5.5 201.5
q26 129 88.5 201.5t176.5 72.5z" />
    <glyph glyph-name="Dcaron" unicode="&#x10e;" horiz-adv-x="641" 
d="M381 760h-15l-74 95h26l58 -72l91 72h29zM153 706h157q104 0 166 -23t87 -68t25.5 -111.5t-19.5 -153.5q-19 -94 -44.5 -155t-71 -108.5t-116.5 -69t-175 -21.5h-157zM547 350q26 118 16.5 193t-70 109.5t-187.5 34.5h-136l-140 -670l136 -1q176 -1 259.5 74.5
t121.5 259.5z" />
    <glyph glyph-name="dcaron" unicode="&#x10f;" horiz-adv-x="561" 
d="M452 421l70 339h20l-130 -628l-18 -132h-19l15 113q-76 -121 -224 -121q-196 0 -141 270q26 128 89 202t166 74q41 0 73.5 -12.5t52 -33t30 -37.5t16.5 -34zM170 11q86 0 146 48t82 103l46 220q-3 13 -7 26t-16.5 34.5t-29.5 37t-47.5 27.5t-67.5 12q-84 0 -144 -68.5
t-85 -188.5q-52 -251 123 -251zM614 760h28l-76 -120h-20z" />
    <glyph glyph-name="Dcroat" unicode="&#x110;" horiz-adv-x="641" 
d="M153 706h157q104 0 166 -23t87 -68t25.5 -111.5t-19.5 -153.5q-19 -94 -44.5 -155t-71 -108.5t-116.5 -69t-175 -21.5h-157l72 345h-77l4 20h77zM547 350q26 118 16.5 193t-70 109.5t-187.5 34.5h-136l-68 -326h134l-4 -20h-134l-68 -324l136 -1q176 -1 259.5 74.5
t121.5 259.5z" />
    <glyph glyph-name="dcroat" unicode="&#x111;" horiz-adv-x="561" 
d="M583 616l-4 -20h-71l-96 -464l-18 -132h-19l15 113q-76 -121 -224 -121q-196 0 -141 270q26 128 89 202t166 74q41 0 73.5 -12.5t52 -33t30 -37.5t16.5 -34l36 175h-141l4 20h141l30 144h20l-30 -144h71zM170 11q86 0 146 48t82 103l46 220q-3 13 -7 26t-16.5 34.5
t-29.5 37t-47.5 27.5t-67.5 12q-84 0 -144 -68.5t-85 -188.5q-52 -251 123 -251z" />
    <glyph glyph-name="Emacron" unicode="&#x112;" horiz-adv-x="529" 
d="M468 809l-5 -20h-192l5 20h192zM561 682h-393l-63 -303h343l-4 -20h-343l-71 -339h397l-4 -20h-418l146 702h414z" />
    <glyph glyph-name="emacron" unicode="&#x113;" horiz-adv-x="532" 
d="M422 689l-4 -19h-192l4 19h192zM295 538q102 0 144 -58.5t15 -187.5h-398l-7 -31q-9 -45 -12.5 -78t1 -67.5t20 -56t47.5 -35.5t81 -14q92 0 146.5 48t64.5 94h23q-3 -17 -15 -39t-37 -52t-74 -50t-112 -20q-113 0 -148.5 66t-6.5 205q29 140 92.5 208t175.5 68zM61 311
h375q18 99 -14 153t-131 54q-168 0 -230 -207z" />
    <glyph glyph-name="Ebreve" unicode="&#x114;" horiz-adv-x="529" 
d="M362 760q-47 0 -66.5 25.5t-13.5 53.5h21q-5 -23 10 -41t54 -18q36 0 58.5 18.5t26.5 40.5h23q-6 -29 -33.5 -54t-79.5 -25zM561 682h-393l-63 -303h343l-4 -20h-343l-71 -339h397l-4 -20h-418l146 702h414z" />
    <glyph glyph-name="ebreve" unicode="&#x115;" horiz-adv-x="532" 
d="M317 640q-49 0 -67 29.5t-11 59.5h20q-6 -24 8 -46.5t54 -22.5q36 0 60 22.5t30 46.5h21q-7 -31 -36 -60t-79 -29zM295 538q102 0 144 -58.5t15 -187.5h-398l-7 -31q-9 -45 -12.5 -78t1 -67.5t20 -56t47.5 -35.5t81 -14q92 0 146.5 48t64.5 94h23q-3 -17 -15 -39t-37 -52
t-74 -50t-112 -20q-113 0 -148.5 66t-6.5 205q29 140 92.5 208t175.5 68zM61 311h375q18 99 -14 153t-131 54q-168 0 -230 -207z" />
    <glyph glyph-name="Edotaccent" unicode="&#x116;" horiz-adv-x="529" 
d="M396 869l-23 -109h-21l23 109h21zM561 682h-393l-63 -303h343l-4 -20h-343l-71 -339h397l-4 -20h-418l146 702h414z" />
    <glyph glyph-name="edotaccent" unicode="&#x117;" horiz-adv-x="532" 
d="M352 759l-23 -109h-21l23 109h21zM295 538q102 0 144 -58.5t15 -187.5h-398l-7 -31q-9 -45 -12.5 -78t1 -67.5t20 -56t47.5 -35.5t81 -14q92 0 146.5 48t64.5 94h23q-3 -17 -15 -39t-37 -52t-74 -50t-112 -20q-113 0 -148.5 66t-6.5 205q29 140 92.5 208t175.5 68z
M61 311h375q18 99 -14 153t-131 54q-168 0 -230 -207z" />
    <glyph glyph-name="Eogonek" unicode="&#x118;" horiz-adv-x="529" 
d="M561 682h-393l-63 -303h343l-4 -20h-343l-71 -339h397l-4 -20q-11 -4 -27.5 -12.5t-47 -34.5t-35.5 -53q-5 -24 5.5 -35t28.5 -11q11 0 23.5 3t19.5 7l7 3l-4 -18q-23 -13 -50 -13q-30 0 -43.5 17t-7.5 47q11 54 92 100h-379l146 702h414z" />
    <glyph glyph-name="eogonek" unicode="&#x119;" horiz-adv-x="532" 
d="M295 538q102 0 144 -58.5t15 -187.5h-398l-7 -31q-9 -45 -12.5 -78t1 -67.5t20 -56t47.5 -35.5t81 -14q92 0 146.5 48t64.5 94h23q-5 -26 -30 -64.5t-73 -65.5q-1 0 -3 -1q-10 -6 -16 -8q-81 -42 -91 -91q-5 -24 5.5 -35t28.5 -11q11 0 23.5 3t19.5 7l7 3l-4 -18
q-23 -13 -50 -13q-30 0 -43.5 17t-7.5 47q7 37 52 74q-28 -5 -56 -5q-113 0 -148.5 66t-6.5 205q29 140 92.5 208t175.5 68zM61 311h375q18 99 -14 153t-131 54q-168 0 -230 -207z" />
    <glyph glyph-name="Ecaron" unicode="&#x11a;" horiz-adv-x="529" 
d="M369 760h-15l-74 95h26l58 -72l91 72h29zM561 682h-393l-63 -303h343l-4 -20h-343l-71 -339h397l-4 -20h-418l146 702h414z" />
    <glyph glyph-name="ecaron" unicode="&#x11b;" horiz-adv-x="532" 
d="M324 640h-14l-71 120h24l57 -96l98 96h25zM295 538q102 0 144 -58.5t15 -187.5h-398l-7 -31q-9 -45 -12.5 -78t1 -67.5t20 -56t47.5 -35.5t81 -14q92 0 146.5 48t64.5 94h23q-3 -17 -15 -39t-37 -52t-74 -50t-112 -20q-113 0 -148.5 66t-6.5 205q29 140 92.5 208
t175.5 68zM61 311h375q18 99 -14 153t-131 54q-168 0 -230 -207z" />
    <glyph glyph-name="Gcircumflex" unicode="&#x11c;" horiz-adv-x="638" 
d="M417 832l-90 -72h-29l116 95h14l74 -95h-26zM393 718q118 0 167.5 -63.5t29.5 -153.5h-22q18 85 -26.5 141t-152.5 56q-131 0 -208.5 -87.5t-113.5 -261.5q-23 -113 -17.5 -189.5t53.5 -116t142 -39.5q61 0 118 17t85.5 35t30.5 26l48 227h-169l5 20h189l-53 -255
q-2 -9 -29.5 -29t-91 -40.5t-138.5 -20.5q-103 0 -155.5 45.5t-57 127t17.5 192.5q18 87 44 151t66.5 115t100 77t137.5 26z" />
    <glyph glyph-name="gcircumflex" unicode="&#x11d;" horiz-adv-x="561" 
d="M337 736l-97 -96h-26l120 120h14l70 -120h-23zM482 530h19l-35 -126l-84 -404q-9 -44 -18 -73t-27.5 -63.5t-44 -55t-67.5 -34.5t-98 -14q-41 0 -71 10t-46 26t-25.5 35.5t-11 39.5t-1 36t3.5 26l2 10l20 1q-1 -3 -2.5 -9t-3 -23.5t0 -33t9.5 -34.5t22.5 -32.5t42 -23
t64.5 -9.5q61 0 103.5 17t67.5 51.5t37 68t23 84.5l22 106q-77 -114 -219 -114q-196 0 -141 270q26 128 89 202t166 74q41 0 74.5 -12t53 -30.5t30.5 -35t16 -31.5zM169 11q83 0 142 45t83 99l50 241q-4 17 -13 34t-27 39t-51.5 36t-77.5 14q-84 0 -144 -68.5t-85 -188.5
q-52 -251 123 -251z" />
    <glyph glyph-name="Gbreve" unicode="&#x11e;" horiz-adv-x="638" 
d="M400 760q-47 0 -66.5 25.5t-13.5 53.5h21q-5 -23 10 -41t54 -18q36 0 58.5 18.5t26.5 40.5h23q-6 -29 -33.5 -54t-79.5 -25zM393 718q118 0 167.5 -63.5t29.5 -153.5h-22q18 85 -26.5 141t-152.5 56q-131 0 -208.5 -87.5t-113.5 -261.5q-23 -113 -17.5 -189.5t53.5 -116
t142 -39.5q61 0 118 17t85.5 35t30.5 26l48 227h-169l5 20h189l-53 -255q-2 -9 -29.5 -29t-91 -40.5t-138.5 -20.5q-103 0 -155.5 45.5t-57 127t17.5 192.5q18 87 44 151t66.5 115t100 77t137.5 26z" />
    <glyph glyph-name="gbreve" unicode="&#x11f;" horiz-adv-x="561" 
d="M317 640q-49 0 -67 29.5t-11 59.5h20q-6 -24 8 -46.5t54 -22.5q36 0 60 22.5t30 46.5h21q-7 -31 -36 -60t-79 -29zM482 530h19l-35 -126l-84 -404q-9 -44 -18 -73t-27.5 -63.5t-44 -55t-67.5 -34.5t-98 -14q-41 0 -71 10t-46 26t-25.5 35.5t-11 39.5t-1 36t3.5 26l2 10
l20 1q-1 -3 -2.5 -9t-3 -23.5t0 -33t9.5 -34.5t22.5 -32.5t42 -23t64.5 -9.5q61 0 103.5 17t67.5 51.5t37 68t23 84.5l22 106q-77 -114 -219 -114q-196 0 -141 270q26 128 89 202t166 74q41 0 74.5 -12t53 -30.5t30.5 -35t16 -31.5zM169 11q83 0 142 45t83 99l50 241
q-4 17 -13 34t-27 39t-51.5 36t-77.5 14q-84 0 -144 -68.5t-85 -188.5q-52 -251 123 -251z" />
    <glyph glyph-name="Gdotaccent" unicode="&#x120;" horiz-adv-x="638" 
d="M434 869l-23 -109h-21l23 109h21zM393 718q118 0 167.5 -63.5t29.5 -153.5h-22q18 85 -26.5 141t-152.5 56q-131 0 -208.5 -87.5t-113.5 -261.5q-23 -113 -17.5 -189.5t53.5 -116t142 -39.5q61 0 118 17t85.5 35t30.5 26l48 227h-169l5 20h189l-53 -255q-2 -9 -29.5 -29
t-91 -40.5t-138.5 -20.5q-103 0 -155.5 45.5t-57 127t17.5 192.5q18 87 44 151t66.5 115t100 77t137.5 26z" />
    <glyph glyph-name="gdotaccent" unicode="&#x121;" horiz-adv-x="561" 
d="M352 759l-23 -109h-21l23 109h21zM482 530h19l-35 -126l-84 -404q-9 -44 -18 -73t-27.5 -63.5t-44 -55t-67.5 -34.5t-98 -14q-41 0 -71 10t-46 26t-25.5 35.5t-11 39.5t-1 36t3.5 26l2 10l20 1q-1 -3 -2.5 -9t-3 -23.5t0 -33t9.5 -34.5t22.5 -32.5t42 -23t64.5 -9.5
q61 0 103.5 17t67.5 51.5t37 68t23 84.5l22 106q-77 -114 -219 -114q-196 0 -141 270q26 128 89 202t166 74q41 0 74.5 -12t53 -30.5t30.5 -35t16 -31.5zM169 11q83 0 142 45t83 99l50 241q-4 17 -13 34t-27 39t-51.5 36t-77.5 14q-84 0 -144 -68.5t-85 -188.5
q-52 -251 123 -251z" />
    <glyph glyph-name="Gcommaaccent" unicode="&#x122;" horiz-adv-x="638" 
d="M393 718q118 0 167.5 -63.5t29.5 -153.5h-22q18 85 -26.5 141t-152.5 56q-131 0 -208.5 -87.5t-113.5 -261.5q-23 -113 -17.5 -189.5t53.5 -116t142 -39.5q61 0 118 17t85.5 35t30.5 26l48 227h-169l5 20h189l-53 -255q-2 -9 -29.5 -29t-91 -40.5t-138.5 -20.5
q-103 0 -155.5 45.5t-57 127t17.5 192.5q18 87 44 151t66.5 115t100 77t137.5 26zM198 -132q8 17 15 36t10 30l3 10h23q-11 -38 -29 -76q-9 -19 -20 -38.5t-18 -29.5l-7 -10h-20q22 33 43 78z" />
    <glyph glyph-name="gcommaaccent" unicode="&#x123;" horiz-adv-x="561" 
d="M331 669q-11 -22 -18.5 -44.5t-10.5 -34.5l-2 -11h-24q8 41 31 90q12 25 26 48t21 33l8 10h20q-22 -31 -51 -91zM482 530h19l-35 -126l-84 -404q-9 -44 -18 -73t-27.5 -63.5t-44 -55t-67.5 -34.5t-98 -14q-41 0 -71 10t-46 26t-25.5 35.5t-11 39.5t-1 36t3.5 26l2 10
l20 1q-1 -3 -2.5 -9t-3 -23.5t0 -33t9.5 -34.5t22.5 -32.5t42 -23t64.5 -9.5q61 0 103.5 17t67.5 51.5t37 68t23 84.5l22 106q-77 -114 -219 -114q-196 0 -141 270q26 128 89 202t166 74q41 0 74.5 -12t53 -30.5t30.5 -35t16 -31.5zM169 11q83 0 142 45t83 99l50 241
q-4 17 -13 34t-27 39t-51.5 36t-77.5 14q-84 0 -144 -68.5t-85 -188.5q-52 -251 123 -251z" />
    <glyph glyph-name="Hcircumflex" unicode="&#x124;" horiz-adv-x="663" 
d="M421 832l-90 -72h-29l116 95h14l74 -95h-26zM611 702h21l-146 -702h-21l75 359h-439l-75 -359h-21l146 702h21l-67 -323h439z" />
    <glyph glyph-name="hcircumflex" unicode="&#x125;" horiz-adv-x="550" 
d="M195 853l-90 -72h-29l116 95h14l74 -95h-26zM324 538q92 0 124 -50t7 -174l-65 -314h-20l65 314q22 109 -1.5 157t-113.5 48q-68 0 -124 -44t-92 -97l-79 -378h-20l158 760h20l-71 -342q35 47 89 83.5t123 36.5z" />
    <glyph glyph-name="Hbar" unicode="&#x126;" horiz-adv-x="663" 
d="M660 546l-4 -20h-61l-109 -526h-21l75 359h-439l-75 -359h-21l109 526h-53l4 20h54l32 156h21l-32 -156h439l32 156h21l-32 -156h60zM544 379l30 147h-439l-30 -147h439z" />
    <glyph glyph-name="hbar" unicode="&#x127;" horiz-adv-x="550" 
d="M324 538q92 0 124 -50t7 -174l-65 -314h-20l65 314q22 109 -1.5 157t-113.5 48q-68 0 -124 -44t-92 -97l-79 -378h-20l124 597h-77l4 20h77l30 143h20l-30 -143h135l-4 -20h-135l-37 -179q35 47 89 83.5t123 36.5z" />
    <glyph glyph-name="Itilde" unicode="&#x128;" horiz-adv-x="203" 
d="M272 833h20q-14 -69 -72 -69q-20 0 -31 7t-13.5 16t-11 16t-24.5 7q-35 0 -48 -50h-20q17 69 72 69q20 0 31 -7t13.5 -16t11 -16t24.5 -7q38 0 48 50zM5 0l146 702h21l-146 -702h-21z" />
    <glyph glyph-name="itilde" unicode="&#x129;" horiz-adv-x="196" 
d="M243 713h19q-14 -69 -71 -69q-20 0 -31 7.5t-13.5 16t-11 16t-24.5 7.5t-27 -10.5t-15.5 -20.5t-6.5 -20h-19q14 69 71 69q20 0 31 -7.5t13.5 -16t11 -16t24.5 -7.5t27 10.5t15.5 20.5t6.5 20zM2 0l110 530h20l-110 -530h-20z" />
    <glyph glyph-name="Imacron" unicode="&#x12a;" horiz-adv-x="203" 
d="M88 809h192l-5 -20h-192zM5 0l146 702h21l-146 -702h-21z" />
    <glyph glyph-name="imacron" unicode="&#x12b;" horiz-adv-x="196" 
d="M59 689h192l-4 -19h-192zM2 0l110 530h20l-110 -530h-20z" />
    <glyph glyph-name="Ibreve" unicode="&#x12c;" horiz-adv-x="203" 
d="M264 839h23q-6 -29 -33.5 -54t-79.5 -25q-47 0 -66.5 25.5t-13.5 53.5h21q-5 -23 10 -41t54 -18q36 0 58.5 18.5t26.5 40.5zM5 0l146 702h21l-146 -702h-21z" />
    <glyph glyph-name="ibreve" unicode="&#x12d;" horiz-adv-x="196" 
d="M240 729h21q-7 -31 -36 -60t-79 -29q-49 0 -67 29.5t-11 59.5h20q-6 -24 8 -46.5t54 -22.5q36 0 60 22.5t30 46.5zM2 0l110 530h20l-110 -530h-20z" />
    <glyph glyph-name="Iogonek" unicode="&#x12e;" horiz-adv-x="203" 
d="M26 0h-2q-97 -45 -108 -99q-5 -24 5.5 -35t28.5 -11q11 0 23.5 3.5t19.5 6.5l7 3l-4 -18q-23 -13 -50 -13q-30 0 -43.5 17t-7.5 47q6 28 33.5 55.5t45 37.5t33.5 17l144 691h21z" />
    <glyph glyph-name="iogonek" unicode="&#x12f;" horiz-adv-x="196" 
d="M160 759h21l-23 -109h-21zM4 11l108 519h20l-110 -530q-11 -4 -27.5 -12.5t-47 -34.5t-35.5 -53q-5 -24 5.5 -35t28.5 -11q11 0 23.5 3t19.5 7l7 3l-4 -18q-23 -13 -50 -13q-30 0 -43.5 17t-7.5 47q2 10 7 20.5t11.5 19t14.5 16.5t17 15t16.5 12.5t16 10.5t14 8t10.5 6z
" />
    <glyph glyph-name="Idotaccent" unicode="&#x130;" horiz-adv-x="203" 
d="M164 760l23 109h21l-23 -109h-21zM5 0l146 702h21l-146 -702h-21z" />
    <glyph glyph-name="dotlessi" unicode="&#x131;" horiz-adv-x="196" 
d="M2 0l110 530h20l-110 -530h-20z" />
    <glyph glyph-name="IJ" unicode="&#x132;" horiz-adv-x="525" 
d="M5 0l146 702h21l-146 -702h-21zM163 0h-46l4 21h46q113 0 157 47.5t71 180.5l93 453h21l-92 -453q-15 -74 -31 -117t-44.5 -75t-70.5 -44.5t-108 -12.5z" />
    <glyph glyph-name="ij" unicode="&#x133;" horiz-adv-x="402" 
d="M137 650l23 109h21l-23 -109h-21zM343 650l23 109h21l-23 -109h-21zM2 0l110 530h20l-110 -530h-20zM57 -166l4 20q35 0 58.5 7t37.5 16t25 35.5t16 46t15 67.5l104 504h21l-105 -504q-7 -36 -12 -55t-12.5 -43.5t-15.5 -36t-20 -25t-28 -19t-37.5 -9.5t-50.5 -4z" />
    <glyph glyph-name="Jcircumflex" unicode="&#x134;" horiz-adv-x="322" 
d="M261 855l74 -95h-26l-59 72l-90 -72h-29l116 95h14zM192 249l93 453h21l-92 -453q-15 -74 -31 -117t-44.5 -75t-70.5 -44.5t-108 -12.5h-46l4 21h46q113 0 157 47.5t71 180.5z" />
    <glyph glyph-name="jcircumflex" unicode="&#x135;" horiz-adv-x="206" 
d="M257 640h-23l-58 96l-97 -96h-26l120 120h14zM17 26l104 504h21l-105 -504q-7 -36 -12 -55t-12.5 -43.5t-15.5 -36t-20 -25t-28 -19t-37.5 -9.5t-50.5 -4l4 20q35 0 58.5 7t37.5 16t25 35.5t16 46t15 67.5z" />
    <glyph glyph-name="Kcommaaccent" unicode="&#x136;" horiz-adv-x="547" 
d="M591 702l-340 -311l195 -391h-23l-189 376l-160 -146l-48 -230h-21l146 702h21l-91 -439l478 439h32zM141 -132q8 17 15 36t10 30l3 10h23q-11 -38 -29 -76q-9 -19 -20 -38.5t-18 -29.5l-7 -10h-20q22 33 43 78z" />
    <glyph glyph-name="kcommaaccent" unicode="&#x137;" horiz-adv-x="457" 
d="M445 530l-240 -203l161 -327h-23l-154 313l-120 -102l-44 -211h-20l158 760h20l-108 -519l338 289h32zM113 -132q8 17 15 36t10 30l3 10h23q-11 -38 -29 -76q-9 -19 -20 -38.5t-18 -29.5l-7 -10h-20q22 33 43 78z" />
    <glyph glyph-name="kgreenlandic" unicode="&#x138;" horiz-adv-x="457" 
d="M445 530l-239 -203l160 -327h-23l-154 313l-120 -102l-44 -211h-20l110 530h20l-60 -289l338 289h32z" />
    <glyph glyph-name="Lacute" unicode="&#x139;" horiz-adv-x="481" 
d="M291 860l-92 -100h-23l84 100h31zM30 19h354l-4 -19h-375l146 702h21z" />
    <glyph glyph-name="lacute" unicode="&#x13a;" horiz-adv-x="202" 
d="M176 818l84 100h31l-92 -100h-23zM5 0l158 760h20l-158 -760h-20z" />
    <glyph glyph-name="Lcommaaccent" unicode="&#x13b;" horiz-adv-x="481" 
d="M30 19h354l-4 -19h-375l146 702h21zM132 -132q8 17 15 36t10 30l3 10h23q-11 -38 -29 -76q-9 -19 -20 -38.5t-18 -29.5l-7 -10h-20q22 33 43 78z" />
    <glyph glyph-name="lcommaaccent" unicode="&#x13c;" horiz-adv-x="202" 
d="M5 0l158 760h20l-158 -760h-20zM-69 -210h-20q22 33 43 78q8 17 15 36t10 30l3 10h23q-11 -38 -29 -76q-9 -19 -20 -38.5t-18 -29.5z" />
    <glyph glyph-name="Lcaron" unicode="&#x13d;" horiz-adv-x="481" 
d="M376 760l-73 -100h-21l65 100h29zM30 19h354l-4 -19h-375l146 702h21z" />
    <glyph glyph-name="lcaron" unicode="&#x13e;" horiz-adv-x="202" 
d="M5 0l158 760h20l-158 -760h-20zM205 640l68 120h28l-76 -120h-20z" />
    <glyph glyph-name="Ldot" unicode="&#x13f;" horiz-adv-x="481" 
d="M30 19h354l-4 -19h-375l146 702h21zM274 408l-24 -110h-21l24 110h21z" />
    <glyph glyph-name="ldot" unicode="&#x140;" horiz-adv-x="206" 
d="M4 0l161 760h20l-161 -760h-20zM139 330l23 110h21l-23 -110h-21z" />
    <glyph glyph-name="Lslash" unicode="&#x141;" horiz-adv-x="481" 
d="M30 19h354l-4 -19h-375l69 330l-93 -56l-7 16l105 64l72 348h21l-69 -334l89 55l8 -16l-102 -62z" />
    <glyph glyph-name="lslash" unicode="&#x142;" horiz-adv-x="202" 
d="M211 439l-108 -66l-78 -373h-20l75 359l-88 -53l-7 16l100 61l78 377h20l-76 -363l96 58z" />
    <glyph glyph-name="Nacute" unicode="&#x143;" horiz-adv-x="684" 
d="M521 860l-92 -100h-23l84 100h31zM631 702h22l-146 -702h-22l-315 667l-143 -667h-22l151 702h22l314 -667z" />
    <glyph glyph-name="nacute" unicode="&#x144;" horiz-adv-x="544" 
d="M411 760l-95 -120h-20l87 120h28zM318 538q92 0 124 -50t7 -174l-65 -314h-20l65 314q25 104 0 154.5t-115 50.5q-48 0 -96 -27.5t-74 -55.5t-48 -59l-77 -377h-20l82 395l18 135h19l-16 -118q35 49 90 87.5t126 38.5z" />
    <glyph glyph-name="Ncommaaccent" unicode="&#x145;" horiz-adv-x="684" 
d="M631 702h22l-146 -702h-22l-315 667l-143 -667h-22l151 702h22l314 -667zM210 -132q8 17 15 36t10 30l3 10h23q-11 -38 -29 -76q-9 -19 -20 -38.5t-18 -29.5l-7 -10h-20q22 33 43 78z" />
    <glyph glyph-name="ncommaaccent" unicode="&#x146;" horiz-adv-x="544" 
d="M318 538q92 0 124 -50t7 -174l-65 -314h-20l65 314q25 104 0 154.5t-115 50.5q-48 0 -96 -27.5t-74 -55.5t-48 -59l-77 -377h-20l82 395l18 135h19l-16 -118q35 49 90 87.5t126 38.5zM138 -132q8 17 15 36t10 30l3 10h23q-11 -38 -29 -76q-9 -19 -20 -38.5t-18 -29.5
l-7 -10h-20q22 33 43 78z" />
    <glyph glyph-name="Ncaron" unicode="&#x147;" horiz-adv-x="684" 
d="M422 760h-15l-74 95h26l58 -72l91 72h29zM631 702h22l-146 -702h-22l-315 667l-143 -667h-22l151 702h22l314 -667z" />
    <glyph glyph-name="ncaron" unicode="&#x148;" horiz-adv-x="544" 
d="M333 640h-14l-71 120h24l57 -96l98 96h25zM318 538q92 0 124 -50t7 -174l-65 -314h-20l65 314q25 104 0 154.5t-115 50.5q-48 0 -96 -27.5t-74 -55.5t-48 -59l-77 -377h-20l82 395l18 135h19l-16 -118q35 49 90 87.5t126 38.5z" />
    <glyph glyph-name="Eng" unicode="&#x14a;" horiz-adv-x="684" 
d="M631 702h22l-146 -702q-24 -117 -65 -166.5t-131 -49.5h-46l4 21h46q76 0 112 44.5t58 150.5l-315 667l-143 -667h-22l151 702h22l315 -665z" />
    <glyph glyph-name="eng" unicode="&#x14b;" horiz-adv-x="544" 
d="M318 538q93 0 125 -50t6 -174l-10 -46l-47 -226q-10 -50 -17 -74.5t-19.5 -52t-29.5 -39t-44 -19t-67 -7.5l4 20q29 0 50 3t36 14t24.5 21t17.5 34.5t12.5 42.5t12.5 57l57 273q25 103 0 153.5t-115 50.5q-48 0 -96 -27.5t-74 -55.5t-48 -59l-77 -377h-20l82 395l18 135
h19l-16 -118q35 49 90 87.5t126 38.5z" />
    <glyph glyph-name="Omacron" unicode="&#x14c;" horiz-adv-x="670" 
d="M321 809h192l-5 -20h-192zM245 -16q-79 0 -129 25.5t-70 75.5t-19.5 114t18.5 151q37 179 118.5 273.5t234.5 94.5q80 0 129.5 -26t69.5 -76.5t19.5 -114.5t-18.5 -151q-37 -179 -118 -272.5t-235 -93.5zM250 4q134 0 212 86t114 260q23 113 17 190.5t-54.5 117.5
t-144.5 40q-134 0 -212.5 -87t-114.5 -261q-37 -177 2.5 -261.5t180.5 -84.5z" />
    <glyph glyph-name="omacron" unicode="&#x14d;" horiz-adv-x="543" 
d="M231 680h192l-4 -19h-192zM184 -9q-62 0 -101 19.5t-54.5 57t-15 84.5t13.5 111q28 133 89.5 204t180.5 72q62 0 101 -19.5t54 -58.5t15 -86.5t-14 -111.5q-28 -132 -89 -202t-180 -70zM188 10q101 0 159 64t84 189q16 80 13.5 137t-39.5 88.5t-111 31.5
q-102 0 -160.5 -66t-84.5 -191q-16 -80 -12.5 -136t40.5 -86.5t111 -30.5z" />
    <glyph glyph-name="Obreve" unicode="&#x14e;" horiz-adv-x="670" 
d="M497 839h23q-6 -29 -33.5 -54t-79.5 -25q-47 0 -66.5 25.5t-13.5 53.5h21q-5 -23 10 -41t54 -18q36 0 58.5 18.5t26.5 40.5zM245 -16q-79 0 -129 25.5t-70 75.5t-19.5 114t18.5 151q37 179 118.5 273.5t234.5 94.5q80 0 129.5 -26t69.5 -76.5t19.5 -114.5t-18.5 -151
q-37 -179 -118 -272.5t-235 -93.5zM250 4q134 0 212 86t114 260q23 113 17 190.5t-54.5 117.5t-144.5 40q-134 0 -212.5 -87t-114.5 -261q-37 -177 2.5 -261.5t180.5 -84.5z" />
    <glyph glyph-name="obreve" unicode="&#x14f;" horiz-adv-x="543" 
d="M412 720h21q-7 -31 -36 -60t-79 -29q-49 0 -67 29.5t-11 59.5h20q-6 -24 8 -46.5t54 -22.5q36 0 60 22.5t30 46.5zM184 -9q-62 0 -101 19.5t-54.5 57t-15 84.5t13.5 111q28 133 89.5 204t180.5 72q62 0 101 -19.5t54 -58.5t15 -86.5t-14 -111.5q-28 -132 -89 -202
t-180 -70zM188 10q101 0 159 64t84 189q16 80 13.5 137t-39.5 88.5t-111 31.5q-102 0 -160.5 -66t-84.5 -191q-16 -80 -12.5 -136t40.5 -86.5t111 -30.5z" />
    <glyph glyph-name="Ohungarumlaut" unicode="&#x150;" horiz-adv-x="670" 
d="M334 760l77 100h28l-84 -100h-21zM434 760l85 100h29l-93 -100h-21zM245 -16q-79 0 -129 25.5t-70 75.5t-19.5 114t18.5 151q37 179 118.5 273.5t234.5 94.5q80 0 129.5 -26t69.5 -76.5t19.5 -114.5t-18.5 -151q-37 -179 -118 -272.5t-235 -93.5zM250 4q134 0 212 86
t114 260q23 113 17 190.5t-54.5 117.5t-144.5 40q-134 0 -212.5 -87t-114.5 -261q-37 -177 2.5 -261.5t180.5 -84.5z" />
    <glyph glyph-name="ohungarumlaut" unicode="&#x151;" horiz-adv-x="543" 
d="M245 631l80 120h28l-87 -120h-21zM345 631l88 120h28l-95 -120h-21zM184 -9q-62 0 -101 19.5t-54.5 57t-15 84.5t13.5 111q28 133 89.5 204t180.5 72q62 0 101 -19.5t54 -58.5t15 -86.5t-14 -111.5q-28 -132 -89 -202t-180 -70zM188 10q101 0 159 64t84 189
q16 80 13.5 137t-39.5 88.5t-111 31.5q-102 0 -160.5 -66t-84.5 -191q-16 -80 -12.5 -136t40.5 -86.5t111 -30.5z" />
    <glyph glyph-name="OE" unicode="&#x152;" horiz-adv-x="927" 
d="M959 682h-393l-63 -303h344l-4 -20h-344l-71 -339h397l-4 -20h-575q-79 0 -129.5 26.5t-69.5 73.5t-20.5 111t16.5 139q17 80 42.5 140.5t65.5 110t101 75.5t140 26h571zM250 20h157l138 662h-157q-256 0 -324 -332q-34 -164 6 -247t180 -83z" />
    <glyph glyph-name="oe" unicode="&#x153;" horiz-adv-x="933" 
d="M697 538q104 0 145 -59t10 -207h-399l-2 -9l-5 -21q-10 -52 -10 -89.5t12.5 -72t47 -52.5t91.5 -18q65 0 114.5 28t70 58t26.5 56h24q-3 -17 -15 -39t-37 -52t-74 -50t-113 -20q-86 0 -126 38t-41 118q-65 -156 -232 -156q-62 0 -101 19.5t-54.5 57t-15 84.5t13.5 111
q28 133 89.5 204t180.5 72q90 1 129 -40.5t39 -118.5q68 158 232 158zM188 10q101 0 158.5 64t83.5 189q16 80 13.5 137t-39 88.5t-110.5 31.5q-102 0 -160.5 -66t-84.5 -191q-16 -80 -12.5 -136t40.5 -86.5t111 -30.5zM457 291h377q21 117 -9 172.5t-132 55.5
q-179 0 -236 -228z" />
    <glyph glyph-name="Racute" unicode="&#x154;" horiz-adv-x="621" 
d="M474 860l-92 -100h-23l84 100h31zM152 706h245q113 0 160 -43.5t24 -155.5q-20 -95 -67 -139.5t-126 -54.5l99 -313h-24l-96 310q-34 -2 -53 -2h-224l-64 -308h-21zM558 507q7 34 7 61t-5 45.5t-17 32t-26 21t-35.5 12t-41.5 6t-47 1.5h-224l-75 -357l225 -1q34 0 59.5 3
t56.5 13.5t53 29t41 52.5t29 81z" />
    <glyph glyph-name="racute" unicode="&#x155;" horiz-adv-x="315" 
d="M303 760l-95 -120h-20l87 120h28zM118 530l-18 -132q9 19 23.5 38.5t40.5 44.5t66.5 41t88.5 16l-4 -18q-42 0 -80 -17t-61.5 -39t-44 -51t-27.5 -43.5t-12 -26.5l-71 -343h-20l79 384l21 146h19z" />
    <glyph glyph-name="Rcommaaccent" unicode="&#x156;" horiz-adv-x="621" 
d="M152 706h245q113 0 160 -43.5t24 -155.5q-20 -95 -67 -139.5t-126 -54.5l99 -313h-24l-96 310q-34 -2 -53 -2h-224l-64 -308h-21zM558 507q7 34 7 61t-5 45.5t-17 32t-26 21t-35.5 12t-41.5 6t-47 1.5h-224l-75 -357l225 -1q34 0 59.5 3t56.5 13.5t53 29t41 52.5t29 81z
M168 -132q8 17 15 36t10 30l3 10h23q-11 -38 -29 -76q-9 -19 -20 -38.5t-18 -29.5l-7 -10h-20q22 33 43 78z" />
    <glyph glyph-name="rcommaaccent" unicode="&#x157;" horiz-adv-x="315" 
d="M118 530l-18 -132q9 19 23.5 38.5t40.5 44.5t66.5 41t88.5 16l-4 -18q-42 0 -80 -17t-61.5 -39t-44 -51t-27.5 -43.5t-12 -26.5l-71 -343h-20l79 384l21 146h19zM-42 -132q8 17 15 36t10 30l3 10h23q-11 -38 -29 -76q-9 -19 -20 -38.5t-18 -29.5l-7 -10h-20q22 33 43 78z
" />
    <glyph glyph-name="Rcaron" unicode="&#x158;" horiz-adv-x="621" 
d="M375 760h-15l-74 95h26l58 -72l91 72h29zM152 706h245q113 0 160 -43.5t24 -155.5q-20 -95 -67 -139.5t-126 -54.5l99 -313h-24l-96 310q-34 -2 -53 -2h-224l-64 -308h-21zM558 507q7 34 7 61t-5 45.5t-17 32t-26 21t-35.5 12t-41.5 6t-47 1.5h-224l-75 -357l225 -1
q34 0 59.5 3t56.5 13.5t53 29t41 52.5t29 81z" />
    <glyph glyph-name="rcaron" unicode="&#x159;" horiz-adv-x="315" 
d="M225 640h-14l-71 120h24l57 -96l98 96h25zM118 530l-18 -132q9 19 23.5 38.5t40.5 44.5t66.5 41t88.5 16l-4 -18q-42 0 -80 -17t-61.5 -39t-44 -51t-27.5 -43.5t-12 -26.5l-71 -343h-20l79 384l21 146h19z" />
    <glyph glyph-name="Sacute" unicode="&#x15a;" horiz-adv-x="603" 
d="M356 760l84 100h31l-92 -100h-23zM10 202h21q-41 -195 187 -198q108 -1 176.5 44t84.5 118q13 58 -4.5 95.5t-54.5 55t-83.5 28t-93.5 21t-84.5 27.5t-55 54t-5.5 95q17 83 82.5 130t180.5 46q120 -1 167 -53.5t29 -137.5h-21q3 23 4.5 46.5t-9.5 46t-29.5 39.5t-56 27.5
t-88.5 11.5q-57 1 -101 -11.5t-71 -35.5t-42.5 -50t-22.5 -59q-10 -47 3 -79.5t42.5 -47.5t68 -27t80.5 -17.5t80.5 -19.5t66.5 -33.5t40 -57.5t0 -94q-18 -87 -92.5 -135t-195.5 -47q-117 2 -171.5 55.5t-31.5 162.5z" />
    <glyph glyph-name="sacute" unicode="&#x15b;" horiz-adv-x="486" 
d="M255 640l87 120h28l-95 -120h-20zM-10 157h20q-15 -71 20 -107.5t129 -37.5q177 -3 204 120q8 40 -6.5 65.5t-44 38t-66.5 20t-74.5 15.5t-67 21t-44.5 40.5t-6 69.5q13 65 68 101t151 35q181 -3 149 -156h-20q14 65 -12.5 100.5t-120.5 36.5q-90 1 -137 -33t-57 -84
q-8 -37 7.5 -61t45.5 -35t67.5 -18.5t74.5 -16.5t66.5 -23t43.5 -43t5 -73q-30 -143 -230 -140q-96 2 -139.5 42.5t-25.5 122.5z" />
    <glyph glyph-name="Scircumflex" unicode="&#x15c;" horiz-adv-x="603" 
d="M382 832l-90 -72h-29l116 95h14l74 -95h-26zM361 718q120 -1 167 -53.5t29 -137.5h-21q3 23 4.5 46.5t-9.5 46t-29.5 39.5t-56 27.5t-88.5 11.5q-57 1 -101 -11.5t-71 -35.5t-42.5 -50t-22.5 -59q-10 -47 3 -79.5t42.5 -47.5t68 -27t80.5 -17.5t80.5 -19.5t66.5 -33.5
t40 -57.5t0 -94q-18 -87 -92.5 -135t-195.5 -47q-117 2 -171.5 55.5t-31.5 162.5h21q-41 -195 187 -198q108 -1 176.5 44t84.5 118q13 58 -4.5 95.5t-54.5 55t-83.5 28t-93.5 21t-84.5 27.5t-55 54t-5.5 95q17 83 82.5 130t180.5 46z" />
    <glyph glyph-name="scircumflex" unicode="&#x15d;" horiz-adv-x="486" 
d="M305 736l-97 -96h-26l120 120h14l70 -120h-23zM273 538q181 -3 149 -156h-20q14 65 -12.5 100.5t-120.5 36.5q-90 1 -137 -33t-57 -84q-8 -37 7.5 -61t45.5 -35t67.5 -18.5t74.5 -16.5t66.5 -23t43.5 -43t5 -73q-30 -143 -230 -140q-96 2 -139.5 42.5t-25.5 122.5h20
q-15 -71 20 -107.5t129 -37.5q177 -3 204 120q8 40 -6.5 65.5t-44 38t-66.5 20t-74.5 15.5t-67 21t-44.5 40.5t-6 69.5q13 65 68 101t151 35z" />
    <glyph glyph-name="Scedilla" unicode="&#x15e;" horiz-adv-x="603" 
d="M361 718q120 -1 167 -53.5t29 -137.5h-21q3 23 4.5 46.5t-9.5 46t-29.5 39.5t-56 27.5t-88.5 11.5q-57 1 -101 -11.5t-71 -35.5t-42.5 -50t-22.5 -59q-10 -47 3 -79.5t42.5 -47.5t68 -27t80.5 -17.5t80.5 -19.5t66.5 -33.5t40 -57.5t0 -94q-17 -84 -88.5 -132.5
t-186.5 -49.5l-30 -47q38 -2 56.5 -18t11.5 -49q-8 -41 -34.5 -55.5t-73.5 -14.5l-40 5l4 19q19 -5 40 -5q38 0 57.5 10t25.5 41q6 28 -13 39.5t-58 11.5h-7l40 63q-113 3 -165 57t-30 161h21q-41 -195 187 -198q108 -1 176.5 44t84.5 118q13 58 -4.5 95.5t-54.5 55
t-83.5 28t-93.5 21t-84.5 27.5t-55 54t-5.5 95q17 83 82.5 130t180.5 46z" />
    <glyph glyph-name="scedilla" unicode="&#x15f;" horiz-adv-x="486" 
d="M273 538q181 -3 149 -156h-20q14 65 -12.5 100.5t-120.5 36.5q-90 1 -137 -33t-57 -84q-8 -37 7.5 -61t45.5 -35t67.5 -18.5t74.5 -16.5t66.5 -23t43.5 -43t5 -73q-30 -139 -220 -140l-29 -46q38 -2 56.5 -18t11.5 -49q-8 -41 -34.5 -55.5t-73.5 -14.5l-40 5l4 19
q19 -5 40 -5q38 0 57.5 10t25.5 41q6 28 -13 39.5t-58 11.5h-7l40 62q-188 8 -155 165h20q-15 -71 20 -107.5t129 -37.5q177 -3 204 120q8 40 -6.5 65.5t-44 38t-66.5 20t-74.5 15.5t-67 21t-44.5 40.5t-6 69.5q13 65 68 101t151 35z" />
    <glyph glyph-name="Scaron" unicode="&#x160;" horiz-adv-x="603" 
d="M372 760h-15l-74 95h26l58 -72l91 72h29zM361 718q120 -1 167 -53.5t29 -137.5h-21q3 23 4.5 46.5t-9.5 46t-29.5 39.5t-56 27.5t-88.5 11.5q-57 1 -101 -11.5t-71 -35.5t-42.5 -50t-22.5 -59q-10 -47 3 -79.5t42.5 -47.5t68 -27t80.5 -17.5t80.5 -19.5t66.5 -33.5
t40 -57.5t0 -94q-18 -87 -92.5 -135t-195.5 -47q-117 2 -171.5 55.5t-31.5 162.5h21q-41 -195 187 -198q108 -1 176.5 44t84.5 118q13 58 -4.5 95.5t-54.5 55t-83.5 28t-93.5 21t-84.5 27.5t-55 54t-5.5 95q17 83 82.5 130t180.5 46z" />
    <glyph glyph-name="scaron" unicode="&#x161;" horiz-adv-x="486" 
d="M292 640h-14l-71 120h24l57 -96l98 96h25zM273 538q181 -3 149 -156h-20q14 65 -12.5 100.5t-120.5 36.5q-90 1 -137 -33t-57 -84q-8 -37 7.5 -61t45.5 -35t67.5 -18.5t74.5 -16.5t66.5 -23t43.5 -43t5 -73q-30 -143 -230 -140q-96 2 -139.5 42.5t-25.5 122.5h20
q-15 -71 20 -107.5t129 -37.5q177 -3 204 120q8 40 -6.5 65.5t-44 38t-66.5 20t-74.5 15.5t-67 21t-44.5 40.5t-6 69.5q13 65 68 101t151 35z" />
    <glyph glyph-name="uni0162" unicode="&#x162;" horiz-adv-x="523" 
d="M328 683l-147 -683l-36 -56q38 -2 56.5 -18t11.5 -49q-8 -41 -34.5 -55.5t-73.5 -14.5l-40 5l4 19q19 -5 40 -5q38 0 57.5 10t25.5 41q6 28 -13 39.5t-58 11.5h-7l46 72l147 683h-241l4 19h503l-4 -19h-241z" />
    <glyph glyph-name="uni0163" unicode="&#x163;" horiz-adv-x="280" 
d="M135 511l-68 -326q-6 -28 -8.5 -44t-4 -38.5t3 -34.5t14 -24.5t27.5 -18t45 -5.5h40l-4 -20h-40q-23 0 -45 5l-31 -49q38 -2 56.5 -18t11.5 -49q-8 -41 -34.5 -55.5t-73.5 -14.5l-40 5l4 19q19 -5 40 -5q38 0 57.5 10t25.5 41q6 28 -13 39.5t-58 11.5h-7l45 71
q-27 12 -36.5 40.5t-7 58t12.5 75.5l68 326h-66l4 19h66l34 163l22 7l-36 -170h148l-4 -19h-148z" />
    <glyph glyph-name="Tcaron" unicode="&#x164;" horiz-adv-x="523" 
d="M341 760h-15l-74 95h26l58 -72l91 72h29zM573 702l-4 -19h-241l-147 -683h-21l147 683h-241l4 19h503z" />
    <glyph glyph-name="tcaron" unicode="&#x165;" horiz-adv-x="280" 
d="M316 727l-76 -120h-20l68 120h28zM175 700l-36 -170h148l-4 -19h-148l-68 -326q-6 -28 -8.5 -44t-4 -38.5t3 -34.5t14 -24.5t27.5 -18t45 -5.5h40l-4 -20h-40q-58 0 -83.5 26t-22 67t12.5 92l68 326h-66l4 19h66l34 163z" />
    <glyph glyph-name="Tbar" unicode="&#x166;" horiz-adv-x="543" 
d="M579 683h-241l-70 -325h128l-4 -20h-128l-73 -338h-21l73 338h-122l4 20h122l70 325h-241l4 19h503z" />
    <glyph glyph-name="tbar" unicode="&#x167;" horiz-adv-x="280" 
d="M283 511h-148l-46 -223h143l-4 -20h-144l-17 -83q-6 -28 -8.5 -44t-4 -38.5t3 -34.5t14 -24.5t27.5 -18t45 -5.5h40l-4 -20h-40q-58 0 -83.5 26t-22 67t12.5 92l17 83h-68l4 20h68l47 223h-66l4 19h66l34 163l22 7l-36 -170h148z" />
    <glyph glyph-name="Utilde" unicode="&#x168;" horiz-adv-x="660" 
d="M491 833h20q-14 -69 -72 -69q-20 0 -31 7t-13.5 16t-11 16t-24.5 7q-35 0 -48 -50h-20q17 69 72 69q20 0 31 -7t13.5 -16t11 -16t24.5 -7q38 0 48 50zM239 -16q-104 0 -152 46t-47 127.5t23 192.5l74 352h21l-74 -352q-23 -113 -23 -190t43.5 -116.5t139.5 -39.5
q131 0 199 84t105 262l74 352h22l-74 -352q-19 -90 -41 -151t-59 -113t-94.5 -77t-136.5 -25z" />
    <glyph glyph-name="utilde" unicode="&#x169;" horiz-adv-x="577" 
d="M273 691q-16 0 -27 -10.5t-15.5 -20.5t-6.5 -20h-19q14 69 71 69q20 0 31 -7.5t13.5 -16t11 -16t24.5 -7.5t27 10.5t15.5 20.5t6.5 20h19q-14 -69 -71 -69q-20 0 -31 7.5t-13.5 16t-11 16t-24.5 7.5zM469 530h20l-80 -384l-20 -146h-19l18 137q-11 -18 -28.5 -39
t-45.5 -47t-68 -42.5t-83 -16.5q-93 0 -125 50t-6 174l65 314h20l-65 -314q-25 -104 0 -154.5t115 -50.5q35 0 70 15.5t59 34.5t48 46.5t33.5 40.5t17.5 27z" />
    <glyph glyph-name="Umacron" unicode="&#x16a;" horiz-adv-x="660" 
d="M307 809h192l-5 -20h-192zM239 -16q-104 0 -152 46t-47 127.5t23 192.5l74 352h21l-74 -352q-23 -113 -23 -190t43.5 -116.5t139.5 -39.5q131 0 199 84t105 262l74 352h22l-74 -352q-19 -90 -41 -151t-59 -113t-94.5 -77t-136.5 -25z" />
    <glyph glyph-name="umacron" unicode="&#x16b;" horiz-adv-x="577" 
d="M413 689l-4 -19h-192l4 19h192zM469 530h20l-80 -384l-20 -146h-19l18 137q-11 -18 -28.5 -39t-45.5 -47t-68 -42.5t-83 -16.5q-93 0 -125 50t-6 174l65 314h20l-65 -314q-25 -104 0 -154.5t115 -50.5q35 0 70 15.5t59 34.5t48 46.5t33.5 40.5t17.5 27z" />
    <glyph glyph-name="Ubreve" unicode="&#x16c;" horiz-adv-x="660" 
d="M483 839h23q-6 -29 -33.5 -54t-79.5 -25q-47 0 -66.5 25.5t-13.5 53.5h21q-5 -23 10 -41t54 -18q36 0 58.5 18.5t26.5 40.5zM239 -16q-104 0 -152 46t-47 127.5t23 192.5l74 352h21l-74 -352q-23 -113 -23 -190t43.5 -116.5t139.5 -39.5q131 0 199 84t105 262l74 352h22
l-74 -352q-19 -90 -41 -151t-59 -113t-94.5 -77t-136.5 -25z" />
    <glyph glyph-name="ubreve" unicode="&#x16d;" horiz-adv-x="577" 
d="M308 640q-49 0 -67 29.5t-11 59.5h20q-6 -24 8 -46.5t54 -22.5q36 0 60 22.5t30 46.5h21q-7 -31 -36 -60t-79 -29zM469 530h20l-80 -384l-20 -146h-19l18 137q-11 -18 -28.5 -39t-45.5 -47t-68 -42.5t-83 -16.5q-93 0 -125 50t-6 174l65 314h20l-65 -314
q-25 -104 0 -154.5t115 -50.5q35 0 70 15.5t59 34.5t48 46.5t33.5 40.5t17.5 27z" />
    <glyph glyph-name="Uring" unicode="&#x16e;" horiz-adv-x="660" 
d="M392 760q-28 0 -40.5 17t-7.5 43t25.5 43t48.5 17t40.5 -17t7.5 -43t-25 -43t-49 -17zM396 778q17 0 31 11.5t18 30.5q10 42 -31 42q-18 0 -31.5 -11.5t-17.5 -30.5q-8 -42 31 -42zM239 -16q-104 0 -152 46t-47 127.5t23 192.5l74 352h21l-74 -352q-23 -113 -23 -190
t43.5 -116.5t139.5 -39.5q131 0 199 84t105 262l74 352h22l-74 -352q-19 -90 -41 -151t-59 -113t-94.5 -77t-136.5 -25z" />
    <glyph glyph-name="uring" unicode="&#x16f;" horiz-adv-x="577" 
d="M308 640q-29 0 -41.5 17t-6.5 43t25 43t47 17q29 0 42 -17t8 -43t-25.5 -43t-48.5 -17zM280 700q-8 -42 32 -42q17 0 31 11.5t18 30.5q8 42 -32 42q-17 0 -31 -11.5t-18 -30.5zM469 530h20l-80 -384l-20 -146h-19l18 137q-11 -18 -28.5 -39t-45.5 -47t-68 -42.5
t-83 -16.5q-93 0 -125 50t-6 174l65 314h20l-65 -314q-25 -104 0 -154.5t115 -50.5q35 0 70 15.5t59 34.5t48 46.5t33.5 40.5t17.5 27z" />
    <glyph glyph-name="Uhungarumlaut" unicode="&#x170;" horiz-adv-x="660" 
d="M320 760l77 100h28l-84 -100h-21zM420 760l85 100h29l-93 -100h-21zM239 -16q-104 0 -152 46t-47 127.5t23 192.5l74 352h21l-74 -352q-23 -113 -23 -190t43.5 -116.5t139.5 -39.5q131 0 199 84t105 262l74 352h22l-74 -352q-19 -90 -41 -151t-59 -113t-94.5 -77
t-136.5 -25z" />
    <glyph glyph-name="uhungarumlaut" unicode="&#x171;" horiz-adv-x="577" 
d="M343 760l-87 -120h-21l80 120h28zM356 640h-21l88 120h28zM469 530h20l-80 -384l-20 -146h-19l18 137q-11 -18 -28.5 -39t-45.5 -47t-68 -42.5t-83 -16.5q-93 0 -125 50t-6 174l65 314h20l-65 -314q-25 -104 0 -154.5t115 -50.5q35 0 70 15.5t59 34.5t48 46.5t33.5 40.5
t17.5 27z" />
    <glyph glyph-name="Uogonek" unicode="&#x172;" horiz-adv-x="660" 
d="M622 702h22l-74 -352q-28 -131 -67 -211.5t-109 -119.5l-8 -4l-8 -4q-83 -41 -93 -92q-5 -24 5.5 -35t28.5 -11q11 0 23.5 3.5t19.5 6.5l7 3l-4 -18q-23 -13 -50 -13q-30 0 -43.5 17t-7.5 47q8 37 50 72q-32 -7 -75 -7q-104 0 -152 46t-47 127.5t23 192.5l74 352h21
l-74 -352q-23 -113 -23 -190t43.5 -116.5t139.5 -39.5q131 0 199 84t105 262z" />
    <glyph glyph-name="uogonek" unicode="&#x173;" horiz-adv-x="577" 
d="M469 530h20l-80 -384l-20 -146q-11 -4 -27.5 -12.5t-47 -34.5t-35.5 -53q-5 -24 5.5 -35t28.5 -11q11 0 23.5 3t19.5 7l7 3l-4 -18q-23 -13 -50 -13q-30 0 -43.5 17t-7.5 47q12 61 113 111l17 126q-11 -18 -28.5 -39t-45.5 -47t-68 -42.5t-83 -16.5q-93 0 -125 50t-6 174
l65 314h20l-65 -314q-25 -104 0 -154.5t115 -50.5q35 0 70 15.5t59 34.5t48 46.5t33.5 40.5t17.5 27z" />
    <glyph glyph-name="Wcircumflex" unicode="&#x174;" horiz-adv-x="878" 
d="M518 832l-90 -72h-29l116 95h14l74 -95h-26zM897 702h26l-353 -702h-24l-64 672l-334 -672h-23l-70 702h22l65 -667l332 667h25l65 -667z" />
    <glyph glyph-name="wcircumflex" unicode="&#x175;" horiz-adv-x="703" 
d="M417 736l-97 -96h-26l120 120h14l70 -120h-23zM693 530h24l-268 -530h-32l-52 494l-249 -494h-32l-56 530h21l54 -510l257 510h23l53 -510z" />
    <glyph glyph-name="Ycircumflex" unicode="&#x176;" horiz-adv-x="510" 
d="M334 832l-90 -72h-29l116 95h14l74 -95h-26zM527 702h28l-320 -412l-61 -290h-22l61 290l-158 412h23l150 -383z" />
    <glyph glyph-name="ycircumflex" unicode="&#x177;" horiz-adv-x="424" 
d="M278 736l-97 -96h-26l120 120h14l70 -120h-23zM423 530h25l-428 -748h-24l124 218h-6l-97 530h23l92 -511z" />
    <glyph glyph-name="Ydieresis" unicode="&#x178;" horiz-adv-x="510" 
d="M292 869l-23 -109h-21l23 109h21zM408 869l-22 -109h-21l22 109h21zM527 702h28l-320 -412l-61 -290h-22l61 290l-158 412h23l150 -383z" />
    <glyph glyph-name="Zacute" unicode="&#x179;" horiz-adv-x="512" 
d="M448 860l-92 -100h-23l84 100h31zM546 697l-4 -19l-576 -654h444l-4 -19h-472l2 11l2 8l575 654h-409l4 19h438z" />
    <glyph glyph-name="zacute" unicode="&#x17a;" horiz-adv-x="387" 
d="M323 760l-95 -120h-20l87 120h28zM392 524l-4 -18l-428 -482l328 1l-4 -19h-354l4 18l427 482l-317 -1l4 19h344z" />
    <glyph glyph-name="Zdotaccent" unicode="&#x17b;" horiz-adv-x="512" 
d="M376 869l-23 -109h-21l23 109h21zM546 697l-4 -19l-576 -654h444l-4 -19h-472l2 11l2 8l575 654h-409l4 19h438z" />
    <glyph glyph-name="zdotaccent" unicode="&#x17c;" horiz-adv-x="387" 
d="M273 759l-23 -109h-21l23 109h21zM392 524l-4 -18l-428 -482l328 1l-4 -19h-354l4 18l427 482l-317 -1l4 19h344z" />
    <glyph glyph-name="Zcaron" unicode="&#x17d;" horiz-adv-x="512" 
d="M349 760h-15l-74 95h26l58 -72l91 72h29zM546 697l-4 -19l-576 -654h444l-4 -19h-472l2 11l2 8l575 654h-409l4 19h438z" />
    <glyph glyph-name="zcaron" unicode="&#x17e;" horiz-adv-x="387" 
d="M245 640h-14l-71 120h24l57 -96l98 96h25zM392 524l-4 -18l-428 -482l328 1l-4 -19h-354l4 18l427 482l-317 -1l4 19h344z" />
    <glyph glyph-name="uni018F" unicode="&#x18f;" horiz-adv-x="668" 
d="M397 718q80 0 129.5 -26t69 -76.5t19 -114.5t-18.5 -151q-37 -179 -117.5 -272.5t-233.5 -93.5q-80 0 -129.5 25.5t-69.5 75t-19.5 112t18.5 147.5h528q0 1 0.5 3t0.5 3q23 113 17.5 190.5t-54 117.5t-144.5 40q-202 0 -282 -200h-22q43 107 116.5 163.5t191.5 56.5z
M249 4q127 0 204 80t115 240h-505q-31 -162 9.5 -241t176.5 -79z" />
    <glyph glyph-name="uni019D" unicode="&#x19d;" horiz-adv-x="684" 
d="M631 702h22l-146 -702h-22l-315 668l-143 -668q-27 -125 -64 -170t-128 -45h-46l5 21h46q76 0 108.5 40.5t56.5 153.5l151 702h22l314 -667z" />
    <glyph glyph-name="Gcaron" unicode="&#x1e6;" horiz-adv-x="638" 
d="M407 760h-15l-74 95h26l58 -72l91 72h29zM393 718q118 0 167.5 -63.5t29.5 -153.5h-22q18 85 -26.5 141t-152.5 56q-131 0 -208.5 -87.5t-113.5 -261.5q-23 -113 -17.5 -189.5t53.5 -116t142 -39.5q61 0 118 17t85.5 35t30.5 26l48 227h-169l5 20h189l-53 -255
q-2 -9 -29.5 -29t-91 -40.5t-138.5 -20.5q-103 0 -155.5 45.5t-57 127t17.5 192.5q18 87 44 151t66.5 115t100 77t137.5 26z" />
    <glyph glyph-name="gcaron" unicode="&#x1e7;" horiz-adv-x="561" 
d="M324 640h-14l-71 120h24l57 -96l98 96h25zM482 530h19l-35 -126l-84 -404q-9 -44 -18 -73t-27.5 -63.5t-44 -55t-67.5 -34.5t-98 -14q-41 0 -71 10t-46 26t-25.5 35.5t-11 39.5t-1 36t3.5 26l2 10l20 1q-1 -3 -2.5 -9t-3 -23.5t0 -33t9.5 -34.5t22.5 -32.5t42 -23
t64.5 -9.5q61 0 103.5 17t67.5 51.5t37 68t23 84.5l22 106q-77 -114 -219 -114q-196 0 -141 270q26 128 89 202t166 74q41 0 74.5 -12t53 -30.5t30.5 -35t16 -31.5zM169 11q83 0 142 45t83 99l50 241q-4 17 -13 34t-27 39t-51.5 36t-77.5 14q-84 0 -144 -68.5t-85 -188.5
q-52 -251 123 -251z" />
    <glyph glyph-name="uni01EA" unicode="&#x1ea;" horiz-adv-x="670" 
d="M398 718q80 0 129.5 -26t69.5 -76.5t19.5 -114.5t-18.5 -151q-53 -254 -190 -329h-1q-14 -8 -22 -11q-78 -43 -87 -89q-5 -24 5.5 -35t28.5 -11q11 0 23.5 3.5t19.5 6.5l7 3l-4 -18q-23 -13 -50 -13q-30 0 -43.5 17t-7.5 47q8 35 49 71q-40 -8 -81 -8q-79 0 -129 25.5
t-70 75.5t-19.5 114t18.5 151q37 179 118.5 273.5t234.5 94.5zM576 350q23 113 17 190.5t-54.5 117.5t-144.5 40q-134 0 -212.5 -87t-114.5 -261q-37 -177 2.5 -261.5t180.5 -84.5q134 0 212 86t114 260z" />
    <glyph glyph-name="uni01EB" unicode="&#x1eb;" horiz-adv-x="543" 
d="M297 539q62 0 101 -19.5t54 -58.5t15 -86.5t-14 -111.5q-42 -197 -153 -249h1q-11 -4 -27.5 -12.5t-47 -34.5t-35.5 -53q-5 -24 5.5 -35t28.5 -11q11 0 23.5 3.5t19.5 6.5l7 3l-4 -18q-23 -13 -50 -13q-30 0 -43.5 17t-7.5 47q9 42 61 80q-23 -3 -47 -3q-62 0 -101 19.5
t-54.5 57t-15 84.5t13.5 111q28 133 89.5 204t180.5 72zM431 263q16 80 13.5 137t-39.5 88.5t-111 31.5q-102 0 -160.5 -66t-84.5 -191q-16 -80 -12.5 -136t40.5 -86.5t111 -30.5q101 0 159 64t84 189z" />
    <glyph glyph-name="Aringacute" unicode="&#x1fa;" horiz-adv-x="576" 
d="M508 1038l-92 -100h-23l84 100h31zM364 760q-28 0 -40.5 17t-7.5 43t25.5 43t48.5 17t40.5 -17t7.5 -43t-25 -43t-49 -17zM337 820q-8 -42 31 -42q17 0 31 11.5t18 30.5q10 42 -31 42q-18 0 -31.5 -11.5t-17.5 -30.5zM346 702h23l122 -702h-22l-37 217h-349l-127 -217
h-24zM95 237h333l-75 439z" />
    <glyph glyph-name="aringacute" unicode="&#x1fb;" horiz-adv-x="524" 
d="M437 930l-95 -120h-20l87 120h28zM306 640q-29 0 -41.5 17t-6.5 43t25 43t47 17q29 0 42 -17t8 -43t-25.5 -43t-48.5 -17zM278 700q-8 -42 32 -42q17 0 31 11.5t18 30.5q8 42 -32 42q-17 0 -31 -11.5t-18 -30.5zM290 538q53 0 86.5 -15.5t48 -33t14.5 -60t-4 -64.5
t-16 -78q-3 -16 -5 -24l-29 -134l-15 -128h-19l13 102q-64 -112 -229 -112q-92 0 -123.5 37.5t-16.5 112.5q5 25 14.5 44.5t19 34.5t28 26t31.5 18.5t40.5 12.5t43 7.5t51 3.5t53 1.5t60.5 0t63 -0.5v1q23 118 17 156q-10 57 -79 69q-22 4 -51 4q-51 0 -89.5 -14
t-60.5 -36.5t-33.5 -44.5t-16.5 -46h-20q35 160 224 160zM139 10q84 0 146 38t85 98l25 124q-23 0 -61.5 0.5t-58 0.5t-51 -1t-47.5 -3t-40 -6t-36.5 -10.5t-28.5 -16.5t-25 -23t-17.5 -30.5t-12.5 -39.5q-13 -66 12 -98.5t110 -32.5z" />
    <glyph glyph-name="AEacute" unicode="&#x1fc;" horiz-adv-x="854" 
d="M626 860l-92 -100h-23l84 100h31zM886 682h-393l-63 -303h343l-4 -20h-343l-71 -339h397l-4 -20h-418l45 217h-251l-165 -217h-27l538 702h420zM140 237h239l90 433z" />
    <glyph glyph-name="aeacute" unicode="&#x1fd;" horiz-adv-x="883" 
d="M807 300l-4 -17v-2h-399l-4 -20q-9 -45 -12 -78t1.5 -67t20 -55.5t47.5 -35.5t80 -14q50 0 90.5 15.5t64.5 39t37.5 45.5t17.5 41h24q-3 -17 -15 -39t-37 -52t-74 -50t-112 -20q-149 0 -166 123q-61 -123 -233 -123t-138 160q9 45 30 74.5t51.5 44.5t71.5 22.5t89 7.5
h105h44q10 38 24 74q8 74 -18 109.5t-108 35.5q-51 0 -90 -13.5t-61 -36.5t-33.5 -45t-16.5 -46h-20q35 160 225 160q80 0 111.5 -32.5t30.5 -90.5q68 123 215 123q101 0 143 -53.5t18 -184.5zM138 10q84 0 144 38t83 100q-1 45 13 114l4 19q-169 1 -204 -3
q-102 -10 -138 -68q-15 -25 -22 -59q-14 -67 11 -104t109 -37zM409 300h376q20 110 -11.5 164.5t-131.5 54.5q-176 0 -233 -219zM597 760l-95 -120h-20l87 120h28z" />
    <glyph glyph-name="Oslashacute" unicode="&#x1fe;" horiz-adv-x="670" 
d="M312 860l-92 -100h-23l84 100h31zM648 711l-63 -72q55 -88 13 -289q-37 -179 -118 -272.5t-235 -93.5q-124 0 -177 65l-49 -55h-28l64 73q-51 87 -10 283q37 179 118.5 273.5t234.5 94.5q121 0 174 -62l48 55h28zM67 350q-39 -183 4 -265l486 554q-47 59 -163 59
q-134 0 -212.5 -87t-114.5 -261zM576 350q40 192 -7 271l-486 -554q47 -63 167 -63q134 0 212 86t114 260z" />
    <glyph glyph-name="oslashacute" unicode="&#x1ff;" horiz-adv-x="543" 
d="M403 751l-95 -120h-20l87 120h28zM496 535l-52 -58q41 -66 9 -214q-28 -132 -89 -202t-180 -70q-95 0 -136 47l-36 -40h-26l50 56q-40 64 -9 209q28 133 89.5 204t180.5 72q95 0 135 -46l38 42h26zM49 263q-28 -135 3 -192l365 405q-35 44 -123 44q-102 0 -160.5 -66
t-84.5 -191zM431 263q29 137 -3 197l-365 -406q35 -44 125 -44q101 0 159 64t84 189z" />
    <glyph glyph-name="Scommaaccent" unicode="&#x218;" horiz-adv-x="603" 
d="M10 202h21q-41 -195 187 -198q108 -1 176.5 44t84.5 118q13 58 -4.5 95.5t-54.5 55t-83.5 28t-93.5 21t-84.5 27.5t-55 54t-5.5 95q17 83 82.5 130t180.5 46q120 -1 167 -53.5t29 -137.5h-21q3 23 4.5 46.5t-9.5 46t-29.5 39.5t-56 27.5t-88.5 11.5q-57 1 -101 -11.5
t-71 -35.5t-42.5 -50t-22.5 -59q-10 -47 3 -79.5t42.5 -47.5t68 -27t80.5 -17.5t80.5 -19.5t66.5 -33.5t40 -57.5t0 -94q-18 -87 -92.5 -135t-195.5 -47q-117 2 -171.5 55.5t-31.5 162.5zM156 -220h-20q22 33 43 78q8 17 15 36t10 30l3 10h23q-11 -38 -29 -76
q-9 -19 -20 -38.5t-18 -29.5z" />
    <glyph glyph-name="scommaaccent" unicode="&#x219;" horiz-adv-x="486" 
d="M-10 157h20q-15 -71 20 -107.5t129 -37.5q177 -3 204 120q8 40 -6.5 65.5t-44 38t-66.5 20t-74.5 15.5t-67 21t-44.5 40.5t-6 69.5q13 65 68 101t151 35q181 -3 149 -156h-20q14 65 -12.5 100.5t-120.5 36.5q-90 1 -137 -33t-57 -84q-8 -37 7.5 -61t45.5 -35t67.5 -18.5
t74.5 -16.5t66.5 -23t43.5 -43t5 -73q-30 -143 -230 -140q-96 2 -139.5 42.5t-25.5 122.5zM96 -211h-20q22 33 43 78q8 17 15 36t10 29l3 11h23q-11 -38 -29 -76q-9 -19 -20 -38.5t-18 -29.5z" />
    <glyph glyph-name="uni021A" unicode="&#x21a;" horiz-adv-x="543" 
d="M583 702l-4 -19h-241l-147 -683h-21l147 683h-241l4 19h503zM132 -115q8 17 15 36t9 29l3 11h23q-11 -38 -29 -76q-9 -19 -20 -38.5t-17 -29.5l-7 -10h-20q23 33 43 78z" />
    <glyph glyph-name="uni021B" unicode="&#x21b;" horiz-adv-x="280" 
d="M135 511l-68 -326q-6 -28 -8.5 -44t-4 -38.5t3 -34.5t14 -24.5t27.5 -18t45 -5.5h40l-4 -20h-40q-58 0 -83.5 26t-22 67t12.5 92l68 326h-66l4 19h66l34 163l22 7l-36 -170h148l-4 -19h-148zM47 -123q8 17 15 36t10 29l3 11h23q-11 -38 -29 -76q-9 -19 -20 -38.5
t-18 -29.5l-7 -10h-20q22 33 43 78z" />
    <glyph glyph-name="uni0232" unicode="&#x232;" horiz-adv-x="510" 
d="M423 809l-5 -20h-192l5 20h192zM527 702h28l-320 -412l-61 -290h-22l61 290l-158 412h23l150 -383z" />
    <glyph glyph-name="uni0233" unicode="&#x233;" horiz-adv-x="424" 
d="M363 689l-4 -19h-192l4 19h192zM423 530h25l-428 -748h-24l124 218h-6l-97 530h23l92 -511z" />
    <glyph glyph-name="uni0237" unicode="&#x237;" horiz-adv-x="206" 
d="M-139 -166l4 20q35 0 58.5 7t37.5 16t25 35.5t16 46t15 67.5l104 504h21l-105 -504q-7 -36 -12 -55t-12.5 -43.5t-15.5 -36t-20 -25t-28 -19t-37.5 -9.5t-50.5 -4z" />
    <glyph glyph-name="uni0259" unicode="&#x259;" horiz-adv-x="539" 
d="M295 538q113 0 148 -66t6 -205q-29 -140 -92.5 -208t-175.5 -68q-104 0 -145 59t-10 207h399q0 3 2 11q9 45 12.5 78t-1 67.5t-20 56t-47.5 35.5t-80 14q-65 0 -114.5 -28t-70 -58t-26.5 -56h-24q4 17 15.5 39t37 52t74 50t112.5 20zM185 10q178 0 235 228h-376
q-21 -117 9 -172.5t132 -55.5z" />
    <glyph glyph-name="uni0272" unicode="&#x272;" horiz-adv-x="554" 
d="M328 538q93 0 125 -50t6 -174l-65 -314h-20l65 314q25 104 0 154.5t-115 50.5q-47 0 -94 -26.5t-73 -54t-48 -58.5l-71 -338q-10 -50 -17 -74.5t-19.5 -52t-29.5 -39t-44 -19t-67 -7.5l4 20q73 0 100 27t44 103l82 395l18 135h19l-16 -118q35 49 90 87.5t126 38.5z" />
    <glyph glyph-name="circumflex" unicode="&#x2c6;" horiz-adv-x="328" 
d="M310 640h-23l-58 96l-97 -96h-26l120 120h14z" />
    <glyph glyph-name="caron" unicode="&#x2c7;" horiz-adv-x="328" 
d="M309 760h25l-119 -120h-14l-71 120h24l57 -96z" />
    <glyph glyph-name="breve" unicode="&#x2d8;" horiz-adv-x="316" 
d="M297 729h21q-7 -31 -36 -60t-79 -29q-49 0 -67 29.5t-11 59.5h20q-6 -24 8 -46.5t54 -22.5q36 0 60 22.5t30 46.5z" />
    <glyph glyph-name="dotaccent" unicode="&#x2d9;" horiz-adv-x="140" 
d="M108 650l23 109h21l-23 -109h-21z" />
    <glyph glyph-name="ring" unicode="&#x2da;" horiz-adv-x="252" 
d="M171 640q-29 0 -41.5 17t-6.5 43t25 43t47 17q29 0 42 -17t8 -43t-25.5 -43t-48.5 -17zM175 658q17 0 31 11.5t18 30.5q8 42 -32 42q-17 0 -31 -11.5t-18 -30.5q-8 -42 32 -42z" />
    <glyph glyph-name="ogonek" unicode="&#x2db;" horiz-adv-x="249" 
d="M27 12l17 -11q-11 -4 -27.5 -12.5t-47 -34.5t-35.5 -53q-5 -24 5.5 -35t28.5 -11q11 0 23.5 3.5t19.5 6.5l7 3l-4 -18q-23 -13 -50 -13q-30 0 -43.5 17t-7.5 47t34.5 58t54.5 41z" />
    <glyph glyph-name="tilde" unicode="&#x2dc;" horiz-adv-x="328" 
d="M306 713h19q-14 -69 -71 -69q-20 0 -31 7.5t-13.5 16t-11 16t-24.5 7.5t-27 -10.5t-15.5 -20.5t-6.5 -20h-19q14 69 71 69q20 0 31 -7.5t13.5 -16t11 -16t24.5 -7.5t27 10.5t15.5 20.5t6.5 20z" />
    <glyph glyph-name="hungarumlaut" unicode="&#x2dd;" horiz-adv-x="314" 
d="M106 640l80 120h28l-87 -120h-21zM206 640l88 120h28l-95 -120h-21z" />
    <glyph glyph-name="gravecomb" unicode="&#x300;" 
d="M-12 640h-20l-46 120h27z" />
    <glyph glyph-name="acutecomb" unicode="&#x301;" 
d="M-102 640l87 120h28l-95 -120h-20z" />
    <glyph glyph-name="uni0302" unicode="&#x302;" 
d="M-11 640h-23l-58 96l-97 -96h-26l120 120h14z" />
    <glyph glyph-name="tildecomb" unicode="&#x303;" 
d="M-16 713h19q-14 -69 -71 -69q-20 0 -31 7.5t-13.5 16t-11 16t-24.5 7.5t-27 -10.5t-15.5 -20.5t-6.5 -20h-19q14 69 71 69q20 0 31 -7.5t13.5 -16t11 -16t24.5 -7.5t27 10.5t15.5 20.5t6.5 20z" />
    <glyph glyph-name="uni0304" unicode="&#x304;" 
d="M-194 689h192l-4 -19h-192z" />
    <glyph glyph-name="uni0306" unicode="&#x306;" 
d="M-14 729h21q-7 -31 -36 -60t-79 -29q-49 0 -67 29.5t-11 59.5h20q-6 -24 8 -46.5t54 -22.5q36 0 60 22.5t30 46.5z" />
    <glyph glyph-name="uni0307" unicode="&#x307;" 
d="M-30 650l23 109h21l-23 -109h-21z" />
    <glyph glyph-name="uni0308" unicode="&#x308;" 
d="M-150 640l23 109h21l-23 -109h-21zM-31 640l22 109h21l-22 -109h-21z" />
    <glyph glyph-name="uni030A" unicode="&#x30a;" 
d="M-76 640q-29 0 -41.5 17t-6.5 43t25 43t47 17q29 0 42 -17t8 -43t-25.5 -43t-48.5 -17zM-72 658q17 0 31 11.5t18 30.5q8 42 -32 42q-17 0 -31 -11.5t-18 -30.5q-8 -42 32 -42z" />
    <glyph glyph-name="uni030B" unicode="&#x30b;" 
d="M-202 640l80 120h28l-87 -120h-21zM-102 640l88 120h28l-95 -120h-21z" />
    <glyph glyph-name="uni030C" unicode="&#x30c;" 
d="M-12 760h25l-119 -120h-14l-71 120h24l57 -96z" />
    <glyph glyph-name="uni0312" unicode="&#x312;" 
d="M-7 760h20q-22 -31 -51 -91q-11 -22 -18.5 -44.5t-9.5 -34.5l-3 -11h-24q8 41 31 90q12 25 26 48t22 33z" />
    <glyph glyph-name="dotbelowcomb" unicode="&#x323;" 
d="M-201 -170l19 89h20l-19 -89h-20z" />
    <glyph glyph-name="uni0326" unicode="&#x326;" 
d="M-265 -190h-20q22 33 43 78q8 17 15 36t10 30l3 10h23q-11 -38 -29 -76q-9 -19 -20 -38.5t-18 -29.5z" />
    <glyph glyph-name="uni0327" unicode="&#x327;" 
d="M-190 3l-36 -56q38 -2 56.5 -18t11.5 -49q-8 -41 -34.5 -55.5t-73.5 -14.5l-40 5l4 19q19 -5 40 -5q38 0 57.5 10t25.5 41q6 28 -13 39.5t-58 11.5h-7l46 72h21z" />
    <glyph glyph-name="uni0328" unicode="&#x328;" 
d="M-217 12l17 -11q-11 -4 -27.5 -12.5t-47 -34.5t-35.5 -53q-5 -24 5.5 -35t28.5 -11q11 0 23.5 3.5t19.5 6.5l7 3l-4 -18q-23 -13 -50 -13q-30 0 -43.5 17t-7.5 47t34.5 58t54.5 41z" />
    <glyph glyph-name="uni0335" unicode="&#x335;" 
d="M-302 310l4 20h232l-4 -20h-232z" />
    <glyph glyph-name="uni0336" unicode="&#x336;" 
d="M-675 310l4 20h595l-4 -20h-595z" />
    <glyph glyph-name="uni0337" unicode="&#x337;" 
d="M-284 233l-7 16l218 133l8 -16z" />
    <glyph glyph-name="uni0338" unicode="&#x338;" 
d="M-414 113l484 537h26l-484 -537h-26z" />
    <glyph glyph-name="pi" unicode="&#x3c0;" horiz-adv-x="598" 
d="M466 511l-73 -356q-5 -25 -7.5 -41.5t-2 -36t6.5 -31t20 -19t36 -7.5h11l-4 -20h-11q-44 0 -63 22.5t-16.5 57t9.5 75.5l74 356h-269l-106 -511h-20l106 511h-88l4 19h486l-4 -19h-89z" />
    <glyph glyph-name="Wgrave" unicode="&#x1e80;" horiz-adv-x="878" 
d="M500 760h-18l-49 100h26zM897 702h26l-353 -702h-24l-64 672l-334 -672h-23l-70 702h22l65 -667l332 667h25l65 -667z" />
    <glyph glyph-name="wgrave" unicode="&#x1e81;" horiz-adv-x="703" 
d="M402 640h-20l-46 120h27zM693 530h24l-268 -530h-32l-52 494l-249 -494h-32l-56 530h21l54 -510l257 510h23l53 -510z" />
    <glyph glyph-name="Wacute" unicode="&#x1e82;" horiz-adv-x="878" 
d="M607 860l-92 -100h-23l84 100h31zM897 702h26l-353 -702h-24l-64 672l-334 -672h-23l-70 702h22l65 -667l332 667h25l65 -667z" />
    <glyph glyph-name="wacute" unicode="&#x1e83;" horiz-adv-x="703" 
d="M482 760l-95 -120h-20l87 120h28zM693 530h24l-268 -530h-32l-52 494l-249 -494h-32l-56 530h21l54 -510l257 510h23l53 -510z" />
    <glyph glyph-name="Wdieresis" unicode="&#x1e84;" horiz-adv-x="878" 
d="M476 869l-23 -109h-21l23 109h21zM592 869l-22 -109h-21l22 109h21zM897 702h26l-353 -702h-24l-64 672l-334 -672h-23l-70 702h22l65 -667l332 667h25l65 -667z" />
    <glyph glyph-name="wdieresis" unicode="&#x1e85;" horiz-adv-x="703" 
d="M371 749l-23 -109h-21l23 109h21zM489 749l-22 -109h-21l22 109h21zM693 530h24l-268 -530h-32l-52 494l-249 -494h-32l-56 530h21l54 -510l257 510h23l53 -510z" />
    <glyph glyph-name="uni1EA0" unicode="&#x1ea0;" horiz-adv-x="576" 
d="M491 0h-22l-37 217h-349l-127 -217h-24l414 702h23zM95 237h333l-75 439zM166 -170l19 89h20l-19 -89h-20z" />
    <glyph glyph-name="uni1EA1" unicode="&#x1ea1;" horiz-adv-x="524" 
d="M290 538q53 0 86.5 -15.5t48 -33t14.5 -60t-4 -64.5t-16 -78q-3 -16 -5 -24l-29 -134l-15 -128h-19l13 102q-64 -112 -229 -112q-92 0 -123.5 37.5t-16.5 112.5q5 25 14.5 44.5t19 34.5t28 26t31.5 18.5t40.5 12.5t43 7.5t51 3.5t53 1.5t60.5 0t63 -0.5v1q23 118 17 156
q-10 57 -79 69q-22 4 -51 4q-51 0 -89.5 -14t-60.5 -36.5t-33.5 -44.5t-16.5 -46h-20q35 160 224 160zM139 10q84 0 146 38t85 98l25 124q-23 0 -61.5 0.5t-58 0.5t-51 -1t-47.5 -3t-40 -6t-36.5 -10.5t-28.5 -16.5t-25 -23t-17.5 -30.5t-12.5 -39.5q-13 -66 12 -98.5
t110 -32.5zM132 -170l19 89h20l-19 -89h-20z" />
    <glyph glyph-name="uni1EB8" unicode="&#x1eb8;" horiz-adv-x="529" 
d="M561 682h-393l-63 -303h343l-4 -20h-343l-71 -339h397l-4 -20h-418l146 702h414zM167 -170l19 89h20l-19 -89h-20z" />
    <glyph glyph-name="uni1EB9" unicode="&#x1eb9;" horiz-adv-x="532" 
d="M295 538q102 0 144 -58.5t15 -187.5h-398l-7 -31q-9 -45 -12.5 -78t1 -67.5t20 -56t47.5 -35.5t81 -14q92 0 146.5 48t64.5 94h23q-3 -17 -15 -39t-37 -52t-74 -50t-112 -20q-113 0 -148.5 66t-6.5 205q29 140 92.5 208t175.5 68zM61 311h375q18 99 -14 153t-131 54
q-168 0 -230 -207zM141 -170l19 89h20l-19 -89h-20z" />
    <glyph glyph-name="uni1EBC" unicode="&#x1ebc;" horiz-adv-x="529" 
d="M328 810q-35 0 -48 -50h-20q17 69 72 69q20 0 31 -7t13.5 -16t11 -16t24.5 -7q38 0 48 50h20q-14 -69 -72 -69q-20 0 -31 7t-13.5 16t-11 16t-24.5 7zM561 682h-393l-63 -303h343l-4 -20h-343l-71 -339h397l-4 -20h-418l146 702h414z" />
    <glyph glyph-name="uni1EBD" unicode="&#x1ebd;" horiz-adv-x="532" 
d="M282 691q-16 0 -27 -10.5t-15.5 -20.5t-6.5 -20h-19q14 69 71 69q20 0 31 -7.5t13.5 -16t11 -16t24.5 -7.5t27 10.5t15.5 20.5t6.5 20h19q-14 -69 -71 -69q-20 0 -31 7.5t-13.5 16t-11 16t-24.5 7.5zM295 538q102 0 144 -58.5t15 -187.5h-398l-7 -31q-9 -45 -12.5 -78
t1 -67.5t20 -56t47.5 -35.5t81 -14q92 0 146.5 48t64.5 94h23q-3 -17 -15 -39t-37 -52t-74 -50t-112 -20q-113 0 -148.5 66t-6.5 205q29 140 92.5 208t175.5 68zM61 311h375q18 99 -14 153t-131 54q-168 0 -230 -207z" />
    <glyph glyph-name="uni1ECA" unicode="&#x1eca;" horiz-adv-x="203" 
d="M5 0l146 702h21l-146 -702h-21zM-29 -170l19 89h20l-19 -89h-20z" />
    <glyph glyph-name="uni1ECB" unicode="&#x1ecb;" horiz-adv-x="196" 
d="M137 650l23 109h21l-23 -109h-21zM2 0l110 530h20l-110 -530h-20zM-33 -170l19 89h20l-19 -89h-20z" />
    <glyph glyph-name="uni1ECC" unicode="&#x1ecc;" horiz-adv-x="670" 
d="M245 -16q-79 0 -129 25.5t-70 75.5t-19.5 114t18.5 151q37 179 118.5 273.5t234.5 94.5q80 0 129.5 -26t69.5 -76.5t19.5 -114.5t-18.5 -151q-37 -179 -118 -272.5t-235 -93.5zM250 4q134 0 212 86t114 260q23 113 17 190.5t-54.5 117.5t-144.5 40q-134 0 -212.5 -87
t-114.5 -261q-37 -177 2.5 -261.5t180.5 -84.5zM204 -170l19 89h20l-19 -89h-20z" />
    <glyph glyph-name="uni1ECD" unicode="&#x1ecd;" horiz-adv-x="543" 
d="M184 -9q-62 0 -101 19.5t-54.5 57t-15 84.5t13.5 111q28 133 89.5 204t180.5 72q62 0 101 -19.5t54 -58.5t15 -86.5t-14 -111.5q-28 -132 -89 -202t-180 -70zM188 10q101 0 159 64t84 189q16 80 13.5 137t-39.5 88.5t-111 31.5q-102 0 -160.5 -66t-84.5 -191
q-16 -80 -12.5 -136t40.5 -86.5t111 -30.5zM141 -170l19 89h20l-19 -89h-20z" />
    <glyph glyph-name="uni1EE4" unicode="&#x1ee4;" horiz-adv-x="660" 
d="M239 -16q-104 0 -152 46t-47 127.5t23 192.5l74 352h21l-74 -352q-23 -113 -23 -190t43.5 -116.5t139.5 -39.5q131 0 199 84t105 262l74 352h22l-74 -352q-19 -90 -41 -151t-59 -113t-94.5 -77t-136.5 -25zM196 -170l19 89h20l-19 -89h-20z" />
    <glyph glyph-name="uni1EE5" unicode="&#x1ee5;" horiz-adv-x="577" 
d="M469 530h20l-80 -384l-20 -146h-19l18 137q-11 -18 -28.5 -39t-45.5 -47t-68 -42.5t-83 -16.5q-93 0 -125 50t-6 174l65 314h20l-65 -314q-25 -104 0 -154.5t115 -50.5q35 0 70 15.5t59 34.5t48 46.5t33.5 40.5t17.5 27zM143 -170l19 89h20l-19 -89h-20z" />
    <glyph glyph-name="Ygrave" unicode="&#x1ef2;" horiz-adv-x="510" 
d="M316 760h-18l-49 100h26zM527 702h28l-320 -412l-61 -290h-22l61 290l-158 412h23l150 -383z" />
    <glyph glyph-name="ygrave" unicode="&#x1ef3;" horiz-adv-x="424" 
d="M263 640h-20l-46 120h27zM423 530h25l-428 -748h-24l124 218h-6l-97 530h23l92 -511z" />
    <glyph glyph-name="uni1EF8" unicode="&#x1ef8;" horiz-adv-x="510" 
d="M283 810q-35 0 -48 -50h-20q17 69 72 69q20 0 31 -7t13.5 -16t11 -16t24.5 -7q38 0 48 50h20q-14 -69 -72 -69q-20 0 -31 7t-13.5 16t-11 16t-24.5 7zM527 702h28l-320 -412l-61 -290h-22l61 290l-158 412h23l150 -383z" />
    <glyph glyph-name="uni1EF9" unicode="&#x1ef9;" horiz-adv-x="424" 
d="M223 691q-16 0 -27 -10.5t-15.5 -20.5t-6.5 -20h-19q14 69 71 69q20 0 31 -7.5t13.5 -16t11 -16t24.5 -7.5t27 10.5t15.5 20.5t6.5 20h19q-14 -69 -71 -69q-20 0 -31 7.5t-13.5 16t-11 16t-24.5 7.5zM423 530h25l-428 -748h-24l124 218h-6l-97 530h23l92 -511z" />
    <glyph glyph-name="uni2009" unicode="&#x2009;" horiz-adv-x="80" 
 />
    <glyph glyph-name="endash" unicode="&#x2013;" horiz-adv-x="586" 
d="M57 310l4 20h429l-4 -20h-429z" />
    <glyph glyph-name="emdash" unicode="&#x2014;" horiz-adv-x="879" 
d="M57 310l4 20h722l-4 -20h-722z" />
    <glyph glyph-name="uni2016" unicode="&#x2016;" horiz-adv-x="490" 
d="M23 -180l212 1000h20l-212 -1000h-20zM173 -180l212 1000h20l-212 -1000h-20z" />
    <glyph glyph-name="quoteleft" unicode="&#x2018;" horiz-adv-x="148" 
d="M96 569h-24q4 31 30 90q12 26 26.5 51.5t23.5 37.5l9 12h20q-28 -40 -55 -101q-12 -27 -19.5 -49.5t-8.5 -31.5z" />
    <glyph glyph-name="quoteright" unicode="&#x2019;" horiz-adv-x="148" 
d="M92 569h-20q29 40 55 101q12 27 19.5 49.5t9.5 31.5l1 9h24q-4 -31 -30 -90q-12 -26 -26.5 -51.5t-23.5 -37.5z" />
    <glyph glyph-name="quotesinglbase" unicode="&#x201a;" horiz-adv-x="150" 
d="M-44 -81h-20q29 40 55 101q12 27 19.5 49.5t9.5 31.5l1 9h24q-3 -31 -30 -90q-12 -26 -26.5 -51.5t-23.5 -37.5z" />
    <glyph glyph-name="quotedblleft" unicode="&#x201c;" horiz-adv-x="237" 
d="M105 569h-24q4 31 31 90q12 26 26.5 51.5t23.5 37.5l8 12h20q-27 -40 -54 -101q-12 -27 -20 -49.5t-10 -31.5zM194 569h-24q3 31 30 90q12 26 26.5 51.5t23.5 37.5l9 12h20q-29 -40 -55 -101q-12 -27 -19.5 -49.5t-8.5 -31.5z" />
    <glyph glyph-name="quotedblright" unicode="&#x201d;" horiz-adv-x="237" 
d="M82 569h-20q29 40 55 101q12 27 19.5 49.5t9.5 31.5l1 9h24q-4 -31 -30 -90q-12 -26 -26.5 -51.5t-23.5 -37.5zM171 569h-20q29 40 55 101q12 27 19.5 49.5t8.5 31.5l2 9h24q-5 -31 -31 -90q-12 -26 -26.5 -51.5t-22.5 -37.5z" />
    <glyph glyph-name="quotedblbase" unicode="&#x201e;" horiz-adv-x="237" 
d="M-58 -103h-20q29 40 55 101q12 27 19.5 49.5t9.5 31.5l1 9h24q-4 -31 -30 -90q-12 -26 -26.5 -51.5t-23.5 -37.5zM31 -103h-20q27 40 54 101q12 27 19.5 49.5t9.5 31.5l2 9h24q-5 -31 -31 -90q-12 -26 -26.5 -51.5t-22.5 -37.5z" />
    <glyph glyph-name="dagger" unicode="&#x2020;" horiz-adv-x="502" 
d="M451 549l-4 -19h-172l-109 -530h-20l109 530h-171l4 19h171l44 211h20l-44 -211h172z" />
    <glyph glyph-name="daggerdbl" unicode="&#x2021;" horiz-adv-x="519" 
d="M464 530h-171l-62 -300h172l-4 -19h-172l-44 -211h-20l44 211h-171l4 19h171l62 300h-171l4 19h171l44 211h20l-44 -211h171z" />
    <glyph glyph-name="bullet" unicode="&#x2022;" horiz-adv-x="396" 
d="M142 250l19 90h43l-18 -90h-44z" />
    <glyph glyph-name="ellipsis" unicode="&#x2026;" horiz-adv-x="432" 
d="M10 0l23 110h23l-22 -110h-24zM118 0l23 110h24l-23 -110h-24zM226 0l23 110h24l-23 -110h-24z" />
    <glyph glyph-name="perthousand" unicode="&#x2030;" horiz-adv-x="967" 
d="M169 381q-137 0 -103 161q34 165 171 165t103 -165q-34 -161 -171 -161zM173 399q115 0 145 143q15 74 -3 110.5t-82 36.5q-113 0 -145 -147q-16 -73 2.5 -108t82.5 -35zM-1 0l597 702h28l-597 -702h-28zM381 -5q-138 0 -104 161q34 165 171 165t103 -165
q-34 -161 -170 -161zM385 13q113 0 144 143q15 73 -3 110t-82 37q-113 0 -145 -147q-16 -73 2.5 -108t83.5 -35zM694 -5q-137 0 -103 161q34 165 171 165t103 -165q-34 -161 -171 -161zM698 13q115 0 145 143q15 73 -3 110t-82 37q-113 0 -145 -147q-16 -73 2.5 -108
t82.5 -35z" />
    <glyph glyph-name="guilsinglleft" unicode="&#x2039;" horiz-adv-x="294" 
d="M221 414l-154 -154l89 -143h-25l-86 138l3 14l145 145h28z" />
    <glyph glyph-name="guilsinglright" unicode="&#x203a;" horiz-adv-x="294" 
d="M102 414l84 -145l-3 -14l-143 -138h-28l151 146l-86 151h25z" />
    <glyph glyph-name="fraction" unicode="&#x2044;" horiz-adv-x="240" 
d="M-267 -40l739 840h27l-739 -840h-27z" />
    <glyph glyph-name="uni2070" unicode="&#x2070;" horiz-adv-x="465" 
d="M142 343q-97 0 -123.5 61.5t3.5 189.5q28 132 79 192t148 60q96 0 123 -62t-3 -190q-28 -132 -79.5 -191.5t-147.5 -59.5zM146 362q79 0 128 54t75 178q27 128 4 181t-108 53q-79 0 -127 -54.5t-75 -179.5q-28 -128 -5.5 -180t108.5 -52z" />
    <glyph glyph-name="uni2074" unicode="&#x2074;" horiz-adv-x="394" 
d="M317 841l-75 -353h61l-4 -19h-61l-25 -119h-19l25 119h-255l4 19l329 353h20zM-6 488h229l69 326z" />
    <glyph glyph-name="uni2075" unicode="&#x2075;" horiz-adv-x="425" 
d="M361 816h-227l-76 -196q48 48 135 48q77 0 110.5 -43t17.5 -119q-16 -77 -66.5 -120t-131.5 -43t-115 37.5t-23 91.5h19q-10 -48 20 -78.5t103 -30.5q66 0 112.5 36.5t61.5 106.5t-14 107t-98 37q-42 0 -77.5 -15t-49.5 -29l-15 -15h-19l87 225l6 18h244z" />
    <glyph glyph-name="uni2076" unicode="&#x2076;" horiz-adv-x="452" 
d="M362 720h-20q10 45 -13 77.5t-89 32.5q-72 0 -121 -56t-80 -194q63 93 175 93q159 0 123 -166q-34 -164 -202 -164q-88 0 -116 53.5t-3 169.5q32 152 85 217t143 65q76 0 102.5 -39.5t15.5 -88.5zM210 655q-37 0 -69.5 -13t-54.5 -33.5t-34 -35.5t-20 -28
q-19 -99 6.5 -141t101.5 -42q69 0 115.5 37t61.5 108q16 74 -9.5 111t-97.5 37z" />
    <glyph glyph-name="uni2077" unicode="&#x2077;" horiz-adv-x="337" 
d="M31 350h-20q15 73 51.5 148t77 130t79 100t63.5 68l26 23h-281l4 18h308l-4 -18q-10 -9 -27.5 -24.5t-63.5 -66t-84 -102.5t-76 -128t-53 -148z" />
    <glyph glyph-name="uni2078" unicode="&#x2078;" horiz-adv-x="451" 
d="M-2 482q9 45 35.5 76t50.5 41t43 11q-26 2 -50 28.5t-14 76.5q29 133 180 133q150 0 121 -133q-10 -50 -45.5 -76.5t-62.5 -28.5q32 -1 60 -32.5t15 -95.5q-30 -139 -196 -139q-167 0 -137 139zM18 483q-13 -64 15.5 -92.5t105.5 -28.5q146 0 172 121q13 61 -14.5 89.5
t-106.5 28.5q-147 0 -172 -118zM83 714q-10 -48 14.5 -71.5t96.5 -23.5q130 0 150 95q13 60 -11.5 88t-93.5 28q-131 0 -156 -116z" />
    <glyph glyph-name="uni2079" unicode="&#x2079;" horiz-adv-x="452" 
d="M242 848q90 0 117.5 -55t-0.5 -184q-32 -149 -83 -207.5t-142 -58.5q-81 0 -112 40t-21 86h21q-9 -44 17 -75.5t99 -31.5t120.5 49.5t77.5 182.5q-63 -93 -176 -93q-158 0 -120 181q36 166 202 166zM165 520q36 0 68.5 12.5t54.5 32.5t34 34.5t21 28.5q21 114 -3.5 158
t-101.5 44q-70 0 -116 -37.5t-62 -110.5q-17 -81 7.5 -121.5t97.5 -40.5z" />
    <glyph glyph-name="Euro" unicode="&#x20ac;" horiz-adv-x="626" 
d="M431 688q91 0 130 -54t26 -131h-22q11 72 -23.5 118.5t-114.5 46.5q-172 0 -246 -236h222l-4 -19h-224q-13 -52 -15 -63q-8 -36 -13 -78h223l-4 -19h-221q-10 -108 24 -163t126 -55q69 0 126.5 44t75.5 107h21q-20 -72 -80 -122t-147 -50q-190 0 -168 239h-89l4 19h87
q5 42 13 78l15 63h-85l4 19h87q77 256 272 256z" />
    <glyph glyph-name="uni20BD" unicode="&#x20bd;" horiz-adv-x="631" 
d="M238 706h186q112 0 160 -42.5t28 -141.5t-86.5 -141.5t-177.5 -42.5h-166l-20 -98h188l-4 -19h-188l-46 -221h-21l46 221h-103l4 19h103l20 98h-102l4 21h103zM590 522q20 98 -25 131t-145 33h-165l-68 -327l165 -1q205 0 238 164z" />
    <glyph glyph-name="uni2116" unicode="&#x2116;" horiz-adv-x="1141" 
d="M631 702h22l-146 -702h-22l-315 666l-143 -666h-22l151 702h22l315 -666zM890 558q69 0 103.5 -29.5t36 -80t-10.5 -117.5q-22 -109 -72 -166.5t-150 -57.5q-98 0 -124 57.5t-4 166.5t72.5 167.5t148.5 59.5zM998 331q12 65 10.5 111t-31.5 71.5t-90 25.5
q-154 0 -196 -208q-25 -97 -1 -151t111 -54q82 0 129 52t68 153zM594 0l4 19h363l-4 -19h-363z" />
    <glyph glyph-name="uni2117" unicode="&#x2117;" horiz-adv-x="765" 
d="M442 702q74 0 126.5 -19.5t81.5 -51.5t42.5 -78.5t12 -96.5t-14.5 -108q-74 -349 -397 -349q-73 0 -125 19t-81.5 50.5t-42.5 77t-12 95t13 107.5q16 74 44.5 134t74.5 111.5t117 80t161 28.5zM669 348q12 56 13 104t-12 91t-40.5 73.5t-76 48.5t-115.5 18
q-83 0 -148.5 -26.5t-109.5 -74.5t-71.5 -105.5t-42.5 -128.5q-12 -56 -13 -103t12 -89.5t41 -72.5t76 -47.5t115 -17.5q161 0 250.5 91t121.5 239zM290 544h141q66 0 92.5 -26t11.5 -96q-15 -72 -52 -97t-104 -25h-121l-33 -154h-20zM514 422q8 28 4 47t-10 30.5t-21 17
t-28 7.5t-32 2h-121l-44 -208h121q25 0 41.5 3t36 12.5t32.5 31.5t21 57z" />
    <glyph glyph-name="uni2120" unicode="&#x2120;" horiz-adv-x="681" 
d="M205 732q61 0 82 -25.5t13 -68.5h-20q2 16 1.5 32.5t-20.5 30t-59 13.5q-48 0 -76.5 -21t-33.5 -47q-7 -33 12 -50.5t50 -24t61.5 -14t48 -31t9.5 -65.5q-8 -41 -46 -65t-95 -24q-122 0 -99 107h20q-19 -88 83 -88q48 0 79.5 20.5t37.5 49.5q7 37 -11.5 56.5t-49.5 26.5
t-61.5 14.5t-48.5 28t-10 59.5q9 40 42.5 63t90.5 23zM687 724l-73 -344h-19l65 309l-188 -310h-21l-53 311l-65 -310h-19l72 344h25l56 -318l194 318h26z" />
    <glyph glyph-name="trademark" unicode="&#x2122;" horiz-adv-x="664" 
d="M326 706h-113l-70 -326h-19l70 326h-113l4 18h245zM670 724l-72 -344h-19l65 309l-188 -310h-20l-55 311l-65 -310h-18l71 344h26l56 -318l194 318h25z" />
    <glyph glyph-name="oneeighth" unicode="&#x215b;" horiz-adv-x="863" 
d="M776 365q-10 -50 -45.5 -76.5t-62.5 -28.5q32 -1 60 -32.5t15 -95.5q-30 -139 -196 -139q-167 0 -137 139q9 45 35.5 76t50.5 41t43 11q-26 2 -50 28.5t-14 76.5q29 133 180 133q150 0 121 -133zM723 133q13 61 -14.5 89.5t-106.5 28.5q-147 0 -172 -118
q-13 -64 15.5 -92.5t105.5 -28.5q146 0 172 121zM606 269q130 0 150 95q13 60 -11.5 88t-93.5 28q-131 0 -156 -116q-10 -48 14.5 -71.5t96.5 -23.5zM674 800h27l-739 -840h-27zM18 270l99 471l-106 -48l4 21l108 48h19l-104 -492h-20z" />
    <glyph glyph-name="threeeighths" unicode="&#x215c;" horiz-adv-x="1049" 
d="M962 365q-10 -50 -45.5 -76.5t-62.5 -28.5q32 -1 60 -32.5t15 -95.5q-30 -139 -196 -139q-167 0 -137 139q9 45 35.5 76t50.5 41t43 11q-26 2 -50 28.5t-14 76.5q29 133 180 133q150 0 121 -133zM909 133q13 61 -14.5 89.5t-106.5 28.5q-147 0 -172 -118
q-13 -64 15.5 -92.5t105.5 -28.5q146 0 172 121zM792 269q130 0 150 95q13 60 -11.5 88t-93.5 28q-131 0 -156 -116q-10 -48 14.5 -71.5t96.5 -23.5zM296 422q-16 -75 -65 -117t-132 -42q-76 0 -107.5 37.5t-20.5 92.5h19q-10 -49 17.5 -79.5t95.5 -30.5t113.5 35.5
t59.5 103.5q14 67 -14.5 104t-99.5 37l-62 -7l3 18l216 162h-248l4 18h280l-4 -18l-213 -157q16 2 28 2q79 0 112 -43t18 -116zM860 800h27l-739 -840h-27z" />
    <glyph glyph-name="fiveeighths" unicode="&#x215d;" horiz-adv-x="1076" 
d="M989 365q-10 -50 -45.5 -76.5t-62.5 -28.5q32 -1 60 -32.5t15 -95.5q-30 -139 -196 -139q-167 0 -137 139q9 45 35.5 76t50.5 41t43 11q-26 2 -50 28.5t-14 76.5q29 133 180 133q150 0 121 -133zM936 133q13 61 -14.5 89.5t-106.5 28.5q-147 0 -172 -118
q-13 -64 15.5 -92.5t105.5 -28.5q146 0 172 121zM819 269q130 0 150 95q13 60 -11.5 88t-93.5 28q-131 0 -156 -116q-10 -48 14.5 -71.5t96.5 -23.5zM321 426q-16 -77 -66.5 -120t-131.5 -43t-115 37.5t-23 91.5h19q-10 -48 20 -78.5t103 -30.5q66 0 112.5 36.5t61.5 106.5
t-14 107t-98 37q-42 0 -77.5 -15t-49.5 -29l-15 -15h-19l87 225l6 18h244l-4 -18h-227l-76 -196q48 48 135 48q77 0 110.5 -43t17.5 -119zM887 800h27l-739 -840h-27z" />
    <glyph glyph-name="seveneighths" unicode="&#x215e;" horiz-adv-x="938" 
d="M485 132q9 45 35.5 76t50.5 41t43 11q-26 2 -50 28.5t-14 76.5q29 133 180 133q150 0 121 -133q-10 -50 -45.5 -76.5t-62.5 -28.5q32 -1 60 -32.5t15 -95.5q-30 -139 -196 -139q-167 0 -137 139zM505 133q-13 -64 15.5 -92.5t105.5 -28.5q146 0 172 121q13 61 -14.5 89.5
t-106.5 28.5q-147 0 -172 -118zM570 364q-10 -48 14.5 -71.5t96.5 -23.5q130 0 150 95q13 60 -11.5 88t-93.5 28q-131 0 -156 -116zM10 -40l739 840h27l-739 -840h-27zM31 270h-20q15 73 51.5 148t77 130t79 100t63.5 68l26 23h-281l4 18h308l-4 -18q-10 -9 -27.5 -24.5
t-63.5 -66t-84 -102.5t-76 -128t-53 -148z" />
    <glyph glyph-name="arrowleft" unicode="&#x2190;" horiz-adv-x="678" 
d="M588 289l-542 2l237 -183l-14 -15l-259 205l259 208l13 -14l-238 -184l543 2z" />
    <glyph glyph-name="arrowup" unicode="&#x2191;" horiz-adv-x="513" 
d="M423 333l-15 -14l-184 238l2 -543h-20l2 543l-184 -238l-14 14l206 259z" />
    <glyph glyph-name="arrowright" unicode="&#x2192;" horiz-adv-x="679" 
d="M329 506l260 -206l-260 -207l-13 14l238 184l-543 -2l-1 21l543 -2l-238 183z" />
    <glyph glyph-name="arrowdown" unicode="&#x2193;" horiz-adv-x="513" 
d="M408 272l15 -14l-205 -260l-208 260l14 13l184 -238l-2 543l21 1l-2 -543z" />
    <glyph glyph-name="arrowboth" unicode="&#x2194;" horiz-adv-x="916" 
d="M567 464l259 -208l-259 -205l-14 15l235 181l-742 2l237 -183l-14 -15l-259 205l259 208l13 -14l-238 -184l745 2l-235 182z" />
    <glyph glyph-name="arrowupdn" unicode="&#x2195;" horiz-adv-x="513" 
d="M227 -104l182 235l14 -13l-208 -259l-205 259l15 14l181 -235l2 742l-183 -237l-15 14l205 259l208 -259l-14 -13l-184 238z" />
    <glyph glyph-name="uni2196" unicode="&#x2196;" horiz-adv-x="517" 
d="M437 83l-14 -15l-383 384l39 -297h-20l-39 328l331 -36l-1 -19l-299 38z" />
    <glyph glyph-name="uni2197" unicode="&#x2197;" horiz-adv-x="516" 
d="M87 445l329 38l-37 -330l-20 1l39 299l-383 -386l-15 14l386 383l-299 -39v20z" />
    <glyph glyph-name="uni2198" unicode="&#x2198;" horiz-adv-x="517" 
d="M86 104l1 20l299 -39l-386 383l14 15l383 -384l-39 297h20l39 -329z" />
    <glyph glyph-name="uni2199" unicode="&#x2199;" horiz-adv-x="515" 
d="M435 469l-384 -383l297 39v-20l-328 -39l36 331l19 -1l-38 -299l383 386z" />
    <glyph glyph-name="minus" unicode="&#x2212;" horiz-adv-x="420" 
d="M34 296l4 19h300l-4 -19h-300z" />
    <glyph glyph-name="infinity" unicode="&#x221e;" horiz-adv-x="740" 
d="M545 447h1q73 0 98 -40t11 -103q-13 -64 -55 -103.5t-115 -39.5h-1q-31 0 -54.5 9.5t-40.5 29.5t-26.5 38t-21.5 47q-49 -60 -92.5 -92t-102.5 -32h-1q-73 0 -98 39.5t-12 103.5q14 64 56 103.5t115 39.5h1q31 0 54.5 -9.5t40.5 -29.5t26.5 -38t21.5 -47q49 60 92.5 92
t102.5 32zM149 179q29 0 54 9.5t49.5 30t40 37.5t41.5 48q-13 31 -21.5 47.5t-24 37.5t-36.5 30.5t-50 9.5q-119 0 -146 -125q-12 -58 10 -91.5t83 -33.5zM634 304q13 58 -9 91.5t-83 33.5q-29 0 -54 -9.5t-49.5 -30t-40 -37.5t-41.5 -48q13 -31 21.5 -47.5t24 -37.5
t36.5 -30.5t50 -9.5q119 0 145 125z" />
    <glyph glyph-name="approxequal" unicode="&#x2248;" horiz-adv-x="518" 
d="M414 394h19q-6 -23 -32 -48t-72 -25q-47 0 -90 27.5t-80 27.5q-34 0 -56 -19.5t-25 -35.5h-19q5 23 31.5 48t72.5 25q47 0 90 -27.5t80 -27.5q34 0 55 19t26 36zM388 274h19q-5 -23 -31 -48t-72 -25q-47 0 -90.5 27.5t-80.5 27.5q-34 0 -55.5 -19t-24.5 -36h-19
q5 23 31 48t72 25q47 0 90 -27.5t80 -27.5q34 0 56 19.5t25 35.5z" />
    <glyph glyph-name="notequal" unicode="&#x2260;" horiz-adv-x="510" 
d="M416 355h-137l-87 -110h201l-4 -19h-212l-80 -101h-23l80 101h-115l4 19h126l87 110h-190l4 19h201l77 97h23l-77 -97h126z" />
    <glyph glyph-name="lessequal" unicode="&#x2264;" horiz-adv-x="560" 
d="M462 474l-5 -20l-348 -113l296 -131l-4 -20l-319 145l3 14zM38 130l4 19h350l-4 -19h-350z" />
    <glyph glyph-name="greaterequal" unicode="&#x2265;" horiz-adv-x="550" 
d="M112 474l323 -125l-3 -14l-381 -145l4 20l352 131l-300 113zM38 130l4 19h350l-4 -19h-350z" />
    <glyph glyph-name="acutecomb.case" 
d="M-80 760l84 100h31l-92 -100h-23z" />
    <glyph glyph-name="at.case" horiz-adv-x="812" 
d="M475 772q98 0 162 -32.5t90 -88t31 -129t-15 -155.5q-30 -138 -69.5 -195.5t-96.5 -58.5h-1q-48 1 -63 33.5t-7 95.5q-61 -91 -165 -91q-63 0 -95 28t-35 76.5t8 112.5q21 105 71 163.5t142 58.5q100 0 125 -102l8 40l11 50h20l-63 -298q-17 -74 -7 -111.5t54 -37.5
q91 0 141 236q80 387 -250 387q-170 0 -270.5 -105.5t-137.5 -281.5q-19 -81 -15 -149t29 -117t85 -76.5t152 -27.5q102 0 173 32l-6 -23q-81 -28 -172 -28q-348 0 -268 389q18 86 50.5 156t83.5 127.5t127.5 89.5t172.5 32zM345 169q53 0 99 33.5t68 74.5q1 1 1 3l33 158
q0 21 -5.5 42t-17.5 43t-37 35.5t-58 13.5q-145 0 -188 -204q-20 -99 1.5 -149t103.5 -50z" />
    <glyph glyph-name="bitcoin" horiz-adv-x="542" 
d="M493 531q-13 -63 -42.5 -98.5t-98.5 -46.5q123 -24 93 -165q-18 -90 -63 -131t-157 -43l-21 -97h-19l21 97h-66l-20 -97h-19l20 97h-116l133 640h117l19 93h19l-19 -93h65l20 93h19l-20 -93q165 -5 135 -156zM99 396l186 -1q88 -1 130 32.5t56 103.5q15 70 -14.5 103
t-114.5 33h-187zM423 222q16 77 -16.5 115.5t-125.5 38.5h-187l-64 -308l187 -1q99 -1 144 33.5t62 121.5z" />
    <glyph glyph-name="braceleft.case" horiz-adv-x="348" 
d="M391 762l-4 -20q-84 0 -115 -25t-45 -93l-44 -212q-5 -24 -17.5 -40t-20.5 -20t-14 -5l6 -2t8.5 -5.5t8.5 -11.5t4.5 -18.5t-2.5 -27.5l-44 -211q-10 -43 -8 -69t28.5 -37.5t89.5 -11.5l-4 -20q-69 0 -99.5 13.5t-34 44t7.5 80.5l44 211q6 32 -7 44t-66 12l4 20
q49 0 69.5 12t26.5 42l44 212q17 81 50.5 109.5t133.5 28.5z" />
    <glyph glyph-name="braceright.case" horiz-adv-x="348" 
d="M-70 -67l4 20q83 0 114 25t44 93l44 212q11 53 54 65q-6 1 -12 4.5t-12.5 19.5t-1.5 41l43 211q10 43 8.5 69t-27.5 37.5t-89 11.5l4 20q69 0 99 -13.5t33 -44t-8 -80.5l-43 -211q-6 -32 7.5 -44t66.5 -12l-4 -20q-50 0 -70.5 -11.5t-27.5 -42.5l-44 -212
q-16 -81 -49.5 -109.5t-132.5 -28.5z" />
    <glyph glyph-name="bracketleft.case" horiz-adv-x="287" 
d="M325 740h-139l-163 -780h139l-4 -20h-159l171 820h159z" />
    <glyph glyph-name="bracketright.case" horiz-adv-x="287" 
d="M261 760l-171 -820h-159l4 20h139l163 780h-139l4 20h159z" />
    <glyph glyph-name="caroncomb.alt" 
d="M-83 640l68 120h28l-76 -120h-20z" />
    <glyph glyph-name="caroncomb.alt.case" 
d="M-58 760l65 100h29l-73 -100h-21z" />
    <glyph glyph-name="dagger.sups" horiz-adv-x="233" 
d="M220 632l-4 -18h-74l-51 -244h-18l51 244h-74l4 18h73l19 90h19l-19 -90h74z" />
    <glyph glyph-name="daggerdbl.sups" horiz-adv-x="243" 
d="M226 614h-73l-29 -136h74l-3 -18h-74l-19 -90h-19l19 90h-73l3 18h73l29 136h-74l4 18h73l19 90h19l-19 -90h74z" />
    <glyph glyph-name="eight.dnom" horiz-adv-x="451" 
d="M-2 132q9 45 35.5 76t50.5 41t43 11q-26 2 -50 28.5t-14 76.5q29 133 180 133q150 0 121 -133q-10 -50 -45.5 -76.5t-62.5 -28.5q32 -1 60 -32.5t15 -95.5q-30 -139 -196 -139q-167 0 -137 139zM18 133q-13 -64 15.5 -92.5t105.5 -28.5q146 0 172 121q13 61 -14.5 89.5
t-106.5 28.5q-147 0 -172 -118zM83 364q-10 -48 14.5 -71.5t96.5 -23.5q130 0 150 95q13 60 -11.5 88t-93.5 28q-131 0 -156 -116z" />
    <glyph glyph-name="eight.numr" horiz-adv-x="451" 
d="M-2 402q9 45 35.5 76t50.5 41t43 11q-26 2 -50 28.5t-14 76.5q29 133 180 133q150 0 121 -133q-10 -50 -45.5 -76.5t-62.5 -28.5q32 -1 60 -32.5t15 -95.5q-30 -139 -196 -139q-167 0 -137 139zM18 403q-13 -64 15.5 -92.5t105.5 -28.5q146 0 172 121q13 61 -14.5 89.5
t-106.5 28.5q-147 0 -172 -118zM83 634q-10 -48 14.5 -71.5t96.5 -23.5q130 0 150 95q13 60 -11.5 88t-93.5 28q-131 0 -156 -116z" />
    <glyph glyph-name="eight.subs" horiz-adv-x="451" 
d="M-2 -58q9 45 35.5 76t50.5 41t43 11q-26 2 -50 28.5t-14 76.5q29 133 180 133q150 0 121 -133q-10 -50 -45.5 -76.5t-62.5 -28.5q32 -1 60 -32.5t15 -95.5q-30 -139 -196 -139q-167 0 -137 139zM18 -57q-13 -64 15.5 -92.5t105.5 -28.5q146 0 172 121q13 61 -14.5 89.5
t-106.5 28.5q-147 0 -172 -118zM83 174q-10 -48 14.5 -71.5t96.5 -23.5q130 0 150 95q13 60 -11.5 88t-93.5 28q-131 0 -156 -116z" />
    <glyph glyph-name="eight.tf" horiz-adv-x="632" 
d="M32 188q10 49 34 86.5t52.5 57t52.5 29t44 10.5q-36 2 -71 40t-20 110q39 190 248 190q208 0 169 -190q-15 -72 -65 -110t-89 -40q18 -1 38 -10t42 -30t28.5 -55.5t-1.5 -87.5q-41 -198 -272 -198t-190 198zM54 188q-19 -93 22.5 -135t149.5 -42q209 0 246 177
q18 89 -21.5 131t-151.5 42q-209 0 -245 -173zM146 521q-15 -71 20.5 -105.5t136.5 -34.5q187 0 216 140q18 88 -18 129t-133 41q-187 0 -222 -170z" />
    <glyph glyph-name="exclamdown.case" horiz-adv-x="190" 
d="M132 612l19 90h20l-19 -90h-20zM5 0l115 552h20l-115 -552h-20z" />
    <glyph glyph-name="five.dnom" horiz-adv-x="425" 
d="M361 466h-227l-76 -196q48 48 135 48q77 0 110.5 -43t17.5 -119q-16 -77 -66.5 -120t-131.5 -43t-115 37.5t-23 91.5h19q-10 -48 20 -78.5t103 -30.5q66 0 112.5 36.5t61.5 106.5t-14 107t-98 37q-42 0 -77.5 -15t-49.5 -29l-15 -15h-19l87 225l6 18h244z" />
    <glyph glyph-name="five.numr" horiz-adv-x="425" 
d="M361 736h-227l-76 -196q48 48 135 48q77 0 110.5 -43t17.5 -119q-16 -77 -66.5 -120t-131.5 -43t-115 37.5t-23 91.5h19q-10 -48 20 -78.5t103 -30.5q66 0 112.5 36.5t61.5 106.5t-14 107t-98 37q-42 0 -77.5 -15t-49.5 -29l-15 -15h-19l87 225l6 18h244z" />
    <glyph glyph-name="five.subs" horiz-adv-x="425" 
d="M361 276h-227l-76 -196q48 48 135 48q77 0 110.5 -43t17.5 -119q-16 -77 -66.5 -120t-131.5 -43t-115 37.5t-23 91.5h19q-10 -48 20 -78.5t103 -30.5q66 0 112.5 36.5t61.5 106.5t-14 107t-98 37q-42 0 -77.5 -15t-49.5 -29l-15 -15h-19l87 225l6 18h244z" />
    <glyph glyph-name="five.tf" horiz-adv-x="632" 
d="M536 671h-319l-107 -287q66 69 191 69q108 0 155 -61t24 -170q-23 -110 -92.5 -171t-182.5 -61t-161.5 53t-32.5 129h21q-15 -71 29 -116t148 -45q96 0 162 54t87 157q21 104 -21.5 157.5t-139.5 53.5q-61 0 -111.5 -21.5t-69.5 -42.5l-20 -21h-21l121 323l8 20h337z" />
    <glyph glyph-name="four.dnom" horiz-adv-x="394" 
d="M317 491l-75 -353h61l-4 -19h-61l-25 -119h-19l25 119h-255l4 19l329 353h20zM-6 138h229l69 326z" />
    <glyph glyph-name="four.numr" horiz-adv-x="394" 
d="M317 761l-75 -353h61l-4 -19h-61l-25 -119h-19l25 119h-255l4 19l329 353h20zM-6 408h229l69 326z" />
    <glyph glyph-name="four.subs" horiz-adv-x="394" 
d="M317 301l-75 -353h61l-4 -19h-61l-25 -119h-19l25 119h-255l4 19l329 353h20zM-6 -52h229l69 326z" />
    <glyph glyph-name="four.tf" horiz-adv-x="632" 
d="M486 699l-1 -1l-105 -505h85l-4 -20h-85l-36 -173h-20l36 173h-359l4 20l463 509h22l-1 -3h1zM360 193l99 476l-429 -476h330z" />
    <glyph glyph-name="gravecomb.case" 
d="M14 760h-18l-49 100h26z" />
    <glyph glyph-name="guillemotleft.case" horiz-adv-x="383" 
d="M231 484l-154 -154l89 -143h-25l-86 138l3 14l145 145h28zM329 484l-154 -154l90 -143h-25l-87 138l3 14l145 145h28z" />
    <glyph glyph-name="guillemotright.case" horiz-adv-x="383" 
d="M194 329l-3 -14l-144 -138h-29l153 147l-86 150h25zM208 474l84 -145l-3 -14l-144 -138h-29l153 147l-86 150h25z" />
    <glyph glyph-name="guilsinglleft.case" horiz-adv-x="294" 
d="M234 474l-154 -154l88 -143h-25l-85 138l3 14l145 145h28z" />
    <glyph glyph-name="guilsinglright.case" horiz-adv-x="295" 
d="M115 474l84 -145l-3 -14l-144 -138h-28l152 146l-86 151h25z" />
    <glyph glyph-name="i.loclTRK" horiz-adv-x="196" 
d="M137 650l23 109h21l-23 -109h-21zM2 0l110 530h20l-110 -530h-20z" />
    <glyph glyph-name="nine.dnom" horiz-adv-x="452" 
d="M242 498q90 0 117.5 -55t-0.5 -184q-32 -149 -83 -207.5t-142 -58.5q-81 0 -112 40t-21 86h21q-9 -44 17 -75.5t99 -31.5t120.5 49.5t77.5 182.5q-63 -93 -176 -93q-158 0 -120 181q36 166 202 166zM165 170q36 0 68.5 12.5t54.5 32.5t34 34.5t21 28.5q21 114 -3.5 158
t-101.5 44q-70 0 -116 -37.5t-62 -110.5q-17 -81 7.5 -121.5t97.5 -40.5z" />
    <glyph glyph-name="nine.numr" horiz-adv-x="452" 
d="M242 768q90 0 117.5 -55t-0.5 -184q-32 -149 -83 -207.5t-142 -58.5q-81 0 -112 40t-21 86h21q-9 -44 17 -75.5t99 -31.5t120.5 49.5t77.5 182.5q-63 -93 -176 -93q-158 0 -120 181q36 166 202 166zM165 440q36 0 68.5 12.5t54.5 32.5t34 34.5t21 28.5q21 114 -3.5 158
t-101.5 44q-70 0 -116 -37.5t-62 -110.5q-17 -81 7.5 -121.5t97.5 -40.5z" />
    <glyph glyph-name="nine.subs" horiz-adv-x="452" 
d="M242 308q90 0 117.5 -55t-0.5 -184q-32 -149 -83 -207.5t-142 -58.5q-81 0 -112 40t-21 86h21q-9 -44 17 -75.5t99 -31.5t120.5 49.5t77.5 182.5q-63 -93 -176 -93q-158 0 -120 181q36 166 202 166zM165 -20q36 0 68.5 12.5t54.5 32.5t34 34.5t21 28.5q21 114 -3.5 158
t-101.5 44q-70 0 -116 -37.5t-62 -110.5q-17 -81 7.5 -121.5t97.5 -40.5z" />
    <glyph glyph-name="nine.tf" horiz-adv-x="632" 
d="M371 711q125 0 162.5 -77.5t-0.5 -265.5q-44 -212 -115 -295t-197 -83q-47 0 -83.5 12t-56.5 31t-33.5 42.5t-14 47.5t2.5 46h22q-14 -63 25.5 -110.5t141.5 -47.5q71 0 119.5 26.5t90.5 103t72 211.5q-89 -137 -250 -137q-220 0 -167 259q50 237 281 237zM263 236
q43 0 83.5 14t67 32.5t50 43t34 40t17.5 28.5q32 167 -2.5 232t-145.5 65q-209 0 -255 -217q-50 -238 151 -238z" />
    <glyph glyph-name="one.dnom" horiz-adv-x="202" 
d="M123 492h19l-104 -492h-20l99 471l-106 -48l4 21z" />
    <glyph glyph-name="one.numr" horiz-adv-x="202" 
d="M123 762h19l-104 -492h-20l99 471l-106 -48l4 21z" />
    <glyph glyph-name="one.subs" horiz-adv-x="202" 
d="M123 302h19l-104 -492h-20l99 471l-106 -48l4 21z" />
    <glyph glyph-name="one.tf" horiz-adv-x="632" 
d="M376 702l-142 -683h129l-5 -19h-273l5 19h123l139 669l3 14h21zM201 611l5 23l149 68l-5 -22z" />
    <glyph glyph-name="paragraph.alt" horiz-adv-x="456" 
d="M437 760l-157 -760h-20l153 741h-97l-154 -741h-20l69 332q-120 1 -160 47t-14 167q25 121 84 167t179 47h137z" />
    <glyph glyph-name="parenleft.case" horiz-adv-x="239" 
d="M252 760h22l-12 -15q-11 -15 -30.5 -49.5t-40.5 -80.5t-42 -118t-33 -151q-15 -118 -13.5 -208t11.5 -143l10 -53h-23q-2 7 -5 19t-8.5 53t-8 85t0 111.5t13.5 135.5q13 82 34 155t42 118.5t40 79t31 47.5z" />
    <glyph glyph-name="parenright.case" horiz-adv-x="240" 
d="M108 760h23q4 -19 8.5 -53t2 -142t-24.5 -219q-16 -80 -40 -151t-47 -115t-43.5 -77t-32.5 -47l-13 -14h-25q5 5 13.5 15t32.5 46t45 78.5t46 114t41 150.5q22 108 25.5 211.5t-3.5 152.5z" />
    <glyph glyph-name="questiondown.case" horiz-adv-x="457" 
d="M319 702l-19 -90h-20l19 90h20zM268 552h19l-10 -46q-10 -45 -28.5 -77.5t-39 -49.5t-44.5 -35.5t-45 -35t-39.5 -48.5t-27.5 -75q-18 -85 9 -125.5t104 -40.5q70 0 118 42t65 124h21q-39 -185 -208 -185q-86 0 -118 48t-13 137q9 45 28 79t40.5 52.5t46 38t46 36
t39.5 46t27 69.5z" />
    <glyph glyph-name="registered.alt" horiz-adv-x="467" 
d="M249 728q97 0 127.5 -54.5t11.5 -142.5q-19 -87 -72 -140.5t-151 -53.5q-179 0 -138 194q19 87 72.5 142t149.5 55zM371 531q17 82 -10.5 132.5t-114.5 50.5t-136 -51t-66 -132q-18 -79 10 -129t115 -50q162 0 202 179zM158 641h79q40 0 56 -14t8 -51q-6 -31 -22 -45
t-44 -18l30 -93h-20l-29 92h-66l-20 -92h-19zM281 576q7 30 -6 39.5t-41 9.5h-60l-21 -97h60q18 0 29.5 2.5t23 13.5t15.5 32z" />
    <glyph glyph-name="section.sups" horiz-adv-x="267" 
d="M252 654h-19q5 26 -4 38t-50 12q-64 0 -73 -43q-4 -20 9.5 -31t35.5 -16t43.5 -10.5t34 -20.5t6.5 -42q-7 -33 -39 -52q23 -16 16 -50q-13 -62 -102 -62q-46 0 -64 17.5t-10 53.5h18q-6 -28 7 -41t53 -13q69 0 78 46q5 26 -16 39t-49 16t-49 18.5t-15 45.5q8 40 39 55
q-22 17 -15 47q13 61 96 61q45 0 60.5 -17t8.5 -51zM216 541q5 23 -8.5 34.5t-47.5 19.5t-44 12q-27 -20 -33 -48q-4 -22 10 -32.5t46.5 -17.5t43.5 -12q28 16 33 44z" />
    <glyph glyph-name="seven.dnom" horiz-adv-x="337" 
d="M31 0h-20q15 73 51.5 148t77 130t79 100t63.5 68l26 23h-281l4 18h308l-4 -18q-10 -9 -27.5 -24.5t-63.5 -66t-84 -102.5t-76 -128t-53 -148z" />
    <glyph glyph-name="seven.numr" horiz-adv-x="337" 
d="M31 270h-20q15 73 51.5 148t77 130t79 100t63.5 68l26 23h-281l4 18h308l-4 -18q-10 -9 -27.5 -24.5t-63.5 -66t-84 -102.5t-76 -128t-53 -148z" />
    <glyph glyph-name="seven.subs" horiz-adv-x="337" 
d="M31 -190h-20q15 73 51.5 148t77 130t79 100t63.5 68l26 23h-281l4 18h308l-4 -18q-10 -9 -27.5 -24.5t-63.5 -66t-84 -102.5t-76 -128t-53 -148z" />
    <glyph glyph-name="seven.tf" horiz-adv-x="632" 
d="M161 0h-24q16 77 47.5 155.5t70 143t81 124.5t82 105t71.5 79t51 51l19 18h-399l5 20h429l-5 -20q-14 -12 -38.5 -35t-89 -95.5t-118 -147.5t-107 -184.5t-75.5 -213.5z" />
    <glyph glyph-name="six.dnom" horiz-adv-x="452" 
d="M362 370h-20q10 45 -13 77.5t-89 32.5q-72 0 -121 -56t-80 -194q63 93 175 93q159 0 123 -166q-34 -164 -202 -164q-88 0 -116 53.5t-3 169.5q32 152 85 217t143 65q76 0 102.5 -39.5t15.5 -88.5zM210 305q-37 0 -69.5 -13t-54.5 -33.5t-34 -35.5t-20 -28
q-19 -99 6.5 -141t101.5 -42q69 0 115.5 37t61.5 108q16 74 -9.5 111t-97.5 37z" />
    <glyph glyph-name="six.numr" horiz-adv-x="452" 
d="M362 640h-20q10 45 -13 77.5t-89 32.5q-72 0 -121 -56t-80 -194q63 93 175 93q159 0 123 -166q-34 -164 -202 -164q-88 0 -116 53.5t-3 169.5q32 152 85 217t143 65q76 0 102.5 -39.5t15.5 -88.5zM210 575q-37 0 -69.5 -13t-54.5 -33.5t-34 -35.5t-20 -28
q-19 -99 6.5 -141t101.5 -42q69 0 115.5 37t61.5 108q16 74 -9.5 111t-97.5 37z" />
    <glyph glyph-name="six.subs" horiz-adv-x="452" 
d="M362 180h-20q10 45 -13 77.5t-89 32.5q-72 0 -121 -56t-80 -194q63 93 175 93q159 0 123 -166q-34 -164 -202 -164q-88 0 -116 53.5t-3 169.5q32 152 85 217t143 65q76 0 102.5 -39.5t15.5 -88.5zM210 115q-37 0 -69.5 -13t-54.5 -33.5t-34 -35.5t-20 -28
q-19 -99 6.5 -141t101.5 -42q69 0 115.5 37t61.5 108q16 74 -9.5 111t-97.5 37z" />
    <glyph glyph-name="six.tf" horiz-adv-x="632" 
d="M383 711q45 0 78.5 -12t51 -31t29 -43t10.5 -48.5t-4 -46.5h-22q8 28 3 56.5t-19 52t-48 38t-83 14.5q-105 0 -173.5 -82t-114.5 -288q87 140 250 140q222 0 172 -236q-49 -235 -280 -235q-122 0 -162 76.5t-6 241.5q45 217 119.5 310t198.5 93zM337 441q-55 0 -103 -20
t-80 -52t-47 -52t-25 -38q-27 -144 10.5 -206t144.5 -62q209 0 254 214q23 109 -14.5 162.5t-139.5 53.5z" />
    <glyph glyph-name="three.dnom" horiz-adv-x="398" 
d="M355 484l-4 -18l-213 -157q16 2 28 2q79 0 112 -43t18 -116q-16 -75 -65 -117t-132 -42q-76 0 -107.5 37.5t-20.5 92.5h19q-10 -49 17.5 -79.5t95.5 -30.5t113.5 35.5t59.5 103.5q14 67 -14.5 104t-99.5 37l-62 -7l3 18l216 162h-248l4 18h280z" />
    <glyph glyph-name="three.numr" horiz-adv-x="398" 
d="M355 754l-4 -18l-213 -157q16 2 28 2q79 0 112 -43t18 -116q-16 -75 -65 -117t-132 -42q-76 0 -107.5 37.5t-20.5 92.5h19q-10 -49 17.5 -79.5t95.5 -30.5t113.5 35.5t59.5 103.5q14 67 -14.5 104t-99.5 37l-62 -7l3 18l216 162h-248l4 18h280z" />
    <glyph glyph-name="three.subs" horiz-adv-x="398" 
d="M355 294l-4 -18l-213 -157q16 2 28 2q79 0 112 -43t18 -116q-16 -75 -65 -117t-132 -42q-76 0 -107.5 37.5t-20.5 92.5h19q-10 -49 17.5 -79.5t95.5 -30.5t113.5 35.5t59.5 103.5q14 67 -14.5 104t-99.5 37l-62 -7l3 18l216 162h-248l4 18h280z" />
    <glyph glyph-name="three.tf" horiz-adv-x="632" 
d="M547 691l-5 -20l-304 -231q21 3 46 3q110 0 155.5 -61.5t23.5 -164.5q-22 -107 -89.5 -167t-183.5 -60q-106 0 -150.5 53t-28.5 129h20q-15 -71 26 -116t137 -45q99 0 163 52.5t85 153.5q20 98 -21 152t-141 54q-18 0 -39.5 -2.5t-34.5 -4.5l-12 -3l4 20l309 238h-354
l5 20h389z" />
    <glyph glyph-name="tildecomb.case" 
d="M9 833h20q-14 -69 -72 -69q-20 0 -31 7t-13.5 16t-11 16t-24.5 7q-35 0 -48 -50h-20q17 69 72 69q20 0 31 -7t13.5 -16t11 -16t24.5 -7q38 0 48 50z" />
    <glyph glyph-name="two.dnom" horiz-adv-x="385" 
d="M-50 4l5 25q85 62 178 136q57 45 82 67.5t50 57t33 72.5q24 116 -101 116q-57 0 -98 -29.5t-53 -83.5h-20q14 62 60 96.5t115 34.5q68 0 99 -35t18 -98q-12 -58 -48 -99.5t-117 -106.5l-174 -134h276l-4 -19h-301z" />
    <glyph glyph-name="two.numr" horiz-adv-x="385" 
d="M-50 274l5 25q85 62 178 136q57 45 82 67.5t50 57t33 72.5q24 116 -101 116q-57 0 -98 -29.5t-53 -83.5h-20q14 62 60 96.5t115 34.5q68 0 99 -35t18 -98q-12 -58 -48 -99.5t-117 -106.5l-174 -134h276l-4 -19h-301z" />
    <glyph glyph-name="two.subs" horiz-adv-x="385" 
d="M-50 -186l5 25q85 62 178 136q57 45 82 67.5t50 57t33 72.5q24 116 -101 116q-57 0 -98 -29.5t-53 -83.5h-20q14 62 60 96.5t115 34.5q68 0 99 -35t18 -98q-12 -58 -48 -99.5t-117 -106.5l-174 -134h276l-4 -19h-301z" />
    <glyph glyph-name="two.tf" horiz-adv-x="632" 
d="M11 6l6 30q120 90 252 197q60 48 90 74.5t64.5 63t52 71.5t26.5 77q35 169 -146 169q-82 0 -140.5 -43.5t-74.5 -121.5h-21q17 86 81.5 135.5t158.5 49.5q95 0 138.5 -49.5t24.5 -138.5q-18 -84 -69 -144.5t-164 -152.5q-58 -48 -120.5 -97t-95.5 -74l-33 -25h394l-5 -21
h-419z" />
    <glyph glyph-name="uni0302.case" 
d="M13 760h-26l-59 72l-90 -72h-29l116 95h14z" />
    <glyph glyph-name="uni0304.case" 
d="M-168 809h192l-5 -20h-192z" />
    <glyph glyph-name="uni0306.case" 
d="M7 839h23q-6 -29 -33.5 -54t-79.5 -25q-47 0 -66.5 25.5t-13.5 53.5h21q-5 -23 10 -41t54 -18q36 0 58.5 18.5t26.5 40.5z" />
    <glyph glyph-name="uni0307.case" 
d="M-8 760l23 109h21l-23 -109h-21z" />
    <glyph glyph-name="uni0308.case" 
d="M-125 760l23 109h21l-23 -109h-21zM-8 760l22 109h21l-22 -109h-21z" />
    <glyph glyph-name="uni030A.case" 
d="M-52 760q-28 0 -40.5 17t-7.5 43t25.5 43t48.5 17t40.5 -17t7.5 -43t-25 -43t-49 -17zM-48 778q17 0 31 11.5t18 30.5q10 42 -31 42q-18 0 -31.5 -11.5t-17.5 -30.5q-8 -42 31 -42z" />
    <glyph glyph-name="uni030B.case" 
d="M-179 760l77 100h28l-84 -100h-21zM-79 760l85 100h29l-93 -100h-21z" />
    <glyph glyph-name="uni030C.case" 
d="M5 855h29l-115 -95h-15l-74 95h26l58 -72z" />
    <glyph glyph-name="uni0338.case" 
d="M-491 23l629 717h28l-629 -717h-28z" />
    <glyph glyph-name="zero.dnom" horiz-adv-x="465" 
d="M142 -7q-97 0 -123.5 61.5t3.5 189.5q28 132 79 192t148 60q96 0 123 -62t-3 -190q-28 -132 -79.5 -191.5t-147.5 -59.5zM146 12q79 0 128 54t75 178q27 128 4 181t-108 53q-79 0 -127 -54.5t-75 -179.5q-28 -128 -5.5 -180t108.5 -52z" />
    <glyph glyph-name="zero.numr" horiz-adv-x="465" 
d="M142 263q-97 0 -123.5 61.5t3.5 189.5q28 132 79 192t148 60q96 0 123 -62t-3 -190q-28 -132 -79.5 -191.5t-147.5 -59.5zM146 282q79 0 128 54t75 178q27 128 4 181t-108 53q-79 0 -127 -54.5t-75 -179.5q-28 -128 -5.5 -180t108.5 -52z" />
    <glyph glyph-name="zero.subs" horiz-adv-x="465" 
d="M142 -197q-97 0 -123.5 61.5t3.5 189.5q28 132 79 192t148 60q96 0 123 -62t-3 -190q-28 -132 -79.5 -191.5t-147.5 -59.5zM146 -178q79 0 128 54t75 178q27 128 4 181t-108 53q-79 0 -127 -54.5t-75 -179.5q-28 -128 -5.5 -180t108.5 -52z" />
    <glyph glyph-name="zero.tf" horiz-adv-x="632" 
d="M228 -10q-134 0 -171 88t4 270q39 188 110.5 274t205.5 86q133 0 170.5 -89t-4.5 -271q-39 -188 -110.5 -273t-204.5 -85zM232 11q114 0 182.5 77.5t106.5 259.5q39 185 5.5 262.5t-153.5 77.5q-114 0 -183 -78.5t-107 -261.5q-39 -185 -5.5 -261t154.5 -76z" />
    </font>
</defs>
</svg>
