<svg xmlns="http://www.w3.org/2000/svg">
<defs>
<font id="TofinoPersonal-Regular" horiz-adv-x="0" >
  <font-face 
    font-family="Tofino Personal Regular"
    font-weight="430"
    font-stretch="normal"
    units-per-em="1000"
    panose-1="2 0 0 0 0 0 0 0 0 0"
    ascent="760"
    descent="-240"
    x-height="535"
    cap-height="712"
    bbox="-762 -268 1145 1125"
    underline-thickness="50"
    underline-position="-225"
    unicode-range="U+000D-FB04"
  />
<missing-glyph horiz-adv-x="671" 
d="M362 540q8 -13 55 -18q1 -1 4 -1q1 1 1 3l4 9q-42 39 -54 36q-5 -2 -9 -14q-3 -10 -1 -15zM464 495l5 -1q15 0 17 11q2 9 -1 13q-3 5 -12 8q-1 1 -5 1q-14 0 -17 -11q-1 -5 2 -12q4 -8 11 -9zM582 486q4 2 2 16q0 10 -5 15q-12 8 -57 -7q-2 -1 -5 -1q0 -9 -2 -13
q2 -1 3 -1q56 -15 64 -9zM306 239q4 16 -3 25l-2 3h-1q-24 12 -85 12q-22 0 -38.5 -2.5t-22 -5.5t-5.5 -4q-3 -25 6 -50t31 -29q15 -3 38 -3q38 0 54 6q17 11 28 48zM485 188q22 2 30.5 27t6.5 52q-12 12 -67 12q-60 0 -84 -12q-1 0 -1 -2l-3 -1q-7 -8 -2 -25q3 -33 28 -48
q14 -6 52 -6q7 0 40 3zM511 465q77 -80 77 -194q0 -112 -74.5 -191t-178.5 -79t-177.5 79t-73.5 191q0 119 80 197q-27 39 -10 82q16 40 67 66t114 26q65 0 118 -27t70 -70q0 -1 1 -3q52 15 72 -1q18 -13 19 -38q2 -27 -14 -41q-13 -9 -31 -9q-17 0 -59 12zM241 439
q22 -44 102 -78t207 -28q-21 82 -85 132q-7 0 -10 1q-20 7 -28 23h-1q-2 1 -6.5 1.5t-6.5 0.5q-45 6 -62 18q-6 1 -16 1q-47 0 -88 -19q-20 -24 -6 -52zM182 539q-10 -25 5 -50q65 51 144 52q-1 11 3 26q13 28 32 32q29 6 80 -43l3 -2q12 4 19 4q1 0 13 -3q-22 26 -63 41
t-83 15q-52 0 -96 -21t-57 -51zM205 465q-69 -57 -85 -143q37 -1 78 12.5t66 34.5q-36 27 -50 57q-9 20 -9 39zM133 291l10 -9q20 11 72 11q67 0 91 -12q30 -15 59 0q24 12 90 12q54 0 72 -11q10 15 18 21q-10 -1 -31 -1q-133 0 -223 50q-28 -25 -71.5 -42t-86.5 -19z
M335 31q92 0 157 70.5t65 169.5q0 14 -1 21q-10 -9 -20 -23v-1q4 -35 -9 -64t-41 -32q-20 -2 -41 -2q-43 0 -60 9q-27 15 -36 57q-1 3 -1 6q-3 13 -14 13q-8 0 -11 -13q-2 -1 -2 -6q-9 -43 -37 -57q-14 -9 -60 -9q-21 0 -39 2q-28 3 -41.5 32t-9.5 64v1l-19 18v-16

<glyph glyph-name="f_f" unicode="ff" horiz-adv-x="644" 
d="M637 685h-43q-48 0 -67 -29.5t-19 -102.5v-14h127v-81h-127v-458h-100v458h-214v-458h-100v458h-74v81h74v14q0 51 5.5 84.5t22.5 65.5t52.5 47.5t91.5 15.5h57v-81h-44q-48 0 -66.5 -29.5t-18.5 -102.5v-14h214v14q0 40 3 68.5t13.5 57.5t29 47t50.5 29t77 11h56v-81z
" />
    <glyph glyph-name="fi" unicode="fi" horiz-adv-x="578" 
d="M323 685h-44q-48 0 -66.5 -29.5t-18.5 -102.5v-14h127v-81h-127v-458h-100v458h-74v81h74v14q0 51 5.5 84.5t22.5 65.5t52.5 47.5t91.5 15.5h57v-81zM407 625v135h100v-135h-100zM405 0v539h100v-539h-100z" />
    <glyph glyph-name="fl" unicode="fl" horiz-adv-x="593" 
d="M323 685h-44q-48 0 -66.5 -29.5t-18.5 -102.5v-14h127v-81h-127v-458h-100v458h-74v81h74v14q0 51 5.5 84.5t22.5 65.5t52.5 47.5t91.5 15.5h57v-81zM411 0v760h100v-760h-100z" />
    <glyph glyph-name="f_f_i" unicode="ffi" horiz-adv-x="891" 
d="M409 539v14q0 51 5.5 84.5t22.5 65.5t52.5 47.5t91.5 15.5h57v-81h-44q-48 0 -66.5 -29.5t-18.5 -102.5v-14h121v-81h-121v-458h-100v458h-215v-458h-100v458h-74v81h74v14q0 51 5.5 84.5t22.5 65.5t52.5 47.5t91.5 15.5h57v-81h-44q-48 0 -66.5 -29.5t-18.5 -102.5v-14
h215zM720 763h100v-141h-100v141zM717 0v539h100v-539h-100z" />
    <glyph glyph-name="f_f_l" unicode="ffl" horiz-adv-x="905" 
d="M408 539v14q0 40 3 68.5t13.5 57.5t29 47t50.5 29t77 11h56v-81h-43q-48 0 -67 -29.5t-19 -102.5v-14h122v-81h-122v-458h-100v458h-214v-458h-100v458h-74v81h74v14q0 51 5.5 84.5t22.5 65.5t52.5 47.5t91.5 15.5h57v-81h-44q-48 0 -66.5 -29.5t-18.5 -102.5v-14h214z
M723 760h100v-760h-100v760z" />
    <glyph glyph-name=".notdef" horiz-adv-x="671" 
d="M362 540q8 -13 55 -18q1 -1 4 -1q1 1 1 3l4 9q-42 39 -54 36q-5 -2 -9 -14q-3 -10 -1 -15zM464 495l5 -1q15 0 17 11q2 9 -1 13q-3 5 -12 8q-1 1 -5 1q-14 0 -17 -11q-1 -5 2 -12q4 -8 11 -9zM582 486q4 2 2 16q0 10 -5 15q-12 8 -57 -7q-2 -1 -5 -1q0 -9 -2 -13
q2 -1 3 -1q56 -15 64 -9zM306 239q4 16 -3 25l-2 3h-1q-24 12 -85 12q-22 0 -38.5 -2.5t-22 -5.5t-5.5 -4q-3 -25 6 -50t31 -29q15 -3 38 -3q38 0 54 6q17 11 28 48zM485 188q22 2 30.5 27t6.5 52q-12 12 -67 12q-60 0 -84 -12q-1 0 -1 -2l-3 -1q-7 -8 -2 -25q3 -33 28 -48
q14 -6 52 -6q7 0 40 3zM511 465q77 -80 77 -194q0 -112 -74.5 -191t-178.5 -79t-177.5 79t-73.5 191q0 119 80 197q-27 39 -10 82q16 40 67 66t114 26q65 0 118 -27t70 -70q0 -1 1 -3q52 15 72 -1q18 -13 19 -38q2 -27 -14 -41q-13 -9 -31 -9q-17 0 -59 12zM241 439
q22 -44 102 -78t207 -28q-21 82 -85 132q-7 0 -10 1q-20 7 -28 23h-1q-2 1 -6.5 1.5t-6.5 0.5q-45 6 -62 18q-6 1 -16 1q-47 0 -88 -19q-20 -24 -6 -52zM182 539q-10 -25 5 -50q65 51 144 52q-1 11 3 26q13 28 32 32q29 6 80 -43l3 -2q12 4 19 4q1 0 13 -3q-22 26 -63 41
t-83 15q-52 0 -96 -21t-57 -51zM205 465q-69 -57 -85 -143q37 -1 78 12.5t66 34.5q-36 27 -50 57q-9 20 -9 39zM133 291l10 -9q20 11 72 11q67 0 91 -12q30 -15 59 0q24 12 90 12q54 0 72 -11q10 15 18 21q-10 -1 -31 -1q-133 0 -223 50q-28 -25 -71.5 -42t-86.5 -19z
M335 31q92 0 157 70.5t65 169.5q0 14 -1 21q-10 -9 -20 -23v-1q4 -35 -9 -64t-41 -32q-20 -2 -41 -2q-43 0 -60 9q-27 15 -36 57q-1 3 -1 6q-3 13 -14 13q-8 0 -11 -13q-2 -1 -2 -6q-9 -43 -37 -57q-14 -9 -60 -9q-21 0 -39 2q-28 3 -41.5 32t-9.5 64v1l-19 18v-16
q0 -99 64.5 -169.5t155.5 -70.5zM403 106q0 -20 -20 -33.5t-49 -13.5t-49 13.5t-20 33.5q0 19 20.5 32.5t48.5 13.5t48.5 -13.5t20.5 -32.5zM249 269l-4 -18q14 -8 14 -26q0 -13 -9 -22t-22 -9q-12 0 -21.5 9t-9.5 22q0 6 2 10l-14 11q-4 3 0 7q2 2 6 0l12 -11l3 6l-7 14
q-2 1 -1.5 3t2.5 3q4 2 6 -3l8 -12q0 1 2 1t3 1l-2 16q0 5 5 5q3 0 5 -4l1 -16q2 0 4.5 -0.5t3.5 -0.5l4 17q2 4 6 4q4 -3 3 -7zM491 253q1 -4 -1 -7l-13 -13q0 -1 0.5 -3.5t0.5 -4.5q0 -13 -9.5 -22t-22.5 -9q-12 0 -21 9t-9 22q0 18 15 26l-5 18q0 4 4 7q5 0 5 -4l4 -17
q2 1 7 1l3 16q0 4 5 4q4 0 4 -5l-3 -16l7 -2l7 12q3 5 5 3q2 -1 3 -3t0 -3l-9 -14q4 -3 4 -6l13 11q1 1 3 1t3 -1z" />
    <glyph glyph-name=".null" 
 />
    <glyph glyph-name="nonmarkingreturn" horiz-adv-x="333" 
 />
    <glyph glyph-name="NULL" 
 />
    <glyph glyph-name="NULL" 
 />
    <glyph glyph-name="CR" unicode="&#xd;" horiz-adv-x="207" 
 />
    <glyph glyph-name="space" unicode=" " horiz-adv-x="207" 
 />
    <glyph glyph-name="exclam" unicode="!" horiz-adv-x="263" 
d="M88 176l-7 536h100l-7 -536h-86zM81 0v116h100v-116h-100z" />
    <glyph glyph-name="quotedbl" unicode="&#x22;" horiz-adv-x="351" 
d="M48 546l-11 208h109l-11 -208h-87zM216 546l-10 208h108l-11 -208h-87z" />
    <glyph glyph-name="numbersign" unicode="#" horiz-adv-x="763" 
d="M674 457h-113l-37 -188h103v-72h-118l-39 -197h-93l39 197h-147l-39 -197h-93l39 197h-101v72h116l37 188h-106v72h120l35 173h93l-35 -173h147l35 173h93l-35 -173h99v-72zM431 269l37 188h-147l-37 -188h147z" />
    <glyph glyph-name="dollar" unicode="$" horiz-adv-x="565" 
d="M525 219q0 -83 -53.5 -130t-154.5 -54v-93h-65v93q-104 6 -155.5 57.5t-51.5 155.5h94q0 -117 113 -130v219q-46 11 -73.5 21t-60 31t-48.5 56.5t-16 86.5q0 77 50 123.5t148 52.5v62h65v-62q193 -15 193 -196h-93q0 98 -100 112v-210q38 -9 61 -16t54.5 -22t49 -34
t30.5 -50.5t13 -72.5zM153 530q0 -41 25.5 -63t73.5 -37v194q-51 -6 -75 -32t-24 -62zM317 321v-203q52 7 80 33t28 64q0 45 -27.5 68t-80.5 38z" />
    <glyph glyph-name="percent" unicode="%" horiz-adv-x="794" 
d="M199 362q-89 0 -127 44.5t-38 129.5q0 86 38.5 131.5t126.5 45.5q90 0 127.5 -45t37.5 -132q0 -86 -37.5 -130t-127.5 -44zM199 425q48 0 67 26.5t19 84.5t-19 86t-67 28q-47 0 -66.5 -28.5t-19.5 -85.5t19.5 -84t66.5 -27zM120 0l460 702h88l-460 -702h-88zM586 -12
q-89 0 -127.5 44.5t-38.5 129.5q0 87 38.5 132.5t127.5 45.5t127 -45.5t38 -132.5q0 -86 -38 -130t-127 -44zM586 51q48 0 67 26.5t19 84.5t-19 86.5t-67 28.5t-67.5 -28.5t-19.5 -86.5q0 -57 19.5 -84t67.5 -27z" />
    <glyph glyph-name="ampersand" unicode="&#x26;" horiz-adv-x="746" 
d="M591 132l122 -132h-115l-55 55q-70 -73 -208 -73q-253 0 -253 220q0 152 128 208q-51 62 -51 138q0 178 202 178q107 0 149.5 -51.5t42.5 -144.5h-104q0 106 -88 106q-92 0 -92 -88q0 -22 6 -43t14.5 -37t27 -39t32.5 -38t44 -46t49 -52l77 -84q17 63 17 152h91
q0 -145 -36 -229zM335 73q92 0 140 51q-81 83 -153 163q-7 8 -58 62q-79 -45 -79 -140q0 -136 150 -136z" />
    <glyph glyph-name="quotesingle" unicode="'" horiz-adv-x="170" 
d="M41 546l-10 208h108l-11 -208h-87z" />
    <glyph glyph-name="parenleft" unicode="(" horiz-adv-x="330" 
d="M184 760h100q-4 -8 -11 -23t-25 -64t-32 -101.5t-25 -132t-11 -158.5t13 -157.5t31 -133.5t36 -98.5t31 -65.5l13 -21h-100q-5 7 -13.5 21t-30 61.5t-37.5 99t-29.5 132t-13.5 162.5t10.5 162t26 134.5t31 97.5t26.5 64z" />
    <glyph glyph-name="parenright" unicode=")" horiz-adv-x="330" 
d="M46 760h100l11 -22t25 -62t32 -100t25 -132.5t11 -162.5t-13 -161.5t-31 -134t-36 -97t-31 -62.5l-13 -21h-100q5 8 13.5 22.5t30 63t37.5 100.5t29.5 131.5t13.5 158.5t-10.5 157.5t-26 134t-31 99.5t-26.5 66z" />
    <glyph glyph-name="asterisk" unicode="*" horiz-adv-x="416" 
d="M60 585l19 84l96 -36l-10 95h86l-9 -95l96 36l18 -84l-96 -13l73 -79l-72 -50l-53 84l-53 -84l-72 50l74 79z" />
    <glyph glyph-name="plus" unicode="+" horiz-adv-x="502" 
d="M449 365v-81h-155v-157h-87v157h-154v81h154v157h87v-157h155z" />
    <glyph glyph-name="comma" unicode="," horiz-adv-x="267" 
d="M115 -122h-89q30 61 46 136q8 33 12 61t4 39l1 12h103q0 -44 -21 -119q-10 -36 -24 -68t-23 -47z" />
    <glyph glyph-name="hyphen" unicode="-" horiz-adv-x="389" 
d="M71 281v78h246v-78h-246z" />
    <glyph glyph-name="period" unicode="." horiz-adv-x="247" 
d="M73 0v125h101v-125h-101z" />
    <glyph glyph-name="slash" unicode="/" horiz-adv-x="504" 
d="M60 -40l310 840h101l-310 -840h-101z" />
    <glyph glyph-name="zero" unicode="0" horiz-adv-x="656" 
d="M328 -11q-149 0 -208.5 85t-59.5 273q0 197 59 284.5t209 87.5t209 -87.5t59 -284.5q0 -188 -59.5 -273t-208.5 -85zM328 80q90 0 127 60t37 207q0 155 -37 218t-127 63t-127 -63t-37 -218q0 -147 37 -207t127 -60z" />
    <glyph glyph-name="one" unicode="1" horiz-adv-x="327" 
d="M152 712h83v-712h-103v608l-139 -67v96z" />
    <glyph glyph-name="two" unicode="2" horiz-adv-x="539" 
d="M28 2v92l28 23q27 23 77 67t94 86q88 83 111 111q51 63 51 125q0 124 -126 124q-133 0 -133 -126h-104q0 217 237 217q229 0 229 -214q0 -55 -24 -107t-51 -83.5t-79 -83.5q-38 -38 -81.5 -74.5t-68.5 -54.5l-24 -17l326 3v-88h-462z" />
    <glyph glyph-name="three" unicode="3" horiz-adv-x="552" 
d="M492 615l-210 -159q112 -10 170.5 -68.5t58.5 -162.5q0 -114 -63.5 -173.5t-189.5 -59.5q-115 0 -177 59t-62 155h96q0 -49 36.5 -86t106.5 -37q75 0 111.5 38.5t36.5 103.5t-40.5 103.5t-127.5 38.5q-18 0 -39.5 -2t-34.5 -4l-12 -2v89l210 165l-312 -5v88h442v-81z" />
    <glyph glyph-name="four" unicode="4" horiz-adv-x="570" 
d="M546 232v-91h-86v-141h-103l1 141h-341v91l338 468h105v-468h86zM126 232h233l2 330z" />
    <glyph glyph-name="five" unicode="5" horiz-adv-x="576" 
d="M313 468q109 0 168.5 -63t59.5 -178q0 -235 -254 -235q-120 0 -182 56.5t-62 144.5h97q0 -40 38 -75t109 -35q75 0 112 38.5t37 105.5q0 66 -38.5 108t-110.5 42q-29 0 -53.5 -7t-39 -16.5t-24.5 -19t-14 -16.5l-3 -7l-92 1l45 296l12 88h386v-88h-305l-28 -184
q57 44 142 44z" />
    <glyph glyph-name="six" unicode="6" horiz-adv-x="628" 
d="M347 466q63 0 108 -19.5t70 -54.5t36.5 -76.5t11.5 -91.5q0 -107 -61.5 -171t-194.5 -64q-137 -1 -197 78.5t-60 245.5q0 218 60.5 312.5t196.5 94.5q64 0 111 -18t72.5 -48t37.5 -63t12 -69h-106q0 40 -32.5 73.5t-94.5 33.5q-69 0 -104 -49t-44 -182q70 68 178 68z
M317 80q74 0 112.5 37t38.5 107q0 71 -34.5 111t-106.5 40q-106 0 -162 -81q3 -117 40.5 -165.5t111.5 -48.5z" />
    <glyph glyph-name="seven" unicode="7" horiz-adv-x="480" 
d="M211 0h-103q0 93 26 189.5t63 168.5t73.5 130t62.5 88l26 31h-362v91h475v-91q-11 -12 -28.5 -33t-62.5 -88t-79.5 -135t-62.5 -165t-28 -186z" />
    <glyph glyph-name="eight" unicode="8" horiz-adv-x="620" 
d="M50 201q0 45 15 81.5t37 56.5t42 31t34 12q-29 4 -67 41t-38 103q0 196 237 196t237 -196q0 -66 -38 -103t-68 -41q14 -1 34 -12t42 -31t37.5 -56.5t15.5 -81.5q0 -102 -60.5 -156.5t-199.5 -54.5t-199.5 54.5t-60.5 156.5zM155 207q0 -126 155 -126t155 126
q0 127 -155 127t-155 -127zM178 517q0 -99 132 -99t132 99q0 115 -132 115t-132 -115z" />
    <glyph glyph-name="nine" unicode="9" horiz-adv-x="630" 
d="M313 720q134 1 195.5 -80.5t61.5 -252.5q0 -218 -58 -308t-199 -90q-69 0 -119.5 18.5t-76.5 49.5t-38 63t-12 66h105q0 -40 34 -73t107 -33q72 0 105 43.5t43 168.5q-71 -71 -178 -71q-116 0 -171 71.5t-55 185.5q0 110 63 175.5t193 66.5zM303 312q107 0 162 76
q0 135 -37 188t-115 53q-151 0 -151 -151q0 -166 141 -166z" />
    <glyph glyph-name="colon" unicode=":" horiz-adv-x="261" 
d="M80 386v126h101v-126h-101zM80 34v125h101v-125h-101z" />
    <glyph glyph-name="semicolon" unicode=";" horiz-adv-x="282" 
d="M98 353v122h101v-122h-101zM117 -122h-89q30 61 46 136q8 33 12 61t4 39l1 12h103q0 -44 -21 -119q-10 -36 -24 -68t-23 -47z" />
    <glyph glyph-name="less" unicode="&#x3c;" horiz-adv-x="552" 
d="M465 499v-91l-326 -96l326 -96v-91l-411 145v84z" />
    <glyph glyph-name="equal" unicode="=" horiz-adv-x="547" 
d="M73 352v84h402v-84h-402zM73 183v85h402v-85h-402z" />
    <glyph glyph-name="greater" unicode="&#x3e;" horiz-adv-x="545" 
d="M80 499l412 -145v-84l-412 -145v91l326 96l-326 96v91z" />
    <glyph glyph-name="question" unicode="?" horiz-adv-x="521" 
d="M290 176h-94l1 26q0 53 15.5 93.5t38 65t45 47t38 52.5t15.5 69q0 115 -106 115q-57 0 -81 -35t-24 -106h-101q0 117 51 175t158 58q204 0 204 -194q0 -52 -16.5 -92t-40 -66t-47 -50.5t-40 -57.5t-16.5 -74v-26zM193 0v116h100v-116h-100z" />
    <glyph glyph-name="at" unicode="@" horiz-adv-x="893" 
d="M833 277q0 -258 -150 -260h-1q-94 0 -122 97q-47 -67 -144 -67q-90 0 -132.5 57.5t-42.5 173.5q0 233 175 233q84 0 137 -65l10 58h78v-304q0 -63 13 -91.5t41 -28.5q21 0 35.5 12.5t25.5 58.5t11 126q0 77 -16.5 138t-52 110.5t-99 76.5t-151.5 27q-86 0 -149 -27.5
t-98.5 -77.5t-51.5 -111t-16 -136q0 -76 14.5 -134.5t49 -107t98 -74.5t154.5 -26q129 0 194 32v-64q-76 -28 -195 -28q-203 0 -295.5 108t-92.5 294q0 90 21 162t65 129.5t120.5 88.5t181.5 31q104 0 180 -31t120 -87.5t64.5 -129t20.5 -163.5zM438 116q83 0 112 80v177
q-37 70 -112 70q-48 0 -75.5 -42t-27.5 -123q0 -162 103 -162z" />
    <glyph glyph-name="A" unicode="A" horiz-adv-x="649" 
d="M535 0l-62 171h-304l-61 -171h-103l271 712h99l269 -712h-109zM202 262h239l-120 332z" />
    <glyph glyph-name="B" unicode="B" horiz-adv-x="667" 
d="M483 369q75 -18 102 -60.5t27 -113.5q0 -40 -5.5 -68t-22.5 -54.5t-47.5 -42t-81.5 -24.5t-123 -9h-244v718h247q76 0 127 -13t78.5 -39t38.5 -58t11 -76q0 -63 -22.5 -102t-84.5 -58zM333 629h-142v-220l142 -1q90 0 122 26t32 85q0 58 -34 84t-120 26zM191 83h142
q105 0 140 27t35 95q0 64 -37 93t-138 29h-142v-244z" />
    <glyph glyph-name="C" unicode="C" horiz-adv-x="674" 
d="M351 -18q-156 0 -223.5 91.5t-67.5 281.5q0 191 67.5 283t223.5 92q264 0 268 -267h-101q-4 93 -44.5 134.5t-122.5 41.5q-102 0 -144.5 -66t-42.5 -218q0 -151 42.5 -216.5t144.5 -65.5q80 0 120.5 40.5t44.5 131.5h101q-3 -134 -69 -198.5t-197 -64.5z" />
    <glyph glyph-name="D" unicode="D" horiz-adv-x="694" 
d="M88 715h191q107 0 176.5 -20t109 -66.5t54.5 -110.5t15 -163t-15 -162.5t-54.5 -109.5t-109 -66t-176.5 -20h-191v718zM191 88h92q147 0 196.5 53.5t49.5 213.5q0 163 -49 216t-197 53h-92v-536z" />
    <glyph glyph-name="E" unicode="E" horiz-adv-x="590" 
d="M191 91h369v-91h-472v712h466v-91h-363v-208h313v-89h-313v-233z" />
    <glyph glyph-name="F" unicode="F" horiz-adv-x="552" 
d="M542 621h-351v-226h301v-91h-301v-304h-103v712h454v-91z" />
    <glyph glyph-name="G" unicode="G" horiz-adv-x="683" 
d="M616 353v-265q0 -6 -9 -17.5t-30.5 -27t-50.5 -29t-75.5 -23t-99.5 -9.5q-156 -1 -223.5 89.5t-67.5 283.5q0 192 67.5 283.5t223.5 91.5q135 0 201 -65.5t66 -182.5h-101q-1 74 -43.5 115.5t-122.5 41.5q-102 0 -144.5 -66.5t-42.5 -217.5q0 -150 44.5 -216t149.5 -66
q48 0 88 10.5t57.5 21.5t16.5 18v144h-133v86h229z" />
    <glyph glyph-name="H" unicode="H" horiz-adv-x="712" 
d="M522 712h103v-712h-103v318h-331v-318h-103v712h103v-297h331v297z" />
    <glyph glyph-name="I" unicode="I" horiz-adv-x="278" 
d="M88 0v712h103v-712h-103z" />
    <glyph glyph-name="J" unicode="J" horiz-adv-x="424" 
d="M79 0h-66v98h66q105 0 135 39t30 174l-1 401h103l2 -401q0 -63 -3 -104t-13 -79t-28 -59.5t-48 -38.5t-73 -23.5t-104 -6.5z" />
    <glyph glyph-name="K" unicode="K" horiz-adv-x="635" 
d="M513 0l-225 316l-97 -117v-199h-103v712h103v-390l303 390h121l-265 -320l279 -392h-116z" />
    <glyph glyph-name="L" unicode="L" horiz-adv-x="510" 
d="M191 95h300v-95h-403v712h103v-617z" />
    <glyph glyph-name="M" unicode="M" horiz-adv-x="887" 
d="M800 712l-2 -712h-100l8 610l-223 -612h-100l-210 612l6 -610h-91v712h154l201 -597l208 597h149z" />
    <glyph glyph-name="N" unicode="N" horiz-adv-x="732" 
d="M547 712h98v-712h-114l-347 565l-2 -565h-94l2 712h114l353 -573z" />
    <glyph glyph-name="O" unicode="O" horiz-adv-x="709" 
d="M355 -18q-159 0 -227 91.5t-68 281.5q0 191 68 283t227 92q158 0 226 -92t68 -283q0 -190 -68 -281.5t-226 -91.5zM355 73q104 0 147.5 66t43.5 216q0 151 -43.5 217.5t-147.5 66.5q-105 0 -148 -66.5t-43 -217.5q0 -150 43 -216t148 -66z" />
    <glyph glyph-name="P" unicode="P" horiz-adv-x="657" 
d="M88 715h248q157 0 220.5 -50t63.5 -187q0 -138 -63.5 -187.5t-223.5 -49.5h-142v-241h-103v715zM191 333l142 -1q47 0 76 4.5t56 18.5t39.5 44.5t12.5 78.5t-12.5 78.5t-39.5 44.5t-56 18.5t-76 4.5h-142v-291z" />
    <glyph glyph-name="Q" unicode="Q" horiz-adv-x="709" 
d="M677 -52l-59 -67l-137 120q-51 -19 -126 -19q-159 0 -227 91.5t-68 281.5q0 191 68 283t227 92q158 0 226 -92t68 -283q0 -227 -95 -311zM164 355q0 -150 43 -216t148 -66q104 0 147.5 66t43.5 216q0 151 -43.5 217.5t-147.5 66.5q-105 0 -148 -66.5t-43 -217.5z" />
    <glyph glyph-name="R" unicode="R" horiz-adv-x="674" 
d="M640 0h-116l-135 264q-17 -1 -54 -1h-144v-263h-103v714h249q162 0 220.5 -49t58.5 -177q0 -92 -28 -140.5t-98 -68.5zM191 355l144 -1q37 0 59.5 2t47.5 9t38 21t22 39.5t9 62.5t-9 62t-22.5 39.5t-38 22t-47.5 9.5t-59 2h-144v-268z" />
    <glyph glyph-name="S" unicode="S" horiz-adv-x="633" 
d="M45 219h100q0 -69 45 -107t125 -39q171 -1 171 110q0 40 -23.5 66t-60.5 39t-82.5 22.5t-90.5 23.5t-82 35.5t-60.5 63.5t-23.5 103q0 93 61.5 144.5t190.5 50.5q131 -1 196 -57t65 -160h-99q0 52 -39 88.5t-120 37.5q-82 1 -116 -29.5t-34 -77.5q0 -34 18.5 -58.5
t48 -36.5t68 -23t78 -19t78 -23.5t68 -36.5t48 -59t18.5 -90q0 -206 -275 -205q-273 2 -273 237z" />
    <glyph glyph-name="T" unicode="T" horiz-adv-x="553" 
d="M537 712v-95h-209l-3 -617h-103l3 617h-209v95h521z" />
    <glyph glyph-name="U" unicode="U" horiz-adv-x="700" 
d="M350 -18q-151 0 -212.5 85.5t-61.5 274.5v370h103v-370q0 -149 37 -209t133 -60t133 60t37 209v370h105v-370q0 -189 -62 -274.5t-212 -85.5z" />
    <glyph glyph-name="V" unicode="V" horiz-adv-x="622" 
d="M512 712h108l-260 -712h-99l-259 712h114l198 -575z" />
    <glyph glyph-name="W" unicode="W" horiz-adv-x="975" 
d="M862 712h108l-216 -712h-107l-163 565l-160 -565h-101l-218 712h114l156 -581l158 581h105l170 -588z" />
    <glyph glyph-name="X" unicode="X" horiz-adv-x="633" 
d="M630 0h-118l-201 283l-197 -283h-113l252 363h1l-248 349h118l195 -274l191 274h113l-248 -354z" />
    <glyph glyph-name="Y" unicode="Y" horiz-adv-x="621" 
d="M501 712h115l-249 -454v-258h-103v258l-259 454h120l193 -352z" />
    <glyph glyph-name="Z" unicode="Z" horiz-adv-x="579" 
d="M135 94h413v-91h-522v104l409 512h-389v90h499v-103z" />
    <glyph glyph-name="bracketleft" unicode="[" horiz-adv-x="385" 
d="M355 669h-155v-777h155v-91h-255v959h255v-91z" />
    <glyph glyph-name="backslash" unicode="\" horiz-adv-x="531" 
d="M471 -40h-101l-310 840h101z" />
    <glyph glyph-name="bracketright" unicode="]" horiz-adv-x="385" 
d="M285 760v-959h-255v91h155v777h-155v91h255z" />
    <glyph glyph-name="asciicircum" unicode="^" horiz-adv-x="452" 
d="M385 466h-83l-79 178l-80 -178h-83l125 272h75z" />
    <glyph glyph-name="underscore" unicode="_" horiz-adv-x="579" 
d="M81 0v78h417v-78h-417z" />
    <glyph glyph-name="grave" unicode="`" horiz-adv-x="462" 
d="M236 621h-91l-98 152h112z" />
    <glyph glyph-name="a" unicode="a" horiz-adv-x="580" 
d="M516 1h-84l-12 68q-56 -80 -186 -80q-99 0 -142.5 39.5t-43.5 122.5q0 31 6.5 55t19.5 41t31 29.5t41 20t50.5 12t58.5 5.5t65.5 2t71.5 0h15q-1 93 -21.5 125.5t-95.5 32.5q-71 0 -99.5 -30t-28.5 -69h-90q0 22 3.5 42t17 45.5t35 43.5t62.5 30.5t96 12.5
q36 0 65.5 -4.5t51.5 -10.5t38.5 -20t27.5 -25t18.5 -33t11.5 -36.5t5.5 -44.5t2 -47t0.5 -52v-9v-127zM254 59q56 0 97 25t56 73v93q-41 1 -76.5 0t-65 -3t-52.5 -8.5t-38.5 -17.5t-23.5 -29t-8 -43q0 -90 111 -90z" />
    <glyph glyph-name="b" unicode="b" horiz-adv-x="620" 
d="M352 549q216 0 216 -281q0 -136 -51.5 -207t-164.5 -71q-128 0 -183 84l-13 -74h-84l8 146v614h100v-293q68 82 172 82zM333 71q133 0 133 197q0 200 -133 200q-101 0 -153 -101v-186q12 -45 49 -77.5t104 -32.5z" />
    <glyph glyph-name="c" unicode="c" horiz-adv-x="575" 
d="M295 -13q-133 0 -188 72t-55 210q0 137 55 209.5t188 72.5q225 0 231 -210h-98q-1 63 -35.5 96t-97.5 33q-77 0 -109.5 -49t-32.5 -152q0 -104 32.5 -152t109.5 -48q61 0 96 30t36 82h100q-4 -92 -61.5 -143t-170.5 -51z" />
    <glyph glyph-name="d" unicode="d" horiz-adv-x="623" 
d="M548 0h-84l-13 76q-56 -86 -184 -86q-113 0 -164 71t-51 207q0 137 51 209t164 72q108 0 173 -75v286h100v-614zM286 71q67 0 104.5 33t49.5 78v181q-19 40 -57 72.5t-97 32.5q-132 0 -132 -200q0 -197 132 -197z" />
    <glyph glyph-name="e" unicode="e" horiz-adv-x="584" 
d="M294 64q71 0 104 33.5t34 69.5h100q0 -28 -11 -56.5t-36 -57.5t-74.5 -47.5t-116.5 -18.5q-131 0 -186.5 70t-55.5 210q0 141 56 213t186 72q126 0 184 -72.5t58 -223.5h-383q2 -97 33 -144.5t108 -47.5zM294 476q-66 0 -98 -37t-40 -110h279q-9 74 -42.5 110.5
t-98.5 36.5z" />
    <glyph glyph-name="f" unicode="f" horiz-adv-x="330" 
d="M323 685h-44q-48 0 -66.5 -29.5t-18.5 -102.5v-14h127v-81h-127v-458h-100v458h-74v81h74v14q0 51 5.5 84.5t22.5 65.5t52.5 47.5t91.5 15.5h57v-81z" />
    <glyph glyph-name="g" unicode="g" horiz-adv-x="612" 
d="M464 539h84l-7 -150v-390q0 -30 -0.5 -47.5t-5.5 -46.5t-14 -46t-27 -38.5t-44 -33t-65.5 -19.5t-90.5 -8q-47 0 -84 10.5t-59 26.5t-38 36t-22 40t-9.5 36t-3.5 27l1 10h93v-15t6.5 -26t18 -33t39 -23.5t65.5 -11.5q48 0 77.5 11.5t42.5 37t16.5 49t3.5 63.5v64
q-56 -72 -174 -72q-113 0 -164 71t-51 207q0 137 51 209t164 72q67 0 113 -30.5t70 -65.5zM286 71q68 0 106 34.5t49 80.5v177q-53 105 -155 105q-132 0 -132 -200q0 -197 132 -197z" />
    <glyph glyph-name="h" unicode="h" horiz-adv-x="612" 
d="M347 551q102 0 146 -51.5t44 -178.5l-1 -321h-100l1 312q0 75 -23.5 112.5t-85.5 37.5q-32 0 -60 -12t-46.5 -32t-30 -36.5t-19.5 -34.5v-347h-100v760h100v-304q65 95 175 95z" />
    <glyph glyph-name="i" unicode="i" horiz-adv-x="242" 
d="M71 625v135h100v-135h-100zM69 0v539h100v-539h-100z" />
    <glyph glyph-name="j" unicode="j" horiz-adv-x="267" 
d="M86 625v135h100v-135h-100zM-32 -205v85q35 0 57 6t35 14.5t19 31.5t7 43.5t1 63.5v500h100v-500q0 -52 -2.5 -85t-11 -63t-22.5 -46t-39 -28.5t-59.5 -17t-84.5 -4.5z" />
    <glyph glyph-name="k" unicode="k" horiz-adv-x="542" 
d="M427 0l-179 250l-67 -73v-177h-100v760h100v-475l214 254h118l-201 -220l228 -319h-113z" />
    <glyph glyph-name="l" unicode="l" horiz-adv-x="263" 
d="M81 0v760h100v-760h-100z" />
    <glyph glyph-name="m" unicode="m" horiz-adv-x="940" 
d="M684 551q93 0 137 -52t44 -178v-321h-98l1 312q0 76 -21 113t-81 37q-90 0 -143 -101q1 -13 1 -40l-1 -321h-95l1 312q0 76 -21 113t-81 37q-55 0 -91.5 -34.5t-55.5 -76.5v-351h-100v394l-8 145h84l15 -94q24 39 68 72.5t107 33.5q129 0 163 -106q24 39 68 72.5
t107 33.5z" />
    <glyph glyph-name="n" unicode="n" horiz-adv-x="616" 
d="M350 551q102 0 146.5 -51t44.5 -179l-2 -321h-100l2 312q0 75 -23.5 112.5t-86.5 37.5q-99 0 -151 -105v-357h-100v394l-8 145h84l15 -91q24 39 69 71t110 32z" />
    <glyph glyph-name="o" unicode="o" horiz-adv-x="599" 
d="M299 -13q-135 0 -191 72.5t-56 208.5q0 137 56.5 210.5t190.5 73.5t191 -74t57 -210t-56.5 -208.5t-191.5 -72.5zM298 68q81 0 113.5 48t32.5 152t-33 153.5t-113 49.5t-112.5 -49.5t-32.5 -153.5t32.5 -152t112.5 -48z" />
    <glyph glyph-name="p" unicode="p" horiz-adv-x="620" 
d="M352 549q216 0 216 -281q0 -136 -51.5 -207t-164.5 -71q-115 0 -172 69v-299h-100v631l-8 148h84l14 -87q25 36 71 66.5t111 30.5zM333 71q133 0 133 197q0 200 -133 200q-100 0 -153 -103v-184q12 -45 49 -77.5t104 -32.5z" />
    <glyph glyph-name="q" unicode="q" horiz-adv-x="623" 
d="M464 539h84l-8 -136v-643h-100v300q-56 -70 -173 -70q-113 0 -164 71t-51 207q0 137 51 209t164 72q65 0 111 -30t70 -64zM286 71q67 0 104.5 33t49.5 78v183q-19 39 -57 71t-97 32q-132 0 -132 -200q0 -197 132 -197z" />
    <glyph glyph-name="r" unicode="r" horiz-adv-x="391" 
d="M156 539l16 -106q6 19 18 36.5t33.5 37.5t58 32.5t83.5 12.5v-93q-41 0 -73.5 -12.5t-51.5 -29t-32.5 -39.5t-19 -38.5t-8.5 -30.5v-309h-100v384l-8 155h84z" />
    <glyph glyph-name="s" unicode="s" horiz-adv-x="542" 
d="M48 172h90q0 -106 133 -108q66 -1 97.5 20t31.5 56q0 29 -18.5 47.5t-48.5 27.5t-66.5 16t-73 17t-67 26t-49.5 48t-19 78q0 71 55 111.5t160 39.5q214 -1 214 -169h-90q0 92 -122 92q-63 1 -89.5 -20.5t-26.5 -52.5q0 -32 25.5 -51.5t63.5 -26.5t82.5 -18t82.5 -25
t63.5 -48t25.5 -86q0 -159 -230 -159q-224 2 -224 185z" />
    <glyph glyph-name="t" unicode="t" horiz-adv-x="368" 
d="M281 78h56v-81h-69q-45 0 -76.5 11.5t-49.5 29.5t-28 47.5t-12.5 56.5t-2.5 66v250h-69v81h69v148l100 19v-167h132v-81h-132v-250q0 -71 17.5 -100.5t64.5 -29.5z" />
    <glyph glyph-name="u" unicode="u" horiz-adv-x="602" 
d="M538 0h-85l-16 99q-21 -39 -67 -75.5t-115 -36.5q-99 0 -144.5 51t-45.5 173l2 328h99l-1 -312q0 -76 22.5 -113.5t85.5 -37.5q33 0 61.5 13t47 34t29.5 38.5t18 34.5v343h100v-390z" />
    <glyph glyph-name="v" unicode="v" horiz-adv-x="524" 
d="M410 539h107l-208 -539h-100l-202 539h111l147 -433z" />
    <glyph glyph-name="w" unicode="w" horiz-adv-x="756" 
d="M657 539h95l-170 -539h-89l-121 397l-112 -397h-89l-167 540h100l115 -415l110 414h97l117 -410z" />
    <glyph glyph-name="x" unicode="x" horiz-adv-x="512" 
d="M508 539l-193 -276l186 -263h-112l-138 196l-140 -196h-107l194 270l-189 269h112l141 -200l139 200h107z" />
    <glyph glyph-name="y" unicode="y" horiz-adv-x="519" 
d="M409 539h103l-271 -758h-91l75 219h-28l-190 539h110l142 -438z" />
    <glyph glyph-name="z" unicode="z" horiz-adv-x="479" 
d="M41 535h402v-100l-310 -350l310 1v-83h-412v101l313 352l-303 -1v80z" />
    <glyph glyph-name="braceleft" unicode="{" horiz-adv-x="422" 
d="M392 759v-91q-88 0 -112.5 -20.5t-24.5 -90.5v-175q0 -21 -6 -39t-13.5 -28t-17 -17.5t-14.5 -10t-9 -3.5q4 -1 8 -3t14.5 -9.5t18 -17t13.5 -27.5t6 -40v-175q0 -70 24.5 -90.5t112.5 -20.5v-91q-79 0 -125 8.5t-71.5 32.5t-33 56.5t-7.5 91.5v188q0 32 -16.5 44
t-70.5 12v84q54 0 70.5 11.5t16.5 43.5v194q0 47 5 75t18 51.5t40.5 34.5t68.5 16.5t105 5.5z" />
    <glyph glyph-name="bar" unicode="|" horiz-adv-x="250" 
d="M81 -199v1019h87v-1019h-87z" />
    <glyph glyph-name="braceright" unicode="}" horiz-adv-x="422" 
d="M30 -190v91q88 0 113 20.5t25 90.5v176q0 74 58 97q-3 1 -7.5 3t-14 9.5t-17 17.5t-13.5 27.5t-6 39.5v175q0 70 -25 90.5t-113 20.5v91q79 0 125 -8.5t71.5 -32.5t33 -56.5t7.5 -91.5v-188q0 -32 16.5 -44t70.5 -12v-83q-54 0 -70.5 -11.5t-16.5 -43.5v-195
q0 -47 -5 -75t-18 -51.5t-40.5 -34.5t-68.5 -16.5t-105 -5.5z" />
    <glyph glyph-name="asciitilde" unicode="~" horiz-adv-x="548" 
d="M428 373h64q0 -142 -127 -142q-47 0 -96 27.5t-86 27.5q-30 0 -46 -19.5t-16 -35.5h-65q0 142 127 142q47 0 96 -27.5t86 -27.5q30 0 46.5 19.5t16.5 35.5z" />
    <glyph glyph-name="uni00A0" unicode="&#xa0;" horiz-adv-x="207" 
 />
    <glyph glyph-name="exclamdown" unicode="&#xa1;" horiz-adv-x="263" 
d="M81 423v116h100v-116h-100zM81 -173l7 536h86l7 -536h-100z" />
    <glyph glyph-name="cent" unicode="&#xa2;" horiz-adv-x="575" 
d="M427 254h100q-4 -83 -51.5 -133t-142.5 -58v-89h-78v89q-111 11 -157 82t-46 198q0 125 46.5 196.5t156.5 82.5v82h78v-82q187 -15 193 -208h-98q-3 108 -95 126v-395q44 9 68.5 37.5t25.5 71.5zM153 343q0 -89 23.5 -137t78.5 -60v394q-55 -12 -78.5 -60.5t-23.5 -136.5
z" />
    <glyph glyph-name="sterling" unicode="&#xa3;" horiz-adv-x="516" 
d="M229 218q0 -86 -82 -136h329v-86h-446v86q4 1 10.5 4t22.5 14.5t28.5 25.5t23 38.5t10.5 53.5q0 30 -4 50h-91v77h71q-2 5 -9 24.5t-9.5 27t-7.5 25t-7 29t-4 29t-2 34.5q0 84 55.5 139t156.5 55q109 0 160 -56t51 -148h-105q0 58 -26.5 92t-79.5 34q-51 0 -79 -33
t-28 -84q0 -21 4.5 -44t9 -38.5t14 -43.5t13.5 -42h162v-77h-144q3 -24 3 -50z" />
    <glyph glyph-name="currency" unicode="&#xa4;" horiz-adv-x="691" 
d="M639 92l-60 -60l-67 66q-60 -46 -164 -46t-164 46l-72 -71l-60 60l78 77q-30 61 -30 159q0 93 28 155l-73 73l60 60l64 -65q60 52 169 52q99 0 160 -43l65 65l60 -60l-70 -70q33 -65 33 -167q0 -95 -30 -158zM348 142q79 0 111.5 47.5t32.5 133.5q0 185 -144 185
q-145 0 -145 -185q0 -86 33 -133.5t112 -47.5z" />
    <glyph glyph-name="yen" unicode="&#xa5;" horiz-adv-x="588" 
d="M583 712l-202 -386h85v-57h-114l-1 -1v-54h115v-58h-115v-156h-103v156h-117v58h117v54l-1 1h-116v57h85l-211 386h120l177 -339l168 339h113z" />
    <glyph glyph-name="brokenbar" unicode="&#xa6;" horiz-adv-x="250" 
d="M81 395v425h87v-425h-87zM168 245v-425h-87v425h87z" />
    <glyph glyph-name="section" unicode="&#xa7;" horiz-adv-x="553" 
d="M435 255q76 -40 76 -128q0 -159 -234 -159q-119 0 -174 44t-55 139h90q0 -55 33 -80.5t105 -25.5q67 0 100.5 20.5t33.5 54.5t-26.5 54.5t-66 27.5t-85.5 18t-85.5 24.5t-66 48.5t-26.5 88q0 79 75 122q-73 39 -73 127q0 72 55 111.5t167 39.5q118 0 169.5 -41.5
t51.5 -125.5h-90q0 43 -27.5 66.5t-101.5 23.5q-67 0 -95 -21t-28 -52q0 -33 26.5 -52.5t66 -26t85.5 -17t85.5 -24t66 -48t26.5 -87.5q0 -83 -78 -121zM155 381q0 -18 8.5 -32t20 -22t34 -15.5t38.5 -11t46.5 -9t46.5 -8.5q63 33 63 87q0 23 -10.5 39t-34.5 26.5t-43 15.5
t-57.5 12.5t-56.5 11.5q-55 -34 -55 -94z" />
    <glyph glyph-name="dieresis" unicode="&#xa8;" horiz-adv-x="494" 
d="M82 622v134h101v-134h-101zM254 622v134h101v-134h-101z" />
    <glyph glyph-name="copyright" unicode="&#xa9;" horiz-adv-x="817" 
d="M408 -20q-94 0 -163 29t-108.5 80.5t-58 116t-18.5 142.5q0 79 18.5 144t58 117.5t108.5 82t163 29.5q95 0 164.5 -29.5t109 -82.5t57.5 -117.5t18 -143.5t-18 -142.5t-57.5 -115.5t-109 -81t-164.5 -29zM408 37q78 0 135 25.5t88 71t45 98.5t14 116q0 50 -8.5 94.5
t-28.5 86t-51.5 71t-81 47t-112.5 17.5q-77 0 -134 -26.5t-88 -72.5t-45.5 -99.5t-14.5 -117.5q0 -63 14.5 -116t45.5 -98.5t87.5 -71t134.5 -25.5zM411 131q-97 0 -141 53.5t-44 167.5t44 168t141 54q83 0 125.5 -39t43.5 -123h-91q-3 89 -78 89q-50 0 -71 -34t-21 -115
q0 -78 21.5 -112.5t70.5 -34.5q73 0 77 85h91q-1 -159 -168 -159z" />
    <glyph glyph-name="ordfeminine" unicode="&#xaa;" horiz-adv-x="413" 
d="M379 360h-79l-10 49q-31 -58 -121 -58q-76 0 -107.5 28.5t-31.5 89.5q0 28 7.5 47.5t22 31.5t36 19t49.5 9t62 3t73 0q0 63 -12 85t-59 22q-77 0 -77 -65h-84q0 22 4.5 39.5t18.5 39.5t48 34.5t86 12.5q121 0 152 -61q16 -33 16 -125v-5v-8v-87zM191 407q72 0 89 51v75
h-55.5t-41 -3.5t-33.5 -10t-17.5 -19.5t-7.5 -32q0 -61 66 -61z" />
    <glyph glyph-name="guillemotleft" unicode="&#xab;" horiz-adv-x="538" 
d="M290 440l-130 -178l130 -171h-108l-117 158v26l117 165h108zM474 440l-130 -178l130 -171h-108l-117 158v26l117 165h108z" />
    <glyph glyph-name="registered" unicode="&#xae;" horiz-adv-x="817" 
d="M408 721q95 0 164.5 -29.5t109 -82.5t57.5 -117.5t18 -143.5t-18 -142.5t-57.5 -115.5t-109 -81t-164.5 -29q-94 0 -163 29t-108.5 80.5t-58 116t-18.5 142.5q0 79 18.5 144t58 117.5t108.5 82t163 29.5zM408 37q78 0 135 25.5t88 71t45 98.5t14 116q0 50 -8.5 94.5
t-28.5 86t-51.5 71t-81 47t-112.5 17.5q-77 0 -134 -26.5t-88 -72.5t-45.5 -99.5t-14.5 -117.5q0 -63 14.5 -116t45.5 -98.5t87.5 -71t134.5 -25.5zM590 419q0 -102 -82 -127l80 -149h-89l-73 138h-85v-138h-91v415h158q98 0 140 -30.5t42 -108.5zM341 485v-130l65 -1
q45 0 67.5 12t22.5 53t-22.5 53.5t-67.5 12.5h-65z" />
    <glyph glyph-name="macron" unicode="&#xaf;" horiz-adv-x="499" 
d="M60 722h261v-78h-261v78z" />
    <glyph glyph-name="degree" unicode="&#xb0;" horiz-adv-x="349" 
d="M174 488q-56 0 -85 31t-29 90q0 123 114 123q115 0 115 -123q0 -121 -115 -121zM174 545q48 0 48 64q0 66 -48 66t-48 -66q0 -64 48 -64z" />
    <glyph glyph-name="plusminus" unicode="&#xb1;" horiz-adv-x="529" 
d="M308 412h151v-81h-151v-112h-87v112h-151v81h151v110h87v-110zM70 93v85h389v-85h-389z" />
    <glyph glyph-name="uni00B2" unicode="&#xb2;" horiz-adv-x="442" 
d="M37 307v71q80 61 151 124q73 66 93 94q28 40 28 80q0 44 -24 68t-69 24q-46 0 -70.5 -25.5t-24.5 -73.5h-86q0 171 181 171q177 0 177 -158q0 -42 -19 -81t-39 -62t-60 -61q-27 -26 -56.5 -52t-45.5 -40l-16 -13l237 5v-71h-357z" />
    <glyph glyph-name="uni00B3" unicode="&#xb3;" horiz-adv-x="446" 
d="M394 763l-142 -125q152 -21 152 -169q0 -79 -45 -126t-144 -47q-96 0 -141 45.5t-45 117.5h85q0 -38 26 -65.5t74 -27.5q53 0 79.5 28.5t26.5 78.5q0 52 -29.5 81.5t-87.5 29.5l-63 -5v55l152 127l-240 -6v70h342v-62z" />
    <glyph glyph-name="acute" unicode="&#xb4;" horiz-adv-x="462" 
d="M54 621l76 152h112l-97 -152h-91z" />
    <glyph glyph-name="paragraph" unicode="&#xb6;" horiz-adv-x="631" 
d="M549 760v-760h-87v670h-74v-670h-88v286q-150 3 -205 52.5t-55 184.5t55 184.5t205 52.5h249zM144 523q0 -87 34 -115.5t122 -30.5v292q-87 -2 -121.5 -30t-34.5 -116z" />
    <glyph glyph-name="periodcentered" unicode="&#xb7;" horiz-adv-x="241" 
d="M70 234v126h102v-126h-102z" />
    <glyph glyph-name="cedilla" unicode="&#xb8;" horiz-adv-x="474" 
d="M214 3l-32 -56q90 -7 90 -83q0 -98 -125 -98q-27 0 -47.5 1.5t-27.5 2.5l-6 2v62q20 -6 61 -6q59 0 59 42t-99 42h-3l48 91h82z" />
    <glyph glyph-name="uni00B9" unicode="&#xb9;" horiz-adv-x="256" 
d="M133 834h57v-529h-86v448l-93 -44v70z" />
    <glyph glyph-name="ordmasculine" unicode="&#xba;" horiz-adv-x="422" 
d="M211 350q-100 0 -141 50t-41 149t41 149.5t142 51.5q100 0 140.5 -51t40.5 -150t-41 -149t-141 -50zM211 420q48 0 67.5 30t19.5 99q0 70 -19.5 100.5t-67.5 30.5t-67.5 -30.5t-19.5 -100.5q0 -69 19.5 -99t67.5 -30z" />
    <glyph glyph-name="guillemotright" unicode="&#xbb;" horiz-adv-x="538" 
d="M289 275v-26l-117 -158h-107l129 171l-129 178h107zM356 440l117 -165v-26l-117 -158h-108l130 171l-130 178h108z" />
    <glyph glyph-name="onequarter" unicode="&#xbc;" horiz-adv-x="918" 
d="M582 774h92l-476 -814h-92zM190 231h-86v448l-93 -44v70l122 55h57v-529zM892 170v-66h-60v-104h-84v104h-259v66l252 354h91v-354h60zM565 170h183v260z" />
    <glyph glyph-name="onehalf" unicode="&#xbd;" horiz-adv-x="963" 
d="M582 774h92l-476 -814h-92zM190 231h-86v448l-93 -44v70l122 55h57v-529zM678 68l237 5v-71h-357v71q80 61 151 124q73 66 93 94q28 40 28 80q0 44 -24 68t-69 24q-46 0 -70.5 -25.5t-24.5 -73.5h-86q0 171 181 171q177 0 177 -158q0 -42 -19 -81t-39 -62t-60 -61
q-27 -26 -56.5 -52t-45.5 -39z" />
    <glyph glyph-name="threequarters" unicode="&#xbe;" horiz-adv-x="1091" 
d="M755 774h92l-476 -814h-92zM404 395q0 -79 -45 -126t-144 -47q-96 0 -141 45.5t-45 117.5h85q0 -38 26 -65.5t74 -27.5q53 0 79.5 28.5t26.5 78.5q0 52 -29.5 81.5t-87.5 29.5l-63 -5v55l152 127l-240 -6v70h342v-62l-142 -125q152 -21 152 -169zM1065 170v-66h-60v-104
h-84v104h-259v66l252 354h91v-354h60zM738 170h183v260z" />
    <glyph glyph-name="questiondown" unicode="&#xbf;" horiz-adv-x="521" 
d="M328 521v-116h-100v116h100zM231 345h94l-1 -26q0 -53 -15.5 -93.5t-38 -65t-45 -47t-38 -52.5t-15.5 -69q0 -115 106 -115q57 0 81 35t24 106h101q0 -117 -51 -175t-158 -58q-204 0 -204 194q0 52 16.5 92t40 66t47 50.5t40 57.5t16.5 74v26z" />
    <glyph glyph-name="Agrave" unicode="&#xc0;" horiz-adv-x="649" 
d="M373 760h-91l-98 145h112zM535 0l-62 171h-304l-61 -171h-103l271 712h99l269 -712h-109zM202 262h239l-120 332z" />
    <glyph glyph-name="Aacute" unicode="&#xc1;" horiz-adv-x="649" 
d="M470 905l-97 -145h-92l77 145h112zM535 0l-62 171h-304l-61 -171h-103l271 712h99l269 -712h-109zM202 262h239l-120 332z" />
    <glyph glyph-name="Acircumflex" unicode="&#xc2;" horiz-adv-x="649" 
d="M326 824l-62 -64h-91l104 130h97l104 -130h-90zM535 0l-62 171h-304l-61 -171h-103l271 712h99l269 -712h-109zM202 262h239l-120 332z" />
    <glyph glyph-name="Atilde" unicode="&#xc3;" horiz-adv-x="649" 
d="M278 804q-26 0 -37 -15t-11 -29h-52q0 121 90 121q31 0 58 -17.5t45 -17.5t29.5 8.5t14.5 17.5t3 17h54q0 -61 -19 -93t-69 -32q-31 0 -59.5 20t-46.5 20zM535 0l-62 171h-304l-61 -171h-103l271 712h99l269 -712h-109zM202 262h239l-120 332z" />
    <glyph glyph-name="Adieresis" unicode="&#xc4;" horiz-adv-x="649" 
d="M290 894v-134h-100v134h100zM461 894v-134h-100v134h100zM535 0l-62 171h-304l-61 -171h-103l271 712h99l269 -712h-109zM202 262h239l-120 332z" />
    <glyph glyph-name="Aring" unicode="&#xc5;" horiz-adv-x="649" 
d="M325 760q-43 0 -66.5 23.5t-23.5 62.5q0 38 23.5 62t66.5 24q42 0 65.5 -24t23.5 -62q0 -39 -23.5 -62.5t-65.5 -23.5zM325 881q-16 0 -25.5 -9.5t-9.5 -25.5t9.5 -26t25.5 -10q15 0 24.5 10t9.5 26t-9.5 25.5t-24.5 9.5zM535 0l-62 171h-304l-61 -171h-103l271 712h99
l269 -712h-109zM202 262h239l-120 332z" />
    <glyph glyph-name="AE" unicode="&#xc6;" horiz-adv-x="932" 
d="M539 91h363v-91h-466v171h-227l-94 -171h-110l397 712h495v-91h-358v-208h308v-89h-308v-233zM263 269h173v315z" />
    <glyph glyph-name="Ccedilla" unicode="&#xc7;" horiz-adv-x="674" 
d="M351 73q80 0 120.5 40.5t44.5 131.5h101q-6 -240 -220 -261l-23 -41q90 -7 90 -83q0 -98 -125 -98q-27 0 -47.5 1.5t-27.5 2.5l-6 2v62q20 -6 61 -6q59 0 59 42t-99 42h-3l40 75q-137 10 -196.5 101.5t-59.5 270.5q0 191 67.5 283t223.5 92q264 0 268 -267h-101
q-4 93 -44.5 134.5t-122.5 41.5q-102 0 -144.5 -66t-42.5 -218q0 -151 42.5 -216.5t144.5 -65.5z" />
    <glyph glyph-name="Egrave" unicode="&#xc8;" horiz-adv-x="590" 
d="M367 760h-91l-98 145h112zM191 91h369v-91h-472v712h466v-91h-363v-208h313v-89h-313v-233z" />
    <glyph glyph-name="Eacute" unicode="&#xc9;" horiz-adv-x="590" 
d="M464 905l-97 -145h-92l77 145h112zM191 91h369v-91h-472v712h466v-91h-363v-208h313v-89h-313v-233z" />
    <glyph glyph-name="Ecircumflex" unicode="&#xca;" horiz-adv-x="590" 
d="M320 824l-62 -64h-91l104 130h97l104 -130h-90zM191 91h369v-91h-472v712h466v-91h-363v-208h313v-89h-313v-233z" />
    <glyph glyph-name="Edieresis" unicode="&#xcb;" horiz-adv-x="590" 
d="M284 894v-134h-100v134h100zM455 894v-134h-100v134h100zM191 91h369v-91h-472v712h466v-91h-363v-208h313v-89h-313v-233z" />
    <glyph glyph-name="Igrave" unicode="&#xcc;" horiz-adv-x="278" 
d="M187 760h-91l-98 145h112zM88 0v712h103v-712h-103z" />
    <glyph glyph-name="Iacute" unicode="&#xcd;" horiz-adv-x="278" 
d="M95 760l77 145h112l-97 -145h-92zM88 0v712h103v-712h-103z" />
    <glyph glyph-name="Icircumflex" unicode="&#xce;" horiz-adv-x="278" 
d="M188 890l104 -130h-90l-62 64l-62 -64h-91l104 130h97zM88 0v712h103v-712h-103z" />
    <glyph glyph-name="Idieresis" unicode="&#xcf;" horiz-adv-x="278" 
d="M4 760v134h100v-134h-100zM175 760v134h100v-134h-100zM88 0v712h103v-712h-103z" />
    <glyph glyph-name="Eth" unicode="&#xd0;" horiz-adv-x="694" 
d="M88 715h191q107 0 176.5 -20t109 -66.5t54.5 -110.5t15 -163t-15 -162.5t-54.5 -109.5t-109 -66t-176.5 -20h-191v331h-57v67h57v320zM191 88h92q147 0 196.5 53.5t49.5 213.5q0 163 -49 216t-197 53h-92v-229h145v-67h-145v-240z" />
    <glyph glyph-name="Ntilde" unicode="&#xd1;" horiz-adv-x="732" 
d="M320 804q-26 0 -37 -15t-11 -29h-52q0 121 90 121q31 0 58 -17.5t45 -17.5t29.5 8.5t14.5 17.5t3 17h54q0 -61 -19 -93t-69 -32q-31 0 -59.5 20t-46.5 20zM547 712h98v-712h-114l-347 565l-2 -565h-94l2 712h114l353 -573z" />
    <glyph glyph-name="Ograve" unicode="&#xd2;" horiz-adv-x="709" 
d="M403 767h-91l-98 145h112zM355 -18q-159 0 -227 91.5t-68 281.5q0 191 68 283t227 92q158 0 226 -92t68 -283q0 -190 -68 -281.5t-226 -91.5zM355 73q104 0 147.5 66t43.5 216q0 151 -43.5 217.5t-147.5 66.5q-105 0 -148 -66.5t-43 -217.5q0 -150 43 -216t148 -66z" />
    <glyph glyph-name="Oacute" unicode="&#xd3;" horiz-adv-x="709" 
d="M311 767l77 145h112l-97 -145h-92zM355 -18q-159 0 -227 91.5t-68 281.5q0 191 68 283t227 92q158 0 226 -92t68 -283q0 -190 -68 -281.5t-226 -91.5zM355 73q104 0 147.5 66t43.5 216q0 151 -43.5 217.5t-147.5 66.5q-105 0 -148 -66.5t-43 -217.5q0 -150 43 -216
t148 -66z" />
    <glyph glyph-name="Ocircumflex" unicode="&#xd4;" horiz-adv-x="709" 
d="M356 831l-62 -64h-91l104 130h97l104 -130h-90zM355 730q158 0 226 -92t68 -283q0 -190 -68 -281.5t-226 -91.5q-159 0 -227 91.5t-68 281.5q0 191 68 283t227 92zM355 73q104 0 147.5 66t43.5 216q0 151 -43.5 217.5t-147.5 66.5q-105 0 -148 -66.5t-43 -217.5
q0 -150 43 -216t148 -66z" />
    <glyph glyph-name="Otilde" unicode="&#xd5;" horiz-adv-x="709" 
d="M448 896h54q0 -61 -19 -93t-69 -32q-31 0 -59.5 20t-46.5 20q-26 0 -37 -15t-11 -29h-52q0 121 90 121q31 0 58 -17.5t45 -17.5t29.5 8.5t14.5 17.5t3 17zM355 -18q-159 0 -227 91.5t-68 281.5q0 191 68 283t227 92q158 0 226 -92t68 -283q0 -190 -68 -281.5t-226 -91.5z
M355 73q104 0 147.5 66t43.5 216q0 151 -43.5 217.5t-147.5 66.5q-105 0 -148 -66.5t-43 -217.5q0 -150 43 -216t148 -66z" />
    <glyph glyph-name="Odieresis" unicode="&#xd6;" horiz-adv-x="709" 
d="M220 767v134h100v-134h-100zM391 767v134h100v-134h-100zM355 -18q-159 0 -227 91.5t-68 281.5q0 191 68 283t227 92q158 0 226 -92t68 -283q0 -190 -68 -281.5t-226 -91.5zM355 73q104 0 147.5 66t43.5 216q0 151 -43.5 217.5t-147.5 66.5q-105 0 -148 -66.5t-43 -217.5
q0 -150 43 -216t148 -66z" />
    <glyph glyph-name="multiply" unicode="&#xd7;" horiz-adv-x="549" 
d="M466 170l-59 -58l-133 137l-132 -137l-59 58l134 139l-134 138l58 58l133 -137l131 137l60 -58l-133 -138z" />
    <glyph glyph-name="Oslash" unicode="&#xd8;" horiz-adv-x="709" 
d="M650 725l-64 -94q63 -87 63 -276q0 -190 -68 -281.5t-226 -91.5q-113 0 -180 47l-28 -41h-90l64 94q-61 89 -61 273q0 191 68 283t227 92q111 0 177 -45l27 40h91zM164 355q0 -113 23 -176l289 424q-45 36 -121 36q-105 0 -148 -66.5t-43 -217.5zM546 355q0 120 -25 181
l-290 -425q44 -38 124 -38q104 0 147.5 66t43.5 216z" />
    <glyph glyph-name="Ugrave" unicode="&#xd9;" horiz-adv-x="700" 
d="M399 760h-91l-98 145h112zM350 -18q-151 0 -212.5 85.5t-61.5 274.5v370h103v-370q0 -149 37 -209t133 -60t133 60t37 209v370h105v-370q0 -189 -62 -274.5t-212 -85.5z" />
    <glyph glyph-name="Uacute" unicode="&#xda;" horiz-adv-x="700" 
d="M307 760l77 145h112l-97 -145h-92zM350 -18q-151 0 -212.5 85.5t-61.5 274.5v370h103v-370q0 -149 37 -209t133 -60t133 60t37 209v370h105v-370q0 -189 -62 -274.5t-212 -85.5z" />
    <glyph glyph-name="Ucircumflex" unicode="&#xdb;" horiz-adv-x="700" 
d="M352 824l-62 -64h-91l104 130h97l104 -130h-90zM519 712h105v-370q0 -189 -62 -274.5t-212 -85.5q-151 0 -212.5 85.5t-61.5 274.5v370h103v-370q0 -149 37 -209t133 -60t133 60t37 209v370z" />
    <glyph glyph-name="Udieresis" unicode="&#xdc;" horiz-adv-x="700" 
d="M216 760v134h100v-134h-100zM387 760v134h100v-134h-100zM350 -18q-151 0 -212.5 85.5t-61.5 274.5v370h103v-370q0 -149 37 -209t133 -60t133 60t37 209v370h105v-370q0 -189 -62 -274.5t-212 -85.5z" />
    <glyph glyph-name="Yacute" unicode="&#xdd;" horiz-adv-x="621" 
d="M454 905l-97 -145h-92l77 145h112zM501 712h115l-249 -454v-258h-103v258l-259 454h120l193 -352z" />
    <glyph glyph-name="Thorn" unicode="&#xde;" horiz-adv-x="654" 
d="M191 598h141q158 0 221.5 -50t63.5 -187q0 -138 -64 -187.5t-223 -49.5h-139v-124h-103v712h103v-114zM191 216l139 -1q47 0 76 4.5t55.5 18.5t39 44.5t12.5 78.5t-12.5 78.5t-39 44.5t-55.5 18.5t-76 4.5h-139v-291z" />
    <glyph glyph-name="germandbls" unicode="&#xdf;" horiz-adv-x="606" 
d="M526 564q0 -36 -14.5 -66t-32.5 -46.5t-43 -29t-36 -16t-21 -5.5q5 0 11.5 -0.5t24.5 -3.5t34 -9.5t35.5 -20t33.5 -32t23.5 -48.5t9.5 -68q0 -113 -71.5 -166t-246.5 -53v81q116 0 166 28.5t50 109.5q0 37 -13.5 63.5t-31.5 40t-49.5 22t-53 10.5t-57.5 4v83q45 0 83 10
t67.5 38.5t29.5 73.5q0 123 -119 123q-62 -1 -93 -33t-31 -90v-564h-100v538q0 110 49.5 169.5t173.5 60.5h1q65 0 110 -16t68 -46t33 -64t10 -78z" />
    <glyph glyph-name="agrave" unicode="&#xe0;" horiz-adv-x="580" 
d="M332 621h-91l-98 152h112zM516 1h-84l-12 68q-56 -80 -186 -80q-99 0 -142.5 39.5t-43.5 122.5q0 31 6.5 55t19.5 41t31 29.5t41 20t50.5 12t58.5 5.5t65.5 2t71.5 0h15q-1 93 -21.5 125.5t-95.5 32.5q-71 0 -99.5 -30t-28.5 -69h-90q0 22 3.5 42t17 45.5t35 43.5
t62.5 30.5t96 12.5q36 0 65.5 -4.5t51.5 -10.5t38.5 -20t27.5 -25t18.5 -33t11.5 -36.5t5.5 -44.5t2 -47t0.5 -52v-9v-127zM254 59q56 0 97 25t56 73v93q-41 1 -76.5 0t-65 -3t-52.5 -8.5t-38.5 -17.5t-23.5 -29t-8 -43q0 -90 111 -90z" />
    <glyph glyph-name="aacute" unicode="&#xe1;" horiz-adv-x="580" 
d="M423 773l-97 -152h-91l76 152h112zM516 1h-84l-12 68q-56 -80 -186 -80q-99 0 -142.5 39.5t-43.5 122.5q0 31 6.5 55t19.5 41t31 29.5t41 20t50.5 12t58.5 5.5t65.5 2t71.5 0h15q-1 93 -21.5 125.5t-95.5 32.5q-71 0 -99.5 -30t-28.5 -69h-90q0 22 3.5 42t17 45.5
t35 43.5t62.5 30.5t96 12.5q36 0 65.5 -4.5t51.5 -10.5t38.5 -20t27.5 -25t18.5 -33t11.5 -36.5t5.5 -44.5t2 -47t0.5 -52v-9v-127zM254 59q56 0 97 25t56 73v93q-41 1 -76.5 0t-65 -3t-52.5 -8.5t-38.5 -17.5t-23.5 -29t-8 -43q0 -90 111 -90z" />
    <glyph glyph-name="acircumflex" unicode="&#xe2;" horiz-adv-x="580" 
d="M290 703l-63 -82h-96l116 152h85l116 -152h-95zM516 1h-84l-12 68q-56 -80 -186 -80q-99 0 -142.5 39.5t-43.5 122.5q0 31 6.5 55t19.5 41t31 29.5t41 20t50.5 12t58.5 5.5t65.5 2t71.5 0h15q-1 93 -21.5 125.5t-95.5 32.5q-71 0 -99.5 -30t-28.5 -69h-90q0 22 3.5 42
t17 45.5t35 43.5t62.5 30.5t96 12.5q36 0 65.5 -4.5t51.5 -10.5t38.5 -20t27.5 -25t18.5 -33t11.5 -36.5t5.5 -44.5t2 -47t0.5 -52v-9v-127zM254 59q56 0 97 25t56 73v93q-41 1 -76.5 0t-65 -3t-52.5 -8.5t-38.5 -17.5t-23.5 -29t-8 -43q0 -90 111 -90z" />
    <glyph glyph-name="atilde" unicode="&#xe3;" horiz-adv-x="580" 
d="M242 665q-26 0 -37 -15t-11 -29h-52q0 114 90 114q31 0 58 -18t45 -18q25 0 36.5 15t11.5 29h53q0 -60 -19 -89t-69 -29q-31 0 -59.5 20t-46.5 20zM516 1h-84l-12 68q-56 -80 -186 -80q-99 0 -142.5 39.5t-43.5 122.5q0 31 6.5 55t19.5 41t31 29.5t41 20t50.5 12
t58.5 5.5t65.5 2t71.5 0h15q-1 93 -21.5 125.5t-95.5 32.5q-71 0 -99.5 -30t-28.5 -69h-90q0 22 3.5 42t17 45.5t35 43.5t62.5 30.5t96 12.5q36 0 65.5 -4.5t51.5 -10.5t38.5 -20t27.5 -25t18.5 -33t11.5 -36.5t5.5 -44.5t2 -47t0.5 -52v-9v-127zM254 59q56 0 97 25t56 73
v93q-41 1 -76.5 0t-65 -3t-52.5 -8.5t-38.5 -17.5t-23.5 -29t-8 -43q0 -90 111 -90z" />
    <glyph glyph-name="adieresis" unicode="&#xe4;" horiz-adv-x="580" 
d="M254 756v-134h-101v134h101zM426 756v-134h-101v134h101zM516 1h-84l-12 68q-56 -80 -186 -80q-99 0 -142.5 39.5t-43.5 122.5q0 31 6.5 55t19.5 41t31 29.5t41 20t50.5 12t58.5 5.5t65.5 2t71.5 0h15q-1 93 -21.5 125.5t-95.5 32.5q-71 0 -99.5 -30t-28.5 -69h-90
q0 22 3.5 42t17 45.5t35 43.5t62.5 30.5t96 12.5q36 0 65.5 -4.5t51.5 -10.5t38.5 -20t27.5 -25t18.5 -33t11.5 -36.5t5.5 -44.5t2 -47t0.5 -52v-9v-127zM254 59q56 0 97 25t56 73v93q-41 1 -76.5 0t-65 -3t-52.5 -8.5t-38.5 -17.5t-23.5 -29t-8 -43q0 -90 111 -90z" />
    <glyph glyph-name="aring" unicode="&#xe5;" horiz-adv-x="580" 
d="M289 615q-50 0 -76.5 28.5t-26.5 70.5q0 41 26.5 69.5t76.5 28.5q49 0 75.5 -28.5t26.5 -69.5t-26 -70t-76 -29zM289 749q-16 0 -25.5 -9.5t-9.5 -25.5t9.5 -26t25.5 -10q15 0 24.5 10t9.5 26t-9.5 25.5t-24.5 9.5zM516 1h-84l-12 68q-56 -80 -186 -80q-99 0 -142.5 39.5
t-43.5 122.5q0 31 6.5 55t19.5 41t31 29.5t41 20t50.5 12t58.5 5.5t65.5 2t71.5 0h15q-1 93 -21.5 125.5t-95.5 32.5q-71 0 -99.5 -30t-28.5 -69h-90q0 22 3.5 42t17 45.5t35 43.5t62.5 30.5t96 12.5q36 0 65.5 -4.5t51.5 -10.5t38.5 -20t27.5 -25t18.5 -33t11.5 -36.5
t5.5 -44.5t2 -47t0.5 -52v-9v-127zM254 59q56 0 97 25t56 73v93q-41 1 -76.5 0t-65 -3t-52.5 -8.5t-38.5 -17.5t-23.5 -29t-8 -43q0 -90 111 -90z" />
    <glyph glyph-name="ae" unicode="&#xe6;" horiz-adv-x="930" 
d="M640 64q71 0 104 33.5t34 69.5h101q0 -28 -11.5 -56.5t-36 -57.5t-74 -47.5t-116.5 -18.5q-155 0 -209 104q-51 -102 -198 -102q-98 0 -142 41t-44 124q0 31 7 55.5t20 42t31.5 30t42 19.5t51.5 11.5t60 5.5t67 2t73 0q3 38 10 65q-7 49 -33.5 69t-86.5 20
q-71 0 -99.5 -30t-28.5 -69h-90q0 22 3.5 42t17 45.5t35 43.5t62.5 30.5t96 12.5q126 0 166 -72q59 75 189 75q127 0 184 -72t57 -228h-97l-285 1q2 -96 32.5 -142.5t107.5 -46.5zM640 476q-67 0 -99 -38t-39 -113h279q-8 78 -41.5 114.5t-99.5 36.5zM254 59q57 0 98 26.5
t55 77.5q-8 42 -9 91q-49 0 -75 -0.5t-61 -3t-52 -9t-35 -17.5t-25 -29t-7 -43q0 -93 111 -93z" />
    <glyph glyph-name="ccedilla" unicode="&#xe7;" horiz-adv-x="575" 
d="M427 181h100q-3 -82 -49 -132t-137 -60l-25 -43q90 -7 90 -83q0 -98 -125 -98q-27 0 -47.5 1.5t-27.5 3.5l-6 1v62q20 -6 61 -6q59 0 59 42t-99 42h-3l41 78q-113 9 -160 80.5t-47 199.5q0 137 55 209.5t188 72.5q225 0 231 -210h-98q-1 63 -35.5 96t-97.5 33
q-77 0 -109.5 -49t-32.5 -152q0 -104 32.5 -152t109.5 -48q61 0 96 30t36 82z" />
    <glyph glyph-name="egrave" unicode="&#xe8;" horiz-adv-x="584" 
d="M338 621h-91l-98 152h112zM294 64q71 0 104 33.5t34 69.5h100q0 -28 -11 -56.5t-36 -57.5t-74.5 -47.5t-116.5 -18.5q-131 0 -186.5 70t-55.5 210q0 141 56 213t186 72q126 0 184 -72.5t58 -223.5h-383q2 -97 33 -144.5t108 -47.5zM294 476q-66 0 -98 -37t-40 -110h279
q-9 74 -42.5 110.5t-98.5 36.5z" />
    <glyph glyph-name="eacute" unicode="&#xe9;" horiz-adv-x="584" 
d="M429 773l-97 -152h-91l76 152h112zM294 64q71 0 104 33.5t34 69.5h100q0 -28 -11 -56.5t-36 -57.5t-74.5 -47.5t-116.5 -18.5q-131 0 -186.5 70t-55.5 210q0 141 56 213t186 72q126 0 184 -72.5t58 -223.5h-383q2 -97 33 -144.5t108 -47.5zM294 476q-66 0 -98 -37
t-40 -110h279q-9 74 -42.5 110.5t-98.5 36.5z" />
    <glyph glyph-name="ecircumflex" unicode="&#xea;" horiz-adv-x="584" 
d="M296 703l-63 -82h-96l116 152h85l116 -152h-95zM294 64q71 0 104 33.5t34 69.5h100q0 -28 -11 -56.5t-36 -57.5t-74.5 -47.5t-116.5 -18.5q-131 0 -186.5 70t-55.5 210q0 141 56 213t186 72q126 0 184 -72.5t58 -223.5h-383q2 -97 33 -144.5t108 -47.5zM294 476
q-66 0 -98 -37t-40 -110h279q-9 74 -42.5 110.5t-98.5 36.5z" />
    <glyph glyph-name="edieresis" unicode="&#xeb;" horiz-adv-x="584" 
d="M260 756v-134h-101v134h101zM432 756v-134h-101v134h101zM294 64q71 0 104 33.5t34 69.5h100q0 -28 -11 -56.5t-36 -57.5t-74.5 -47.5t-116.5 -18.5q-131 0 -186.5 70t-55.5 210q0 141 56 213t186 72q126 0 184 -72.5t58 -223.5h-383q2 -97 33 -144.5t108 -47.5zM294 476
q-66 0 -98 -37t-40 -110h279q-9 74 -42.5 110.5t-98.5 36.5z" />
    <glyph glyph-name="igrave" unicode="&#xec;" horiz-adv-x="242" 
d="M164 621h-91l-98 152h112zM69 0v539h100v-539h-100z" />
    <glyph glyph-name="iacute" unicode="&#xed;" horiz-adv-x="242" 
d="M67 621l76 152h112l-97 -152h-91zM69 0v539h100v-539h-100z" />
    <glyph glyph-name="icircumflex" unicode="&#xee;" horiz-adv-x="242" 
d="M164 773l116 -152h-95l-63 82l-63 -82h-96l116 152h85zM69 0v539h100v-539h-100z" />
    <glyph glyph-name="idieresis" unicode="&#xef;" horiz-adv-x="242" 
d="M-15 622v134h101v-134h-101zM157 622v134h101v-134h-101zM69 0v539h100v-539h-100z" />
    <glyph glyph-name="eth" unicode="&#xf0;" horiz-adv-x="595" 
d="M543 269v-6q-1 -133 -57 -204.5t-189 -71.5t-189 72.5t-56 208.5q0 271 232 271q54 0 98 -28q-24 51 -59 105l-87 -46l-29 48l83 44q-21 28 -42.5 52.5t-33.5 35.5l-11 10h126q20 -19 47 -53l80 42l29 -48l-75 -39q131 -189 133 -393zM297 68q78 0 110.5 47.5t32.5 149.5
q0 52 -11 104q-11 38 -45.5 70t-86.5 32q-79 0 -111.5 -49.5t-32.5 -153.5t32.5 -152t111.5 -48z" />
    <glyph glyph-name="ntilde" unicode="&#xf1;" horiz-adv-x="616" 
d="M274 665q-26 0 -37 -15t-11 -29h-52q0 114 90 114q31 0 58 -18t45 -18q25 0 36.5 15t11.5 29h53q0 -60 -19 -89t-69 -29q-31 0 -59.5 20t-46.5 20zM350 551q102 0 146.5 -51t44.5 -179l-2 -321h-100l2 312q0 75 -23.5 112.5t-86.5 37.5q-99 0 -151 -105v-357h-100v394
l-8 145h84l15 -91q24 39 69 71t110 32z" />
    <glyph glyph-name="ograve" unicode="&#xf2;" horiz-adv-x="599" 
d="M341 618h-91l-98 152h112zM299 -13q-135 0 -191 72.5t-56 208.5q0 137 56.5 210.5t190.5 73.5t191 -74t57 -210t-56.5 -208.5t-191.5 -72.5zM298 68q81 0 113.5 48t32.5 152t-33 153.5t-113 49.5t-112.5 -49.5t-32.5 -153.5t32.5 -152t112.5 -48z" />
    <glyph glyph-name="oacute" unicode="&#xf3;" horiz-adv-x="599" 
d="M244 618l76 152h112l-97 -152h-91zM299 -13q-135 0 -191 72.5t-56 208.5q0 137 56.5 210.5t190.5 73.5t191 -74t57 -210t-56.5 -208.5t-191.5 -72.5zM298 68q81 0 113.5 48t32.5 152t-33 153.5t-113 49.5t-112.5 -49.5t-32.5 -153.5t32.5 -152t112.5 -48z" />
    <glyph glyph-name="ocircumflex" unicode="&#xf4;" horiz-adv-x="599" 
d="M299 700l-63 -82h-96l116 152h85l116 -152h-95zM299 552q134 0 191 -74t57 -210t-56.5 -208.5t-191.5 -72.5t-191 72.5t-56 208.5q0 137 56.5 210.5t190.5 73.5zM298 68q81 0 113.5 48t32.5 152t-33 153.5t-113 49.5t-112.5 -49.5t-32.5 -153.5t32.5 -152t112.5 -48z" />
    <glyph glyph-name="otilde" unicode="&#xf5;" horiz-adv-x="599" 
d="M392 740h53q0 -60 -19 -89t-69 -29q-31 0 -59.5 20t-46.5 20q-26 0 -37 -15t-11 -29h-52q0 114 90 114q31 0 58 -18t45 -18q26 0 37 15t11 29zM299 -13q-135 0 -191 72.5t-56 208.5q0 137 56.5 210.5t190.5 73.5t191 -74t57 -210t-56.5 -208.5t-191.5 -72.5zM298 68
q81 0 113.5 48t32.5 152t-33 153.5t-113 49.5t-112.5 -49.5t-32.5 -153.5t32.5 -152t112.5 -48z" />
    <glyph glyph-name="odieresis" unicode="&#xf6;" horiz-adv-x="599" 
d="M162 619v134h101v-134h-101zM334 619v134h101v-134h-101zM299 -13q-135 0 -191 72.5t-56 208.5q0 137 56.5 210.5t190.5 73.5t191 -74t57 -210t-56.5 -208.5t-191.5 -72.5zM298 68q81 0 113.5 48t32.5 152t-33 153.5t-113 49.5t-112.5 -49.5t-32.5 -153.5t32.5 -152
t112.5 -48z" />
    <glyph glyph-name="divide" unicode="&#xf7;" horiz-adv-x="515" 
d="M210 420v118h94v-118h-94zM46 282v85h422v-85h-422zM210 111v118h94v-118h-94z" />
    <glyph glyph-name="oslash" unicode="&#xf8;" horiz-adv-x="599" 
d="M541 548l-51 -70q57 -70 57 -210q0 -136 -56.5 -208.5t-191.5 -72.5q-87 0 -142 32l-19 -27h-82l51 70q-55 67 -55 206q0 137 56.5 210.5t190.5 73.5q86 0 141 -32l20 28h81zM153 268q0 -75 16 -120l218 299q-33 24 -89 24q-80 0 -112.5 -49.5t-32.5 -153.5zM298 68
q81 0 113.5 48t32.5 152q0 78 -17 123l-217 -300q34 -23 88 -23z" />
    <glyph glyph-name="ugrave" unicode="&#xf9;" horiz-adv-x="602" 
d="M345 621h-91l-98 152h112zM538 0h-85l-16 99q-21 -39 -67 -75.5t-115 -36.5q-99 0 -144.5 51t-45.5 173l2 328h99l-1 -312q0 -76 22.5 -113.5t85.5 -37.5q33 0 61.5 13t47 34t29.5 38.5t18 34.5v343h100v-390z" />
    <glyph glyph-name="uacute" unicode="&#xfa;" horiz-adv-x="602" 
d="M436 773l-97 -152h-91l76 152h112zM538 0h-85l-16 99q-21 -39 -67 -75.5t-115 -36.5q-99 0 -144.5 51t-45.5 173l2 328h99l-1 -312q0 -76 22.5 -113.5t85.5 -37.5q33 0 61.5 13t47 34t29.5 38.5t18 34.5v343h100v-390z" />
    <glyph glyph-name="ucircumflex" unicode="&#xfb;" horiz-adv-x="602" 
d="M303 703l-63 -82h-96l116 152h85l116 -152h-95zM538 0h-85l-16 99q-21 -39 -67 -75.5t-115 -36.5q-99 0 -144.5 51t-45.5 173l2 328h99l-1 -312q0 -76 22.5 -113.5t85.5 -37.5q33 0 61.5 13t47 34t29.5 38.5t18 34.5v343h100v-390z" />
    <glyph glyph-name="udieresis" unicode="&#xfc;" horiz-adv-x="602" 
d="M267 756v-134h-101v134h101zM439 756v-134h-101v134h101zM538 0h-85l-16 99q-21 -39 -67 -75.5t-115 -36.5q-99 0 -144.5 51t-45.5 173l2 328h99l-1 -312q0 -76 22.5 -113.5t85.5 -37.5q33 0 61.5 13t47 34t29.5 38.5t18 34.5v343h100v-390z" />
    <glyph glyph-name="yacute" unicode="&#xfd;" horiz-adv-x="519" 
d="M385 773l-97 -152h-91l76 152h112zM409 539h103l-271 -758h-91l75 219h-28l-190 539h110l142 -438z" />
    <glyph glyph-name="thorn" unicode="&#xfe;" horiz-adv-x="610" 
d="M342 549q216 0 216 -281q0 -136 -51.5 -207t-164.5 -71q-115 0 -172 69v-299h-98v1000h98v-295q67 84 172 84zM323 71q133 0 133 197q0 200 -133 200q-100 0 -153 -103v-184q12 -45 49 -77.5t104 -32.5z" />
    <glyph glyph-name="ydieresis" unicode="&#xff;" horiz-adv-x="519" 
d="M216 756v-134h-101v134h101zM388 756v-134h-101v134h101zM409 539h103l-271 -758h-91l75 219h-28l-190 539h110l142 -438z" />
    <glyph glyph-name="Amacron" unicode="&#x100;" horiz-adv-x="649" 
d="M456 861v-78h-261v78h261zM535 0l-62 171h-304l-61 -171h-103l271 712h99l269 -712h-109zM202 262h239l-120 332z" />
    <glyph glyph-name="amacron" unicode="&#x101;" horiz-adv-x="580" 
d="M420 722v-78h-261v78h261zM516 1h-84l-12 68q-56 -80 -186 -80q-99 0 -142.5 39.5t-43.5 122.5q0 31 6.5 55t19.5 41t31 29.5t41 20t50.5 12t58.5 5.5t65.5 2t71.5 0h15q-1 93 -21.5 125.5t-95.5 32.5q-71 0 -99.5 -30t-28.5 -69h-90q0 22 3.5 42t17 45.5t35 43.5
t62.5 30.5t96 12.5q36 0 65.5 -4.5t51.5 -10.5t38.5 -20t27.5 -25t18.5 -33t11.5 -36.5t5.5 -44.5t2 -47t0.5 -52v-9v-127zM254 59q56 0 97 25t56 73v93q-41 1 -76.5 0t-65 -3t-52.5 -8.5t-38.5 -17.5t-23.5 -29t-8 -43q0 -90 111 -90z" />
    <glyph glyph-name="Abreve" unicode="&#x102;" horiz-adv-x="649" 
d="M325 760q-69 0 -106 36.5t-37 88.5h78q0 -20 18 -36.5t47 -16.5t47.5 16.5t18.5 36.5h77q0 -52 -37 -88.5t-106 -36.5zM535 0l-62 171h-304l-61 -171h-103l271 712h99l269 -712h-109zM202 262h239l-120 332z" />
    <glyph glyph-name="abreve" unicode="&#x103;" horiz-adv-x="580" 
d="M289 618q-66 0 -104.5 37.5t-38.5 93.5h78q0 -21 18 -39t47 -18q28 0 47 18.5t19 38.5h77q0 -56 -38.5 -93.5t-104.5 -37.5zM516 1h-84l-12 68q-56 -80 -186 -80q-99 0 -142.5 39.5t-43.5 122.5q0 31 6.5 55t19.5 41t31 29.5t41 20t50.5 12t58.5 5.5t65.5 2t71.5 0h15
q-1 93 -21.5 125.5t-95.5 32.5q-71 0 -99.5 -30t-28.5 -69h-90q0 22 3.5 42t17 45.5t35 43.5t62.5 30.5t96 12.5q36 0 65.5 -4.5t51.5 -10.5t38.5 -20t27.5 -25t18.5 -33t11.5 -36.5t5.5 -44.5t2 -47t0.5 -52v-9v-127zM254 59q56 0 97 25t56 73v93q-41 1 -76.5 0t-65 -3
t-52.5 -8.5t-38.5 -17.5t-23.5 -29t-8 -43q0 -90 111 -90z" />
    <glyph glyph-name="Aogonek" unicode="&#x104;" horiz-adv-x="649" 
d="M537 -91q0 -16 9.5 -26t25.5 -10q11 0 23 3.5t19 6.5l6 3v-56q0 -1 -10 -7t-33 -12t-48 -6q-40 0 -60.5 21.5t-20.5 55.5q0 43 28 75t57 48l-60 166h-304l-61 -171h-103l271 712h99l269 -712h-36q-71 -36 -71 -91zM202 262h239l-120 332z" />
    <glyph glyph-name="aogonek" unicode="&#x105;" horiz-adv-x="580" 
d="M472 -127q11 0 23 3.5t19 6.5l6 3v-56q0 -1 -10 -7t-33 -12t-48 -6q-40 0 -60.5 21.5t-20.5 55.5q0 71 83 122l-11 65q-56 -80 -186 -80q-99 0 -142.5 39.5t-43.5 122.5q0 31 6.5 55t19.5 41t31 29.5t41 20t50.5 12t58.5 5.5t65.5 2t71.5 0h15q-1 93 -21.5 125.5
t-95.5 32.5q-71 0 -99.5 -30t-28.5 -69h-90q0 22 3.5 42t17 45.5t35 43.5t62.5 30.5t96 12.5q36 0 65.5 -4.5t51.5 -10.5t38.5 -20t27.5 -25t18.5 -33t11.5 -36.5t5.5 -44.5t2 -47t0.5 -52v-9v-127l9 -139h-6q-73 -37 -73 -92q0 -16 9.5 -26t25.5 -10zM254 59q56 0 97 25
t56 73v93q-41 1 -76.5 0t-65 -3t-52.5 -8.5t-38.5 -17.5t-23.5 -29t-8 -43q0 -90 111 -90z" />
    <glyph glyph-name="Cacute" unicode="&#x106;" horiz-adv-x="674" 
d="M302 767l77 145h112l-97 -145h-92zM351 -18q-156 0 -223.5 91.5t-67.5 281.5q0 191 67.5 283t223.5 92q264 0 268 -267h-101q-4 93 -44.5 134.5t-122.5 41.5q-102 0 -144.5 -66t-42.5 -218q0 -151 42.5 -216.5t144.5 -65.5q80 0 120.5 40.5t44.5 131.5h101
q-3 -134 -69 -198.5t-197 -64.5z" />
    <glyph glyph-name="cacute" unicode="&#x107;" horiz-adv-x="575" 
d="M240 621l76 152h112l-97 -152h-91zM295 -13q-133 0 -188 72t-55 210q0 137 55 209.5t188 72.5q225 0 231 -210h-98q-1 63 -35.5 96t-97.5 33q-77 0 -109.5 -49t-32.5 -152q0 -104 32.5 -152t109.5 -48q61 0 96 30t36 82h100q-4 -92 -61.5 -143t-170.5 -51z" />
    <glyph glyph-name="Ccircumflex" unicode="&#x108;" horiz-adv-x="674" 
d="M347 831l-62 -64h-91l104 130h97l104 -130h-90zM351 73q80 0 120.5 40.5t44.5 131.5h101q-3 -134 -69 -198.5t-197 -64.5q-156 0 -223.5 91.5t-67.5 281.5q0 191 67.5 283t223.5 92q264 0 268 -267h-101q-4 93 -44.5 134.5t-122.5 41.5q-102 0 -144.5 -66t-42.5 -218
q0 -151 42.5 -216.5t144.5 -65.5z" />
    <glyph glyph-name="ccircumflex" unicode="&#x109;" horiz-adv-x="575" 
d="M295 703l-63 -82h-96l116 152h85l116 -152h-95zM427 181h100q-4 -92 -61.5 -143t-170.5 -51q-133 0 -188 72t-55 210q0 137 55 209.5t188 72.5q225 0 231 -210h-98q-1 63 -35.5 96t-97.5 33q-77 0 -109.5 -49t-32.5 -152q0 -104 32.5 -152t109.5 -48q61 0 96 30t36 82z
" />
    <glyph glyph-name="Cdotaccent" unicode="&#x10a;" horiz-adv-x="674" 
d="M296 767v134h100v-134h-100zM351 -18q-156 0 -223.5 91.5t-67.5 281.5q0 191 67.5 283t223.5 92q264 0 268 -267h-101q-4 93 -44.5 134.5t-122.5 41.5q-102 0 -144.5 -66t-42.5 -218q0 -151 42.5 -216.5t144.5 -65.5q80 0 120.5 40.5t44.5 131.5h101q-3 -134 -69 -198.5
t-197 -64.5z" />
    <glyph glyph-name="cdotaccent" unicode="&#x10b;" horiz-adv-x="575" 
d="M244 625v135h100v-135h-100zM295 -13q-133 0 -188 72t-55 210q0 137 55 209.5t188 72.5q225 0 231 -210h-98q-1 63 -35.5 96t-97.5 33q-77 0 -109.5 -49t-32.5 -152q0 -104 32.5 -152t109.5 -48q61 0 96 30t36 82h100q-4 -92 -61.5 -143t-170.5 -51z" />
    <glyph glyph-name="Ccaron" unicode="&#x10c;" horiz-adv-x="674" 
d="M395 767h-97l-104 130h90l63 -64l62 64h90zM351 73q80 0 120.5 40.5t44.5 131.5h101q-3 -134 -69 -198.5t-197 -64.5q-156 0 -223.5 91.5t-67.5 281.5q0 191 67.5 283t223.5 92q264 0 268 -267h-101q-4 93 -44.5 134.5t-122.5 41.5q-102 0 -144.5 -66t-42.5 -218
q0 -151 42.5 -216.5t144.5 -65.5z" />
    <glyph glyph-name="ccaron" unicode="&#x10d;" horiz-adv-x="575" 
d="M337 621h-85l-116 152h95l64 -82l63 82h95zM427 181h100q-4 -92 -61.5 -143t-170.5 -51q-133 0 -188 72t-55 210q0 137 55 209.5t188 72.5q225 0 231 -210h-98q-1 63 -35.5 96t-97.5 33q-77 0 -109.5 -49t-32.5 -152q0 -104 32.5 -152t109.5 -48q61 0 96 30t36 82z" />
    <glyph glyph-name="Dcaron" unicode="&#x10e;" horiz-adv-x="694" 
d="M377 760h-97l-104 130h90l63 -64l62 64h90zM88 715h191q107 0 176.5 -20t109 -66.5t54.5 -110.5t15 -163t-15 -162.5t-54.5 -109.5t-109 -66t-176.5 -20h-191v718zM191 88h92q147 0 196.5 53.5t49.5 213.5q0 163 -49 216t-197 53h-92v-536z" />
    <glyph glyph-name="dcaron" unicode="&#x10f;" horiz-adv-x="623" 
d="M540 760v-614l8 -146h-84l-13 76q-56 -86 -184 -86q-113 0 -164 71t-51 207q0 137 51 209t164 72q108 0 173 -75v286h100zM286 71q67 0 104.5 33t49.5 78v181q-19 40 -57 72.5t-97 32.5q-132 0 -132 -200q0 -197 132 -197zM621 760h98l-85 -177h-77z" />
    <glyph glyph-name="Dcroat" unicode="&#x110;" horiz-adv-x="694" 
d="M88 715h191q107 0 176.5 -20t109 -66.5t54.5 -110.5t15 -163t-15 -162.5t-54.5 -109.5t-109 -66t-176.5 -20h-191v331h-57v67h57v320zM191 88h92q147 0 196.5 53.5t49.5 213.5q0 163 -49 216t-197 53h-92v-229h145v-67h-145v-240z" />
    <glyph glyph-name="dcroat" unicode="&#x111;" horiz-adv-x="623" 
d="M607 587h-67v-441l8 -146h-84l-13 76q-56 -86 -184 -86q-113 0 -164 71t-51 207q0 137 51 209t164 72q108 0 173 -75v113h-138v67h138v106h100v-106h67v-67zM286 71q67 0 104.5 33t49.5 78v181q-19 40 -57 72.5t-97 32.5q-132 0 -132 -200q0 -197 132 -197z" />
    <glyph glyph-name="Emacron" unicode="&#x112;" horiz-adv-x="590" 
d="M450 861v-78h-261v78h261zM191 91h369v-91h-472v712h466v-91h-363v-208h313v-89h-313v-233z" />
    <glyph glyph-name="emacron" unicode="&#x113;" horiz-adv-x="584" 
d="M426 722v-78h-261v78h261zM294 64q71 0 104 33.5t34 69.5h100q0 -28 -11 -56.5t-36 -57.5t-74.5 -47.5t-116.5 -18.5q-131 0 -186.5 70t-55.5 210q0 141 56 213t186 72q126 0 184 -72.5t58 -223.5h-383q2 -97 33 -144.5t108 -47.5zM294 476q-66 0 -98 -37t-40 -110h279
q-9 74 -42.5 110.5t-98.5 36.5z" />
    <glyph glyph-name="Ebreve" unicode="&#x114;" horiz-adv-x="590" 
d="M319 760q-69 0 -106 36.5t-37 88.5h78q0 -20 18 -36.5t47 -16.5t47.5 16.5t18.5 36.5h77q0 -52 -37 -88.5t-106 -36.5zM191 91h369v-91h-472v712h466v-91h-363v-208h313v-89h-313v-233z" />
    <glyph glyph-name="ebreve" unicode="&#x115;" horiz-adv-x="584" 
d="M295 618q-66 0 -104.5 37.5t-38.5 93.5h78q0 -21 18 -39t47 -18q28 0 47 18.5t19 38.5h77q0 -56 -38.5 -93.5t-104.5 -37.5zM294 64q71 0 104 33.5t34 69.5h100q0 -28 -11 -56.5t-36 -57.5t-74.5 -47.5t-116.5 -18.5q-131 0 -186.5 70t-55.5 210q0 141 56 213t186 72
q126 0 184 -72.5t58 -223.5h-383q2 -97 33 -144.5t108 -47.5zM294 476q-66 0 -98 -37t-40 -110h279q-9 74 -42.5 110.5t-98.5 36.5z" />
    <glyph glyph-name="Edotaccent" unicode="&#x116;" horiz-adv-x="590" 
d="M369 894v-134h-100v134h100zM191 91h369v-91h-472v712h466v-91h-363v-208h313v-89h-313v-233z" />
    <glyph glyph-name="edotaccent" unicode="&#x117;" horiz-adv-x="584" 
d="M345 760v-135h-100v135h100zM294 64q71 0 104 33.5t34 69.5h100q0 -28 -11 -56.5t-36 -57.5t-74.5 -47.5t-116.5 -18.5q-131 0 -186.5 70t-55.5 210q0 141 56 213t186 72q126 0 184 -72.5t58 -223.5h-383q2 -97 33 -144.5t108 -47.5zM294 476q-66 0 -98 -37t-40 -110h279
q-9 74 -42.5 110.5t-98.5 36.5z" />
    <glyph glyph-name="Eogonek" unicode="&#x118;" horiz-adv-x="590" 
d="M521 -129q11 0 23 3.5t18 6.5l7 3v-56q0 -1 -10 -7t-33 -12t-48 -6q-40 0 -60.5 21.5t-20.5 55.5q0 66 79 120h-388v712h466v-91h-363v-208h313v-89h-313v-233h369v-91q-6 -2 -21 -11t-34 -32.5t-19 -49.5q0 -16 9.5 -26t25.5 -10z" />
    <glyph glyph-name="eogonek" unicode="&#x119;" horiz-adv-x="584" 
d="M294 64q71 0 104 33.5t34 69.5h100q0 -36 -19 -75t-61 -66h1l-5 -2q-4 -3 -12 -7q-58 -37 -58 -84q0 -16 9.5 -26t25.5 -10q11 0 23 3.5t18 6.5l7 3v-56q0 -1 -10 -7t-33 -12t-48 -6q-40 0 -60.5 21.5t-20.5 55.5q0 42 34 82q-9 -1 -29 -1q-131 0 -186.5 70t-55.5 210
q0 141 56 213t186 72q126 0 184 -72.5t58 -223.5h-383q2 -97 33 -144.5t108 -47.5zM294 476q-66 0 -98 -37t-40 -110h279q-9 74 -42.5 110.5t-98.5 36.5z" />
    <glyph glyph-name="Ecaron" unicode="&#x11a;" horiz-adv-x="590" 
d="M368 760h-97l-104 130h90l63 -64l62 64h90zM191 91h369v-91h-472v712h466v-91h-363v-208h313v-89h-313v-233z" />
    <glyph glyph-name="ecaron" unicode="&#x11b;" horiz-adv-x="584" 
d="M338 621h-85l-116 152h95l64 -82l63 82h95zM294 64q71 0 104 33.5t34 69.5h100q0 -28 -11 -56.5t-36 -57.5t-74.5 -47.5t-116.5 -18.5q-131 0 -186.5 70t-55.5 210q0 141 56 213t186 72q126 0 184 -72.5t58 -223.5h-383q2 -97 33 -144.5t108 -47.5zM294 476
q-66 0 -98 -37t-40 -110h279q-9 74 -42.5 110.5t-98.5 36.5z" />
    <glyph glyph-name="Gcircumflex" unicode="&#x11c;" horiz-adv-x="683" 
d="M347 831l-62 -64h-91l104 130h97l104 -130h-90zM616 353v-265q0 -6 -9 -17.5t-30.5 -27t-50.5 -29t-75.5 -23t-99.5 -9.5q-156 -1 -223.5 89.5t-67.5 283.5q0 192 67.5 283.5t223.5 91.5q135 0 201 -65.5t66 -182.5h-101q-1 74 -43.5 115.5t-122.5 41.5
q-102 0 -144.5 -66.5t-42.5 -217.5q0 -150 44.5 -216t149.5 -66q48 0 88 10.5t57.5 21.5t16.5 18v144h-133v86h229z" />
    <glyph glyph-name="gcircumflex" unicode="&#x11d;" horiz-adv-x="612" 
d="M307 703l-63 -82h-96l116 152h85l116 -152h-95zM464 539h84l-7 -150v-390q0 -30 -0.5 -47.5t-5.5 -46.5t-14 -46t-27 -38.5t-44 -33t-65.5 -19.5t-90.5 -8q-47 0 -84 10.5t-59 26.5t-38 36t-22 40t-9.5 36t-3.5 27l1 10h93v-15t6.5 -26t18 -33t39 -23.5t65.5 -11.5
q48 0 77.5 11.5t42.5 37t16.5 49t3.5 63.5v64q-56 -72 -174 -72q-113 0 -164 71t-51 207q0 137 51 209t164 72q67 0 113 -30.5t70 -65.5zM286 71q68 0 106 34.5t49 80.5v177q-53 105 -155 105q-132 0 -132 -200q0 -197 132 -197z" />
    <glyph glyph-name="Gbreve" unicode="&#x11e;" horiz-adv-x="683" 
d="M346 767q-69 0 -106 36.5t-37 88.5h78q0 -20 18 -36.5t47 -16.5t47.5 16.5t18.5 36.5h77q0 -52 -37 -88.5t-106 -36.5zM616 353v-265q0 -6 -9 -17.5t-30.5 -27t-50.5 -29t-75.5 -23t-99.5 -9.5q-156 -1 -223.5 89.5t-67.5 283.5q0 192 67.5 283.5t223.5 91.5
q135 0 201 -65.5t66 -182.5h-101q-1 74 -43.5 115.5t-122.5 41.5q-102 0 -144.5 -66.5t-42.5 -217.5q0 -150 44.5 -216t149.5 -66q48 0 88 10.5t57.5 21.5t16.5 18v144h-133v86h229z" />
    <glyph glyph-name="gbreve" unicode="&#x11f;" horiz-adv-x="612" 
d="M306 618q-66 0 -104.5 37.5t-38.5 93.5h78q0 -21 18 -39t47 -18q28 0 47 18.5t19 38.5h77q0 -56 -38.5 -93.5t-104.5 -37.5zM464 539h84l-7 -150v-390q0 -30 -0.5 -47.5t-5.5 -46.5t-14 -46t-27 -38.5t-44 -33t-65.5 -19.5t-90.5 -8q-47 0 -84 10.5t-59 26.5t-38 36
t-22 40t-9.5 36t-3.5 27l1 10h93v-15t6.5 -26t18 -33t39 -23.5t65.5 -11.5q48 0 77.5 11.5t42.5 37t16.5 49t3.5 63.5v64q-56 -72 -174 -72q-113 0 -164 71t-51 207q0 137 51 209t164 72q67 0 113 -30.5t70 -65.5zM286 71q68 0 106 34.5t49 80.5v177q-53 105 -155 105
q-132 0 -132 -200q0 -197 132 -197z" />
    <glyph glyph-name="Gdotaccent" unicode="&#x120;" horiz-adv-x="683" 
d="M396 901v-134h-100v134h100zM616 353v-265q0 -6 -9 -17.5t-30.5 -27t-50.5 -29t-75.5 -23t-99.5 -9.5q-156 -1 -223.5 89.5t-67.5 283.5q0 192 67.5 283.5t223.5 91.5q135 0 201 -65.5t66 -182.5h-101q-1 74 -43.5 115.5t-122.5 41.5q-102 0 -144.5 -66.5t-42.5 -217.5
q0 -150 44.5 -216t149.5 -66q48 0 88 10.5t57.5 21.5t16.5 18v144h-133v86h229z" />
    <glyph glyph-name="gdotaccent" unicode="&#x121;" horiz-adv-x="612" 
d="M356 760v-135h-100v135h100zM464 539h84l-7 -150v-390q0 -30 -0.5 -47.5t-5.5 -46.5t-14 -46t-27 -38.5t-44 -33t-65.5 -19.5t-90.5 -8q-47 0 -84 10.5t-59 26.5t-38 36t-22 40t-9.5 36t-3.5 27l1 10h93v-15t6.5 -26t18 -33t39 -23.5t65.5 -11.5q48 0 77.5 11.5t42.5 37
t16.5 49t3.5 63.5v64q-56 -72 -174 -72q-113 0 -164 71t-51 207q0 137 51 209t164 72q67 0 113 -30.5t70 -65.5zM286 71q68 0 106 34.5t49 80.5v177q-53 105 -155 105q-132 0 -132 -200q0 -197 132 -197z" />
    <glyph glyph-name="Gcommaaccent" unicode="&#x122;" horiz-adv-x="683" 
d="M616 353v-265q0 -6 -9 -17.5t-30.5 -27t-50.5 -29t-75.5 -23t-99.5 -9.5q-156 -1 -223.5 89.5t-67.5 283.5q0 192 67.5 283.5t223.5 91.5q135 0 201 -65.5t66 -182.5h-101q-1 74 -43.5 115.5t-122.5 41.5q-102 0 -144.5 -66.5t-42.5 -217.5q0 -150 44.5 -216t149.5 -66
q48 0 88 10.5t57.5 21.5t16.5 18v144h-133v86h229zM296 -149q7 25 11.5 48.5t4.5 34.5l1 11h99q-4 -45 -22 -101q-10 -30 -23 -57t-21 -39l-8 -12h-86q27 51 44 115z" />
    <glyph glyph-name="gcommaaccent" unicode="&#x123;" horiz-adv-x="612" 
d="M345 699q-8 -33 -12 -61.5t-5 -39.5v-12h-103q1 44 21 119q10 36 24 68t24 47l9 14h89q-30 -60 -47 -135zM464 539h84l-7 -150v-390q0 -30 -0.5 -47.5t-5.5 -46.5t-14 -46t-27 -38.5t-44 -33t-65.5 -19.5t-90.5 -8q-47 0 -84 10.5t-59 26.5t-38 36t-22 40t-9.5 36
t-3.5 27l1 10h93v-15t6.5 -26t18 -33t39 -23.5t65.5 -11.5q48 0 77.5 11.5t42.5 37t16.5 49t3.5 63.5v64q-56 -72 -174 -72q-113 0 -164 71t-51 207q0 137 51 209t164 72q67 0 113 -30.5t70 -65.5zM286 71q68 0 106 34.5t49 80.5v177q-53 105 -155 105q-132 0 -132 -200
q0 -197 132 -197z" />
    <glyph glyph-name="Hcircumflex" unicode="&#x124;" horiz-adv-x="712" 
d="M357 824l-62 -64h-91l104 130h97l104 -130h-90zM522 712h103v-712h-103v318h-331v-318h-103v712h103v-297h331v297z" />
    <glyph glyph-name="hcircumflex" unicode="&#x125;" horiz-adv-x="612" 
d="M184 795l-62 64l-62 -64h-91l104 130h97l104 -130h-90zM347 551q102 0 146 -51.5t44 -178.5l-1 -321h-100l1 312q0 75 -23.5 112.5t-85.5 37.5q-32 0 -60 -12t-46.5 -32t-30 -36.5t-19.5 -34.5v-347h-100v760h100v-304q65 95 175 95z" />
    <glyph glyph-name="Hbar" unicode="&#x126;" horiz-adv-x="712" 
d="M695 601v-78h-70v-523h-103v318h-331v-318h-103v523h-68v78h68v111h103v-111h331v111h103v-111h70zM522 415v108h-331v-108h331z" />
    <glyph glyph-name="hbar" unicode="&#x127;" horiz-adv-x="612" 
d="M347 551q102 0 146 -51.5t44 -178.5l-1 -321h-100l1 312q0 75 -23.5 112.5t-85.5 37.5q-32 0 -60 -12t-46.5 -32t-30 -36.5t-19.5 -34.5v-347h-100v591h-66v67h66v102h100v-102h139v-67h-139v-135q65 95 175 95z" />
    <glyph glyph-name="Itilde" unicode="&#x128;" horiz-adv-x="278" 
d="M232 889h54q0 -61 -19 -93t-69 -32q-31 0 -59.5 20t-46.5 20q-26 0 -37 -15t-11 -29h-52q0 121 90 121q31 0 58 -17.5t45 -17.5t29.5 8.5t14.5 17.5t3 17zM88 0v712h103v-712h-103z" />
    <glyph glyph-name="itilde" unicode="&#x129;" horiz-adv-x="242" 
d="M215 743h53q0 -60 -19 -89t-69 -29q-31 0 -59.5 20t-46.5 20q-26 0 -37 -15t-11 -29h-52q0 114 90 114q31 0 58 -18t45 -18q25 0 36.5 15t11.5 29zM69 0v539h100v-539h-100z" />
    <glyph glyph-name="Imacron" unicode="&#x12a;" horiz-adv-x="278" 
d="M9 861h261v-78h-261v78zM88 0v712h103v-712h-103z" />
    <glyph glyph-name="imacron" unicode="&#x12b;" horiz-adv-x="242" 
d="M-9 722h261v-78h-261v78zM69 0v539h100v-539h-100z" />
    <glyph glyph-name="Ibreve" unicode="&#x12c;" horiz-adv-x="278" 
d="M205 885h77q0 -52 -37 -88.5t-106 -36.5t-106 36.5t-37 88.5h78q0 -20 18 -36.5t47 -16.5t47.5 16.5t18.5 36.5zM88 0v712h103v-712h-103z" />
    <glyph glyph-name="ibreve" unicode="&#x12d;" horiz-adv-x="242" 
d="M187 749h77q0 -56 -38.5 -93.5t-104.5 -37.5t-104.5 37.5t-38.5 93.5h78q0 -21 18 -39t47 -18q28 0 47 18.5t19 38.5zM69 0v539h100v-539h-100z" />
    <glyph glyph-name="Iogonek" unicode="&#x12e;" horiz-adv-x="278" 
d="M191 0h-25q-8 -4 -17 -10t-23.5 -17.5t-23.5 -28.5t-9 -36q0 -16 9.5 -26t25.5 -10q11 0 23 3t19 7l6 3v-56q0 -1 -10 -7t-33 -12t-48 -6q-40 0 -60.5 21.5t-20.5 55.5q0 30 17.5 58t33.5 41.5t33 23.5v708h103v-712z" />
    <glyph glyph-name="iogonek" unicode="&#x12f;" horiz-adv-x="242" 
d="M71 760h100v-135h-100v135zM69 4v535h100v-539h-22q-8 -4 -17 -10t-23.5 -17.5t-23.5 -28.5t-9 -36q0 -16 9.5 -26t25.5 -10q11 0 23 3t18 7l7 3v-56q0 -1 -10 -7t-33 -12t-48 -6q-40 0 -60.5 21.5t-20.5 55.5q0 30 17.5 58t33.5 41.5t33 23.5z" />
    <glyph glyph-name="Idotaccent" unicode="&#x130;" horiz-adv-x="278" 
d="M89 760v134h100v-134h-100zM88 0v712h103v-712h-103z" />
    <glyph glyph-name="dotlessi" unicode="&#x131;" horiz-adv-x="242" 
d="M69 0v539h100v-539h-100z" />
    <glyph glyph-name="IJ" unicode="&#x132;" horiz-adv-x="702" 
d="M88 0v712h103v-712h-103zM357 0h-66v98h66q105 0 135 39t30 174l-1 401h103l2 -401q0 -63 -3 -104t-13 -79t-28 -59.5t-48 -38.5t-73 -23.5t-104 -6.5z" />
    <glyph glyph-name="ij" unicode="&#x133;" horiz-adv-x="509" 
d="M71 625v135h100v-135h-100zM328 625v135h100v-135h-100zM69 0v539h100v-539h-100zM210 -205v85q35 0 57 6t35 14.5t19 31.5t7 43.5t1 63.5v500h100v-500q0 -52 -2.5 -85t-11 -63t-22.5 -46t-39 -28.5t-59.5 -17t-84.5 -4.5z" />
    <glyph glyph-name="Jcircumflex" unicode="&#x134;" horiz-adv-x="424" 
d="M207 824l-62 -64h-91l104 130h97l104 -130h-90zM243 712h103l2 -401q0 -63 -3 -104t-13 -79t-28 -59.5t-48 -38.5t-73 -23.5t-104 -6.5h-66v98h66q105 0 135 39t30 174z" />
    <glyph glyph-name="jcircumflex" unicode="&#x135;" horiz-adv-x="267" 
d="M179 773l116 -152h-95l-63 82l-63 -82h-96l116 152h85zM87 39v500h100v-500q0 -52 -2.5 -85t-11 -63t-22.5 -46t-39 -28.5t-59.5 -17t-84.5 -4.5v85q35 0 57 6t35 14.5t19 31.5t7 43.5t1 63.5z" />
    <glyph glyph-name="Kcommaaccent" unicode="&#x136;" horiz-adv-x="635" 
d="M350 392l279 -392h-116l-225 316l-97 -117v-199h-103v712h103v-390l303 390h121zM267 -149q7 25 11.5 48.5t5.5 34.5v11h99q-4 -45 -22 -101q-10 -30 -23 -57t-21 -39l-8 -12h-86q27 51 44 115z" />
    <glyph glyph-name="kcommaaccent" unicode="&#x137;" horiz-adv-x="542" 
d="M312 319l228 -319h-113l-179 250l-67 -73v-177h-100v760h100v-475l214 254h118zM220 -149q7 25 11.5 48.5t4.5 34.5l1 11h99q-4 -45 -22 -101q-10 -30 -23 -57t-21 -39l-8 -12h-86q27 51 44 115z" />
    <glyph glyph-name="kgreenlandic" unicode="&#x138;" horiz-adv-x="542" 
d="M427 0l-179 250l-67 -74v-176h-100v539h100v-254l214 254h118l-201 -219l228 -320h-113z" />
    <glyph glyph-name="Lacute" unicode="&#x139;" horiz-adv-x="510" 
d="M293 905l-97 -145h-92l77 145h112zM191 95h300v-95h-403v712h103v-617z" />
    <glyph glyph-name="lacute" unicode="&#x13a;" horiz-adv-x="263" 
d="M86 800l77 145h112l-97 -145h-92zM81 0v760h100v-760h-100z" />
    <glyph glyph-name="Lcommaaccent" unicode="&#x13b;" horiz-adv-x="510" 
d="M191 95h300v-95h-403v712h103v-617zM220 -149q7 25 11.5 48.5t4.5 34.5l1 11h99q-4 -45 -22 -101q-10 -30 -23 -57t-21 -39l-8 -12h-86q27 51 44 115z" />
    <glyph glyph-name="lcommaaccent" unicode="&#x13c;" horiz-adv-x="263" 
d="M81 0v760h100v-760h-100zM99 -264h-86q27 51 44 115q7 25 11.5 48.5t5.5 34.5v11h99q-4 -45 -22 -101q-10 -30 -23 -57t-21 -39z" />
    <glyph glyph-name="Lcaron" unicode="&#x13d;" horiz-adv-x="510" 
d="M440 772l-94 -174h-92l73 174h113zM191 95h300v-95h-403v712h103v-617z" />
    <glyph glyph-name="lcaron" unicode="&#x13e;" horiz-adv-x="263" 
d="M81 0v760h100v-760h-100zM203 583l64 177h98l-85 -177h-77z" />
    <glyph glyph-name="Ldot" unicode="&#x13f;" horiz-adv-x="510" 
d="M191 95h300v-95h-403v712h103v-617zM369 414v-125h-100v125h100z" />
    <glyph glyph-name="ldot" unicode="&#x140;" horiz-adv-x="347" 
d="M81 0v760h100v-760h-100zM221 321v125h100v-125h-100z" />
    <glyph glyph-name="Lslash" unicode="&#x141;" horiz-adv-x="510" 
d="M191 95h300v-95h-403v283l-77 -45l-37 66l114 67v341h103v-281l85 50l37 -66l-122 -72v-248z" />
    <glyph glyph-name="lslash" unicode="&#x142;" horiz-adv-x="263" 
d="M303 447l-122 -72v-375h-100v317l-80 -47l-37 66l117 69v355h100v-297l85 50z" />
    <glyph glyph-name="Nacute" unicode="&#x143;" horiz-adv-x="732" 
d="M512 905l-97 -145h-92l77 145h112zM547 712h98v-712h-114l-347 565l-2 -565h-94l2 712h114l353 -573z" />
    <glyph glyph-name="nacute" unicode="&#x144;" horiz-adv-x="616" 
d="M455 773l-97 -152h-91l76 152h112zM350 551q102 0 146.5 -51t44.5 -179l-2 -321h-100l2 312q0 75 -23.5 112.5t-86.5 37.5q-99 0 -151 -105v-357h-100v394l-8 145h84l15 -91q24 39 69 71t110 32z" />
    <glyph glyph-name="Ncommaaccent" unicode="&#x145;" horiz-adv-x="732" 
d="M547 712h98v-712h-114l-347 565l-2 -565h-94l2 712h114l353 -573zM297 -149q7 25 11.5 48.5t5.5 34.5v11h99q-4 -45 -22 -101q-10 -30 -23 -57t-21 -39l-8 -12h-86q27 51 44 115z" />
    <glyph glyph-name="ncommaaccent" unicode="&#x146;" horiz-adv-x="616" 
d="M350 551q102 0 146.5 -51t44.5 -179l-2 -321h-100l2 312q0 75 -23.5 112.5t-86.5 37.5q-99 0 -151 -105v-357h-100v394l-8 145h84l15 -91q24 39 69 71t110 32zM241 -149q7 25 11.5 48.5t5.5 34.5v11h99q-4 -45 -22 -101q-10 -30 -23 -57t-21 -39l-8 -12h-86q27 51 44 115
z" />
    <glyph glyph-name="Ncaron" unicode="&#x147;" horiz-adv-x="732" 
d="M416 760h-97l-104 130h90l63 -64l62 64h90zM547 712h98v-712h-114l-347 565l-2 -565h-94l2 712h114l353 -573z" />
    <glyph glyph-name="ncaron" unicode="&#x148;" horiz-adv-x="616" 
d="M364 621h-85l-116 152h95l64 -82l63 82h95zM350 551q102 0 146.5 -51t44.5 -179l-2 -321h-100l2 312q0 75 -23.5 112.5t-86.5 37.5q-99 0 -151 -105v-357h-100v394l-8 145h84l15 -91q24 39 69 71t110 32z" />
    <glyph glyph-name="Eng" unicode="&#x14a;" horiz-adv-x="732" 
d="M547 712h98v-712q0 -51 -9 -88.5t-32.5 -70t-68.5 -49.5t-112 -17h-60v92h66q64 0 92.5 33t28.5 100l-366 568l-2 -568h-94l2 712h114l353 -573z" />
    <glyph glyph-name="eng" unicode="&#x14b;" horiz-adv-x="616" 
d="M350 551q102 0 146.5 -51t44.5 -179l-1 -276q0 -63 -4.5 -99.5t-16.5 -68t-37 -46t-63 -22.5t-98 -8v84q30 0 49.5 3t33 12.5t20.5 18.5t10.5 32t4 40t0.5 54l2 267q0 75 -23.5 112.5t-86.5 37.5q-99 0 -151 -105v-357h-100v394l-8 145h84l15 -91q24 39 69 71t110 32z
" />
    <glyph glyph-name="Omacron" unicode="&#x14c;" horiz-adv-x="709" 
d="M225 868h261v-78h-261v78zM355 -18q-159 0 -227 91.5t-68 281.5q0 191 68 283t227 92q158 0 226 -92t68 -283q0 -190 -68 -281.5t-226 -91.5zM355 73q104 0 147.5 66t43.5 216q0 151 -43.5 217.5t-147.5 66.5q-105 0 -148 -66.5t-43 -217.5q0 -150 43 -216t148 -66z" />
    <glyph glyph-name="omacron" unicode="&#x14d;" horiz-adv-x="599" 
d="M168 719h261v-78h-261v78zM299 -13q-135 0 -191 72.5t-56 208.5q0 137 56.5 210.5t190.5 73.5t191 -74t57 -210t-56.5 -208.5t-191.5 -72.5zM298 68q81 0 113.5 48t32.5 152t-33 153.5t-113 49.5t-112.5 -49.5t-32.5 -153.5t32.5 -152t112.5 -48z" />
    <glyph glyph-name="Obreve" unicode="&#x14e;" horiz-adv-x="709" 
d="M421 892h77q0 -52 -37 -88.5t-106 -36.5t-106 36.5t-37 88.5h78q0 -20 18 -36.5t47 -16.5t47.5 16.5t18.5 36.5zM355 -18q-159 0 -227 91.5t-68 281.5q0 191 68 283t227 92q158 0 226 -92t68 -283q0 -190 -68 -281.5t-226 -91.5zM355 73q104 0 147.5 66t43.5 216
q0 151 -43.5 217.5t-147.5 66.5q-105 0 -148 -66.5t-43 -217.5q0 -150 43 -216t148 -66z" />
    <glyph glyph-name="obreve" unicode="&#x14f;" horiz-adv-x="599" 
d="M364 746h77q0 -56 -38.5 -93.5t-104.5 -37.5t-104.5 37.5t-38.5 93.5h78q0 -21 18 -39t47 -18q28 0 47 18.5t19 38.5zM299 -13q-135 0 -191 72.5t-56 208.5q0 137 56.5 210.5t190.5 73.5t191 -74t57 -210t-56.5 -208.5t-191.5 -72.5zM298 68q81 0 113.5 48t32.5 152
t-33 153.5t-113 49.5t-112.5 -49.5t-32.5 -153.5t32.5 -152t112.5 -48z" />
    <glyph glyph-name="Ohungarumlaut" unicode="&#x150;" horiz-adv-x="709" 
d="M218 767l74 145h112l-94 -145h-92zM377 767l90 145h112l-111 -145h-91zM355 -18q-159 0 -227 91.5t-68 281.5q0 191 68 283t227 92q158 0 226 -92t68 -283q0 -190 -68 -281.5t-226 -91.5zM355 73q104 0 147.5 66t43.5 216q0 151 -43.5 217.5t-147.5 66.5
q-105 0 -148 -66.5t-43 -217.5q0 -150 43 -216t148 -66z" />
    <glyph glyph-name="ohungarumlaut" unicode="&#x151;" horiz-adv-x="599" 
d="M159 618l74 152h111l-94 -152h-91zM317 618l90 152h112l-111 -152h-91zM299 -13q-135 0 -191 72.5t-56 208.5q0 137 56.5 210.5t190.5 73.5t191 -74t57 -210t-56.5 -208.5t-191.5 -72.5zM298 68q81 0 113.5 48t32.5 152t-33 153.5t-113 49.5t-112.5 -49.5t-32.5 -153.5
t32.5 -152t112.5 -48z" />
    <glyph glyph-name="OE" unicode="&#x152;" horiz-adv-x="974" 
d="M574 91h370v-91h-602q-149 0 -215.5 89.5t-66.5 265.5q0 177 66.5 267t215.5 90h596v-91h-364v-208h314v-89h-314v-233zM355 85h117v542h-117q-104 0 -147.5 -65t-43.5 -207q0 -141 43.5 -205.5t147.5 -64.5z" />
    <glyph glyph-name="oe" unicode="&#x153;" horiz-adv-x="968" 
d="M678 64q71 0 104 33.5t34 69.5h101q0 -28 -11.5 -56.5t-36 -57.5t-74 -47.5t-116.5 -18.5q-136 0 -189 82q-54 -82 -191 -82q-135 0 -191 72.5t-56 208.5q0 137 56.5 210.5t190.5 73.5q137 0 191 -84q53 84 189 84q127 0 184 -72.5t57 -230.5h-382q2 -94 33 -139.5
t107 -45.5zM678 476q-67 0 -99 -39t-39 -115h279q-8 79 -41.5 116.5t-99.5 37.5zM298 68q81 0 113.5 48t32.5 152t-33 153.5t-113 49.5t-112.5 -49.5t-32.5 -153.5t32.5 -152t112.5 -48z" />
    <glyph glyph-name="Racute" unicode="&#x154;" horiz-adv-x="674" 
d="M473 905l-97 -145h-92l77 145h112zM640 0h-116l-135 264q-17 -1 -54 -1h-144v-263h-103v714h249q162 0 220.5 -49t58.5 -177q0 -92 -28 -140.5t-98 -68.5zM191 355l144 -1q37 0 59.5 2t47.5 9t38 21t22 39.5t9 62.5t-9 62t-22.5 39.5t-38 22t-47.5 9.5t-59 2h-144v-268z
" />
    <glyph glyph-name="racute" unicode="&#x155;" horiz-adv-x="391" 
d="M337 773l-97 -152h-91l76 152h112zM156 539l16 -106q6 19 18 36.5t33.5 37.5t58 32.5t83.5 12.5v-93q-41 0 -73.5 -12.5t-51.5 -29t-32.5 -39.5t-19 -38.5t-8.5 -30.5v-309h-100v384l-8 155h84z" />
    <glyph glyph-name="Rcommaaccent" unicode="&#x156;" horiz-adv-x="674" 
d="M490 279l150 -279h-116l-135 264q-17 -1 -54 -1h-144v-263h-103v714h249q162 0 220.5 -49t58.5 -177q0 -92 -28 -140.5t-98 -68.5zM191 355l144 -1q37 0 59.5 2t47.5 9t38 21t22 39.5t9 62.5t-9 62t-22.5 39.5t-38 22t-47.5 9.5t-59 2h-144v-268zM283 -149
q7 25 11.5 48.5t5.5 34.5v11h99q-4 -45 -22 -101q-10 -30 -23 -57t-21 -39l-8 -12h-86q27 51 44 115z" />
    <glyph glyph-name="rcommaaccent" unicode="&#x157;" horiz-adv-x="391" 
d="M156 539l16 -106q6 19 18 36.5t33.5 37.5t58 32.5t83.5 12.5v-93q-41 0 -73.5 -12.5t-51.5 -29t-32.5 -39.5t-19 -38.5t-8.5 -30.5v-309h-100v384l-8 155h84zM61 -149q7 25 11.5 48.5t5.5 34.5v11h99q-4 -45 -22 -101q-10 -30 -23 -57t-21 -39l-8 -12h-86q27 51 44 115z
" />
    <glyph glyph-name="Rcaron" unicode="&#x158;" horiz-adv-x="674" 
d="M377 760h-97l-104 130h90l63 -64l62 64h90zM640 0h-116l-135 264q-17 -1 -54 -1h-144v-263h-103v714h249q162 0 220.5 -49t58.5 -177q0 -92 -28 -140.5t-98 -68.5zM191 355l144 -1q37 0 59.5 2t47.5 9t38 21t22 39.5t9 62.5t-9 62t-22.5 39.5t-38 22t-47.5 9.5t-59 2
h-144v-268z" />
    <glyph glyph-name="rcaron" unicode="&#x159;" horiz-adv-x="391" 
d="M246 621h-85l-116 152h95l64 -82l63 82h95zM156 539l16 -106q6 19 18 36.5t33.5 37.5t58 32.5t83.5 12.5v-93q-41 0 -73.5 -12.5t-51.5 -29t-32.5 -39.5t-19 -38.5t-8.5 -30.5v-309h-100v384l-8 155h84z" />
    <glyph glyph-name="Sacute" unicode="&#x15a;" horiz-adv-x="633" 
d="M276 767l77 145h112l-97 -145h-92zM45 219h100q0 -69 45 -107t125 -39q171 -1 171 110q0 40 -23.5 66t-60.5 39t-82.5 22.5t-90.5 23.5t-82 35.5t-60.5 63.5t-23.5 103q0 93 61.5 144.5t190.5 50.5q131 -1 196 -57t65 -160h-99q0 52 -39 88.5t-120 37.5q-82 1 -116 -29.5
t-34 -77.5q0 -34 18.5 -58.5t48 -36.5t68 -23t78 -19t78 -23.5t68 -36.5t48 -59t18.5 -90q0 -206 -275 -205q-273 2 -273 237z" />
    <glyph glyph-name="sacute" unicode="&#x15b;" horiz-adv-x="542" 
d="M220 621l76 152h112l-97 -152h-91zM48 172h90q0 -106 133 -108q66 -1 97.5 20t31.5 56q0 29 -18.5 47.5t-48.5 27.5t-66.5 16t-73 17t-67 26t-49.5 48t-19 78q0 71 55 111.5t160 39.5q214 -1 214 -169h-90q0 92 -122 92q-63 1 -89.5 -20.5t-26.5 -52.5q0 -32 25.5 -51.5
t63.5 -26.5t82.5 -18t82.5 -25t63.5 -48t25.5 -86q0 -159 -230 -159q-224 2 -224 185z" />
    <glyph glyph-name="Scircumflex" unicode="&#x15c;" horiz-adv-x="633" 
d="M321 831l-62 -64h-91l104 130h97l104 -130h-90zM168 533q0 -34 18.5 -58.5t48 -36.5t68 -23t78 -19t78 -23.5t68 -36.5t48 -59t18.5 -90q0 -206 -275 -205q-273 2 -273 237h100q0 -69 45 -107t125 -39q171 -1 171 110q0 40 -23.5 66t-60.5 39t-82.5 22.5t-90.5 23.5
t-82 35.5t-60.5 63.5t-23.5 103q0 93 61.5 144.5t190.5 50.5q131 -1 196 -57t65 -160h-99q0 52 -39 88.5t-120 37.5q-82 1 -116 -29.5t-34 -77.5z" />
    <glyph glyph-name="scircumflex" unicode="&#x15d;" horiz-adv-x="542" 
d="M275 703l-63 -82h-96l116 152h85l116 -152h-95zM159 401q0 -32 25.5 -51.5t63.5 -26.5t82.5 -18t82.5 -25t63.5 -48t25.5 -86q0 -159 -230 -159q-224 2 -224 185h90q0 -106 133 -108q66 -1 97.5 20t31.5 56q0 29 -18.5 47.5t-48.5 27.5t-66.5 16t-73 17t-67 26t-49.5 48
t-19 78q0 71 55 111.5t160 39.5q214 -1 214 -169h-90q0 92 -122 92q-63 1 -89.5 -20.5t-26.5 -52.5z" />
    <glyph glyph-name="Scedilla" unicode="&#x15e;" horiz-adv-x="633" 
d="M593 187q0 -189 -232 -204l-23 -40q90 -7 90 -83q0 -98 -125 -98q-27 0 -47.5 1.5t-27.5 2.5l-6 2v62q20 -6 61 -6q59 0 59 42t-99 42h-3l40 75q-235 18 -235 236h100q0 -69 45 -107t125 -39q171 -1 171 110q0 40 -23.5 66t-60.5 39t-82.5 22.5t-90.5 23.5t-82 35.5
t-60.5 63.5t-23.5 103q0 93 61.5 144.5t190.5 50.5q131 -1 196 -57t65 -160h-99q0 52 -39 88.5t-120 37.5q-82 1 -116 -29.5t-34 -77.5q0 -34 18.5 -58.5t48 -36.5t68 -23t78 -19t78 -23.5t68 -36.5t48 -59t18.5 -90z" />
    <glyph glyph-name="scedilla" unicode="&#x15f;" horiz-adv-x="542" 
d="M502 146q0 -143 -187 -158l-24 -41q90 -7 90 -83q0 -98 -125 -98q-27 0 -47.5 1.5t-26.5 2.5l-7 2v62q20 -6 61 -6q59 0 59 42t-99 42h-3l40 77q-185 16 -185 183h90q0 -106 133 -108q66 -1 97.5 20t31.5 56q0 29 -18.5 47.5t-48.5 27.5t-66.5 16t-73 17t-67 26t-49.5 48
t-19 78q0 71 55 111.5t160 39.5q214 -1 214 -169h-90q0 92 -122 92q-63 1 -89.5 -20.5t-26.5 -52.5q0 -32 25.5 -51.5t63.5 -26.5t82.5 -18t82.5 -25t63.5 -48t25.5 -86z" />
    <glyph glyph-name="Scaron" unicode="&#x160;" horiz-adv-x="633" 
d="M369 767h-97l-104 130h90l63 -64l62 64h90zM168 533q0 -34 18.5 -58.5t48 -36.5t68 -23t78 -19t78 -23.5t68 -36.5t48 -59t18.5 -90q0 -206 -275 -205q-273 2 -273 237h100q0 -69 45 -107t125 -39q171 -1 171 110q0 40 -23.5 66t-60.5 39t-82.5 22.5t-90.5 23.5t-82 35.5
t-60.5 63.5t-23.5 103q0 93 61.5 144.5t190.5 50.5q131 -1 196 -57t65 -160h-99q0 52 -39 88.5t-120 37.5q-82 1 -116 -29.5t-34 -77.5z" />
    <glyph glyph-name="scaron" unicode="&#x161;" horiz-adv-x="542" 
d="M317 621h-85l-116 152h95l64 -82l63 82h95zM159 401q0 -32 25.5 -51.5t63.5 -26.5t82.5 -18t82.5 -25t63.5 -48t25.5 -86q0 -159 -230 -159q-224 2 -224 185h90q0 -106 133 -108q66 -1 97.5 20t31.5 56q0 29 -18.5 47.5t-48.5 27.5t-66.5 16t-73 17t-67 26t-49.5 48
t-19 78q0 71 55 111.5t160 39.5q214 -1 214 -169h-90q0 92 -122 92q-63 1 -89.5 -20.5t-26.5 -52.5z" />
    <glyph glyph-name="uni0162" unicode="&#x162;" horiz-adv-x="553" 
d="M325 0h-23l-31 -54q90 -7 90 -83q0 -98 -125 -98q-27 0 -47.5 1.5t-26.5 3.5l-7 1v62q20 -6 61 -6q59 0 59 42t-99 42h-3l48 91h1l3 615h-209v95h521v-95h-209z" />
    <glyph glyph-name="uni0163" unicode="&#x163;" horiz-adv-x="368" 
d="M260 -3l-23 -40q90 -7 90 -83q0 -98 -125 -98q-27 0 -47.5 1.5t-26.5 2.5l-7 2v62q20 -6 61 -6q59 0 59 42t-99 42h-3l46 88q-28 11 -46 30.5t-26 47.5t-11 55t-3 65v250h-69v81h69v148l100 19v-167h132v-81h-132v-250q0 -71 17.5 -100.5t64.5 -29.5h56v-81h-77z" />
    <glyph glyph-name="Tcaron" unicode="&#x164;" horiz-adv-x="553" 
d="M326 760h-97l-104 130h90l63 -64l62 64h90zM537 712v-95h-209l-3 -617h-103l3 617h-209v95h521z" />
    <glyph glyph-name="tcaron" unicode="&#x165;" horiz-adv-x="368" 
d="M401 768l-85 -177h-77l64 177h98zM199 458v-250q0 -71 17.5 -100.5t64.5 -29.5h56v-81h-69q-45 0 -76.5 11.5t-49.5 29.5t-28 47.5t-12.5 56.5t-2.5 66v250h-69v81h69v148l100 19v-167h132v-81h-132z" />
    <glyph glyph-name="Tbar" unicode="&#x166;" horiz-adv-x="560" 
d="M540 617h-209l-1 -216h122v-81h-122l-2 -320h-102l1 320h-119v81h120l1 216h-209v95h520v-95z" />
    <glyph glyph-name="tbar" unicode="&#x167;" horiz-adv-x="368" 
d="M281 78h56v-81h-69q-45 0 -76.5 11.5t-49.5 29.5t-28 47.5t-12.5 56.5t-2.5 66v44h-73v67h73v139h-69v81h69v148l100 19v-167h132v-81h-132v-139h132v-67h-132v-44q0 -71 17.5 -100.5t64.5 -29.5z" />
    <glyph glyph-name="Utilde" unicode="&#x168;" horiz-adv-x="700" 
d="M444 889h54q0 -61 -19 -93t-69 -32q-31 0 -59.5 20t-46.5 20q-26 0 -37 -15t-11 -29h-52q0 121 90 121q31 0 58 -17.5t45 -17.5t29.5 8.5t14.5 17.5t3 17zM350 -18q-151 0 -212.5 85.5t-61.5 274.5v370h103v-370q0 -149 37 -209t133 -60t133 60t37 209v370h105v-370
q0 -189 -62 -274.5t-212 -85.5z" />
    <glyph glyph-name="utilde" unicode="&#x169;" horiz-adv-x="602" 
d="M255 665q-25 0 -36.5 -15t-11.5 -29h-52q0 114 90 114q31 0 58 -18t45 -18q26 0 37 15t11 29h53q0 -60 -19 -89t-69 -29q-31 0 -59.5 20t-46.5 20zM538 0h-85l-16 99q-21 -39 -67 -75.5t-115 -36.5q-99 0 -144.5 51t-45.5 173l2 328h99l-1 -312q0 -76 22.5 -113.5
t85.5 -37.5q33 0 61.5 13t47 34t29.5 38.5t18 34.5v343h100v-390z" />
    <glyph glyph-name="Umacron" unicode="&#x16a;" horiz-adv-x="700" 
d="M221 861h261v-78h-261v78zM350 -18q-151 0 -212.5 85.5t-61.5 274.5v370h103v-370q0 -149 37 -209t133 -60t133 60t37 209v370h105v-370q0 -189 -62 -274.5t-212 -85.5z" />
    <glyph glyph-name="umacron" unicode="&#x16b;" horiz-adv-x="602" 
d="M433 722v-78h-261v78h261zM538 0h-85l-16 99q-21 -39 -67 -75.5t-115 -36.5q-99 0 -144.5 51t-45.5 173l2 328h99l-1 -312q0 -76 22.5 -113.5t85.5 -37.5q33 0 61.5 13t47 34t29.5 38.5t18 34.5v343h100v-390z" />
    <glyph glyph-name="Ubreve" unicode="&#x16c;" horiz-adv-x="700" 
d="M417 885h77q0 -52 -37 -88.5t-106 -36.5t-106 36.5t-37 88.5h78q0 -20 18 -36.5t47 -16.5t47.5 16.5t18.5 36.5zM350 -18q-151 0 -212.5 85.5t-61.5 274.5v370h103v-370q0 -149 37 -209t133 -60t133 60t37 209v370h105v-370q0 -189 -62 -274.5t-212 -85.5z" />
    <glyph glyph-name="ubreve" unicode="&#x16d;" horiz-adv-x="602" 
d="M302 618q-66 0 -104.5 37.5t-38.5 93.5h78q0 -21 18 -39t47 -18q28 0 47 18.5t19 38.5h77q0 -56 -38.5 -93.5t-104.5 -37.5zM538 0h-85l-16 99q-21 -39 -67 -75.5t-115 -36.5q-99 0 -144.5 51t-45.5 173l2 328h99l-1 -312q0 -76 22.5 -113.5t85.5 -37.5q33 0 61.5 13
t47 34t29.5 38.5t18 34.5v343h100v-390z" />
    <glyph glyph-name="Uring" unicode="&#x16e;" horiz-adv-x="700" 
d="M351 760q-43 0 -66.5 23.5t-23.5 62.5q0 38 23.5 62t66.5 24q42 0 65.5 -24t23.5 -62q0 -39 -23.5 -62.5t-65.5 -23.5zM351 810q15 0 24.5 10t9.5 26t-9.5 25.5t-24.5 9.5q-16 0 -25.5 -9.5t-9.5 -25.5t9.5 -26t25.5 -10zM350 -18q-151 0 -212.5 85.5t-61.5 274.5v370
h103v-370q0 -149 37 -209t133 -60t133 60t37 209v370h105v-370q0 -189 -62 -274.5t-212 -85.5z" />
    <glyph glyph-name="uring" unicode="&#x16f;" horiz-adv-x="602" 
d="M302 615q-50 0 -76.5 28.5t-26.5 70.5q0 41 26.5 69.5t76.5 28.5q49 0 75.5 -28.5t26.5 -69.5t-26 -70t-76 -29zM302 749q-16 0 -25.5 -9.5t-9.5 -25.5t9.5 -26t25.5 -10q15 0 24.5 10t9.5 26t-9.5 25.5t-24.5 9.5zM538 0h-85l-16 99q-21 -39 -67 -75.5t-115 -36.5
q-99 0 -144.5 51t-45.5 173l2 328h99l-1 -312q0 -76 22.5 -113.5t85.5 -37.5q33 0 61.5 13t47 34t29.5 38.5t18 34.5v343h100v-390z" />
    <glyph glyph-name="Uhungarumlaut" unicode="&#x170;" horiz-adv-x="700" 
d="M214 760l74 145h112l-94 -145h-92zM373 760l90 145h112l-111 -145h-91zM350 -18q-151 0 -212.5 85.5t-61.5 274.5v370h103v-370q0 -149 37 -209t133 -60t133 60t37 209v370h105v-370q0 -189 -62 -274.5t-212 -85.5z" />
    <glyph glyph-name="uhungarumlaut" unicode="&#x171;" horiz-adv-x="602" 
d="M348 773l-94 -152h-91l74 152h111zM412 621h-91l90 152h112zM538 0h-85l-16 99q-21 -39 -67 -75.5t-115 -36.5q-99 0 -144.5 51t-45.5 173l2 328h99l-1 -312q0 -76 22.5 -113.5t85.5 -37.5q33 0 61.5 13t47 34t29.5 38.5t18 34.5v343h100v-390z" />
    <glyph glyph-name="Uogonek" unicode="&#x172;" horiz-adv-x="700" 
d="M519 712h105v-370q0 -126 -26 -204.5t-85 -116.5h1l-4 -2q-4 -2 -9 -5t-12 -8t-13.5 -10.5t-13 -13t-11.5 -15.5t-8 -18t-3 -21q0 -16 9.5 -26t25.5 -10q11 0 23 3t18 7l7 3v-56q0 -1 -10 -7t-33 -12t-48 -6q-40 0 -60.5 21.5t-20.5 55.5q0 43 35 82q-12 -1 -36 -1
q-151 0 -212.5 85.5t-61.5 274.5v370h103v-370q0 -149 37 -209t133 -60t133 60t37 209v370z" />
    <glyph glyph-name="uogonek" unicode="&#x173;" horiz-adv-x="602" 
d="M492 -129q11 0 23 3.5t19 6.5l6 3v-56q0 -1 -10 -7t-33 -12t-48 -6q-40 0 -60.5 21.5t-20.5 55.5q0 71 85 123l-16 96q-21 -39 -67 -75.5t-115 -36.5q-99 0 -144.5 51t-45.5 173l2 328h99l-1 -312q0 -76 22.5 -113.5t85.5 -37.5q33 0 61.5 13t47 34t29.5 38.5t18 34.5
v343h100v-390l9 -149h-6q-3 -1 -8 -4t-18 -11.5t-23 -18.5t-18 -26t-8 -33q0 -16 9.5 -26t25.5 -10z" />
    <glyph glyph-name="Wcircumflex" unicode="&#x174;" horiz-adv-x="975" 
d="M493 824l-62 -64h-91l104 130h97l104 -130h-90zM862 712h108l-216 -712h-107l-163 565l-160 -565h-101l-218 712h114l156 -581l158 581h105l170 -588z" />
    <glyph glyph-name="wcircumflex" unicode="&#x175;" horiz-adv-x="756" 
d="M377 703l-63 -82h-96l116 152h85l116 -152h-95zM657 539h95l-170 -539h-89l-121 397l-112 -397h-89l-167 540h100l115 -415l110 414h97l117 -410z" />
    <glyph glyph-name="Ycircumflex" unicode="&#x176;" horiz-adv-x="621" 
d="M310 824l-62 -64h-91l104 130h97l104 -130h-90zM501 712h115l-249 -454v-258h-103v258l-259 454h120l193 -352z" />
    <glyph glyph-name="ycircumflex" unicode="&#x177;" horiz-adv-x="519" 
d="M252 703l-63 -82h-96l116 152h85l116 -152h-95zM409 539h103l-271 -758h-91l75 219h-28l-190 539h110l142 -438z" />
    <glyph glyph-name="Ydieresis" unicode="&#x178;" horiz-adv-x="621" 
d="M274 894v-134h-100v134h100zM445 894v-134h-100v134h100zM501 712h115l-249 -454v-258h-103v258l-259 454h120l193 -352z" />
    <glyph glyph-name="Zacute" unicode="&#x179;" horiz-adv-x="579" 
d="M438 905l-97 -145h-92l77 145h112zM135 94h413v-91h-522v104l409 512h-389v90h499v-103z" />
    <glyph glyph-name="zacute" unicode="&#x17a;" horiz-adv-x="479" 
d="M374 773l-97 -152h-91l76 152h112zM41 535h402v-100l-310 -350l310 1v-83h-412v101l313 352l-303 -1v80z" />
    <glyph glyph-name="Zdotaccent" unicode="&#x17b;" horiz-adv-x="579" 
d="M343 894v-134h-100v134h100zM135 94h413v-91h-522v104l409 512h-389v90h499v-103z" />
    <glyph glyph-name="zdotaccent" unicode="&#x17c;" horiz-adv-x="479" 
d="M290 760v-135h-100v135h100zM41 535h402v-100l-310 -350l310 1v-83h-412v101l313 352l-303 -1v80z" />
    <glyph glyph-name="Zcaron" unicode="&#x17d;" horiz-adv-x="579" 
d="M342 760h-97l-104 130h90l63 -64l62 64h90zM135 94h413v-91h-522v104l409 512h-389v90h499v-103z" />
    <glyph glyph-name="zcaron" unicode="&#x17e;" horiz-adv-x="479" 
d="M283 621h-85l-116 152h95l64 -82l63 82h95zM41 535h402v-100l-310 -350l310 1v-83h-412v101l313 352l-303 -1v80z" />
    <glyph glyph-name="uni018F" unicode="&#x18f;" horiz-adv-x="709" 
d="M355 730q158 0 226 -92t68 -283q0 -190 -68 -281.5t-226 -91.5q-160 0 -227.5 93t-67.5 291h104l382 -1q-2 146 -45 210t-146 64q-82 0 -125.5 -39.5t-57.5 -125.5h-105q18 130 87 193t201 63zM355 73q93 0 137 52t52 167h-377q8 -116 52 -167.5t136 -51.5z" />
    <glyph glyph-name="uni019D" unicode="&#x19d;" horiz-adv-x="732" 
d="M547 712h98v-712h-114l-347 565l-2 -565q0 -53 -8 -90t-29.5 -69.5t-64 -49t-105.5 -16.5h-60v92h66q63 0 85 30.5t22 102.5l2 712h114l353 -573z" />
    <glyph glyph-name="Gcaron" unicode="&#x1e6;" horiz-adv-x="683" 
d="M395 767h-97l-104 130h90l63 -64l62 64h90zM616 353v-265q0 -6 -9 -17.5t-30.5 -27t-50.5 -29t-75.5 -23t-99.5 -9.5q-156 -1 -223.5 89.5t-67.5 283.5q0 192 67.5 283.5t223.5 91.5q135 0 201 -65.5t66 -182.5h-101q-1 74 -43.5 115.5t-122.5 41.5q-102 0 -144.5 -66.5
t-42.5 -217.5q0 -150 44.5 -216t149.5 -66q48 0 88 10.5t57.5 21.5t16.5 18v144h-133v86h229z" />
    <glyph glyph-name="gcaron" unicode="&#x1e7;" horiz-adv-x="612" 
d="M349 621h-85l-116 152h95l64 -82l63 82h95zM464 539h84l-7 -150v-390q0 -30 -0.5 -47.5t-5.5 -46.5t-14 -46t-27 -38.5t-44 -33t-65.5 -19.5t-90.5 -8q-47 0 -84 10.5t-59 26.5t-38 36t-22 40t-9.5 36t-3.5 27l1 10h93v-15t6.5 -26t18 -33t39 -23.5t65.5 -11.5
q48 0 77.5 11.5t42.5 37t16.5 49t3.5 63.5v64q-56 -72 -174 -72q-113 0 -164 71t-51 207q0 137 51 209t164 72q67 0 113 -30.5t70 -65.5zM286 71q68 0 106 34.5t49 80.5v177q-53 105 -155 105q-132 0 -132 -200q0 -197 132 -197z" />
    <glyph glyph-name="uni01EA" unicode="&#x1ea;" horiz-adv-x="709" 
d="M649 355q0 -265 -135 -339l-4 -2q-4 -2 -9 -5t-12 -8t-13.5 -10.5t-13 -13t-11.5 -15.5t-8 -18t-3 -21q0 -16 9.5 -26t25.5 -10q11 0 23 3.5t18 6.5l7 3v-56q0 -1 -10 -7t-33 -12t-48 -6q-40 0 -60.5 21.5t-20.5 55.5q0 46 39 87q-11 -1 -35 -1q-159 0 -227 91.5
t-68 281.5q0 191 68 283t227 92q158 0 226 -92t68 -283zM355 73q104 0 147.5 66t43.5 216q0 151 -43.5 217.5t-147.5 66.5q-105 0 -148 -66.5t-43 -217.5q0 -150 43 -216t148 -66z" />
    <glyph glyph-name="uni01EB" unicode="&#x1eb;" horiz-adv-x="599" 
d="M428 12q-46 -33 -46 -76q0 -16 9.5 -26t25.5 -10q11 0 23 3t18 7l7 3v-56q0 -1 -10 -7t-33 -12t-48 -6q-40 0 -60.5 21.5t-20.5 55.5q0 42 32 79q-9 -1 -26 -1q-135 0 -191 72.5t-56 208.5q0 137 56.5 210.5t190.5 73.5t191 -74t57 -210q0 -199 -119 -256zM298 68
q81 0 113.5 48t32.5 152t-33 153.5t-113 49.5t-112.5 -49.5t-32.5 -153.5t32.5 -152t112.5 -48z" />
    <glyph glyph-name="Aringacute" unicode="&#x1fa;" horiz-adv-x="649" 
d="M470 1125l-97 -145h-92l77 145h112zM325 760q-43 0 -66.5 23.5t-23.5 62.5q0 38 23.5 62t66.5 24q42 0 65.5 -24t23.5 -62q0 -39 -23.5 -62.5t-65.5 -23.5zM325 881q-16 0 -25.5 -9.5t-9.5 -25.5t9.5 -26t25.5 -10q15 0 24.5 10t9.5 26t-9.5 25.5t-24.5 9.5zM535 0
l-62 171h-304l-61 -171h-103l271 712h99l269 -712h-109zM202 262h239l-120 332z" />
    <glyph glyph-name="aringacute" unicode="&#x1fb;" horiz-adv-x="580" 
d="M426 1011l-97 -152h-91l76 152h112zM289 615q-50 0 -76.5 28.5t-26.5 70.5q0 41 26.5 69.5t76.5 28.5q49 0 75.5 -28.5t26.5 -69.5t-26 -70t-76 -29zM289 749q-16 0 -25.5 -9.5t-9.5 -25.5t9.5 -26t25.5 -10q15 0 24.5 10t9.5 26t-9.5 25.5t-24.5 9.5zM516 1h-84l-12 68
q-56 -80 -186 -80q-99 0 -142.5 39.5t-43.5 122.5q0 31 6.5 55t19.5 41t31 29.5t41 20t50.5 12t58.5 5.5t65.5 2t71.5 0h15q-1 93 -21.5 125.5t-95.5 32.5q-71 0 -99.5 -30t-28.5 -69h-90q0 22 3.5 42t17 45.5t35 43.5t62.5 30.5t96 12.5q36 0 65.5 -4.5t51.5 -10.5
t38.5 -20t27.5 -25t18.5 -33t11.5 -36.5t5.5 -44.5t2 -47t0.5 -52v-9v-127zM254 59q56 0 97 25t56 73v93q-41 1 -76.5 0t-65 -3t-52.5 -8.5t-38.5 -17.5t-23.5 -29t-8 -43q0 -90 111 -90z" />
    <glyph glyph-name="AEacute" unicode="&#x1fc;" horiz-adv-x="932" 
d="M625 905l-97 -145h-92l77 145h112zM539 91h363v-91h-466v171h-227l-94 -171h-110l397 712h495v-91h-358v-208h308v-89h-308v-233zM263 269h173v315z" />
    <glyph glyph-name="aeacute" unicode="&#x1fd;" horiz-adv-x="930" 
d="M608 773l-97 -152h-91l76 152h112zM640 64q71 0 104 33.5t34 69.5h101q0 -28 -11.5 -56.5t-36 -57.5t-74 -47.5t-116.5 -18.5q-155 0 -209 104q-51 -102 -198 -102q-98 0 -142 41t-44 124q0 31 7 55.5t20 42t31.5 30t42 19.5t51.5 11.5t60 5.5t67 2t73 0q3 38 10 65
q-7 49 -33.5 69t-86.5 20q-71 0 -99.5 -30t-28.5 -69h-90q0 22 3.5 42t17 45.5t35 43.5t62.5 30.5t96 12.5q126 0 166 -72q59 75 189 75q127 0 184 -72t57 -228h-97l-285 1q2 -96 32.5 -142.5t107.5 -46.5zM640 476q-67 0 -99 -38t-39 -113h279q-8 78 -41.5 114.5
t-99.5 36.5zM254 59q57 0 98 26.5t55 77.5q-8 42 -9 91q-49 0 -75 -0.5t-61 -3t-52 -9t-35 -17.5t-25 -29t-7 -43q0 -93 111 -93z" />
    <glyph glyph-name="Oslashacute" unicode="&#x1fe;" horiz-adv-x="709" 
d="M497 912l-97 -145h-92l77 145h112zM650 725l-64 -94q63 -87 63 -276q0 -190 -68 -281.5t-226 -91.5q-113 0 -180 47l-28 -41h-90l64 94q-61 89 -61 273q0 191 68 283t227 92q111 0 177 -45l27 40h91zM164 355q0 -113 23 -176l289 424q-45 36 -121 36q-105 0 -148 -66.5
t-43 -217.5zM546 355q0 120 -25 181l-290 -425q44 -38 124 -38q104 0 147.5 66t43.5 216z" />
    <glyph glyph-name="oslashacute" unicode="&#x1ff;" horiz-adv-x="599" 
d="M432 770l-97 -152h-91l76 152h112zM541 548l-51 -70q57 -70 57 -210q0 -136 -56.5 -208.5t-191.5 -72.5q-87 0 -142 32l-19 -27h-82l51 70q-55 67 -55 206q0 137 56.5 210.5t190.5 73.5q86 0 141 -32l20 28h81zM153 268q0 -75 16 -120l218 299q-33 24 -89 24
q-80 0 -112.5 -49.5t-32.5 -153.5zM298 68q81 0 113.5 48t32.5 152q0 78 -17 123l-217 -300q34 -23 88 -23z" />
    <glyph glyph-name="Scommaaccent" unicode="&#x218;" horiz-adv-x="633" 
d="M45 219h100q0 -69 45 -107t125 -39q171 -1 171 110q0 40 -23.5 66t-60.5 39t-82.5 22.5t-90.5 23.5t-82 35.5t-60.5 63.5t-23.5 103q0 93 61.5 144.5t190.5 50.5q131 -1 196 -57t65 -160h-99q0 52 -39 88.5t-120 37.5q-82 1 -116 -29.5t-34 -77.5q0 -34 18.5 -58.5
t48 -36.5t68 -23t78 -19t78 -23.5t68 -36.5t48 -59t18.5 -90q0 -206 -275 -205q-273 2 -273 237zM315 -268h-86q27 51 44 115q7 25 11.5 48.5t5.5 34.5v11h99q-4 -45 -22 -101q-10 -30 -23 -57t-21 -39z" />
    <glyph glyph-name="scommaaccent" unicode="&#x219;" horiz-adv-x="542" 
d="M48 172h90q0 -106 133 -108q66 -1 97.5 20t31.5 56q0 29 -18.5 47.5t-48.5 27.5t-66.5 16t-73 17t-67 26t-49.5 48t-19 78q0 71 55 111.5t160 39.5q214 -1 214 -169h-90q0 92 -122 92q-63 1 -89.5 -20.5t-26.5 -52.5q0 -32 25.5 -51.5t63.5 -26.5t82.5 -18t82.5 -25
t63.5 -48t25.5 -86q0 -159 -230 -159q-224 2 -224 185zM268 -264h-86q27 51 44 115q7 25 11.5 48.5t4.5 34.5l1 11h99q-4 -45 -22 -101q-10 -30 -23 -57t-21 -39z" />
    <glyph glyph-name="uni021A" unicode="&#x21a;" horiz-adv-x="560" 
d="M540 712v-95h-209l-3 -617h-102l3 617h-209v95h520zM207 -150q7 25 11.5 48.5t5.5 34.5v11h99q-4 -46 -22 -101q-10 -30 -23 -57t-21 -39l-8 -12h-86q27 51 44 115z" />
    <glyph glyph-name="uni021B" unicode="&#x21b;" horiz-adv-x="368" 
d="M281 78h56v-81h-69q-45 0 -76.5 11.5t-49.5 29.5t-28 47.5t-12.5 56.5t-2.5 66v250h-69v81h69v148l100 19v-167h132v-81h-132v-250q0 -71 17.5 -100.5t64.5 -29.5zM172 -139q7 25 11.5 48.5t4.5 34.5l1 11h99q-4 -45 -22 -101q-10 -30 -23 -57t-21 -39l-8 -12h-86
q27 51 44 115z" />
    <glyph glyph-name="uni0232" unicode="&#x232;" horiz-adv-x="621" 
d="M440 861v-78h-261v78h261zM501 712h115l-249 -454v-258h-103v258l-259 454h120l193 -352z" />
    <glyph glyph-name="uni0233" unicode="&#x233;" horiz-adv-x="519" 
d="M382 722v-78h-261v78h261zM409 539h103l-271 -758h-91l75 219h-28l-190 539h110l142 -438z" />
    <glyph glyph-name="uni0237" unicode="&#x237;" horiz-adv-x="267" 
d="M-32 -205v85q35 0 57 6t35 14.5t19 31.5t7 43.5t1 63.5v500h100v-500q0 -52 -2.5 -85t-11 -63t-22.5 -46t-39 -28.5t-59.5 -17t-84.5 -4.5z" />
    <glyph glyph-name="uni0259" unicode="&#x259;" horiz-adv-x="590" 
d="M295 552q131 0 187 -70t56 -210q0 -141 -56 -213t-187 -72q-127 0 -184 72.5t-57 230.5h382q-2 93 -33 138.5t-107 45.5q-71 0 -104 -33t-34 -69h-101q0 28 11.5 56.5t36 57.5t74 47.5t116.5 18.5zM296 62q67 0 99 39t39 116h-280q9 -80 42.5 -117.5t99.5 -37.5z" />
    <glyph glyph-name="uni0272" unicode="&#x272;" horiz-adv-x="624" 
d="M358 551q102 0 146.5 -51t44.5 -179l-2 -321h-100l2 312q0 75 -23.5 112.5t-86.5 37.5q-99 0 -151 -105l-1 -312q0 -63 -4.5 -99.5t-16.5 -68t-37 -46t-63 -22.5t-98 -8v84q30 0 49.5 3t33 12.5t20.5 18.5t10.5 32t4 40t0.5 54l2 331v18l-8 145h84l15 -91q24 39 69 71
t110 32z" />
    <glyph glyph-name="circumflex" unicode="&#x2c6;" horiz-adv-x="503" 
d="M358 621h-95l-63 82l-63 -82h-96l116 152h85z" />
    <glyph glyph-name="caron" unicode="&#x2c7;" horiz-adv-x="503" 
d="M263 773h95l-116 -152h-85l-116 152h95l64 -82z" />
    <glyph glyph-name="breve" unicode="&#x2d8;" horiz-adv-x="499" 
d="M237 749h77q0 -56 -38.5 -93.5t-104.5 -37.5t-104.5 37.5t-38.5 93.5h78q0 -21 18 -39t47 -18q28 0 47 18.5t19 38.5z" />
    <glyph glyph-name="dotaccent" unicode="&#x2d9;" horiz-adv-x="437" 
d="M70 625v135h100v-135h-100z" />
    <glyph glyph-name="ring" unicode="&#x2da;" horiz-adv-x="477" 
d="M145 615q-50 0 -76.5 28.5t-26.5 70.5q0 41 26.5 69.5t76.5 28.5q49 0 75.5 -28.5t26.5 -69.5t-26 -70t-76 -29zM145 678q15 0 24.5 10t9.5 26t-9.5 25.5t-24.5 9.5q-16 0 -25.5 -9.5t-9.5 -25.5t9.5 -26t25.5 -10z" />
    <glyph glyph-name="ogonek" unicode="&#x2db;" horiz-adv-x="475" 
d="M113 10l70 -8l-4 -2q-4 -2 -9 -5t-12 -8t-13.5 -10.5t-13 -13t-11.5 -15.5t-8 -18t-3 -21q0 -16 9.5 -26t25.5 -10q11 0 23 3.5t19 6.5l6 3v-56q0 -1 -10 -7t-33 -12t-48 -6q-40 0 -60.5 21.5t-20.5 55.5q0 23 9.5 44.5t23 36t27.5 25.5t24 16z" />
    <glyph glyph-name="tilde" unicode="&#x2dc;" horiz-adv-x="503" 
d="M304 743h53q0 -60 -19 -89t-69 -29q-31 0 -59.5 20t-46.5 20q-25 0 -36.5 -15t-11.5 -29h-52q0 114 90 114q31 0 58 -18t45 -18q26 0 37 15t11 29z" />
    <glyph glyph-name="hungarumlaut" unicode="&#x2dd;" horiz-adv-x="499" 
d="M54 621l74 152h111l-94 -152h-91zM212 621l90 152h112l-111 -152h-91z" />
    <glyph glyph-name="gravecomb" unicode="&#x300;" 
d="M-53 621h-91l-98 152h112z" />
    <glyph glyph-name="acutecomb" unicode="&#x301;" 
d="M-235 621l76 152h112l-97 -152h-91z" />
    <glyph glyph-name="uni0302" unicode="&#x302;" 
d="M-41 621h-95l-63 82l-63 -82h-96l116 152h85z" />
    <glyph glyph-name="tildecomb" unicode="&#x303;" 
d="M-115 743h53q0 -60 -19 -89t-69 -29q-31 0 -59.5 20t-46.5 20q-26 0 -37 -15t-11 -29h-52q0 114 90 114q31 0 58 -18t45 -18q25 0 36.5 15t11.5 29z" />
    <glyph glyph-name="uni0304" unicode="&#x304;" 
d="M-321 722h261v-78h-261v78z" />
    <glyph glyph-name="uni0306" unicode="&#x306;" 
d="M-105 749h77q0 -56 -38.5 -93.5t-104.5 -37.5t-104.5 37.5t-38.5 93.5h78q0 -21 18 -39t47 -18q28 0 47 18.5t19 38.5z" />
    <glyph glyph-name="uni0307" unicode="&#x307;" 
d="M-169 625v135h100v-135h-100z" />
    <glyph glyph-name="uni0308" unicode="&#x308;" 
d="M-355 622v134h101v-134h-101zM-183 622v134h101v-134h-101z" />
    <glyph glyph-name="uni030A" unicode="&#x30a;" 
d="M-144 615q-50 0 -76.5 28.5t-26.5 70.5q0 41 26.5 69.5t76.5 28.5q49 0 75.5 -28.5t26.5 -69.5t-26 -70t-76 -29zM-144 678q15 0 24.5 10t9.5 26t-9.5 25.5t-24.5 9.5q-16 0 -25.5 -9.5t-9.5 -25.5t9.5 -26t25.5 -10z" />
    <glyph glyph-name="uni030B" unicode="&#x30b;" 
d="M-407 621l74 152h111l-94 -152h-91zM-249 621l90 152h112l-111 -152h-91z" />
    <glyph glyph-name="uni030C" unicode="&#x30c;" 
d="M-136 773h95l-116 -152h-85l-116 152h95l64 -82z" />
    <glyph glyph-name="uni0312" unicode="&#x312;" 
d="M-136 834h89q-30 -60 -47 -135q-8 -33 -12 -61.5t-4 -39.5l-1 -12h-103q1 44 21 119q10 36 24 68t23 47z" />
    <glyph glyph-name="dotbelowcomb" unicode="&#x323;" 
d="M-169 -188v127h100v-127h-100z" />
    <glyph glyph-name="uni0326" unicode="&#x326;" 
d="M-158 -264h-86q27 51 44 115q7 25 11.5 48.5t4.5 34.5l1 11h99q-4 -45 -22 -101q-10 -30 -23 -57t-21 -39z" />
    <glyph glyph-name="uni0327" unicode="&#x327;" 
d="M-113 3l-32 -56q90 -7 90 -83q0 -98 -125 -98q-27 0 -47.5 1.5t-26.5 2.5l-7 2v62q20 -6 61 -6q59 0 59 42t-99 42h-3l48 91h82z" />
    <glyph glyph-name="uni0328" unicode="&#x328;" 
d="M-113 10l71 -8q-75 -38 -75 -93q0 -16 9.5 -26t25.5 -10q11 0 23 3.5t19 6.5l6 3v-56q0 -1 -10 -7t-33 -12t-48 -6q-40 0 -60.5 21.5t-20.5 55.5q0 23 9.5 44.5t23 36t27.5 25.5t24 16z" />
    <glyph glyph-name="uni0335" unicode="&#x335;" 
d="M-349 298v67h305v-67h-305z" />
    <glyph glyph-name="uni0336" unicode="&#x336;" 
d="M-762 294v78h675v-78h-675z" />
    <glyph glyph-name="uni0337" unicode="&#x337;" 
d="M-332 189l-37 66l302 177l37 -66z" />
    <glyph glyph-name="uni0338" unicode="&#x338;" 
d="M-427 103l404 556h81l-403 -556h-82z" />
    <glyph glyph-name="pi" unicode="&#x3c0;" horiz-adv-x="610" 
d="M539 72h24v-72h-24q-44 0 -73.5 10t-46 24.5t-25 44t-10.5 56t-2 72.5v271h-168v-478h-87v478h-90v84h522v-84h-90v-271q0 -77 9 -99q14 -36 61 -36z" />
    <glyph glyph-name="Wgrave" unicode="&#x1e80;" horiz-adv-x="975" 
d="M540 760h-91l-98 145h112zM862 712h108l-216 -712h-107l-163 565l-160 -565h-101l-218 712h114l156 -581l158 581h105l170 -588z" />
    <glyph glyph-name="wgrave" unicode="&#x1e81;" horiz-adv-x="756" 
d="M419 621h-91l-98 152h112zM657 539h95l-170 -539h-89l-121 397l-112 -397h-89l-167 540h100l115 -415l110 414h97l117 -410z" />
    <glyph glyph-name="Wacute" unicode="&#x1e82;" horiz-adv-x="975" 
d="M637 905l-97 -145h-92l77 145h112zM862 712h108l-216 -712h-107l-163 565l-160 -565h-101l-218 712h114l156 -581l158 581h105l170 -588z" />
    <glyph glyph-name="wacute" unicode="&#x1e83;" horiz-adv-x="756" 
d="M510 773l-97 -152h-91l76 152h112zM657 539h95l-170 -539h-89l-121 397l-112 -397h-89l-167 540h100l115 -415l110 414h97l117 -410z" />
    <glyph glyph-name="Wdieresis" unicode="&#x1e84;" horiz-adv-x="975" 
d="M457 894v-134h-100v134h100zM628 894v-134h-100v134h100zM862 712h108l-216 -712h-107l-163 565l-160 -565h-101l-218 712h114l156 -581l158 581h105l170 -588z" />
    <glyph glyph-name="wdieresis" unicode="&#x1e85;" horiz-adv-x="756" 
d="M341 756v-134h-101v134h101zM513 756v-134h-101v134h101zM657 539h95l-170 -539h-89l-121 397l-112 -397h-89l-167 540h100l115 -415l110 414h97l117 -410z" />
    <glyph glyph-name="uni1EA0" unicode="&#x1ea0;" horiz-adv-x="649" 
d="M644 0h-109l-62 171h-304l-61 -171h-103l271 712h99zM202 262h239l-120 332zM275 -188v127h100v-127h-100z" />
    <glyph glyph-name="uni1EA1" unicode="&#x1ea1;" horiz-adv-x="580" 
d="M516 1h-84l-12 68q-56 -80 -186 -80q-99 0 -142.5 39.5t-43.5 122.5q0 31 6.5 55t19.5 41t31 29.5t41 20t50.5 12t58.5 5.5t65.5 2t71.5 0h15q-1 93 -21.5 125.5t-95.5 32.5q-71 0 -99.5 -30t-28.5 -69h-90q0 22 3.5 42t17 45.5t35 43.5t62.5 30.5t96 12.5
q36 0 65.5 -4.5t51.5 -10.5t38.5 -20t27.5 -25t18.5 -33t11.5 -36.5t5.5 -44.5t2 -47t0.5 -52v-9v-127zM254 59q56 0 97 25t56 73v93q-41 1 -76.5 0t-65 -3t-52.5 -8.5t-38.5 -17.5t-23.5 -29t-8 -43q0 -90 111 -90zM239 -188v127h100v-127h-100z" />
    <glyph glyph-name="uni1EB8" unicode="&#x1eb8;" horiz-adv-x="590" 
d="M191 91h369v-91h-472v712h466v-91h-363v-208h313v-89h-313v-233zM273 -188v127h100v-127h-100z" />
    <glyph glyph-name="uni1EB9" unicode="&#x1eb9;" horiz-adv-x="584" 
d="M294 64q71 0 104 33.5t34 69.5h100q0 -28 -11 -56.5t-36 -57.5t-74.5 -47.5t-116.5 -18.5q-131 0 -186.5 70t-55.5 210q0 141 56 213t186 72q126 0 184 -72.5t58 -223.5h-383q2 -97 33 -144.5t108 -47.5zM294 476q-66 0 -98 -37t-40 -110h279q-9 74 -42.5 110.5
t-98.5 36.5zM246 -188v127h100v-127h-100z" />
    <glyph glyph-name="uni1EBC" unicode="&#x1ebc;" horiz-adv-x="590" 
d="M272 804q-26 0 -37 -15t-11 -29h-52q0 121 90 121q31 0 58 -17.5t45 -17.5t29.5 8.5t14.5 17.5t3 17h54q0 -61 -19 -93t-69 -32q-31 0 -59.5 20t-46.5 20zM191 91h369v-91h-472v712h466v-91h-363v-208h313v-89h-313v-233z" />
    <glyph glyph-name="uni1EBD" unicode="&#x1ebd;" horiz-adv-x="584" 
d="M248 665q-26 0 -37 -15t-11 -29h-52q0 114 90 114q31 0 58 -18t45 -18q25 0 36.5 15t11.5 29h53q0 -60 -19 -89t-69 -29q-31 0 -59.5 20t-46.5 20zM294 64q71 0 104 33.5t34 69.5h100q0 -28 -11 -56.5t-36 -57.5t-74.5 -47.5t-116.5 -18.5q-131 0 -186.5 70t-55.5 210
q0 141 56 213t186 72q126 0 184 -72.5t58 -223.5h-383q2 -97 33 -144.5t108 -47.5zM294 476q-66 0 -98 -37t-40 -110h279q-9 74 -42.5 110.5t-98.5 36.5z" />
    <glyph glyph-name="uni1ECA" unicode="&#x1eca;" horiz-adv-x="278" 
d="M88 0v712h103v-712h-103zM89 -188v127h100v-127h-100z" />
    <glyph glyph-name="uni1ECB" unicode="&#x1ecb;" horiz-adv-x="242" 
d="M71 625v135h100v-135h-100zM69 0v539h100v-539h-100zM68 -188v127h100v-127h-100z" />
    <glyph glyph-name="uni1ECC" unicode="&#x1ecc;" horiz-adv-x="709" 
d="M355 -18q-159 0 -227 91.5t-68 281.5q0 191 68 283t227 92q158 0 226 -92t68 -283q0 -190 -68 -281.5t-226 -91.5zM355 73q104 0 147.5 66t43.5 216q0 151 -43.5 217.5t-147.5 66.5q-105 0 -148 -66.5t-43 -217.5q0 -150 43 -216t148 -66zM305 -188v127h100v-127h-100z
" />
    <glyph glyph-name="uni1ECD" unicode="&#x1ecd;" horiz-adv-x="599" 
d="M299 -13q-135 0 -191 72.5t-56 208.5q0 137 56.5 210.5t190.5 73.5t191 -74t57 -210t-56.5 -208.5t-191.5 -72.5zM298 68q81 0 113.5 48t32.5 152t-33 153.5t-113 49.5t-112.5 -49.5t-32.5 -153.5t32.5 -152t112.5 -48zM248 -188v127h100v-127h-100z" />
    <glyph glyph-name="uni1EE4" unicode="&#x1ee4;" horiz-adv-x="700" 
d="M350 -18q-151 0 -212.5 85.5t-61.5 274.5v370h103v-370q0 -149 37 -209t133 -60t133 60t37 209v370h105v-370q0 -189 -62 -274.5t-212 -85.5zM301 -188v127h100v-127h-100z" />
    <glyph glyph-name="uni1EE5" unicode="&#x1ee5;" horiz-adv-x="602" 
d="M538 0h-85l-16 99q-21 -39 -67 -75.5t-115 -36.5q-99 0 -144.5 51t-45.5 173l2 328h99l-1 -312q0 -76 22.5 -113.5t85.5 -37.5q33 0 61.5 13t47 34t29.5 38.5t18 34.5v343h100v-390zM252 -188v127h100v-127h-100z" />
    <glyph glyph-name="Ygrave" unicode="&#x1ef2;" horiz-adv-x="621" 
d="M357 760h-91l-98 145h112zM501 712h115l-249 -454v-258h-103v258l-259 454h120l193 -352z" />
    <glyph glyph-name="ygrave" unicode="&#x1ef3;" horiz-adv-x="519" 
d="M294 621h-91l-98 152h112zM409 539h103l-271 -758h-91l75 219h-28l-190 539h110l142 -438z" />
    <glyph glyph-name="uni1EF8" unicode="&#x1ef8;" horiz-adv-x="621" 
d="M262 804q-26 0 -37 -15t-11 -29h-52q0 121 90 121q31 0 58 -17.5t45 -17.5t29.5 8.5t14.5 17.5t3 17h54q0 -61 -19 -93t-69 -32q-31 0 -59.5 20t-46.5 20zM501 712h115l-249 -454v-258h-103v258l-259 454h120l193 -352z" />
    <glyph glyph-name="uni1EF9" unicode="&#x1ef9;" horiz-adv-x="519" 
d="M204 665q-26 0 -37 -15t-11 -29h-52q0 114 90 114q31 0 58 -18t45 -18q25 0 36.5 15t11.5 29h53q0 -60 -19 -89t-69 -29q-31 0 -59.5 20t-46.5 20zM409 539h103l-271 -758h-91l75 219h-28l-190 539h110l142 -438z" />
    <glyph glyph-name="uni2009" unicode="&#x2009;" horiz-adv-x="67" 
 />
    <glyph glyph-name="endash" unicode="&#x2013;" horiz-adv-x="579" 
d="M61 281v78h457v-78h-457z" />
    <glyph glyph-name="emdash" unicode="&#x2014;" horiz-adv-x="938" 
d="M81 281v78h776v-78h-776z" />
    <glyph glyph-name="uni2016" unicode="&#x2016;" horiz-adv-x="435" 
d="M81 -180v1000h87v-1000h-87zM266 -180v1000h87v-1000h-87z" />
    <glyph glyph-name="quoteleft" unicode="&#x2018;" horiz-adv-x="230" 
d="M140 512h-103q0 44 21 119q10 36 24 68t23 47l9 14h89q-30 -61 -46 -135q-8 -34 -12 -62t-5 -39v-12z" />
    <glyph glyph-name="quoteright" unicode="&#x2019;" horiz-adv-x="221" 
d="M116 512h-89q30 61 47 135q7 34 11 62t5 39v12h104q-1 -44 -21 -119q-10 -36 -24 -68t-23 -47z" />
    <glyph glyph-name="quotesinglbase" unicode="&#x201a;" horiz-adv-x="257" 
d="M128 -122h-89q30 61 46 136q8 33 12 61t5 39v12h103q0 -44 -21 -119q-10 -36 -24 -68t-23 -47z" />
    <glyph glyph-name="quotedblleft" unicode="&#x201c;" horiz-adv-x="404" 
d="M144 512h-104q1 44 21 119q10 36 24 68t23 47l10 14h89q-30 -61 -47 -135q-7 -34 -11 -62t-5 -39v-12zM317 512h-103q0 44 21 119q9 36 23 68t24 47l9 14h89q-30 -61 -47 -135q-7 -34 -11 -62t-4 -39z" />
    <glyph glyph-name="quotedblright" unicode="&#x201d;" horiz-adv-x="400" 
d="M113 512h-89q30 61 46 135q8 34 12 62t4 39l1 12h103q-1 -44 -21 -119q-10 -36 -24 -68t-23 -47zM286 512h-89q30 61 46 135q8 34 12 62t5 39v12h103q0 -44 -21 -119q-10 -36 -24 -68t-23 -47z" />
    <glyph glyph-name="quotedblbase" unicode="&#x201e;" horiz-adv-x="400" 
d="M113 -129h-89q30 60 46 135q8 33 12 61t4 39l1 12h103q-1 -44 -21 -119q-10 -35 -24 -67t-23 -46zM285 -129h-89q30 60 47 135q7 33 11 61t4 39l1 12h104q-1 -44 -21 -119q-10 -35 -24 -67t-24 -46z" />
    <glyph glyph-name="dagger" unicode="&#x2020;" horiz-adv-x="556" 
d="M476 588v-84h-155v-504h-87v504h-154v84h154v191h87v-191h155z" />
    <glyph glyph-name="daggerdbl" unicode="&#x2021;" horiz-adv-x="556" 
d="M476 504h-155v-228h155v-84h-155v-192h-87v192h-154v84h154v228h-154v84h154v191h87v-191h155v-84z" />
    <glyph glyph-name="bullet" unicode="&#x2022;" horiz-adv-x="449" 
d="M154 220v155h141v-155h-141z" />
    <glyph glyph-name="ellipsis" unicode="&#x2026;" horiz-adv-x="649" 
d="M86 0v125h102v-125h-102zM274 0v125h101v-125h-101zM461 0v125h102v-125h-102z" />
    <glyph glyph-name="perthousand" unicode="&#x2030;" horiz-adv-x="1159" 
d="M199 362q-89 0 -127 44.5t-38 129.5q0 86 38.5 131.5t126.5 45.5q90 0 127.5 -45t37.5 -132q0 -86 -37.5 -130t-127.5 -44zM199 425q48 0 67 26.5t19 84.5t-19 86t-67 28q-47 0 -66.5 -28.5t-19.5 -85.5t19.5 -84t66.5 -27zM120 0l460 702h88l-460 -702h-88zM586 -12
q-89 0 -127.5 44.5t-38.5 129.5q0 87 38.5 132.5t127.5 45.5t127 -45.5t38 -132.5q0 -86 -38 -130t-127 -44zM586 51q48 0 67 26.5t19 84.5t-19 86.5t-67 28.5t-67.5 -28.5t-19.5 -86.5q0 -57 19.5 -84t67.5 -27zM958 -12q-89 0 -127.5 44.5t-38.5 129.5q0 87 38.5 132.5
t127.5 45.5t127 -45.5t38 -132.5q0 -86 -38 -130t-127 -44zM958 51q48 0 66.5 27t18.5 84q0 58 -19 86.5t-66 28.5q-48 0 -67.5 -28.5t-19.5 -86.5q0 -57 19.5 -84t67.5 -27z" />
    <glyph glyph-name="guilsinglleft" unicode="&#x2039;" horiz-adv-x="358" 
d="M292 440l-130 -178l130 -171h-108l-117 158v26l117 165h108z" />
    <glyph glyph-name="guilsinglright" unicode="&#x203a;" horiz-adv-x="358" 
d="M174 440l117 -165v-26l-117 -158h-108l130 171l-130 178h108z" />
    <glyph glyph-name="fraction" unicode="&#x2044;" horiz-adv-x="246" 
d="M-163 -40l476 814h92l-476 -814h-92z" />
    <glyph glyph-name="uni2070" unicode="&#x2070;" horiz-adv-x="500" 
d="M250 296q-112 0 -156.5 64t-44.5 204q0 145 44 210.5t157 65.5q112 0 156.5 -65.5t44.5 -210.5q0 -140 -44.5 -204t-156.5 -64zM250 368q62 0 89 45t27 151q0 110 -26.5 156.5t-89.5 46.5t-89.5 -46.5t-26.5 -156.5q0 -106 27 -151t89 -45z" />
    <glyph glyph-name="uni2074" unicode="&#x2074;" horiz-adv-x="454" 
d="M428 475v-66h-60v-104h-84v104h-259v66l252 354h91v-354h60zM101 475h183v260z" />
    <glyph glyph-name="uni2075" unicode="&#x2075;" horiz-adv-x="463" 
d="M256 652q84 0 125 -49t41 -130q0 -177 -189 -177q-98 0 -144.5 43.5t-46.5 105.5h85q0 -32 27.5 -57.5t78.5 -25.5q108 0 108 111q0 53 -28 83t-80 30q-34 0 -59 -12t-32 -24l-8 -11l-78 1l34 222l9 63h295v-68l-225 4l-22 -141q41 32 109 32z" />
    <glyph glyph-name="uni2076" unicode="&#x2076;" horiz-adv-x="491" 
d="M267 648q174 0 174 -175q0 -176 -194 -177q-108 -1 -153 57.5t-45 184.5q0 166 45 234.5t153 68.5q94 0 135 -44.5t41 -104.5h-82q0 33 -23 58.5t-71 25.5q-52 0 -78 -38.5t-32 -140.5q51 51 130 51zM247 361q107 0 107 107q0 112 -102 112q-77 0 -116 -64
q3 -83 29.5 -119t81.5 -36z" />
    <glyph glyph-name="uni2077" unicode="&#x2077;" horiz-adv-x="385" 
d="M186 305h-94q0 69 19.5 141.5t46.5 126.5t54.5 97.5t47.5 66.5l19 23l-262 -3v70h353v-70q-7 -9 -19.5 -25t-44.5 -66.5t-56 -101t-44 -122t-20 -137.5z" />
    <glyph glyph-name="uni2078" unicode="&#x2078;" horiz-adv-x="488" 
d="M49 452q0 64 33.5 98.5t63.5 37.5q-24 2 -52 29.5t-28 78.5q0 145 179 145q177 0 177 -145q0 -51 -27.5 -78.5t-51.5 -29.5q29 -3 62.5 -37.5t33.5 -98.5q0 -75 -45 -115t-149 -40q-105 0 -150.5 40t-45.5 115zM137 458q0 -91 108 -91q106 0 106 91q0 92 -106 92
q-108 0 -108 -92zM149 689q0 -74 96 -74t96 74q0 85 -96 85t-96 -85z" />
    <glyph glyph-name="uni2079" unicode="&#x2079;" horiz-adv-x="491" 
d="M243 841q107 1 152.5 -59t45.5 -193q0 -165 -44 -229t-155 -64q-100 0 -143.5 44.5t-43.5 103.5h82q0 -33 26 -58t79 -25t78.5 34t31.5 130q-49 -51 -129 -51q-176 0 -176 188q0 81 46.5 129.5t149.5 49.5zM239 545q76 0 115 60q-2 93 -28 130.5t-83 37.5
q-107 0 -107 -111q0 -117 103 -117z" />
    <glyph glyph-name="Euro" unicode="&#x20ac;" horiz-adv-x="622" 
d="M343 86q52 0 88 28.5t41 71.5h92q-5 -83 -60 -137t-161 -54q-116 0 -175.5 62.5t-75.5 176.5h-62v64h55q-1 17 -1 52q0 30 1 44h-55v64h60q16 119 75.5 184t177.5 65q110 0 165.5 -58t58.5 -146h-93q-4 49 -39.5 81t-91.5 32q-127 0 -153 -158h178v-64h-185
q-1 -14 -1 -44q0 -36 2 -52h184v-64h-177q28 -148 152 -148z" />
    <glyph glyph-name="uni20BD" unicode="&#x20bd;" horiz-adv-x="629" 
d="M306 295h-89v-74h163v-77h-163v-145h-103v145h-84v77h84v74h-84v85h84v335h194q152 0 218 -46.5t66 -167.5q0 -116 -66 -161t-220 -45zM217 624v-245h89q36 0 61 2.5t49.5 10t39.5 20.5t24 35.5t9 54.5t-9 54.5t-24 35.5t-39.5 20t-49.5 9.5t-61 2.5h-89z" />
    <glyph glyph-name="uni2116" unicode="&#x2116;" horiz-adv-x="1248" 
d="M557 139l-10 573h98v-712h-114l-347 565l-2 -565h-94l2 712h114zM935 134q-112 0 -156 57.5t-44 170.5t44 171t156 59q113 0 157.5 -58.5t44.5 -171.5t-44.5 -170.5t-157.5 -57.5zM935 514q-57 0 -81.5 -38t-24.5 -114t24.5 -113t81.5 -37q58 0 83 37t25 113t-25 114
t-83 38zM738 78h407v-78h-407v78z" />
    <glyph glyph-name="uni2117" unicode="&#x2117;" horiz-adv-x="817" 
d="M408 721q95 0 164.5 -29.5t109 -82.5t57.5 -117.5t18 -143.5t-18 -142.5t-57.5 -115.5t-109 -81t-164.5 -29q-94 0 -163 29t-108.5 80.5t-58 116t-18.5 142.5q0 79 18.5 144t58 117.5t108.5 82t163 29.5zM408 37q78 0 135 25.5t88 71t45 98.5t14 116q0 50 -8.5 94.5
t-28.5 86t-51.5 71t-81 47t-112.5 17.5q-77 0 -134 -26.5t-88 -72.5t-45.5 -99.5t-14.5 -117.5q0 -63 14.5 -116t45.5 -98.5t87.5 -71t134.5 -25.5zM255 554h158q99 0 140.5 -32t41.5 -117t-42.5 -116.5t-141.5 -31.5h-65v-117h-91v414zM346 331l65 -1q30 0 46.5 3.5t30 21
t13.5 50.5q0 48 -22.5 62t-67.5 14h-65v-150z" />
    <glyph glyph-name="uni2120" unicode="&#x2120;" horiz-adv-x="765" 
d="M99 633q0 -26 21 -39.5t51 -19t60 -13t51 -31t21 -65.5q0 -99 -133 -99q-68 0 -99 27.5t-31 87.5h52q0 -32 19.5 -50t57.5 -18q36 0 57 14.5t21 35.5q0 29 -21 43.5t-50.5 19.5t-59 12.5t-50.5 31t-21 65.5q0 94 124 94q67 0 96 -26.5t29 -78.5h-51q0 23 -17 40.5
t-56 17.5q-36 0 -53.5 -14.5t-17.5 -34.5zM705 715l-1 -340h-55l3 273l-101 -274h-55l-94 273l2 -272h-51v340h79l97 -277l97 277h79z" />
    <glyph glyph-name="trademark" unicode="&#x2122;" horiz-adv-x="724" 
d="M272 720v-49h-100l-1 -296h-53l2 296h-100v49h252zM664 715l-1 -340h-54l3 273l-101 -274h-55l-95 273l2 -272h-50v340h80l95 -276l98 276h78z" />
    <glyph glyph-name="oneeighth" unicode="&#x215b;" horiz-adv-x="992" 
d="M926 391q0 -51 -27.5 -78.5t-51.5 -29.5q29 -3 62.5 -37.5t33.5 -98.5q0 -75 -45 -115t-149 -40q-105 0 -150.5 40t-45.5 115q0 64 33.5 98.5t63.5 37.5q-24 2 -52 29.5t-28 78.5q0 145 179 145q177 0 177 -145zM749 62q106 0 106 91q0 92 -106 92q-108 0 -108 -92
q0 -91 108 -91zM749 469q-96 0 -96 -85q0 -74 96 -74t96 74q0 85 -96 85zM582 774h92l-476 -814h-92zM190 231h-86v448l-93 -44v70l122 55h57v-529z" />
    <glyph glyph-name="threeeighths" unicode="&#x215c;" horiz-adv-x="1165" 
d="M1099 391q0 -51 -27.5 -78.5t-51.5 -29.5q29 -3 62.5 -37.5t33.5 -98.5q0 -75 -45 -115t-149 -40q-105 0 -150.5 40t-45.5 115q0 64 33.5 98.5t63.5 37.5q-24 2 -52 29.5t-28 78.5q0 145 179 145q177 0 177 -145zM922 62q106 0 106 91q0 92 -106 92q-108 0 -108 -92
q0 -91 108 -91zM922 469q-96 0 -96 -85q0 -74 96 -74t96 74q0 85 -96 85zM404 395q0 -79 -45 -126t-144 -47q-96 0 -141 45.5t-45 117.5h85q0 -38 26 -65.5t74 -27.5q53 0 79.5 28.5t26.5 78.5q0 52 -29.5 81.5t-87.5 29.5l-63 -5v55l152 127l-240 -6v70h342v-62l-142 -125
q152 -21 152 -169zM755 774h92l-476 -814h-92z" />
    <glyph glyph-name="fiveeighths" unicode="&#x215d;" horiz-adv-x="1182" 
d="M1116 391q0 -51 -27.5 -78.5t-51.5 -29.5q29 -3 62.5 -37.5t33.5 -98.5q0 -75 -45 -115t-149 -40q-105 0 -150.5 40t-45.5 115q0 64 33.5 98.5t63.5 37.5q-24 2 -52 29.5t-28 78.5q0 145 179 145q177 0 177 -145zM939 62q106 0 106 91q0 92 -106 92q-108 0 -108 -92
q0 -91 108 -91zM939 469q-96 0 -96 -85q0 -74 96 -74t96 74q0 85 -96 85zM422 399q0 -177 -189 -177q-98 0 -144.5 43.5t-46.5 105.5h85q0 -32 27.5 -57.5t78.5 -25.5q108 0 108 111q0 53 -28 83t-80 30q-34 0 -59 -12t-32 -24l-8 -11l-78 1l34 222l9 63h295v-68l-225 4
l-22 -141q41 32 109 32q84 0 125 -49t41 -130zM772 774h92l-476 -814h-92z" />
    <glyph glyph-name="seveneighths" unicode="&#x215e;" horiz-adv-x="1061" 
d="M622 147q0 64 33.5 98.5t63.5 37.5q-24 2 -52 29.5t-28 78.5q0 145 179 145q177 0 177 -145q0 -51 -27.5 -78.5t-51.5 -29.5q29 -3 62.5 -37.5t33.5 -98.5q0 -75 -45 -115t-149 -40q-105 0 -150.5 40t-45.5 115zM710 153q0 -91 108 -91q106 0 106 91q0 92 -106 92
q-108 0 -108 -92zM722 384q0 -74 96 -74t96 74q0 85 -96 85t-96 -85zM175 -40l476 814h92l-476 -814h-92zM186 231h-94q0 69 19.5 141.5t46.5 126.5t54.5 97.5t47.5 66.5l19 23l-262 -3v70h353v-70q-7 -9 -19.5 -25t-44.5 -66.5t-56 -101t-44 -122t-20 -137.5z" />
    <glyph glyph-name="arrowleft" unicode="&#x2190;" horiz-adv-x="728" 
d="M691 241l-468 5l188 -144l-53 -65l-321 253l322 259l52 -63l-189 -146l468 4z" />
    <glyph glyph-name="arrowup" unicode="&#x2191;" horiz-adv-x="586" 
d="M549 314l-64 -53l-146 189l4 -468h-101l4 467l-145 -188l-64 53l254 320z" />
    <glyph glyph-name="arrowright" unicode="&#x2192;" horiz-adv-x="727" 
d="M369 565l321 -254l-321 -258l-52 64l188 145l-468 -4v102l469 -5l-189 146z" />
    <glyph glyph-name="arrowdown" unicode="&#x2193;" horiz-adv-x="587" 
d="M485 349l64 -52l-253 -322l-259 322l64 52l145 -188l-3 467l101 1l-4 -468z" />
    <glyph glyph-name="arrowboth" unicode="&#x2194;" horiz-adv-x="1022" 
d="M663 534l322 -259l-321 -253l-53 65l186 143l-575 2l189 -145l-53 -65l-321 253l322 259l52 -63l-190 -147l579 1l-189 146z" />
    <glyph glyph-name="arrowupdn" unicode="&#x2195;" horiz-adv-x="586" 
d="M341 -7l145 188l63 -53l-259 -321l-253 321l65 52l143 -186l2 575l-145 -188l-65 52l253 321l259 -321l-63 -53l-147 190z" />
    <glyph glyph-name="uni2196" unicode="&#x2196;" horiz-adv-x="574" 
d="M547 94l-72 -72l-327 332l30 -234l-83 -8l-48 406l410 -45l-8 -81l-237 31z" />
    <glyph glyph-name="uni2197" unicode="&#x2197;" horiz-adv-x="570" 
d="M117 472l406 48l-44 -410l-83 9l31 235l-327 -333l-73 72l334 328l-236 -31z" />
    <glyph glyph-name="uni2198" unicode="&#x2198;" horiz-adv-x="573" 
d="M116 78l8 82l238 -31l-335 329l72 71l327 -333l-30 235l82 9l48 -407z" />
    <glyph glyph-name="uni2199" unicode="&#x2199;" horiz-adv-x="570" 
d="M209 130l236 30l8 -82l-406 -48l44 410l82 -8l-31 -237l329 334l72 -72z" />
    <glyph glyph-name="minus" unicode="&#x2212;" horiz-adv-x="471" 
d="M50 282v85h371v-85h-371z" />
    <glyph glyph-name="infinity" unicode="&#x221e;" horiz-adv-x="765" 
d="M731 304q0 -76 -41.5 -119t-130.5 -43h-1q-59 0 -99 28t-76 77q-37 -50 -77 -77.5t-99 -27.5h-1q-172 0 -172 162t172 162h1q59 0 99 -27.5t77 -77.5q36 49 76 77t99 28h1q89 0 130.5 -43t41.5 -119zM559 211q93 0 93 93t-93 93q-43 0 -73.5 -23.5t-63.5 -69.5
q33 -46 63.5 -69.5t73.5 -23.5zM206 211q43 0 73.5 23.5t63.5 69.5q-33 46 -63.5 69.5t-73.5 23.5q-93 0 -93 -93t93 -93z" />
    <glyph glyph-name="approxequal" unicode="&#x2248;" horiz-adv-x="568" 
d="M438 465h64q0 -138 -127 -138q-47 0 -96 27.5t-86 27.5q-30 0 -46 -19.5t-16 -35.5h-65q0 138 127 138q47 0 96 -27.5t86 -27.5q30 0 46.5 19.5t16.5 35.5zM438 293h64q0 -137 -127 -137q-47 0 -96 27.5t-86 27.5q-30 0 -46 -19.5t-16 -35.5h-65q0 137 127 137
q47 0 96 -27.5t86 -27.5q30 0 46.5 19.5t16.5 35.5z" />
    <glyph glyph-name="notequal" unicode="&#x2260;" horiz-adv-x="547" 
d="M475 352h-142l-49 -84h191v-85h-240l-52 -90h-76l52 90h-86v85h135l49 84h-184v84h232l48 83h76l-48 -83h94v-84z" />
    <glyph glyph-name="lessequal" unicode="&#x2264;" horiz-adv-x="582" 
d="M492 571v-91l-326 -93l326 -100v-91l-412 149v85zM86 78v85h402v-85h-402z" />
    <glyph glyph-name="greaterequal" unicode="&#x2265;" horiz-adv-x="582" 
d="M90 571l412 -141v-85l-412 -149v91l326 100l-326 93v91zM94 78v85h401v-85h-401z" />
    <glyph glyph-name="acutecomb.case" 
d="M-236 760l77 145h112l-97 -145h-92z" />
    <glyph glyph-name="at.case" horiz-adv-x="893" 
d="M833 356q0 -258 -150 -260h-1q-94 0 -122 97q-47 -67 -144 -67q-175 0 -175 231q0 234 175 234q83 0 137 -66l10 58h78v-304q0 -63 13 -91.5t41 -28.5q21 0 35.5 13t25.5 58.5t11 125.5q0 77 -16.5 138t-52 110.5t-99 76.5t-151.5 27q-86 0 -149 -27.5t-98.5 -77
t-51.5 -110.5t-16 -137t14.5 -134.5t49 -107t98 -74.5t154.5 -26q129 0 194 32v-64q-76 -28 -195 -28q-203 0 -295.5 108t-92.5 294q0 90 21 162.5t65 129.5t121 88.5t181 31.5t180 -31t120 -87.5t64.5 -129.5t20.5 -164zM438 195q83 0 112 80v177q-37 70 -112 70
q-48 0 -75.5 -42t-27.5 -123q0 -162 103 -162z" />
    <glyph glyph-name="bitcoin" horiz-adv-x="593" 
d="M538 232q0 -85 -32.5 -125.5t-133.5 -50.5v-101h-63v98h-53v-98h-64v98h-104v648h104v84h64v-84h53v84h63v-88q83 -11 114.5 -51.5t31.5 -113.5q0 -54 -15.5 -88.5t-55.5 -53.5q53 -20 72 -58t19 -100zM192 136l105 -1q82 0 109.5 22.5t27.5 84.5q0 59 -29 83t-108 24
h-105v-213zM417 521q0 53 -26.5 75t-93.5 22h-105v-192l105 -1q70 0 95 21t25 75z" />
    <glyph glyph-name="braceleft.case" horiz-adv-x="422" 
d="M392 759v-91q-88 0 -112.5 -20.5t-24.5 -90.5v-128q0 -21 -6 -39t-13.5 -28t-17 -17t-15 -10t-8.5 -3q3 -1 7.5 -3t14.5 -9.5t18 -17.5t14 -28t6 -40v-124q0 -73 24.5 -94t112.5 -21v-91q-80 0 -125.5 8.5t-71 33t-33 58t-7.5 93.5v137q0 32 -16.5 44t-70.5 12v84
q54 0 70.5 11.5t16.5 43.5v147q0 47 5 75t18 51.5t40.5 34.5t68.5 16.5t105 5.5z" />
    <glyph glyph-name="braceright.case" horiz-adv-x="422" 
d="M30 -96v91q88 0 113 20.5t25 90.5v129q0 74 58 97q-3 1 -7.5 3t-14 9.5t-17 17.5t-13.5 27.5t-6 39.5v128q0 70 -25 90.5t-113 20.5v91q79 0 125 -8.5t71.5 -32.5t33 -56.5t7.5 -91.5v-141q0 -32 16.5 -44t70.5 -12v-83q-54 0 -70.5 -11.5t-16.5 -43.5v-148q0 -47 -5 -75
t-18 -51.5t-40.5 -34.5t-68.5 -16.5t-105 -5.5z" />
    <glyph glyph-name="bracketleft.case" horiz-adv-x="385" 
d="M355 669h-155v-664h155v-91h-255v846h255v-91z" />
    <glyph glyph-name="bracketright.case" horiz-adv-x="385" 
d="M285 760v-846h-255v91h155v664h-155v91h255z" />
    <glyph glyph-name="caroncomb.alt" 
d="M-229 583l64 177h98l-85 -177h-77z" />
    <glyph glyph-name="caroncomb.alt.case" 
d="M-229 760l73 174h113l-94 -174h-92z" />
    <glyph glyph-name="dagger.sups" horiz-adv-x="321" 
d="M261 657v-53h-72v-233h-58v233h-71v53h71v85h58v-85h72z" />
    <glyph glyph-name="daggerdbl.sups" horiz-adv-x="308" 
d="M254 604h-71v-94h71v-54h-71v-85h-58v85h-71v54h71v94h-71v53h71v85h58v-85h71v-53z" />
    <glyph glyph-name="eight.dnom" horiz-adv-x="488" 
d="M49 147q0 64 33.5 98.5t63.5 37.5q-24 2 -52 29.5t-28 78.5q0 145 179 145q177 0 177 -145q0 -51 -27.5 -78.5t-51.5 -29.5q29 -3 62.5 -37.5t33.5 -98.5q0 -75 -45 -115t-149 -40q-105 0 -150.5 40t-45.5 115zM137 153q0 -91 108 -91q106 0 106 91q0 92 -106 92
q-108 0 -108 -92zM149 384q0 -74 96 -74t96 74q0 85 -96 85t-96 -85z" />
    <glyph glyph-name="eight.numr" horiz-adv-x="488" 
d="M49 378q0 64 33.5 98.5t63.5 37.5q-24 2 -52 29.5t-28 78.5q0 145 179 145q177 0 177 -145q0 -51 -27.5 -78.5t-51.5 -29.5q29 -3 62.5 -37.5t33.5 -98.5q0 -75 -45 -115t-149 -40q-105 0 -150.5 40t-45.5 115zM137 384q0 -91 108 -91q106 0 106 91q0 92 -106 92
q-108 0 -108 -92zM149 615q0 -74 96 -74t96 74q0 85 -96 85t-96 -85z" />
    <glyph glyph-name="eight.subs" horiz-adv-x="488" 
d="M49 -50q0 64 33.5 98.5t63.5 37.5q-24 2 -52 29.5t-28 78.5q0 145 179 145q177 0 177 -145q0 -51 -27.5 -78.5t-51.5 -29.5q29 -3 62.5 -37.5t33.5 -98.5q0 -75 -45 -115t-149 -40q-105 0 -150.5 40t-45.5 115zM137 -44q0 -91 108 -91q106 0 106 91q0 92 -106 92
q-108 0 -108 -92zM149 187q0 -74 96 -74t96 74q0 85 -96 85t-96 -85z" />
    <glyph glyph-name="eight.tf" horiz-adv-x="676" 
d="M68 201q0 45 15 81.5t37 56.5t42 31t34 12q-29 4 -67 41t-38 103q0 196 237 196t237 -196q0 -66 -38 -103t-68 -41q14 -1 34 -12t42 -31t37.5 -56.5t15.5 -81.5q0 -102 -60.5 -156.5t-199.5 -54.5t-199.5 54.5t-60.5 156.5zM173 207q0 -126 155 -126t155 126
q0 127 -155 127t-155 -127zM196 517q0 -99 132 -99t132 99q0 115 -132 115t-132 -115z" />
    <glyph glyph-name="exclamdown.case" horiz-adv-x="263" 
d="M81 597v115h100v-115h-100zM81 0l7 537h86l7 -537h-100z" />
    <glyph glyph-name="five.dnom" horiz-adv-x="463" 
d="M256 347q84 0 125 -49t41 -130q0 -177 -189 -177q-98 0 -144.5 43.5t-46.5 105.5h85q0 -32 27.5 -57.5t78.5 -25.5q108 0 108 111q0 53 -28 83t-80 30q-22 0 -40 -5t-28.5 -11.5t-18 -13.5t-10.5 -12l-2 -5l-78 1l34 222l9 63h295v-68l-225 4l-22 -141q41 32 109 32z" />
    <glyph glyph-name="five.numr" horiz-adv-x="463" 
d="M256 578q84 0 125 -49t41 -130q0 -177 -189 -177q-98 0 -144.5 43.5t-46.5 105.5h85q0 -32 27.5 -57.5t78.5 -25.5q108 0 108 111q0 53 -28 83t-80 30q-34 0 -59 -12t-32 -24l-8 -11l-78 1l34 222l9 63h295v-68l-225 4l-22 -141q41 32 109 32z" />
    <glyph glyph-name="five.subs" horiz-adv-x="463" 
d="M256 150q84 0 125 -49t41 -130q0 -177 -189 -177q-98 0 -144.5 43.5t-46.5 105.5h85q0 -32 27.5 -57.5t78.5 -25.5q108 0 108 111q0 53 -28 83t-80 30q-34 0 -59 -12t-32 -24l-8 -11l-78 1l34 222l9 63h295v-68l-225 4l-22 -141q41 32 109 32z" />
    <glyph glyph-name="five.tf" horiz-adv-x="676" 
d="M355 468q109 0 168.5 -63t59.5 -178q0 -235 -254 -235q-120 0 -182 56.5t-62 144.5h97q0 -40 38 -75t109 -35q75 0 112 38.5t37 105.5q0 66 -38.5 108t-110.5 42q-29 0 -53.5 -7t-39 -16.5t-24.5 -19t-14 -16.5l-3 -7l-92 1l45 296l12 88h386v-88h-305l-28 -184
q57 44 142 44z" />
    <glyph glyph-name="four.dnom" horiz-adv-x="454" 
d="M428 170v-66h-60v-104h-84v104h-259v66l252 354h91v-354h60zM101 170h183v260z" />
    <glyph glyph-name="four.numr" horiz-adv-x="454" 
d="M428 401v-66h-60v-104h-84v104h-259v66l252 354h91v-354h60zM101 401h183v260z" />
    <glyph glyph-name="four.subs" horiz-adv-x="454" 
d="M428 -27v-66h-60v-104h-84v104h-259v66l252 354h91v-354h60zM101 -27h183v260z" />
    <glyph glyph-name="four.tf" horiz-adv-x="676" 
d="M577 232v-91h-86v-141h-103l1 141h-341v91l338 468h105v-468h86zM157 232h233l2 330z" />
    <glyph glyph-name="gravecomb.case" 
d="M-53 760h-91l-98 145h112z" />
    <glyph glyph-name="guillemotleft.case" horiz-adv-x="538" 
d="M290 503l-130 -177l130 -171h-108l-117 157v27l117 164h108zM474 503l-130 -177l130 -171h-108l-117 157v27l117 164h108z" />
    <glyph glyph-name="guillemotright.case" horiz-adv-x="538" 
d="M289 335v-26l-117 -158h-107l129 171l-129 178h107zM356 500l117 -165v-26l-117 -158h-108l130 171l-130 178h108z" />
    <glyph glyph-name="guilsinglleft.case" horiz-adv-x="358" 
d="M292 500l-130 -178l130 -171h-108l-117 158v26l117 165h108z" />
    <glyph glyph-name="guilsinglright.case" horiz-adv-x="358" 
d="M174 500l117 -165v-26l-117 -158h-108l130 171l-130 178h108z" />
    <glyph glyph-name="i.loclTRK" horiz-adv-x="242" 
d="M71 625v135h100v-135h-100zM69 0v539h100v-539h-100z" />
    <glyph glyph-name="nine.dnom" horiz-adv-x="491" 
d="M243 536q107 1 152.5 -59t45.5 -193q0 -165 -44 -229t-155 -64q-100 0 -143.5 44.5t-43.5 103.5h82q0 -33 26 -58t79 -25t78.5 34t31.5 130q-49 -51 -129 -51q-176 0 -176 188q0 81 46.5 129.5t149.5 49.5zM239 240q76 0 115 60q-2 93 -28 130.5t-83 37.5
q-107 0 -107 -111q0 -117 103 -117z" />
    <glyph glyph-name="nine.numr" horiz-adv-x="491" 
d="M243 767q107 1 152.5 -59t45.5 -193q0 -165 -44 -229t-155 -64q-100 0 -143.5 44.5t-43.5 103.5h82q0 -33 26 -58t79 -25t78.5 34t31.5 130q-49 -51 -129 -51q-176 0 -176 188q0 81 46.5 129.5t149.5 49.5zM239 471q76 0 115 60q-2 93 -28 130.5t-83 37.5
q-107 0 -107 -111q0 -117 103 -117z" />
    <glyph glyph-name="nine.subs" horiz-adv-x="491" 
d="M243 339q107 1 152.5 -59t45.5 -193q0 -165 -44 -229t-155 -64q-100 0 -143.5 44.5t-43.5 103.5h82q0 -33 26 -58t79 -25t78.5 34t31.5 130q-49 -51 -129 -51q-176 0 -176 188q0 81 46.5 129.5t149.5 49.5zM239 43q76 0 115 60q-2 93 -28 130.5t-83 37.5
q-107 0 -107 -111q0 -117 103 -117z" />
    <glyph glyph-name="nine.tf" horiz-adv-x="676" 
d="M335 720q134 1 195.5 -80.5t61.5 -252.5q0 -218 -58 -308t-199 -90q-69 0 -119.5 18.5t-76.5 49.5t-38 63t-12 66h105q0 -40 34 -73t107 -33q72 0 105 43.5t43 168.5q-71 -71 -178 -71q-116 0 -171 71.5t-55 185.5q0 110 63 175.5t193 66.5zM325 312q107 0 162 76
q0 135 -37 188t-115 53q-151 0 -151 -151q0 -166 141 -166z" />
    <glyph glyph-name="one.dnom" horiz-adv-x="256" 
d="M133 529h57v-529h-86v448l-93 -44v70z" />
    <glyph glyph-name="one.numr" horiz-adv-x="256" 
d="M133 760h57v-529h-86v448l-93 -44v70z" />
    <glyph glyph-name="one.subs" horiz-adv-x="256" 
d="M133 332h57v-529h-86v448l-93 -44v70z" />
    <glyph glyph-name="one.tf" horiz-adv-x="676" 
d="M406 89h124v-89h-357v89h130v519l-139 -67v96l159 75h83v-623z" />
    <glyph glyph-name="paragraph.alt" horiz-adv-x="631" 
d="M549 760v-760h-87v670h-74v-670h-88v286q-150 3 -205 52.5t-55 184.5t55 184.5t205 52.5h249z" />
    <glyph glyph-name="parenleft.case" horiz-adv-x="330" 
d="M184 760h100l-8 -18q-9 -17 -22 -54.5t-25.5 -86.5t-21.5 -123t-9 -153t11 -153t27 -122.5t31.5 -85.5t26.5 -54l11 -17h-101q-4 6 -11.5 17t-26 50.5t-32.5 85.5t-25.5 121.5t-11.5 157.5t9 157t21.5 123.5t25.5 85t22 53.5z" />
    <glyph glyph-name="parenright.case" horiz-adv-x="330" 
d="M45 760h101q4 -6 9.5 -17t20.5 -51.5t26.5 -86.5t21 -122t9.5 -158t-11 -157t-26.5 -123t-31.5 -84t-27 -52l-11 -16h-100l6 9q5 9 14.5 27.5t20.5 44t22.5 63t21 79t15.5 96.5t6 113q0 79 -9 153t-22 123t-25.5 86.5t-21.5 54.5z" />
    <glyph glyph-name="questiondown.case" horiz-adv-x="514" 
d="M328 712v-115h-100v115h100zM231 537h94l-1 -27q0 -53 -15.5 -93t-38 -65t-45 -47t-38 -52t-15.5 -69q0 -115 106 -115q57 0 81 35t24 106h101q0 -117 -51 -175t-158 -58q-204 0 -204 194q0 52 16.5 92t40 66t47 50t40 57t16.5 74v27z" />
    <glyph glyph-name="registered.alt" horiz-adv-x="481" 
d="M240 742q107 0 154.5 -57.5t47.5 -153.5q0 -94 -47.5 -150.5t-154.5 -56.5q-106 0 -153.5 56.5t-47.5 150.5q0 95 47.5 153t153.5 58zM240 358q162 0 162 173q0 177 -162 177t-162 -177q0 -173 162 -173zM335 577q0 -32 -8 -47.5t-27 -21.5l43 -94l-62 1l-32 87h-46v-87
h-53v236h80q64 0 84.5 -13t20.5 -61zM203 540h25q34 0 45.5 6t11.5 31t-11.5 31.5t-45.5 6.5h-25v-75z" />
    <glyph glyph-name="section.sups" horiz-adv-x="338" 
d="M248 492q30 -18 30 -58q0 -74 -110 -74q-56 0 -82 20.5t-26 65.5h46q0 -47 61 -47q59 0 59 32q0 22 -25.5 32t-56 13.5t-56 22t-25.5 54.5q0 31 30 59q-29 20 -29 58q0 71 104 71q55 0 79.5 -19.5t24.5 -59.5h-47q0 19 -12 29t-44 10q-53 0 -53 -30q0 -17 16.5 -26
t40.5 -13t48 -10t40.5 -23.5t16.5 -47.5q0 -34 -30 -59zM115 553q0 -10 4.5 -16.5t15.5 -11t19.5 -7t25.5 -5.5t25 -5q22 18 22 40q0 10 -5 17.5t-16 12t-20 7t-26 6t-26 5.5q-19 -17 -19 -43z" />
    <glyph glyph-name="seven.dnom" horiz-adv-x="385" 
d="M186 0h-94q0 69 19.5 141.5t46.5 126.5t54.5 97.5t47.5 66.5l19 23l-262 -3v70h353v-70q-7 -9 -19.5 -25t-44.5 -66.5t-56 -101t-44 -122t-20 -137.5z" />
    <glyph glyph-name="seven.numr" horiz-adv-x="385" 
d="M186 231h-94q0 69 19.5 141.5t46.5 126.5t54.5 97.5t47.5 66.5l19 23l-262 -3v70h353v-70q-7 -9 -19.5 -25t-44.5 -66.5t-56 -101t-44 -122t-20 -137.5z" />
    <glyph glyph-name="seven.subs" horiz-adv-x="385" 
d="M186 -197h-94q0 69 19.5 141.5t46.5 126.5t54.5 97.5t47.5 66.5l19 23l-262 -3v70h353v-70q-7 -9 -19.5 -25t-44.5 -66.5t-56 -101t-44 -122t-20 -137.5z" />
    <glyph glyph-name="seven.tf" horiz-adv-x="676" 
d="M307 0h-103q0 93 26 189.5t63 168.5t73.5 130t62.5 88l26 31h-362v91h475v-91q-11 -12 -28.5 -33t-62.5 -88t-79.5 -135t-62.5 -165t-28 -186z" />
    <glyph glyph-name="six.dnom" horiz-adv-x="491" 
d="M267 343q174 0 174 -175q0 -176 -194 -177q-108 -1 -153 57.5t-45 184.5q0 166 45 234.5t153 68.5q94 0 135 -44.5t41 -104.5h-82q0 33 -23 58.5t-71 25.5q-52 0 -78 -38.5t-32 -140.5q51 51 130 51zM247 56q107 0 107 107q0 112 -102 112q-77 0 -116 -64
q3 -83 29.5 -119t81.5 -36z" />
    <glyph glyph-name="six.numr" horiz-adv-x="491" 
d="M267 574q174 0 174 -175q0 -176 -194 -177q-108 -1 -153 57.5t-45 184.5q0 166 45 234.5t153 68.5q94 0 135 -44.5t41 -104.5h-82q0 33 -23 58.5t-71 25.5q-52 0 -78 -38.5t-32 -140.5q51 51 130 51zM247 287q107 0 107 107q0 112 -102 112q-77 0 -116 -64
q3 -83 29.5 -119t81.5 -36z" />
    <glyph glyph-name="six.subs" horiz-adv-x="491" 
d="M267 146q174 0 174 -175q0 -176 -194 -177q-108 -1 -153 57.5t-45 184.5q0 166 45 234.5t153 68.5q94 0 135 -44.5t41 -104.5h-82q0 33 -23 58.5t-71 25.5q-52 0 -78 -38.5t-32 -140.5q51 51 130 51zM247 -141q107 0 107 107q0 112 -102 112q-77 0 -116 -64
q3 -83 29.5 -119t81.5 -36z" />
    <glyph glyph-name="six.tf" horiz-adv-x="676" 
d="M369 466q63 0 108 -19.5t70 -54.5t36.5 -76.5t11.5 -91.5q0 -107 -61.5 -171t-194.5 -64q-137 -1 -197 78.5t-60 245.5q0 218 60.5 312.5t196.5 94.5q64 0 111 -18t72.5 -48t37.5 -63t12 -69h-106q0 40 -32.5 73.5t-94.5 33.5q-69 0 -104 -49t-44 -182q70 68 178 68z
M339 80q74 0 112.5 37t38.5 107q0 71 -34.5 111t-106.5 40q-106 0 -162 -81q3 -117 40.5 -165.5t111.5 -48.5z" />
    <glyph glyph-name="three.dnom" horiz-adv-x="446" 
d="M394 458l-142 -125q152 -21 152 -169q0 -79 -45 -126t-144 -47q-96 0 -141 45.5t-45 117.5h85q0 -38 26 -65.5t74 -27.5q53 0 79.5 28.5t26.5 78.5q0 52 -29.5 81.5t-87.5 29.5l-63 -5v55l152 127l-240 -6v70h342v-62z" />
    <glyph glyph-name="three.numr" horiz-adv-x="446" 
d="M394 689l-142 -125q152 -21 152 -169q0 -79 -45 -126t-144 -47q-96 0 -141 45.5t-45 117.5h85q0 -38 26 -65.5t74 -27.5q53 0 79.5 28.5t26.5 78.5q0 52 -29.5 81.5t-87.5 29.5l-63 -5v55l152 127l-240 -6v70h342v-62z" />
    <glyph glyph-name="three.subs" horiz-adv-x="446" 
d="M394 261l-142 -125q152 -21 152 -169q0 -79 -45 -126t-144 -47q-96 0 -141 45.5t-45 117.5h85q0 -38 26 -65.5t74 -27.5q53 0 79.5 28.5t26.5 78.5q0 52 -29.5 81.5t-87.5 29.5l-63 -5v55l152 127l-240 -6v70h342v-62z" />
    <glyph glyph-name="three.tf" horiz-adv-x="676" 
d="M551 615l-210 -159q112 -10 170.5 -68.5t58.5 -162.5q0 -114 -63.5 -173.5t-189.5 -59.5q-115 0 -177 59t-62 155h96q0 -49 36.5 -86t106.5 -37q75 0 111.5 38.5t36.5 103.5t-40.5 103.5t-127.5 38.5q-18 0 -39.5 -2t-33.5 -4l-13 -2v89l210 165l-312 -5v88h442v-81z" />
    <glyph glyph-name="tildecomb.case" 
d="M-116 889h54q0 -61 -19 -93t-69 -32q-31 0 -59.5 20t-46.5 20q-26 0 -37 -15t-11 -29h-52q0 121 90 121q31 0 58 -17.5t45 -17.5t29.5 8.5t14.5 17.5t3 17z" />
    <glyph glyph-name="two.dnom" horiz-adv-x="442" 
d="M37 2v71q80 61 151 124q73 66 93 94q28 40 28 80q0 44 -24 68t-69 24q-46 0 -70.5 -25.5t-24.5 -73.5h-86q0 171 181 171q177 0 177 -158q0 -42 -19 -81t-39 -62t-60 -61q-27 -26 -56.5 -52t-45.5 -39l-16 -14l237 5v-71h-357z" />
    <glyph glyph-name="two.numr" horiz-adv-x="442" 
d="M37 233v71q80 61 151 124q73 66 93 94q28 40 28 80q0 44 -24 68t-69 24q-46 0 -70.5 -25.5t-24.5 -73.5h-86q0 171 181 171q177 0 177 -158q0 -42 -19 -81t-39 -62t-60 -61q-27 -26 -56.5 -52t-45.5 -40l-16 -13l237 5v-71h-357z" />
    <glyph glyph-name="two.subs" horiz-adv-x="442" 
d="M37 -195v71q80 61 151 124q73 66 93 94q28 40 28 80q0 44 -24 68t-69 24q-46 0 -70.5 -25.5t-24.5 -73.5h-86q0 171 181 171q177 0 177 -158q0 -42 -19 -81t-39 -62t-60 -61q-27 -26 -56.5 -52t-45.5 -40l-16 -13l237 5v-71h-357z" />
    <glyph glyph-name="two.tf" horiz-adv-x="676" 
d="M100 2v92l28 23q27 23 77 67t94 86q88 83 111 111q51 63 51 125q0 124 -126 124q-133 0 -133 -126h-104q0 217 237 217q229 0 229 -214q0 -55 -24 -107t-51 -83.5t-79 -83.5q-38 -38 -81.5 -74.5t-68.5 -54.5l-24 -17l326 3v-88h-462z" />
    <glyph glyph-name="uni0302.case" 
d="M-47 760h-90l-62 64l-62 -64h-91l104 130h97z" />
    <glyph glyph-name="uni0304.case" 
d="M-321 861h261v-78h-261v78z" />
    <glyph glyph-name="uni0306.case" 
d="M-105 885h77q0 -52 -37 -88.5t-106 -36.5t-106 36.5t-37 88.5h78q0 -20 18 -36.5t47 -16.5t47.5 16.5t18.5 36.5z" />
    <glyph glyph-name="uni0307.case" 
d="M-169 760v134h100v-134h-100z" />
    <glyph glyph-name="uni0308.case" 
d="M-354 760v134h100v-134h-100zM-183 760v134h100v-134h-100z" />
    <glyph glyph-name="uni030A.case" 
d="M-144 760q-43 0 -66.5 23.5t-23.5 62.5q0 38 24 62t66 24t65.5 -24t23.5 -62q0 -39 -23.5 -62.5t-65.5 -23.5zM-144 810q15 0 24.5 10t9.5 26t-9.5 25.5t-24.5 9.5q-16 0 -25.5 -9.5t-9.5 -25.5t9.5 -26t25.5 -10z" />
    <glyph glyph-name="uni030B.case" 
d="M-408 760l74 145h112l-94 -145h-92zM-249 760l90 145h112l-111 -145h-91z" />
    <glyph glyph-name="uni030C.case" 
d="M-137 890h90l-104 -130h-97l-104 130h90l63 -64z" />
    <glyph glyph-name="uni0338.case" 
d="M-449 13l502 737h91l-503 -737h-90z" />
    <glyph glyph-name="zero.dnom" horiz-adv-x="500" 
d="M250 -9q-112 0 -156.5 64t-44.5 204q0 145 44 210.5t157 65.5q112 0 156.5 -65.5t44.5 -210.5q0 -140 -44.5 -204t-156.5 -64zM250 63q62 0 89 45t27 151q0 110 -26.5 156.5t-89.5 46.5t-89.5 -46.5t-26.5 -156.5q0 -106 27 -151t89 -45z" />
    <glyph glyph-name="zero.numr" horiz-adv-x="500" 
d="M250 222q-112 0 -156.5 64t-44.5 204q0 145 44 210.5t157 65.5q112 0 156.5 -65.5t44.5 -210.5q0 -140 -44.5 -204t-156.5 -64zM250 294q62 0 89 45t27 151q0 110 -26.5 156.5t-89.5 46.5t-89.5 -46.5t-26.5 -156.5q0 -106 27 -151t89 -45z" />
    <glyph glyph-name="zero.subs" horiz-adv-x="500" 
d="M250 -206q-112 0 -156.5 64t-44.5 204q0 145 44 210.5t157 65.5q112 0 156.5 -65.5t44.5 -210.5q0 -140 -44.5 -204t-156.5 -64zM250 -134q62 0 89 45t27 151q0 110 -26.5 156.5t-89.5 46.5t-89.5 -46.5t-26.5 -156.5q0 -106 27 -151t89 -45z" />
    <glyph glyph-name="zero.tf" horiz-adv-x="676" 
d="M338 -11q-149 0 -208.5 85t-59.5 273q0 197 59 284.5t209 87.5t209 -87.5t59 -284.5q0 -188 -59.5 -273t-208.5 -85zM338 80q90 0 127 60t37 207q0 155 -37 218t-127 63t-127 -63t-37 -218q0 -147 37 -207t127 -60z" />
    </font>
</defs>
</svg>
