<svg xmlns="http://www.w3.org/2000/svg">
<defs>
<font id="TofinoPersonal-BoldItalic" horiz-adv-x="0" >
  <font-face 
    font-family="Tofino Personal Bold Italic"
    font-weight="455"
    font-style="italic"
    font-stretch="normal"
    units-per-em="1000"
    panose-1="2 0 0 0 0 0 0 0 0 0"
    ascent="760"
    descent="-240"
    x-height="544"
    cap-height="721"
    bbox="-816 -321 1228.02 1190"
    underline-thickness="50"
    underline-position="-225"
    unicode-range="U+000D-FB04"
  />
<missing-glyph horiz-adv-x="699" 
d="M362 540q8 -13 55 -18q1 -1 4 -1q1 1 1 3l4 9q-42 39 -54 36q-5 -2 -9 -14q-3 -10 -1 -15zM464 495l5 -1q15 0 17 11q2 9 -1 13q-3 5 -12 8q-1 1 -5 1q-14 0 -17 -11q-1 -5 2 -12q4 -8 11 -9zM582 486q4 2 2 16q0 10 -5 15q-12 8 -57 -7q-2 -1 -5 -1q0 -9 -2 -13
q2 -1 3 -1q56 -15 64 -9zM306 239q4 16 -3 25l-2 3h-1q-24 12 -85 12q-22 0 -38.5 -2.5t-22 -5.5t-5.5 -4q-3 -25 6 -50t31 -29q15 -3 38 -3q38 0 54 6q17 11 28 48zM485 188q22 2 30.5 27t6.5 52q-12 12 -67 12q-60 0 -84 -12q-1 0 -1 -2l-3 -1q-7 -8 -2 -25q3 -33 28 -48
q14 -6 52 -6q7 0 40 3zM511 465q77 -80 77 -194q0 -112 -74.5 -191t-178.5 -79t-177.5 79t-73.5 191q0 119 80 197q-27 39 -10 82q16 40 67 66t114 26q65 0 118 -27t70 -70q0 -1 1 -3q52 15 72 -1q18 -13 19 -38q2 -27 -14 -41q-13 -9 -31 -9q-17 0 -59 12zM241 439
q22 -44 102 -78t207 -28q-21 82 -85 132q-7 0 -10 1q-20 7 -28 23h-1q-2 1 -6.5 1.5t-6.5 0.5q-45 6 -62 18q-6 1 -16 1q-47 0 -88 -19q-20 -24 -6 -52zM182 539q-10 -25 5 -50q65 51 144 52q-1 11 3 26q13 28 32 32q29 6 80 -43l3 -2q12 4 19 4q1 0 13 -3q-22 26 -63 41
t-83 15q-52 0 -96 -21t-57 -51zM205 465q-69 -57 -85 -143q37 -1 78 12.5t66 34.5q-36 27 -50 57q-9 20 -9 39zM133 291l10 -9q20 11 72 11q67 0 91 -12q30 -15 59 0q24 12 90 12q54 0 72 -11q10 15 18 21q-10 -1 -31 -1q-133 0 -223 50q-28 -25 -71.5 -42t-86.5 -19z
M335 31q92 0 157 70.5t65 169.5q0 14 -1 21q-10 -9 -20 -23v-1q4 -35 -9 -64t-41 -32q-20 -2 -41 -2q-43 0 -60 9q-27 15 -36 57q-1 3 -1 6q-3 13 -14 13q-8 0 -11 -13q-2 -1 -2 -6q-9 -43 -37 -57q-14 -9 -60 -9q-21 0 -39 2q-28 3 -41.5 32t-9.5 64v1l-19 18v-16

<glyph glyph-name="f_f" unicode="ff" horiz-adv-x="721" 
d="M761 636h-40q-33 0 -52.5 -20.5t-31.5 -78.5v-1h103l-26 -124h-103l-86 -412h-164l86 412h-179l-86 -412h-163l86 412h-73l26 124h73l2 9q10 48 24.5 83t40.5 68t70 50.5t104 17.5h74l-27 -128h-40q-33 0 -53 -21t-32 -78v-1h179l2 9q10 48 24.5 83.5t41 68t70 50
t103.5 17.5h74z" />
    <glyph glyph-name="fi" unicode="fi" horiz-adv-x="655" 
d="M419 636h-40q-33 0 -53 -21t-32 -78v-1h106l-26 -124h-106l-86 -412h-163l86 412h-73l26 124h73l2 9q10 49 24.5 84t40.5 68.5t70 51t104 17.5h75zM493 612l33 152h164l-33 -152h-164zM362 0l114 546h164l-114 -546h-164z" />
    <glyph glyph-name="fl" unicode="fl" horiz-adv-x="677" 
d="M419 636h-40q-33 0 -53 -21t-32 -78v-1h106l-26 -124h-106l-86 -412h-163l86 412h-73l26 124h73l2 9q10 49 24.5 84t40.5 68.5t70 51t104 17.5h75zM376 0l159 760h164l-159 -760h-164z" />
    <glyph glyph-name="f_f_i" unicode="ffi" horiz-adv-x="990" 
d="M706 412h-95l-86 -412h-163l85 412h-179l-86 -412h-163l86 412h-73l26 124h73l2 9q10 48 24.5 83t40.5 68t70 50.5t104 17.5h74l-27 -128h-40q-33 0 -53 -21t-32 -78v-1h179l2 9q10 48 24.5 83t41 68t70.5 50.5t104 17.5h73l-26 -128h-40q-33 0 -53 -21t-32 -78v-1h95z
M861 760h164l-32 -148h-164zM699 0l114 546h164l-114 -546h-164z" />
    <glyph glyph-name="f_f_l" unicode="ffl" horiz-adv-x="1006" 
d="M707 412h-96l-86 -412h-164l86 412h-179l-86 -412h-163l86 412h-73l26 124h73l2 9q10 48 24.5 83t40.5 68t70 50.5t104 17.5h74l-27 -128h-40q-33 0 -53 -21t-32 -78v-1h179l2 9q10 48 24.5 83.5t41 68t70 50t103.5 17.5h74l-27 -128h-40q-33 0 -52.5 -20.5t-31.5 -78.5
v-1h96zM864 760h164l-159 -760h-164z" />
    <glyph glyph-name=".notdef" horiz-adv-x="699" 
d="M362 540q8 -13 55 -18q1 -1 4 -1q1 1 1 3l4 9q-42 39 -54 36q-5 -2 -9 -14q-3 -10 -1 -15zM464 495l5 -1q15 0 17 11q2 9 -1 13q-3 5 -12 8q-1 1 -5 1q-14 0 -17 -11q-1 -5 2 -12q4 -8 11 -9zM582 486q4 2 2 16q0 10 -5 15q-12 8 -57 -7q-2 -1 -5 -1q0 -9 -2 -13
q2 -1 3 -1q56 -15 64 -9zM306 239q4 16 -3 25l-2 3h-1q-24 12 -85 12q-22 0 -38.5 -2.5t-22 -5.5t-5.5 -4q-3 -25 6 -50t31 -29q15 -3 38 -3q38 0 54 6q17 11 28 48zM485 188q22 2 30.5 27t6.5 52q-12 12 -67 12q-60 0 -84 -12q-1 0 -1 -2l-3 -1q-7 -8 -2 -25q3 -33 28 -48
q14 -6 52 -6q7 0 40 3zM511 465q77 -80 77 -194q0 -112 -74.5 -191t-178.5 -79t-177.5 79t-73.5 191q0 119 80 197q-27 39 -10 82q16 40 67 66t114 26q65 0 118 -27t70 -70q0 -1 1 -3q52 15 72 -1q18 -13 19 -38q2 -27 -14 -41q-13 -9 -31 -9q-17 0 -59 12zM241 439
q22 -44 102 -78t207 -28q-21 82 -85 132q-7 0 -10 1q-20 7 -28 23h-1q-2 1 -6.5 1.5t-6.5 0.5q-45 6 -62 18q-6 1 -16 1q-47 0 -88 -19q-20 -24 -6 -52zM182 539q-10 -25 5 -50q65 51 144 52q-1 11 3 26q13 28 32 32q29 6 80 -43l3 -2q12 4 19 4q1 0 13 -3q-22 26 -63 41
t-83 15q-52 0 -96 -21t-57 -51zM205 465q-69 -57 -85 -143q37 -1 78 12.5t66 34.5q-36 27 -50 57q-9 20 -9 39zM133 291l10 -9q20 11 72 11q67 0 91 -12q30 -15 59 0q24 12 90 12q54 0 72 -11q10 15 18 21q-10 -1 -31 -1q-133 0 -223 50q-28 -25 -71.5 -42t-86.5 -19z
M335 31q92 0 157 70.5t65 169.5q0 14 -1 21q-10 -9 -20 -23v-1q4 -35 -9 -64t-41 -32q-20 -2 -41 -2q-43 0 -60 9q-27 15 -36 57q-1 3 -1 6q-3 13 -14 13q-8 0 -11 -13q-2 -1 -2 -6q-9 -43 -37 -57q-14 -9 -60 -9q-21 0 -39 2q-28 3 -41.5 32t-9.5 64v1l-19 18v-16
q0 -99 64.5 -169.5t155.5 -70.5zM403 106q0 -20 -20 -33.5t-49 -13.5t-49 13.5t-20 33.5q0 19 20.5 32.5t48.5 13.5t48.5 -13.5t20.5 -32.5zM249 269l-4 -18q14 -8 14 -26q0 -13 -9 -22t-22 -9q-12 0 -21.5 9t-9.5 22q0 6 2 10l-14 11q-4 3 0 7q2 2 6 0l12 -11l3 6l-7 14
q-2 1 -1.5 3t2.5 3q4 2 6 -3l8 -12q0 1 2 1t3 1l-2 16q0 5 5 5q3 0 5 -4l1 -16q2 0 4.5 -0.5t3.5 -0.5l4 17q2 4 6 4q4 -3 3 -7zM491 253q1 -4 -1 -7l-13 -13q0 -1 0.5 -3.5t0.5 -4.5q0 -13 -9.5 -22t-22.5 -9q-12 0 -21 9t-9 22q0 18 15 26l-5 18q0 4 4 7q5 0 5 -4l4 -17
q2 1 7 1l3 16q0 4 5 4q4 0 4 -5l-3 -16l7 -2l7 12q3 5 5 3q2 -1 3 -3t0 -3l-9 -14q4 -3 4 -6l13 11q1 1 3 1t3 -1z" />
    <glyph glyph-name=".null" 
 />
    <glyph glyph-name="nonmarkingreturn" horiz-adv-x="333" 
 />
    <glyph glyph-name="NULL" 
 />
    <glyph glyph-name="NULL" 
 />
    <glyph glyph-name="CR" unicode="&#xd;" horiz-adv-x="208" 
 />
    <glyph glyph-name="space" unicode=" " horiz-adv-x="208" 
 />
    <glyph glyph-name="exclam" unicode="!" horiz-adv-x="288" 
d="M49 194l97 527h164l-122 -527h-139zM-4 0l30 139h163l-30 -139h-163z" />
    <glyph glyph-name="quotedbl" unicode="&#x22;" horiz-adv-x="457" 
d="M78 494l35 257h174l-73 -257h-136zM307 494l36 257h173l-71 -257h-138z" />
    <glyph glyph-name="numbersign" unicode="#" horiz-adv-x="808" 
d="M738 437h-112l-59 -146h95l-24 -114h-117l-71 -177h-142l72 177h-94l-72 -177h-141l72 177h-92l24 114h114l59 146h-97l24 114h119l61 151h141l-61 -151h94l61 151h141l-61 -151h90zM426 291l59 146h-94l-59 -146h94z" />
    <glyph glyph-name="dollar" unicode="$" horiz-adv-x="574" 
d="M561 499h-150q8 37 -11.5 61t-59.5 24q-91 0 -102 -65q-6 -28 8.5 -45.5t43 -26.5t63 -16.5t68.5 -20t60.5 -31.5t37.5 -56.5t0 -89.5q-20 -92 -78.5 -140.5t-172.5 -56.5l-7 -60h-104l19 60q-103 8 -144.5 62.5t-18.5 161.5h151q-10 -52 8.5 -75t68.5 -23q101 0 112 65
q6 29 -8.5 46.5t-42.5 25t-62.5 16t-68 18.5t-59.5 33t-36 59.5t2 97.5q18 85 75 132.5t166 55.5l7 56h103l-18 -57q192 -21 150 -211z" />
    <glyph glyph-name="percent" unicode="%" horiz-adv-x="849" 
d="M174 349q-181 0 -143 183q20 96 68.5 141.5t152.5 45.5q179 0 141 -187q-20 -95 -67.5 -139t-151.5 -44zM194 443q37 0 53.5 20.5t26.5 68.5q11 46 2 69.5t-45 23.5q-35 0 -53.5 -22.5t-27.5 -70.5q-11 -45 -1.5 -67t45.5 -22zM35 0l598 702h143l-598 -702h-143zM555 -18
q-181 0 -142 183q19 96 67.5 141.5t152.5 45.5q180 0 141 -187q-20 -95 -67.5 -139t-151.5 -44zM575 76q36 0 53.5 20.5t27.5 68.5q11 46 2 69.5t-45 23.5q-35 0 -54 -22.5t-28 -70.5q-11 -45 -1 -67t45 -22z" />
    <glyph glyph-name="ampersand" unicode="&#x26;" horiz-adv-x="769" 
d="M686 -2h-188l-33 40q-88 -58 -213 -58q-124 0 -178.5 59.5t-32.5 168.5q29 142 157 205q-30 61 -15 131q19 91 79 141t187 50q114 0 154 -60t18 -164h-163q20 87 -37 87q-58 0 -69 -58q-3 -13 -3 -26.5t3 -26.5t7 -25t12 -26t15 -26t18.5 -28.5t21 -29.5t24 -32.5
t25.5 -34.5l11 -15q23 50 36 115h139q-30 -144 -88 -235zM292 117q48 0 90 27q-41 54 -89 123q-24 35 -31 44q-46 -37 -58 -93q-10 -45 7 -73t81 -28z" />
    <glyph glyph-name="quotesingle" unicode="'" horiz-adv-x="213" 
d="M70 494l35 257h174l-73 -257h-136z" />
    <glyph glyph-name="parenleft" unicode="(" horiz-adv-x="386" 
d="M266 760h159q-6 -8 -16 -22.5t-37.5 -63.5t-51.5 -101t-51.5 -131.5t-44.5 -158.5q-25 -143 -20.5 -249t23.5 -167l19 -61h-160q-3 7 -8.5 21.5t-16 62t-15.5 99t-1.5 132t20.5 162.5q27 131 77.5 250t87.5 173z" />
    <glyph glyph-name="parenright" unicode=")" horiz-adv-x="386" 
d="M137 760h159q3 -7 7 -21.5t11.5 -62t10 -99t-3 -132t-22.5 -162.5t-46 -161.5t-58.5 -134t-56.5 -97.5t-44 -64l-17 -20h-159q7 8 18 22.5t42 63.5t58 101t56.5 131.5t46.5 158.5q26 143 25.5 249t-14.5 167z" />
    <glyph glyph-name="asterisk" unicode="*" horiz-adv-x="484" 
d="M53 546l55 124l94 -41l8 100h126l-33 -100l111 41l2 -124l-108 -9l66 -83l-124 -74l-31 91l-71 -91l-91 74l101 83z" />
    <glyph glyph-name="plus" unicode="+" horiz-adv-x="516" 
d="M481 396l-26 -121h-145l-32 -151h-132l32 151h-146l27 121h145l32 150h131l-32 -150h146z" />
    <glyph glyph-name="comma" unicode="," horiz-adv-x="328" 
d="M59 -147h-132q47 72 84 159q16 40 27 72.5t14 45.5l3 12h160q-14 -52 -58 -142q-22 -44 -46.5 -80.5t-38.5 -51.5z" />
    <glyph glyph-name="hyphen" unicode="-" horiz-adv-x="427" 
d="M63 257l26 124h267l-26 -124h-267z" />
    <glyph glyph-name="period" unicode="." horiz-adv-x="314" 
d="M4 0l31 142h164l-31 -142h-164z" />
    <glyph glyph-name="slash" unicode="/" horiz-adv-x="537" 
d="M-29 -40l478 840h157l-479 -840h-156z" />
    <glyph glyph-name="zero" unicode="0" horiz-adv-x="671" 
d="M262 -13q-153 0 -200.5 87t-9.5 272q22 104 47 170t66 116t101.5 72t148.5 22q154 0 200.5 -90.5t5.5 -289.5q-20 -96 -44 -158.5t-65 -110.5t-101.5 -69t-148.5 -21zM293 135q60 0 96 48.5t59 162.5q29 130 17 181t-81 51q-59 0 -95.5 -52t-63.5 -180
q-26 -116 -13 -163.5t81 -47.5z" />
    <glyph glyph-name="one" unicode="1" horiz-adv-x="376" 
d="M256 718h125l-150 -718h-170l115 555l-143 -61l31 144z" />
    <glyph glyph-name="two" unicode="2" horiz-adv-x="577" 
d="M-40 0l29 139l33 21q32 21 87.5 59.5t101.5 73.5q10 7 41.5 31t43.5 33.5t36 30.5t34.5 34.5t21.5 32t15 36.5q18 91 -65 91q-87 0 -110 -103h-174q27 129 99 189t217 60q123 0 175.5 -59.5t29.5 -172.5q-9 -40 -28.5 -77.5t-51 -72t-53.5 -55t-59 -51.5
q-35 -28 -74 -54.5t-61 -39.5l-21 -12l262 8l-30 -142h-499z" />
    <glyph glyph-name="three" unicode="3" horiz-adv-x="577" 
d="M598 701l-26 -128l-174 -128q154 -48 119 -217q-25 -116 -99.5 -176.5t-219.5 -60.5q-122 0 -176.5 65.5t-31.5 174.5h164q-8 -36 8 -65.5t65 -29.5q51 0 80 27.5t37 68.5q9 46 -13 73.5t-93 27.5l-86 -7l26 128l164 112l-261 -7l31 142h486z" />
    <glyph glyph-name="four" unicode="4" horiz-adv-x="629" 
d="M600 701l-92 -444h81l-29 -140h-82l-24 -117h-170l25 117h-325l29 140l410 444h177zM184 257h156l49 228z" />
    <glyph glyph-name="five" unicode="5" horiz-adv-x="593" 
d="M572 562l-277 3l-40 -116q50 25 116 25q104 0 149.5 -66t22.5 -178q-25 -119 -98 -179t-223 -60q-123 0 -177.5 61t-36.5 153h165q-4 -6 -1 -18.5t8.5 -25t24 -21.5t47.5 -9q47 0 78.5 29t39.5 70q21 108 -76 108q-28 0 -52 -13t-34 -26l-10 -13l-161 2l95 278l48 135
h422z" />
    <glyph glyph-name="six" unicode="6" horiz-adv-x="644" 
d="M618 514h-170q5 27 -9.5 49.5t-59.5 22.5q-39 0 -69.5 -33t-59.5 -123q68 36 146 36q59 0 100.5 -21.5t60 -56t24.5 -77.5t-5 -87q-48 -236 -322 -237q-138 -1 -190 83t-18 247q47 226 125.5 317.5t236.5 91.5q122 0 174.5 -63.5t35.5 -148.5zM403 226q10 48 -6.5 77
t-63.5 29q-67 0 -118 -44q-16 -92 -1 -126t70 -34q44 0 77 27.5t42 70.5z" />
    <glyph glyph-name="seven" unicode="7" horiz-adv-x="528" 
d="M216 0h-187q17 84 58 172.5t87 155t89.5 120.5t72.5 82l28 29l-310 -2l32 144h501l-31 -144q-11 -11 -30.5 -31.5t-71.5 -84t-94.5 -126t-85 -150t-58.5 -165.5z" />
    <glyph glyph-name="eight" unicode="8" horiz-adv-x="646" 
d="M19 208q16 79 68.5 127.5t83.5 52.5q-8 1 -19.5 9.5t-25.5 25.5t-19 42.5t1 62.5q14 63 42 104.5t92 68.5t164 27q124 0 178.5 -55t35.5 -145q-13 -62 -55 -99t-67 -41q11 -1 26.5 -12t31.5 -33.5t22 -55.5t-2 -79q-11 -54 -31 -91.5t-56 -68t-95 -45t-142 -14.5
q-141 0 -198 57.5t-35 161.5zM197 222q-9 -46 8 -70t76 -24q50 0 81.5 25.5t40.5 68.5q10 47 -7 72t-76 25q-50 0 -82 -26.5t-41 -70.5zM275 513q-15 -74 71 -74q85 0 100 74q18 83 -68 83q-85 0 -103 -83z" />
    <glyph glyph-name="nine" unicode="9" horiz-adv-x="644" 
d="M397 726q135 1 189 -83.5t20 -246.5q-48 -229 -124 -319t-240 -90q-56 0 -99 13t-67 34.5t-39.5 49t-16 57t3.5 58.5h170q-1 -15 -1 -31t20 -28.5t58 -12.5q42 0 71.5 29t55.5 111q-66 -38 -145 -38q-110 0 -155.5 74t-24.5 178q50 244 324 245zM247 479q-11 -56 3 -86
t66 -30q65 0 117 43q20 103 5.5 141t-70.5 38q-44 0 -77.5 -29t-43.5 -77z" />
    <glyph glyph-name="colon" unicode=":" horiz-adv-x="314" 
d="M80 358l28 142h164l-28 -142h-164zM4 0l31 144h164l-31 -144h-164z" />
    <glyph glyph-name="semicolon" unicode=";" horiz-adv-x="336" 
d="M101 358l29 139h164l-29 -139h-164zM54 -147h-132q48 71 84 159q16 40 27.5 72.5t14.5 45.5l3 12h159q-12 -52 -58 -142q-22 -44 -46.5 -80.5t-37.5 -51.5z" />
    <glyph glyph-name="less" unicode="&#x3c;" horiz-adv-x="592" 
d="M552 532l-30 -138l-330 -75l298 -76l-29 -139l-419 146l29 137z" />
    <glyph glyph-name="equal" unicode="=" horiz-adv-x="580" 
d="M69 349l26 124h444l-26 -124h-444zM27 157l27 124h445l-27 -124h-445z" />
    <glyph glyph-name="greater" unicode="&#x3e;" horiz-adv-x="576" 
d="M112 532l419 -145l-29 -137l-481 -146l29 139l330 75l-298 76z" />
    <glyph glyph-name="question" unicode="?" horiz-adv-x="571" 
d="M314 190h-151l3 16q11 52 34.5 93.5t50.5 68t54 49.5t47.5 51t27.5 60q17 83 -54 83q-43 0 -64 -30t-33 -93h-163q28 139 94 203t199 64q118 0 164 -57.5t27 -149.5q-11 -53 -36 -95t-54 -69.5t-57.5 -52.5t-52 -56.5t-32.5 -68.5zM117 0l28 136h164l-28 -136h-164z" />
    <glyph glyph-name="at" unicode="@" horiz-adv-x="901" 
d="M520 696q195 0 272.5 -115t38.5 -302q-28 -136 -79.5 -200t-149.5 -64h-1q-85 0 -111 77q-55 -52 -153 -52q-82 0 -115 61.5t-9 175.5q25 117 79 177t144 60q71 0 111 -53l24 52h115l-64 -308q-20 -98 22 -98q15 0 27 9.5t29 50t32 112.5q17 68 11.5 127.5t-29.5 104
t-78 70t-135 25.5q-80 0 -143.5 -25t-106.5 -71t-70 -103t-42 -128q-12 -56 -14 -101t9 -88t37.5 -72t75.5 -46.5t119 -17.5q140 0 211 32l-20 -94q-79 -28 -211 -28q-134 0 -215 54t-101 146t3 215q88 417 487 417zM394 144q61 0 92 48q0 5 2 13l32 155q-18 49 -72 49
q-33 0 -59 -34t-38 -98q-13 -67 -1.5 -100t44.5 -33z" />
    <glyph glyph-name="A" unicode="A" horiz-adv-x="673" 
d="M434 0l-12 137h-240l-71 -137h-179l412 721h161l108 -721h-179zM255 277h156l-22 259z" />
    <glyph glyph-name="B" unicode="B" horiz-adv-x="685" 
d="M649 528q-13 -61 -42 -99t-87 -59q65 -20 82.5 -61.5t3.5 -108.5q-11 -54 -28.5 -87.5t-56 -61.5t-107 -40.5t-173.5 -12.5h-237l150 724h243q86 0 141.5 -13t81.5 -37.5t33 -61t-4 -82.5zM364 590h-65l-34 -162h67q77 0 107 18t39 63t-14 63t-100 18zM439 218
q10 50 -15.5 69.5t-117.5 19.5h-66l-37 -177h67q91 0 125 19.5t44 68.5z" />
    <glyph glyph-name="C" unicode="C" horiz-adv-x="682" 
d="M278 -20q-148 0 -206 91t-17 288q43 204 130 292.5t251 88.5q131 0 192 -71t30 -222h-168q13 83 -5.5 114t-79.5 31q-66 0 -107 -51.5t-68 -181.5q-27 -133 -11 -181.5t90 -48.5q53 0 89 32.5t56 114.5h168q-35 -159 -116.5 -227.5t-227.5 -68.5z" />
    <glyph glyph-name="D" unicode="D" horiz-adv-x="705" 
d="M154 722h215q206 0 267.5 -80.5t19.5 -282.5q-22 -106 -48.5 -169.5t-75.5 -109.5t-123.5 -64t-190.5 -18h-214zM483 359q11 53 15 87.5t-1 59.5t-14 38.5t-34 21t-51 9.5t-73 2h-29l-89 -430h29q63 0 97.5 5.5t66 27t50 64t33.5 115.5z" />
    <glyph glyph-name="E" unicode="E" horiz-adv-x="607" 
d="M615 575h-320l-29 -139h272l-30 -137h-271l-32 -153h328l-31 -146h-498l150 721h491z" />
    <glyph glyph-name="F" unicode="F" horiz-adv-x="554" 
d="M593 574h-298l-33 -162h249l-30 -140h-248l-57 -272h-172l150 721h470z" />
    <glyph glyph-name="G" unicode="G" horiz-adv-x="692" 
d="M661 466h-165q12 69 -8.5 98.5t-81.5 29.5q-65 0 -106.5 -52.5t-69.5 -182.5q-28 -134 -8.5 -184.5t100.5 -50.5q47 0 82.5 17.5t38.5 31.5l16 72h-105l27 127h260l-57 -275q-1 -7 -12 -19.5t-36 -29.5t-58.5 -32t-86 -25.5t-112.5 -10.5q-150 -1 -207.5 89t-15.5 290
q44 207 130.5 294t250.5 87q137 0 194.5 -69t29.5 -205z" />
    <glyph glyph-name="H" unicode="H" horiz-adv-x="719" 
d="M552 721h172l-151 -721h-171l60 287h-226l-60 -287h-172l150 721h172l-57 -276h226z" />
    <glyph glyph-name="I" unicode="I" horiz-adv-x="321" 
d="M4 0l150 721h172l-150 -721h-172z" />
    <glyph glyph-name="J" unicode="J" horiz-adv-x="469" 
d="M19 0h-73l33 156h73q61 0 89.5 12t48.5 50.5t38 126.5l78 376h172l-77 -376q-13 -62 -23 -101t-25.5 -80t-33.5 -64t-44.5 -45t-62.5 -32.5t-83 -16.5t-110 -6z" />
    <glyph glyph-name="K" unicode="K" horiz-adv-x="685" 
d="M747 721l-320 -324l187 -397h-190l-120 272l-90 -91l-38 -181h-172l150 721h172l-63 -304l272 304h212z" />
    <glyph glyph-name="L" unicode="L" horiz-adv-x="511" 
d="M208 155h247l-34 -155h-417l150 721h172z" />
    <glyph glyph-name="M" unicode="M" horiz-adv-x="922" 
d="M927 721l-153 -721h-156l114 509l-276 -511h-157l-49 494l-97 -492h-149l150 721h227l44 -499l258 499h244z" />
    <glyph glyph-name="N" unicode="N" horiz-adv-x="735" 
d="M583 721h157l-151 -721h-180l-155 464l-97 -464h-153l150 721h181l159 -474z" />
    <glyph glyph-name="O" unicode="O" horiz-adv-x="711" 
d="M281 -20q-306 0 -226 379q43 205 130.5 293t254.5 88q304 0 224 -381q-43 -204 -130 -291.5t-253 -87.5zM312 129q68 0 109.5 51t68.5 179q28 133 11 183t-93 50q-68 0 -110.5 -52t-68.5 -181q-27 -131 -10 -180.5t93 -49.5z" />
    <glyph glyph-name="P" unicode="P" horiz-adv-x="678" 
d="M154 722h244q56 0 97.5 -4.5t78 -16t58 -30t36.5 -47t14 -67.5t-9 -90q-13 -64 -31 -105.5t-45 -71.5t-71 -45.5t-99.5 -22t-139.5 -6.5h-67l-45 -216h-171zM502 470q15 72 -15 91t-124 19h-67l-45 -217h67q95 -1 132 17t52 90z" />
    <glyph glyph-name="Q" unicode="Q" horiz-adv-x="708" 
d="M664 359q-50 -234 -159 -317l99 -94l-110 -101l-121 140q-39 -7 -92 -7q-306 0 -226 379q43 205 130.5 293t254.5 88q304 0 224 -381zM490 359q28 133 11 183t-93 50q-68 0 -110.5 -52t-68.5 -181q-27 -131 -10 -180.5t93 -49.5q68 0 109.5 51t68.5 179z" />
    <glyph glyph-name="R" unicode="R" horiz-adv-x="690" 
d="M671 475q-18 -90 -50.5 -140t-99.5 -74l79 -261h-183l-57 234q-21 -1 -67 -1h-67l-49 -233h-173l150 721h245q170 0 233.5 -56.5t38.5 -189.5zM256 375h67q36 0 56.5 1.5t43.5 6.5t35.5 16t23 30t16.5 48q14 69 -13.5 86t-120.5 17h-66z" />
    <glyph glyph-name="S" unicode="S" horiz-adv-x="646" 
d="M13 233h165q-23 -111 94 -111q114 0 133 75q9 33 -7 53.5t-48 29t-72 18.5t-78.5 21.5t-69 37t-43 66.5t0.5 109q21 102 95.5 155.5t221.5 53.5q135 0 194 -60t34 -177h-162q10 45 -11.5 71.5t-76.5 26.5q-102 0 -123 -76q-9 -32 7.5 -53t48.5 -32t72.5 -19.5t80.5 -22.5
t71 -35.5t45 -62t2 -98.5q-23 -114 -101 -168.5t-239 -54.5q-134 0 -197.5 61.5t-36.5 191.5z" />
    <glyph glyph-name="T" unicode="T" horiz-adv-x="559" 
d="M622 721l-33 -156h-177l-119 -565h-172l118 565h-176l32 156h527z" />
    <glyph glyph-name="U" unicode="U" horiz-adv-x="708" 
d="M278 -20q-143 0 -195.5 84t-12.5 274l80 383h172l-79 -379q-26 -130 -12.5 -170.5t78.5 -40.5q58 0 93 44t61 167l79 379h175l-80 -383q-41 -198 -118.5 -278t-240.5 -80z" />
    <glyph glyph-name="V" unicode="V" horiz-adv-x="641" 
d="M529 721h191l-405 -721h-153l-103 721h184l41 -491z" />
    <glyph glyph-name="W" unicode="W" horiz-adv-x="987" 
d="M878 721h188l-369 -721h-162l-26 472l-224 -472h-155l-65 721h179l12 -481l216 481h167l22 -491z" />
    <glyph glyph-name="X" unicode="X" horiz-adv-x="679" 
d="M751 721l-307 -371l165 -350h-191l-104 220l-186 -220h-203l318 370l-166 351h191l103 -217l178 217h202z" />
    <glyph glyph-name="Y" unicode="Y" horiz-adv-x="639" 
d="M718 721l-343 -476l-50 -245h-171l51 247l-151 474h184l80 -318l206 318h194z" />
    <glyph glyph-name="Z" unicode="Z" horiz-adv-x="602" 
d="M633 654h1l-10 -46l-7 -33l-7 -30l-421 -398l342 3l-31 -148h-543l14 65h-1l10 46l7 33l7 30l420 397l-324 -2l32 148h525z" />
    <glyph glyph-name="bracketleft" unicode="[" horiz-adv-x="448" 
d="M477 620h-163l-142 -680h164l-30 -140h-320l200 960h320z" />
    <glyph glyph-name="backslash" unicode="\" horiz-adv-x="468" 
d="M341 -40h-153l-129 840h154z" />
    <glyph glyph-name="bracketright" unicode="]" horiz-adv-x="447" 
d="M437 760l-200 -960h-320l30 140h162l142 680h-164l30 140h320z" />
    <glyph glyph-name="asciicircum" unicode="^" horiz-adv-x="461" 
d="M425 460h-124l-28 141l-87 -141h-129l185 286h117z" />
    <glyph glyph-name="underscore" unicode="_" horiz-adv-x="583" 
d="M9 0l27 123h423l-27 -123h-423z" />
    <glyph glyph-name="grave" unicode="`" horiz-adv-x="600" 
d="M357 611h-141l-78 175h169z" />
    <glyph glyph-name="a" unicode="a" horiz-adv-x="604" 
d="M336 558q108 0 157.5 -36t50 -100t-16.5 -152l-26 -121l-23 -148h-136l-3 52q-61 -66 -177 -66q-92 0 -134.5 42.5t-25.5 129.5q8 36 22.5 63t30.5 45t45 30.5t52.5 19t66 9.5t72.5 3.5t84 0.5q16 60 5.5 87t-60.5 27q-45 0 -70.5 -22t-31.5 -50h-146q5 27 10.5 45
t24 47.5t44 47.5t73.5 32t112 14zM223 92q76 0 116 67l16 77q-99 0 -141 -14.5t-53 -65.5q-6 -29 9 -46.5t53 -17.5z" />
    <glyph glyph-name="b" unicode="b" horiz-adv-x="649" 
d="M432 558q107 0 146.5 -72.5t10.5 -212.5q-29 -145 -93.5 -215t-181.5 -70q-113 0 -154 76l-28 -64h-136l39 156l125 604h165l-56 -268q75 66 163 66zM422 273q17 80 3.5 119t-60.5 39q-73 0 -124 -76l-34 -163q8 -77 92 -77q47 0 76.5 38.5t46.5 119.5z" />
    <glyph glyph-name="c" unicode="c" horiz-adv-x="599" 
d="M235 -16q-133 0 -183.5 74.5t-20.5 214.5q15 73 36.5 122.5t58 89t93.5 58t137 18.5q117 0 169 -59t34 -169h-160q8 53 -7.5 77t-62.5 24q-50 0 -82 -38t-50 -123q-19 -88 -6 -124.5t72 -36.5q36 0 66 22.5t41 64.5h162q-30 -110 -95.5 -162.5t-201.5 -52.5z" />
    <glyph glyph-name="d" unicode="d" horiz-adv-x="643" 
d="M501 760h164l-126 -604l-27 -156h-136l-1 59q-69 -71 -185 -71q-107 0 -147 72.5t-11 212.5q29 143 95.5 214t181.5 71q88 0 138 -57zM257 115q87 0 126 80l33 158q-19 78 -93 78q-48 0 -77.5 -38.5t-46.5 -119.5t-3.5 -119.5t61.5 -38.5z" />
    <glyph glyph-name="e" unicode="e" horiz-adv-x="613" 
d="M549 237h-359q-13 -75 1 -105t66 -30q44 0 74 23.5t39 53.5h165q-8 -39 -27 -71t-52.5 -61.5t-90.5 -46t-132 -16.5q-132 0 -182 74t-20 213q15 73 36.5 123.5t58 90t93 58.5t135.5 19q263 0 195 -325zM330 448q-79 0 -116 -110h190q5 60 -11.5 85t-62.5 25z" />
    <glyph glyph-name="f" unicode="f" horiz-adv-x="380" 
d="M419 636h-40q-33 0 -53 -21t-32 -78v-1h106l-26 -124h-106l-86 -412h-163l86 412h-73l26 124h73l2 9q10 49 24.5 84t40.5 68.5t70 51t104 17.5h75z" />
    <glyph glyph-name="g" unicode="g" horiz-adv-x="649" 
d="M489 546h136l-40 -165l-80 -383q-17 -83 -33 -114q-63 -124 -285 -124q-66 0 -110.5 19.5t-61 47t-23 55t-4.5 46.5l3 20h151q-6 -40 14 -56t63 -16q64 0 86.5 27.5t35.5 92.5l9 43q-63 -50 -162 -50q-107 0 -147 72.5t-11 211.5q30 143 96 214t180 71q60 0 97 -28.5
t53 -60.5zM255 116q89 0 128 83l31 152q-19 80 -94 80q-91 0 -123 -158q-17 -81 -3 -119t61 -38z" />
    <glyph glyph-name="h" unicode="h" horiz-adv-x="647" 
d="M438 561q97 0 132 -53.5t8 -180.5l-70 -327h-164l67 311q5 22 7.5 34.5t2 28.5t-5.5 24.5t-18 14.5t-33 6q-74 0 -136 -94l-68 -325h-164l159 760h164l-57 -272q73 73 176 73z" />
    <glyph glyph-name="i" unicode="i" horiz-adv-x="275" 
d="M113 612l33 152h164l-33 -152h-164zM-18 0l114 546h164l-114 -546h-164z" />
    <glyph glyph-name="j" unicode="j" horiz-adv-x="308" 
d="M128 612l33 152h164l-33 -152h-164zM-161 -229l30 138q42 0 67 6.5t40 28t22 43.5t17 72l101 487h164l-101 -487q-14 -70 -28 -112t-37.5 -80t-58.5 -56.5t-87.5 -29t-128.5 -10.5z" />
    <glyph glyph-name="k" unicode="k" horiz-adv-x="585" 
d="M611 546l-246 -230l155 -316h-174l-94 210l-60 -56l-32 -154h-164l159 760h164l-85 -409l182 195h195z" />
    <glyph glyph-name="l" unicode="l" horiz-adv-x="297" 
d="M-4 0l159 760h164l-159 -760h-164z" />
    <glyph glyph-name="m" unicode="m" horiz-adv-x="953" 
d="M755 561q92 0 123.5 -53t5.5 -181l-69 -327h-159l66 311q14 45 7 76.5t-48 31.5q-66 0 -118 -72l-4 -20l-69 -327h-153l66 311q5 27 7 43t-0.5 33t-14.5 24.5t-34 7.5q-72 0 -126 -83l-70 -336h-164l83 394l25 152h136l1 -79q16 19 38 37.5t64.5 37.5t86.5 19
q60 0 92.5 -21.5t41.5 -69.5q28 33 76.5 62t109.5 29z" />
    <glyph glyph-name="n" unicode="n" horiz-adv-x="647" 
d="M438 561q98 0 132.5 -53t7.5 -181l-70 -327h-164l67 311q4 19 6 29.5t3 25t-2 22.5t-8.5 16t-17.5 11.5t-29 3.5q-68 0 -127 -82l-71 -337h-164l83 394l25 152h136l1 -76q26 33 75 62t117 29z" />
    <glyph glyph-name="o" unicode="o" horiz-adv-x="623" 
d="M237 -16q-132 0 -183.5 76t-23.5 212q30 145 103 217.5t225 72.5q132 0 184 -77t24 -213q-30 -144 -103 -216t-226 -72zM264 111q52 0 84 37.5t50 123.5q20 87 6.5 125t-74.5 38q-51 0 -83 -38.5t-51 -124.5q-20 -88 -6 -124.5t74 -36.5z" />
    <glyph glyph-name="p" unicode="p" horiz-adv-x="648" 
d="M430 558q218 0 158 -285q-30 -144 -96 -214.5t-181 -70.5q-95 0 -139 52l-58 -280h-164l130 624l28 162h136l1 -76q27 33 74 60.5t111 27.5zM421 273q19 80 6.5 119t-64.5 39q-71 0 -126 -82l-33 -155q8 -79 93 -79q48 0 77.5 38t46.5 120z" />
    <glyph glyph-name="q" unicode="q" horiz-adv-x="652" 
d="M491 546h136l-39 -157l-131 -629h-164l58 279q-65 -51 -161 -51q-217 0 -158 285q30 143 96 214t181 71q42 0 75.5 -17t48.5 -34.5t25 -36.5zM257 115q88 0 127 80l33 156q-19 80 -94 80q-48 0 -77.5 -38.5t-46.5 -119.5t-3 -119.5t61 -38.5z" />
    <glyph glyph-name="r" unicode="r" horiz-adv-x="436" 
d="M246 546l-1 -94q24 42 75.5 76t137.5 34l-31 -150q-48 0 -87.5 -15.5t-62.5 -40.5t-35 -43t-19 -36l-58 -277h-164l80 384l28 162h137z" />
    <glyph glyph-name="s" unicode="s" horiz-adv-x="560" 
d="M8 183h147q-18 -85 73 -85q87 0 97 48q5 24 -10 39t-41.5 22.5t-58.5 13.5t-63.5 16.5t-56 27.5t-34.5 51t0 83q32 162 265 162q113 0 164 -46t33 -134h-146q6 32 -11 49t-61 17q-74 0 -83 -47q-4 -23 10.5 -38t41 -22t59.5 -13t64.5 -16t56 -26.5t35.5 -49t1 -78.5
q-18 -87 -83.5 -130t-200.5 -43q-238 0 -198 199z" />
    <glyph glyph-name="t" unicode="t" horiz-adv-x="410" 
d="M273 422l-39 -190q-12 -68 -2.5 -88t42.5 -20h57l-29 -131h-75q-55 0 -91 12.5t-54 32t-23.5 52.5t-2.5 64t13 76l40 192h-70l26 124h70l29 140l169 27l-34 -167h113l-25 -124h-114z" />
    <glyph glyph-name="u" unicode="u" horiz-adv-x="639" 
d="M443 546h164l-83 -394l-25 -152h-136l-1 77q-76 -92 -195 -92q-92 0 -127.5 52.5t-10.5 173.5l72 335h163l-66 -310q-13 -66 -7 -84q10 -26 52 -26q67 0 130 85z" />
    <glyph glyph-name="v" unicode="v" horiz-adv-x="563" 
d="M423 546h180l-319 -546h-157l-92 546h170l37 -367z" />
    <glyph glyph-name="w" unicode="w" horiz-adv-x="796" 
d="M676 546h164l-282 -546h-136l-24 342l-162 -342h-139l-58 546h157l16 -318l142 318h164l20 -318z" />
    <glyph glyph-name="x" unicode="x" horiz-adv-x="558" 
d="M602 546l-243 -291l118 -255h-177l-67 144l-117 -144h-187l241 281l-123 265h177l71 -153l121 153h186z" />
    <glyph glyph-name="y" unicode="y" horiz-adv-x="572" 
d="M433 546h179l-421 -770h-156l116 224h-38l-77 546h163l32 -392z" />
    <glyph glyph-name="z" unicode="z" horiz-adv-x="524" 
d="M507 455l-15 -71l-311 -256l259 3l-27 -129h-446l26 124h1l8 37l313 257l-252 -3l27 127h436z" />
    <glyph glyph-name="braceleft" unicode="{" horiz-adv-x="468" 
d="M526 758l-30 -138q-83 0 -111.5 -19.5t-43.5 -94.5l-22 -108q-5 -24 -16 -45t-23 -33t-25.5 -21.5t-21 -13t-11.5 -4.5q22 -15 29 -23q31 -37 19 -94l-22 -109q-15 -73 5 -92.5t102 -19.5l-29 -139q-61 0 -103.5 4t-73.5 14.5t-48 26t-25 41t-6 58t11 78.5l28 136
q7 32 -7 44t-66 12l27 128q53 0 71.5 11.5t24.5 43.5l30 145q10 49 19.5 78.5t26 56t37 39t57.5 22.5t82 13t115 3z" />
    <glyph glyph-name="bar" unicode="|" horiz-adv-x="435" 
d="M54 -200l217 1020h133l-217 -1020h-133z" />
    <glyph glyph-name="braceright" unicode="}" horiz-adv-x="467" 
d="M-82 -196l29 139q82 0 110.5 19.5t44.5 94.5l22 107q17 83 97 117q-3 1 -8 4t-15.5 12t-17 22t-11 33t2.5 46l23 110q15 73 -5.5 92.5t-102.5 19.5l30 138q74 0 121 -6t78.5 -20t43.5 -41t12.5 -63t-11.5 -92l-28 -135q-7 -32 7 -44t67 -12l-27 -128q-53 0 -71.5 -11.5
t-24.5 -43.5l-30 -146q-10 -49 -19 -78t-25.5 -55.5t-37.5 -39.5t-57.5 -23t-82 -13t-114.5 -3z" />
    <glyph glyph-name="asciitilde" unicode="~" horiz-adv-x="591" 
d="M462 404h95q-19 -87 -62.5 -138.5t-134.5 -51.5q-47 0 -92 27.5t-82 27.5q-29 0 -49.5 -19.5t-23.5 -35.5h-95q18 87 61.5 138.5t134.5 51.5q47 0 92.5 -27.5t82.5 -27.5q29 0 49.5 19.5t23.5 35.5z" />
    <glyph glyph-name="uni00A0" unicode="&#xa0;" horiz-adv-x="208" 
 />
    <glyph glyph-name="exclamdown" unicode="&#xa1;" horiz-adv-x="275" 
d="M71 407l30 139h163l-30 -139h-163zM-50 -174l123 526h139l-99 -526h-163z" />
    <glyph glyph-name="cent" unicode="&#xa2;" horiz-adv-x="608" 
d="M568 410h-160q8 54 -8.5 78t-64.5 24q-52 0 -85.5 -38t-51.5 -123q-20 -88 -6 -124.5t75 -36.5q38 0 69 22.5t42 64.5h162q-26 -97 -81 -149t-162 -63l-18 -85h-118l18 86q-202 30 -148 285q14 66 33 112t49.5 84t77 60t110.5 29l15 74h118l-15 -75q182 -25 149 -225z
" />
    <glyph glyph-name="sterling" unicode="&#xa3;" horiz-adv-x="600" 
d="M599 483h-171q20 96 -47 96q-34 0 -54.5 -23.5t-27.5 -56.5q-3 -13 -3.5 -26t2 -27.5t5 -25t7 -28t6.5 -26.5h156l-23 -113h-128l-1 -4q-15 -72 -89 -122l286 3l-28 -134h-476l27 129l10 5t22.5 14.5t30 24t26.5 32.5t18 42l2 10h-85l24 113h50q-24 78 -11 144
q18 93 82.5 145.5t199.5 52.5q117 0 164.5 -63t25.5 -162z" />
    <glyph glyph-name="currency" unicode="&#xa4;" horiz-adv-x="698" 
d="M651 97l-89 -88l-58 58q-62 -39 -165 -39q-102 0 -166 39l-65 -64l-88 88l73 72q-27 64 -27 160q0 95 25 157l-67 67l87 88l57 -57q64 44 171 44q100 0 162 -37l57 57l88 -88l-63 -63q29 -66 29 -168q0 -96 -27 -161zM339 173q58 0 82 38.5t24 111.5q0 155 -106 155
t-106 -155q0 -73 24 -111.5t82 -38.5z" />
    <glyph glyph-name="yen" unicode="&#xa5;" horiz-adv-x="603" 
d="M686 721l-271 -389h72l-19 -87h-109l-8 -41h110l-19 -86h-109l-25 -118h-172l25 118h-111l18 86h112l9 41h-112l18 87h71l-114 389h184l70 -306l190 306h190z" />
    <glyph glyph-name="brokenbar" unicode="&#xa6;" horiz-adv-x="435" 
d="M181 395l90 425h133l-91 -425h-132zM281 245l-90 -425h-132l90 425h132z" />
    <glyph glyph-name="section" unicode="&#xa7;" horiz-adv-x="586" 
d="M587 611h-145q7 33 -10 49.5t-67 16.5q-44 0 -67 -14t-26 -33q-6 -26 16 -41t58 -19.5t77 -15t74.5 -24.5t50.5 -51t5 -92q-16 -78 -96 -121q63 -42 43 -134q-18 -88 -84 -131t-203 -43q-123 0 -174.5 48.5t-30.5 150.5h147q-9 -47 11 -65.5t69 -18.5q91 0 102 47
q5 23 -10.5 37.5t-43 21.5t-62 13t-68 17t-59 28.5t-36.5 52t-1 83.5q16 76 95 118q-61 45 -41 138q16 79 80.5 120.5t193.5 41.5q120 0 171 -45.5t31 -134.5zM390 376q3 17 -3.5 29t-22.5 19.5t-34.5 12.5t-44.5 10q-7 1 -11 2q-45 -28 -55 -75q-5 -22 11 -36t36 -19
t61 -12q55 27 63 69z" />
    <glyph glyph-name="dieresis" unicode="&#xa8;" horiz-adv-x="600" 
d="M143 612l33 152h159l-33 -152h-159zM355 612l33 152h159l-32 -152h-160z" />
    <glyph glyph-name="copyright" unicode="&#xa9;" horiz-adv-x="825" 
d="M326 -34q-97 0 -163.5 30t-96.5 81.5t-38 121t12 149.5q37 173 149 280t301 107q99 0 166 -30.5t96.5 -83t37 -123t-12.5 -150.5q-37 -172 -148 -277t-303 -105zM344 47q76 0 137 25t100 69t63.5 95t37.5 112q10 48 11.5 90.5t-10 83t-35.5 69t-68.5 46t-106.5 17.5
q-76 0 -136.5 -25.5t-99.5 -70.5t-64 -97t-38 -113q-10 -48 -11 -90t10.5 -81.5t36 -67.5t68.5 -45t105 -17zM362 119q-104 0 -141.5 54t-10.5 179q27 126 87.5 180.5t164.5 54.5q93 0 131.5 -43t18.5 -141h-135q12 73 -39 73q-34 0 -53 -25t-35 -99q-14 -70 -5.5 -96
t41.5 -26q50 0 69 74h136q-22 -100 -78.5 -142.5t-150.5 -42.5z" />
    <glyph glyph-name="ordfeminine" unicode="&#xaa;" horiz-adv-x="425" 
d="M294 754q80 0 118 -25.5t39 -70.5t-11 -108l-16 -82l-19 -108h-116l-3 34q-34 -44 -115 -44q-74 0 -104 30t-17 95q6 27 15 46.5t26 32t33.5 19.5t49 10.5t59 4t76.5 0.5q11 40 6.5 58t-34.5 18q-47 0 -56 -44h-126q12 54 30 77q45 57 165 57zM224 430q39 0 58 28l14 65
q-52 0 -74 -9t-29 -40q-9 -44 31 -44z" />
    <glyph glyph-name="guillemotleft" unicode="&#xab;" horiz-adv-x="665" 
d="M380 460l-177 -207l94 -178h-174l-79 172l8 34l152 179h176zM629 460l-177 -207l95 -178h-174l-80 172l8 34l152 179h176z" />
    <glyph glyph-name="registered" unicode="&#xae;" horiz-adv-x="825" 
d="M490 735q99 0 166 -30.5t96.5 -83t37 -123t-12.5 -150.5q-37 -172 -148 -277t-303 -105q-97 0 -163.5 30t-96.5 81.5t-38 121t12 149.5q37 173 149 280t301 107zM682 348q10 48 11.5 90.5t-10 83t-35.5 69t-68.5 46t-106.5 17.5q-76 0 -136.5 -25.5t-99.5 -70.5t-64 -97
t-38 -113q-10 -48 -11 -90t10.5 -81.5t36 -67.5t68.5 -45t105 -17q76 0 137 25t100 69t63.5 95t37.5 112zM275 569h165q122 0 162 -32.5t21 -122.5q-22 -102 -98 -132l44 -143l-135 1l-33 121h-56l-26 -121h-135zM367 366h26q44 0 65 9t28 39q7 33 -10 41.5t-62 8.5h-26z
" />
    <glyph glyph-name="macron" unicode="&#xaf;" horiz-adv-x="600" 
d="M144 746h309l-25 -116h-309z" />
    <glyph glyph-name="degree" unicode="&#xb0;" horiz-adv-x="397" 
d="M173 459q-139 0 -110 139q31 141 168 141q138 0 109 -141q-29 -139 -167 -139zM190 542q40 0 52 56q13 58 -28 58q-39 0 -52 -58q-12 -56 28 -56z" />
    <glyph glyph-name="plusminus" unicode="&#xb1;" horiz-adv-x="563" 
d="M369 452h146l-26 -121h-145l-21 -99h-132l21 99h-145l26 121h145l21 98h131zM12 73l26 124h423l-27 -124h-422z" />
    <glyph glyph-name="uni00B2" unicode="&#xb2;" horiz-adv-x="485" 
d="M-37 276l22 106q100 59 177 115q4 3 22.5 16t24 17t21 15.5t21.5 17t18 16t17.5 17.5t12.5 17t11 19t6 19q7 34 -6.5 54t-48.5 20q-71 0 -89 -88h-136q21 101 76 150.5t174 49.5q99 0 139.5 -48.5t23.5 -128.5q-9 -43 -38 -84.5t-53.5 -64t-64.5 -53.5q-27 -21 -55.5 -41
t-43.5 -30l-16 -10l209 9l-24 -110h-400z" />
    <glyph glyph-name="uni00B3" unicode="&#xb3;" horiz-adv-x="483" 
d="M476 820l-20 -95l-138 -110q116 -34 88 -168q-19 -85 -74.5 -133.5t-173.5 -48.5q-102 0 -143.5 52.5t-24.5 133.5h133q-7 -32 6 -55.5t50 -23.5q39 0 63 23t32 60q20 89 -77 89l-65 -4l17 81l136 98l-220 -8l23 109h388z" />
    <glyph glyph-name="acute" unicode="&#xb4;" horiz-adv-x="600" 
d="M103 611l124 175h169l-151 -175h-142z" />
    <glyph glyph-name="paragraph" unicode="&#xb6;" horiz-adv-x="681" 
d="M703 760l-159 -760h-131l131 625h-64l-130 -625h-132l53 255q-156 4 -210 57.5t-25 193.5q22 102 56 153.5t99 74.5t186 26h326zM196 508q-14 -69 7.5 -91t96.5 -24l48 229q-77 -2 -107.5 -23t-44.5 -91z" />
    <glyph glyph-name="periodcentered" unicode="&#xb7;" horiz-adv-x="292" 
d="M41 229l30 141h164l-30 -141h-164z" />
    <glyph glyph-name="cedilla" unicode="&#xb8;" horiz-adv-x="600" 
d="M204 3l-47 -59q36 -5 58 -28.5t14 -66.5q-24 -115 -183 -115q-36 0 -62.5 2t-34.5 4l-8 1l19 89q16 -6 66 -6q51 0 59 37q3 14 -4 22.5t-24.5 11.5t-30 4t-32.5 1h-1l77 103h134z" />
    <glyph glyph-name="uni00B9" unicode="&#xb9;" horiz-adv-x="296" 
d="M195 829h85l-118 -554h-133l92 432l-99 -42l22 104z" />
    <glyph glyph-name="ordmasculine" unicode="&#xba;" horiz-adv-x="440" 
d="M221 348q-96 0 -135 52.5t-18 151.5q22 107 73 156t166 49q98 0 137 -52.5t18 -152.5q-22 -106 -74 -155t-167 -49zM243 452q31 0 47 21t29 79q11 59 4 80t-37 21q-31 0 -47 -21t-29 -80q-12 -59 -4.5 -79.5t37.5 -20.5z" />
    <glyph glyph-name="guillemotright" unicode="&#xbb;" horiz-adv-x="666" 
d="M341 281l-8 -34l-150 -172h-177l176 199l-92 186h174zM513 460l77 -179l-8 -34l-150 -172h-177l177 199l-93 186h174z" />
    <glyph glyph-name="onequarter" unicode="&#xbc;" horiz-adv-x="1030" 
d="M991 547l-76 -354h59l-21 -100h-59l-20 -93h-132l20 93h-261l21 100l327 354h142zM644 193h140l43 199zM666 756h149l-595 -796h-149zM162 206h-133l92 432l-99 -42l22 104l151 60h85z" />
    <glyph glyph-name="onehalf" unicode="&#xbd;" horiz-adv-x="1069" 
d="M1033 385q-9 -43 -38 -84.5t-53.5 -64t-64.5 -53.5q-27 -21 -55.5 -41t-43.5 -30l-16 -10l209 9l-24 -110h-400l22 106q100 59 177 115q4 3 22.5 16t24 17t21 15.5t21.5 17t18 16t17.5 17.5t12.5 17t11 19t6 19q7 34 -6.5 54t-48.5 20q-71 0 -89 -88h-136
q21 101 76 150.5t174 49.5q99 0 139.5 -48.5t23.5 -128.5zM666 756h149l-595 -796h-149zM162 206h-133l92 432l-99 -42l22 104l151 60h85z" />
    <glyph glyph-name="threequarters" unicode="&#xbe;" horiz-adv-x="1195" 
d="M831 756h149l-595 -796h-149zM406 378q-19 -85 -74.5 -133.5t-173.5 -48.5q-102 0 -143.5 52.5t-24.5 133.5h133q-7 -32 6 -55.5t50 -23.5q39 0 63 23t32 60q20 89 -77 89l-65 -4l17 81l136 98l-220 -8l23 109h388l-20 -95l-138 -110q116 -34 88 -168zM1156 547l-76 -354
h59l-21 -100h-59l-20 -93h-132l20 93h-261l21 100l327 354h142zM809 193h140l43 199z" />
    <glyph glyph-name="questiondown" unicode="&#xbf;" horiz-adv-x="571" 
d="M422 523l-28 -136h-164l28 136h164zM225 333h151l-3 -16q-10 -52 -33.5 -93.5t-51 -68t-54 -49.5t-47.5 -51t-28 -60q-17 -83 55 -83q42 0 62 29t34 94h164q-28 -138 -94 -202.5t-199 -64.5q-119 0 -165 57.5t-27 149.5q11 53 35.5 95t53.5 69.5t57 52.5t52 56.5t34 68.5
z" />
    <glyph glyph-name="Agrave" unicode="&#xc0;" horiz-adv-x="673" 
d="M500 765h-146l-80 169h174zM434 0l-12 137h-240l-71 -137h-179l412 721h161l108 -721h-179zM255 277h156l-22 259z" />
    <glyph glyph-name="Aacute" unicode="&#xc1;" horiz-adv-x="673" 
d="M657 933l-149 -169h-147l122 169h174zM344 721h161l108 -721h-179l-12 137h-240l-71 -137h-179zM255 277h156l-22 259z" />
    <glyph glyph-name="Acircumflex" unicode="&#xc2;" horiz-adv-x="673" 
d="M450 824l-68 -60h-139l143 155h159l81 -155h-133zM344 721h161l108 -721h-179l-12 137h-240l-71 -137h-179zM255 277h156l-22 259z" />
    <glyph glyph-name="Atilde" unicode="&#xc3;" horiz-adv-x="673" 
d="M388 805q-26 0 -42.5 -14.5t-18.5 -26.5h-76q33 161 146 161q33 0 64 -16.5t50 -16.5q26 0 43 14.5t19 26.5h77q-17 -85 -50 -125.5t-95 -40.5q-33 0 -65.5 19t-51.5 19zM344 721h161l108 -721h-179l-12 137h-240l-71 -137h-179zM255 277h156l-22 259z" />
    <glyph glyph-name="Adieresis" unicode="&#xc4;" horiz-adv-x="673" 
d="M439 917l-32 -153h-164l32 153h164zM491 917h164l-31 -153h-164zM344 721h161l108 -721h-179l-12 137h-240l-71 -137h-179zM255 277h156l-22 259z" />
    <glyph glyph-name="Aring" unicode="&#xc5;" horiz-adv-x="673" 
d="M433 761q-48 0 -76 30.5t-17 80.5q23 110 139 110q48 0 75.5 -30.5t17.5 -79.5q-24 -111 -139 -111zM426 872q-3 -14 3.5 -23t20.5 -9q13 0 23.5 9t13.5 23t-3.5 23t-20.5 9q-13 0 -23.5 -9t-13.5 -23zM434 0l-12 137h-240l-71 -137h-179l412 721h161l108 -721h-179z
M255 277h156l-22 259z" />
    <glyph glyph-name="AE" unicode="&#xc6;" horiz-adv-x="965" 
d="M972 575h-321l-29 -139h273l-29 -137h-272l-32 -153h329l-31 -146h-484l29 137h-190l-97 -137h-186l525 721h546zM434 277l50 243l-171 -243h121z" />
    <glyph glyph-name="Ccedilla" unicode="&#xc7;" horiz-adv-x="682" 
d="M658 447h-168q13 83 -5.5 114t-79.5 31q-66 0 -107 -51.5t-68 -181.5q-27 -133 -11 -181.5t90 -48.5q53 0 89 32.5t56 114.5h168q-30 -137 -94 -206t-174 -85l-34 -43q36 -5 58 -28.5t14 -66.5q-24 -115 -183 -115q-36 0 -62.5 2t-34.5 4l-8 1l19 89q16 -6 66 -6
q51 0 59 37q3 14 -4 22.5t-24.5 11.5t-29.5 4t-33 1h-1l64 86q-236 33 -165 375q43 204 130 292.5t251 88.5q131 0 192 -71t30 -222z" />
    <glyph glyph-name="Egrave" unicode="&#xc8;" horiz-adv-x="607" 
d="M469 765h-146l-80 169h174zM615 575h-320l-29 -139h272l-30 -137h-271l-32 -153h328l-31 -146h-498l150 721h491z" />
    <glyph glyph-name="Eacute" unicode="&#xc9;" horiz-adv-x="607" 
d="M626 933l-149 -169h-147l122 169h174zM615 575h-320l-29 -139h272l-30 -137h-271l-32 -153h328l-31 -146h-498l150 721h491z" />
    <glyph glyph-name="Ecircumflex" unicode="&#xca;" horiz-adv-x="607" 
d="M419 824l-68 -60h-139l143 155h159l81 -155h-133zM615 575h-320l-29 -139h272l-30 -137h-271l-32 -153h328l-31 -146h-498l150 721h491z" />
    <glyph glyph-name="Edieresis" unicode="&#xcb;" horiz-adv-x="607" 
d="M408 917l-32 -153h-164l32 153h164zM624 917l-31 -153h-164l31 153h164zM615 575h-320l-29 -139h272l-30 -137h-271l-32 -153h328l-31 -146h-498l150 721h491z" />
    <glyph glyph-name="Igrave" unicode="&#xcc;" horiz-adv-x="321" 
d="M316 765h-146l-80 169h174zM4 0l150 721h172l-150 -721h-172z" />
    <glyph glyph-name="Iacute" unicode="&#xcd;" horiz-adv-x="321" 
d="M177 764l122 169h174l-149 -169h-147zM4 0l150 721h172l-150 -721h-172z" />
    <glyph glyph-name="Icircumflex" unicode="&#xce;" horiz-adv-x="321" 
d="M266 824l-68 -60h-139l143 155h159l81 -155h-133zM4 0l150 721h172l-150 -721h-172z" />
    <glyph glyph-name="Idieresis" unicode="&#xcf;" horiz-adv-x="321" 
d="M59 764l32 153h164l-32 -153h-164zM276 764l31 153h164l-31 -153h-164zM4 0l150 721h172l-150 -721h-172z" />
    <glyph glyph-name="Eth" unicode="&#xd0;" horiz-adv-x="705" 
d="M154 722h215q206 0 267.5 -80.5t19.5 -282.5q-22 -106 -48.5 -169.5t-75.5 -109.5t-123.5 -64t-190.5 -18h-214l66 320h-47l21 97h46zM483 359q11 53 15 87.5t-1 59.5t-14 38.5t-34 21t-51 9.5t-73 2h-29l-34 -162h128l-19 -97h-129l-35 -171h29q63 0 97.5 5.5t66 27
t50 64t33.5 115.5z" />
    <glyph glyph-name="Ntilde" unicode="&#xd1;" horiz-adv-x="735" 
d="M411 805q-26 0 -42.5 -14.5t-18.5 -26.5h-76q33 161 146 161q34 0 65 -16.5t49 -16.5q26 0 43 14.5t19 26.5h77q-17 -85 -50 -125.5t-95 -40.5q-33 0 -65.5 19t-51.5 19zM583 721h157l-151 -721h-180l-155 464l-97 -464h-153l150 721h181l159 -474z" />
    <glyph glyph-name="Ograve" unicode="&#xd2;" horiz-adv-x="711" 
d="M515 788h-146l-80 169h174zM281 -20q-306 0 -226 379q43 205 130.5 293t254.5 88q304 0 224 -381q-43 -204 -130 -291.5t-253 -87.5zM312 129q68 0 109.5 51t68.5 179q28 133 11 183t-93 50q-68 0 -110.5 -52t-68.5 -181q-27 -131 -10 -180.5t93 -49.5z" />
    <glyph glyph-name="Oacute" unicode="&#xd3;" horiz-adv-x="711" 
d="M376 787l122 169h174l-149 -169h-147zM281 -20q-306 0 -226 379q43 205 130.5 293t254.5 88q304 0 224 -381q-43 -204 -130 -291.5t-253 -87.5zM312 129q68 0 109.5 51t68.5 179q28 133 11 183t-93 50q-68 0 -110.5 -52t-68.5 -181q-27 -131 -10 -180.5t93 -49.5z" />
    <glyph glyph-name="Ocircumflex" unicode="&#xd4;" horiz-adv-x="711" 
d="M465 847l-68 -60h-139l143 155h159l81 -155h-133zM440 740q304 0 224 -381q-43 -204 -130 -291.5t-253 -87.5q-306 0 -226 379q43 205 130.5 293t254.5 88zM490 359q28 133 11 183t-93 50q-68 0 -110.5 -52t-68.5 -181q-27 -131 -10 -180.5t93 -49.5q68 0 109.5 51
t68.5 179z" />
    <glyph glyph-name="Otilde" unicode="&#xd5;" horiz-adv-x="711" 
d="M588 956h77q-17 -85 -50 -125.5t-95 -40.5q-33 0 -65.5 19t-51.5 19q-26 0 -42.5 -14.5t-18.5 -26.5h-76q33 161 146 161q34 0 65 -16.5t49 -16.5q26 0 43 14.5t19 26.5zM281 -20q-306 0 -226 379q43 205 130.5 293t254.5 88q304 0 224 -381q-43 -204 -130 -291.5
t-253 -87.5zM312 129q68 0 109.5 51t68.5 179q28 133 11 183t-93 50q-68 0 -110.5 -52t-68.5 -181q-27 -131 -10 -180.5t93 -49.5z" />
    <glyph glyph-name="Odieresis" unicode="&#xd6;" horiz-adv-x="711" 
d="M258 787l32 153h164l-32 -153h-164zM475 787l31 153h164l-31 -153h-164zM281 -20q-306 0 -226 379q43 205 130.5 293t254.5 88q304 0 224 -381q-43 -204 -130 -291.5t-253 -87.5zM312 129q68 0 109.5 51t68.5 179q28 133 11 183t-93 50q-68 0 -110.5 -52t-68.5 -181
q-27 -131 -10 -180.5t93 -49.5z" />
    <glyph glyph-name="multiply" unicode="&#xd7;" horiz-adv-x="583" 
d="M528 448l-160 -136l103 -135l-105 -84l-100 133l-156 -133l-69 84l160 136l-102 135l103 83l100 -132l155 132z" />
    <glyph glyph-name="Oslash" unicode="&#xd8;" horiz-adv-x="711" 
d="M747 735l-92 -105q46 -93 9 -271q-43 -204 -130 -291.5t-253 -87.5q-102 0 -160 42l-32 -37h-127l98 112q-40 94 -5 262q43 205 130.5 293t254.5 88q93 0 152 -37l28 32h127zM229 359q-8 -40 -14 -86l264 301q-22 18 -71 18q-68 0 -110.5 -52t-68.5 -181zM490 359
q14 68 16 101l-271 -309q23 -22 77 -22q68 0 109.5 51t68.5 179z" />
    <glyph glyph-name="Ugrave" unicode="&#xd9;" horiz-adv-x="708" 
d="M510 765h-146l-80 169h174zM278 -20q-143 0 -195.5 84t-12.5 274l80 383h172l-79 -379q-26 -130 -12.5 -170.5t78.5 -40.5q58 0 93 44t61 167l79 379h175l-80 -383q-41 -198 -118.5 -278t-240.5 -80z" />
    <glyph glyph-name="Uacute" unicode="&#xda;" horiz-adv-x="708" 
d="M371 764l122 169h174l-149 -169h-147zM278 -20q-143 0 -195.5 84t-12.5 274l80 383h172l-79 -379q-26 -130 -12.5 -170.5t78.5 -40.5q58 0 93 44t61 167l79 379h175l-80 -383q-41 -198 -118.5 -278t-240.5 -80z" />
    <glyph glyph-name="Ucircumflex" unicode="&#xdb;" horiz-adv-x="708" 
d="M460 824l-68 -60h-139l143 155h159l81 -155h-133zM542 721h175l-80 -383q-41 -198 -118.5 -278t-240.5 -80q-143 0 -195.5 84t-12.5 274l80 383h172l-79 -379q-26 -130 -12.5 -170.5t78.5 -40.5q58 0 93 44t61 167z" />
    <glyph glyph-name="Udieresis" unicode="&#xdc;" horiz-adv-x="708" 
d="M253 764l32 153h164l-32 -153h-164zM470 764l31 153h164l-31 -153h-164zM278 -20q-143 0 -195.5 84t-12.5 274l80 383h172l-79 -379q-26 -130 -12.5 -170.5t78.5 -40.5q58 0 93 44t61 167l79 379h175l-80 -383q-41 -198 -118.5 -278t-240.5 -80z" />
    <glyph glyph-name="Yacute" unicode="&#xdd;" horiz-adv-x="639" 
d="M617 933l-149 -169h-147l122 169h174zM718 721l-343 -476l-50 -245h-171l51 247l-151 474h184l80 -318l206 318h194z" />
    <glyph glyph-name="Thorn" unicode="&#xde;" horiz-adv-x="658" 
d="M304 616h72q58 0 100.5 -4.5t79 -16t57.5 -30t35.5 -47t13 -67.5t-9.5 -90q-14 -64 -32 -105.5t-45.5 -71.5t-70.5 -45.5t-99 -22t-139 -6.5h-68l-23 -110h-171l150 721h172zM480 364q14 72 -17.5 91t-121.5 19h-67l-45 -217h68q37 0 58.5 1t45.5 6.5t37 17t24.5 31.5
t17.5 51z" />
    <glyph glyph-name="germandbls" unicode="&#xdf;" horiz-adv-x="638" 
d="M614 560q-7 -33 -25.5 -61.5t-39.5 -45.5t-41 -29.5t-34 -17.5l-13 -5q2 0 5 -0.5t12.5 -3.5t18.5 -6.5t20.5 -10.5t21 -16t18 -23t13.5 -30t5 -38t-6 -47q-13 -60 -34.5 -99t-62.5 -69.5t-107 -44t-164 -13.5l27 128q81 0 121.5 19.5t53.5 82.5q3 15 3 27t-3 21.5
t-6.5 17.5t-12 13.5t-14 9.5t-17.5 7t-18.5 4.5t-20.5 3t-19 2t-19 1.5l26 123q47 0 90.5 22.5t53.5 71.5q9 44 -5.5 65.5t-59.5 21.5q-38 -1 -67.5 -23.5t-38.5 -63.5l-115 -554h-164l106 514q10 50 21.5 84t33.5 68.5t53.5 55t81 33.5t115.5 13h1q128 0 177 -58t29 -150z
" />
    <glyph glyph-name="agrave" unicode="&#xe0;" horiz-adv-x="604" 
d="M432 611h-141l-78 175h169zM336 558q108 0 157.5 -36t50 -100t-16.5 -152l-26 -121l-23 -148h-136l-3 52q-61 -66 -177 -66q-92 0 -134.5 42.5t-25.5 129.5q8 36 22.5 63t30.5 45t45 30.5t52.5 19t66 9.5t72.5 3.5t84 0.5q16 60 5.5 87t-60.5 27q-45 0 -70.5 -22
t-31.5 -50h-146q5 27 10.5 45t24 47.5t44 47.5t73.5 32t112 14zM223 92q76 0 116 67l16 77q-99 0 -141 -14.5t-53 -65.5q-6 -29 9 -46.5t53 -17.5z" />
    <glyph glyph-name="aacute" unicode="&#xe1;" horiz-adv-x="604" 
d="M576 786l-151 -175h-142l124 175h169zM336 558q108 0 157.5 -36t50 -100t-16.5 -152l-26 -121l-23 -148h-136l-3 52q-61 -66 -177 -66q-92 0 -134.5 42.5t-25.5 129.5q8 36 22.5 63t30.5 45t45 30.5t52.5 19t66 9.5t72.5 3.5t84 0.5q16 60 5.5 87t-60.5 27
q-45 0 -70.5 -22t-31.5 -50h-146q5 27 10.5 45t24 47.5t44 47.5t73.5 32t112 14zM223 92q76 0 116 67l16 77q-99 0 -141 -14.5t-53 -65.5q-6 -29 9 -46.5t53 -17.5z" />
    <glyph glyph-name="acircumflex" unicode="&#xe2;" horiz-adv-x="604" 
d="M377 682l-71 -72h-147l164 174h140l93 -174h-139zM336 558q108 0 157.5 -36t50 -100t-16.5 -152l-26 -121l-23 -148h-136l-3 52q-61 -66 -177 -66q-92 0 -134.5 42.5t-25.5 129.5q8 36 22.5 63t30.5 45t45 30.5t52.5 19t66 9.5t72.5 3.5t84 0.5q16 60 5.5 87t-60.5 27
q-45 0 -70.5 -22t-31.5 -50h-146q5 27 10.5 45t24 47.5t44 47.5t73.5 32t112 14zM223 92q76 0 116 67l16 77q-99 0 -141 -14.5t-53 -65.5q-6 -29 9 -46.5t53 -17.5z" />
    <glyph glyph-name="atilde" unicode="&#xe3;" horiz-adv-x="604" 
d="M314 653q-26 0 -43 -15t-19 -27h-76q16 75 50 114.5t96 39.5q33 0 63.5 -16.5t49.5 -16.5q27 0 43.5 14.5t18.5 26.5h78q-18 -84 -50 -121t-94 -37q-34 0 -66 19t-51 19zM336 558q108 0 157.5 -36t50 -100t-16.5 -152l-26 -121l-23 -148h-136l-3 52q-61 -66 -177 -66
q-92 0 -134.5 42.5t-25.5 129.5q8 36 22.5 63t30.5 45t45 30.5t52.5 19t66 9.5t72.5 3.5t84 0.5q16 60 5.5 87t-60.5 27q-45 0 -70.5 -22t-31.5 -50h-146q5 27 10.5 45t24 47.5t44 47.5t73.5 32t112 14zM223 92q76 0 116 67l16 77q-99 0 -141 -14.5t-53 -65.5
q-6 -29 9 -46.5t53 -17.5z" />
    <glyph glyph-name="adieresis" unicode="&#xe4;" horiz-adv-x="604" 
d="M364 764l-33 -152h-159l33 152h159zM576 764l-32 -152h-160l33 152h159zM336 558q108 0 157.5 -36t50 -100t-16.5 -152l-26 -121l-23 -148h-136l-3 52q-61 -66 -177 -66q-92 0 -134.5 42.5t-25.5 129.5q8 36 22.5 63t30.5 45t45 30.5t52.5 19t66 9.5t72.5 3.5t84 0.5
q16 60 5.5 87t-60.5 27q-45 0 -70.5 -22t-31.5 -50h-146q5 27 10.5 45t24 47.5t44 47.5t73.5 32t112 14zM223 92q76 0 116 67l16 77q-99 0 -141 -14.5t-53 -65.5q-6 -29 9 -46.5t53 -17.5z" />
    <glyph glyph-name="aring" unicode="&#xe5;" horiz-adv-x="604" 
d="M357 600q-56 0 -85 36.5t-18 87.5q27 124 155 124q55 0 84 -36t18 -88q-11 -55 -49.5 -89.5t-104.5 -34.5zM353 724q-3 -14 3.5 -23t20.5 -9q13 0 23.5 9t13.5 23t-4 23t-20 9q-30 0 -37 -32zM336 558q108 0 157.5 -36t50 -100t-16.5 -152l-26 -121l-23 -148h-136l-3 52
q-61 -66 -177 -66q-92 0 -134.5 42.5t-25.5 129.5q8 36 22.5 63t30.5 45t45 30.5t52.5 19t66 9.5t72.5 3.5t84 0.5q16 60 5.5 87t-60.5 27q-45 0 -70.5 -22t-31.5 -50h-146q5 27 10.5 45t24 47.5t44 47.5t73.5 32t112 14zM223 92q76 0 116 67l16 77q-99 0 -141 -14.5
t-53 -65.5q-6 -29 9 -46.5t53 -17.5z" />
    <glyph glyph-name="ae" unicode="&#xe6;" horiz-adv-x="940" 
d="M876 237h-359q-13 -75 1.5 -105t66.5 -30q44 0 73 23.5t38 53.5h166q-8 -39 -26.5 -71t-52.5 -61.5t-90.5 -46t-131.5 -16.5q-149 0 -195 94q-66 -91 -204 -91q-92 0 -134.5 42.5t-25.5 129.5q8 35 22 62t30.5 45.5t44.5 30.5t52 19t65 10t71.5 3.5t83.5 0.5q10 33 19 55
q0 31 -16 45t-54 14q-45 0 -70.5 -22t-31.5 -50h-146q5 25 11.5 44.5t25 48t45 47t74 32.5t108.5 14q105 0 143 -50q74 54 202 54q262 0 195 -325zM657 448q-79 0 -116 -110h190q5 60 -11.5 85t-62.5 25zM223 92q84 0 123 80q0 26 5 64q-98 -1 -138.5 -15t-51.5 -65
q-6 -29 9 -46.5t53 -17.5z" />
    <glyph glyph-name="ccedilla" unicode="&#xe7;" horiz-adv-x="599" 
d="M559 333h-160q8 53 -7.5 77t-62.5 24q-50 0 -82 -38t-50 -123q-19 -88 -6 -124.5t72 -36.5q36 0 66 22.5t41 64.5h162q-26 -95 -77 -146.5t-150 -64.5l-35 -44q36 -5 58 -28.5t14 -66.5q-24 -115 -183 -115q-36 0 -62.5 2t-34.5 4l-8 1l19 89q16 -6 66 -6q51 0 59 37
q3 14 -4 22.5t-24.5 11.5t-29.5 4t-33 1h-1l66 89q-194 34 -141 284q15 73 36.5 122.5t58 89t93.5 58t137 18.5q117 0 169 -59t34 -169z" />
    <glyph glyph-name="egrave" unicode="&#xe8;" horiz-adv-x="613" 
d="M439 613h-141l-78 175h169zM549 237h-359q-13 -75 1 -105t66 -30q44 0 74 23.5t39 53.5h165q-8 -39 -27 -71t-52.5 -61.5t-90.5 -46t-132 -16.5q-132 0 -182 74t-20 213q15 73 36.5 123.5t58 90t93 58.5t135.5 19q263 0 195 -325zM330 448q-79 0 -116 -110h190
q5 60 -11.5 85t-62.5 25z" />
    <glyph glyph-name="eacute" unicode="&#xe9;" horiz-adv-x="613" 
d="M583 788l-151 -175h-142l124 175h169zM354 562q263 0 195 -325h-359q-13 -75 1 -105t66 -30q44 0 74 23.5t39 53.5h165q-8 -39 -27 -71t-52.5 -61.5t-90.5 -46t-132 -16.5q-132 0 -182 74t-20 213q15 73 36.5 123.5t58 90t93 58.5t135.5 19zM214 338h190q5 60 -11.5 85
t-62.5 25q-79 0 -116 -110z" />
    <glyph glyph-name="ecircumflex" unicode="&#xea;" horiz-adv-x="613" 
d="M384 684l-71 -72h-147l164 174h140l93 -174h-139zM354 562q263 0 195 -325h-359q-13 -75 1 -105t66 -30q44 0 74 23.5t39 53.5h165q-8 -39 -27 -71t-52.5 -61.5t-90.5 -46t-132 -16.5q-132 0 -182 74t-20 213q15 73 36.5 123.5t58 90t93 58.5t135.5 19zM214 338h190
q5 60 -11.5 85t-62.5 25q-79 0 -116 -110z" />
    <glyph glyph-name="edieresis" unicode="&#xeb;" horiz-adv-x="613" 
d="M371 766l-33 -152h-159l33 152h159zM583 766l-32 -152h-160l33 152h159zM354 562q263 0 195 -325h-359q-13 -75 1 -105t66 -30q44 0 74 23.5t39 53.5h165q-8 -39 -27 -71t-52.5 -61.5t-90.5 -46t-132 -16.5q-132 0 -182 74t-20 213q15 73 36.5 123.5t58 90t93 58.5
t135.5 19zM214 338h190q5 60 -11.5 85t-62.5 25q-79 0 -116 -110z" />
    <glyph glyph-name="igrave" unicode="&#xec;" horiz-adv-x="275" 
d="M268 611h-141l-78 175h169zM-18 0l114 546h164l-114 -546h-164z" />
    <glyph glyph-name="iacute" unicode="&#xed;" horiz-adv-x="275" 
d="M119 611l124 175h169l-151 -175h-142zM-18 0l114 546h164l-114 -546h-164z" />
    <glyph glyph-name="icircumflex" unicode="&#xee;" horiz-adv-x="275" 
d="M213 682l-71 -72h-147l164 174h140l93 -174h-139zM-18 0l114 546h164l-114 -546h-164z" />
    <glyph glyph-name="idieresis" unicode="&#xef;" horiz-adv-x="275" 
d="M8 612l33 152h159l-33 -152h-159zM220 612l33 152h159l-32 -152h-160zM-18 0l114 546h164l-114 -546h-164z" />
    <glyph glyph-name="eth" unicode="&#xf0;" horiz-adv-x="628" 
d="M571 697l-73 -34q108 -194 68 -400h-1q-27 -137 -103.5 -208t-222.5 -71q-268 0 -208 288q27 130 98 200t212 70q18 0 35 -5q-10 30 -24 57l-84 -39l-27 65l77 36q-18 29 -38.5 55t-31.5 37l-11 12h193q12 -13 30 -38l85 40zM265 111q51 0 83 35.5t49 116.5q14 64 9 132
q-13 40 -74 40q-51 0 -83.5 -38.5t-50.5 -124.5q-21 -88 -7 -124.5t74 -36.5z" />
    <glyph glyph-name="ntilde" unicode="&#xf1;" horiz-adv-x="647" 
d="M350 653q-26 0 -43 -15t-19 -27h-76q16 75 50 114.5t96 39.5q33 0 63.5 -16.5t49.5 -16.5q27 0 43.5 14.5t18.5 26.5h78q-18 -84 -50 -121t-94 -37q-34 0 -66 19t-51 19zM438 561q98 0 132.5 -53t7.5 -181l-70 -327h-164l67 311q4 19 6 29.5t3 25t-2 22.5t-8.5 16
t-17.5 11.5t-29 3.5q-68 0 -127 -82l-71 -337h-164l83 394l25 152h136l1 -76q26 33 75 62t117 29z" />
    <glyph glyph-name="ograve" unicode="&#xf2;" horiz-adv-x="623" 
d="M440 613h-141l-78 175h169zM237 -16q-132 0 -183.5 76t-23.5 212q30 145 103 217.5t225 72.5q132 0 184 -77t24 -213q-30 -144 -103 -216t-226 -72zM264 111q52 0 84 37.5t50 123.5q20 87 6.5 125t-74.5 38q-51 0 -83 -38.5t-51 -124.5q-20 -88 -6 -124.5t74 -36.5z" />
    <glyph glyph-name="oacute" unicode="&#xf3;" horiz-adv-x="623" 
d="M291 613l124 175h169l-151 -175h-142zM237 -16q-132 0 -183.5 76t-23.5 212q30 145 103 217.5t225 72.5q132 0 184 -77t24 -213q-30 -144 -103 -216t-226 -72zM264 111q52 0 84 37.5t50 123.5q20 87 6.5 125t-74.5 38q-51 0 -83 -38.5t-51 -124.5q-20 -88 -6 -124.5
t74 -36.5z" />
    <glyph glyph-name="ocircumflex" unicode="&#xf4;" horiz-adv-x="623" 
d="M385 684l-71 -72h-147l164 174h140l93 -174h-139zM358 562q132 0 184 -77t24 -213q-30 -144 -103 -216t-226 -72q-132 0 -183.5 76t-23.5 212q30 145 103 217.5t225 72.5zM398 272q20 87 6.5 125t-74.5 38q-51 0 -83 -38.5t-51 -124.5q-20 -88 -6 -124.5t74 -36.5
q52 0 84 37.5t50 123.5z" />
    <glyph glyph-name="otilde" unicode="&#xf5;" horiz-adv-x="623" 
d="M505 775h78q-18 -84 -50 -121t-94 -37q-34 0 -66 19t-51 19q-26 0 -43 -15t-19 -27h-76q16 75 50 114.5t96 39.5q33 0 63.5 -16.5t49.5 -16.5q27 0 43.5 14.5t18.5 26.5zM237 -16q-132 0 -183.5 76t-23.5 212q30 145 103 217.5t225 72.5q132 0 184 -77t24 -213
q-30 -144 -103 -216t-226 -72zM264 111q52 0 84 37.5t50 123.5q20 87 6.5 125t-74.5 38q-51 0 -83 -38.5t-51 -124.5q-20 -88 -6 -124.5t74 -36.5z" />
    <glyph glyph-name="odieresis" unicode="&#xf6;" horiz-adv-x="623" 
d="M180 614l33 152h159l-33 -152h-159zM392 614l33 152h159l-32 -152h-160zM237 -16q-132 0 -183.5 76t-23.5 212q30 145 103 217.5t225 72.5q132 0 184 -77t24 -213q-30 -144 -103 -216t-226 -72zM264 111q52 0 84 37.5t50 123.5q20 87 6.5 125t-74.5 38q-51 0 -83 -38.5
t-51 -124.5q-20 -88 -6 -124.5t74 -36.5z" />
    <glyph glyph-name="divide" unicode="&#xf7;" horiz-adv-x="554" 
d="M220 432l29 142h152l-30 -142h-151zM32 273l27 124h458l-26 -124h-459zM148 97l30 141h152l-30 -141h-152z" />
    <glyph glyph-name="oslash" unicode="&#xf8;" horiz-adv-x="623" 
d="M614 556l-70 -74q50 -75 22 -210q-30 -144 -103 -216t-226 -72q-82 0 -133 30l-27 -29h-104l76 81q-46 75 -19 206q30 145 103 217.5t225 72.5q79 0 131 -29l21 23h104zM196 272q-7 -30 -10 -61l199 212q-20 12 -55 12q-51 0 -83 -38.5t-51 -124.5zM398 272q9 43 11 66
l-201 -214q17 -13 56 -13q52 0 84 37.5t50 123.5z" />
    <glyph glyph-name="ugrave" unicode="&#xf9;" horiz-adv-x="639" 
d="M443 611h-141l-78 175h169zM443 546h164l-83 -394l-25 -152h-136l-1 77q-76 -92 -195 -92q-92 0 -127.5 52.5t-10.5 173.5l72 335h163l-66 -310q-13 -66 -7 -84q10 -26 52 -26q67 0 130 85z" />
    <glyph glyph-name="uacute" unicode="&#xfa;" horiz-adv-x="639" 
d="M587 786l-151 -175h-142l124 175h169zM443 546h164l-83 -394l-25 -152h-136l-1 77q-76 -92 -195 -92q-92 0 -127.5 52.5t-10.5 173.5l72 335h163l-66 -310q-13 -66 -7 -84q10 -26 52 -26q67 0 130 85z" />
    <glyph glyph-name="ucircumflex" unicode="&#xfb;" horiz-adv-x="639" 
d="M388 682l-71 -72h-147l164 174h140l93 -174h-139zM443 546h164l-83 -394l-25 -152h-136l-1 77q-76 -92 -195 -92q-92 0 -127.5 52.5t-10.5 173.5l72 335h163l-66 -310q-13 -66 -7 -84q10 -26 52 -26q67 0 130 85z" />
    <glyph glyph-name="udieresis" unicode="&#xfc;" horiz-adv-x="639" 
d="M375 764l-33 -152h-159l33 152h159zM587 764l-32 -152h-160l33 152h159zM443 546h164l-83 -394l-25 -152h-136l-1 77q-76 -92 -195 -92q-92 0 -127.5 52.5t-10.5 173.5l72 335h163l-66 -310q-13 -66 -7 -84q10 -26 52 -26q67 0 130 85z" />
    <glyph glyph-name="yacute" unicode="&#xfd;" horiz-adv-x="572" 
d="M548 786l-151 -175h-142l124 175h169zM433 546h179l-421 -770h-156l116 224h-38l-77 546h163l32 -392z" />
    <glyph glyph-name="thorn" unicode="&#xfe;" horiz-adv-x="645" 
d="M428 558q217 0 157 -285q-30 -144 -95.5 -214.5t-180.5 -70.5q-95 0 -139 51l-58 -279h-162l209 1000h162l-56 -266q71 64 163 64zM417 273q19 80 7 119t-64 39q-68 0 -125 -81l-33 -158q10 -77 93 -77q48 0 76.5 38t45.5 120z" />
    <glyph glyph-name="ydieresis" unicode="&#xff;" horiz-adv-x="572" 
d="M336 764l-33 -152h-159l33 152h159zM548 764l-32 -152h-160l33 152h159zM433 546h179l-421 -770h-156l116 224h-38l-77 546h163l32 -392z" />
    <glyph glyph-name="Amacron" unicode="&#x100;" horiz-adv-x="673" 
d="M616 900l-26 -120h-309l26 120h309zM344 721h161l108 -721h-179l-12 137h-240l-71 -137h-179zM255 277h156l-22 259z" />
    <glyph glyph-name="amacron" unicode="&#x101;" horiz-adv-x="604" 
d="M541 746l-25 -116h-309l25 116h309zM336 558q108 0 157.5 -36t50 -100t-16.5 -152l-26 -121l-23 -148h-136l-3 52q-61 -66 -177 -66q-92 0 -134.5 42.5t-25.5 129.5q8 36 22.5 63t30.5 45t45 30.5t52.5 19t66 9.5t72.5 3.5t84 0.5q16 60 5.5 87t-60.5 27q-45 0 -70.5 -22
t-31.5 -50h-146q5 27 10.5 45t24 47.5t44 47.5t73.5 32t112 14zM223 92q76 0 116 67l16 77q-99 0 -141 -14.5t-53 -65.5q-6 -29 9 -46.5t53 -17.5z" />
    <glyph glyph-name="Abreve" unicode="&#x102;" horiz-adv-x="673" 
d="M433 761q-83 0 -121.5 45.5t-24.5 111.5h123q-5 -19 8 -33.5t38 -14.5t44 14.5t24 33.5h121q-34 -157 -212 -157zM344 721h161l108 -721h-179l-12 137h-240l-71 -137h-179zM255 277h156l-22 259z" />
    <glyph glyph-name="abreve" unicode="&#x103;" horiz-adv-x="604" 
d="M358 606q-81 0 -121.5 46t-25.5 116h125q-4 -20 8 -35t38 -15t45.5 15t23.5 35h122q-15 -74 -67.5 -118t-147.5 -44zM336 558q108 0 157.5 -36t50 -100t-16.5 -152l-26 -121l-23 -148h-136l-3 52q-61 -66 -177 -66q-92 0 -134.5 42.5t-25.5 129.5q8 36 22.5 63t30.5 45
t45 30.5t52.5 19t66 9.5t72.5 3.5t84 0.5q16 60 5.5 87t-60.5 27q-45 0 -70.5 -22t-31.5 -50h-146q5 27 10.5 45t24 47.5t44 47.5t73.5 32t112 14zM223 92q76 0 116 67l16 77q-99 0 -141 -14.5t-53 -65.5q-6 -29 9 -46.5t53 -17.5z" />
    <glyph glyph-name="Aogonek" unicode="&#x104;" horiz-adv-x="673" 
d="M467 -86q-3 -12 2.5 -21.5t20.5 -9.5q10 0 22.5 3.5t19.5 6.5l7 3l-18 -83q0 -2 -13.5 -8.5t-44.5 -14.5t-67 -8q-53 0 -72 25t-11 62q3 12 8 24t11 22t13.5 20t15 17.5t16.5 15.5t15.5 13t14.5 10.5t12.5 8t8.5 5.5l5 3l-11 129h-240l-71 -137h-179l412 721h161
l108 -721h-71q-64 -34 -75 -86zM255 277h156l-22 259z" />
    <glyph glyph-name="aogonek" unicode="&#x105;" horiz-adv-x="604" 
d="M336 558q108 0 157.5 -36t50 -100t-16.5 -152l-26 -121l-23 -148h-15q-66 -33 -77 -87q-3 -12 2.5 -21.5t20.5 -9.5q10 0 22.5 3.5t19.5 6.5l7 3l-18 -83q0 -2 -13.5 -8.5t-44.5 -14.5t-67 -8q-53 0 -72 25t-11 62q17 78 110 133l-3 51q-61 -66 -177 -66
q-92 0 -134.5 42.5t-25.5 129.5q8 36 22.5 63t30.5 45t45 30.5t52.5 19t66 9.5t72.5 3.5t84 0.5q16 60 5.5 87t-60.5 27q-45 0 -70.5 -22t-31.5 -50h-146q5 27 10.5 45t24 47.5t44 47.5t73.5 32t112 14zM223 92q76 0 116 67l16 77q-99 0 -141 -14.5t-53 -65.5
q-6 -29 9 -46.5t53 -17.5z" />
    <glyph glyph-name="Cacute" unicode="&#x106;" horiz-adv-x="682" 
d="M372 784l122 169h174l-149 -169h-147zM278 -20q-148 0 -206 91t-17 288q43 204 130 292.5t251 88.5q131 0 192 -71t30 -222h-168q13 83 -5.5 114t-79.5 31q-66 0 -107 -51.5t-68 -181.5q-27 -133 -11 -181.5t90 -48.5q53 0 89 32.5t56 114.5h168q-35 -159 -116.5 -227.5
t-227.5 -68.5z" />
    <glyph glyph-name="cacute" unicode="&#x107;" horiz-adv-x="599" 
d="M290 613l124 175h169l-151 -175h-142zM235 -16q-133 0 -183.5 74.5t-20.5 214.5q15 73 36.5 122.5t58 89t93.5 58t137 18.5q117 0 169 -59t34 -169h-160q8 53 -7.5 77t-62.5 24q-50 0 -82 -38t-50 -123q-19 -88 -6 -124.5t72 -36.5q36 0 66 22.5t41 64.5h162
q-30 -110 -95.5 -162.5t-201.5 -52.5z" />
    <glyph glyph-name="Ccircumflex" unicode="&#x108;" horiz-adv-x="682" 
d="M461 844l-68 -60h-139l143 155h159l81 -155h-133zM658 447h-168q13 83 -5.5 114t-79.5 31q-66 0 -107 -51.5t-68 -181.5q-27 -133 -11 -181.5t90 -48.5q53 0 89 32.5t56 114.5h168q-35 -159 -116.5 -227.5t-227.5 -68.5q-148 0 -206 91t-17 288q43 204 130 292.5
t251 88.5q131 0 192 -71t30 -222z" />
    <glyph glyph-name="ccircumflex" unicode="&#x109;" horiz-adv-x="599" 
d="M384 684l-71 -72h-147l164 174h140l93 -174h-139zM559 333h-160q8 53 -7.5 77t-62.5 24q-50 0 -82 -38t-50 -123q-19 -88 -6 -124.5t72 -36.5q36 0 66 22.5t41 64.5h162q-30 -110 -95.5 -162.5t-201.5 -52.5q-133 0 -183.5 74.5t-20.5 214.5q15 73 36.5 122.5t58 89
t93.5 58t137 18.5q117 0 169 -59t34 -169z" />
    <glyph glyph-name="Cdotaccent" unicode="&#x10a;" horiz-adv-x="682" 
d="M363 784l32 153h164l-32 -153h-164zM278 -20q-148 0 -206 91t-17 288q43 204 130 292.5t251 88.5q131 0 192 -71t30 -222h-168q13 83 -5.5 114t-79.5 31q-66 0 -107 -51.5t-68 -181.5q-27 -133 -11 -181.5t90 -48.5q53 0 89 32.5t56 114.5h168q-35 -159 -116.5 -227.5
t-227.5 -68.5z" />
    <glyph glyph-name="cdotaccent" unicode="&#x10b;" horiz-adv-x="599" 
d="M284 614l33 152h164l-33 -152h-164zM235 -16q-133 0 -183.5 74.5t-20.5 214.5q15 73 36.5 122.5t58 89t93.5 58t137 18.5q117 0 169 -59t34 -169h-160q8 53 -7.5 77t-62.5 24q-50 0 -82 -38t-50 -123q-19 -88 -6 -124.5t72 -36.5q36 0 66 22.5t41 64.5h162
q-30 -110 -95.5 -162.5t-201.5 -52.5z" />
    <glyph glyph-name="Ccaron" unicode="&#x10c;" horiz-adv-x="682" 
d="M523 784h-159l-78 155h130l44 -60l68 60h141zM436 740q131 0 192 -71t30 -222h-168q13 83 -5.5 114t-79.5 31q-66 0 -107 -51.5t-68 -181.5q-27 -133 -11 -181.5t90 -48.5q53 0 89 32.5t56 114.5h168q-35 -159 -116.5 -227.5t-227.5 -68.5q-148 0 -206 91t-17 288
q43 204 130 292.5t251 88.5z" />
    <glyph glyph-name="ccaron" unicode="&#x10d;" horiz-adv-x="599" 
d="M433 612h-140l-90 174h137l42 -71l70 71h147zM356 561q117 0 169 -59t34 -169h-160q8 53 -7.5 77t-62.5 24q-50 0 -82 -38t-50 -123q-19 -88 -6 -124.5t72 -36.5q36 0 66 22.5t41 64.5h162q-30 -110 -95.5 -162.5t-201.5 -52.5q-133 0 -183.5 74.5t-20.5 214.5
q15 73 36.5 122.5t58 89t93.5 58t137 18.5z" />
    <glyph glyph-name="Dcaron" unicode="&#x10e;" horiz-adv-x="705" 
d="M500 769h-159l-78 155h130l44 -60l68 60h141zM154 722h215q206 0 267.5 -80.5t19.5 -282.5q-22 -106 -48.5 -169.5t-75.5 -109.5t-123.5 -64t-190.5 -18h-214zM483 359q11 53 15 87.5t-1 59.5t-14 38.5t-34 21t-51 9.5t-73 2h-29l-89 -430h29q63 0 97.5 5.5t66 27t50 64
t33.5 115.5z" />
    <glyph glyph-name="dcaron" unicode="&#x10f;" horiz-adv-x="643" 
d="M501 760h164l-126 -604l-27 -156h-136l-1 59q-69 -71 -185 -71q-107 0 -147 72.5t-11 212.5q29 143 95.5 214t181.5 71q88 0 138 -57zM257 115q87 0 126 80l33 158q-19 78 -93 78q-48 0 -77.5 -38.5t-46.5 -119.5t-3.5 -119.5t61.5 -38.5zM747 760h144l-148 -212h-111z
" />
    <glyph glyph-name="Dcroat" unicode="&#x110;" horiz-adv-x="705" 
d="M154 722h215q206 0 267.5 -80.5t19.5 -282.5q-22 -106 -48.5 -169.5t-75.5 -109.5t-123.5 -64t-190.5 -18h-214l66 320h-47l21 97h46zM483 359q11 53 15 87.5t-1 59.5t-14 38.5t-34 21t-51 9.5t-73 2h-29l-34 -162h128l-19 -97h-129l-35 -171h29q63 0 97.5 5.5t66 27
t50 64t33.5 115.5z" />
    <glyph glyph-name="dcroat" unicode="&#x111;" horiz-adv-x="643" 
d="M707 681l-19 -97h-60l-89 -428l-27 -156h-136l-1 59q-69 -71 -185 -71q-107 0 -147 72.5t-11 212.5q29 143 95.5 214t181.5 71q88 0 138 -57l17 83h-124l21 97h124l16 79h164l-16 -79h58zM257 115q87 0 126 80l33 158q-19 78 -93 78q-48 0 -77.5 -38.5t-46.5 -119.5
t-3.5 -119.5t61.5 -38.5z" />
    <glyph glyph-name="Emacron" unicode="&#x112;" horiz-adv-x="607" 
d="M585 900l-26 -120h-309l26 120h309zM615 575h-320l-29 -139h272l-30 -137h-271l-32 -153h328l-31 -146h-498l150 721h491z" />
    <glyph glyph-name="emacron" unicode="&#x113;" horiz-adv-x="613" 
d="M548 748l-25 -116h-309l25 116h309zM549 237h-359q-13 -75 1 -105t66 -30q44 0 74 23.5t39 53.5h165q-8 -39 -27 -71t-52.5 -61.5t-90.5 -46t-132 -16.5q-132 0 -182 74t-20 213q15 73 36.5 123.5t58 90t93 58.5t135.5 19q263 0 195 -325zM330 448q-79 0 -116 -110h190
q5 60 -11.5 85t-62.5 25z" />
    <glyph glyph-name="Ebreve" unicode="&#x114;" horiz-adv-x="607" 
d="M402 761q-83 0 -121.5 45.5t-24.5 111.5h123q-5 -19 8 -33.5t38 -14.5t44 14.5t24 33.5h121q-34 -157 -212 -157zM615 575h-320l-29 -139h272l-30 -137h-271l-32 -153h328l-31 -146h-498l150 721h491z" />
    <glyph glyph-name="ebreve" unicode="&#x115;" horiz-adv-x="613" 
d="M365 608q-81 0 -121.5 46t-25.5 116h125q-4 -20 8 -35t38 -15t45.5 15t23.5 35h122q-15 -74 -67.5 -118t-147.5 -44zM354 562q263 0 195 -325h-359q-13 -75 1 -105t66 -30q44 0 74 23.5t39 53.5h165q-8 -39 -27 -71t-52.5 -61.5t-90.5 -46t-132 -16.5q-132 0 -182 74
t-20 213q15 73 36.5 123.5t58 90t93 58.5t135.5 19zM214 338h190q5 60 -11.5 85t-62.5 25q-79 0 -116 -110z" />
    <glyph glyph-name="Edotaccent" unicode="&#x116;" horiz-adv-x="607" 
d="M517 917l-32 -153h-164l32 153h164zM615 575h-320l-29 -139h272l-30 -137h-271l-32 -153h328l-31 -146h-498l150 721h491z" />
    <glyph glyph-name="edotaccent" unicode="&#x117;" horiz-adv-x="613" 
d="M481 766l-33 -152h-164l33 152h164zM549 237h-359q-13 -75 1 -105t66 -30q44 0 74 23.5t39 53.5h165q-8 -39 -27 -71t-52.5 -61.5t-90.5 -46t-132 -16.5q-132 0 -182 74t-20 213q15 73 36.5 123.5t58 90t93 58.5t135.5 19q263 0 195 -325zM330 448q-79 0 -116 -110h190
q5 60 -11.5 85t-62.5 25z" />
    <glyph glyph-name="Eogonek" unicode="&#x118;" horiz-adv-x="607" 
d="M615 575h-320l-29 -139h272l-30 -137h-271l-32 -153h328l-31 -146q-3 -1 -7.5 -3.5t-16.5 -11t-22 -17.5t-20 -24.5t-13 -31.5q-3 -12 2.5 -21.5t20.5 -9.5q10 0 22.5 3.5t19.5 6.5l7 3l-18 -83q0 -2 -13.5 -8.5t-44.5 -14.5t-67 -8q-53 0 -72 25t-11 62q16 75 110 133
h-375l150 721h491z" />
    <glyph glyph-name="eogonek" unicode="&#x119;" horiz-adv-x="613" 
d="M549 237h-359q-13 -75 1 -105t66 -30q44 0 74 23.5t39 53.5h165q-24 -119 -137 -166q-44 -31 -53 -73q-3 -12 2.5 -21.5t20.5 -9.5q10 0 22.5 3.5t19.5 6.5l7 3l-18 -83q0 -2 -13.5 -8.5t-44.5 -14.5t-67 -8q-53 0 -72 25t-11 62q10 46 53 89h-11q-132 0 -182 74t-20 213
q15 73 36.5 123.5t58 90t93 58.5t135.5 19q263 0 195 -325zM330 448q-79 0 -116 -110h190q5 60 -11.5 85t-62.5 25z" />
    <glyph glyph-name="Ecaron" unicode="&#x11a;" horiz-adv-x="607" 
d="M481 764h-159l-78 155h130l44 -60l68 60h141zM615 575h-320l-29 -139h272l-30 -137h-271l-32 -153h328l-31 -146h-498l150 721h491z" />
    <glyph glyph-name="ecaron" unicode="&#x11b;" horiz-adv-x="613" 
d="M433 612h-140l-90 174h137l42 -71l70 71h147zM354 562q263 0 195 -325h-359q-13 -75 1 -105t66 -30q44 0 74 23.5t39 53.5h165q-8 -39 -27 -71t-52.5 -61.5t-90.5 -46t-132 -16.5q-132 0 -182 74t-20 213q15 73 36.5 123.5t58 90t93 58.5t135.5 19zM214 338h190
q5 60 -11.5 85t-62.5 25q-79 0 -116 -110z" />
    <glyph glyph-name="Gcircumflex" unicode="&#x11c;" horiz-adv-x="692" 
d="M461 846l-68 -60h-139l143 155h159l81 -155h-133zM661 466h-165q12 69 -8.5 98.5t-81.5 29.5q-65 0 -106.5 -52.5t-69.5 -182.5q-28 -134 -8.5 -184.5t100.5 -50.5q47 0 82.5 17.5t38.5 31.5l16 72h-105l27 127h260l-57 -275q-1 -7 -12 -19.5t-36 -29.5t-58.5 -32
t-86 -25.5t-112.5 -10.5q-150 -1 -207.5 89t-15.5 290q44 207 130.5 294t250.5 87q137 0 194.5 -69t29.5 -205z" />
    <glyph glyph-name="gcircumflex" unicode="&#x11d;" horiz-adv-x="649" 
d="M395 682l-71 -72h-147l164 174h140l93 -174h-139zM489 546h136l-40 -165l-80 -383q-17 -83 -33 -114q-63 -124 -285 -124q-66 0 -110.5 19.5t-61 47t-23 55t-4.5 46.5l3 20h151q-6 -40 14 -56t63 -16q64 0 86.5 27.5t35.5 92.5l9 43q-63 -50 -162 -50q-107 0 -147 72.5
t-11 211.5q30 143 96 214t180 71q60 0 97 -28.5t53 -60.5zM255 116q89 0 128 83l31 152q-19 80 -94 80q-91 0 -123 -158q-17 -81 -3 -119t61 -38z" />
    <glyph glyph-name="Gbreve" unicode="&#x11e;" horiz-adv-x="692" 
d="M444 783q-83 0 -121.5 45.5t-24.5 111.5h123q-5 -19 8 -33.5t38 -14.5t44 14.5t24 33.5h121q-34 -157 -212 -157zM661 466h-165q12 69 -8.5 98.5t-81.5 29.5q-65 0 -106.5 -52.5t-69.5 -182.5q-28 -134 -8.5 -184.5t100.5 -50.5q47 0 82.5 17.5t38.5 31.5l16 72h-105
l27 127h260l-57 -275q-1 -7 -12 -19.5t-36 -29.5t-58.5 -32t-86 -25.5t-112.5 -10.5q-150 -1 -207.5 89t-15.5 290q44 207 130.5 294t250.5 87q137 0 194.5 -69t29.5 -205z" />
    <glyph glyph-name="gbreve" unicode="&#x11f;" horiz-adv-x="649" 
d="M376 606q-81 0 -121.5 46t-25.5 116h125q-4 -20 8 -35t38 -15t45.5 15t23.5 35h122q-15 -74 -67.5 -118t-147.5 -44zM489 546h136l-40 -165l-80 -383q-17 -83 -33 -114q-63 -124 -285 -124q-66 0 -110.5 19.5t-61 47t-23 55t-4.5 46.5l3 20h151q-6 -40 14 -56t63 -16
q64 0 86.5 27.5t35.5 92.5l9 43q-63 -50 -162 -50q-107 0 -147 72.5t-11 211.5q30 143 96 214t180 71q60 0 97 -28.5t53 -60.5zM255 116q89 0 128 83l31 152q-19 80 -94 80q-91 0 -123 -158q-17 -81 -3 -119t61 -38z" />
    <glyph glyph-name="Gdotaccent" unicode="&#x120;" horiz-adv-x="692" 
d="M559 939l-32 -153h-164l32 153h164zM661 466h-165q12 69 -8.5 98.5t-81.5 29.5q-65 0 -106.5 -52.5t-69.5 -182.5q-28 -134 -8.5 -184.5t100.5 -50.5q47 0 82.5 17.5t38.5 31.5l16 72h-105l27 127h260l-57 -275q-1 -7 -12 -19.5t-36 -29.5t-58.5 -32t-86 -25.5
t-112.5 -10.5q-150 -1 -207.5 89t-15.5 290q44 207 130.5 294t250.5 87q137 0 194.5 -69t29.5 -205z" />
    <glyph glyph-name="gdotaccent" unicode="&#x121;" horiz-adv-x="649" 
d="M492 764l-33 -152h-164l33 152h164zM489 546h136l-40 -165l-80 -383q-17 -83 -33 -114q-63 -124 -285 -124q-66 0 -110.5 19.5t-61 47t-23 55t-4.5 46.5l3 20h151q-6 -40 14 -56t63 -16q64 0 86.5 27.5t35.5 92.5l9 43q-63 -50 -162 -50q-107 0 -147 72.5t-11 211.5
q30 143 96 214t180 71q60 0 97 -28.5t53 -60.5zM255 116q89 0 128 83l31 152q-19 80 -94 80q-91 0 -123 -158q-17 -81 -3 -119t61 -38z" />
    <glyph glyph-name="Gcommaaccent" unicode="&#x122;" horiz-adv-x="692" 
d="M661 466h-165q12 69 -8.5 98.5t-81.5 29.5q-65 0 -106.5 -52.5t-69.5 -182.5q-28 -134 -8.5 -184.5t100.5 -50.5q47 0 82.5 17.5t38.5 31.5l16 72h-105l27 127h260l-57 -275q-1 -7 -12 -19.5t-36 -29.5t-58.5 -32t-86 -25.5t-112.5 -10.5q-150 -1 -207.5 89t-15.5 290
q44 207 130.5 294t250.5 87q137 0 194.5 -69t29.5 -205zM166 -178q15 31 25.5 59t14.5 41l3 12h152q-17 -56 -55 -124q-21 -39 -43.5 -69.5t-34.5 -42.5l-11 -11h-126q40 58 75 135z" />
    <glyph glyph-name="gcommaaccent" unicode="&#x123;" horiz-adv-x="649" 
d="M470 725q-16 -38 -27.5 -70t-14.5 -45l-4 -13h-157q16 56 58 140q21 42 44.5 76.5t36.5 48.5l12 14h131q-45 -68 -79 -151zM489 546h136l-40 -165l-80 -383q-17 -83 -33 -114q-63 -124 -285 -124q-66 0 -110.5 19.5t-61 47t-23 55t-4.5 46.5l3 20h151q-6 -40 14 -56
t63 -16q64 0 86.5 27.5t35.5 92.5l9 43q-63 -50 -162 -50q-107 0 -147 72.5t-11 211.5q30 143 96 214t180 71q60 0 97 -28.5t53 -60.5zM255 116q89 0 128 83l31 152q-19 80 -94 80q-91 0 -123 -158q-17 -81 -3 -119t61 -38z" />
    <glyph glyph-name="Hcircumflex" unicode="&#x124;" horiz-adv-x="719" 
d="M464 824l-68 -60h-139l143 155h159l81 -155h-133zM552 721h172l-151 -721h-171l60 287h-226l-60 -287h-172l150 721h172l-57 -276h226z" />
    <glyph glyph-name="hcircumflex" unicode="&#x125;" horiz-adv-x="647" 
d="M260 859l-68 -60h-139l143 155h159l81 -155h-133zM438 561q97 0 132 -53.5t8 -180.5l-70 -327h-164l67 311q5 22 7.5 34.5t2 28.5t-5.5 24.5t-18 14.5t-33 6q-74 0 -136 -94l-68 -325h-164l159 760h164l-57 -272q73 73 176 73z" />
    <glyph glyph-name="Hbar" unicode="&#x126;" horiz-adv-x="719" 
d="M775 635l-22 -106h-69l-111 -529h-171l60 287h-226l-60 -287h-172l110 529h-70l21 106h71l18 86h172l-18 -86h226l18 86h172l-18 -86h69zM495 445l17 84h-226l-17 -84h226z" />
    <glyph glyph-name="hbar" unicode="&#x127;" horiz-adv-x="647" 
d="M438 561q97 0 132 -53.5t8 -180.5l-70 -327h-164l67 311q5 22 7.5 34.5t2 28.5t-5.5 24.5t-18 14.5t-33 6q-74 0 -136 -94l-68 -325h-164l123 590h-58l21 97h58l15 73h164l-15 -73h124l-19 -97h-126l-21 -102q73 73 176 73z" />
    <glyph glyph-name="Itilde" unicode="&#x128;" horiz-adv-x="321" 
d="M389 933h77q-17 -85 -50 -125.5t-95 -40.5q-33 0 -65.5 19t-51.5 19q-26 0 -42.5 -14.5t-18.5 -26.5h-76q33 161 146 161q33 0 64 -16.5t50 -16.5q26 0 43 14.5t19 26.5zM4 0l150 721h172l-150 -721h-172z" />
    <glyph glyph-name="itilde" unicode="&#x129;" horiz-adv-x="275" 
d="M333 773h78q-18 -84 -50 -121t-94 -37q-34 0 -66 19t-51 19q-26 0 -43 -15t-19 -27h-76q16 75 50 114.5t96 39.5q33 0 63.5 -16.5t49.5 -16.5q27 0 43.5 14.5t18.5 26.5zM-18 0l114 546h164l-114 -546h-164z" />
    <glyph glyph-name="Imacron" unicode="&#x12a;" horiz-adv-x="321" 
d="M123 900h309l-26 -120h-309zM4 0l150 721h172l-150 -721h-172z" />
    <glyph glyph-name="imacron" unicode="&#x12b;" horiz-adv-x="275" 
d="M68 746h309l-25 -116h-309zM-18 0l114 546h164l-114 -546h-164z" />
    <glyph glyph-name="Ibreve" unicode="&#x12c;" horiz-adv-x="321" 
d="M340 918h121q-34 -157 -212 -157q-83 0 -121.5 45.5t-24.5 111.5h123q-5 -19 8 -33.5t38 -14.5t44 14.5t24 33.5zM4 0l150 721h172l-150 -721h-172z" />
    <glyph glyph-name="ibreve" unicode="&#x12d;" horiz-adv-x="275" 
d="M287 768h122q-15 -74 -67.5 -118t-147.5 -44q-81 0 -121.5 46t-25.5 116h125q-4 -20 8 -35t38 -15t45.5 15t23.5 35zM-18 0l114 546h164l-114 -546h-164z" />
    <glyph glyph-name="Iogonek" unicode="&#x12e;" horiz-adv-x="321" 
d="M176 0h-54q-64 -34 -75 -86q-3 -12 2.5 -21.5t20.5 -9.5q10 0 22.5 3.5t19.5 6.5l7 3l-18 -83q0 -2 -13.5 -8.5t-44.5 -14.5t-67 -8q-53 0 -72 25t-11 62q7 33 31 63.5t43 45t38 25.5l149 718h172z" />
    <glyph glyph-name="iogonek" unicode="&#x12f;" horiz-adv-x="275" 
d="M146 764h164l-33 -152h-164zM-18 1l114 545h164l-114 -546h-44q-64 -34 -75 -86q-3 -12 2.5 -21.5t20.5 -9.5q10 0 22.5 3.5t19.5 6.5l7 3l-18 -83q0 -2 -13.5 -8.5t-44.5 -14.5t-67 -8q-53 0 -72 25t-11 62q17 77 109 132z" />
    <glyph glyph-name="Idotaccent" unicode="&#x130;" horiz-adv-x="321" 
d="M168 764l32 153h164l-32 -153h-164zM4 0l150 721h172l-150 -721h-172z" />
    <glyph glyph-name="dotlessi" unicode="&#x131;" horiz-adv-x="275" 
d="M-18 0l114 546h164l-114 -546h-164z" />
    <glyph glyph-name="IJ" unicode="&#x132;" horiz-adv-x="790" 
d="M4 0l150 721h172l-150 -721h-172zM340 0h-73l33 156h73q61 0 89.5 12t48.5 50.5t38 126.5l78 376h172l-77 -376q-13 -62 -23 -101t-25.5 -80t-33.5 -64t-44.5 -45t-62.5 -32.5t-83 -16.5t-110 -6z" />
    <glyph glyph-name="ij" unicode="&#x133;" horiz-adv-x="583" 
d="M113 612l33 152h164l-33 -152h-164zM403 612l33 152h164l-33 -152h-164zM-18 0l114 546h164l-114 -546h-164zM114 -229l30 138q42 0 67 6.5t40 28t22 43.5t17 72l101 487h164l-101 -487q-14 -70 -28 -112t-37.5 -80t-58.5 -56.5t-87.5 -29t-128.5 -10.5z" />
    <glyph glyph-name="Jcircumflex" unicode="&#x134;" horiz-adv-x="469" 
d="M326 824l-68 -60h-139l143 155h159l81 -155h-133zM228 345l78 376h172l-77 -376q-13 -62 -23 -101t-25.5 -80t-33.5 -64t-44.5 -45t-62.5 -32.5t-83 -16.5t-110 -6h-73l33 156h73q61 0 89.5 12t48.5 50.5t38 126.5z" />
    <glyph glyph-name="jcircumflex" unicode="&#x135;" horiz-adv-x="308" 
d="M228 682l-71 -72h-147l164 174h140l93 -174h-139zM15 59l101 487h164l-101 -487q-14 -70 -28 -112t-37.5 -80t-58.5 -56.5t-87.5 -29t-128.5 -10.5l30 138q42 0 67 6.5t40 28t22 43.5t17 72z" />
    <glyph glyph-name="Kcommaaccent" unicode="&#x136;" horiz-adv-x="685" 
d="M747 721l-320 -324l187 -397h-190l-120 272l-90 -91l-38 -181h-172l150 721h172l-63 -304l272 304h212zM162 -174q15 31 25.5 59t14.5 41l3 12h152q-17 -56 -55 -124q-21 -39 -43.5 -69.5t-34.5 -42.5l-11 -11h-126q40 58 75 135z" />
    <glyph glyph-name="kcommaaccent" unicode="&#x137;" horiz-adv-x="585" 
d="M611 546l-246 -230l155 -316h-174l-94 210l-60 -56l-32 -154h-164l159 760h164l-85 -409l182 195h195zM101 -174q15 31 25.5 59t13.5 41l4 12h152q-17 -56 -55 -124q-21 -39 -43.5 -69.5t-33.5 -42.5l-12 -11h-126q40 58 75 135z" />
    <glyph glyph-name="kgreenlandic" unicode="&#x138;" horiz-adv-x="585" 
d="M611 546l-246 -230l155 -316h-172l-95 211l-61 -57l-32 -154h-164l114 546h164l-41 -195l183 195h195z" />
    <glyph glyph-name="Lacute" unicode="&#x139;" horiz-adv-x="511" 
d="M477 933l-149 -169h-147l122 169h174zM326 721l-118 -566h247l-34 -155h-417l150 721h172z" />
    <glyph glyph-name="lacute" unicode="&#x13a;" horiz-adv-x="297" 
d="M169 792l122 169h174l-149 -169h-147zM-4 0l159 760h164l-159 -760h-164z" />
    <glyph glyph-name="Lcommaaccent" unicode="&#x13b;" horiz-adv-x="511" 
d="M208 155h247l-34 -155h-417l150 721h172zM79 -174q15 31 25.5 59t13.5 41l4 12h152q-17 -56 -55 -124q-21 -39 -43.5 -69.5t-33.5 -42.5l-12 -11h-126q40 58 75 135z" />
    <glyph glyph-name="lcommaaccent" unicode="&#x13c;" horiz-adv-x="297" 
d="M-4 0l159 760h164l-159 -760h-164zM-12 -309h-126q40 58 75 135q15 31 25.5 59t13.5 41l4 12h152q-17 -56 -55 -124q-21 -39 -43.5 -69.5t-33.5 -42.5z" />
    <glyph glyph-name="Lcaron" unicode="&#x13d;" horiz-adv-x="511" 
d="M451 553h-135l130 223h163zM326 721l-118 -566h247l-34 -155h-417l150 721h172z" />
    <glyph glyph-name="lcaron" unicode="&#x13e;" horiz-adv-x="483" 
d="M-4 0l159 760h164l-159 -760h-164zM288 548l115 212h144l-148 -212h-111z" />
    <glyph glyph-name="Ldot" unicode="&#x13f;" horiz-adv-x="510" 
d="M326 721l-118 -566h247l-34 -155h-417l150 721h172zM271 289l29 142h164l-29 -142h-164z" />
    <glyph glyph-name="ldot" unicode="&#x140;" horiz-adv-x="455" 
d="M-1 0l162 760h164l-162 -760h-164zM263 308l29 141h164l-29 -141h-164z" />
    <glyph glyph-name="Lslash" unicode="&#x141;" horiz-adv-x="511" 
d="M208 155h247l-34 -155h-417l55 262l-79 -38l-31 101l136 66l69 330h172l-49 -237l91 44l31 -100l-149 -73z" />
    <glyph glyph-name="lslash" unicode="&#x142;" horiz-adv-x="297" 
d="M386 446l-148 -72l-78 -374h-164l60 285l-89 -43l-31 101l147 71l72 346h164l-54 -258l90 44z" />
    <glyph glyph-name="Nacute" unicode="&#x143;" horiz-adv-x="735" 
d="M680 933l-149 -169h-147l122 169h174zM583 721h157l-151 -721h-180l-155 464l-97 -464h-153l150 721h181l159 -474z" />
    <glyph glyph-name="nacute" unicode="&#x144;" horiz-adv-x="647" 
d="M612 786l-151 -175h-142l124 175h169zM438 561q98 0 132.5 -53t7.5 -181l-70 -327h-164l67 311q4 19 6 29.5t3 25t-2 22.5t-8.5 16t-17.5 11.5t-29 3.5q-68 0 -127 -82l-71 -337h-164l83 394l25 152h136l1 -76q26 33 75 62t117 29z" />
    <glyph glyph-name="Ncommaaccent" unicode="&#x145;" horiz-adv-x="735" 
d="M583 721h157l-151 -721h-180l-155 464l-97 -464h-153l150 721h181l159 -474zM163 -174q15 31 25.5 59t13.5 41l4 12h152q-17 -56 -55 -124q-21 -39 -43.5 -69.5t-33.5 -42.5l-12 -11h-126q40 58 75 135z" />
    <glyph glyph-name="ncommaaccent" unicode="&#x146;" horiz-adv-x="647" 
d="M438 561q98 0 132.5 -53t7.5 -181l-70 -327h-164l67 311q4 19 6 29.5t3 25t-2 22.5t-8.5 16t-17.5 11.5t-29 3.5q-68 0 -127 -82l-71 -337h-164l83 394l25 152h136l1 -76q26 33 75 62t117 29zM120 -174q15 31 25.5 59t14.5 41l3 12h152q-17 -56 -55 -124
q-21 -39 -43.5 -69.5t-34.5 -42.5l-11 -11h-126q40 58 75 135z" />
    <glyph glyph-name="Ncaron" unicode="&#x147;" horiz-adv-x="735" 
d="M535 764h-159l-78 155h130l44 -60l68 60h141zM583 721h157l-151 -721h-180l-155 464l-97 -464h-153l150 721h181l159 -474z" />
    <glyph glyph-name="ncaron" unicode="&#x148;" horiz-adv-x="647" 
d="M462 610h-140l-90 174h137l42 -71l70 71h147zM438 561q98 0 132.5 -53t7.5 -181l-70 -327h-164l67 311q4 19 6 29.5t3 25t-2 22.5t-8.5 16t-17.5 11.5t-29 3.5q-68 0 -127 -82l-71 -337h-164l83 394l25 152h136l1 -76q26 33 75 62t117 29z" />
    <glyph glyph-name="Eng" unicode="&#x14a;" horiz-adv-x="735" 
d="M583 721h157l-151 -721q-7 -37 -19 -67.5t-35.5 -62t-56 -53t-84 -35.5t-117.5 -14h-63l30 141h70q109 0 128 91l-185 482l-100 -482h-153l150 721h181l161 -461z" />
    <glyph glyph-name="eng" unicode="&#x14b;" horiz-adv-x="647" 
d="M438 561q98 0 132.5 -53t7.5 -181l-56 -268q-15 -70 -28.5 -112t-37 -80t-58.5 -56.5t-87.5 -29t-128.5 -10.5l30 138q70 0 95.5 22.5t40.5 85.5l21 99l41 195h1q4 19 6 29.5t3 25t-2 22.5t-8.5 16t-17.5 11.5t-29 3.5q-68 0 -127 -82l-71 -337h-164l83 394l25 152h136
l1 -76q26 33 75 62t117 29z" />
    <glyph glyph-name="Omacron" unicode="&#x14c;" horiz-adv-x="711" 
d="M322 923h309l-26 -120h-309zM281 -20q-306 0 -226 379q43 205 130.5 293t254.5 88q304 0 224 -381q-43 -204 -130 -291.5t-253 -87.5zM312 129q68 0 109.5 51t68.5 179q28 133 11 183t-93 50q-68 0 -110.5 -52t-68.5 -181q-27 -131 -10 -180.5t93 -49.5z" />
    <glyph glyph-name="omacron" unicode="&#x14d;" horiz-adv-x="623" 
d="M240 748h309l-25 -116h-309zM237 -16q-132 0 -183.5 76t-23.5 212q30 145 103 217.5t225 72.5q132 0 184 -77t24 -213q-30 -144 -103 -216t-226 -72zM264 111q52 0 84 37.5t50 123.5q20 87 6.5 125t-74.5 38q-51 0 -83 -38.5t-51 -124.5q-20 -88 -6 -124.5t74 -36.5z" />
    <glyph glyph-name="Obreve" unicode="&#x14e;" horiz-adv-x="711" 
d="M539 941h121q-34 -157 -212 -157q-83 0 -121.5 45.5t-24.5 111.5h123q-5 -19 8 -33.5t38 -14.5t44 14.5t24 33.5zM281 -20q-306 0 -226 379q43 205 130.5 293t254.5 88q304 0 224 -381q-43 -204 -130 -291.5t-253 -87.5zM312 129q68 0 109.5 51t68.5 179q28 133 11 183
t-93 50q-68 0 -110.5 -52t-68.5 -181q-27 -131 -10 -180.5t93 -49.5z" />
    <glyph glyph-name="obreve" unicode="&#x14f;" horiz-adv-x="623" 
d="M459 770h122q-15 -74 -67.5 -118t-147.5 -44q-81 0 -121.5 46t-25.5 116h125q-4 -20 8 -35t38 -15t45.5 15t23.5 35zM237 -16q-132 0 -183.5 76t-23.5 212q30 145 103 217.5t225 72.5q132 0 184 -77t24 -213q-30 -144 -103 -216t-226 -72zM264 111q52 0 84 37.5t50 123.5
q20 87 6.5 125t-74.5 38q-51 0 -83 -38.5t-51 -124.5q-20 -88 -6 -124.5t74 -36.5z" />
    <glyph glyph-name="Ohungarumlaut" unicode="&#x150;" horiz-adv-x="711" 
d="M260 788l122 169h174l-149 -169h-147zM463 788l144 169h175l-172 -169h-147zM281 -20q-306 0 -226 379q43 205 130.5 293t254.5 88q304 0 224 -381q-43 -204 -130 -291.5t-253 -87.5zM312 129q68 0 109.5 51t68.5 179q28 133 11 183t-93 50q-68 0 -110.5 -52t-68.5 -181
q-27 -131 -10 -180.5t93 -49.5z" />
    <glyph glyph-name="ohungarumlaut" unicode="&#x151;" horiz-adv-x="623" 
d="M170 613l123 175h174l-151 -175h-146zM372 613l146 175h174l-173 -175h-147zM237 -16q-132 0 -183.5 76t-23.5 212q30 145 103 217.5t225 72.5q132 0 184 -77t24 -213q-30 -144 -103 -216t-226 -72zM264 111q52 0 84 37.5t50 123.5q20 87 6.5 125t-74.5 38
q-51 0 -83 -38.5t-51 -124.5q-20 -88 -6 -124.5t74 -36.5z" />
    <glyph glyph-name="OE" unicode="&#x152;" horiz-adv-x="967" 
d="M973 575h-318l-29 -139h270l-29 -137h-270l-32 -153h328l-32 -146h-592q-136 0 -195 88t-20 271q41 192 126 277t240 85h585zM391 136l93 448h-79q-68 0 -109 -50.5t-67 -174.5q-27 -125 -10 -174t94 -49h78z" />
    <glyph glyph-name="oe" unicode="&#x153;" horiz-adv-x="971" 
d="M907 237h-360q-13 -75 1 -105t66 -30q44 0 74 23.5t39 53.5h165q-8 -39 -26.5 -71t-52.5 -61.5t-90.5 -46t-131.5 -16.5q-108 0 -156 62q-70 -62 -198 -62q-132 0 -183.5 76t-23.5 212q30 145 103 217.5t225 72.5q108 0 156 -61q66 61 197 61q263 0 196 -325zM686 448
q-78 0 -115 -110h190q5 60 -12 85t-63 25zM264 111q52 0 84 37.5t50 123.5q20 87 6.5 125t-74.5 38q-51 0 -83 -38.5t-51 -124.5q-20 -88 -6 -124.5t74 -36.5z" />
    <glyph glyph-name="Racute" unicode="&#x154;" horiz-adv-x="690" 
d="M641 933l-149 -169h-147l122 169h174zM671 475q-18 -90 -50.5 -140t-99.5 -74l79 -261h-183l-57 234q-21 -1 -67 -1h-67l-49 -233h-173l150 721h245q170 0 233.5 -56.5t38.5 -189.5zM256 375h67q36 0 56.5 1.5t43.5 6.5t35.5 16t23 30t16.5 48q14 69 -13.5 86t-120.5 17
h-66z" />
    <glyph glyph-name="racute" unicode="&#x155;" horiz-adv-x="436" 
d="M498 786l-151 -175h-142l124 175h169zM246 546l-1 -94q24 42 75.5 76t137.5 34l-31 -150q-48 0 -87.5 -15.5t-62.5 -40.5t-35 -43t-19 -36l-58 -277h-164l80 384l28 162h137z" />
    <glyph glyph-name="Rcommaaccent" unicode="&#x156;" horiz-adv-x="690" 
d="M671 475q-18 -90 -50.5 -140t-99.5 -74l79 -261h-183l-57 234q-21 -1 -67 -1h-67l-49 -233h-173l150 721h245q170 0 233.5 -56.5t38.5 -189.5zM256 375h67q36 0 56.5 1.5t43.5 6.5t35.5 16t23 30t16.5 48q14 69 -13.5 86t-120.5 17h-66zM155 -174q15 31 25.5 59t13.5 41
l4 12h152q-17 -56 -55 -124q-21 -39 -43.5 -69.5t-33.5 -42.5l-12 -11h-126q40 58 75 135z" />
    <glyph glyph-name="rcommaaccent" unicode="&#x157;" horiz-adv-x="436" 
d="M246 546l-1 -94q24 42 75.5 76t137.5 34l-31 -150q-48 0 -87.5 -15.5t-62.5 -40.5t-35 -43t-19 -36l-58 -277h-164l80 384l28 162h137zM-52 -174q15 31 25.5 59t14.5 41l3 12h152q-17 -56 -55 -124q-21 -39 -43.5 -69.5t-34.5 -42.5l-11 -11h-126q40 58 75 135z" />
    <glyph glyph-name="Rcaron" unicode="&#x158;" horiz-adv-x="690" 
d="M496 764h-159l-78 155h130l44 -60l68 60h141zM671 475q-18 -90 -50.5 -140t-99.5 -74l79 -261h-183l-57 234q-21 -1 -67 -1h-67l-49 -233h-173l150 721h245q170 0 233.5 -56.5t38.5 -189.5zM256 375h67q36 0 56.5 1.5t43.5 6.5t35.5 16t23 30t16.5 48q14 69 -13.5 86
t-120.5 17h-66z" />
    <glyph glyph-name="rcaron" unicode="&#x159;" horiz-adv-x="436" 
d="M348 610h-140l-90 174h137l42 -71l70 71h147zM246 546l-1 -94q24 42 75.5 76t137.5 34l-31 -150q-48 0 -87.5 -15.5t-62.5 -40.5t-35 -43t-19 -36l-58 -277h-164l80 384l28 162h137z" />
    <glyph glyph-name="Sacute" unicode="&#x15a;" horiz-adv-x="646" 
d="M343 788l122 169h174l-149 -169h-147zM13 233h165q-23 -111 94 -111q114 0 133 75q9 33 -7 53.5t-48 29t-72 18.5t-78.5 21.5t-69 37t-43 66.5t0.5 109q21 102 95.5 155.5t221.5 53.5q135 0 194 -60t34 -177h-162q10 45 -11.5 71.5t-76.5 26.5q-102 0 -123 -76
q-9 -32 7.5 -53t48.5 -32t72.5 -19.5t80.5 -22.5t71 -35.5t45 -62t2 -98.5q-23 -114 -101 -168.5t-239 -54.5q-134 0 -197.5 61.5t-36.5 191.5z" />
    <glyph glyph-name="sacute" unicode="&#x15b;" horiz-adv-x="560" 
d="M263 613l124 175h169l-151 -175h-142zM8 183h147q-18 -85 73 -85q87 0 97 48q5 24 -10 39t-41.5 22.5t-58.5 13.5t-63.5 16.5t-56 27.5t-34.5 51t0 83q32 162 265 162q113 0 164 -46t33 -134h-146q6 32 -11 49t-61 17q-74 0 -83 -47q-4 -23 10.5 -38t41 -22t59.5 -13
t64.5 -16t56 -26.5t35.5 -49t1 -78.5q-18 -87 -83.5 -130t-200.5 -43q-238 0 -198 199z" />
    <glyph glyph-name="Scircumflex" unicode="&#x15c;" horiz-adv-x="646" 
d="M432 848l-68 -60h-139l143 155h159l81 -155h-133zM633 504h-162q10 45 -11.5 71.5t-76.5 26.5q-102 0 -123 -76q-9 -32 7.5 -53t48.5 -32t72.5 -19.5t80.5 -22.5t71 -35.5t45 -62t2 -98.5q-23 -114 -101 -168.5t-239 -54.5q-134 0 -197.5 61.5t-36.5 191.5h165
q-23 -111 94 -111q114 0 133 75q9 33 -7 53.5t-48 29t-72 18.5t-78.5 21.5t-69 37t-43 66.5t0.5 109q21 102 95.5 155.5t221.5 53.5q135 0 194 -60t34 -177z" />
    <glyph glyph-name="scircumflex" unicode="&#x15d;" horiz-adv-x="560" 
d="M357 684l-71 -72h-147l164 174h140l93 -174h-139zM326 561q113 0 164 -46t33 -134h-146q6 32 -11 49t-61 17q-74 0 -83 -47q-4 -23 10.5 -38t41 -22t59.5 -13t64.5 -16t56 -26.5t35.5 -49t1 -78.5q-18 -87 -83.5 -130t-200.5 -43q-238 0 -198 199h147q-18 -85 73 -85
q87 0 97 48q5 24 -10 39t-41.5 22.5t-58.5 13.5t-63.5 16.5t-56 27.5t-34.5 51t0 83q32 162 265 162z" />
    <glyph glyph-name="Scedilla" unicode="&#x15e;" horiz-adv-x="646" 
d="M633 504h-162q10 45 -11.5 71.5t-76.5 26.5q-102 0 -123 -76q-9 -32 7.5 -53t48.5 -32t72.5 -19.5t80.5 -22.5t71 -35.5t45 -62t2 -98.5q-20 -100 -81 -153.5t-181 -65.5l-41 -52q36 -5 58 -28.5t14 -66.5q-24 -115 -183 -115q-36 0 -62.5 2t-34.5 4l-8 1l19 89
q16 -6 66 -6q51 0 59 37q3 14 -4 22.5t-24.5 11.5t-29.5 4t-33 1h-1l71 95q-106 12 -154 73.5t-24 176.5h165q-23 -111 94 -111q114 0 133 75q9 33 -7 53.5t-48 29t-72 18.5t-78.5 21.5t-69 37t-43 66.5t0.5 109q21 102 95.5 155.5t221.5 53.5q135 0 194 -60t34 -177z" />
    <glyph glyph-name="scedilla" unicode="&#x15f;" horiz-adv-x="560" 
d="M523 381h-146q6 32 -11 49t-61 17q-74 0 -83 -47q-4 -23 10.5 -38t41 -22t59.5 -13t64.5 -16t56 -26.5t35.5 -49t1 -78.5q-16 -75 -64.5 -116.5t-144.5 -52.5l-37 -46q36 -5 58 -28.5t14 -66.5q-24 -115 -183 -115q-36 0 -62.5 2t-34.5 4l-8 1l19 89q16 -6 66 -6
q51 0 59 37q3 14 -4 22.5t-24.5 11.5t-29.5 4t-33 1h-1l67 90q-174 24 -139 195h147q-18 -85 73 -85q87 0 97 48q5 24 -10 39t-41.5 22.5t-58.5 13.5t-63.5 16.5t-56 27.5t-34.5 51t0 83q32 162 265 162q113 0 164 -46t33 -134z" />
    <glyph glyph-name="Scaron" unicode="&#x160;" horiz-adv-x="646" 
d="M494 788h-159l-78 155h130l44 -60l68 60h141zM633 504h-162q10 45 -11.5 71.5t-76.5 26.5q-102 0 -123 -76q-9 -32 7.5 -53t48.5 -32t72.5 -19.5t80.5 -22.5t71 -35.5t45 -62t2 -98.5q-23 -114 -101 -168.5t-239 -54.5q-134 0 -197.5 61.5t-36.5 191.5h165
q-23 -111 94 -111q114 0 133 75q9 33 -7 53.5t-48 29t-72 18.5t-78.5 21.5t-69 37t-43 66.5t0.5 109q21 102 95.5 155.5t221.5 53.5q135 0 194 -60t34 -177z" />
    <glyph glyph-name="scaron" unicode="&#x161;" horiz-adv-x="560" 
d="M406 612h-140l-90 174h137l42 -71l70 71h147zM326 561q113 0 164 -46t33 -134h-146q6 32 -11 49t-61 17q-74 0 -83 -47q-4 -23 10.5 -38t41 -22t59.5 -13t64.5 -16t56 -26.5t35.5 -49t1 -78.5q-18 -87 -83.5 -130t-200.5 -43q-238 0 -198 199h147q-18 -85 73 -85
q87 0 97 48q5 24 -10 39t-41.5 22.5t-58.5 13.5t-63.5 16.5t-56 27.5t-34.5 51t0 83q32 162 265 162z" />
    <glyph glyph-name="uni0162" unicode="&#x162;" horiz-adv-x="559" 
d="M622 721l-33 -156h-177l-119 -565h-39l-45 -56q36 -5 58 -28.5t14 -66.5q-24 -115 -183 -115q-36 0 -62.5 2t-34.5 4l-8 1l19 89q16 -6 66 -6q51 0 59 37q3 14 -4 22.5t-24.5 11.5t-30 4t-32.5 1h-1l76 102l118 563h-176l32 156h527z" />
    <glyph glyph-name="uni0163" unicode="&#x163;" horiz-adv-x="410" 
d="M273 422l-39 -190q-12 -68 -2.5 -88t42.5 -20h57l-29 -131h-60l-31 -39q36 -5 58 -28.5t14 -66.5q-24 -115 -183 -115q-36 0 -62.5 2t-34.5 4l-8 1l19 89q16 -6 66 -6q51 0 59 37q3 14 -4 22.5t-24.5 11.5t-30 4t-32.5 1h-1l75 100q-29 13 -45.5 34t-19.5 52t0 61t12 73
l40 192h-70l26 124h70l29 140l169 27l-34 -167h113l-25 -124h-114z" />
    <glyph glyph-name="Tcaron" unicode="&#x164;" horiz-adv-x="559" 
d="M448 764h-159l-78 155h130l44 -60l68 60h141zM622 721l-33 -156h-177l-119 -565h-172l118 565h-176l32 156h527z" />
    <glyph glyph-name="tcaron" unicode="&#x165;" horiz-adv-x="410" 
d="M443 794h144l-148 -212h-111zM333 713l-34 -167h113l-25 -124h-114l-39 -190q-12 -68 -2.5 -88t42.5 -20h57l-29 -131h-75q-55 0 -91 12.5t-54 32t-23.5 52.5t-2.5 64t13 76l40 192h-70l26 124h70l29 140z" />
    <glyph glyph-name="Tbar" unicode="&#x166;" horiz-adv-x="559" 
d="M589 565h-177l-32 -153h108l-24 -118h-109l-62 -294h-172l62 294h-111l26 118h109l32 153h-176l32 156h527z" />
    <glyph glyph-name="tbar" unicode="&#x167;" horiz-adv-x="410" 
d="M387 422h-114l-17 -83h112l-19 -97h-113l-2 -10q-12 -68 -2.5 -88t42.5 -20h57l-29 -131h-75q-55 0 -91 12.5t-54 32t-23.5 52.5t-2.5 64t13 76l3 12h-71l21 97h70l17 83h-70l26 124h70l29 140l169 27l-34 -167h113z" />
    <glyph glyph-name="Utilde" unicode="&#x168;" horiz-adv-x="708" 
d="M583 933h77q-17 -85 -50 -125.5t-95 -40.5q-33 0 -65.5 19t-51.5 19q-26 0 -42.5 -14.5t-18.5 -26.5h-76q33 161 146 161q33 0 64 -16.5t50 -16.5q26 0 43 14.5t19 26.5zM278 -20q-143 0 -195.5 84t-12.5 274l80 383h172l-79 -379q-26 -130 -12.5 -170.5t78.5 -40.5
q58 0 93 44t61 167l79 379h175l-80 -383q-41 -198 -118.5 -278t-240.5 -80z" />
    <glyph glyph-name="utilde" unicode="&#x169;" horiz-adv-x="639" 
d="M325 653q-26 0 -43 -15t-19 -27h-76q16 75 50 114.5t96 39.5q33 0 63.5 -16.5t49.5 -16.5q27 0 43.5 14.5t18.5 26.5h78q-18 -84 -50 -121t-94 -37q-34 0 -66 19t-51 19zM443 546h164l-83 -394l-25 -152h-136l-1 77q-76 -92 -195 -92q-92 0 -127.5 52.5t-10.5 173.5
l72 335h163l-66 -310q-13 -66 -7 -84q10 -26 52 -26q67 0 130 85z" />
    <glyph glyph-name="Umacron" unicode="&#x16a;" horiz-adv-x="708" 
d="M317 900h309l-26 -120h-309zM278 -20q-143 0 -195.5 84t-12.5 274l80 383h172l-79 -379q-26 -130 -12.5 -170.5t78.5 -40.5q58 0 93 44t61 167l79 379h175l-80 -383q-41 -198 -118.5 -278t-240.5 -80z" />
    <glyph glyph-name="umacron" unicode="&#x16b;" horiz-adv-x="639" 
d="M552 746l-25 -116h-309l25 116h309zM443 546h164l-83 -394l-25 -152h-136l-1 77q-76 -92 -195 -92q-92 0 -127.5 52.5t-10.5 173.5l72 335h163l-66 -310q-13 -66 -7 -84q10 -26 52 -26q67 0 130 85z" />
    <glyph glyph-name="Ubreve" unicode="&#x16c;" horiz-adv-x="708" 
d="M534 918h121q-34 -157 -212 -157q-83 0 -121.5 45.5t-24.5 111.5h123q-5 -19 8 -33.5t38 -14.5t44 14.5t24 33.5zM278 -20q-143 0 -195.5 84t-12.5 274l80 383h172l-79 -379q-26 -130 -12.5 -170.5t78.5 -40.5q58 0 93 44t61 167l79 379h175l-80 -383
q-41 -198 -118.5 -278t-240.5 -80z" />
    <glyph glyph-name="ubreve" unicode="&#x16d;" horiz-adv-x="639" 
d="M369 606q-81 0 -121.5 46t-25.5 116h125q-4 -20 8 -35t38 -15t45.5 15t23.5 35h122q-15 -74 -67.5 -118t-147.5 -44zM443 546h164l-83 -394l-25 -152h-136l-1 77q-76 -92 -195 -92q-92 0 -127.5 52.5t-10.5 173.5l72 335h163l-66 -310q-13 -66 -7 -84q10 -26 52 -26
q67 0 130 85z" />
    <glyph glyph-name="Uring" unicode="&#x16e;" horiz-adv-x="708" 
d="M443 761q-48 0 -76 30.5t-17 80.5q23 110 139 110q48 0 75.5 -30.5t17.5 -79.5q-24 -111 -139 -111zM460 840q13 0 23.5 9t13.5 23t-3.5 23t-20.5 9q-13 0 -23.5 -9t-13.5 -23t3.5 -23t20.5 -9zM278 -20q-143 0 -195.5 84t-12.5 274l80 383h172l-79 -379
q-26 -130 -12.5 -170.5t78.5 -40.5q58 0 93 44t61 167l79 379h175l-80 -383q-41 -198 -118.5 -278t-240.5 -80z" />
    <glyph glyph-name="uring" unicode="&#x16f;" horiz-adv-x="639" 
d="M368 600q-56 0 -85 36.5t-18 87.5q27 124 155 124q55 0 84 -36t18 -88q-11 -55 -49.5 -89.5t-104.5 -34.5zM364 724q-3 -14 3.5 -23t20.5 -9q13 0 23.5 9t13.5 23t-4 23t-20 9q-30 0 -37 -32zM443 546h164l-83 -394l-25 -152h-136l-1 77q-76 -92 -195 -92
q-92 0 -127.5 52.5t-10.5 173.5l72 335h163l-66 -310q-13 -66 -7 -84q10 -26 52 -26q67 0 130 85z" />
    <glyph glyph-name="Uhungarumlaut" unicode="&#x170;" horiz-adv-x="708" 
d="M255 765l122 169h174l-149 -169h-147zM458 765l144 169h175l-172 -169h-147zM278 -20q-143 0 -195.5 84t-12.5 274l80 383h172l-79 -379q-26 -130 -12.5 -170.5t78.5 -40.5q58 0 93 44t61 167l79 379h175l-80 -383q-41 -198 -118.5 -278t-240.5 -80z" />
    <glyph glyph-name="uhungarumlaut" unicode="&#x171;" horiz-adv-x="639" 
d="M470 786l-151 -175h-146l123 175h174zM522 611h-147l146 175h174zM373 211l70 335h164l-83 -394l-25 -152h-136l-1 77q-76 -92 -195 -92q-92 0 -127.5 52.5t-10.5 173.5l72 335h163l-66 -310q-13 -66 -7 -84q10 -26 52 -26q67 0 130 85z" />
    <glyph glyph-name="Uogonek" unicode="&#x172;" horiz-adv-x="708" 
d="M542 721h175l-80 -383q-29 -140 -73.5 -218t-120.5 -112q-43 -31 -51 -71q-3 -12 2.5 -21.5t20.5 -9.5q10 0 22.5 3t19.5 7l7 3l-18 -83q0 -2 -13.5 -8.5t-44.5 -14.5t-67 -8q-53 0 -72 25t-11 62q10 46 52 88h-12q-143 0 -195.5 84t-12.5 274l80 383h172l-79 -379
q-26 -130 -12.5 -170.5t78.5 -40.5q58 0 93 44t61 167z" />
    <glyph glyph-name="uogonek" unicode="&#x173;" horiz-adv-x="639" 
d="M443 546h164l-83 -394l-25 -152h-14q-66 -33 -77 -87q-3 -12 2.5 -21.5t20.5 -9.5q10 0 22.5 3t19.5 7l7 3l-18 -83q0 -2 -13.5 -8.5t-44.5 -14.5t-67 -8q-53 0 -72 25t-11 62q10 45 43.5 79.5t65.5 52.5l-1 77q-76 -92 -195 -92q-92 0 -127.5 52.5t-10.5 173.5l72 335
h163l-66 -310q-13 -66 -7 -84q10 -26 52 -26q67 0 130 85z" />
    <glyph glyph-name="Wcircumflex" unicode="&#x174;" horiz-adv-x="987" 
d="M578 824l-68 -60h-139l143 155h159l81 -155h-133zM878 721h188l-369 -721h-162l-26 472l-224 -472h-155l-65 721h179l12 -481l216 481h167l22 -491z" />
    <glyph glyph-name="wcircumflex" unicode="&#x175;" horiz-adv-x="796" 
d="M474 682l-71 -72h-147l164 174h140l93 -174h-139zM676 546h164l-282 -546h-136l-24 342l-162 -342h-139l-58 546h157l16 -318l142 318h164l20 -318z" />
    <glyph glyph-name="Ycircumflex" unicode="&#x176;" horiz-adv-x="639" 
d="M410 824l-68 -60h-139l143 155h159l81 -155h-133zM718 721l-343 -476l-50 -245h-171l51 247l-151 474h184l80 -318l206 318h194z" />
    <glyph glyph-name="ycircumflex" unicode="&#x177;" horiz-adv-x="572" 
d="M349 682l-71 -72h-147l164 174h140l93 -174h-139zM433 546h179l-421 -770h-156l116 224h-38l-77 546h163l32 -392z" />
    <glyph glyph-name="Ydieresis" unicode="&#x178;" horiz-adv-x="639" 
d="M399 917l-32 -153h-164l32 153h164zM615 917l-31 -153h-164l31 153h164zM718 721l-343 -476l-50 -245h-171l51 247l-151 474h184l80 -318l206 318h194z" />
    <glyph glyph-name="Zacute" unicode="&#x179;" horiz-adv-x="602" 
d="M612 933l-149 -169h-147l122 169h174zM633 654h1l-10 -46l-7 -33l-7 -30l-421 -398l342 3l-31 -148h-543l14 65h-1l10 46l7 33l7 30l420 397l-324 -2l32 148h525z" />
    <glyph glyph-name="zacute" unicode="&#x17a;" horiz-adv-x="524" 
d="M533 786l-151 -175h-142l124 175h169zM90 544h436l-19 -89l-15 -71l-311 -256l259 3l-27 -129h-446l26 124h1l8 37l313 257l-252 -3z" />
    <glyph glyph-name="Zdotaccent" unicode="&#x17b;" horiz-adv-x="602" 
d="M503 917l-32 -153h-164l32 153h164zM633 654h1l-10 -46l-7 -33l-7 -30l-421 -398l342 3l-31 -148h-543l14 65h-1l10 46l7 33l7 30l420 397l-324 -2l32 148h525z" />
    <glyph glyph-name="zdotaccent" unicode="&#x17c;" horiz-adv-x="524" 
d="M431 764l-33 -152h-164l33 152h164zM507 455l-15 -71l-311 -256l259 3l-27 -129h-446l26 124h1l8 37l313 257l-252 -3l27 127h436z" />
    <glyph glyph-name="Zcaron" unicode="&#x17d;" horiz-adv-x="602" 
d="M467 764h-159l-78 155h130l44 -60l68 60h141zM633 654h1l-10 -46l-7 -33l-7 -30l-421 -398l342 3l-31 -148h-543l14 65h-1l10 46l7 33l7 30l420 397l-324 -2l32 148h525z" />
    <glyph glyph-name="zcaron" unicode="&#x17e;" horiz-adv-x="524" 
d="M383 610h-140l-90 174h137l42 -71l70 71h147zM90 544h436l-19 -89l-15 -71l-311 -256l259 3l-27 -129h-446l26 124h1l8 37l313 257l-252 -3z" />
    <glyph glyph-name="uni018F" unicode="&#x18f;" horiz-adv-x="709" 
d="M438 740q304 0 224 -381q-43 -204 -130 -291.5t-253 -87.5q-306 0 -222 397h434q26 121 8 168t-93 47q-108 0 -154 -138h-175q49 153 131 219.5t230 66.5zM311 129q54 0 91 31.5t62 107.5h-250q-8 -79 13.5 -109t83.5 -30z" />
    <glyph glyph-name="uni019D" unicode="&#x19d;" horiz-adv-x="736" 
d="M584 721h157l-151 -721h-180l-155 464l-97 -464q-10 -48 -27 -84.5t-49 -72.5t-89 -55.5t-135 -19.5h-63l30 141h71q50 0 74.5 23t34.5 68l150 721h181l159 -474z" />
    <glyph glyph-name="Gcaron" unicode="&#x1e6;" horiz-adv-x="692" 
d="M523 786h-159l-78 155h130l44 -60l68 60h141zM661 466h-165q12 69 -8.5 98.5t-81.5 29.5q-65 0 -106.5 -52.5t-69.5 -182.5q-28 -134 -8.5 -184.5t100.5 -50.5q47 0 82.5 17.5t38.5 31.5l16 72h-105l27 127h260l-57 -275q-1 -7 -12 -19.5t-36 -29.5t-58.5 -32t-86 -25.5
t-112.5 -10.5q-150 -1 -207.5 89t-15.5 290q44 207 130.5 294t250.5 87q137 0 194.5 -69t29.5 -205z" />
    <glyph glyph-name="gcaron" unicode="&#x1e7;" horiz-adv-x="649" 
d="M444 610h-140l-90 174h137l42 -71l70 71h147zM489 546h136l-40 -165l-80 -383q-17 -83 -33 -114q-63 -124 -285 -124q-66 0 -110.5 19.5t-61 47t-23 55t-4.5 46.5l3 20h151q-6 -40 14 -56t63 -16q64 0 86.5 27.5t35.5 92.5l9 43q-63 -50 -162 -50q-107 0 -147 72.5
t-11 211.5q30 143 96 214t180 71q60 0 97 -28.5t53 -60.5zM255 116q89 0 128 83l31 152q-19 80 -94 80q-91 0 -123 -158q-17 -81 -3 -119t61 -38z" />
    <glyph glyph-name="uni01EA" unicode="&#x1ea;" horiz-adv-x="711" 
d="M440 740q304 0 224 -381q-32 -150 -85.5 -235t-142.5 -119q-44 -31 -53 -73q-3 -12 2.5 -21.5t20.5 -9.5q10 0 22.5 3.5t19.5 6.5l7 3l-18 -83q0 -2 -13.5 -8.5t-44.5 -14.5t-67 -8q-53 0 -72 25t-11 62q11 50 57 93h-5q-306 0 -226 379q43 205 130.5 293t254.5 88z
M490 359q28 133 11 183t-93 50q-68 0 -110.5 -52t-68.5 -181q-27 -131 -10 -180.5t93 -49.5q68 0 109.5 51t68.5 179z" />
    <glyph glyph-name="uni01EB" unicode="&#x1eb;" horiz-adv-x="623" 
d="M358 562q132 0 184 -77t24 -213q-21 -100 -60.5 -164.5t-109.5 -95.5q-36 -27 -44 -65q-3 -12 2.5 -21.5t20.5 -9.5q10 0 22.5 3t19.5 7l7 3l-18 -83q0 -2 -13.5 -8.5t-44.5 -14.5t-67 -8q-53 0 -72 25t-11 62q9 41 46 82h-7q-132 0 -183.5 76t-23.5 212
q30 145 103 217.5t225 72.5zM196 272q-20 -88 -6 -124.5t74 -36.5q52 0 84 37.5t50 123.5q20 87 6.5 125t-74.5 38q-51 0 -83 -38.5t-51 -124.5z" />
    <glyph glyph-name="Aringacute" unicode="&#x1fa;" horiz-adv-x="673" 
d="M710 1190l-149 -169h-147l122 169h174zM433 761q-48 0 -76 30.5t-17 80.5q23 110 139 110q48 0 75.5 -30.5t17.5 -79.5q-24 -111 -139 -111zM426 872q-3 -14 3.5 -23t20.5 -9q13 0 23.5 9t13.5 23t-3.5 23t-20.5 9q-13 0 -23.5 -9t-13.5 -23zM344 721h161l108 -721h-179
l-12 137h-240l-71 -137h-179zM255 277h156l-22 259z" />
    <glyph glyph-name="aringacute" unicode="&#x1fb;" horiz-adv-x="604" 
d="M635 1065l-151 -175h-142l124 175h169zM357 600q-56 0 -85 36.5t-18 87.5q27 124 155 124q55 0 84 -36t18 -88q-11 -55 -49.5 -89.5t-104.5 -34.5zM353 724q-3 -14 3.5 -23t20.5 -9q13 0 23.5 9t13.5 23t-4 23t-20 9q-30 0 -37 -32zM336 558q108 0 157.5 -36t50 -100
t-16.5 -152l-26 -121l-23 -148h-136l-3 52q-61 -66 -177 -66q-92 0 -134.5 42.5t-25.5 129.5q8 36 22.5 63t30.5 45t45 30.5t52.5 19t66 9.5t72.5 3.5t84 0.5q16 60 5.5 87t-60.5 27q-45 0 -70.5 -22t-31.5 -50h-146q5 27 10.5 45t24 47.5t44 47.5t73.5 32t112 14zM223 92
q76 0 116 67l16 77q-99 0 -141 -14.5t-53 -65.5q-6 -29 9 -46.5t53 -17.5z" />
    <glyph glyph-name="AEacute" unicode="&#x1fc;" horiz-adv-x="965" 
d="M774 933l-149 -169h-147l122 169h174zM972 575h-321l-29 -139h273l-29 -137h-272l-32 -153h329l-31 -146h-484l29 137h-190l-97 -137h-186l525 721h546zM434 277l50 243l-171 -243h121z" />
    <glyph glyph-name="aeacute" unicode="&#x1fd;" horiz-adv-x="940" 
d="M745 786l-151 -175h-142l124 175h169zM876 237h-359q-13 -75 1.5 -105t66.5 -30q44 0 73 23.5t38 53.5h166q-8 -39 -26.5 -71t-52.5 -61.5t-90.5 -46t-131.5 -16.5q-149 0 -195 94q-66 -91 -204 -91q-92 0 -134.5 42.5t-25.5 129.5q8 35 22 62t30.5 45.5t44.5 30.5t52 19
t65 10t71.5 3.5t83.5 0.5q10 33 19 55q0 31 -16 45t-54 14q-45 0 -70.5 -22t-31.5 -50h-146q5 25 11.5 44.5t25 48t45 47t74 32.5t108.5 14q105 0 143 -50q74 54 202 54q262 0 195 -325zM657 448q-79 0 -116 -110h190q5 60 -11.5 85t-62.5 25zM223 92q84 0 123 80q0 26 5 64
q-98 -1 -138.5 -15t-51.5 -65q-6 -29 9 -46.5t53 -17.5z" />
    <glyph glyph-name="Oslashacute" unicode="&#x1fe;" horiz-adv-x="711" 
d="M534 955l-149 -169h-147l122 169h174zM747 735l-92 -105q46 -93 9 -271q-43 -204 -130 -291.5t-253 -87.5q-102 0 -160 42l-32 -37h-127l98 112q-40 94 -5 262q43 205 130.5 293t254.5 88q93 0 152 -37l28 32h127zM229 359q-8 -40 -14 -86l264 301q-22 18 -71 18
q-68 0 -110.5 -52t-68.5 -181zM490 359q14 68 16 101l-271 -309q23 -22 77 -22q68 0 109.5 51t68.5 179z" />
    <glyph glyph-name="oslashacute" unicode="&#x1ff;" horiz-adv-x="623" 
d="M584 788l-151 -175h-142l124 175h169zM614 556l-70 -74q50 -75 22 -210q-30 -144 -103 -216t-226 -72q-82 0 -133 30l-27 -29h-104l76 81q-46 75 -19 206q30 145 103 217.5t225 72.5q79 0 131 -29l21 23h104zM196 272q-7 -30 -10 -61l199 212q-20 12 -55 12
q-51 0 -83 -38.5t-51 -124.5zM398 272q9 43 11 66l-201 -214q17 -13 56 -13q52 0 84 37.5t50 123.5z" />
    <glyph glyph-name="Scommaaccent" unicode="&#x218;" horiz-adv-x="646" 
d="M13 233h165q-23 -111 94 -111q114 0 133 75q9 33 -7 53.5t-48 29t-72 18.5t-78.5 21.5t-69 37t-43 66.5t0.5 109q21 102 95.5 155.5t221.5 53.5q135 0 194 -60t34 -177h-162q10 45 -11.5 71.5t-76.5 26.5q-102 0 -123 -76q-9 -32 7.5 -53t48.5 -32t72.5 -19.5t80.5 -22.5
t71 -35.5t45 -62t2 -98.5q-23 -114 -101 -168.5t-239 -54.5q-134 0 -197.5 61.5t-36.5 191.5zM191 -321h-126q40 58 75 135q15 31 25.5 59t14.5 41l3 12h152q-17 -56 -55 -124q-21 -39 -43.5 -69.5t-34.5 -42.5z" />
    <glyph glyph-name="scommaaccent" unicode="&#x219;" horiz-adv-x="560" 
d="M8 183h147q-18 -85 73 -85q87 0 97 48q5 24 -10 39t-41.5 22.5t-58.5 13.5t-63.5 16.5t-56 27.5t-34.5 51t0 83q32 162 265 162q113 0 164 -46t33 -134h-146q6 32 -11 49t-61 17q-74 0 -83 -47q-4 -23 10.5 -38t41 -22t59.5 -13t64.5 -16t56 -26.5t35.5 -49t1 -78.5
q-18 -87 -83.5 -130t-200.5 -43q-238 0 -198 199zM151 -311h-126q40 58 75 135q15 31 25.5 59t14.5 41l3 12h152q-17 -56 -55 -124q-21 -39 -43.5 -69.5t-34.5 -42.5z" />
    <glyph glyph-name="uni021A" unicode="&#x21a;" horiz-adv-x="559" 
d="M622 721l-33 -156h-178l-118 -565h-173l119 565h-176l32 156h527zM69 -174q15 31 25.5 59t13.5 41l3 12h153q-17 -56 -54 -124q-22 -39 -44.5 -69.5t-34.5 -42.5l-12 -11h-125q38 59 75 135z" />
    <glyph glyph-name="uni021B" unicode="&#x21b;" horiz-adv-x="410" 
d="M273 422l-39 -190q-12 -68 -2.5 -88t42.5 -20h57l-29 -131h-75q-55 0 -91 12.5t-54 32t-23.5 52.5t-2.5 64t13 76l40 192h-70l26 124h70l29 140l169 27l-34 -167h113l-25 -124h-114zM67 -164q15 31 25.5 59t13.5 41l4 12h152q-17 -56 -55 -124q-21 -39 -43.5 -69.5
t-33.5 -42.5l-12 -11h-126q40 58 75 135z" />
    <glyph glyph-name="uni0232" unicode="&#x232;" horiz-adv-x="639" 
d="M576 900l-26 -120h-309l26 120h309zM718 721l-343 -476l-50 -245h-171l51 247l-151 474h184l80 -318l206 318h194z" />
    <glyph glyph-name="uni0233" unicode="&#x233;" horiz-adv-x="572" 
d="M513 746l-25 -116h-309l25 116h309zM433 546h179l-421 -770h-156l116 224h-38l-77 546h163l32 -392z" />
    <glyph glyph-name="uni0237" unicode="&#x237;" horiz-adv-x="308" 
d="M-161 -229l30 138q42 0 67 6.5t40 28t22 43.5t17 72l101 487h164l-101 -487q-14 -70 -28 -112t-37.5 -80t-58.5 -56.5t-87.5 -29t-128.5 -10.5z" />
    <glyph glyph-name="uni0259" unicode="&#x259;" horiz-adv-x="614" 
d="M352 562q133 0 183 -74t21 -213q-16 -73 -37.5 -123t-58 -90t-93 -59t-135.5 -19q-262 0 -194 325h358q13 75 -1.5 105t-66.5 30q-43 0 -72.5 -23.5t-38.5 -52.5h-166q8 38 26.5 70.5t52.5 61.5t90.5 45.5t131.5 16.5zM257 98q78 0 115 110h-189q-5 -60 11.5 -85
t62.5 -25z" />
    <glyph glyph-name="uni0272" unicode="&#x272;" horiz-adv-x="649" 
d="M439 561q98 0 133 -53t8 -181l-70 -327h-165l67 311q5 23 7 35t2 28.5t-5.5 24.5t-18 14t-32.5 6q-69 0 -128 -82l-7 -34l-51 -244q-15 -70 -28.5 -112t-37 -80t-58.5 -56.5t-87.5 -29t-128.5 -10.5l30 138q28 0 48 2.5t34.5 12t23 17.5t16.5 30t11.5 37.5t11.5 50.5
l65 305h1l6 30l24 152h136l1 -75q77 90 192 90z" />
    <glyph glyph-name="circumflex" unicode="&#x2c6;" horiz-adv-x="600" 
d="M497 610h-139l-40 72l-71 -72h-147l164 174h140z" />
    <glyph glyph-name="caron" unicode="&#x2c7;" horiz-adv-x="600" 
d="M386 784h147l-166 -174h-140l-90 174h137l42 -71z" />
    <glyph glyph-name="breve" unicode="&#x2d8;" horiz-adv-x="600" 
d="M344 768h122q-15 -74 -67.5 -118t-147.5 -44q-81 0 -121.5 46t-25.5 116h125q-4 -20 8 -35t38 -15t45.5 15t23.5 35z" />
    <glyph glyph-name="dotaccent" unicode="&#x2d9;" horiz-adv-x="600" 
d="M123 612l33 152h164l-33 -152h-164z" />
    <glyph glyph-name="ring" unicode="&#x2da;" horiz-adv-x="600" 
d="M220 600q-56 0 -85 36.5t-18 87.5q27 124 155 124q55 0 84 -36t18 -88q-11 -55 -49.5 -89.5t-104.5 -34.5zM240 692q13 0 23.5 9t13.5 23t-4 23t-20 9q-30 0 -37 -32q-3 -14 3.5 -23t20.5 -9z" />
    <glyph glyph-name="ogonek" unicode="&#x2db;" horiz-adv-x="600" 
d="M52 10l111 -6l-3 -2l-9 -4.5t-11.5 -7t-12.5 -9.5t-13 -12.5t-12.5 -15t-10 -17.5t-6.5 -20q-3 -12 2.5 -21.5t20.5 -9.5q10 0 22.5 3.5t19.5 6.5l7 3l-18 -83q0 -2 -13.5 -8.5t-44.5 -14.5t-67 -8q-53 0 -72 25t-11 62q8 39 38.5 74t56.5 50z" />
    <glyph glyph-name="tilde" unicode="&#x2dc;" horiz-adv-x="600" 
d="M444 773h78q-18 -84 -50 -121t-94 -37q-34 0 -66 19t-51 19q-26 0 -43 -15t-19 -27h-76q16 75 50 114.5t96 39.5q33 0 63.5 -16.5t49.5 -16.5q27 0 43.5 14.5t18.5 26.5z" />
    <glyph glyph-name="hungarumlaut" unicode="&#x2dd;" horiz-adv-x="600" 
d="M106 611l123 175h174l-151 -175h-146zM308 611l146 175h174l-173 -175h-147z" />
    <glyph glyph-name="gravecomb" unicode="&#x300;" 
d="M9 611h-141l-78 175h169z" />
    <glyph glyph-name="acutecomb" unicode="&#x301;" 
d="M-245 611l124 175h169l-151 -175h-142z" />
    <glyph glyph-name="uni0302" unicode="&#x302;" 
d="M12 610h-139l-40 72l-71 -72h-147l164 174h140z" />
    <glyph glyph-name="tildecomb" unicode="&#x303;" 
d="M-52 773h78q-18 -84 -50 -121t-94 -37q-34 0 -66 19t-51 19q-26 0 -43 -15t-19 -27h-76q16 75 50 114.5t96 39.5q33 0 63.5 -16.5t49.5 -16.5q27 0 43.5 14.5t18.5 26.5z" />
    <glyph glyph-name="uni0304" unicode="&#x304;" 
d="M-283 746h309l-25 -116h-309z" />
    <glyph glyph-name="uni0306" unicode="&#x306;" 
d="M-47 768h122q-15 -74 -67.5 -118t-147.5 -44q-81 0 -121.5 46t-25.5 116h125q-4 -20 8 -35t38 -15t45.5 15t23.5 35z" />
    <glyph glyph-name="uni0307" unicode="&#x307;" 
d="M-175 612l33 152h164l-33 -152h-164z" />
    <glyph glyph-name="uni0308" unicode="&#x308;" 
d="M-401 612l33 152h159l-33 -152h-159zM-189 612l33 152h159l-32 -152h-160z" />
    <glyph glyph-name="uni030A" unicode="&#x30a;" 
d="M-110 600q-56 0 -85 36.5t-18 87.5q27 124 155 124q55 0 84 -36t18 -88q-11 -55 -49.5 -89.5t-104.5 -34.5zM-90 692q13 0 23.5 9t13.5 23t-4 23t-20 9q-30 0 -37 -32q-3 -14 3.5 -23t20.5 -9z" />
    <glyph glyph-name="uni030B" unicode="&#x30b;" 
d="M-471 611l123 175h174l-151 -175h-146zM-269 611l146 175h174l-173 -175h-147z" />
    <glyph glyph-name="uni030C" unicode="&#x30c;" 
d="M-98 784h147l-166 -174h-140l-90 174h137l42 -71z" />
    <glyph glyph-name="uni0312" unicode="&#x312;" 
d="M-57 876h131q-45 -68 -79 -151q-16 -38 -27.5 -70t-15.5 -45l-3 -13h-157q16 56 58 140q21 42 44.5 76.5t35.5 48.5z" />
    <glyph glyph-name="dotbelowcomb" unicode="&#x323;" 
d="M-342 -198l32 152h164l-32 -152h-164z" />
    <glyph glyph-name="uni0326" unicode="&#x326;" 
d="M-290 -309h-126q40 58 75 135q15 31 25.5 59t13.5 41l4 12h152q-17 -56 -55 -124q-21 -39 -43.5 -69.5t-33.5 -42.5z" />
    <glyph glyph-name="uni0327" unicode="&#x327;" 
d="M-186 3l-47 -59q36 -5 58 -28.5t14 -66.5q-24 -115 -183 -115q-36 0 -62.5 2t-34.5 4l-8 1l19 89q16 -6 66 -6q51 0 59 37q3 14 -4 22.5t-24.5 11.5t-30 4t-32.5 1h-1l77 103h134z" />
    <glyph glyph-name="uni0328" unicode="&#x328;" 
d="M-203 10l112 -6q-68 -34 -79 -88q-3 -12 2.5 -21.5t20.5 -9.5q10 0 22.5 3.5t19.5 6.5l7 3l-18 -83q0 -2 -13.5 -8.5t-44.5 -14.5t-67 -8q-53 0 -72 25t-11 62q8 39 38.5 74t56.5 50z" />
    <glyph glyph-name="uni0335" unicode="&#x335;" 
d="M-397 296l21 97h346l-19 -97h-348z" />
    <glyph glyph-name="uni0336" unicode="&#x336;" 
d="M-816 293l21 106h710l-22 -106h-709z" />
    <glyph glyph-name="uni0337" unicode="&#x337;" 
d="M-431 165l-31 101l419 203l31 -100z" />
    <glyph glyph-name="uni0338" unicode="&#x338;" 
d="M-518 94l537 571h104l-537 -571h-104z" />
    <glyph glyph-name="pi" unicode="&#x3c0;" horiz-adv-x="612" 
d="M503 457l-46 -218q-2 -8 -5.5 -23t-5 -23t-3.5 -20.5t-2 -19.5t1 -16t4.5 -14t9 -10t14.5 -7t21 -2h31l-22 -104h-32q-87 0 -123.5 25.5t-35 79t18.5 134.5l45 218h-98l-95 -457h-131l96 457h-86l26 124h530l-26 -124h-86z" />
    <glyph glyph-name="Wgrave" unicode="&#x1e80;" horiz-adv-x="987" 
d="M628 765h-146l-80 169h174zM878 721h188l-369 -721h-162l-26 472l-224 -472h-155l-65 721h179l12 -481l216 481h167l22 -491z" />
    <glyph glyph-name="wgrave" unicode="&#x1e81;" horiz-adv-x="796" 
d="M529 611h-141l-78 175h169zM676 546h164l-282 -546h-136l-24 342l-162 -342h-139l-58 546h157l16 -318l142 318h164l20 -318z" />
    <glyph glyph-name="Wacute" unicode="&#x1e82;" horiz-adv-x="987" 
d="M785 933l-149 -169h-147l122 169h174zM878 721h188l-369 -721h-162l-26 472l-224 -472h-155l-65 721h179l12 -481l216 481h167l22 -491z" />
    <glyph glyph-name="wacute" unicode="&#x1e83;" horiz-adv-x="796" 
d="M673 786l-151 -175h-142l124 175h169zM676 546h164l-282 -546h-136l-24 342l-162 -342h-139l-58 546h157l16 -318l142 318h164l20 -318z" />
    <glyph glyph-name="Wdieresis" unicode="&#x1e84;" horiz-adv-x="987" 
d="M567 917l-32 -153h-164l32 153h164zM783 917l-31 -153h-164l31 153h164zM878 721h188l-369 -721h-162l-26 472l-224 -472h-155l-65 721h179l12 -481l216 481h167l22 -491z" />
    <glyph glyph-name="wdieresis" unicode="&#x1e85;" horiz-adv-x="796" 
d="M461 764l-33 -152h-159l33 152h159zM673 764l-32 -152h-160l33 152h159zM676 546h164l-282 -546h-136l-24 342l-162 -342h-139l-58 546h157l16 -318l142 318h164l20 -318z" />
    <glyph glyph-name="uni1EA0" unicode="&#x1ea0;" horiz-adv-x="673" 
d="M613 0h-179l-12 137h-240l-71 -137h-179l412 721h161zM255 277h156l-22 259zM148 -198l32 152h164l-32 -152h-164z" />
    <glyph glyph-name="uni1EA1" unicode="&#x1ea1;" horiz-adv-x="604" 
d="M336 558q108 0 157.5 -36t50 -100t-16.5 -152l-26 -121l-23 -148h-136l-3 52q-61 -66 -177 -66q-92 0 -134.5 42.5t-25.5 129.5q8 36 22.5 63t30.5 45t45 30.5t52.5 19t66 9.5t72.5 3.5t84 0.5q16 60 5.5 87t-60.5 27q-45 0 -70.5 -22t-31.5 -50h-146q5 27 10.5 45
t24 47.5t44 47.5t73.5 32t112 14zM223 92q76 0 116 67l16 77q-99 0 -141 -14.5t-53 -65.5q-6 -29 9 -46.5t53 -17.5zM107 -202l32 152h164l-32 -152h-164z" />
    <glyph glyph-name="uni1EB8" unicode="&#x1eb8;" horiz-adv-x="607" 
d="M615 575h-320l-29 -139h272l-30 -137h-271l-32 -153h328l-31 -146h-498l150 721h491zM131 -198l32 152h164l-32 -152h-164z" />
    <glyph glyph-name="uni1EB9" unicode="&#x1eb9;" horiz-adv-x="613" 
d="M549 237h-359q-13 -75 1 -105t66 -30q44 0 74 23.5t39 53.5h165q-8 -39 -27 -71t-52.5 -61.5t-90.5 -46t-132 -16.5q-132 0 -182 74t-20 213q15 73 36.5 123.5t58 90t93 58.5t135.5 19q263 0 195 -325zM330 448q-79 0 -116 -110h190q5 60 -11.5 85t-62.5 25zM115 -201
l32 152h164l-32 -152h-164z" />
    <glyph glyph-name="uni1EBC" unicode="&#x1ebc;" horiz-adv-x="607" 
d="M357 805q-26 0 -42.5 -14.5t-18.5 -26.5h-76q33 161 146 161q34 0 65 -16.5t49 -16.5q26 0 43 14.5t19 26.5h77q-17 -85 -50 -125.5t-95 -40.5q-33 0 -65.5 19t-51.5 19zM615 575h-320l-29 -139h272l-30 -137h-271l-32 -153h328l-31 -146h-498l150 721h491z" />
    <glyph glyph-name="uni1EBD" unicode="&#x1ebd;" horiz-adv-x="613" 
d="M321 655q-26 0 -43 -15t-19 -27h-76q16 75 50 114.5t96 39.5q33 0 63.5 -16.5t49.5 -16.5q27 0 43.5 14.5t18.5 26.5h78q-18 -84 -50 -121t-94 -37q-34 0 -66 19t-51 19zM354 562q263 0 195 -325h-359q-13 -75 1 -105t66 -30q44 0 74 23.5t39 53.5h165q-8 -39 -27 -71
t-52.5 -61.5t-90.5 -46t-132 -16.5q-132 0 -182 74t-20 213q15 73 36.5 123.5t58 90t93 58.5t135.5 19zM214 338h190q5 60 -11.5 85t-62.5 25q-79 0 -116 -110z" />
    <glyph glyph-name="uni1ECA" unicode="&#x1eca;" horiz-adv-x="321" 
d="M4 0l150 721h172l-150 -721h-172zM-34 -200l32 152h164l-32 -152h-164z" />
    <glyph glyph-name="uni1ECB" unicode="&#x1ecb;" horiz-adv-x="275" 
d="M113 612l33 152h164l-33 -152h-164zM-18 0l114 546h164l-114 -546h-164zM-58 -198l32 152h164l-32 -152h-164z" />
    <glyph glyph-name="uni1ECC" unicode="&#x1ecc;" horiz-adv-x="711" 
d="M281 -20q-306 0 -226 379q43 205 130.5 293t254.5 88q304 0 224 -381q-43 -204 -130 -291.5t-253 -87.5zM312 129q68 0 109.5 51t68.5 179q28 133 11 183t-93 50q-68 0 -110.5 -52t-68.5 -181q-27 -131 -10 -180.5t93 -49.5zM156 -221l32 152h164l-32 -152h-164z" />
    <glyph glyph-name="uni1ECD" unicode="&#x1ecd;" horiz-adv-x="623" 
d="M237 -16q-132 0 -183.5 76t-23.5 212q30 145 103 217.5t225 72.5q132 0 184 -77t24 -213q-30 -144 -103 -216t-226 -72zM264 111q52 0 84 37.5t50 123.5q20 87 6.5 125t-74.5 38q-51 0 -83 -38.5t-51 -124.5q-20 -88 -6 -124.5t74 -36.5zM116 -203l32 152h164l-32 -152
h-164z" />
    <glyph glyph-name="uni1EE4" unicode="&#x1ee4;" horiz-adv-x="708" 
d="M278 -20q-143 0 -195.5 84t-12.5 274l80 383h172l-79 -379q-26 -130 -12.5 -170.5t78.5 -40.5q58 0 93 44t61 167l79 379h175l-80 -383q-41 -198 -118.5 -278t-240.5 -80zM159 -202l32 152h164l-32 -152h-164z" />
    <glyph glyph-name="uni1EE5" unicode="&#x1ee5;" horiz-adv-x="639" 
d="M443 546h164l-83 -394l-25 -152h-136l-1 77q-76 -92 -195 -92q-92 0 -127.5 52.5t-10.5 173.5l72 335h163l-66 -310q-13 -66 -7 -84q10 -26 52 -26q67 0 130 85zM118 -202l32 152h164l-32 -152h-164z" />
    <glyph glyph-name="Ygrave" unicode="&#x1ef2;" horiz-adv-x="639" 
d="M460 765h-146l-80 169h174zM718 721l-343 -476l-50 -245h-171l51 247l-151 474h184l80 -318l206 318h194z" />
    <glyph glyph-name="ygrave" unicode="&#x1ef3;" horiz-adv-x="572" 
d="M404 611h-141l-78 175h169zM433 546h179l-421 -770h-156l116 224h-38l-77 546h163l32 -392z" />
    <glyph glyph-name="uni1EF8" unicode="&#x1ef8;" horiz-adv-x="639" 
d="M348 805q-26 0 -42.5 -14.5t-18.5 -26.5h-76q33 161 146 161q33 0 64 -16.5t50 -16.5q26 0 43 14.5t19 26.5h77q-17 -85 -50 -125.5t-95 -40.5q-33 0 -65.5 19t-51.5 19zM718 721l-343 -476l-50 -245h-171l51 247l-151 474h184l80 -318l206 318h194z" />
    <glyph glyph-name="uni1EF9" unicode="&#x1ef9;" horiz-adv-x="572" 
d="M286 653q-26 0 -43 -15t-19 -27h-76q16 75 50 114.5t96 39.5q33 0 63.5 -16.5t49.5 -16.5q27 0 43.5 14.5t18.5 26.5h78q-18 -84 -50 -121t-94 -37q-34 0 -66 19t-51 19zM433 546h179l-421 -770h-156l116 224h-38l-77 546h163l32 -392z" />
    <glyph glyph-name="uni2009" unicode="&#x2009;" horiz-adv-x="58" 
 />
    <glyph glyph-name="endash" unicode="&#x2013;" horiz-adv-x="624" 
d="M62 259l25 122h468l-26 -122h-467z" />
    <glyph glyph-name="emdash" unicode="&#x2014;" horiz-adv-x="951" 
d="M64 259l25 122h791l-26 -122h-790z" />
    <glyph glyph-name="uni2016" unicode="&#x2016;" horiz-adv-x="648" 
d="M59 -180l212 1000h133l-213 -1000h-132zM271 -180l213 1000h132l-213 -1000h-132z" />
    <glyph glyph-name="quoteleft" unicode="&#x2018;" horiz-adv-x="283" 
d="M220 470h-159q12 53 57 143q22 44 47 80.5t39 51.5l13 15h132q-47 -72 -84 -159q-16 -40 -27.5 -73t-14.5 -46z" />
    <glyph glyph-name="quoteright" unicode="&#x2019;" horiz-adv-x="267" 
d="M165 470h-132q47 72 84 160q16 40 27 72.5t14 45.5l3 12h160q-13 -52 -57 -142q-22 -44 -46.5 -81t-38.5 -52z" />
    <glyph glyph-name="quotesinglbase" unicode="&#x201a;" horiz-adv-x="310" 
d="M63 -147h-132q47 72 84 159q16 40 27 72.5t14 45.5l3 12h160q-14 -52 -58 -142q-22 -44 -46.5 -80.5t-38.5 -51.5z" />
    <glyph glyph-name="quotedblleft" unicode="&#x201c;" horiz-adv-x="509" 
d="M224 470h-159q13 53 58 143q22 44 46.5 80.5t38.5 51.5l13 15h132q-46 -72 -83 -159q-16 -40 -27.5 -73t-14.5 -46zM447 470h-160q13 53 58 143q22 44 46.5 80.5t38.5 51.5l13 15h132q-48 -72 -83 -159q-16 -40 -27.5 -73t-14.5 -46z" />
    <glyph glyph-name="quotedblright" unicode="&#x201d;" horiz-adv-x="505" 
d="M181 470h-132q47 72 83 160q16 40 27.5 72.5t14.5 45.5l3 12h160q-13 -52 -57 -142q-22 -44 -47 -81t-39 -52zM403 470h-132q46 72 83 160q17 40 28.5 72.5t14.5 45.5l3 12h159q-14 -52 -58 -142q-22 -44 -46.5 -81t-38.5 -52z" />
    <glyph glyph-name="quotedblbase" unicode="&#x201e;" horiz-adv-x="505" 
d="M52 -147h-132q48 72 84 159q16 40 27.5 72.5t14.5 45.5l3 12h159q-13 -52 -58 -142q-22 -44 -46.5 -80.5t-37.5 -51.5zM274 -147h-132q47 72 83 159q17 40 28.5 72.5t14.5 45.5l3 12h159q-14 -52 -58 -142q-22 -44 -46.5 -80.5t-37.5 -51.5z" />
    <glyph glyph-name="dagger" unicode="&#x2020;" horiz-adv-x="497" 
d="M502 613l-27 -124h-137l-102 -489h-131l102 489h-138l27 124h137l37 179h131l-37 -179h138z" />
    <glyph glyph-name="daggerdbl" unicode="&#x2021;" horiz-adv-x="567" 
d="M513 489h-138l-38 -186h138l-26 -124h-138l-38 -179h-130l37 179h-138l27 124h137l38 186h-137l26 124h137l37 179h132l-38 -179h139z" />
    <glyph glyph-name="bullet" unicode="&#x2022;" horiz-adv-x="487" 
d="M109 198l43 204h210l-42 -204h-211z" />
    <glyph glyph-name="ellipsis" unicode="&#x2026;" horiz-adv-x="802" 
d="M4 0l31 144h164l-31 -144h-164zM249 0l30 144h164l-30 -144h-164zM493 0l30 144h164l-30 -144h-164z" />
    <glyph glyph-name="perthousand" unicode="&#x2030;" horiz-adv-x="1248" 
d="M174 349q-181 0 -143 183q20 96 68.5 141.5t152.5 45.5q179 0 141 -187q-20 -95 -67.5 -139t-151.5 -44zM194 443q37 0 53.5 20.5t26.5 68.5q11 46 2 69.5t-45 23.5q-35 0 -53.5 -22.5t-27.5 -70.5q-11 -45 -1.5 -67t45.5 -22zM35 0l598 702h143l-598 -702h-143zM555 -18
q-181 0 -142 183q19 96 67.5 141.5t152.5 45.5q180 0 141 -187q-20 -95 -67.5 -139t-151.5 -44zM575 76q36 0 53.5 20.5t27.5 68.5q11 46 2 69.5t-45 23.5q-35 0 -54 -22.5t-28 -70.5q-11 -45 -1 -67t45 -22zM954 -18q-181 0 -142 183q19 96 67.5 141.5t152.5 45.5
q180 0 141 -187q-19 -94 -66.5 -138.5t-152.5 -44.5zM975 76q35 0 52.5 21t27.5 68q11 46 2 69.5t-45 23.5q-35 0 -54 -22.5t-28 -70.5q-10 -45 0 -67t45 -22z" />
    <glyph glyph-name="guilsinglleft" unicode="&#x2039;" horiz-adv-x="416" 
d="M381 460l-174 -206l90 -179h-174l-79 172l8 34l152 179h177z" />
    <glyph glyph-name="guilsinglright" unicode="&#x203a;" horiz-adv-x="417" 
d="M264 460l77 -179l-8 -34l-150 -172h-177l172 198l-88 187h174z" />
    <glyph glyph-name="fraction" unicode="&#x2044;" horiz-adv-x="264" 
d="M-241 -40l595 796h149l-595 -796h-149z" />
    <glyph glyph-name="uni2070" unicode="&#x2070;" horiz-adv-x="531" 
d="M189 265q-120 0 -157 68t-6 211q33 157 93.5 225t191.5 68q120 0 156.5 -71t4.5 -222q-31 -148 -91.5 -213.5t-191.5 -65.5zM214 379q48 0 75.5 37.5t46.5 127.5q21 97 10 137t-60 40q-47 0 -75.5 -40t-48.5 -137q-20 -89 -8 -127t60 -38z" />
    <glyph glyph-name="uni2074" unicode="&#x2074;" horiz-adv-x="499" 
d="M460 822l-76 -354h59l-21 -100h-59l-20 -93h-132l20 93h-261l21 100l327 354h142zM113 468h140l43 199z" />
    <glyph glyph-name="uni2075" unicode="&#x2075;" horiz-adv-x="493" 
d="M447 716l-223 5l-38 -104q42 24 106 24q81 0 114 -54.5t16 -134.5q-20 -89 -75.5 -138t-175.5 -49q-102 0 -145.5 49t-29.5 114h134q-4 -22 11 -43t52 -21q80 0 99 88q9 41 -5.5 65.5t-55.5 24.5q-27 0 -48.5 -10t-29.5 -20l-8 -9l-121 1l76 220l35 96h334z" />
    <glyph glyph-name="uni2076" unicode="&#x2076;" horiz-adv-x="520" 
d="M473 673h-128q5 25 -8 45t-50 20t-62.5 -29.5t-47.5 -107.5q53 31 117 31q94 0 129 -51.5t18 -130.5q-17 -85 -74 -134.5t-181 -50.5q-113 -1 -152.5 62.5t-12.5 193.5q38 179 98.5 247.5t189.5 68.5q98 0 137.5 -49.5t26.5 -114.5zM304 446q8 41 -6 63.5t-51 22.5
q-54 0 -96 -40q-11 -68 2.5 -98t54.5 -30q79 0 96 82z" />
    <glyph glyph-name="uni2077" unicode="&#x2077;" horiz-adv-x="421" 
d="M162 275h-149q14 67 46.5 137t68 122.5t69 95.5t55.5 66l22 22l-237 -5l22 108h386l-22 -108q-9 -9 -23.5 -25t-54 -66t-72 -99.5t-65.5 -118t-46 -129.5z" />
    <glyph glyph-name="uni2078" unicode="&#x2078;" horiz-adv-x="517" 
d="M2 432q14 63 54.5 100t67.5 41q-10 1 -24 11.5t-24.5 37.5t-2.5 62q10 49 31.5 80.5t71.5 52.5t129 21q99 0 140 -41.5t26 -112.5q-11 -51 -44.5 -80t-55.5 -31q27 -3 52 -40t11 -101q-17 -84 -71 -125t-180 -41q-109 0 -153.5 43.5t-27.5 122.5zM142 444q-15 -73 64 -73
q78 0 93 73q15 75 -61 75q-79 0 -96 -75zM199 672q-13 -61 58 -61q72 0 83 61q16 67 -56 67q-71 0 -85 -67z" />
    <glyph glyph-name="uni2079" unicode="&#x2079;" horiz-adv-x="520" 
d="M303 837q111 1 152.5 -64t13.5 -197q-38 -179 -97 -245t-193 -66q-106 0 -146 49t-27 114h128q-6 -25 9 -45t57 -20q38 0 63.5 26t46.5 99q-53 -31 -117 -31q-94 0 -129.5 52.5t-17.5 139.5q18 86 76 136.5t181 51.5zM184 648q-19 -88 58 -88q54 0 95 39q13 74 0 104.5
t-56 30.5q-78 0 -97 -86z" />
    <glyph glyph-name="Euro" unicode="&#x20ac;" horiz-adv-x="672" 
d="M654 503h-147q5 34 -14.5 55.5t-63.5 21.5q-79 0 -129 -107h161l-20 -93h-172q-3 -10 -7 -30q0 -3 -2.5 -15.5t-3.5 -18.5h172l-19 -94h-163q1 -50 22 -75t67 -25q36 0 66 18.5t39 45.5h145q-53 -206 -280 -206q-114 0 -168 63.5t-52 178.5h-46l20 94h35l6 34q4 20 7 30
h-35l20 93h41q41 122 117 185.5t210 63.5q107 0 159 -63.5t35 -155.5z" />
    <glyph glyph-name="uni20BD" unicode="&#x20bd;" horiz-adv-x="707" 
d="M231 722h206q162 0 227.5 -49.5t38.5 -177.5q-28 -132 -103 -177.5t-262 -45.5h-31l-12 -58h142l-24 -115h-142l-21 -101h-170l21 101h-68l24 115h68l12 58h-68l28 133h68zM540 496q11 59 -20 75.5t-116 16.5h-31l-38 -184h31q85 0 123.5 16.5t50.5 75.5z" />
    <glyph glyph-name="uni2116" unicode="&#x2116;" horiz-adv-x="1254" 
d="M581 721h159l-151 -721h-180l-155 463l-96 -463h-154l150 721h181l158 -472zM1024 631q218 0 170 -233q-25 -121 -81.5 -177t-185.5 -56q-217 0 -167 233q25 121 81 177t183 56zM1046 398q15 61 5.5 88.5t-51.5 27.5q-70 0 -93 -116q-15 -62 -5.5 -89t50.5 -27
q70 0 94 116zM686 0l26 123h427l-26 -123h-427z" />
    <glyph glyph-name="uni2117" unicode="&#x2117;" horiz-adv-x="817" 
d="M491 735q79 0 138 -20t93 -55t52.5 -83.5t17 -106.5t-13.5 -122q-37 -172 -148 -277t-303 -105q-97 0 -163.5 30t-97 81.5t-38.5 121t12 149.5q18 83 53 151t89 122t133 84t176 30zM683 348q15 57 10.5 112t-23.5 98t-69.5 69.5t-126.5 26.5t-136.5 -25.5t-100 -70.5
t-64.5 -97t-38 -113q-10 -48 -11 -90t10.5 -81.5t36 -67.5t69 -45t105.5 -17q76 0 137 25t100 69t63.5 95t37.5 112zM283 563h164q123 0 162.5 -34t18.5 -131q-20 -95 -74.5 -129t-179.5 -34h-26l-21 -101h-135zM491 399q9 39 -7.5 49.5t-61.5 10.5h-26l-25 -118h26
q45 0 65.5 10t28.5 48z" />
    <glyph glyph-name="uni2120" unicode="&#x2120;" horiz-adv-x="778" 
d="M170 626q-4 -20 13.5 -29.5t44 -14.5t52.5 -13t40 -32.5t5 -65.5q-12 -55 -49.5 -81t-111.5 -26q-71 0 -98 28.5t-13 93.5h79q-12 -54 43 -54q26 0 43 10t20 25q5 22 -11.5 32.5t-43 15t-52 12t-39.5 33.5t-5 70q21 101 152 101q69 0 94.5 -28.5t12.5 -86.5h-77
q5 20 -5.5 33t-35.5 13q-50 0 -58 -36zM793 714l-73 -341h-82l51 222l-122 -223h-80l-22 217l-42 -216h-77l72 341h112l25 -231l120 231h118z" />
    <glyph glyph-name="trademark" unicode="&#x2122;" horiz-adv-x="674" 
d="M266 646h-87l-58 -273h-82l58 273h-86l16 75h254zM693 714l-73 -341h-81l51 225l-123 -226h-79l-23 222l-43 -221h-75l71 341h115l22 -225l118 225h120z" />
    <glyph glyph-name="oneeighth" unicode="&#x215b;" horiz-adv-x="1093" 
d="M1047 409q-11 -51 -44.5 -80t-55.5 -31q27 -3 52 -40t11 -101q-17 -84 -71 -125t-180 -41q-109 0 -153.5 43.5t-27.5 122.5q14 63 54.5 100t67.5 41q-10 1 -24 11.5t-24.5 37.5t-2.5 62q10 49 31.5 80.5t71.5 52.5t129 21q99 0 140 -41.5t26 -112.5zM875 169
q15 75 -61 75q-79 0 -96 -75q-15 -73 64 -73q78 0 93 73zM916 397q16 67 -56 67q-71 0 -85 -67q-13 -61 58 -61q72 0 83 61zM666 756h149l-595 -796h-149zM162 206h-133l92 432l-99 -42l22 104l151 60h85z" />
    <glyph glyph-name="threeeighths" unicode="&#x215c;" horiz-adv-x="1258" 
d="M1212 409q-11 -51 -44.5 -80t-55.5 -31q27 -3 52 -40t11 -101q-17 -84 -71 -125t-180 -41q-109 0 -153.5 43.5t-27.5 122.5q14 63 54.5 100t67.5 41q-10 1 -24 11.5t-24.5 37.5t-2.5 62q10 49 31.5 80.5t71.5 52.5t129 21q99 0 140 -41.5t26 -112.5zM1040 169
q15 75 -61 75q-79 0 -96 -75q-15 -73 64 -73q78 0 93 73zM1081 397q16 67 -56 67q-71 0 -85 -67q-13 -61 58 -61q72 0 83 61zM406 378q-19 -85 -74.5 -133.5t-173.5 -48.5q-102 0 -143.5 52.5t-24.5 133.5h133q-7 -32 6 -55.5t50 -23.5q39 0 63 23t32 60q20 89 -77 89
l-65 -4l17 81l136 98l-220 -8l23 109h388l-20 -95l-138 -110q116 -34 88 -168zM831 756h149l-595 -796h-149z" />
    <glyph glyph-name="fiveeighths" unicode="&#x215d;" horiz-adv-x="1270" 
d="M1224 409q-11 -51 -44.5 -80t-55.5 -31q27 -3 52 -40t11 -101q-17 -84 -71 -125t-180 -41q-109 0 -153.5 43.5t-27.5 122.5q14 63 54.5 100t67.5 41q-10 1 -24 11.5t-24.5 37.5t-2.5 62q10 49 31.5 80.5t71.5 52.5t129 21q99 0 140 -41.5t26 -112.5zM1052 169
q15 75 -61 75q-79 0 -96 -75q-15 -73 64 -73q78 0 93 73zM1093 397q16 67 -56 67q-71 0 -85 -67q-13 -61 58 -61q72 0 83 61zM422 383q-20 -89 -75.5 -138t-175.5 -49q-102 0 -145.5 49t-29.5 114h134q-4 -22 11 -43t52 -21q80 0 99 88q9 41 -5.5 65.5t-55.5 24.5
q-27 0 -48.5 -9.5t-29.5 -19.5l-8 -10l-121 1l76 220l35 96h334l-22 -104l-223 5l-38 -104q42 24 106 24q81 0 114 -54.5t16 -134.5zM843 756h149l-595 -796h-149z" />
    <glyph glyph-name="seveneighths" unicode="&#x215e;" horiz-adv-x="1156" 
d="M641 157q14 63 54.5 100t67.5 41q-10 1 -24 11.5t-24.5 37.5t-2.5 62q10 49 31.5 80.5t71.5 52.5t129 21q99 0 140 -41.5t26 -112.5q-11 -51 -44.5 -80t-55.5 -31q27 -3 52 -40t11 -101q-17 -84 -71 -125t-180 -41q-109 0 -153.5 43.5t-27.5 122.5zM781 169
q-15 -73 64 -73q78 0 93 73q15 75 -61 75q-79 0 -96 -75zM838 397q-13 -61 58 -61q72 0 83 61q16 67 -56 67q-71 0 -85 -67zM134 -40l595 796h149l-595 -796h-149zM162 206h-149q14 67 46.5 137t68 122.5t69 95.5t55.5 65l22 23l-237 -5l22 108h386l-22 -108
q-9 -9 -23.5 -25t-54 -66t-72 -99.5t-65.5 -118t-46 -129.5z" />
    <glyph glyph-name="arrowleft" unicode="&#x2190;" horiz-adv-x="748" 
d="M700 373v-166l-403 9l150 -117l-85 -102l-354 290l355 297l85 -101l-151 -117z" />
    <glyph glyph-name="arrowup" unicode="&#x2191;" horiz-adv-x="643" 
d="M594 303l-101 -84l-117 150l8 -403h-166l8 403l-117 -150l-101 84l290 354z" />
    <glyph glyph-name="arrowright" unicode="&#x2192;" horiz-adv-x="747" 
d="M344 603l354 -291l-354 -296l-84 101l151 118l-403 -8v165l403 -8l-150 118z" />
    <glyph glyph-name="arrowdown" unicode="&#x2193;" horiz-adv-x="643" 
d="M493 403l102 -84l-290 -355l-297 355l101 85l118 -152l-8 404h166l-9 -403z" />
    <glyph glyph-name="arrowboth" unicode="&#x2194;" horiz-adv-x="1078" 
d="M675 584l355 -297l-355 -290l-84 102l151 118l-449 2l154 -120l-85 -102l-354 290l355 297l85 -101l-155 -120h451l-154 120z" />
    <glyph glyph-name="arrowupdn" unicode="&#x2195;" horiz-adv-x="643" 
d="M374 66l120 154l100 -84l-296 -356l-290 355l102 85l118 -152l1 449l-119 -153l-102 84l290 355l296 -356l-100 -84l-121 155z" />
    <glyph glyph-name="uni2196" unicode="&#x2196;" horiz-adv-x="606" 
d="M568 112l-118 -118l-279 291l24 -188l-132 -13l-45 457l461 -42l-12 -131l-191 24z" />
    <glyph glyph-name="uni2197" unicode="&#x2197;" horiz-adv-x="601" 
d="M87 498l456 46l-41 -461l-131 12l23 190l-279 -291l-117 117l290 279l-189 -23z" />
    <glyph glyph-name="uni2198" unicode="&#x2198;" horiz-adv-x="605" 
d="M87 56l12 132l190 -24l-291 280l116 117l280 -291l-23 189l130 13l46 -457z" />
    <glyph glyph-name="uni2199" unicode="&#x2199;" horiz-adv-x="602" 
d="M272 165l189 23l13 -132l-456 -45l41 461l131 -12l-24 -191l280 292l118 -118z" />
    <glyph glyph-name="minus" unicode="&#x2212;" horiz-adv-x="538" 
d="M42 273l27 124h422l-26 -124h-423z" />
    <glyph glyph-name="infinity" unicode="&#x221e;" horiz-adv-x="821" 
d="M623 483h1q196 0 158 -179t-235 -179h-1q-59 0 -96 26.5t-66 73.5q-102 -100 -204 -100h-1q-196 0 -158 179t235 179h1q59 0 96 -26.5t66 -73.5q102 100 204 100zM201 229q63 0 140 75q-45 75 -108 75q-76 0 -93 -75q-16 -75 61 -75zM662 304q17 75 -60 75
q-63 0 -140 -75q45 -75 108 -75q76 0 92 75z" />
    <glyph glyph-name="approxequal" unicode="&#x2248;" horiz-adv-x="603" 
d="M493 521h95q-8 -39 -20 -69t-34 -58t-58 -43.5t-84 -15.5q-47 0 -92.5 27.5t-82.5 27.5q-29 0 -49 -19.5t-23 -35.5h-95q18 84 61.5 135t134.5 51q47 0 92 -27.5t82 -27.5q29 0 49 19t24 36zM448 308h95q-8 -39 -20.5 -68.5t-34 -58t-57.5 -43.5t-84 -15q-47 0 -92 27.5
t-82 27.5q-29 0 -49.5 -19.5t-23.5 -35.5h-96q8 39 20.5 68.5t34 58t57.5 43.5t84 15q47 0 92.5 -27.5t82.5 -27.5q29 0 49.5 19.5t23.5 35.5z" />
    <glyph glyph-name="notequal" unicode="&#x2260;" horiz-adv-x="580" 
d="M513 349h-155l-53 -68h194l-27 -124h-265l-68 -86h-109l68 86h-71l27 124h142l53 68h-180l26 124h252l61 77h109l-61 -77h83z" />
    <glyph glyph-name="lessequal" unicode="&#x2264;" horiz-adv-x="625" 
d="M589 628l-30 -138l-330 -76l299 -76l-30 -138l-419 146l29 136zM22 47l27 124h438l-26 -124h-439z" />
    <glyph glyph-name="greaterequal" unicode="&#x2265;" horiz-adv-x="625" 
d="M156 628l419 -146l-29 -136l-481 -146l29 138l331 76l-299 76zM37 47l27 124h438l-27 -124h-438z" />
    <glyph glyph-name="acutecomb.case" 
d="M-209 764l122 169h174l-149 -169h-147z" />
    <glyph glyph-name="at.case" horiz-adv-x="891" 
d="M537 784q196 0 273 -115t38 -302q-28 -136 -79.5 -200t-148.5 -64h-1q-86 0 -112 78q-55 -53 -153 -53q-83 0 -115 61t-8 176q24 117 77.5 177t144.5 60q71 0 111 -53l25 52h115l-64 -308q-20 -98 21 -98q16 0 28 9.5t29 49.5t32 113q17 68 11 127.5t-29.5 104t-78 70
t-135.5 25.5q-80 0 -143.5 -25t-106.5 -71t-70.5 -103t-41.5 -128q-12 -56 -14 -101t9 -88t37.5 -72t75.5 -46.5t119 -17.5q140 0 211 32l-20 -94q-81 -28 -210 -28q-200 0 -277 112.5t-37 302.5q88 417 487 417zM410 232q62 0 92 47l3 14l32 156q-18 48 -72 48
q-32 0 -58 -34t-39 -98q-13 -67 -1.5 -100t43.5 -33z" />
    <glyph glyph-name="bitcoin" horiz-adv-x="598" 
d="M562 530q-21 -105 -82 -141q38 -22 47.5 -62t-3.5 -91q-9 -44 -18.5 -69.5t-29.5 -50t-54 -37.5t-87 -20l-21 -102h-96l21 95h-42l-20 -95h-97l21 95h-52v1h-45l135 653h97l17 79h97l-17 -79h41l17 79h96l-20 -89q68 -15 89 -55t6 -111zM362 253q10 48 -8.5 62t-88.5 14
h-35l-31 -151h35q70 0 94.5 14.5t33.5 60.5zM399 511q9 43 -7.5 56t-74.5 13h-35l-28 -137h34q58 0 79.5 13t31.5 55z" />
    <glyph glyph-name="braceleft.case" horiz-adv-x="469" 
d="M525 758l-29 -138q-82 0 -110.5 -18.5t-42.5 -85.5l-15 -71q-8 -38 -31.5 -67.5t-39.5 -38t-25 -11.5q66 -33 49 -117l-15 -70q-15 -69 5.5 -87.5t102.5 -18.5l-28 -138q-62 0 -104 4t-73.5 14.5t-48.5 26t-24.5 42t-6 59t11.5 80.5l18 85q7 32 -7 44t-67 12l28 128
q52 0 70.5 11.5t24.5 43.5l21 99q10 49 19.5 78.5t26 56t37 39t57 22.5t82 13t114.5 3z" />
    <glyph glyph-name="braceright.case" horiz-adv-x="469" 
d="M-62 -103l29 138q82 0 110 18t42 86l15 72q18 83 96 117q-3 1 -8 4t-16 12t-17 22t-10.5 33t2.5 46l17 73q13 66 -8 84t-103 18l30 138q62 0 104 -4t73.5 -14t48 -25.5t24 -41.5t5.5 -58t-11 -79l-18 -89q-6 -32 8 -44t67 -12l-28 -128q-53 0 -71.5 -11.5t-24.5 -43.5
l-21 -99q-10 -49 -19 -78t-25.5 -55.5t-37 -39.5t-57 -23t-82 -13t-114.5 -3z" />
    <glyph glyph-name="bracketleft.case" horiz-adv-x="446" 
d="M472 624h-157l-120 -577h158l-28 -137h-316l177 850h316z" />
    <glyph glyph-name="bracketright.case" horiz-adv-x="443" 
d="M435 760l-177 -850h-316l30 137h158l120 577h-160l29 136h316z" />
    <glyph glyph-name="caroncomb.alt" 
d="M-255 548l115 212h144l-148 -212h-111z" />
    <glyph glyph-name="caroncomb.alt.case" 
d="M-217 764l130 223h163l-158 -223h-135z" />
    <glyph glyph-name="dagger.sups" horiz-adv-x="304" 
d="M315 674l-16 -77h-66l-47 -224h-88l47 224h-67l17 77h66l17 81h88l-17 -81h66z" />
    <glyph glyph-name="daggerdbl.sups" horiz-adv-x="299" 
d="M301 597h-66l-13 -66h65l-15 -78h-66l-17 -80h-89l17 80h-66l16 78h66l14 66h-67l17 77h66l17 81h88l-17 -81h67z" />
    <glyph glyph-name="eight.dnom" horiz-adv-x="517" 
d="M2 157q14 63 54.5 100t67.5 41q-10 1 -24 11.5t-24.5 37.5t-2.5 62q10 49 31.5 80.5t71.5 52.5t129 21q99 0 140 -41.5t26 -112.5q-11 -51 -44.5 -80t-55.5 -31q27 -3 52 -40t11 -101q-17 -84 -71 -125t-180 -41q-109 0 -153.5 43.5t-27.5 122.5zM142 169q-15 -73 64 -73
q78 0 93 73q15 75 -61 75q-79 0 -96 -75zM199 397q-13 -61 58 -61q72 0 83 61q16 67 -56 67q-71 0 -85 -67z" />
    <glyph glyph-name="eight.numr" horiz-adv-x="517" 
d="M2 363q14 63 54.5 100t67.5 41q-10 1 -24 11.5t-24.5 37.5t-2.5 62q10 49 31.5 80.5t71.5 52.5t129 21q99 0 140 -41.5t26 -112.5q-11 -51 -44.5 -80t-55.5 -31q27 -3 52 -40t11 -101q-17 -84 -71 -125t-180 -41q-109 0 -153.5 43.5t-27.5 122.5zM142 375q-15 -73 64 -73
q78 0 93 73q15 75 -61 75q-79 0 -96 -75zM199 603q-13 -61 58 -61q72 0 83 61q16 67 -56 67q-71 0 -85 -67z" />
    <glyph glyph-name="eight.subs" horiz-adv-x="517" 
d="M2 -44q14 63 54.5 100t67.5 41q-10 1 -24 11.5t-24.5 37.5t-2.5 62q10 49 31.5 80.5t71.5 52.5t129 21q99 0 140 -41.5t26 -112.5q-11 -51 -44.5 -80t-55.5 -31q27 -3 52 -40t11 -101q-17 -84 -71 -125t-180 -41q-109 0 -153.5 43.5t-27.5 122.5zM142 -32q-15 -73 64 -73
q78 0 93 73q15 75 -61 75q-79 0 -96 -75zM199 196q-13 -61 58 -61q72 0 83 61q16 67 -56 67q-71 0 -85 -67z" />
    <glyph glyph-name="eight.tf" horiz-adv-x="704" 
d="M36 208q16 79 68.5 127.5t83.5 52.5q-8 1 -19.5 9.5t-25.5 25.5t-19 42.5t1 62.5q14 63 42 104.5t92 68.5t164 27q124 0 178.5 -55t35.5 -145q-13 -62 -55 -99t-67 -41q11 -1 26.5 -12t31.5 -33.5t22 -55.5t-2 -79q-11 -54 -31 -91.5t-56 -68t-95 -45t-142 -14.5
q-141 0 -198 57.5t-35 161.5zM214 222q-9 -46 8 -70t76 -24q50 0 81.5 25.5t40.5 68.5q10 47 -7 72t-76 25q-50 0 -82 -26.5t-41 -70.5zM292 513q-15 -74 71 -74q85 0 100 74q18 83 -68 83q-85 0 -103 -83z" />
    <glyph glyph-name="exclamdown.case" horiz-adv-x="288" 
d="M116 581l30 140h164l-30 -140h-164zM-4 0l122 526h139l-98 -526h-163z" />
    <glyph glyph-name="five.dnom" horiz-adv-x="493" 
d="M447 441l-223 5l-38 -104q42 24 106 24q81 0 114 -54.5t16 -134.5q-20 -89 -75.5 -138t-175.5 -49q-102 0 -145.5 49t-29.5 114h134q-4 -22 11 -43t52 -21q80 0 99 88q9 41 -5.5 65.5t-55.5 24.5q-27 0 -48.5 -9.5t-29.5 -19.5l-8 -10l-121 1l76 220l35 96h334z" />
    <glyph glyph-name="five.numr" horiz-adv-x="493" 
d="M447 647l-223 5l-38 -104q42 24 106 24q81 0 114 -54.5t16 -134.5q-20 -89 -75.5 -138t-175.5 -49q-102 0 -145.5 49t-29.5 114h134q-4 -22 11 -43t52 -21q80 0 99 88q9 41 -5.5 65.5t-55.5 24.5q-27 0 -48.5 -9.5t-29.5 -19.5l-8 -10l-121 1l76 220l35 96h334z" />
    <glyph glyph-name="five.subs" horiz-adv-x="493" 
d="M447 240l-223 5l-38 -104q42 24 106 24q81 0 114 -54.5t16 -134.5q-20 -89 -75.5 -138t-175.5 -49q-102 0 -145.5 49t-29.5 114h134q-4 -22 11 -43t52 -21q80 0 99 88q9 41 -5.5 65.5t-55.5 24.5q-27 0 -48.5 -10t-29.5 -20l-8 -9l-121 1l76 220l35 96h334z" />
    <glyph glyph-name="five.tf" horiz-adv-x="704" 
d="M621 562l-277 3l-40 -116q50 25 116 25q104 0 149.5 -66t22.5 -178q-25 -119 -98 -179t-223 -60q-123 0 -177.5 61t-36.5 153h165q-4 -6 -1 -18.5t8.5 -25t24 -21.5t47.5 -9q47 0 78.5 29t39.5 70q21 108 -76 108q-28 0 -52 -13t-34 -26l-10 -13l-161 2l95 278l48 135
h422z" />
    <glyph glyph-name="four.dnom" horiz-adv-x="499" 
d="M460 547l-76 -354h59l-21 -100h-59l-20 -93h-132l20 93h-261l21 100l327 354h142zM113 193h140l43 199z" />
    <glyph glyph-name="four.numr" horiz-adv-x="499" 
d="M460 753l-76 -354h59l-21 -100h-59l-20 -93h-132l20 93h-261l21 100l327 354h142zM113 399h140l43 199z" />
    <glyph glyph-name="four.subs" horiz-adv-x="499" 
d="M460 346l-76 -354h59l-21 -100h-59l-20 -93h-132l20 93h-261l21 100l327 354h142zM113 -8h140l43 199z" />
    <glyph glyph-name="four.tf" horiz-adv-x="704" 
d="M624 701l-92 -444h81l-29 -140h-82l-24 -117h-170l25 117h-325l29 140l410 444h177zM208 257h156l49 228z" />
    <glyph glyph-name="gravecomb.case" 
d="M39 765h-146l-80 169h174z" />
    <glyph glyph-name="guillemotleft.case" horiz-adv-x="655" 
d="M388 518l-174 -206l90 -179h-174l-79 172l7 34l153 179h177zM637 518l-175 -207l92 -178h-174l-80 172l7 34l153 179h177z" />
    <glyph glyph-name="guillemotright.case" horiz-adv-x="655" 
d="M347 339l-7 -34l-150 -172h-177l172 198l-88 187h174zM519 518l77 -179l-7 -34l-150 -172h-177l173 198l-89 187h173z" />
    <glyph glyph-name="guilsinglleft.case" horiz-adv-x="406" 
d="M388 518l-174 -206l91 -179h-175l-79 172l7 34l153 179h177z" />
    <glyph glyph-name="guilsinglright.case" horiz-adv-x="406" 
d="M271 518l76 -179l-7 -34l-150 -172h-177l172 198l-88 187h174z" />
    <glyph glyph-name="i.loclTRK" horiz-adv-x="275" 
d="M113 612l33 152h164l-33 -152h-164zM-18 0l114 546h164l-114 -546h-164z" />
    <glyph glyph-name="nine.dnom" horiz-adv-x="520" 
d="M303 562q111 1 152.5 -64t13.5 -197q-38 -179 -97 -245t-193 -66q-106 0 -146 49t-27 114h128q-6 -25 9 -45t57 -20q38 0 63.5 26t46.5 99q-53 -31 -117 -31q-94 0 -129.5 52.5t-17.5 139.5q18 86 76 136.5t181 51.5zM184 373q-19 -88 58 -88q54 0 95 39q13 74 0 104.5
t-56 30.5q-78 0 -97 -86z" />
    <glyph glyph-name="nine.numr" horiz-adv-x="520" 
d="M303 768q111 1 152.5 -64t13.5 -197q-38 -179 -97 -245t-193 -66q-106 0 -146 49t-27 114h128q-6 -25 9 -45t57 -20q38 0 63.5 26t46.5 99q-53 -31 -117 -31q-94 0 -129.5 52.5t-17.5 139.5q18 86 76 136.5t181 51.5zM184 579q-19 -88 58 -88q54 0 95 39q13 74 0 104.5
t-56 30.5q-78 0 -97 -86z" />
    <glyph glyph-name="nine.subs" horiz-adv-x="520" 
d="M303 361q111 1 152.5 -64t13.5 -197q-38 -179 -97 -245t-193 -66q-106 0 -146 49t-27 114h128q-6 -25 9 -45t57 -20q38 0 63.5 26t46.5 99q-53 -31 -117 -31q-94 0 -129.5 52.5t-17.5 139.5q18 86 76 136.5t181 51.5zM184 172q-19 -88 58 -88q54 0 95 39q13 74 0 104.5
t-56 30.5q-78 0 -97 -86z" />
    <glyph glyph-name="nine.tf" horiz-adv-x="704" 
d="M418 726q135 1 189 -83.5t20 -246.5q-48 -229 -124 -319t-240 -90q-56 0 -99 13t-67 34.5t-39.5 49t-16 57t3.5 58.5h170q-1 -15 -1 -31t20 -28.5t58 -12.5q42 0 71.5 29t55.5 111q-66 -38 -145 -38q-110 0 -155.5 74t-24.5 178q50 244 324 245zM268 479q-11 -56 3 -86
t66 -30q65 0 117 43q20 103 5.5 141t-70.5 38q-44 0 -77.5 -29t-43.5 -77z" />
    <glyph glyph-name="one.dnom" horiz-adv-x="296" 
d="M195 554h85l-118 -554h-133l92 432l-99 -42l22 104z" />
    <glyph glyph-name="one.numr" horiz-adv-x="296" 
d="M195 760h85l-118 -554h-133l92 432l-99 -42l22 104z" />
    <glyph glyph-name="one.subs" horiz-adv-x="296" 
d="M195 353h85l-118 -554h-133l92 432l-99 -42l22 104z" />
    <glyph glyph-name="one.tf" horiz-adv-x="704" 
d="M413 139h130l-28 -139h-418l28 139h118l86 416l-143 -61l31 144l192 80h125z" />
    <glyph glyph-name="paragraph.alt" horiz-adv-x="681" 
d="M703 760l-159 -760h-131l131 625h-64l-130 -625h-132l53 254q-165 4 -215 56t-20 196q22 101 58 153t101 75t182 26h326z" />
    <glyph glyph-name="parenleft.case" horiz-adv-x="393" 
d="M266 760h166q-5 -6 -13.5 -18.5t-33 -55t-46.5 -90t-47 -123t-42 -154.5q-26 -142 -21.5 -239.5t22.5 -147.5l18 -51h-166q-3 6 -8 17.5t-15.5 52t-15.5 87t-1 123t21 158.5t42 158t48.5 125t44.5 86.5t34 54.5z" />
    <glyph glyph-name="parenright.case" horiz-adv-x="393" 
d="M136 760h167q2 -6 6 -17.5t10.5 -53t8.5 -88.5t-4 -123.5t-23 -158.5t-44 -157.5t-53.5 -124.5t-50 -86t-38.5 -53l-15 -17h-166q6 6 16 18.5t37.5 54.5t51.5 89t51.5 122t44.5 154t23 153.5t3 124.5t-8.5 88.5t-10.5 56.5z" />
    <glyph glyph-name="questiondown.case" horiz-adv-x="564" 
d="M463 721l-28 -136h-164l28 136h164zM266 531h151l-3 -16q-10 -52 -33.5 -93.5t-51 -68t-54 -49.5t-47.5 -51t-28 -60q-17 -83 54 -83q43 0 63 29t34 94h164q-28 -139 -94.5 -203.5t-198.5 -64.5q-119 0 -165 57.5t-27 150.5q11 53 35.5 95t53.5 69.5t57 52.5t52 56.5
t34 68.5z" />
    <glyph glyph-name="registered.alt" horiz-adv-x="492" 
d="M329 749q110 0 148 -59.5t17 -158.5q-21 -98 -83.5 -156t-173.5 -58q-110 0 -148.5 58t-17.5 156q21 99 84.5 158.5t173.5 59.5zM441 531q36 172 -122 172t-194 -172q-35 -168 122 -168t194 168zM208 657h83q76 0 96 -14.5t9 -68.5q-13 -58 -45 -72l22 -91l-85 2l-9 79
h-32l-17 -79h-74zM258 546h7q34 0 44.5 4t14.5 24q5 21 -4 26t-42 5h-7z" />
    <glyph glyph-name="section.sups" horiz-adv-x="336" 
d="M341 668h-71q3 15 -5 23.5t-32 8.5q-39 0 -44 -23q-4 -17 19.5 -25t53 -11t50 -23t12.5 -58q-8 -35 -43 -61q26 -21 17 -62q-9 -43 -39.5 -63.5t-98.5 -20.5q-58 0 -83 23.5t-15 72.5h70q-9 -41 38 -41q45 0 50 23q3 15 -12 22.5t-38 11.5t-45 10.5t-34.5 26t-5.5 51.5
q6 30 43 59q-26 20 -16 64q16 79 131 79q56 0 81.5 -22.5t16.5 -64.5zM245 554q4 21 -29 29q-7 2 -23 5q-5 1 -8 2q-18 -16 -22 -37q-3 -15 10 -21t40 -11q5 0 8 -1q20 14 24 34z" />
    <glyph glyph-name="seven.dnom" horiz-adv-x="421" 
d="M162 0h-149q14 67 46.5 137t68 122.5t69 95.5t55.5 65l22 23l-237 -5l22 108h386l-22 -108q-9 -9 -23.5 -25t-54 -66t-72 -99.5t-65.5 -118t-46 -129.5z" />
    <glyph glyph-name="seven.numr" horiz-adv-x="421" 
d="M162 206h-149q14 67 46.5 137t68 122.5t69 95.5t55.5 65l22 23l-237 -5l22 108h386l-22 -108q-9 -9 -23.5 -25t-54 -66t-72 -99.5t-65.5 -118t-46 -129.5z" />
    <glyph glyph-name="seven.subs" horiz-adv-x="421" 
d="M162 -201h-149q14 67 46.5 137t68 122.5t69 95.5t55.5 66l22 22l-237 -5l22 108h386l-22 -108q-9 -9 -23.5 -25t-54 -66t-72 -99.5t-65.5 -118t-46 -129.5z" />
    <glyph glyph-name="seven.tf" horiz-adv-x="704" 
d="M307 0h-187q17 84 58 172.5t87 155t89.5 120.5t71.5 82l29 29l-310 -2l32 144h501l-31 -144q-11 -11 -30.5 -31.5t-71.5 -84t-94.5 -126t-85 -150t-58.5 -165.5z" />
    <glyph glyph-name="six.dnom" horiz-adv-x="520" 
d="M473 398h-128q5 25 -8 45t-50 20t-62.5 -29.5t-47.5 -107.5q53 31 117 31q94 0 129 -51.5t18 -130.5q-17 -85 -74 -134.5t-181 -50.5q-113 -1 -152.5 62.5t-12.5 193.5q38 179 98.5 247.5t189.5 68.5q98 0 137.5 -49.5t26.5 -114.5zM304 171q8 41 -6 63.5t-51 22.5
q-54 0 -96 -40q-11 -68 2.5 -98t54.5 -30q79 0 96 82z" />
    <glyph glyph-name="six.numr" horiz-adv-x="520" 
d="M473 604h-128q5 25 -8 45t-50 20t-62.5 -29.5t-47.5 -107.5q53 31 117 31q94 0 129 -51.5t18 -130.5q-17 -85 -74 -134.5t-181 -50.5q-113 -1 -152.5 62.5t-12.5 193.5q38 179 98.5 247.5t189.5 68.5q98 0 137.5 -49.5t26.5 -114.5zM304 377q8 41 -6 63.5t-51 22.5
q-54 0 -96 -40q-11 -68 2.5 -98t54.5 -30q79 0 96 82z" />
    <glyph glyph-name="six.subs" horiz-adv-x="520" 
d="M473 197h-128q5 25 -8 45t-50 20t-62.5 -29.5t-47.5 -107.5q53 31 117 31q94 0 129 -51.5t18 -130.5q-17 -85 -74 -134.5t-181 -50.5q-113 -1 -152.5 62.5t-12.5 193.5q38 179 98.5 247.5t189.5 68.5q98 0 137.5 -49.5t26.5 -114.5zM304 -30q8 41 -6 63.5t-51 22.5
q-54 0 -96 -40q-11 -68 2.5 -98t54.5 -30q79 0 96 82z" />
    <glyph glyph-name="six.tf" horiz-adv-x="704" 
d="M639 514h-170q5 27 -9.5 49.5t-59.5 22.5q-39 0 -69.5 -33t-59.5 -123q68 36 146 36q59 0 100.5 -21.5t60 -56t24.5 -77.5t-5 -87q-48 -236 -322 -237q-138 -1 -190 83t-18 247q47 226 125.5 317.5t236.5 91.5q122 0 174.5 -63.5t35.5 -148.5zM424 226q10 48 -6.5 77
t-63.5 29q-67 0 -118 -44q-16 -92 -1 -126t70 -34q44 0 77 27.5t42 70.5z" />
    <glyph glyph-name="three.dnom" horiz-adv-x="483" 
d="M476 545l-20 -95l-138 -110q116 -34 88 -168q-19 -85 -74.5 -133.5t-173.5 -48.5q-102 0 -143.5 52.5t-24.5 133.5h133q-7 -32 6 -55.5t50 -23.5q39 0 63 23t32 60q20 89 -77 89l-65 -4l17 81l136 98l-220 -8l23 109h388z" />
    <glyph glyph-name="three.numr" horiz-adv-x="483" 
d="M476 751l-20 -95l-138 -110q116 -34 88 -168q-19 -85 -74.5 -133.5t-173.5 -48.5q-102 0 -143.5 52.5t-24.5 133.5h133q-7 -32 6 -55.5t50 -23.5q39 0 63 23t32 60q20 89 -77 89l-65 -4l17 81l136 98l-220 -8l23 109h388z" />
    <glyph glyph-name="three.subs" horiz-adv-x="483" 
d="M476 344l-20 -95l-138 -110q116 -34 88 -168q-19 -85 -74.5 -133.5t-173.5 -48.5q-102 0 -143.5 52.5t-24.5 133.5h133q-7 -32 6 -55.5t50 -23.5q39 0 63 23t32 60q20 89 -77 89l-65 -4l17 81l136 98l-220 -8l23 109h388z" />
    <glyph glyph-name="three.tf" horiz-adv-x="704" 
d="M657 701l-26 -128l-174 -128q154 -48 119 -217q-25 -116 -99.5 -176.5t-219.5 -60.5q-122 0 -176.5 65.5t-31.5 174.5h164q-8 -36 8 -65.5t65 -29.5q51 0 80 27.5t37 68.5q9 46 -13 73.5t-93 27.5l-86 -7l26 128l164 112l-261 -7l31 142h486z" />
    <glyph glyph-name="tildecomb.case" 
d="M-18 933h77q-17 -85 -50 -125.5t-95 -40.5q-33 0 -65.5 19t-51.5 19q-26 0 -42.5 -14.5t-18.5 -26.5h-76q33 161 146 161q34 0 65 -16.5t49 -16.5q26 0 43 14.5t19 26.5z" />
    <glyph glyph-name="two.dnom" horiz-adv-x="485" 
d="M-37 1l22 106q100 59 177 115q4 3 22.5 16t24 17t21 15.5t21.5 17t18 16t17.5 17.5t12.5 17t11 19t6 19q7 34 -6.5 54t-48.5 20q-71 0 -89 -88h-136q21 101 76 150.5t174 49.5q99 0 139.5 -48.5t23.5 -128.5q-9 -43 -38 -84.5t-53.5 -64t-64.5 -53.5q-27 -21 -55.5 -41
t-43.5 -30l-16 -10l209 9l-24 -110h-400z" />
    <glyph glyph-name="two.numr" horiz-adv-x="485" 
d="M-37 207l22 106q100 59 177 115q4 3 22.5 16t24 17t21 15.5t21.5 17t18 16t17.5 17.5t12.5 17t11 19t6 19q7 34 -6.5 54t-48.5 20q-71 0 -89 -88h-136q21 101 76 150.5t174 49.5q99 0 139.5 -48.5t23.5 -128.5q-9 -43 -38 -84.5t-53.5 -64t-64.5 -53.5q-27 -21 -55.5 -41
t-43.5 -30l-16 -10l209 9l-24 -110h-400z" />
    <glyph glyph-name="two.subs" horiz-adv-x="485" 
d="M-37 -200l22 106q100 59 177 115q4 3 22.5 16t24 17t21 15.5t21.5 17t18 16t17.5 17.5t12.5 17t11 19t6 19q7 34 -6.5 54t-48.5 20q-71 0 -89 -88h-136q21 101 76 150.5t174 49.5q99 0 139.5 -48.5t23.5 -128.5q-9 -43 -38 -84.5t-53.5 -64t-64.5 -53.5
q-27 -21 -55.5 -41t-43.5 -30l-16 -10l209 9l-24 -110h-400z" />
    <glyph glyph-name="two.tf" horiz-adv-x="704" 
d="M24 0l29 139l33 21q32 21 87.5 59.5t101.5 73.5q10 7 41.5 31t43.5 33.5t36 30.5t34.5 34.5t21.5 32t15 36.5q18 91 -65 91q-87 0 -110 -103h-174q27 129 99 189t217 60q123 0 175.5 -59.5t29.5 -172.5q-9 -40 -28.5 -77.5t-51 -72t-53.5 -55t-59 -51.5
q-35 -28 -74 -54.5t-61 -39.5l-21 -12l262 8l-30 -142h-499z" />
    <glyph glyph-name="uni0302.case" 
d="M38 764h-133l-43 60l-68 -60h-139l143 155h159z" />
    <glyph glyph-name="uni0304.case" 
d="M-250 900h309l-26 -120h-309z" />
    <glyph glyph-name="uni0306.case" 
d="M-17 918h121q-34 -157 -212 -157q-83 0 -121.5 45.5t-24.5 111.5h123q-5 -19 8 -33.5t38 -14.5t44 14.5t24 33.5z" />
    <glyph glyph-name="uni0307.case" 
d="M-142 764l32 153h164l-32 -153h-164z" />
    <glyph glyph-name="uni0308.case" 
d="M-369 764l32 153h164l-32 -153h-164zM-152 764l31 153h164l-31 -153h-164z" />
    <glyph glyph-name="uni030A.case" 
d="M-76 761q-48 0 -76 30.5t-17 80.5q23 110 139 110q48 0 75.5 -30.5t17.5 -79.5q-24 -111 -139 -111zM-59 840q13 0 23.5 9t13.5 23t-3.5 23t-20.5 9q-13 0 -23.5 -9t-13.5 -23t3.5 -23t20.5 -9z" />
    <glyph glyph-name="uni030B.case" 
d="M-435 765l122 169h174l-149 -169h-147zM-232 765l144 169h175l-172 -169h-147z" />
    <glyph glyph-name="uni030C.case" 
d="M-54 919h141l-146 -155h-159l-78 155h130l44 -60z" />
    <glyph glyph-name="uni0338.case" 
d="M-555 7l658 750h127l-658 -750h-127z" />
    <glyph glyph-name="zero.dnom" horiz-adv-x="531" 
d="M189 -10q-120 0 -157 68t-6 211q33 157 93.5 225t191.5 68q120 0 156.5 -71t4.5 -222q-31 -148 -91.5 -213.5t-191.5 -65.5zM214 104q48 0 75.5 37.5t46.5 127.5q21 97 10 137t-60 40q-47 0 -75.5 -40t-48.5 -137q-20 -89 -8 -127t60 -38z" />
    <glyph glyph-name="zero.numr" horiz-adv-x="531" 
d="M189 196q-120 0 -157 68t-6 211q33 157 93.5 225t191.5 68q120 0 156.5 -71t4.5 -222q-31 -148 -91.5 -213.5t-191.5 -65.5zM214 310q48 0 75.5 37.5t46.5 127.5q21 97 10 137t-60 40q-47 0 -75.5 -40t-48.5 -137q-20 -89 -8 -127t60 -38z" />
    <glyph glyph-name="zero.subs" horiz-adv-x="531" 
d="M189 -211q-120 0 -157 68t-6 211q33 157 93.5 225t191.5 68q120 0 156.5 -71t4.5 -222q-31 -148 -91.5 -213.5t-191.5 -65.5zM214 -97q48 0 75.5 37.5t46.5 127.5q21 97 10 137t-60 40q-47 0 -75.5 -40t-48.5 -137q-20 -89 -8 -127t60 -38z" />
    <glyph glyph-name="zero.tf" horiz-adv-x="704" 
d="M272 -13q-153 0 -200.5 87t-9.5 272q22 104 47 170t66 116t101.5 72t148.5 22q154 0 200.5 -90.5t5.5 -289.5q-20 -96 -44 -158.5t-65 -110.5t-101.5 -69t-148.5 -21zM303 135q60 0 96 48.5t59 162.5q29 130 17 181t-81 51q-59 0 -95.5 -52t-63.5 -180
q-26 -116 -13 -163.5t81 -47.5z" />
    </font>
</defs>
</svg>
