<svg xmlns="http://www.w3.org/2000/svg">
<defs>
<font id="TofinoPersonal-BlackItalic" horiz-adv-x="0" >
  <font-face 
    font-family="Tofino Personal Black Italic"
    font-weight="465"
    font-style="italic"
    font-stretch="normal"
    units-per-em="1000"
    panose-1="2 0 0 0 0 0 0 0 0 0"
    ascent="760"
    descent="-240"
    x-height="549"
    cap-height="725"
    bbox="-828 -332 1278.88 1223"
    underline-thickness="50"
    underline-position="-225"
    unicode-range="U+000D-FB04"
  />
<missing-glyph horiz-adv-x="699" 
d="M362 540q8 -13 55 -18q1 -1 4 -1q1 1 1 3l4 9q-42 39 -54 36q-5 -2 -9 -14q-3 -10 -1 -15zM464 495l5 -1q15 0 17 11q2 9 -1 13q-3 5 -12 8q-1 1 -5 1q-14 0 -17 -11q-1 -5 2 -12q4 -8 11 -9zM582 486q4 2 2 16q0 10 -5 15q-12 8 -57 -7q-2 -1 -5 -1q0 -9 -2 -13
q2 -1 3 -1q56 -15 64 -9zM306 239q4 16 -3 25l-2 3h-1q-24 12 -85 12q-22 0 -38.5 -2.5t-22 -5.5t-5.5 -4q-3 -25 6 -50t31 -29q15 -3 38 -3q38 0 54 6q17 11 28 48zM485 188q22 2 30.5 27t6.5 52q-12 12 -67 12q-60 0 -84 -12q-1 0 -1 -2l-3 -1q-7 -8 -2 -25q3 -33 28 -48
q14 -6 52 -6q7 0 40 3zM511 465q77 -80 77 -194q0 -112 -74.5 -191t-178.5 -79t-177.5 79t-73.5 191q0 119 80 197q-27 39 -10 82q16 40 67 66t114 26q65 0 118 -27t70 -70q0 -1 1 -3q52 15 72 -1q18 -13 19 -38q2 -27 -14 -41q-13 -9 -31 -9q-17 0 -59 12zM241 439
q22 -44 102 -78t207 -28q-21 82 -85 132q-7 0 -10 1q-20 7 -28 23h-1q-2 1 -6.5 1.5t-6.5 0.5q-45 6 -62 18q-6 1 -16 1q-47 0 -88 -19q-20 -24 -6 -52zM182 539q-10 -25 5 -50q65 51 144 52q-1 11 3 26q13 28 32 32q29 6 80 -43l3 -2q12 4 19 4q1 0 13 -3q-22 26 -63 41
t-83 15q-52 0 -96 -21t-57 -51zM205 465q-69 -57 -85 -143q37 -1 78 12.5t66 34.5q-36 27 -50 57q-9 20 -9 39zM133 291l10 -9q20 11 72 11q67 0 91 -12q30 -15 59 0q24 12 90 12q54 0 72 -11q10 15 18 21q-10 -1 -31 -1q-133 0 -223 50q-28 -25 -71.5 -42t-86.5 -19z
M335 31q92 0 157 70.5t65 169.5q0 14 -1 21q-10 -9 -20 -23v-1q4 -35 -9 -64t-41 -32q-20 -2 -41 -2q-43 0 -60 9q-27 15 -36 57q-1 3 -1 6q-3 13 -14 13q-8 0 -11 -13q-2 -1 -2 -6q-9 -43 -37 -57q-14 -9 -60 -9q-21 0 -39 2q-28 3 -41.5 32t-9.5 64v1l-19 18v-16

<glyph glyph-name="f_f" unicode="ff" horiz-adv-x="765" 
d="M797 612h-34q-32 0 -51.5 -18t-28.5 -63l-2 -10h98l-30 -139h-97l-79 -382h-200l80 382h-159l-79 -382h-199l79 382h-73l30 139h72l7 33q19 90 78 149.5t173 59.5l90 -1l-32 -150h-34q-33 0 -52.5 -18t-28.5 -63l-2 -10h159l7 33q19 90 77.5 149.5t172.5 59.5l90 -1z" />
    <glyph glyph-name="fi" unicode="fi" horiz-adv-x="709" 
d="M440 612h-34q-33 0 -52.5 -18t-28.5 -63l-2 -10h101l-29 -139h-101l-79 -382h-199l79 382h-73l30 139h72l7 33q45 214 251 213h91zM517 611l35 161h200l-35 -161h-200zM387 0l115 550h200l-115 -550h-200z" />
    <glyph glyph-name="fl" unicode="fl" horiz-adv-x="719" 
d="M440 612h-34q-33 0 -52.5 -18t-28.5 -63l-2 -10h101l-29 -139h-101l-79 -382h-199l79 382h-73l30 139h72l7 33q45 214 251 213h91zM394 0l159 760h199l-158 -760h-200z" />
    <glyph glyph-name="f_f_i" unicode="ffi" horiz-adv-x="1048" 
d="M741 382h-89l-79 -382h-199l79 382h-159l-79 -382h-199l79 382h-73l30 139h72l7 33q19 90 78 149.5t173 59.5l90 -1l-32 -150h-34q-33 0 -52.5 -18t-28.5 -63l-2 -10h159l7 33q19 90 77.5 149.5t172.5 59.5l90 -1l-31 -150h-34q-33 0 -52.5 -18t-28.5 -63l-2 -10h89z
M891 760h200l-32 -149h-200zM731 0l115 550h200l-115 -550h-200z" />
    <glyph glyph-name="f_f_l" unicode="ffl" horiz-adv-x="1059" 
d="M744 382h-92l-79 -382h-200l80 382h-159l-79 -382h-199l79 382h-73l30 139h72l7 33q19 90 78 149.5t173 59.5l90 -1l-32 -150h-34q-33 0 -52.5 -18t-28.5 -63l-2 -10h159l7 33q19 90 77.5 149.5t172.5 59.5l90 -1l-32 -150h-34q-32 0 -51.5 -18t-28.5 -63l-2 -10h91z
M892 760h200l-159 -760h-199z" />
    <glyph glyph-name=".notdef" horiz-adv-x="699" 
d="M362 540q8 -13 55 -18q1 -1 4 -1q1 1 1 3l4 9q-42 39 -54 36q-5 -2 -9 -14q-3 -10 -1 -15zM464 495l5 -1q15 0 17 11q2 9 -1 13q-3 5 -12 8q-1 1 -5 1q-14 0 -17 -11q-1 -5 2 -12q4 -8 11 -9zM582 486q4 2 2 16q0 10 -5 15q-12 8 -57 -7q-2 -1 -5 -1q0 -9 -2 -13
q2 -1 3 -1q56 -15 64 -9zM306 239q4 16 -3 25l-2 3h-1q-24 12 -85 12q-22 0 -38.5 -2.5t-22 -5.5t-5.5 -4q-3 -25 6 -50t31 -29q15 -3 38 -3q38 0 54 6q17 11 28 48zM485 188q22 2 30.5 27t6.5 52q-12 12 -67 12q-60 0 -84 -12q-1 0 -1 -2l-3 -1q-7 -8 -2 -25q3 -33 28 -48
q14 -6 52 -6q7 0 40 3zM511 465q77 -80 77 -194q0 -112 -74.5 -191t-178.5 -79t-177.5 79t-73.5 191q0 119 80 197q-27 39 -10 82q16 40 67 66t114 26q65 0 118 -27t70 -70q0 -1 1 -3q52 15 72 -1q18 -13 19 -38q2 -27 -14 -41q-13 -9 -31 -9q-17 0 -59 12zM241 439
q22 -44 102 -78t207 -28q-21 82 -85 132q-7 0 -10 1q-20 7 -28 23h-1q-2 1 -6.5 1.5t-6.5 0.5q-45 6 -62 18q-6 1 -16 1q-47 0 -88 -19q-20 -24 -6 -52zM182 539q-10 -25 5 -50q65 51 144 52q-1 11 3 26q13 28 32 32q29 6 80 -43l3 -2q12 4 19 4q1 0 13 -3q-22 26 -63 41
t-83 15q-52 0 -96 -21t-57 -51zM205 465q-69 -57 -85 -143q37 -1 78 12.5t66 34.5q-36 27 -50 57q-9 20 -9 39zM133 291l10 -9q20 11 72 11q67 0 91 -12q30 -15 59 0q24 12 90 12q54 0 72 -11q10 15 18 21q-10 -1 -31 -1q-133 0 -223 50q-28 -25 -71.5 -42t-86.5 -19z
M335 31q92 0 157 70.5t65 169.5q0 14 -1 21q-10 -9 -20 -23v-1q4 -35 -9 -64t-41 -32q-20 -2 -41 -2q-43 0 -60 9q-27 15 -36 57q-1 3 -1 6q-3 13 -14 13q-8 0 -11 -13q-2 -1 -2 -6q-9 -43 -37 -57q-14 -9 -60 -9q-21 0 -39 2q-28 3 -41.5 32t-9.5 64v1l-19 18v-16
q0 -99 64.5 -169.5t155.5 -70.5zM403 106q0 -20 -20 -33.5t-49 -13.5t-49 13.5t-20 33.5q0 19 20.5 32.5t48.5 13.5t48.5 -13.5t20.5 -32.5zM249 269l-4 -18q14 -8 14 -26q0 -13 -9 -22t-22 -9q-12 0 -21.5 9t-9.5 22q0 6 2 10l-14 11q-4 3 0 7q2 2 6 0l12 -11l3 6l-7 14
q-2 1 -1.5 3t2.5 3q4 2 6 -3l8 -12q0 1 2 1t3 1l-2 16q0 5 5 5q3 0 5 -4l1 -16q2 0 4.5 -0.5t3.5 -0.5l4 17q2 4 6 4q4 -3 3 -7zM491 253q1 -4 -1 -7l-13 -13q0 -1 0.5 -3.5t0.5 -4.5q0 -13 -9.5 -22t-22.5 -9q-12 0 -21 9t-9 22q0 18 15 26l-5 18q0 4 4 7q5 0 5 -4l4 -17
q2 1 7 1l3 16q0 4 5 4q4 0 4 -5l-3 -16l7 -2l7 12q3 5 5 3q2 -1 3 -3t0 -3l-9 -14q4 -3 4 -6l13 11q1 1 3 1t3 -1z" />
    <glyph glyph-name=".null" 
 />
    <glyph glyph-name="nonmarkingreturn" horiz-adv-x="333" 
 />
    <glyph glyph-name="NULL" 
 />
    <glyph glyph-name="NULL" 
 />
    <glyph glyph-name="CR" unicode="&#xd;" horiz-adv-x="204" 
 />
    <glyph glyph-name="space" unicode=" " horiz-adv-x="204" 
 />
    <glyph glyph-name="exclam" unicode="!" horiz-adv-x="303" 
d="M43 202l93 523h200l-125 -523h-168zM-15 0l33 156h200l-33 -156h-200z" />
    <glyph glyph-name="quotedbl" unicode="&#x22;" horiz-adv-x="508" 
d="M75 464l34 287h210l-86 -287h-158zM327 464l35 287h209l-85 -287h-159z" />
    <glyph glyph-name="numbersign" unicode="#" horiz-adv-x="821" 
d="M750 422h-115l-48 -119h93l-30 -141h-120l-65 -162h-160l65 162h-75l-66 -162h-159l65 162h-85l30 141h112l48 119h-90l30 141h117l56 139h160l-56 -139h75l56 139h160l-56 -139h88zM427 303l48 119h-75l-48 -119h75z" />
    <glyph glyph-name="dollar" unicode="$" horiz-adv-x="587" 
d="M574 486h-183q8 35 -6.5 53.5t-42.5 18.5q-65 0 -75 -51q-5 -23 10 -37t42 -20t60.5 -14t65 -17.5t56.5 -31.5t34.5 -56t-1.5 -90q-20 -97 -76 -146t-178 -58l-5 -62h-127l22 63q-103 10 -142.5 64.5t-16.5 163.5h184q-18 -83 53 -83q76 0 85 50q5 25 -9.5 40t-41.5 20.5
t-60 12.5t-65 16t-56 32t-33 60t3 99q19 87 73 134.5t167 56.5l4 58h127l-20 -59q194 -21 152 -217z" />
    <glyph glyph-name="percent" unicode="%" horiz-adv-x="917" 
d="M185 345q-94 0 -131.5 48t-17.5 139q20 99 69 145t159 46q188 0 148 -191q-20 -97 -68.5 -142t-158.5 -45zM207 451q31 0 47 18.5t25 62.5q9 43 1 64t-39 21q-30 0 -46.5 -20.5t-25.5 -64.5q-10 -42 -1 -61.5t39 -19.5zM53 0l598 702h179l-598 -702h-179zM615 -22
q-188 0 -149 187q21 99 70 145t158 46q188 0 148 -191q-20 -98 -68.5 -142.5t-158.5 -44.5zM637 84q31 0 47.5 19t24.5 62q9 43 1 64t-38 21q-31 0 -47.5 -20.5t-25.5 -64.5q-10 -42 -1 -61.5t39 -19.5z" />
    <glyph glyph-name="ampersand" unicode="&#x26;" horiz-adv-x="781" 
d="M713 -6h-234q-10 13 -28 34q-92 -49 -214 -49q-118 0 -175.5 61.5t-33.5 171.5q27 134 154 203q-24 65 -9 133q20 97 85.5 146t200.5 49q117 0 165.5 -63.5t26.5 -172.5h-190q19 83 -34 83t-65 -54q-6 -32 9 -72.5t31.5 -65.5t61.5 -85q14 -19 21 -29l7 -10q31 59 47 133
h157q-33 -158 -107 -259zM298 127q31 0 65 14q-65 88 -81 110l-29 40q-33 -32 -40 -69q-21 -95 85 -95z" />
    <glyph glyph-name="quotesingle" unicode="'" horiz-adv-x="249" 
d="M71 464l34 287h210l-86 -287h-158z" />
    <glyph glyph-name="parenleft" unicode="(" horiz-adv-x="410" 
d="M262 760h187q-6 -8 -16 -22.5t-37.5 -63.5t-51.5 -101t-51.5 -131.5t-44.5 -158.5q-25 -143 -20 -249t24 -167l19 -61h-188q-3 7 -8.5 21.5t-16.5 62t-16 99t-1.5 132t20.5 162.5q27 131 77.5 250t87.5 173z" />
    <glyph glyph-name="parenright" unicode=")" horiz-adv-x="410" 
d="M137 760h187q3 -7 7 -21.5t11.5 -62t10 -99t-3 -132t-22.5 -162.5t-46 -161.5t-58.5 -134t-56.5 -97.5t-44 -64l-17 -20h-186q7 8 18 22.5t42 63.5t58 101t56.5 131.5t46.5 158.5q26 143 25.5 249t-14.5 167z" />
    <glyph glyph-name="asterisk" unicode="*" horiz-adv-x="513" 
d="M52 536l64 132l93 -44l12 104h133l-32 -104l112 44l8 -132l-115 -15l70 -84l-134 -83l-34 94l-75 -94l-98 83l105 84z" />
    <glyph glyph-name="plus" unicode="+" horiz-adv-x="528" 
d="M501 400l-28 -130h-150l-33 -157h-145l33 157h-150l28 130h150l33 158h145l-33 -158h150z" />
    <glyph glyph-name="comma" unicode="," horiz-adv-x="345" 
d="M75 -153h-144q44 72 83 169q18 46 29.5 80.5t14.5 46.5l2 12h184q-15 -55 -65 -155q-25 -50 -51 -88t-40 -52z" />
    <glyph glyph-name="hyphen" unicode="-" horiz-adv-x="442" 
d="M60 242l32 151h282l-32 -151h-282z" />
    <glyph glyph-name="period" unicode="." horiz-adv-x="339" 
d="M-1 0l33 155h200l-33 -155h-200z" />
    <glyph glyph-name="slash" unicode="/" horiz-adv-x="543" 
d="M-44 -40l478 840h182l-479 -840h-181z" />
    <glyph glyph-name="zero" unicode="0" horiz-adv-x="677" 
d="M265 -15q-161 0 -212 88.5t-13 272.5q22 106 45.5 170t65.5 116t107 74t162 22q161 0 211 -92t9 -290q-21 -98 -43.5 -158.5t-64 -110t-106 -71t-161.5 -21.5zM303 166q49 0 75.5 40t47.5 140q13 61 17 95.5t0 60.5t-19 35.5t-43 9.5q-48 0 -75.5 -44t-50.5 -157
q-23 -98 -14 -139t62 -41z" />
    <glyph glyph-name="one" unicode="1" horiz-adv-x="393" 
d="M273 718h139l-149 -718h-211l111 533l-1 -2l-130 -52l34 159z" />
    <glyph glyph-name="two" unicode="2" horiz-adv-x="624" 
d="M-39 0l34 162l35 20q35 21 91.5 55t97.5 62q5 4 33 22.5t37 25t32 23t32.5 26.5t23.5 25t21 28.5t10 27.5q14 76 -53 76q-69 0 -90 -100h-215q14 69 35 116.5t59.5 85.5t99.5 56t149 18q138 0 193 -65.5t34 -173.5q-25 -123 -191 -247q-71 -55 -127 -83l240 13l-37 -173
h-544z" />
    <glyph glyph-name="three" unicode="3" horiz-adv-x="616" 
d="M643 705l-32 -151l-156 -121q134 -52 101 -209q-11 -53 -31 -92.5t-57 -74t-99 -52.5t-147 -18q-139 0 -196 71t-33 185h209q-7 -34 3.5 -59.5t49.5 -25.5t60 22.5t28 55.5q8 43 -8.5 67.5t-76.5 24.5l-87 -8l28 130l142 93l-266 -11l37 173h531z" />
    <glyph glyph-name="four" unicode="4" horiz-adv-x="657" 
d="M641 705l-92 -440h77l-34 -159h-77l-22 -106h-210l23 106h-334l33 159l412 440h224zM192 265h147l45 208z" />
    <glyph glyph-name="five" unicode="5" horiz-adv-x="624" 
d="M600 539l-280 7l-35 -100q54 24 119 24q109 0 151.5 -68t20.5 -172q-12 -56 -31.5 -96t-56 -75.5t-99 -53.5t-149.5 -18q-137 0 -195.5 65t-40.5 153h210q-2 -8 0 -20t17 -25.5t43 -13.5q38 0 60.5 24t30.5 60q19 93 -55 93q-25 0 -46 -11.5t-30 -22.5l-8 -11l-195 2
l91 271l56 154h457z" />
    <glyph glyph-name="six" unicode="6" horiz-adv-x="665" 
d="M646 508h-204q5 23 -7 42t-49 19q-33 0 -57.5 -28.5t-48.5 -107.5q57 27 129 27q122 0 169.5 -68.5t27.5 -165.5q-8 -40 -20.5 -71.5t-38 -64.5t-61 -55t-92.5 -36t-130 -14q-152 -1 -208.5 83t-21.5 251q25 119 53 192.5t72 124.5t106 71.5t154 20.5q90 0 146.5 -33.5
t74 -82t6.5 -104.5zM392 232q9 40 -5 63.5t-50 23.5q-50 0 -93 -34q-14 -76 -2 -108t56 -32q37 0 62 25.5t32 61.5z" />
    <glyph glyph-name="seven" unicode="7" horiz-adv-x="547" 
d="M260 0h-237q16 80 55.5 165.5t84 149.5t87 116.5t70.5 80.5l27 28l-297 -6l37 171h524l-37 -171q-11 -11 -28.5 -31.5t-65.5 -82.5t-87.5 -122.5t-78.5 -143.5t-54 -154z" />
    <glyph glyph-name="eight" unicode="8" horiz-adv-x="661" 
d="M9 208q16 79 68.5 127.5t83.5 52.5q-8 1 -19.5 9.5t-25.5 25.5t-19 42.5t1 62.5q10 48 27.5 81.5t51.5 62.5t92.5 43t143.5 14q134 0 192 -55t39 -146q-14 -62 -55.5 -99t-66.5 -41q11 -1 26 -12t31 -33.5t22 -55.5t-1 -79q-9 -44 -22 -75.5t-37.5 -60.5t-60.5 -46.5
t-91.5 -27.5t-129.5 -10q-150 0 -211 57.5t-39 162.5zM232 230q-9 -41 3 -64t56 -23q40 0 64 24t31 63q9 42 -2.5 65.5t-56.5 23.5q-40 0 -64 -25t-31 -64zM299 509q-14 -70 54 -70q67 0 81 70q17 79 -51 79q-67 0 -84 -79z" />
    <glyph glyph-name="nine" unicode="9" horiz-adv-x="664" 
d="M407 728q151 1 208.5 -83.5t22.5 -250.5q-26 -121 -52 -193t-70 -124t-106.5 -72t-159.5 -20q-60 0 -106.5 13t-73 35t-42.5 50.5t-17 59.5t4 62h203q-1 -12 -0.5 -26t17 -24.5t48.5 -10.5q36 0 59.5 25t46.5 97q-57 -27 -128 -27q-121 0 -169 68.5t-27 175.5q8 40 21 73
t39 66t62 55t92 36.5t128 14.5zM279 477q-19 -97 54 -97q52 0 92 35q17 83 6 118t-57 35q-36 0 -61 -26t-34 -65z" />
    <glyph glyph-name="colon" unicode=":" horiz-adv-x="339" 
d="M76 366l31 155h200l-31 -155h-200zM-1 0l34 161h200l-34 -161h-200z" />
    <glyph glyph-name="semicolon" unicode=";" horiz-adv-x="350" 
d="M86 366l32 153h200l-32 -153h-200zM62 -153h-144q44 71 82 169q18 46 29.5 80.5t14.5 46.5l3 12h184q-14 -55 -65 -155q-25 -50 -51 -88t-39 -52z" />
    <glyph glyph-name="less" unicode="&#x3c;" horiz-adv-x="604" 
d="M567 547l-33 -153l-321 -64l293 -65l-32 -153l-428 138l34 159z" />
    <glyph glyph-name="equal" unicode="=" horiz-adv-x="599" 
d="M65 347l28 132h470l-27 -132h-471zM23 151l28 132h471l-28 -132h-471z" />
    <glyph glyph-name="greater" unicode="&#x3e;" horiz-adv-x="595" 
d="M119 547l428 -138l-33 -159l-488 -138l33 153l321 65l-293 64z" />
    <glyph glyph-name="question" unicode="?" horiz-adv-x="620" 
d="M353 190h-182l3 16q11 50 35 89t51 63.5t54 46t47.5 49.5t27.5 61q15 76 -44 76q-35 0 -53.5 -27.5t-30.5 -88.5h-197q15 73 35.5 121.5t56 87t91 56.5t134.5 18q129 0 182.5 -62.5t32.5 -160.5q-12 -56 -36.5 -97.5t-54 -67t-58 -47.5t-53.5 -51t-36 -66zM122 0l30 146
h200l-30 -146h-200z" />
    <glyph glyph-name="at" unicode="@" horiz-adv-x="908" 
d="M525 704q129 0 211 -56t108.5 -150t1.5 -215q-15 -70 -31 -114.5t-42.5 -81t-67 -52.5t-98.5 -16h-1q-85 0 -117 68q-54 -47 -149 -47q-80 0 -114 62t-10 175q25 118 78 177.5t145 59.5q64 0 104 -44l20 43h126l-64 -308q-19 -86 29 -86q14 0 25 9.5t25 47t29 107.5
q31 149 -23.5 233t-206.5 84q-285 0 -352 -317q-12 -54 -14 -99t8.5 -88t36 -72t73.5 -46.5t116 -17.5q140 0 210 32l-23 -108q-79 -28 -210 -28q-197 0 -276 116.5t-39 310.5q87 421 492 421zM402 159q52 0 76 35q0 3 2 11l31 152q-16 37 -61 37q-29 0 -51.5 -30t-33.5 -87
q-12 -58 -2 -88t39 -30z" />
    <glyph glyph-name="A" unicode="A" horiz-adv-x="703" 
d="M410 0l-2 121h-197l-58 -121h-222l411 725h198l101 -725h-231zM285 278h120l-4 243z" />
    <glyph glyph-name="B" unicode="B" horiz-adv-x="700" 
d="M668 531q-12 -61 -41.5 -99t-90.5 -59q66 -23 86.5 -64.5t7.5 -104.5q-10 -48 -22.5 -77.5t-38 -56.5t-68 -41t-109 -22t-163.5 -8h-238l151 727h246q178 0 240 -45.5t40 -149.5zM351 576h-28l-29 -137h29q77 0 105.5 14t36.5 54q8 41 -14.5 55t-99.5 14zM427 225
q10 48 -16 64t-117 16h-27l-33 -156h28q91 -1 123.5 14.5t41.5 61.5z" />
    <glyph glyph-name="C" unicode="C" horiz-adv-x="681" 
d="M275 -21q-311 0 -231 383q45 213 132.5 298.5t258.5 85.5q64 0 111.5 -15.5t83 -51.5t44 -95t-6.5 -146h-208q12 75 -2 101t-60 26q-51 0 -82 -42.5t-55 -160.5q-24 -123 -12.5 -162.5t66.5 -39.5q41 0 68.5 28t47.5 105h207q-37 -174 -120 -244t-242 -70z" />
    <glyph glyph-name="D" unicode="D" horiz-adv-x="706" 
d="M142 726h232q212 0 276.5 -79.5t20.5 -284.5q-19 -90 -37 -144t-49 -101t-77.5 -70t-115 -35.5t-169.5 -12.5h-232zM457 362q10 48 14 79.5t-1.5 53t-13.5 33t-31.5 17.5t-44 7t-62.5 1l-79 -380q58 0 87 4.5t57.5 23t44 56.5t29.5 105z" />
    <glyph glyph-name="E" unicode="E" horiz-adv-x="610" 
d="M613 551h-296l-22 -106h248l-34 -156h-247l-24 -115h304l-37 -174h-514l151 725h507z" />
    <glyph glyph-name="F" unicode="F" horiz-adv-x="553" 
d="M587 551h-269l-28 -133h221l-34 -160h-220l-54 -258h-212l151 725h482z" />
    <glyph glyph-name="G" unicode="G" horiz-adv-x="692" 
d="M669 458h-201q10 64 -5.5 88.5t-62.5 24.5q-52 0 -83.5 -43.5t-57.5 -165.5q-26 -131 -12 -172.5t82 -41.5q41 0 68 17t31 36l10 45h-97l29 136h284l-59 -281q-1 -8 -12 -21t-36.5 -31t-60 -33t-90 -26t-119.5 -11q-150 -1 -213 88t-20 295q45 215 132.5 299.5
t260.5 84.5q140 0 201.5 -71t30.5 -217z" />
    <glyph glyph-name="H" unicode="H" horiz-adv-x="719" 
d="M527 725h211l-151 -725h-211l57 273h-173l-57 -273h-212l151 725h212l-54 -261h173z" />
    <glyph glyph-name="I" unicode="I" horiz-adv-x="335" 
d="M-9 0l151 725h212l-151 -725h-212z" />
    <glyph glyph-name="J" unicode="J" horiz-adv-x="472" 
d="M12 0h-69l39 182h69q70 0 97.5 28.5t49.5 134.5l79 380h211l-78 -380q-15 -73 -27 -116t-32.5 -87t-46 -67t-66.5 -42t-95.5 -26t-130.5 -7z" />
    <glyph glyph-name="K" unicode="K" horiz-adv-x="718" 
d="M789 725l-322 -324l181 -401h-237l-95 250l-77 -78l-36 -172h-212l151 725h212l-58 -281l246 281h247z" />
    <glyph glyph-name="L" unicode="L" horiz-adv-x="512" 
d="M242 188h223l-41 -188h-433l151 725h212z" />
    <glyph glyph-name="M" unicode="M" horiz-adv-x="920" 
d="M939 725l-153 -725h-176l98 437l-237 -439h-181l-41 420l-82 -418h-176l151 725h255l40 -467l242 467h260z" />
    <glyph glyph-name="N" unicode="N" horiz-adv-x="733" 
d="M575 725h177l-151 -725h-210l-136 421l-88 -421h-176l151 725h211l137 -427z" />
    <glyph glyph-name="O" unicode="O" horiz-adv-x="706" 
d="M279 -21q-317 0 -235 383q45 214 133 299t262 85q315 0 234 -384q-46 -214 -133.5 -298.5t-260.5 -84.5zM317 160q53 0 84 42t56 160q25 123 13 163t-70 40q-54 0 -85.5 -42.5t-55.5 -160.5q-24 -122 -12 -162t70 -40z" />
    <glyph glyph-name="P" unicode="P" horiz-adv-x="688" 
d="M142 726h246q52 0 92 -3t76.5 -11t61 -21t43.5 -32.5t27.5 -47t8.5 -64t-10 -82.5q-14 -68 -31.5 -110.5t-45 -73.5t-74 -46.5t-107.5 -22t-156 -6.5h-28l-43 -206h-211zM482 468q13 63 -14.5 78t-120.5 15h-28l-38 -185h28q94 -1 127 14t46 78z" />
    <glyph glyph-name="Q" unicode="Q" horiz-adv-x="705" 
d="M673 362q-27 -125 -66 -203.5t-98 -120.5l96 -93l-123 -114l-128 152q-32 -4 -75 -4q-317 0 -235 383q45 214 133 299t262 85q315 0 234 -384zM259 362q-24 -122 -12 -162t70 -40q53 0 84 42t56 160q25 123 13 163t-70 40q-54 0 -85.5 -42.5t-55.5 -160.5z" />
    <glyph glyph-name="R" unicode="R" horiz-adv-x="703" 
d="M688 474q-19 -92 -48.5 -142t-88.5 -74l70 -258h-221l-40 226q-25 -1 -81 -1h-29l-47 -225h-212l151 725h247q62 0 107.5 -4.5t84.5 -15.5t61.5 -29.5t38.5 -46.5t15.5 -66.5t-8.5 -88.5zM284 387h29q92 0 124 14.5t44 74.5q13 62 -12.5 76t-119.5 14h-27z" />
    <glyph glyph-name="S" unicode="S" horiz-adv-x="671" 
d="M11 241h200q-21 -98 73 -98q95 0 109 61q7 30 -9.5 48.5t-48 25.5t-71 15t-77.5 19t-67 36.5t-40.5 67.5t2.5 113q22 108 99 163t236 55q294 0 240 -249h-198q19 87 -68 87q-82 0 -99 -63q-7 -28 10 -45.5t49 -26.5t71.5 -16.5t78.5 -21t68.5 -35t42.5 -63.5t1 -101
q-25 -121 -103.5 -177.5t-252.5 -56.5q-149 0 -212 62.5t-34 199.5z" />
    <glyph glyph-name="T" unicode="T" horiz-adv-x="569" 
d="M639 725l-40 -188h-167l-113 -537h-211l112 537h-169l40 188h548z" />
    <glyph glyph-name="U" unicode="U" horiz-adv-x="718" 
d="M284 -21q-157 0 -208 83.5t-11 274.5l81 388h211l-78 -376q-23 -118 -14 -150.5t58 -32.5q45 0 70.5 35.5t48.5 147.5l78 376h214l-81 -388q-21 -103 -44.5 -165t-64.5 -108.5t-103 -65.5t-157 -19z" />
    <glyph glyph-name="V" unicode="V" horiz-adv-x="669" 
d="M516 725h234l-408 -725h-179l-103 725h232l15 -462z" />
    <glyph glyph-name="W" unicode="W" horiz-adv-x="1008" 
d="M863 725h226l-376 -725h-183l-17 424l-197 -424h-180l-70 725h222l-2 -447l192 447h189l8 -455z" />
    <glyph glyph-name="X" unicode="X" horiz-adv-x="732" 
d="M800 725l-304 -376l160 -349h-239l-85 186l-154 -186h-243l312 372l-162 353h238l85 -186l150 186h242z" />
    <glyph glyph-name="Y" unicode="Y" horiz-adv-x="656" 
d="M737 725l-332 -469l-53 -256h-211l53 257l-139 468h227l53 -297l174 297h228z" />
    <glyph glyph-name="Z" unicode="Z" horiz-adv-x="609" 
d="M645 657h1l-17 -77l-5 -25l-11 -49l-383 -331l320 7l-38 -181h-559l14 70l12 55l9 44l11 49l382 331l-298 -7l39 181h537z" />
    <glyph glyph-name="bracketleft" unicode="[" horiz-adv-x="480" 
d="M505 601h-170l-134 -642h172l-35 -159h-352l200 960h352z" />
    <glyph glyph-name="backslash" unicode="\" horiz-adv-x="472" 
d="M360 -40h-180l-128 840h180z" />
    <glyph glyph-name="bracketright" unicode="]" horiz-adv-x="479" 
d="M469 760l-200 -960h-352l34 159h170l134 642h-172l34 159h352z" />
    <glyph glyph-name="asciicircum" unicode="^" horiz-adv-x="463" 
d="M437 455h-139l-24 141l-82 -141h-147l191 298h134z" />
    <glyph glyph-name="underscore" unicode="_" horiz-adv-x="591" 
d="M10 0l31 145h430l-31 -145h-430z" />
    <glyph glyph-name="grave" unicode="`" horiz-adv-x="600" 
d="M396 612h-164l-84 184h192z" />
    <glyph glyph-name="a" unicode="a" horiz-adv-x="611" 
d="M336 562q71 0 118 -14t71.5 -36.5t32 -61.5t4 -79t-15.5 -99l-24 -118l-26 -154h-165l-5 50q-53 -64 -165 -64q-207 0 -170 178q7 34 20 59.5t27.5 43.5t41 30t49.5 18.5t64.5 9.5t74.5 3.5t90 0.5q15 54 8.5 78.5t-47.5 24.5q-33 0 -53.5 -17.5t-26.5 -43.5h-178
q14 66 31 94q60 97 244 97zM237 104q55 0 83 42l18 85q-75 -1 -106 -13.5t-40 -55.5q-6 -27 6 -42.5t39 -15.5z" />
    <glyph glyph-name="b" unicode="b" horiz-adv-x="653" 
d="M451 563q104 0 143 -73t9 -216q-31 -151 -91.5 -219t-180.5 -68q-108 0 -147 82l-33 -69h-166l39 162l124 598h200l-53 -254q68 57 156 57zM399 274q16 75 6.5 107.5t-45.5 32.5q-59 0 -96 -59l-34 -164q10 -56 72 -56q36 0 58.5 32.5t38.5 106.5z" />
    <glyph glyph-name="c" unicode="c" horiz-adv-x="611" 
d="M241 -18q-280 0 -218 293q16 78 37 128t58.5 89.5t97.5 57t148 17.5q255 0 216 -239h-196q8 50 -4 70t-48 20q-40 0 -64.5 -31.5t-40.5 -111.5q-17 -83 -7.5 -113t53.5 -30q64 0 86 77h197q-17 -61 -37 -100t-55.5 -69.5t-89.5 -44t-133 -13.5z" />
    <glyph glyph-name="d" unicode="d" horiz-adv-x="649" 
d="M482 760h200l-124 -598l-29 -162h-166l-3 56q-71 -69 -182 -69q-102 0 -143 72.5t-11 214.5q31 147 96 218t178 71q84 0 132 -55zM268 135q64 0 96 57l34 163q-13 59 -72 59q-37 0 -60 -32.5t-38 -107.5q-15 -74 -6 -106.5t46 -32.5z" />
    <glyph glyph-name="e" unicode="e" horiz-adv-x="629" 
d="M574 238h-354q-11 -71 -1 -96t50 -25q35 0 58 18.5t32 49.5h203q-10 -46 -29 -80t-54 -63t-95 -44.5t-143 -15.5q-280 0 -218 292q13 62 28 105t40.5 81t61 60.5t88 35t123.5 12.5q139 0 192.5 -78.5t17.5 -251.5zM336 440q-34 0 -55.5 -22t-38.5 -81h147q7 60 -5 81.5
t-48 21.5z" />
    <glyph glyph-name="f" unicode="f" horiz-adv-x="409" 
d="M440 612h-34q-33 0 -52.5 -18t-28.5 -63l-2 -10h101l-29 -139h-101l-79 -382h-199l79 382h-73l30 139h72l7 33q45 214 251 213h91z" />
    <glyph glyph-name="g" unicode="g" horiz-adv-x="655" 
d="M477 550h166l-40 -167l-81 -386q-16 -79 -32 -110q-66 -127 -295 -128q-54 0 -94.5 10.5t-63 27t-37 37t-18.5 41t-4.5 37t1.5 26.5l2 11h184q-14 -61 60 -61q50 0 67.5 23.5t29.5 83.5l8 39q-63 -44 -153 -44q-102 0 -143 71.5t-12 212.5q31 147 96 218t178 71
q33 0 60.5 -9.5t44.5 -24t26.5 -27t15.5 -24.5zM267 137q64 0 96 56l33 162q-13 59 -72 59q-36 0 -59 -32.5t-38 -107.5q-15 -73 -5.5 -105t45.5 -32z" />
    <glyph glyph-name="h" unicode="h" horiz-adv-x="654" 
d="M461 565q94 0 129 -54t7 -181l-70 -330h-200l67 310q12 36 6.5 62t-42.5 26q-60 0 -104 -70l-69 -328h-200l159 760h200l-54 -257q69 62 171 62z" />
    <glyph glyph-name="i" unicode="i" horiz-adv-x="300" 
d="M108 611l35 161h200l-35 -161h-200zM-22 0l115 550h200l-115 -550h-200z" />
    <glyph glyph-name="j" unicode="j" horiz-adv-x="332" 
d="M121 611l35 161h200l-35 -161h-200zM-167 -234l35 169q42 0 67 7t40 28.5t21 42.5t16 68l98 469h199l-97 -469q-10 -49 -18.5 -80t-22.5 -68.5t-31.5 -59.5t-45 -45t-63.5 -35t-85.5 -19.5t-112.5 -7.5z" />
    <glyph glyph-name="k" unicode="k" horiz-adv-x="606" 
d="M644 550l-246 -234l150 -316h-211l-73 189l-49 -47l-30 -142h-200l159 760h200l-79 -378l153 168h226z" />
    <glyph glyph-name="l" unicode="l" horiz-adv-x="310" 
d="M-15 0l159 760h199l-158 -760h-200z" />
    <glyph glyph-name="m" unicode="m" horiz-adv-x="955" 
d="M771 565q91 0 122 -53.5t5 -181.5l-71 -330h-192l66 310q11 36 6 62t-39 26q-48 0 -89 -50l-3 -18l-71 -330h-183l66 310q5 22 6 34.5t-1 26.5t-12 20.5t-28 6.5q-53 0 -92 -57l-72 -341h-200l83 397l27 153h165l4 -70q15 17 36 33.5t63.5 34t89.5 17.5q110 0 128 -83
q74 83 186 83z" />
    <glyph glyph-name="n" unicode="n" horiz-adv-x="654" 
d="M461 565q96 0 129.5 -53.5t6.5 -181.5l-70 -330h-200l67 310q4 19 5.5 28.5t1.5 23t-4 20t-14 11.5t-26 5q-54 0 -97 -60l-71 -338h-200l83 397l27 153h165l4 -72q14 18 34.5 35t64.5 34.5t94 17.5z" />
    <glyph glyph-name="o" unicode="o" horiz-adv-x="634" 
d="M243 -18q-139 0 -195 76t-26 217q16 74 38 124.5t60 90.5t98.5 59t146.5 19q139 0 195.5 -76.5t26.5 -216.5q-16 -75 -38 -125t-60.5 -90t-99 -59t-146.5 -19zM274 132q42 0 66.5 31t41.5 112q18 83 7.5 113t-56.5 30q-41 0 -65.5 -31.5t-41.5 -111.5q-18 -84 -8 -113.5
t56 -29.5z" />
    <glyph glyph-name="p" unicode="p" horiz-adv-x="652" 
d="M449 563q213 0 153 -289q-31 -148 -95.5 -217.5t-178.5 -69.5q-90 0 -132 52l-58 -279h-200l130 625l30 165h165l3 -72q14 18 34 34.5t61.5 33.5t87.5 17zM397 274q17 75 8.5 107.5t-48.5 32.5q-58 0 -96 -62l-34 -161q10 -56 73 -56q37 0 59 32t38 107z" />
    <glyph glyph-name="q" unicode="q" horiz-adv-x="654" 
d="M479 550h165l-39 -163l-130 -627h-200l57 274q-64 -47 -154 -47q-213 0 -154 287q31 147 96 218t178 71q61 0 97 -27.5t50 -57.5zM269 135q63 0 95 56l35 165q-13 58 -73 58q-36 0 -59 -32.5t-38 -107.5q-15 -74 -6 -106.5t46 -32.5z" />
    <glyph glyph-name="r" unicode="r" horiz-adv-x="450" 
d="M265 550l2 -91q24 42 75.5 75t136.5 33l-37 -178q-48 0 -87 -15t-61.5 -38.5t-33 -40t-16.5 -31.5l-55 -264h-200l80 384l30 166h166z" />
    <glyph glyph-name="s" unicode="s" horiz-adv-x="567" 
d="M-2 187h178q-17 -79 55 -79q68 0 78 42q4 22 -10.5 36t-41 19.5t-58.5 12.5t-63.5 16t-55.5 29t-34 51.5t0 83.5q18 84 82 126.5t201 42.5q119 0 173.5 -48t35.5 -139h-177q13 61 -55 61q-60 0 -67 -42q-4 -21 11 -33.5t41.5 -18.5t59 -10.5t64 -14.5t55.5 -26.5
t34.5 -50.5t0.5 -82q-19 -93 -84 -137t-214 -44q-124 0 -177 51t-32 154z" />
    <glyph glyph-name="t" unicode="t" horiz-adv-x="418" 
d="M297 410l-32 -156q-11 -64 -1.5 -84t42.5 -20h46l-35 -161h-65q-65 0 -107.5 13t-64 33t-28 56t-3 70.5t14.5 87.5l34 161h-72l29 140h72l29 140l205 31l-35 -171h105l-29 -140h-105z" />
    <glyph glyph-name="u" unicode="u" horiz-adv-x="650" 
d="M431 550h200l-83 -397l-26 -153h-165l-4 70q-14 -18 -35 -34.5t-66 -34t-97 -17.5q-91 0 -124 53t-6 178l72 335h199l-66 -310q-12 -36 -6.5 -62.5t42.5 -26.5q52 0 94 58z" />
    <glyph glyph-name="v" unicode="v" horiz-adv-x="591" 
d="M426 550h208l-314 -550h-191l-89 550h207l21 -340z" />
    <glyph glyph-name="w" unicode="w" horiz-adv-x="846" 
d="M706 550h185l-276 -550h-170l-26 310l-152 -310h-172l-53 550h186l6 -312l143 312h180l20 -312z" />
    <glyph glyph-name="x" unicode="x" horiz-adv-x="588" 
d="M632 550l-242 -302l111 -248h-208l-54 121l-95 -121h-214l235 288l-117 262h208l59 -133l103 133h214z" />
    <glyph glyph-name="y" unicode="y" horiz-adv-x="590" 
d="M427 550h206l-409 -782h-183l115 232h-43l-72 550h194l15 -359z" />
    <glyph glyph-name="z" unicode="z" horiz-adv-x="539" 
d="M547 549l-29 -136l-11 -51l-290 -216l247 6l-32 -151h-468l16 75l12 54l2 10l11 50l291 217l-239 -7l32 149h458z" />
    <glyph glyph-name="braceleft" unicode="{" horiz-adv-x="493" 
d="M551 759l-33 -153q-77 0 -105 -21.5t-45 -104.5l-17 -81q-6 -30 -21.5 -54t-35 -38t-30 -20t-18.5 -9q72 -36 56 -120l-18 -87q-15 -79 3.5 -99.5t94.5 -20.5l-33 -154q-65 0 -109 3.5t-79.5 13.5t-54 25.5t-28 42t-8 61t11.5 84.5l25 125q7 32 -7 44t-66 12l30 142
q53 0 71.5 11.5t24.5 43.5l28 135q11 53 21 84t28.5 58.5t39.5 40t61.5 22t88 12t124.5 2.5z" />
    <glyph glyph-name="bar" unicode="|" horiz-adv-x="443" 
d="M50 -200l217 1020h147l-217 -1020h-147z" />
    <glyph glyph-name="braceright" unicode="}" horiz-adv-x="492" 
d="M-83 -203l32 154q77 0 105 21.5t45 103.5l17 82q6 29 21.5 53.5t34.5 38t29.5 19.5t18.5 9q-3 1 -9 4.5t-17.5 13t-18.5 23t-12 34t2 46.5l18 87q16 78 -3.5 99t-95.5 21l33 153q66 0 110 -3.5t79.5 -13t54 -25.5t28 -42t8 -60.5t-11.5 -84.5l-26 -125q-7 -32 7 -44
t67 -12l-30 -142q-53 0 -71.5 -11.5t-24.5 -43.5l-28 -135q-11 -53 -20 -84t-27.5 -58.5t-40 -40.5t-62 -22.5t-88 -12t-124.5 -2.5z" />
    <glyph glyph-name="asciitilde" unicode="~" horiz-adv-x="613" 
d="M485 423h106q-21 -100 -69.5 -155t-146.5 -55q-47 0 -96 27.5t-86 27.5q-32 0 -52.5 -19.5t-23.5 -35.5h-107q21 100 69.5 155t146.5 55q47 0 96 -27.5t86 -27.5q32 0 53 19.5t24 35.5z" />
    <glyph glyph-name="uni00A0" unicode="&#xa0;" horiz-adv-x="204" 
 />
    <glyph glyph-name="exclamdown" unicode="&#xa1;" horiz-adv-x="287" 
d="M56 394l34 156h199l-33 -156h-200zM-62 -175l126 523h167l-94 -523h-199z" />
    <glyph glyph-name="cent" unicode="&#xa2;" horiz-adv-x="620" 
d="M589 402h-196q8 50 -5 70t-50 20q-42 0 -68 -31.5t-43 -111.5q-17 -83 -6.5 -113t56.5 -30q68 0 90 77h197q-20 -73 -46 -116.5t-77 -72t-131 -35.5l-17 -79h-133l17 81q-107 16 -144 87.5t-10 200.5q16 72 33 117.5t48 85t78.5 60t117.5 27.5l15 71h133l-15 -72
q189 -29 156 -236z" />
    <glyph glyph-name="sterling" unicode="&#xa3;" horiz-adv-x="639" 
d="M634 464h-209q18 82 -38 82q-29 0 -46 -19.5t-23 -46.5q-4 -19 -1 -37t13.5 -46.5t13.5 -38.5h154l-25 -120h-131q-19 -53 -75 -93l294 7l-33 -156h-521l30 144q3 2 9 5t22 12.5t29 20.5t25.5 27t17.5 33h-89l25 120h56q-1 4 -6 15t-6.5 16t-5 15.5t-5 17.5t-3 18
t-1.5 21t1 22.5t4 26.5q18 96 86.5 147t224.5 51q131 0 184 -66.5t29 -177.5z" />
    <glyph glyph-name="currency" unicode="&#xa4;" horiz-adv-x="683" 
d="M646 98l-94 -94l-54 54q-63 -34 -164 -34q-103 0 -169 36l-60 -59l-93 93l64 63q-30 64 -30 166q0 100 29 165l-61 60l93 94l55 -55q66 39 172 39q101 0 164 -34l52 53l93 -93l-54 -54q33 -67 33 -175q0 -103 -32 -170zM334 195q87 0 87 128q0 132 -87 132t-87 -132
q0 -128 87 -128z" />
    <glyph glyph-name="yen" unicode="&#xa5;" horiz-adv-x="627" 
d="M719 725l-264 -370h59l-22 -100h-98l-9 -41h99l-21 -99h-98l-24 -115h-211l24 115h-102l21 99h102l9 41h-102l21 100h60l-111 370h225l52 -282l167 282h223z" />
    <glyph glyph-name="brokenbar" unicode="&#xa6;" horiz-adv-x="443" 
d="M177 395l90 425h147l-90 -425h-147zM292 245l-90 -425h-147l90 425h147z" />
    <glyph glyph-name="section" unicode="&#xa7;" horiz-adv-x="587" 
d="M595 610h-177q7 32 -6 46.5t-51 14.5q-64 0 -73 -42q-5 -23 16.5 -35.5t56.5 -16t75 -13t72.5 -24.5t48.5 -52.5t4 -94.5q-16 -73 -82 -117q50 -43 31 -131q-19 -93 -84.5 -137t-215.5 -44q-127 0 -180 50.5t-32 154.5h178q-9 -44 7 -61.5t51 -17.5q71 0 81 42
q5 24 -16 37.5t-56 18.5t-74.5 16t-72 27t-48.5 54t-4 95q15 71 85 114q-52 44 -33 134q18 84 82.5 126.5t204.5 42.5q123 0 177 -47.5t35 -139.5zM366 380q5 26 -17.5 38.5t-72.5 22.5q-31 -24 -39 -60q-5 -25 17.5 -36t73.5 -19q31 22 38 54z" />
    <glyph glyph-name="dieresis" unicode="&#xa8;" horiz-adv-x="600" 
d="M132 611l35 161h187l-35 -161h-187zM370 611l35 161h188l-34 -161h-189z" />
    <glyph glyph-name="copyright" unicode="&#xa9;" horiz-adv-x="856" 
d="M343 -40q-100 0 -169 30t-100 82.5t-39.5 123t11.5 152.5q18 85 54 154.5t91.5 124t136.5 84.5t181 30q82 0 142.5 -20t96 -55.5t54.5 -84.5t18 -108t-14 -125q-37 -176 -151.5 -282t-311.5 -106zM362 47q277 0 341 301q11 51 12.5 94t-10 83t-36.5 68t-70 44.5
t-108 16.5q-77 0 -138 -24.5t-101 -68.5t-64.5 -96.5t-38.5 -116.5q-11 -50 -12 -93t10.5 -82t37 -66.5t70.5 -43.5t107 -16zM379 113q-104 0 -142.5 53.5t-11.5 184.5q29 132 90 186t166 54q96 0 135.5 -44t17.5 -150h-147q6 40 -2.5 55.5t-30.5 15.5q-29 0 -45 -23
t-32 -94q-14 -71 -7 -93t35 -22q23 0 38 15.5t26 58.5h147q-24 -108 -82 -152.5t-155 -44.5z" />
    <glyph glyph-name="ordfeminine" unicode="&#xaa;" horiz-adv-x="432" 
d="M295 755q84 0 123 -25t40.5 -70t-10.5 -109l-16 -81l-20 -110h-127l-3 31q-34 -42 -111 -42q-151 0 -124 128q6 27 14.5 46t25 31.5t32 19.5t48 10.5t59 4t78.5 0.5q10 36 6.5 53t-28.5 17q-40 0 -48 -40h-138q1 3 2 9q5 26 11.5 41.5t25.5 38.5t59.5 35t100.5 12z
M230 436q31 0 46 20l13 65q-42 0 -60 -8t-24 -36q-9 -41 25 -41z" />
    <glyph glyph-name="guillemotleft" unicode="&#xab;" horiz-adv-x="756" 
d="M428 472l-183 -216l97 -185h-211l-77 180l7 34l154 187h213zM714 472l-183 -216l98 -185h-211l-78 180l7 34l154 187h213z" />
    <glyph glyph-name="registered" unicode="&#xae;" horiz-adv-x="856" 
d="M509 741q82 0 142.5 -20t96 -55.5t54.5 -84.5t18 -108t-14 -125q-37 -176 -151.5 -282t-311.5 -106q-100 0 -169 30t-100 82.5t-39.5 123t11.5 152.5q18 85 54 154.5t91.5 124t136.5 84.5t181 30zM703 348q11 51 12.5 94t-10 83t-36.5 68t-70 44.5t-108 16.5
q-77 0 -138 -24.5t-101 -68.5t-64.5 -96.5t-38.5 -116.5q-11 -50 -12 -93t10.5 -82t37 -66.5t70.5 -43.5t107 -16q277 0 341 301zM287 574h161q135 0 174.5 -30t18.5 -126q-12 -55 -32.5 -86.5t-56.5 -46.5l42 -151l-153 2l-26 127h-48l-27 -127h-146zM410 467l-20 -95h11
q51 0 70.5 7.5t26.5 38.5q7 33 -9 41t-68 8h-11z" />
    <glyph glyph-name="macron" unicode="&#xaf;" horiz-adv-x="600" 
d="M147 758h339l-28 -128h-338z" />
    <glyph glyph-name="degree" unicode="&#xb0;" horiz-adv-x="419" 
d="M181 444q-150 0 -119 146q32 149 181 149q150 0 118 -149q-31 -146 -180 -146zM200 536q39 0 50 54q12 56 -26 56t-50 -56q-11 -54 26 -54z" />
    <glyph glyph-name="plusminus" unicode="&#xb1;" horiz-adv-x="585" 
d="M391 468h150l-28 -130h-149l-22 -102h-145l22 102h-151l28 130h150l22 101h145zM12 69l27 132h445l-27 -132h-445z" />
    <glyph glyph-name="uni00B2" unicode="&#xb2;" horiz-adv-x="506" 
d="M-38 265l26 124q104 59 177 110q7 5 32.5 22t34.5 23.5t28 21.5t27.5 24.5t17.5 23.5t12 28q14 63 -46 63q-61 0 -77 -81h-159q23 109 79 161t186 52q106 0 148 -51t25 -133q-7 -35 -24 -66t-42.5 -57.5t-43 -42t-44.5 -36.5q-71 -55 -104 -68l196 10l-27 -128h-422z" />
    <glyph glyph-name="uni00B3" unicode="&#xb3;" horiz-adv-x="502" 
d="M497 820l-23 -111l-130 -101q109 -38 81 -168q-18 -87 -74.5 -136.5t-182.5 -49.5q-108 0 -151.5 55t-25.5 142h155q-6 -29 4 -50.5t41 -21.5q64 0 79 71q8 38 -6 59t-62 21l-66 -5l19 92l124 84l-218 -8l27 127h409z" />
    <glyph glyph-name="acute" unicode="&#xb4;" horiz-adv-x="600" 
d="M101 612l133 184h192l-161 -184h-164z" />
    <glyph glyph-name="paragraph" unicode="&#xb6;" horiz-adv-x="731" 
d="M764 760l-158 -760h-147l128 614h-70l-128 -614h-147l51 242q-55 2 -95 7.5t-74 17.5t-53 31t-31.5 47t-10.5 66.5t10 88.5q23 107 58 159t103.5 75t200.5 26h363zM220 502q-12 -65 8 -84t97 -21l44 210q-78 -2 -107 -21t-42 -84z" />
    <glyph glyph-name="periodcentered" unicode="&#xb7;" horiz-adv-x="328" 
d="M41 225l33 155h200l-33 -155h-200z" />
    <glyph glyph-name="cedilla" unicode="&#xb8;" horiz-adv-x="600" 
d="M234 2l-48 -62q39 -3 63.5 -28t14.5 -74q-11 -55 -58.5 -87t-154.5 -32q-38 0 -67 2.5t-39 4.5l-10 3l20 95q0 -8 62 -8q56 0 64 40q3 14 -3 23t-20 13t-27.5 5.5t-32.5 1.5h-1l77 103h160z" />
    <glyph glyph-name="uni00B9" unicode="&#xb9;" horiz-adv-x="315" 
d="M206 829h98l-119 -564h-156l91 426l-99 -41l25 117z" />
    <glyph glyph-name="ordmasculine" unicode="&#xba;" horiz-adv-x="444" 
d="M224 347q-99 0 -139.5 52.5t-19.5 153.5q11 54 26.5 89.5t43 63.5t70.5 41t105 13q100 0 141 -53t19 -154q-23 -109 -74.5 -157.5t-171.5 -48.5zM248 460q26 0 40 19t25 74q11 57 5 75.5t-31 18.5q-26 0 -40 -19t-25 -75q-11 -57 -5.5 -75t31.5 -18z" />
    <glyph glyph-name="guillemotright" unicode="&#xbb;" horiz-adv-x="757" 
d="M387 285l-7 -34l-152 -180h-213l181 208l-95 193h211zM599 472l75 -187l-8 -34l-152 -180h-213l183 209l-97 192h212z" />
    <glyph glyph-name="onequarter" unicode="&#xbc;" horiz-adv-x="1080" 
d="M1045 555l-75 -352h58l-24 -116h-59l-19 -87h-155l19 87h-263l24 116l327 352h167zM687 203h128l39 181zM678 748h169l-587 -788h-168zM185 198h-156l91 426l-99 -41l25 117l160 62h98z" />
    <glyph glyph-name="onehalf" unicode="&#xbd;" horiz-adv-x="1121" 
d="M1088 388q-7 -35 -24 -66t-42.5 -57.5t-43 -42t-44.5 -36.5q-72 -55 -104 -68l196 10l-27 -128h-422l26 124q104 59 177 110q7 5 32.5 22t34.5 23.5t28 21.5t27.5 24.5t17.5 23.5t12 28q14 63 -46 63q-61 0 -77 -81h-159q23 109 79 161t186 52q106 0 148 -51t25 -133z
M678 748h169l-587 -788h-168zM185 198h-156l91 426l-99 -41l25 117l160 62h98z" />
    <glyph glyph-name="threequarters" unicode="&#xbe;" horiz-adv-x="1242" 
d="M425 373q-18 -87 -74.5 -136.5t-182.5 -49.5q-108 0 -151.5 55t-25.5 142h155q-6 -29 4 -50.5t41 -21.5q64 0 79 71q8 38 -6 59t-62 21l-66 -5l19 92l124 84l-218 -8l27 127h409l-23 -111l-130 -101q109 -38 81 -168zM840 748h169l-587 -788h-168zM1207 555l-75 -352h58
l-24 -116h-59l-19 -87h-155l19 87h-263l24 116l327 352h167zM849 203h128l39 181z" />
    <glyph glyph-name="questiondown" unicode="&#xbf;" horiz-adv-x="620" 
d="M470 536l-31 -146h-200l31 146h200zM239 346h182l-3 -16q-10 -50 -33.5 -89t-51 -63.5t-54.5 -46.5t-48.5 -49.5t-28.5 -60.5q-15 -76 45 -76q36 0 53 26.5t31 89.5h198q-15 -72 -36 -121t-57 -87.5t-91.5 -56.5t-133.5 -18q-130 0 -183 62.5t-33 160.5q12 56 36.5 97.5
t53.5 67t58 47t54 51t37 66.5z" />
    <glyph glyph-name="Agrave" unicode="&#xc0;" horiz-adv-x="703" 
d="M532 773h-176l-88 167h204zM410 0l-2 121h-197l-58 -121h-222l411 725h198l101 -725h-231zM285 278h120l-4 243z" />
    <glyph glyph-name="Aacute" unicode="&#xc1;" horiz-adv-x="703" 
d="M693 938l-156 -166h-176l128 166h204zM342 725h198l101 -725h-231l-2 121h-197l-58 -121h-222zM285 278h120l-4 243z" />
    <glyph glyph-name="Acircumflex" unicode="&#xc2;" horiz-adv-x="703" 
d="M469 834l-72 -62h-159l152 164h189l90 -164h-154zM342 725h198l101 -725h-231l-2 121h-197l-58 -121h-222zM285 278h120l-4 243z" />
    <glyph glyph-name="Atilde" unicode="&#xc3;" horiz-adv-x="703" 
d="M394 813q-26 0 -43 -15t-20 -28h-87q38 182 162 182q39 0 75.5 -19.5t60.5 -19.5q27 0 43.5 15t20.5 28h87q-19 -92 -56 -138t-105 -46q-40 0 -77 20.5t-61 20.5zM342 725h198l101 -725h-231l-2 121h-197l-58 -121h-222zM285 278h120l-4 243z" />
    <glyph glyph-name="Adieresis" unicode="&#xc4;" horiz-adv-x="703" 
d="M459 933l-34 -161h-200l34 161h200zM509 933h200l-33 -161h-200zM342 725h198l101 -725h-231l-2 121h-197l-58 -121h-222zM285 278h120l-4 243z" />
    <glyph glyph-name="Aring" unicode="&#xc5;" horiz-adv-x="703" 
d="M450 764q-58 0 -91 34.5t-20 94.5q26 129 166 129q54 0 87 -35t20 -94q-28 -129 -162 -129zM448 893q-4 -14 3 -23t21 -9q13 0 23.5 9t13.5 23t-4 23t-21 9q-29 0 -36 -32zM410 0l-2 121h-197l-58 -121h-222l411 725h198l101 -725h-231zM285 278h120l-4 243z" />
    <glyph glyph-name="AE" unicode="&#xc6;" horiz-adv-x="985" 
d="M987 551h-295l-22 -106h248l-33 -156h-248l-24 -115h305l-37 -174h-493l25 121h-178l-79 -121h-225l507 725h586zM337 278h109l52 247z" />
    <glyph glyph-name="Ccedilla" unicode="&#xc7;" horiz-adv-x="681" 
d="M667 438h-208q12 75 -2 101t-60 26q-51 0 -82 -42.5t-55 -160.5q-24 -123 -12.5 -162.5t66.5 -39.5q41 0 68.5 28t47.5 105h207q-31 -148 -95 -219.5t-176 -88.5l-40 -51q39 -3 63.5 -28t14.5 -74q-11 -55 -58.5 -87t-154.5 -32q-38 0 -67 2.5t-39 4.5l-10 3l20 95
q0 -8 62 -8q56 0 64 40q3 14 -3 23t-20 13t-27.5 5.5t-32.5 1.5h-1l68 91q-232 40 -161 378q45 213 132.5 298.5t258.5 85.5q64 0 111.5 -15.5t83 -51.5t44 -95t-6.5 -146z" />
    <glyph glyph-name="Egrave" unicode="&#xc8;" horiz-adv-x="610" 
d="M483 773h-176l-88 167h204zM613 551h-296l-22 -106h248l-34 -156h-247l-24 -115h304l-37 -174h-514l151 725h507z" />
    <glyph glyph-name="Eacute" unicode="&#xc9;" horiz-adv-x="610" 
d="M644 938l-156 -166h-176l128 166h204zM613 551h-296l-22 -106h248l-34 -156h-247l-24 -115h304l-37 -174h-514l151 725h507z" />
    <glyph glyph-name="Ecircumflex" unicode="&#xca;" horiz-adv-x="610" 
d="M420 834l-72 -62h-159l152 164h189l90 -164h-154zM613 551h-296l-22 -106h248l-34 -156h-247l-24 -115h304l-37 -174h-514l151 725h507z" />
    <glyph glyph-name="Edieresis" unicode="&#xcb;" horiz-adv-x="610" 
d="M410 933l-34 -161h-200l34 161h200zM660 933l-33 -161h-200l33 161h200zM649 725l-36 -174h-296l-22 -106h248l-34 -156h-247l-24 -115h304l-37 -174h-514l151 725h507z" />
    <glyph glyph-name="Igrave" unicode="&#xcc;" horiz-adv-x="335" 
d="M340 773h-176l-88 167h204zM-9 0l151 725h212l-151 -725h-212z" />
    <glyph glyph-name="Iacute" unicode="&#xcd;" horiz-adv-x="335" 
d="M169 772l128 166h204l-156 -166h-176zM-9 0l151 725h212l-151 -725h-212z" />
    <glyph glyph-name="Icircumflex" unicode="&#xce;" horiz-adv-x="335" 
d="M277 834l-72 -62h-159l152 164h189l90 -164h-154zM-9 0l151 725h212l-151 -725h-212z" />
    <glyph glyph-name="Idieresis" unicode="&#xcf;" horiz-adv-x="335" 
d="M33 772l34 161h200l-34 -161h-200zM284 772l33 161h200l-33 -161h-200zM-9 0l151 725h212l-151 -725h-212z" />
    <glyph glyph-name="Eth" unicode="&#xd0;" horiz-adv-x="706" 
d="M142 726h232q212 0 276.5 -79.5t20.5 -284.5q-19 -90 -37 -144t-49 -101t-77.5 -70t-115 -35.5t-169.5 -12.5h-232l65 315h-50l22 103h50zM457 362q10 48 14 79.5t-1.5 53t-13.5 33t-31.5 17.5t-44 7t-62.5 1l-28 -136h103l-21 -103h-104l-29 -141q58 0 87 4.5t57.5 23
t44 56.5t29.5 105z" />
    <glyph glyph-name="Ntilde" unicode="&#xd1;" horiz-adv-x="733" 
d="M402 813q-26 0 -43 -15t-20 -28h-87q38 182 162 182q39 0 75.5 -19.5t60.5 -19.5q27 0 43.5 15t20.5 28h87q-19 -92 -56 -138t-105 -46q-40 0 -77 20.5t-61 20.5zM575 725h177l-151 -725h-210l-136 421l-88 -421h-176l151 725h211l137 -427z" />
    <glyph glyph-name="Ograve" unicode="&#xd2;" horiz-adv-x="706" 
d="M530 798h-176l-88 167h204zM279 -21q-317 0 -235 383q45 214 133 299t262 85q315 0 234 -384q-46 -214 -133.5 -298.5t-260.5 -84.5zM317 160q53 0 84 42t56 160q25 123 13 163t-70 40q-54 0 -85.5 -42.5t-55.5 -160.5q-24 -122 -12 -162t70 -40z" />
    <glyph glyph-name="Oacute" unicode="&#xd3;" horiz-adv-x="706" 
d="M359 797l128 166h204l-156 -166h-176zM279 -21q-317 0 -235 383q45 214 133 299t262 85q315 0 234 -384q-46 -214 -133.5 -298.5t-260.5 -84.5zM317 160q53 0 84 42t56 160q25 123 13 163t-70 40q-54 0 -85.5 -42.5t-55.5 -160.5q-24 -122 -12 -162t70 -40z" />
    <glyph glyph-name="Ocircumflex" unicode="&#xd4;" horiz-adv-x="706" 
d="M467 859l-72 -62h-159l152 164h189l90 -164h-154zM439 746q315 0 234 -384q-46 -214 -133.5 -298.5t-260.5 -84.5q-317 0 -235 383q45 214 133 299t262 85zM457 362q25 123 13 163t-70 40q-54 0 -85.5 -42.5t-55.5 -160.5q-24 -122 -12 -162t70 -40q53 0 84 42t56 160z
" />
    <glyph glyph-name="Otilde" unicode="&#xd5;" horiz-adv-x="706" 
d="M604 981h87q-19 -92 -56 -138t-105 -46q-39 0 -76.5 20.5t-61.5 20.5q-26 0 -43 -15t-20 -28h-87q38 182 162 182q39 0 75.5 -19.5t60.5 -19.5q27 0 43.5 15t20.5 28zM279 -21q-317 0 -235 383q45 214 133 299t262 85q315 0 234 -384q-46 -214 -133.5 -298.5
t-260.5 -84.5zM317 160q53 0 84 42t56 160q25 123 13 163t-70 40q-54 0 -85.5 -42.5t-55.5 -160.5q-24 -122 -12 -162t70 -40z" />
    <glyph glyph-name="Odieresis" unicode="&#xd6;" horiz-adv-x="706" 
d="M223 797l34 161h200l-34 -161h-200zM474 797l33 161h200l-33 -161h-200zM279 -21q-317 0 -235 383q45 214 133 299t262 85q315 0 234 -384q-46 -214 -133.5 -298.5t-260.5 -84.5zM317 160q53 0 84 42t56 160q25 123 13 163t-70 40q-54 0 -85.5 -42.5t-55.5 -160.5
q-24 -122 -12 -162t70 -40z" />
    <glyph glyph-name="multiply" unicode="&#xd7;" horiz-adv-x="577" 
d="M529 448l-160 -136l103 -135l-110 -88l-100 132l-155 -132l-74 88l160 136l-102 135l109 87l100 -131l154 131z" />
    <glyph glyph-name="Oslash" unicode="&#xd8;" horiz-adv-x="706" 
d="M739 741l-83 -94q57 -97 17 -285q-46 -214 -133.5 -298.5t-260.5 -84.5q-108 0 -169 44l-32 -37h-115l91 104q-47 94 -10 272q45 214 133 299t262 85q97 0 157 -37l28 32h115zM259 362q-6 -26 -9 -48l206 235q-16 16 -56 16q-54 0 -85.5 -42.5t-55.5 -160.5zM457 362
q8 34 13 72l-217 -248q16 -26 64 -26q53 0 84 42t56 160z" />
    <glyph glyph-name="Ugrave" unicode="&#xd9;" horiz-adv-x="718" 
d="M532 773h-176l-88 167h204zM284 -21q-157 0 -208 83.5t-11 274.5l81 388h211l-78 -376q-23 -118 -14 -150.5t58 -32.5q45 0 70.5 35.5t48.5 147.5l78 376h214l-81 -388q-21 -103 -44.5 -165t-64.5 -108.5t-103 -65.5t-157 -19z" />
    <glyph glyph-name="Uacute" unicode="&#xda;" horiz-adv-x="718" 
d="M361 772l128 166h204l-156 -166h-176zM284 -21q-157 0 -208 83.5t-11 274.5l81 388h211l-78 -376q-23 -118 -14 -150.5t58 -32.5q45 0 70.5 35.5t48.5 147.5l78 376h214l-81 -388q-21 -103 -44.5 -165t-64.5 -108.5t-103 -65.5t-157 -19z" />
    <glyph glyph-name="Ucircumflex" unicode="&#xdb;" horiz-adv-x="718" 
d="M469 834l-72 -62h-159l152 164h189l90 -164h-154zM520 725h214l-81 -388q-21 -103 -44.5 -165t-64.5 -108.5t-103 -65.5t-157 -19q-157 0 -208 83.5t-11 274.5l81 388h211l-78 -376q-23 -118 -14 -150.5t58 -32.5q45 0 70.5 35.5t48.5 147.5z" />
    <glyph glyph-name="Udieresis" unicode="&#xdc;" horiz-adv-x="718" 
d="M225 772l34 161h200l-34 -161h-200zM476 772l33 161h200l-33 -161h-200zM284 -21q-157 0 -208 83.5t-11 274.5l81 388h211l-78 -376q-23 -118 -14 -150.5t58 -32.5q45 0 70.5 35.5t48.5 147.5l78 376h214l-81 -388q-21 -103 -44.5 -165t-64.5 -108.5t-103 -65.5t-157 -19
z" />
    <glyph glyph-name="Yacute" unicode="&#xdd;" horiz-adv-x="656" 
d="M648 938l-156 -166h-176l128 166h204zM737 725l-332 -469l-53 -256h-211l53 257l-139 468h227l53 -297l174 297h228z" />
    <glyph glyph-name="Thorn" unicode="&#xde;" horiz-adv-x="669" 
d="M334 628h34q53 0 93.5 -3t76.5 -11t61 -21t43.5 -32.5t27 -47t8.5 -64t-10 -82.5q-12 -57 -25.5 -95t-35.5 -68.5t-49.5 -47.5t-72.5 -28.5t-99 -15.5t-133 -4h-28l-23 -108h-211l151 725h212zM462 369q12 63 -16 78.5t-120 15.5h-27l-39 -185h29q92 -1 126 14t47 77z
" />
    <glyph glyph-name="germandbls" unicode="&#xdf;" horiz-adv-x="648" 
d="M640 560q-7 -33 -24 -61.5t-36.5 -45.5t-38.5 -29.5t-31 -17.5l-12 -5q3 0 7.5 -1t18 -5t24 -11t24.5 -20t19.5 -31.5t9.5 -45t-6 -61.5q-14 -64 -33 -102.5t-59.5 -68.5t-107.5 -42.5t-173 -12.5l32 150q64 0 96 17.5t43 70.5q3 14 3 25t-1.5 19.5t-7 15t-10 11t-13.5 8
t-15.5 5.5t-18.5 3.5t-18.5 2l-19.5 1.5l28 132q36 0 70 19t43 63q16 76 -51 76q-69 -2 -84 -76l-113 -543h-200l104 503q8 39 14 62t18 54.5t26 50t38 39.5t54.5 32.5t74.5 19t99 7.5h1q133 0 189.5 -57t36.5 -151z" />
    <glyph glyph-name="agrave" unicode="&#xe0;" horiz-adv-x="611" 
d="M455 612h-164l-84 184h192zM336 562q71 0 118 -14t71.5 -36.5t32 -61.5t4 -79t-15.5 -99l-24 -118l-26 -154h-165l-5 50q-53 -64 -165 -64q-207 0 -170 178q7 34 20 59.5t27.5 43.5t41 30t49.5 18.5t64.5 9.5t74.5 3.5t90 0.5q15 54 8.5 78.5t-47.5 24.5
q-33 0 -53.5 -17.5t-26.5 -43.5h-178q14 66 31 94q60 97 244 97zM237 104q55 0 83 42l18 85q-75 -1 -106 -13.5t-40 -55.5q-6 -27 6 -42.5t39 -15.5z" />
    <glyph glyph-name="aacute" unicode="&#xe1;" horiz-adv-x="611" 
d="M601 796l-161 -184h-164l133 184h192zM336 562q71 0 118 -14t71.5 -36.5t32 -61.5t4 -79t-15.5 -99l-24 -118l-26 -154h-165l-5 50q-53 -64 -165 -64q-207 0 -170 178q7 34 20 59.5t27.5 43.5t41 30t49.5 18.5t64.5 9.5t74.5 3.5t90 0.5q15 54 8.5 78.5t-47.5 24.5
q-33 0 -53.5 -17.5t-26.5 -43.5h-178q14 66 31 94q60 97 244 97zM237 104q55 0 83 42l18 85q-75 -1 -106 -13.5t-40 -55.5q-6 -27 6 -42.5t39 -15.5z" />
    <glyph glyph-name="acircumflex" unicode="&#xe2;" horiz-adv-x="611" 
d="M379 680l-74 -70h-162l169 182h171l98 -182h-157zM336 562q71 0 118 -14t71.5 -36.5t32 -61.5t4 -79t-15.5 -99l-24 -118l-26 -154h-165l-5 50q-53 -64 -165 -64q-207 0 -170 178q7 34 20 59.5t27.5 43.5t41 30t49.5 18.5t64.5 9.5t74.5 3.5t90 0.5q15 54 8.5 78.5
t-47.5 24.5q-33 0 -53.5 -17.5t-26.5 -43.5h-178q14 66 31 94q60 97 244 97zM237 104q55 0 83 42l18 85q-75 -1 -106 -13.5t-40 -55.5q-6 -27 6 -42.5t39 -15.5z" />
    <glyph glyph-name="atilde" unicode="&#xe3;" horiz-adv-x="611" 
d="M309 658q-27 0 -44.5 -15.5t-19.5 -28.5h-87q18 87 56 132.5t106 45.5q38 0 74.5 -19.5t60.5 -19.5q27 0 43.5 15t20.5 28h88q-20 -92 -56.5 -136t-104.5 -44q-40 0 -76 21t-61 21zM336 562q71 0 118 -14t71.5 -36.5t32 -61.5t4 -79t-15.5 -99l-24 -118l-26 -154h-165
l-5 50q-53 -64 -165 -64q-207 0 -170 178q7 34 20 59.5t27.5 43.5t41 30t49.5 18.5t64.5 9.5t74.5 3.5t90 0.5q15 54 8.5 78.5t-47.5 24.5q-33 0 -53.5 -17.5t-26.5 -43.5h-178q14 66 31 94q60 97 244 97zM237 104q55 0 83 42l18 85q-75 -1 -106 -13.5t-40 -55.5
q-6 -27 6 -42.5t39 -15.5z" />
    <glyph glyph-name="adieresis" unicode="&#xe4;" horiz-adv-x="611" 
d="M371 772l-35 -161h-187l35 161h187zM422 772h188l-34 -161h-189zM336 562q71 0 118 -14t71.5 -36.5t32 -61.5t4 -79t-15.5 -99l-24 -118l-26 -154h-165l-5 50q-53 -64 -165 -64q-207 0 -170 178q7 34 20 59.5t27.5 43.5t41 30t49.5 18.5t64.5 9.5t74.5 3.5t90 0.5
q15 54 8.5 78.5t-47.5 24.5q-33 0 -53.5 -17.5t-26.5 -43.5h-178q14 66 31 94q60 97 244 97zM237 104q55 0 83 42l18 85q-75 -1 -106 -13.5t-40 -55.5q-6 -27 6 -42.5t39 -15.5z" />
    <glyph glyph-name="aring" unicode="&#xe5;" horiz-adv-x="611" 
d="M363 598q-60 0 -93 36.5t-21 95.5q29 131 169 131q56 0 88 -36t20 -95q-14 -63 -55 -97.5t-108 -34.5zM360 730q-3 -14 3.5 -23t20.5 -9q13 0 23.5 9t13.5 23t-4 23t-20 9q-30 0 -37 -32zM336 562q71 0 118 -14t71.5 -36.5t32 -61.5t4 -79t-15.5 -99l-24 -118l-26 -154
h-165l-5 50q-53 -64 -165 -64q-207 0 -170 178q7 34 20 59.5t27.5 43.5t41 30t49.5 18.5t64.5 9.5t74.5 3.5t90 0.5q15 54 8.5 78.5t-47.5 24.5q-33 0 -53.5 -17.5t-26.5 -43.5h-178q14 66 31 94q60 97 244 97zM237 104q55 0 83 42l18 85q-75 -1 -106 -13.5t-40 -55.5
q-6 -27 6 -42.5t39 -15.5z" />
    <glyph glyph-name="ae" unicode="&#xe6;" horiz-adv-x="949" 
d="M894 238h-355q-11 -71 0 -96t51 -25q68 0 89 68h204q-10 -46 -29 -80t-54 -63t-95 -44.5t-143 -15.5q-155 0 -206 87q-61 -83 -195 -83q-207 0 -170 178q7 34 19.5 59.5t27.5 43.5t41 29.5t49 18.5t63.5 10t74 3.5t89.5 0.5q9 32 16 51q2 28 -9.5 40t-42.5 12
q-33 0 -53.5 -17.5t-26.5 -43.5h-178q15 70 37 101q62 90 238 90q94 0 139 -40q73 46 209 46q140 0 193 -78.5t17 -251.5zM657 440q-34 0 -56 -22.5t-39 -80.5h147q7 60 -5.5 81.5t-46.5 21.5zM237 104q68 0 94 63q0 33 4 64q-72 -1 -103 -14t-40 -55q-6 -27 6 -42.5
t39 -15.5z" />
    <glyph glyph-name="ccedilla" unicode="&#xe7;" horiz-adv-x="611" 
d="M580 328h-196q8 50 -4 70t-48 20q-40 0 -64.5 -31.5t-40.5 -111.5q-17 -83 -7.5 -113t53.5 -30q64 0 86 77h197q-29 -106 -79 -158t-156 -65l-36 -46q39 -3 63.5 -28t14.5 -74q-11 -55 -58.5 -87t-154.5 -32q-38 0 -67 2.5t-39 4.5l-10 3l20 95q0 -8 62 -8q56 0 64 40
q3 14 -3 23t-20 13t-27.5 5.5t-32.5 1.5h-1l67 90q-193 37 -140 286q16 78 37 128t58.5 89.5t97.5 57t148 17.5q255 0 216 -239z" />
    <glyph glyph-name="egrave" unicode="&#xe8;" horiz-adv-x="629" 
d="M466 617h-164l-84 184h192zM574 238h-354q-11 -71 -1 -96t50 -25q35 0 58 18.5t32 49.5h203q-10 -46 -29 -80t-54 -63t-95 -44.5t-143 -15.5q-280 0 -218 292q13 62 28 105t40.5 81t61 60.5t88 35t123.5 12.5q139 0 192.5 -78.5t17.5 -251.5zM336 440q-34 0 -55.5 -22
t-38.5 -81h147q7 60 -5 81.5t-48 21.5z" />
    <glyph glyph-name="eacute" unicode="&#xe9;" horiz-adv-x="629" 
d="M612 801l-161 -184h-164l133 184h192zM364 568q139 0 192.5 -78.5t17.5 -251.5h-354q-11 -71 -1 -96t50 -25q35 0 58 18.5t32 49.5h203q-10 -46 -29 -80t-54 -63t-95 -44.5t-143 -15.5q-280 0 -218 292q13 62 28 105t40.5 81t61 60.5t88 35t123.5 12.5zM242 337h147
q7 60 -5 81.5t-48 21.5q-34 0 -55.5 -22t-38.5 -81z" />
    <glyph glyph-name="ecircumflex" unicode="&#xea;" horiz-adv-x="629" 
d="M390 685l-74 -70h-162l169 182h171l98 -182h-157zM364 568q139 0 192.5 -78.5t17.5 -251.5h-354q-11 -71 -1 -96t50 -25q35 0 58 18.5t32 49.5h203q-10 -46 -29 -80t-54 -63t-95 -44.5t-143 -15.5q-280 0 -218 292q13 62 28 105t40.5 81t61 60.5t88 35t123.5 12.5z
M242 337h147q7 60 -5 81.5t-48 21.5q-34 0 -55.5 -22t-38.5 -81z" />
    <glyph glyph-name="edieresis" unicode="&#xeb;" horiz-adv-x="629" 
d="M382 777l-35 -161h-187l35 161h187zM621 777l-34 -161h-189l35 161h188zM364 568q139 0 192.5 -78.5t17.5 -251.5h-354q-11 -71 -1 -96t50 -25q35 0 58 18.5t32 49.5h203q-10 -46 -29 -80t-54 -63t-95 -44.5t-143 -15.5q-280 0 -218 292q13 62 28 105t40.5 81t61 60.5
t88 35t123.5 12.5zM242 337h147q7 60 -5 81.5t-48 21.5q-34 0 -55.5 -22t-38.5 -81z" />
    <glyph glyph-name="igrave" unicode="&#xec;" horiz-adv-x="300" 
d="M300 612h-164l-84 184h192zM-22 0l115 550h200l-115 -550h-200z" />
    <glyph glyph-name="iacute" unicode="&#xed;" horiz-adv-x="300" 
d="M121 612l133 184h192l-161 -184h-164zM-22 0l115 550h200l-115 -550h-200z" />
    <glyph glyph-name="icircumflex" unicode="&#xee;" horiz-adv-x="300" 
d="M224 680l-74 -70h-162l169 182h171l98 -182h-157zM-22 0l115 550h200l-115 -550h-200z" />
    <glyph glyph-name="idieresis" unicode="&#xef;" horiz-adv-x="300" 
d="M-6 611l35 161h187l-35 -161h-187zM232 611l35 161h188l-34 -161h-189zM-22 0l115 550h200l-115 -550h-200z" />
    <glyph glyph-name="eth" unicode="&#xf0;" horiz-adv-x="636" 
d="M576 702l-68 -31q118 -198 77 -408h-1q-29 -144 -104 -212.5t-236 -68.5q-282 0 -221 293q14 67 35 113.5t58 84.5t96 56.5t142 18.5l-21 45l-77 -35l-30 64l71 32q-20 30 -42 56.5t-35 37.5l-12 12h234q10 -10 26 -30l78 35zM275 132q42 0 67 31t40 112l1 6q10 54 7 107
q-13 30 -56 30q-41 0 -65.5 -31.5t-42.5 -111.5q-17 -84 -7 -113.5t56 -29.5z" />
    <glyph glyph-name="ntilde" unicode="&#xf1;" horiz-adv-x="654" 
d="M338 658q-27 0 -44.5 -15.5t-19.5 -28.5h-87q18 87 56 132.5t106 45.5q38 0 74.5 -19.5t60.5 -19.5q27 0 43.5 15t20.5 28h88q-20 -92 -56.5 -136t-104.5 -44q-39 0 -76 21t-61 21zM461 565q96 0 129.5 -53.5t6.5 -181.5l-70 -330h-200l67 310q4 19 5.5 28.5t1.5 23
t-4 20t-14 11.5t-26 5q-54 0 -97 -60l-71 -338h-200l83 397l27 153h165l4 -72q14 18 34.5 35t64.5 34.5t94 17.5z" />
    <glyph glyph-name="ograve" unicode="&#xf2;" horiz-adv-x="634" 
d="M465 617h-164l-84 184h192zM243 -18q-139 0 -195 76t-26 217q16 74 38 124.5t60 90.5t98.5 59t146.5 19q139 0 195.5 -76.5t26.5 -216.5q-16 -75 -38 -125t-60.5 -90t-99 -59t-146.5 -19zM274 132q42 0 66.5 31t41.5 112q18 83 7.5 113t-56.5 30q-41 0 -65.5 -31.5
t-41.5 -111.5q-18 -84 -8 -113.5t56 -29.5z" />
    <glyph glyph-name="oacute" unicode="&#xf3;" horiz-adv-x="634" 
d="M286 617l133 184h192l-161 -184h-164zM243 -18q-139 0 -195 76t-26 217q16 74 38 124.5t60 90.5t98.5 59t146.5 19q139 0 195.5 -76.5t26.5 -216.5q-16 -75 -38 -125t-60.5 -90t-99 -59t-146.5 -19zM274 132q42 0 66.5 31t41.5 112q18 83 7.5 113t-56.5 30
q-41 0 -65.5 -31.5t-41.5 -111.5q-18 -84 -8 -113.5t56 -29.5z" />
    <glyph glyph-name="ocircumflex" unicode="&#xf4;" horiz-adv-x="634" 
d="M389 685l-74 -70h-162l169 182h171l98 -182h-157zM365 568q139 0 195.5 -76.5t26.5 -216.5q-16 -75 -38 -125t-60.5 -90t-99 -59t-146.5 -19q-139 0 -195 76t-26 217q16 74 38 124.5t60 90.5t98.5 59t146.5 19zM382 275q18 83 7.5 113t-56.5 30q-41 0 -65.5 -31.5
t-41.5 -111.5q-18 -84 -8 -113.5t56 -29.5q42 0 66.5 31t41.5 112z" />
    <glyph glyph-name="otilde" unicode="&#xf5;" horiz-adv-x="634" 
d="M529 801h88q-20 -92 -56.5 -136t-104.5 -44q-40 0 -76 21t-61 21q-27 0 -44.5 -15.5t-19.5 -28.5h-87q18 87 56 132.5t106 45.5q38 0 74.5 -19.5t60.5 -19.5q27 0 43.5 15t20.5 28zM243 -18q-139 0 -195 76t-26 217q16 74 38 124.5t60 90.5t98.5 59t146.5 19
q139 0 195.5 -76.5t26.5 -216.5q-16 -75 -38 -125t-60.5 -90t-99 -59t-146.5 -19zM274 132q42 0 66.5 31t41.5 112q18 83 7.5 113t-56.5 30q-41 0 -65.5 -31.5t-41.5 -111.5q-18 -84 -8 -113.5t56 -29.5z" />
    <glyph glyph-name="odieresis" unicode="&#xf6;" horiz-adv-x="634" 
d="M159 616l35 161h187l-35 -161h-187zM397 616l35 161h188l-34 -161h-189zM243 -18q-139 0 -195 76t-26 217q16 74 38 124.5t60 90.5t98.5 59t146.5 19q139 0 195.5 -76.5t26.5 -216.5q-16 -75 -38 -125t-60.5 -90t-99 -59t-146.5 -19zM274 132q42 0 66.5 31t41.5 112
q18 83 7.5 113t-56.5 30q-41 0 -65.5 -31.5t-41.5 -111.5q-18 -84 -8 -113.5t56 -29.5z" />
    <glyph glyph-name="divide" unicode="&#xf7;" horiz-adv-x="562" 
d="M208 436l33 155h184l-33 -155h-184zM28 269l28 132h473l-28 -132h-473zM133 80l32 155h184l-32 -155h-184z" />
    <glyph glyph-name="oslash" unicode="&#xf8;" horiz-adv-x="634" 
d="M621 562l-64 -67q60 -76 30 -220q-16 -75 -38 -125t-60.5 -90t-99 -59t-146.5 -19q-91 0 -146 33l-30 -32h-94l74 77q-54 75 -25 215q16 74 38 124.5t60 90.5t98.5 59t146.5 19q85 0 140 -29l22 23h94zM382 275q4 15 8 46l-165 -173q15 -16 49 -16q42 0 66.5 31t41.5 112
zM226 275l-7 -35l159 166q-15 12 -45 12q-41 0 -65.5 -31.5t-41.5 -111.5z" />
    <glyph glyph-name="ugrave" unicode="&#xf9;" horiz-adv-x="650" 
d="M471 612h-164l-84 184h192zM431 550h200l-83 -397l-26 -153h-165l-4 70q-14 -18 -35 -34.5t-66 -34t-97 -17.5q-91 0 -124 53t-6 178l72 335h199l-66 -310q-12 -36 -6.5 -62.5t42.5 -26.5q52 0 94 58z" />
    <glyph glyph-name="uacute" unicode="&#xfa;" horiz-adv-x="650" 
d="M617 796l-161 -184h-164l133 184h192zM431 550h200l-83 -397l-26 -153h-165l-4 70q-14 -18 -35 -34.5t-66 -34t-97 -17.5q-91 0 -124 53t-6 178l72 335h199l-66 -310q-12 -36 -6.5 -62.5t42.5 -26.5q52 0 94 58z" />
    <glyph glyph-name="ucircumflex" unicode="&#xfb;" horiz-adv-x="650" 
d="M395 680l-74 -70h-162l169 182h171l98 -182h-157zM431 550h200l-83 -397l-26 -153h-165l-4 70q-14 -18 -35 -34.5t-66 -34t-97 -17.5q-91 0 -124 53t-6 178l72 335h199l-66 -310q-12 -36 -6.5 -62.5t42.5 -26.5q52 0 94 58z" />
    <glyph glyph-name="udieresis" unicode="&#xfc;" horiz-adv-x="650" 
d="M387 772l-35 -161h-187l35 161h187zM626 772l-34 -161h-189l35 161h188zM431 550h200l-83 -397l-26 -153h-165l-4 70q-14 -18 -35 -34.5t-66 -34t-97 -17.5q-91 0 -124 53t-6 178l72 335h199l-66 -310q-12 -36 -6.5 -62.5t42.5 -26.5q52 0 94 58z" />
    <glyph glyph-name="yacute" unicode="&#xfd;" horiz-adv-x="590" 
d="M580 796l-161 -184h-164l133 184h192zM427 550h206l-409 -782h-183l115 232h-43l-72 550h194l15 -359z" />
    <glyph glyph-name="thorn" unicode="&#xfe;" horiz-adv-x="650" 
d="M447 563q214 0 152 -289q-30 -148 -94 -217.5t-178 -69.5q-88 0 -132 51l-58 -278h-199l208 1000h200l-53 -254q65 57 154 57zM395 274q17 75 9 107.5t-48 32.5q-56 0 -95 -60l-34 -164q9 -55 71 -55q37 0 59 32t38 107z" />
    <glyph glyph-name="ydieresis" unicode="&#xff;" horiz-adv-x="590" 
d="M350 772l-35 -161h-187l35 161h187zM589 772l-34 -161h-189l35 161h188zM427 550h206l-409 -782h-183l115 232h-43l-72 550h194l15 -359z" />
    <glyph glyph-name="Amacron" unicode="&#x100;" horiz-adv-x="703" 
d="M650 919l-30 -139h-338l30 139h338zM342 725h198l101 -725h-231l-2 121h-197l-58 -121h-222zM285 278h120l-4 243z" />
    <glyph glyph-name="amacron" unicode="&#x101;" horiz-adv-x="611" 
d="M563 758l-28 -128h-338l27 128h339zM336 562q71 0 118 -14t71.5 -36.5t32 -61.5t4 -79t-15.5 -99l-24 -118l-26 -154h-165l-5 50q-53 -64 -165 -64q-207 0 -170 178q7 34 20 59.5t27.5 43.5t41 30t49.5 18.5t64.5 9.5t74.5 3.5t90 0.5q15 54 8.5 78.5t-47.5 24.5
q-33 0 -53.5 -17.5t-26.5 -43.5h-178q14 66 31 94q60 97 244 97zM237 104q55 0 83 42l18 85q-75 -1 -106 -13.5t-40 -55.5q-6 -27 6 -42.5t39 -15.5z" />
    <glyph glyph-name="Abreve" unicode="&#x102;" horiz-adv-x="703" 
d="M449 764q-95 0 -138 50.5t-28 118.5h145q-4 -18 10 -31t37 -13t43 13t24 31h144q-36 -169 -237 -169zM342 725h198l101 -725h-231l-2 121h-197l-58 -121h-222zM285 278h120l-4 243z" />
    <glyph glyph-name="abreve" unicode="&#x103;" horiz-adv-x="611" 
d="M362 606q-97 0 -141 53t-29 124h151q-4 -20 8 -35t38 -15t45.5 15t23.5 35h149q-36 -177 -245 -177zM336 562q71 0 118 -14t71.5 -36.5t32 -61.5t4 -79t-15.5 -99l-24 -118l-26 -154h-165l-5 50q-53 -64 -165 -64q-207 0 -170 178q7 34 20 59.5t27.5 43.5t41 30
t49.5 18.5t64.5 9.5t74.5 3.5t90 0.5q15 54 8.5 78.5t-47.5 24.5q-33 0 -53.5 -17.5t-26.5 -43.5h-178q14 66 31 94q60 97 244 97zM237 104q55 0 83 42l18 85q-75 -1 -106 -13.5t-40 -55.5q-6 -27 6 -42.5t39 -15.5z" />
    <glyph glyph-name="Aogonek" unicode="&#x104;" horiz-adv-x="703" 
d="M473 -84q-3 -12 2.5 -21.5t20.5 -9.5q10 0 22.5 3.5t19.5 6.5l7 3l-20 -95q0 -2 -13 -9t-46.5 -15t-74.5 -8q-66 0 -88 28t-15 67q8 39 38.5 74t56.5 50l26 15h1l-2 116h-197l-58 -121h-222l411 725h198l101 -725h-96q-61 -37 -72 -84zM285 278h120l-4 243z" />
    <glyph glyph-name="aogonek" unicode="&#x105;" horiz-adv-x="611" 
d="M336 562q71 0 118 -14t71.5 -36.5t32 -61.5t4 -79t-15.5 -99l-24 -118l-26 -154h-22q-61 -37 -72 -84q-3 -12 2.5 -21.5t20.5 -9.5q10 0 22.5 3.5t19.5 6.5l7 3l-20 -95q0 -2 -13 -9t-46.5 -15t-74.5 -8q-66 0 -88 28t-15 67q7 34 32 65t44.5 45.5t37.5 24.5l-5 49
q-53 -64 -165 -64q-207 0 -170 178q7 34 20 59.5t27.5 43.5t41 30t49.5 18.5t64.5 9.5t74.5 3.5t90 0.5q15 54 8.5 78.5t-47.5 24.5q-33 0 -53.5 -17.5t-26.5 -43.5h-178q14 66 31 94q60 97 244 97zM237 104q55 0 83 42l18 85q-75 -1 -106 -13.5t-40 -55.5q-6 -27 6 -42.5
t39 -15.5z" />
    <glyph glyph-name="Cacute" unicode="&#x106;" horiz-adv-x="681" 
d="M356 794l128 166h204l-156 -166h-176zM275 -21q-311 0 -231 383q45 213 132.5 298.5t258.5 85.5q64 0 111.5 -15.5t83 -51.5t44 -95t-6.5 -146h-208q12 75 -2 101t-60 26q-51 0 -82 -42.5t-55 -160.5q-24 -123 -12.5 -162.5t66.5 -39.5q41 0 68.5 28t47.5 105h207
q-37 -174 -120 -244t-242 -70z" />
    <glyph glyph-name="cacute" unicode="&#x107;" horiz-adv-x="611" 
d="M284 617l133 184h192l-161 -184h-164zM241 -18q-280 0 -218 293q16 78 37 128t58.5 89.5t97.5 57t148 17.5q255 0 216 -239h-196q8 50 -4 70t-48 20q-40 0 -64.5 -31.5t-40.5 -111.5q-17 -83 -7.5 -113t53.5 -30q64 0 86 77h197q-17 -61 -37 -100t-55.5 -69.5t-89.5 -44
t-133 -13.5z" />
    <glyph glyph-name="Ccircumflex" unicode="&#x108;" horiz-adv-x="681" 
d="M464 856l-72 -62h-159l152 164h189l90 -164h-154zM667 438h-208q12 75 -2 101t-60 26q-51 0 -82 -42.5t-55 -160.5q-24 -123 -12.5 -162.5t66.5 -39.5q41 0 68.5 28t47.5 105h207q-37 -174 -120 -244t-242 -70q-311 0 -231 383q45 213 132.5 298.5t258.5 85.5
q64 0 111.5 -15.5t83 -51.5t44 -95t-6.5 -146z" />
    <glyph glyph-name="ccircumflex" unicode="&#x109;" horiz-adv-x="611" 
d="M387 685l-74 -70h-162l169 182h171l98 -182h-157zM364 567q255 0 216 -239h-196q8 50 -4 70t-48 20q-40 0 -64.5 -31.5t-40.5 -111.5q-17 -83 -7.5 -113t53.5 -30q64 0 86 77h197q-17 -61 -37 -100t-55.5 -69.5t-89.5 -44t-133 -13.5q-280 0 -218 293q16 78 37 128
t58.5 89.5t97.5 57t148 17.5z" />
    <glyph glyph-name="Cdotaccent" unicode="&#x10a;" horiz-adv-x="681" 
d="M346 794l33 161h200l-33 -161h-200zM275 -21q-311 0 -231 383q45 213 132.5 298.5t258.5 85.5q64 0 111.5 -15.5t83 -51.5t44 -95t-6.5 -146h-208q12 75 -2 101t-60 26q-51 0 -82 -42.5t-55 -160.5q-24 -123 -12.5 -162.5t66.5 -39.5q41 0 68.5 28t47.5 105h207
q-37 -174 -120 -244t-242 -70z" />
    <glyph glyph-name="cdotaccent" unicode="&#x10b;" horiz-adv-x="611" 
d="M271 616l35 161h200l-35 -161h-200zM241 -18q-280 0 -218 293q16 78 37 128t58.5 89.5t97.5 57t148 17.5q255 0 216 -239h-196q8 50 -4 70t-48 20q-40 0 -64.5 -31.5t-40.5 -111.5q-17 -83 -7.5 -113t53.5 -30q64 0 86 77h197q-17 -61 -37 -100t-55.5 -69.5t-89.5 -44
t-133 -13.5z" />
    <glyph glyph-name="Ccaron" unicode="&#x10c;" horiz-adv-x="681" 
d="M540 794h-190l-83 164h148l47 -62l72 62h164zM435 746q64 0 111.5 -15.5t83 -51.5t44 -95t-6.5 -146h-208q12 75 -2 101t-60 26q-51 0 -82 -42.5t-55 -160.5q-24 -123 -12.5 -162.5t66.5 -39.5q41 0 68.5 28t47.5 105h207q-37 -174 -120 -244t-242 -70q-311 0 -231 383
q45 213 132.5 298.5t258.5 85.5z" />
    <glyph glyph-name="ccaron" unicode="&#x10d;" horiz-adv-x="611" 
d="M452 615h-171l-92 182h152l46 -66l73 66h167zM364 567q255 0 216 -239h-196q8 50 -4 70t-48 20q-40 0 -64.5 -31.5t-40.5 -111.5q-17 -83 -7.5 -113t53.5 -30q64 0 86 77h197q-17 -61 -37 -100t-55.5 -69.5t-89.5 -44t-133 -13.5q-280 0 -218 293q16 78 37 128t58.5 89.5
t97.5 57t148 17.5z" />
    <glyph glyph-name="Dcaron" unicode="&#x10e;" horiz-adv-x="706" 
d="M522 776h-190l-83 164h148l47 -62l72 62h164zM142 726h232q212 0 276.5 -79.5t20.5 -284.5q-19 -90 -37 -144t-49 -101t-77.5 -70t-115 -35.5t-169.5 -12.5h-232zM457 362q10 48 14 79.5t-1.5 53t-13.5 33t-31.5 17.5t-44 7t-62.5 1l-79 -380q58 0 87 4.5t57.5 23
t44 56.5t29.5 105z" />
    <glyph glyph-name="dcaron" unicode="&#x10f;" horiz-adv-x="649" 
d="M482 760h200l-124 -598l-29 -162h-166l-3 56q-71 -69 -182 -69q-102 0 -143 72.5t-11 214.5q31 147 96 218t178 71q84 0 132 -55zM268 135q64 0 96 57l34 163q-13 59 -72 59q-37 0 -60 -32.5t-38 -107.5q-15 -74 -6 -106.5t46 -32.5zM764 760h159l-152 -220h-120z" />
    <glyph glyph-name="Dcroat" unicode="&#x110;" horiz-adv-x="706" 
d="M142 726h232q212 0 276.5 -79.5t20.5 -284.5q-19 -90 -37 -144t-49 -101t-77.5 -70t-115 -35.5t-169.5 -12.5h-232l65 315h-50l22 103h50zM457 362q10 48 14 79.5t-1.5 53t-13.5 33t-31.5 17.5t-44 7t-62.5 1l-28 -136h103l-21 -103h-104l-29 -141q58 0 87 4.5t57.5 23
t44 56.5t29.5 105z" />
    <glyph glyph-name="dcroat" unicode="&#x111;" horiz-adv-x="649" 
d="M722 690l-21 -103h-55l-88 -425l-29 -162h-166l-3 56q-71 -69 -182 -69q-102 0 -143 72.5t-11 214.5q31 147 96 218t178 71q84 0 132 -55l16 79h-111l22 103h110l15 70h200l-15 -70h55zM268 135q64 0 96 57l34 163q-13 59 -72 59q-37 0 -60 -32.5t-38 -107.5
q-15 -74 -6 -106.5t46 -32.5z" />
    <glyph glyph-name="Emacron" unicode="&#x112;" horiz-adv-x="610" 
d="M601 919l-30 -139h-338l30 139h338zM613 551h-296l-22 -106h248l-34 -156h-247l-24 -115h304l-37 -174h-514l151 725h507z" />
    <glyph glyph-name="emacron" unicode="&#x113;" horiz-adv-x="629" 
d="M574 763l-28 -128h-338l27 128h339zM574 238h-354q-11 -71 -1 -96t50 -25q35 0 58 18.5t32 49.5h203q-10 -46 -29 -80t-54 -63t-95 -44.5t-143 -15.5q-280 0 -218 292q13 62 28 105t40.5 81t61 60.5t88 35t123.5 12.5q139 0 192.5 -78.5t17.5 -251.5zM336 440
q-34 0 -55.5 -22t-38.5 -81h147q7 60 -5 81.5t-48 21.5z" />
    <glyph glyph-name="Ebreve" unicode="&#x114;" horiz-adv-x="610" 
d="M400 764q-95 0 -138 50.5t-28 118.5h145q-4 -18 10 -31t37 -13t43 13t24 31h144q-36 -169 -237 -169zM613 551h-296l-22 -106h248l-34 -156h-247l-24 -115h304l-37 -174h-514l151 725h507z" />
    <glyph glyph-name="ebreve" unicode="&#x115;" horiz-adv-x="629" 
d="M373 611q-97 0 -141 53t-29 124h151q-4 -20 8 -35t38 -15t45.5 15t23.5 35h149q-36 -177 -245 -177zM364 568q139 0 192.5 -78.5t17.5 -251.5h-354q-11 -71 -1 -96t50 -25q35 0 58 18.5t32 49.5h203q-10 -46 -29 -80t-54 -63t-95 -44.5t-143 -15.5q-280 0 -218 292
q13 62 28 105t40.5 81t61 60.5t88 35t123.5 12.5zM242 337h147q7 60 -5 81.5t-48 21.5q-34 0 -55.5 -22t-38.5 -81z" />
    <glyph glyph-name="Edotaccent" unicode="&#x116;" horiz-adv-x="610" 
d="M535 933l-33 -161h-200l33 161h200zM613 551h-296l-22 -106h248l-34 -156h-247l-24 -115h304l-37 -174h-514l151 725h507z" />
    <glyph glyph-name="edotaccent" unicode="&#x117;" horiz-adv-x="629" 
d="M509 777l-35 -161h-200l35 161h200zM574 238h-354q-11 -71 -1 -96t50 -25q35 0 58 18.5t32 49.5h203q-10 -46 -29 -80t-54 -63t-95 -44.5t-143 -15.5q-280 0 -218 292q13 62 28 105t40.5 81t61 60.5t88 35t123.5 12.5q139 0 192.5 -78.5t17.5 -251.5zM336 440
q-34 0 -55.5 -22t-38.5 -81h147q7 60 -5 81.5t-48 21.5z" />
    <glyph glyph-name="Eogonek" unicode="&#x118;" horiz-adv-x="610" 
d="M613 551h-296l-22 -106h248l-34 -156h-247l-24 -115h304l-37 -174q-5 -2 -18 -10.5t-31.5 -29.5t-23.5 -45q-3 -12 2.5 -21.5t20.5 -9.5q10 0 22.5 3t19.5 7l7 3l-20 -95q0 -2 -13 -9t-46.5 -15t-74.5 -8q-66 0 -88 28t-15 67q17 78 114 135h-370l151 725h507z" />
    <glyph glyph-name="eogonek" unicode="&#x119;" horiz-adv-x="629" 
d="M574 238h-354q-11 -71 -1 -96t50 -25q35 0 58 18.5t32 49.5h203q-28 -128 -136 -173q-41 -32 -49 -69q-3 -12 2.5 -21.5t20.5 -9.5q10 0 22.5 3t19.5 7l7 3l-20 -95q0 -2 -13 -9t-46.5 -15t-74.5 -8q-66 0 -88 28t-15 67q10 46 53 89h-4q-280 0 -218 292q13 62 28 105
t40.5 81t61 60.5t88 35t123.5 12.5q139 0 192.5 -78.5t17.5 -251.5zM336 440q-34 0 -55.5 -22t-38.5 -81h147q7 60 -5 81.5t-48 21.5z" />
    <glyph glyph-name="Ecaron" unicode="&#x11a;" horiz-adv-x="610" 
d="M496 772h-190l-83 164h148l47 -62l72 62h164zM649 725l-36 -174h-296l-22 -106h248l-34 -156h-247l-24 -115h304l-37 -174h-514l151 725h507z" />
    <glyph glyph-name="ecaron" unicode="&#x11b;" horiz-adv-x="629" 
d="M455 615h-171l-92 182h152l46 -66l73 66h167zM364 568q139 0 192.5 -78.5t17.5 -251.5h-354q-11 -71 -1 -96t50 -25q35 0 58 18.5t32 49.5h203q-10 -46 -29 -80t-54 -63t-95 -44.5t-143 -15.5q-280 0 -218 292q13 62 28 105t40.5 81t61 60.5t88 35t123.5 12.5zM242 337
h147q7 60 -5 81.5t-48 21.5q-34 0 -55.5 -22t-38.5 -81z" />
    <glyph glyph-name="Gcircumflex" unicode="&#x11c;" horiz-adv-x="692" 
d="M463 859l-72 -62h-159l152 164h189l90 -164h-154zM669 458h-201q10 64 -5.5 88.5t-62.5 24.5q-52 0 -83.5 -43.5t-57.5 -165.5q-26 -131 -12 -172.5t82 -41.5q41 0 68 17t31 36l10 45h-97l29 136h284l-59 -281q-1 -8 -12 -21t-36.5 -31t-60 -33t-90 -26t-119.5 -11
q-150 -1 -213 88t-20 295q45 215 132.5 299.5t260.5 84.5q140 0 201.5 -71t30.5 -217z" />
    <glyph glyph-name="gcircumflex" unicode="&#x11d;" horiz-adv-x="655" 
d="M396 680l-74 -70h-162l169 182h171l98 -182h-157zM477 550h166l-40 -167l-81 -386q-16 -79 -32 -110q-66 -127 -295 -128q-54 0 -94.5 10.5t-63 27t-37 37t-18.5 41t-4.5 37t1.5 26.5l2 11h184q-14 -61 60 -61q50 0 67.5 23.5t29.5 83.5l8 39q-63 -44 -153 -44
q-102 0 -143 71.5t-12 212.5q31 147 96 218t178 71q33 0 60.5 -9.5t44.5 -24t26.5 -27t15.5 -24.5zM267 137q64 0 96 56l33 162q-13 59 -72 59q-36 0 -59 -32.5t-38 -107.5q-15 -73 -5.5 -105t45.5 -32z" />
    <glyph glyph-name="Gbreve" unicode="&#x11e;" horiz-adv-x="692" 
d="M443 789q-95 0 -138 50.5t-28 118.5h145q-4 -18 10 -31t37 -13t43 13t24 31h144q-36 -169 -237 -169zM437 746q140 0 201.5 -71t30.5 -217h-201q10 64 -5.5 88.5t-62.5 24.5q-52 0 -83.5 -43.5t-57.5 -165.5q-26 -131 -12 -172.5t82 -41.5q41 0 68 17t31 36l10 45h-97
l29 136h284l-59 -281q-1 -8 -12 -21t-36.5 -31t-60 -33t-90 -26t-119.5 -11q-150 -1 -213 88t-20 295q45 215 132.5 299.5t260.5 84.5z" />
    <glyph glyph-name="gbreve" unicode="&#x11f;" horiz-adv-x="655" 
d="M379 606q-97 0 -141 53t-29 124h151q-4 -20 8 -35t38 -15t45.5 15t23.5 35h149q-36 -177 -245 -177zM477 550h166l-40 -167l-81 -386q-16 -79 -32 -110q-66 -127 -295 -128q-54 0 -94.5 10.5t-63 27t-37 37t-18.5 41t-4.5 37t1.5 26.5l2 11h184q-14 -61 60 -61
q50 0 67.5 23.5t29.5 83.5l8 39q-63 -44 -153 -44q-102 0 -143 71.5t-12 212.5q31 147 96 218t178 71q33 0 60.5 -9.5t44.5 -24t26.5 -27t15.5 -24.5zM267 137q64 0 96 56l33 162q-13 59 -72 59q-36 0 -59 -32.5t-38 -107.5q-15 -73 -5.5 -105t45.5 -32z" />
    <glyph glyph-name="Gdotaccent" unicode="&#x120;" horiz-adv-x="692" 
d="M578 958l-33 -161h-200l33 161h200zM669 458h-201q10 64 -5.5 88.5t-62.5 24.5q-52 0 -83.5 -43.5t-57.5 -165.5q-26 -131 -12 -172.5t82 -41.5q41 0 68 17t31 36l10 45h-97l29 136h284l-59 -281q-1 -8 -12 -21t-36.5 -31t-60 -33t-90 -26t-119.5 -11q-150 -1 -213 88
t-20 295q45 215 132.5 299.5t260.5 84.5q140 0 201.5 -71t30.5 -217z" />
    <glyph glyph-name="gdotaccent" unicode="&#x121;" horiz-adv-x="655" 
d="M515 772l-35 -161h-200l35 161h200zM477 550h166l-40 -167l-81 -386q-16 -79 -32 -110q-66 -127 -295 -128q-54 0 -94.5 10.5t-63 27t-37 37t-18.5 41t-4.5 37t1.5 26.5l2 11h184q-14 -61 60 -61q50 0 67.5 23.5t29.5 83.5l8 39q-63 -44 -153 -44q-102 0 -143 71.5
t-12 212.5q31 147 96 218t178 71q33 0 60.5 -9.5t44.5 -24t26.5 -27t15.5 -24.5zM267 137q64 0 96 56l33 162q-13 59 -72 59q-36 0 -59 -32.5t-38 -107.5q-15 -73 -5.5 -105t45.5 -32z" />
    <glyph glyph-name="Gcommaaccent" unicode="&#x122;" horiz-adv-x="692" 
d="M669 458h-201q10 64 -5.5 88.5t-62.5 24.5q-52 0 -83.5 -43.5t-57.5 -165.5q-26 -131 -12 -172.5t82 -41.5q41 0 68 17t31 36l10 45h-97l29 136h284l-59 -281q-1 -8 -12 -21t-36.5 -31t-60 -33t-90 -26t-119.5 -11q-150 -1 -213 88t-20 295q45 215 132.5 299.5
t260.5 84.5q140 0 201.5 -71t30.5 -217zM159 -194q16 35 27 66.5t14 45.5l4 14h175q-20 -66 -63 -142q-24 -42 -46 -72t-32 -40l-11 -9h-137q33 55 69 137z" />
    <glyph glyph-name="gcommaaccent" unicode="&#x123;" horiz-adv-x="655" 
d="M498 732q-16 -38 -27.5 -71.5t-15.5 -48.5l-4 -14h-178q21 67 65 150q24 44 47 76.5t34 43.5l11 10h139q-36 -60 -71 -146zM477 550h166l-40 -167l-81 -386q-16 -79 -32 -110q-66 -127 -295 -128q-54 0 -94.5 10.5t-63 27t-37 37t-18.5 41t-4.5 37t1.5 26.5l2 11h184
q-14 -61 60 -61q50 0 67.5 23.5t29.5 83.5l8 39q-63 -44 -153 -44q-102 0 -143 71.5t-12 212.5q31 147 96 218t178 71q33 0 60.5 -9.5t44.5 -24t26.5 -27t15.5 -24.5zM267 137q64 0 96 56l33 162q-13 59 -72 59q-36 0 -59 -32.5t-38 -107.5q-15 -73 -5.5 -105t45.5 -32z" />
    <glyph glyph-name="Hcircumflex" unicode="&#x124;" horiz-adv-x="719" 
d="M468 834l-72 -62h-159l152 164h189l90 -164h-154zM527 725h211l-151 -725h-211l57 273h-173l-57 -273h-212l151 725h212l-54 -261h173z" />
    <glyph glyph-name="hcircumflex" unicode="&#x125;" horiz-adv-x="654" 
d="M268 859l-72 -62h-159l152 164h189l90 -164h-154zM461 565q94 0 129 -54t7 -181l-70 -330h-200l67 310q12 36 6.5 62t-42.5 26q-60 0 -104 -70l-69 -328h-200l159 760h200l-54 -257q69 62 171 62z" />
    <glyph glyph-name="Hbar" unicode="&#x126;" horiz-adv-x="719" 
d="M787 643l-20 -99h-67l-113 -544h-211l57 273h-173l-57 -273h-212l113 544h-65l19 99h67l17 82h212l-17 -82h173l17 82h211l-17 -82h66zM473 464l16 80h-173l-16 -80h173z" />
    <glyph glyph-name="hbar" unicode="&#x127;" horiz-adv-x="654" 
d="M461 565q94 0 129 -54t7 -181l-70 -330h-200l67 310q12 36 6.5 62t-42.5 26q-60 0 -104 -70l-69 -328h-200l124 592h-60l22 103h59l14 65h200l-14 -65h106l-21 -103h-106l-19 -89q69 62 171 62z" />
    <glyph glyph-name="Itilde" unicode="&#x128;" horiz-adv-x="335" 
d="M414 956h87q-19 -92 -56 -138t-105 -46q-40 0 -76.5 20.5t-61.5 20.5q-26 0 -43 -15t-20 -28h-87q38 182 162 182q39 0 75.5 -19.5t60.5 -19.5q27 0 43.5 15t20.5 28zM-9 0l151 725h212l-151 -725h-212z" />
    <glyph glyph-name="itilde" unicode="&#x129;" horiz-adv-x="300" 
d="M364 796h88q-20 -92 -56.5 -136t-104.5 -44q-39 0 -76 21t-61 21q-27 0 -44.5 -15.5t-19.5 -28.5h-87q18 87 56 132.5t106 45.5q38 0 74.5 -19.5t60.5 -19.5q27 0 43.5 15t20.5 28zM-22 0l115 550h200l-115 -550h-200z" />
    <glyph glyph-name="Imacron" unicode="&#x12a;" horiz-adv-x="335" 
d="M120 919h338l-30 -139h-338zM-9 0l151 725h212l-151 -725h-212z" />
    <glyph glyph-name="imacron" unicode="&#x12b;" horiz-adv-x="300" 
d="M69 758h339l-28 -128h-338zM-22 0l115 550h200l-115 -550h-200z" />
    <glyph glyph-name="Ibreve" unicode="&#x12c;" horiz-adv-x="335" 
d="M350 933h144q-36 -169 -237 -169q-95 0 -138 50.5t-28 118.5h145q-4 -18 10 -31t37 -13t43 13t24 31zM-9 0l151 725h212l-151 -725h-212z" />
    <glyph glyph-name="ibreve" unicode="&#x12d;" horiz-adv-x="300" 
d="M303 783h149q-36 -177 -245 -177q-97 0 -141 53t-29 124h151q-4 -20 8 -35t38 -15t45.5 15t23.5 35zM-22 0l115 550h200l-115 -550h-200z" />
    <glyph glyph-name="Iogonek" unicode="&#x12e;" horiz-adv-x="335" 
d="M203 0h-70q-61 -37 -72 -84q-3 -12 2.5 -21.5t20.5 -9.5q10 0 22.5 3.5t19.5 6.5l7 3l-20 -95q0 -2 -13 -9t-46.5 -15t-74.5 -8q-66 0 -88 28t-15 67q17 80 115 136l151 723h212z" />
    <glyph glyph-name="iogonek" unicode="&#x12f;" horiz-adv-x="300" 
d="M143 772h200l-35 -161h-200zM-22 1l115 549h200l-115 -550h-57q-60 -37 -70 -83q-3 -12 2.5 -21.5t20.5 -9.5q10 0 22.5 3t19.5 7l7 3l-20 -95q0 -2 -13 -9t-46.5 -15t-74.5 -8q-66 0 -88 28t-15 67q10 47 45 81.5t67 52.5z" />
    <glyph glyph-name="Idotaccent" unicode="&#x130;" horiz-adv-x="335" 
d="M159 772l33 161h200l-33 -161h-200zM-9 0l151 725h212l-151 -725h-212z" />
    <glyph glyph-name="dotlessi" unicode="&#x131;" horiz-adv-x="300" 
d="M-22 0l115 550h200l-115 -550h-200z" />
    <glyph glyph-name="IJ" unicode="&#x132;" horiz-adv-x="807" 
d="M-9 0l151 725h212l-151 -725h-212zM347 0h-69l39 182h69q70 0 97.5 28.5t49.5 134.5l79 380h211l-78 -380q-15 -73 -27 -116t-32.5 -87t-46 -67t-66.5 -42t-95.5 -26t-130.5 -7z" />
    <glyph glyph-name="ij" unicode="&#x133;" horiz-adv-x="632" 
d="M108 611l35 161h200l-35 -161h-200zM421 611l35 161h200l-35 -161h-200zM-22 0l115 550h200l-115 -550h-200zM133 -234l35 169q42 0 67 7t40 28.5t21 42.5t16 68l98 469h199l-97 -469q-10 -49 -18.5 -80t-22.5 -68.5t-31.5 -59.5t-45 -45t-63.5 -35t-85.5 -19.5
t-112.5 -7.5z" />
    <glyph glyph-name="Jcircumflex" unicode="&#x134;" horiz-adv-x="472" 
d="M325 834l-72 -62h-159l152 164h189l90 -164h-154zM198 345l79 380h211l-78 -380q-15 -73 -27 -116t-32.5 -87t-46 -67t-66.5 -42t-95.5 -26t-130.5 -7h-69l39 182h69q70 0 97.5 28.5t49.5 134.5z" />
    <glyph glyph-name="jcircumflex" unicode="&#x135;" horiz-adv-x="332" 
d="M237 680l-74 -70h-162l169 182h171l98 -182h-157zM12 81l98 469h199l-97 -469q-10 -49 -18.5 -80t-22.5 -68.5t-31.5 -59.5t-45 -45t-63.5 -35t-85.5 -19.5t-112.5 -7.5l35 169q42 0 67 7t40 28.5t21 42.5t16 68z" />
    <glyph glyph-name="Kcommaaccent" unicode="&#x136;" horiz-adv-x="718" 
d="M789 725l-322 -324l181 -401h-237l-95 250l-77 -78l-36 -172h-212l151 725h212l-58 -281l246 281h247zM176 -182q16 35 27 66.5t15 45.5l3 14h175q-20 -66 -63 -142q-24 -42 -46.5 -72t-32.5 -40l-10 -9h-137q33 55 69 137z" />
    <glyph glyph-name="kcommaaccent" unicode="&#x137;" horiz-adv-x="606" 
d="M644 550l-246 -234l150 -316h-211l-73 189l-49 -47l-30 -142h-200l159 760h200l-79 -378l153 168h226zM108 -182q16 35 27 66.5t15 45.5l3 14h175q-20 -66 -63 -142q-24 -42 -46.5 -72t-32.5 -40l-10 -9h-137q33 55 69 137z" />
    <glyph glyph-name="kgreenlandic" unicode="&#x138;" horiz-adv-x="606" 
d="M644 550l-247 -234l151 -316h-206l-74 193l-53 -51l-30 -142h-200l115 550h200l-35 -168l153 168h226z" />
    <glyph glyph-name="Lacute" unicode="&#x139;" horiz-adv-x="512" 
d="M502 938l-156 -166h-176l128 166h204zM354 725l-112 -537h223l-41 -188h-433l151 725h212z" />
    <glyph glyph-name="lacute" unicode="&#x13a;" horiz-adv-x="310" 
d="M160 797l128 166h204l-156 -166h-176zM-15 0l159 760h199l-158 -760h-200z" />
    <glyph glyph-name="Lcommaaccent" unicode="&#x13b;" horiz-adv-x="512" 
d="M242 188h223l-41 -188h-433l151 725h212zM66 -182q16 35 27 66.5t15 45.5l3 14h175q-20 -66 -63 -142q-24 -42 -46.5 -72t-32.5 -40l-10 -9h-137q33 55 69 137z" />
    <glyph glyph-name="lcommaaccent" unicode="&#x13c;" horiz-adv-x="310" 
d="M-15 0l159 760h199l-158 -760h-200zM6 -319h-137q33 55 69 137q16 35 27 66.5t15 45.5l3 14h175q-20 -66 -63 -142q-24 -42 -46 -72t-33 -40z" />
    <glyph glyph-name="Lcaron" unicode="&#x13d;" horiz-adv-x="512" 
d="M461 772h174l-156 -239h-146zM354 725l-112 -537h223l-41 -188h-433l151 725h212z" />
    <glyph glyph-name="lcaron" unicode="&#x13e;" horiz-adv-x="534" 
d="M-15 0l159 760h199l-158 -760h-200zM319 540l113 220h159l-152 -220h-120z" />
    <glyph glyph-name="Ldot" unicode="&#x13f;" horiz-adv-x="511" 
d="M354 725l-112 -537h223l-41 -188h-433l151 725h212zM325 454h200l-31 -155h-200z" />
    <glyph glyph-name="ldot" unicode="&#x140;" horiz-adv-x="512" 
d="M-4 0l161 760h200l-162 -760h-199zM288 293l32 155h200l-32 -155h-200z" />
    <glyph glyph-name="Lslash" unicode="&#x141;" horiz-adv-x="512" 
d="M242 188h223l-41 -188h-433l56 270l-76 -35l-31 113l136 62l66 315h212l-43 -207l84 38l30 -113l-143 -66z" />
    <glyph glyph-name="lslash" unicode="&#x142;" horiz-adv-x="310" 
d="M411 437l-149 -68l-77 -369h-200l56 267l-84 -38l-31 113l144 66l74 352h199l-52 -251l90 41z" />
    <glyph glyph-name="Nacute" unicode="&#x143;" horiz-adv-x="733" 
d="M701 938l-156 -166h-176l128 166h204zM575 725h177l-151 -725h-210l-136 421l-88 -421h-176l151 725h211l137 -427z" />
    <glyph glyph-name="nacute" unicode="&#x144;" horiz-adv-x="654" 
d="M630 796l-161 -184h-164l133 184h192zM461 565q96 0 129.5 -53.5t6.5 -181.5l-70 -330h-200l67 310q4 19 5.5 28.5t1.5 23t-4 20t-14 11.5t-26 5q-54 0 -97 -60l-71 -338h-200l83 397l27 153h165l4 -72q14 18 34.5 35t64.5 34.5t94 17.5z" />
    <glyph glyph-name="Ncommaaccent" unicode="&#x145;" horiz-adv-x="733" 
d="M575 725h177l-151 -725h-210l-136 421l-88 -421h-176l151 725h211l137 -427zM167 -182q16 35 27 66.5t14 45.5l4 14h175q-20 -66 -63 -142q-24 -42 -46 -72t-32 -40l-11 -9h-137q33 55 69 137z" />
    <glyph glyph-name="ncommaaccent" unicode="&#x146;" horiz-adv-x="654" 
d="M461 565q96 0 129.5 -53.5t6.5 -181.5l-70 -330h-200l67 310q4 19 5.5 28.5t1.5 23t-4 20t-14 11.5t-26 5q-54 0 -97 -60l-71 -338h-200l83 397l27 153h165l4 -72q14 18 34.5 35t64.5 34.5t94 17.5zM118 -182q16 35 27 66.5t15 45.5l3 14h175q-20 -66 -63 -142
q-24 -42 -46.5 -72t-32.5 -40l-10 -9h-137q33 55 69 137z" />
    <glyph glyph-name="Ncaron" unicode="&#x147;" horiz-adv-x="733" 
d="M553 772h-190l-83 164h148l47 -62l72 62h164zM575 725h177l-151 -725h-210l-136 421l-88 -421h-176l151 725h211l137 -427z" />
    <glyph glyph-name="ncaron" unicode="&#x148;" horiz-adv-x="654" 
d="M473 610h-171l-92 182h152l46 -66l73 66h167zM461 565q96 0 129.5 -53.5t6.5 -181.5l-70 -330h-200l67 310q4 19 5.5 28.5t1.5 23t-4 20t-14 11.5t-26 5q-54 0 -97 -60l-71 -338h-200l83 397l27 153h165l4 -72q14 18 34.5 35t64.5 34.5t94 17.5z" />
    <glyph glyph-name="Eng" unicode="&#x14a;" horiz-adv-x="733" 
d="M575 725h177l-151 -725q-46 -236 -328 -236h-59l33 160h63q104 0 119 76l-169 445l-93 -445h-176l151 725h211l140 -417z" />
    <glyph glyph-name="eng" unicode="&#x14b;" horiz-adv-x="654" 
d="M461 565q96 0 129.5 -53.5t6.5 -181.5l-51 -249q-9 -43 -16 -71t-18.5 -61.5t-25 -54.5t-34 -44t-46.5 -36.5t-60.5 -25.5t-79.5 -17t-100 -5l36 169q67 0 92.5 22.5t40.5 81.5l26 118l32 153h1q4 19 5.5 28.5t1.5 23t-4 20t-14 11.5t-26 5q-54 0 -97 -60l-71 -338h-200
l83 397l27 153h165l4 -72q14 18 34.5 35t64.5 34.5t94 17.5z" />
    <glyph glyph-name="Omacron" unicode="&#x14c;" horiz-adv-x="706" 
d="M310 944h338l-30 -139h-338zM279 -21q-317 0 -235 383q45 214 133 299t262 85q315 0 234 -384q-46 -214 -133.5 -298.5t-260.5 -84.5zM317 160q53 0 84 42t56 160q25 123 13 163t-70 40q-54 0 -85.5 -42.5t-55.5 -160.5q-24 -122 -12 -162t70 -40z" />
    <glyph glyph-name="omacron" unicode="&#x14d;" horiz-adv-x="634" 
d="M234 763h339l-28 -128h-338zM243 -18q-139 0 -195 76t-26 217q16 74 38 124.5t60 90.5t98.5 59t146.5 19q139 0 195.5 -76.5t26.5 -216.5q-16 -75 -38 -125t-60.5 -90t-99 -59t-146.5 -19zM274 132q42 0 66.5 31t41.5 112q18 83 7.5 113t-56.5 30q-41 0 -65.5 -31.5
t-41.5 -111.5q-18 -84 -8 -113.5t56 -29.5z" />
    <glyph glyph-name="Obreve" unicode="&#x14e;" horiz-adv-x="706" 
d="M540 958h144q-36 -169 -237 -169q-95 0 -138 50.5t-28 118.5h145q-4 -18 10 -31t37 -13t43 13t24 31zM279 -21q-317 0 -235 383q45 214 133 299t262 85q315 0 234 -384q-46 -214 -133.5 -298.5t-260.5 -84.5zM317 160q53 0 84 42t56 160q25 123 13 163t-70 40
q-54 0 -85.5 -42.5t-55.5 -160.5q-24 -122 -12 -162t70 -40z" />
    <glyph glyph-name="obreve" unicode="&#x14f;" horiz-adv-x="634" 
d="M468 788h149q-36 -177 -245 -177q-97 0 -141 53t-29 124h151q-4 -20 8 -35t38 -15t45.5 15t23.5 35zM243 -18q-139 0 -195 76t-26 217q16 74 38 124.5t60 90.5t98.5 59t146.5 19q139 0 195.5 -76.5t26.5 -216.5q-16 -75 -38 -125t-60.5 -90t-99 -59t-146.5 -19zM274 132
q42 0 66.5 31t41.5 112q18 83 7.5 113t-56.5 30q-41 0 -65.5 -31.5t-41.5 -111.5q-18 -84 -8 -113.5t56 -29.5z" />
    <glyph glyph-name="Ohungarumlaut" unicode="&#x150;" horiz-adv-x="706" 
d="M229 798l129 167h203l-156 -167h-176zM457 798l155 167h205l-183 -167h-177zM279 -21q-317 0 -235 383q45 214 133 299t262 85q315 0 234 -384q-46 -214 -133.5 -298.5t-260.5 -84.5zM317 160q53 0 84 42t56 160q25 123 13 163t-70 40q-54 0 -85.5 -42.5t-55.5 -160.5
q-24 -122 -12 -162t70 -40z" />
    <glyph glyph-name="ohungarumlaut" unicode="&#x151;" horiz-adv-x="634" 
d="M139 617l132 184h205l-160 -184h-177zM368 617l159 184h204l-187 -184h-176zM243 -18q-139 0 -195 76t-26 217q16 74 38 124.5t60 90.5t98.5 59t146.5 19q139 0 195.5 -76.5t26.5 -216.5q-16 -75 -38 -125t-60.5 -90t-99 -59t-146.5 -19zM274 132q42 0 66.5 31t41.5 112
q18 83 7.5 113t-56.5 30q-41 0 -65.5 -31.5t-41.5 -111.5q-18 -84 -8 -113.5t56 -29.5z" />
    <glyph glyph-name="OE" unicode="&#x152;" horiz-adv-x="962" 
d="M963 551h-294l-22 -106h246l-32 -156h-247l-24 -115h304l-37 -174h-582q-69 0 -118.5 17.5t-85 59.5t-41.5 111.5t13 173.5q43 205 129.5 284t254.5 79h574zM318 164h59l83 397h-61q-53 0 -84.5 -41.5t-55.5 -157.5q-24 -119 -11.5 -158.5t70.5 -39.5z" />
    <glyph glyph-name="oe" unicode="&#x153;" horiz-adv-x="979" 
d="M924 238h-355q-12 -71 -1 -96t51 -25q69 0 90 68h202q-9 -46 -28 -80t-54 -63t-94.5 -44.5t-142.5 -15.5q-107 0 -157 56q-68 -56 -192 -56q-139 0 -195 76t-26 217q16 74 38 124.5t60 90.5t98.5 59t146.5 19q100 0 148 -56q68 56 200 56q139 0 193 -78.5t18 -251.5z
M685 440q-34 0 -55.5 -22t-38.5 -81h148q7 60 -5.5 81.5t-48.5 21.5zM274 132q42 0 66.5 31t41.5 112q18 83 7.5 113t-56.5 30q-41 0 -65.5 -31.5t-41.5 -111.5q-18 -84 -8 -113.5t56 -29.5z" />
    <glyph glyph-name="Racute" unicode="&#x154;" horiz-adv-x="703" 
d="M664 938l-156 -166h-176l128 166h204zM688 474q-19 -92 -48.5 -142t-88.5 -74l70 -258h-221l-40 226q-25 -1 -81 -1h-29l-47 -225h-212l151 725h247q62 0 107.5 -4.5t84.5 -15.5t61.5 -29.5t38.5 -46.5t15.5 -66.5t-8.5 -88.5zM284 387h29q92 0 124 14.5t44 74.5
q13 62 -12.5 76t-119.5 14h-27z" />
    <glyph glyph-name="racute" unicode="&#x155;" horiz-adv-x="450" 
d="M526 796l-161 -184h-164l133 184h192zM265 550l2 -91q24 42 75.5 75t136.5 33l-37 -178q-48 0 -87 -15t-61.5 -38.5t-33 -40t-16.5 -31.5l-55 -264h-200l80 384l30 166h166z" />
    <glyph glyph-name="Rcommaaccent" unicode="&#x156;" horiz-adv-x="703" 
d="M688 474q-19 -92 -48.5 -142t-88.5 -74l70 -258h-221l-40 226q-25 -1 -81 -1h-29l-47 -225h-212l151 725h247q62 0 107.5 -4.5t84.5 -15.5t61.5 -29.5t38.5 -46.5t15.5 -66.5t-8.5 -88.5zM284 387h29q92 0 124 14.5t44 74.5q13 62 -12.5 76t-119.5 14h-27zM145 -182
q16 35 27 66.5t14 45.5l4 14h175q-20 -66 -63 -142q-24 -42 -46 -72t-32 -40l-11 -9h-137q33 55 69 137z" />
    <glyph glyph-name="rcommaaccent" unicode="&#x157;" horiz-adv-x="450" 
d="M265 550l2 -91q24 42 75.5 75t136.5 33l-37 -178q-48 0 -87 -15t-61.5 -38.5t-33 -40t-16.5 -31.5l-55 -264h-200l80 384l30 166h166zM-58 -182q16 35 27 66.5t15 45.5l3 14h175q-20 -66 -63 -142q-24 -42 -46.5 -72t-32.5 -40l-10 -9h-137q33 55 69 137z" />
    <glyph glyph-name="Rcaron" unicode="&#x158;" horiz-adv-x="703" 
d="M516 772h-190l-83 164h148l47 -62l72 62h164zM688 474q-19 -92 -48.5 -142t-88.5 -74l70 -258h-221l-40 226q-25 -1 -81 -1h-29l-47 -225h-212l151 725h247q62 0 107.5 -4.5t84.5 -15.5t61.5 -29.5t38.5 -46.5t15.5 -66.5t-8.5 -88.5zM284 387h29q92 0 124 14.5t44 74.5
q13 62 -12.5 76t-119.5 14h-27z" />
    <glyph glyph-name="rcaron" unicode="&#x159;" horiz-adv-x="450" 
d="M369 610h-171l-92 182h152l46 -66l73 66h167zM265 550l2 -91q24 42 75.5 75t136.5 33l-37 -178q-48 0 -87 -15t-61.5 -38.5t-33 -40t-16.5 -31.5l-55 -264h-200l80 384l30 166h166z" />
    <glyph glyph-name="Sacute" unicode="&#x15a;" horiz-adv-x="671" 
d="M337 796l128 166h204l-156 -166h-176zM11 241h200q-21 -98 73 -98q95 0 109 61q7 30 -9.5 48.5t-48 25.5t-71 15t-77.5 19t-67 36.5t-40.5 67.5t2.5 113q22 108 99 163t236 55q294 0 240 -249h-198q19 87 -68 87q-82 0 -99 -63q-7 -28 10 -45.5t49 -26.5t71.5 -16.5
t78.5 -21t68.5 -35t42.5 -63.5t1 -101q-25 -121 -103.5 -177.5t-252.5 -56.5q-149 0 -212 62.5t-34 199.5z" />
    <glyph glyph-name="sacute" unicode="&#x15b;" horiz-adv-x="567" 
d="M252 618l133 184h192l-161 -184h-164zM-2 187h178q-17 -79 55 -79q68 0 78 42q4 22 -10.5 36t-41 19.5t-58.5 12.5t-63.5 16t-55.5 29t-34 51.5t0 83.5q18 84 82 126.5t201 42.5q119 0 173.5 -48t35.5 -139h-177q13 61 -55 61q-60 0 -67 -42q-4 -21 11 -33.5t41.5 -18.5
t59 -10.5t64 -14.5t55.5 -26.5t34.5 -50.5t0.5 -82q-19 -93 -84 -137t-214 -44q-124 0 -177 51t-32 154z" />
    <glyph glyph-name="Scircumflex" unicode="&#x15c;" horiz-adv-x="671" 
d="M445 858l-72 -62h-159l152 164h189l90 -164h-154zM657 498h-198q19 87 -68 87q-82 0 -99 -63q-7 -28 10 -45.5t49 -26.5t71.5 -16.5t78.5 -21t68.5 -35t42.5 -63.5t1 -101q-25 -121 -103.5 -177.5t-252.5 -56.5q-149 0 -212 62.5t-34 199.5h200q-21 -98 73 -98
q95 0 109 61q7 30 -9.5 48.5t-48 25.5t-71 15t-77.5 19t-67 36.5t-40.5 67.5t2.5 113q22 108 99 163t236 55q294 0 240 -249z" />
    <glyph glyph-name="scircumflex" unicode="&#x15d;" horiz-adv-x="567" 
d="M355 686l-74 -70h-162l169 182h171l98 -182h-157zM329 567q119 0 173.5 -48t35.5 -139h-177q13 61 -55 61q-60 0 -67 -42q-4 -21 11 -33.5t41.5 -18.5t59 -10.5t64 -14.5t55.5 -26.5t34.5 -50.5t0.5 -82q-19 -93 -84 -137t-214 -44q-124 0 -177 51t-32 154h178
q-17 -79 55 -79q68 0 78 42q4 22 -10.5 36t-41 19.5t-58.5 12.5t-63.5 16t-55.5 29t-34 51.5t0 83.5q18 84 82 126.5t201 42.5z" />
    <glyph glyph-name="Scedilla" unicode="&#x15e;" horiz-adv-x="671" 
d="M657 498h-198q19 87 -68 87q-82 0 -99 -63q-7 -28 10 -45.5t49 -26.5t71.5 -16.5t78.5 -21t68.5 -35t42.5 -63.5t1 -101q-22 -105 -81.5 -160t-183.5 -69l-44 -57q39 -3 63.5 -28t14.5 -74q-11 -55 -58.5 -87t-154.5 -32q-38 0 -67 2.5t-39 5.5l-10 2l20 95q0 -8 62 -8
q56 0 64 40q3 14 -3 23t-20 13t-27.5 5.5t-32.5 1.5h-1l72 97q-224 26 -176 258h200q-21 -98 73 -98q95 0 109 61q7 30 -9.5 48.5t-48 25.5t-71 15t-77.5 19t-67 36.5t-40.5 67.5t2.5 113q22 108 99 163t236 55q294 0 240 -249z" />
    <glyph glyph-name="scedilla" unicode="&#x15f;" horiz-adv-x="567" 
d="M538 380h-177q13 61 -55 61q-60 0 -67 -42q-4 -21 11 -33.5t41.5 -18.5t59 -10.5t64 -14.5t55.5 -26.5t34.5 -50.5t0.5 -82q-16 -77 -62 -120t-145 -56l-41 -53q39 -3 63.5 -28t14.5 -74q-11 -55 -58.5 -87t-154.5 -32q-38 0 -67 2.5t-39 4.5l-10 3l20 95q0 -8 62 -8
q56 0 64 40q3 14 -3 23t-20 13t-27.5 5.5t-32.5 1.5h-1l70 94q-175 26 -140 200h178q-17 -79 55 -79q68 0 78 42q4 22 -10.5 36t-41 19.5t-58.5 12.5t-63.5 16t-55.5 29t-34 51.5t0 83.5q18 84 82 126.5t201 42.5q119 0 173.5 -48t35.5 -139z" />
    <glyph glyph-name="Scaron" unicode="&#x160;" horiz-adv-x="671" 
d="M521 796h-190l-83 164h148l47 -62l72 62h164zM417 747q294 0 240 -249h-198q19 87 -68 87q-82 0 -99 -63q-7 -28 10 -45.5t49 -26.5t71.5 -16.5t78.5 -21t68.5 -35t42.5 -63.5t1 -101q-25 -121 -103.5 -177.5t-252.5 -56.5q-149 0 -212 62.5t-34 199.5h200
q-21 -98 73 -98q95 0 109 61q7 30 -9.5 48.5t-48 25.5t-71 15t-77.5 19t-67 36.5t-40.5 67.5t2.5 113q22 108 99 163t236 55z" />
    <glyph glyph-name="scaron" unicode="&#x161;" horiz-adv-x="567" 
d="M420 616h-171l-92 182h152l46 -66l73 66h167zM329 567q119 0 173.5 -48t35.5 -139h-177q13 61 -55 61q-60 0 -67 -42q-4 -21 11 -33.5t41.5 -18.5t59 -10.5t64 -14.5t55.5 -26.5t34.5 -50.5t0.5 -82q-19 -93 -84 -137t-214 -44q-124 0 -177 51t-32 154h178
q-17 -79 55 -79q68 0 78 42q4 22 -10.5 36t-41 19.5t-58.5 12.5t-63.5 16t-55.5 29t-34 51.5t0 83.5q18 84 82 126.5t201 42.5z" />
    <glyph glyph-name="uni0162" unicode="&#x162;" horiz-adv-x="569" 
d="M639 725l-40 -188h-167l-113 -537h-52l-46 -59q39 -3 63.5 -28t14.5 -74q-11 -55 -58.5 -87t-154.5 -32q-38 0 -67 2.5t-39 5.5l-10 2l20 95q0 -8 62 -8q56 0 64 40q3 14 -3 23t-20 13t-27.5 5.5t-32.5 1.5h-1l76 102l112 535h-169l40 188h548z" />
    <glyph glyph-name="uni0163" unicode="&#x163;" horiz-adv-x="418" 
d="M297 410l-32 -156q-11 -64 -1.5 -84t42.5 -20h46l-35 -161h-53l-31 -40q39 -3 63.5 -28t14.5 -74q-11 -55 -58.5 -87t-154.5 -32q-38 0 -67 2.5t-39 5.5l-10 2l20 95q0 -8 62 -8q56 0 64 40q3 14 -3 23t-20 13t-27.5 5.5t-32.5 1.5h-1l76 102q-32 13 -49 35.5t-20.5 55.5
t0 66t13.5 82l34 161h-72l29 140h72l29 140l205 31l-35 -171h105l-29 -140h-105z" />
    <glyph glyph-name="Tcaron" unicode="&#x164;" horiz-adv-x="569" 
d="M471 772h-190l-83 164h148l47 -62l72 62h164zM639 725l-40 -188h-167l-113 -537h-211l112 537h-169l40 188h548z" />
    <glyph glyph-name="tcaron" unicode="&#x165;" horiz-adv-x="418" 
d="M464 802h159l-152 -220h-120zM361 721l-35 -171h105l-29 -140h-105l-32 -156q-11 -64 -1.5 -84t42.5 -20h46l-35 -161h-65q-65 0 -107.5 13t-64 33t-28 56t-3 70.5t14.5 87.5l34 161h-72l29 140h72l29 140z" />
    <glyph glyph-name="Tbar" unicode="&#x166;" horiz-adv-x="569" 
d="M599 537h-167l-31 -148h99l-25 -123h-100l-56 -266h-211l55 266h-106l26 123h106l31 148h-169l40 188h548z" />
    <glyph glyph-name="tbar" unicode="&#x167;" horiz-adv-x="418" 
d="M402 410h-105l-14 -68h101l-21 -103h-101q-9 -52 2 -70.5t42 -18.5h46l-35 -161h-65q-64 0 -106 12t-64 32t-29 54t-4 68t13 84h-65l22 103h64l15 68h-72l29 140h72l29 140l205 31l-35 -171h105z" />
    <glyph glyph-name="Utilde" unicode="&#x168;" horiz-adv-x="718" 
d="M606 956h87q-19 -92 -56 -138t-105 -46q-40 0 -77 20.5t-61 20.5q-26 0 -43 -15t-20 -28h-87q38 182 162 182q39 0 75.5 -19.5t60.5 -19.5q27 0 43.5 15t20.5 28zM284 -21q-157 0 -208 83.5t-11 274.5l81 388h211l-78 -376q-23 -118 -14 -150.5t58 -32.5q45 0 70.5 35.5
t48.5 147.5l78 376h214l-81 -388q-21 -103 -44.5 -165t-64.5 -108.5t-103 -65.5t-157 -19z" />
    <glyph glyph-name="utilde" unicode="&#x169;" horiz-adv-x="650" 
d="M325 658q-27 0 -44.5 -15.5t-19.5 -28.5h-87q18 87 56 132.5t106 45.5q38 0 74.5 -19.5t60.5 -19.5q27 0 43.5 15t20.5 28h88q-20 -92 -56.5 -136t-104.5 -44q-40 0 -76 21t-61 21zM431 550h200l-83 -397l-26 -153h-165l-4 70q-14 -18 -35 -34.5t-66 -34t-97 -17.5
q-91 0 -124 53t-6 178l72 335h199l-66 -310q-12 -36 -6.5 -62.5t42.5 -26.5q52 0 94 58z" />
    <glyph glyph-name="Umacron" unicode="&#x16a;" horiz-adv-x="718" 
d="M312 919h338l-30 -139h-338zM284 -21q-157 0 -208 83.5t-11 274.5l81 388h211l-78 -376q-23 -118 -14 -150.5t58 -32.5q45 0 70.5 35.5t48.5 147.5l78 376h214l-81 -388q-21 -103 -44.5 -165t-64.5 -108.5t-103 -65.5t-157 -19z" />
    <glyph glyph-name="umacron" unicode="&#x16b;" horiz-adv-x="650" 
d="M579 758l-28 -128h-338l27 128h339zM431 550h200l-83 -397l-26 -153h-165l-4 70q-14 -18 -35 -34.5t-66 -34t-97 -17.5q-91 0 -124 53t-6 178l72 335h199l-66 -310q-12 -36 -6.5 -62.5t42.5 -26.5q52 0 94 58z" />
    <glyph glyph-name="Ubreve" unicode="&#x16c;" horiz-adv-x="718" 
d="M542 933h144q-36 -169 -237 -169q-95 0 -138 50.5t-28 118.5h145q-4 -18 10 -31t37 -13t43 13t24 31zM284 -21q-157 0 -208 83.5t-11 274.5l81 388h211l-78 -376q-23 -118 -14 -150.5t58 -32.5q45 0 70.5 35.5t48.5 147.5l78 376h214l-81 -388q-21 -103 -44.5 -165
t-64.5 -108.5t-103 -65.5t-157 -19z" />
    <glyph glyph-name="ubreve" unicode="&#x16d;" horiz-adv-x="650" 
d="M378 606q-97 0 -141 53t-29 124h151q-4 -20 8 -35t38 -15t45.5 15t23.5 35h149q-36 -177 -245 -177zM431 550h200l-83 -397l-26 -153h-165l-4 70q-14 -18 -35 -34.5t-66 -34t-97 -17.5q-91 0 -124 53t-6 178l72 335h199l-66 -310q-12 -36 -6.5 -62.5t42.5 -26.5
q52 0 94 58z" />
    <glyph glyph-name="Uring" unicode="&#x16e;" horiz-adv-x="718" 
d="M450 764q-58 0 -91 34.5t-20 94.5q26 129 166 129q54 0 87 -35t20 -94q-28 -129 -162 -129zM472 861q13 0 23.5 9t13.5 23t-4 23t-21 9q-29 0 -36 -32q-4 -14 3 -23t21 -9zM284 -21q-157 0 -208 83.5t-11 274.5l81 388h211l-78 -376q-23 -118 -14 -150.5t58 -32.5
q45 0 70.5 35.5t48.5 147.5l78 376h214l-81 -388q-21 -103 -44.5 -165t-64.5 -108.5t-103 -65.5t-157 -19z" />
    <glyph glyph-name="uring" unicode="&#x16f;" horiz-adv-x="650" 
d="M379 598q-60 0 -93 36.5t-21 95.5q29 131 169 131q56 0 88 -36t20 -95q-14 -63 -55 -97.5t-108 -34.5zM376 730q-3 -14 3.5 -23t20.5 -9q13 0 23.5 9t13.5 23t-4 23t-20 9q-30 0 -37 -32zM431 550h200l-83 -397l-26 -153h-165l-4 70q-14 -18 -35 -34.5t-66 -34t-97 -17.5
q-91 0 -124 53t-6 178l72 335h199l-66 -310q-12 -36 -6.5 -62.5t42.5 -26.5q52 0 94 58z" />
    <glyph glyph-name="Uhungarumlaut" unicode="&#x170;" horiz-adv-x="718" 
d="M231 773l129 167h203l-156 -167h-176zM459 773l155 167h205l-183 -167h-177zM284 -21q-157 0 -208 83.5t-11 274.5l81 388h211l-78 -376q-23 -118 -14 -150.5t58 -32.5q45 0 70.5 35.5t48.5 147.5l78 376h214l-81 -388q-21 -103 -44.5 -165t-64.5 -108.5t-103 -65.5
t-157 -19z" />
    <glyph glyph-name="uhungarumlaut" unicode="&#x171;" horiz-adv-x="650" 
d="M482 796l-160 -184h-177l132 184h205zM550 612h-176l159 184h204zM360 209l71 341h200l-83 -397l-26 -153h-165l-4 70q-14 -18 -35 -34.5t-66 -34t-97 -17.5q-91 0 -124 53t-6 178l72 335h199l-66 -310q-12 -36 -6.5 -62.5t42.5 -26.5q52 0 94 58z" />
    <glyph glyph-name="Uogonek" unicode="&#x172;" horiz-adv-x="718" 
d="M520 725h214l-81 -388q-29 -141 -68.5 -217t-113.5 -109q-38 -32 -45 -66q-3 -12 2.5 -21.5t20.5 -9.5q10 0 22.5 3t19.5 7l7 3l-20 -95q0 -2 -13 -9t-46.5 -15t-74.5 -8q-66 0 -88 28t-15 67q9 43 48 84h-5q-157 0 -208 83.5t-11 274.5l81 388h211l-78 -376
q-23 -118 -14 -150.5t58 -32.5q45 0 70.5 35.5t48.5 147.5z" />
    <glyph glyph-name="uogonek" unicode="&#x173;" horiz-adv-x="650" 
d="M431 550h200l-83 -397l-26 -153h-21q-57 -34 -67 -81q-3 -12 2.5 -21.5t20.5 -9.5q10 0 22.5 3t19.5 7l7 3l-20 -95q0 -2 -13 -9t-46.5 -15t-74.5 -8q-66 0 -88 28t-15 67q17 77 108 132l-4 69q-14 -18 -35 -34.5t-66 -34t-97 -17.5q-91 0 -124 53t-6 178l72 335h199
l-66 -310q-12 -36 -6.5 -62.5t42.5 -26.5q52 0 94 58z" />
    <glyph glyph-name="Wcircumflex" unicode="&#x174;" horiz-adv-x="1008" 
d="M602 834l-72 -62h-159l152 164h189l90 -164h-154zM863 725h226l-376 -725h-183l-17 424l-197 -424h-180l-70 725h222l-2 -447l192 447h189l8 -455z" />
    <glyph glyph-name="wcircumflex" unicode="&#x175;" horiz-adv-x="846" 
d="M501 680l-74 -70h-162l169 182h171l98 -182h-157zM706 550h185l-276 -550h-170l-26 310l-152 -310h-172l-53 550h186l6 -312l143 312h180l20 -312z" />
    <glyph glyph-name="Ycircumflex" unicode="&#x176;" horiz-adv-x="656" 
d="M424 834l-72 -62h-159l152 164h189l90 -164h-154zM737 725l-332 -469l-53 -256h-211l53 257l-139 468h227l53 -297l174 297h228z" />
    <glyph glyph-name="ycircumflex" unicode="&#x177;" horiz-adv-x="590" 
d="M358 680l-74 -70h-162l169 182h171l98 -182h-157zM427 550h206l-409 -782h-183l115 232h-43l-72 550h194l15 -359z" />
    <glyph glyph-name="Ydieresis" unicode="&#x178;" horiz-adv-x="656" 
d="M414 933l-34 -161h-200l34 161h200zM664 933l-33 -161h-200l33 161h200zM737 725l-332 -469l-53 -256h-211l53 257l-139 468h227l53 -297l174 297h228z" />
    <glyph glyph-name="Zacute" unicode="&#x179;" horiz-adv-x="609" 
d="M637 938l-156 -166h-176l128 166h204zM645 657h1l-17 -77l-5 -25l-11 -49l-383 -331l320 7l-38 -181h-559l14 70l12 55l9 44l11 49l382 331l-298 -7l39 181h537z" />
    <glyph glyph-name="zacute" unicode="&#x17a;" horiz-adv-x="539" 
d="M563 796l-161 -184h-164l133 184h192zM57 400l32 149h458l-29 -136l-11 -51l-290 -216l247 6l-32 -151h-468l16 75l12 54l2 10l11 50l291 217z" />
    <glyph glyph-name="Zdotaccent" unicode="&#x17b;" horiz-adv-x="609" 
d="M528 933l-33 -161h-200l33 161h200zM645 657h1l-17 -77l-5 -25l-11 -49l-383 -331l320 7l-38 -181h-559l14 70l12 55l9 44l11 49l382 331l-298 -7l39 181h537z" />
    <glyph glyph-name="zdotaccent" unicode="&#x17c;" horiz-adv-x="539" 
d="M460 772l-35 -161h-200l35 161h200zM547 549l-29 -136l-11 -51l-290 -216l247 6l-32 -151h-468l16 75l12 54l2 10l11 50l291 217l-239 -7l32 149h458z" />
    <glyph glyph-name="Zcaron" unicode="&#x17d;" horiz-adv-x="609" 
d="M489 772h-190l-83 164h148l47 -62l72 62h164zM645 657h1l-17 -77l-5 -25l-11 -49l-383 -331l320 7l-38 -181h-559l14 70l12 55l9 44l11 49l382 331l-298 -7l39 181h537z" />
    <glyph glyph-name="zcaron" unicode="&#x17e;" horiz-adv-x="539" 
d="M406 610h-171l-92 182h152l46 -66l73 66h167zM57 400l32 149h458l-29 -136l-11 -51l-290 -216l247 6l-32 -151h-468l16 75l12 54l2 10l11 50l291 217z" />
    <glyph glyph-name="uni018F" unicode="&#x18f;" horiz-adv-x="704" 
d="M438 746q314 0 233 -384q-45 -214 -132.5 -298.5t-261.5 -84.5q-316 0 -232 397h414q22 113 9.5 151t-69.5 38q-43 0 -71.5 -26.5t-49.5 -96.5h-216q49 169 133 236.5t243 67.5zM316 160q42 0 68.5 24t48.5 89h-188q-7 -66 9 -89.5t62 -23.5z" />
    <glyph glyph-name="uni019D" unicode="&#x19d;" horiz-adv-x="734" 
d="M576 725h177l-151 -725h-210l-136 421l-88 -421q-48 -236 -316 -236h-59l34 160h63q47 0 70.5 19t31.5 57l151 725h211l137 -427z" />
    <glyph glyph-name="Gcaron" unicode="&#x1e6;" horiz-adv-x="692" 
d="M539 797h-190l-83 164h148l47 -62l72 62h164zM437 746q140 0 201.5 -71t30.5 -217h-201q10 64 -5.5 88.5t-62.5 24.5q-52 0 -83.5 -43.5t-57.5 -165.5q-26 -131 -12 -172.5t82 -41.5q41 0 68 17t31 36l10 45h-97l29 136h284l-59 -281q-1 -8 -12 -21t-36.5 -31t-60 -33
t-90 -26t-119.5 -11q-150 -1 -213 88t-20 295q45 215 132.5 299.5t260.5 84.5z" />
    <glyph glyph-name="gcaron" unicode="&#x1e7;" horiz-adv-x="655" 
d="M461 610h-171l-92 182h152l46 -66l73 66h167zM477 550h166l-40 -167l-81 -386q-16 -79 -32 -110q-66 -127 -295 -128q-54 0 -94.5 10.5t-63 27t-37 37t-18.5 41t-4.5 37t1.5 26.5l2 11h184q-14 -61 60 -61q50 0 67.5 23.5t29.5 83.5l8 39q-63 -44 -153 -44
q-102 0 -143 71.5t-12 212.5q31 147 96 218t178 71q33 0 60.5 -9.5t44.5 -24t26.5 -27t15.5 -24.5zM267 137q64 0 96 56l33 162q-13 59 -72 59q-36 0 -59 -32.5t-38 -107.5q-15 -73 -5.5 -105t45.5 -32z" />
    <glyph glyph-name="uni01EA" unicode="&#x1ea;" horiz-adv-x="706" 
d="M439 746q315 0 234 -384q-32 -150 -82.5 -234t-133.5 -119q-36 -30 -43 -64q-3 -12 2.5 -21.5t20.5 -9.5q10 0 22.5 3t19.5 7l7 3l-20 -95q0 -2 -13 -9t-46.5 -15t-74.5 -8q-66 0 -88 28t-15 67q9 43 48 84q-315 2 -233 383q45 214 133 299t262 85zM259 362
q-24 -122 -12 -162t70 -40q53 0 84 42t56 160q25 123 13 163t-70 40q-54 0 -85.5 -42.5t-55.5 -160.5z" />
    <glyph glyph-name="uni01EB" unicode="&#x1eb;" horiz-adv-x="634" 
d="M365 568q139 0 195.5 -76.5t26.5 -216.5q-22 -106 -61 -170.5t-113 -94.5q-35 -31 -42 -63q-3 -12 2.5 -21.5t20.5 -9.5q10 0 22.5 3t19.5 7l7 3l-20 -95q0 -2 -13 -9t-46.5 -15t-74.5 -8q-66 0 -88 28t-15 67q9 45 49 85q-134 2 -188 78t-25 215q16 74 38 124.5t60 90.5
t98.5 59t146.5 19zM226 275q-18 -84 -8 -113.5t56 -29.5q42 0 66.5 31t41.5 112q18 83 7.5 113t-56.5 30q-41 0 -65.5 -31.5t-41.5 -111.5z" />
    <glyph glyph-name="Aringacute" unicode="&#x1fa;" horiz-adv-x="703" 
d="M752 1223l-156 -166h-176l128 166h204zM450 764q-58 0 -91 34.5t-20 94.5q26 129 166 129q54 0 87 -35t20 -94q-28 -129 -162 -129zM448 893q-4 -14 3 -23t21 -9q13 0 23.5 9t13.5 23t-4 23t-21 9q-29 0 -36 -32zM342 725h198l101 -725h-231l-2 121h-197l-58 -121h-222z
M285 278h120l-4 243z" />
    <glyph glyph-name="aringacute" unicode="&#x1fb;" horiz-adv-x="611" 
d="M661 1081l-161 -184h-164l133 184h192zM363 598q-60 0 -93 36.5t-21 95.5q29 131 169 131q56 0 88 -36t20 -95q-14 -63 -55 -97.5t-108 -34.5zM360 730q-3 -14 3.5 -23t20.5 -9q13 0 23.5 9t13.5 23t-4 23t-20 9q-30 0 -37 -32zM336 562q71 0 118 -14t71.5 -36.5
t32 -61.5t4 -79t-15.5 -99l-24 -118l-26 -154h-165l-5 50q-53 -64 -165 -64q-207 0 -170 178q7 34 20 59.5t27.5 43.5t41 30t49.5 18.5t64.5 9.5t74.5 3.5t90 0.5q15 54 8.5 78.5t-47.5 24.5q-33 0 -53.5 -17.5t-26.5 -43.5h-178q14 66 31 94q60 97 244 97zM237 104
q55 0 83 42l18 85q-75 -1 -106 -13.5t-40 -55.5q-6 -27 6 -42.5t39 -15.5z" />
    <glyph glyph-name="AEacute" unicode="&#x1fc;" horiz-adv-x="985" 
d="M793 938l-156 -166h-176l128 166h204zM987 551h-295l-22 -106h248l-33 -156h-248l-24 -115h305l-37 -174h-493l25 121h-178l-79 -121h-225l507 725h586zM337 278h109l52 247z" />
    <glyph glyph-name="aeacute" unicode="&#x1fd;" horiz-adv-x="949" 
d="M773 796l-161 -184h-164l133 184h192zM894 238h-355q-11 -71 0 -96t51 -25q68 0 89 68h204q-10 -46 -29 -80t-54 -63t-95 -44.5t-143 -15.5q-155 0 -206 87q-61 -83 -195 -83q-207 0 -170 178q7 34 19.5 59.5t27.5 43.5t41 29.5t49 18.5t63.5 10t74 3.5t89.5 0.5
q9 32 16 51q2 28 -9.5 40t-42.5 12q-33 0 -53.5 -17.5t-26.5 -43.5h-178q15 70 37 101q62 90 238 90q94 0 139 -40q73 46 209 46q140 0 193 -78.5t17 -251.5zM657 440q-34 0 -56 -22.5t-39 -80.5h147q7 60 -5.5 81.5t-46.5 21.5zM237 104q68 0 94 63q0 33 4 64
q-72 -1 -103 -14t-40 -55q-6 -27 6 -42.5t39 -15.5z" />
    <glyph glyph-name="Oslashacute" unicode="&#x1fe;" horiz-adv-x="706" 
d="M571 959l-156 -166h-176l128 166h204zM739 741l-83 -94q57 -97 17 -285q-46 -214 -133.5 -298.5t-260.5 -84.5q-108 0 -169 44l-32 -37h-115l91 104q-47 94 -10 272q45 214 133 299t262 85q97 0 157 -37l28 32h115zM259 362q-6 -26 -9 -48l206 235q-16 16 -56 16
q-54 0 -85.5 -42.5t-55.5 -160.5zM457 362q8 34 13 72l-217 -248q16 -26 64 -26q53 0 84 42t56 160z" />
    <glyph glyph-name="oslashacute" unicode="&#x1ff;" horiz-adv-x="634" 
d="M621 562l-64 -67q60 -76 30 -220q-16 -75 -38 -125t-60.5 -90t-99 -59t-146.5 -19q-91 0 -146 33l-30 -32h-94l74 77q-54 75 -25 215q16 74 38 124.5t60 90.5t98.5 59t146.5 19q85 0 140 -29l22 23h94zM382 275q4 15 8 46l-165 -173q15 -16 49 -16q42 0 66.5 31t41.5 112
zM226 275l-7 -35l159 166q-15 12 -45 12q-41 0 -65.5 -31.5t-41.5 -111.5zM611 801l-161 -184h-164l133 184h192z" />
    <glyph glyph-name="Scommaaccent" unicode="&#x218;" horiz-adv-x="671" 
d="M11 241h200q-21 -98 73 -98q95 0 109 61q7 30 -9.5 48.5t-48 25.5t-71 15t-77.5 19t-67 36.5t-40.5 67.5t2.5 113q22 108 99 163t236 55q294 0 240 -249h-198q19 87 -68 87q-82 0 -99 -63q-7 -28 10 -45.5t49 -26.5t71.5 -16.5t78.5 -21t68.5 -35t42.5 -63.5t1 -101
q-25 -121 -103.5 -177.5t-252.5 -56.5q-149 0 -212 62.5t-34 199.5zM211 -332h-137q33 55 69 137q16 35 27 66.5t14 45.5l4 14h175q-20 -66 -63 -142q-24 -42 -46 -72t-32 -39z" />
    <glyph glyph-name="scommaaccent" unicode="&#x219;" horiz-adv-x="567" 
d="M-2 187h178q-17 -79 55 -79q68 0 78 42q4 22 -10.5 36t-41 19.5t-58.5 12.5t-63.5 16t-55.5 29t-34 51.5t0 83.5q18 84 82 126.5t201 42.5q119 0 173.5 -48t35.5 -139h-177q13 61 -55 61q-60 0 -67 -42q-4 -21 11 -33.5t41.5 -18.5t59 -10.5t64 -14.5t55.5 -26.5
t34.5 -50.5t0.5 -82q-19 -93 -84 -137t-214 -44q-124 0 -177 51t-32 154zM164 -325h-137q33 55 69 137q16 35 27 66.5t15 45.5l3 14h175q-20 -66 -63 -142q-24 -42 -46.5 -72t-32.5 -40z" />
    <glyph glyph-name="uni021A" unicode="&#x21a;" horiz-adv-x="569" 
d="M639 725l-40 -188h-168l-112 -537h-212l113 537h-169l40 188h548zM61 -182q16 35 27 66.5t14 45.5l3 14h175q-20 -66 -62 -142q-24 -42 -47 -72t-33 -40l-11 -9h-136q32 56 70 137z" />
    <glyph glyph-name="uni021B" unicode="&#x21b;" horiz-adv-x="418" 
d="M297 410l-32 -156q-11 -64 -1.5 -84t42.5 -20h46l-35 -161h-65q-65 0 -107.5 13t-64 33t-28 56t-3 70.5t14.5 87.5l34 161h-72l29 140h72l29 140l205 31l-35 -171h105l-29 -140h-105zM72 -173q16 35 27 66.5t15 45.5l3 14h175q-20 -66 -63 -142q-24 -42 -46 -72t-33 -39
l-10 -10h-137q33 55 69 137z" />
    <glyph glyph-name="uni0232" unicode="&#x232;" horiz-adv-x="656" 
d="M605 919l-30 -139h-338l30 139h338zM737 725l-332 -469l-53 -256h-211l53 257l-139 468h227l53 -297l174 297h228z" />
    <glyph glyph-name="uni0233" unicode="&#x233;" horiz-adv-x="590" 
d="M542 758l-28 -128h-338l27 128h339zM427 550h206l-409 -782h-183l115 232h-43l-72 550h194l15 -359z" />
    <glyph glyph-name="uni0237" unicode="&#x237;" horiz-adv-x="332" 
d="M-167 -234l35 169q42 0 67 7t40 28.5t21 42.5t16 68l98 469h199l-97 -469q-10 -49 -18.5 -80t-22.5 -68.5t-31.5 -59.5t-45 -45t-63.5 -35t-85.5 -19.5t-112.5 -7.5z" />
    <glyph glyph-name="uni0259" unicode="&#x259;" horiz-adv-x="629" 
d="M362 568q143 0 196 -73t23 -219q-17 -79 -37.5 -128.5t-58 -89.5t-97.5 -58t-148 -18q-140 0 -193 78.5t-17 251.5h354q11 71 0 96t-51 25q-69 0 -88 -68h-204q10 46 29 80t54 63t95 44.5t143 15.5zM267 110q34 0 55.5 22t38.5 81h-146q-7 -60 5 -81.5t47 -21.5z" />
    <glyph glyph-name="uni0272" unicode="&#x272;" horiz-adv-x="660" 
d="M466 565q97 0 130.5 -53t6.5 -182l-70 -330h-201l67 310q11 36 5.5 62t-42.5 26q-53 0 -97 -61l-53 -256q-10 -49 -18.5 -80t-22.5 -68.5t-31.5 -59.5t-45 -45t-63.5 -35t-85.5 -19.5t-112.5 -7.5l35 169q28 0 48 3t34.5 12.5t23 17.5t16 29.5t11 35.5t10.5 48l57 271h1
l9 45l26 153h165l4 -72q14 18 34.5 35t64.5 34.5t94 17.5z" />
    <glyph glyph-name="circumflex" unicode="&#x2c6;" horiz-adv-x="600" 
d="M561 610h-157l-45 70l-74 -70h-162l169 182h171z" />
    <glyph glyph-name="caron" unicode="&#x2c7;" horiz-adv-x="600" 
d="M432 792h167l-175 -182h-171l-92 182h152l46 -66z" />
    <glyph glyph-name="breve" unicode="&#x2d8;" horiz-adv-x="600" 
d="M381 783h149q-36 -177 -245 -177q-97 0 -141 53t-29 124h151q-4 -20 8 -35t38 -15t45.5 15t23.5 35z" />
    <glyph glyph-name="dotaccent" unicode="&#x2d9;" horiz-adv-x="600" 
d="M112 611l35 161h200l-35 -161h-200z" />
    <glyph glyph-name="ring" unicode="&#x2da;" horiz-adv-x="600" 
d="M243 598q-60 0 -93 36.5t-21 95.5q29 131 169 131q56 0 88 -36t20 -95q-14 -63 -55 -97.5t-108 -34.5zM264 698q13 0 23.5 9t13.5 23t-4 23t-20 9q-30 0 -37 -32q-3 -14 3.5 -23t20.5 -9z" />
    <glyph glyph-name="ogonek" unicode="&#x2db;" horiz-adv-x="600" 
d="M67 10l137 -4l-3 -2q-3 -1 -6.5 -3.5t-8.5 -6t-10 -7.5t-11 -9.5t-11 -11.5t-9.5 -13t-8 -15t-5.5 -17q-3 -12 2.5 -21.5t20.5 -9.5q10 0 22.5 3t19.5 7l7 3l-20 -95q0 -2 -13 -9t-46.5 -15t-74.5 -8q-66 0 -88 28t-15 67q8 39 38.5 74t56.5 50z" />
    <glyph glyph-name="tilde" unicode="&#x2dc;" horiz-adv-x="600" 
d="M490 796h88q-20 -92 -56.5 -136t-104.5 -44q-39 0 -76 21t-61 21q-27 0 -44.5 -15.5t-19.5 -28.5h-87q18 87 56 132.5t106 45.5q38 0 74.5 -19.5t60.5 -19.5q27 0 43.5 15t20.5 28z" />
    <glyph glyph-name="hungarumlaut" unicode="&#x2dd;" horiz-adv-x="600" 
d="M107 612l132 184h205l-160 -184h-177zM336 612l159 184h204l-187 -184h-176z" />
    <glyph glyph-name="gravecomb" unicode="&#x300;" 
d="M13 612h-164l-84 184h192z" />
    <glyph glyph-name="acutecomb" unicode="&#x301;" 
d="M-282 612l133 184h192l-161 -184h-164z" />
    <glyph glyph-name="uni0302" unicode="&#x302;" 
d="M-10 610h-157l-45 70l-74 -70h-162l169 182h171z" />
    <glyph glyph-name="tildecomb" unicode="&#x303;" 
d="M-62 796h88q-20 -92 -56.5 -136t-104.5 -44q-39 0 -76 21t-61 21q-27 0 -44.5 -15.5t-19.5 -28.5h-87q18 87 56 132.5t106 45.5q38 0 74.5 -19.5t60.5 -19.5q27 0 43.5 15t20.5 28z" />
    <glyph glyph-name="uni0304" unicode="&#x304;" 
d="M-310 758h339l-28 -128h-338z" />
    <glyph glyph-name="uni0306" unicode="&#x306;" 
d="M-77 783h149q-36 -177 -245 -177q-97 0 -141 53t-29 124h151q-4 -20 8 -35t38 -15t45.5 15t23.5 35z" />
    <glyph glyph-name="uni0307" unicode="&#x307;" 
d="M-199 611l35 161h200l-35 -161h-200z" />
    <glyph glyph-name="uni0308" unicode="&#x308;" 
d="M-444 611l35 161h187l-35 -161h-187zM-206 611l35 161h188l-34 -161h-189z" />
    <glyph glyph-name="uni030A" unicode="&#x30a;" 
d="M-128 598q-60 0 -93 36.5t-21 95.5q29 131 169 131q56 0 88 -36t20 -95q-14 -63 -55 -97.5t-108 -34.5zM-107 698q13 0 23.5 9t13.5 23t-4 23t-20 9q-30 0 -37 -32q-3 -14 3.5 -23t20.5 -9z" />
    <glyph glyph-name="uni030B" unicode="&#x30b;" 
d="M-543 612l132 184h205l-160 -184h-177zM-314 612l159 184h204l-187 -184h-176z" />
    <glyph glyph-name="uni030C" unicode="&#x30c;" 
d="M-138 792h167l-175 -182h-171l-92 182h152l46 -66z" />
    <glyph glyph-name="uni0312" unicode="&#x312;" 
d="M-62 878h139q-36 -60 -71 -146q-16 -38 -27.5 -71.5t-15.5 -48.5l-4 -14h-178q21 67 65 150q24 44 47 76.5t34 43.5z" />
    <glyph glyph-name="dotbelowcomb" unicode="&#x323;" 
d="M-366 -199l33 161h200l-33 -161h-200z" />
    <glyph glyph-name="uni0326" unicode="&#x326;" 
d="M-277 -319h-137q33 55 69 137q16 35 27 66.5t14 45.5l4 14h175q-20 -66 -63 -142q-24 -42 -46 -72t-32 -40z" />
    <glyph glyph-name="uni0327" unicode="&#x327;" 
d="M-193 2l-48 -62q39 -3 63.5 -28t14.5 -74q-11 -55 -58.5 -87t-154.5 -32q-38 0 -67 2.5t-39 4.5l-10 3l20 95q0 -8 62 -8q56 0 64 40q3 14 -3 23t-20 13t-27.5 5.5t-32.5 1.5h-1l77 103h160z" />
    <glyph glyph-name="uni0328" unicode="&#x328;" 
d="M-259 10l138 -4l-3 -2q-3 -1 -6.5 -3.5t-8.5 -6t-10 -7.5t-11 -9.5t-11 -11.5t-10 -13t-8.5 -15t-5.5 -17q-3 -12 2.5 -21.5t20.5 -9.5q10 0 22.5 3t19.5 7l7 3l-20 -95q0 -2 -13 -9t-46.5 -15t-74.5 -8q-66 0 -88 28t-15 67q8 39 38.5 74t56.5 50z" />
    <glyph glyph-name="uni0335" unicode="&#x335;" 
d="M-413 305l22 103h365l-21 -103h-366z" />
    <glyph glyph-name="uni0336" unicode="&#x336;" 
d="M-828 308l19 99h729l-20 -99h-728z" />
    <glyph glyph-name="uni0337" unicode="&#x337;" 
d="M-471 166l-31 113l455 208l30 -113z" />
    <glyph glyph-name="uni0338" unicode="&#x338;" 
d="M-539 89l554 579h94l-554 -579h-94z" />
    <glyph glyph-name="pi" unicode="&#x3c0;" horiz-adv-x="634" 
d="M521 452l-43 -205q-2 -8 -5.5 -23t-5 -23t-3.5 -20.5t-2 -19.5t1 -16t4.5 -14t9 -10t14.5 -7t21 -2h31l-24 -112h-36q-90 0 -128.5 26t-38.5 81t19 140l42 205h-86l-93 -452h-144l94 452h-82l27 132h537l-27 -132h-82z" />
    <glyph glyph-name="Wgrave" unicode="&#x1e80;" horiz-adv-x="1008" 
d="M665 773h-176l-88 167h204zM863 725h226l-376 -725h-183l-17 424l-197 -424h-180l-70 725h222l-2 -447l192 447h189l8 -455z" />
    <glyph glyph-name="wgrave" unicode="&#x1e81;" horiz-adv-x="846" 
d="M577 612h-164l-84 184h192zM706 550h185l-276 -550h-170l-26 310l-152 -310h-172l-53 550h186l6 -312l143 312h180l20 -312z" />
    <glyph glyph-name="Wacute" unicode="&#x1e82;" horiz-adv-x="1008" 
d="M826 938l-156 -166h-176l128 166h204zM863 725h226l-376 -725h-183l-17 424l-197 -424h-180l-70 725h222l-2 -447l192 447h189l8 -455z" />
    <glyph glyph-name="wacute" unicode="&#x1e83;" horiz-adv-x="846" 
d="M723 796l-161 -184h-164l133 184h192zM706 550h185l-276 -550h-170l-26 310l-152 -310h-172l-53 550h186l6 -312l143 312h180l20 -312z" />
    <glyph glyph-name="Wdieresis" unicode="&#x1e84;" horiz-adv-x="1008" 
d="M592 933l-34 -161h-200l34 161h200zM842 933l-33 -161h-200l33 161h200zM863 725h226l-376 -725h-183l-17 424l-197 -424h-180l-70 725h222l-2 -447l192 447h189l8 -455z" />
    <glyph glyph-name="wdieresis" unicode="&#x1e85;" horiz-adv-x="846" 
d="M493 772l-35 -161h-187l35 161h187zM732 772l-34 -161h-189l35 161h188zM706 550h185l-276 -550h-170l-26 310l-152 -310h-172l-53 550h186l6 -312l143 312h180l20 -312z" />
    <glyph glyph-name="uni1EA0" unicode="&#x1ea0;" horiz-adv-x="703" 
d="M641 0h-231l-2 121h-197l-58 -121h-222l411 725h198zM285 278h120l-4 243zM141 -199l33 161h200l-33 -161h-200z" />
    <glyph glyph-name="uni1EA1" unicode="&#x1ea1;" horiz-adv-x="611" 
d="M336 562q71 0 118 -14t71.5 -36.5t32 -61.5t4 -79t-15.5 -99l-24 -118l-26 -154h-165l-5 50q-53 -64 -165 -64q-207 0 -170 178q7 34 20 59.5t27.5 43.5t41 30t49.5 18.5t64.5 9.5t74.5 3.5t90 0.5q15 54 8.5 78.5t-47.5 24.5q-33 0 -53.5 -17.5t-26.5 -43.5h-178
q14 66 31 94q60 97 244 97zM237 104q55 0 83 42l18 85q-75 -1 -106 -13.5t-40 -55.5q-6 -27 6 -42.5t39 -15.5zM91 -210l33 161h200l-33 -161h-200z" />
    <glyph glyph-name="uni1EB8" unicode="&#x1eb8;" horiz-adv-x="610" 
d="M613 551h-296l-22 -106h248l-34 -156h-247l-24 -115h304l-37 -174h-514l151 725h507zM110 -199l33 161h200l-33 -161h-200z" />
    <glyph glyph-name="uni1EB9" unicode="&#x1eb9;" horiz-adv-x="629" 
d="M574 238h-354q-11 -71 -1 -96t50 -25q35 0 58 18.5t32 49.5h203q-10 -46 -29 -80t-54 -63t-95 -44.5t-143 -15.5q-280 0 -218 292q13 62 28 105t40.5 81t61 60.5t88 35t123.5 12.5q139 0 192.5 -78.5t17.5 -251.5zM336 440q-34 0 -55.5 -22t-38.5 -81h147q7 60 -5 81.5
t-48 21.5zM105 -208l33 161h200l-33 -161h-200z" />
    <glyph glyph-name="uni1EBC" unicode="&#x1ebc;" horiz-adv-x="610" 
d="M345 813q-26 0 -43 -15t-20 -28h-87q38 182 162 182q39 0 75.5 -19.5t60.5 -19.5q27 0 43.5 15t20.5 28h87q-19 -92 -56 -138t-105 -46q-39 0 -76 20.5t-62 20.5zM613 551h-296l-22 -106h248l-34 -156h-247l-24 -115h304l-37 -174h-514l151 725h507z" />
    <glyph glyph-name="uni1EBD" unicode="&#x1ebd;" horiz-adv-x="629" 
d="M320 663q-27 0 -44.5 -15.5t-19.5 -28.5h-87q18 87 56 132.5t106 45.5q38 0 74.5 -19.5t60.5 -19.5q27 0 43.5 15t20.5 28h88q-20 -92 -56.5 -136t-104.5 -44q-39 0 -76 21t-61 21zM364 568q139 0 192.5 -78.5t17.5 -251.5h-354q-11 -71 -1 -96t50 -25q35 0 58 18.5
t32 49.5h203q-10 -46 -29 -80t-54 -63t-95 -44.5t-143 -15.5q-280 0 -218 292q13 62 28 105t40.5 81t61 60.5t88 35t123.5 12.5zM242 337h147q7 60 -5 81.5t-48 21.5q-34 0 -55.5 -22t-38.5 -81z" />
    <glyph glyph-name="uni1ECA" unicode="&#x1eca;" horiz-adv-x="335" 
d="M-9 0l151 725h212l-151 -725h-212zM-45 -205l33 161h200l-33 -161h-200z" />
    <glyph glyph-name="uni1ECB" unicode="&#x1ecb;" horiz-adv-x="300" 
d="M108 611l35 161h200l-35 -161h-200zM-22 0l115 550h200l-115 -550h-200zM-62 -199l33 161h200l-33 -161h-200z" />
    <glyph glyph-name="uni1ECC" unicode="&#x1ecc;" horiz-adv-x="706" 
d="M279 -21q-317 0 -235 383q45 214 133 299t262 85q315 0 234 -384q-46 -214 -133.5 -298.5t-260.5 -84.5zM317 160q53 0 84 42t56 160q25 123 13 163t-70 40q-54 0 -85.5 -42.5t-55.5 -160.5q-24 -122 -12 -162t70 -40zM135 -226l33 161h200l-33 -161h-200z" />
    <glyph glyph-name="uni1ECD" unicode="&#x1ecd;" horiz-adv-x="634" 
d="M243 -18q-139 0 -195 76t-26 217q16 74 38 124.5t60 90.5t98.5 59t146.5 19q139 0 195.5 -76.5t26.5 -216.5q-16 -75 -38 -125t-60.5 -90t-99 -59t-146.5 -19zM274 132q42 0 66.5 31t41.5 112q18 83 7.5 113t-56.5 30q-41 0 -65.5 -31.5t-41.5 -111.5q-18 -84 -8 -113.5
t56 -29.5zM104 -214l33 161h200l-33 -161h-200z" />
    <glyph glyph-name="uni1EE4" unicode="&#x1ee4;" horiz-adv-x="718" 
d="M284 -21q-157 0 -208 83.5t-11 274.5l81 388h211l-78 -376q-23 -118 -14 -150.5t58 -32.5q45 0 70.5 35.5t48.5 147.5l78 376h214l-81 -388q-21 -103 -44.5 -165t-64.5 -108.5t-103 -65.5t-157 -19zM146 -211l33 161h200l-33 -161h-200z" />
    <glyph glyph-name="uni1EE5" unicode="&#x1ee5;" horiz-adv-x="650" 
d="M431 550h200l-83 -397l-26 -153h-165l-4 70q-14 -18 -35 -34.5t-66 -34t-97 -17.5q-91 0 -124 53t-6 178l72 335h199l-66 -310q-12 -36 -6.5 -62.5t42.5 -26.5q52 0 94 58zM107 -211l33 161h200l-33 -161h-200z" />
    <glyph glyph-name="Ygrave" unicode="&#x1ef2;" horiz-adv-x="656" 
d="M487 773h-176l-88 167h204zM737 725l-332 -469l-53 -256h-211l53 257l-139 468h227l53 -297l174 297h228z" />
    <glyph glyph-name="ygrave" unicode="&#x1ef3;" horiz-adv-x="590" 
d="M434 612h-164l-84 184h192zM427 550h206l-409 -782h-183l115 232h-43l-72 550h194l15 -359z" />
    <glyph glyph-name="uni1EF8" unicode="&#x1ef8;" horiz-adv-x="656" 
d="M349 813q-26 0 -43 -15t-20 -28h-87q38 182 162 182q39 0 75.5 -19.5t60.5 -19.5q27 0 43.5 15t20.5 28h87q-19 -92 -56 -138t-105 -46q-39 0 -76 20.5t-62 20.5zM737 725l-332 -469l-53 -256h-211l53 257l-139 468h227l53 -297l174 297h228z" />
    <glyph glyph-name="uni1EF9" unicode="&#x1ef9;" horiz-adv-x="590" 
d="M288 658q-27 0 -44.5 -15.5t-19.5 -28.5h-87q18 87 56 132.5t106 45.5q38 0 74.5 -19.5t60.5 -19.5q27 0 43.5 15t20.5 28h88q-20 -92 -56.5 -136t-104.5 -44q-39 0 -76 21t-61 21zM427 550h206l-409 -782h-183l115 232h-43l-72 550h194l15 -359z" />
    <glyph glyph-name="uni2009" unicode="&#x2009;" horiz-adv-x="54" 
 />
    <glyph glyph-name="endash" unicode="&#x2013;" horiz-adv-x="632" 
d="M56 248l30 145h483l-31 -145h-482z" />
    <glyph glyph-name="emdash" unicode="&#x2014;" horiz-adv-x="966" 
d="M62 248l30 145h806l-31 -145h-805z" />
    <glyph glyph-name="uni2016" unicode="&#x2016;" horiz-adv-x="671" 
d="M55 -180l212 1000h147l-212 -1000h-147zM282 -180l212 1000h148l-213 -1000h-147z" />
    <glyph glyph-name="quoteleft" unicode="&#x2018;" horiz-adv-x="306" 
d="M239 451h-184q14 56 64 156q26 50 52 88t39 51l14 14h144q-43 -72 -82 -169q-18 -46 -30 -81t-14 -47z" />
    <glyph glyph-name="quoteright" unicode="&#x2019;" horiz-adv-x="297" 
d="M184 451h-144q45 72 83 169q18 46 29.5 81t13.5 47l3 12h184q-14 -55 -64 -155q-25 -50 -51.5 -88.5t-39.5 -52.5z" />
    <glyph glyph-name="quotesinglbase" unicode="&#x201a;" horiz-adv-x="329" 
d="M74 -153h-144q44 72 83 169q18 46 29.5 80.5t13.5 46.5l3 12h184q-15 -55 -65 -155q-25 -50 -51 -88t-39 -52z" />
    <glyph glyph-name="quotedblleft" unicode="&#x201c;" horiz-adv-x="551" 
d="M250 451h-184q15 55 66 156q25 50 50.5 88t39.5 51l13 14h145q-43 -72 -82 -169q-18 -46 -30 -81t-15 -47zM484 451h-183q14 55 65 156q25 50 50.5 88t39.5 51l13 14h145q-45 -72 -83 -169q-18 -46 -29.5 -81t-14.5 -47z" />
    <glyph glyph-name="quotedblright" unicode="&#x201d;" horiz-adv-x="549" 
d="M193 451h-144q44 72 82 169q18 46 30 81t15 47l2 12h184q-15 -55 -65 -155q-25 -50 -51 -88.5t-40 -52.5zM427 451h-144q42 72 81 169q19 46 31 81t15 47l2 12h184q-16 -55 -65 -155q-25 -50 -51 -88.5t-40 -52.5z" />
    <glyph glyph-name="quotedblbase" unicode="&#x201e;" horiz-adv-x="549" 
d="M67 -153h-144q44 72 83 169q18 46 29.5 80.5t14.5 46.5l2 12h184q-14 -55 -65 -155q-25 -50 -51 -88t-40 -52zM301 -153h-144q43 72 82 169q18 46 30 80.5t15 46.5l2 12h184q-15 -55 -65 -155q-25 -50 -51 -88t-40 -52z" />
    <glyph glyph-name="dagger" unicode="&#x2020;" horiz-adv-x="512" 
d="M512 621l-29 -132h-134l-101 -489h-146l102 489h-134l28 132h134l36 175h145l-36 -175h135z" />
    <glyph glyph-name="daggerdbl" unicode="&#x2021;" horiz-adv-x="579" 
d="M518 489h-134l-39 -182h135l-28 -132h-134l-37 -175h-145l36 175h-134l28 132h134l37 182h-133l27 132h134l36 175h147l-37 -175h135z" />
    <glyph glyph-name="bullet" unicode="&#x2022;" horiz-adv-x="523" 
d="M109 186l48 231h242l-47 -231h-243z" />
    <glyph glyph-name="ellipsis" unicode="&#x2026;" horiz-adv-x="887" 
d="M-1 0l34 161h200l-34 -161h-200zM274 0l33 161h200l-33 -161h-200zM548 0l34 161h200l-34 -161h-200z" />
    <glyph glyph-name="perthousand" unicode="&#x2030;" horiz-adv-x="1327" 
d="M185 345q-189 0 -149 187q20 99 69 145t159 46q188 0 148 -191q-20 -97 -68.5 -142t-158.5 -45zM207 451q31 0 47 18.5t25 62.5q9 43 1 64t-39 21q-30 0 -46.5 -20.5t-25.5 -64.5q-10 -42 -1 -61.5t39 -19.5zM53 0l598 702h179l-598 -702h-179zM615 -22q-188 0 -149 187
q21 99 70 145t158 46q188 0 148 -191q-20 -97 -68.5 -142t-158.5 -45zM637 84q31 0 47.5 19t24.5 62q9 43 1 64t-38 21q-31 0 -47.5 -20.5t-25.5 -64.5q-10 -42 -1 -61.5t39 -19.5zM1025 -22q-188 0 -149 187q21 99 70 145t159 46q187 0 147 -191q-20 -97 -68.5 -142
t-158.5 -45zM1048 84q31 0 47 19t24 62q10 43 2 64t-39 21q-57 0 -73 -85q-8 -43 0.5 -62t38.5 -19z" />
    <glyph glyph-name="guilsinglleft" unicode="&#x2039;" horiz-adv-x="470" 
d="M428 472l-181 -216l95 -185h-211l-77 180l7 34l154 187h213z" />
    <glyph glyph-name="guilsinglright" unicode="&#x203a;" horiz-adv-x="471" 
d="M312 472l75 -187l-7 -34l-152 -180h-213l179 208l-93 193h211z" />
    <glyph glyph-name="fraction" unicode="&#x2044;" horiz-adv-x="288" 
d="M-231 -40l586 788h169l-587 -788h-168z" />
    <glyph glyph-name="uni2070" unicode="&#x2070;" horiz-adv-x="552" 
d="M199 254q-127 0 -166.5 69t-8.5 215q34 160 97.5 229.5t202.5 69.5q128 0 167 -72.5t6 -226.5q-16 -75 -36.5 -124.5t-54 -87.5t-84.5 -55t-123 -17zM229 391q42 0 64.5 33.5t39.5 113.5q13 61 14 94.5t-11.5 49.5t-41.5 16q-41 0 -64 -35.5t-41 -124.5
q-18 -78 -9.5 -112.5t49.5 -34.5z" />
    <glyph glyph-name="uni2074" unicode="&#x2074;" horiz-adv-x="521" 
d="M486 820l-75 -352h58l-24 -116h-59l-19 -87h-155l19 87h-263l24 116l327 352h167zM128 468h128l39 181z" />
    <glyph glyph-name="uni2075" unicode="&#x2075;" horiz-adv-x="509" 
d="M462 698l-223 6l-33 -91q42 22 102 22q86 0 118 -54t15 -136q-10 -43 -25 -74.5t-43.5 -59.5t-77 -42.5t-116.5 -14.5q-107 0 -152.5 51t-30.5 118h157q-2 -9 0.5 -20.5t15.5 -22.5t35 -11q66 0 82 76q17 81 -49 81q-23 0 -42 -9t-26 -18l-7 -9l-142 1l75 217l40 112h353
z" />
    <glyph glyph-name="uni2076" unicode="&#x2076;" horiz-adv-x="535" 
d="M492 666h-149q5 21 -6.5 38.5t-42.5 17.5t-52.5 -25t-42.5 -96q49 26 108 26q99 0 134.5 -52.5t18.5 -131.5q-8 -40 -23 -70.5t-44 -59t-79 -44t-120 -15.5q-118 -1 -160 64.5t-15 197.5q39 183 100.5 252t199.5 69q103 0 145 -51t28 -120zM301 444q16 75 -47 75
q-45 0 -82 -33q-10 -63 1 -90t47 -27q65 0 81 75z" />
    <glyph glyph-name="uni2077" unicode="&#x2077;" horiz-adv-x="438" 
d="M186 265h-174q14 65 45.5 133.5t67 120.5t68.5 94t55 65l22 22l-234 -5l26 125h402l-26 -125q-8 -9 -22.5 -25t-53 -65.5t-70 -98.5t-63 -116t-43.5 -125z" />
    <glyph glyph-name="uni2078" unicode="&#x2078;" horiz-adv-x="532" 
d="M-22 426q14 63 54 100.5t67 42.5q-20 4 -39.5 33t-9.5 78q8 38 21.5 64t40 49t71.5 34t110 11q104 0 147 -43t28 -115q-11 -50 -44.5 -79t-53.5 -32q25 -3 50 -41t11 -102q-9 -43 -23.5 -71.5t-43 -52.5t-77 -35.5t-118.5 -11.5q-115 0 -161.5 45t-29.5 126zM142 442
q-14 -70 52 -70q65 0 79 70q16 72 -49 72q-66 0 -82 -72zM196 666q-12 -58 48 -58q59 0 71 58q14 65 -45 65q-60 0 -74 -65z" />
    <glyph glyph-name="uni2079" unicode="&#x2079;" horiz-adv-x="535" 
d="M312 837q117 1 160.5 -65t15.5 -199q-20 -95 -41 -151.5t-55.5 -96.5t-82.5 -55.5t-123 -15.5q-58 0 -99 15.5t-58.5 40t-25 54.5t1.5 60h148q-5 -22 7.5 -39t49.5 -17q33 0 54.5 23t40.5 87q-49 -26 -107 -26q-99 0 -135 53t-17 140q8 41 23.5 72t44.5 59.5t79 44.5
t119 16zM205 642q-17 -80 47 -80q46 0 81 33q12 67 1.5 96t-47.5 29q-65 0 -82 -78z" />
    <glyph glyph-name="Euro" unicode="&#x20ac;" horiz-adv-x="674" 
d="M667 503h-173q3 23 -13.5 42.5t-53.5 19.5q-61 0 -102 -89h183l-22 -101h-194l-6 -25q-4 -21 -5 -28h195l-21 -101h-184q3 -84 69 -84q31 0 56 15t31 34h170q-25 -100 -92.5 -157t-199.5 -57q-239 0 -234 249h-45l21 101h35q1 11 5 28q4 15 5 25h-35l22 101h40
q27 84 67 137.5t109 85t168 31.5q108 0 165 -65.5t39 -161.5z" />
    <glyph glyph-name="uni20BD" unicode="&#x20bd;" horiz-adv-x="719" 
d="M218 726h227q166 0 234 -47.5t41 -175.5q-15 -73 -36.5 -115t-65.5 -69t-106.5 -36t-167.5 -9h-10l-11 -52h136l-27 -127h-136l-20 -96h-209l20 96h-65l27 127h64l11 52h-65l33 153h64zM528 505q10 52 -15.5 65.5t-103.5 13.5h-10l-33 -158h10q78 0 110 13.5t42 65.5z
" />
    <glyph glyph-name="uni2116" unicode="&#x2116;" horiz-adv-x="1279" 
d="M571 725h181l-151 -725h-210l-134 414l-86 -414h-180l151 725h211l135 -421zM1057 670q115 0 160.5 -61.5t21.5 -177.5q-13 -62 -30 -102.5t-48 -73t-80.5 -47.5t-121.5 -15q-115 0 -160 61t-20 177q14 63 30.5 103t47 73t79.5 48t121 15zM1066 431q14 63 6.5 86
t-41.5 23q-29 0 -48.5 -24.5t-31.5 -84.5q-14 -63 -6.5 -86t41.5 -23q29 0 48 24t32 85zM701 0l31 145h442l-31 -145h-442z" />
    <glyph glyph-name="uni2117" unicode="&#x2117;" horiz-adv-x="852" 
d="M510 741q81 0 142 -20t96 -55.5t54 -84.5t18 -108t-14 -125q-18 -85 -53 -153.5t-90.5 -122t-136.5 -83t-183 -29.5q-100 0 -168.5 30t-100 82.5t-40 123t11.5 152.5q38 177 153.5 285t310.5 108zM704 348q16 60 11.5 115.5t-24.5 98t-71 67.5t-129 25q-77 0 -138 -24.5
t-101 -68.5t-64.5 -96.5t-38.5 -116.5q-11 -50 -12 -93t10.5 -82t37 -66.5t70.5 -43.5t107 -16q278 0 342 301zM300 569h161q134 0 173 -32t17 -135q-21 -102 -73.5 -133t-191.5 -31h-11l-23 -107h-145zM508 403q8 40 -7 49.5t-67 9.5h-12l-24 -115h11q52 0 71.5 9t27.5 47z
" />
    <glyph glyph-name="uni2120" unicode="&#x2120;" horiz-adv-x="811" 
d="M193 627q-3 -14 9 -22.5t32 -11t42.5 -9.5t41 -16.5t27.5 -32.5t1 -57q-12 -58 -50 -85.5t-120 -27.5q-76 0 -104 29.5t-14 97.5h97q-11 -48 34 -48q46 0 52 29q3 16 -8.5 25t-31 11.5t-42 8.5t-40.5 15.5t-26.5 34.5t-0.5 63q10 52 47 78.5t114 26.5q73 0 100.5 -29
t13.5 -92h-95q9 41 -32 41q-40 0 -47 -29zM821 722l-74 -346h-90l45 197l-108 -198h-90l-19 191l-37 -190h-85l73 346h124l22 -221l114 221h125z" />
    <glyph glyph-name="trademark" unicode="&#x2122;" horiz-adv-x="703" 
d="M285 634h-81l-55 -258h-102l55 258h-82l19 91h265zM724 722l-74 -346h-90l45 199l-108 -200h-90l-19 193l-37 -192h-85l73 346h125l21 -217l112 217h127z" />
    <glyph glyph-name="oneeighth" unicode="&#x215b;" horiz-adv-x="1143" 
d="M1101 415q-11 -50 -44.5 -79t-53.5 -32q25 -3 50 -41t11 -102q-9 -43 -23.5 -71.5t-43 -52.5t-77 -35.5t-118.5 -11.5q-115 0 -161.5 45t-29.5 126q14 63 54 100.5t67 42.5q-20 4 -39.5 33t-9.5 78q8 38 21.5 64t40 49t71.5 34t110 11q104 0 147 -43t28 -115zM906 177
q16 72 -49 72q-66 0 -82 -72q-14 -70 52 -70q65 0 79 70zM948 401q14 65 -45 65q-60 0 -74 -65q-12 -58 48 -58q59 0 71 58zM678 748h169l-587 -788h-168zM185 198h-156l91 426l-99 -41l25 117l160 62h98z" />
    <glyph glyph-name="threeeighths" unicode="&#x215c;" horiz-adv-x="1305" 
d="M1263 415q-11 -50 -44.5 -79t-53.5 -32q25 -3 50 -41t11 -102q-9 -43 -23.5 -71.5t-43 -52.5t-77 -35.5t-118.5 -11.5q-115 0 -161.5 45t-29.5 126q14 63 54 100.5t67 42.5q-20 4 -39.5 33t-9.5 78q8 38 21.5 64t40 49t71.5 34t110 11q104 0 147 -43t28 -115zM1068 177
q16 72 -49 72q-66 0 -82 -72q-14 -70 52 -70q65 0 79 70zM1110 401q14 65 -45 65q-60 0 -74 -65q-12 -58 48 -58q59 0 71 58zM425 373q-18 -87 -74.5 -136.5t-182.5 -49.5q-108 0 -151.5 55t-25.5 142h155q-6 -29 4 -50.5t41 -21.5q64 0 79 71q8 38 -6 59t-62 21l-66 -5
l19 92l124 84l-218 -8l27 127h409l-23 -111l-130 -101q109 -38 81 -168zM840 748h169l-587 -788h-168z" />
    <glyph glyph-name="fiveeighths" unicode="&#x215d;" horiz-adv-x="1317" 
d="M1275 415q-11 -50 -44.5 -79t-53.5 -32q25 -3 50 -41t11 -102q-9 -43 -23.5 -71.5t-43 -52.5t-77 -35.5t-118.5 -11.5q-115 0 -161.5 45t-29.5 126q14 63 54 100.5t67 42.5q-20 4 -39.5 33t-9.5 78q8 38 21.5 64t40 49t71.5 34t110 11q104 0 147 -43t28 -115zM1080 177
q16 72 -49 72q-66 0 -82 -72q-14 -70 52 -70q65 0 79 70zM1122 401q14 65 -45 65q-60 0 -74 -65q-12 -58 48 -58q59 0 71 58zM441 378q-10 -43 -25 -74.5t-43.5 -59.5t-77 -42.5t-116.5 -14.5q-107 0 -152.5 51t-30.5 118h157q-2 -9 0.5 -20.5t15.5 -22.5t35 -11q66 0 82 76
q17 81 -49 81q-23 0 -42 -9t-26 -18l-7 -9l-142 1l75 217l40 112h353l-26 -122l-223 6l-33 -91q42 22 102 22q86 0 118 -54t15 -136zM852 748h169l-587 -788h-168z" />
    <glyph glyph-name="seveneighths" unicode="&#x215e;" horiz-adv-x="1201" 
d="M669 161q14 63 54 100.5t67 42.5q-20 4 -39.5 33t-9.5 78q8 38 21.5 64t40 49t71.5 34t110 11q104 0 147 -43t28 -115q-11 -50 -44.5 -79t-53.5 -32q25 -3 50 -41t11 -102q-9 -43 -23.5 -71.5t-43 -52.5t-77 -35.5t-118.5 -11.5q-115 0 -161.5 45t-29.5 126zM833 177
q-14 -70 52 -70q65 0 79 70q16 72 -49 72q-66 0 -82 -72zM887 401q-12 -58 48 -58q59 0 71 58q14 65 -45 65q-60 0 -74 -65zM150 -40l586 788h169l-587 -788h-168zM186 198h-174q14 65 45.5 133.5t67 120.5t68.5 94t55 64l22 23l-234 -5l26 125h402l-26 -125
q-8 -9 -22.5 -25t-53 -65.5t-70 -98.5t-63 -116t-43.5 -125z" />
    <glyph glyph-name="arrowleft" unicode="&#x2190;" horiz-adv-x="736" 
d="M693 394v-202l-362 14l132 -105l-104 -120l-354 309l354 315l104 -119l-133 -106z" />
    <glyph glyph-name="arrowup" unicode="&#x2191;" horiz-adv-x="673" 
d="M629 303l-120 -103l-105 132l14 -362h-201l13 362l-105 -132l-120 103l309 354z" />
    <glyph glyph-name="arrowright" unicode="&#x2192;" horiz-adv-x="736" 
d="M338 613l354 -309l-354 -315l-103 120l134 106l-364 -14v201l363 -14l-133 106z" />
    <glyph glyph-name="arrowdown" unicode="&#x2193;" horiz-adv-x="673" 
d="M510 424l120 -103l-309 -354l-316 354l120 104l106 -133l-14 363h201l-14 -363z" />
    <glyph glyph-name="arrowboth" unicode="&#x2194;" horiz-adv-x="1075" 
d="M678 605l354 -315l-354 -309l-104 120l140 111l-390 -1l139 -110l-104 -120l-354 309l354 315l104 -119l-140 -111l392 -1l-141 112z" />
    <glyph glyph-name="arrowupdn" unicode="&#x2195;" horiz-adv-x="673" 
d="M398 101l112 141l119 -103l-315 -355l-309 354l120 104l111 -140l-1 391l-110 -139l-120 104l309 353l315 -354l-119 -104l-111 141z" />
    <glyph glyph-name="uni2196" unicode="&#x2196;" horiz-adv-x="608" 
d="M575 134l-142 -143l-248 267l20 -169l-158 -11l-32 469l474 -27l-12 -158l-169 20z" />
    <glyph glyph-name="uni2197" unicode="&#x2197;" horiz-adv-x="604" 
d="M81 519l469 32l-27 -474l-158 12l20 169l-247 -267l-143 142l266 247l-168 -19z" />
    <glyph glyph-name="uni2198" unicode="&#x2198;" horiz-adv-x="608" 
d="M81 43l12 159l168 -20l-266 247l142 142l247 -266l-19 168l157 12l32 -469z" />
    <glyph glyph-name="uni2199" unicode="&#x2199;" horiz-adv-x="604" 
d="M304 182l168 19l12 -158l-469 -31l27 473l158 -11l-20 -170l248 267l143 -142z" />
    <glyph glyph-name="minus" unicode="&#x2212;" horiz-adv-x="553" 
d="M38 269l28 132h445l-28 -132h-445z" />
    <glyph glyph-name="infinity" unicode="&#x221e;" horiz-adv-x="858" 
d="M652 495h1q209 0 166 -191q-40 -190 -248 -190h-1q-60 0 -98.5 28t-69.5 78q-53 -50 -103 -78t-110 -28h-1q-207 0 -167 190q41 191 249 191h1q60 0 98.5 -28.5t69.5 -78.5q52 50 102.5 78.5t110.5 28.5zM213 229q61 0 141 75q-46 75 -109 75q-73 0 -90 -75
q-7 -34 7 -54.5t51 -20.5zM685 304q8 34 -6 54.5t-51 20.5q-62 0 -141 -74q48 -76 110 -76q72 0 88 75z" />
    <glyph glyph-name="approxequal" unicode="&#x2248;" horiz-adv-x="648" 
d="M530 551h106q-20 -98 -69 -153t-147 -55q-47 0 -96 27.5t-86 27.5q-32 0 -52.5 -19.5t-23.5 -35.5h-107q21 98 69.5 153t146.5 55q47 0 96 -27.5t86 -27.5q32 0 52.5 19t24.5 36zM480 316h106q-20 -98 -69 -153t-147 -55q-47 0 -95.5 27.5t-85.5 27.5q-32 0 -53 -19.5
t-24 -35.5h-107q21 98 69.5 153t146.5 55q47 0 96 -27.5t86 -27.5q32 0 53 19.5t24 35.5z" />
    <glyph glyph-name="notequal" unicode="&#x2260;" horiz-adv-x="599" 
d="M536 347h-171l-50 -64h207l-28 -132h-283l-69 -88h-116l69 88h-72l28 132h147l51 64h-184l28 132h259l62 79h117l-62 -79h94z" />
    <glyph glyph-name="lessequal" unicode="&#x2264;" horiz-adv-x="623" 
d="M596 636l-32 -154l-321 -64l293 -65l-33 -153l-428 138l34 159zM14 41l28 132h453l-28 -132h-453z" />
    <glyph glyph-name="greaterequal" unicode="&#x2265;" horiz-adv-x="623" 
d="M150 636l428 -139l-33 -159l-488 -138l33 153l321 65l-293 64zM26 41l29 132h453l-28 -132h-454z" />
    <glyph glyph-name="acutecomb.case" 
d="M-241 772l128 166h204l-156 -166h-176z" />
    <glyph glyph-name="at.case" horiz-adv-x="896" 
d="M536 788q193 0 276.5 -118t45.5 -303q-29 -141 -78.5 -202.5t-161.5 -61.5h-1q-86 0 -117 70q-54 -49 -149 -49q-83 0 -115 61t-8 176q24 118 77 177.5t145 59.5q64 0 105 -45l20 44h126l-64 -308q-17 -86 27 -86q15 0 26 9.5t25 47t29 107.5q31 149 -23.5 233t-206.5 84
q-288 0 -352 -317q-11 -55 -13 -99.5t8.5 -87.5t35.5 -72t73 -46.5t116 -17.5q140 0 210 32l-22 -108q-81 -28 -210 -28q-197 0 -276.5 116.5t-39.5 310.5q88 421 492 421zM413 244q53 0 77 35l2 10l31 151q-18 38 -62 38q-28 0 -50.5 -30t-33.5 -87q-24 -117 36 -117z" />
    <glyph glyph-name="bitcoin" horiz-adv-x="613" 
d="M581 525q-11 -52 -28.5 -85t-52.5 -54q40 -24 50 -64t-3 -90q-9 -46 -18.5 -71t-30 -50t-55.5 -37.5t-90 -19.5l-20 -98h-112l20 90h-35l-19 -90h-113l20 90h-47v1h-56l136 655h102l17 79h113l-17 -79q24 0 35 -1l17 80h111l-20 -92q67 -15 89 -54.5t7 -109.5zM304 561
h-3l-24 -115h2q60 0 81 10t29 47q8 38 -9 48t-76 10zM354 252q9 45 -10 57t-91 12h-2l-28 -134h3q71 0 95 11t33 54z" />
    <glyph glyph-name="braceleft.case" horiz-adv-x="497" 
d="M550 759l-32 -153q-76 0 -103.5 -17.5t-40.5 -78.5l-11 -53q-6 -30 -22 -54t-35 -38t-29.5 -20t-17.5 -9q73 -37 55 -121l-12 -57q-12 -59 8 -75.5t96 -16.5l-32 -154q-66 0 -110 3.5t-79 13.5t-53.5 25.5t-28.5 42.5t-8.5 62t11.5 85l13 65q7 32 -6.5 44t-66.5 12
l30 143q53 0 71.5 11.5t24.5 43.5l16 77q11 53 21 84t28.5 58.5t39.5 40t61.5 22t87.5 12t124 2.5z" />
    <glyph glyph-name="braceright.case" horiz-adv-x="497" 
d="M-59 -88l33 154q76 0 103 17t40 79l11 53q8 38 35 68.5t41.5 39t27.5 13.5q-3 1 -9 4.5t-17.5 13t-18.5 23t-12 34t2 46.5l13 58q12 58 -9 74.5t-97 16.5l33 153q66 0 110 -3.5t79 -13t53.5 -25.5t28 -42t8.5 -60.5t-11 -84.5l-14 -67q-6 -32 8 -44t67 -12l-31 -143
q-53 0 -71.5 -11.5t-24.5 -43.5l-16 -77q-10 -52 -19.5 -83.5t-27.5 -59t-39.5 -40.5t-62.5 -22.5t-88.5 -12t-124.5 -2.5z" />
    <glyph glyph-name="bracketleft.case" horiz-adv-x="474" 
d="M495 613h-158l-111 -536h159l-31 -148h-340l172 831h341z" />
    <glyph glyph-name="bracketright.case" horiz-adv-x="468" 
d="M463 760l-172 -831h-341l32 148h158l111 536h-160l32 147h340z" />
    <glyph glyph-name="caroncomb.alt" 
d="M-291 540l113 220h159l-152 -220h-120z" />
    <glyph glyph-name="caroncomb.alt.case" 
d="M-260 772l128 239h174l-156 -239h-146z" />
    <glyph glyph-name="dagger.sups" horiz-adv-x="308" 
d="M321 682l-18 -86h-64l-47 -220h-102l46 220h-66l19 86h65l16 77h103l-16 -77h64z" />
    <glyph glyph-name="daggerdbl.sups" horiz-adv-x="311" 
d="M309 596h-65l-11 -57h64l-18 -87h-64l-16 -76h-103l16 76h-65l18 87h65l12 57h-66l19 86h65l16 77h102l-16 -77h66z" />
    <glyph glyph-name="eight.dnom" horiz-adv-x="532" 
d="M-22 161q14 63 54 100.5t67 42.5q-20 4 -39.5 33t-9.5 78q8 38 21.5 64t40 49t71.5 34t110 11q104 0 147 -43t28 -115q-11 -50 -44.5 -79t-53.5 -32q25 -3 50 -41t11 -102q-9 -43 -23.5 -71.5t-43 -52.5t-77 -35.5t-118.5 -11.5q-115 0 -161.5 45t-29.5 126zM142 177
q-14 -70 52 -70q65 0 79 70q16 72 -49 72q-66 0 -82 -72zM196 401q-12 -58 48 -58q59 0 71 58q14 65 -45 65q-60 0 -74 -65z" />
    <glyph glyph-name="eight.numr" horiz-adv-x="532" 
d="M-22 359q14 63 54 100.5t67 42.5q-20 4 -39.5 33t-9.5 78q8 38 21.5 64t40 49t71.5 34t110 11q104 0 147 -43t28 -115q-11 -50 -44.5 -79t-53.5 -32q25 -3 50 -41t11 -102q-9 -43 -23.5 -71.5t-43 -52.5t-77 -35.5t-118.5 -11.5q-115 0 -161.5 45t-29.5 126zM142 375
q-14 -70 52 -70q65 0 79 70q16 72 -49 72q-66 0 -82 -72zM196 599q-12 -58 48 -58q59 0 71 58q14 65 -45 65q-60 0 -74 -65z" />
    <glyph glyph-name="eight.subs" horiz-adv-x="532" 
d="M-22 -42q14 63 54 100.5t67 42.5q-20 4 -39.5 33t-9.5 78q8 38 21.5 64t40 49t71.5 34t110 11q104 0 147 -43t28 -115q-11 -50 -44.5 -79t-53.5 -32q25 -3 50 -41t11 -102q-9 -43 -23.5 -71.5t-43 -52.5t-77 -35.5t-118.5 -11.5q-115 0 -161.5 45t-29.5 126zM142 -26
q-14 -70 52 -70q65 0 79 70q16 72 -49 72q-66 0 -82 -72zM196 198q-12 -58 48 -58q59 0 71 58q14 65 -45 65q-60 0 -74 -65z" />
    <glyph glyph-name="eight.tf" horiz-adv-x="712" 
d="M25 208q16 79 68.5 127.5t83.5 52.5q-8 1 -19.5 9.5t-25.5 25.5t-19 42.5t1 62.5q10 48 27.5 81.5t51.5 62.5t92.5 43t143.5 14q134 0 192 -55t39 -146q-14 -62 -55.5 -99t-66.5 -41q11 -1 26 -12t31 -33.5t22 -55.5t-1 -79q-9 -44 -22 -75.5t-37.5 -60.5t-60.5 -46.5
t-91.5 -27.5t-129.5 -10q-150 0 -211 57.5t-39 162.5zM248 230q-9 -41 3 -64t56 -23q40 0 64 24t31 63q9 42 -2.5 65.5t-56.5 23.5q-40 0 -64 -25t-31 -64zM315 509q-14 -70 54 -70q67 0 81 70q17 79 -51 79q-67 0 -84 -79z" />
    <glyph glyph-name="exclamdown.case" horiz-adv-x="303" 
d="M103 569l33 156h200l-33 -156h-200zM-15 0l125 523h168l-93 -523h-200z" />
    <glyph glyph-name="five.dnom" horiz-adv-x="509" 
d="M462 433l-223 6l-33 -91q42 22 102 22q86 0 118 -54t15 -136q-10 -43 -25 -74.5t-43.5 -59.5t-77 -42.5t-116.5 -14.5q-107 0 -152.5 51t-30.5 118h157q-2 -9 0.5 -20.5t15.5 -22.5t35 -11q66 0 82 76q17 81 -49 81q-23 0 -42 -9t-26 -18l-7 -9l-142 1l75 217l40 112h353
z" />
    <glyph glyph-name="five.numr" horiz-adv-x="509" 
d="M462 631l-223 6l-33 -91q42 22 102 22q86 0 118 -54t15 -136q-10 -43 -25 -74.5t-43.5 -59.5t-77 -42.5t-116.5 -14.5q-107 0 -152.5 51t-30.5 118h157q-2 -9 0.5 -20.5t15.5 -22.5t35 -11q66 0 82 76q17 81 -49 81q-23 0 -42 -9t-26 -18l-7 -9l-142 1l75 217l40 112h353
z" />
    <glyph glyph-name="five.subs" horiz-adv-x="509" 
d="M462 230l-223 6l-33 -91q42 22 102 22q86 0 118 -54t15 -136q-10 -43 -25 -74.5t-43.5 -59.5t-77 -42.5t-116.5 -14.5q-107 0 -152.5 51t-30.5 118h157q-2 -9 0.5 -20.5t15.5 -22.5t35 -11q66 0 82 76q17 81 -49 81q-23 0 -42 -9t-26 -18l-7 -9l-142 1l75 217l40 112h353
z" />
    <glyph glyph-name="five.tf" horiz-adv-x="712" 
d="M637 539l-280 7l-35 -100q54 24 119 24q109 0 151.5 -68t20.5 -172q-12 -56 -31.5 -96t-56 -75.5t-99 -53.5t-149.5 -18q-137 0 -195.5 65t-40.5 153h210q-2 -8 0 -20t17 -25.5t43 -13.5q38 0 60.5 24t30.5 60q19 93 -55 93q-25 0 -46 -11.5t-29 -22.5l-9 -11l-195 2
l91 271l56 154h457z" />
    <glyph glyph-name="four.dnom" horiz-adv-x="521" 
d="M486 555l-75 -352h58l-24 -116h-59l-19 -87h-155l19 87h-263l24 116l327 352h167zM128 203h128l39 181z" />
    <glyph glyph-name="four.numr" horiz-adv-x="521" 
d="M486 753l-75 -352h58l-24 -116h-59l-19 -87h-155l19 87h-263l24 116l327 352h167zM128 401h128l39 181z" />
    <glyph glyph-name="four.subs" horiz-adv-x="521" 
d="M486 352l-75 -352h58l-24 -116h-59l-19 -87h-155l19 87h-263l24 116l327 352h167zM128 0h128l39 181z" />
    <glyph glyph-name="four.tf" horiz-adv-x="712" 
d="M654 705l-92 -440h77l-34 -159h-77l-22 -106h-210l23 106h-334l33 159l412 440h224zM205 265h147l45 208z" />
    <glyph glyph-name="gravecomb.case" 
d="M40 773h-176l-88 167h204z" />
    <glyph glyph-name="guillemotleft.case" horiz-adv-x="730" 
d="M425 526l-180 -215l95 -186h-211l-77 180l7 34l153 187h213zM712 526l-181 -215l96 -186h-211l-78 180l7 34l154 187h213z" />
    <glyph glyph-name="guillemotright.case" horiz-adv-x="730" 
d="M385 339l-7 -34l-152 -180h-213l179 208l-94 193h212zM596 526l75 -187l-7 -34l-152 -180h-213l180 208l-94 193h211z" />
    <glyph glyph-name="guilsinglleft.case" horiz-adv-x="443" 
d="M425 526l-180 -215l96 -186h-212l-77 180l7 34l153 187h213z" />
    <glyph glyph-name="guilsinglright.case" horiz-adv-x="443" 
d="M310 526l75 -187l-7 -34l-152 -180h-213l179 208l-94 193h212z" />
    <glyph glyph-name="i.loclTRK" horiz-adv-x="300" 
d="M108 611l35 161h200l-35 -161h-200zM-22 0l115 550h200l-115 -550h-200z" />
    <glyph glyph-name="nine.dnom" horiz-adv-x="535" 
d="M312 572q117 1 160.5 -65t15.5 -199q-20 -95 -41 -151.5t-55.5 -96.5t-82.5 -55.5t-123 -15.5q-58 0 -99 15.5t-58.5 40t-25 54.5t1.5 60h148q-5 -22 7.5 -39t49.5 -17q33 0 54.5 23t40.5 87q-49 -26 -107 -26q-99 0 -135 53t-17 140q8 41 23.5 72t44.5 59.5t79 44.5
t119 16zM205 377q-17 -80 47 -80q46 0 81 33q12 68 1.5 96.5t-47.5 28.5q-65 0 -82 -78z" />
    <glyph glyph-name="nine.numr" horiz-adv-x="535" 
d="M312 770q117 1 160.5 -65t15.5 -199q-20 -95 -41 -151.5t-55.5 -96.5t-82.5 -55.5t-123 -15.5q-58 0 -99 15.5t-58.5 40t-25 54.5t1.5 60h148q-5 -22 7.5 -39t49.5 -17q33 0 54.5 23t40.5 87q-49 -26 -107 -26q-99 0 -135 53t-17 140q8 41 23.5 72t44.5 59.5t79 44.5
t119 16zM205 575q-17 -80 47 -80q46 0 81 33q12 68 1.5 96.5t-47.5 28.5q-65 0 -82 -78z" />
    <glyph glyph-name="nine.subs" horiz-adv-x="535" 
d="M312 369q117 1 160.5 -65t15.5 -199q-20 -95 -41 -151.5t-55.5 -96.5t-82.5 -55.5t-123 -15.5q-58 0 -99 15.5t-58.5 40t-25 54.5t1.5 60h148q-5 -22 7.5 -39t49.5 -17q33 0 54.5 23t40.5 87q-49 -26 -107 -26q-99 0 -135 53t-17 140q8 41 23.5 72t44.5 59.5t79 44.5
t119 16zM205 174q-17 -80 47 -80q46 0 81 33q12 67 1.5 96t-47.5 29q-65 0 -82 -78z" />
    <glyph glyph-name="nine.tf" horiz-adv-x="712" 
d="M423 728q151 1 208.5 -83.5t22.5 -250.5q-26 -121 -52 -193t-70 -124t-106.5 -72t-159.5 -20q-60 0 -106.5 13t-73 35t-42.5 50.5t-17 59.5t4 62h203q-1 -12 -0.5 -26t17 -24.5t48.5 -10.5q36 0 59.5 25t46.5 97q-57 -27 -128 -27q-121 0 -169 68.5t-27 175.5q8 40 21 73
t39 66t62 55t92 36.5t128 14.5zM295 477q-19 -97 54 -97q52 0 92 35q17 83 6 118t-57 35q-36 0 -61 -26t-34 -65z" />
    <glyph glyph-name="one.dnom" horiz-adv-x="315" 
d="M206 564h98l-119 -564h-156l91 426l-99 -41l25 117z" />
    <glyph glyph-name="one.numr" horiz-adv-x="315" 
d="M206 762h98l-119 -564h-156l91 426l-99 -41l25 117z" />
    <glyph glyph-name="one.subs" horiz-adv-x="315" 
d="M206 361h98l-119 -564h-156l91 426l-99 -41l25 117z" />
    <glyph glyph-name="one.tf" horiz-adv-x="712" 
d="M436 161h119l-30 -161h-443l30 161h114l77 372l-1 -2l-130 -52l34 159l207 80h139z" />
    <glyph glyph-name="paragraph.alt" horiz-adv-x="731" 
d="M764 760l-158 -760h-147l128 614h-70l-128 -614h-147l51 242q-57 1 -98.5 6.5t-74.5 17.5t-52.5 31t-30 47.5t-10 66.5t11.5 89q23 105 60 158t106 76t196 26h363z" />
    <glyph glyph-name="parenleft.case" horiz-adv-x="428" 
d="M262 760h206q-5 -6 -13 -17.5t-31.5 -52t-44.5 -86.5t-45.5 -120t-41.5 -153t-21 -152t2 -120.5t14 -83.5t15 -52l8 -16h-205q-3 5 -8 15.5t-15.5 49t-15 83t-0.5 119.5t21 157q27 131 71 238t74 149z" />
    <glyph glyph-name="parenright.case" horiz-adv-x="428" 
d="M136 760h206q2 -6 6 -16.5t10.5 -50t8.5 -84.5t-4 -120.5t-23 -157.5t-43.5 -156t-52 -121t-48.5 -82t-37 -50l-14 -15h-205q5 6 14.5 17t36 50.5t50 85t50 119t43.5 152.5q26 126 26.5 233t-12.5 152z" />
    <glyph glyph-name="questiondown.case" horiz-adv-x="617" 
d="M509 725l-31 -146h-200l31 146h200zM278 535h182l-3 -16q-8 -42 -26 -77t-39.5 -56.5t-45.5 -43t-44.5 -38.5t-37 -41.5t-22.5 -52.5q-16 -75 44 -75q36 0 53 26t31 89h198q-15 -72 -35.5 -121t-56.5 -87.5t-91.5 -56.5t-134.5 -18q-129 0 -182.5 62.5t-33.5 160.5
q12 56 36.5 97.5t53.5 67t58 47.5t54 51t37 66z" />
    <glyph glyph-name="registered.alt" horiz-adv-x="499" 
d="M327 748q108 0 145.5 -59.5t17.5 -157.5q-21 -97 -84 -155t-171 -58t-146 58t-17 155q20 98 83.5 157.5t171.5 59.5zM433 531q15 75 -10 122t-107 47q-81 0 -127 -47.5t-61 -121.5q-34 -165 117 -165q152 0 188 165zM204 656h88q75 0 96.5 -17t10.5 -70q-12 -57 -49 -73
l23 -82l-85 1l-14 69h-26l-15 -69h-81zM272 596l-11 -51h5q29 0 40 3.5t14 20.5q3 19 -5.5 23t-36.5 4h-6z" />
    <glyph glyph-name="section.sups" horiz-adv-x="346" 
d="M351 670h-85q6 29 -28 29q-31 0 -35 -20q-3 -15 20 -22t52 -9.5t48.5 -23t11.5 -59.5q-7 -31 -39 -58q22 -20 14 -62q-9 -44 -40.5 -65.5t-104.5 -21.5q-62 0 -87 24.5t-14 74.5h85q-9 -38 27 -38t40 20q3 16 -19.5 23.5t-51 11t-48 24.5t-11.5 61q6 29 39 56
q-22 21 -14 63q9 40 40 61t98 21q59 0 85.5 -23.5t16.5 -66.5zM241 558q3 14 -9 19.5t-38 10.5q-12 -12 -16 -29q-3 -13 8.5 -17.5t39.5 -9.5q12 12 15 26z" />
    <glyph glyph-name="seven.dnom" horiz-adv-x="438" 
d="M186 0h-174q14 65 45.5 133.5t67 120.5t68.5 94t55 64l22 23l-234 -5l26 125h402l-26 -125q-8 -9 -22.5 -25t-53 -65.5t-70 -98.5t-63 -116t-43.5 -125z" />
    <glyph glyph-name="seven.numr" horiz-adv-x="438" 
d="M186 198h-174q14 65 45.5 133.5t67 120.5t68.5 94t55 64l22 23l-234 -5l26 125h402l-26 -125q-8 -9 -22.5 -25t-53 -65.5t-70 -98.5t-63 -116t-43.5 -125z" />
    <glyph glyph-name="seven.subs" horiz-adv-x="438" 
d="M186 -203h-174q14 65 45.5 133.5t67 120.5t68.5 94t55 65l22 22l-234 -5l26 125h402l-26 -125q-8 -9 -22.5 -25t-53 -65.5t-70 -98.5t-63 -116t-43.5 -125z" />
    <glyph glyph-name="seven.tf" horiz-adv-x="712" 
d="M343 0h-237q16 80 55.5 165.5t84 149.5t87 116.5t69.5 80.5l28 28l-297 -6l37 171h524l-37 -171q-11 -11 -28.5 -31.5t-65.5 -82.5t-87.5 -122.5t-78.5 -143.5t-54 -154z" />
    <glyph glyph-name="six.dnom" horiz-adv-x="535" 
d="M492 401h-149q5 21 -6.5 38.5t-42.5 17.5t-52.5 -25t-42.5 -96q49 26 108 26q99 0 134.5 -52.5t18.5 -131.5q-8 -40 -23 -70.5t-44 -59t-79 -44t-120 -15.5q-118 -1 -160 64.5t-15 197.5q39 183 100.5 252t199.5 69q103 0 145 -51t28 -120zM301 179q16 75 -47 75
q-45 0 -82 -33q-10 -63 1 -90t47 -27q65 0 81 75z" />
    <glyph glyph-name="six.numr" horiz-adv-x="535" 
d="M492 599h-149q5 21 -6.5 38.5t-42.5 17.5t-52.5 -25t-42.5 -96q49 26 108 26q99 0 134.5 -52.5t18.5 -131.5q-8 -40 -23 -70.5t-44 -59t-79 -44t-120 -15.5q-118 -1 -160 64.5t-15 197.5q39 183 100.5 252t199.5 69q103 0 145 -51t28 -120zM301 377q16 75 -47 75
q-45 0 -82 -33q-10 -63 1 -90t47 -27q65 0 81 75z" />
    <glyph glyph-name="six.subs" horiz-adv-x="535" 
d="M492 198h-149q5 21 -6.5 38.5t-42.5 17.5t-52.5 -25t-42.5 -96q49 26 108 26q99 0 134.5 -52.5t18.5 -131.5q-8 -40 -23 -70.5t-44 -59t-79 -44t-120 -15.5q-118 -1 -160 64.5t-15 197.5q39 183 100.5 252t199.5 69q103 0 145 -51t28 -120zM301 -24q16 75 -47 75
q-45 0 -82 -33q-10 -63 1 -90t47 -27q65 0 81 75z" />
    <glyph glyph-name="six.tf" horiz-adv-x="712" 
d="M662 508h-204q5 23 -7 42t-49 19q-33 0 -57.5 -28.5t-48.5 -107.5q57 27 129 27q122 0 169.5 -68.5t27.5 -165.5q-8 -40 -20.5 -71.5t-38 -64.5t-61 -55t-92.5 -36t-130 -14q-152 -1 -208.5 83t-21.5 251q25 119 53 192.5t72 124.5t106 71.5t154 20.5q90 0 146.5 -33.5
t74 -82t6.5 -104.5zM408 232q9 40 -5 63.5t-50 23.5q-50 0 -93 -34q-14 -76 -2 -108t56 -32q37 0 62 25.5t32 61.5z" />
    <glyph glyph-name="three.dnom" horiz-adv-x="502" 
d="M497 555l-23 -111l-130 -101q109 -38 81 -168q-18 -87 -74.5 -136.5t-182.5 -49.5q-108 0 -151.5 55t-25.5 142h155q-6 -29 4 -50.5t41 -21.5q64 0 79 71q8 38 -6 59t-62 21l-66 -5l19 92l124 84l-218 -8l27 127h409z" />
    <glyph glyph-name="three.numr" horiz-adv-x="502" 
d="M497 753l-23 -111l-130 -101q109 -38 81 -168q-18 -87 -74.5 -136.5t-182.5 -49.5q-108 0 -151.5 55t-25.5 142h155q-6 -29 4 -50.5t41 -21.5q64 0 79 71q8 38 -6 59t-62 21l-66 -5l19 92l124 84l-218 -8l27 127h409z" />
    <glyph glyph-name="three.subs" horiz-adv-x="502" 
d="M497 352l-23 -111l-130 -101q109 -38 81 -168q-18 -87 -74.5 -136.5t-182.5 -49.5q-108 0 -151.5 55t-25.5 142h155q-6 -29 4 -50.5t41 -21.5q64 0 79 71q8 38 -6 59t-62 21l-66 -5l19 92l124 84l-218 -8l27 127h409z" />
    <glyph glyph-name="three.tf" horiz-adv-x="712" 
d="M688 705l-32 -151l-156 -121q134 -52 101 -209q-11 -53 -31 -92.5t-57 -74t-99 -52.5t-147 -18q-139 0 -196 71t-33 185h209q-7 -34 3.5 -59.5t49.5 -25.5t60 22.5t28 55.5q8 43 -8.5 67.5t-76.5 24.5l-87 -8l28 130l142 93l-266 -11l37 173h531z" />
    <glyph glyph-name="tildecomb.case" 
d="M-28 956h87q-19 -92 -56 -138t-105 -46q-40 0 -77 20.5t-61 20.5q-26 0 -43 -15t-20 -28h-87q38 182 162 182q39 0 75.5 -19.5t60.5 -19.5q27 0 43.5 15t20.5 28z" />
    <glyph glyph-name="two.dnom" horiz-adv-x="506" 
d="M-38 0l26 124q104 59 177 110q7 5 32.5 22t34.5 23.5t28 21.5t27.5 24.5t17.5 23.5t12 28q14 63 -46 63q-61 0 -77 -81h-159q23 109 79 161t186 52q106 0 148 -51t25 -133q-7 -35 -24 -66t-42.5 -57.5t-43 -42t-44.5 -36.5q-71 -55 -104 -68l196 10l-27 -128h-422z" />
    <glyph glyph-name="two.numr" horiz-adv-x="506" 
d="M-38 198l26 124q104 59 177 110q7 5 32.5 22t34.5 23.5t28 21.5t27.5 24.5t17.5 23.5t12 28q14 63 -46 63q-61 0 -77 -81h-159q23 109 79 161t186 52q106 0 148 -51t25 -133q-7 -35 -24 -66t-42.5 -57.5t-43 -42t-44.5 -36.5q-71 -55 -104 -68l196 10l-27 -128h-422z" />
    <glyph glyph-name="two.subs" horiz-adv-x="506" 
d="M-38 -203l26 124q104 59 177 110q7 5 32.5 22t34.5 23.5t28 21.5t27.5 24.5t17.5 23.5t12 28q14 63 -46 63q-61 0 -77 -81h-159q23 109 79 161t186 52q106 0 148 -51t25 -133q-7 -35 -24 -66t-42.5 -57.5t-43 -42t-44.5 -36.5q-33 -25 -104 -68l196 10l-27 -128h-422z
" />
    <glyph glyph-name="two.tf" horiz-adv-x="712" 
d="M6 0l34 162l35 20q35 21 91.5 55t97.5 62q5 4 33 22.5t37 25t32 23t32.5 26.5t23.5 25t21 28.5t10 27.5q14 76 -53 76q-69 0 -90 -100h-215q14 69 35 116.5t59.5 85.5t99.5 56t149 18q138 0 193 -65.5t34 -173.5q-25 -123 -191 -247q-71 -55 -127 -83l240 13l-37 -173
h-544z" />
    <glyph glyph-name="uni0302.case" 
d="M21 772h-154l-46 62l-72 -62h-159l152 164h189z" />
    <glyph glyph-name="uni0304.case" 
d="M-275 919h338l-30 -139h-338z" />
    <glyph glyph-name="uni0306.case" 
d="M-47 933h144q-36 -169 -237 -169q-95 0 -138 50.5t-28 118.5h145q-4 -18 10 -31t37 -13t43 13t24 31z" />
    <glyph glyph-name="uni0307.case" 
d="M-164 772l33 161h200l-33 -161h-200z" />
    <glyph glyph-name="uni0308.case" 
d="M-411 772l34 161h200l-34 -161h-200zM-160 772l33 161h200l-33 -161h-200z" />
    <glyph glyph-name="uni030A.case" 
d="M-94 764q-58 0 -91 34.5t-20 94.5q26 129 166 129q54 0 87 -35t20 -94q-28 -129 -162 -129zM-72 861q13 0 23.5 9t13.5 23t-4 23t-21 9q-29 0 -36 -32q-4 -14 3 -23t21 -9z" />
    <glyph glyph-name="uni030B.case" 
d="M-497 773l129 167h203l-156 -167h-176zM-269 773l155 167h205l-183 -167h-177z" />
    <glyph glyph-name="uni030C.case" 
d="M-67 936h164l-158 -164h-190l-83 164h148l47 -62z" />
    <glyph glyph-name="uni0338.case" 
d="M-583 5l661 755h115l-661 -755h-115z" />
    <glyph glyph-name="zero.dnom" horiz-adv-x="552" 
d="M199 -11q-127 0 -166.5 69t-8.5 215q34 160 97.5 229.5t202.5 69.5q128 0 167 -72.5t6 -226.5q-16 -75 -36.5 -124.5t-54 -87.5t-84.5 -55t-123 -17zM229 126q42 0 64.5 33.5t39.5 113.5q13 61 14 94.5t-11.5 49.5t-41.5 16q-41 0 -64 -35.5t-41 -124.5
q-18 -78 -9.5 -112.5t49.5 -34.5z" />
    <glyph glyph-name="zero.numr" horiz-adv-x="552" 
d="M199 187q-127 0 -166.5 69t-8.5 215q34 160 97.5 229.5t202.5 69.5q128 0 167 -72.5t6 -226.5q-16 -75 -36.5 -124.5t-54 -87.5t-84.5 -55t-123 -17zM229 324q42 0 64.5 33.5t39.5 113.5q13 61 14 94.5t-11.5 49.5t-41.5 16q-41 0 -64 -35.5t-41 -124.5
q-18 -78 -9.5 -112.5t49.5 -34.5z" />
    <glyph glyph-name="zero.subs" horiz-adv-x="552" 
d="M199 -214q-127 0 -166.5 69t-8.5 215q34 160 97.5 229.5t202.5 69.5q128 0 167 -72.5t6 -226.5q-16 -75 -36.5 -124.5t-54 -87.5t-84.5 -55t-123 -17zM229 -77q42 0 64.5 33.5t39.5 113.5q13 61 14 94.5t-11.5 49.5t-41.5 16q-41 0 -64 -35.5t-41 -124.5
q-18 -78 -9.5 -112.5t49.5 -34.5z" />
    <glyph glyph-name="zero.tf" horiz-adv-x="712" 
d="M276 -15q-161 0 -212 88.5t-13 272.5q22 106 45.5 170t65.5 116t107 74t162 22q161 0 211 -92t9 -290q-21 -98 -43.5 -158.5t-64 -110t-106 -71t-161.5 -21.5zM314 166q49 0 75.5 40t47.5 140q13 61 17 95.5t0 60.5t-19 35.5t-43 9.5q-48 0 -75.5 -44t-50.5 -157
q-23 -98 -14 -139t62 -41z" />
    </font>
</defs>
</svg>
