<svg xmlns="http://www.w3.org/2000/svg">
<defs>
<font id="TofinoPersonal-MediumItalic" horiz-adv-x="0" >
  <font-face 
    font-family="Tofino Personal Medium Italic"
    font-weight="445"
    font-style="italic"
    font-stretch="normal"
    units-per-em="1000"
    panose-1="2 0 0 0 0 0 0 0 0 0"
    ascent="760"
    descent="-240"
    x-height="537"
    cap-height="714"
    bbox="-773 -294 1158.88 1142"
    underline-thickness="50"
    underline-position="-225"
    unicode-range="U+000D-FB04"
  />
<missing-glyph horiz-adv-x="691" 
d="M362 540q8 -13 55 -18q1 -1 4 -1q1 1 1 3l4 9q-42 39 -54 36q-5 -2 -9 -14q-3 -10 -1 -15zM464 495l5 -1q15 0 17 11q2 9 -1 13q-3 5 -12 8q-1 1 -5 1q-14 0 -17 -11q-1 -5 2 -12q4 -8 11 -9zM582 486q4 2 2 16q0 10 -5 15q-12 8 -57 -7q-2 -1 -5 -1q0 -9 -2 -13
q2 -1 3 -1q56 -15 64 -9zM306 239q4 16 -3 25l-2 3h-1q-24 12 -85 12q-22 0 -38.5 -2.5t-22 -5.5t-5.5 -4q-3 -25 6 -50t31 -29q15 -3 38 -3q38 0 54 6q17 11 28 48zM485 188q22 2 30.5 27t6.5 52q-12 12 -67 12q-60 0 -84 -12q-1 0 -1 -2l-3 -1q-7 -8 -2 -25q3 -33 28 -48
q14 -6 52 -6q7 0 40 3zM511 465q77 -80 77 -194q0 -112 -74.5 -191t-178.5 -79t-177.5 79t-73.5 191q0 119 80 197q-27 39 -10 82q16 40 67 66t114 26q65 0 118 -27t70 -70q0 -1 1 -3q52 15 72 -1q18 -13 19 -38q2 -27 -14 -41q-13 -9 -31 -9q-17 0 -59 12zM241 439
q22 -44 102 -78t207 -28q-21 82 -85 132q-7 0 -10 1q-20 7 -28 23h-1q-2 1 -6.5 1.5t-6.5 0.5q-45 6 -62 18q-6 1 -16 1q-47 0 -88 -19q-20 -24 -6 -52zM182 539q-10 -25 5 -50q65 51 144 52q-1 11 3 26q13 28 32 32q29 6 80 -43l3 -2q12 4 19 4q1 0 13 -3q-22 26 -63 41
t-83 15q-52 0 -96 -21t-57 -51zM205 465q-69 -57 -85 -143q37 -1 78 12.5t66 34.5q-36 27 -50 57q-9 20 -9 39zM133 291l10 -9q20 11 72 11q67 0 91 -12q30 -15 59 0q24 12 90 12q54 0 72 -11q10 15 18 21q-10 -1 -31 -1q-133 0 -223 50q-28 -25 -71.5 -42t-86.5 -19z
M335 31q92 0 157 70.5t65 169.5q0 14 -1 21q-10 -9 -20 -23v-1q4 -35 -9 -64t-41 -32q-20 -2 -41 -2q-43 0 -60 9q-27 15 -36 57q-1 3 -1 6q-3 13 -14 13q-8 0 -11 -13q-2 -1 -2 -6q-9 -43 -37 -57q-14 -9 -60 -9q-21 0 -39 2q-28 3 -41.5 32t-9.5 64v1l-19 18v-16

<glyph glyph-name="f_f" unicode="ff" horiz-adv-x="660" 
d="M717 672h-42q-42 0 -65 -26.5t-38 -97.5l-1 -7h117l-19 -93h-118l-93 -448h-116l93 448h-202l-94 -448h-115l94 448h-73l19 93h74l1 7q10 51 23 85.5t37 67.5t64 49t97 16h59l-20 -94h-43q-42 0 -65 -27t-37 -97l-1 -7h202l1 7q11 51 24 85.5t37 67.5t64 49t96 16h60z
" />
    <glyph glyph-name="fi" unicode="fi" horiz-adv-x="588" 
d="M399 672h-43q-42 0 -65 -27t-37 -97l-1 -7h118l-19 -93h-119l-94 -448h-115l94 448h-73l19 93h74l1 7q10 51 23 85.5t37 67.5t64 49t97 16h59zM470 621l30 139h116l-30 -139h-116zM337 0l113 541h116l-113 -541h-116z" />
    <glyph glyph-name="fl" unicode="fl" horiz-adv-x="612" 
d="M399 672h-43q-42 0 -65 -27t-37 -97l-1 -7h118l-19 -93h-119l-94 -448h-115l94 448h-73l19 93h74l1 7q10 51 23 85.5t37 67.5t64 49t97 16h59zM351 0l159 760h116l-159 -760h-116z" />
    <glyph glyph-name="f_f_i" unicode="ffi" horiz-adv-x="906" 
d="M662 448h-110l-94 -448h-116l94 448h-203l-94 -448h-115l94 448h-73l19 93h74l1 7q10 51 23 85.5t37 67.5t64 49t97 16h59l-20 -94h-43q-42 0 -65 -27t-37 -97l-1 -7h203l1 7q11 51 24 85.5t37 67.5t64 49t96 16h59l-19 -94h-42q-42 0 -65 -26.5t-38 -97.5l-1 -7h110z
M817 762h117l-31 -144h-116zM655 0l113 541h116l-113 -541h-116z" />
    <glyph glyph-name="f_f_l" unicode="ffl" horiz-adv-x="920" 
d="M662 448h-111l-93 -448h-116l93 448h-202l-94 -448h-115l94 448h-73l19 93h74l1 7q10 51 23 85.5t37 67.5t64 49t97 16h59l-20 -94h-43q-42 0 -65 -27t-37 -97l-1 -7h202l1 7q11 51 24 85.5t37 67.5t64 49t96 16h60l-20 -94h-42q-42 0 -65 -26.5t-38 -97.5l-1 -7h111z
M818 760h116l-158 -760h-116z" />
    <glyph glyph-name=".notdef" horiz-adv-x="691" 
d="M362 540q8 -13 55 -18q1 -1 4 -1q1 1 1 3l4 9q-42 39 -54 36q-5 -2 -9 -14q-3 -10 -1 -15zM464 495l5 -1q15 0 17 11q2 9 -1 13q-3 5 -12 8q-1 1 -5 1q-14 0 -17 -11q-1 -5 2 -12q4 -8 11 -9zM582 486q4 2 2 16q0 10 -5 15q-12 8 -57 -7q-2 -1 -5 -1q0 -9 -2 -13
q2 -1 3 -1q56 -15 64 -9zM306 239q4 16 -3 25l-2 3h-1q-24 12 -85 12q-22 0 -38.5 -2.5t-22 -5.5t-5.5 -4q-3 -25 6 -50t31 -29q15 -3 38 -3q38 0 54 6q17 11 28 48zM485 188q22 2 30.5 27t6.5 52q-12 12 -67 12q-60 0 -84 -12q-1 0 -1 -2l-3 -1q-7 -8 -2 -25q3 -33 28 -48
q14 -6 52 -6q7 0 40 3zM511 465q77 -80 77 -194q0 -112 -74.5 -191t-178.5 -79t-177.5 79t-73.5 191q0 119 80 197q-27 39 -10 82q16 40 67 66t114 26q65 0 118 -27t70 -70q0 -1 1 -3q52 15 72 -1q18 -13 19 -38q2 -27 -14 -41q-13 -9 -31 -9q-17 0 -59 12zM241 439
q22 -44 102 -78t207 -28q-21 82 -85 132q-7 0 -10 1q-20 7 -28 23h-1q-2 1 -6.5 1.5t-6.5 0.5q-45 6 -62 18q-6 1 -16 1q-47 0 -88 -19q-20 -24 -6 -52zM182 539q-10 -25 5 -50q65 51 144 52q-1 11 3 26q13 28 32 32q29 6 80 -43l3 -2q12 4 19 4q1 0 13 -3q-22 26 -63 41
t-83 15q-52 0 -96 -21t-57 -51zM205 465q-69 -57 -85 -143q37 -1 78 12.5t66 34.5q-36 27 -50 57q-9 20 -9 39zM133 291l10 -9q20 11 72 11q67 0 91 -12q30 -15 59 0q24 12 90 12q54 0 72 -11q10 15 18 21q-10 -1 -31 -1q-133 0 -223 50q-28 -25 -71.5 -42t-86.5 -19z
M335 31q92 0 157 70.5t65 169.5q0 14 -1 21q-10 -9 -20 -23v-1q4 -35 -9 -64t-41 -32q-20 -2 -41 -2q-43 0 -60 9q-27 15 -36 57q-1 3 -1 6q-3 13 -14 13q-8 0 -11 -13q-2 -1 -2 -6q-9 -43 -37 -57q-14 -9 -60 -9q-21 0 -39 2q-28 3 -41.5 32t-9.5 64v1l-19 18v-16
q0 -99 64.5 -169.5t155.5 -70.5zM403 106q0 -20 -20 -33.5t-49 -13.5t-49 13.5t-20 33.5q0 19 20.5 32.5t48.5 13.5t48.5 -13.5t20.5 -32.5zM249 269l-4 -18q14 -8 14 -26q0 -13 -9 -22t-22 -9q-12 0 -21.5 9t-9.5 22q0 6 2 10l-14 11q-4 3 0 7q2 2 6 0l12 -11l3 6l-7 14
q-2 1 -1.5 3t2.5 3q4 2 6 -3l8 -12q0 1 2 1t3 1l-2 16q0 5 5 5q3 0 5 -4l1 -16q2 0 4.5 -0.5t3.5 -0.5l4 17q2 4 6 4q4 -3 3 -7zM491 253q1 -4 -1 -7l-13 -13q0 -1 0.5 -3.5t0.5 -4.5q0 -13 -9.5 -22t-22.5 -9q-12 0 -21 9t-9 22q0 18 15 26l-5 18q0 4 4 7q5 0 5 -4l4 -17
q2 1 7 1l3 16q0 4 5 4q4 0 4 -5l-3 -16l7 -2l7 12q3 5 5 3q2 -1 3 -3t0 -3l-9 -14q4 -3 4 -6l13 11q1 1 3 1t3 -1z" />
    <glyph glyph-name=".null" 
 />
    <glyph glyph-name="nonmarkingreturn" horiz-adv-x="333" 
 />
    <glyph glyph-name="NULL" 
 />
    <glyph glyph-name="NULL" 
 />
    <glyph glyph-name="CR" unicode="&#xd;" horiz-adv-x="212" 
 />
    <glyph glyph-name="space" unicode=" " horiz-adv-x="212" 
 />
    <glyph glyph-name="exclam" unicode="!" horiz-adv-x="260" 
d="M55 181l103 533h116l-119 -533h-100zM9 0l26 121h115l-26 -121h-115z" />
    <glyph glyph-name="quotedbl" unicode="&#x22;" horiz-adv-x="377" 
d="M89 533l34 220h125l-59 -220h-100zM274 533l34 220h125l-58 -220h-101z" />
    <glyph glyph-name="numbersign" unicode="#" horiz-adv-x="771" 
d="M709 453h-110l-72 -178h99l-17 -82h-115l-78 -193h-106l78 193h-130l-78 -193h-105l78 193h-98l17 82h114l72 178h-103l17 82h119l67 167h106l-68 -167h130l67 167h106l-67 -167h94zM421 275l72 178h-130l-72 -178h130z" />
    <glyph glyph-name="dollar" unicode="$" horiz-adv-x="561" 
d="M548 510h-107q10 44 -14.5 75t-84.5 31q-123 0 -140 -88q-7 -34 8 -56t45 -33t67 -19.5t74 -20.5t65 -31t40.5 -56t1.5 -90q-38 -174 -251 -187l-9 -62h-74l18 62q-208 12 -167 216h108q-12 -62 12.5 -92t93.5 -30q61 0 102 23t49 67q7 31 -4 52t-34 31.5t-53.5 19.5
t-63.5 15.5t-62.5 20t-51 33.5t-30 55t2.5 85q37 168 240 179l9 60h75l-18 -60q194 -16 153 -200z" />
    <glyph glyph-name="percent" unicode="%" horiz-adv-x="780" 
d="M175 358q-168 0 -131 176q18 91 64.5 136t141.5 45q166 0 129 -181q-19 -89 -64 -132.5t-140 -43.5zM190 430q44 0 66 25t33 79q13 52 1 80.5t-56 28.5q-42 0 -65 -27t-35 -82q-13 -52 -0.5 -78t56.5 -26zM26 0l597 702h102l-598 -702h-101zM497 -14q-168 0 -131 177
q18 90 64.5 135t140.5 45q167 0 130 -180q-19 -90 -64 -133.5t-140 -43.5zM512 59q43 0 65 25t34 79q13 52 1 80t-56 28q-43 0 -66 -26.5t-34 -81.5q-13 -52 -0.5 -78t56.5 -26z" />
    <glyph glyph-name="ampersand" unicode="&#x26;" horiz-adv-x="743" 
d="M648 0h-133l-39 50q-84 -68 -218 -68q-124 0 -176 57t-29 165q31 150 165 207q-34 62 -19 135q17 85 72 133t170 48q195 0 153 -203h-120q21 100 -55 100q-77 0 -94 -78q-3 -16 -3 -32t2.5 -29t9 -28.5t13.5 -28t19 -30t22 -31.5t26.5 -36t28.5 -40l42 -60q26 56 42 134
h104q-29 -140 -81 -227zM282 87q75 0 130 46q-69 95 -107 150q-24 36 -39 56q-75 -44 -92 -128q-12 -58 9 -91t99 -33z" />
    <glyph glyph-name="quotesingle" unicode="'" horiz-adv-x="177" 
d="M81 533l34 220h125l-58 -220h-101z" />
    <glyph glyph-name="parenleft" unicode="(" horiz-adv-x="342" 
d="M271 760h116q-6 -8 -16 -23t-37.5 -64t-52 -101.5t-52 -132t-44.5 -158.5q-25 -144 -20 -250t24 -166l19 -60h-117q-3 7 -8.5 21t-16.5 61.5t-16 99t-1 132t21 162.5q27 131 77.5 250.5t86.5 174.5z" />
    <glyph glyph-name="parenright" unicode=")" horiz-adv-x="342" 
d="M137 760h116q3 -8 6.5 -22t11 -62t10.5 -100t-3 -132.5t-23 -162.5t-46 -161.5t-58.5 -134t-56 -97t-43.5 -62.5l-17 -21h-116q7 8 18 22.5t42 63t58 100.5t56.5 131.5t46.5 158.5q26 144 25.5 250t-14.5 167z" />
    <glyph glyph-name="asterisk" unicode="*" horiz-adv-x="435" 
d="M66 573l41 97l91 -38l9 96h98l-30 -96l106 38v-97l-102 -11l60 -79l-96 -57l-33 85l-70 -85l-71 57l94 79z" />
    <glyph glyph-name="plus" unicode="+" horiz-adv-x="501" 
d="M460 375l-20 -94h-151l-32 -153h-100l32 153h-150l20 94h150l33 154h100l-33 -154h151z" />
    <glyph glyph-name="comma" unicode="," horiz-adv-x="283" 
d="M32 -130h-101q44 65 77 142q15 35 25 64.5t13 41.5l3 11h119q-11 -46 -49 -124q-18 -37 -40 -71t-35 -49z" />
    <glyph glyph-name="hyphen" unicode="-" horiz-adv-x="408" 
d="M70 275l18 90h248l-18 -90h-248z" />
    <glyph glyph-name="period" unicode="." horiz-adv-x="264" 
d="M6 0l28 129h116l-27 -129h-117z" />
    <glyph glyph-name="slash" unicode="/" horiz-adv-x="509" 
d="M-18 -40l478 840h117l-478 -840h-117z" />
    <glyph glyph-name="zero" unicode="0" horiz-adv-x="654" 
d="M257 -12q-145 0 -188 86t-5 272q21 101 46.5 168t65.5 115.5t97 70t136 21.5q146 0 188.5 -89t1.5 -286q-39 -191 -113.5 -274.5t-228.5 -83.5zM279 94q77 0 124.5 58t75.5 194q33 150 14 210t-106 60q-76 0 -123.5 -61.5t-78.5 -208.5q-31 -139 -12 -195.5t106 -56.5z
" />
    <glyph glyph-name="one" unicode="1" horiz-adv-x="332" 
d="M235 714h95l-149 -714h-119l123 593l-150 -66l24 110z" />
    <glyph glyph-name="two" unicode="2" horiz-adv-x="536" 
d="M-38 1l22 105q113 78 228 171q9 7 35.5 28.5t35.5 28.5t30.5 26t30.5 28t24 26t22 29.5t14 28.5t10 32q24 114 -87 114q-118 0 -143 -118h-121q23 114 93 168.5t193 54.5q110 0 159.5 -54.5t26.5 -163.5q-9 -42 -27.5 -79t-50 -72t-56.5 -59t-68 -60q-42 -36 -89 -70
t-73 -50l-26 -16l301 4l-22 -102h-462z" />
    <glyph glyph-name="three" unicode="3" horiz-adv-x="543" 
d="M563 697l-19 -93l-205 -151q87 -18 125.5 -76t19.5 -150q-49 -235 -302 -235q-111 0 -162.5 60.5t-30.5 160.5h112q-10 -45 14.5 -80t88.5 -35q67 0 106.5 35.5t51.5 93.5q27 129 -127 129l-86 -7l21 102l207 150l-281 -5l22 101h445z" />
    <glyph glyph-name="four" unicode="4" horiz-adv-x="587" 
d="M557 700l-96 -461h84l-22 -105h-84l-28 -134h-120l29 134h-328l22 105l421 461h122zM145 239h198l64 294z" />
    <glyph glyph-name="five" unicode="5" horiz-adv-x="569" 
d="M555 596h-286l-56 -158q58 33 131 33q103 0 150 -64t23 -179q-25 -118 -97.5 -177t-206.5 -59q-115 0 -166.5 57.5t-32.5 148.5h112q-8 -36 16 -68t94 -32q62 0 104.5 36.5t54.5 93.5q13 62 -10.5 100t-94.5 38q-37 0 -68 -16t-44 -32l-13 -15l-114 2l103 291l35 101h388
z" />
    <glyph glyph-name="six" unicode="6" horiz-adv-x="624" 
d="M592 520h-122q8 37 -12 67t-80 30q-55 0 -96.5 -44t-75.5 -161q75 55 174 55q57 0 97 -20.5t57.5 -55t23.5 -78t-6 -90.5q-49 -234 -304 -235q-258 0 -190 326q46 220 123.5 314t218.5 94q59 0 102 -18.5t63 -47.5t28.5 -65t-1.5 -71zM430 223q29 139 -95 139
q-93 0 -158 -69q-22 -114 -0.5 -156.5t92.5 -42.5q61 0 104.5 34.5t56.5 94.5z" />
    <glyph glyph-name="seven" unicode="7" horiz-adv-x="500" 
d="M170 0h-129q19 91 63 185.5t93 164.5t95.5 127t77.5 87l30 29h-335l23 105h475l-23 -105l-33 -33t-77.5 -86.5t-103 -132t-92.5 -160.5t-64 -181z" />
    <glyph glyph-name="eight" unicode="8" horiz-adv-x="625" 
d="M29 203q9 44 31 80t47 56.5t46 32t34 12.5q-26 4 -54 40.5t-15 101.5q20 95 84 146.5t195 51.5q117 0 166.5 -54t30.5 -144q-14 -65 -57.5 -101.5t-71.5 -40.5q13 -1 29 -12t33.5 -33t23.5 -55.5t-2 -80.5q-22 -105 -91.5 -159t-213.5 -54q-131 0 -184 56t-31 157z
M152 211q-12 -59 13 -87.5t101 -28.5q66 0 108.5 30.5t53.5 85.5q12 59 -12 88t-102 29q-67 0 -109 -31t-53 -86zM238 516q-9 -44 13.5 -67t83.5 -23q116 0 135 90q22 105 -95 105q-115 0 -137 -105z" />
    <glyph glyph-name="nine" unicode="9" horiz-adv-x="624" 
d="M389 722q126 1 174.5 -82.5t14.5 -249.5q-47 -221 -121.5 -311.5t-220.5 -90.5q-52 0 -92 13t-62.5 33.5t-37 47t-15 54.5t3.5 54h122q-5 -15 -2 -31.5t11 -31t32.5 -24t61.5 -9.5q59 0 98.5 38.5t71.5 147.5q-79 -58 -176 -58q-105 0 -148 74.5t-21 182.5
q23 111 98 176.5t208 66.5zM205 479q-15 -74 5.5 -113t88.5 -39q90 0 157 67q26 130 6 176.5t-95 46.5q-61 0 -105 -36.5t-57 -101.5z" />
    <glyph glyph-name="colon" unicode=":" horiz-adv-x="273" 
d="M87 360l26 128h117l-26 -128h-117zM12 7l28 128h117l-28 -128h-117z" />
    <glyph glyph-name="semicolon" unicode=";" horiz-adv-x="296" 
d="M105 353l27 126h116l-26 -126h-117zM34 -130h-102q46 64 78 142q14 35 24.5 64.5t13.5 41.5l3 11h118q-10 -46 -49 -124q-18 -37 -39.5 -71t-34.5 -49z" />
    <glyph glyph-name="less" unicode="&#x3c;" horiz-adv-x="572" 
d="M524 508l-22 -105l-343 -91l304 -91l-22 -105l-393 146l21 100z" />
    <glyph glyph-name="equal" unicode="=" horiz-adv-x="556" 
d="M76 351l21 97h412l-21 -97h-412zM39 175l21 97h412l-21 -97h-412z" />
    <glyph glyph-name="greater" unicode="&#x3e;" horiz-adv-x="557" 
d="M114 508l394 -146l-21 -100l-456 -146l22 105l342 91l-303 91z" />
    <glyph glyph-name="question" unicode="?" horiz-adv-x="524" 
d="M270 181h-108l5 23q11 53 34.5 94.5t50.5 67t53.5 48t48 52t28.5 65.5q10 50 -4.5 77.5t-66.5 27.5t-80.5 -34t-41.5 -102h-117q26 124 88 183t176 59q106 0 145.5 -53t21.5 -143q-11 -51 -36 -92t-54 -68t-57 -52.5t-50.5 -58t-30.5 -71.5zM120 0l25 121h116l-25 -121
h-116z" />
    <glyph glyph-name="at" unicode="@" horiz-adv-x="878" 
d="M514 690q100 0 168.5 -32t100.5 -87.5t40.5 -131t-12.5 -162.5q-27 -134 -77 -197.5t-133 -64.5h-1q-87 0 -101 90q-56 -60 -156 -60q-85 0 -115.5 60t-7.5 172q49 234 220 234q80 0 117 -67l26 63h88l-63 -305q-9 -42 -9.5 -67t7.5 -36.5t26 -11.5t33.5 11.5t35 56
t35.5 122.5q18 70 12.5 132.5t-28.5 109.5t-79 74.5t-141 27.5q-83 0 -149.5 -27t-110.5 -76t-72.5 -108.5t-43.5 -132.5q-12 -59 -14 -106.5t9.5 -91.5t39 -73.5t78.5 -47t123 -17.5q131 0 202 32l-16 -72q-81 -28 -202 -28q-81 0 -142 19.5t-98 55.5t-57 86t-19.5 111.5
t13.5 131.5q87 413 473 413zM386 123q76 0 116 68l2 11l33 160q-17 70 -88 70q-44 0 -75.5 -40t-46.5 -115q-34 -154 59 -154z" />
    <glyph glyph-name="A" unicode="A" horiz-adv-x="639" 
d="M459 0l-22 162h-282l-90 -162h-126l413 714h114l114 -714h-121zM213 267h210l-41 307z" />
    <glyph glyph-name="B" unicode="B" horiz-adv-x="664" 
d="M630 529q-13 -63 -43 -102t-92 -58q68 -20 85 -61t3 -112q-10 -50 -27 -83t-52.5 -61t-97 -41t-152.5 -13h-238l150 719h242q78 0 128 -13.5t71.5 -38.5t27.5 -59.5t-5 -76.5zM506 515q11 54 -14.5 78.5t-107.5 24.5h-118l-42 -204l118 -1q83 0 118 24t46 78zM464 208
q6 27 3 48t-17 35.5t-45.5 21.5t-81.5 7h-119l-46 -223h118q67 0 105.5 12t56 35t26.5 64z" />
    <glyph glyph-name="C" unicode="C" horiz-adv-x="671" 
d="M277 -18q-149 0 -200.5 92.5t-11.5 281.5q41 195 126 286t243 91q128 0 183.5 -68.5t27.5 -205.5h-118q15 92 -11 130.5t-105 38.5q-86 0 -140 -64t-84 -208q-32 -146 -8 -207.5t121 -61.5q142 0 183 165h118q-32 -139 -110.5 -204.5t-213.5 -65.5z" />
    <glyph glyph-name="D" unicode="D" horiz-adv-x="689" 
d="M166 717h194q137 0 206 -37t84 -117t-13 -207q-21 -101 -48.5 -164t-76 -109t-121 -65.5t-181.5 -19.5h-194zM515 356q11 56 15.5 93.5t0.5 67.5t-15.5 47.5t-36 28.5t-57 15t-81.5 4h-76l-105 -506h76q131 -1 189 48.5t90 201.5z" />
    <glyph glyph-name="E" unicode="E" horiz-adv-x="588" 
d="M610 609h-347l-40 -190h299l-22 -102h-298l-44 -212h354l-23 -105h-473l149 714h467z" />
    <glyph glyph-name="F" unicode="F" horiz-adv-x="546" 
d="M596 608h-332l-44 -208h283l-22 -104h-282l-62 -296h-121l149 714h452z" />
    <glyph glyph-name="G" unicode="G" horiz-adv-x="678" 
d="M647 478h-117q14 74 -14.5 112t-105.5 38q-86 0 -139.5 -64.5t-83.5 -207.5q-32 -144 -6.5 -206.5t126.5 -62.5q40 0 78 11t57.5 23t20.5 19l26 119h-123l21 99h234l-55 -268q-1 -6 -12 -18t-35.5 -27.5t-56.5 -29.5t-81 -23.5t-105 -9.5q-150 -1 -201 90t-10 284
q41 197 125.5 287t242.5 90q131 0 185 -67t29 -188z" />
    <glyph glyph-name="H" unicode="H" horiz-adv-x="706" 
d="M583 714h121l-149 -714h-121l64 309h-297l-64 -309h-121l149 714h121l-61 -292h297z" />
    <glyph glyph-name="I" unicode="I" horiz-adv-x="288" 
d="M16 0l149 714h121l-149 -714h-121z" />
    <glyph glyph-name="J" unicode="J" horiz-adv-x="435" 
d="M15 0h-68l24 114h68q70 0 104 15t55.5 57.5t41.5 136.5l80 391h121l-80 -391q-14 -68 -25 -108.5t-29 -81.5t-40.5 -62.5t-57.5 -39.5t-82 -24.5t-112 -6.5z" />
    <glyph glyph-name="K" unicode="K" horiz-adv-x="639" 
d="M701 714l-324 -322l191 -392h-132l-147 305l-112 -111l-40 -194h-121l149 714h121l-73 -350l331 350h157z" />
    <glyph glyph-name="L" unicode="L" horiz-adv-x="503" 
d="M160 110h281l-24 -110h-401l149 714h121z" />
    <glyph glyph-name="M" unicode="M" horiz-adv-x="889" 
d="M887 714l-151 -714h-117l130 585l-326 -587h-116l-68 577l-114 -575h-109l149 714h171l61 -558l301 558h189z" />
    <glyph glyph-name="N" unicode="N" horiz-adv-x="724" 
d="M604 714h118l-150 -714h-132l-198 531l-112 -531h-114l150 714h132l204 -542z" />
    <glyph glyph-name="O" unicode="O" horiz-adv-x="703" 
d="M280 -18q-295 0 -216 374q41 195 126.5 286t246.5 91q294 0 215 -377q-41 -194 -126 -284t-246 -90zM303 87q89 0 143 63t84 206q33 145 8.5 208.5t-123.5 63.5q-90 0 -144.5 -64t-83.5 -208q-33 -144 -8 -206.5t124 -62.5z" />
    <glyph glyph-name="P" unicode="P" horiz-adv-x="656" 
d="M166 717h242q151 0 212 -53t32 -191q-30 -142 -103 -190.5t-244 -48.5h-120l-49 -234h-120zM529 476q6 26 6 46.5t-3.5 35t-13 24.5t-21 15.5t-31 9t-38 4.5t-45.5 1h-119l-56 -269l119 -1q94 -1 139 23.5t63 110.5z" />
    <glyph glyph-name="Q" unicode="Q" horiz-adv-x="701" 
d="M651 356q-48 -229 -158 -313l101 -95l-84 -76l-112 125q-52 -15 -118 -15q-295 0 -216 374q41 195 126.5 286t246.5 91q293 0 214 -377zM187 356q-33 -144 -8.5 -206.5t124.5 -62.5q89 0 142.5 63t83.5 206q33 145 8.5 208.5t-123.5 63.5q-89 0 -143.5 -64t-83.5 -208z
" />
    <glyph glyph-name="R" unicode="R" horiz-adv-x="669" 
d="M166 715h244q149 0 206 -55t34 -177q-17 -89 -54 -138.5t-110 -71.5l86 -273h-131l-73 255q-18 -1 -57 -1h-119l-53 -254h-123zM525 485q5 25 5 44t-3 32t-12.5 22t-20.5 14.5t-29.5 8t-36 3.5t-44.5 1h-118l-52 -250l119 -1q35 0 56.5 1.5t46.5 8.5t40.5 20.5t28.5 37
t20 58.5z" />
    <glyph glyph-name="S" unicode="S" horiz-adv-x="625" 
d="M20 223h117q-28 -136 124 -136q148 -1 173 100q10 39 -6.5 64.5t-49.5 37.5t-74.5 21.5t-82.5 23t-73 34.5t-46.5 63.5t-1.5 103.5q41 199 296 198q127 0 183 -57.5t33 -163.5h-115q11 51 -15 85t-102 34q-133 1 -159 -100q-9 -34 3 -57.5t38 -36t61 -23t72.5 -18
t72.5 -22.5t60 -36t35.5 -58t-0.5 -89q-22 -106 -98.5 -158t-222.5 -51q-124 0 -185.5 59.5t-36.5 181.5z" />
    <glyph glyph-name="T" unicode="T" horiz-adv-x="546" 
d="M611 714l-24 -110h-195l-129 -604h-120l128 604h-196l23 110h513z" />
    <glyph glyph-name="U" unicode="U" horiz-adv-x="693" 
d="M273 -18q-138 0 -186.5 86t-9.5 273l78 373h121l-78 -373q-32 -144 -12 -199t109 -55q80 0 127 56.5t76 197.5l78 373h123l-78 -373q-40 -193 -117.5 -276t-230.5 -83z" />
    <glyph glyph-name="V" unicode="V" horiz-adv-x="601" 
d="M546 714h135l-404 -714h-113l-104 714h127l65 -546z" />
    <glyph glyph-name="W" unicode="W" horiz-adv-x="953" 
d="M896 714h135l-363 -714h-122l-38 539l-261 -539h-114l-64 714h125l30 -540l253 540h125l37 -548z" />
    <glyph glyph-name="X" unicode="X" horiz-adv-x="633" 
d="M706 714l-314 -363l170 -351h-133l-126 260l-227 -260h-146l322 365l-169 349h133l124 -256l219 256h147z" />
    <glyph glyph-name="Y" unicode="Y" horiz-adv-x="602" 
d="M537 714h143l-342 -463l-52 -251h-120l52 251h1l-158 463h129l107 -342z" />
    <glyph glyph-name="Z" unicode="Z" horiz-adv-x="579" 
d="M615 660l-5 -23l-6 -30h-1l-3 -16l-471 -483h374l-22 -105h-521l11 51h-1l7 31l5 23h1l3 15l471 484h-354l22 105h500z" />
    <glyph glyph-name="bracketleft" unicode="[" horiz-adv-x="398" 
d="M437 655h-155l-156 -749h155l-22 -105h-270l200 959h270z" />
    <glyph glyph-name="backslash" unicode="\" horiz-adv-x="443" 
d="M310 -40h-113l-128 840h112z" />
    <glyph glyph-name="bracketright" unicode="]" horiz-adv-x="397" 
d="M390 760l-200 -959h-270l23 105h154l155 749h-155l23 105h270z" />
    <glyph glyph-name="asciicircum" unicode="^" horiz-adv-x="434" 
d="M398 464h-95l-37 162l-103 -162h-98l180 276h87z" />
    <glyph glyph-name="underscore" unicode="_" horiz-adv-x="571" 
d="M12 0l19 90h412l-19 -90h-412z" />
    <glyph glyph-name="grave" unicode="`" horiz-adv-x="512" 
d="M311 617h-104l-69 158h128z" />
    <glyph glyph-name="a" unicode="a" horiz-adv-x="583" 
d="M332 551q52 0 88.5 -9t57 -28.5t31 -41.5t10 -58t-4.5 -67.5t-14 -78.5l-27 -126l-21 -141h-97l1 62q-68 -74 -193 -74q-89 0 -128 41t-23 123q7 32 19 57t28 42.5t37.5 30t46 20t53.5 12t60.5 5.5t66.5 2t72 0q19 74 5 109t-80 35q-62 0 -94.5 -28.5t-39.5 -63.5h-104
q5 24 11.5 43t24.5 45.5t43 44.5t69.5 31t101.5 13zM204 69q48 0 91 23.5t67 70.5l17 83q-48 0 -72.5 -0.5t-58 -3t-50 -8.5t-35 -16.5t-27.5 -27.5t-14 -40q-8 -38 10.5 -59.5t71.5 -21.5z" />
    <glyph glyph-name="b" unicode="b" horiz-adv-x="629" 
d="M411 551q107 0 145 -72.5t10 -208.5q-29 -138 -94.5 -209t-177.5 -71q-123 0 -160 80l-28 -70h-97l39 148l127 612h117l-60 -286q82 77 179 77zM447 270q39 188 -79 188q-91 0 -160 -96l-37 -177q3 -42 30.5 -72t88.5 -30q119 0 157 187z" />
    <glyph glyph-name="c" unicode="c" horiz-adv-x="574" 
d="M225 -13q-126 0 -170 74t-16 209q28 140 97 211.5t208 71.5q109 0 157 -56.5t31 -157.5h-114q11 61 -11 91t-83 30q-128 0 -167 -190q-23 -97 -5 -143t93 -46q49 0 88.5 28t50.5 76h116q-25 -96 -90.5 -147t-184.5 -51z" />
    <glyph glyph-name="d" unicode="d" horiz-adv-x="622" 
d="M520 760h116l-127 -612l-24 -148h-97l2 70q-71 -80 -193 -80q-215 0 -157 280q29 138 95 209.5t179 71.5q97 0 149 -68zM239 83q60 0 101 31t62 73l35 172q-27 99 -120 99q-119 0 -158 -188q-20 -92 -1 -139.5t81 -47.5z" />
    <glyph glyph-name="e" unicode="e" horiz-adv-x="587" 
d="M522 249h-369q-20 -86 -2 -130t91 -44q58 0 97 31t47 64h117q-6 -31 -23.5 -60.5t-48.5 -58.5t-84.5 -47t-122.5 -18q-123 0 -168 73t-17 209q30 143 98.5 214.5t204.5 71.5q121 0 166.5 -76.5t13.5 -228.5zM324 468q-106 0 -150 -135h249q7 70 -15.5 102.5t-83.5 32.5z
" />
    <glyph glyph-name="f" unicode="f" horiz-adv-x="342" 
d="M399 672h-43q-42 0 -65 -27t-37 -97l-1 -7h118l-19 -93h-119l-94 -448h-115l94 448h-73l19 93h74l1 7q10 51 23 85.5t37 67.5t64 49t97 16h59z" />
    <glyph glyph-name="g" unicode="g" horiz-adv-x="627" 
d="M499 541h97l-39 -156l-80 -387q-19 -91 -40 -127q-63 -111 -261 -111q-44 0 -77.5 10.5t-52 26.5t-30.5 36t-15 40t-4 36t1 27l1 10h108q-2 -9 -3 -14t1 -23t10.5 -29t30.5 -21t57 -10q43 0 72 10.5t45.5 33.5t24.5 45t16 60l12 55q-70 -63 -179 -63q-213 0 -156 280
q29 138 95 209.5t178 71.5q63 0 102 -30t54 -63zM237 83q64 0 104.5 33t60.5 78l34 164q-10 38 -38 69t-83 31q-119 0 -158 -188q-20 -92 -1 -139.5t81 -47.5z" />
    <glyph glyph-name="h" unicode="h" horiz-adv-x="623" 
d="M409 553q98 0 132 -52t7 -178l-68 -323h-116l67 312q8 42 10 73t-16.5 48.5t-60.5 17.5q-90 0 -169 -115l-70 -336h-116l159 760h116l-62 -294q80 87 187 87z" />
    <glyph glyph-name="i" unicode="i" horiz-adv-x="246" 
d="M128 621l30 139h116l-30 -139h-116zM-5 0l113 541h116l-113 -541h-116z" />
    <glyph glyph-name="j" unicode="j" horiz-adv-x="275" 
d="M142 621l30 139h116l-30 -139h-116zM-146 -212l21 97q29 0 49 2.5t35 12t24 18.5t17 30.5t12 39t12 53.5l103 500h116l-103 -500q-17 -81 -33.5 -125t-48 -75.5t-78.5 -42t-126 -10.5z" />
    <glyph glyph-name="k" unicode="k" horiz-adv-x="548" 
d="M566 541l-244 -222l157 -319h-123l-119 241l-76 -69l-36 -172h-116l159 760h116l-94 -450l231 231h145z" />
    <glyph glyph-name="l" unicode="l" horiz-adv-x="270" 
d="M9 0l159 760h116l-159 -760h-116z" />
    <glyph glyph-name="m" unicode="m" horiz-adv-x="936" 
d="M732 553q92 0 124 -52t6 -178l-68 -323h-113l66 312q17 62 5.5 100.5t-65.5 38.5q-82 0 -151 -96l-6 -32l-67 -323h-111l66 312q17 62 6 100.5t-66 38.5q-85 0 -159 -109l-70 -342h-116l82 393l23 148h97l-4 -92q31 38 81 71t112 33q63 0 96.5 -23.5t40.5 -78.5
q31 37 80.5 69.5t110.5 32.5z" />
    <glyph glyph-name="n" unicode="n" horiz-adv-x="621" 
d="M407 553q98 0 132 -52t8 -178l-68 -323h-116l66 312q8 42 10 73t-16.5 48.5t-60.5 17.5q-84 0 -162 -106l-71 -345h-116l82 393l23 148h97l-3 -87q29 37 78.5 68t116.5 31z" />
    <glyph glyph-name="o" unicode="o" horiz-adv-x="600" 
d="M229 -14q-126 0 -172 75t-18 208q29 139 99.5 212t209.5 73q126 1 172 -75.5t19 -209.5q-29 -138 -100 -210.5t-210 -72.5zM249 80q67 0 108.5 46t61.5 143q24 96 5.5 144t-96.5 48q-67 0 -109 -47.5t-62 -144.5q-24 -97 -5 -143t97 -46z" />
    <glyph glyph-name="p" unicode="p" horiz-adv-x="626" 
d="M407 551q108 0 146 -72.5t10 -208.5q-29 -138 -94.5 -209t-178.5 -71q-109 0 -150 62l-61 -292h-116l131 629l25 152h97l-3 -83q79 93 194 93zM444 270q22 92 4 140t-84 48q-87 0 -161 -101l-35 -172q3 -42 30 -72t88 -30q118 0 158 187z" />
    <glyph glyph-name="q" unicode="q" horiz-adv-x="628" 
d="M501 541h98l-38 -142l-133 -639h-116l61 293q-66 -63 -176 -63q-215 0 -157 280q29 138 95 209.5t179 71.5q63 0 100.5 -29t53.5 -63zM239 83q60 0 100.5 30.5t61.5 72.5l36 174q-25 98 -120 98q-119 0 -158 -188q-20 -92 -1 -139.5t81 -47.5z" />
    <glyph glyph-name="r" unicode="r" horiz-adv-x="402" 
d="M215 541l-5 -103q24 44 76 80t138 36l-23 -108q-50 0 -91.5 -18.5t-65.5 -47t-36 -49t-18 -38.5l-61 -293h-116l79 384l26 157h97z" />
    <glyph glyph-name="s" unicode="s" horiz-adv-x="540" 
d="M15 176h105q-22 -101 98 -101q56 -1 89.5 17t39.5 49q5 25 -5.5 42.5t-32 25.5t-49.5 15.5t-57.5 13t-56.5 16.5t-47 28t-28 46.5t1 71.5q33 154 247 153q106 0 152 -43.5t29 -127.5h-104q8 39 -13 61t-80 23q-54 0 -82 -19.5t-33 -46.5q-7 -37 23 -56t77 -28t92.5 -21.5
t72 -48.5t14.5 -97q-17 -82 -81 -122.5t-186 -39.5q-223 0 -185 189z" />
    <glyph glyph-name="t" unicode="t" horiz-adv-x="377" 
d="M239 448l-49 -236q-14 -69 -4 -95.5t52 -26.5h57l-20 -94h-72q-57 0 -90.5 16.5t-43.5 49.5t-8.5 66.5t12.5 83.5l49 236h-68l20 93h68l30 145l120 21l-34 -166h125l-19 -93h-125z" />
    <glyph glyph-name="u" unicode="u" horiz-adv-x="620" 
d="M460 541h116l-81 -391l-24 -150h-97l4 92q-11 -15 -27 -30.5t-41.5 -33.5t-60 -29.5t-71.5 -11.5q-93 0 -128.5 51.5t-10.5 172.5l69 330h115l-65 -312q-8 -37 -9.5 -58t3 -42t22 -30.5t49.5 -9.5q90 0 168 116z" />
    <glyph glyph-name="v" unicode="v" horiz-adv-x="525" 
d="M434 541h133l-321 -541h-114l-91 541h120l53 -414z" />
    <glyph glyph-name="w" unicode="w" horiz-adv-x="753" 
d="M674 541h122l-281 -541h-97l-28 397l-188 -397h-101l-59 541h114l28 -370l168 370h126l26 -371z" />
    <glyph glyph-name="x" unicode="x" horiz-adv-x="517" 
d="M560 541l-244 -282l124 -259h-129l-85 177l-152 -177h-140l246 274l-128 267h129l88 -184l153 184h138z" />
    <glyph glyph-name="y" unicode="y" horiz-adv-x="530" 
d="M440 541h132l-428 -761h-114l119 220h-29l-83 541h117l52 -434z" />
    <glyph glyph-name="z" unicode="z" horiz-adv-x="487" 
d="M481 481l-12 -60l-350 -324l283 1l-20 -95h-415l19 94h1l5 23l351 326l-275 -1l20 92h405z" />
    <glyph glyph-name="braceleft" unicode="{" horiz-adv-x="430" 
d="M491 759l-23 -105q-84 0 -113.5 -20.5t-44.5 -90.5l-32 -155q-7 -36 -28 -62t-33.5 -32.5t-21.5 -9.5q3 -1 7 -3.5t13 -10t14 -19t8.5 -29.5t-2.5 -42l-32 -155q-14 -71 5.5 -91t105.5 -20l-22 -105q-106 0 -154.5 17.5t-60.5 62t7 120.5l36 171q6 32 -7.5 44t-65.5 12
l20 97q51 0 70.5 12t25.5 43l37 179q11 51 21.5 80t29 53.5t50 35.5t76 17t114.5 6z" />
    <glyph glyph-name="bar" unicode="|" horiz-adv-x="410" 
d="M55 -199l217 1019h100l-216 -1019h-101z" />
    <glyph glyph-name="braceright" unicode="}" horiz-adv-x="429" 
d="M-78 -191l22 105q85 0 114 20.5t43 90.5l33 155q4 22 14 41t20 29.5t22.5 19t18 11t9.5 3.5q-3 1 -7 3.5t-13.5 10t-14.5 19t-8.5 29.5t2.5 42l32 155q14 71 -5.5 91t-105.5 20l22 105q107 0 155 -17.5t59.5 -62t-7.5 -120.5l-35 -171q-7 -32 7 -44t67 -12l-20 -97
q-53 0 -72 -12t-25 -43l-37 -179q-11 -51 -21.5 -80t-28.5 -53.5t-49.5 -35.5t-76 -17t-114.5 -6z" />
    <glyph glyph-name="asciitilde" unicode="~" horiz-adv-x="555" 
d="M440 380h73q-31 -155 -167 -155q-47 0 -90 27.5t-80 27.5q-29 0 -49.5 -19.5t-23.5 -35.5h-74q15 67 52.5 111t115.5 44q47 0 90 -27.5t80 -27.5q29 0 49.5 19.5t23.5 35.5z" />
    <glyph glyph-name="uni00A0" unicode="&#xa0;" horiz-adv-x="212" 
 />
    <glyph glyph-name="exclamdown" unicode="&#xa1;" horiz-adv-x="248" 
d="M86 420l26 121h115l-26 -121h-115zM-37 -174l120 534h100l-105 -534h-115z" />
    <glyph glyph-name="cent" unicode="&#xa2;" horiz-adv-x="583" 
d="M541 414h-114q11 61 -12 91.5t-85 30.5q-133 0 -172 -190q-24 -97 -5 -143.5t96 -46.5q51 0 91.5 28.5t51.5 76.5h116q-45 -179 -234 -197l-20 -89h-89l19 90q-199 23 -144 281q27 128 87 198.5t176 82.5l17 78h90l-17 -78q181 -20 148 -213z" />
    <glyph glyph-name="sterling" unicode="&#xa3;" horiz-adv-x="567" 
d="M573 500h-122q24 118 -68 118q-44 0 -74 -30.5t-40 -76.5q-4 -19 -4.5 -41t1.5 -36.5t6 -40.5l6 -39h157l-19 -88h-134q-2 -18 -6 -39q-17 -83 -99 -133h302l-20 -98h-444l20 98q4 2 10.5 5t24.5 14.5t32.5 25.5t29 37.5t20.5 50.5q4 21 6 39h-87l18 88h62q0 2 -2 13.5
t-2.5 14.5t-2.5 13.5t-2 15t-1 14.5t-1 16v16t1 17.5t2.5 17.5t3.5 20q40 196 255 196q104 0 146.5 -58.5t24.5 -149.5z" />
    <glyph glyph-name="currency" unicode="&#xa4;" horiz-adv-x="682" 
d="M631 94l-70 -69l-64 64q-61 -45 -165 -45q-103 0 -164 44l-70 -70l-70 69l79 78q-29 61 -29 158q0 90 26 154l-72 72l69 69l62 -62q63 50 169 50q101 0 160 -42l63 63l69 -69l-69 -69q31 -66 31 -166q0 -95 -28 -157zM332 149q74 0 104 45t30 129q0 85 -30.5 131.5
t-103.5 46.5q-134 0 -134 -178q0 -84 30.5 -129t103.5 -45z" />
    <glyph glyph-name="yen" unicode="&#xa5;" horiz-adv-x="559" 
d="M637 714l-277 -390h81l-14 -66h-113l-11 -50h115l-15 -65h-113l-30 -143h-121l31 143h-115l14 65h115l10 50h-115l14 66h80l-122 390h131l93 -330l223 330h139z" />
    <glyph glyph-name="brokenbar" unicode="&#xa6;" horiz-adv-x="410" 
d="M181 395l91 425h100l-90 -425h-101zM250 245l-90 -425h-101l90 425h101z" />
    <glyph glyph-name="section" unicode="&#xa7;" horiz-adv-x="571" 
d="M566 613h-104q8 40 -12 61.5t-87 21.5q-60 0 -89.5 -19.5t-34.5 -46.5q-6 -31 15.5 -49.5t58.5 -24.5t79.5 -16t78 -23.5t53.5 -48.5t7 -89q-18 -82 -104 -121q69 -40 50 -132q-17 -81 -82 -122t-188 -41q-115 0 -163 45.5t-29 142.5h105q-11 -53 14.5 -76.5t90.5 -23.5
q59 0 93.5 18.5t41.5 48.5q8 37 -23.5 56.5t-80.5 28t-97 21.5t-76 50.5t-14 101.5q17 80 99 123q-63 40 -45 131q31 153 255 153q115 0 160.5 -43t27.5 -127zM414 371q3 15 0.5 27t-11.5 20.5t-19 14.5t-28 11t-31 8t-36 7.5t-36 7.5q-56 -31 -68 -90q-3 -17 2.5 -30
t13.5 -20.5t28.5 -14.5t33.5 -10t41 -8l30 -6q68 31 80 83z" />
    <glyph glyph-name="dieresis" unicode="&#xa8;" horiz-adv-x="532" 
d="M146 618l30 140h115l-30 -140h-115zM326 618l30 140h115l-29 -140h-116z" />
    <glyph glyph-name="copyright" unicode="&#xa9;" horiz-adv-x="800" 
d="M318 -24q-94 0 -158 29.5t-92 80.5t-35 118.5t12 143.5q35 167 142.5 272t290.5 105q77 0 133.5 -20t89.5 -54t49 -82.5t15.5 -103t-13.5 -117.5q-17 -79 -49.5 -144t-84 -117.5t-128 -81.5t-172.5 -29zM332 40q77 0 139 25.5t102 71t65 97.5t38 114q11 49 12 92.5
t-10.5 84.5t-36.5 70.5t-70 47.5t-107 18q-77 0 -138.5 -26.5t-101.5 -72.5t-65.5 -99t-38.5 -115q-10 -49 -11 -92t10.5 -83.5t36 -69t69.5 -46t107 -17.5zM354 128q-99 0 -133.5 54t-9.5 170q25 117 82 171.5t156 54.5q87 0 122.5 -40.5t17.5 -127.5h-104q14 84 -54 84
q-44 0 -70 -31.5t-42 -110.5q-16 -74 -4 -106.5t56 -32.5q67 0 88 81h105q-20 -87 -72 -126.5t-138 -39.5z" />
    <glyph glyph-name="ordfeminine" unicode="&#xaa;" horiz-adv-x="415" 
d="M291 749q76 0 110 -25t33 -69.5t-12 -105.5l-16 -86l-18 -103h-89l-1 42q-39 -51 -126 -51q-72 0 -99.5 29t-14.5 91q6 28 15.5 47.5t28.5 31.5t35.5 19t51 9.5t59 3t75.5 0.5q13 51 6 74t-48 23q-66 0 -78 -58h-96q5 20 8 31t16 32.5t30.5 33t51 21.5t78.5 10zM212 414
q58 0 85 44l15 71h-39.5t-33.5 -1.5t-27 -5.5t-21 -10.5t-15 -16.5t-9 -25q-11 -56 45 -56z" />
    <glyph glyph-name="guillemotleft" unicode="&#xab;" horiz-adv-x="562" 
d="M329 445l-170 -191l92 -168h-124l-81 161l7 30l149 168h127zM527 445l-169 -191l93 -168h-124l-83 161l7 30l150 168h126z" />
    <glyph glyph-name="registered" unicode="&#xae;" horiz-adv-x="800" 
d="M478 725q77 0 133.5 -20t89.5 -54t49 -82.5t15.5 -103t-13.5 -117.5q-17 -79 -49.5 -144t-84 -117.5t-128 -81.5t-172.5 -29q-94 0 -158 29.5t-92 80.5t-35 118.5t12 143.5q35 167 142.5 272t290.5 105zM676 348q11 49 12 92.5t-10.5 84.5t-36.5 70.5t-70 47.5t-107 18
q-77 0 -138.5 -26.5t-101.5 -72.5t-65.5 -99t-38.5 -115q-10 -49 -11 -92t10.5 -83.5t36.5 -69t69.5 -46t106.5 -17.5q77 0 139 25.5t102 71t65 97.5t38 114zM278 561h162q104 0 141 -32t20 -112q-21 -101 -106 -129l46 -145h-101l-41 131h-76l-28 -131h-105zM494 417
q7 38 -12 49t-63 11h-53l-25 -120h53q28 0 45 3t33 17t22 40z" />
    <glyph glyph-name="macron" unicode="&#xaf;" horiz-adv-x="536" 
d="M143 728h270l-20 -89h-269z" />
    <glyph glyph-name="degree" unicode="&#xb0;" horiz-adv-x="361" 
d="M163 481q-121 0 -95 126q27 127 148 127t94 -127q-27 -126 -147 -126zM176 545q47 0 58 62q8 21 1 42t-32 21q-44 0 -60 -63q-11 -62 33 -62z" />
    <glyph glyph-name="plusminus" unicode="&#xb1;" horiz-adv-x="545" 
d="M342 423h149l-21 -94h-147l-23 -106h-101l23 106h-148l20 94h147l23 106h101zM22 87l21 97h397l-21 -97h-397z" />
    <glyph glyph-name="uni00B2" unicode="&#xb2;" horiz-adv-x="453" 
d="M-33 298l16 80q95 60 177 122q43 32 57 43t42.5 36t41 45.5t17.5 44.5q18 87 -69 87q-43 0 -70.5 -25t-37.5 -72h-100q19 89 71 134t155 45q90 0 127.5 -44t21.5 -119q-9 -42 -36.5 -81.5t-52.5 -62.5t-70 -59q-31 -24 -64.5 -49t-51.5 -37l-18 -13l230 6l-17 -81h-369z
" />
    <glyph glyph-name="uni00B3" unicode="&#xb3;" horiz-adv-x="456" 
d="M446 823l-15 -71l-155 -122q132 -27 103 -167q-37 -176 -232 -176q-93 0 -131.5 48t-23.5 121h97q-7 -37 10.5 -63t63.5 -26q48 0 79.5 27t40.5 73q23 105 -90 105l-63 -4l13 61l161 120l-230 -6l18 80h354z" />
    <glyph glyph-name="acute" unicode="&#xb4;" horiz-adv-x="512" 
d="M112 617l111 158h128l-135 -158h-104z" />
    <glyph glyph-name="paragraph" unicode="&#xb6;" horiz-adv-x="616" 
d="M630 760l-159 -760h-99l136 656h-67l-137 -656h-100l58 277q-146 4 -194 55t-19 186q20 95 53 145t93.5 72.5t167.5 24.5h267zM168 519q-17 -82 8 -108.5t108 -28.5l57 273q-81 -2 -118.5 -28t-54.5 -108z" />
    <glyph glyph-name="periodcentered" unicode="&#xb7;" horiz-adv-x="250" 
d="M48 233l27 129h117l-27 -129h-117z" />
    <glyph glyph-name="cedilla" unicode="&#xb8;" horiz-adv-x="520" 
d="M163 3l-44 -56q35 -5 55.5 -26.5t12.5 -59.5q-21 -104 -152 -104q-30 0 -51.5 1.5t-27.5 3.5l-7 1l15 71q18 -6 62 -6q55 0 62 40q3 14 -4 22.5t-24 12t-29.5 4.5t-32.5 1h-2l70 95h97z" />
    <glyph glyph-name="uni00B9" unicode="&#xb9;" horiz-adv-x="266" 
d="M181 832h64l-114 -536h-98l95 444l-102 -44l17 80z" />
    <glyph glyph-name="ordmasculine" unicode="&#xba;" horiz-adv-x="422" 
d="M211 349q-92 0 -127 52t-15 149q22 103 71.5 152.5t155.5 49.5q184 0 143 -202q-22 -102 -72 -151.5t-156 -49.5zM229 430q41 0 63.5 27t36.5 93q14 65 3 93t-53 28q-41 0 -63.5 -27.5t-36.5 -93.5q-15 -65 -4 -92.5t54 -27.5z" />
    <glyph glyph-name="guillemotright" unicode="&#xbb;" horiz-adv-x="563" 
d="M291 277l-7 -30l-147 -161h-127l167 183l-89 176h124zM411 445l79 -168l-7 -30l-148 -161h-127l169 183l-90 176h124z" />
    <glyph glyph-name="onequarter" unicode="&#xbc;" horiz-adv-x="948" 
d="M668 769h113l-631 -809h-113zM131 224h-98l95 444l-102 -44l17 80l138 56h64zM905 530l-75 -354h59l-15 -75h-60l-22 -101h-97l22 101h-259l16 75l327 354h104zM568 176h165l51 235z" />
    <glyph glyph-name="onehalf" unicode="&#xbd;" horiz-adv-x="990" 
d="M668 769h113l-631 -809h-113zM131 224h-98l95 444l-102 -44l17 80l138 56h64zM953 379q-9 -42 -36.5 -81.5t-52.5 -62.5t-70 -59q-31 -24 -64.5 -49t-51.5 -37l-18 -13l230 6l-17 -81h-369l16 80q95 60 177 122q43 32 57 43t42.5 36t41 45.5t17.5 44.5q18 87 -69 87
q-43 0 -70.5 -25t-37.5 -72h-100q19 89 71 134t155 45q90 0 127.5 -44t21.5 -119z" />
    <glyph glyph-name="threequarters" unicode="&#xbe;" horiz-adv-x="1121" 
d="M841 769h113l-631 -809h-113zM379 391q-37 -176 -232 -176q-93 0 -131.5 48t-23.5 121h97q-7 -37 10.5 -63t63.5 -26q48 0 79.5 27t40.5 73q23 105 -90 105l-63 -4l13 61l161 120l-230 -6l18 80h354l-15 -71l-155 -122q132 -27 103 -167zM1078 530l-75 -354h59l-15 -75
h-60l-22 -101h-97l22 101h-259l16 75l327 354h104zM741 176h165l51 235z" />
    <glyph glyph-name="questiondown" unicode="&#xbf;" horiz-adv-x="524" 
d="M377 519l-25 -121h-116l25 121h116zM228 338h107l-4 -23q-11 -53 -34.5 -94t-51 -66.5t-54 -48.5t-48 -52.5t-28.5 -65.5q-10 -50 5 -77.5t67 -27.5q51 0 79 34t43 102h117q-26 -124 -88 -183t-176 -59q-106 0 -146 53.5t-21 142.5q11 51 35 92.5t52.5 68.5t56.5 52
t51.5 57.5t32.5 71.5z" />
    <glyph glyph-name="Agrave" unicode="&#xc0;" horiz-adv-x="639" 
d="M463 760h-105l-69 154h127zM459 0l-22 162h-282l-90 -162h-126l413 714h114l114 -714h-121zM213 267h210l-41 307z" />
    <glyph glyph-name="Aacute" unicode="&#xc1;" horiz-adv-x="639" 
d="M607 914l-133 -154h-106l110 154h129zM352 714h114l114 -714h-121l-22 162h-282l-90 -162h-126zM213 267h210l-41 307z" />
    <glyph glyph-name="Acircumflex" unicode="&#xc2;" horiz-adv-x="639" 
d="M435 823l-72 -63h-105l132 138h114l75 -138h-99zM459 0l-22 162h-282l-90 -162h-126l413 714h114l114 -714h-121zM213 267h210l-41 307z" />
    <glyph glyph-name="Atilde" unicode="&#xc3;" horiz-adv-x="639" 
d="M379 802q-25 0 -40 -14.5t-17 -27.5h-59q28 132 123 132q31 0 55.5 -17t41.5 -17q25 0 40.5 14.5t17.5 27.5h60q-14 -68 -41.5 -102t-80.5 -34q-30 0 -56.5 19t-43.5 19zM352 714h114l114 -714h-121l-22 162h-282l-90 -162h-126zM213 267h210l-41 307z" />
    <glyph glyph-name="Adieresis" unicode="&#xc4;" horiz-adv-x="639" 
d="M415 899l-29 -139h-116l29 139h116zM595 899l-29 -139h-116l28 139h117zM352 714h114l114 -714h-121l-22 162h-282l-90 -162h-126zM213 267h210l-41 307z" />
    <glyph glyph-name="Aring" unicode="&#xc5;" horiz-adv-x="639" 
d="M416 760q-40 0 -62 25.5t-13 65.5q20 91 114 91q40 0 62 -25.5t13 -65.5q-19 -91 -114 -91zM403 851q-6 -34 26 -34q14 0 25 9.5t14 24.5q4 16 -3 25t-22 9t-26 -9.5t-14 -24.5zM459 0l-22 162h-282l-90 -162h-126l413 714h114l114 -714h-121zM213 267h210l-41 307z" />
    <glyph glyph-name="AE" unicode="&#xc6;" horiz-adv-x="931" 
d="M952 609h-347l-40 -190h300l-22 -102h-299l-44 -212h355l-23 -105h-465l34 162h-209l-120 -162h-133l536 714h500zM270 267h153l59 286z" />
    <glyph glyph-name="Ccedilla" unicode="&#xc7;" horiz-adv-x="671" 
d="M645 459h-118q15 92 -11 130.5t-105 38.5q-86 0 -140 -64t-84 -208q-32 -146 -8 -207.5t121 -61.5q142 0 183 165h118q-28 -124 -93.5 -189t-174.5 -78l-31 -40q35 -5 55.5 -26.5t12.5 -59.5q-21 -104 -152 -104q-30 0 -51.5 1.5t-28.5 3.5l-6 1l15 71q18 -6 62 -6
q55 0 62 40q3 14 -4 22.5t-24 12t-29.5 4.5t-32.5 1h-2l57 78q-125 12 -166.5 104t-4.5 268q41 195 126 286t243 91q128 0 183.5 -68.5t27.5 -205.5z" />
    <glyph glyph-name="Egrave" unicode="&#xc8;" horiz-adv-x="588" 
d="M446 760h-105l-69 154h127zM610 609h-347l-40 -190h299l-22 -102h-298l-44 -212h354l-23 -105h-473l149 714h467z" />
    <glyph glyph-name="Eacute" unicode="&#xc9;" horiz-adv-x="588" 
d="M590 914l-133 -154h-106l110 154h129zM610 609h-347l-40 -190h299l-22 -102h-298l-44 -212h354l-23 -105h-473l149 714h467z" />
    <glyph glyph-name="Ecircumflex" unicode="&#xca;" horiz-adv-x="588" 
d="M418 823l-72 -63h-105l132 138h114l75 -138h-99zM610 609h-347l-40 -190h299l-22 -102h-298l-44 -212h354l-23 -105h-473l149 714h467z" />
    <glyph glyph-name="Edieresis" unicode="&#xcb;" horiz-adv-x="588" 
d="M398 899l-29 -139h-116l29 139h116zM578 899l-29 -139h-116l28 139h117zM610 609h-347l-40 -190h299l-22 -102h-298l-44 -212h354l-23 -105h-473l149 714h467z" />
    <glyph glyph-name="Igrave" unicode="&#xcc;" horiz-adv-x="288" 
d="M280 760h-105l-69 154h127zM16 0l149 714h121l-149 -714h-121z" />
    <glyph glyph-name="Iacute" unicode="&#xcd;" horiz-adv-x="288" 
d="M185 760l110 154h129l-133 -154h-106zM16 0l149 714h121l-149 -714h-121z" />
    <glyph glyph-name="Icircumflex" unicode="&#xce;" horiz-adv-x="288" 
d="M321 898l75 -138h-99l-45 63l-72 -63h-105l132 138h114zM16 0l149 714h121l-149 -714h-121z" />
    <glyph glyph-name="Idieresis" unicode="&#xcf;" horiz-adv-x="288" 
d="M87 760l29 139h116l-29 -139h-116zM267 760l28 139h117l-29 -139h-116zM16 0l149 714h121l-149 -714h-121z" />
    <glyph glyph-name="Eth" unicode="&#xd0;" horiz-adv-x="689" 
d="M166 717h194q137 0 206 -37t84 -117t-13 -207q-21 -101 -48.5 -164t-76 -109t-121 -65.5t-181.5 -19.5h-194l68 326h-52l17 78h51zM515 356q11 56 15.5 93.5t0.5 67.5t-15.5 47.5t-36 28.5t-57 15t-81.5 4h-76l-44 -210h140l-16 -78h-140l-45 -218h76q131 -1 189 48.5
t90 201.5z" />
    <glyph glyph-name="Ntilde" unicode="&#xd1;" horiz-adv-x="724" 
d="M415 802q-25 0 -40 -14.5t-17 -27.5h-59q28 132 123 132q31 0 55.5 -17t41.5 -17q25 0 40.5 14.5t17.5 27.5h60q-14 -68 -41.5 -102t-80.5 -34q-30 0 -56.5 19t-43.5 19zM604 714h118l-150 -714h-132l-198 531l-112 -531h-114l150 714h132l204 -542z" />
    <glyph glyph-name="Ograve" unicode="&#xd2;" horiz-adv-x="703" 
d="M491 778h-105l-69 154h127zM280 -18q-295 0 -216 374q41 195 126.5 286t246.5 91q294 0 215 -377q-41 -194 -126 -284t-246 -90zM303 87q89 0 143 63t84 206q33 145 8.5 208.5t-123.5 63.5q-90 0 -144.5 -64t-83.5 -208q-33 -144 -8 -206.5t124 -62.5z" />
    <glyph glyph-name="Oacute" unicode="&#xd3;" horiz-adv-x="703" 
d="M396 778l110 154h129l-133 -154h-106zM280 -18q-295 0 -216 374q41 195 126.5 286t246.5 91q294 0 215 -377q-41 -194 -126 -284t-246 -90zM303 87q89 0 143 63t84 206q33 145 8.5 208.5t-123.5 63.5q-90 0 -144.5 -64t-83.5 -208q-33 -144 -8 -206.5t124 -62.5z" />
    <glyph glyph-name="Ocircumflex" unicode="&#xd4;" horiz-adv-x="703" 
d="M463 841l-72 -63h-105l132 138h114l75 -138h-99zM437 733q294 0 215 -377q-41 -194 -126 -284t-246 -90q-295 0 -216 374q41 195 126.5 286t246.5 91zM530 356q33 145 8.5 208.5t-123.5 63.5q-90 0 -144.5 -64t-83.5 -208q-33 -144 -8 -206.5t124 -62.5q89 0 143 63
t84 206z" />
    <glyph glyph-name="Otilde" unicode="&#xd5;" horiz-adv-x="703" 
d="M569 918h60q-14 -68 -41.5 -102t-80.5 -34q-30 0 -56.5 19t-43.5 19q-25 0 -40 -14.5t-17 -27.5h-59q28 132 123 132q31 0 55.5 -17t41.5 -17q25 0 40.5 14.5t17.5 27.5zM280 -18q-295 0 -216 374q41 195 126.5 286t246.5 91q294 0 215 -377q-41 -194 -126 -284t-246 -90
zM303 87q89 0 143 63t84 206q33 145 8.5 208.5t-123.5 63.5q-90 0 -144.5 -64t-83.5 -208q-33 -144 -8 -206.5t124 -62.5z" />
    <glyph glyph-name="Odieresis" unicode="&#xd6;" horiz-adv-x="703" 
d="M298 778l29 139h116l-29 -139h-116zM478 778l28 139h117l-29 -139h-116zM280 -18q-295 0 -216 374q41 195 126.5 286t246.5 91q294 0 215 -377q-41 -194 -126 -284t-246 -90zM303 87q89 0 143 63t84 206q33 145 8.5 208.5t-123.5 63.5q-90 0 -144.5 -64t-83.5 -208
q-33 -144 -8 -206.5t124 -62.5z" />
    <glyph glyph-name="multiply" unicode="&#xd7;" horiz-adv-x="564" 
d="M506 448l-163 -138l104 -137l-82 -67l-102 136l-160 -136l-54 67l162 138l-103 137l81 65l102 -135l159 135z" />
    <glyph glyph-name="Oslash" unicode="&#xd8;" horiz-adv-x="703" 
d="M733 727l-88 -101q44 -94 7 -270q-41 -194 -126 -284t-246 -90q-102 0 -161 45l-36 -41h-109l95 108q-41 93 -5 262q41 195 126.5 286t246.5 91q98 0 155 -42l32 36h109zM187 356q-19 -90 -18 -148l344 393q-31 27 -98 27q-90 0 -144.5 -64t-83.5 -208zM530 356
q21 99 18 160l-349 -398q32 -31 104 -31q89 0 143 63t84 206z" />
    <glyph glyph-name="Ugrave" unicode="&#xd9;" horiz-adv-x="693" 
d="M481 760h-105l-69 154h127zM273 -18q-138 0 -186.5 86t-9.5 273l78 373h121l-78 -373q-32 -144 -12 -199t109 -55q80 0 127 56.5t76 197.5l78 373h123l-78 -373q-40 -193 -117.5 -276t-230.5 -83z" />
    <glyph glyph-name="Uacute" unicode="&#xda;" horiz-adv-x="693" 
d="M386 760l110 154h129l-133 -154h-106zM273 -18q-138 0 -186.5 86t-9.5 273l78 373h121l-78 -373q-32 -144 -12 -199t109 -55q80 0 127 56.5t76 197.5l78 373h123l-78 -373q-40 -193 -117.5 -276t-230.5 -83z" />
    <glyph glyph-name="Ucircumflex" unicode="&#xdb;" horiz-adv-x="693" 
d="M453 823l-72 -63h-105l132 138h114l75 -138h-99zM576 714h123l-78 -373q-40 -193 -117.5 -276t-230.5 -83q-138 0 -186.5 86t-9.5 273l78 373h121l-78 -373q-32 -144 -12 -199t109 -55q80 0 127 56.5t76 197.5z" />
    <glyph glyph-name="Udieresis" unicode="&#xdc;" horiz-adv-x="693" 
d="M288 760l29 139h116l-29 -139h-116zM468 760l28 139h117l-29 -139h-116zM273 -18q-138 0 -186.5 86t-9.5 273l78 373h121l-78 -373q-32 -144 -12 -199t109 -55q80 0 127 56.5t76 197.5l78 373h123l-78 -373q-40 -193 -117.5 -276t-230.5 -83z" />
    <glyph glyph-name="Yacute" unicode="&#xdd;" horiz-adv-x="602" 
d="M567 914l-133 -154h-106l110 154h129zM537 714h143l-342 -463l-52 -251h-120l52 251h1l-158 463h129l107 -342z" />
    <glyph glyph-name="Thorn" unicode="&#xde;" horiz-adv-x="631" 
d="M262 602h121q155 0 214 -52.5t30 -190.5q-30 -142 -103.5 -191t-244.5 -49h-118l-25 -119h-120l149 714h120zM503 361q5 26 5 46.5t-4 35t-14.5 24.5t-22 15.5t-30.5 9t-37 4.5t-43 1h-117l-56 -268l118 -1q45 0 73 3.5t56 16.5t45.5 40.5t26.5 72.5z" />
    <glyph glyph-name="germandbls" unicode="&#xdf;" horiz-adv-x="609" 
d="M580 562q-9 -42 -34.5 -75.5t-57 -51t-49 -24.5t-29.5 -10q4 -1 8 -1.5t13.5 -2.5t18 -5.5t20 -9t21 -13t19 -17.5t16 -23t10.5 -28.5t3.5 -36t-5.5 -43.5q-26 -115 -105 -168t-256 -53l20 94q104 0 155 25.5t67 101.5q4 18 4 33t-3.5 26.5t-8.5 21t-14.5 16.5
t-17.5 12.5t-21.5 9t-23 5.5t-25.5 3.5t-24.5 2t-24.5 1.5l20 97q40 0 76 9t68.5 36t40.5 68q12 56 -6 84.5t-78 28.5q-49 -1 -86.5 -31.5t-48.5 -81.5l-117 -562h-116l111 531q24 117 84 176.5t193 60.5h1q119 0 160 -58t22 -148z" />
    <glyph glyph-name="agrave" unicode="&#xe0;" horiz-adv-x="583" 
d="M402 617h-104l-69 158h128zM332 551q52 0 88.5 -9t57 -28.5t31 -41.5t10 -58t-4.5 -67.5t-14 -78.5l-27 -126l-21 -141h-97l1 62q-68 -74 -193 -74q-89 0 -128 41t-23 123q7 32 19 57t28 42.5t37.5 30t46 20t53.5 12t60.5 5.5t66.5 2t72 0q19 74 5 109t-80 35
q-62 0 -94.5 -28.5t-39.5 -63.5h-104q5 24 11.5 43t24.5 45.5t43 44.5t69.5 31t101.5 13zM204 69q48 0 91 23.5t67 70.5l17 83q-48 0 -72.5 -0.5t-58 -3t-50 -8.5t-35 -16.5t-27.5 -27.5t-14 -40q-8 -38 10.5 -59.5t71.5 -21.5z" />
    <glyph glyph-name="aacute" unicode="&#xe1;" horiz-adv-x="583" 
d="M532 775l-135 -158h-104l111 158h128zM332 551q52 0 88.5 -9t57 -28.5t31 -41.5t10 -58t-4.5 -67.5t-14 -78.5l-27 -126l-21 -141h-97l1 62q-68 -74 -193 -74q-89 0 -128 41t-23 123q7 32 19 57t28 42.5t37.5 30t46 20t53.5 12t60.5 5.5t66.5 2t72 0q19 74 5 109t-80 35
q-62 0 -94.5 -28.5t-39.5 -63.5h-104q5 24 11.5 43t24.5 45.5t43 44.5t69.5 31t101.5 13zM204 69q48 0 91 23.5t67 70.5l17 83q-48 0 -72.5 -0.5t-58 -3t-50 -8.5t-35 -16.5t-27.5 -27.5t-14 -40q-8 -38 10.5 -59.5t71.5 -21.5z" />
    <glyph glyph-name="acircumflex" unicode="&#xe2;" horiz-adv-x="583" 
d="M373 695l-76 -78h-112l151 158h99l85 -158h-105zM332 551q52 0 88.5 -9t57 -28.5t31 -41.5t10 -58t-4.5 -67.5t-14 -78.5l-27 -126l-21 -141h-97l1 62q-68 -74 -193 -74q-89 0 -128 41t-23 123q7 32 19 57t28 42.5t37.5 30t46 20t53.5 12t60.5 5.5t66.5 2t72 0
q19 74 5 109t-80 35q-62 0 -94.5 -28.5t-39.5 -63.5h-104q5 24 11.5 43t24.5 45.5t43 44.5t69.5 31t101.5 13zM204 69q48 0 91 23.5t67 70.5l17 83q-48 0 -72.5 -0.5t-58 -3t-50 -8.5t-35 -16.5t-27.5 -27.5t-14 -40q-8 -38 10.5 -59.5t71.5 -21.5z" />
    <glyph glyph-name="atilde" unicode="&#xe3;" horiz-adv-x="583" 
d="M314 659q-25 0 -40.5 -14.5t-17.5 -27.5h-59q27 124 123 124q30 0 54 -17t42 -17q25 0 40.5 14.5t17.5 27.5h60q-14 -67 -40.5 -97.5t-79.5 -30.5q-31 0 -57 19t-43 19zM332 551q52 0 88.5 -9t57 -28.5t31 -41.5t10 -58t-4.5 -67.5t-14 -78.5l-27 -126l-21 -141h-97l1 62
q-68 -74 -193 -74q-89 0 -128 41t-23 123q7 32 19 57t28 42.5t37.5 30t46 20t53.5 12t60.5 5.5t66.5 2t72 0q19 74 5 109t-80 35q-62 0 -94.5 -28.5t-39.5 -63.5h-104q5 24 11.5 43t24.5 45.5t43 44.5t69.5 31t101.5 13zM204 69q48 0 91 23.5t67 70.5l17 83
q-48 0 -72.5 -0.5t-58 -3t-50 -8.5t-35 -16.5t-27.5 -27.5t-14 -40q-8 -38 10.5 -59.5t71.5 -21.5z" />
    <glyph glyph-name="adieresis" unicode="&#xe4;" horiz-adv-x="583" 
d="M349 758l-30 -140h-115l30 140h115zM529 758l-29 -140h-116l30 140h115zM332 551q52 0 88.5 -9t57 -28.5t31 -41.5t10 -58t-4.5 -67.5t-14 -78.5l-27 -126l-21 -141h-97l1 62q-68 -74 -193 -74q-89 0 -128 41t-23 123q7 32 19 57t28 42.5t37.5 30t46 20t53.5 12t60.5 5.5
t66.5 2t72 0q19 74 5 109t-80 35q-62 0 -94.5 -28.5t-39.5 -63.5h-104q5 24 11.5 43t24.5 45.5t43 44.5t69.5 31t101.5 13zM204 69q48 0 91 23.5t67 70.5l17 83q-48 0 -72.5 -0.5t-58 -3t-50 -8.5t-35 -16.5t-27.5 -27.5t-14 -40q-8 -38 10.5 -59.5t71.5 -21.5z" />
    <glyph glyph-name="aring" unicode="&#xe5;" horiz-adv-x="583" 
d="M350 610q-48 0 -71.5 32t-14.5 74q9 46 41 76.5t89 30.5q48 0 72.5 -32.5t15.5 -74.5q-9 -46 -41.5 -76t-90.5 -30zM340 716q-3 -15 4 -24.5t22 -9.5q14 0 25 9.5t15 24.5q3 16 -4.5 25.5t-21.5 9.5t-25.5 -9.5t-14.5 -25.5zM332 551q52 0 88.5 -9t57 -28.5t31 -41.5
t10 -58t-4.5 -67.5t-14 -78.5l-27 -126l-21 -141h-97l1 62q-68 -74 -193 -74q-89 0 -128 41t-23 123q7 32 19 57t28 42.5t37.5 30t46 20t53.5 12t60.5 5.5t66.5 2t72 0q19 74 5 109t-80 35q-62 0 -94.5 -28.5t-39.5 -63.5h-104q5 24 11.5 43t24.5 45.5t43 44.5t69.5 31
t101.5 13zM204 69q48 0 91 23.5t67 70.5l17 83q-48 0 -72.5 -0.5t-58 -3t-50 -8.5t-35 -16.5t-27.5 -27.5t-14 -40q-8 -38 10.5 -59.5t71.5 -21.5z" />
    <glyph glyph-name="ae" unicode="&#xe6;" horiz-adv-x="922" 
d="M857 246h-112l-257 1q-20 -85 -1 -128.5t90 -43.5q59 0 97.5 31t46.5 64h118q-7 -31 -24 -60t-48 -58.5t-85 -47.5t-123 -18q-146 0 -183 103q-69 -100 -214 -100q-89 0 -128 42t-22 124q6 32 18 56.5t28 42t36.5 30.5t45 20t52.5 12t59.5 6t65.5 2t71 0q10 36 22 63
q1 41 -20 60t-72 19q-62 0 -94 -28.5t-39 -63.5h-105q5 22 12.5 42.5t26 46.5t44.5 44t69.5 31t98.5 13q116 0 145 -65q73 68 202 68q243 0 179 -308zM508 330h250q7 72 -15.5 105t-83.5 33q-107 0 -151 -138zM203 69q50 0 93 25t67 75q-1 32 7 79q-39 0 -60.5 -0.5t-50 -2
t-44 -5.5t-34.5 -10.5t-29 -17t-18.5 -25t-12.5 -34.5q-17 -84 82 -84z" />
    <glyph glyph-name="ccedilla" unicode="&#xe7;" horiz-adv-x="574" 
d="M532 339h-114q11 61 -11 91t-83 30q-128 0 -167 -190q-23 -97 -5 -143t93 -46q49 0 88.5 28t50.5 76h116q-44 -174 -221 -195l-34 -43q35 -5 55.5 -26.5t12.5 -59.5q-21 -104 -152 -104q-30 0 -51.5 1.5t-27.5 3.5l-7 1l15 71q18 -6 62 -6q55 0 62 40q3 14 -4 22.5
t-24 12t-29.5 4.5t-32.5 1h-2l60 82q-196 24 -143 280q28 140 97 211.5t208 71.5q109 0 157 -56.5t31 -157.5z" />
    <glyph glyph-name="egrave" unicode="&#xe8;" horiz-adv-x="587" 
d="M406 617h-104l-69 158h128zM522 249h-369q-20 -86 -2 -130t91 -44q58 0 97 31t47 64h117q-6 -31 -23.5 -60.5t-48.5 -58.5t-84.5 -47t-122.5 -18q-123 0 -168 73t-17 209q30 143 98.5 214.5t204.5 71.5q121 0 166.5 -76.5t13.5 -228.5zM324 468q-106 0 -150 -135h249
q7 70 -15.5 102.5t-83.5 32.5z" />
    <glyph glyph-name="eacute" unicode="&#xe9;" horiz-adv-x="587" 
d="M536 775l-135 -158h-104l111 158h128zM342 554q121 0 166.5 -76.5t13.5 -228.5h-369q-20 -86 -2 -130t91 -44q58 0 97 31t47 64h117q-6 -31 -23.5 -60.5t-48.5 -58.5t-84.5 -47t-122.5 -18q-123 0 -168 73t-17 209q30 143 98.5 214.5t204.5 71.5zM174 333h249
q7 70 -15.5 102.5t-83.5 32.5q-106 0 -150 -135z" />
    <glyph glyph-name="ecircumflex" unicode="&#xea;" horiz-adv-x="587" 
d="M377 695l-76 -78h-112l151 158h99l85 -158h-105zM522 249h-369q-20 -86 -2 -130t91 -44q58 0 97 31t47 64h117q-6 -31 -23.5 -60.5t-48.5 -58.5t-84.5 -47t-122.5 -18q-123 0 -168 73t-17 209q30 143 98.5 214.5t204.5 71.5q121 0 166.5 -76.5t13.5 -228.5zM324 468
q-106 0 -150 -135h249q7 70 -15.5 102.5t-83.5 32.5z" />
    <glyph glyph-name="edieresis" unicode="&#xeb;" horiz-adv-x="587" 
d="M353 758l-30 -140h-115l30 140h115zM533 758l-29 -140h-116l30 140h115zM522 249h-369q-20 -86 -2 -130t91 -44q58 0 97 31t47 64h117q-6 -31 -23.5 -60.5t-48.5 -58.5t-84.5 -47t-122.5 -18q-123 0 -168 73t-17 209q30 143 98.5 214.5t204.5 71.5q121 0 166.5 -76.5
t13.5 -228.5zM324 468q-106 0 -150 -135h249q7 70 -15.5 102.5t-83.5 32.5z" />
    <glyph glyph-name="igrave" unicode="&#xec;" horiz-adv-x="246" 
d="M235 617h-104l-69 158h128zM-5 0l113 541h116l-113 -541h-116z" />
    <glyph glyph-name="iacute" unicode="&#xed;" horiz-adv-x="246" 
d="M126 617l111 158h128l-135 -158h-104zM-5 0l113 541h116l-113 -541h-116z" />
    <glyph glyph-name="icircumflex" unicode="&#xee;" horiz-adv-x="246" 
d="M268 775l85 -158h-105l-42 78l-76 -78h-112l151 158h99zM-5 0l113 541h116l-113 -541h-116z" />
    <glyph glyph-name="idieresis" unicode="&#xef;" horiz-adv-x="246" 
d="M37 618l30 140h115l-30 -140h-115zM217 618l30 140h115l-29 -140h-116zM-5 0l113 541h116l-113 -541h-116z" />
    <glyph glyph-name="eth" unicode="&#xf0;" horiz-adv-x="605" 
d="M562 698l-83 -40q96 -192 57 -395q-51 -277 -307 -277q-132 0 -174.5 73.5t-14.5 209.5q57 270 286 270q46 0 82 -24q-12 46 -34 93l-92 -45l-21 56l87 41q-16 28 -33.5 53t-26.5 36l-10 11h138q15 -18 35 -50l91 43zM249 80q135 0 168 189l5 25q6 34 6 80q-9 87 -105 87
q-125 0 -165 -192q-23 -97 -4 -143t95 -46z" />
    <glyph glyph-name="ntilde" unicode="&#xf1;" horiz-adv-x="621" 
d="M349 659q-25 0 -40.5 -14.5t-17.5 -27.5h-59q27 124 123 124q29 0 54 -17t42 -17q25 0 40.5 14.5t17.5 27.5h60q-14 -67 -40.5 -97.5t-79.5 -30.5q-31 0 -57 19t-43 19zM407 553q98 0 132 -52t8 -178l-68 -323h-116l66 312q8 42 10 73t-16.5 48.5t-60.5 17.5
q-84 0 -162 -106l-71 -345h-116l82 393l23 148h97l-3 -87q29 37 78.5 68t116.5 31z" />
    <glyph glyph-name="ograve" unicode="&#xf2;" horiz-adv-x="600" 
d="M409 615h-104l-69 158h128zM229 -14q-126 0 -172 75t-18 208q29 139 99.5 212t209.5 73q126 1 172 -75.5t19 -209.5q-29 -138 -100 -210.5t-210 -72.5zM249 80q67 0 108.5 46t61.5 143q24 96 5.5 144t-96.5 48q-67 0 -109 -47.5t-62 -144.5q-24 -97 -5 -143t97 -46z" />
    <glyph glyph-name="oacute" unicode="&#xf3;" horiz-adv-x="600" 
d="M300 615l111 158h128l-135 -158h-104zM229 -14q-126 0 -172 75t-18 208q29 139 99.5 212t209.5 73q126 1 172 -75.5t19 -209.5q-29 -138 -100 -210.5t-210 -72.5zM249 80q67 0 108.5 46t61.5 143q24 96 5.5 144t-96.5 48q-67 0 -109 -47.5t-62 -144.5q-24 -97 -5 -143
t97 -46z" />
    <glyph glyph-name="ocircumflex" unicode="&#xf4;" horiz-adv-x="600" 
d="M380 693l-76 -78h-112l151 158h99l85 -158h-105zM348 554q126 1 172 -75.5t19 -209.5q-29 -138 -100 -210.5t-210 -72.5q-126 0 -172 75t-18 208q29 139 99.5 212t209.5 73zM419 269q24 96 5.5 144t-96.5 48q-67 0 -109 -47.5t-62 -144.5q-24 -97 -5 -143t97 -46
q67 0 108.5 46t61.5 143z" />
    <glyph glyph-name="otilde" unicode="&#xf5;" horiz-adv-x="600" 
d="M481 747h60q-14 -67 -40.5 -97.5t-79.5 -30.5q-31 0 -57 19t-43 19q-25 0 -40.5 -14.5t-17.5 -27.5h-59q27 124 123 124q29 0 53.5 -17t42.5 -17q25 0 40.5 14.5t17.5 27.5zM229 -14q-126 0 -172 75t-18 208q29 139 99.5 212t209.5 73q126 1 172 -75.5t19 -209.5
q-29 -138 -100 -210.5t-210 -72.5zM249 80q67 0 108.5 46t61.5 143q24 96 5.5 144t-96.5 48q-67 0 -109 -47.5t-62 -144.5q-24 -97 -5 -143t97 -46z" />
    <glyph glyph-name="odieresis" unicode="&#xf6;" horiz-adv-x="600" 
d="M211 616l30 140h115l-30 -140h-115zM391 616l30 140h115l-29 -140h-116zM229 -14q-126 0 -172 75t-18 208q29 139 99.5 212t209.5 73q126 1 172 -75.5t19 -209.5q-29 -138 -100 -210.5t-210 -72.5zM249 80q67 0 108.5 46t61.5 143q24 96 5.5 144t-96.5 48
q-67 0 -109 -47.5t-62 -144.5q-24 -97 -5 -143t97 -46z" />
    <glyph glyph-name="divide" unicode="&#xf7;" horiz-adv-x="532" 
d="M231 423l26 124h109l-26 -124h-109zM39 280l20 97h432l-20 -97h-432zM165 109l25 124h109l-26 -124h-108z" />
    <glyph glyph-name="oslash" unicode="&#xf8;" horiz-adv-x="600" 
d="M591 549l-69 -74q44 -73 17 -206q-29 -138 -100 -210.5t-210 -72.5q-82 0 -129 32l-27 -29h-90l71 77q-43 73 -15 203q29 139 99.5 212t209.5 73q79 0 129 -31l24 26h90zM157 269q-15 -68 -12 -105l257 278q-23 19 -74 19q-67 0 -109 -47.5t-62 -144.5zM419 269
q15 70 12 107l-257 -278q25 -18 75 -18q67 0 108.5 46t61.5 143z" />
    <glyph glyph-name="ugrave" unicode="&#xf9;" horiz-adv-x="620" 
d="M408 617h-104l-69 158h128zM460 541h116l-81 -391l-24 -150h-97l4 92q-11 -15 -27 -30.5t-41.5 -33.5t-60 -29.5t-71.5 -11.5q-93 0 -128.5 51.5t-10.5 172.5l69 330h115l-65 -312q-8 -37 -9.5 -58t3 -42t22 -30.5t49.5 -9.5q90 0 168 116z" />
    <glyph glyph-name="uacute" unicode="&#xfa;" horiz-adv-x="620" 
d="M538 775l-135 -158h-104l111 158h128zM460 541h116l-81 -391l-24 -150h-97l4 92q-11 -15 -27 -30.5t-41.5 -33.5t-60 -29.5t-71.5 -11.5q-93 0 -128.5 51.5t-10.5 172.5l69 330h115l-65 -312q-8 -37 -9.5 -58t3 -42t22 -30.5t49.5 -9.5q90 0 168 116z" />
    <glyph glyph-name="ucircumflex" unicode="&#xfb;" horiz-adv-x="620" 
d="M379 695l-76 -78h-112l151 158h99l85 -158h-105zM460 541h116l-81 -391l-24 -150h-97l4 92q-11 -15 -27 -30.5t-41.5 -33.5t-60 -29.5t-71.5 -11.5q-93 0 -128.5 51.5t-10.5 172.5l69 330h115l-65 -312q-8 -37 -9.5 -58t3 -42t22 -30.5t49.5 -9.5q90 0 168 116z" />
    <glyph glyph-name="udieresis" unicode="&#xfc;" horiz-adv-x="620" 
d="M355 758l-30 -140h-115l30 140h115zM535 758l-29 -140h-116l30 140h115zM460 541h116l-81 -391l-24 -150h-97l4 92q-11 -15 -27 -30.5t-41.5 -33.5t-60 -29.5t-71.5 -11.5q-93 0 -128.5 51.5t-10.5 172.5l69 330h115l-65 -312q-8 -37 -9.5 -58t3 -42t22 -30.5t49.5 -9.5
q90 0 168 116z" />
    <glyph glyph-name="yacute" unicode="&#xfd;" horiz-adv-x="530" 
d="M496 775l-135 -158h-104l111 158h128zM440 541h132l-428 -761h-114l119 220h-29l-83 541h117l52 -434z" />
    <glyph glyph-name="thorn" unicode="&#xfe;" horiz-adv-x="623" 
d="M405 551q108 0 145.5 -72.5t9.5 -208.5q-29 -138 -94.5 -209t-177.5 -71q-109 0 -150 62l-61 -292h-114l209 1000h114l-60 -286q79 77 179 77zM441 270q22 92 4.5 140t-83.5 48q-85 0 -160 -99l-36 -175q3 -42 30 -71.5t88 -29.5q119 0 157 187z" />
    <glyph glyph-name="ydieresis" unicode="&#xff;" horiz-adv-x="530" 
d="M313 758l-30 -140h-115l30 140h115zM493 758l-29 -140h-116l30 140h115zM440 541h132l-428 -761h-114l119 220h-29l-83 541h117l52 -434z" />
    <glyph glyph-name="Amacron" unicode="&#x100;" horiz-adv-x="639" 
d="M576 872l-20 -90h-270l20 90h270zM459 0l-22 162h-282l-90 -162h-126l413 714h114l114 -714h-121zM213 267h210l-41 307z" />
    <glyph glyph-name="amacron" unicode="&#x101;" horiz-adv-x="583" 
d="M510 728l-20 -89h-269l19 89h270zM332 551q52 0 88.5 -9t57 -28.5t31 -41.5t10 -58t-4.5 -67.5t-14 -78.5l-27 -126l-21 -141h-97l1 62q-68 -74 -193 -74q-89 0 -128 41t-23 123q7 32 19 57t28 42.5t37.5 30t46 20t53.5 12t60.5 5.5t66.5 2t72 0q19 74 5 109t-80 35
q-62 0 -94.5 -28.5t-39.5 -63.5h-104q5 24 11.5 43t24.5 45.5t43 44.5t69.5 31t101.5 13zM204 69q48 0 91 23.5t67 70.5l17 83q-48 0 -72.5 -0.5t-58 -3t-50 -8.5t-35 -16.5t-27.5 -27.5t-14 -40q-8 -38 10.5 -59.5t71.5 -21.5z" />
    <glyph glyph-name="Abreve" unicode="&#x102;" horiz-adv-x="639" 
d="M418 760q-70 0 -102.5 38.5t-20.5 95.5h90q-4 -21 9 -36.5t41 -15.5t47.5 15.5t24.5 36.5h90q-12 -60 -55.5 -97t-123.5 -37zM352 714h114l114 -714h-121l-22 162h-282l-90 -162h-126zM213 267h210l-41 307z" />
    <glyph glyph-name="abreve" unicode="&#x103;" horiz-adv-x="583" 
d="M351 614q-67 0 -100.5 39t-20.5 100h89q-4 -21 8.5 -37.5t41.5 -16.5q28 0 48.5 16.5t25.5 37.5h88q-13 -63 -58.5 -101t-121.5 -38zM332 551q52 0 88.5 -9t57 -28.5t31 -41.5t10 -58t-4.5 -67.5t-14 -78.5l-27 -126l-21 -141h-97l1 62q-68 -74 -193 -74q-89 0 -128 41
t-23 123q7 32 19 57t28 42.5t37.5 30t46 20t53.5 12t60.5 5.5t66.5 2t72 0q19 74 5 109t-80 35q-62 0 -94.5 -28.5t-39.5 -63.5h-104q5 24 11.5 43t24.5 45.5t43 44.5t69.5 31t101.5 13zM204 69q48 0 91 23.5t67 70.5l17 83q-48 0 -72.5 -0.5t-58 -3t-50 -8.5t-35 -16.5
t-27.5 -27.5t-14 -40q-8 -38 10.5 -59.5t71.5 -21.5z" />
    <glyph glyph-name="Aogonek" unicode="&#x104;" horiz-adv-x="639" 
d="M451 -89q-3 -14 3.5 -24t22.5 -10q10 0 22.5 3.5t19.5 6.5l7 3l-13 -64q0 -1 -12 -7.5t-38 -13t-54 -6.5q-42 0 -58.5 22t-9.5 57q6 26 22 49.5t37 40.5t34 25.5t24 14.5l-21 154h-282l-90 -162h-126l413 714h114l114 -714h-46q-24 -11 -50 -34t-33 -55zM213 267h210
l-41 307z" />
    <glyph glyph-name="aogonek" unicode="&#x105;" horiz-adv-x="583" 
d="M332 551q52 0 88.5 -9t57 -28.5t31 -41.5t10 -58t-4.5 -67.5t-14 -78.5l-27 -126l-21 -141h-10q-13 -6 -27.5 -15.5t-33.5 -30.5t-24 -44q-3 -14 3.5 -24t22.5 -10q10 0 22.5 3.5t19.5 6.5l7 3l-13 -64q0 -1 -12 -7.5t-38 -13t-54 -6.5q-42 0 -58.5 22t-9.5 57
q15 71 108 126l1 59q-68 -74 -193 -74q-89 0 -128 41t-23 123q7 32 19 57t28 42.5t37.5 30t46 20t53.5 12t60.5 5.5t66.5 2t72 0q19 74 5 109t-80 35q-62 0 -94.5 -28.5t-39.5 -63.5h-104q5 24 11.5 43t24.5 45.5t43 44.5t69.5 31t101.5 13zM204 69q48 0 91 23.5t67 70.5
l17 83q-48 0 -72.5 -0.5t-58 -3t-50 -8.5t-35 -16.5t-27.5 -27.5t-14 -40q-8 -38 10.5 -59.5t71.5 -21.5z" />
    <glyph glyph-name="Cacute" unicode="&#x106;" horiz-adv-x="671" 
d="M390 776l110 154h129l-133 -154h-106zM277 -18q-149 0 -200.5 92.5t-11.5 281.5q41 195 126 286t243 91q128 0 183.5 -68.5t27.5 -205.5h-118q15 92 -11 130.5t-105 38.5q-86 0 -140 -64t-84 -208q-32 -146 -8 -207.5t121 -61.5q142 0 183 165h118
q-32 -139 -110.5 -204.5t-213.5 -65.5z" />
    <glyph glyph-name="cacute" unicode="&#x107;" horiz-adv-x="574" 
d="M297 617l111 158h128l-135 -158h-104zM225 -13q-126 0 -170 74t-16 209q28 140 97 211.5t208 71.5q109 0 157 -56.5t31 -157.5h-114q11 61 -11 91t-83 30q-128 0 -167 -190q-23 -97 -5 -143t93 -46q49 0 88.5 28t50.5 76h116q-25 -96 -90.5 -147t-184.5 -51z" />
    <glyph glyph-name="Ccircumflex" unicode="&#x108;" horiz-adv-x="671" 
d="M457 839l-72 -63h-105l132 138h114l75 -138h-99zM645 459h-118q15 92 -11 130.5t-105 38.5q-86 0 -140 -64t-84 -208q-32 -146 -8 -207.5t121 -61.5q142 0 183 165h118q-32 -139 -110.5 -204.5t-213.5 -65.5q-149 0 -200.5 92.5t-11.5 281.5q41 195 126 286t243 91
q128 0 183.5 -68.5t27.5 -205.5z" />
    <glyph glyph-name="ccircumflex" unicode="&#x109;" horiz-adv-x="574" 
d="M377 695l-76 -78h-112l151 158h99l85 -158h-105zM532 339h-114q11 61 -11 91t-83 30q-128 0 -167 -190q-23 -97 -5 -143t93 -46q49 0 88.5 28t50.5 76h116q-25 -96 -90.5 -147t-184.5 -51q-126 0 -170 74t-16 209q28 140 97 211.5t208 71.5q109 0 157 -56.5t31 -157.5z
" />
    <glyph glyph-name="Cdotaccent" unicode="&#x10a;" horiz-adv-x="671" 
d="M382 776l29 139h116l-29 -139h-116zM277 -18q-149 0 -200.5 92.5t-11.5 281.5q41 195 126 286t243 91q128 0 183.5 -68.5t27.5 -205.5h-118q15 92 -11 130.5t-105 38.5q-86 0 -140 -64t-84 -208q-32 -146 -8 -207.5t121 -61.5q142 0 183 165h118q-32 -139 -110.5 -204.5
t-213.5 -65.5z" />
    <glyph glyph-name="cdotaccent" unicode="&#x10b;" horiz-adv-x="574" 
d="M299 621l30 139h116l-30 -139h-116zM225 -13q-126 0 -170 74t-16 209q28 140 97 211.5t208 71.5q109 0 157 -56.5t31 -157.5h-114q11 61 -11 91t-83 30q-128 0 -167 -190q-23 -97 -5 -143t93 -46q49 0 88.5 28t50.5 76h116q-25 -96 -90.5 -147t-184.5 -51z" />
    <glyph glyph-name="Ccaron" unicode="&#x10c;" horiz-adv-x="671" 
d="M497 776h-114l-74 138h98l46 -63l71 63h105zM645 459h-118q15 92 -11 130.5t-105 38.5q-86 0 -140 -64t-84 -208q-32 -146 -8 -207.5t121 -61.5q142 0 183 165h118q-32 -139 -110.5 -204.5t-213.5 -65.5q-149 0 -200.5 92.5t-11.5 281.5q41 195 126 286t243 91
q128 0 183.5 -68.5t27.5 -205.5z" />
    <glyph glyph-name="ccaron" unicode="&#x10d;" horiz-adv-x="574" 
d="M405 617h-99l-85 158h106l43 -78l75 78h112zM344 553q109 0 157 -56.5t31 -157.5h-114q11 61 -11 91t-83 30q-128 0 -167 -190q-23 -97 -5 -143t93 -46q49 0 88.5 28t50.5 76h116q-25 -96 -90.5 -147t-184.5 -51q-126 0 -170 74t-16 209q28 140 97 211.5t208 71.5z" />
    <glyph glyph-name="Dcaron" unicode="&#x10e;" horiz-adv-x="689" 
d="M473 765h-114l-74 138h98l46 -63l71 63h105zM166 717h194q137 0 206 -37t84 -117t-13 -207q-21 -101 -48.5 -164t-76 -109t-121 -65.5t-181.5 -19.5h-194zM515 356q11 56 15.5 93.5t0.5 67.5t-15.5 47.5t-36 28.5t-57 15t-81.5 4h-76l-105 -506h76q131 -1 189 48.5
t90 201.5z" />
    <glyph glyph-name="dcaron" unicode="&#x10f;" horiz-adv-x="622" 
d="M520 760h116l-127 -612l-24 -148h-97l2 70q-71 -80 -193 -80q-215 0 -157 280q29 138 95 209.5t179 71.5q97 0 149 -68zM239 83q60 0 101 31t62 73l35 172q-27 99 -120 99q-119 0 -158 -188q-20 -92 -1 -139.5t81 -47.5zM718 760h111l-130 -188h-86z" />
    <glyph glyph-name="Dcroat" unicode="&#x110;" horiz-adv-x="689" 
d="M166 717h194q137 0 206 -37t84 -117t-13 -207q-21 -101 -48.5 -164t-76 -109t-121 -65.5t-181.5 -19.5h-194l68 326h-52l17 78h51zM515 356q11 56 15.5 93.5t0.5 67.5t-15.5 47.5t-36 28.5t-57 15t-81.5 4h-76l-44 -210h140l-16 -78h-140l-45 -218h76q131 -1 189 48.5
t90 201.5z" />
    <glyph glyph-name="dcroat" unicode="&#x111;" horiz-adv-x="622" 
d="M679 663l-16 -78h-63l-91 -437l-24 -148h-97l2 70q-71 -80 -193 -80q-215 0 -157 280q29 138 95 209.5t179 71.5q97 0 149 -68l21 102h-134l17 78h133l20 97h116l-20 -97h63zM239 83q60 0 101 31t62 73l35 172q-27 99 -120 99q-119 0 -158 -188q-20 -92 -1 -139.5
t81 -47.5z" />
    <glyph glyph-name="Emacron" unicode="&#x112;" horiz-adv-x="588" 
d="M559 872l-20 -90h-270l20 90h270zM610 609h-347l-40 -190h299l-22 -102h-298l-44 -212h354l-23 -105h-473l149 714h467z" />
    <glyph glyph-name="emacron" unicode="&#x113;" horiz-adv-x="587" 
d="M514 728l-20 -89h-269l19 89h270zM522 249h-369q-20 -86 -2 -130t91 -44q58 0 97 31t47 64h117q-6 -31 -23.5 -60.5t-48.5 -58.5t-84.5 -47t-122.5 -18q-123 0 -168 73t-17 209q30 143 98.5 214.5t204.5 71.5q121 0 166.5 -76.5t13.5 -228.5zM324 468q-106 0 -150 -135
h249q7 70 -15.5 102.5t-83.5 32.5z" />
    <glyph glyph-name="Ebreve" unicode="&#x114;" horiz-adv-x="588" 
d="M401 760q-70 0 -102.5 38.5t-20.5 95.5h90q-4 -21 9 -36.5t41 -15.5t47.5 15.5t24.5 36.5h90q-12 -60 -55.5 -97t-123.5 -37zM610 609h-347l-40 -190h299l-22 -102h-298l-44 -212h354l-23 -105h-473l149 714h467z" />
    <glyph glyph-name="ebreve" unicode="&#x115;" horiz-adv-x="587" 
d="M355 614q-67 0 -100.5 39t-20.5 100h89q-4 -21 8.5 -37.5t41.5 -16.5q28 0 48.5 16.5t25.5 37.5h88q-13 -63 -58.5 -101t-121.5 -38zM522 249h-369q-20 -86 -2 -130t91 -44q58 0 97 31t47 64h117q-6 -31 -23.5 -60.5t-48.5 -58.5t-84.5 -47t-122.5 -18q-123 0 -168 73
t-17 209q30 143 98.5 214.5t204.5 71.5q121 0 166.5 -76.5t13.5 -228.5zM324 468q-106 0 -150 -135h249q7 70 -15.5 102.5t-83.5 32.5z" />
    <glyph glyph-name="Edotaccent" unicode="&#x116;" horiz-adv-x="588" 
d="M488 899l-29 -139h-116l29 139h116zM610 609h-347l-40 -190h299l-22 -102h-298l-44 -212h354l-23 -105h-473l149 714h467z" />
    <glyph glyph-name="edotaccent" unicode="&#x117;" horiz-adv-x="587" 
d="M445 760l-30 -139h-116l30 139h116zM522 249h-369q-20 -86 -2 -130t91 -44q58 0 97 31t47 64h117q-6 -31 -23.5 -60.5t-48.5 -58.5t-84.5 -47t-122.5 -18q-123 0 -168 73t-17 209q30 143 98.5 214.5t204.5 71.5q121 0 166.5 -76.5t13.5 -228.5zM324 468q-106 0 -150 -135
h249q7 70 -15.5 102.5t-83.5 32.5z" />
    <glyph glyph-name="Eogonek" unicode="&#x118;" horiz-adv-x="588" 
d="M610 609h-347l-40 -190h299l-22 -102h-298l-44 -212h354l-23 -105q-3 -1 -8 -3.5t-19 -11.5t-25.5 -19t-22 -25.5t-14.5 -32.5q-3 -14 3.5 -24t22.5 -10q10 0 22.5 3t19.5 7l7 3l-13 -64q0 -1 -12 -7.5t-38 -13t-54 -6.5q-42 0 -58.5 22t-9.5 57q16 73 107 125h-381
l149 714h467z" />
    <glyph glyph-name="eogonek" unicode="&#x119;" horiz-adv-x="587" 
d="M522 249h-369q-20 -86 -2 -130t91 -44q58 0 97 31t47 64h117q-10 -46 -43 -90t-94 -69q-52 -34 -61 -76q-3 -14 3.5 -24t22.5 -10q10 0 22.5 3.5t19.5 6.5l7 3l-13 -64q0 -1 -12 -7.5t-38 -13t-54 -6.5q-42 0 -58.5 22t-9.5 57q9 44 52 85q-7 -1 -23 -1q-123 0 -168 73
t-17 209q30 143 98.5 214.5t204.5 71.5q121 0 166.5 -76.5t13.5 -228.5zM324 468q-106 0 -150 -135h249q7 70 -15.5 102.5t-83.5 32.5z" />
    <glyph glyph-name="Ecaron" unicode="&#x11a;" horiz-adv-x="588" 
d="M458 760h-114l-74 138h98l46 -63l71 63h105zM610 609h-347l-40 -190h299l-22 -102h-298l-44 -212h354l-23 -105h-473l149 714h467z" />
    <glyph glyph-name="ecaron" unicode="&#x11b;" horiz-adv-x="587" 
d="M405 617h-99l-85 158h106l43 -78l75 78h112zM342 554q121 0 166.5 -76.5t13.5 -228.5h-369q-20 -86 -2 -130t91 -44q58 0 97 31t47 64h117q-6 -31 -23.5 -60.5t-48.5 -58.5t-84.5 -47t-122.5 -18q-123 0 -168 73t-17 209q30 143 98.5 214.5t204.5 71.5zM174 333h249
q7 70 -15.5 102.5t-83.5 32.5q-106 0 -150 -135z" />
    <glyph glyph-name="Gcircumflex" unicode="&#x11c;" horiz-adv-x="678" 
d="M457 840l-72 -63h-105l132 138h114l75 -138h-99zM647 478h-117q14 74 -14.5 112t-105.5 38q-86 0 -139.5 -64.5t-83.5 -207.5q-32 -144 -6.5 -206.5t126.5 -62.5q40 0 78 11t57.5 23t20.5 19l26 119h-123l21 99h234l-55 -268q-1 -6 -12 -18t-35.5 -27.5t-56.5 -29.5
t-81 -23.5t-105 -9.5q-150 -1 -201 90t-10 284q41 197 125.5 287t242.5 90q131 0 185 -67t29 -188z" />
    <glyph glyph-name="gcircumflex" unicode="&#x11d;" horiz-adv-x="627" 
d="M389 695l-76 -78h-112l151 158h99l85 -158h-105zM499 541h97l-39 -156l-80 -387q-19 -91 -40 -127q-63 -111 -261 -111q-44 0 -77.5 10.5t-52 26.5t-30.5 36t-15 40t-4 36t1 27l1 10h108q-2 -9 -3 -14t1 -23t10.5 -29t30.5 -21t57 -10q43 0 72 10.5t45.5 33.5t24.5 45
t16 60l12 55q-70 -63 -179 -63q-213 0 -156 280q29 138 95 209.5t178 71.5q63 0 102 -30t54 -63zM237 83q64 0 104.5 33t60.5 78l34 164q-10 38 -38 69t-83 31q-119 0 -158 -188q-20 -92 -1 -139.5t81 -47.5z" />
    <glyph glyph-name="Gbreve" unicode="&#x11e;" horiz-adv-x="678" 
d="M440 777q-70 0 -102.5 38.5t-20.5 95.5h90q-4 -21 9 -36.5t41 -15.5t47.5 15.5t24.5 36.5h90q-12 -60 -55.5 -97t-123.5 -37zM647 478h-117q14 74 -14.5 112t-105.5 38q-86 0 -139.5 -64.5t-83.5 -207.5q-32 -144 -6.5 -206.5t126.5 -62.5q40 0 78 11t57.5 23t20.5 19
l26 119h-123l21 99h234l-55 -268q-1 -6 -12 -18t-35.5 -27.5t-56.5 -29.5t-81 -23.5t-105 -9.5q-150 -1 -201 90t-10 284q41 197 125.5 287t242.5 90q131 0 185 -67t29 -188z" />
    <glyph glyph-name="gbreve" unicode="&#x11f;" horiz-adv-x="627" 
d="M367 614q-67 0 -100.5 39t-20.5 100h89q-4 -21 8.5 -37.5t41.5 -16.5q28 0 48.5 16.5t25.5 37.5h88q-13 -63 -58.5 -101t-121.5 -38zM499 541h97l-39 -156l-80 -387q-19 -91 -40 -127q-63 -111 -261 -111q-44 0 -77.5 10.5t-52 26.5t-30.5 36t-15 40t-4 36t1 27l1 10h108
q-2 -9 -3 -14t1 -23t10.5 -29t30.5 -21t57 -10q43 0 72 10.5t45.5 33.5t24.5 45t16 60l12 55q-70 -63 -179 -63q-213 0 -156 280q29 138 95 209.5t178 71.5q63 0 102 -30t54 -63zM237 83q64 0 104.5 33t60.5 78l34 164q-10 38 -38 69t-83 31q-119 0 -158 -188
q-20 -92 -1 -139.5t81 -47.5z" />
    <glyph glyph-name="Gdotaccent" unicode="&#x120;" horiz-adv-x="678" 
d="M527 916l-29 -139h-116l29 139h116zM647 478h-117q14 74 -14.5 112t-105.5 38q-86 0 -139.5 -64.5t-83.5 -207.5q-32 -144 -6.5 -206.5t126.5 -62.5q40 0 78 11t57.5 23t20.5 19l26 119h-123l21 99h234l-55 -268q-1 -6 -12 -18t-35.5 -27.5t-56.5 -29.5t-81 -23.5
t-105 -9.5q-150 -1 -201 90t-10 284q41 197 125.5 287t242.5 90q131 0 185 -67t29 -188z" />
    <glyph glyph-name="gdotaccent" unicode="&#x121;" horiz-adv-x="627" 
d="M457 760l-30 -139h-116l30 139h116zM499 541h97l-39 -156l-80 -387q-19 -91 -40 -127q-63 -111 -261 -111q-44 0 -77.5 10.5t-52 26.5t-30.5 36t-15 40t-4 36t1 27l1 10h108q-2 -9 -3 -14t1 -23t10.5 -29t30.5 -21t57 -10q43 0 72 10.5t45.5 33.5t24.5 45t16 60l12 55
q-70 -63 -179 -63q-213 0 -156 280q29 138 95 209.5t178 71.5q63 0 102 -30t54 -63zM237 83q64 0 104.5 33t60.5 78l34 164q-10 38 -38 69t-83 31q-119 0 -158 -188q-20 -92 -1 -139.5t81 -47.5z" />
    <glyph glyph-name="Gcommaaccent" unicode="&#x122;" horiz-adv-x="678" 
d="M647 478h-117q14 74 -14.5 112t-105.5 38q-86 0 -139.5 -64.5t-83.5 -207.5q-32 -144 -6.5 -206.5t126.5 -62.5q40 0 78 11t57.5 23t20.5 19l26 119h-123l21 99h234l-55 -268q-1 -6 -12 -18t-35.5 -27.5t-56.5 -29.5t-81 -23.5t-105 -9.5q-150 -1 -201 90t-10 284
q41 197 125.5 287t242.5 90q131 0 185 -67t29 -188zM183 -162q13 27 22.5 51.5t12.5 36.5l3 11h114q-14 -48 -46 -107q-18 -32 -37.5 -60.5t-30.5 -40.5l-11 -12h-98q39 54 71 121z" />
    <glyph glyph-name="gcommaaccent" unicode="&#x123;" horiz-adv-x="627" 
d="M433 709q-14 -34 -24.5 -63t-14.5 -42l-3 -12h-118q13 49 50 125q18 37 39 70t33 47l12 15h102q-43 -63 -76 -140zM499 541h97l-39 -156l-80 -387q-19 -91 -40 -127q-63 -111 -261 -111q-44 0 -77.5 10.5t-52 26.5t-30.5 36t-15 40t-4 36t1 27l1 10h108q-2 -9 -3 -14
t1 -23t10.5 -29t30.5 -21t57 -10q43 0 72 10.5t45.5 33.5t24.5 45t16 60l12 55q-70 -63 -179 -63q-213 0 -156 280q29 138 95 209.5t178 71.5q63 0 102 -30t54 -63zM237 83q64 0 104.5 33t60.5 78l34 164q-10 38 -38 69t-83 31q-119 0 -158 -188q-20 -92 -1 -139.5t81 -47.5
z" />
    <glyph glyph-name="Hcircumflex" unicode="&#x124;" horiz-adv-x="706" 
d="M460 823l-72 -63h-105l132 138h114l75 -138h-99zM583 714h121l-149 -714h-121l64 309h-297l-64 -309h-121l149 714h121l-61 -292h297z" />
    <glyph glyph-name="hcircumflex" unicode="&#x125;" horiz-adv-x="623" 
d="M250 861l-72 -63h-105l132 138h114l75 -138h-99zM409 553q98 0 132 -52t7 -178l-68 -323h-116l67 312q8 42 10 73t-16.5 48.5t-60.5 17.5q-90 0 -169 -115l-70 -336h-116l159 760h116l-62 -294q80 87 187 87z" />
    <glyph glyph-name="Hbar" unicode="&#x126;" horiz-adv-x="706" 
d="M751 612l-18 -89h-69l-109 -523h-121l64 309h-297l-64 -309h-121l109 523h-68l18 89h69l21 102h121l-21 -102h297l21 102h121l-21 -102h68zM522 422l21 101h-297l-21 -101h297z" />
    <glyph glyph-name="hbar" unicode="&#x127;" horiz-adv-x="623" 
d="M409 553q98 0 132 -52t7 -178l-68 -323h-116l67 312q8 42 10 73t-16.5 48.5t-60.5 17.5q-90 0 -169 -115l-70 -336h-116l123 590h-62l17 78h62l19 92h116l-19 -92h134l-16 -78h-135l-26 -124q80 87 187 87z" />
    <glyph glyph-name="Itilde" unicode="&#x128;" horiz-adv-x="288" 
d="M358 900h60q-14 -68 -41.5 -102t-80.5 -34q-30 0 -56.5 19t-43.5 19q-25 0 -40 -14.5t-17 -27.5h-59q28 132 123 132q31 0 55.5 -17t41.5 -17q25 0 40.5 14.5t17.5 27.5zM16 0l149 714h121l-149 -714h-121z" />
    <glyph glyph-name="itilde" unicode="&#x129;" horiz-adv-x="246" 
d="M307 749h60q-14 -67 -40.5 -97.5t-79.5 -30.5q-31 0 -57 19t-43 19q-25 0 -40.5 -14.5t-17.5 -27.5h-59q27 124 123 124q29 0 54 -17t42 -17q25 0 40.5 14.5t17.5 27.5zM-5 0l113 541h116l-113 -541h-116z" />
    <glyph glyph-name="Imacron" unicode="&#x12a;" horiz-adv-x="288" 
d="M123 872h270l-20 -90h-270zM16 0l149 714h121l-149 -714h-121z" />
    <glyph glyph-name="imacron" unicode="&#x12b;" horiz-adv-x="246" 
d="M73 728h270l-20 -89h-269zM-5 0l113 541h116l-113 -541h-116z" />
    <glyph glyph-name="Ibreve" unicode="&#x12c;" horiz-adv-x="288" 
d="M324 894h90q-12 -60 -55.5 -97t-123.5 -37q-70 0 -102.5 38.5t-20.5 95.5h90q-4 -21 9 -36.5t41 -15.5t47.5 15.5t24.5 36.5zM16 0l149 714h121l-149 -714h-121z" />
    <glyph glyph-name="ibreve" unicode="&#x12d;" horiz-adv-x="246" 
d="M276 753h88q-13 -63 -58.5 -101t-121.5 -38q-67 0 -100.5 39t-20.5 100h89q-4 -21 8.5 -37.5t41.5 -16.5q28 0 48.5 16.5t25.5 37.5zM-5 0l113 541h116l-113 -541h-116z" />
    <glyph glyph-name="Iogonek" unicode="&#x12e;" horiz-adv-x="288" 
d="M137 0h-34q-13 -6 -27.5 -15.5t-33.5 -30.5t-24 -44q-3 -14 3.5 -24t22.5 -10q10 0 22.5 3t19.5 7l7 3l-13 -64q0 -1 -12 -7.5t-38 -13t-54 -6.5q-42 0 -58.5 22t-9.5 57q15 73 109 126l148 711h121z" />
    <glyph glyph-name="iogonek" unicode="&#x12f;" horiz-adv-x="246" 
d="M158 760h116l-30 -139h-116zM-4 3l112 538h116l-113 -541h-29q-13 -6 -27.5 -15.5t-33.5 -30.5t-24 -44q-3 -14 3.5 -24t22.5 -10q10 0 22.5 3t19.5 7l7 3l-13 -64q0 -1 -12 -7.5t-38 -13t-54 -6.5q-42 0 -58.5 22t-9.5 57q15 73 109 126z" />
    <glyph glyph-name="Idotaccent" unicode="&#x130;" horiz-adv-x="288" 
d="M177 760l29 139h116l-29 -139h-116zM16 0l149 714h121l-149 -714h-121z" />
    <glyph glyph-name="dotlessi" unicode="&#x131;" horiz-adv-x="246" 
d="M-5 0l113 541h116l-113 -541h-116z" />
    <glyph glyph-name="IJ" unicode="&#x132;" horiz-adv-x="723" 
d="M16 0l149 714h121l-149 -714h-121zM303 0h-68l24 114h68q70 0 104 15t55.5 57.5t41.5 136.5l80 391h121l-80 -391q-14 -68 -25 -108.5t-29 -81.5t-40.5 -62.5t-57.5 -39.5t-82 -24.5t-112 -6.5z" />
    <glyph glyph-name="ij" unicode="&#x133;" horiz-adv-x="521" 
d="M128 621l30 139h116l-30 -139h-116zM388 621l30 139h116l-30 -139h-116zM-5 0l113 541h116l-113 -541h-116zM100 -212l21 97q29 0 49 2.5t35 12t24 18.5t17 30.5t12 39t12 53.5l103 500h116l-103 -500q-17 -81 -33.5 -125t-48 -75.5t-78.5 -42t-126 -10.5z" />
    <glyph glyph-name="Jcircumflex" unicode="&#x134;" horiz-adv-x="435" 
d="M318 823l-72 -63h-105l132 138h114l75 -138h-99zM240 323l80 391h121l-80 -391q-14 -68 -25 -108.5t-29 -81.5t-40.5 -62.5t-57.5 -39.5t-82 -24.5t-112 -6.5h-68l24 114h68q70 0 104 15t55.5 57.5t41.5 136.5z" />
    <glyph glyph-name="jcircumflex" unicode="&#x135;" horiz-adv-x="275" 
d="M282 775l85 -158h-105l-42 78l-76 -78h-112l151 158h99zM24 41l103 500h116l-103 -500q-17 -81 -33.5 -125t-48 -75.5t-78.5 -42t-126 -10.5l21 97q29 0 49 2.5t35 12t24 18.5t17 30.5t12 39t12 53.5z" />
    <glyph glyph-name="Kcommaaccent" unicode="&#x136;" horiz-adv-x="639" 
d="M701 714l-324 -322l191 -392h-132l-147 305l-112 -111l-40 -194h-121l149 714h121l-73 -350l331 350h157zM159 -162q13 27 22.5 51.5t12.5 36.5l3 11h114q-14 -48 -46 -107q-18 -32 -37.5 -60.5t-30.5 -40.5l-11 -12h-98q39 54 71 121z" />
    <glyph glyph-name="kcommaaccent" unicode="&#x137;" horiz-adv-x="548" 
d="M566 541l-244 -222l157 -319h-123l-119 241l-76 -69l-36 -172h-116l159 760h116l-94 -450l231 231h145zM109 -162q13 27 22.5 51.5t12.5 36.5l3 11h114q-14 -48 -46 -107q-18 -32 -37.5 -60.5t-30.5 -40.5l-11 -12h-98q39 54 71 121z" />
    <glyph glyph-name="kgreenlandic" unicode="&#x138;" horiz-adv-x="548" 
d="M566 541l-244 -222l157 -319h-123l-119 241l-76 -69l-36 -172h-116l113 541h116l-48 -231l231 231h145z" />
    <glyph glyph-name="Lacute" unicode="&#x139;" horiz-adv-x="503" 
d="M432 914l-133 -154h-106l110 154h129zM160 110h281l-24 -110h-401l149 714h121z" />
    <glyph glyph-name="lacute" unicode="&#x13a;" horiz-adv-x="270" 
d="M182 797l110 154h129l-133 -154h-106zM9 0l159 760h116l-159 -760h-116z" />
    <glyph glyph-name="Lcommaaccent" unicode="&#x13b;" horiz-adv-x="503" 
d="M160 110h281l-24 -110h-401l149 714h121zM104 -162q13 27 22.5 51.5t12.5 36.5l3 11h114q-14 -48 -46 -107q-18 -32 -37.5 -60.5t-30.5 -40.5l-11 -12h-98q39 54 71 121z" />
    <glyph glyph-name="lcommaaccent" unicode="&#x13c;" horiz-adv-x="270" 
d="M9 0l159 760h116l-159 -760h-116zM-25 -283h-98q39 54 71 121q13 27 22.5 51.5t12.5 36.5l3 11h114q-14 -48 -46 -107q-18 -32 -37.5 -60.5t-30.5 -40.5z" />
    <glyph glyph-name="Lcaron" unicode="&#x13d;" horiz-adv-x="503" 
d="M551 774l-140 -188h-104l117 188h127zM286 714l-126 -604h281l-24 -110h-401l149 714h121z" />
    <glyph glyph-name="lcaron" unicode="&#x13e;" horiz-adv-x="270" 
d="M9 0l159 760h116l-159 -760h-116zM262 572l105 188h111l-130 -188h-86z" />
    <glyph glyph-name="Ldot" unicode="&#x13f;" horiz-adv-x="503" 
d="M160 110h281l-24 -110h-401l149 714h121zM259 287l26 129h116l-26 -129h-116z" />
    <glyph glyph-name="ldot" unicode="&#x140;" horiz-adv-x="375" 
d="M8 0l162 760h116l-162 -760h-116zM231 319l27 129h116l-27 -129h-116z" />
    <glyph glyph-name="Lslash" unicode="&#x141;" horiz-adv-x="503" 
d="M160 110h281l-24 -110h-401l57 273l-83 -43l-26 77l130 67l71 340h121l-56 -270l93 48l26 -76l-140 -73z" />
    <glyph glyph-name="lslash" unicode="&#x142;" horiz-adv-x="270" 
d="M342 448l-138 -72l-79 -376h-116l65 309l-91 -47l-26 77l138 71l73 350h116l-59 -283l91 47z" />
    <glyph glyph-name="Nacute" unicode="&#x143;" horiz-adv-x="724" 
d="M643 914l-133 -154h-106l110 154h129zM604 714h118l-150 -714h-132l-198 531l-112 -531h-114l150 714h132l204 -542z" />
    <glyph glyph-name="nacute" unicode="&#x144;" horiz-adv-x="621" 
d="M567 775l-135 -158h-104l111 158h128zM407 553q98 0 132 -52t8 -178l-68 -323h-116l66 312q8 42 10 73t-16.5 48.5t-60.5 17.5q-84 0 -162 -106l-71 -345h-116l82 393l23 148h97l-3 -87q29 37 78.5 68t116.5 31z" />
    <glyph glyph-name="Ncommaaccent" unicode="&#x145;" horiz-adv-x="724" 
d="M604 714h118l-150 -714h-132l-198 531l-112 -531h-114l150 714h132l204 -542zM180 -162q13 27 22.5 51.5t12.5 36.5l3 11h114q-14 -48 -46 -107q-18 -32 -37.5 -60.5t-30.5 -40.5l-11 -12h-98q39 54 71 121z" />
    <glyph glyph-name="ncommaaccent" unicode="&#x146;" horiz-adv-x="621" 
d="M407 553q98 0 132 -52t8 -178l-68 -323h-116l66 312q8 42 10 73t-16.5 48.5t-60.5 17.5q-84 0 -162 -106l-71 -345h-116l82 393l23 148h97l-3 -87q29 37 78.5 68t116.5 31zM133 -162q13 27 22.5 51.5t12.5 36.5l3 11h114q-14 -48 -46 -107q-18 -32 -37.5 -60.5
t-30.5 -40.5l-11 -12h-98q39 54 71 121z" />
    <glyph glyph-name="Ncaron" unicode="&#x147;" horiz-adv-x="724" 
d="M511 760h-114l-74 138h98l46 -63l71 63h105zM604 714h118l-150 -714h-132l-198 531l-112 -531h-114l150 714h132l204 -542z" />
    <glyph glyph-name="ncaron" unicode="&#x148;" horiz-adv-x="621" 
d="M436 617h-99l-85 158h106l43 -78l75 78h112zM407 553q98 0 132 -52t8 -178l-68 -323h-116l66 312q8 42 10 73t-16.5 48.5t-60.5 17.5q-84 0 -162 -106l-71 -345h-116l82 393l23 148h97l-3 -87q29 37 78.5 68t116.5 31z" />
    <glyph glyph-name="Eng" unicode="&#x14a;" horiz-adv-x="724" 
d="M604 714h118l-150 -714q-10 -50 -26 -87t-46.5 -70.5t-82.5 -51.5t-124 -18h-61l23 106h67q117 0 142 121l-220 541l-114 -541h-114l150 714h132l206 -531z" />
    <glyph glyph-name="eng" unicode="&#x14b;" horiz-adv-x="621" 
d="M407 553q98 0 132.5 -52t7.5 -178l-58 -278q-17 -82 -33 -125.5t-48 -75.5t-79 -42.5t-126 -10.5l21 98q43 0 67.5 6.5t40 29t22.5 45t18 75.5l57 267q8 42 10 73t-16.5 48.5t-60.5 17.5q-84 0 -162 -106l-71 -345h-116l82 393l23 148h97l-3 -87q29 37 78.5 68t116.5 31z
" />
    <glyph glyph-name="Omacron" unicode="&#x14c;" horiz-adv-x="703" 
d="M334 890h270l-20 -90h-270zM280 -18q-295 0 -216 374q41 195 126.5 286t246.5 91q294 0 215 -377q-41 -194 -126 -284t-246 -90zM303 87q89 0 143 63t84 206q33 145 8.5 208.5t-123.5 63.5q-90 0 -144.5 -64t-83.5 -208q-33 -144 -8 -206.5t124 -62.5z" />
    <glyph glyph-name="omacron" unicode="&#x14d;" horiz-adv-x="600" 
d="M247 726h270l-20 -89h-269zM229 -14q-126 0 -172 75t-18 208q29 139 99.5 212t209.5 73q126 1 172 -75.5t19 -209.5q-29 -138 -100 -210.5t-210 -72.5zM249 80q67 0 108.5 46t61.5 143q24 96 5.5 144t-96.5 48q-67 0 -109 -47.5t-62 -144.5q-24 -97 -5 -143t97 -46z" />
    <glyph glyph-name="Obreve" unicode="&#x14e;" horiz-adv-x="703" 
d="M535 912h90q-12 -60 -55.5 -97t-123.5 -37q-70 0 -102.5 38.5t-20.5 95.5h90q-4 -21 9 -36.5t41 -15.5t47.5 15.5t24.5 36.5zM280 -18q-295 0 -216 374q41 195 126.5 286t246.5 91q294 0 215 -377q-41 -194 -126 -284t-246 -90zM303 87q89 0 143 63t84 206
q33 145 8.5 208.5t-123.5 63.5q-90 0 -144.5 -64t-83.5 -208q-33 -144 -8 -206.5t124 -62.5z" />
    <glyph glyph-name="obreve" unicode="&#x14f;" horiz-adv-x="600" 
d="M450 751h88q-13 -63 -58.5 -101t-121.5 -38q-67 0 -100.5 39t-20.5 100h89q-4 -21 8.5 -37.5t41.5 -16.5q28 0 48.5 16.5t25.5 37.5zM229 -14q-126 0 -172 75t-18 208q29 139 99.5 212t209.5 73q126 1 172 -75.5t19 -209.5q-29 -138 -100 -210.5t-210 -72.5zM249 80
q67 0 108.5 46t61.5 143q24 96 5.5 144t-96.5 48q-67 0 -109 -47.5t-62 -144.5q-24 -97 -5 -143t97 -46z" />
    <glyph glyph-name="Ohungarumlaut" unicode="&#x150;" horiz-adv-x="703" 
d="M297 778l109 154h128l-131 -154h-106zM465 778l126 154h129l-149 -154h-106zM280 -18q-295 0 -216 374q41 195 126.5 286t246.5 91q294 0 215 -377q-41 -194 -126 -284t-246 -90zM303 87q89 0 143 63t84 206q33 145 8.5 208.5t-123.5 63.5q-90 0 -144.5 -64t-83.5 -208
q-33 -144 -8 -206.5t124 -62.5z" />
    <glyph glyph-name="ohungarumlaut" unicode="&#x151;" horiz-adv-x="600" 
d="M207 615l109 158h129l-133 -158h-105zM375 615l127 158h128l-150 -158h-105zM229 -14q-126 0 -172 75t-18 208q29 139 99.5 212t209.5 73q126 1 172 -75.5t19 -209.5q-29 -138 -100 -210.5t-210 -72.5zM249 80q67 0 108.5 46t61.5 143q24 96 5.5 144t-96.5 48
q-67 0 -109 -47.5t-62 -144.5q-24 -97 -5 -143t97 -46z" />
    <glyph glyph-name="OE" unicode="&#x152;" horiz-adv-x="959" 
d="M980 609h-346l-40 -190h298l-22 -102h-297l-44 -212h354l-23 -105h-593q-137 0 -189.5 91.5t-15.5 264.5q38 180 121.5 269t232.5 89h587zM406 98l109 518h-105q-89 0 -143.5 -62.5t-82.5 -197.5q-30 -134 -5 -196t124 -62h103z" />
    <glyph glyph-name="oe" unicode="&#x153;" horiz-adv-x="958" 
d="M893 244h-370q-16 -90 1.5 -129.5t88.5 -39.5q59 0 97.5 31t46.5 64h117q-6 -31 -23 -60t-48 -58.5t-84.5 -47.5t-122.5 -18q-120 0 -161 78q-69 -78 -206 -78q-126 0 -172 75t-18 208q29 139 99.5 212t209.5 73q122 0 164 -77q66 77 202 77q243 0 179 -310zM695 468
q-106 0 -151 -140h250q8 73 -14.5 106.5t-84.5 33.5zM249 80q67 0 108.5 46t61.5 143q24 96 5.5 144t-96.5 48q-67 0 -109 -47.5t-62 -144.5q-24 -97 -5 -143t97 -46z" />
    <glyph glyph-name="Racute" unicode="&#x154;" horiz-adv-x="669" 
d="M601 914l-133 -154h-106l110 154h129zM166 715h244q149 0 206 -55t34 -177q-17 -89 -54 -138.5t-110 -71.5l86 -273h-131l-73 255q-18 -1 -57 -1h-119l-53 -254h-123zM525 485q5 25 5 44t-3 32t-12.5 22t-20.5 14.5t-29.5 8t-36 3.5t-44.5 1h-118l-52 -250l119 -1
q35 0 56.5 1.5t46.5 8.5t40.5 20.5t28.5 37t20 58.5z" />
    <glyph glyph-name="racute" unicode="&#x155;" horiz-adv-x="402" 
d="M450 775l-135 -158h-104l111 158h128zM215 541l-5 -103q24 44 76 80t138 36l-23 -108q-50 0 -91.5 -18.5t-65.5 -47t-36 -49t-18 -38.5l-61 -293h-116l79 384l26 157h97z" />
    <glyph glyph-name="Rcommaaccent" unicode="&#x156;" horiz-adv-x="669" 
d="M166 715h244q149 0 206 -55t34 -177q-17 -89 -54 -138.5t-110 -71.5l86 -273h-131l-73 255q-18 -1 -57 -1h-119l-53 -254h-123zM525 485q5 25 5 44t-3 32t-12.5 22t-20.5 14.5t-29.5 8t-36 3.5t-44.5 1h-118l-52 -250l119 -1q35 0 56.5 1.5t46.5 8.5t40.5 20.5t28.5 37
t20 58.5zM170 -162q13 27 22.5 51.5t12.5 36.5l3 11h114q-14 -48 -46 -107q-18 -32 -37.5 -60.5t-30.5 -40.5l-11 -12h-98q39 54 71 121z" />
    <glyph glyph-name="rcommaaccent" unicode="&#x157;" horiz-adv-x="402" 
d="M215 541l-5 -103q24 44 76 80t138 36l-23 -108q-50 0 -91.5 -18.5t-65.5 -47t-36 -49t-18 -38.5l-61 -293h-116l79 384l26 157h97zM-39 -162q13 27 22.5 51.5t12.5 36.5l3 11h114q-14 -48 -46 -107q-18 -32 -37.5 -60.5t-30.5 -40.5l-11 -12h-98q39 54 71 121z" />
    <glyph glyph-name="Rcaron" unicode="&#x158;" horiz-adv-x="669" 
d="M469 760h-114l-74 138h98l46 -63l71 63h105zM166 715h244q149 0 206 -55t34 -177q-17 -89 -54 -138.5t-110 -71.5l86 -273h-131l-73 255q-18 -1 -57 -1h-119l-53 -254h-123zM525 485q5 25 5 44t-3 32t-12.5 22t-20.5 14.5t-29.5 8t-36 3.5t-44.5 1h-118l-52 -250l119 -1
q35 0 56.5 1.5t46.5 8.5t40.5 20.5t28.5 37t20 58.5z" />
    <glyph glyph-name="rcaron" unicode="&#x159;" horiz-adv-x="402" 
d="M319 617h-99l-85 158h106l43 -78l75 78h112zM215 541l-5 -103q24 44 76 80t138 36l-23 -108q-50 0 -91.5 -18.5t-65.5 -47t-36 -49t-18 -38.5l-61 -293h-116l79 384l26 157h97z" />
    <glyph glyph-name="Sacute" unicode="&#x15a;" horiz-adv-x="625" 
d="M356 779l110 154h129l-133 -154h-106zM20 223h117q-28 -136 124 -136q148 -1 173 100q10 39 -6.5 64.5t-49.5 37.5t-74.5 21.5t-82.5 23t-73 34.5t-46.5 63.5t-1.5 103.5q41 199 296 198q127 0 183 -57.5t33 -163.5h-115q11 51 -15 85t-102 34q-133 1 -159 -100
q-9 -34 3 -57.5t38 -36t61 -23t72.5 -18t72.5 -22.5t60 -36t35.5 -58t-0.5 -89q-22 -106 -98.5 -158t-222.5 -51q-124 0 -185.5 59.5t-36.5 181.5z" />
    <glyph glyph-name="sacute" unicode="&#x15b;" horiz-adv-x="540" 
d="M274 617l111 158h128l-135 -158h-104zM15 176h105q-22 -101 98 -101q56 -1 89.5 17t39.5 49q5 25 -5.5 42.5t-32 25.5t-49.5 15.5t-57.5 13t-56.5 16.5t-47 28t-28 46.5t1 71.5q33 154 247 153q106 0 152 -43.5t29 -127.5h-104q8 39 -13 61t-80 23q-54 0 -82 -19.5
t-33 -46.5q-7 -37 23 -56t77 -28t92.5 -21.5t72 -48.5t14.5 -97q-17 -82 -81 -122.5t-186 -39.5q-223 0 -185 189z" />
    <glyph glyph-name="Scircumflex" unicode="&#x15c;" horiz-adv-x="625" 
d="M423 842l-72 -63h-105l132 138h114l75 -138h-99zM612 512h-115q11 51 -15 85t-102 34q-133 1 -159 -100q-9 -34 3 -57.5t38 -36t61 -23t72.5 -18t72.5 -22.5t60 -36t35.5 -58t-0.5 -89q-22 -106 -98.5 -158t-222.5 -51q-124 0 -185.5 59.5t-36.5 181.5h117
q-28 -136 124 -136q148 -1 173 100q10 39 -6.5 64.5t-49.5 37.5t-74.5 21.5t-82.5 23t-73 34.5t-46.5 63.5t-1.5 103.5q41 199 296 198q127 0 183 -57.5t33 -163.5z" />
    <glyph glyph-name="scircumflex" unicode="&#x15d;" horiz-adv-x="540" 
d="M354 695l-76 -78h-112l151 158h99l85 -158h-105zM500 382h-104q8 39 -13 61t-80 23q-54 0 -82 -19.5t-33 -46.5q-7 -37 23 -56t77 -28t92.5 -21.5t72 -48.5t14.5 -97q-17 -82 -81 -122.5t-186 -39.5q-223 0 -185 189h105q-22 -101 98 -101q56 -1 89.5 17t39.5 49
q5 25 -5.5 42.5t-32 25.5t-49.5 15.5t-57.5 13t-56.5 16.5t-47 28t-28 46.5t1 71.5q33 154 247 153q106 0 152 -43.5t29 -127.5z" />
    <glyph glyph-name="Scedilla" unicode="&#x15e;" horiz-adv-x="625" 
d="M612 512h-115q11 51 -15 85t-102 34q-133 1 -159 -100q-9 -34 3 -57.5t38 -36t61 -23t72.5 -18t72.5 -22.5t60 -36t35.5 -58t-0.5 -89q-19 -95 -82 -146t-180 -61l-38 -48q35 -5 55.5 -26.5t12.5 -59.5q-21 -104 -152 -104q-30 0 -51.5 1.5t-27.5 2.5l-7 2l15 71
q18 -6 62 -6q55 0 62 40q3 14 -4 22.5t-24 12t-29.5 4.5t-32.5 1h-2l64 87q-106 9 -156.5 68t-27.5 171h117q-28 -136 124 -136q148 -1 173 100q10 39 -6.5 64.5t-49.5 37.5t-74.5 21.5t-82.5 23t-73 34.5t-46.5 63.5t-1.5 103.5q41 199 296 198q127 0 183 -57.5t33 -163.5z
" />
    <glyph glyph-name="scedilla" unicode="&#x15f;" horiz-adv-x="540" 
d="M500 382h-104q8 39 -13 61t-80 23q-54 0 -82 -19.5t-33 -46.5q-7 -37 23 -56t77 -28t92.5 -21.5t72 -48.5t14.5 -97q-29 -144 -213 -160l-33 -42q35 -5 55.5 -26.5t12.5 -59.5q-21 -104 -152 -104q-30 0 -51.5 1.5t-27.5 3.5l-7 1l15 71q18 -6 62 -6q55 0 62 40
q3 14 -4 22.5t-24 12t-29.5 4.5t-32.5 1h-2l60 81q-177 18 -143 187h105q-22 -101 98 -101q56 -1 89.5 17t39.5 49q5 25 -5.5 42.5t-32 25.5t-49.5 15.5t-57.5 13t-56.5 16.5t-47 28t-28 46.5t1 71.5q33 154 247 153q106 0 152 -43.5t29 -127.5z" />
    <glyph glyph-name="Scaron" unicode="&#x160;" horiz-adv-x="625" 
d="M463 779h-114l-74 138h98l46 -63l71 63h105zM612 512h-115q11 51 -15 85t-102 34q-133 1 -159 -100q-9 -34 3 -57.5t38 -36t61 -23t72.5 -18t72.5 -22.5t60 -36t35.5 -58t-0.5 -89q-22 -106 -98.5 -158t-222.5 -51q-124 0 -185.5 59.5t-36.5 181.5h117q-28 -136 124 -136
q148 -1 173 100q10 39 -6.5 64.5t-49.5 37.5t-74.5 21.5t-82.5 23t-73 34.5t-46.5 63.5t-1.5 103.5q41 199 296 198q127 0 183 -57.5t33 -163.5z" />
    <glyph glyph-name="scaron" unicode="&#x161;" horiz-adv-x="540" 
d="M382 617h-99l-85 158h106l43 -78l75 78h112zM319 553q106 0 152 -43.5t29 -127.5h-104q8 39 -13 61t-80 23q-54 0 -82 -19.5t-33 -46.5q-7 -37 23 -56t77 -28t92.5 -21.5t72 -48.5t14.5 -97q-17 -82 -81 -122.5t-186 -39.5q-223 0 -185 189h105q-22 -101 98 -101
q56 -1 89.5 17t39.5 49q5 25 -5.5 42.5t-32 25.5t-49.5 15.5t-57.5 13t-56.5 16.5t-47 28t-28 46.5t1 71.5q33 154 247 153z" />
    <glyph glyph-name="uni0162" unicode="&#x162;" horiz-adv-x="546" 
d="M263 0h-25l-42 -54q35 -5 55.5 -26.5t12.5 -59.5q-21 -104 -152 -104q-30 0 -51.5 1.5t-28.5 2.5l-6 2l15 71q18 -6 62 -6q55 0 62 40q3 14 -4 22.5t-24 12t-29.5 4.5t-32.5 1h-2l70 95l128 602h-196l23 110h513l-24 -110h-195z" />
    <glyph glyph-name="uni0163" unicode="&#x163;" horiz-adv-x="377" 
d="M239 448l-49 -236q-14 -69 -4 -95.5t52 -26.5h57l-20 -94h-69l-31 -39q35 -5 55.5 -26.5t12.5 -59.5q-21 -104 -152 -104q-30 0 -51.5 1.5t-27.5 3.5l-7 1l15 71q18 -6 62 -6q55 0 62 40q3 14 -4 22.5t-24 12t-29.5 4.5t-32.5 1h-2l68 92q-26 11 -40.5 31t-17.5 48.5
t0 56.5t11 66l49 236h-68l20 93h68l30 145l120 21l-34 -166h125l-19 -93h-125z" />
    <glyph glyph-name="Tcaron" unicode="&#x164;" horiz-adv-x="546" 
d="M422 760h-114l-74 138h98l46 -63l71 63h105zM611 714l-24 -110h-195l-129 -604h-120l128 604h-196l23 110h513z" />
    <glyph glyph-name="tcaron" unicode="&#x165;" horiz-adv-x="377" 
d="M406 776h111l-130 -188h-86zM292 707l-34 -166h125l-19 -93h-125l-49 -236q-14 -69 -4 -95.5t52 -26.5h57l-20 -94h-72q-57 0 -90.5 16.5t-43.5 49.5t-8.5 66.5t12.5 83.5l49 236h-68l20 93h68l30 145z" />
    <glyph glyph-name="Tbar" unicode="&#x166;" horiz-adv-x="551" 
d="M589 604h-195l-42 -195h117l-19 -93h-117l-67 -316h-121l67 316h-115l20 93h114l42 195h-196l24 110h512z" />
    <glyph glyph-name="tbar" unicode="&#x167;" horiz-adv-x="377" 
d="M364 448h-125l-26 -122h124l-16 -78h-124l-7 -36q-14 -69 -4 -95.5t52 -26.5h57l-20 -94h-72q-57 0 -90.5 16.5t-43.5 49.5t-8.5 66.5t12.5 83.5l8 36h-73l17 78h72l25 122h-68l20 93h68l30 145l120 21l-34 -166h125z" />
    <glyph glyph-name="Utilde" unicode="&#x168;" horiz-adv-x="693" 
d="M559 900h60q-14 -68 -41.5 -102t-80.5 -34q-30 0 -56.5 19t-43.5 19q-25 0 -40 -14.5t-17 -27.5h-59q28 132 123 132q31 0 55.5 -17t41.5 -17q25 0 40.5 14.5t17.5 27.5zM273 -18q-138 0 -186.5 86t-9.5 273l78 373h121l-78 -373q-32 -144 -12 -199t109 -55
q80 0 127 56.5t76 197.5l78 373h123l-78 -373q-40 -193 -117.5 -276t-230.5 -83z" />
    <glyph glyph-name="utilde" unicode="&#x169;" horiz-adv-x="620" 
d="M320 659q-25 0 -40.5 -14.5t-17.5 -27.5h-59q27 124 123 124q30 0 54.5 -17t41.5 -17q25 0 40.5 14.5t17.5 27.5h60q-14 -67 -40.5 -97.5t-79.5 -30.5q-31 0 -57 19t-43 19zM460 541h116l-81 -391l-24 -150h-97l4 92q-11 -15 -27 -30.5t-41.5 -33.5t-60 -29.5
t-71.5 -11.5q-93 0 -128.5 51.5t-10.5 172.5l69 330h115l-65 -312q-8 -37 -9.5 -58t3 -42t22 -30.5t49.5 -9.5q90 0 168 116z" />
    <glyph glyph-name="Umacron" unicode="&#x16a;" horiz-adv-x="693" 
d="M324 872h270l-20 -90h-270zM273 -18q-138 0 -186.5 86t-9.5 273l78 373h121l-78 -373q-32 -144 -12 -199t109 -55q80 0 127 56.5t76 197.5l78 373h123l-78 -373q-40 -193 -117.5 -276t-230.5 -83z" />
    <glyph glyph-name="umacron" unicode="&#x16b;" horiz-adv-x="620" 
d="M516 728l-20 -89h-269l19 89h270zM460 541h116l-81 -391l-24 -150h-97l4 92q-11 -15 -27 -30.5t-41.5 -33.5t-60 -29.5t-71.5 -11.5q-93 0 -128.5 51.5t-10.5 172.5l69 330h115l-65 -312q-8 -37 -9.5 -58t3 -42t22 -30.5t49.5 -9.5q90 0 168 116z" />
    <glyph glyph-name="Ubreve" unicode="&#x16c;" horiz-adv-x="693" 
d="M525 894h90q-12 -60 -55.5 -97t-123.5 -37q-70 0 -102.5 38.5t-20.5 95.5h90q-4 -21 9 -36.5t41 -15.5t47.5 15.5t24.5 36.5zM273 -18q-138 0 -186.5 86t-9.5 273l78 373h121l-78 -373q-32 -144 -12 -199t109 -55q80 0 127 56.5t76 197.5l78 373h123l-78 -373
q-40 -193 -117.5 -276t-230.5 -83z" />
    <glyph glyph-name="ubreve" unicode="&#x16d;" horiz-adv-x="620" 
d="M357 614q-67 0 -100.5 39t-20.5 100h89q-4 -21 8.5 -37.5t41.5 -16.5q28 0 48.5 16.5t25.5 37.5h88q-13 -63 -58.5 -101t-121.5 -38zM460 541h116l-81 -391l-24 -150h-97l4 92q-11 -15 -27 -30.5t-41.5 -33.5t-60 -29.5t-71.5 -11.5q-93 0 -128.5 51.5t-10.5 172.5
l69 330h115l-65 -312q-8 -37 -9.5 -58t3 -42t22 -30.5t49.5 -9.5q90 0 168 116z" />
    <glyph glyph-name="Uring" unicode="&#x16e;" horiz-adv-x="693" 
d="M434 760q-40 0 -62 25.5t-13 65.5q20 91 114 91q40 0 62 -25.5t13 -65.5q-19 -91 -114 -91zM447 817q14 0 25 9.5t14 24.5q4 16 -3 25t-22 9t-26 -9.5t-14 -24.5q-6 -34 26 -34zM273 -18q-138 0 -186.5 86t-9.5 273l78 373h121l-78 -373q-32 -144 -12 -199t109 -55
q80 0 127 56.5t76 197.5l78 373h123l-78 -373q-40 -193 -117.5 -276t-230.5 -83z" />
    <glyph glyph-name="uring" unicode="&#x16f;" horiz-adv-x="620" 
d="M356 610q-48 0 -71.5 32t-14.5 74q9 46 41 76.5t89 30.5q48 0 72.5 -32.5t15.5 -74.5q-9 -46 -41.5 -76t-90.5 -30zM346 716q-3 -15 4 -24.5t22 -9.5q14 0 25 9.5t15 24.5q3 16 -4.5 25.5t-21.5 9.5t-25.5 -9.5t-14.5 -25.5zM460 541h116l-81 -391l-24 -150h-97l4 92
q-11 -15 -27 -30.5t-41.5 -33.5t-60 -29.5t-71.5 -11.5q-93 0 -128.5 51.5t-10.5 172.5l69 330h115l-65 -312q-8 -37 -9.5 -58t3 -42t22 -30.5t49.5 -9.5q90 0 168 116z" />
    <glyph glyph-name="Uhungarumlaut" unicode="&#x170;" horiz-adv-x="693" 
d="M287 760l109 154h128l-131 -154h-106zM455 760l126 154h129l-149 -154h-106zM273 -18q-138 0 -186.5 86t-9.5 273l78 373h121l-78 -373q-32 -144 -12 -199t109 -55q80 0 127 56.5t76 197.5l78 373h123l-78 -373q-40 -193 -117.5 -276t-230.5 -83z" />
    <glyph glyph-name="uhungarumlaut" unicode="&#x171;" horiz-adv-x="620" 
d="M444 775l-133 -158h-105l109 158h129zM479 617h-105l127 158h128zM391 205l69 336h116l-81 -391l-24 -150h-97l4 92q-11 -15 -27 -30.5t-41.5 -33.5t-60 -29.5t-71.5 -11.5q-93 0 -128.5 51.5t-10.5 172.5l69 330h115l-65 -312q-8 -37 -9.5 -58t3 -42t22 -30.5t49.5 -9.5
q90 0 168 116z" />
    <glyph glyph-name="Uogonek" unicode="&#x172;" horiz-adv-x="693" 
d="M576 714h123l-78 -373q-29 -141 -76 -220.5t-125 -112.5q-51 -33 -61 -77q-3 -14 3.5 -24t22.5 -10q10 0 22.5 3.5t19.5 6.5l7 3l-13 -64q0 -1 -12 -7.5t-38 -13t-54 -6.5q-42 0 -58.5 22t-9.5 57q9 45 53 85q-10 -1 -29 -1q-138 0 -186.5 86t-9.5 273l78 373h121
l-78 -373q-32 -144 -12 -199t109 -55q80 0 127 56.5t76 197.5z" />
    <glyph glyph-name="uogonek" unicode="&#x173;" horiz-adv-x="620" 
d="M460 541h116l-81 -391l-24 -150h-8q-3 -1 -8 -3.5t-19 -11.5t-25.5 -19t-22 -25.5t-14.5 -32.5q-3 -14 3.5 -24t22.5 -10q10 0 22.5 3t19.5 7l7 3l-13 -64q0 -1 -12 -7.5t-38 -13t-54 -6.5q-42 0 -58.5 22t-9.5 57q16 73 110 127l4 90q-11 -15 -27 -30.5t-41.5 -33.5
t-60 -29.5t-71.5 -11.5q-93 0 -128.5 51.5t-10.5 172.5l69 330h115l-65 -312q-8 -37 -9.5 -58t3 -42t22 -30.5t49.5 -9.5q90 0 168 116z" />
    <glyph glyph-name="Wcircumflex" unicode="&#x174;" horiz-adv-x="953" 
d="M563 823l-72 -63h-105l132 138h114l75 -138h-99zM896 714h135l-363 -714h-122l-38 539l-261 -539h-114l-64 714h125l30 -540l253 540h125l37 -548z" />
    <glyph glyph-name="wcircumflex" unicode="&#x175;" horiz-adv-x="753" 
d="M458 695l-76 -78h-112l151 158h99l85 -158h-105zM674 541h122l-281 -541h-97l-28 397l-188 -397h-101l-59 541h114l28 -370l168 370h126l26 -371z" />
    <glyph glyph-name="Ycircumflex" unicode="&#x176;" horiz-adv-x="602" 
d="M395 823l-72 -63h-105l132 138h114l75 -138h-99zM537 714h143l-342 -463l-52 -251h-120l52 251h1l-158 463h129l107 -342z" />
    <glyph glyph-name="ycircumflex" unicode="&#x177;" horiz-adv-x="530" 
d="M337 695l-76 -78h-112l151 158h99l85 -158h-105zM440 541h132l-428 -761h-114l119 220h-29l-83 541h117l52 -434z" />
    <glyph glyph-name="Ydieresis" unicode="&#x178;" horiz-adv-x="602" 
d="M375 899l-29 -139h-116l29 139h116zM555 899l-29 -139h-116l28 139h117zM537 714h143l-342 -463l-52 -251h-120l52 251h1l-158 463h129l107 -342z" />
    <glyph glyph-name="Zacute" unicode="&#x179;" horiz-adv-x="579" 
d="M571 914l-133 -154h-106l110 154h129zM615 660l-5 -23l-6 -30h-1l-3 -16l-471 -483h374l-22 -105h-521l11 51h-1l7 31l5 23h1l3 15l471 484h-354l22 105h500z" />
    <glyph glyph-name="zacute" unicode="&#x17a;" horiz-adv-x="487" 
d="M481 775l-135 -158h-104l111 158h128zM481 481l-12 -60l-350 -324l283 1l-20 -95h-415l19 94h1l5 23l351 326l-275 -1l20 92h405z" />
    <glyph glyph-name="Zdotaccent" unicode="&#x17b;" horiz-adv-x="579" 
d="M469 899l-29 -139h-116l29 139h116zM615 660l-5 -23l-6 -30h-1l-3 -16l-471 -483h374l-22 -105h-521l11 51h-1l7 31l5 23h1l3 15l471 484h-354l22 105h500z" />
    <glyph glyph-name="zdotaccent" unicode="&#x17c;" horiz-adv-x="487" 
d="M390 760l-30 -139h-116l30 139h116zM481 481l-12 -60l-350 -324l283 1l-20 -95h-415l19 94h1l5 23l351 326l-275 -1l20 92h405z" />
    <glyph glyph-name="Zcaron" unicode="&#x17d;" horiz-adv-x="579" 
d="M439 760h-114l-74 138h98l46 -63l71 63h105zM615 660l-5 -23l-6 -30h-1l-3 -16l-471 -483h374l-22 -105h-521l11 51h-1l7 31l5 23h1l3 15l471 484h-354l22 105h500z" />
    <glyph glyph-name="zcaron" unicode="&#x17e;" horiz-adv-x="487" 
d="M350 617h-99l-85 158h106l43 -78l75 78h112zM88 537h405l-12 -56l-12 -60l-350 -324l283 1l-20 -95h-415l19 94h1l5 23l351 326l-275 -1z" />
    <glyph glyph-name="uni018F" unicode="&#x18f;" horiz-adv-x="700" 
d="M435 733q293 0 214 -377q-41 -194 -126 -284t-245 -90q-149 0 -201.5 95t-10.5 293h464q30 137 4.5 197.5t-122.5 60.5q-139 0 -197 -159h-123q47 136 127 200t216 64zM300 87q76 0 126.5 45.5t81.5 145.5h-336q-13 -104 15.5 -147.5t112.5 -43.5z" />
    <glyph glyph-name="uni019D" unicode="&#x19d;" horiz-adv-x="724" 
d="M604 714h118l-149 -714h-132l-199 533l-112 -533q-11 -52 -26 -88t-44 -70t-78.5 -51.5t-119.5 -17.5h-61l23 107h68q59 0 85.5 28.5t39.5 91.5l150 714h132l203 -541z" />
    <glyph glyph-name="Gcaron" unicode="&#x1e6;" horiz-adv-x="678" 
d="M497 777h-114l-74 138h98l46 -63l71 63h105zM647 478h-117q14 74 -14.5 112t-105.5 38q-86 0 -139.5 -64.5t-83.5 -207.5q-32 -144 -6.5 -206.5t126.5 -62.5q40 0 78 11t57.5 23t20.5 19l26 119h-123l21 99h234l-55 -268q-1 -6 -12 -18t-35.5 -27.5t-56.5 -29.5
t-81 -23.5t-105 -9.5q-150 -1 -201 90t-10 284q41 197 125.5 287t242.5 90q131 0 185 -67t29 -188z" />
    <glyph glyph-name="gcaron" unicode="&#x1e7;" horiz-adv-x="627" 
d="M417 617h-99l-85 158h106l43 -78l75 78h112zM499 541h97l-39 -156l-80 -387q-19 -91 -40 -127q-63 -111 -261 -111q-44 0 -77.5 10.5t-52 26.5t-30.5 36t-15 40t-4 36t1 27l1 10h108q-2 -9 -3 -14t1 -23t10.5 -29t30.5 -21t57 -10q43 0 72 10.5t45.5 33.5t24.5 45t16 60
l12 55q-70 -63 -179 -63q-213 0 -156 280q29 138 95 209.5t178 71.5q63 0 102 -30t54 -63zM237 83q64 0 104.5 33t60.5 78l34 164q-10 38 -38 69t-83 31q-119 0 -158 -188q-20 -92 -1 -139.5t81 -47.5z" />
    <glyph glyph-name="uni01EA" unicode="&#x1ea;" horiz-adv-x="703" 
d="M437 733q294 0 215 -377q-30 -143 -83 -228.5t-140 -120.5q-61 -33 -72 -83q-3 -14 3.5 -24t22.5 -10q10 0 22.5 3t19.5 7l7 3l-13 -64q0 -1 -12 -7.5t-38 -13t-54 -6.5q-42 0 -58.5 22t-9.5 57q10 48 60 92q-9 -1 -27 -1q-295 0 -216 374q41 195 126.5 286t246.5 91z
M530 356q33 145 8.5 208.5t-123.5 63.5q-90 0 -144.5 -64t-83.5 -208q-33 -144 -8 -206.5t124 -62.5q89 0 143 63t84 206z" />
    <glyph glyph-name="uni01EB" unicode="&#x1eb;" horiz-adv-x="600" 
d="M348 554q126 1 172 -75.5t19 -209.5q-21 -100 -62 -165t-113 -94q-43 -32 -51 -70q-3 -14 3.5 -24t22.5 -10q10 0 22.5 3t19.5 7l7 3l-13 -64q0 -1 -12 -7.5t-38 -13t-54 -6.5q-42 0 -58.5 22t-9.5 57q9 41 47 79h-21q-126 0 -172 75t-18 208q29 139 99.5 212t209.5 73z
M419 269q24 96 5.5 144t-96.5 48q-67 0 -109 -47.5t-62 -144.5q-24 -97 -5 -143t97 -46q67 0 108.5 46t61.5 143z" />
    <glyph glyph-name="Aringacute" unicode="&#x1fa;" horiz-adv-x="639" 
d="M654 1142l-133 -154h-106l110 154h129zM416 760q-40 0 -62 25.5t-13 65.5q20 91 114 91q40 0 62 -25.5t13 -65.5q-19 -91 -114 -91zM403 851q-6 -34 26 -34q14 0 25 9.5t14 24.5q4 16 -3 25t-22 9t-26 -9.5t-14 -24.5zM352 714h114l114 -714h-121l-22 162h-282l-90 -162
h-126zM213 267h210l-41 307z" />
    <glyph glyph-name="aringacute" unicode="&#x1fb;" horiz-adv-x="583" 
d="M587 1027l-135 -158h-104l111 158h128zM350 610q-48 0 -71.5 32t-14.5 74q9 46 41 76.5t89 30.5q48 0 72.5 -32.5t15.5 -74.5q-9 -46 -41.5 -76t-90.5 -30zM340 716q-3 -15 4 -24.5t22 -9.5q14 0 25 9.5t15 24.5q3 16 -4.5 25.5t-21.5 9.5t-25.5 -9.5t-14.5 -25.5z
M332 551q52 0 88.5 -9t57 -28.5t31 -41.5t10 -58t-4.5 -67.5t-14 -78.5l-27 -126l-21 -141h-97l1 62q-68 -74 -193 -74q-89 0 -128 41t-23 123q7 32 19 57t28 42.5t37.5 30t46 20t53.5 12t60.5 5.5t66.5 2t72 0q19 74 5 109t-80 35q-62 0 -94.5 -28.5t-39.5 -63.5h-104
q5 24 11.5 43t24.5 45.5t43 44.5t69.5 31t101.5 13zM204 69q48 0 91 23.5t67 70.5l17 83q-48 0 -72.5 -0.5t-58 -3t-50 -8.5t-35 -16.5t-27.5 -27.5t-14 -40q-8 -38 10.5 -59.5t71.5 -21.5z" />
    <glyph glyph-name="AEacute" unicode="&#x1fc;" horiz-adv-x="931" 
d="M740 914l-133 -154h-106l110 154h129zM952 609h-347l-40 -190h300l-22 -102h-299l-44 -212h355l-23 -105h-465l34 162h-209l-120 -162h-133l536 714h500zM270 267h153l59 286z" />
    <glyph glyph-name="aeacute" unicode="&#x1fd;" horiz-adv-x="922" 
d="M707 775l-135 -158h-104l111 158h128zM857 246h-112l-257 1q-20 -85 -1 -128.5t90 -43.5q59 0 97.5 31t46.5 64h118q-7 -31 -24 -60t-48 -58.5t-85 -47.5t-123 -18q-146 0 -183 103q-69 -100 -214 -100q-89 0 -128 42t-22 124q6 32 18 56.5t28 42t36.5 30.5t45 20
t52.5 12t59.5 6t65.5 2t71 0q10 36 22 63q1 41 -20 60t-72 19q-62 0 -94 -28.5t-39 -63.5h-105q5 22 12.5 42.5t26 46.5t44.5 44t69.5 31t98.5 13q116 0 145 -65q73 68 202 68q243 0 179 -308zM508 330h250q7 72 -15.5 105t-83.5 33q-107 0 -151 -138zM203 69q50 0 93 25
t67 75q-1 32 7 79q-39 0 -60.5 -0.5t-50 -2t-44 -5.5t-34.5 -10.5t-29 -17t-18.5 -25t-12.5 -34.5q-17 -84 82 -84z" />
    <glyph glyph-name="Oslashacute" unicode="&#x1fe;" horiz-adv-x="703" 
d="M475 933l-133 -154h-106l110 154h129zM733 727l-88 -101q44 -94 7 -270q-41 -194 -126 -284t-246 -90q-102 0 -161 45l-36 -41h-109l95 108q-41 93 -5 262q41 195 126.5 286t246.5 91q98 0 155 -42l32 36h109zM187 356q-19 -90 -18 -148l344 393q-31 27 -98 27
q-90 0 -144.5 -64t-83.5 -208zM530 356q21 99 18 160l-349 -398q32 -31 104 -31q89 0 143 63t84 206z" />
    <glyph glyph-name="oslashacute" unicode="&#x1ff;" horiz-adv-x="600" 
d="M539 773l-135 -158h-104l111 158h128zM591 549l-69 -74q44 -73 17 -206q-29 -138 -100 -210.5t-210 -72.5q-82 0 -129 32l-27 -29h-90l71 77q-43 73 -15 203q29 139 99.5 212t209.5 73q79 0 129 -31l24 26h90zM157 269q-15 -68 -12 -105l257 278q-23 19 -74 19
q-67 0 -109 -47.5t-62 -144.5zM419 269q15 70 12 107l-257 -278q25 -18 75 -18q67 0 108.5 46t61.5 143z" />
    <glyph glyph-name="Scommaaccent" unicode="&#x218;" horiz-adv-x="625" 
d="M20 223h117q-28 -136 124 -136q148 -1 173 100q10 39 -6.5 64.5t-49.5 37.5t-74.5 21.5t-82.5 23t-73 34.5t-46.5 63.5t-1.5 103.5q41 199 296 198q127 0 183 -57.5t33 -163.5h-115q11 51 -15 85t-102 34q-133 1 -159 -100q-9 -34 3 -57.5t38 -36t61 -23t72.5 -18
t72.5 -22.5t60 -36t35.5 -58t-0.5 -89q-22 -106 -98.5 -158t-222.5 -51q-124 0 -185.5 59.5t-36.5 181.5zM183 -294h-98q39 54 71 121q13 27 22.5 51.5t12.5 35.5l3 12h114q-14 -48 -46 -107q-18 -32 -37.5 -60.5t-30.5 -40.5z" />
    <glyph glyph-name="scommaaccent" unicode="&#x219;" horiz-adv-x="540" 
d="M15 176h105q-22 -101 98 -101q56 -1 89.5 17t39.5 49q5 25 -5.5 42.5t-32 25.5t-49.5 15.5t-57.5 13t-56.5 16.5t-47 28t-28 46.5t1 71.5q33 154 247 153q106 0 152 -43.5t29 -127.5h-104q8 39 -13 61t-80 23q-54 0 -82 -19.5t-33 -46.5q-7 -37 23 -56t77 -28t92.5 -21.5
t72 -48.5t14.5 -97q-17 -82 -81 -122.5t-186 -39.5q-223 0 -185 189zM141 -283h-98q39 54 71 121q13 27 22.5 51.5t12.5 36.5l3 11h114q-14 -48 -46 -107q-18 -32 -37.5 -60.5t-30.5 -40.5z" />
    <glyph glyph-name="uni021A" unicode="&#x21a;" horiz-adv-x="551" 
d="M613 714l-24 -110h-195l-128 -604h-122l129 604h-196l24 110h512zM94 -158q13 27 22.5 51.5t12.5 36.5l3 11h113q-14 -47 -45 -106q-18 -33 -38 -61.5t-31 -40.5l-11 -12h-97q38 55 71 121z" />
    <glyph glyph-name="uni021B" unicode="&#x21b;" horiz-adv-x="377" 
d="M239 448l-49 -236q-14 -69 -4 -95.5t52 -26.5h57l-20 -94h-72q-57 0 -90.5 16.5t-43.5 49.5t-8.5 66.5t12.5 83.5l49 236h-68l20 93h68l30 145l120 21l-34 -166h125l-19 -93h-125zM68 -152q13 27 22.5 51.5t12.5 36.5l3 11h114q-14 -48 -46 -107q-18 -32 -37.5 -60.5
t-30.5 -40.5l-11 -12h-98q39 54 71 121z" />
    <glyph glyph-name="uni0232" unicode="&#x232;" horiz-adv-x="602" 
d="M536 872l-20 -90h-270l20 90h270zM537 714h143l-342 -463l-52 -251h-120l52 251h1l-158 463h129l107 -342z" />
    <glyph glyph-name="uni0233" unicode="&#x233;" horiz-adv-x="530" 
d="M474 728l-20 -89h-269l19 89h270zM440 541h132l-428 -761h-114l119 220h-29l-83 541h117l52 -434z" />
    <glyph glyph-name="uni0237" unicode="&#x237;" horiz-adv-x="275" 
d="M-146 -212l21 97q29 0 49 2.5t35 12t24 18.5t17 30.5t12 39t12 53.5l103 500h116l-103 -500q-17 -81 -33.5 -125t-48 -75.5t-78.5 -42t-126 -10.5z" />
    <glyph glyph-name="uni0259" unicode="&#x259;" horiz-adv-x="590" 
d="M342 554q124 0 169 -73t17 -209q-31 -143 -99.5 -214.5t-204.5 -71.5q-244 0 -179 310h369q17 89 -1 129.5t-89 40.5q-58 0 -96 -31t-47 -64h-118q7 31 24 60t47.5 58.5t84.5 47t123 17.5zM243 73q105 0 151 139h-250q-8 -73 14.5 -106t84.5 -33z" />
    <glyph glyph-name="uni0272" unicode="&#x272;" horiz-adv-x="623" 
d="M409 553q98 0 132.5 -52t7.5 -178l-68 -323h-117l67 312q8 42 10 73t-16.5 48.5t-60.5 17.5q-86 0 -161 -105l-63 -301q-17 -82 -33.5 -126t-48 -75.5t-78.5 -42t-126 -10.5l21 98q43 0 67.5 6.5t40 29t22.5 45t18 75.5l70 329l4 19l22 148h98l-3 -86q30 37 79.5 67.5
t115.5 30.5z" />
    <glyph glyph-name="circumflex" unicode="&#x2c6;" horiz-adv-x="539" 
d="M434 617h-105l-42 78l-76 -78h-112l151 158h99z" />
    <glyph glyph-name="caron" unicode="&#x2c7;" horiz-adv-x="539" 
d="M355 775h112l-152 -158h-99l-85 158h106l43 -78z" />
    <glyph glyph-name="breve" unicode="&#x2d8;" horiz-adv-x="536" 
d="M324 753h88q-13 -63 -58.5 -101t-121.5 -38q-67 0 -100.5 39t-20.5 100h89q-4 -21 8.5 -37.5t41.5 -16.5q28 0 48.5 16.5t25.5 37.5z" />
    <glyph glyph-name="dotaccent" unicode="&#x2d9;" horiz-adv-x="496" 
d="M131 621l30 139h116l-30 -139h-116z" />
    <glyph glyph-name="ring" unicode="&#x2da;" horiz-adv-x="521" 
d="M206 610q-48 0 -71.5 32t-14.5 74q9 46 41 76.5t89 30.5q48 0 72.5 -32.5t15.5 -74.5q-9 -46 -41.5 -76t-90.5 -30zM222 682q14 0 25 9.5t15 24.5q3 16 -4.5 25.5t-21.5 9.5t-25.5 -9.5t-14.5 -25.5q-3 -15 4 -24.5t22 -9.5z" />
    <glyph glyph-name="ogonek" unicode="&#x2db;" horiz-adv-x="521" 
d="M47 10l78 -7l-5 -3q-5 -2 -11.5 -6t-15.5 -9.5t-17.5 -13t-16.5 -16.5t-14 -20.5t-8 -23.5q-3 -14 3.5 -24t22.5 -10q10 0 22.5 3.5t19.5 6.5l7 3l-13 -64q0 -1 -12 -7.5t-38 -13t-54 -6.5q-42 0 -58.5 22t-9.5 57q8 37 38 70t56 48z" />
    <glyph glyph-name="tilde" unicode="&#x2dc;" horiz-adv-x="539" 
d="M400 749h60q-14 -67 -40.5 -97.5t-79.5 -30.5q-31 0 -57 19t-43 19q-25 0 -40.5 -14.5t-17.5 -27.5h-59q27 124 123 124q30 0 54 -17t42 -17q25 0 40.5 14.5t17.5 27.5z" />
    <glyph glyph-name="hungarumlaut" unicode="&#x2dd;" horiz-adv-x="535" 
d="M112 617l109 158h129l-133 -158h-105zM280 617l127 158h128l-150 -158h-105z" />
    <glyph glyph-name="gravecomb" unicode="&#x300;" 
d="M10 617h-104l-69 158h128z" />
    <glyph glyph-name="acutecomb" unicode="&#x301;" 
d="M-189 617l111 158h128l-135 -158h-104z" />
    <glyph glyph-name="uni0302" unicode="&#x302;" 
d="M23 617h-105l-42 78l-76 -78h-112l151 158h99z" />
    <glyph glyph-name="tildecomb" unicode="&#x303;" 
d="M-33 749h60q-14 -67 -40.5 -97.5t-79.5 -30.5q-31 0 -57 19t-43 19q-25 0 -40.5 -14.5t-17.5 -27.5h-59q27 124 123 124q29 0 53.5 -17t42.5 -17q25 0 40.5 14.5t17.5 27.5z" />
    <glyph glyph-name="uni0304" unicode="&#x304;" 
d="M-244 728h270l-20 -89h-269z" />
    <glyph glyph-name="uni0306" unicode="&#x306;" 
d="M-20 753h88q-13 -63 -58.5 -101t-121.5 -38q-67 0 -100.5 39t-20.5 100h89q-4 -21 8.5 -37.5t41.5 -16.5q28 0 48.5 16.5t25.5 37.5z" />
    <glyph glyph-name="uni0307" unicode="&#x307;" 
d="M-125 621l30 139h116l-30 -139h-116z" />
    <glyph glyph-name="uni0308" unicode="&#x308;" 
d="M-319 618l30 140h115l-30 -140h-115zM-139 618l30 140h115l-29 -140h-116z" />
    <glyph glyph-name="uni030A" unicode="&#x30a;" 
d="M-87 610q-48 0 -71.5 32t-14.5 74q9 46 41 76.5t89 30.5q48 0 72.5 -32.5t15.5 -74.5q-9 -46 -41.5 -76t-90.5 -30zM-71 682q14 0 25 9.5t15 24.5q3 16 -4.5 25.5t-21.5 9.5t-25.5 -9.5t-14.5 -25.5q-3 -15 4 -24.5t22 -9.5z" />
    <glyph glyph-name="uni030B" unicode="&#x30b;" 
d="M-373 617l109 158h129l-133 -158h-105zM-205 617l127 158h128l-150 -158h-105z" />
    <glyph glyph-name="uni030C" unicode="&#x30c;" 
d="M-55 775h112l-152 -158h-99l-85 158h106l43 -78z" />
    <glyph glyph-name="uni0312" unicode="&#x312;" 
d="M-37 849h102q-43 -63 -76 -140q-14 -34 -24.5 -63t-14.5 -42l-3 -12h-118q13 49 50 125q18 37 39 70t33 47z" />
    <glyph glyph-name="dotbelowcomb" unicode="&#x323;" 
d="M-292 -192l28 135h116l-28 -135h-116z" />
    <glyph glyph-name="uni0326" unicode="&#x326;" 
d="M-283 -278h-98q39 54 71 121q13 27 22.5 51.5t12.5 35.5l3 12h114q-14 -48 -46 -107q-18 -32 -37.5 -60.5t-30.5 -40.5z" />
    <glyph glyph-name="uni0327" unicode="&#x327;" 
d="M-177 3l-44 -56q35 -5 55.5 -26.5t12.5 -59.5q-21 -104 -152 -104q-30 0 -51.5 1.5t-27.5 3.5l-7 1l15 71q18 -6 62 -6q55 0 62 40q3 14 -4 22.5t-24 12t-29.5 4.5t-32.5 1h-2l70 95h97z" />
    <glyph glyph-name="uni0328" unicode="&#x328;" 
d="M-175 10l79 -7q-77 -39 -89 -92q-3 -14 3.5 -24t22.5 -10q10 0 22.5 3.5t19.5 6.5l7 3l-13 -64q0 -1 -12 -7.5t-38 -13t-54 -6.5q-42 0 -58.5 22t-9.5 57q8 37 38 70t56 48z" />
    <glyph glyph-name="uni0335" unicode="&#x335;" 
d="M-362 295l17 78h312l-16 -78h-313z" />
    <glyph glyph-name="uni0336" unicode="&#x336;" 
d="M-773 291l18 89h676l-18 -89h-676z" />
    <glyph glyph-name="uni0337" unicode="&#x337;" 
d="M-374 180l-26 77l359 185l26 -76z" />
    <glyph glyph-name="uni0338" unicode="&#x338;" 
d="M-479 101l518 560h90l-518 -560h-90z" />
    <glyph glyph-name="pi" unicode="&#x3c0;" horiz-adv-x="600" 
d="M494 472l-53 -255q-16 -76 -14 -95q3 -40 52 -40h26l-18 -82h-25q-76 0 -108 25t-29.5 73t16.5 119l53 255h-142l-98 -472h-100l99 472h-88l21 97h517l-21 -97h-88z" />
    <glyph glyph-name="Wgrave" unicode="&#x1e80;" horiz-adv-x="953" 
d="M591 760h-105l-69 154h127zM896 714h135l-363 -714h-122l-38 539l-261 -539h-114l-64 714h125l30 -540l253 540h125l37 -548z" />
    <glyph glyph-name="wgrave" unicode="&#x1e81;" horiz-adv-x="753" 
d="M487 617h-104l-69 158h128zM674 541h122l-281 -541h-97l-28 397l-188 -397h-101l-59 541h114l28 -370l168 370h126l26 -371z" />
    <glyph glyph-name="Wacute" unicode="&#x1e82;" horiz-adv-x="953" 
d="M735 914l-133 -154h-106l110 154h129zM896 714h135l-363 -714h-122l-38 539l-261 -539h-114l-64 714h125l30 -540l253 540h125l37 -548z" />
    <glyph glyph-name="wacute" unicode="&#x1e83;" horiz-adv-x="753" 
d="M617 775l-135 -158h-104l111 158h128zM674 541h122l-281 -541h-97l-28 397l-188 -397h-101l-59 541h114l28 -370l168 370h126l26 -371z" />
    <glyph glyph-name="Wdieresis" unicode="&#x1e84;" horiz-adv-x="953" 
d="M543 899l-29 -139h-116l29 139h116zM723 899l-29 -139h-116l28 139h117zM896 714h135l-363 -714h-122l-38 539l-261 -539h-114l-64 714h125l30 -540l253 540h125l37 -548z" />
    <glyph glyph-name="wdieresis" unicode="&#x1e85;" horiz-adv-x="753" 
d="M434 758l-30 -140h-115l30 140h115zM614 758l-29 -140h-116l30 140h115zM674 541h122l-281 -541h-97l-28 397l-188 -397h-101l-59 541h114l28 -370l168 370h126l26 -371z" />
    <glyph glyph-name="uni1EA0" unicode="&#x1ea0;" horiz-adv-x="639" 
d="M580 0h-121l-22 162h-282l-90 -162h-126l413 714h114zM213 267h210l-41 307zM162 -192l28 135h116l-28 -135h-116z" />
    <glyph glyph-name="uni1EA1" unicode="&#x1ea1;" horiz-adv-x="583" 
d="M332 551q52 0 88.5 -9t57 -28.5t31 -41.5t10 -58t-4.5 -67.5t-14 -78.5l-27 -126l-21 -141h-97l1 62q-68 -74 -193 -74q-89 0 -128 41t-23 123q7 32 19 57t28 42.5t37.5 30t46 20t53.5 12t60.5 5.5t66.5 2t72 0q19 74 5 109t-80 35q-62 0 -94.5 -28.5t-39.5 -63.5h-104
q5 24 11.5 43t24.5 45.5t43 44.5t69.5 31t101.5 13zM204 69q48 0 91 23.5t67 70.5l17 83q-48 0 -72.5 -0.5t-58 -3t-50 -8.5t-35 -16.5t-27.5 -27.5t-14 -40q-8 -38 10.5 -59.5t71.5 -21.5zM127 -192l28 135h116l-28 -135h-116z" />
    <glyph glyph-name="uni1EB8" unicode="&#x1eb8;" horiz-adv-x="588" 
d="M610 609h-347l-40 -190h299l-22 -102h-298l-44 -212h354l-23 -105h-473l149 714h467zM156 -192l28 135h116l-28 -135h-116z" />
    <glyph glyph-name="uni1EB9" unicode="&#x1eb9;" horiz-adv-x="587" 
d="M522 249h-369q-20 -86 -2 -130t91 -44q58 0 97 31t47 64h117q-6 -31 -23.5 -60.5t-48.5 -58.5t-84.5 -47t-122.5 -18q-123 0 -168 73t-17 209q30 143 98.5 214.5t204.5 71.5q121 0 166.5 -76.5t13.5 -228.5zM324 468q-106 0 -150 -135h249q7 70 -15.5 102.5t-83.5 32.5z
M131 -192l28 135h116l-28 -135h-116z" />
    <glyph glyph-name="uni1EBC" unicode="&#x1ebc;" horiz-adv-x="588" 
d="M362 802q-25 0 -40 -14.5t-17 -27.5h-59q28 132 123 132q31 0 55.5 -17t41.5 -17q25 0 40.5 14.5t17.5 27.5h60q-14 -68 -41.5 -102t-80.5 -34q-30 0 -56.5 19t-43.5 19zM610 609h-347l-40 -190h299l-22 -102h-298l-44 -212h354l-23 -105h-473l149 714h467z" />
    <glyph glyph-name="uni1EBD" unicode="&#x1ebd;" horiz-adv-x="587" 
d="M318 659q-25 0 -40.5 -14.5t-17.5 -27.5h-59q27 124 123 124q30 0 54 -17t42 -17q25 0 40.5 14.5t17.5 27.5h60q-14 -67 -40.5 -97.5t-79.5 -30.5q-31 0 -57 19t-43 19zM342 554q121 0 166.5 -76.5t13.5 -228.5h-369q-20 -86 -2 -130t91 -44q58 0 97 31t47 64h117
q-6 -31 -23.5 -60.5t-48.5 -58.5t-84.5 -47t-122.5 -18q-123 0 -168 73t-17 209q30 143 98.5 214.5t204.5 71.5zM174 333h249q7 70 -15.5 102.5t-83.5 32.5q-106 0 -150 -135z" />
    <glyph glyph-name="uni1ECA" unicode="&#x1eca;" horiz-adv-x="288" 
d="M16 0l149 714h121l-149 -714h-121zM-21 -192l28 135h116l-28 -135h-116z" />
    <glyph glyph-name="uni1ECB" unicode="&#x1ecb;" horiz-adv-x="246" 
d="M128 621l30 139h116l-30 -139h-116zM-5 0l113 541h116l-113 -541h-116zM-44 -192l28 135h116l-28 -135h-116z" />
    <glyph glyph-name="uni1ECC" unicode="&#x1ecc;" horiz-adv-x="703" 
d="M280 -18q-295 0 -216 374q41 195 126.5 286t246.5 91q294 0 215 -377q-41 -194 -126 -284t-246 -90zM303 87q89 0 143 63t84 206q33 145 8.5 208.5t-123.5 63.5q-90 0 -144.5 -64t-83.5 -208q-33 -144 -8 -206.5t124 -62.5zM183 -207l28 135h116l-28 -135h-116z" />
    <glyph glyph-name="uni1ECD" unicode="&#x1ecd;" horiz-adv-x="600" 
d="M229 -14q-126 0 -172 75t-18 208q29 139 99.5 212t209.5 73q126 1 172 -75.5t19 -209.5q-29 -138 -100 -210.5t-210 -72.5zM249 80q67 0 108.5 46t61.5 143q24 96 5.5 144t-96.5 48q-67 0 -109 -47.5t-62 -144.5q-24 -97 -5 -143t97 -46zM134 -192l28 135h116l-28 -135
h-116z" />
    <glyph glyph-name="uni1EE4" unicode="&#x1ee4;" horiz-adv-x="693" 
d="M273 -18q-138 0 -186.5 86t-9.5 273l78 373h121l-78 -373q-32 -144 -12 -199t109 -55q80 0 127 56.5t76 197.5l78 373h123l-78 -373q-40 -193 -117.5 -276t-230.5 -83zM181 -192l28 135h116l-28 -135h-116z" />
    <glyph glyph-name="uni1EE5" unicode="&#x1ee5;" horiz-adv-x="620" 
d="M460 541h116l-81 -391l-24 -150h-97l4 92q-11 -15 -27 -30.5t-41.5 -33.5t-60 -29.5t-71.5 -11.5q-93 0 -128.5 51.5t-10.5 172.5l69 330h115l-65 -312q-8 -37 -9.5 -58t3 -42t22 -30.5t49.5 -9.5q90 0 168 116zM136 -192l28 135h116l-28 -135h-116z" />
    <glyph glyph-name="Ygrave" unicode="&#x1ef2;" horiz-adv-x="602" 
d="M423 760h-105l-69 154h127zM537 714h143l-342 -463l-52 -251h-120l52 251h1l-158 463h129l107 -342z" />
    <glyph glyph-name="ygrave" unicode="&#x1ef3;" horiz-adv-x="530" 
d="M366 617h-104l-69 158h128zM440 541h132l-428 -761h-114l119 220h-29l-83 541h117l52 -434z" />
    <glyph glyph-name="uni1EF8" unicode="&#x1ef8;" horiz-adv-x="602" 
d="M339 802q-25 0 -40 -14.5t-17 -27.5h-59q28 132 123 132q31 0 55.5 -17t41.5 -17q25 0 40.5 14.5t17.5 27.5h60q-14 -68 -41.5 -102t-80.5 -34q-30 0 -56.5 19t-43.5 19zM537 714h143l-342 -463l-52 -251h-120l52 251h1l-158 463h129l107 -342z" />
    <glyph glyph-name="uni1EF9" unicode="&#x1ef9;" horiz-adv-x="530" 
d="M278 659q-25 0 -40.5 -14.5t-17.5 -27.5h-59q27 124 123 124q30 0 54 -17t42 -17q25 0 40.5 14.5t17.5 27.5h60q-14 -67 -40.5 -97.5t-79.5 -30.5q-31 0 -57 19t-43 19zM440 541h132l-428 -761h-114l119 220h-29l-83 541h117l52 -434z" />
    <glyph glyph-name="uni2009" unicode="&#x2009;" horiz-adv-x="65" 
 />
    <glyph glyph-name="endash" unicode="&#x2013;" horiz-adv-x="612" 
d="M70 275l18 90h453l-19 -90h-452z" />
    <glyph glyph-name="emdash" unicode="&#x2014;" horiz-adv-x="929" 
d="M70 275l18 90h769l-19 -90h-768z" />
    <glyph glyph-name="uni2016" unicode="&#x2016;" horiz-adv-x="602" 
d="M59 -180l213 1000h100l-212 -1000h-101zM251 -180l213 1000h100l-213 -1000h-100z" />
    <glyph glyph-name="quoteleft" unicode="&#x2018;" horiz-adv-x="242" 
d="M191 501h-119q10 46 48 125q19 37 41 70.5t35 48.5l12 15h101q-44 -65 -77 -142q-15 -35 -25.5 -64.5t-12.5 -41.5z" />
    <glyph glyph-name="quoteright" unicode="&#x2019;" horiz-adv-x="227" 
d="M147 501h-102q45 65 78 142q15 35 25 64t13 41l3 12h118q-10 -46 -48 -125q-18 -37 -39.5 -70.5t-34.5 -48.5z" />
    <glyph glyph-name="quotesinglbase" unicode="&#x201a;" horiz-adv-x="265" 
d="M41 -130h-101q44 65 77 142q15 35 25 64.5t13 41.5l3 11h119q-11 -46 -49 -124q-18 -37 -40 -71t-34 -49z" />
    <glyph glyph-name="quotedblleft" unicode="&#x201c;" horiz-adv-x="430" 
d="M193 501h-119q11 46 49 125q18 37 40 70.5t35 48.5l12 15h101q-43 -65 -76 -142q-15 -35 -25.5 -64.5t-13.5 -41.5zM380 501h-118q9 46 48 125q18 37 40 70.5t34 48.5l13 15h101q-45 -65 -77 -142q-15 -35 -25 -64.5t-13 -41.5z" />
    <glyph glyph-name="quotedblright" unicode="&#x201d;" horiz-adv-x="426" 
d="M160 501h-101q44 65 77 142q15 35 25 64t13 41l3 12h118q-10 -46 -48 -125q-18 -37 -39.5 -70.5t-34.5 -48.5zM347 501h-101q44 65 77 142q15 35 25 64t13 41l3 12h119q-12 -46 -49 -125q-18 -37 -40 -70.5t-34 -48.5z" />
    <glyph glyph-name="quotedblbase" unicode="&#x201e;" horiz-adv-x="425" 
d="M28 -135h-102q45 65 78 142q15 35 25 64.5t13 40.5l3 12h118q-11 -46 -49 -124q-18 -37 -39.5 -71t-34.5 -49zM214 -135h-101q44 65 77 142q15 35 25 64.5t13 40.5l3 12h119q-12 -46 -49 -124q-18 -37 -40 -71t-35 -49z" />
    <glyph glyph-name="dagger" unicode="&#x2020;" horiz-adv-x="492" 
d="M493 595l-21 -97h-146l-104 -498h-100l104 498h-147l21 97h147l39 188h99l-39 -188h147z" />
    <glyph glyph-name="daggerdbl" unicode="&#x2021;" horiz-adv-x="552" 
d="M507 498h-147l-44 -213h147l-20 -97h-148l-39 -188h-99l39 188h-146l20 97h146l45 213h-147l20 97h147l39 188h100l-39 -188h147z" />
    <glyph glyph-name="bullet" unicode="&#x2022;" horiz-adv-x="451" 
d="M123 214l35 168h159l-35 -168h-159z" />
    <glyph glyph-name="ellipsis" unicode="&#x2026;" horiz-adv-x="682" 
d="M14 0l28 129h117l-28 -129h-117zM215 0l27 129h117l-27 -129h-117zM416 0l27 129h117l-27 -129h-117z" />
    <glyph glyph-name="perthousand" unicode="&#x2030;" horiz-adv-x="1150" 
d="M175 358q-168 0 -131 176q18 91 64.5 136t141.5 45q166 0 129 -181q-19 -89 -64 -132.5t-140 -43.5zM190 430q44 0 66 25t33 79q13 52 1 80.5t-56 28.5q-42 0 -65 -27t-35 -82q-13 -52 -0.5 -78t56.5 -26zM26 0l597 702h102l-598 -702h-101zM497 -14q-168 0 -131 177
q18 90 64.5 135t140.5 45q167 0 130 -180q-19 -90 -64 -133.5t-140 -43.5zM512 59q43 0 65 25t34 79q13 52 1 80t-56 28q-43 0 -66 -26.5t-34 -81.5q-13 -52 -0.5 -78t56.5 -26zM872 -14q-168 0 -131 177q19 90 65 135t141 45q166 0 129 -180q-19 -90 -64 -133.5t-140 -43.5
zM887 59q43 0 65 25t34 79q13 52 1 80t-56 28q-42 0 -65 -26.5t-35 -81.5q-13 -52 -0.5 -78t56.5 -26z" />
    <glyph glyph-name="guilsinglleft" unicode="&#x2039;" horiz-adv-x="365" 
d="M331 445l-166 -190l87 -169h-124l-81 161l7 30l149 168h128z" />
    <glyph glyph-name="guilsinglright" unicode="&#x203a;" horiz-adv-x="366" 
d="M213 445l79 -168l-6 -30l-148 -161h-128l165 183l-86 176h124z" />
    <glyph glyph-name="fraction" unicode="&#x2044;" horiz-adv-x="248" 
d="M-244 -40l631 809h113l-631 -809h-113z" />
    <glyph glyph-name="uni2070" unicode="&#x2070;" horiz-adv-x="507" 
d="M180 287q-111 0 -144 65.5t-4 205.5q16 75 35.5 124t50 86t74.5 53.5t106 16.5q112 0 144.5 -67.5t1.5 -212.5q-30 -144 -87 -207.5t-177 -63.5zM198 370q58 0 92.5 43t56.5 145q23 107 7.5 152t-74.5 45q-57 0 -92 -45t-58 -152q-22 -103 -6.5 -145.5t74.5 -42.5z" />
    <glyph glyph-name="uni2074" unicode="&#x2074;" horiz-adv-x="466" 
d="M423 826l-75 -354h59l-15 -75h-60l-22 -101h-97l22 101h-259l16 75l327 354h104zM86 472h165l51 235z" />
    <glyph glyph-name="uni2075" unicode="&#x2075;" horiz-adv-x="471" 
d="M428 746l-225 4l-47 -129q46 28 113 28q78 0 111 -51.5t17 -130.5q-18 -85 -72 -132.5t-161 -47.5q-95 0 -135.5 45.5t-28.5 107.5h99q-6 -30 13.5 -54t67.5 -24q101 0 124 105q10 50 -9.5 78t-69.5 28q-32 0 -57.5 -11.5t-35.5 -22.5l-10 -11l-89 1l79 222l26 72h306z
" />
    <glyph glyph-name="uni2076" unicode="&#x2076;" horiz-adv-x="498" 
d="M446 686h-94q6 31 -10 55t-62 24q-47 0 -79 -35.5t-58 -129.5q56 43 134 43q89 0 123 -49.5t16 -127.5q-17 -83 -71.5 -131t-166.5 -48q-105 -1 -141.5 60t-9.5 186q37 171 95 239t174 68q91 0 126.5 -47t23.5 -107zM315 461q22 104 -73 104q-70 0 -120 -57
q-14 -78 3.5 -112.5t69.5 -34.5q99 0 120 100z" />
    <glyph glyph-name="uni2077" unicode="&#x2077;" horiz-adv-x="394" 
d="M129 296h-109q15 69 48.5 140.5t70.5 125t71.5 97t57.5 66.5l23 23l-249 -3l16 80h362l-16 -80q-9 -9 -24.5 -25t-57 -66.5t-76 -100.5t-69 -121.5t-48.5 -135.5z" />
    <glyph glyph-name="uni2078" unicode="&#x2078;" horiz-adv-x="496" 
d="M8 446q14 64 54.5 99t69.5 38q-22 4 -43.5 31.5t-11.5 77.5q16 72 65 110t152 38q92 0 128.5 -40t22.5 -108q-11 -51 -44.5 -79t-56.5 -30q28 -3 53.5 -38t12.5 -99q-17 -79 -69 -119t-165 -40q-102 0 -143 42t-25 117zM111 453q-17 -85 83 -85q99 0 116 85q18 86 -80 86
q-100 0 -119 -86zM171 684q-7 -35 10 -52.5t64 -17.5q90 0 104 70q18 79 -72 79q-89 0 -106 -79z" />
    <glyph glyph-name="uni2079" unicode="&#x2079;" horiz-adv-x="498" 
d="M292 840q103 0 140.5 -62t9.5 -194q-36 -169 -92.5 -233t-177.5 -64q-97 0 -134.5 46.5t-25.5 105.5h95q-6 -31 12 -54.5t69 -23.5q48 0 79.5 31.5t56.5 119.5q-56 -43 -133 -43q-90 0 -124 51t-16 137q38 182 241 183zM153 658q-22 -108 74 -108q71 0 119 55
q16 87 -0.5 121.5t-70.5 34.5q-99 0 -122 -103z" />
    <glyph glyph-name="Euro" unicode="&#x20ac;" horiz-adv-x="664" 
d="M643 503h-107q6 47 -18 75t-79 28q-109 0 -167 -143h165l-15 -73h-174q-5 -15 -10 -40l-9 -47h175l-15 -73h-167q-2 -68 24 -101t88 -33q45 0 83.5 26t51.5 64h105q-23 -86 -87 -140.5t-176 -54.5q-209 0 -202 239h-55l15 73h47q2 15 8 47l9 40h-46l15 73h52
q40 119 112.5 183.5t194.5 64.5q103 0 150.5 -60.5t31.5 -147.5z" />
    <glyph glyph-name="uni20BD" unicode="&#x20bd;" horiz-adv-x="685" 
d="M245 717h193q149 0 209.5 -48.5t34.5 -171.5q-25 -120 -99 -165.5t-238 -45.5h-70l-15 -69h155l-19 -89h-154l-27 -130h-120l27 130h-78l19 89h78l14 69h-78l21 99h78zM563 498q14 71 -23 92.5t-127 21.5h-71l-47 -228h70q59 0 94 6.5t64.5 32.5t39.5 75z" />
    <glyph glyph-name="uni2116" unicode="&#x2116;" horiz-adv-x="1218" 
d="M604 714h118l-150 -714h-132l-198 532l-112 -532h-114l150 714h132l203 -543zM986 598q109 0 144 -59t12 -171q-25 -116 -79 -172t-172 -56q-108 0 -142.5 58.5t-10.5 169.5q12 57 28.5 96t44.5 71t71.5 47.5t103.5 15.5zM1033 368q18 68 4.5 104.5t-69.5 36.5
q-45 0 -77 -36.5t-46 -104.5q-17 -69 -4 -103.5t69 -34.5q94 0 123 138zM665 0l19 89h407l-20 -89h-406z" />
    <glyph glyph-name="uni2117" unicode="&#x2117;" horiz-adv-x="790" 
d="M479 725q77 0 133.5 -20t89.5 -54t49 -82.5t15.5 -103t-14.5 -117.5q-17 -79 -49.5 -144t-83.5 -117.5t-127.5 -81.5t-172.5 -29q-94 0 -158 29.5t-92 80.5t-35.5 118.5t11.5 143.5q17 80 50.5 145.5t85 119t128 83t170.5 29.5zM677 348q10 49 11 92.5t-10 85t-36 70.5
t-70 47t-107 18q-77 0 -138.5 -26.5t-101.5 -72.5t-65.5 -99t-38.5 -115q-10 -49 -11 -92t10.5 -83.5t36 -69t69.5 -46t107 -17.5q77 0 139 25.5t102 71t65 97.5t38 114zM283 556h162q105 0 141 -33t18 -121q-19 -87 -70 -120t-157 -33h-53l-24 -111h-105zM496 402
q10 45 -9 58t-63 13h-53l-29 -140h53q29 0 45.5 3t33 19t22.5 47z" />
    <glyph glyph-name="uni2120" unicode="&#x2120;" horiz-adv-x="741" 
d="M232 729q124 0 102 -108h-57q5 23 -7 39t-47 16q-32 0 -51.5 -13.5t-22.5 -31.5q-5 -24 13 -36.5t45.5 -18t54.5 -13.5t42.5 -32t6.5 -65q-23 -101 -153 -101q-67 0 -92.5 27.5t-12.5 88.5h58q-14 -64 56 -64q33 0 54.5 13.5t25.5 32.5q6 27 -11 40.5t-44.5 18.5
t-54.5 12.5t-42 31.5t-6 67q20 96 143 96zM763 713l-72 -339h-64l57 253l-143 -254h-63l-30 252l-50 -251h-60l72 339h87l33 -258l140 258h93z" />
    <glyph glyph-name="trademark" unicode="&#x2122;" horiz-adv-x="659" 
d="M278 664h-95l-62 -290h-59l62 290h-94l11 55h248zM681 713l-72 -339h-63l57 256l-144 -257h-62l-32 254l-50 -253h-58l71 339h90l29 -253l138 253h96z" />
    <glyph glyph-name="oneeighth" unicode="&#x215b;" horiz-adv-x="1018" 
d="M967 396q-11 -51 -44.5 -79t-56.5 -30q28 -3 53.5 -38t12.5 -99q-17 -79 -69 -119t-165 -40q-102 0 -143 42t-25 117q14 64 54.5 99t69.5 38q-22 4 -43.5 31.5t-11.5 77.5q16 72 65 110t152 38q92 0 128.5 -40t22.5 -108zM832 157q18 86 -80 86q-100 0 -119 -86
q-17 -85 83 -85q99 0 116 85zM871 388q18 79 -72 79q-89 0 -106 -79q-7 -35 10 -52.5t64 -17.5q90 0 104 70zM668 769h113l-631 -809h-113zM131 224h-98l95 444l-102 -44l17 80l138 56h64z" />
    <glyph glyph-name="threeeighths" unicode="&#x215c;" horiz-adv-x="1191" 
d="M1140 396q-11 -51 -44.5 -79t-56.5 -30q28 -3 53.5 -38t12.5 -99q-17 -79 -69 -119t-165 -40q-102 0 -143 42t-25 117q14 64 54.5 99t69.5 38q-22 4 -43.5 31.5t-11.5 77.5q16 72 65 110t152 38q92 0 128.5 -40t22.5 -108zM1005 157q18 86 -80 86q-100 0 -119 -86
q-17 -85 83 -85q99 0 116 85zM1044 388q18 79 -72 79q-89 0 -106 -79q-7 -35 10 -52.5t64 -17.5q90 0 104 70zM379 391q-37 -176 -232 -176q-93 0 -131.5 48t-23.5 121h97q-7 -37 10.5 -63t63.5 -26q48 0 79.5 27t40.5 73q23 105 -90 105l-63 -4l13 61l161 120l-230 -6
l18 80h354l-15 -71l-155 -122q132 -27 103 -167zM841 769h113l-631 -809h-113z" />
    <glyph glyph-name="fiveeighths" unicode="&#x215d;" horiz-adv-x="1206" 
d="M1155 396q-11 -51 -44.5 -79t-56.5 -30q28 -3 53.5 -38t12.5 -99q-17 -79 -69 -119t-165 -40q-102 0 -143 42t-25 117q14 64 54.5 99t69.5 38q-22 4 -43.5 31.5t-11.5 77.5q16 72 65 110t152 38q92 0 128.5 -40t22.5 -108zM1020 157q18 86 -80 86q-100 0 -119 -86
q-17 -85 83 -85q99 0 116 85zM1059 388q18 79 -72 79q-89 0 -106 -79q-7 -35 10 -52.5t64 -17.5q90 0 104 70zM397 395q-18 -85 -72 -132.5t-161 -47.5q-95 0 -135.5 45.5t-28.5 107.5h99q-6 -30 13.5 -54t67.5 -24q101 0 124 105q10 50 -9.5 78t-69.5 28q-32 0 -57.5 -11.5
t-35.5 -22.5l-10 -11l-89 1l79 222l26 72h306l-16 -77l-225 4l-47 -129q46 28 113 28q78 0 111 -51.5t17 -130.5zM856 769h113l-631 -809h-113z" />
    <glyph glyph-name="seveneighths" unicode="&#x215e;" horiz-adv-x="1086" 
d="M598 150q14 64 54.5 99t69.5 38q-22 4 -43.5 31.5t-11.5 77.5q16 72 65 110t152 38q92 0 128.5 -40t22.5 -108q-11 -51 -44.5 -79t-56.5 -30q28 -3 53.5 -38t12.5 -99q-17 -79 -69 -119t-165 -40q-102 0 -143 42t-25 117zM701 157q-17 -85 83 -85q99 0 116 85
q18 86 -80 86q-100 0 -119 -86zM761 388q-7 -35 10 -52.5t64 -17.5q90 0 104 70q18 79 -72 79q-89 0 -106 -79zM105 -40l631 809h113l-631 -809h-113zM129 224h-109q15 69 48.5 140.5t70.5 125t71.5 97t57.5 66.5l23 23l-249 -3l16 80h362l-16 -80q-9 -9 -24.5 -25
t-57 -66.5t-76 -100.5t-69 -121.5t-48.5 -135.5z" />
    <glyph glyph-name="arrowleft" unicode="&#x2190;" horiz-adv-x="738" 
d="M684 350v-118l-452 5l178 -137l-61 -74l-333 263l334 268l60 -73l-179 -138z" />
    <glyph glyph-name="arrowup" unicode="&#x2191;" horiz-adv-x="600" 
d="M547 310l-74 -61l-138 179l5 -453h-117l5 454l-139 -180l-73 61l263 332z" />
    <glyph glyph-name="arrowright" unicode="&#x2192;" horiz-adv-x="736" 
d="M350 576l333 -263l-333 -268l-60 74l179 138l-453 -5v118l453 -5l-178 138z" />
    <glyph glyph-name="arrowdown" unicode="&#x2193;" horiz-adv-x="601" 
d="M473 364l75 -60l-263 -333l-269 333l73 61l139 -180l-5 454h118l-5 -452z" />
    <glyph glyph-name="arrowboth" unicode="&#x2194;" horiz-adv-x="1043" 
d="M656 548l334 -269l-334 -263l-60 75l176 135l-541 3l179 -138l-61 -75l-333 263l334 269l60 -73l-180 -139l544 1l-179 138z" />
    <glyph glyph-name="arrowupdn" unicode="&#x2195;" horiz-adv-x="600" 
d="M337 13l137 178l73 -61l-268 -334l-263 334l74 60l136 -176l3 542l-139 -180l-74 61l263 333l268 -334l-73 -60l-139 180z" />
    <glyph glyph-name="uni2196" unicode="&#x2196;" horiz-adv-x="585" 
d="M542 96l-84 -84l-316 324l29 -223l-95 -10l-50 422l426 -46l-9 -94l-224 28z" />
    <glyph glyph-name="uni2197" unicode="&#x2197;" horiz-adv-x="581" 
d="M97 478l421 49l-46 -425l-95 9l29 224l-316 -323l-84 83l323 316l-223 -28z" />
    <glyph glyph-name="uni2198" unicode="&#x2198;" horiz-adv-x="584" 
d="M96 72l9 95l225 -29l-324 318l83 83l316 -324l-28 224l94 10l50 -422z" />
    <glyph glyph-name="uni2199" unicode="&#x2199;" horiz-adv-x="582" 
d="M214 139l223 29l10 -96l-421 -49l46 426l94 -10l-29 -223l317 323l84 -84z" />
    <glyph glyph-name="minus" unicode="&#x2212;" horiz-adv-x="505" 
d="M49 280l20 97h386l-21 -97h-385z" />
    <glyph glyph-name="infinity" unicode="&#x221e;" horiz-adv-x="786" 
d="M600 470h1q178 0 143 -166q-37 -166 -214 -166h-1q-59 0 -94 27t-61 75q-48 -48 -94 -75t-105 -27h-1q-92 0 -126 44t-17 122q35 166 214 166h1q59 0 94 -27t61 -75q48 48 94 75t105 27zM191 218q41 0 75.5 22t74.5 64q-22 42 -47 64t-66 22q-88 0 -107 -86
q-17 -86 70 -86zM653 304q19 86 -70 86q-41 0 -75.5 -22t-73.5 -64q21 -41 46.5 -63.5t66.5 -22.5q89 0 106 86z" />
    <glyph glyph-name="approxequal" unicode="&#x2248;" horiz-adv-x="564" 
d="M466 479h73q-32 -150 -166 -150q-47 0 -90.5 27.5t-80.5 27.5q-29 0 -49.5 -19.5t-23.5 -35.5h-73q32 150 167 150q47 0 90 -27.5t80 -27.5q29 0 49 19t24 36zM427 297h73q-32 -150 -166 -150q-47 0 -90 27.5t-80 27.5q-30 0 -50 -19.5t-23 -35.5h-74q32 150 167 150
q47 0 90 -27.5t80 -27.5q29 0 49.5 19.5t23.5 35.5z" />
    <glyph glyph-name="notequal" unicode="&#x2260;" horiz-adv-x="556" 
d="M488 351h-144l-62 -79h190l-21 -97h-246l-70 -89h-86l70 89h-80l21 97h136l62 79h-182l21 97h238l64 81h86l-64 -81h88z" />
    <glyph glyph-name="lessequal" unicode="&#x2264;" horiz-adv-x="611" 
d="M564 590l-23 -105l-342 -89l304 -93l-23 -105l-392 149l21 99zM36 68l21 97h412l-21 -97h-412z" />
    <glyph glyph-name="greaterequal" unicode="&#x2265;" horiz-adv-x="609" 
d="M155 590l393 -144l-20 -99l-456 -149l22 105l343 93l-305 89zM48 68l21 97h412l-21 -97h-412z" />
    <glyph glyph-name="acutecomb.case" 
d="M-159 760l110 154h129l-133 -154h-106z" />
    <glyph glyph-name="at.case" horiz-adv-x="871" 
d="M530 780q80 0 140.5 -20.5t96.5 -57.5t55.5 -89t18.5 -114t-14 -132q-27 -134 -77 -197.5t-132 -64.5h-1q-90 0 -102 90q-58 -60 -156 -60q-86 0 -116.5 60t-6.5 172q48 234 220 234q79 0 116 -65l27 61h89l-64 -305q-9 -42 -9.5 -67t7.5 -36.5t26 -11.5t33 11.5t35 56
t36 122.5q18 70 12.5 132.5t-28.5 109.5t-79 74.5t-141 27.5q-83 0 -149.5 -27t-111 -76t-73 -108.5t-43.5 -132.5q-12 -59 -14 -106.5t9.5 -91.5t39.5 -73.5t78.5 -47t122.5 -17.5q131 0 202 32l-16 -72q-79 -28 -201 -28q-101 0 -171 30.5t-103 84.5t-41.5 128t12.5 161
q87 413 473 413zM401 213q77 0 117 68q0 3 2 11l33 161q-19 69 -88 69q-44 0 -76 -40t-47 -115q-32 -154 59 -154z" />
    <glyph glyph-name="bitcoin" horiz-adv-x="579" 
d="M545 533q-11 -55 -31 -89.5t-61 -54.5q42 -21 53 -61t-3 -94q-8 -43 -18.5 -69.5t-31 -50.5t-55.5 -37t-88 -19l-22 -103h-72l22 99h-50l-21 -99h-73l22 99h-69v1h-31l135 648h99l17 82h73l-18 -82h50l18 82h71l-19 -88q74 -13 96.5 -53t6.5 -111zM386 246
q11 56 -10 76.5t-96 20.5h-83l-40 -194h83q76 0 105.5 20t40.5 77zM426 519q11 51 -8.5 70t-82.5 19h-83l-37 -177h83q64 0 90.5 19t37.5 69z" />
    <glyph glyph-name="braceleft.case" horiz-adv-x="429" 
d="M490 759l-21 -105q-85 0 -114.5 -20.5t-44.5 -90.5l-23 -111q-4 -22 -14 -41t-20 -29.5t-22 -18.5t-17.5 -11t-9.5 -4q3 -1 7 -3.5t13.5 -10t14 -18.5t8.5 -29t-2 -42l-23 -108q-15 -73 4.5 -93.5t106.5 -20.5l-22 -105q-107 0 -155 18t-60 63t8 123l25 123q7 32 -6.5 44
t-66.5 12l21 96q51 0 70 12t25 43l28 135q11 51 21.5 80t29 53.5t49.5 35.5t75.5 17t114.5 6z" />
    <glyph glyph-name="braceright.case" horiz-adv-x="429" 
d="M-59 -102l22 105q85 0 114 20.5t43 90.5l23 111q5 22 15 41t20 29.5t22 18.5t17.5 11t9.5 4q-3 1 -7 3.5t-13.5 10t-14.5 18.5t-9 29.5t3 41.5l24 111q14 71 -6 91t-106 20l22 105q107 0 155 -17.5t59.5 -62t-7.5 -120.5l-26 -127q-6 -32 8 -44t67 -12l-21 -96
q-53 0 -71.5 -11.5t-24.5 -43.5l-28 -135q-11 -51 -21.5 -80t-28.5 -53.5t-49.5 -35.5t-76 -17t-114.5 -6z" />
    <glyph glyph-name="bracketleft.case" horiz-adv-x="398" 
d="M436 655h-154l-133 -641h154l-22 -105h-269l177 851h270z" />
    <glyph glyph-name="bracketright.case" horiz-adv-x="397" 
d="M390 760l-177 -851h-270l23 105h153l134 641h-155l22 105h270z" />
    <glyph glyph-name="caroncomb.alt" 
d="M-194 572l105 188h111l-130 -188h-86z" />
    <glyph glyph-name="caroncomb.alt.case" 
d="M-156 760l117 188h127l-140 -188h-104z" />
    <glyph glyph-name="dagger.sups" horiz-adv-x="286" 
d="M298 661l-13 -59h-68l-49 -230h-65l47 230h-69l14 59h68l17 85h67l-18 -85h69z" />
    <glyph glyph-name="daggerdbl.sups" horiz-adv-x="282" 
d="M288 602h-69l-18 -86h69l-12 -61h-70l-17 -83h-66l17 83h-68l12 61h69l18 86h-69l13 59h68l18 85h66l-18 -85h70z" />
    <glyph glyph-name="eight.dnom" horiz-adv-x="496" 
d="M8 150q14 64 54.5 99t69.5 38q-22 4 -43.5 31.5t-11.5 77.5q16 72 65 110t152 38q92 0 128.5 -40t22.5 -108q-11 -51 -44.5 -79t-56.5 -30q28 -3 53.5 -38t12.5 -99q-17 -79 -69 -119t-165 -40q-102 0 -143 42t-25 117zM111 157q-17 -85 83 -85q99 0 116 85q18 86 -80 86
q-100 0 -119 -86zM171 388q-7 -35 10 -52.5t64 -17.5q90 0 104 70q18 79 -72 79q-89 0 -106 -79z" />
    <glyph glyph-name="eight.numr" horiz-adv-x="496" 
d="M8 374q14 64 54.5 99t69.5 38q-22 4 -43.5 31.5t-11.5 77.5q16 72 65 110t152 38q92 0 128.5 -40t22.5 -108q-11 -51 -44.5 -79t-56.5 -30q28 -3 53.5 -38t12.5 -99q-17 -79 -69 -119t-165 -40q-102 0 -143 42t-25 117zM111 381q-17 -85 83 -85q99 0 116 85q18 86 -80 86
q-100 0 -119 -86zM171 612q-7 -35 10 -52.5t64 -17.5q90 0 104 70q18 79 -72 79q-89 0 -106 -79z" />
    <glyph glyph-name="eight.subs" horiz-adv-x="496" 
d="M8 -47q14 64 54.5 99t69.5 38q-22 4 -43.5 31.5t-11.5 77.5q16 72 65 110t152 38q92 0 128.5 -40t22.5 -108q-11 -51 -44.5 -79t-56.5 -30q28 -3 53.5 -38t12.5 -99q-17 -79 -69 -119t-165 -40q-102 0 -143 42t-25 117zM111 -40q-17 -85 83 -85q99 0 116 85q18 86 -80 86
q-100 0 -119 -86zM171 191q-7 -35 10 -52.5t64 -17.5q90 0 104 70q18 79 -72 79q-89 0 -106 -79z" />
    <glyph glyph-name="eight.tf" horiz-adv-x="685" 
d="M47 203q9 44 31 80t47 56.5t46 32t34 12.5q-26 4 -54 40.5t-15 101.5q20 95 84 146.5t195 51.5q117 0 166.5 -54t30.5 -144q-14 -65 -57.5 -101.5t-71.5 -40.5q13 -1 29 -12t33.5 -33t23.5 -55.5t-2 -80.5q-22 -105 -91.5 -159t-213.5 -54q-131 0 -184 56t-31 157z
M170 211q-12 -59 13 -87.5t101 -28.5q66 0 108.5 30.5t53.5 85.5q12 59 -12 88t-102 29q-67 0 -109 -31t-53 -86zM256 516q-9 -44 13.5 -67t83.5 -23q116 0 135 90q22 105 -95 105q-115 0 -137 -105z" />
    <glyph glyph-name="exclamdown.case" horiz-adv-x="260" 
d="M132 593l26 121h116l-26 -121h-116zM9 0l120 533h100l-105 -533h-115z" />
    <glyph glyph-name="five.dnom" horiz-adv-x="471" 
d="M428 450l-225 4l-47 -129q46 28 113 28q78 0 111 -51.5t17 -130.5q-18 -85 -72 -132.5t-161 -47.5q-95 0 -135.5 45.5t-28.5 107.5h99q-6 -30 13.5 -54t67.5 -24q101 0 124 105q10 50 -9.5 78t-69.5 28q-32 0 -57.5 -11.5t-35.5 -22.5l-10 -11l-89 1l79 222l26 72h306z
" />
    <glyph glyph-name="five.numr" horiz-adv-x="471" 
d="M428 674l-225 4l-47 -129q46 28 113 28q78 0 111 -51.5t17 -130.5q-18 -85 -72 -132.5t-161 -47.5q-95 0 -135.5 45.5t-28.5 107.5h99q-6 -30 13.5 -54t67.5 -24q101 0 124 105q10 50 -9.5 78t-69.5 28q-32 0 -57.5 -11.5t-35.5 -22.5l-10 -11l-89 1l79 222l26 72h306z
" />
    <glyph glyph-name="five.subs" horiz-adv-x="471" 
d="M428 253l-225 4l-47 -129q46 28 113 28q78 0 111 -51.5t17 -130.5q-18 -85 -72 -132.5t-161 -47.5q-95 0 -135.5 45.5t-28.5 107.5h99q-6 -30 13.5 -54t67.5 -24q101 0 124 105q10 50 -9.5 78t-69.5 28q-32 0 -57.5 -11t-35.5 -23l-10 -11l-89 1l79 222l26 72h306z" />
    <glyph glyph-name="five.tf" horiz-adv-x="685" 
d="M602 596h-286l-56 -158q58 33 131 33q103 0 150 -64t23 -179q-25 -118 -97.5 -177t-206.5 -59q-115 0 -166.5 57.5t-32.5 148.5h112q-8 -36 16 -68t94 -32q62 0 104.5 36.5t54.5 93.5q13 62 -10.5 100t-94.5 38q-37 0 -68 -16t-44 -32l-13 -15l-114 2l103 291l35 101h388
z" />
    <glyph glyph-name="four.dnom" horiz-adv-x="466" 
d="M423 530l-75 -354h59l-15 -75h-60l-22 -101h-97l22 101h-259l16 75l327 354h104zM86 176h165l51 235z" />
    <glyph glyph-name="four.numr" horiz-adv-x="466" 
d="M423 754l-75 -354h59l-15 -75h-60l-22 -101h-97l22 101h-259l16 75l327 354h104zM86 400h165l51 235z" />
    <glyph glyph-name="four.subs" horiz-adv-x="466" 
d="M423 333l-75 -354h59l-15 -75h-60l-22 -101h-97l22 101h-259l16 75l327 354h104zM86 -21h165l51 235z" />
    <glyph glyph-name="four.tf" horiz-adv-x="685" 
d="M587 700l-96 -461h84l-22 -105h-84l-28 -134h-120l29 134h-328l22 105l421 461h122zM175 239h198l64 294z" />
    <glyph glyph-name="gravecomb.case" 
d="M40 760h-105l-69 154h127z" />
    <glyph glyph-name="guillemotleft.case" horiz-adv-x="561" 
d="M343 507l-167 -190l88 -169h-124l-82 162l7 29l150 168h128zM542 507l-167 -190l89 -169h-125l-82 162l6 29l151 168h128z" />
    <glyph glyph-name="guillemotright.case" horiz-adv-x="561" 
d="M303 337l-6 -30l-148 -161h-128l165 183l-86 176h124zM423 505l78 -168l-6 -30l-148 -161h-128l166 183l-86 176h124z" />
    <glyph glyph-name="guilsinglleft.case" horiz-adv-x="364" 
d="M344 505l-166 -190l87 -169h-125l-81 161l6 30l151 168h128z" />
    <glyph glyph-name="guilsinglright.case" horiz-adv-x="365" 
d="M225 505l79 -168l-6 -30l-148 -161h-128l165 183l-86 176h124z" />
    <glyph glyph-name="i.loclTRK" horiz-adv-x="246" 
d="M128 621l30 139h116l-30 -139h-116zM-5 0l113 541h116l-113 -541h-116z" />
    <glyph glyph-name="nine.dnom" horiz-adv-x="498" 
d="M292 544q103 0 140.5 -62t9.5 -194q-36 -169 -92.5 -233t-177.5 -64q-97 0 -134.5 46.5t-25.5 105.5h95q-6 -31 12 -54.5t69 -23.5q48 0 79.5 31.5t56.5 119.5q-56 -43 -133 -43q-90 0 -124 51t-16 137q38 182 241 183zM153 362q-22 -108 74 -108q71 0 119 55
q16 87 -0.5 121.5t-70.5 34.5q-99 0 -122 -103z" />
    <glyph glyph-name="nine.numr" horiz-adv-x="498" 
d="M292 768q103 0 140.5 -62t9.5 -194q-36 -169 -92.5 -233t-177.5 -64q-97 0 -134.5 46.5t-25.5 105.5h95q-6 -31 12 -54.5t69 -23.5q48 0 79.5 31.5t56.5 119.5q-56 -43 -133 -43q-90 0 -124 51t-16 137q38 182 241 183zM153 586q-22 -108 74 -108q71 0 119 55
q16 87 -0.5 121.5t-70.5 34.5q-99 0 -122 -103z" />
    <glyph glyph-name="nine.subs" horiz-adv-x="498" 
d="M292 347q103 0 140.5 -62t9.5 -194q-36 -169 -92.5 -233t-177.5 -64q-97 0 -134.5 46.5t-25.5 105.5h95q-6 -31 12 -54.5t69 -23.5q48 0 79.5 31.5t56.5 119.5q-56 -43 -133 -43q-90 0 -124 51t-16 137q38 182 241 183zM153 165q-22 -108 74 -108q71 0 119 55
q16 87 -0.5 121.5t-70.5 34.5q-99 0 -122 -103z" />
    <glyph glyph-name="nine.tf" horiz-adv-x="685" 
d="M411 722q126 1 174.5 -82.5t14.5 -249.5q-47 -221 -121.5 -311.5t-220.5 -90.5q-52 0 -92 13t-62.5 33.5t-37 47t-15 54.5t3.5 54h122q-5 -15 -2 -31.5t11 -31t32.5 -24t61.5 -9.5q59 0 98.5 38.5t71.5 147.5q-79 -58 -176 -58q-105 0 -148 74.5t-21 182.5
q23 111 98 176.5t208 66.5zM227 479q-15 -74 5.5 -113t88.5 -39q90 0 157 67q26 130 6 176.5t-95 46.5q-61 0 -105 -36.5t-57 -101.5z" />
    <glyph glyph-name="one.dnom" horiz-adv-x="266" 
d="M181 536h64l-114 -536h-98l95 444l-102 -44l17 80z" />
    <glyph glyph-name="one.numr" horiz-adv-x="266" 
d="M181 760h64l-114 -536h-98l95 444l-102 -44l17 80z" />
    <glyph glyph-name="one.subs" horiz-adv-x="266" 
d="M181 339h64l-114 -536h-98l95 444l-102 -44l17 80z" />
    <glyph glyph-name="one.tf" horiz-adv-x="685" 
d="M369 103h135l-23 -103h-374l22 103h121l102 490l-150 -66l24 110l176 77h95z" />
    <glyph glyph-name="paragraph.alt" horiz-adv-x="609" 
d="M623 760l-158 -760h-100l136 656h-67l-137 -656h-100l58 277q-152 3 -196.5 53t-16.5 188t94.5 188.5t219.5 53.5h267z" />
    <glyph glyph-name="parenleft.case" horiz-adv-x="343" 
d="M271 760h116l-13 -18q-12 -18 -33.5 -56t-44.5 -88t-47.5 -124.5t-39.5 -153.5q-23 -137 -19.5 -234t19.5 -150l16 -53h-117q-3 6 -7.5 18.5t-14 54.5t-13.5 88.5t-0.5 121.5t19.5 154q16 82 40.5 158t47.5 125t44 86t34 54z" />
    <glyph glyph-name="parenright.case" horiz-adv-x="343" 
d="M136 760h118q2 -6 5.5 -18.5t9.5 -54.5t7.5 -89.5t-4.5 -122.5t-22 -155q-17 -82 -43.5 -157t-52.5 -123.5t-50 -86t-38 -53.5l-15 -17h-117q6 6 15.5 18.5t37 54.5t51.5 88.5t51.5 121.5t43.5 154q16 77 22 150.5t3.5 123.5t-7.5 89.5t-10 58.5z" />
    <glyph glyph-name="questiondown.case" horiz-adv-x="517" 
d="M418 714l-25 -121h-116l25 121h116zM268 533h108l-5 -22q-11 -53 -34.5 -94.5t-50.5 -67t-54 -48.5t-48 -52.5t-28 -65.5q-11 -50 4 -77t68 -27q51 0 79 33.5t42 101.5h117q-25 -124 -87 -183t-176 -59q-106 0 -146 53.5t-22 142.5q11 51 35.5 92.5t52.5 68.5t56 52
t51.5 58t32.5 72z" />
    <glyph glyph-name="registered.alt" horiz-adv-x="483" 
d="M318 744q109 0 145 -58t16 -155q-45 -209 -251 -209q-108 0 -144 57t-16 152q20 97 81 155t169 58zM435 531q37 176 -124 176q-162 0 -199 -176q-37 -172 125 -172q161 0 198 172zM205 653h80q69 0 87 -13t8 -63q-7 -33 -17.5 -48.5t-29.5 -21.5l22 -95l-70 2l-11 86h-43
l-18 -86h-59zM240 542h19q35 0 47.5 5.5t16.5 29.5q6 24 -4 30t-44 6h-20z" />
    <glyph glyph-name="section.sups" horiz-adv-x="317" 
d="M323 664h-52q3 18 -6 27.5t-39 9.5q-51 0 -55 -28q-4 -20 19 -29.5t52.5 -12.5t50.5 -22t13 -56q-7 -36 -44 -60q27 -18 19 -59q-9 -40 -38.5 -59t-89.5 -19q-53 0 -77 22t-14 68h52q-5 -24 6.5 -35t41.5 -11q53 0 60 30q4 17 -11 26t-38 13t-45 10.5t-35 24.5t-6 48
q6 32 43 60q-26 19 -17 60q7 36 35 54.5t86 18.5q52 0 74.5 -20.5t14.5 -60.5zM247 550q2 9 -1 16t-12 11t-17 6.5t-24 5.5t-23 5q-20 -16 -25 -42q0 -5 -1 -9t2.5 -8t5.5 -6t8 -4.5t9.5 -4t10.5 -3t11.5 -2.5t12.5 -2.5t13 -2.5q25 17 30 40z" />
    <glyph glyph-name="seven.dnom" horiz-adv-x="394" 
d="M129 0h-109q15 69 48.5 140.5t70.5 125t71.5 97t57.5 66.5l23 23l-249 -3l16 80h362l-16 -80q-9 -9 -24.5 -25t-57 -66.5t-76 -100.5t-69 -121.5t-48.5 -135.5z" />
    <glyph glyph-name="seven.numr" horiz-adv-x="394" 
d="M129 224h-109q15 69 48.5 140.5t70.5 125t71.5 97t57.5 66.5l23 23l-249 -3l16 80h362l-16 -80q-9 -9 -24.5 -25t-57 -66.5t-76 -100.5t-69 -121.5t-48.5 -135.5z" />
    <glyph glyph-name="seven.subs" horiz-adv-x="394" 
d="M129 -197h-109q15 69 48.5 140.5t70.5 125t71.5 97t57.5 66.5l23 23l-249 -3l16 80h362l-16 -80q-9 -9 -24.5 -25t-57 -66.5t-76 -100.5t-69 -121.5t-48.5 -135.5z" />
    <glyph glyph-name="seven.tf" horiz-adv-x="685" 
d="M266 0h-129q19 91 63 185.5t93 164.5t95.5 127t77.5 87l30 29h-335l23 105h475l-23 -105l-33 -33t-77.5 -86.5t-103 -132t-92.5 -160.5t-64 -181z" />
    <glyph glyph-name="six.dnom" horiz-adv-x="498" 
d="M446 390h-94q6 31 -10 55t-62 24q-47 0 -79 -35.5t-58 -129.5q56 43 134 43q89 0 123 -49.5t16 -127.5q-17 -83 -71.5 -131t-166.5 -48q-105 -1 -141.5 60t-9.5 186q37 171 95 239t174 68q91 0 126.5 -47t23.5 -107zM315 165q22 104 -73 104q-70 0 -120 -57
q-14 -78 3.5 -112.5t69.5 -34.5q99 0 120 100z" />
    <glyph glyph-name="six.numr" horiz-adv-x="498" 
d="M446 614h-94q6 31 -10 55t-62 24q-47 0 -79 -35.5t-58 -129.5q56 43 134 43q89 0 123 -49.5t16 -127.5q-17 -83 -71.5 -131t-166.5 -48q-105 -1 -141.5 60t-9.5 186q37 171 95 239t174 68q91 0 126.5 -47t23.5 -107zM315 389q22 104 -73 104q-70 0 -120 -57
q-14 -78 3.5 -112.5t69.5 -34.5q99 0 120 100z" />
    <glyph glyph-name="six.subs" horiz-adv-x="498" 
d="M446 193h-94q6 31 -10 55t-62 24q-47 0 -79 -35.5t-58 -129.5q56 43 134 43q89 0 123 -49.5t16 -127.5q-17 -83 -71.5 -131t-166.5 -48q-105 -1 -141.5 60t-9.5 186q37 171 95 239t174 68q91 0 126.5 -47t23.5 -107zM315 -32q22 104 -73 104q-70 0 -120 -57
q-14 -78 3.5 -112.5t69.5 -34.5q99 0 120 100z" />
    <glyph glyph-name="six.tf" horiz-adv-x="685" 
d="M614 520h-122q8 37 -12 67t-80 30q-55 0 -96.5 -44t-75.5 -161q75 55 174 55q57 0 97 -20.5t57.5 -55t23.5 -78t-6 -90.5q-49 -234 -304 -235q-258 0 -190 326q46 220 123.5 314t218.5 94q59 0 102 -18.5t63 -47.5t28.5 -65t-1.5 -71zM452 223q29 139 -95 139
q-93 0 -158 -69q-22 -114 -0.5 -156.5t92.5 -42.5q61 0 104.5 34.5t56.5 94.5z" />
    <glyph glyph-name="three.dnom" horiz-adv-x="456" 
d="M446 527l-15 -71l-155 -122q132 -27 103 -167q-37 -176 -232 -176q-93 0 -131.5 48t-23.5 121h97q-7 -37 10.5 -63t63.5 -26q48 0 79.5 27t40.5 73q23 105 -90 105l-63 -4l13 61l161 120l-230 -6l18 80h354z" />
    <glyph glyph-name="three.numr" horiz-adv-x="456" 
d="M446 751l-15 -71l-155 -122q132 -27 103 -167q-37 -176 -232 -176q-93 0 -131.5 48t-23.5 121h97q-7 -37 10.5 -63t63.5 -26q48 0 79.5 27t40.5 73q23 105 -90 105l-63 -4l13 61l161 120l-230 -6l18 80h354z" />
    <glyph glyph-name="three.subs" horiz-adv-x="456" 
d="M446 330l-15 -71l-155 -122q132 -27 103 -167q-37 -176 -232 -176q-93 0 -131.5 48t-23.5 121h97q-7 -37 10.5 -63t63.5 -26q48 0 79.5 27t40.5 73q23 105 -90 105l-63 -4l13 61l161 120l-230 -6l18 80h354z" />
    <glyph glyph-name="three.tf" horiz-adv-x="685" 
d="M625 697l-19 -93l-205 -151q87 -18 125.5 -76t19.5 -150q-49 -235 -302 -235q-111 0 -162.5 60.5t-30.5 160.5h112q-10 -45 14.5 -80t88.5 -35q67 0 106.5 35.5t51.5 93.5q27 129 -127 129l-86 -7l21 102l207 150l-281 -5l22 101h445z" />
    <glyph glyph-name="tildecomb.case" 
d="M-1 900h60q-14 -68 -41.5 -102t-80.5 -34q-30 0 -56.5 19t-43.5 19q-25 0 -40 -14.5t-17 -27.5h-59q28 132 123 132q31 0 55.5 -17t41.5 -17q25 0 40.5 14.5t17.5 27.5z" />
    <glyph glyph-name="two.dnom" horiz-adv-x="453" 
d="M-33 2l16 80q95 60 177 122q43 32 57 43t42.5 36t41 45.5t17.5 44.5q18 87 -69 87q-43 0 -70.5 -25t-37.5 -72h-100q19 89 71 134t155 45q90 0 127.5 -44t21.5 -119q-9 -42 -36.5 -81.5t-52.5 -62.5t-70 -59q-31 -24 -64.5 -49t-51.5 -37l-18 -13l230 6l-17 -81h-369z
" />
    <glyph glyph-name="two.numr" horiz-adv-x="453" 
d="M-33 226l16 80q95 60 177 122q43 32 57 43t42.5 36t41 45.5t17.5 44.5q18 87 -69 87q-43 0 -70.5 -25t-37.5 -72h-100q19 89 71 134t155 45q90 0 127.5 -44t21.5 -119q-9 -42 -36.5 -81.5t-52.5 -62.5t-70 -59q-31 -24 -64.5 -49t-51.5 -37l-18 -13l230 6l-17 -81h-369z
" />
    <glyph glyph-name="two.subs" horiz-adv-x="453" 
d="M-33 -195l16 80q95 60 177 122q43 32 57 43t42.5 36t41 45.5t17.5 44.5q18 87 -69 87q-43 0 -70.5 -25t-37.5 -72h-100q19 89 71 134t155 45q90 0 127.5 -44t21.5 -119q-9 -42 -36.5 -81.5t-52.5 -62.5t-70 -59q-31 -24 -64.5 -49t-51.5 -38l-18 -12l230 6l-17 -81h-369z
" />
    <glyph glyph-name="two.tf" horiz-adv-x="685" 
d="M35 1l22 105q113 78 228 171q9 7 35.5 28.5t35.5 28.5t30.5 26t30.5 28t24 26t22 29.5t14 28.5t10 32q24 114 -87 114q-118 0 -143 -118h-121q23 114 93 168.5t193 54.5q110 0 159.5 -54.5t26.5 -163.5q-9 -42 -27.5 -79t-50 -72t-56.5 -59t-68 -60q-42 -36 -89 -70
t-73 -50l-26 -16l301 4l-22 -102h-462z" />
    <glyph glyph-name="uni0302.case" 
d="M46 760h-99l-45 63l-72 -63h-105l132 138h114z" />
    <glyph glyph-name="uni0304.case" 
d="M-213 872h270l-20 -90h-270z" />
    <glyph glyph-name="uni0306.case" 
d="M8 894h90q-12 -60 -55.5 -97t-123.5 -37q-70 0 -102.5 38.5t-20.5 95.5h90q-4 -21 9 -36.5t41 -15.5t47.5 15.5t24.5 36.5z" />
    <glyph glyph-name="uni0307.case" 
d="M-95 760l29 139h116l-29 -139h-116z" />
    <glyph glyph-name="uni0308.case" 
d="M-289 760l29 139h116l-29 -139h-116zM-109 760l28 139h117l-29 -139h-116z" />
    <glyph glyph-name="uni030A.case" 
d="M-56 760q-40 0 -62 25.5t-13 65.5q20 91 114 91q40 0 62 -25.5t13 -65.5q-19 -91 -114 -91zM-43 817q14 0 25 9.5t14 24.5q4 16 -3 25t-22 9t-26 -9.5t-14 -24.5q-6 -34 26 -34z" />
    <glyph glyph-name="uni030B.case" 
d="M-344 760l109 154h128l-131 -154h-106zM-176 760l126 154h129l-149 -154h-106z" />
    <glyph glyph-name="uni030C.case" 
d="M-28 898h105l-132 -138h-114l-74 138h98l46 -63z" />
    <glyph glyph-name="uni0338.case" 
d="M-522 11l650 741h109l-650 -741h-109z" />
    <glyph glyph-name="zero.dnom" horiz-adv-x="507" 
d="M180 -9q-111 0 -144 65.5t-4 205.5q16 75 35.5 124t50 86t74.5 53.5t106 16.5q112 0 144.5 -67.5t1.5 -212.5q-30 -144 -87 -207.5t-177 -63.5zM198 74q58 0 92.5 43t56.5 145q23 107 7.5 152t-74.5 45q-57 0 -92 -45t-58 -152q-22 -103 -6.5 -145.5t74.5 -42.5z" />
    <glyph glyph-name="zero.numr" horiz-adv-x="507" 
d="M180 215q-111 0 -144 65.5t-4 205.5q16 75 35.5 124t50 86t74.5 53.5t106 16.5q112 0 144.5 -67.5t1.5 -212.5q-30 -144 -87 -207.5t-177 -63.5zM198 298q58 0 92.5 43t56.5 145q23 107 7.5 152t-74.5 45q-57 0 -92 -45t-58 -152q-22 -103 -6.5 -145.5t74.5 -42.5z" />
    <glyph glyph-name="zero.subs" horiz-adv-x="507" 
d="M180 -206q-111 0 -144 65.5t-4 205.5q16 75 35.5 124t50 86t74.5 53.5t106 16.5q112 0 144.5 -67.5t1.5 -212.5q-30 -144 -87 -207.5t-177 -63.5zM198 -123q58 0 92.5 43t56.5 145q23 107 7.5 152t-74.5 45q-57 0 -92 -45t-58 -152q-22 -103 -6.5 -145.5t74.5 -42.5z" />
    <glyph glyph-name="zero.tf" horiz-adv-x="685" 
d="M267 -12q-145 0 -188 86t-5 272q21 101 46.5 168t65.5 115.5t97 70t136 21.5q146 0 188.5 -89t1.5 -286q-39 -191 -113.5 -274.5t-228.5 -83.5zM289 94q77 0 124.5 58t75.5 194q33 150 14 210t-106 60q-76 0 -123.5 -61.5t-78.5 -208.5q-31 -139 -12 -195.5t106 -56.5z
" />
    </font>
</defs>
</svg>
