<svg xmlns="http://www.w3.org/2000/svg">
<defs>
<font id="TofinoPersonal-LightItalic" horiz-adv-x="0" >
  <font-face 
    font-family="Tofino Personal Light Italic"
    font-weight="415"
    font-style="italic"
    font-stretch="normal"
    units-per-em="1000"
    panose-1="2 0 0 0 0 0 0 0 0 0"
    ascent="760"
    descent="-240"
    x-height="526"
    cap-height="704"
    bbox="-657 -240 1077.9 1051"
    underline-thickness="50"
    underline-position="-225"
    unicode-range="U+000D-FB04"
  />
<missing-glyph horiz-adv-x="691" 
d="M362 540q8 -13 55 -18q1 -1 4 -1q1 1 1 3l4 9q-42 39 -54 36q-5 -2 -9 -14q-3 -10 -1 -15zM464 495l5 -1q15 0 17 11q2 9 -1 13q-3 5 -12 8q-1 1 -5 1q-14 0 -17 -11q-1 -5 2 -12q4 -8 11 -9zM582 486q4 2 2 16q0 10 -5 15q-12 8 -57 -7q-2 -1 -5 -1q0 -9 -2 -13
q2 -1 3 -1q56 -15 64 -9zM306 239q4 16 -3 25l-2 3h-1q-24 12 -85 12q-22 0 -38.5 -2.5t-22 -5.5t-5.5 -4q-3 -25 6 -50t31 -29q15 -3 38 -3q38 0 54 6q17 11 28 48zM485 188q22 2 30.5 27t6.5 52q-12 12 -67 12q-60 0 -84 -12q-1 0 -1 -2l-3 -1q-7 -8 -2 -25q3 -33 28 -48
q14 -6 52 -6q7 0 40 3zM511 465q77 -80 77 -194q0 -112 -74.5 -191t-178.5 -79t-177.5 79t-73.5 191q0 119 80 197q-27 39 -10 82q16 40 67 66t114 26q65 0 118 -27t70 -70q0 -1 1 -3q52 15 72 -1q18 -13 19 -38q2 -27 -14 -41q-13 -9 -31 -9q-17 0 -59 12zM241 439
q22 -44 102 -78t207 -28q-21 82 -85 132q-7 0 -10 1q-20 7 -28 23h-1q-2 1 -6.5 1.5t-6.5 0.5q-45 6 -62 18q-6 1 -16 1q-47 0 -88 -19q-20 -24 -6 -52zM182 539q-10 -25 5 -50q65 51 144 52q-1 11 3 26q13 28 32 32q29 6 80 -43l3 -2q12 4 19 4q1 0 13 -3q-22 26 -63 41
t-83 15q-52 0 -96 -21t-57 -51zM205 465q-69 -57 -85 -143q37 -1 78 12.5t66 34.5q-36 27 -50 57q-9 20 -9 39zM133 291l10 -9q20 11 72 11q67 0 91 -12q30 -15 59 0q24 12 90 12q54 0 72 -11q10 15 18 21q-10 -1 -31 -1q-133 0 -223 50q-28 -25 -71.5 -42t-86.5 -19z
M335 31q92 0 157 70.5t65 169.5q0 14 -1 21q-10 -9 -20 -23v-1q4 -35 -9 -64t-41 -32q-20 -2 -41 -2q-43 0 -60 9q-27 15 -36 57q-1 3 -1 6q-3 13 -14 13q-8 0 -11 -13q-2 -1 -2 -6q-9 -43 -37 -57q-14 -9 -60 -9q-21 0 -39 2q-28 3 -41.5 32t-9.5 64v1l-19 18v-16

<glyph glyph-name="f_f" unicode="ff" horiz-adv-x="547" 
d="M616 768h43l-6 -30h-40q-69 0 -100 -39.5t-49 -126.5l-9 -41h148l-6 -29h-148l-104 -502h-33l104 502h-239l-105 -502h-33l105 502h-72l6 29h72l9 41q10 49 21.5 81t32 60t53 41.5t78.5 13.5h43l-6 -30h-41q-67 0 -99 -39.5t-49 -126.5l-9 -41h239l9 41q10 49 21.5 81
t32 60t53 41.5t78.5 13.5z" />
    <glyph glyph-name="fi" unicode="fi" horiz-adv-x="478" 
d="M344 768h43l-6 -30h-41q-67 0 -99 -39.5t-49 -126.5l-9 -41h149l-6 -29h-149l-105 -502h-33l105 502h-72l6 29h72l9 41q10 49 21.5 81t32 60t53 41.5t78.5 13.5zM442 646l24 113h34l-24 -113h-34zM308 0l110 531h33l-110 -531h-33z" />
    <glyph glyph-name="fl" unicode="fl" horiz-adv-x="486" 
d="M344 768h43l-6 -30h-41q-67 0 -99 -39.5t-49 -126.5l-9 -41h149l-6 -29h-149l-105 -502h-33l105 502h-72l6 29h72l9 41q10 49 21.5 81t32 60t53 41.5t78.5 13.5zM312 0l159 760h33l-159 -760h-33z" />
    <glyph glyph-name="f_f_i" unicode="ffi" horiz-adv-x="757" 
d="M596 502h-147l-104 -502h-33l104 502h-239l-105 -502h-33l105 502h-72l6 29h72l9 41q10 49 21.5 81t32 60t53 41.5t78.5 13.5h43l-6 -30h-41q-67 0 -99 -39.5t-49 -126.5l-9 -41h239l9 41q10 49 21.5 81t32 60t53 41.5t79.5 13.5h42l-6 -30h-40q-69 0 -100 -39.5
t-49 -126.5l-9 -41h147zM745 767h34l-27 -130h-34zM585 0l110 531h33l-110 -531h-33z" />
    <glyph glyph-name="f_f_l" unicode="ffl" horiz-adv-x="753" 
d="M596 502h-147l-104 -502h-33l104 502h-239l-105 -502h-33l105 502h-72l6 29h72l9 41q10 49 21.5 81t32 60t53 41.5t78.5 13.5h43l-6 -30h-41q-67 0 -99 -39.5t-49 -126.5l-9 -41h239l9 41q10 49 21.5 81t32 60t53 41.5t78.5 13.5h43l-6 -30h-40q-69 0 -100 -39.5
t-49 -126.5l-9 -41h147zM738 760h33l-159 -760h-33z" />
    <glyph glyph-name=".notdef" horiz-adv-x="691" 
d="M362 540q8 -13 55 -18q1 -1 4 -1q1 1 1 3l4 9q-42 39 -54 36q-5 -2 -9 -14q-3 -10 -1 -15zM464 495l5 -1q15 0 17 11q2 9 -1 13q-3 5 -12 8q-1 1 -5 1q-14 0 -17 -11q-1 -5 2 -12q4 -8 11 -9zM582 486q4 2 2 16q0 10 -5 15q-12 8 -57 -7q-2 -1 -5 -1q0 -9 -2 -13
q2 -1 3 -1q56 -15 64 -9zM306 239q4 16 -3 25l-2 3h-1q-24 12 -85 12q-22 0 -38.5 -2.5t-22 -5.5t-5.5 -4q-3 -25 6 -50t31 -29q15 -3 38 -3q38 0 54 6q17 11 28 48zM485 188q22 2 30.5 27t6.5 52q-12 12 -67 12q-60 0 -84 -12q-1 0 -1 -2l-3 -1q-7 -8 -2 -25q3 -33 28 -48
q14 -6 52 -6q7 0 40 3zM511 465q77 -80 77 -194q0 -112 -74.5 -191t-178.5 -79t-177.5 79t-73.5 191q0 119 80 197q-27 39 -10 82q16 40 67 66t114 26q65 0 118 -27t70 -70q0 -1 1 -3q52 15 72 -1q18 -13 19 -38q2 -27 -14 -41q-13 -9 -31 -9q-17 0 -59 12zM241 439
q22 -44 102 -78t207 -28q-21 82 -85 132q-7 0 -10 1q-20 7 -28 23h-1q-2 1 -6.5 1.5t-6.5 0.5q-45 6 -62 18q-6 1 -16 1q-47 0 -88 -19q-20 -24 -6 -52zM182 539q-10 -25 5 -50q65 51 144 52q-1 11 3 26q13 28 32 32q29 6 80 -43l3 -2q12 4 19 4q1 0 13 -3q-22 26 -63 41
t-83 15q-52 0 -96 -21t-57 -51zM205 465q-69 -57 -85 -143q37 -1 78 12.5t66 34.5q-36 27 -50 57q-9 20 -9 39zM133 291l10 -9q20 11 72 11q67 0 91 -12q30 -15 59 0q24 12 90 12q54 0 72 -11q10 15 18 21q-10 -1 -31 -1q-133 0 -223 50q-28 -25 -71.5 -42t-86.5 -19z
M335 31q92 0 157 70.5t65 169.5q0 14 -1 21q-10 -9 -20 -23v-1q4 -35 -9 -64t-41 -32q-20 -2 -41 -2q-43 0 -60 9q-27 15 -36 57q-1 3 -1 6q-3 13 -14 13q-8 0 -11 -13q-2 -1 -2 -6q-9 -43 -37 -57q-14 -9 -60 -9q-21 0 -39 2q-28 3 -41.5 32t-9.5 64v1l-19 18v-16
q0 -99 64.5 -169.5t155.5 -70.5zM403 106q0 -20 -20 -33.5t-49 -13.5t-49 13.5t-20 33.5q0 19 20.5 32.5t48.5 13.5t48.5 -13.5t20.5 -32.5zM249 269l-4 -18q14 -8 14 -26q0 -13 -9 -22t-22 -9q-12 0 -21.5 9t-9.5 22q0 6 2 10l-14 11q-4 3 0 7q2 2 6 0l12 -11l3 6l-7 14
q-2 1 -1.5 3t2.5 3q4 2 6 -3l8 -12q0 1 2 1t3 1l-2 16q0 5 5 5q3 0 5 -4l1 -16q2 0 4.5 -0.5t3.5 -0.5l4 17q2 4 6 4q4 -3 3 -7zM491 253q1 -4 -1 -7l-13 -13q0 -1 0.5 -3.5t0.5 -4.5q0 -13 -9.5 -22t-22.5 -9q-12 0 -21 9t-9 22q0 18 15 26l-5 18q0 4 4 7q5 0 5 -4l4 -17
q2 1 7 1l3 16q0 4 5 4q4 0 4 -5l-3 -16l7 -2l7 12q3 5 5 3q2 -1 3 -3t0 -3l-9 -14q4 -3 4 -6l13 11q1 1 3 1t3 -1z" />
    <glyph glyph-name=".null" 
 />
    <glyph glyph-name="nonmarkingreturn" horiz-adv-x="333" 
 />
    <glyph glyph-name="NULL" 
 />
    <glyph glyph-name="NULL" 
 />
    <glyph glyph-name="CR" unicode="&#xd;" horiz-adv-x="219" 
 />
    <glyph glyph-name="space" unicode=" " horiz-adv-x="219" 
 />
    <glyph glyph-name="exclam" unicode="!" horiz-adv-x="199" 
d="M70 154l114 550h33l-116 -550h-31zM37 0l20 94h33l-20 -94h-33z" />
    <glyph glyph-name="quotedbl" unicode="&#x22;" horiz-adv-x="221" 
d="M125 600l27 159h40l-39 -159h-28zM214 600l27 159h40l-39 -159h-28z" />
    <glyph glyph-name="numbersign" unicode="#" horiz-adv-x="682" 
d="M649 476h-110l-93 -231h109l-6 -29h-115l-87 -216h-32l87 216h-203l-87 -216h-32l87 216h-106l6 29h112l93 231h-111l6 29h117l79 197h32l-79 -197h203l79 197h32l-79 -197h104zM414 245l93 231h-203l-93 -231h203z" />
    <glyph glyph-name="dollar" unicode="$" horiz-adv-x="535" 
d="M382 770l-15 -71q101 -3 137.5 -50.5t19.5 -126.5h-32q31 142 -131 147l-58 -278q21 -5 33 -7.5t31.5 -8t30.5 -10.5t26.5 -13.5t23.5 -18t17 -22.5t12 -28.5t3 -35.5t-5 -44q-16 -77 -81.5 -121t-163.5 -46l-20 -94h-26l20 94q-200 8 -161 199h33q-17 -79 14 -122
t120 -47l63 300q-19 4 -31 7t-29.5 8t-28.5 10t-24.5 12.5t-21 16t-15 20.5t-10.5 26t-2.5 32t4.5 39q15 72 73.5 115.5t153.5 46.5l15 71h25zM149 537q-8 -36 -1 -61t28.5 -40.5t44 -23.5t58.5 -16l57 273q-81 -4 -128.5 -41t-58.5 -91zM440 203q2 22 4.5 38.5t-4.5 31.5
t-11.5 25t-18 19t-23.5 15t-27.5 12t-30.5 9.5t-32 7.5l-61 -295q83 2 137.5 39.5t66.5 97.5z" />
    <glyph glyph-name="percent" unicode="%" horiz-adv-x="687" 
d="M202 378q-142 0 -107 163q34 167 176 167q141 0 106 -167q-16 -78 -57.5 -120.5t-117.5 -42.5zM207 403q111 0 139 138q14 72 -3 107t-78 35q-109 0 -139 -142q-15 -71 2 -104.5t79 -33.5zM34 0l598 702h38l-598 -702h-38zM429 -6q-143 0 -108 163q34 167 176 167
q141 0 106 -167q-16 -78 -57 -120.5t-117 -42.5zM434 19q109 0 138 138q14 71 -3 106.5t-78 35.5q-109 0 -139 -142q-15 -70 2.5 -104t79.5 -34z" />
    <glyph glyph-name="ampersand" unicode="&#x26;" horiz-adv-x="689" 
d="M574 345h34q-33 -163 -91 -246l69 -99h-43l-49 69q-77 -85 -233 -85q-233 0 -189 213q11 53 35 93.5t54.5 63t53.5 34t46 17.5q-24 38 -30.5 69t2.5 83q34 162 206 162q161 0 130 -164h-35q14 66 -8.5 99.5t-92.5 33.5q-137 0 -163 -131q-4 -21 -5 -38.5t3 -35.5
t8.5 -30.5t17 -32.5t21 -32.5t28 -39t31.5 -44.5q17 -25 59.5 -86t62.5 -90q48 74 78 217zM268 15q135 0 205 82q-137 198 -142 206l-55 79q-21 -6 -41.5 -16t-47.5 -30.5t-48.5 -56t-31.5 -81.5q-19 -89 16 -136t145 -47z" />
    <glyph glyph-name="quotesingle" unicode="'" horiz-adv-x="130" 
d="M124 600l27 159h40l-39 -159h-28z" />
    <glyph glyph-name="parenleft" unicode="(" horiz-adv-x="253" 
d="M286 760h35l-15 -22q-14 -23 -39 -67.5t-51.5 -100.5t-53.5 -135t-44 -158q-26 -148 -21 -253.5t25 -163.5l20 -58h-35q-3 7 -8.5 21t-17 61t-17 98.5t-1.5 132t21 162.5q28 131 78.5 251.5t87.5 175.5z" />
    <glyph glyph-name="parenright" unicode=")" horiz-adv-x="254" 
d="M146 760h33q3 -8 6.5 -22.5t11 -63t10.5 -101t-3 -133.5t-23 -163t-46 -161.5t-58.5 -133.5t-56 -96.5t-43.5 -63.5l-17 -20h-35q7 8 18 22.5t42 63t58 100.5t57 131t47 158q27 144 26.5 251t-13.5 170z" />
    <glyph glyph-name="asterisk" unicode="*" horiz-adv-x="337" 
d="M108 636l15 30l81 -32l17 91h30l-21 -91l93 32l3 -30l-93 -26l48 -73l-29 -20l-44 77l-76 -77l-21 20l79 73z" />
    <glyph glyph-name="plus" unicode="+" horiz-adv-x="474" 
d="M438 323l-6 -29h-172l-36 -172h-31l36 172h-171l6 29h172l36 172h31l-36 -172h171z" />
    <glyph glyph-name="comma" unicode="," horiz-adv-x="175" 
d="M-14 -88h-31q31 44 58 107q12 28 20 51.5t10 33.5l2 9h36q-4 -33 -32 -95q-13 -28 -28.5 -54.5t-24.5 -39.5z" />
    <glyph glyph-name="hyphen" unicode="-" horiz-adv-x="375" 
d="M91 305l6 30h217l-6 -30h-217z" />
    <glyph glyph-name="period" unicode="." horiz-adv-x="158" 
d="M9 0l24 113h36l-23 -113h-37z" />
    <glyph glyph-name="slash" unicode="/" horiz-adv-x="436" 
d="M-2 -40l479 840h38l-479 -840h-38z" />
    <glyph glyph-name="zero" unicode="0" horiz-adv-x="616" 
d="M255 -10q-136 0 -173.5 88t3.5 270q39 190 111 276t209 86q135 0 172.5 -89.5t-3.5 -272.5q-39 -188 -111 -273t-208 -85zM262 22q109 0 174.5 75t102.5 251q37 180 6 255t-147 75q-109 0 -174.5 -76t-103.5 -254q-38 -179 -6.5 -252.5t148.5 -73.5z" />
    <glyph glyph-name="one" unicode="1" horiz-adv-x="232" 
d="M206 704h31l-146 -704h-34l141 677l-3 -9l-149 -68l8 34z" />
    <glyph glyph-name="two" unicode="2" horiz-adv-x="492" 
d="M-22 5l9 40l33 25q33 26 95.5 74.5t119.5 94.5q58 47 87.5 72.5t64 61.5t52 70t25.5 74q33 162 -138 162q-78 0 -134 -41.5t-71 -117.5h-35q18 89 83 139.5t163 50.5q97 0 141.5 -50t25.5 -142q-12 -58 -45.5 -109t-71.5 -87t-112 -97q-56 -46 -116 -93t-92 -71l-33 -24
h381l-7 -32h-425z" />
    <glyph glyph-name="three" unicode="3" horiz-adv-x="504" 
d="M540 692l-6 -30l-289 -218q9 1 26 1q113 0 160.5 -61t25.5 -166q-22 -108 -90.5 -168t-186.5 -60q-106 0 -151.5 54.5t-29.5 133.5h33q-14 -68 24.5 -111.5t130.5 -43.5q94 0 155 50.5t80 144.5q20 94 -19.5 145t-137.5 51q-18 0 -39.5 -2.5t-33.5 -5.5l-13 -2l6 31
l296 227l-344 -1l7 31h396z" />
    <glyph glyph-name="four" unicode="4" horiz-adv-x="510" 
d="M500 702l-105 -503h85l-6 -31h-85l-35 -168h-34l35 168h-355l7 31l457 503h36zM50 199h312l94 453z" />
    <glyph glyph-name="five" unicode="5" horiz-adv-x="552" 
d="M556 661h-315l-99 -267q69 61 182 61q108 0 154.5 -61.5t23.5 -170.5q-23 -111 -93 -172t-186 -61q-114 0 -162 53.5t-32 131.5h33q-14 -66 27 -109t141 -43q91 0 154 51.5t83 148.5q20 98 -20 149.5t-134 51.5q-36 0 -69 -8.5t-54 -20.5t-37 -24t-23 -21l-7 -8h-34
l118 319l12 31h344z" />
    <glyph glyph-name="six" unicode="6" horiz-adv-x="598" 
d="M569 529h-35q13 62 -18.5 107t-121.5 45q-97 0 -161.5 -75.5t-109.5 -266.5q87 123 239 123q113 0 154 -62.5t18 -174.5q-49 -235 -284 -235q-123 0 -163.5 77.5t-6.5 241.5q46 218 120 310.5t201 92.5q45 0 79 -12t52.5 -31t30 -43t10.5 -49t-4 -48zM352 430
q-48 0 -90 -16t-72 -41.5t-47.5 -46.5t-31.5 -43q-27 -141 8 -201t138 -60q97 0 158.5 51.5t82.5 151.5q21 102 -14 153.5t-132 51.5z" />
    <glyph glyph-name="seven" unicode="7" horiz-adv-x="448" 
d="M110 0h-38q21 103 71.5 209.5t107 184.5t110.5 141.5t89 96.5l35 33h-390l8 31h435l-8 -31q-14 -12 -37.5 -34.5t-87 -94.5t-116 -146t-105.5 -181t-74 -209z" />
    <glyph glyph-name="eight" unicode="8" horiz-adv-x="586" 
d="M46 190q10 48 33.5 85.5t51.5 57t52 29.5t43 11q-35 2 -69 40t-19 109q39 191 252 191q109 0 150 -51t23 -140q-11 -50 -42.5 -86t-59.5 -49t-49 -14q18 -1 37.5 -10.5t40.5 -30.5t27.5 -55.5t-1.5 -86.5q-41 -200 -276 -200q-121 0 -167.5 52.5t-26.5 147.5zM82 191
q-19 -88 21 -128.5t143 -40.5q199 0 235 169q17 85 -20.5 125.5t-144.5 40.5q-199 0 -234 -166zM173 520q-14 -67 20 -100t129 -33q177 0 205 133q17 83 -17.5 122t-125.5 39q-178 0 -211 -161z" />
    <glyph glyph-name="nine" unicode="9" horiz-adv-x="596" 
d="M389 712q125 1 164.5 -78.5t1.5 -262.5q-45 -213 -116 -297t-200 -84q-48 0 -85 12t-57.5 31t-34 43.5t-14 49t2.5 46.5h36q-13 -60 23.5 -105t134.5 -45q49 0 85.5 13.5t70.5 48t60.5 96.5t48.5 157q-87 -121 -238 -121q-111 0 -152 68.5t-15 190.5q49 237 284 237z
M283 248q47 0 88.5 15t71 40t47.5 45t32 42q33 164 0 227.5t-140 63.5q-96 0 -158 -52t-84 -154q-48 -227 143 -227z" />
    <glyph glyph-name="colon" unicode=":" horiz-adv-x="193" 
d="M109 377l23 113h37l-25 -113h-35zM35 27l24 112h36l-23 -112h-37z" />
    <glyph glyph-name="semicolon" unicode=";" horiz-adv-x="202" 
d="M101 350l24 113h36l-24 -113h-36zM-9 -88h-31q32 44 58 107q12 28 20 51.5t10 33.5l2 9h37q-5 -33 -34 -95q-12 -28 -27.5 -54.5t-25.5 -39.5z" />
    <glyph glyph-name="less" unicode="&#x3c;" horiz-adv-x="531" 
d="M473 461l-7 -33l-348 -118l298 -116l-6 -31l-331 136l5 26z" />
    <glyph glyph-name="equal" unicode="=" horiz-adv-x="516" 
d="M99 354l6 30h359l-6 -30h-359zM71 219l6 30h359l-7 -30h-358z" />
    <glyph glyph-name="greater" unicode="&#x3e;" horiz-adv-x="529" 
d="M140 461l332 -136l-6 -26l-389 -136l6 33l349 117l-299 117z" />
    <glyph glyph-name="question" unicode="?" horiz-adv-x="466" 
d="M209 154h-32l10 43q11 53 35 89t51 56.5t54 40t50 53.5t33 83q17 80 -8.5 119t-98.5 39q-67 0 -113 -41t-62 -121h-34q41 192 216 192q88 0 121.5 -49t14.5 -137q-11 -53 -36 -91t-53 -59.5t-56 -42.5t-51 -53t-32 -78zM145 0l20 94h33l-20 -94h-33z" />
    <glyph glyph-name="at" unicode="@" horiz-adv-x="820" 
d="M512 683q79 0 136.5 -21.5t90 -58t47.5 -89t13.5 -110.5t-15.5 -127q-28 -137 -69.5 -195.5t-102.5 -59.5h-1q-87 0 -75 122q-61 -85 -163 -85q-90 0 -117 57t-5 162q23 106 73 164.5t141 58.5q98 0 123 -96l3 14l18 72h29l-63 -299q-17 -73 -7.5 -109t51.5 -36
q88 0 136 230q79 381 -248 381q-169 0 -268 -104t-136 -277q-14 -66 -15.5 -119.5t12 -100t44 -78t83 -49.5t126.5 -18q105 0 176 32l-7 -30q-81 -28 -176 -28q-97 0 -161.5 30t-92 83t-33.5 124t14 154q18 87 51 157t84.5 127.5t129 89.5t174.5 32zM382 86q53 0 96 31
t65 71l1 4l34 165q-4 45 -31 81.5t-84 36.5q-137 0 -179 -197q-22 -90 0 -141t98 -51z" />
    <glyph glyph-name="A" unicode="A" horiz-adv-x="584" 
d="M500 0l-35 210h-340l-122 -210h-38l414 704h35l121 -704h-35zM143 241h317l-71 423z" />
    <glyph glyph-name="B" unicode="B" horiz-adv-x="627" 
d="M612 533q-15 -70 -49.5 -109.5t-113.5 -52.5q54 -11 83 -37t32.5 -62.5t-4.5 -81.5q-8 -40 -18.5 -68t-30.5 -53.5t-49.5 -40t-74 -23.5t-105.5 -9h-244l149 711h244q118 0 157.5 -46t23.5 -128zM154 387l209 -1q100 -1 148.5 35t64.5 110q15 75 -19.5 110.5t-132.5 35.5
h-209zM525 192q17 82 -21 123t-147 41h-209l-68 -328l209 -1q111 -1 164 36.5t72 128.5z" />
    <glyph glyph-name="C" unicode="C" horiz-adv-x="635" 
d="M277 -16q-150 0 -192.5 93.5t-4.5 273.5q37 181 118 275t232 94q122 0 170.5 -62t26.5 -178h-35q18 105 -21.5 156.5t-146.5 51.5q-125 0 -199.5 -84t-109.5 -253q-39 -166 -1.5 -251t170.5 -85q94 0 159.5 50.5t91.5 146.5h35q-59 -228 -293 -228z" />
    <glyph glyph-name="D" unicode="D" horiz-adv-x="649" 
d="M187 707h162q137 0 203 -40t74 -119t-16 -197q-16 -76 -34.5 -128.5t-49.5 -98t-74 -72t-105.5 -41.5t-146.5 -15h-162zM575 351q26 117 16.5 189t-67.5 104.5t-181 32.5h-128l-135 -648l127 -1q170 -1 250 71t118 252z" />
    <glyph glyph-name="E" unicode="E" horiz-adv-x="537" 
d="M600 672h-388l-59 -288h337l-7 -31h-337l-66 -321h390l-6 -32h-426l147 704h421z" />
    <glyph glyph-name="F" unicode="F" horiz-adv-x="520" 
d="M598 672h-386l-62 -299h336l-6 -31h-336l-71 -342h-35l147 704h420z" />
    <glyph glyph-name="G" unicode="G" horiz-adv-x="643" 
d="M430 720q120 0 170 -64t30 -158h-35q18 83 -24.5 136.5t-146.5 53.5q-125 0 -199.5 -84t-109.5 -254q-39 -166 -1 -250.5t171 -84.5q58 0 112.5 16.5t82 33.5t29.5 25l44 212h-162l7 31h195l-53 -257q-1 -5 -11.5 -15t-33.5 -23t-52 -25t-73.5 -20.5t-92.5 -8.5
q-102 0 -155 45t-58.5 126t16.5 195q38 182 118.5 276t231.5 94z" />
    <glyph glyph-name="H" unicode="H" horiz-adv-x="669" 
d="M639 704h35l-147 -704h-34l73 352h-420l-73 -352h-35l147 704h34l-66 -319h420z" />
    <glyph glyph-name="I" unicode="I" horiz-adv-x="214" 
d="M38 0l147 704h34l-146 -704h-35z" />
    <glyph glyph-name="J" unicode="J" horiz-adv-x="337" 
d="M-1 0h-49l7 34h49q111 0 154 45.5t70 179.5l92 445h34l-90 -445q-16 -77 -32.5 -121.5t-46 -78.5t-74 -46.5t-114.5 -12.5z" />
    <glyph glyph-name="K" unicode="K" horiz-adv-x="559" 
d="M638 704l-338 -313l194 -391h-37l-183 366l-155 -143l-46 -223h-35l147 704h34l-89 -429l459 429h49z" />
    <glyph glyph-name="L" unicode="L" horiz-adv-x="484" 
d="M79 31h345l-7 -31h-379l147 704h34z" />
    <glyph glyph-name="M" unicode="M" horiz-adv-x="792" 
d="M797 704l-148 -704h-35l140 663l-398 -665h-35l-113 669l-137 -667h-33l147 704h51l111 -661l394 661h56z" />
    <glyph glyph-name="N" unicode="N" horiz-adv-x="689" 
d="M659 704h35l-146 -704h-37l-299 649l-139 -649h-35l151 704h37l300 -652z" />
    <glyph glyph-name="O" unicode="O" horiz-adv-x="675" 
d="M282 -16q-153 0 -196.5 93.5t-6.5 273.5q38 181 120 275t236 94q104 0 158.5 -46t60 -128t-16.5 -195q-38 -181 -119 -274t-236 -93zM289 15q128 0 203 83t110 253q23 110 17.5 185t-52 113.5t-138.5 38.5q-128 0 -203.5 -84t-110.5 -253q-23 -111 -17 -185.5
t52.5 -112.5t138.5 -38z" />
    <glyph glyph-name="P" unicode="P" horiz-adv-x="608" 
d="M186 707h244q119 0 167.5 -48t22.5 -170t-93 -169.5t-188 -47.5h-209l-57 -272h-35zM584 490q8 35 8.5 62.5t-4.5 46.5t-16.5 33t-26 22.5t-35 13.5t-40.5 6.5t-46 1.5h-210l-78 -371l210 -1q43 0 76 6.5t67 25t58.5 57.5t36.5 97z" />
    <glyph glyph-name="Q" unicode="Q" horiz-adv-x="674" 
d="M635 351q-49 -230 -161 -312l98 -95l-27 -25l-98 103q-68 -38 -166 -38q-153 0 -196 93.5t-6 273.5q38 181 119.5 275t235.5 94q104 0 158 -46t59.5 -128t-16.5 -195zM288 15q128 0 202.5 83t109.5 253q23 110 18 185t-51.5 113.5t-138.5 38.5q-128 0 -203 -83.5
t-110 -253.5q-23 -111 -17.5 -185.5t52 -112.5t138.5 -38z" />
    <glyph glyph-name="R" unicode="R" horiz-adv-x="628" 
d="M186 707h245q118 0 166.5 -45t24.5 -158q-20 -94 -65.5 -139.5t-123.5 -57.5l97 -307h-38l-93 303q-34 -2 -54 -2h-209l-63 -301h-35zM585 504q7 33 7 58.5t-4.5 43.5t-16.5 31t-25.5 20.5t-34.5 11.5t-40.5 5.5t-46.5 1.5h-210l-72 -343l211 -1q34 0 59 3t55 13t51 28
t39.5 50.5t27.5 77.5z" />
    <glyph glyph-name="S" unicode="S" horiz-adv-x="606" 
d="M43 205h34q-39 -187 179 -190q103 -1 168 41.5t81 112.5q12 55 -5 91t-53.5 52.5t-82.5 27t-92 21.5t-82.5 28.5t-54 55.5t-5.5 96q18 85 84.5 132.5t183.5 46.5q121 -1 168.5 -54t29.5 -141h-33q9 28 3.5 56.5t-20 52.5t-54.5 39t-100 16q-104 1 -158 -40.5t-68 -107.5
q-11 -52 7 -85t55 -48t83 -24.5t92 -21t82 -30.5t52.5 -60t3.5 -103q-18 -89 -93 -137.5t-199 -47.5q-118 1 -173.5 55.5t-32.5 165.5z" />
    <glyph glyph-name="T" unicode="T" horiz-adv-x="526" 
d="M610 704l-7 -32h-235l-144 -672h-34l144 672h-235l7 32h504z" />
    <glyph glyph-name="U" unicode="U" horiz-adv-x="664" 
d="M276 -16q-63 0 -105 17t-64 46.5t-28.5 77t-1.5 100t20 124.5l74 355h35l-75 -355q-23 -111 -22.5 -185t42 -111.5t132.5 -37.5q124 0 189 80t101 254l75 355h35l-74 -355q-19 -91 -42 -152.5t-60.5 -112.5t-94.5 -75.5t-136 -24.5z" />
    <glyph glyph-name="V" unicode="V" horiz-adv-x="530" 
d="M581 704h39l-403 -704h-36l-111 704h36l100 -658z" />
    <glyph glyph-name="W" unicode="W" horiz-adv-x="888" 
d="M929 704h41l-355 -704h-37l-60 655l-325 -655h-35l-69 704h36l59 -652l322 652h39l60 -654z" />
    <glyph glyph-name="X" unicode="X" horiz-adv-x="582" 
d="M658 704l-324 -353l174 -351h-38l-161 325l-297 -325h-48l329 357l-173 347h39l159 -321l294 321h46z" />
    <glyph glyph-name="Y" unicode="Y" horiz-adv-x="522" 
d="M560 704h44l-323 -419l-60 -285h-35l60 285l-158 419h37l144 -379z" />
    <glyph glyph-name="Z" unicode="Z" horiz-adv-x="521" 
d="M583 673l-1 -7l-563 -631h435l-6 -30h-479l5 22l2 10l562 631h-402l6 31h447z" />
    <glyph glyph-name="bracketleft" unicode="[" horiz-adv-x="302" 
d="M372 728h-142l-186 -893h142l-7 -31h-174l199 956h174z" />
    <glyph glyph-name="backslash" unicode="\" horiz-adv-x="374" 
d="M255 -40h-35l-128 840h34z" />
    <glyph glyph-name="bracketright" unicode="]" horiz-adv-x="301" 
d="M309 760l-199 -956h-174l7 31h140l187 893h-141l6 32h174z" />
    <glyph glyph-name="asciicircum" unicode="^" horiz-adv-x="359" 
d="M345 471h-32l-55 223l-149 -223h-33l177 262h24z" />
    <glyph glyph-name="underscore" unicode="_" horiz-adv-x="549" 
d="M27 0l6 29h392l-6 -29h-392z" />
    <glyph glyph-name="grave" unicode="`" horiz-adv-x="253" 
d="M243 637h-31l-49 125h41z" />
    <glyph glyph-name="a" unicode="a" horiz-adv-x="532" 
d="M328 540q46 0 78 -9.5t47.5 -28t23 -40.5t5.5 -54t-7 -60t-14 -67q-1 -5 -2 -9l-2 -8l-28 -133l-16 -130h-30l11 94q-67 -104 -223 -104q-92 0 -124.5 38t-17.5 114q9 45 30.5 75t52.5 45t72 22.5t90 7.5h106h50q7 33 10 51t6.5 43t2 38.5t-5.5 30.5t-13.5 25t-23.5 16.5
t-35 11.5t-49 3q-48 0 -85 -13t-58 -35t-32 -43t-16 -44h-31q35 163 228 163zM180 18q79 0 138 35.5t83 94.5l24 119q-171 0 -200 -3q-103 -9 -139 -63q-16 -24 -23 -59q-12 -62 12 -93t105 -31z" />
    <glyph glyph-name="b" unicode="b" horiz-adv-x="579" 
d="M383 540q103 0 136 -74t6 -203q-56 -271 -255 -271q-78 0 -119 32t-52 81l-32 -105h-30l38 134l130 626h33l-67 -323q30 37 85 70t127 33zM490 263q52 248 -116 248q-40 0 -78 -14.5t-65.5 -37t-43.5 -39.5t-27 -33l-47 -225q0 -54 37.5 -97.5t122.5 -43.5q82 0 137.5 63
t79.5 179z" />
    <glyph glyph-name="c" unicode="c" horiz-adv-x="524" 
d="M216 -9q-116 0 -149.5 71t-6.5 203q26 131 89.5 203t180.5 72q100 0 141 -51t23 -140h-34q33 162 -136 162q-177 0 -229 -246q-16 -78 -13 -132.5t37.5 -83.5t102.5 -29q75 0 129.5 38.5t68.5 103.5h34q-16 -78 -77.5 -124.5t-160.5 -46.5z" />
    <glyph glyph-name="d" unicode="d" horiz-adv-x="569" 
d="M554 760h33l-130 -626l-19 -134h-29l12 106q-74 -114 -219 -114q-199 0 -143 271q26 129 89.5 203t167.5 74q73 0 113.5 -35t56.5 -75zM431 167l44 210q-2 13 -6.5 26.5t-17 34t-29 35.5t-45 26.5t-64.5 11.5q-81 0 -138 -66t-81 -182q-51 -242 117 -242q83 0 141 46
t79 100z" />
    <glyph glyph-name="e" unicode="e" horiz-adv-x="539" 
d="M332 540q215 0 162 -254h-394l-5 -24q-12 -56 -14 -95t8.5 -75t44.5 -54.5t91 -18.5q87 0 139.5 46t62.5 89h35q-4 -18 -16.5 -41.5t-38 -53t-75 -49.5t-113.5 -20q-114 0 -151 67t-8 206q29 140 93 208.5t179 68.5zM108 314h357q16 96 -14.5 146.5t-124.5 50.5
q-160 0 -218 -197z" />
    <glyph glyph-name="f" unicode="f" horiz-adv-x="275" 
d="M344 768h43l-6 -30h-41q-67 0 -99 -39.5t-49 -126.5l-9 -41h149l-6 -29h-149l-105 -502h-33l105 502h-72l6 29h72l9 41q10 49 21.5 81t32 60t53 41.5t78.5 13.5z" />
    <glyph glyph-name="g" unicode="g" horiz-adv-x="570" 
d="M516 531h30l-36 -130l-83 -401q-9 -44 -17.5 -72.5t-27.5 -63.5t-44.5 -55t-69.5 -34.5t-102 -14.5q-41 0 -72 10t-47 26t-26 35.5t-11.5 39.5t-1.5 36t2 26l3 10l32 1q-1 -1 -4 -16.5t-1 -39t12 -46t41 -38.5t80 -16q47 0 83 12t58.5 30t39 48t24.5 56.5t16 65.5l20 98
q-75 -106 -213 -106q-199 0 -143 271q26 129 89.5 203t167.5 74q74 0 115.5 -34.5t55.5 -71.5zM210 21q79 0 135.5 42.5t81.5 95.5l48 233q-5 17 -14 33.5t-27 38t-49.5 34.5t-72.5 13q-81 0 -138 -66t-81 -182q-51 -242 117 -242z" />
    <glyph glyph-name="h" unicode="h" horiz-adv-x="560" 
d="M367 540q93 0 125.5 -50.5t7.5 -174.5l-66 -315h-33l65 314q24 98 1 147t-109 49q-112 0 -210 -137l-78 -373h-33l159 760h33l-70 -335q34 45 87.5 80t120.5 35z" />
    <glyph glyph-name="i" unicode="i" horiz-adv-x="203" 
d="M167 646l24 113h34l-24 -113h-34zM33 0l110 531h33l-110 -531h-33z" />
    <glyph glyph-name="j" unicode="j" horiz-adv-x="215" 
d="M178 646l24 113h34l-24 -113h-34zM-108 -172l6 30q29 0 49.5 3t36 14t24.5 20t17.5 34t12.5 42t12 57l104 503h34l-105 -503q-11 -52 -18.5 -78.5t-21 -54.5t-32 -40t-47.5 -19.5t-72 -7.5z" />
    <glyph glyph-name="k" unicode="k" horiz-adv-x="469" 
d="M493 531l-240 -206l160 -325h-36l-150 303l-114 -99l-43 -204h-33l159 760h33l-107 -512l324 283h47z" />
    <glyph glyph-name="l" unicode="l" horiz-adv-x="211" 
d="M37 0l159 760h33l-159 -760h-33z" />
    <glyph glyph-name="m" unicode="m" horiz-adv-x="885" 
d="M699 540q89 0 120 -50.5t6 -174.5l-66 -315h-32l65 314q24 98 1.5 147t-103.5 49q-63 0 -115.5 -41.5t-86.5 -92.5q-4 -33 -10 -61l-65 -315h-33l66 314q24 98 2 147t-103 49q-107 0 -202 -137l-77 -373h-33l82 395l18 136h30l-14 -113q34 47 87 84.5t119 37.5
q68 0 101 -29t33 -97q34 47 88 86.5t122 39.5z" />
    <glyph glyph-name="n" unicode="n" horiz-adv-x="554" 
d="M362 540q93 0 125.5 -50t6.5 -175l-65 -315h-33l65 314q24 98 0.5 147t-109.5 49q-66 0 -119.5 -42.5t-89.5 -94.5l-77 -373h-33l82 395l18 136h30l-13 -113q34 47 88 84.5t124 37.5z" />
    <glyph glyph-name="o" unicode="o" horiz-adv-x="551" 
d="M222 -10q-121 0 -155 71t-6 203q28 134 90.5 205t184.5 72q82 0 125 -35.5t47 -97.5t-12 -144q-28 -133 -90 -203.5t-184 -70.5zM228 19q97 0 152.5 62t80.5 183q15 78 13 133t-37.5 85t-106.5 30q-97 0 -153 -63t-81 -185q-16 -78 -13 -132.5t38.5 -83.5t106.5 -29z" />
    <glyph glyph-name="p" unicode="p" horiz-adv-x="570" 
d="M375 540q103 0 135.5 -74t5.5 -203q-56 -271 -256 -271q-139 0 -169 106l-70 -338h-33l134 642l17 129h29l-12 -107q30 41 86.5 78.5t132.5 37.5zM481 263q52 248 -116 248q-39 0 -76.5 -15t-65.5 -39t-44.5 -41.5t-29.5 -35.5l-45 -218q0 -24 7.5 -47t24 -45t49.5 -35.5
t78 -13.5q82 0 138 63t80 179z" />
    <glyph glyph-name="q" unicode="q" horiz-adv-x="561" 
d="M518 531h30l-32 -107l-138 -664h-33l70 337q-75 -105 -213 -105q-199 0 -143 271q26 129 89.5 203t167.5 74q72 0 114 -33t57 -71zM211 21q80 0 136.5 43t80.5 96l48 231q-4 17 -13 34t-26.5 38t-49.5 34.5t-74 13.5q-81 0 -138 -66t-81 -182q-51 -242 117 -242z" />
    <glyph glyph-name="r" unicode="r" horiz-adv-x="327" 
d="M163 531l-16 -125q10 19 25 38t41 43t65.5 38.5t86.5 14.5l-6 -30q-41 0 -78 -15.5t-60 -36t-43 -48t-28 -42.5t-14 -29l-70 -339h-33l79 384l21 147h30z" />
    <glyph glyph-name="s" unicode="s" horiz-adv-x="493" 
d="M25 160h32q-15 -69 19 -104t123 -36q169 -1 194 113q11 52 -20 79.5t-82 37t-102 20.5t-82 42.5t-19 89.5q14 66 70 102.5t153 35.5q186 -3 153 -158h-31q13 61 -12.5 95t-114.5 35q-85 1 -129.5 -31t-54.5 -79q-6 -32 5 -53.5t34 -32.5t54 -19.5t63.5 -13.5t63 -15.5
t53 -25t32 -42t1.5 -66.5q-30 -146 -235 -143q-203 3 -168 169z" />
    <glyph glyph-name="t" unicode="t" horiz-adv-x="293" 
d="M181 502l-66 -313q-7 -33 -9.5 -52.5t-1.5 -42.5t9.5 -35.5t27 -21t48.5 -8.5h42l-6 -30h-45q-60 0 -86.5 26.5t-23.5 69t12 94.5l65 313h-65l6 29h65l34 161l36 9l-36 -170h145l-6 -29h-145z" />
    <glyph glyph-name="u" unicode="u" horiz-adv-x="583" 
d="M500 531h33l-81 -384l-20 -147h-30l15 128q-12 -18 -29 -38t-45 -44t-66.5 -39.5t-79.5 -15.5q-93 0 -125.5 50.5t-6.5 173.5l65 316h33l-65 -313q-24 -98 -1 -147t109 -49q41 0 80.5 19.5t68.5 49.5t45 51t26 38z" />
    <glyph glyph-name="v" unicode="v" horiz-adv-x="458" 
d="M477 531h39l-318 -531h-43l-85 531h35l78 -498z" />
    <glyph glyph-name="w" unicode="w" horiz-adv-x="710" 
d="M722 531h38l-270 -531h-41l-49 481l-240 -481h-42l-56 531h33l50 -493l246 493h37l48 -493z" />
    <glyph glyph-name="x" unicode="x" horiz-adv-x="444" 
d="M493 531l-248 -267l131 -264h-38l-118 239l-218 -239h-45l248 269l-129 262h37l117 -237l219 237h44z" />
    <glyph glyph-name="y" unicode="y" horiz-adv-x="439" 
d="M457 531h40l-428 -749h-36l123 218h-9l-95 531h35l86 -502z" />
    <glyph glyph-name="z" unicode="z" horiz-adv-x="401" 
d="M85 526h353l-3 -12l-4 -20l-419 -460l323 1l-6 -29h-362l6 28l1 3l417 461l-312 -1z" />
    <glyph glyph-name="braceleft" unicode="{" horiz-adv-x="358" 
d="M436 762l-7 -32q-84 0 -114.5 -24.5t-44.5 -92.5l-53 -256q-13 -59 -58 -70q6 -2 12.5 -5.5t14 -21t1.5 -44.5l-52 -255q-11 -43 -8.5 -69t29 -37t89.5 -11l-7 -32q-106 0 -130.5 30.5t-6.5 116.5l53 257q7 32 -6.5 44t-66.5 12l7 31q49 0 69.5 11.5t27.5 42.5l53 259
q10 45 20 69t31 43.5t55.5 26.5t91.5 7z" />
    <glyph glyph-name="bar" unicode="|" horiz-adv-x="350" 
d="M56 -196l216 1016h31l-216 -1016h-31z" />
    <glyph glyph-name="braceright" unicode="}" horiz-adv-x="358" 
d="M-62 -188l7 32q83 0 113.5 24.5t45.5 92.5l53 256q12 59 57 70q-6 2 -12.5 5.5t-14 21t-1.5 44.5l53 255q10 43 8 69t-28 37t-89 11l6 32q74 0 106.5 -14t37.5 -47t-8 -86l-53 -257q-7 -32 7 -44t66 -12l-5 -31q-51 0 -71 -11.5t-26 -42.5l-54 -259q-10 -45 -20 -69
t-31 -43.5t-55.5 -26.5t-91.5 -7z" />
    <glyph glyph-name="asciitilde" unicode="~" horiz-adv-x="488" 
d="M421 340h26q-5 -28 -33.5 -56t-78.5 -28q-47 0 -90 27.5t-80 27.5q-34 0 -55.5 -19.5t-24.5 -35.5h-27q8 29 35.5 56.5t77.5 27.5q47 0 90 -27.5t80 -27.5q34 0 55.5 19.5t24.5 35.5z" />
    <glyph glyph-name="uni00A0" unicode="&#xa0;" horiz-adv-x="219" 
 />
    <glyph glyph-name="exclamdown" unicode="&#xa1;" horiz-adv-x="188" 
d="M114 437l20 94h33l-20 -94h-33zM-12 -172l117 549h30l-114 -549h-33z" />
    <glyph glyph-name="cent" unicode="&#xa2;" horiz-adv-x="524" 
d="M362 709l-19 -90q94 -4 131.5 -54.5t19.5 -136.5h-34q33 156 -123 163l-102 -492q71 4 122 42t64 100h34q-16 -75 -74.5 -121.5t-151.5 -49.5l-19 -91h-29l19 91q-106 6 -136.5 77t-3.5 197q26 126 85.5 197.5t168.5 77.5l19 90h29zM94 344q-27 -111 -2.5 -175t114.5 -70
l102 492q-164 -11 -214 -247z" />
    <glyph glyph-name="sterling" unicode="&#xa3;" horiz-adv-x="530" 
d="M409 708q84 0 124.5 -51.5t23.5 -136.5h-34q16 76 -16 117.5t-104 41.5q-65 0 -117.5 -42.5t-67.5 -118.5q-7 -34 -8.5 -67t0.5 -76.5t2 -67.5h161l-5 -28h-156q-4 -56 -13 -99q-23 -110 -116 -153h362l-6 -31h-422l6 31q5 1 12.5 3.5t29 13.5t39 26.5t35 44.5t25.5 65
q10 47 12 99h-100l6 28h95q0 20 -2.5 64.5t-1 78t9.5 69.5q19 88 79.5 138.5t146.5 50.5z" />
    <glyph glyph-name="currency" unicode="&#xa4;" horiz-adv-x="611" 
d="M570 84l-22 -22l-77 77q-56 -54 -162 -54q-105 0 -161 54l-78 -78l-22 22l80 79q-41 59 -41 161q0 100 38 158l-78 78l22 22l75 -76q55 60 165 60q104 0 158 -51l76 75l21 -21l-77 -78q44 -59 44 -167q0 -103 -40 -160zM309 115q188 0 188 208q0 212 -188 212
q-187 0 -187 -212q0 -208 187 -208z" />
    <glyph glyph-name="yen" unicode="&#xa5;" horiz-adv-x="470" 
d="M551 704l-286 -366h90l-5 -25h-104l-1 -1l-16 -76h105l-5 -26h-105l-45 -210h-35l44 210h-109l5 26h109l16 76v1h-108l5 25h93l-143 366h38l139 -355l277 355h41z" />
    <glyph glyph-name="brokenbar" unicode="&#xa6;" horiz-adv-x="350" 
d="M182 395l90 425h31l-90 -425h-31zM181 245l-90 -425h-31l90 425h31z" />
    <glyph glyph-name="section" unicode="&#xa7;" horiz-adv-x="528" 
d="M361 770q103 0 139.5 -38t20.5 -116h-31q7 26 4.5 49t-13 40t-42 27t-83.5 10q-86 0 -128.5 -31.5t-52.5 -78.5q-9 -41 13 -66t61 -33.5t84 -19t83 -22.5t58.5 -44t9.5 -83q-17 -83 -94 -120q56 -36 40 -113q-30 -143 -235 -143q-104 0 -145 40t-25 124h32
q-14 -68 18 -101.5t126 -33.5q86 0 135 31t59 82q8 38 -7 62.5t-44.5 36t-66.5 19.5t-74 16.5t-66.5 22t-44 41.5t-6.5 71q18 90 93 126q-53 35 -39 107q28 138 221 138zM448 363q7 36 -5 59.5t-41 36t-59.5 19.5t-71.5 15.5t-65 17.5q-70 -35 -85 -112q-7 -34 6 -56
t41.5 -33.5t58.5 -18t70.5 -15t64.5 -18.5q72 36 86 105z" />
    <glyph glyph-name="dieresis" unicode="&#xa8;" horiz-adv-x="331" 
d="M142 637l24 113h34l-24 -113h-34zM270 637l23 113h34l-23 -113h-34z" />
    <glyph glyph-name="copyright" unicode="&#xa9;" horiz-adv-x="778" 
d="M328 -4q-73 0 -125.5 19t-82.5 51t-44 77.5t-13 95.5t14 109q15 75 44.5 136t76.5 112.5t118.5 80t162.5 28.5q74 0 127 -19.5t82.5 -52t43 -79t12.5 -97t-14 -109.5q-16 -74 -44.5 -134.5t-75 -111t-118.5 -78.5t-164 -28zM333 21q159 0 248.5 90.5t120.5 236.5
q12 55 12.5 102.5t-12 90.5t-39.5 73t-75.5 48t-114.5 18q-82 0 -147 -26.5t-108 -74t-70.5 -104.5t-42.5 -127q-12 -55 -12.5 -101.5t12 -89t39.5 -72t75 -47t114 -17.5zM362 143q-87 0 -113 53t-5 154q22 103 71 156t136 53q69 0 97.5 -36t16.5 -102h-33q10 53 -13.5 81.5
t-73.5 28.5q-69 0 -109 -44.5t-60 -136.5q-19 -91 2 -135t89 -44q49 0 84.5 26.5t48.5 76.5h32q-15 -63 -58.5 -97t-111.5 -34z" />
    <glyph glyph-name="ordfeminine" unicode="&#xaa;" horiz-adv-x="398" 
d="M293 739q39 0 63.5 -9.5t35.5 -22.5t12.5 -39.5t-2 -48t-11.5 -60.5q-1 -3 -1 -4.5t-1 -4.5t-1 -5l-18 -92l-12 -92h-29l6 62q-46 -69 -153 -69q-65 0 -88.5 26.5t-12.5 80.5q8 39 25.5 62t58.5 32t66.5 10.5t95.5 0.5h34q22 80 10 114.5t-81 34.5q-63 0 -92.5 -27.5
t-36.5 -63.5h-31q27 115 163 115zM192 376q51 0 89.5 22.5t56.5 60.5l19 86q-126 1 -155 -4q-67 -11 -85 -66q-2 -7 -4 -15q-8 -42 8.5 -63t70.5 -21z" />
    <glyph glyph-name="guillemotleft" unicode="&#xab;" horiz-adv-x="406" 
d="M263 418l-156 -159l89 -146h-38l-85 141l3 16l146 148h41zM372 418l-153 -159l90 -146h-38l-87 141l4 16l145 148h39z" />
    <glyph glyph-name="registered" unicode="&#xae;" horiz-adv-x="778" 
d="M479 705q74 0 127.5 -19.5t83 -52t43 -79t12 -97t-14.5 -109.5q-16 -74 -44.5 -134.5t-75 -111t-118.5 -78.5t-164 -28q-73 0 -125.5 19t-82.5 51t-44 77.5t-13 95.5t14 109q16 75 45 136t76 112.5t118.5 80t162.5 28.5zM702 348q12 55 12.5 102.5t-12 90.5t-39.5 73
t-75.5 48t-114.5 18q-82 0 -147 -26.5t-108 -74t-70.5 -104.5t-42.5 -127q-17 -66 -11.5 -125t27.5 -104t76.5 -71.5t136.5 -26.5q159 0 248 90.5t120 236.5zM316 546h144q70 0 98.5 -25t14.5 -91q-12 -56 -41 -82t-79 -32l55 -170h-34l-53 168h-123l-36 -168h-32zM541 430
q11 54 -13.5 71.5t-73.5 17.5h-112l-38 -178h112q33 0 53.5 4.5t42 25t29.5 59.5z" />
    <glyph glyph-name="macron" unicode="&#xaf;" horiz-adv-x="346" 
d="M152 694h202l-6 -28h-202z" />
    <glyph glyph-name="degree" unicode="&#xb0;" horiz-adv-x="294" 
d="M153 521q-87 0 -66 99q22 101 109 101t65 -101q-20 -99 -108 -99zM159 545q57 0 74 75q18 77 -42 77q-58 0 -76 -77q-15 -75 44 -75z" />
    <glyph glyph-name="plusminus" unicode="&#xb1;" horiz-adv-x="532" 
d="M304 365h163l-7 -29h-162l-28 -133h-31l28 133h-163l6 29h163l28 130h31zM59 122l6 29h357l-7 -29h-356z" />
    <glyph glyph-name="uni00B2" unicode="&#xb2;" horiz-adv-x="394" 
d="M-16 347l7 32q86 62 178 134q56 45 80.5 66.5t50 55.5t33.5 71q23 113 -97 113q-55 0 -94.5 -29t-50.5 -82h-31q14 65 61 101t121 36q71 0 102.5 -36t18.5 -101q-9 -41 -33 -77t-51 -61t-80 -67q-40 -32 -82 -64.5t-65 -48.5l-22 -17l270 1l-6 -27h-310z" />
    <glyph glyph-name="uni00B3" unicode="&#xb3;" horiz-adv-x="406" 
d="M399 833l-5 -25l-203 -150h11q84 0 118.5 -43t18.5 -118q-34 -161 -202 -161q-79 0 -111 39t-20 96h29q-10 -47 16.5 -77t91.5 -30q66 0 109.5 34.5t56.5 99.5q14 64 -14 100t-97 36l-62 -7l4 24l210 157l-247 -2l6 27h290z" />
    <glyph glyph-name="acute" unicode="&#xb4;" horiz-adv-x="253" 
d="M139 637l90 125h41l-100 -125h-31z" />
    <glyph glyph-name="paragraph" unicode="&#xb6;" horiz-adv-x="503" 
d="M521 760l-157 -760h-31l151 729h-93l-152 -729h-31l68 325q-123 2 -164 48t-16 169q26 124 85.5 170t184.5 48h155zM132 542q-8 -40 -9.5 -69.5t5.5 -50t18.5 -33.5t33 -20t45 -10t57.5 -3l77 372q-36 0 -62.5 -4t-54.5 -15.5t-47.5 -31.5t-36 -54t-26.5 -81z" />
    <glyph glyph-name="periodcentered" unicode="&#xb7;" horiz-adv-x="186" 
d="M75 239l23 113h36l-23 -113h-36z" />
    <glyph glyph-name="cedilla" unicode="&#xb8;" horiz-adv-x="281" 
d="M97 3l-38 -56q82 -5 69 -70q-9 -41 -36.5 -57.5t-77.5 -16.5l-46 5l5 26q19 -5 43 -5q37 0 56 9.5t25 39.5q6 27 -14 38.5t-60 11.5h-6l49 75h31z" />
    <glyph glyph-name="uni00B9" unicode="&#xb9;" horiz-adv-x="211" 
d="M163 841h25l-105 -498h-31l98 467l-105 -47l6 29z" />
    <glyph glyph-name="ordmasculine" unicode="&#xba;" horiz-adv-x="378" 
d="M193 352q-86 0 -111 50t-5 143q20 95 64 144.5t132 50.5q58 0 88.5 -24.5t34 -68t-7.5 -102.5q-20 -94 -64 -143.5t-131 -49.5zM199 379q64 0 101.5 42t55.5 124q20 80 1 124.5t-89 44.5q-123 0 -158 -169q-21 -79 -1.5 -122.5t90.5 -43.5z" />
    <glyph glyph-name="guillemotright" unicode="&#xbb;" horiz-adv-x="407" 
d="M228 270l-4 -16l-143 -141h-39l151 150l-87 155h38zM256 418l83 -148l-3 -16l-144 -141h-39l152 150l-87 155h38z" />
    <glyph glyph-name="onequarter" unicode="&#xbc;" horiz-adv-x="791" 
d="M705 796h39l-724 -836h-39zM52 264l98 467l-105 -47l6 29l112 49h25l-105 -498h-31zM750 496l-75 -353h61l-6 -26h-60l-25 -117h-30l25 117h-255l5 26l329 353h31zM425 143h221l67 313z" />
    <glyph glyph-name="onehalf" unicode="&#xbd;" horiz-adv-x="849" 
d="M705 796h39l-724 -836h-39zM52 264l98 467l-105 -47l6 29l112 49h25l-105 -498h-31zM818 365q-9 -41 -33 -77t-51 -61t-80 -67q-40 -32 -82 -64.5t-64 -49.5l-23 -16l270 1l-6 -27h-310l7 32q86 62 178 134q56 45 80.5 66.5t50 55.5t33.5 71q23 113 -97 113
q-55 0 -94.5 -29t-50.5 -82h-31q14 65 61 101t121 36q71 0 102.5 -36t18.5 -101z" />
    <glyph glyph-name="threequarters" unicode="&#xbe;" horiz-adv-x="975" 
d="M889 796h39l-724 -836h-39zM339 418q-34 -161 -202 -161q-79 0 -111 39t-20 96h29q-10 -47 16.5 -77t91.5 -30q66 0 109.5 34.5t56.5 99.5q14 64 -14 100t-97 36l-62 -7l4 24l210 157l-247 -2l6 27h290l-5 -25l-203 -150h11q84 0 118.5 -43t18.5 -118zM934 496l-75 -353
h61l-6 -26h-60l-25 -117h-30l25 117h-255l5 26l329 353h31zM609 143h221l67 313z" />
    <glyph glyph-name="questiondown" unicode="&#xbf;" horiz-adv-x="466" 
d="M328 529l-20 -95h-33l20 95h33zM264 374h31l-9 -43q-12 -53 -35.5 -89t-51 -56.5t-54.5 -40t-50 -53t-33 -82.5q-16 -80 9 -119t99 -39q67 0 112.5 41t62.5 121h34q-41 -193 -216 -193t-136 187q11 53 35.5 90.5t52.5 59.5t55.5 42.5t51 53t33.5 77.5z" />
    <glyph glyph-name="Agrave" unicode="&#xc0;" horiz-adv-x="584" 
d="M409 760h-30l-51 107h39zM500 0l-35 210h-340l-122 -210h-38l414 704h35l121 -704h-35zM143 241h317l-71 423z" />
    <glyph glyph-name="Aacute" unicode="&#xc1;" horiz-adv-x="584" 
d="M521 867l-97 -107h-34l87 107h44zM500 0l-35 210h-340l-122 -210h-38l414 704h35l121 -704h-35zM143 241h317l-71 423z" />
    <glyph glyph-name="Acircumflex" unicode="&#xc2;" horiz-adv-x="584" 
d="M420 832l-87 -72h-39l118 101h27l74 -101h-35zM500 0l-35 210h-340l-122 -210h-38l414 704h35l121 -704h-35zM143 241h317l-71 423z" />
    <glyph glyph-name="Atilde" unicode="&#xc3;" horiz-adv-x="584" 
d="M369 809q-36 0 -49 -49h-25q17 77 79 77q30 0 45 -22t37 -22q23 0 35 16.5t14 32.5h26q-16 -78 -79 -78q-20 0 -31.5 7t-15 15.5t-12.5 15.5t-24 7zM500 0l-35 210h-340l-122 -210h-38l414 704h35l121 -704h-35zM143 241h317l-71 423z" />
    <glyph glyph-name="Adieresis" unicode="&#xc4;" horiz-adv-x="584" 
d="M382 873l-24 -113h-34l24 113h34zM506 873l-23 -113h-34l23 113h34zM500 0l-35 210h-340l-122 -210h-38l414 704h35l121 -704h-35zM143 241h317l-71 423z" />
    <glyph glyph-name="Aring" unicode="&#xc5;" horiz-adv-x="584" 
d="M403 760q-30 0 -44 18t-8 46t27 46t52 18q30 0 44 -18t8 -46t-27 -46t-52 -18zM377 824q-7 -41 31 -41q17 0 30 11.5t17 29.5q5 19 -3 30t-27 11q-17 0 -30.5 -11.5t-17.5 -29.5zM500 0l-35 210h-340l-122 -210h-38l414 704h35l121 -704h-35zM143 241h317l-71 423z" />
    <glyph glyph-name="AE" unicode="&#xc6;" horiz-adv-x="864" 
d="M927 672h-388l-59 -288h337l-6 -31h-338l-66 -321h391l-7 -32h-424l44 210h-245l-160 -210h-41l538 704h430zM189 241h228l85 411z" />
    <glyph glyph-name="Ccedilla" unicode="&#xc7;" horiz-adv-x="635" 
d="M430 720q122 0 170.5 -62t26.5 -178h-35q18 105 -21.5 156.5t-146.5 51.5q-125 0 -199.5 -84t-109.5 -253q-39 -166 -1.5 -251t170.5 -85q94 0 159.5 50.5t91.5 146.5h35q-55 -218 -272 -228l-32 -46q82 -5 69 -70q-9 -41 -36.5 -57.5t-77.5 -16.5l-46 5l5 26
q19 -5 43 -5q37 0 56 9.5t25 39.5q6 27 -14 38.5t-60 11.5h-6l43 65q-144 4 -184 97t-3 270q37 181 118 275t232 94z" />
    <glyph glyph-name="Egrave" unicode="&#xc8;" horiz-adv-x="537" 
d="M404 760h-30l-51 107h39zM600 672h-388l-59 -288h337l-7 -31h-337l-66 -321h390l-6 -32h-426l147 704h421z" />
    <glyph glyph-name="Eacute" unicode="&#xc9;" horiz-adv-x="537" 
d="M516 867l-97 -107h-34l87 107h44zM600 672h-388l-59 -288h337l-7 -31h-337l-66 -321h390l-6 -32h-426l147 704h421z" />
    <glyph glyph-name="Ecircumflex" unicode="&#xca;" horiz-adv-x="537" 
d="M415 832l-87 -72h-39l118 101h27l74 -101h-35zM600 672h-388l-59 -288h337l-7 -31h-337l-66 -321h390l-6 -32h-426l147 704h421z" />
    <glyph glyph-name="Edieresis" unicode="&#xcb;" horiz-adv-x="537" 
d="M377 873l-24 -113h-34l24 113h34zM501 873l-23 -113h-34l23 113h34zM600 672h-388l-59 -288h337l-7 -31h-337l-66 -321h390l-6 -32h-426l147 704h421z" />
    <glyph glyph-name="Igrave" unicode="&#xcc;" horiz-adv-x="214" 
d="M219 760h-30l-51 107h39zM38 0l147 704h34l-146 -704h-35z" />
    <glyph glyph-name="Iacute" unicode="&#xcd;" horiz-adv-x="214" 
d="M200 760l87 107h44l-97 -107h-34zM38 0l147 704h34l-146 -704h-35z" />
    <glyph glyph-name="Icircumflex" unicode="&#xce;" horiz-adv-x="214" 
d="M323 760h-35l-58 72l-87 -72h-39l118 101h27zM38 0l147 704h34l-146 -704h-35z" />
    <glyph glyph-name="Idieresis" unicode="&#xcf;" horiz-adv-x="214" 
d="M134 760l24 113h34l-24 -113h-34zM259 760l23 113h34l-23 -113h-34zM38 0l147 704h34l-146 -704h-35z" />
    <glyph glyph-name="Eth" unicode="&#xd0;" horiz-adv-x="649" 
d="M187 707h162q137 0 203 -40t74 -119t-16 -197q-16 -76 -34.5 -128.5t-49.5 -98t-74 -72t-105.5 -41.5t-146.5 -15h-162l72 343h-74l6 28h74zM575 351q26 117 16.5 189t-67.5 104.5t-181 32.5h-128l-65 -310h135l-6 -28h-135l-64 -310l127 -1q170 -1 250 71t118 252z" />
    <glyph glyph-name="Ntilde" unicode="&#xd1;" horiz-adv-x="689" 
d="M417 809q-36 0 -49 -49h-25q17 77 79 77q30 0 45 -22t37 -22q23 0 35 16.5t14 32.5h26q-16 -78 -79 -78q-20 0 -31.5 7t-15 15.5t-12.5 15.5t-24 7zM659 704h35l-146 -704h-37l-299 649l-139 -649h-35l151 704h37l300 -652z" />
    <glyph glyph-name="Ograve" unicode="&#xd2;" horiz-adv-x="675" 
d="M449 762h-30l-51 107h39zM282 -16q-153 0 -196.5 93.5t-6.5 273.5q38 181 120 275t236 94q104 0 158.5 -46t60 -128t-16.5 -195q-38 -181 -119 -274t-236 -93zM289 15q128 0 203 83t110 253q23 110 17.5 185t-52 113.5t-138.5 38.5q-128 0 -203.5 -84t-110.5 -253
q-23 -111 -17 -185.5t52.5 -112.5t138.5 -38z" />
    <glyph glyph-name="Oacute" unicode="&#xd3;" horiz-adv-x="675" 
d="M430 762l87 107h44l-97 -107h-34zM282 -16q-153 0 -196.5 93.5t-6.5 273.5q38 181 120 275t236 94q104 0 158.5 -46t60 -128t-16.5 -195q-38 -181 -119 -274t-236 -93zM289 15q128 0 203 83t110 253q23 110 17.5 185t-52 113.5t-138.5 38.5q-128 0 -203.5 -84
t-110.5 -253q-23 -111 -17 -185.5t52.5 -112.5t138.5 -38z" />
    <glyph glyph-name="Ocircumflex" unicode="&#xd4;" horiz-adv-x="675" 
d="M460 834l-87 -72h-39l118 101h27l74 -101h-35zM435 720q104 0 158.5 -46t60 -128t-16.5 -195q-38 -181 -119 -274t-236 -93q-153 0 -196.5 93.5t-6.5 273.5q38 181 120 275t236 94zM602 351q23 110 17.5 185t-52 113.5t-138.5 38.5q-128 0 -203.5 -84t-110.5 -253
q-23 -111 -17 -185.5t52.5 -112.5t138.5 -38q128 0 203 83t110 253z" />
    <glyph glyph-name="Otilde" unicode="&#xd5;" horiz-adv-x="675" 
d="M545 844h26q-16 -78 -79 -78q-20 0 -31.5 7t-15 15.5t-12.5 15.5t-24 7q-36 0 -49 -49h-25q17 77 79 77q30 0 45 -22t37 -22q23 0 35 16.5t14 32.5zM282 -16q-153 0 -196.5 93.5t-6.5 273.5q38 181 120 275t236 94q104 0 158.5 -46t60 -128t-16.5 -195
q-38 -181 -119 -274t-236 -93zM289 15q128 0 203 83t110 253q23 110 17.5 185t-52 113.5t-138.5 38.5q-128 0 -203.5 -84t-110.5 -253q-23 -111 -17 -185.5t52.5 -112.5t138.5 -38z" />
    <glyph glyph-name="Odieresis" unicode="&#xd6;" horiz-adv-x="675" 
d="M364 762l24 113h34l-24 -113h-34zM489 762l23 113h34l-23 -113h-34zM282 -16q-153 0 -196.5 93.5t-6.5 273.5q38 181 120 275t236 94q104 0 158.5 -46t60 -128t-16.5 -195q-38 -181 -119 -274t-236 -93zM289 15q128 0 203 83t110 253q23 110 17.5 185t-52 113.5
t-138.5 38.5q-128 0 -203.5 -84t-110.5 -253q-23 -111 -17 -185.5t52.5 -112.5t138.5 -38z" />
    <glyph glyph-name="multiply" unicode="&#xd7;" horiz-adv-x="497" 
d="M449 446l-170 -144l108 -142l-26 -22l-107 143l-169 -143l-17 22l169 143l-107 143l25 21l108 -142l168 142z" />
    <glyph glyph-name="Oslash" unicode="&#xd8;" horiz-adv-x="675" 
d="M692 714l-67 -77q54 -88 12 -286q-38 -181 -119 -274t-236 -93q-122 0 -175 62l-47 -53h-39l68 78q-50 89 -10 280q38 181 120 275t236 94q118 0 172 -59l46 53h39zM115 351q-36 -175 -1 -251l469 534q-45 54 -154 54q-128 0 -203.5 -84t-110.5 -253zM602 351
q38 180 -2 258l-470 -536q46 -58 159 -58q128 0 203 83t110 253z" />
    <glyph glyph-name="Ugrave" unicode="&#xd9;" horiz-adv-x="664" 
d="M436 760h-30l-51 107h39zM276 -16q-63 0 -105 17t-64 46.5t-28.5 77t-1.5 100t20 124.5l74 355h35l-75 -355q-23 -111 -22.5 -185t42 -111.5t132.5 -37.5q124 0 189 80t101 254l75 355h35l-74 -355q-19 -91 -42 -152.5t-60.5 -112.5t-94.5 -75.5t-136 -24.5z" />
    <glyph glyph-name="Uacute" unicode="&#xda;" horiz-adv-x="664" 
d="M417 760l87 107h44l-97 -107h-34zM276 -16q-63 0 -105 17t-64 46.5t-28.5 77t-1.5 100t20 124.5l74 355h35l-75 -355q-23 -111 -22.5 -185t42 -111.5t132.5 -37.5q124 0 189 80t101 254l75 355h35l-74 -355q-19 -91 -42 -152.5t-60.5 -112.5t-94.5 -75.5t-136 -24.5z" />
    <glyph glyph-name="Ucircumflex" unicode="&#xdb;" horiz-adv-x="664" 
d="M447 832l-87 -72h-39l118 101h27l74 -101h-35zM648 704h35l-74 -355q-19 -91 -42 -152.5t-60.5 -112.5t-94.5 -75.5t-136 -24.5q-63 0 -105 17t-64 46.5t-28.5 77t-1.5 100t20 124.5l74 355h35l-75 -355q-23 -111 -22.5 -185t42 -111.5t132.5 -37.5q124 0 189 80t101 254
z" />
    <glyph glyph-name="Udieresis" unicode="&#xdc;" horiz-adv-x="664" 
d="M351 760l24 113h34l-24 -113h-34zM476 760l23 113h34l-23 -113h-34zM276 -16q-63 0 -105 17t-64 46.5t-28.5 77t-1.5 100t20 124.5l74 355h35l-75 -355q-23 -111 -22.5 -185t42 -111.5t132.5 -37.5q124 0 189 80t101 254l75 355h35l-74 -355q-19 -91 -42 -152.5
t-60.5 -112.5t-94.5 -75.5t-136 -24.5z" />
    <glyph glyph-name="Yacute" unicode="&#xdd;" horiz-adv-x="522" 
d="M474 867l-97 -107h-34l87 107h44zM560 704h44l-323 -419l-60 -285h-35l60 285l-158 419h37l144 -379z" />
    <glyph glyph-name="Thorn" unicode="&#xde;" horiz-adv-x="572" 
d="M193 580h202q119 0 167 -48t22 -170q-25 -123 -92 -170.5t-188 -47.5h-201l-30 -144h-35l147 704h34zM549 362q7 35 7.5 62.5t-5 46.5t-17 33t-26 22.5t-35 13.5t-40 6.5t-45.5 1.5h-201l-77 -371l200 -1q43 0 76 6.5t67.5 25t59 57.5t36.5 97z" />
    <glyph glyph-name="germandbls" unicode="&#xdf;" horiz-adv-x="539" 
d="M527 569q-11 -52 -40.5 -88.5t-65.5 -52t-59 -21t-39 -6.5q7 0 15.5 -0.5t24.5 -2.5t30 -7t31 -14t28 -23t21 -34.5t9.5 -48t-5.5 -63.5q-24 -112 -101 -160t-244 -48l6 30q147 0 215 39t89 139q5 26 5 48t-4 39t-13.5 30t-20.5 22t-28 16t-32.5 11t-38 6.5t-40 3.5
t-42.5 2l6 29q226 0 258 154q16 81 -8 125.5t-108 44.5q-76 -1 -124 -47.5t-64 -122.5l-118 -569h-33l118 565q19 92 73.5 147t152.5 56h1q97 0 130.5 -55.5t14.5 -143.5z" />
    <glyph glyph-name="agrave" unicode="&#xe0;" horiz-adv-x="532" 
d="M355 637h-31l-49 125h41zM328 540q46 0 78 -9.5t47.5 -28t23 -40.5t5.5 -54t-7 -60t-14 -67q-1 -5 -2 -9l-2 -8l-28 -133l-16 -130h-30l11 94q-67 -104 -223 -104q-92 0 -124.5 38t-17.5 114q9 45 30.5 75t52.5 45t72 22.5t90 7.5h106h50q7 33 10 51t6.5 43t2 38.5
t-5.5 30.5t-13.5 25t-23.5 16.5t-35 11.5t-49 3q-48 0 -85 -13t-58 -35t-32 -43t-16 -44h-31q35 163 228 163zM180 18q79 0 138 35.5t83 94.5l24 119q-171 0 -200 -3q-103 -9 -139 -63q-16 -24 -23 -59q-12 -62 12 -93t105 -31z" />
    <glyph glyph-name="aacute" unicode="&#xe1;" horiz-adv-x="532" 
d="M441 762l-100 -125h-31l90 125h41zM328 540q46 0 78 -9.5t47.5 -28t23 -40.5t5.5 -54t-7 -60t-14 -67q-1 -5 -2 -9l-2 -8l-28 -133l-16 -130h-30l11 94q-67 -104 -223 -104q-92 0 -124.5 38t-17.5 114q9 45 30.5 75t52.5 45t72 22.5t90 7.5h106h50q7 33 10 51t6.5 43
t2 38.5t-5.5 30.5t-13.5 25t-23.5 16.5t-35 11.5t-49 3q-48 0 -85 -13t-58 -35t-32 -43t-16 -44h-31q35 163 228 163zM180 18q79 0 138 35.5t83 94.5l24 119q-171 0 -200 -3q-103 -9 -139 -63q-16 -24 -23 -59q-12 -62 12 -93t105 -31z" />
    <glyph glyph-name="acircumflex" unicode="&#xe2;" horiz-adv-x="532" 
d="M365 731l-95 -94h-38l124 125h26l72 -125h-34zM328 540q46 0 78 -9.5t47.5 -28t23 -40.5t5.5 -54t-7 -60t-14 -67q-1 -5 -2 -9l-2 -8l-28 -133l-16 -130h-30l11 94q-67 -104 -223 -104q-92 0 -124.5 38t-17.5 114q9 45 30.5 75t52.5 45t72 22.5t90 7.5h106h50q7 33 10 51
t6.5 43t2 38.5t-5.5 30.5t-13.5 25t-23.5 16.5t-35 11.5t-49 3q-48 0 -85 -13t-58 -35t-32 -43t-16 -44h-31q35 163 228 163zM180 18q79 0 138 35.5t83 94.5l24 119q-171 0 -200 -3q-103 -9 -139 -63q-16 -24 -23 -59q-12 -62 12 -93t105 -31z" />
    <glyph glyph-name="atilde" unicode="&#xe3;" horiz-adv-x="532" 
d="M309 687q-23 0 -35.5 -17t-14.5 -33h-25q17 76 78 76q31 0 46 -22.5t36 -22.5q23 0 35.5 16.5t15.5 33.5h24q-16 -77 -78 -77q-19 0 -30.5 7t-15 16t-12.5 16t-24 7zM328 540q46 0 78 -9.5t47.5 -28t23 -40.5t5.5 -54t-7 -60t-14 -67q-1 -5 -2 -9l-2 -8l-28 -133
l-16 -130h-30l11 94q-67 -104 -223 -104q-92 0 -124.5 38t-17.5 114q9 45 30.5 75t52.5 45t72 22.5t90 7.5h106h50q7 33 10 51t6.5 43t2 38.5t-5.5 30.5t-13.5 25t-23.5 16.5t-35 11.5t-49 3q-48 0 -85 -13t-58 -35t-32 -43t-16 -44h-31q35 163 228 163zM180 18
q79 0 138 35.5t83 94.5l24 119q-171 0 -200 -3q-103 -9 -139 -63q-16 -24 -23 -59q-12 -62 12 -93t105 -31z" />
    <glyph glyph-name="adieresis" unicode="&#xe4;" horiz-adv-x="532" 
d="M321 750l-24 -113h-34l24 113h34zM448 750l-23 -113h-34l23 113h34zM328 540q46 0 78 -9.5t47.5 -28t23 -40.5t5.5 -54t-7 -60t-14 -67q-1 -5 -2 -9l-2 -8l-28 -133l-16 -130h-30l11 94q-67 -104 -223 -104q-92 0 -124.5 38t-17.5 114q9 45 30.5 75t52.5 45t72 22.5
t90 7.5h106h50q7 33 10 51t6.5 43t2 38.5t-5.5 30.5t-13.5 25t-23.5 16.5t-35 11.5t-49 3q-48 0 -85 -13t-58 -35t-32 -43t-16 -44h-31q35 163 228 163zM180 18q79 0 138 35.5t83 94.5l24 119q-171 0 -200 -3q-103 -9 -139 -63q-16 -24 -23 -59q-12 -62 12 -93t105 -31z" />
    <glyph glyph-name="aring" unicode="&#xe5;" horiz-adv-x="532" 
d="M344 636q-32 0 -46 19t-8 47q6 29 27 47.5t53 18.5t46.5 -19t9.5 -47q-6 -29 -28 -47.5t-54 -18.5zM318 702q-8 -41 31 -41q16 0 30 11.5t18 29.5q8 41 -31 41q-17 0 -30.5 -11.5t-17.5 -29.5zM328 540q46 0 78 -9.5t47.5 -28t23 -40.5t5.5 -54t-7 -60t-14 -67
q-1 -5 -2 -9l-2 -8l-28 -133l-16 -130h-30l11 94q-67 -104 -223 -104q-92 0 -124.5 38t-17.5 114q9 45 30.5 75t52.5 45t72 22.5t90 7.5h106h50q7 33 10 51t6.5 43t2 38.5t-5.5 30.5t-13.5 25t-23.5 16.5t-35 11.5t-49 3q-48 0 -85 -13t-58 -35t-32 -43t-16 -44h-31
q35 163 228 163zM180 18q79 0 138 35.5t83 94.5l24 119q-171 0 -200 -3q-103 -9 -139 -63q-16 -24 -23 -59q-12 -62 12 -93t105 -31z" />
    <glyph glyph-name="ae" unicode="&#xe6;" horiz-adv-x="889" 
d="M682 540q106 0 148 -60t12 -204h-395l-3 -14q-9 -44 -12 -76.5t1.5 -65.5t19.5 -53.5t45 -33.5t76 -13q88 0 139.5 45t61.5 89h37q-4 -18 -16.5 -41.5t-38 -53t-75 -49.5t-113.5 -20q-149 0 -169 120q-63 -119 -230 -119q-173 0 -140 161q8 38 24 65t39 43t53 26t66 13
t77.5 4t88.5 0h40q10 39 24 72q8 70 -17 103.5t-103 33.5q-49 0 -86 -13t-58 -35t-32 -43t-16 -44h-32q35 163 229 163q77 0 109 -29t34 -82q70 111 212 111zM454 304h359q19 105 -11.5 156.5t-125.5 51.5q-165 0 -222 -208zM179 18q79 0 136.5 36t80.5 96q0 51 13 113l3 14
q-164 1 -204 -4q-96 -13 -128 -75q-10 -20 -16 -47q-13 -63 11 -98t104 -35z" />
    <glyph glyph-name="ccedilla" unicode="&#xe7;" horiz-adv-x="524" 
d="M330 540q100 0 141 -51t23 -140h-34q33 162 -136 162q-177 0 -229 -246q-16 -78 -13 -132.5t37.5 -83.5t102.5 -29q75 0 129.5 38.5t68.5 103.5h34q-15 -73 -70.5 -119t-144.5 -51l-32 -47q82 -5 69 -70q-9 -41 -36.5 -57.5t-77.5 -16.5l-46 5l5 26q19 -5 43 -5
q37 0 56 9.5t25 39.5q6 27 -14 38.5t-60 11.5h-6l43 65q-111 3 -142.5 74t-5.5 200q26 131 89.5 203t180.5 72z" />
    <glyph glyph-name="egrave" unicode="&#xe8;" horiz-adv-x="539" 
d="M332 540q215 0 162 -254h-394l-5 -24q-12 -56 -14 -95t8.5 -75t44.5 -54.5t91 -18.5q87 0 139.5 46t62.5 89h35q-4 -18 -16.5 -41.5t-38 -53t-75 -49.5t-113.5 -20q-114 0 -151 67t-8 206q29 140 93 208.5t179 68.5zM108 314h357q16 96 -14.5 146.5t-124.5 50.5
q-160 0 -218 -197zM364 637h-31l-49 125h41z" />
    <glyph glyph-name="eacute" unicode="&#xe9;" horiz-adv-x="539" 
d="M332 540q215 0 162 -254h-394l-5 -24q-12 -56 -14 -95t8.5 -75t44.5 -54.5t91 -18.5q87 0 139.5 46t62.5 89h35q-4 -18 -16.5 -41.5t-38 -53t-75 -49.5t-113.5 -20q-114 0 -151 67t-8 206q29 140 93 208.5t179 68.5zM108 314h357q16 96 -14.5 146.5t-124.5 50.5
q-160 0 -218 -197zM450 762l-100 -125h-31l90 125h41z" />
    <glyph glyph-name="ecircumflex" unicode="&#xea;" horiz-adv-x="539" 
d="M332 540q215 0 162 -254h-394l-5 -24q-12 -56 -14 -95t8.5 -75t44.5 -54.5t91 -18.5q87 0 139.5 46t62.5 89h35q-4 -18 -16.5 -41.5t-38 -53t-75 -49.5t-113.5 -20q-114 0 -151 67t-8 206q29 140 93 208.5t179 68.5zM108 314h357q16 96 -14.5 146.5t-124.5 50.5
q-160 0 -218 -197zM374 731l-95 -94h-38l124 125h26l72 -125h-34z" />
    <glyph glyph-name="edieresis" unicode="&#xeb;" horiz-adv-x="539" 
d="M332 540q215 0 162 -254h-394l-5 -24q-12 -56 -14 -95t8.5 -75t44.5 -54.5t91 -18.5q87 0 139.5 46t62.5 89h35q-4 -18 -16.5 -41.5t-38 -53t-75 -49.5t-113.5 -20q-114 0 -151 67t-8 206q29 140 93 208.5t179 68.5zM108 314h357q16 96 -14.5 146.5t-124.5 50.5
q-160 0 -218 -197zM330 750l-24 -113h-34l24 113h34zM457 750l-23 -113h-34l23 113h34z" />
    <glyph glyph-name="igrave" unicode="&#xec;" horiz-adv-x="203" 
d="M194 637h-31l-49 125h41zM33 0l110 531h33l-110 -531h-33z" />
    <glyph glyph-name="iacute" unicode="&#xed;" horiz-adv-x="203" 
d="M149 637l90 125h41l-100 -125h-31zM33 0l110 531h33l-110 -531h-33z" />
    <glyph glyph-name="icircumflex" unicode="&#xee;" horiz-adv-x="203" 
d="M293 637h-34l-55 94l-95 -94h-38l124 125h26zM33 0l110 531h33l-110 -531h-33z" />
    <glyph glyph-name="idieresis" unicode="&#xef;" horiz-adv-x="203" 
d="M102 637l24 113h34l-24 -113h-34zM230 637l23 113h34l-23 -113h-34zM33 0l110 531h33l-110 -531h-33z" />
    <glyph glyph-name="eth" unicode="&#xf0;" horiz-adv-x="548" 
d="M549 709l-100 -48q79 -198 38 -398q-47 -273 -270 -273q-215 0 -157 274q58 275 250 275q111 0 153 -90q-9 102 -46 196l-106 -51l-9 23l106 51q-11 26 -23.5 49t-18.5 33l-7 10h39q19 -28 41 -77l100 49zM223 19q93 0 152 63.5t77 180.5h-1l2 10q10 51 11 92
q-2 25 -10.5 48.5t-25.5 47t-48 37.5t-73 14q-80 0 -134 -65t-78 -183q-25 -122 3 -183.5t125 -61.5z" />
    <glyph glyph-name="ntilde" unicode="&#xf1;" horiz-adv-x="554" 
d="M331 687q-23 0 -35.5 -17t-14.5 -33h-25q17 76 78 76q31 0 46 -22.5t36 -22.5q23 0 35.5 16.5t15.5 33.5h24q-16 -77 -78 -77q-19 0 -30.5 7t-15 16t-12.5 16t-24 7zM362 540q93 0 125.5 -50t6.5 -175l-65 -315h-33l65 314q24 98 0.5 147t-109.5 49q-66 0 -119.5 -42.5
t-89.5 -94.5l-77 -373h-33l82 395l18 136h30l-13 -113q34 47 88 84.5t124 37.5z" />
    <glyph glyph-name="ograve" unicode="&#xf2;" horiz-adv-x="551" 
d="M367 629h-31l-49 125h41zM222 -10q-121 0 -155 71t-6 203q28 134 90.5 205t184.5 72q82 0 125 -35.5t47 -97.5t-12 -144q-28 -133 -90 -203.5t-184 -70.5zM228 19q97 0 152.5 62t80.5 183q15 78 13 133t-37.5 85t-106.5 30q-97 0 -153 -63t-81 -185q-16 -78 -13 -132.5
t38.5 -83.5t106.5 -29z" />
    <glyph glyph-name="oacute" unicode="&#xf3;" horiz-adv-x="551" 
d="M322 629l90 125h41l-100 -125h-31zM222 -10q-121 0 -155 71t-6 203q28 134 90.5 205t184.5 72q82 0 125 -35.5t47 -97.5t-12 -144q-28 -133 -90 -203.5t-184 -70.5zM228 19q97 0 152.5 62t80.5 183q15 78 13 133t-37.5 85t-106.5 30q-97 0 -153 -63t-81 -185
q-16 -78 -13 -132.5t38.5 -83.5t106.5 -29z" />
    <glyph glyph-name="ocircumflex" unicode="&#xf4;" horiz-adv-x="551" 
d="M377 723l-95 -94h-38l124 125h26l72 -125h-34zM336 541q82 0 125 -35.5t47 -97.5t-12 -144q-28 -133 -90 -203.5t-184 -70.5q-121 0 -155 71t-6 203q28 134 90.5 205t184.5 72zM461 264q15 78 13 133t-37.5 85t-106.5 30q-97 0 -153 -63t-81 -185q-16 -78 -13 -132.5
t38.5 -83.5t106.5 -29q97 0 152.5 62t80.5 183z" />
    <glyph glyph-name="otilde" unicode="&#xf5;" horiz-adv-x="551" 
d="M457 710h24q-16 -77 -78 -77q-19 0 -30.5 7t-15 16t-12.5 16t-24 7q-23 0 -35.5 -17t-14.5 -33h-25q17 76 78 76q31 0 46 -22.5t36 -22.5q23 0 35.5 16.5t15.5 33.5zM222 -10q-121 0 -155 71t-6 203q28 134 90.5 205t184.5 72q82 0 125 -35.5t47 -97.5t-12 -144
q-28 -133 -90 -203.5t-184 -70.5zM228 19q97 0 152.5 62t80.5 183q15 78 13 133t-37.5 85t-106.5 30q-97 0 -153 -63t-81 -185q-16 -78 -13 -132.5t38.5 -83.5t106.5 -29z" />
    <glyph glyph-name="odieresis" unicode="&#xf6;" horiz-adv-x="551" 
d="M275 629l24 113h34l-24 -113h-34zM403 629l23 113h34l-23 -113h-34zM222 -10q-121 0 -155 71t-6 203q28 134 90.5 205t184.5 72q82 0 125 -35.5t47 -97.5t-12 -144q-28 -133 -90 -203.5t-184 -70.5zM228 19q97 0 152.5 62t80.5 183q15 78 13 133t-37.5 85t-106.5 30
q-97 0 -153 -63t-81 -185q-16 -78 -13 -132.5t38.5 -83.5t106.5 -29z" />
    <glyph glyph-name="divide" unicode="&#xf7;" horiz-adv-x="478" 
d="M254 404l20 94h32l-20 -94h-32zM58 294l6 29h379l-7 -29h-378zM194 119l19 94h32l-19 -94h-32z" />
    <glyph glyph-name="oslash" unicode="&#xf8;" horiz-adv-x="551" 
d="M541 537l-55 -60q42 -67 10 -213q-28 -133 -90 -203.5t-184 -70.5q-93 0 -136 45l-34 -38h-34l52 58q-40 67 -9 209q28 134 90.5 205t184.5 72q93 0 134 -44l36 40h35zM96 264q-27 -124 -1 -182l352 390q-34 40 -117 40q-97 0 -153 -63t-81 -185zM461 264q26 129 0 185
l-352 -389q35 -41 119 -41q97 0 152.5 62t80.5 183z" />
    <glyph glyph-name="ugrave" unicode="&#xf9;" horiz-adv-x="583" 
d="M358 637h-31l-49 125h41zM500 531h33l-81 -384l-20 -147h-30l15 128q-12 -18 -29 -38t-45 -44t-66.5 -39.5t-79.5 -15.5q-93 0 -125.5 50.5t-6.5 173.5l65 316h33l-65 -313q-24 -98 -1 -147t109 -49q41 0 80.5 19.5t68.5 49.5t45 51t26 38z" />
    <glyph glyph-name="uacute" unicode="&#xfa;" horiz-adv-x="583" 
d="M444 762l-100 -125h-31l90 125h41zM500 531h33l-81 -384l-20 -147h-30l15 128q-12 -18 -29 -38t-45 -44t-66.5 -39.5t-79.5 -15.5q-93 0 -125.5 50.5t-6.5 173.5l65 316h33l-65 -313q-24 -98 -1 -147t109 -49q41 0 80.5 19.5t68.5 49.5t45 51t26 38z" />
    <glyph glyph-name="ucircumflex" unicode="&#xfb;" horiz-adv-x="583" 
d="M368 731l-95 -94h-38l124 125h26l72 -125h-34zM500 531h33l-81 -384l-20 -147h-30l15 128q-12 -18 -29 -38t-45 -44t-66.5 -39.5t-79.5 -15.5q-93 0 -125.5 50.5t-6.5 173.5l65 316h33l-65 -313q-24 -98 -1 -147t109 -49q41 0 80.5 19.5t68.5 49.5t45 51t26 38z" />
    <glyph glyph-name="udieresis" unicode="&#xfc;" horiz-adv-x="583" 
d="M324 750l-24 -113h-34l24 113h34zM451 750l-23 -113h-34l23 113h34zM500 531h33l-81 -384l-20 -147h-30l15 128q-12 -18 -29 -38t-45 -44t-66.5 -39.5t-79.5 -15.5q-93 0 -125.5 50.5t-6.5 173.5l65 316h33l-65 -313q-24 -98 -1 -147t109 -49q41 0 80.5 19.5t68.5 49.5
t45 51t26 38z" />
    <glyph glyph-name="yacute" unicode="&#xfd;" horiz-adv-x="439" 
d="M395 762l-100 -125h-31l90 125h41zM457 531h40l-428 -749h-36l123 218h-9l-95 531h35l86 -502z" />
    <glyph glyph-name="thorn" unicode="&#xfe;" horiz-adv-x="570" 
d="M375 540q197 0 141 -277q-57 -271 -256 -271q-138 0 -169 106l-70 -338h-33l208 1000h33l-69 -330q33 41 88 75.5t127 34.5zM481 263q52 248 -117 248q-50 0 -99 -27.5t-72.5 -52t-42.5 -50.5l-46 -221q1 -54 37.5 -96.5t121.5 -42.5q82 0 138 63t80 179z" />
    <glyph glyph-name="ydieresis" unicode="&#xff;" horiz-adv-x="439" 
d="M275 750l-24 -113h-34l24 113h34zM402 750l-23 -113h-34l23 113h34zM457 531h40l-428 -749h-36l123 218h-9l-95 531h35l86 -502z" />
    <glyph glyph-name="Amacron" unicode="&#x100;" horiz-adv-x="584" 
d="M517 817l-7 -29h-203l7 29h203zM500 0l-35 210h-340l-122 -210h-38l414 704h35l121 -704h-35zM143 241h317l-71 423z" />
    <glyph glyph-name="amacron" unicode="&#x101;" horiz-adv-x="532" 
d="M456 694l-6 -28h-202l6 28h202zM328 540q46 0 78 -9.5t47.5 -28t23 -40.5t5.5 -54t-7 -60t-14 -67q-1 -5 -2 -9l-2 -8l-28 -133l-16 -130h-30l11 94q-67 -104 -223 -104q-92 0 -124.5 38t-17.5 114q9 45 30.5 75t52.5 45t72 22.5t90 7.5h106h50q7 33 10 51t6.5 43t2 38.5
t-5.5 30.5t-13.5 25t-23.5 16.5t-35 11.5t-49 3q-48 0 -85 -13t-58 -35t-32 -43t-16 -44h-31q35 163 228 163zM180 18q79 0 138 35.5t83 94.5l24 119q-171 0 -200 -3q-103 -9 -139 -63q-16 -24 -23 -59q-12 -62 12 -93t105 -31z" />
    <glyph glyph-name="Abreve" unicode="&#x102;" horiz-adv-x="584" 
d="M404 760q-50 0 -71 27.5t-15 58.5h30q-4 -22 10.5 -40t51.5 -18q36 0 58 18t26 40h32q-8 -34 -37 -60t-85 -26zM500 0l-35 210h-340l-122 -210h-38l414 704h35l121 -704h-35zM143 241h317l-71 423z" />
    <glyph glyph-name="abreve" unicode="&#x103;" horiz-adv-x="532" 
d="M344 636q-51 0 -71 31t-13 65h29q-6 -24 8.5 -45.5t52.5 -21.5q35 0 58.5 22t28.5 45h31q-9 -35 -40 -65.5t-84 -30.5zM328 540q46 0 78 -9.5t47.5 -28t23 -40.5t5.5 -54t-7 -60t-14 -67q-1 -5 -2 -9l-2 -8l-28 -133l-16 -130h-30l11 94q-67 -104 -223 -104
q-92 0 -124.5 38t-17.5 114q9 45 30.5 75t52.5 45t72 22.5t90 7.5h106h50q7 33 10 51t6.5 43t2 38.5t-5.5 30.5t-13.5 25t-23.5 16.5t-35 11.5t-49 3q-48 0 -85 -13t-58 -35t-32 -43t-16 -44h-31q35 163 228 163zM180 18q79 0 138 35.5t83 94.5l24 119q-171 0 -200 -3
q-103 -9 -139 -63q-16 -24 -23 -59q-12 -62 12 -93t105 -31z" />
    <glyph glyph-name="Aogonek" unicode="&#x104;" horiz-adv-x="584" 
d="M535 0h-5q-11 -4 -27 -12.5t-45.5 -34t-34.5 -52.5q-5 -22 5 -33t28 -11q11 0 23.5 3.5t19.5 6.5l7 3l-6 -24q-25 -15 -57 -15t-45.5 17.5t-7.5 48.5q5 27 29 52.5t43 38t37 20.5l-34 202h-340l-122 -210h-38l414 704h35zM143 241h317l-71 423z" />
    <glyph glyph-name="aogonek" unicode="&#x105;" horiz-adv-x="532" 
d="M328 540q46 0 78 -9.5t47.5 -28t23 -40.5t5.5 -54t-7 -60t-14 -67q-1 -5 -2 -9l-2 -8l-28 -133l-16 -130q-11 -4 -27 -12.5t-45.5 -34t-34.5 -52.5q-5 -22 5 -33t28 -11q11 0 23.5 3t19.5 7l7 3l-6 -24q-25 -15 -57 -15t-45.5 17.5t-7.5 48.5q13 65 111 112l10 85
q-67 -104 -223 -104q-92 0 -124.5 38t-17.5 114q9 45 30.5 75t52.5 45t72 22.5t90 7.5h106h50q7 33 10 51t6.5 43t2 38.5t-5.5 30.5t-13.5 25t-23.5 16.5t-35 11.5t-49 3q-48 0 -85 -13t-58 -35t-32 -43t-16 -44h-31q35 163 228 163zM180 18q79 0 138 35.5t83 94.5l24 119
q-171 0 -200 -3q-103 -9 -139 -63q-16 -24 -23 -59q-12 -62 12 -93t105 -31z" />
    <glyph glyph-name="Cacute" unicode="&#x106;" horiz-adv-x="635" 
d="M420 762l87 107h44l-97 -107h-34zM277 -16q-150 0 -192.5 93.5t-4.5 273.5q37 181 118 275t232 94q122 0 170.5 -62t26.5 -178h-35q18 105 -21.5 156.5t-146.5 51.5q-125 0 -199.5 -84t-109.5 -253q-39 -166 -1.5 -251t170.5 -85q94 0 159.5 50.5t91.5 146.5h35
q-59 -228 -293 -228z" />
    <glyph glyph-name="cacute" unicode="&#x107;" horiz-adv-x="524" 
d="M313 637l90 125h41l-100 -125h-31zM216 -9q-116 0 -149.5 71t-6.5 203q26 131 89.5 203t180.5 72q100 0 141 -51t23 -140h-34q33 162 -136 162q-177 0 -229 -246q-16 -78 -13 -132.5t37.5 -83.5t102.5 -29q75 0 129.5 38.5t68.5 103.5h34q-16 -78 -77.5 -124.5
t-160.5 -46.5z" />
    <glyph glyph-name="Ccircumflex" unicode="&#x108;" horiz-adv-x="635" 
d="M450 834l-87 -72h-39l118 101h27l74 -101h-35zM430 720q122 0 170.5 -62t26.5 -178h-35q18 105 -21.5 156.5t-146.5 51.5q-125 0 -199.5 -84t-109.5 -253q-39 -166 -1.5 -251t170.5 -85q94 0 159.5 50.5t91.5 146.5h35q-59 -228 -293 -228q-150 0 -192.5 93.5t-4.5 273.5
q37 181 118 275t232 94z" />
    <glyph glyph-name="ccircumflex" unicode="&#x109;" horiz-adv-x="524" 
d="M368 731l-95 -94h-38l124 125h26l72 -125h-34zM330 540q100 0 141 -51t23 -140h-34q33 162 -136 162q-177 0 -229 -246q-16 -78 -13 -132.5t37.5 -83.5t102.5 -29q75 0 129.5 38.5t68.5 103.5h34q-16 -78 -77.5 -124.5t-160.5 -46.5q-116 0 -149.5 71t-6.5 203
q26 131 89.5 203t180.5 72z" />
    <glyph glyph-name="Cdotaccent" unicode="&#x10a;" horiz-adv-x="635" 
d="M417 762l24 113h34l-24 -113h-34zM277 -16q-150 0 -192.5 93.5t-4.5 273.5q37 181 118 275t232 94q122 0 170.5 -62t26.5 -178h-35q18 105 -21.5 156.5t-146.5 51.5q-125 0 -199.5 -84t-109.5 -253q-39 -166 -1.5 -251t170.5 -85q94 0 159.5 50.5t91.5 146.5h35
q-59 -228 -293 -228z" />
    <glyph glyph-name="cdotaccent" unicode="&#x10b;" horiz-adv-x="524" 
d="M331 646l24 113h34l-24 -113h-34zM216 -9q-116 0 -149.5 71t-6.5 203q26 131 89.5 203t180.5 72q100 0 141 -51t23 -140h-34q33 162 -136 162q-177 0 -229 -246q-16 -78 -13 -132.5t37.5 -83.5t102.5 -29q75 0 129.5 38.5t68.5 103.5h34q-16 -78 -77.5 -124.5
t-160.5 -46.5z" />
    <glyph glyph-name="Ccaron" unicode="&#x10c;" horiz-adv-x="635" 
d="M447 762h-28l-74 101h36l56 -71l88 71h40zM430 720q122 0 170.5 -62t26.5 -178h-35q18 105 -21.5 156.5t-146.5 51.5q-125 0 -199.5 -84t-109.5 -253q-39 -166 -1.5 -251t170.5 -85q94 0 159.5 50.5t91.5 146.5h35q-59 -228 -293 -228q-150 0 -192.5 93.5t-4.5 273.5
q37 181 118 275t232 94z" />
    <glyph glyph-name="ccaron" unicode="&#x10d;" horiz-adv-x="524" 
d="M359 637h-25l-73 125h35l55 -94l95 94h37zM330 540q100 0 141 -51t23 -140h-34q33 162 -136 162q-177 0 -229 -246q-16 -78 -13 -132.5t37.5 -83.5t102.5 -29q75 0 129.5 38.5t68.5 103.5h34q-16 -78 -77.5 -124.5t-160.5 -46.5q-116 0 -149.5 71t-6.5 203
q26 131 89.5 203t180.5 72z" />
    <glyph glyph-name="Dcaron" unicode="&#x10e;" horiz-adv-x="649" 
d="M425 760h-28l-74 101h36l56 -71l88 71h40zM187 707h162q137 0 203 -40t74 -119t-16 -197q-16 -76 -34.5 -128.5t-49.5 -98t-74 -72t-105.5 -41.5t-146.5 -15h-162zM575 351q26 117 16.5 189t-67.5 104.5t-181 32.5h-128l-135 -648l127 -1q170 -1 250 71t118 252z" />
    <glyph glyph-name="dcaron" unicode="&#x10f;" horiz-adv-x="569" 
d="M554 760h33l-130 -626l-19 -134h-29l12 106q-74 -114 -219 -114q-199 0 -143 271q26 129 89.5 203t167.5 74q73 0 113.5 -35t56.5 -75zM431 167l44 210q-2 13 -6.5 26.5t-17 34t-29 35.5t-45 26.5t-64.5 11.5q-81 0 -138 -66t-81 -182q-51 -242 117 -242q83 0 141 46
t79 100zM660 760h39l-83 -129h-29z" />
    <glyph glyph-name="Dcroat" unicode="&#x110;" horiz-adv-x="649" 
d="M187 707h162q137 0 203 -40t74 -119t-16 -197q-16 -76 -34.5 -128.5t-49.5 -98t-74 -72t-105.5 -41.5t-146.5 -15h-162l72 343h-74l6 28h74zM575 351q26 117 16.5 189t-67.5 104.5t-181 32.5h-128l-65 -310h135l-6 -28h-135l-64 -310l127 -1q170 -1 250 71t118 252z" />
    <glyph glyph-name="dcroat" unicode="&#x111;" horiz-adv-x="569" 
d="M628 623l-6 -28h-69l-96 -461l-19 -134h-29l12 106q-74 -114 -219 -114q-199 0 -143 271q26 129 89.5 203t167.5 74q73 0 113.5 -35t56.5 -75l34 165h-141l6 28h141l28 137h33l-28 -137h69zM431 167l44 210q-2 13 -6.5 26.5t-17 34t-29 35.5t-45 26.5t-64.5 11.5
q-81 0 -138 -66t-81 -182q-51 -242 117 -242q83 0 141 46t79 100z" />
    <glyph glyph-name="Emacron" unicode="&#x112;" horiz-adv-x="537" 
d="M512 817l-7 -29h-203l7 29h203zM600 672h-388l-59 -288h337l-7 -31h-337l-66 -321h390l-6 -32h-426l147 704h421z" />
    <glyph glyph-name="emacron" unicode="&#x113;" horiz-adv-x="539" 
d="M332 540q215 0 162 -254h-394l-5 -24q-12 -56 -14 -95t8.5 -75t44.5 -54.5t91 -18.5q87 0 139.5 46t62.5 89h35q-4 -18 -16.5 -41.5t-38 -53t-75 -49.5t-113.5 -20q-114 0 -151 67t-8 206q29 140 93 208.5t179 68.5zM108 314h357q16 96 -14.5 146.5t-124.5 50.5
q-160 0 -218 -197zM465 694l-6 -28h-202l6 28h202z" />
    <glyph glyph-name="Ebreve" unicode="&#x114;" horiz-adv-x="537" 
d="M399 760q-50 0 -71 27.5t-15 58.5h30q-4 -22 10.5 -40t51.5 -18q36 0 58 18t26 40h32q-8 -34 -37 -60t-85 -26zM600 672h-388l-59 -288h337l-7 -31h-337l-66 -321h390l-6 -32h-426l147 704h421z" />
    <glyph glyph-name="ebreve" unicode="&#x115;" horiz-adv-x="539" 
d="M332 540q215 0 162 -254h-394l-5 -24q-12 -56 -14 -95t8.5 -75t44.5 -54.5t91 -18.5q87 0 139.5 46t62.5 89h35q-4 -18 -16.5 -41.5t-38 -53t-75 -49.5t-113.5 -20q-114 0 -151 67t-8 206q29 140 93 208.5t179 68.5zM108 314h357q16 96 -14.5 146.5t-124.5 50.5
q-160 0 -218 -197zM353 636q-51 0 -71 31t-13 65h29q-6 -24 8.5 -45.5t52.5 -21.5q35 0 58.5 22t28.5 45h31q-9 -35 -40 -65.5t-84 -30.5z" />
    <glyph glyph-name="Edotaccent" unicode="&#x116;" horiz-adv-x="537" 
d="M440 873l-24 -113h-34l24 113h34zM600 672h-388l-59 -288h337l-7 -31h-337l-66 -321h390l-6 -32h-426l147 704h421z" />
    <glyph glyph-name="edotaccent" unicode="&#x117;" horiz-adv-x="539" 
d="M332 540q215 0 162 -254h-394l-5 -24q-12 -56 -14 -95t8.5 -75t44.5 -54.5t91 -18.5q87 0 139.5 46t62.5 89h35q-4 -18 -16.5 -41.5t-38 -53t-75 -49.5t-113.5 -20q-114 0 -151 67t-8 206q29 140 93 208.5t179 68.5zM108 314h357q16 96 -14.5 146.5t-124.5 50.5
q-160 0 -218 -197zM395 759l-24 -113h-34l24 113h34z" />
    <glyph glyph-name="Eogonek" unicode="&#x118;" horiz-adv-x="537" 
d="M600 672h-388l-59 -288h337l-7 -31h-337l-66 -321h390l-6 -32q-11 -4 -27 -12.5t-45.5 -34t-34.5 -52.5q-5 -22 5 -33t28 -11q11 0 23.5 3.5t19.5 6.5l7 3l-6 -24q-25 -15 -57 -15t-45.5 17.5t-7.5 48.5q12 58 94 103h-380l147 704h421z" />
    <glyph glyph-name="eogonek" unicode="&#x119;" horiz-adv-x="539" 
d="M332 540q215 0 162 -254h-394l-5 -24q-12 -56 -14 -95t8.5 -75t44.5 -54.5t91 -18.5q87 0 139.5 46t62.5 89h35q-6 -28 -31 -66.5t-73 -65.5h1q-11 -4 -27 -12.5t-45.5 -34t-34.5 -52.5q-5 -22 5 -33t28 -11q11 0 23.5 3.5t19.5 6.5l7 3l-6 -24q-25 -15 -57 -15
t-45.5 17.5t-7.5 48.5q8 40 52 75q-21 -4 -52 -4q-114 0 -151 67t-8 206q29 140 93 208.5t179 68.5zM108 314h357q16 96 -14.5 146.5t-124.5 50.5q-160 0 -218 -197z" />
    <glyph glyph-name="Ecaron" unicode="&#x11a;" horiz-adv-x="537" 
d="M412 760h-28l-74 101h36l56 -71l88 71h40zM600 672h-388l-59 -288h337l-7 -31h-337l-66 -321h390l-6 -32h-426l147 704h421z" />
    <glyph glyph-name="ecaron" unicode="&#x11b;" horiz-adv-x="539" 
d="M332 540q215 0 162 -254h-394l-5 -24q-12 -56 -14 -95t8.5 -75t44.5 -54.5t91 -18.5q87 0 139.5 46t62.5 89h35q-4 -18 -16.5 -41.5t-38 -53t-75 -49.5t-113.5 -20q-114 0 -151 67t-8 206q29 140 93 208.5t179 68.5zM108 314h357q16 96 -14.5 146.5t-124.5 50.5
q-160 0 -218 -197zM365 637h-25l-73 125h35l55 -94l95 94h37z" />
    <glyph glyph-name="Gcircumflex" unicode="&#x11c;" horiz-adv-x="643" 
d="M454 834l-87 -72h-39l118 101h27l74 -101h-35zM430 720q120 0 170 -64t30 -158h-35q18 83 -24.5 136.5t-146.5 53.5q-125 0 -199.5 -84t-109.5 -254q-39 -166 -1 -250.5t171 -84.5q58 0 112.5 16.5t82 33.5t29.5 25l44 212h-162l7 31h195l-53 -257q-1 -5 -11.5 -15
t-33.5 -23t-52 -25t-73.5 -20.5t-92.5 -8.5q-102 0 -155 45t-58.5 126t16.5 195q38 182 118.5 276t231.5 94z" />
    <glyph glyph-name="gcircumflex" unicode="&#x11d;" horiz-adv-x="570" 
d="M377 731l-95 -94h-38l124 125h26l72 -125h-34zM516 531h30l-36 -130l-83 -401q-9 -44 -17.5 -72.5t-27.5 -63.5t-44.5 -55t-69.5 -34.5t-102 -14.5q-41 0 -72 10t-47 26t-26 35.5t-11.5 39.5t-1.5 36t2 26l3 10l32 1q-1 -1 -4 -16.5t-1 -39t12 -46t41 -38.5t80 -16
q47 0 83 12t58.5 30t39 48t24.5 56.5t16 65.5l20 98q-75 -106 -213 -106q-199 0 -143 271q26 129 89.5 203t167.5 74q74 0 115.5 -34.5t55.5 -71.5zM210 21q79 0 135.5 42.5t81.5 95.5l48 233q-5 17 -14 33.5t-27 38t-49.5 34.5t-72.5 13q-81 0 -138 -66t-81 -182
q-51 -242 117 -242z" />
    <glyph glyph-name="Gbreve" unicode="&#x11e;" horiz-adv-x="643" 
d="M438 762q-50 0 -71 27.5t-15 58.5h30q-4 -22 10.5 -40t51.5 -18q36 0 58 18t26 40h32q-8 -34 -37 -60t-85 -26zM430 720q120 0 170 -64t30 -158h-35q18 83 -24.5 136.5t-146.5 53.5q-125 0 -199.5 -84t-109.5 -254q-39 -166 -1 -250.5t171 -84.5q58 0 112.5 16.5t82 33.5
t29.5 25l44 212h-162l7 31h195l-53 -257q-1 -5 -11.5 -15t-33.5 -23t-52 -25t-73.5 -20.5t-92.5 -8.5q-102 0 -155 45t-58.5 126t16.5 195q38 182 118.5 276t231.5 94z" />
    <glyph glyph-name="gbreve" unicode="&#x11f;" horiz-adv-x="570" 
d="M356 636q-51 0 -71 31t-13 65h29q-6 -24 8.5 -45.5t52.5 -21.5q35 0 58.5 22t28.5 45h31q-9 -35 -40 -65.5t-84 -30.5zM516 531h30l-36 -130l-83 -401q-9 -44 -17.5 -72.5t-27.5 -63.5t-44.5 -55t-69.5 -34.5t-102 -14.5q-41 0 -72 10t-47 26t-26 35.5t-11.5 39.5
t-1.5 36t2 26l3 10l32 1q-1 -1 -4 -16.5t-1 -39t12 -46t41 -38.5t80 -16q47 0 83 12t58.5 30t39 48t24.5 56.5t16 65.5l20 98q-75 -106 -213 -106q-199 0 -143 271q26 129 89.5 203t167.5 74q74 0 115.5 -34.5t55.5 -71.5zM210 21q79 0 135.5 42.5t81.5 95.5l48 233
q-5 17 -14 33.5t-27 38t-49.5 34.5t-72.5 13q-81 0 -138 -66t-81 -182q-51 -242 117 -242z" />
    <glyph glyph-name="Gdotaccent" unicode="&#x120;" horiz-adv-x="643" 
d="M479 875l-24 -113h-34l24 113h34zM430 720q120 0 170 -64t30 -158h-35q18 83 -24.5 136.5t-146.5 53.5q-125 0 -199.5 -84t-109.5 -254q-39 -166 -1 -250.5t171 -84.5q58 0 112.5 16.5t82 33.5t29.5 25l44 212h-162l7 31h195l-53 -257q-1 -5 -11.5 -15t-33.5 -23t-52 -25
t-73.5 -20.5t-92.5 -8.5q-102 0 -155 45t-58.5 126t16.5 195q38 182 118.5 276t231.5 94z" />
    <glyph glyph-name="gdotaccent" unicode="&#x121;" horiz-adv-x="570" 
d="M398 759l-24 -113h-34l24 113h34zM516 531h30l-36 -130l-83 -401q-9 -44 -17.5 -72.5t-27.5 -63.5t-44.5 -55t-69.5 -34.5t-102 -14.5q-41 0 -72 10t-47 26t-26 35.5t-11.5 39.5t-1.5 36t2 26l3 10l32 1q-1 -1 -4 -16.5t-1 -39t12 -46t41 -38.5t80 -16q47 0 83 12
t58.5 30t39 48t24.5 56.5t16 65.5l20 98q-75 -106 -213 -106q-199 0 -143 271q26 129 89.5 203t167.5 74q74 0 115.5 -34.5t55.5 -71.5zM210 21q79 0 135.5 42.5t81.5 95.5l48 233q-5 17 -14 33.5t-27 38t-49.5 34.5t-72.5 13q-81 0 -138 -66t-81 -182q-51 -242 117 -242z
" />
    <glyph glyph-name="Gcommaaccent" unicode="&#x122;" horiz-adv-x="643" 
d="M430 720q120 0 170 -64t30 -158h-35q18 83 -24.5 136.5t-146.5 53.5q-125 0 -199.5 -84t-109.5 -254q-39 -166 -1 -250.5t171 -84.5q58 0 112.5 16.5t82 33.5t29.5 25l44 212h-162l7 31h195l-53 -257q-1 -5 -11.5 -15t-33.5 -23t-52 -25t-73.5 -20.5t-92.5 -8.5
q-102 0 -155 45t-58.5 126t16.5 195q38 182 118.5 276t231.5 94zM228 -136q8 19 15.5 38.5t10.5 29.5l3 11h35q-11 -39 -31 -80q-10 -21 -22.5 -41.5t-20.5 -31.5l-7 -10h-30q24 36 47 84z" />
    <glyph glyph-name="gcommaaccent" unicode="&#x123;" horiz-adv-x="570" 
d="M377 674q-11 -24 -19.5 -47t-11.5 -35l-2 -11h-36q8 42 33 95q13 27 27.5 51t23.5 35l8 10h31q-25 -35 -54 -98zM516 531h30l-36 -130l-83 -401q-9 -44 -17.5 -72.5t-27.5 -63.5t-44.5 -55t-69.5 -34.5t-102 -14.5q-41 0 -72 10t-47 26t-26 35.5t-11.5 39.5t-1.5 36t2 26
l3 10l32 1q-1 -1 -4 -16.5t-1 -39t12 -46t41 -38.5t80 -16q47 0 83 12t58.5 30t39 48t24.5 56.5t16 65.5l20 98q-75 -106 -213 -106q-199 0 -143 271q26 129 89.5 203t167.5 74q74 0 115.5 -34.5t55.5 -71.5zM210 21q79 0 135.5 42.5t81.5 95.5l48 233q-5 17 -14 33.5
t-27 38t-49.5 34.5t-72.5 13q-81 0 -138 -66t-81 -182q-51 -242 117 -242z" />
    <glyph glyph-name="Hcircumflex" unicode="&#x124;" horiz-adv-x="669" 
d="M457 832l-87 -72h-39l118 101h27l74 -101h-35zM639 704h35l-147 -704h-34l73 352h-420l-73 -352h-35l147 704h34l-66 -319h420z" />
    <glyph glyph-name="hcircumflex" unicode="&#x125;" horiz-adv-x="560" 
d="M234 855l-87 -72h-39l118 101h27l74 -101h-35zM367 540q93 0 125.5 -50.5t7.5 -174.5l-66 -315h-33l65 314q24 98 1 147t-109 49q-112 0 -210 -137l-78 -373h-33l159 760h33l-70 -335q34 45 87.5 80t120.5 35z" />
    <glyph glyph-name="Hbar" unicode="&#x126;" horiz-adv-x="669" 
d="M704 555l-6 -30h-61l-110 -525h-34l73 352h-420l-73 -352h-35l110 525h-56l6 30h56l31 149h34l-31 -149h420l31 149h35l-31 -149h61zM573 385l29 140h-420l-29 -140h420z" />
    <glyph glyph-name="hbar" unicode="&#x127;" horiz-adv-x="560" 
d="M367 540q93 0 125.5 -50.5t7.5 -174.5l-66 -315h-33l65 314q24 98 1 147t-109 49q-112 0 -210 -137l-78 -373h-33l125 596h-76l6 28h76l28 136h33l-28 -136h134l-6 -28h-134l-36 -171q34 45 87.5 80t120.5 35z" />
    <glyph glyph-name="Itilde" unicode="&#x128;" horiz-adv-x="214" 
d="M315 842h26q-16 -78 -79 -78q-20 0 -31.5 7t-15 15.5t-12.5 15.5t-24 7q-36 0 -49 -49h-25q17 77 79 77q30 0 45 -22t37 -22q23 0 35 16.5t14 32.5zM38 0l147 704h34l-146 -704h-35z" />
    <glyph glyph-name="itilde" unicode="&#x129;" horiz-adv-x="203" 
d="M284 718h24q-16 -77 -78 -77q-30 0 -45 23t-37 23q-23 0 -35.5 -17t-14.5 -33h-25q17 76 78 76q31 0 46 -22.5t36 -22.5q23 0 35.5 16.5t15.5 33.5zM33 0l110 531h33l-110 -531h-33z" />
    <glyph glyph-name="Imacron" unicode="&#x12a;" horiz-adv-x="214" 
d="M124 817h203l-7 -29h-203zM38 0l147 704h34l-146 -704h-35z" />
    <glyph glyph-name="imacron" unicode="&#x12b;" horiz-adv-x="203" 
d="M93 694h202l-6 -28h-202zM33 0l110 531h33l-110 -531h-33z" />
    <glyph glyph-name="Ibreve" unicode="&#x12c;" horiz-adv-x="214" 
d="M304 846h32q-8 -34 -37 -60t-85 -26q-50 0 -71 27.5t-15 58.5h30q-4 -22 10.5 -40t51.5 -18q36 0 58 18t26 40zM38 0l147 704h34l-146 -704h-35z" />
    <glyph glyph-name="ibreve" unicode="&#x12d;" horiz-adv-x="203" 
d="M276 732h31q-9 -35 -40 -65.5t-84 -30.5q-51 0 -71 31t-13 65h29q-6 -24 8.5 -45.5t52.5 -21.5q35 0 58.5 22t28.5 45zM33 0l110 531h33l-110 -531h-33z" />
    <glyph glyph-name="Iogonek" unicode="&#x12e;" horiz-adv-x="214" 
d="M73 0h-6q-13 -5 -32 -15.5t-43.5 -34.5t-29.5 -48q-5 -22 5 -33t28 -11q11 0 23.5 3t19.5 7l7 3l-6 -24q-25 -15 -57 -15t-45.5 17.5t-7.5 48.5q13 65 111 112l145 694h34z" />
    <glyph glyph-name="iogonek" unicode="&#x12f;" horiz-adv-x="203" 
d="M191 759h34l-24 -113h-34zM35 10l108 521h33l-110 -531h-3q-11 -4 -27 -12.5t-45.5 -34t-34.5 -52.5q-5 -22 5 -33t28 -11q11 0 23.5 3.5t19.5 6.5l7 3l-6 -24q-25 -15 -57 -15t-45.5 17.5t-7.5 48.5q5 22 20 42.5t35 35t33 22.5t24 13z" />
    <glyph glyph-name="Idotaccent" unicode="&#x130;" horiz-adv-x="214" 
d="M197 760l24 113h34l-24 -113h-34zM38 0l147 704h34l-146 -704h-35z" />
    <glyph glyph-name="dotlessi" unicode="&#x131;" horiz-adv-x="203" 
d="M33 0l110 531h33l-110 -531h-33z" />
    <glyph glyph-name="IJ" unicode="&#x132;" horiz-adv-x="551" 
d="M38 0l147 704h34l-146 -704h-35zM213 0h-49l7 34h49q111 0 154 45.5t70 179.5l92 445h34l-90 -445q-16 -77 -32.5 -121.5t-46 -78.5t-74 -46.5t-114.5 -12.5z" />
    <glyph glyph-name="ij" unicode="&#x133;" horiz-adv-x="418" 
d="M167 646l24 113h34l-24 -113h-34zM381 646l24 113h34l-24 -113h-34zM33 0l110 531h33l-110 -531h-33zM95 -172l6 30q29 0 49.5 3t36 14t24.5 20t17.5 34t12.5 42t12 57l104 503h34l-105 -503q-11 -52 -18.5 -78.5t-21 -54.5t-32 -40t-47.5 -19.5t-72 -7.5z" />
    <glyph glyph-name="Jcircumflex" unicode="&#x134;" horiz-adv-x="337" 
d="M290 832l-87 -72h-39l118 101h27l74 -101h-35zM230 259l92 445h34l-90 -445q-16 -77 -32.5 -121.5t-46 -78.5t-74 -46.5t-114.5 -12.5h-49l7 34h49q111 0 154 45.5t70 179.5z" />
    <glyph glyph-name="jcircumflex" unicode="&#x135;" horiz-adv-x="215" 
d="M304 637h-34l-55 94l-95 -94h-38l124 125h26zM50 28l104 503h34l-105 -503q-11 -52 -18.5 -78.5t-21 -54.5t-32 -40t-47.5 -19.5t-72 -7.5l6 30q29 0 49.5 3t36 14t24.5 20t17.5 34t12.5 42t12 57z" />
    <glyph glyph-name="Kcommaaccent" unicode="&#x136;" horiz-adv-x="559" 
d="M638 704l-338 -313l194 -391h-37l-183 366l-155 -143l-46 -223h-35l147 704h34l-89 -429l459 429h49zM176 -136q8 19 15.5 38.5t10.5 29.5l3 11h35q-11 -39 -31 -80q-10 -21 -22.5 -41.5t-20.5 -31.5l-7 -10h-30q24 36 47 84z" />
    <glyph glyph-name="kcommaaccent" unicode="&#x137;" horiz-adv-x="469" 
d="M493 531l-240 -206l160 -325h-36l-150 303l-114 -99l-43 -204h-33l159 760h33l-107 -512l324 283h47zM145 -136q8 19 15.5 38.5t10.5 29.5l3 11h35q-11 -39 -31 -80q-10 -21 -22.5 -41.5t-19.5 -31.5l-8 -10h-30q24 36 47 84z" />
    <glyph glyph-name="kgreenlandic" unicode="&#x138;" horiz-adv-x="469" 
d="M493 531l-240 -206l160 -325h-36l-149 303l-115 -98l-43 -205h-33l111 531h33l-59 -283l324 283h47z" />
    <glyph glyph-name="Lacute" unicode="&#x139;" horiz-adv-x="484" 
d="M342 867l-97 -107h-34l87 107h44zM79 31h345l-7 -31h-379l147 704h34z" />
    <glyph glyph-name="lacute" unicode="&#x13a;" horiz-adv-x="211" 
d="M210 815l87 107h44l-97 -107h-34zM37 0l159 760h33l-159 -760h-33z" />
    <glyph glyph-name="Lcommaaccent" unicode="&#x13b;" horiz-adv-x="484" 
d="M79 31h345l-7 -31h-379l147 704h34zM160 -136q8 19 15.5 38.5t10.5 29.5l3 11h35q-11 -39 -31 -80q-10 -21 -22.5 -41.5t-20.5 -31.5l-7 -10h-30q24 36 47 84z" />
    <glyph glyph-name="lcommaaccent" unicode="&#x13c;" horiz-adv-x="211" 
d="M37 0l159 760h33l-159 -760h-33zM-32 -220h-30q24 36 47 84q8 19 15.5 38.5t10.5 29.5l3 11h35q-11 -39 -31 -80q-10 -21 -22.5 -41.5t-19.5 -31.5z" />
    <glyph glyph-name="Lcaron" unicode="&#x13d;" horiz-adv-x="484" 
d="M432 762l-82 -112h-32l72 112h42zM219 704l-140 -673h345l-7 -31h-379l147 704h34z" />
    <glyph glyph-name="lcaron" unicode="&#x13e;" horiz-adv-x="211" 
d="M37 0l159 760h33l-159 -760h-33zM245 631l73 129h39l-83 -129h-29z" />
    <glyph glyph-name="Ldot" unicode="&#x13f;" horiz-adv-x="484" 
d="M79 31h345l-7 -31h-379l147 704h34zM323 409l-24 -112h-34l24 112h34z" />
    <glyph glyph-name="ldot" unicode="&#x140;" horiz-adv-x="229" 
d="M36 0l162 760h33l-162 -760h-33zM183 329l24 112h34l-24 -112h-34z" />
    <glyph glyph-name="Lslash" unicode="&#x141;" horiz-adv-x="484" 
d="M79 31h345l-7 -31h-379l67 322l-92 -54l-9 24l108 64l73 348h34l-67 -325l89 53l10 -24l-106 -63z" />
    <glyph glyph-name="lslash" unicode="&#x142;" horiz-adv-x="211" 
d="M260 440l-112 -66l-78 -374h-33l74 352l-89 -52l-9 24l105 62l78 374h33l-74 -352l95 56z" />
    <glyph glyph-name="Nacute" unicode="&#x143;" horiz-adv-x="689" 
d="M569 867l-97 -107h-34l87 107h44zM659 704h35l-146 -704h-37l-299 649l-139 -649h-35l151 704h37l300 -652z" />
    <glyph glyph-name="nacute" unicode="&#x144;" horiz-adv-x="554" 
d="M463 762l-100 -125h-31l90 125h41zM362 540q93 0 125.5 -50t6.5 -175l-65 -315h-33l65 314q24 98 0.5 147t-109.5 49q-66 0 -119.5 -42.5t-89.5 -94.5l-77 -373h-33l82 395l18 136h30l-13 -113q34 47 88 84.5t124 37.5z" />
    <glyph glyph-name="Ncommaaccent" unicode="&#x145;" horiz-adv-x="689" 
d="M659 704h35l-146 -704h-37l-299 649l-139 -649h-35l151 704h37l300 -652zM238 -136q8 19 15.5 38.5t10.5 29.5l3 11h35q-11 -39 -31 -80q-10 -21 -22.5 -41.5t-20.5 -31.5l-7 -10h-30q24 36 47 84z" />
    <glyph glyph-name="ncommaaccent" unicode="&#x146;" horiz-adv-x="554" 
d="M362 540q93 0 125.5 -50t6.5 -175l-65 -315h-33l65 314q24 98 0.5 147t-109.5 49q-66 0 -119.5 -42.5t-89.5 -94.5l-77 -373h-33l82 395l18 136h30l-13 -113q34 47 88 84.5t124 37.5zM170 -136q8 19 15.5 38.5t10.5 29.5l3 11h35q-11 -39 -31 -80q-10 -21 -22.5 -41.5
t-20.5 -31.5l-7 -10h-30q24 36 47 84z" />
    <glyph glyph-name="Ncaron" unicode="&#x147;" horiz-adv-x="689" 
d="M465 760h-28l-74 101h36l56 -71l88 71h40zM659 704h35l-146 -704h-37l-299 649l-139 -649h-35l151 704h37l300 -652z" />
    <glyph glyph-name="ncaron" unicode="&#x148;" horiz-adv-x="554" 
d="M378 637h-25l-73 125h35l55 -94l95 94h37zM362 540q93 0 125.5 -50t6.5 -175l-65 -315h-33l65 314q24 98 0.5 147t-109.5 49q-66 0 -119.5 -42.5t-89.5 -94.5l-77 -373h-33l82 395l18 136h30l-13 -113q34 47 88 84.5t124 37.5z" />
    <glyph glyph-name="Eng" unicode="&#x14a;" horiz-adv-x="689" 
d="M659 704h35l-146 -704q-23 -115 -67 -166t-141 -51h-48l7 32h49q74 0 110 42.5t56 142.5l-302 650l-139 -650h-35l151 704h37l300 -649z" />
    <glyph glyph-name="eng" unicode="&#x14b;" horiz-adv-x="554" 
d="M362 540q93 0 125.5 -50.5t6.5 -174.5l-9 -45l-48 -228q-9 -43 -15 -66.5t-16.5 -50t-22.5 -39t-31.5 -24.5t-45 -16t-61.5 -4l7 31q29 0 49.5 3t36 13.5t24.5 20t17 33.5t12.5 42t12.5 57l57 273q24 97 0.5 146t-109.5 49q-66 0 -119.5 -42.5t-89.5 -94.5l-77 -373h-33
l82 395l18 136h30l-13 -113q34 47 88 84.5t124 37.5z" />
    <glyph glyph-name="Omacron" unicode="&#x14c;" horiz-adv-x="675" 
d="M354 819h203l-7 -29h-203zM282 -16q-153 0 -196.5 93.5t-6.5 273.5q38 181 120 275t236 94q104 0 158.5 -46t60 -128t-16.5 -195q-38 -181 -119 -274t-236 -93zM289 15q128 0 203 83t110 253q23 110 17.5 185t-52 113.5t-138.5 38.5q-128 0 -203.5 -84t-110.5 -253
q-23 -111 -17 -185.5t52.5 -112.5t138.5 -38z" />
    <glyph glyph-name="omacron" unicode="&#x14d;" horiz-adv-x="551" 
d="M266 686h202l-6 -28h-202zM222 -10q-121 0 -155 71t-6 203q28 134 90.5 205t184.5 72q82 0 125 -35.5t47 -97.5t-12 -144q-28 -133 -90 -203.5t-184 -70.5zM228 19q97 0 152.5 62t80.5 183q15 78 13 133t-37.5 85t-106.5 30q-97 0 -153 -63t-81 -185q-16 -78 -13 -132.5
t38.5 -83.5t106.5 -29z" />
    <glyph glyph-name="Obreve" unicode="&#x14e;" horiz-adv-x="675" 
d="M534 848h32q-8 -34 -37 -60t-85 -26q-50 0 -71 27.5t-15 58.5h30q-4 -22 10.5 -40t51.5 -18q36 0 58 18t26 40zM282 -16q-153 0 -196.5 93.5t-6.5 273.5q38 181 120 275t236 94q104 0 158.5 -46t60 -128t-16.5 -195q-38 -181 -119 -274t-236 -93zM289 15q128 0 203 83
t110 253q23 110 17.5 185t-52 113.5t-138.5 38.5q-128 0 -203.5 -84t-110.5 -253q-23 -111 -17 -185.5t52.5 -112.5t138.5 -38z" />
    <glyph glyph-name="obreve" unicode="&#x14f;" horiz-adv-x="551" 
d="M449 724h31q-9 -35 -40 -65.5t-84 -30.5q-51 0 -71 31t-13 65h29q-6 -24 8.5 -45.5t52.5 -21.5q35 0 58.5 22t28.5 45zM222 -10q-121 0 -155 71t-6 203q28 134 90.5 205t184.5 72q82 0 125 -35.5t47 -97.5t-12 -144q-28 -133 -90 -203.5t-184 -70.5zM228 19
q97 0 152.5 62t80.5 183q15 78 13 133t-37.5 85t-106.5 30q-97 0 -153 -63t-81 -185q-16 -78 -13 -132.5t38.5 -83.5t106.5 -29z" />
    <glyph glyph-name="Ohungarumlaut" unicode="&#x150;" horiz-adv-x="675" 
d="M360 762l82 107h41l-90 -107h-33zM470 762l90 107h43l-101 -107h-32zM282 -16q-153 0 -196.5 93.5t-6.5 273.5q38 181 120 275t236 94q104 0 158.5 -46t60 -128t-16.5 -195q-38 -181 -119 -274t-236 -93zM289 15q128 0 203 83t110 253q23 110 17.5 185t-52 113.5
t-138.5 38.5q-128 0 -203.5 -84t-110.5 -253q-23 -111 -17 -185.5t52.5 -112.5t138.5 -38z" />
    <glyph glyph-name="ohungarumlaut" unicode="&#x151;" horiz-adv-x="551" 
d="M272 629l84 125h41l-93 -125h-32zM381 629l93 125h42l-103 -125h-32zM222 -10q-121 0 -155 71t-6 203q28 134 90.5 205t184.5 72q82 0 125 -35.5t47 -97.5t-12 -144q-28 -133 -90 -203.5t-184 -70.5zM228 19q97 0 152.5 62t80.5 183q15 78 13 133t-37.5 85t-106.5 30
q-97 0 -153 -63t-81 -185q-16 -78 -13 -132.5t38.5 -83.5t106.5 -29z" />
    <glyph glyph-name="OE" unicode="&#x152;" horiz-adv-x="931" 
d="M994 672h-387l-60 -288h338l-6 -31h-338l-67 -321h391l-7 -32h-577q-78 0 -128 26t-70 73t-22 111t16 141q17 81 43 142t66.5 110.5t101 75t139.5 25.5h573zM439 31l134 642h-150q-244 0 -311 -322q-20 -102 -14 -173t52.5 -109t138.5 -38h150z" />
    <glyph glyph-name="oe" unicode="&#x153;" horiz-adv-x="936" 
d="M731 540q107 0 148 -61.5t10 -210.5h-396q0 -1 -0.5 -3t-0.5 -3q-11 -56 -12.5 -94.5t8.5 -75t43.5 -55t90.5 -18.5q88 0 140 45.5t62 89.5h37q-3 -14 -10.5 -31.5t-26 -41.5t-44 -43.5t-68.5 -33.5t-95 -14q-81 0 -122 34t-46 103q-68 -137 -227 -137q-121 0 -155 71
t-6 203q28 134 90.5 205t184.5 72q159 1 170 -139q67 138 225 138zM228 19q96 0 151.5 62t80.5 183q15 78 13 133t-37 85t-106 30q-97 0 -153 -63t-81 -185q-16 -78 -13 -132.5t38.5 -83.5t106.5 -29zM500 296h360q20 111 -9.5 163.5t-125.5 52.5q-167 0 -225 -216z" />
    <glyph glyph-name="Racute" unicode="&#x154;" horiz-adv-x="628" 
d="M523 867l-97 -107h-34l87 107h44zM186 707h245q118 0 166.5 -45t24.5 -158q-20 -94 -65.5 -139.5t-123.5 -57.5l97 -307h-38l-93 303q-34 -2 -54 -2h-209l-63 -301h-35zM585 504q7 33 7 58.5t-4.5 43.5t-16.5 31t-25.5 20.5t-34.5 11.5t-40.5 5.5t-46.5 1.5h-210
l-72 -343l211 -1q34 0 59 3t55 13t51 28t39.5 50.5t27.5 77.5z" />
    <glyph glyph-name="racute" unicode="&#x155;" horiz-adv-x="327" 
d="M354 762l-100 -125h-31l90 125h41zM163 531l-16 -125q10 19 25 38t41 43t65.5 38.5t86.5 14.5l-6 -30q-41 0 -78 -15.5t-60 -36t-43 -48t-28 -42.5t-14 -29l-70 -339h-33l79 384l21 147h30z" />
    <glyph glyph-name="Rcommaaccent" unicode="&#x156;" horiz-adv-x="628" 
d="M186 707h245q118 0 166.5 -45t24.5 -158q-20 -94 -65.5 -139.5t-123.5 -57.5l97 -307h-38l-93 303q-34 -2 -54 -2h-209l-63 -301h-35zM585 504q7 33 7 58.5t-4.5 43.5t-16.5 31t-25.5 20.5t-34.5 11.5t-40.5 5.5t-46.5 1.5h-210l-72 -343l211 -1q34 0 59 3t55 13t51 28
t39.5 50.5t27.5 77.5zM200 -136q8 19 15.5 38.5t10.5 29.5l3 11h35q-11 -39 -31 -80q-10 -21 -22.5 -41.5t-20.5 -31.5l-7 -10h-30q24 36 47 84z" />
    <glyph glyph-name="rcommaaccent" unicode="&#x157;" horiz-adv-x="327" 
d="M163 531l-16 -125q10 19 25 38t41 43t65.5 38.5t86.5 14.5l-6 -30q-41 0 -78 -15.5t-60 -36t-43 -48t-28 -42.5t-14 -29l-70 -339h-33l79 384l21 147h30zM-9 -136q8 19 15.5 38.5t10.5 29.5l3 11h35q-11 -39 -31 -80q-10 -21 -22.5 -41.5t-19.5 -31.5l-8 -10h-30
q24 36 47 84z" />
    <glyph glyph-name="Rcaron" unicode="&#x158;" horiz-adv-x="628" 
d="M419 760h-28l-74 101h36l56 -71l88 71h40zM186 707h245q118 0 166.5 -45t24.5 -158q-20 -94 -65.5 -139.5t-123.5 -57.5l97 -307h-38l-93 303q-34 -2 -54 -2h-209l-63 -301h-35zM585 504q7 33 7 58.5t-4.5 43.5t-16.5 31t-25.5 20.5t-34.5 11.5t-40.5 5.5t-46.5 1.5h-210
l-72 -343l211 -1q34 0 59 3t55 13t51 28t39.5 50.5t27.5 77.5z" />
    <glyph glyph-name="rcaron" unicode="&#x159;" horiz-adv-x="327" 
d="M269 637h-25l-73 125h35l55 -94l95 94h37zM163 531l-16 -125q10 19 25 38t41 43t65.5 38.5t86.5 14.5l-6 -30q-41 0 -78 -15.5t-60 -36t-43 -48t-28 -42.5t-14 -29l-70 -339h-33l79 384l21 147h30z" />
    <glyph glyph-name="Sacute" unicode="&#x15a;" horiz-adv-x="606" 
d="M389 762l87 107h44l-97 -107h-34zM43 205h34q-39 -187 179 -190q103 -1 168 41.5t81 112.5q12 55 -5 91t-53.5 52.5t-82.5 27t-92 21.5t-82.5 28.5t-54 55.5t-5.5 96q18 85 84.5 132.5t183.5 46.5q121 -1 168.5 -54t29.5 -141h-33q9 28 3.5 56.5t-20 52.5t-54.5 39
t-100 16q-104 1 -158 -40.5t-68 -107.5q-11 -52 7 -85t55 -48t83 -24.5t92 -21t82 -30.5t52.5 -60t3.5 -103q-18 -89 -93 -137.5t-199 -47.5q-118 1 -173.5 55.5t-32.5 165.5z" />
    <glyph glyph-name="sacute" unicode="&#x15b;" horiz-adv-x="493" 
d="M289 637l90 125h41l-100 -125h-31zM25 160h32q-15 -69 19 -104t123 -36q169 -1 194 113q11 52 -20 79.5t-82 37t-102 20.5t-82 42.5t-19 89.5q14 66 70 102.5t153 35.5q186 -3 153 -158h-31q13 61 -12.5 95t-114.5 35q-85 1 -129.5 -31t-54.5 -79q-6 -32 5 -53.5
t34 -32.5t54 -19.5t63.5 -13.5t63 -15.5t53 -25t32 -42t1.5 -66.5q-30 -146 -235 -143q-203 3 -168 169z" />
    <glyph glyph-name="Scircumflex" unicode="&#x15c;" horiz-adv-x="606" 
d="M419 834l-87 -72h-39l118 101h27l74 -101h-35zM398 720q121 -1 168.5 -54t29.5 -141h-33q9 28 3.5 56.5t-20 52.5t-54.5 39t-100 16q-104 1 -158 -40.5t-68 -107.5q-11 -52 7 -85t55 -48t83 -24.5t92 -21t82 -30.5t52.5 -60t3.5 -103q-18 -89 -93 -137.5t-199 -47.5
q-118 1 -173.5 55.5t-32.5 165.5h34q-39 -187 179 -190q103 -1 168 41.5t81 112.5q12 55 -5 91t-53.5 52.5t-82.5 27t-92 21.5t-82.5 28.5t-54 55.5t-5.5 96q18 85 84.5 132.5t183.5 46.5z" />
    <glyph glyph-name="scircumflex" unicode="&#x15d;" horiz-adv-x="493" 
d="M344 731l-95 -94h-38l124 125h26l72 -125h-34zM311 540q186 -3 153 -158h-31q13 61 -12.5 95t-114.5 35q-85 1 -129.5 -31t-54.5 -79q-6 -32 5 -53.5t34 -32.5t54 -19.5t63.5 -13.5t63 -15.5t53 -25t32 -42t1.5 -66.5q-30 -146 -235 -143q-203 3 -168 169h32
q-15 -69 19 -104t123 -36q169 -1 194 113q11 52 -20 79.5t-82 37t-102 20.5t-82 42.5t-19 89.5q14 66 70 102.5t153 35.5z" />
    <glyph glyph-name="Scedilla" unicode="&#x15e;" horiz-adv-x="606" 
d="M398 720q121 -1 168.5 -54t29.5 -141h-33q9 28 3.5 56.5t-20 52.5t-54.5 39t-100 16q-104 1 -158 -40.5t-68 -107.5q-11 -52 7 -85t55 -48t83 -24.5t92 -21t82 -30.5t52.5 -60t3.5 -103q-18 -86 -87.5 -134.5t-185.5 -50.5l-32 -47q82 -5 69 -70q-9 -41 -36.5 -57.5
t-77.5 -16.5l-46 5l5 26q19 -5 43 -5q37 0 56 9.5t25 39.5q6 27 -14 38.5t-60 11.5h-6l43 66q-112 4 -164 58.5t-30 162.5h34q-39 -187 179 -190q103 -1 168 41.5t81 112.5q12 55 -5 91t-53.5 52.5t-82.5 27t-92 21.5t-82.5 28.5t-54 55.5t-5.5 96q18 85 84.5 132.5
t183.5 46.5z" />
    <glyph glyph-name="scedilla" unicode="&#x15f;" horiz-adv-x="493" 
d="M311 540q186 -3 153 -158h-31q13 61 -12.5 95t-114.5 35q-85 1 -129.5 -31t-54.5 -79q-6 -32 5 -53.5t34 -32.5t54 -19.5t63.5 -13.5t63 -15.5t53 -25t32 -42t1.5 -66.5q-29 -140 -218 -143l-31 -45q82 -5 69 -70q-9 -41 -36.5 -57.5t-77.5 -16.5l-46 5l5 26q19 -5 43 -5
q37 0 56 9.5t25 39.5q6 27 -14 38.5t-60 11.5h-6l42 64q-187 10 -154 169h32q-15 -69 19 -104t123 -36q169 -1 194 113q11 52 -20 79.5t-82 37t-102 20.5t-82 42.5t-19 89.5q14 66 70 102.5t153 35.5z" />
    <glyph glyph-name="Scaron" unicode="&#x160;" horiz-adv-x="606" 
d="M416 762h-28l-74 101h36l56 -71l88 71h40zM398 720q121 -1 168.5 -54t29.5 -141h-33q9 28 3.5 56.5t-20 52.5t-54.5 39t-100 16q-104 1 -158 -40.5t-68 -107.5q-11 -52 7 -85t55 -48t83 -24.5t92 -21t82 -30.5t52.5 -60t3.5 -103q-18 -89 -93 -137.5t-199 -47.5
q-118 1 -173.5 55.5t-32.5 165.5h34q-39 -187 179 -190q103 -1 168 41.5t81 112.5q12 55 -5 91t-53.5 52.5t-82.5 27t-92 21.5t-82.5 28.5t-54 55.5t-5.5 96q18 85 84.5 132.5t183.5 46.5z" />
    <glyph glyph-name="scaron" unicode="&#x161;" horiz-adv-x="493" 
d="M335 637h-25l-73 125h35l55 -94l95 94h37zM311 540q186 -3 153 -158h-31q13 61 -12.5 95t-114.5 35q-85 1 -129.5 -31t-54.5 -79q-6 -32 5 -53.5t34 -32.5t54 -19.5t63.5 -13.5t63 -15.5t53 -25t32 -42t1.5 -66.5q-30 -146 -235 -143q-203 3 -168 169h32q-15 -69 19 -104
t123 -36q169 -1 194 113q11 52 -20 79.5t-82 37t-102 20.5t-82 42.5t-19 89.5q14 66 70 102.5t153 35.5z" />
    <glyph glyph-name="uni0162" unicode="&#x162;" horiz-adv-x="526" 
d="M224 0h-3l-38 -56q82 -5 69 -70q-9 -41 -36.5 -57.5t-77.5 -16.5l-46 5l5 26q19 -5 43 -5q37 0 56 9.5t25 39.5q6 27 -14 38.5t-60 11.5h-6l49 75l144 672h-235l7 32h504l-7 -32h-235z" />
    <glyph glyph-name="uni0163" unicode="&#x163;" horiz-adv-x="293" 
d="M181 502l-66 -313q-7 -33 -9.5 -52.5t-1.5 -42.5t9.5 -35.5t27 -21t48.5 -8.5h42l-6 -30h-45q-21 0 -39 3l-31 -46q82 -5 69 -70q-9 -41 -36.5 -57.5t-77.5 -16.5l-46 5l5 26q19 -5 43 -5q37 0 56 9.5t25 39.5q6 27 -14 38.5t-60 11.5h-6l48 73q-28 13 -38.5 42t-8 59.5
t12.5 77.5l65 313h-65l6 29h65l34 161l36 9l-36 -170h145l-6 -29h-145z" />
    <glyph glyph-name="Tcaron" unicode="&#x164;" horiz-adv-x="526" 
d="M383 760h-28l-74 101h36l56 -71l88 71h40zM610 704l-7 -32h-235l-144 -672h-34l144 672h-235l7 32h504z" />
    <glyph glyph-name="tcaron" unicode="&#x165;" horiz-adv-x="293" 
d="M375 734l-83 -129h-29l73 129h39zM223 701l-36 -170h145l-6 -29h-145l-66 -313q-7 -33 -9.5 -52.5t-1.5 -42.5t9.5 -35.5t27 -21t48.5 -8.5h42l-6 -30h-45q-60 0 -86.5 26.5t-23.5 69t12 94.5l65 313h-65l6 29h65l34 161z" />
    <glyph glyph-name="Tbar" unicode="&#x166;" horiz-adv-x="544" 
d="M612 672h-235l-66 -307h127l-6 -30h-127l-72 -335h-35l72 335h-120l6 30h120l66 307h-234l7 32h504z" />
    <glyph glyph-name="tbar" unicode="&#x167;" horiz-adv-x="293" 
d="M326 502h-145l-44 -209h141l-6 -28h-141l-16 -76q-7 -33 -9.5 -52.5t-1.5 -42.5t9.5 -35.5t27 -21t48.5 -8.5h42l-6 -30h-45q-60 0 -86.5 26.5t-23.5 69t12 94.5l16 76h-69l6 28h69l43 209h-65l6 29h65l34 161l36 9l-36 -170h145z" />
    <glyph glyph-name="Utilde" unicode="&#x168;" horiz-adv-x="664" 
d="M532 842h26q-16 -78 -79 -78q-20 0 -31.5 7t-15 15.5t-12.5 15.5t-24 7q-36 0 -49 -49h-25q17 77 79 77q25 0 35.5 -11t19 -22t27.5 -11q23 0 35 16.5t14 32.5zM276 -16q-63 0 -105 17t-64 46.5t-28.5 77t-1.5 100t20 124.5l74 355h35l-75 -355q-23 -111 -22.5 -185
t42 -111.5t132.5 -37.5q124 0 189 80t101 254l75 355h35l-74 -355q-19 -91 -42 -152.5t-60.5 -112.5t-94.5 -75.5t-136 -24.5z" />
    <glyph glyph-name="utilde" unicode="&#x169;" horiz-adv-x="583" 
d="M312 687q-23 0 -35.5 -17t-14.5 -33h-25q17 76 78 76q31 0 46 -22.5t36 -22.5q23 0 35.5 16.5t15.5 33.5h24q-16 -77 -78 -77q-30 0 -45 23t-37 23zM500 531h33l-81 -384l-20 -147h-30l15 128q-12 -18 -29 -38t-45 -44t-66.5 -39.5t-79.5 -15.5q-93 0 -125.5 50.5
t-6.5 173.5l65 316h33l-65 -313q-24 -98 -1 -147t109 -49q41 0 80.5 19.5t68.5 49.5t45 51t26 38z" />
    <glyph glyph-name="Umacron" unicode="&#x16a;" horiz-adv-x="664" 
d="M341 817h203l-7 -29h-203zM276 -16q-63 0 -105 17t-64 46.5t-28.5 77t-1.5 100t20 124.5l74 355h35l-75 -355q-23 -111 -22.5 -185t42 -111.5t132.5 -37.5q124 0 189 80t101 254l75 355h35l-74 -355q-19 -91 -42 -152.5t-60.5 -112.5t-94.5 -75.5t-136 -24.5z" />
    <glyph glyph-name="umacron" unicode="&#x16b;" horiz-adv-x="583" 
d="M459 694l-6 -28h-202l6 28h202zM500 531h33l-81 -384l-20 -147h-30l15 128q-12 -18 -29 -38t-45 -44t-66.5 -39.5t-79.5 -15.5q-93 0 -125.5 50.5t-6.5 173.5l65 316h33l-65 -313q-24 -98 -1 -147t109 -49q41 0 80.5 19.5t68.5 49.5t45 51t26 38z" />
    <glyph glyph-name="Ubreve" unicode="&#x16c;" horiz-adv-x="664" 
d="M521 846h32q-8 -34 -37 -60t-85 -26q-50 0 -71 27.5t-15 58.5h30q-4 -22 10.5 -40t51.5 -18q36 0 58 18t26 40zM276 -16q-63 0 -105 17t-64 46.5t-28.5 77t-1.5 100t20 124.5l74 355h35l-75 -355q-23 -111 -22.5 -185t42 -111.5t132.5 -37.5q124 0 189 80t101 254l75 355
h35l-74 -355q-19 -91 -42 -152.5t-60.5 -112.5t-94.5 -75.5t-136 -24.5z" />
    <glyph glyph-name="ubreve" unicode="&#x16d;" horiz-adv-x="583" 
d="M347 636q-51 0 -71 31t-13 65h29q-6 -24 8.5 -45.5t52.5 -21.5q35 0 58.5 22t28.5 45h31q-9 -35 -40 -65.5t-84 -30.5zM500 531h33l-81 -384l-20 -147h-30l15 128q-12 -18 -29 -38t-45 -44t-66.5 -39.5t-79.5 -15.5q-93 0 -125.5 50.5t-6.5 173.5l65 316h33l-65 -313
q-24 -98 -1 -147t109 -49q41 0 80.5 19.5t68.5 49.5t45 51t26 38z" />
    <glyph glyph-name="Uring" unicode="&#x16e;" horiz-adv-x="664" 
d="M430 760q-30 0 -44 18t-8 46t27 46t52 18q30 0 44 -18t8 -46t-27 -46t-52 -18zM435 783q17 0 30 11.5t17 29.5q5 19 -3 30t-27 11q-17 0 -30.5 -11.5t-17.5 -29.5q-7 -41 31 -41zM276 -16q-63 0 -105 17t-64 46.5t-28.5 77t-1.5 100t20 124.5l74 355h35l-75 -355
q-23 -111 -22.5 -185t42 -111.5t132.5 -37.5q124 0 189 80t101 254l75 355h35l-74 -355q-19 -91 -42 -152.5t-60.5 -112.5t-94.5 -75.5t-136 -24.5z" />
    <glyph glyph-name="uring" unicode="&#x16f;" horiz-adv-x="583" 
d="M347 636q-32 0 -46 19t-8 47q6 29 27 47.5t53 18.5t46.5 -19t9.5 -47q-6 -29 -28 -47.5t-54 -18.5zM321 702q-8 -41 31 -41q16 0 30 11.5t18 29.5q8 41 -31 41q-17 0 -30.5 -11.5t-17.5 -29.5zM500 531h33l-81 -384l-20 -147h-30l15 128q-12 -18 -29 -38t-45 -44
t-66.5 -39.5t-79.5 -15.5q-93 0 -125.5 50.5t-6.5 173.5l65 316h33l-65 -313q-24 -98 -1 -147t109 -49q41 0 80.5 19.5t68.5 49.5t45 51t26 38z" />
    <glyph glyph-name="Uhungarumlaut" unicode="&#x170;" horiz-adv-x="664" 
d="M347 760l82 107h41l-90 -107h-33zM457 760l90 107h43l-101 -107h-32zM276 -16q-63 0 -105 17t-64 46.5t-28.5 77t-1.5 100t20 124.5l74 355h35l-75 -355q-23 -111 -22.5 -185t42 -111.5t132.5 -37.5q124 0 189 80t101 254l75 355h35l-74 -355q-19 -91 -42 -152.5
t-60.5 -112.5t-94.5 -75.5t-136 -24.5z" />
    <glyph glyph-name="uhungarumlaut" unicode="&#x171;" horiz-adv-x="583" 
d="M388 762l-93 -125h-32l84 125h41zM404 637h-32l93 125h42zM500 531h33l-81 -384l-20 -147h-30l15 128q-12 -18 -29 -38t-45 -44t-66.5 -39.5t-79.5 -15.5q-93 0 -125.5 50.5t-6.5 173.5l65 316h33l-65 -313q-24 -98 -1 -147t109 -49q41 0 80.5 19.5t68.5 49.5t45 51
t26 38z" />
    <glyph glyph-name="Uogonek" unicode="&#x172;" horiz-adv-x="664" 
d="M648 704h35l-74 -355q-27 -130 -66.5 -210t-109.5 -119l2 -1q-11 -4 -27 -12.5t-45.5 -34t-34.5 -52.5q-5 -22 5 -33t28 -11q11 0 23.5 3t19.5 7l7 3l-6 -24q-25 -15 -57 -15t-45.5 17.5t-7.5 48.5q8 39 50 74q-31 -6 -69 -6q-63 0 -105 17t-64 46.5t-28.5 77t-1.5 100
t20 124.5l74 355h35l-75 -355q-23 -111 -22.5 -185t42 -111.5t132.5 -37.5q124 0 189 80t101 254z" />
    <glyph glyph-name="uogonek" unicode="&#x173;" horiz-adv-x="583" 
d="M500 531h33l-81 -384l-20 -147h-1q-11 -4 -27 -12.5t-45.5 -34t-34.5 -52.5q-5 -22 5 -33t28 -11q11 0 23.5 3.5t19.5 6.5l7 3l-6 -24q-25 -15 -57 -15t-45.5 17.5t-7.5 48.5q13 64 112 113l14 118q-12 -18 -29 -38t-45 -44t-66.5 -39.5t-79.5 -15.5q-93 0 -125.5 50.5
t-6.5 173.5l65 316h33l-65 -313q-24 -98 -1 -147t109 -49q41 0 80.5 19.5t68.5 49.5t45 51t26 38z" />
    <glyph glyph-name="Wcircumflex" unicode="&#x174;" horiz-adv-x="888" 
d="M555 832l-87 -72h-39l118 101h27l74 -101h-35zM929 704h41l-355 -704h-37l-60 655l-325 -655h-35l-69 704h36l59 -652l322 652h39l60 -654z" />
    <glyph glyph-name="wcircumflex" unicode="&#x175;" horiz-adv-x="710" 
d="M455 731l-95 -94h-38l124 125h26l72 -125h-34zM722 531h38l-270 -531h-41l-49 481l-240 -481h-42l-56 531h33l50 -493l246 493h37l48 -493z" />
    <glyph glyph-name="Ycircumflex" unicode="&#x176;" horiz-adv-x="522" 
d="M373 832l-87 -72h-39l118 101h27l74 -101h-35zM560 704h44l-323 -419l-60 -285h-35l60 285l-158 419h37l144 -379z" />
    <glyph glyph-name="ycircumflex" unicode="&#x177;" horiz-adv-x="439" 
d="M319 731l-95 -94h-38l124 125h26l72 -125h-34zM457 531h40l-428 -749h-36l123 218h-9l-95 531h35l86 -502z" />
    <glyph glyph-name="Ydieresis" unicode="&#x178;" horiz-adv-x="522" 
d="M335 873l-24 -113h-34l24 113h34zM459 873l-23 -113h-34l23 113h34zM560 704h44l-323 -419l-60 -285h-35l60 285l-158 419h37l144 -379z" />
    <glyph glyph-name="Zacute" unicode="&#x179;" horiz-adv-x="521" 
d="M497 867l-97 -107h-34l87 107h44zM583 673l-1 -7l-563 -631h435l-6 -30h-479l5 22l2 10l562 631h-402l6 31h447z" />
    <glyph glyph-name="zacute" unicode="&#x17a;" horiz-adv-x="401" 
d="M375 762l-100 -125h-31l90 125h41zM85 526h353l-3 -12l-4 -20l-419 -460l323 1l-6 -29h-362l6 28l1 3l417 461l-312 -1z" />
    <glyph glyph-name="Zdotaccent" unicode="&#x17b;" horiz-adv-x="521" 
d="M421 873l-24 -113h-34l24 113h34zM583 673l-1 -7l-563 -631h435l-6 -30h-479l5 22l2 10l562 631h-402l6 31h447z" />
    <glyph glyph-name="zdotaccent" unicode="&#x17c;" horiz-adv-x="401" 
d="M320 759l-24 -113h-34l24 113h34zM85 526h353l-3 -12l-4 -20l-419 -460l323 1l-6 -29h-362l6 28l1 3l417 461l-312 -1z" />
    <glyph glyph-name="Zcaron" unicode="&#x17d;" horiz-adv-x="521" 
d="M393 760h-28l-74 101h36l56 -71l88 71h40zM583 673l-1 -7l-563 -631h435l-6 -30h-479l5 22l2 10l562 631h-402l6 31h447z" />
    <glyph glyph-name="zcaron" unicode="&#x17e;" horiz-adv-x="401" 
d="M290 637h-25l-73 125h35l55 -94l95 94h37zM85 526h353l-3 -12l-4 -20l-419 -460l323 1l-6 -29h-362l6 28l1 3l417 461l-312 -1z" />
    <glyph glyph-name="uni018F" unicode="&#x18f;" horiz-adv-x="673" 
d="M434 720q104 0 158 -46t59.5 -128t-16.5 -195q-38 -181 -118.5 -274t-235.5 -93q-104 0 -158 45.5t-60 126t17 192.5h35l484 -1l1 4q23 110 17.5 185t-52 113.5t-138.5 38.5q-194 0 -270 -194h-36q43 112 117.5 169t195.5 57zM288 15q120 0 194 75.5t111 227.5h-484
q-28 -156 11 -229.5t168 -73.5z" />
    <glyph glyph-name="uni019D" unicode="&#x19d;" horiz-adv-x="689" 
d="M659 704h35l-146 -704h-37l-299 651l-139 -651q-26 -123 -66 -170t-137 -47h-48l8 33h49q73 0 104.5 38.5t54.5 145.5l151 704h37l300 -652z" />
    <glyph glyph-name="Gcaron" unicode="&#x1e6;" horiz-adv-x="643" 
d="M451 762h-28l-74 101h36l56 -71l88 71h40zM430 720q120 0 170 -64t30 -158h-35q18 83 -24.5 136.5t-146.5 53.5q-125 0 -199.5 -84t-109.5 -254q-39 -166 -1 -250.5t171 -84.5q58 0 112.5 16.5t82 33.5t29.5 25l44 212h-162l7 31h195l-53 -257q-1 -5 -11.5 -15t-33.5 -23
t-52 -25t-73.5 -20.5t-92.5 -8.5q-102 0 -155 45t-58.5 126t16.5 195q38 182 118.5 276t231.5 94z" />
    <glyph glyph-name="gcaron" unicode="&#x1e7;" horiz-adv-x="570" 
d="M368 637h-25l-73 125h35l55 -94l95 94h37zM516 531h30l-36 -130l-83 -401q-9 -44 -17.5 -72.5t-27.5 -63.5t-44.5 -55t-69.5 -34.5t-102 -14.5q-41 0 -72 10t-47 26t-26 35.5t-11.5 39.5t-1.5 36t2 26l3 10l32 1q-1 -1 -4 -16.5t-1 -39t12 -46t41 -38.5t80 -16
q47 0 83 12t58.5 30t39 48t24.5 56.5t16 65.5l20 98q-75 -106 -213 -106q-199 0 -143 271q26 129 89.5 203t167.5 74q74 0 115.5 -34.5t55.5 -71.5zM210 21q79 0 135.5 42.5t81.5 95.5l48 233q-5 17 -14 33.5t-27 38t-49.5 34.5t-72.5 13q-81 0 -138 -66t-81 -182
q-51 -242 117 -242z" />
    <glyph glyph-name="uni01EA" unicode="&#x1ea;" horiz-adv-x="675" 
d="M435 720q104 0 158.5 -46t60 -128t-16.5 -195q-26 -126 -71.5 -208.5t-120.5 -122.5q-2 -1 -6 -2q-1 -1 -4 -2.5t-4 -2.5q-30 -14 -58.5 -38t-34.5 -54q-5 -22 5 -33t28 -11q11 0 23.5 3.5t19.5 6.5l7 3l-6 -24q-25 -15 -57 -15t-45.5 17.5t-7.5 48.5q8 38 50 73
q-35 -6 -73 -6q-153 0 -196.5 93.5t-6.5 273.5q38 181 120 275t236 94zM602 351q23 110 17.5 185t-52 113.5t-138.5 38.5q-128 0 -203.5 -84t-110.5 -253q-23 -111 -17 -185.5t52.5 -112.5t138.5 -38q128 0 203 83t110 253z" />
    <glyph glyph-name="uni01EB" unicode="&#x1eb;" horiz-adv-x="551" 
d="M336 541q82 0 125 -35.5t47 -97.5t-12 -144q-40 -194 -149 -248q-11 -4 -27 -12.5t-45.5 -34t-34.5 -52.5q-5 -22 5 -33t28 -11q11 0 23.5 3.5t19.5 6.5l7 3l-6 -24q-25 -15 -57 -15t-45.5 17.5t-7.5 48.5q9 43 58 79q-28 -2 -43 -2q-121 0 -155 71t-6 203
q28 134 90.5 205t184.5 72zM461 264q15 78 13 133t-37.5 85t-106.5 30q-97 0 -153 -63t-81 -185q-16 -78 -13 -132.5t38.5 -83.5t106.5 -29q97 0 152.5 62t80.5 183z" />
    <glyph glyph-name="Aringacute" unicode="&#x1fa;" horiz-adv-x="584" 
d="M559 1051l-97 -107h-34l87 107h44zM403 760q-30 0 -44 18t-8 46t27 46t52 18q30 0 44 -18t8 -46t-27 -46t-52 -18zM377 824q-7 -41 31 -41q17 0 30 11.5t17 29.5q5 19 -3 30t-27 11q-17 0 -30.5 -11.5t-17.5 -29.5zM379 704h35l121 -704h-35l-35 210h-340l-122 -210h-38z
M143 241h317l-71 423z" />
    <glyph glyph-name="aringacute" unicode="&#x1fb;" horiz-adv-x="532" 
d="M488 944l-100 -125h-31l90 125h41zM344 636q-32 0 -46 19t-8 47q6 29 27 47.5t53 18.5t46.5 -19t9.5 -47q-6 -29 -28 -47.5t-54 -18.5zM318 702q-8 -41 31 -41q16 0 30 11.5t18 29.5q8 41 -31 41q-17 0 -30.5 -11.5t-17.5 -29.5zM328 540q46 0 78 -9.5t47.5 -28t23 -40.5
t5.5 -54t-7 -60t-14 -67q-1 -5 -2 -9l-2 -8l-28 -133l-16 -130h-30l11 94q-67 -104 -223 -104q-92 0 -124.5 38t-17.5 114q9 45 30.5 75t52.5 45t72 22.5t90 7.5h106h50q7 33 10 51t6.5 43t2 38.5t-5.5 30.5t-13.5 25t-23.5 16.5t-35 11.5t-49 3q-48 0 -85 -13t-58 -35
t-32 -43t-16 -44h-31q35 163 228 163zM180 18q79 0 138 35.5t83 94.5l24 119q-171 0 -200 -3q-103 -9 -139 -63q-16 -24 -23 -59q-12 -62 12 -93t105 -31z" />
    <glyph glyph-name="AEacute" unicode="&#x1fc;" horiz-adv-x="864" 
d="M673 867l-97 -107h-34l87 107h44zM927 672h-388l-59 -288h337l-6 -31h-338l-66 -321h391l-7 -32h-424l44 210h-245l-160 -210h-41l538 704h430zM189 241h228l85 411z" />
    <glyph glyph-name="aeacute" unicode="&#x1fd;" horiz-adv-x="889" 
d="M643 762l-100 -125h-31l90 125h41zM682 540q106 0 148 -60t12 -204h-395l-3 -14q-9 -44 -12 -76.5t1.5 -65.5t19.5 -53.5t45 -33.5t76 -13q88 0 139.5 45t61.5 89h37q-4 -18 -16.5 -41.5t-38 -53t-75 -49.5t-113.5 -20q-149 0 -169 120q-63 -119 -230 -119
q-173 0 -140 161q8 38 24 65t39 43t53 26t66 13t77.5 4t88.5 0h40q10 39 24 72q8 70 -17 103.5t-103 33.5q-49 0 -86 -13t-58 -35t-32 -43t-16 -44h-32q35 163 229 163q77 0 109 -29t34 -82q70 111 212 111zM454 304h359q19 105 -11.5 156.5t-125.5 51.5q-165 0 -222 -208z
M179 18q79 0 136.5 36t80.5 96q0 51 13 113l3 14q-164 1 -204 -4q-96 -13 -128 -75q-10 -20 -16 -47q-13 -63 11 -98t104 -35z" />
    <glyph glyph-name="Oslashacute" unicode="&#x1fe;" horiz-adv-x="675" 
d="M366 869l-97 -107h-34l87 107h44zM692 714l-67 -77q54 -88 12 -286q-38 -181 -119 -274t-236 -93q-122 0 -175 62l-47 -53h-39l68 78q-50 89 -10 280q38 181 120 275t236 94q118 0 172 -59l46 53h39zM115 351q-36 -175 -1 -251l469 534q-45 54 -154 54q-128 0 -203.5 -84
t-110.5 -253zM602 351q38 180 -2 258l-470 -536q46 -58 159 -58q128 0 203 83t110 253z" />
    <glyph glyph-name="oslashacute" unicode="&#x1ff;" horiz-adv-x="551" 
d="M453 754l-100 -125h-31l90 125h41zM541 537l-55 -60q42 -67 10 -213q-28 -133 -90 -203.5t-184 -70.5q-93 0 -136 45l-34 -38h-34l52 58q-40 67 -9 209q28 134 90.5 205t184.5 72q93 0 134 -44l36 40h35zM96 264q-27 -124 -1 -182l352 390q-34 40 -117 40q-97 0 -153 -63
t-81 -185zM461 264q26 129 0 185l-352 -389q35 -41 119 -41q97 0 152.5 62t80.5 183z" />
    <glyph glyph-name="Scommaaccent" unicode="&#x218;" horiz-adv-x="606" 
d="M43 205h34q-39 -187 179 -190q103 -1 168 41.5t81 112.5q12 55 -5 91t-53.5 52.5t-82.5 27t-92 21.5t-82.5 28.5t-54 55.5t-5.5 96q18 85 84.5 132.5t183.5 46.5q121 -1 168.5 -54t29.5 -141h-33q9 28 3.5 56.5t-20 52.5t-54.5 39t-100 16q-104 1 -158 -40.5t-68 -107.5
q-11 -52 7 -85t55 -48t83 -24.5t92 -21t82 -30.5t52.5 -60t3.5 -103q-18 -89 -93 -137.5t-199 -47.5q-118 1 -173.5 55.5t-32.5 165.5zM191 -230h-30q24 36 47 84q8 19 15.5 38.5t10.5 29.5l3 11h35q-11 -39 -31 -80q-10 -21 -22.5 -41.5t-20.5 -31.5z" />
    <glyph glyph-name="scommaaccent" unicode="&#x219;" horiz-adv-x="493" 
d="M25 160h32q-15 -69 19 -104t123 -36q169 -1 194 113q11 52 -20 79.5t-82 37t-102 20.5t-82 42.5t-19 89.5q14 66 70 102.5t153 35.5q186 -3 153 -158h-31q13 61 -12.5 95t-114.5 35q-85 1 -129.5 -31t-54.5 -79q-6 -32 5 -53.5t34 -32.5t54 -19.5t63.5 -13.5t63 -15.5
t53 -25t32 -42t1.5 -66.5q-30 -146 -235 -143q-203 3 -168 169zM134 -221h-30q24 36 47 84q8 19 15.5 38.5t10.5 30.5l3 10h35q-11 -39 -31 -80q-10 -21 -22.5 -41.5t-19.5 -30.5z" />
    <glyph glyph-name="uni021A" unicode="&#x21a;" horiz-adv-x="544" 
d="M619 704l-7 -32h-235l-144 -672h-35l144 672h-234l7 32h504zM159 -121q8 19 15 38.5t10 30.5l3 10h35q-11 -39 -31 -80q-10 -21 -22 -41.5t-19 -30.5l-8 -11h-30q25 36 47 84z" />
    <glyph glyph-name="uni021B" unicode="&#x21b;" horiz-adv-x="293" 
d="M181 502l-66 -313q-7 -33 -9.5 -52.5t-1.5 -42.5t9.5 -35.5t27 -21t48.5 -8.5h42l-6 -30h-45q-60 0 -86.5 26.5t-23.5 69t12 94.5l65 313h-65l6 29h65l34 161l36 9l-36 -170h145l-6 -29h-145zM82 -127q8 19 15.5 38.5t10.5 30.5l3 10h35q-11 -39 -31 -80
q-10 -21 -22.5 -41.5t-20.5 -30.5l-7 -11h-30q24 36 47 84z" />
    <glyph glyph-name="uni0232" unicode="&#x232;" horiz-adv-x="522" 
d="M470 817l-7 -29h-203l7 29h203zM560 704h44l-323 -419l-60 -285h-35l60 285l-158 419h37l144 -379z" />
    <glyph glyph-name="uni0233" unicode="&#x233;" horiz-adv-x="439" 
d="M410 694l-6 -28h-202l6 28h202zM457 531h40l-428 -749h-36l123 218h-9l-95 531h35l86 -502z" />
    <glyph glyph-name="uni0237" unicode="&#x237;" horiz-adv-x="215" 
d="M-108 -172l6 30q29 0 49.5 3t36 14t24.5 20t17.5 34t12.5 42t12 57l104 503h34l-105 -503q-11 -52 -18.5 -78.5t-21 -54.5t-32 -40t-47.5 -19.5t-72 -7.5z" />
    <glyph glyph-name="uni0259" unicode="&#x259;" horiz-adv-x="546" 
d="M333 540q114 0 150.5 -66.5t8.5 -205.5q-29 -141 -93.5 -209.5t-179.5 -68.5q-107 0 -148.5 62t-10.5 210h396l1 7q11 56 13 95t-8.5 75t-44 54.5t-90.5 18.5q-88 0 -139.5 -46t-61.5 -90h-37q4 19 16.5 42t38.5 53t75.5 49.5t113.5 19.5zM225 18q166 0 224 217h-359
q-20 -112 9 -164.5t126 -52.5z" />
    <glyph glyph-name="uni0272" unicode="&#x272;" horiz-adv-x="563" 
d="M371 540q93 0 125.5 -50.5t6.5 -174.5l-65 -315h-33l65 314q24 98 0.5 147t-109.5 49q-111 0 -207 -133l-70 -335q-9 -43 -15 -66.5t-16.5 -50t-22.5 -39t-31.5 -24.5t-45 -16t-61.5 -4l6 31q74 0 100.5 26.5t43.5 100.5l82 395l18 136h30l-13 -112q33 46 87.5 83.5
t124.5 37.5z" />
    <glyph glyph-name="circumflex" unicode="&#x2c6;" horiz-adv-x="357" 
d="M359 637h-34l-55 94l-95 -94h-38l124 125h26z" />
    <glyph glyph-name="caron" unicode="&#x2c7;" horiz-adv-x="357" 
d="M347 762h37l-124 -125h-25l-73 125h35l55 -94z" />
    <glyph glyph-name="breve" unicode="&#x2d8;" horiz-adv-x="346" 
d="M332 732h31q-9 -35 -40 -65.5t-84 -30.5q-51 0 -71 31t-13 65h29q-6 -24 8.5 -45.5t52.5 -21.5q35 0 58.5 22t28.5 45z" />
    <glyph glyph-name="dotaccent" unicode="&#x2d9;" horiz-adv-x="188" 
d="M143 646l24 113h34l-24 -113h-34z" />
    <glyph glyph-name="ring" unicode="&#x2da;" horiz-adv-x="288" 
d="M208 636q-32 0 -46 19t-8 47q6 29 27 47.5t53 18.5t46.5 -19t9.5 -47q-6 -29 -28 -47.5t-54 -18.5zM213 661q16 0 30 11.5t18 29.5q8 41 -31 41q-17 0 -30.5 -11.5t-17.5 -29.5q-8 -41 31 -41z" />
    <glyph glyph-name="ogonek" unicode="&#x2db;" horiz-adv-x="286" 
d="M62 12l25 -11q-11 -4 -27 -12.5t-45.5 -34t-34.5 -52.5q-5 -22 5 -33t28 -11q11 0 23.5 3t19.5 7l7 3l-6 -24q-25 -15 -57 -15t-45.5 17.5t-7.5 48.5t35 59.5t54 41.5z" />
    <glyph glyph-name="tilde" unicode="&#x2dc;" horiz-adv-x="357" 
d="M351 718h24q-16 -77 -78 -77q-31 0 -45.5 23t-36.5 23q-23 0 -35.5 -17t-14.5 -33h-25q17 76 78 76q31 0 46 -22.5t36 -22.5q23 0 35.5 16.5t15.5 33.5z" />
    <glyph glyph-name="hungarumlaut" unicode="&#x2dd;" horiz-adv-x="344" 
d="M139 637l84 125h41l-93 -125h-32zM248 637l93 125h42l-103 -125h-32z" />
    <glyph glyph-name="gravecomb" unicode="&#x300;" 
d="M22 637h-31l-49 125h41z" />
    <glyph glyph-name="acutecomb" unicode="&#x301;" 
d="M-82 637l90 125h41l-100 -125h-31z" />
    <glyph glyph-name="uni0302" unicode="&#x302;" 
d="M26 637h-34l-55 94l-95 -94h-38l124 125h26z" />
    <glyph glyph-name="tildecomb" unicode="&#x303;" 
d="M14 718h24q-16 -77 -78 -77q-19 0 -30.5 7t-15 16t-12.5 16t-24 7q-23 0 -35.5 -17t-14.5 -33h-25q17 76 78 76q31 0 46 -22.5t36 -22.5q23 0 35.5 16.5t15.5 33.5z" />
    <glyph glyph-name="uni0304" unicode="&#x304;" 
d="M-168 694h202l-6 -28h-202z" />
    <glyph glyph-name="uni0306" unicode="&#x306;" 
d="M17 732h31q-9 -35 -40 -65.5t-84 -30.5q-51 0 -71 31t-13 65h29q-6 -24 8.5 -45.5t52.5 -21.5q35 0 58.5 22t28.5 45z" />
    <glyph glyph-name="uni0307" unicode="&#x307;" 
d="M-11 646l24 113h34l-24 -113h-34z" />
    <glyph glyph-name="uni0308" unicode="&#x308;" 
d="M-141 637l24 113h34l-24 -113h-34zM-13 637l23 113h34l-23 -113h-34z" />
    <glyph glyph-name="uni030A" unicode="&#x30a;" 
d="M-45 636q-32 0 -46 19t-8 47q6 29 27 47.5t53 18.5t46.5 -19t9.5 -47q-6 -29 -28 -47.5t-54 -18.5zM-40 661q16 0 30 11.5t18 29.5q8 41 -31 41q-17 0 -30.5 -11.5t-17.5 -29.5q-8 -41 31 -41z" />
    <glyph glyph-name="uni030B" unicode="&#x30b;" 
d="M-193 637l84 125h41l-93 -125h-32zM-84 637l93 125h42l-103 -125h-32z" />
    <glyph glyph-name="uni030C" unicode="&#x30c;" 
d="M14 762h37l-124 -125h-25l-73 125h35l55 -94z" />
    <glyph glyph-name="uni0312" unicode="&#x312;" 
d="M21 772h31q-25 -35 -54 -98q-11 -24 -19.5 -47t-10.5 -35l-3 -11h-36q8 42 33 95q13 27 27.5 51t22.5 35z" />
    <glyph glyph-name="dotbelowcomb" unicode="&#x323;" 
d="M-182 -173l20 95h33l-20 -95h-33z" />
    <glyph glyph-name="uni0326" unicode="&#x326;" 
d="M-236 -202h-30q24 36 47 84q8 19 15.5 38.5t10.5 29.5l3 11h35q-11 -39 -31 -80q-10 -21 -22.5 -41.5t-19.5 -31.5z" />
    <glyph glyph-name="uni0327" unicode="&#x327;" 
d="M-157 3l-38 -56q82 -5 69 -70q-9 -41 -36.5 -57.5t-77.5 -16.5l-46 5l5 26q19 -5 43 -5q37 0 56 9.5t25 39.5q6 27 -14 38.5t-60 11.5h-6l49 75h31z" />
    <glyph glyph-name="uni0328" unicode="&#x328;" 
d="M-179 12l25 -11q-11 -4 -27 -12.5t-45.5 -34t-34.5 -52.5q-5 -22 5 -33t28 -11q11 0 23.5 3t19.5 7l7 3l-6 -24q-25 -15 -57 -15t-45.5 17.5t-7.5 48.5t35 59.5t55 41.5z" />
    <glyph glyph-name="uni0335" unicode="&#x335;" 
d="M-278 308l6 28h243l-6 -28h-243z" />
    <glyph glyph-name="uni0336" unicode="&#x336;" 
d="M-657 307l6 30h606l-6 -30h-606z" />
    <glyph glyph-name="uni0337" unicode="&#x337;" 
d="M-265 226l-9 24l237 140l10 -24z" />
    <glyph glyph-name="uni0338" unicode="&#x338;" 
d="M-391 111l488 540h35l-489 -540h-34z" />
    <glyph glyph-name="pi" unicode="&#x3c0;" horiz-adv-x="598" 
d="M502 506l-71 -343q-5 -25 -7.5 -41.5t-2.5 -36t6 -31t19.5 -19t35.5 -7.5h13l-5 -28h-13q-48 0 -69.5 23t-18.5 59t11 81l71 343h-252l-105 -506h-31l105 506h-88l7 29h490l-7 -29h-88z" />
    <glyph glyph-name="Wgrave" unicode="&#x1e80;" horiz-adv-x="888" 
d="M544 760h-30l-51 107h39zM929 704h41l-355 -704h-37l-60 655l-325 -655h-35l-69 704h36l59 -652l322 652h39l60 -654z" />
    <glyph glyph-name="wgrave" unicode="&#x1e81;" horiz-adv-x="710" 
d="M445 637h-31l-49 125h41zM722 531h38l-270 -531h-41l-49 481l-240 -481h-42l-56 531h33l50 -493l246 493h37l48 -493z" />
    <glyph glyph-name="Wacute" unicode="&#x1e82;" horiz-adv-x="888" 
d="M656 867l-97 -107h-34l87 107h44zM929 704h41l-355 -704h-37l-60 655l-325 -655h-35l-69 704h36l59 -652l322 652h39l60 -654z" />
    <glyph glyph-name="wacute" unicode="&#x1e83;" horiz-adv-x="710" 
d="M531 762l-100 -125h-31l90 125h41zM722 531h38l-270 -531h-41l-49 481l-240 -481h-42l-56 531h33l50 -493l246 493h37l48 -493z" />
    <glyph glyph-name="Wdieresis" unicode="&#x1e84;" horiz-adv-x="888" 
d="M517 873l-24 -113h-34l24 113h34zM641 873l-23 -113h-34l23 113h34zM929 704h41l-355 -704h-37l-60 655l-325 -655h-35l-69 704h36l59 -652l322 652h39l60 -654z" />
    <glyph glyph-name="wdieresis" unicode="&#x1e85;" horiz-adv-x="710" 
d="M411 750l-24 -113h-34l24 113h34zM538 750l-23 -113h-34l23 113h34zM722 531h38l-270 -531h-41l-49 481l-240 -481h-42l-56 531h33l50 -493l246 493h37l48 -493z" />
    <glyph glyph-name="uni1EA0" unicode="&#x1ea0;" horiz-adv-x="584" 
d="M535 0h-35l-35 210h-340l-122 -210h-38l414 704h35zM143 241h317l-71 423zM197 -173l20 95h33l-20 -95h-33z" />
    <glyph glyph-name="uni1EA1" unicode="&#x1ea1;" horiz-adv-x="532" 
d="M328 540q46 0 78 -9.5t47.5 -28t23 -40.5t5.5 -54t-7 -60t-14 -67q-1 -5 -2 -9l-2 -8l-28 -133l-16 -130h-30l11 94q-67 -104 -223 -104q-92 0 -124.5 38t-17.5 114q9 45 30.5 75t52.5 45t72 22.5t90 7.5h106h50q7 33 10 51t6.5 43t2 38.5t-5.5 30.5t-13.5 25t-23.5 16.5
t-35 11.5t-49 3q-48 0 -85 -13t-58 -35t-32 -43t-16 -44h-31q35 163 228 163zM180 18q79 0 138 35.5t83 94.5l24 119q-171 0 -200 -3q-103 -9 -139 -63q-16 -24 -23 -59q-12 -62 12 -93t105 -31zM163 -173l20 95h33l-20 -95h-33z" />
    <glyph glyph-name="uni1EB8" unicode="&#x1eb8;" horiz-adv-x="537" 
d="M600 672h-388l-59 -288h337l-7 -31h-337l-66 -321h390l-6 -32h-426l147 704h421zM197 -173l20 95h33l-20 -95h-33z" />
    <glyph glyph-name="uni1EB9" unicode="&#x1eb9;" horiz-adv-x="539" 
d="M332 540q215 0 162 -254h-394l-5 -24q-12 -56 -14 -95t8.5 -75t44.5 -54.5t91 -18.5q87 0 139.5 46t62.5 89h35q-4 -18 -16.5 -41.5t-38 -53t-75 -49.5t-113.5 -20q-114 0 -151 67t-8 206q29 140 93 208.5t179 68.5zM108 314h357q16 96 -14.5 146.5t-124.5 50.5
q-160 0 -218 -197zM171 -173l20 95h33l-20 -95h-33z" />
    <glyph glyph-name="uni1EBC" unicode="&#x1ebc;" horiz-adv-x="537" 
d="M364 809q-36 0 -49 -49h-25q17 77 79 77q24 0 35 -11t19.5 -22t27.5 -11q23 0 35 16.5t14 32.5h26q-16 -78 -79 -78q-20 0 -31.5 7t-15 15.5t-12.5 15.5t-24 7zM600 672h-388l-59 -288h337l-7 -31h-337l-66 -321h390l-6 -32h-426l147 704h421z" />
    <glyph glyph-name="uni1EBD" unicode="&#x1ebd;" horiz-adv-x="539" 
d="M332 540q215 0 162 -254h-394l-5 -24q-12 -56 -14 -95t8.5 -75t44.5 -54.5t91 -18.5q87 0 139.5 46t62.5 89h35q-4 -18 -16.5 -41.5t-38 -53t-75 -49.5t-113.5 -20q-114 0 -151 67t-8 206q29 140 93 208.5t179 68.5zM108 314h357q16 96 -14.5 146.5t-124.5 50.5
q-160 0 -218 -197zM318 687q-23 0 -35.5 -17t-14.5 -33h-25q17 76 78 76q31 0 46 -22.5t36 -22.5q23 0 35.5 16.5t15.5 33.5h24q-16 -77 -78 -77q-30 0 -45 23t-37 23z" />
    <glyph glyph-name="uni1ECA" unicode="&#x1eca;" horiz-adv-x="214" 
d="M38 0l147 704h34l-146 -704h-35zM4 -173l20 95h33l-20 -95h-33z" />
    <glyph glyph-name="uni1ECB" unicode="&#x1ecb;" horiz-adv-x="203" 
d="M167 646l24 113h34l-24 -113h-34zM33 0l110 531h33l-110 -531h-33zM-3 -173l20 95h33l-20 -95h-33z" />
    <glyph glyph-name="uni1ECC" unicode="&#x1ecc;" horiz-adv-x="675" 
d="M282 -16q-153 0 -196.5 93.5t-6.5 273.5q38 181 120 275t236 94q104 0 158.5 -46t60 -128t-16.5 -195q-38 -181 -119 -274t-236 -93zM289 15q128 0 203 83t110 253q23 110 17.5 185t-52 113.5t-138.5 38.5q-128 0 -203.5 -84t-110.5 -253q-23 -111 -17 -185.5
t52.5 -112.5t138.5 -38zM233 -175l20 95h33l-20 -95h-33z" />
    <glyph glyph-name="uni1ECD" unicode="&#x1ecd;" horiz-adv-x="551" 
d="M222 -10q-121 0 -155 71t-6 203q28 134 90.5 205t184.5 72q82 0 125 -35.5t47 -97.5t-12 -144q-28 -133 -90 -203.5t-184 -70.5zM228 19q97 0 152.5 62t80.5 183q15 78 13 133t-37.5 85t-106.5 30q-97 0 -153 -63t-81 -185q-16 -78 -13 -132.5t38.5 -83.5t106.5 -29z
M172 -173l20 95h33l-20 -95h-33z" />
    <glyph glyph-name="uni1EE4" unicode="&#x1ee4;" horiz-adv-x="664" 
d="M276 -16q-63 0 -105 17t-64 46.5t-28.5 77t-1.5 100t20 124.5l74 355h35l-75 -355q-23 -111 -22.5 -185t42 -111.5t132.5 -37.5q124 0 189 80t101 254l75 355h35l-74 -355q-19 -91 -42 -152.5t-60.5 -112.5t-94.5 -75.5t-136 -24.5zM226 -173l20 95h33l-20 -95h-33z" />
    <glyph glyph-name="uni1EE5" unicode="&#x1ee5;" horiz-adv-x="583" 
d="M500 531h33l-81 -384l-20 -147h-30l15 128q-12 -18 -29 -38t-45 -44t-66.5 -39.5t-79.5 -15.5q-93 0 -125.5 50.5t-6.5 173.5l65 316h33l-65 -313q-24 -98 -1 -147t109 -49q41 0 80.5 19.5t68.5 49.5t45 51t26 38zM174 -173l20 95h33l-20 -95h-33z" />
    <glyph glyph-name="Ygrave" unicode="&#x1ef2;" horiz-adv-x="522" 
d="M362 760h-30l-51 107h39zM560 704h44l-323 -419l-60 -285h-35l60 285l-158 419h37l144 -379z" />
    <glyph glyph-name="ygrave" unicode="&#x1ef3;" horiz-adv-x="439" 
d="M309 637h-31l-49 125h41zM457 531h40l-428 -749h-36l123 218h-9l-95 531h35l86 -502z" />
    <glyph glyph-name="uni1EF8" unicode="&#x1ef8;" horiz-adv-x="522" 
d="M322 809q-36 0 -49 -49h-25q17 77 79 77q25 0 35.5 -11t19 -22t27.5 -11q23 0 35 16.5t14 32.5h26q-16 -78 -79 -78q-20 0 -31.5 7t-15 15.5t-12.5 15.5t-24 7zM560 704h44l-323 -419l-60 -285h-35l60 285l-158 419h37l144 -379z" />
    <glyph glyph-name="uni1EF9" unicode="&#x1ef9;" horiz-adv-x="439" 
d="M263 687q-23 0 -35.5 -17t-14.5 -33h-25q17 76 78 76q31 0 46 -22.5t36 -22.5q23 0 35.5 16.5t15.5 33.5h24q-16 -77 -78 -77q-19 0 -30.5 7t-15 16t-12.5 16t-24 7zM457 531h40l-428 -749h-36l123 218h-9l-95 531h35l86 -502z" />
    <glyph glyph-name="uni2009" unicode="&#x2009;" horiz-adv-x="78" 
 />
    <glyph glyph-name="endash" unicode="&#x2013;" horiz-adv-x="590" 
d="M91 305l6 30h432l-6 -30h-432z" />
    <glyph glyph-name="emdash" unicode="&#x2014;" horiz-adv-x="886" 
d="M91 305l6 30h728l-6 -30h-728z" />
    <glyph glyph-name="uni2016" unicode="&#x2016;" horiz-adv-x="505" 
d="M60 -180l212 1000h31l-212 -1000h-31zM215 -180l213 1000h30l-212 -1000h-31z" />
    <glyph glyph-name="quoteleft" unicode="&#x2018;" horiz-adv-x="161" 
d="M141 560h-37q5 33 32 94q12 28 28 54.5t26 39.5l9 12h31q-30 -43 -58 -107q-12 -28 -20 -51t-10 -32z" />
    <glyph glyph-name="quoteright" unicode="&#x2019;" horiz-adv-x="159" 
d="M131 560h-31q31 43 58 106q12 28 20 51.5t10 32.5l2 10h37q-5 -33 -33 -95q-12 -28 -28 -54t-26 -39z" />
    <glyph glyph-name="quotesinglbase" unicode="&#x201a;" horiz-adv-x="166" 
d="M-1 -88h-31q31 44 58 107q12 28 20 51.5t10 33.5l2 9h36q-4 -33 -32 -95q-13 -28 -28.5 -54.5t-25.5 -39.5z" />
    <glyph glyph-name="quotedblleft" unicode="&#x201c;" horiz-adv-x="263" 
d="M149 560h-37q5 33 33 94q12 28 27.5 54.5t25.5 39.5l9 12h31q-29 -43 -57 -107q-12 -28 -20 -51t-10 -32zM251 560h-37q4 33 33 94q12 28 28 54.5t25 39.5l10 12h31q-32 -43 -58 -107q-12 -28 -20 -51t-10 -32z" />
    <glyph glyph-name="quotedblright" unicode="&#x201d;" horiz-adv-x="263" 
d="M124 560h-31q32 43 58 106q12 28 20 51.5t10 32.5l2 10h37q-5 -33 -33 -95q-12 -28 -28 -54t-25 -39zM227 560h-31q31 43 58 106q12 28 19.5 51.5t9.5 32.5l2 10h37q-6 -33 -33 -95q-12 -28 -27.5 -54t-25.5 -39z" />
    <glyph glyph-name="quotedblbase" unicode="&#x201e;" horiz-adv-x="262" 
d="M-15 -107h-31q32 43 58 106q12 28 20 51.5t10 33.5l2 9h37q-5 -33 -33 -95q-12 -28 -28 -54t-26 -38zM88 -107h-31q29 43 57 106q12 28 20 51.5t10 33.5l2 9h37q-6 -33 -33 -95q-12 -28 -27.5 -54t-24.5 -38z" />
    <glyph glyph-name="dagger" unicode="&#x2020;" horiz-adv-x="501" 
d="M489 555l-7 -29h-168l-109 -526h-30l109 526h-169l7 29h168l43 208h30l-43 -208h169z" />
    <glyph glyph-name="daggerdbl" unicode="&#x2021;" horiz-adv-x="523" 
d="M502 526h-167l-61 -289h169l-6 -29h-169l-43 -208h-31l43 208h-167l6 29h167l61 289h-168l6 29h168l43 208h31l-43 -208h167z" />
    <glyph glyph-name="bullet" unicode="&#x2022;" horiz-adv-x="403" 
d="M171 245l22 101h58l-20 -101h-60z" />
    <glyph glyph-name="ellipsis" unicode="&#x2026;" horiz-adv-x="466" 
d="M42 0l24 113h36l-23 -113h-37zM163 0l24 113h36l-23 -113h-37zM284 0l23 113h37l-24 -113h-36z" />
    <glyph glyph-name="perthousand" unicode="&#x2030;" horiz-adv-x="992" 
d="M202 378q-142 0 -107 163q34 167 176 167q141 0 106 -167q-16 -78 -57.5 -120.5t-117.5 -42.5zM207 403q111 0 139 138q14 72 -3 107t-78 35q-109 0 -139 -142q-15 -70 2.5 -104t78.5 -34zM34 0l598 702h38l-598 -702h-38zM429 -6q-143 0 -108 163q34 167 176 167
q141 0 106 -167q-16 -78 -57 -120.5t-117 -42.5zM434 19q109 0 138 138q14 71 -3 106.5t-78 35.5q-109 0 -139 -142q-15 -70 2.5 -104t79.5 -34zM750 -6q-141 0 -107 163q35 167 176 167t106 -167q-16 -78 -57.5 -120.5t-117.5 -42.5zM756 19q110 0 138 138q15 71 -2 106.5
t-79 35.5q-107 0 -139 -142q-15 -70 2.5 -104t79.5 -34z" />
    <glyph glyph-name="guilsinglleft" unicode="&#x2039;" horiz-adv-x="304" 
d="M268 418l-156 -159l89 -146h-38l-86 141l4 16l145 148h42z" />
    <glyph glyph-name="guilsinglright" unicode="&#x203a;" horiz-adv-x="304" 
d="M149 418l83 -148l-3 -16l-144 -141h-41l153 152l-86 153h38z" />
    <glyph glyph-name="fraction" unicode="&#x2044;" horiz-adv-x="241" 
d="M-232 -40l724 836h39l-724 -836h-39z" />
    <glyph glyph-name="uni2070" unicode="&#x2070;" horiz-adv-x="471" 
d="M179 336q-98 0 -126 62.5t2 190.5q29 135 81 195.5t152 60.5q98 0 125.5 -63t-2.5 -193q-28 -133 -80 -193t-152 -60zM185 363q75 0 122.5 52.5t73.5 173.5q27 125 4.5 177t-103.5 52q-76 0 -122.5 -53t-72.5 -176q-27 -124 -5.5 -175t103.5 -51z" />
    <glyph glyph-name="uni2074" unicode="&#x2074;" horiz-adv-x="404" 
d="M363 839l-75 -353h61l-6 -26h-60l-25 -117h-30l25 117h-255l5 26l329 353h31zM38 486h221l67 313z" />
    <glyph glyph-name="uni2075" unicode="&#x2075;" horiz-adv-x="431" 
d="M402 807l-227 1l-71 -186q50 44 131 44q78 0 111 -44t17 -121q-16 -78 -67 -121.5t-136 -43.5q-82 0 -117 38.5t-24 93.5h30q-10 -45 19 -75t98 -30q64 0 108.5 35.5t58.5 102.5q14 68 -13 103.5t-94 35.5q-41 0 -75 -14t-48 -28l-14 -15h-28l86 225l8 25h253z" />
    <glyph glyph-name="uni2076" unicode="&#x2076;" horiz-adv-x="458" 
d="M405 716h-30q10 43 -12 74.5t-86 31.5q-68 0 -114.5 -53t-77.5 -183q65 83 169 83q83 0 113 -44t13 -123q-35 -166 -207 -166q-90 0 -119.5 54.5t-4.5 171.5q33 155 87 220t147 65q78 0 106 -40.5t16 -90.5zM246 643q-44 0 -83 -21t-56.5 -40.5t-30.5 -40.5
q-18 -97 6 -138t97 -41q67 0 111 35.5t59 103.5q31 142 -103 142z" />
    <glyph glyph-name="uni2077" unicode="&#x2077;" horiz-adv-x="345" 
d="M76 343h-32q15 72 51 147t76.5 130t78.5 99.5t63 67.5l25 23l-277 -1l6 27h315l-6 -27q-10 -9 -27 -24.5t-62 -66t-82.5 -102.5t-75.5 -127t-53 -146z" />
    <glyph glyph-name="uni2078" unicode="&#x2078;" horiz-adv-x="457" 
d="M31 477q9 45 36 76.5t50.5 42t42.5 11.5q-26 2 -49.5 28.5t-13.5 76.5q29 135 185 135q154 0 125 -135q-10 -50 -45.5 -76.5t-62.5 -28.5q31 -1 59.5 -33.5t15.5 -96.5q-32 -141 -202 -141q-88 0 -121.5 37t-19.5 104zM63 479q-13 -61 14.5 -88.5t100.5 -27.5
q141 0 165 116q12 59 -14 86.5t-102 27.5q-140 0 -164 -114zM127 710q-10 -46 13.5 -68.5t92.5 -22.5q124 0 144 91q12 57 -12 84t-89 27q-126 0 -149 -111z" />
    <glyph glyph-name="uni2079" unicode="&#x2079;" horiz-adv-x="458" 
d="M281 847q91 0 120 -56t1 -185q-32 -152 -84 -211t-147 -59q-83 0 -115 40.5t-22 88.5h31q-8 -42 17 -72.5t95 -30.5q69 0 113.5 46.5t74.5 171.5q-63 -83 -169 -83q-161 0 -123 182q36 168 208 168zM205 524q33 0 63 11t51 28.5t34 31.5t22 28q21 112 -2 155t-98 43
q-67 0 -111 -36t-59 -106q-16 -78 7.5 -116.5t92.5 -38.5z" />
    <glyph glyph-name="Euro" unicode="&#x20ac;" horiz-adv-x="633" 
d="M469 691q92 0 132.5 -55t26.5 -133h-33q10 69 -23 113t-110 44q-164 0 -236 -224h215l-5 -26h-218q-9 -35 -14 -60q-10 -54 -13 -74h217l-5 -26h-214q-9 -103 24 -155t121 -52q66 0 120.5 41.5t72.5 101.5h32q-20 -73 -80.5 -124t-151.5 -51q-193 0 -173 239h-84l6 26h81
q2 18 13 74q5 25 14 60h-80l6 26h82q77 255 277 255z" />
    <glyph glyph-name="uni20BD" unicode="&#x20bd;" horiz-adv-x="638" 
d="M271 707h187q116 0 166 -43t29 -145q-20 -102 -87.5 -145t-186.5 -43h-152l-20 -94h184l-6 -29h-184l-43 -208h-35l44 208h-100l6 29h100l19 94h-99l7 31h99zM618 519q19 94 -24.5 125.5t-142.5 31.5h-152l-66 -314l153 -1q41 0 73.5 6t66.5 21.5t58 48.5t34 82z" />
    <glyph glyph-name="uni2116" unicode="&#x2116;" horiz-adv-x="1151" 
d="M659 704h35l-146 -704h-37l-299 649l-139 -649h-35l151 704h37l300 -651zM935 563q70 0 105 -29t37.5 -79.5t-10.5 -118.5q-22 -110 -72.5 -167.5t-152.5 -57.5q-99 0 -126.5 58t-5.5 167q23 110 74 168.5t151 58.5zM1035 336q12 62 10.5 106t-29.5 68.5t-86 24.5
q-146 0 -186 -199q-24 -94 -1.5 -145t105.5 -51q77 0 122 49.5t65 146.5zM635 0l7 29h368l-6 -29h-369z" />
    <glyph glyph-name="uni2117" unicode="&#x2117;" horiz-adv-x="768" 
d="M479 705q74 0 127.5 -19.5t83 -52t43 -79t12 -97t-14.5 -109.5q-16 -74 -44.5 -134.5t-75 -111t-118.5 -78.5t-164 -28q-73 0 -125.5 19t-82.5 51t-44 77.5t-13 95.5t14 109q16 75 45 136t76 112.5t118.5 80t162.5 28.5zM702 348q12 55 12.5 102.5t-12 90.5t-39.5 73
t-75.5 48t-114.5 18q-81 0 -146.5 -26.5t-108.5 -74t-70.5 -104.5t-42.5 -127q-17 -66 -11.5 -125t27.5 -104t76.5 -71.5t136.5 -26.5q159 0 248 90.5t120 236.5zM321 546h144q71 0 99 -27t12 -100q-16 -74 -54.5 -100t-110.5 -26h-112l-32 -148h-32zM543 419q8 27 4 45.5
t-9.5 29t-20 16.5t-27.5 7.5t-31 1.5h-112l-42 -199h112q24 0 40 3t34.5 12t31.5 30t20 54z" />
    <glyph glyph-name="uni2120" unicode="&#x2120;" horiz-adv-x="689" 
d="M241 732q115 0 95 -96h-25q2 15 1.5 31.5t-20 29t-55.5 12.5q-46 0 -73.5 -20t-31.5 -45q-7 -32 12 -49t49 -23t60 -14t47.5 -31t9.5 -65q-8 -43 -46 -67t-97 -24q-124 0 -99 108h25q-19 -84 79 -84q45 0 75.5 19t36.5 47q7 35 -11.5 54t-49 26t-60.5 14t-47.5 28.5
t-9.5 60.5q9 41 43 64.5t92 23.5zM729 723l-73 -344h-25l64 303l-182 -304h-26l-50 305l-63 -304h-25l72 344h34l52 -312l187 312h35z" />
    <glyph glyph-name="trademark" unicode="&#x2122;" horiz-adv-x="663" 
d="M351 700h-110l-69 -321h-25l69 321h-110l5 23h245zM703 723l-72 -344h-25l64 303l-182 -304h-25l-52 305l-63 -304h-24l71 344h35l52 -311l187 311h34z" />
    <glyph glyph-name="oneeighth" unicode="&#x215b;" horiz-adv-x="884" 
d="M834 369q-10 -50 -45.5 -76.5t-62.5 -28.5q31 -1 59.5 -33.5t15.5 -96.5q-32 -141 -202 -141q-88 0 -121.5 37t-19.5 104q9 45 36 76.5t50.5 42t42.5 11.5q-26 2 -49.5 28.5t-13.5 76.5q29 135 185 135q154 0 125 -135zM770 136q12 59 -14 86.5t-102 27.5
q-140 0 -164 -114q-13 -61 14.5 -88.5t100.5 -27.5q141 0 165 116zM660 276q124 0 144 91q12 57 -12 84t-89 27q-126 0 -149 -111q-10 -46 13.5 -68.5t92.5 -22.5zM705 796h39l-724 -836h-39zM52 264l98 467l-105 -47l6 29l112 49h25l-105 -498h-31z" />
    <glyph glyph-name="threeeighths" unicode="&#x215c;" horiz-adv-x="1068" 
d="M1018 369q-10 -50 -45.5 -76.5t-62.5 -28.5q31 -1 59.5 -33.5t15.5 -96.5q-32 -141 -202 -141q-88 0 -121.5 37t-19.5 104q9 45 36 76.5t50.5 42t42.5 11.5q-26 2 -49.5 28.5t-13.5 76.5q29 135 185 135q154 0 125 -135zM954 136q12 59 -14 86.5t-102 27.5
q-140 0 -164 -114q-13 -61 14.5 -88.5t100.5 -27.5q141 0 165 116zM844 276q124 0 144 91q12 57 -12 84t-89 27q-126 0 -149 -111q-10 -46 13.5 -68.5t92.5 -22.5zM339 418q-34 -161 -202 -161q-79 0 -111 39t-20 96h29q-10 -47 16.5 -77t91.5 -30q66 0 109.5 34.5
t56.5 99.5q14 64 -14 100t-97 36l-62 -7l4 24l210 157l-247 -2l6 27h290l-5 -25l-203 -150h11q84 0 118.5 -43t18.5 -118zM889 796h39l-724 -836h-39z" />
    <glyph glyph-name="fiveeighths" unicode="&#x215d;" horiz-adv-x="1093" 
d="M1043 369q-10 -50 -45.5 -76.5t-62.5 -28.5q31 -1 59.5 -33.5t15.5 -96.5q-32 -141 -202 -141q-88 0 -121.5 37t-19.5 104q9 45 36 76.5t50.5 42t42.5 11.5q-26 2 -49.5 28.5t-13.5 76.5q29 135 185 135q154 0 125 -135zM979 136q12 59 -14 86.5t-102 27.5
q-140 0 -164 -114q-13 -61 14.5 -88.5t100.5 -27.5q141 0 165 116zM869 276q124 0 144 91q12 57 -12 84t-89 27q-126 0 -149 -111q-10 -46 13.5 -68.5t92.5 -22.5zM363 422q-16 -78 -67 -121.5t-136 -43.5q-82 0 -117 38.5t-24 93.5h30q-10 -45 19 -75t98 -30
q64 0 108.5 35.5t58.5 102.5q14 68 -13 103.5t-94 35.5q-41 0 -75 -14.5t-48 -28.5l-14 -14h-28l86 225l8 25h253l-6 -26l-227 1l-71 -186q50 44 131 44q78 0 111 -44t17 -121zM914 796h39l-724 -836h-39z" />
    <glyph glyph-name="seveneighths" unicode="&#x215e;" horiz-adv-x="958" 
d="M532 134q9 45 36 76.5t50.5 42t42.5 11.5q-26 2 -49.5 28.5t-13.5 76.5q29 135 185 135q154 0 125 -135q-10 -50 -45.5 -76.5t-62.5 -28.5q31 -1 59.5 -33.5t15.5 -96.5q-32 -141 -202 -141q-88 0 -121.5 37t-19.5 104zM564 136q-13 -61 14.5 -88.5t100.5 -27.5
q141 0 165 116q12 59 -14 86.5t-102 27.5q-140 0 -164 -114zM628 367q-10 -46 13.5 -68.5t92.5 -22.5q124 0 144 91q12 57 -12 84t-89 27q-126 0 -149 -111zM55 -40l724 836h39l-724 -836h-39zM76 264h-32q15 72 51 147t76.5 130t78.5 99.5t63 67.5l25 23l-277 -1l6 27h315
l-6 -27q-10 -9 -27 -24.5t-62 -66t-82.5 -102.5t-75.5 -127t-53 -146z" />
    <glyph glyph-name="arrowleft" unicode="&#x2190;" horiz-adv-x="686" 
d="M633 281l-530 3l229 -177l-20 -23l-269 213l269 216l19 -22l-230 -178l531 2z" />
    <glyph glyph-name="arrowup" unicode="&#x2191;" horiz-adv-x="525" 
d="M472 330l-23 -20l-178 231l2 -532h-33l3 532l-178 -231l-22 20l213 269z" />
    <glyph glyph-name="arrowright" unicode="&#x2192;" horiz-adv-x="687" 
d="M364 516l270 -214l-270 -215l-20 22l229 177l-529 -2l-1 34l530 -2l-229 177z" />
    <glyph glyph-name="arrowdown" unicode="&#x2193;" horiz-adv-x="525" 
d="M449 284l23 -20l-213 -270l-216 270l22 20l178 -231l-3 531l34 1l-2 -530z" />
    <glyph glyph-name="arrowboth" unicode="&#x2194;" horiz-adv-x="933" 
d="M611 475l269 -216l-269 -213l-20 23l227 175l-715 2l229 -177l-20 -23l-269 213l269 216l19 -22l-230 -178l718 2l-228 176z" />
    <glyph glyph-name="arrowupdn" unicode="&#x2195;" horiz-adv-x="525" 
d="M274 -88l176 227l22 -19l-216 -269l-213 269l23 20l175 -227l2 714l-177 -228l-23 20l213 269l216 -269l-22 -20l-178 230z" />
    <glyph glyph-name="uni2196" unicode="&#x2196;" horiz-adv-x="526" 
d="M483 85l-23 -25l-374 377l37 -288l-30 -1l-40 341l344 -38l-3 -29l-287 37z" />
    <glyph glyph-name="uni2197" unicode="&#x2197;" horiz-adv-x="525" 
d="M120 449l342 40l-38 -343l-31 2l37 288l-373 -376l-24 23l377 373l-289 -37z" />
    <glyph glyph-name="uni2198" unicode="&#x2198;" horiz-adv-x="526" 
d="M119 100l2 30l289 -38l-377 374l23 25l373 -377l-37 288l31 1l40 -341z" />
    <glyph glyph-name="uni2199" unicode="&#x2199;" horiz-adv-x="524" 
d="M104 94l288 37l1 -30l-340 -41l37 344l29 -2l-37 -290l375 379l24 -24z" />
    <glyph glyph-name="minus" unicode="&#x2212;" horiz-adv-x="432" 
d="M68 294l6 29h312l-7 -29h-311z" />
    <glyph glyph-name="infinity" unicode="&#x221e;" horiz-adv-x="746" 
d="M584 450h1q76 0 102.5 -40.5t11.5 -105.5q-14 -65 -57 -105.5t-119 -40.5h-1q-59 0 -89.5 31.5t-54.5 89.5q-50 -59 -93.5 -90t-102.5 -31h-1q-75 0 -101.5 40t-13.5 106q15 66 58.5 106t118.5 40h1q59 0 89.5 -31.5t54.5 -89.5q50 59 93.5 90t102.5 31zM187 184
q36 0 70.5 19t55.5 40.5t54 60.5q-12 29 -20.5 46t-24 36.5t-36.5 28.5t-49 9q-114 0 -140 -120q-12 -56 9 -88t81 -32zM668 304q27 120 -89 120q-36 0 -70.5 -19t-55.5 -40.5t-54 -60.5q12 -29 20.5 -46t24 -36.5t36.5 -28.5t49 -9q115 0 139 120z" />
    <glyph glyph-name="approxequal" unicode="&#x2248;" horiz-adv-x="524" 
d="M453 406h26q-6 -29 -34 -56.5t-78 -27.5q-47 0 -90 27.5t-80 27.5q-34 0 -55.5 -19.5t-24.5 -35.5h-26q5 28 33.5 56t78.5 28q47 0 90 -27.5t80 -27.5q33 0 54 19t26 36zM425 277h27q-7 -28 -34.5 -55.5t-77.5 -27.5q-47 0 -90.5 27.5t-80.5 27.5q-34 0 -55 -19.5
t-24 -35.5h-26q5 28 33 55.5t78 27.5q47 0 90 -27.5t80 -27.5q34 0 55.5 19.5t24.5 35.5z" />
    <glyph glyph-name="notequal" unicode="&#x2260;" horiz-adv-x="516" 
d="M458 354h-139l-83 -105h200l-7 -30h-217l-78 -99h-32l79 99h-110l6 30h127l84 105h-189l6 30h207l75 95h31l-75 -95h121z" />
    <glyph glyph-name="lessequal" unicode="&#x2264;" horiz-adv-x="567" 
d="M508 490l-8 -32l-348 -110l298 -125l-6 -32l-329 146l5 25zM70 122l6 29h358l-6 -29h-358z" />
    <glyph glyph-name="greaterequal" unicode="&#x2265;" horiz-adv-x="558" 
d="M150 490l332 -128l-5 -25l-391 -146l6 32l352 126l-302 109zM71 122l7 29h358l-6 -29h-359z" />
    <glyph glyph-name="acutecomb.case" 
d="M-58 760l87 107h44l-97 -107h-34z" />
    <glyph glyph-name="at.case" horiz-adv-x="820" 
d="M514 773q79 0 136.5 -21.5t90 -58t47.5 -89t13.5 -110.5t-15.5 -127q-29 -138 -70 -196t-102 -59h-1q-87 0 -75 122q-61 -85 -163 -85q-91 0 -117 57t-5 162q22 106 72.5 164.5t141.5 58.5q98 0 123 -94l7 31l14 53h29l-63 -299q-16 -73 -7 -109t51 -36q88 0 136 230
q79 381 -248 381q-169 0 -268 -104t-136 -277q-19 -79 -15 -146t29 -116t84 -76t151 -27q106 0 177 32l-7 -30q-81 -28 -176 -28q-78 0 -134.5 20t-89.5 54.5t-48.5 84.5t-15 107t14.5 125q18 87 51 157t84.5 127.5t129 89.5t174.5 32zM384 175q53 0 96 31.5t65 70.5
q0 1 0.5 2.5t0.5 2.5l34 163q-3 46 -30 83t-85 37q-138 0 -179 -197q-23 -90 -0.5 -141.5t98.5 -51.5z" />
    <glyph glyph-name="bitcoin" horiz-adv-x="547" 
d="M532 531q-13 -62 -40.5 -97t-89.5 -48q62 -16 79 -57.5t4 -105.5q-18 -89 -62 -130t-155 -45l-21 -97h-26l21 97h-64l-20 -97h-26l20 97h-114l134 641h114l19 92h26l-19 -92h63l20 92h26l-20 -93q162 -8 131 -157zM146 401l173 -1q84 -1 124 30.5t54 98.5q14 68 -14 99
t-110 31h-173zM450 225q15 75 -15.5 111t-121.5 36h-173l-61 -293l173 -1q96 -1 138.5 31.5t59.5 115.5z" />
    <glyph glyph-name="braceleft.case" horiz-adv-x="359" 
d="M436 762l-6 -32q-85 0 -115.5 -24.5t-44.5 -92.5l-41 -198q-13 -60 -57 -71q6 -2 12.5 -5t14 -20.5t1.5 -44.5l-41 -197q-10 -43 -7.5 -69t28.5 -37t89 -11l-6 -32q-74 0 -107 14t-38 47t8 86l41 199q6 32 -7 44t-66 12l6 31q49 0 69.5 11.5t26.5 42.5l42 201
q10 45 20 69t31 43.5t55.5 26.5t91.5 7z" />
    <glyph glyph-name="braceright.case" horiz-adv-x="359" 
d="M-37 -72l7 32q83 0 113.5 24.5t44.5 92.5l41 198q13 59 58 70q-6 2 -12.5 5t-14 21t-1.5 45l40 197q10 43 8 69t-28 37t-88 11l6 32q74 0 106.5 -14t37 -47t-8.5 -86l-40 -199q-6 -32 7.5 -44t66.5 -12l-6 -31q-51 0 -71 -11.5t-27 -42.5l-42 -201q-9 -45 -19 -69
t-31 -43.5t-55.5 -26.5t-91.5 -7z" />
    <glyph glyph-name="bracketleft.case" horiz-adv-x="302" 
d="M372 728h-142l-158 -761h141l-6 -31h-174l171 824h174z" />
    <glyph glyph-name="bracketright.case" horiz-adv-x="302" 
d="M310 760l-172 -824h-173l6 31h141l158 761h-140l6 32h174z" />
    <glyph glyph-name="caroncomb.alt" 
d="M-66 631l73 129h39l-83 -129h-29z" />
    <glyph glyph-name="caroncomb.alt.case" 
d="M-39 760l72 112h42l-82 -112h-32z" />
    <glyph glyph-name="dagger.sups" horiz-adv-x="240" 
d="M262 636l-5 -24h-73l-51 -242h-24l50 242h-73l5 24h73l19 89h25l-19 -89h73z" />
    <glyph glyph-name="daggerdbl.sups" horiz-adv-x="248" 
d="M266 612h-73l-26 -129h73l-5 -24h-73l-19 -89h-25l18 89h-72l5 24h72l27 129h-73l5 24h73l18 89h26l-19 -89h73z" />
    <glyph glyph-name="eight.dnom" horiz-adv-x="457" 
d="M31 134q9 45 36 76.5t50.5 42t42.5 11.5q-26 2 -49.5 28.5t-13.5 76.5q29 135 185 135q154 0 125 -135q-10 -50 -45.5 -76.5t-62.5 -28.5q31 -1 59.5 -33.5t15.5 -96.5q-32 -141 -202 -141q-88 0 -121.5 37t-19.5 104zM63 136q-13 -61 14.5 -88.5t100.5 -27.5
q141 0 165 116q12 59 -14 86.5t-102 27.5q-140 0 -164 -114zM127 367q-10 -46 13.5 -68.5t92.5 -22.5q124 0 144 91q12 57 -12 84t-89 27q-126 0 -149 -111z" />
    <glyph glyph-name="eight.numr" horiz-adv-x="457" 
d="M31 398q9 45 36 76.5t50.5 42t42.5 11.5q-26 2 -49.5 28.5t-13.5 76.5q29 135 185 135q154 0 125 -135q-10 -50 -45.5 -76.5t-62.5 -28.5q31 -1 59.5 -33.5t15.5 -96.5q-32 -141 -202 -141q-88 0 -121.5 37t-19.5 104zM63 400q-13 -61 14.5 -88.5t100.5 -27.5
q141 0 165 116q12 59 -14 86.5t-102 27.5q-140 0 -164 -114zM127 631q-10 -46 13.5 -68.5t92.5 -22.5q124 0 144 91q12 57 -12 84t-89 27q-126 0 -149 -111z" />
    <glyph glyph-name="eight.subs" horiz-adv-x="457" 
d="M31 -57q9 45 36 76.5t50.5 42t42.5 11.5q-26 2 -49.5 28.5t-13.5 76.5q29 135 185 135q154 0 125 -135q-10 -50 -45.5 -76.5t-62.5 -28.5q31 -1 59.5 -33.5t15.5 -96.5q-32 -141 -202 -141q-88 0 -121.5 37t-19.5 104zM63 -55q-13 -61 14.5 -88.5t100.5 -27.5
q141 0 165 116q12 59 -14 86.5t-102 27.5q-140 0 -164 -114zM127 176q-10 -46 13.5 -68.5t92.5 -22.5q124 0 144 91q12 57 -12 84t-89 27q-126 0 -149 -111z" />
    <glyph glyph-name="eight.tf" horiz-adv-x="639" 
d="M66 190q10 48 33.5 85.5t51.5 57t52 29.5t43 11q-35 2 -69 40t-19 109q39 191 252 191q109 0 150 -51t23 -140q-11 -50 -42.5 -86t-59.5 -49t-49 -14q18 -1 37.5 -10.5t40.5 -30.5t27.5 -55.5t-1.5 -86.5q-41 -200 -276 -200q-121 0 -167.5 52.5t-26.5 147.5zM102 191
q-19 -88 21 -128.5t143 -40.5q199 0 235 169q17 85 -20.5 125.5t-144.5 40.5q-199 0 -234 -166zM193 520q-14 -67 20 -100t129 -33q177 0 205 133q17 83 -17.5 122t-125.5 39q-178 0 -211 -161z" />
    <glyph glyph-name="exclamdown.case" horiz-adv-x="199" 
d="M164 609l20 95h33l-20 -95h-33zM37 0l116 549h31l-114 -549h-33z" />
    <glyph glyph-name="five.dnom" horiz-adv-x="431" 
d="M402 464l-227 1l-71 -186q50 44 131 44q78 0 111 -44t17 -121q-16 -78 -67 -121.5t-136 -43.5q-82 0 -117 38.5t-24 93.5h30q-10 -45 19 -75t98 -30q64 0 108.5 35.5t58.5 102.5q14 68 -13 103.5t-94 35.5q-41 0 -75 -14.5t-48 -28.5l-14 -14h-28l86 225l8 25h253z" />
    <glyph glyph-name="five.numr" horiz-adv-x="431" 
d="M402 728l-227 1l-71 -186q50 44 131 44q78 0 111 -44t17 -121q-16 -78 -67 -121.5t-136 -43.5q-82 0 -117 38.5t-24 93.5h30q-10 -45 19 -75t98 -30q64 0 108.5 35.5t58.5 102.5q14 68 -13 103.5t-94 35.5q-41 0 -75 -14.5t-48 -28.5l-14 -14h-28l86 225l8 25h253z" />
    <glyph glyph-name="five.subs" horiz-adv-x="431" 
d="M402 273l-227 1l-71 -186q50 44 131 44q78 0 111 -44t17 -121q-16 -78 -67 -121.5t-136 -43.5q-82 0 -117 38.5t-24 93.5h30q-10 -45 19 -75t98 -30q64 0 108.5 35.5t58.5 102.5q14 68 -13 103.5t-94 35.5q-41 0 -75 -14t-48 -28l-14 -15h-28l86 225l8 25h253z" />
    <glyph glyph-name="five.tf" horiz-adv-x="639" 
d="M577 661h-315l-99 -267q69 61 182 61q108 0 154.5 -61.5t23.5 -170.5q-23 -111 -93 -172t-186 -61q-114 0 -162 53.5t-32 131.5h33q-14 -66 27 -109t141 -43q91 0 154 51.5t83 148.5q20 98 -20 149.5t-134 51.5q-36 0 -69 -8.5t-54 -20.5t-37 -24t-23 -21l-7 -8h-34
l118 319l12 31h344z" />
    <glyph glyph-name="four.dnom" horiz-adv-x="404" 
d="M363 496l-75 -353h61l-6 -26h-60l-25 -117h-30l25 117h-255l5 26l329 353h31zM38 143h221l67 313z" />
    <glyph glyph-name="four.numr" horiz-adv-x="404" 
d="M363 760l-75 -353h61l-6 -26h-60l-25 -117h-30l25 117h-255l5 26l329 353h31zM38 407h221l67 313z" />
    <glyph glyph-name="four.subs" horiz-adv-x="404" 
d="M363 305l-75 -353h61l-6 -26h-60l-25 -117h-30l25 117h-255l5 26l329 353h31zM38 -48h221l67 313z" />
    <glyph glyph-name="four.tf" horiz-adv-x="639" 
d="M532 702l-105 -503h85l-6 -31h-85l-35 -168h-34l35 168h-355l7 31l457 503h36zM82 199h312l94 453z" />
    <glyph glyph-name="gravecomb.case" 
d="M49 760h-30l-51 107h39z" />
    <glyph glyph-name="guillemotleft.case" horiz-adv-x="407" 
d="M278 487l-156 -159l89 -146h-38l-86 141l4 16l146 148h41zM390 487l-156 -159l90 -146h-39l-86 141l3 16l146 148h42z" />
    <glyph glyph-name="guillemotright.case" horiz-adv-x="407" 
d="M241 330l-4 -16l-144 -141h-43l155 151l-86 154h38zM269 478l83 -148l-3 -16l-145 -141h-42l155 152l-86 153h38z" />
    <glyph glyph-name="guilsinglleft.case" horiz-adv-x="304" 
d="M281 478l-156 -159l88 -146h-38l-85 141l3 16l146 148h42z" />
    <glyph glyph-name="guilsinglright.case" horiz-adv-x="304" 
d="M162 478l83 -148l-3 -16l-145 -141h-41l154 152l-87 153h39z" />
    <glyph glyph-name="i.loclTRK" horiz-adv-x="203" 
d="M167 646l24 113h34l-24 -113h-34zM33 0l110 531h33l-110 -531h-33z" />
    <glyph glyph-name="nine.dnom" horiz-adv-x="458" 
d="M281 504q91 0 120 -56t1 -185q-32 -152 -84 -211t-147 -59q-83 0 -115 40.5t-22 88.5h31q-8 -42 17 -72.5t95 -30.5q69 0 113.5 46.5t74.5 171.5q-63 -83 -169 -83q-161 0 -123 182q36 168 208 168zM205 181q33 0 63 11t51 28.5t34 31.5t22 28q21 112 -2 155t-98 43
q-67 0 -111 -36t-59 -106q-16 -78 7.5 -116.5t92.5 -38.5z" />
    <glyph glyph-name="nine.numr" horiz-adv-x="458" 
d="M281 768q91 0 120 -56t1 -185q-32 -152 -84 -211t-147 -59q-83 0 -115 40.5t-22 88.5h31q-8 -42 17 -72.5t95 -30.5q69 0 113.5 46.5t74.5 171.5q-63 -83 -169 -83q-161 0 -123 182q36 168 208 168zM205 445q33 0 63 11t51 28.5t34 31.5t22 28q21 112 -2 155t-98 43
q-67 0 -111 -36t-59 -106q-16 -78 7.5 -116.5t92.5 -38.5z" />
    <glyph glyph-name="nine.subs" horiz-adv-x="458" 
d="M281 313q91 0 120 -56t1 -185q-32 -152 -84 -211t-147 -59q-83 0 -115 40.5t-22 88.5h31q-8 -42 17 -72.5t95 -30.5q69 0 113.5 46.5t74.5 171.5q-63 -83 -169 -83q-161 0 -123 182q36 168 208 168zM205 -10q33 0 63 11t51 28.5t34 31.5t22 28q21 112 -2 155t-98 43
q-67 0 -111 -36t-59 -106q-16 -78 7.5 -116.5t92.5 -38.5z" />
    <glyph glyph-name="nine.tf" horiz-adv-x="639" 
d="M408 712q125 1 164.5 -78.5t1.5 -262.5q-45 -213 -116 -297t-200 -84q-48 0 -85 12t-57.5 31t-34 43.5t-14 49t2.5 46.5h36q-13 -60 23.5 -105t134.5 -45q49 0 85.5 13.5t70.5 48t60.5 96.5t48.5 157q-87 -121 -238 -121q-111 0 -152 68.5t-15 190.5q49 237 284 237z
M302 248q47 0 88.5 15t71 40t47.5 45t32 42q33 164 0 227.5t-140 63.5q-96 0 -158 -52t-84 -154q-48 -227 143 -227z" />
    <glyph glyph-name="one.dnom" horiz-adv-x="211" 
d="M163 498h25l-105 -498h-31l98 467l-105 -47l6 29z" />
    <glyph glyph-name="one.numr" horiz-adv-x="211" 
d="M163 762h25l-105 -498h-31l98 467l-105 -47l6 29z" />
    <glyph glyph-name="one.subs" horiz-adv-x="211" 
d="M163 307h25l-105 -498h-31l98 467l-105 -47l6 29z" />
    <glyph glyph-name="one.tf" horiz-adv-x="639" 
d="M424 704l-140 -674h130l-7 -30h-287l7 30h123l135 647l-3 -9l-149 -68l8 34l152 70h31z" />
    <glyph glyph-name="paragraph.alt" horiz-adv-x="476" 
d="M494 760l-157 -760h-31l151 729h-93l-152 -729h-31l68 325q-125 2 -165 48t-14 169q25 123 85 169.5t184 48.5h155z" />
    <glyph glyph-name="parenleft.case" horiz-adv-x="253" 
d="M286 760h35l-11 -16q-12 -15 -32 -50t-41 -81.5t-42.5 -118.5t-34.5 -151q-16 -121 -14 -212t13 -144l11 -53h-36q-2 7 -5 19t-9.5 53t-9.5 85.5t0.5 113t14.5 138.5q13 82 34.5 155.5t42.5 119t40.5 79.5t31.5 49z" />
    <glyph glyph-name="parenright.case" horiz-adv-x="254" 
d="M144 760h35q4 -18 9 -52.5t3.5 -143.5t-24.5 -221q-16 -80 -40.5 -151.5t-48 -116.5t-44 -78.5t-33.5 -48.5l-13 -14h-38q5 5 13.5 15t33 47.5t46.5 80.5t47 115t41 151q22 110 25.5 214t-4.5 153z" />
    <glyph glyph-name="questiondown.case" horiz-adv-x="465" 
d="M364 704l-20 -95h-33l20 95h33zM300 549h31l-9 -42q-11 -53 -35 -89.5t-51 -56.5t-53.5 -40t-50 -53.5t-33.5 -82.5q-17 -80 8.5 -119t98.5 -39q68 0 113.5 41t61.5 121h34q-40 -193 -216 -193q-173 0 -136 187q9 45 28 79.5t40.5 53.5t46.5 39t46.5 37t39.5 46.5
t27 68.5z" />
    <glyph glyph-name="registered.alt" horiz-adv-x="469" 
d="M290 730q99 0 130 -55t12 -144q-18 -88 -73 -142t-154 -54q-97 0 -128 54t-13 142q19 89 73.5 144t152.5 55zM412 531q17 81 -10.5 131.5t-114.5 50.5t-136 -50.5t-66 -131.5q-17 -79 10.5 -128.5t114.5 -49.5q163 0 202 178zM196 643h79q44 0 60.5 -14t8.5 -53
q-7 -31 -22 -45.5t-42 -18.5l29 -93h-27l-26 91h-63l-20 -91h-24zM319 576q6 29 -6.5 38t-41.5 9h-54l-20 -93h54q19 0 30.5 2t22.5 13t15 31z" />
    <glyph glyph-name="section.sups" horiz-adv-x="274" 
d="M293 655h-23q3 15 2 25.5t-14.5 17t-40.5 6.5q-62 0 -70 -41q-5 -24 17 -36t50.5 -15t48.5 -19.5t13 -49.5q-7 -35 -39 -54q23 -16 16 -51q-13 -64 -105 -64q-47 0 -65.5 18.5t-11.5 55.5h23q-6 -28 7 -40.5t51 -12.5q68 0 76 44q5 25 -16.5 37.5t-50 15.5t-49 18.5
t-14.5 47.5q7 37 40 56q-23 15 -16 48q15 63 100 63q46 0 62.5 -17t8.5 -53zM252 542q3 17 -6 28.5t-22 15.5t-35.5 9t-33.5 10q-26 -17 -32 -47q-3 -16 6.5 -26.5t22.5 -14t34.5 -8.5t33.5 -10q27 16 32 43z" />
    <glyph glyph-name="seven.dnom" horiz-adv-x="345" 
d="M76 0h-32q15 72 51 147t76.5 130t78.5 99.5t63 67.5l25 23l-277 -1l6 27h315l-6 -27q-10 -9 -27 -24.5t-62 -66t-82.5 -102.5t-75.5 -127t-53 -146z" />
    <glyph glyph-name="seven.numr" horiz-adv-x="345" 
d="M76 264h-32q15 72 51 147t76.5 130t78.5 99.5t63 67.5l25 23l-277 -1l6 27h315l-6 -27q-10 -9 -27 -24.5t-62 -66t-82.5 -102.5t-75.5 -127t-53 -146z" />
    <glyph glyph-name="seven.subs" horiz-adv-x="345" 
d="M76 -191h-32q15 72 51 147t76.5 130t78.5 99.5t63 67.5l25 23l-277 -1l6 27h315l-6 -27q-10 -9 -27 -24.5t-62 -66t-82.5 -102.5t-75.5 -127t-53 -146z" />
    <glyph glyph-name="seven.tf" horiz-adv-x="639" 
d="M207 0h-38q21 103 71.5 209.5t107 184.5t110.5 141.5t89 96.5l35 33h-390l8 31h435l-8 -31q-14 -12 -37.5 -34.5t-87 -94.5t-116 -146t-105.5 -181t-74 -209z" />
    <glyph glyph-name="six.dnom" horiz-adv-x="458" 
d="M405 373h-30q10 43 -12 74.5t-86 31.5q-68 0 -114.5 -53t-77.5 -183q65 83 169 83q83 0 113 -44t13 -123q-35 -166 -207 -166q-90 0 -119.5 54.5t-4.5 171.5q33 155 87 220t147 65q78 0 106 -40.5t16 -90.5zM246 300q-44 0 -83 -21t-56.5 -40.5t-30.5 -40.5
q-18 -97 6 -138t97 -41q67 0 111 35.5t59 103.5q31 142 -103 142z" />
    <glyph glyph-name="six.numr" horiz-adv-x="458" 
d="M405 637h-30q10 43 -12 74.5t-86 31.5q-68 0 -114.5 -53t-77.5 -183q65 83 169 83q83 0 113 -44t13 -123q-35 -166 -207 -166q-90 0 -119.5 54.5t-4.5 171.5q33 155 87 220t147 65q78 0 106 -40.5t16 -90.5zM246 564q-44 0 -83 -21t-56.5 -40.5t-30.5 -40.5
q-18 -97 6 -138t97 -41q67 0 111 35.5t59 103.5q31 142 -103 142z" />
    <glyph glyph-name="six.subs" horiz-adv-x="458" 
d="M405 182h-30q10 43 -12 74.5t-86 31.5q-68 0 -114.5 -53t-77.5 -183q65 83 169 83q83 0 113 -44t13 -123q-35 -166 -207 -166q-90 0 -119.5 54.5t-4.5 171.5q33 155 87 220t147 65q78 0 106 -40.5t16 -90.5zM246 109q-44 0 -83 -21t-56.5 -40.5t-30.5 -40.5
q-18 -97 6 -138t97 -41q67 0 111 35.5t59 103.5q31 142 -103 142z" />
    <glyph glyph-name="six.tf" horiz-adv-x="639" 
d="M588 529h-35q13 62 -18.5 107t-121.5 45q-97 0 -161.5 -75.5t-109.5 -266.5q87 123 239 123q113 0 154 -62.5t18 -174.5q-49 -235 -284 -235q-123 0 -163.5 77.5t-6.5 241.5q46 218 120 310.5t201 92.5q45 0 79 -12t52.5 -31t30 -43t10.5 -49t-4 -48zM371 430
q-48 0 -90 -16t-72 -41.5t-47.5 -46.5t-31.5 -43q-27 -141 8 -201t138 -60q97 0 158.5 51.5t82.5 151.5q21 102 -14 153.5t-132 51.5z" />
    <glyph glyph-name="three.dnom" horiz-adv-x="406" 
d="M399 490l-5 -25l-203 -150h11q84 0 118.5 -43t18.5 -118q-34 -161 -202 -161q-79 0 -111 39t-20 96h29q-10 -47 16.5 -77t91.5 -30q66 0 109.5 34.5t56.5 99.5q14 64 -14 100t-97 36l-62 -7l4 24l210 157l-247 -2l6 27h290z" />
    <glyph glyph-name="three.numr" horiz-adv-x="406" 
d="M399 754l-5 -25l-203 -150h11q84 0 118.5 -43t18.5 -118q-34 -161 -202 -161q-79 0 -111 39t-20 96h29q-10 -47 16.5 -77t91.5 -30q66 0 109.5 34.5t56.5 99.5q14 64 -14 100t-97 36l-62 -7l4 24l210 157l-247 -2l6 27h290z" />
    <glyph glyph-name="three.subs" horiz-adv-x="406" 
d="M399 299l-5 -25l-203 -150h11q84 0 118.5 -43t18.5 -118q-34 -161 -202 -161q-79 0 -111 39t-20 96h29q-10 -47 16.5 -77t91.5 -30q66 0 109.5 34.5t56.5 99.5q14 64 -14 100t-97 36l-62 -7l4 24l210 157l-247 -2l6 27h290z" />
    <glyph glyph-name="three.tf" horiz-adv-x="639" 
d="M589 692l-6 -30l-289 -218q9 1 26 1q113 0 160.5 -61t25.5 -166q-22 -108 -90.5 -168t-186.5 -60q-106 0 -151.5 54.5t-29.5 133.5h33q-14 -68 24.5 -111.5t130.5 -43.5q94 0 155 50.5t80 144.5q20 94 -19.5 145t-137.5 51q-18 0 -39.5 -2.5t-34.5 -5.5l-12 -2l6 31
l296 227l-344 -1l7 31h396z" />
    <glyph glyph-name="tildecomb.case" 
d="M39 842h26q-16 -78 -79 -78q-20 0 -31.5 7t-15 15.5t-12.5 15.5t-24 7q-36 0 -49 -49h-25q17 77 79 77q25 0 35.5 -11t19 -22t27.5 -11q23 0 35 16.5t14 32.5z" />
    <glyph glyph-name="two.dnom" horiz-adv-x="394" 
d="M-16 4l7 32q86 62 178 134q56 45 80.5 66.5t50 55.5t33.5 71q23 113 -97 113q-55 0 -94.5 -29t-50.5 -82h-31q14 65 61 101t121 36q71 0 102.5 -36t18.5 -101q-9 -41 -33 -77t-51 -61t-80 -67q-40 -32 -82 -64.5t-65 -49.5l-22 -16l270 1l-6 -27h-310z" />
    <glyph glyph-name="two.numr" horiz-adv-x="394" 
d="M-16 268l7 32q86 62 178 134q56 45 80.5 66.5t50 55.5t33.5 71q23 113 -97 113q-55 0 -94.5 -29t-50.5 -82h-31q14 65 61 101t121 36q71 0 102.5 -36t18.5 -101q-9 -41 -33 -77t-51 -61t-80 -67q-40 -32 -82 -64.5t-65 -49.5l-22 -16l270 1l-6 -27h-310z" />
    <glyph glyph-name="two.subs" horiz-adv-x="394" 
d="M-16 -187l7 32q86 62 178 134q56 45 80.5 66.5t50 55.5t33.5 71q23 113 -97 113q-55 0 -94.5 -29t-50.5 -82h-31q14 65 61 101t121 36q71 0 102.5 -36t18.5 -101q-9 -41 -33 -77t-51 -61t-80 -67q-40 -32 -82 -64.5t-65 -48.5l-22 -17l270 1l-6 -27h-310z" />
    <glyph glyph-name="two.tf" horiz-adv-x="639" 
d="M46 5l9 40l33 25q33 26 95.5 74.5t119.5 94.5q58 47 87.5 72.5t64 61.5t52 70t25.5 74q33 162 -138 162q-78 0 -134 -41.5t-71 -117.5h-35q18 89 83 139.5t163 50.5q97 0 141.5 -50t25.5 -142q-12 -58 -45.5 -109t-71.5 -87t-112 -97q-56 -46 -116 -93t-92 -71l-33 -24
h381l-7 -32h-425z" />
    <glyph glyph-name="uni0302.case" 
d="M49 760h-35l-58 72l-87 -72h-39l118 101h27z" />
    <glyph glyph-name="uni0304.case" 
d="M-142 817h203l-7 -29h-203z" />
    <glyph glyph-name="uni0306.case" 
d="M39 846h32q-8 -34 -37 -60t-85 -26q-50 0 -71 27.5t-15 58.5h30q-4 -22 10.5 -40t51.5 -18q36 0 58 18t26 40z" />
    <glyph glyph-name="uni0307.case" 
d="M12 760l24 113h34l-24 -113h-34z" />
    <glyph glyph-name="uni0308.case" 
d="M-115 760l24 113h34l-24 -113h-34zM10 760l23 113h34l-23 -113h-34z" />
    <glyph glyph-name="uni030A.case" 
d="M-20 760q-30 0 -44 18t-8 46t27 46t52 18q30 0 44 -18t8 -46t-27 -46t-52 -18zM-15 783q17 0 30 11.5t17 29.5q5 19 -3 30t-27 11q-17 0 -30.5 -11.5t-17.5 -29.5q-7 -41 31 -41z" />
    <glyph glyph-name="uni030B.case" 
d="M-170 760l82 107h41l-90 -107h-33zM-60 760l90 107h43l-101 -107h-32z" />
    <glyph glyph-name="uni030C.case" 
d="M32 861h40l-118 -101h-28l-74 101h36l56 -71z" />
    <glyph glyph-name="uni0338.case" 
d="M-463 21l632 721h39l-632 -721h-39z" />
    <glyph glyph-name="zero.dnom" horiz-adv-x="471" 
d="M179 -7q-98 0 -126 62.5t2 190.5q29 135 81 195.5t152 60.5q98 0 125.5 -63t-2.5 -193q-28 -133 -80 -193t-152 -60zM185 20q75 0 122.5 52.5t73.5 173.5q27 125 4.5 177t-103.5 52q-76 0 -122.5 -53t-72.5 -176q-27 -124 -5.5 -175t103.5 -51z" />
    <glyph glyph-name="zero.numr" horiz-adv-x="471" 
d="M179 257q-98 0 -126 62.5t2 190.5q29 135 81 195.5t152 60.5q98 0 125.5 -63t-2.5 -193q-28 -133 -80 -193t-152 -60zM185 284q75 0 122.5 52.5t73.5 173.5q27 125 4.5 177t-103.5 52q-76 0 -122.5 -53t-72.5 -176q-27 -124 -5.5 -175t103.5 -51z" />
    <glyph glyph-name="zero.subs" horiz-adv-x="471" 
d="M179 -198q-98 0 -126 62.5t2 190.5q29 135 81 195.5t152 60.5q98 0 125.5 -63t-2.5 -193q-28 -133 -80 -193t-152 -60zM185 -171q75 0 122.5 52.5t73.5 173.5q27 125 4.5 177t-103.5 52q-76 0 -122.5 -53t-72.5 -176q-27 -124 -5.5 -175t103.5 -51z" />
    <glyph glyph-name="zero.tf" horiz-adv-x="639" 
d="M265 -10q-136 0 -173.5 88t3.5 270q39 190 111 276t209 86q135 0 172.5 -89.5t-3.5 -272.5q-39 -188 -111 -273t-208 -85zM272 22q109 0 174.5 75t102.5 251q37 180 6 255t-147 75q-109 0 -174.5 -76t-103.5 -254q-38 -179 -6.5 -252.5t148.5 -73.5z" />
    </font>
</defs>
</svg>
