<svg xmlns="http://www.w3.org/2000/svg">
<defs>
<font id="TofinoPersonal-Light" horiz-adv-x="0" >
  <font-face 
    font-family="Tofino Personal Light"
    font-weight="410"
    font-stretch="normal"
    units-per-em="1000"
    panose-1="2 0 0 0 0 0 0 0 0 0"
    ascent="760"
    descent="-240"
    x-height="526"
    cap-height="704"
    bbox="-683 -240 1077 1051"
    underline-thickness="50"
    underline-position="-225"
    unicode-range="U+000D-FB04"
  />
<missing-glyph horiz-adv-x="671" 
d="M362 540q8 -13 55 -18q1 -1 4 -1q1 1 1 3l4 9q-42 39 -54 36q-5 -2 -9 -14q-3 -10 -1 -15zM464 495l5 -1q15 0 17 11q2 9 -1 13q-3 5 -12 8q-1 1 -5 1q-14 0 -17 -11q-1 -5 2 -12q4 -8 11 -9zM582 486q4 2 2 16q0 10 -5 15q-12 8 -57 -7q-2 -1 -5 -1q0 -9 -2 -13
q2 -1 3 -1q56 -15 64 -9zM306 239q4 16 -3 25l-2 3h-1q-24 12 -85 12q-22 0 -38.5 -2.5t-22 -5.5t-5.5 -4q-3 -25 6 -50t31 -29q15 -3 38 -3q38 0 54 6q17 11 28 48zM485 188q22 2 30.5 27t6.5 52q-12 12 -67 12q-60 0 -84 -12q-1 0 -1 -2l-3 -1q-7 -8 -2 -25q3 -33 28 -48
q14 -6 52 -6q7 0 40 3zM511 465q77 -80 77 -194q0 -112 -74.5 -191t-178.5 -79t-177.5 79t-73.5 191q0 119 80 197q-27 39 -10 82q16 40 67 66t114 26q65 0 118 -27t70 -70q0 -1 1 -3q52 15 72 -1q18 -13 19 -38q2 -27 -14 -41q-13 -9 -31 -9q-17 0 -59 12zM241 439
q22 -44 102 -78t207 -28q-21 82 -85 132q-7 0 -10 1q-20 7 -28 23h-1q-2 1 -6.5 1.5t-6.5 0.5q-45 6 -62 18q-6 1 -16 1q-47 0 -88 -19q-20 -24 -6 -52zM182 539q-10 -25 5 -50q65 51 144 52q-1 11 3 26q13 28 32 32q29 6 80 -43l3 -2q12 4 19 4q1 0 13 -3q-22 26 -63 41
t-83 15q-52 0 -96 -21t-57 -51zM205 465q-69 -57 -85 -143q37 -1 78 12.5t66 34.5q-36 27 -50 57q-9 20 -9 39zM133 291l10 -9q20 11 72 11q67 0 91 -12q30 -15 59 0q24 12 90 12q54 0 72 -11q10 15 18 21q-10 -1 -31 -1q-133 0 -223 50q-28 -25 -71.5 -42t-86.5 -19z
M335 31q92 0 157 70.5t65 169.5q0 14 -1 21q-10 -9 -20 -23v-1q4 -35 -9 -64t-41 -32q-20 -2 -41 -2q-43 0 -60 9q-27 15 -36 57q-1 3 -1 6q-3 13 -14 13q-8 0 -11 -13q-2 -1 -2 -6q-9 -43 -37 -57q-14 -9 -60 -9q-21 0 -39 2q-28 3 -41.5 32t-9.5 64v1l-19 18v-16

<glyph glyph-name="f_f" unicode="ff" horiz-adv-x="574" 
d="M578 738h-41q-69 0 -93 -39.5t-24 -126.5v-41h152v-29h-152v-502h-33v502h-244v-502h-33v502h-73v29h73v41q0 100 29 148t119 48h43v-30h-41q-70 0 -93.5 -39t-23.5 -127v-41h244v41q0 100 29 148t119 48h43v-30z" />
    <glyph glyph-name="fi" unicode="fi" horiz-adv-x="505" 
d="M301 738h-41q-70 0 -93.5 -39t-23.5 -127v-41h152v-29h-152v-502h-33v502h-73v29h73v41q0 100 29 148t119 48h43v-30zM385 646v113h33v-113h-33zM385 0v531h33v-531h-33z" />
    <glyph glyph-name="fl" unicode="fl" horiz-adv-x="512" 
d="M301 738h-41q-70 0 -93.5 -39t-23.5 -127v-41h152v-29h-152v-502h-33v502h-73v29h73v41q0 100 29 148t119 48h43v-30zM388 0v760h33v-760h-33z" />
    <glyph glyph-name="f_f_i" unicode="ffi" horiz-adv-x="782" 
d="M387 531v41q0 100 29 148t119 48h44v-30h-42q-69 0 -93 -39.5t-24 -126.5v-41h151v-29h-151v-502h-33v502h-244v-502h-33v502h-73v29h73v41q0 100 29 148t119 48h43v-30h-41q-70 0 -93.5 -39t-23.5 -127v-41h244zM661 767h34v-130h-34v130zM661 0v531h33v-531h-33z" />
    <glyph glyph-name="f_f_l" unicode="ffl" horiz-adv-x="788" 
d="M387 531v41q0 100 29 148t119 48h43v-30h-41q-69 0 -93 -39.5t-24 -126.5v-41h151v-29h-151v-502h-33v502h-244v-502h-33v502h-73v29h73v41q0 100 29 148t119 48h43v-30h-41q-70 0 -93.5 -39t-23.5 -127v-41h244zM664 760h33v-760h-33v760z" />
    <glyph glyph-name=".notdef" horiz-adv-x="671" 
d="M362 540q8 -13 55 -18q1 -1 4 -1q1 1 1 3l4 9q-42 39 -54 36q-5 -2 -9 -14q-3 -10 -1 -15zM464 495l5 -1q15 0 17 11q2 9 -1 13q-3 5 -12 8q-1 1 -5 1q-14 0 -17 -11q-1 -5 2 -12q4 -8 11 -9zM582 486q4 2 2 16q0 10 -5 15q-12 8 -57 -7q-2 -1 -5 -1q0 -9 -2 -13
q2 -1 3 -1q56 -15 64 -9zM306 239q4 16 -3 25l-2 3h-1q-24 12 -85 12q-22 0 -38.5 -2.5t-22 -5.5t-5.5 -4q-3 -25 6 -50t31 -29q15 -3 38 -3q38 0 54 6q17 11 28 48zM485 188q22 2 30.5 27t6.5 52q-12 12 -67 12q-60 0 -84 -12q-1 0 -1 -2l-3 -1q-7 -8 -2 -25q3 -33 28 -48
q14 -6 52 -6q7 0 40 3zM511 465q77 -80 77 -194q0 -112 -74.5 -191t-178.5 -79t-177.5 79t-73.5 191q0 119 80 197q-27 39 -10 82q16 40 67 66t114 26q65 0 118 -27t70 -70q0 -1 1 -3q52 15 72 -1q18 -13 19 -38q2 -27 -14 -41q-13 -9 -31 -9q-17 0 -59 12zM241 439
q22 -44 102 -78t207 -28q-21 82 -85 132q-7 0 -10 1q-20 7 -28 23h-1q-2 1 -6.5 1.5t-6.5 0.5q-45 6 -62 18q-6 1 -16 1q-47 0 -88 -19q-20 -24 -6 -52zM182 539q-10 -25 5 -50q65 51 144 52q-1 11 3 26q13 28 32 32q29 6 80 -43l3 -2q12 4 19 4q1 0 13 -3q-22 26 -63 41
t-83 15q-52 0 -96 -21t-57 -51zM205 465q-69 -57 -85 -143q37 -1 78 12.5t66 34.5q-36 27 -50 57q-9 20 -9 39zM133 291l10 -9q20 11 72 11q67 0 91 -12q30 -15 59 0q24 12 90 12q54 0 72 -11q10 15 18 21q-10 -1 -31 -1q-133 0 -223 50q-28 -25 -71.5 -42t-86.5 -19z
M335 31q92 0 157 70.5t65 169.5q0 14 -1 21q-10 -9 -20 -23v-1q4 -35 -9 -64t-41 -32q-20 -2 -41 -2q-43 0 -60 9q-27 15 -36 57q-1 3 -1 6q-3 13 -14 13q-8 0 -11 -13q-2 -1 -2 -6q-9 -43 -37 -57q-14 -9 -60 -9q-21 0 -39 2q-28 3 -41.5 32t-9.5 64v1l-19 18v-16
q0 -99 64.5 -169.5t155.5 -70.5zM403 106q0 -20 -20 -33.5t-49 -13.5t-49 13.5t-20 33.5q0 19 20.5 32.5t48.5 13.5t48.5 -13.5t20.5 -32.5zM249 269l-4 -18q14 -8 14 -26q0 -13 -9 -22t-22 -9q-12 0 -21.5 9t-9.5 22q0 6 2 10l-14 11q-4 3 0 7q2 2 6 0l12 -11l3 6l-7 14
q-2 1 -1.5 3t2.5 3q4 2 6 -3l8 -12q0 1 2 1t3 1l-2 16q0 5 5 5q3 0 5 -4l1 -16q2 0 4.5 -0.5t3.5 -0.5l4 17q2 4 6 4q4 -3 3 -7zM491 253q1 -4 -1 -7l-13 -13q0 -1 0.5 -3.5t0.5 -4.5q0 -13 -9.5 -22t-22.5 -9q-12 0 -21 9t-9 22q0 18 15 26l-5 18q0 4 4 7q5 0 5 -4l4 -17
q2 1 7 1l3 16q0 4 5 4q4 0 4 -5l-3 -16l7 -2l7 12q3 5 5 3q2 -1 3 -3t0 -3l-9 -14q4 -3 4 -6l13 11q1 1 3 1t3 -1z" />
    <glyph glyph-name=".null" 
 />
    <glyph glyph-name="nonmarkingreturn" horiz-adv-x="333" 
 />
    <glyph glyph-name="NULL" 
 />
    <glyph glyph-name="NULL" 
 />
    <glyph glyph-name="CR" unicode="&#xd;" horiz-adv-x="219" 
 />
    <glyph glyph-name="space" unicode=" " horiz-adv-x="218" 
 />
    <glyph glyph-name="exclam" unicode="!" horiz-adv-x="215" 
d="M92 154l-1 550h33l-1 -550h-31zM91 0v94h33v-94h-33z" />
    <glyph glyph-name="quotedbl" unicode="&#x22;" horiz-adv-x="225" 
d="M54 600l-6 159h39l-6 -159h-27zM144 600l-6 159h40l-6 -159h-28z" />
    <glyph glyph-name="numbersign" unicode="#" horiz-adv-x="680" 
d="M599 476h-113l-46 -231h112v-29h-118l-43 -216h-32l43 216h-208l-43 -216h-32l43 216h-108v29h114l46 231h-113v29h119l39 197h32l-39 -197h208l39 197h32l-39 -197h107v-29zM408 245l46 231h-208l-46 -231h208z" />
    <glyph glyph-name="dollar" unicode="$" horiz-adv-x="550" 
d="M501 203q0 -76 -58 -120.5t-157 -46.5v-94h-26v94q-207 8 -207 199h33q0 -163 174 -170v300q-47 9 -74.5 18t-60 27t-48 49.5t-15.5 77.5q0 72 51 115.5t147 46.5v71h26v-71q103 -3 150 -50.5t47 -126.5h-32q0 141 -165 147v-277q42 -9 64 -14.5t56 -20t51 -32.5
t30.5 -49t13.5 -73zM96 537q0 -35 12.5 -60t38 -40.5t50 -23.5t63.5 -16v272q-86 -3 -125 -40t-39 -92zM286 360v-295q87 2 134 40t47 98q0 33 -10.5 58t-25.5 40.5t-41.5 27.5t-48 18t-55.5 13z" />
    <glyph glyph-name="percent" unicode="%" horiz-adv-x="704" 
d="M183 378q-144 0 -144 163q0 167 144 167q143 0 143 -167q0 -163 -143 -163zM183 403q60 0 86.5 34.5t26.5 103.5q0 70 -26.5 106t-86.5 36q-114 0 -114 -142q0 -69 27 -103.5t87 -34.5zM92 0l460 702h36l-460 -702h-36zM496 -6q-144 0 -144 163q0 167 144 167t144 -167
q0 -163 -144 -163zM496 19q60 0 86.5 34.5t26.5 103.5q0 142 -113 142t-113 -142q0 -138 113 -138z" />
    <glyph glyph-name="ampersand" unicode="&#x26;" horiz-adv-x="702" 
d="M650 0h-43q-26 27 -66 70q-32 -47 -85.5 -66.5t-133.5 -19.5q-238 0 -238 213q0 52 16 92.5t42 63t47 34t44 17.5q-33 38 -47 71.5t-14 81.5q0 162 176 162q166 0 166 -164h-34q0 133 -132 133q-74 0 -107 -33.5t-33 -97.5q0 -24 5.5 -46t12 -37t24.5 -38t30 -36t42 -45
t48 -51l165 -180q32 71 32 221h32q0 -165 -40 -246zM322 15q145 0 197 79q-137 147 -193 209l-73 79q-20 -5 -39.5 -15.5t-42.5 -30t-37.5 -55.5t-14.5 -83q0 -183 203 -183z" />
    <glyph glyph-name="quotesingle" unicode="'" horiz-adv-x="133" 
d="M53 600l-6 159h39l-6 -159h-27z" />
    <glyph glyph-name="parenleft" unicode="(" horiz-adv-x="258" 
d="M184 760h33q-4 -8 -11 -23t-25 -65t-32 -103t-25 -133t-11 -159t13 -157t31 -133t36 -98.5t31 -64.5l13 -22h-33q-5 7 -13.5 21t-30 61t-37.5 98.5t-29.5 132t-13.5 162.5t10.5 162t26 135.5t31 99.5t26.5 65z" />
    <glyph glyph-name="parenright" unicode=")" horiz-adv-x="258" 
d="M41 760h33q4 -8 11 -22.5t25 -63t32 -101t25 -133.5t11 -163t-13 -161.5t-31 -133.5t-36 -96.5t-31 -63.5l-13 -20h-33q5 8 13.5 22.5t30 63t37.5 100.5t29.5 131t13.5 158t-10.5 158t-26 135t-31 100.5t-25.5 67.5z" />
    <glyph glyph-name="asterisk" unicode="*" horiz-adv-x="337" 
d="M60 636l9 30l87 -32l-3 91h31l-2 -91l87 32l8 -30l-87 -26l64 -73l-26 -20l-59 77l-60 -77l-25 20l63 73z" />
    <glyph glyph-name="plus" unicode="+" horiz-adv-x="458" 
d="M416 323v-29h-171v-172h-31v172h-172v29h172v172h31v-172h171z" />
    <glyph glyph-name="comma" unicode="," horiz-adv-x="178" 
d="M56 -88h-31q23 44 37 107q6 28 9.5 51.5t3.5 33.5v9h37q1 -33 -14 -95q-7 -28 -17.5 -54.5t-17.5 -39.5z" />
    <glyph glyph-name="hyphen" unicode="-" horiz-adv-x="362" 
d="M70 305v30h222v-30h-222z" />
    <glyph glyph-name="period" unicode="." horiz-adv-x="161" 
d="M62 0v113h37v-113h-37z" />
    <glyph glyph-name="slash" unicode="/" horiz-adv-x="444" 
d="M60 -40l310 840h35l-310 -840h-35z" />
    <glyph glyph-name="zero" unicode="0" horiz-adv-x="619" 
d="M310 -10q-139 0 -194.5 85t-55.5 273q0 189 56 275.5t194 86.5t193.5 -86t55.5 -276q0 -188 -55.5 -273t-193.5 -85zM310 21q115 0 165 74.5t50 252.5q0 179 -50 254.5t-165 75.5q-116 0 -166 -75.5t-50 -254.5q0 -178 50 -252.5t166 -74.5z" />
    <glyph glyph-name="one" unicode="1" horiz-adv-x="256" 
d="M123 704h32v-704h-35v668l-138 -68v34z" />
    <glyph glyph-name="two" unicode="2" horiz-adv-x="495" 
d="M23 5v40l29 25q28 26 81.5 74.5t101.5 94.5q50 47 74 72t52 61.5t38.5 70.5t10.5 74q0 80 -46 121t-130 41q-83 0 -129.5 -41t-46.5 -118h-35q0 89 56 139.5t155 50.5t154.5 -50t55.5 -142q0 -44 -11 -80.5t-38.5 -74.5t-52.5 -64t-74 -74q-47 -46 -98.5 -93t-79.5 -71
l-28 -24h394v-32h-433z" />
    <glyph glyph-name="three" unicode="3" horiz-adv-x="525" 
d="M239 445q115 0 176.5 -61t61.5 -166q0 -108 -58 -168t-177 -60q-109 0 -166.5 54.5t-57.5 133.5h33q0 -67 50.5 -111.5t140.5 -44.5q100 0 150 50t50 146q0 92 -53.5 144t-149.5 52q-18 0 -39.5 -2.5t-33.5 -5.5l-13 -2v31l262 227l-359 -1v31h404v-30l-258 -219
q22 2 37 2z" />
    <glyph glyph-name="four" unicode="4" horiz-adv-x="510" 
d="M489 199v-31h-86v-168h-33v168h-363v31l360 503h36v-503h86zM47 199h323v456z" />
    <glyph glyph-name="five" unicode="5" horiz-adv-x="557" 
d="M285 455q110 0 170.5 -61.5t60.5 -170.5q0 -111 -58.5 -172t-176.5 -61q-116 0 -176.5 53.5t-60.5 131.5h33q0 -65 53.5 -109t150.5 -44q98 0 149 51.5t51 149.5q0 97 -54 149t-146 52q-39 0 -72 -8.5t-52 -20.5t-32 -24t-18 -21l-5 -8h-33l55 319l4 31h351v-31h-323
l-46 -271q57 65 175 65z" />
    <glyph glyph-name="six" unicode="6" horiz-adv-x="589" 
d="M314 462q226 0 226 -237q0 -235 -239 -235q-127 0 -184 77t-57 242q0 218 56.5 310.5t184.5 92.5q57 0 100.5 -17.5t66 -46t33.5 -58.5t11 -61h-35q0 60 -44 106t-132 46q-103 0 -151 -75t-54 -269q64 125 218 125zM301 21q205 0 205 204q0 101 -49.5 153t-145.5 52
q-51 0 -91.5 -16t-65 -42t-38 -47t-21.5 -43q4 -140 54.5 -200.5t151.5 -60.5z" />
    <glyph glyph-name="seven" unicode="7" horiz-adv-x="446" 
d="M152 0h-35q0 103 29.5 209.5t72 184.5t85 141.5t72.5 96.5l29 33h-406v31h444v-31q-12 -12 -31.5 -34.5t-69.5 -94.5t-88.5 -146t-70 -181t-31.5 -209z" />
    <glyph glyph-name="eight" unicode="8" horiz-adv-x="580" 
d="M50 190q0 48 16 85.5t40.5 57t47 29.5t41.5 11q-14 1 -33 9.5t-40 24.5t-35 46.5t-14 68.5q0 191 217 191q112 0 164.5 -51t52.5 -140q0 -38 -14 -68.5t-35 -46.5t-40 -24.5t-34 -9.5q18 -1 40.5 -11t47.5 -29.5t41.5 -57t16.5 -85.5q0 -200 -240 -200t-240 200zM85 191
q0 -169 205 -169t205 169q0 84 -49.5 125t-155.5 41t-155.5 -41t-49.5 -125zM108 520q0 -133 182 -133t182 133q0 161 -182 161t-182 -161z" />
    <glyph glyph-name="nine" unicode="9" horiz-adv-x="594" 
d="M292 712q128 1 184.5 -78t56.5 -263q0 -213 -55.5 -297t-185.5 -84q-61 0 -108 18t-72 46t-37.5 58t-12.5 60h35q0 -59 49.5 -105t145.5 -46q71 0 112.5 26t65.5 97t28 199q-61 -127 -219 -127q-115 0 -170.5 68t-55.5 191q0 237 239 237zM282 247q51 0 92 16t65.5 42
t38 46.5t21.5 42.5q-4 160 -53.5 223.5t-153.5 63.5q-205 0 -205 -206q0 -112 49.5 -170t145.5 -58z" />
    <glyph glyph-name="colon" unicode=":" horiz-adv-x="197" 
d="M80 389v113h37v-113h-37zM80 39v112h37v-112h-37z" />
    <glyph glyph-name="semicolon" unicode=";" horiz-adv-x="205" 
d="M81 350v113h37v-113h-37zM62 -88h-32q23 44 37 107q7 28 10 51.5t3 33.5v9h37q2 -33 -13 -95q-7 -28 -17.5 -54.5t-17.5 -39.5z" />
    <glyph glyph-name="less" unicode="&#x3c;" horiz-adv-x="500" 
d="M419 461v-31l-326 -118l326 -118v-31l-360 136v26z" />
    <glyph glyph-name="equal" unicode="=" horiz-adv-x="483" 
d="M62 354v30h358v-30h-358zM62 219v30h358v-30h-358z" />
    <glyph glyph-name="greater" unicode="&#x3e;" horiz-adv-x="499" 
d="M80 461l360 -136v-26l-360 -136v31l326 118l-326 118v31z" />
    <glyph glyph-name="question" unicode="?" horiz-adv-x="475" 
d="M233 154h-32l1 43q0 53 16.5 89t40 56.5t47 40t40 53.5t16.5 83q0 158 -144 158q-145 0 -145 -162h-34q0 192 179 192q178 0 178 -186q0 -53 -17 -90.5t-41 -58.5t-47.5 -41.5t-40.5 -53.5t-17 -80v-43zM201 0v94h33v-94h-33z" />
    <glyph glyph-name="at" unicode="@" horiz-adv-x="844" 
d="M784 277q0 -137 -29.5 -195.5t-90.5 -59.5h-1q-93 1 -103 130q-47 -94 -148 -94q-88 0 -130 54t-42 168q0 227 172 227q55 0 91.5 -24.5t54.5 -55.5l3 64h29v-299q0 -145 76 -145q44 0 67 49.5t23 180.5q0 381 -335 381q-91 0 -156.5 -29t-103 -82t-55 -120t-17.5 -150
q0 -366 333 -366q107 0 172 32v-29q-76 -28 -173 -28q-99 0 -170.5 29.5t-112.5 84t-59.5 123t-18.5 154.5q0 87 18.5 157t59 127.5t112.5 89.5t171 32q363 0 363 -406zM415 85q57 0 93.5 37.5t49.5 84.5v178q-45 96 -143 96q-68 0 -105 -50.5t-37 -150.5q0 -105 36 -150
t106 -45z" />
    <glyph glyph-name="A" unicode="A" horiz-adv-x="608" 
d="M558 0l-81 210h-348l-80 -210h-36l273 704h36l273 -704h-37zM141 241h325l-163 424z" />
    <glyph glyph-name="B" unicode="B" horiz-adv-x="638" 
d="M431 372q85 -15 118.5 -61.5t33.5 -120.5q0 -51 -8.5 -83t-33.5 -59t-74 -39.5t-126 -12.5h-249v711h250q120 0 170 -46t50 -128q0 -68 -26.5 -107.5t-104.5 -53.5zM341 677h-215v-290l215 -1q108 0 147.5 35t39.5 110q0 74 -45 110t-142 36zM126 28l215 -1
q122 0 164.5 36t42.5 129q0 82 -48 123t-159 41h-215v-328z" />
    <glyph glyph-name="C" unicode="C" horiz-adv-x="645" 
d="M339 -16q-154 0 -216.5 93t-62.5 274t62.5 275t216.5 94q246 0 251 -240h-34q-8 208 -217 208q-132 0 -188.5 -83t-56.5 -254t56.5 -253.5t188.5 -82.5q204 0 215 197h34q-10 -228 -249 -228z" />
    <glyph glyph-name="D" unicode="D" horiz-adv-x="660" 
d="M92 707h165q106 0 174.5 -21.5t105 -69.5t50 -109.5t13.5 -155.5q0 -75 -8 -128t-30 -98.5t-60.5 -72t-99 -41.5t-145.5 -15h-165v711zM126 28l132 -1q93 0 152 17t93.5 57.5t48 99t13.5 150.5t-13.5 150.5t-48 99.5t-93.5 58.5t-152 17.5h-132v-649z" />
    <glyph glyph-name="E" unicode="E" horiz-adv-x="547" 
d="M126 32h400v-32h-434v704h429v-32h-395v-288h345v-31h-345v-321z" />
    <glyph glyph-name="F" unicode="F" horiz-adv-x="530" 
d="M520 672h-394v-299h344v-31h-344v-342h-34v704h428v-32z" />
    <glyph glyph-name="G" unicode="G" horiz-adv-x="656" 
d="M587 333v-257q0 -5 -9 -15t-29 -23t-47.5 -25t-70.5 -20.5t-92 -8.5q-80 0 -135 25t-86 74.5t-44.5 114t-13.5 152.5q0 182 62.5 276t216.5 94q123 0 186.5 -63.5t63.5 -158.5h-34q-1 82 -57.5 136t-158.5 54q-132 0 -188.5 -83.5t-56.5 -254.5t56.5 -253t189.5 -82
q62 0 114.5 15.5t76 32t23.5 24.5v215h-166v31h199z" />
    <glyph glyph-name="H" unicode="H" horiz-adv-x="683" 
d="M556 704h35v-704h-35v352h-430v-352h-34v704h34v-319h430v319z" />
    <glyph glyph-name="I" unicode="I" horiz-adv-x="218" 
d="M92 0v704h34v-704h-34z" />
    <glyph glyph-name="J" unicode="J" horiz-adv-x="345" 
d="M52 0h-50v34h50q59 0 94 10t55 38.5t26 68t6 108.5l-1 445h34l2 -445q0 -51 -3 -85.5t-11.5 -65.5t-23 -50t-39 -33t-58.5 -19.5t-81 -5.5z" />
    <glyph glyph-name="K" unicode="K" horiz-adv-x="570" 
d="M518 0l-264 366l-128 -143v-223h-34v704h34v-439l386 439h42l-279 -313l282 -391h-39z" />
    <glyph glyph-name="L" unicode="L" horiz-adv-x="494" 
d="M126 31h353v-31h-387v704h34v-673z" />
    <glyph glyph-name="M" unicode="M" horiz-adv-x="808" 
d="M716 704l-2 -704h-34l4 668l-267 -670h-36l-259 675l2 -673h-32v704h53l256 -665l264 665h51z" />
    <glyph glyph-name="N" unicode="N" horiz-adv-x="704" 
d="M578 704h34v-704h-37l-445 650l-5 -650h-33l5 704h36l447 -651z" />
    <glyph glyph-name="O" unicode="O" horiz-adv-x="686" 
d="M343 -16q-157 0 -220 93t-63 274t63 275t220 94t220 -94t63 -275t-63 -274t-220 -93zM343 15q135 0 192 82t57 254q0 171 -57 254t-192 83t-192 -83t-57 -254t57 -253.5t192 -82.5z" />
    <glyph glyph-name="P" unicode="P" horiz-adv-x="619" 
d="M92 707h250q122 0 180.5 -47.5t58.5 -169.5q0 -123 -58.5 -170.5t-181.5 -47.5h-215v-272h-34v707zM126 305l215 -1q48 0 80.5 6t63 24t46 57t15.5 99t-15.5 98.5t-46 56.5t-63 24.5t-80.5 6.5h-215v-371z" />
    <glyph glyph-name="Q" unicode="Q" horiz-adv-x="688" 
d="M648 -56l-22 -25l-122 103q-62 -38 -161 -38q-157 0 -220 93t-63 274t63 275t220 94t220 -94t63 -275q0 -229 -98 -312zM94 351q0 -171 57 -253.5t192 -82.5t192 82t57 254q0 171 -57 254t-192 83t-192 -83t-57 -254z" />
    <glyph glyph-name="R" unicode="R" horiz-adv-x="640" 
d="M594 0h-39l-160 303q-34 -2 -53 -2h-216v-301h-34v707h250q123 0 180.5 -44.5t57.5 -158.5q0 -94 -37 -139.5t-114 -57.5zM126 333l216 -1q49 0 79.5 5t62 21t46.5 52t15 94q0 56 -15 92t-46 52.5t-62.5 22t-79.5 5.5h-216v-343z" />
    <glyph glyph-name="S" unicode="S" horiz-adv-x="618" 
d="M53 205h34q0 -89 56 -139t167 -51q116 -1 170 40.5t54 113.5q0 55 -25.5 90.5t-66.5 52t-90 27t-98.5 21.5t-90.5 29t-66.5 56t-25.5 96q0 85 57.5 132.5t177.5 46.5q124 -1 183.5 -54t59.5 -141h-33q0 30 -10 56.5t-32 51.5t-65 40t-103 16q-200 1 -200 -148
q0 -51 25.5 -83.5t66.5 -47.5t90 -24.5t98.5 -21.5t90.5 -31t66.5 -60.5t25.5 -103.5q0 -89 -66.5 -137.5t-192.5 -47.5q-122 1 -189.5 55.5t-67.5 165.5z" />
    <glyph glyph-name="T" unicode="T" horiz-adv-x="536" 
d="M525 704v-32h-240l-4 -672h-35l5 672h-240v32h514z" />
    <glyph glyph-name="U" unicode="U" horiz-adv-x="677" 
d="M338 -16q-80 0 -132.5 24.5t-80 75.5t-37.5 112.5t-10 152.5v355h34v-355q0 -176 47.5 -255t178.5 -79q132 0 179 79t47 255v355h36v-355q0 -91 -10.5 -153t-38 -112.5t-80.5 -75t-133 -24.5z" />
    <glyph glyph-name="V" unicode="V" horiz-adv-x="570" 
d="M530 704h36l-263 -704h-36l-263 704h38l244 -661z" />
    <glyph glyph-name="W" unicode="W" horiz-adv-x="925" 
d="M875 704h36l-212 -704h-37l-200 656l-193 -656h-36l-220 704h38l201 -661l193 661h34l203 -663z" />
    <glyph glyph-name="X" unicode="X" horiz-adv-x="594" 
d="M575 704l-258 -351l254 -353h-39l-235 327l-242 -327h-38l260 355l-251 349h39l233 -324l239 324h38z" />
    <glyph glyph-name="Y" unicode="Y" horiz-adv-x="553" 
d="M502 704h38l-241 -419v-285h-35v285l-251 419h40l229 -382z" />
    <glyph glyph-name="Z" unicode="Z" horiz-adv-x="531" 
d="M59 35h449v-30h-488v32l445 631h-416v31h455v-33z" />
    <glyph glyph-name="bracketleft" unicode="[" horiz-adv-x="307" 
d="M277 728h-144v-893h144v-31h-177v956h177v-32z" />
    <glyph glyph-name="backslash" unicode="\" horiz-adv-x="465" 
d="M405 -40h-35l-310 840h35z" />
    <glyph glyph-name="bracketright" unicode="]" horiz-adv-x="307" 
d="M207 760v-956h-177v31h144v893h-144v32h177z" />
    <glyph glyph-name="asciicircum" unicode="^" horiz-adv-x="395" 
d="M334 471h-32l-105 225l-105 -225h-32l125 262h24z" />
    <glyph glyph-name="underscore" unicode="_" horiz-adv-x="561" 
d="M80 0v29h400v-29h-400z" />
    <glyph glyph-name="grave" unicode="`" horiz-adv-x="253" 
d="M166 637h-32l-76 125h42z" />
    <glyph glyph-name="a" unicode="a" horiz-adv-x="551" 
d="M478 1h-30l-10 95q-44 -105 -205 -105q-95 0 -136 38t-41 114q0 102 87 132q57 20 217 19q70 -1 74 -1q0 55 -2.5 84.5t-11 60t-25.5 44t-45.5 22t-72.5 8.5q-51 0 -86.5 -13t-52 -35t-22.5 -42.5t-6 -44.5h-31q0 163 198 163q35 0 63 -4.5t47.5 -13.5t34 -22t22.5 -29.5
t13.5 -36t7 -42t2.5 -47.5t0 -52v-29v-133zM236 18q81 0 133 34t65 91v125q-174 0 -206 -3q-102 -10 -127 -63q-12 -25 -12 -60q0 -60 33.5 -92t113.5 -32z" />
    <glyph glyph-name="b" unicode="b" horiz-adv-x="580" 
d="M319 540q203 0 203 -277q0 -271 -203 -271q-146 0 -199 112l-10 -104h-30l10 134v626h33v-323q24 38 73 70.5t123 32.5zM315 21q173 0 173 242q0 118 -43.5 183t-129.5 65q-42 0 -77.5 -14t-58.5 -36.5t-35.5 -39t-20.5 -32.5v-226q11 -54 58.5 -98t133.5 -44z" />
    <glyph glyph-name="c" unicode="c" horiz-adv-x="537" 
d="M276 -9q-120 0 -168.5 71t-48.5 203q0 131 49 203t168 72q102 0 154.5 -51t52.5 -140h-33q-1 78 -46 120t-128 42q-98 0 -140.5 -63t-42.5 -183q0 -122 42.5 -183.5t140.5 -61.5q81 0 127 38t47 104h33q0 -77 -53.5 -124t-153.5 -47z" />
    <glyph glyph-name="d" unicode="d" horiz-adv-x="584" 
d="M500 0h-29l-10 106q-53 -114 -199 -114q-203 0 -203 271q0 277 203 277q74 0 123 -34t73 -74v328h33v-626zM265 21q85 0 133 44t60 98v217q-8 18 -21 36t-36 41.5t-58.5 38.5t-77.5 15q-86 0 -129 -65t-43 -183q0 -242 172 -242z" />
    <glyph glyph-name="e" unicode="e" horiz-adv-x="550" 
d="M278 19q50 0 88 15t56.5 37.5t27 43.5t8.5 39h34q0 -14 -4 -31t-18 -42t-35.5 -44t-62.5 -33t-94 -14q-117 0 -168 66.5t-51 206.5t51 208.5t168 68.5q219 0 219 -254h-404v-24q0 -54 7.5 -94.5t26.5 -76t57 -54t94 -18.5zM278 512q-92 0 -133.5 -53.5t-49.5 -144.5h366
q-10 198 -183 198z" />
    <glyph glyph-name="f" unicode="f" horiz-adv-x="297" 
d="M301 738h-41q-70 0 -93.5 -39t-23.5 -127v-41h152v-29h-152v-502h-33v502h-73v29h73v41q0 100 29 148t119 48h43v-30z" />
    <glyph glyph-name="g" unicode="g" horiz-adv-x="572" 
d="M469 531h30l-9 -130v-401q0 -44 -2.5 -72.5t-14.5 -63.5t-34 -55.5t-63.5 -34.5t-100.5 -14t-100.5 19t-59 45.5t-26.5 53.5t-9 46v19l32 1q0 -100 76 -138q36 -18 88 -18q50 0 85 12t53.5 29.5t28.5 48.5t12 56.5t2 65.5v99q-53 -107 -195 -107q-203 0 -203 271
q0 277 203 277q76 0 126 -34t72 -72zM265 21q84 0 131.5 42.5t60.5 95.5v232q-8 16 -21.5 33t-36.5 38.5t-58 35t-76 13.5q-86 0 -129 -65t-43 -183q0 -242 172 -242z" />
    <glyph glyph-name="h" unicode="h" horiz-adv-x="568" 
d="M302 540q95 0 138.5 -50.5t43.5 -174.5v-315h-33v314q0 101 -34 148.5t-118 47.5q-37 0 -69.5 -13.5t-55 -36t-36.5 -42t-25 -40.5v-378h-33v760h33v-335q26 45 73 80t116 35z" />
    <glyph glyph-name="i" unicode="i" horiz-adv-x="207" 
d="M87 646v113h33v-113h-33zM87 0v531h33v-531h-33z" />
    <glyph glyph-name="j" unicode="j" horiz-adv-x="219" 
d="M98 646v113h33v-113h-33zM-21 -172v30q30 0 50 3t33.5 14t20.5 20.5t10.5 33.5t4 42t0.5 57v503h33v-503q0 -43 -1 -66.5t-6 -50t-14.5 -39.5t-26.5 -24.5t-42.5 -15.5t-61.5 -4z" />
    <glyph glyph-name="k" unicode="k" horiz-adv-x="478" 
d="M436 0l-216 302l-96 -98v-204h-33v760h33v-515l278 286h41l-200 -206l231 -325h-38z" />
    <glyph glyph-name="l" unicode="l" horiz-adv-x="215" 
d="M91 0v760h33v-760h-33z" />
    <glyph glyph-name="m" unicode="m" horiz-adv-x="915" 
d="M655 540q90 0 133 -50.5t43 -174.5v-315h-33v314q0 101 -32.5 148.5t-113.5 47.5q-112 0 -179 -129q4 -27 4 -66v-315h-32v314q0 101 -32.5 148.5t-112.5 47.5q-35 0 -66 -13.5t-52.5 -36t-35 -42t-23.5 -40.5v-378h-33v395l-10 136h30l10 -112q25 46 70.5 83.5
t112.5 37.5q68 0 108.5 -29t55.5 -96q25 48 72 86.5t116 38.5z" />
    <glyph glyph-name="n" unicode="n" horiz-adv-x="577" 
d="M311 540q95 0 138.5 -50.5t43.5 -174.5v-315h-33v314q0 101 -34 148.5t-118 47.5q-69 0 -114.5 -40t-70.5 -90v-380h-33v395l-10 136h30l10 -111q25 46 72.5 83t118.5 37z" />
    <glyph glyph-name="o" unicode="o" horiz-adv-x="561" 
d="M281 -10q-124 0 -173 70.5t-49 203.5t49 204.5t173 72.5q123 1 172.5 -71.5t49.5 -205.5t-49.5 -203.5t-172.5 -70.5zM280 19q103 0 145.5 61t42.5 184t-42.5 185.5t-145.5 62.5q-102 0 -144.5 -62.5t-42.5 -185.5t42 -184t145 -61z" />
    <glyph glyph-name="p" unicode="p" horiz-adv-x="580" 
d="M319 540q203 0 203 -277q0 -271 -203 -271q-143 0 -196 107v-339h-33v642l-10 129h30l10 -106q22 40 72 77.5t127 37.5zM315 21q173 0 173 242q0 118 -43.5 183t-129.5 65q-42 0 -77.5 -15t-58 -38.5t-35.5 -41.5t-21 -36v-217q11 -54 58.5 -98t133.5 -44z" />
    <glyph glyph-name="q" unicode="q" horiz-adv-x="583" 
d="M470 531h29l-9 -107v-664h-33v339q-53 -107 -195 -107q-203 0 -203 271q0 277 203 277q74 0 124 -33.5t72 -70.5zM265 21q84 0 131.5 42.5t60.5 95.5v232q-8 16 -21.5 33t-36.5 38.5t-58 35t-76 13.5q-86 0 -129 -65t-43 -183q0 -242 172 -242z" />
    <glyph glyph-name="r" unicode="r" horiz-adv-x="337" 
d="M110 531l11 -127q6 19 17 38.5t32 43.5t58.5 39t85.5 15v-30q-41 0 -74.5 -13.5t-53 -32.5t-34 -43.5t-20.5 -41t-9 -31.5v-348h-33v384l-10 147h30z" />
    <glyph glyph-name="s" unicode="s" horiz-adv-x="504" 
d="M45 160h32q0 -139 175 -140q172 -3 174 113q0 38 -20 63t-52 36.5t-71.5 19t-78.5 16t-72 22t-53.5 41.5t-21.5 71q0 65 49.5 102t148.5 36q191 -3 191 -158h-31q0 60 -35.5 94.5t-123.5 35.5q-90 1 -127.5 -30.5t-37.5 -79.5q0 -41 27.5 -66t68.5 -33.5t88.5 -19
t88.5 -22.5t68.5 -44t27.5 -83q0 -146 -208 -143q-207 3 -207 169z" />
    <glyph glyph-name="t" unicode="t" horiz-adv-x="298" 
d="M238 29h44v-30h-46q-38 0 -64.5 10.5t-41 26t-22 43t-9.5 51t-2 59.5v313h-67v29h67v161l33 9v-170h148v-29h-148v-313q0 -39 3.5 -64t13.5 -49t33 -35.5t58 -11.5z" />
    <glyph glyph-name="u" unicode="u" horiz-adv-x="566" 
d="M493 0h-30l-11 128q-8 -18 -22 -38t-37.5 -44t-59.5 -39.5t-77 -15.5q-94 0 -138.5 50.5t-44.5 173.5l1 316h33l-1 -313q0 -102 34 -149t119 -47q42 0 78.5 18t59 46.5t34 48t19.5 38.5v358h33v-384z" />
    <glyph glyph-name="v" unicode="v" horiz-adv-x="471" 
d="M426 531h36l-209 -531h-43l-201 531h38l186 -500z" />
    <glyph glyph-name="w" unicode="w" horiz-adv-x="728" 
d="M685 531h34l-163 -531h-41l-152 479l-144 -479h-41l-169 532h35l155 -498l148 497h34l155 -495z" />
    <glyph glyph-name="x" unicode="x" horiz-adv-x="452" 
d="M443 531l-197 -263l192 -268h-41l-173 242l-176 -242h-39l197 267l-189 264h41l170 -238l176 238h39z" />
    <glyph glyph-name="y" unicode="y" horiz-adv-x="466" 
d="M422 531h35l-277 -749h-33l80 218h-10l-208 531h38l191 -500z" />
    <glyph glyph-name="z" unicode="z" horiz-adv-x="408" 
d="M28 526h359v-32l-336 -460l336 1v-29h-369v31l334 461l-324 -1v29z" />
    <glyph glyph-name="braceleft" unicode="{" horiz-adv-x="365" 
d="M335 762v-32q-89 0 -113 -23.5t-24 -93.5v-256q0 -59 -44 -70q7 -2 14 -5.5t18.5 -21t11.5 -44.5v-255q0 -70 24 -93.5t113 -23.5v-32q-57 0 -91 7t-51.5 27t-22.5 44.5t-5 68.5v257q0 32 -16.5 44t-70.5 12v30q54 0 70.5 11.5t16.5 43.5v259q0 45 5 69.5t22.5 43.5
t51 26t91.5 7z" />
    <glyph glyph-name="bar" unicode="|" horiz-adv-x="213" 
d="M91 -196v1016h31v-1016h-31z" />
    <glyph glyph-name="braceright" unicode="}" horiz-adv-x="365" 
d="M30 -188v32q89 0 113 23.5t24 93.5v256q0 59 43 70q-6 2 -13.5 5.5t-18.5 21t-11 44.5v255q0 70 -24 93.5t-113 23.5v32q57 0 91 -7t51.5 -26.5t22.5 -44t5 -69.5v-257q0 -32 16.5 -44t70.5 -12v-30q-54 0 -70.5 -11.5t-16.5 -43.5v-259q0 -45 -5 -69.5t-22.5 -43.5
t-51 -26t-91.5 -7z" />
    <glyph glyph-name="asciitilde" unicode="~" horiz-adv-x="473" 
d="M395 340h27q0 -29 -22 -56.5t-73 -27.5q-47 0 -96 27.5t-86 27.5q-34 0 -51 -19.5t-17 -35.5h-26q0 29 22 56.5t72 27.5q47 0 96 -27.5t86 -27.5q34 0 51 19.5t17 35.5z" />
    <glyph glyph-name="uni00A0" unicode="&#xa0;" horiz-adv-x="219" 
 />
    <glyph glyph-name="exclamdown" unicode="&#xa1;" horiz-adv-x="215" 
d="M91 437v94h33v-94h-33zM91 -172l1 549h31l1 -549h-33z" />
    <glyph glyph-name="cent" unicode="&#xa2;" horiz-adv-x="537" 
d="M289 591v-493q75 4 117.5 42t43.5 101h33q0 -75 -50 -121t-144 -50v-91h-30v91q-110 6 -155 76.5t-45 197.5q0 126 45 197.5t155 77.5v90h30v-90q96 -4 145 -54.5t49 -136.5h-33q-1 75 -42.5 117t-118.5 46zM93 344q0 -117 38.5 -178.5t127.5 -67.5v492
q-166 -9 -166 -246z" />
    <glyph glyph-name="sterling" unicode="&#xa3;" horiz-adv-x="499" 
d="M174 180q0 -111 -91 -153h377v-31h-430v31q5 1 12 3.5t26.5 13.5t34 26.5t26.5 44.5t12 65q0 53 -8 99h-103v28h98q-4 17 -16 63.5t-17.5 79t-5.5 69.5q0 87 52 138t138 51t138 -51.5t52 -136.5h-34q0 75 -43 117t-113 42t-113 -42t-43 -119q0 -34 5.5 -67t16.5 -77
t16 -67h165v-28h-160q8 -48 8 -99z" />
    <glyph glyph-name="currency" unicode="&#xa4;" horiz-adv-x="639" 
d="M581 84l-21 -22l-78 77q-56 -54 -161 -54t-161 54l-78 -78l-22 22l80 80q-41 59 -41 160q0 99 38 157l-78 79l22 22l75 -76q55 60 165 60q103 0 157 -51l77 75l21 -21l-77 -78q44 -60 44 -167q0 -103 -40 -160zM321 115q188 0 188 208q0 212 -188 212q-187 0 -187 -212
q0 -208 187 -208z" />
    <glyph glyph-name="yen" unicode="&#xa5;" horiz-adv-x="531" 
d="M518 704l-215 -366h93v-25h-107l-1 -1v-76h108v-26h-108v-210h-35v210h-111v26h111v76l-1 1h-110v25h95l-224 366h40l219 -356l208 356h38z" />
    <glyph glyph-name="brokenbar" unicode="&#xa6;" horiz-adv-x="213" 
d="M91 395v425h31v-425h-31zM122 245v-425h-31v425h31z" />
    <glyph glyph-name="section" unicode="&#xa7;" horiz-adv-x="511" 
d="M397 244q65 -35 65 -113q0 -143 -209 -143q-107 0 -157.5 40t-50.5 124h32q0 -68 41.5 -102t134.5 -34q90 0 132.5 31t42.5 83q0 51 -38.5 78t-93 37t-109.5 21t-93.5 43t-38.5 90q0 83 68 126q-63 34 -63 107q0 138 196 138q105 0 150 -38t45 -116h-31q0 61 -33.5 93.5
t-129.5 32.5q-163 0 -163 -110q0 -48 38.5 -73.5t93 -35t109.5 -21t93.5 -45t38.5 -93.5q0 -82 -70 -120zM89 399q0 -34 17.5 -56t49.5 -33.5t64.5 -18t75.5 -15t71 -18.5q66 37 66 105q0 35 -17.5 58.5t-50 36t-65 19.5t-76 15.5t-70.5 18.5q-65 -40 -65 -112z" />
    <glyph glyph-name="dieresis" unicode="&#xa8;" horiz-adv-x="331" 
d="M63 637v113h34v-113h-34zM192 637v113h34v-113h-34z" />
    <glyph glyph-name="copyright" unicode="&#xa9;" horiz-adv-x="773" 
d="M386 -4q-90 0 -155.5 28t-101.5 78.5t-52.5 111t-16.5 134.5q0 75 16.5 136t52.5 112.5t101.5 80t155.5 28.5q92 0 158 -28.5t101.5 -80t51.5 -112.5t16 -136q0 -352 -327 -352zM386 21q83 0 142.5 26t93 72.5t48.5 103t15 125.5q0 70 -15 127t-48.5 104.5t-93.5 74
t-142 26.5t-141.5 -26.5t-92.5 -74t-48.5 -104.5t-15.5 -127q0 -69 15.5 -125.5t48.5 -103t92.5 -72.5t141.5 -26zM389 143q-87 0 -124.5 53t-37.5 154q0 102 37 155.5t125 53.5q69 0 105 -36t38 -102h-33q-1 53 -30.5 81.5t-79.5 28.5q-68 0 -98.5 -45t-30.5 -136
t30.5 -135t98.5 -44q49 0 78 26.5t31 76.5h32q-1 -63 -37 -97t-104 -34z" />
    <glyph glyph-name="ordfeminine" unicode="&#xaa;" horiz-adv-x="388" 
d="M340 361h-28l-7 64q-31 -71 -141 -71q-68 0 -97 26.5t-29 80.5q0 76 67 95q40 12 169 10h27q0 88 -17.5 118.5t-87.5 30.5q-112 0 -112 -91h-30q0 115 141 115q29 0 51 -5t37 -11t25 -21.5t15 -25t7.5 -33.5t2.5 -36.5v-42.5v-19v-92zM169 376q56 0 90 23.5t42 63.5v82
q-128 1 -156 -4q-64 -10 -72 -60q-2 -9 -2 -21q0 -84 98 -84z" />
    <glyph glyph-name="guillemotleft" unicode="&#xab;" horiz-adv-x="414" 
d="M229 418l-123 -156l123 -149h-39l-117 141v16l117 148h39zM342 418l-123 -156l123 -149h-38l-117 141v16l117 148h38z" />
    <glyph glyph-name="registered" unicode="&#xae;" horiz-adv-x="773" 
d="M386 705q92 0 158 -28.5t101.5 -80t51.5 -112.5t16 -136q0 -352 -327 -352q-90 0 -155.5 28t-101.5 78.5t-52.5 111t-16.5 134.5q0 75 16.5 136t52.5 112.5t101.5 80t155.5 28.5zM386 21q83 0 142.5 26t93 72.5t48.5 103t15 125.5q0 70 -15 127t-48.5 104.5t-93.5 74
t-142 26.5t-141.5 -26.5t-92.5 -74t-48.5 -104.5t-15.5 -127q0 -69 15.5 -125.5t48.5 -103t92.5 -72.5t141.5 -26zM539 430q0 -56 -23.5 -82t-72.5 -32l91 -170h-33l-90 168h-123v-168h-31v400h143q71 0 105 -25t34 -91zM288 341h112q24 0 40 2.5t32.5 10.5t25 27t8.5 49
q0 54 -28 71.5t-78 17.5h-112v-178z" />
    <glyph glyph-name="macron" unicode="&#xaf;" horiz-adv-x="346" 
d="M60 694h206v-28h-206v28z" />
    <glyph glyph-name="degree" unicode="&#xb0;" horiz-adv-x="294" 
d="M147 521q-87 0 -87 99q0 101 87 101t87 -101q0 -99 -87 -99zM147 545q59 0 59 75q0 77 -59 77t-59 -77q0 -75 59 -75z" />
    <glyph glyph-name="plusminus" unicode="&#xb1;" horiz-adv-x="496" 
d="M264 365h162v-29h-162v-133h-31v133h-163v29h163v130h31v-130zM70 122v29h356v-29h-356z" />
    <glyph glyph-name="uni00B2" unicode="&#xb2;" horiz-adv-x="394" 
d="M38 347v32q73 62 149 134q36 34 52 50.5t36 42t27.5 49t7.5 51.5q0 55 -31.5 84t-88.5 29q-58 0 -90 -29t-32 -82h-31q0 65 40 101t113 36q72 0 111 -36t39 -101q0 -31 -8 -56.5t-27.5 -52.5t-36.5 -45t-52 -51q-32 -32 -67.5 -64.5t-54.5 -48.5l-19 -17l273 1v-27h-310z
" />
    <glyph glyph-name="uni00B3" unicode="&#xb3;" horiz-adv-x="406" 
d="M190 658q84 0 127.5 -43t43.5 -118t-41 -118t-126 -43q-80 0 -120.5 39t-40.5 96h30q0 -46 34.5 -77t96.5 -31q137 0 137 135q0 63 -37 99.5t-103 36.5l-61 -7v24l182 157l-252 -2v27h290v-25l-176 -151q5 1 16 1z" />
    <glyph glyph-name="acute" unicode="&#xb4;" horiz-adv-x="253" 
d="M59 637l66 125h42l-77 -125h-31z" />
    <glyph glyph-name="paragraph" unicode="&#xb6;" horiz-adv-x="518" 
d="M427 760v-760h-31v729h-96v-729h-31v325q-127 2 -178 48t-51 169q0 124 51 170t178 48h158zM74 542q0 -59 12 -96.5t39.5 -56.5t59.5 -26t84 -7v372q-52 0 -84 -6.5t-59.5 -25.5t-39.5 -57t-12 -97z" />
    <glyph glyph-name="periodcentered" unicode="&#xb7;" horiz-adv-x="190" 
d="M78 239v113h37v-113h-37z" />
    <glyph glyph-name="cedilla" unicode="&#xb8;" horiz-adv-x="281" 
d="M149 3l-27 -56q87 -5 87 -70q0 -41 -25 -57.5t-75 -16.5l-48 5v25q20 -5 45 -5q39 0 55.5 10t16.5 40q0 50 -87 50h-6l35 75h29z" />
    <glyph glyph-name="uni00B9" unicode="&#xb9;" horiz-adv-x="211" 
d="M112 841h25v-498h-30v467l-97 -47v29z" />
    <glyph glyph-name="ordmasculine" unicode="&#xba;" horiz-adv-x="385" 
d="M193 352q-88 0 -123.5 49.5t-35.5 143.5t35.5 144t123.5 51t123 -49.5t35 -145.5q0 -94 -35 -143.5t-123 -49.5zM193 379q69 0 97.5 41t28.5 125q0 85 -28.5 127t-97.5 42t-97.5 -42t-28.5 -127q0 -84 28.5 -125t97.5 -41z" />
    <glyph glyph-name="guillemotright" unicode="&#xbb;" horiz-adv-x="414" 
d="M227 270v-16l-117 -141h-38l123 149l-123 156h38zM224 418l117 -148v-16l-117 -141h-39l123 149l-123 156h39z" />
    <glyph glyph-name="onequarter" unicode="&#xbc;" horiz-adv-x="791" 
d="M591 796h35l-547 -836h-34zM107 264v467l-97 -47v29l102 49h25v-498h-30zM760 143v-26h-60v-117h-30v117h-255v26l253 353h32v-353h60zM447 143h223v315z" />
    <glyph glyph-name="onehalf" unicode="&#xbd;" horiz-adv-x="849" 
d="M591 796h35l-547 -836h-34zM107 264v467l-97 -47v29l102 49h25v-498h-30zM530 30l273 1v-27h-310v32q73 62 149 134q36 34 52 50.5t36 42t27.5 49t7.5 51.5q0 55 -31.5 84t-88.5 29q-58 0 -90 -29t-32 -82h-31q0 65 40 101t113 36q72 0 111 -36t39 -101q0 -31 -8 -56.5
t-27.5 -52.5t-36.5 -45t-52 -51q-32 -32 -67.5 -64.5t-54.5 -49.5z" />
    <glyph glyph-name="threequarters" unicode="&#xbe;" horiz-adv-x="975" 
d="M775 796h35l-547 -836h-34zM361 418q0 -75 -41 -118t-126 -43q-80 0 -120.5 39t-40.5 96h30q0 -46 34.5 -77t96.5 -31q137 0 137 135q0 63 -37 99.5t-103 36.5l-61 -7v24l182 157l-252 -2v27h290v-25l-176 -151q5 1 16 1q84 0 127.5 -43t43.5 -118zM944 143v-26h-60v-117
h-30v117h-255v26l253 353h32v-353h60zM631 143h223v315z" />
    <glyph glyph-name="questiondown" unicode="&#xbf;" horiz-adv-x="475" 
d="M274 529v-95h-33v95h33zM242 374h32l-1 -43q0 -53 -16.5 -89t-40 -56.5t-47 -40t-40 -53t-16.5 -82.5q0 -158 144 -158t144 162h34q0 -193 -178 -193t-178 187q0 53 17 90.5t40.5 58.5t47.5 41t41 53t17 80v43z" />
    <glyph glyph-name="Agrave" unicode="&#xc0;" horiz-adv-x="608" 
d="M323 760h-33l-76 107h42zM558 0l-81 210h-348l-80 -210h-36l273 704h36l273 -704h-37zM141 241h325l-163 424z" />
    <glyph glyph-name="Aacute" unicode="&#xc1;" horiz-adv-x="608" 
d="M397 867l-77 -107h-32l66 107h43zM558 0l-81 210h-348l-80 -210h-36l273 704h36l273 -704h-37zM141 241h325l-163 424z" />
    <glyph glyph-name="Acircumflex" unicode="&#xc2;" horiz-adv-x="608" 
d="M304 832l-74 -72h-38l98 101h28l98 -101h-38zM558 0l-81 210h-348l-80 -210h-36l273 704h36l273 -704h-37zM141 241h325l-163 424z" />
    <glyph glyph-name="Atilde" unicode="&#xc3;" horiz-adv-x="608" 
d="M258 809q-39 0 -39 -49h-26q0 77 64 77q31 0 51.5 -22t41.5 -22q40 0 40 49h25q0 -78 -62 -78q-32 0 -53 22.5t-42 22.5zM558 0l-81 210h-348l-80 -210h-36l273 704h36l273 -704h-37zM141 241h325l-163 424z" />
    <glyph glyph-name="Adieresis" unicode="&#xc4;" horiz-adv-x="608" 
d="M258 873v-113h-34v113h34zM385 873v-113h-34v113h34zM558 0l-81 210h-348l-80 -210h-36l273 704h36l273 -704h-37zM141 241h325l-163 424z" />
    <glyph glyph-name="Aring" unicode="&#xc5;" horiz-adv-x="608" 
d="M304 760q-31 0 -48.5 18t-17.5 46t17.5 46t48.5 18t49 -18t18 -46t-18 -46t-49 -18zM304 865q-18 0 -29 -11t-11 -30t11 -30t29 -11t29 11t11 30t-11 30t-29 11zM558 0l-81 210h-348l-80 -210h-36l273 704h36l273 -704h-37zM141 241h325l-163 424z" />
    <glyph glyph-name="AE" unicode="&#xc6;" horiz-adv-x="877" 
d="M458 32h398v-32h-432v210h-253l-119 -210h-39l400 704h439v-32h-394v-288h344v-31h-344v-321zM189 242h235v416z" />
    <glyph glyph-name="Ccedilla" unicode="&#xc7;" horiz-adv-x="645" 
d="M339 15q204 0 215 197h34q-9 -219 -231 -228l-22 -46q87 -5 87 -70q0 -41 -25 -57.5t-75 -16.5l-48 5v25q20 -5 45 -5q39 0 55.5 10t16.5 40q0 50 -87 50h-6l30 65q-148 4 -208 97t-60 270q0 181 62.5 275t216.5 94q246 0 251 -240h-34q-8 208 -217 208
q-132 0 -188.5 -83t-56.5 -254t56.5 -253.5t188.5 -82.5z" />
    <glyph glyph-name="Egrave" unicode="&#xc8;" horiz-adv-x="547" 
d="M324 760h-33l-76 107h42zM126 32h400v-32h-434v704h429v-32h-395v-288h345v-31h-345v-321z" />
    <glyph glyph-name="Eacute" unicode="&#xc9;" horiz-adv-x="547" 
d="M398 867l-77 -107h-32l66 107h43zM126 32h400v-32h-434v704h429v-32h-395v-288h345v-31h-345v-321z" />
    <glyph glyph-name="Ecircumflex" unicode="&#xca;" horiz-adv-x="547" 
d="M305 832l-74 -72h-38l98 101h28l98 -101h-38zM126 32h400v-32h-434v704h429v-32h-395v-288h345v-31h-345v-321z" />
    <glyph glyph-name="Edieresis" unicode="&#xcb;" horiz-adv-x="547" 
d="M259 873v-113h-34v113h34zM386 873v-113h-34v113h34zM126 32h400v-32h-434v704h429v-32h-395v-288h345v-31h-345v-321z" />
    <glyph glyph-name="Igrave" unicode="&#xcc;" horiz-adv-x="218" 
d="M129 760h-33l-76 107h42zM92 0v704h34v-704h-34z" />
    <glyph glyph-name="Iacute" unicode="&#xcd;" horiz-adv-x="218" 
d="M94 760l66 107h43l-77 -107h-32zM92 0v704h34v-704h-34z" />
    <glyph glyph-name="Icircumflex" unicode="&#xce;" horiz-adv-x="218" 
d="M124 861l98 -101h-38l-74 72l-74 -72h-38l98 101h28zM92 0v704h34v-704h-34z" />
    <glyph glyph-name="Idieresis" unicode="&#xcf;" horiz-adv-x="218" 
d="M30 760v113h34v-113h-34zM157 760v113h34v-113h-34zM92 0v704h34v-704h-34z" />
    <glyph glyph-name="Eth" unicode="&#xd0;" horiz-adv-x="660" 
d="M92 707h165q106 0 174.5 -21.5t105 -69.5t50 -109.5t13.5 -155.5q0 -75 -8 -128t-30 -98.5t-60.5 -72t-99 -41.5t-145.5 -15h-165v343h-75v28h75v340zM126 28l132 -1q93 0 152 17t93.5 57.5t48 99t13.5 150.5t-13.5 150.5t-48 99.5t-93.5 58.5t-152 17.5h-132v-310h138
v-28h-138v-311z" />
    <glyph glyph-name="Ntilde" unicode="&#xd1;" horiz-adv-x="704" 
d="M307 809q-39 0 -39 -49h-26q0 77 64 77q31 0 51.5 -22t41.5 -22q40 0 40 49h25q0 -78 -62 -78q-32 0 -53 22.5t-42 22.5zM578 704h34v-704h-37l-445 650l-5 -650h-33l5 704h36l447 -651z" />
    <glyph glyph-name="Ograve" unicode="&#xd2;" horiz-adv-x="686" 
d="M362 761h-33l-76 107h42zM343 -16q-157 0 -220 93t-63 274t63 275t220 94t220 -94t63 -275t-63 -274t-220 -93zM343 15q135 0 192 82t57 254q0 171 -57 254t-192 83t-192 -83t-57 -254t57 -253.5t192 -82.5z" />
    <glyph glyph-name="Oacute" unicode="&#xd3;" horiz-adv-x="686" 
d="M327 761l66 107h43l-77 -107h-32zM343 -16q-157 0 -220 93t-63 274t63 275t220 94t220 -94t63 -275t-63 -274t-220 -93zM343 15q135 0 192 82t57 254q0 171 -57 254t-192 83t-192 -83t-57 -254t57 -253.5t192 -82.5z" />
    <glyph glyph-name="Ocircumflex" unicode="&#xd4;" horiz-adv-x="686" 
d="M343 833l-74 -72h-38l98 101h28l98 -101h-38zM343 720q157 0 220 -94t63 -275t-63 -274t-220 -93t-220 93t-63 274t63 275t220 94zM343 15q135 0 192 82t57 254q0 171 -57 254t-192 83t-192 -83t-57 -254t57 -253.5t192 -82.5z" />
    <glyph glyph-name="Otilde" unicode="&#xd5;" horiz-adv-x="686" 
d="M429 843h25q0 -78 -62 -78q-32 0 -53 22.5t-42 22.5q-39 0 -39 -49h-26q0 77 64 77q31 0 51.5 -22t41.5 -22q40 0 40 49zM343 -16q-157 0 -220 93t-63 274t63 275t220 94t220 -94t63 -275t-63 -274t-220 -93zM343 15q135 0 192 82t57 254q0 171 -57 254t-192 83t-192 -83
t-57 -254t57 -253.5t192 -82.5z" />
    <glyph glyph-name="Odieresis" unicode="&#xd6;" horiz-adv-x="686" 
d="M263 761v113h34v-113h-34zM390 761v113h34v-113h-34zM343 -16q-157 0 -220 93t-63 274t63 275t220 94t220 -94t63 -275t-63 -274t-220 -93zM343 15q135 0 192 82t57 254q0 171 -57 254t-192 83t-192 -83t-57 -254t57 -253.5t192 -82.5z" />
    <glyph glyph-name="multiply" unicode="&#xd7;" horiz-adv-x="464" 
d="M391 446l-139 -143l139 -143l-22 -22l-138 143l-138 -143l-21 22l138 143l-138 143l21 21l138 -142l138 142z" />
    <glyph glyph-name="Oslash" unicode="&#xd8;" horiz-adv-x="686" 
d="M604 714l-51 -75q73 -87 73 -288q0 -181 -63 -274t-220 -93q-127 0 -194 64l-38 -55h-36l53 78q-68 87 -68 280q0 181 63 275t220 94q121 0 188 -59l36 53h37zM94 351q0 -171 55 -250l362 531q-59 56 -168 56q-135 0 -192 -83t-57 -254zM343 15q135 0 192 82t57 254
q0 178 -60 258l-364 -532q60 -62 175 -62z" />
    <glyph glyph-name="Ugrave" unicode="&#xd9;" horiz-adv-x="677" 
d="M358 760h-33l-76 107h42zM338 -16q-80 0 -132.5 24.5t-80 75.5t-37.5 112.5t-10 152.5v355h34v-355q0 -176 47.5 -255t178.5 -79q132 0 179 79t47 255v355h36v-355q0 -91 -10.5 -153t-38 -112.5t-80.5 -75t-133 -24.5z" />
    <glyph glyph-name="Uacute" unicode="&#xda;" horiz-adv-x="677" 
d="M323 760l66 107h43l-77 -107h-32zM338 -16q-80 0 -132.5 24.5t-80 75.5t-37.5 112.5t-10 152.5v355h34v-355q0 -176 47.5 -255t178.5 -79q132 0 179 79t47 255v355h36v-355q0 -91 -10.5 -153t-38 -112.5t-80.5 -75t-133 -24.5z" />
    <glyph glyph-name="Ucircumflex" unicode="&#xdb;" horiz-adv-x="677" 
d="M339 832l-74 -72h-38l98 101h28l98 -101h-38zM564 704h36v-355q0 -91 -10.5 -153t-38 -112.5t-80.5 -75t-133 -24.5t-132.5 24.5t-80 75.5t-37.5 112.5t-10 152.5v355h34v-355q0 -176 47.5 -255t178.5 -79q132 0 179 79t47 255v355z" />
    <glyph glyph-name="Udieresis" unicode="&#xdc;" horiz-adv-x="677" 
d="M259 760v113h34v-113h-34zM386 760v113h34v-113h-34zM338 -16q-80 0 -132.5 24.5t-80 75.5t-37.5 112.5t-10 152.5v355h34v-355q0 -176 47.5 -255t178.5 -79q132 0 179 79t47 255v355h36v-355q0 -91 -10.5 -153t-38 -112.5t-80.5 -75t-133 -24.5z" />
    <glyph glyph-name="Yacute" unicode="&#xdd;" horiz-adv-x="553" 
d="M369 867l-77 -107h-32l66 107h43zM502 704h38l-241 -419v-285h-35v285l-251 419h40l229 -382z" />
    <glyph glyph-name="Thorn" unicode="&#xde;" horiz-adv-x="610" 
d="M126 580h207q122 0 180.5 -48t58.5 -170q0 -123 -58.5 -170.5t-181.5 -47.5h-206v-144h-34v704h34v-124zM126 177l206 -1q48 0 80.5 6t63 24t46 57t15.5 99t-15.5 98.5t-46 56.5t-63 24.5t-80.5 6.5h-206v-371z" />
    <glyph glyph-name="germandbls" unicode="&#xdf;" horiz-adv-x="549" 
d="M469 569q0 -51 -21.5 -87t-55 -52t-55 -22t-39.5 -7q15 1 32.5 -0.5t48.5 -12t55 -29.5t42 -58t18 -93q0 -111 -69 -159.5t-238 -48.5v30q153 0 213 38.5t60 139.5q0 47 -15 80t-36.5 51t-58.5 28.5t-68 14t-79 4.5v29q232 0 232 154q0 170 -155 170q-156 -1 -156 -170
v-569h-33v565q0 92 44.5 147t143.5 56h1q99 0 144 -55t45 -144z" />
    <glyph glyph-name="agrave" unicode="&#xe0;" horiz-adv-x="551" 
d="M284 637h-32l-76 125h42zM478 1h-30l-10 95q-44 -105 -205 -105q-95 0 -136 38t-41 114q0 102 87 132q57 20 217 19q70 -1 74 -1q0 55 -2.5 84.5t-11 60t-25.5 44t-45.5 22t-72.5 8.5q-51 0 -86.5 -13t-52 -35t-22.5 -42.5t-6 -44.5h-31q0 163 198 163q35 0 63 -4.5
t47.5 -13.5t34 -22t22.5 -29.5t13.5 -36t7 -42t2.5 -47.5t0 -52v-29v-133zM236 18q81 0 133 34t65 91v125q-174 0 -206 -3q-102 -10 -127 -63q-12 -25 -12 -60q0 -60 33.5 -92t113.5 -32z" />
    <glyph glyph-name="aacute" unicode="&#xe1;" horiz-adv-x="551" 
d="M346 762l-77 -125h-31l66 125h42zM478 1h-30l-10 95q-44 -105 -205 -105q-95 0 -136 38t-41 114q0 102 87 132q57 20 217 19q70 -1 74 -1q0 55 -2.5 84.5t-11 60t-25.5 44t-45.5 22t-72.5 8.5q-51 0 -86.5 -13t-52 -35t-22.5 -42.5t-6 -44.5h-31q0 163 198 163
q35 0 63 -4.5t47.5 -13.5t34 -22t22.5 -29.5t13.5 -36t7 -42t2.5 -47.5t0 -52v-29v-133zM236 18q81 0 133 34t65 91v125q-174 0 -206 -3q-102 -10 -127 -63q-12 -25 -12 -60q0 -60 33.5 -92t113.5 -32z" />
    <glyph glyph-name="acircumflex" unicode="&#xe2;" horiz-adv-x="551" 
d="M272 731l-77 -94h-36l100 125h26l100 -125h-36zM478 1h-30l-10 95q-44 -105 -205 -105q-95 0 -136 38t-41 114q0 102 87 132q57 20 217 19q70 -1 74 -1q0 55 -2.5 84.5t-11 60t-25.5 44t-45.5 22t-72.5 8.5q-51 0 -86.5 -13t-52 -35t-22.5 -42.5t-6 -44.5h-31
q0 163 198 163q35 0 63 -4.5t47.5 -13.5t34 -22t22.5 -29.5t13.5 -36t7 -42t2.5 -47.5t0 -52v-29v-133zM236 18q81 0 133 34t65 91v125q-174 0 -206 -3q-102 -10 -127 -63q-12 -25 -12 -60q0 -60 33.5 -92t113.5 -32z" />
    <glyph glyph-name="atilde" unicode="&#xe3;" horiz-adv-x="551" 
d="M226 687q-40 0 -40 -50h-25q0 76 64 76q31 0 51.5 -22.5t41.5 -22.5q41 0 41 50h24q0 -77 -62 -77q-32 0 -53 23t-42 23zM478 1h-30l-10 95q-44 -105 -205 -105q-95 0 -136 38t-41 114q0 102 87 132q57 20 217 19q70 -1 74 -1q0 55 -2.5 84.5t-11 60t-25.5 44t-45.5 22
t-72.5 8.5q-51 0 -86.5 -13t-52 -35t-22.5 -42.5t-6 -44.5h-31q0 163 198 163q35 0 63 -4.5t47.5 -13.5t34 -22t22.5 -29.5t13.5 -36t7 -42t2.5 -47.5t0 -52v-29v-133zM236 18q81 0 133 34t65 91v125q-174 0 -206 -3q-102 -10 -127 -63q-12 -25 -12 -60q0 -60 33.5 -92
t113.5 -32z" />
    <glyph glyph-name="adieresis" unicode="&#xe4;" horiz-adv-x="551" 
d="M225 750v-113h-34v113h34zM354 750v-113h-34v113h34zM478 1h-30l-10 95q-44 -105 -205 -105q-95 0 -136 38t-41 114q0 102 87 132q57 20 217 19q70 -1 74 -1q0 55 -2.5 84.5t-11 60t-25.5 44t-45.5 22t-72.5 8.5q-51 0 -86.5 -13t-52 -35t-22.5 -42.5t-6 -44.5h-31
q0 163 198 163q35 0 63 -4.5t47.5 -13.5t34 -22t22.5 -29.5t13.5 -36t7 -42t2.5 -47.5t0 -52v-29v-133zM236 18q81 0 133 34t65 91v125q-174 0 -206 -3q-102 -10 -127 -63q-12 -25 -12 -60q0 -60 33.5 -92t113.5 -32z" />
    <glyph glyph-name="aring" unicode="&#xe5;" horiz-adv-x="551" 
d="M272 636q-32 0 -50.5 19t-18.5 47t18.5 47t50.5 19t50.5 -19t18.5 -47t-18.5 -47t-50.5 -19zM272 743q-18 0 -29 -11t-11 -30t11 -30t29 -11t29 11t11 30t-11 30t-29 11zM478 1h-30l-10 95q-44 -105 -205 -105q-95 0 -136 38t-41 114q0 102 87 132q57 20 217 19
q70 -1 74 -1q0 55 -2.5 84.5t-11 60t-25.5 44t-45.5 22t-72.5 8.5q-51 0 -86.5 -13t-52 -35t-22.5 -42.5t-6 -44.5h-31q0 163 198 163q35 0 63 -4.5t47.5 -13.5t34 -22t22.5 -29.5t13.5 -36t7 -42t2.5 -47.5t0 -52v-29v-133zM236 18q81 0 133 34t65 91v125q-174 0 -206 -3
q-102 -10 -127 -63q-12 -25 -12 -60q0 -60 33.5 -92t113.5 -32z" />
    <glyph glyph-name="ae" unicode="&#xe6;" horiz-adv-x="912" 
d="M824 276l-369 1v-15q0 -54 7.5 -94.5t26.5 -76t57 -54t94 -18.5q50 0 87.5 15t56 37.5t27 43.5t8.5 39h35q0 -14 -4 -31t-18 -42t-35.5 -44t-62.5 -33t-94 -14q-154 0 -197 120q-40 -119 -210 -119q-177 0 -177 161q0 102 86 133q57 20 215 18h23h42q3 47 10 78
q-6 73 -38 102t-117 29q-51 0 -86.5 -13t-52 -35t-22.5 -42.5t-6 -44.5h-31q0 163 198 163q84 0 122.5 -27t49.5 -80q49 107 191 107q109 0 164 -60t55 -204h-35zM640 512q-95 0 -136.5 -56t-47.5 -152h367q-4 104 -46.5 156t-136.5 52zM236 18q85 0 135.5 36.5t59.5 97.5
q-10 46 -10 111v14q-168 1 -208 -4q-95 -13 -116 -71q-8 -22 -8 -51q0 -133 147 -133z" />
    <glyph glyph-name="ccedilla" unicode="&#xe7;" horiz-adv-x="537" 
d="M276 20q81 0 127 38t47 104h33q0 -73 -48 -119t-138 -51l-22 -47q87 -5 87 -70q0 -41 -25 -57.5t-75 -16.5l-48 5v25q20 -5 45 -5q39 0 55.5 10t16.5 40q0 50 -87 50h-6l30 65q-115 2 -162 73t-47 201q0 131 49 203t168 72q102 0 154.5 -51t52.5 -140h-33q-1 78 -46 120
t-128 42q-98 0 -140.5 -63t-42.5 -183q0 -122 42.5 -183.5t140.5 -61.5z" />
    <glyph glyph-name="egrave" unicode="&#xe8;" horiz-adv-x="550" 
d="M290 637h-32l-76 125h42zM278 19q50 0 88 15t56.5 37.5t27 43.5t8.5 39h34q0 -14 -4 -31t-18 -42t-35.5 -44t-62.5 -33t-94 -14q-117 0 -168 66.5t-51 206.5t51 208.5t168 68.5q219 0 219 -254h-404v-24q0 -54 7.5 -94.5t26.5 -76t57 -54t94 -18.5zM278 512
q-92 0 -133.5 -53.5t-49.5 -144.5h366q-10 198 -183 198z" />
    <glyph glyph-name="eacute" unicode="&#xe9;" horiz-adv-x="550" 
d="M352 762l-77 -125h-31l66 125h42zM278 19q50 0 88 15t56.5 37.5t27 43.5t8.5 39h34q0 -14 -4 -31t-18 -42t-35.5 -44t-62.5 -33t-94 -14q-117 0 -168 66.5t-51 206.5t51 208.5t168 68.5q219 0 219 -254h-404v-24q0 -54 7.5 -94.5t26.5 -76t57 -54t94 -18.5zM278 512
q-92 0 -133.5 -53.5t-49.5 -144.5h366q-10 198 -183 198z" />
    <glyph glyph-name="ecircumflex" unicode="&#xea;" horiz-adv-x="550" 
d="M278 731l-77 -94h-36l100 125h26l100 -125h-36zM278 19q50 0 88 15t56.5 37.5t27 43.5t8.5 39h34q0 -14 -4 -31t-18 -42t-35.5 -44t-62.5 -33t-94 -14q-117 0 -168 66.5t-51 206.5t51 208.5t168 68.5q219 0 219 -254h-404v-24q0 -54 7.5 -94.5t26.5 -76t57 -54t94 -18.5z
M278 512q-92 0 -133.5 -53.5t-49.5 -144.5h366q-10 198 -183 198z" />
    <glyph glyph-name="edieresis" unicode="&#xeb;" horiz-adv-x="550" 
d="M231 750v-113h-34v113h34zM360 750v-113h-34v113h34zM278 19q50 0 88 15t56.5 37.5t27 43.5t8.5 39h34q0 -14 -4 -31t-18 -42t-35.5 -44t-62.5 -33t-94 -14q-117 0 -168 66.5t-51 206.5t51 208.5t168 68.5q219 0 219 -254h-404v-24q0 -54 7.5 -94.5t26.5 -76t57 -54
t94 -18.5zM278 512q-92 0 -133.5 -53.5t-49.5 -144.5h366q-10 198 -183 198z" />
    <glyph glyph-name="igrave" unicode="&#xec;" horiz-adv-x="207" 
d="M115 637h-32l-76 125h42zM87 0v531h33v-531h-33z" />
    <glyph glyph-name="iacute" unicode="&#xed;" horiz-adv-x="207" 
d="M69 637l66 125h42l-77 -125h-31zM87 0v531h33v-531h-33z" />
    <glyph glyph-name="icircumflex" unicode="&#xee;" horiz-adv-x="207" 
d="M116 762l100 -125h-36l-77 94l-77 -94h-36l100 125h26zM87 0v531h33v-531h-33z" />
    <glyph glyph-name="idieresis" unicode="&#xef;" horiz-adv-x="207" 
d="M22 637v113h34v-113h-34zM151 637v113h34v-113h-34zM87 0v531h33v-531h-33z" />
    <glyph glyph-name="eth" unicode="&#xf0;" horiz-adv-x="552" 
d="M494 264v-1q0 -132 -48.5 -202.5t-169.5 -70.5q-62 0 -105.5 19.5t-67.5 57.5t-34 85.5t-10 111.5q0 132 48 203.5t167 71.5q100 0 156 -86q-30 100 -89 194l-97 -51l-14 21l98 52q-17 26 -34 48.5t-26 32.5l-9 10h42q25 -27 58 -75l89 47l14 -21l-89 -47
q121 -195 121 -400zM276 19q100 0 141.5 61t41.5 183q0 49 -7 91q-14 56 -59.5 107t-116.5 51q-100 0 -141.5 -62.5t-41.5 -185.5t41.5 -184t141.5 -61z" />
    <glyph glyph-name="ntilde" unicode="&#xf1;" horiz-adv-x="577" 
d="M248 687q-40 0 -40 -50h-25q0 76 64 76q31 0 51.5 -22.5t41.5 -22.5q41 0 41 50h24q0 -77 -62 -77q-32 0 -53 23t-42 23zM311 540q95 0 138.5 -50.5t43.5 -174.5v-315h-33v314q0 101 -34 148.5t-118 47.5q-69 0 -114.5 -40t-70.5 -90v-380h-33v395l-10 136h30l10 -111
q25 46 72.5 83t118.5 37z" />
    <glyph glyph-name="ograve" unicode="&#xf2;" horiz-adv-x="561" 
d="M292 629h-32l-76 125h42zM281 -10q-124 0 -173 70.5t-49 203.5t49 204.5t173 72.5q123 1 172.5 -71.5t49.5 -205.5t-49.5 -203.5t-172.5 -70.5zM280 19q103 0 145.5 61t42.5 184t-42.5 185.5t-145.5 62.5q-102 0 -144.5 -62.5t-42.5 -185.5t42 -184t145 -61z" />
    <glyph glyph-name="oacute" unicode="&#xf3;" horiz-adv-x="561" 
d="M246 629l66 125h42l-77 -125h-31zM281 -10q-124 0 -173 70.5t-49 203.5t49 204.5t173 72.5q123 1 172.5 -71.5t49.5 -205.5t-49.5 -203.5t-172.5 -70.5zM280 19q103 0 145.5 61t42.5 184t-42.5 185.5t-145.5 62.5q-102 0 -144.5 -62.5t-42.5 -185.5t42 -184t145 -61z" />
    <glyph glyph-name="ocircumflex" unicode="&#xf4;" horiz-adv-x="561" 
d="M280 723l-77 -94h-36l100 125h26l100 -125h-36zM281 541q123 1 172.5 -71.5t49.5 -205.5t-49.5 -203.5t-172.5 -70.5q-124 0 -173 70.5t-49 203.5t49 204.5t173 72.5zM280 19q103 0 145.5 61t42.5 184t-42.5 185.5t-145.5 62.5q-102 0 -144.5 -62.5t-42.5 -185.5t42 -184
t145 -61z" />
    <glyph glyph-name="otilde" unicode="&#xf5;" horiz-adv-x="561" 
d="M367 710h24q0 -77 -62 -77q-32 0 -53 23t-42 23q-40 0 -40 -50h-25q0 76 64 76q31 0 51.5 -22.5t41.5 -22.5q41 0 41 50zM281 -10q-124 0 -173 70.5t-49 203.5t49 204.5t173 72.5q123 1 172.5 -71.5t49.5 -205.5t-49.5 -203.5t-172.5 -70.5zM280 19q103 0 145.5 61
t42.5 184t-42.5 185.5t-145.5 62.5q-102 0 -144.5 -62.5t-42.5 -185.5t42 -184t145 -61z" />
    <glyph glyph-name="odieresis" unicode="&#xf6;" horiz-adv-x="561" 
d="M199 629v113h34v-113h-34zM328 629v113h34v-113h-34zM281 -10q-124 0 -173 70.5t-49 203.5t49 204.5t173 72.5q123 1 172.5 -71.5t49.5 -205.5t-49.5 -203.5t-172.5 -70.5zM280 19q103 0 145.5 61t42.5 184t-42.5 185.5t-145.5 62.5q-102 0 -144.5 -62.5t-42.5 -185.5
t42 -184t145 -61z" />
    <glyph glyph-name="divide" unicode="&#xf7;" horiz-adv-x="460" 
d="M214 404v94h32v-94h-32zM41 294v29h378v-29h-378zM214 119v94h32v-94h-32z" />
    <glyph glyph-name="oslash" unicode="&#xf8;" horiz-adv-x="561" 
d="M491 537l-43 -61q55 -66 55 -212q0 -133 -49.5 -203.5t-172.5 -70.5q-94 0 -147 44l-26 -37h-35l40 57q-54 66 -54 210q0 133 49 204.5t173 72.5q94 0 147 -44l28 40h35zM93 264q0 -125 41 -182l274 388q-45 42 -128 42q-102 0 -144.5 -62.5t-42.5 -185.5zM280 19
q103 0 145.5 61t42.5 184q0 126 -41 183l-274 -387q44 -41 127 -41z" />
    <glyph glyph-name="ugrave" unicode="&#xf9;" horiz-adv-x="566" 
d="M296 637h-32l-76 125h42zM493 0h-30l-11 128q-8 -18 -22 -38t-37.5 -44t-59.5 -39.5t-77 -15.5q-94 0 -138.5 50.5t-44.5 173.5l1 316h33l-1 -313q0 -102 34 -149t119 -47q42 0 78.5 18t59 46.5t34 48t19.5 38.5v358h33v-384z" />
    <glyph glyph-name="uacute" unicode="&#xfa;" horiz-adv-x="566" 
d="M358 762l-77 -125h-31l66 125h42zM493 0h-30l-11 128q-8 -18 -22 -38t-37.5 -44t-59.5 -39.5t-77 -15.5q-94 0 -138.5 50.5t-44.5 173.5l1 316h33l-1 -313q0 -102 34 -149t119 -47q42 0 78.5 18t59 46.5t34 48t19.5 38.5v358h33v-384z" />
    <glyph glyph-name="ucircumflex" unicode="&#xfb;" horiz-adv-x="566" 
d="M284 731l-77 -94h-36l100 125h26l100 -125h-36zM493 0h-30l-11 128q-8 -18 -22 -38t-37.5 -44t-59.5 -39.5t-77 -15.5q-94 0 -138.5 50.5t-44.5 173.5l1 316h33l-1 -313q0 -102 34 -149t119 -47q42 0 78.5 18t59 46.5t34 48t19.5 38.5v358h33v-384z" />
    <glyph glyph-name="udieresis" unicode="&#xfc;" horiz-adv-x="566" 
d="M237 750v-113h-34v113h34zM366 750v-113h-34v113h34zM493 0h-30l-11 128q-8 -18 -22 -38t-37.5 -44t-59.5 -39.5t-77 -15.5q-94 0 -138.5 50.5t-44.5 173.5l1 316h33l-1 -313q0 -102 34 -149t119 -47q42 0 78.5 18t59 46.5t34 48t19.5 38.5v358h33v-384z" />
    <glyph glyph-name="yacute" unicode="&#xfd;" horiz-adv-x="466" 
d="M306 762l-77 -125h-31l66 125h42zM422 531h35l-277 -749h-33l80 218h-10l-208 531h38l191 -500z" />
    <glyph glyph-name="thorn" unicode="&#xfe;" horiz-adv-x="570" 
d="M309 540q203 0 203 -277q0 -271 -203 -271q-143 0 -196 107v-339h-33v1000h33v-331q24 41 73 76t123 35zM305 21q173 0 173 242q0 118 -43.5 183t-129.5 65q-42 0 -77.5 -15t-58 -38.5t-35.5 -41.5t-21 -36v-217q11 -54 58.5 -98t133.5 -44z" />
    <glyph glyph-name="ydieresis" unicode="&#xff;" horiz-adv-x="466" 
d="M185 750v-113h-34v113h34zM314 750v-113h-34v113h34zM422 531h35l-277 -749h-33l80 218h-10l-208 531h38l191 -500z" />
    <glyph glyph-name="Amacron" unicode="&#x100;" horiz-adv-x="608" 
d="M407 817v-29h-206v29h206zM558 0l-81 210h-348l-80 -210h-36l273 704h36l273 -704h-37zM141 241h325l-163 424z" />
    <glyph glyph-name="amacron" unicode="&#x101;" horiz-adv-x="551" 
d="M375 694v-28h-206v28h206zM478 1h-30l-10 95q-44 -105 -205 -105q-95 0 -136 38t-41 114q0 102 87 132q57 20 217 19q70 -1 74 -1q0 55 -2.5 84.5t-11 60t-25.5 44t-45.5 22t-72.5 8.5q-51 0 -86.5 -13t-52 -35t-22.5 -42.5t-6 -44.5h-31q0 163 198 163q35 0 63 -4.5
t47.5 -13.5t34 -22t22.5 -29.5t13.5 -36t7 -42t2.5 -47.5t0 -52v-29v-133zM236 18q81 0 133 34t65 91v125q-174 0 -206 -3q-102 -10 -127 -63q-12 -25 -12 -60q0 -60 33.5 -92t113.5 -32z" />
    <glyph glyph-name="Abreve" unicode="&#x102;" horiz-adv-x="608" 
d="M304 760q-48 0 -76.5 28t-28.5 58h30q0 -21 21.5 -39.5t53.5 -18.5t54 18.5t22 39.5h29q0 -30 -28.5 -58t-76.5 -28zM558 0l-81 210h-348l-80 -210h-36l273 704h36l273 -704h-37zM141 241h325l-163 424z" />
    <glyph glyph-name="abreve" unicode="&#x103;" horiz-adv-x="551" 
d="M272 636q-47 0 -76 32t-29 64h29q0 -22 22 -44.5t54 -22.5t54.5 23t22.5 44h28q0 -32 -29 -64t-76 -32zM478 1h-30l-10 95q-44 -105 -205 -105q-95 0 -136 38t-41 114q0 102 87 132q57 20 217 19q70 -1 74 -1q0 55 -2.5 84.5t-11 60t-25.5 44t-45.5 22t-72.5 8.5
q-51 0 -86.5 -13t-52 -35t-22.5 -42.5t-6 -44.5h-31q0 163 198 163q35 0 63 -4.5t47.5 -13.5t34 -22t22.5 -29.5t13.5 -36t7 -42t2.5 -47.5t0 -52v-29v-133zM236 18q81 0 133 34t65 91v125q-174 0 -206 -3q-102 -10 -127 -63q-12 -25 -12 -60q0 -60 33.5 -92t113.5 -32z" />
    <glyph glyph-name="Aogonek" unicode="&#x104;" horiz-adv-x="608" 
d="M500 -98q0 -22 12.5 -33t30.5 -11q11 0 23 3t18 7l7 3v-24q-23 -15 -54 -15q-33 0 -51 17.5t-18 48.5q0 27 19 52.5t35.5 37t32.5 19.5l-78 203h-348l-80 -210h-36l273 704h36l273 -704h-9q-12 -5 -29 -15.5t-37 -34.5t-20 -48zM141 241h325l-163 424z" />
    <glyph glyph-name="aogonek" unicode="&#x105;" horiz-adv-x="551" 
d="M431 -142q11 0 23 3t18 7l7 3v-24q-23 -15 -54 -15q-33 0 -51 17.5t-18 48.5q0 22 12 43t29.5 35t29 21.5t20.5 11.5l-9 87q-44 -105 -205 -105q-95 0 -136 38t-41 114q0 102 87 132q57 20 217 19q70 -1 74 -1q0 55 -2.5 84.5t-11 60t-25.5 44t-45.5 22t-72.5 8.5
q-51 0 -86.5 -13t-52 -35t-22.5 -42.5t-6 -44.5h-31q0 163 198 163q35 0 63 -4.5t47.5 -13.5t34 -22t22.5 -29.5t13.5 -36t7 -42t2.5 -47.5t0 -52v-29v-133l11 -130h-2q-4 -2 -9.5 -5t-21 -12.5t-27 -20.5t-21 -27.5t-9.5 -33.5q0 -22 12.5 -33t30.5 -11zM236 18
q81 0 133 34t65 91v125q-174 0 -206 -3q-102 -10 -127 -63q-12 -25 -12 -60q0 -60 33.5 -92t113.5 -32z" />
    <glyph glyph-name="Cacute" unicode="&#x106;" horiz-adv-x="645" 
d="M318 761l66 107h43l-77 -107h-32zM339 -16q-154 0 -216.5 93t-62.5 274t62.5 275t216.5 94q246 0 251 -240h-34q-8 208 -217 208q-132 0 -188.5 -83t-56.5 -254t56.5 -253.5t188.5 -82.5q204 0 215 197h34q-10 -228 -249 -228z" />
    <glyph glyph-name="cacute" unicode="&#x107;" horiz-adv-x="537" 
d="M238 637l66 125h42l-77 -125h-31zM276 -9q-120 0 -168.5 71t-48.5 203q0 131 49 203t168 72q102 0 154.5 -51t52.5 -140h-33q-1 78 -46 120t-128 42q-98 0 -140.5 -63t-42.5 -183q0 -122 42.5 -183.5t140.5 -61.5q81 0 127 38t47 104h33q0 -77 -53.5 -124t-153.5 -47z
" />
    <glyph glyph-name="Ccircumflex" unicode="&#x108;" horiz-adv-x="645" 
d="M334 833l-74 -72h-38l98 101h28l98 -101h-38zM339 15q204 0 215 197h34q-10 -228 -249 -228q-154 0 -216.5 93t-62.5 274t62.5 275t216.5 94q246 0 251 -240h-34q-8 208 -217 208q-132 0 -188.5 -83t-56.5 -254t56.5 -253.5t188.5 -82.5z" />
    <glyph glyph-name="ccircumflex" unicode="&#x109;" horiz-adv-x="537" 
d="M272 731l-77 -94h-36l100 125h26l100 -125h-36zM276 20q81 0 127 38t47 104h33q0 -77 -53.5 -124t-153.5 -47q-120 0 -168.5 71t-48.5 203q0 131 49 203t168 72q102 0 154.5 -51t52.5 -140h-33q-1 78 -46 120t-128 42q-98 0 -140.5 -63t-42.5 -183q0 -122 42.5 -183.5
t140.5 -61.5z" />
    <glyph glyph-name="Cdotaccent" unicode="&#x10a;" horiz-adv-x="645" 
d="M318 761v113h33v-113h-33zM339 -16q-154 0 -216.5 93t-62.5 274t62.5 275t216.5 94q246 0 251 -240h-34q-8 208 -217 208q-132 0 -188.5 -83t-56.5 -254t56.5 -253.5t188.5 -82.5q204 0 215 197h34q-10 -228 -249 -228z" />
    <glyph glyph-name="cdotaccent" unicode="&#x10b;" horiz-adv-x="537" 
d="M256 646v113h33v-113h-33zM276 -9q-120 0 -168.5 71t-48.5 203q0 131 49 203t168 72q102 0 154.5 -51t52.5 -140h-33q-1 78 -46 120t-128 42q-98 0 -140.5 -63t-42.5 -183q0 -122 42.5 -183.5t140.5 -61.5q81 0 127 38t47 104h33q0 -77 -53.5 -124t-153.5 -47z" />
    <glyph glyph-name="Ccaron" unicode="&#x10c;" horiz-adv-x="645" 
d="M348 761h-28l-98 101h37l75 -72l74 72h38zM339 15q204 0 215 197h34q-10 -228 -249 -228q-154 0 -216.5 93t-62.5 274t62.5 275t216.5 94q246 0 251 -240h-34q-8 208 -217 208q-132 0 -188.5 -83t-56.5 -254t56.5 -253.5t188.5 -82.5z" />
    <glyph glyph-name="ccaron" unicode="&#x10d;" horiz-adv-x="537" 
d="M285 637h-26l-100 125h35l77 -94l77 94h37zM276 20q81 0 127 38t47 104h33q0 -77 -53.5 -124t-153.5 -47q-120 0 -168.5 71t-48.5 203q0 131 49 203t168 72q102 0 154.5 -51t52.5 -140h-33q-1 78 -46 120t-128 42q-98 0 -140.5 -63t-42.5 -183q0 -122 42.5 -183.5
t140.5 -61.5z" />
    <glyph glyph-name="Dcaron" unicode="&#x10e;" horiz-adv-x="660" 
d="M324 760h-28l-98 101h37l75 -72l74 72h38zM92 707h165q106 0 174.5 -21.5t105 -69.5t50 -109.5t13.5 -155.5q0 -75 -8 -128t-30 -98.5t-60.5 -72t-99 -41.5t-145.5 -15h-165v711zM126 28l132 -1q93 0 152 17t93.5 57.5t48 99t13.5 150.5t-13.5 150.5t-48 99.5t-93.5 58.5
t-152 17.5h-132v-649z" />
    <glyph glyph-name="dcaron" unicode="&#x10f;" horiz-adv-x="584" 
d="M491 760v-626l9 -134h-29l-10 106q-53 -114 -199 -114q-203 0 -203 271q0 277 203 277q74 0 123 -34t73 -74v328h33zM265 21q85 0 133 44t60 98v217q-8 18 -21 36t-36 41.5t-58.5 38.5t-77.5 15q-86 0 -129 -65t-43 -183q0 -242 172 -242zM565 760h40l-58 -129h-29z" />
    <glyph glyph-name="Dcroat" unicode="&#x110;" horiz-adv-x="660" 
d="M92 707h165q106 0 174.5 -21.5t105 -69.5t50 -109.5t13.5 -155.5q0 -75 -8 -128t-30 -98.5t-60.5 -72t-99 -41.5t-145.5 -15h-165v343h-75v28h75v340zM126 28l132 -1q93 0 152 17t93.5 57.5t48 99t13.5 150.5t-13.5 150.5t-48 99.5t-93.5 58.5t-152 17.5h-132v-310h138
v-28h-138v-311z" />
    <glyph glyph-name="dcroat" unicode="&#x111;" horiz-adv-x="584" 
d="M561 595h-70v-461l9 -134h-29l-10 106q-53 -114 -199 -114q-203 0 -203 271q0 277 203 277q74 0 123 -34t73 -74v163h-144v28h144v137h33v-137h70v-28zM265 21q85 0 133 44t60 98v217q-8 18 -21 36t-36 41.5t-58.5 38.5t-77.5 15q-86 0 -129 -65t-43 -183
q0 -242 172 -242z" />
    <glyph glyph-name="Emacron" unicode="&#x112;" horiz-adv-x="547" 
d="M408 817v-29h-206v29h206zM126 32h400v-32h-434v704h429v-32h-395v-288h345v-31h-345v-321z" />
    <glyph glyph-name="emacron" unicode="&#x113;" horiz-adv-x="550" 
d="M381 694v-28h-206v28h206zM278 19q50 0 88 15t56.5 37.5t27 43.5t8.5 39h34q0 -14 -4 -31t-18 -42t-35.5 -44t-62.5 -33t-94 -14q-117 0 -168 66.5t-51 206.5t51 208.5t168 68.5q219 0 219 -254h-404v-24q0 -54 7.5 -94.5t26.5 -76t57 -54t94 -18.5zM278 512
q-92 0 -133.5 -53.5t-49.5 -144.5h366q-10 198 -183 198z" />
    <glyph glyph-name="Ebreve" unicode="&#x114;" horiz-adv-x="547" 
d="M305 760q-48 0 -76.5 28t-28.5 58h30q0 -21 21.5 -39.5t53.5 -18.5t54 18.5t22 39.5h29q0 -30 -28.5 -58t-76.5 -28zM126 32h400v-32h-434v704h429v-32h-395v-288h345v-31h-345v-321z" />
    <glyph glyph-name="ebreve" unicode="&#x115;" horiz-adv-x="550" 
d="M278 636q-47 0 -76 32t-29 64h29q0 -22 22 -44.5t54 -22.5t54.5 23t22.5 44h28q0 -32 -29 -64t-76 -32zM278 19q50 0 88 15t56.5 37.5t27 43.5t8.5 39h34q0 -14 -4 -31t-18 -42t-35.5 -44t-62.5 -33t-94 -14q-117 0 -168 66.5t-51 206.5t51 208.5t168 68.5
q219 0 219 -254h-404v-24q0 -54 7.5 -94.5t26.5 -76t57 -54t94 -18.5zM278 512q-92 0 -133.5 -53.5t-49.5 -144.5h366q-10 198 -183 198z" />
    <glyph glyph-name="Edotaccent" unicode="&#x116;" horiz-adv-x="547" 
d="M322 873v-113h-33v113h33zM126 32h400v-32h-434v704h429v-32h-395v-288h345v-31h-345v-321z" />
    <glyph glyph-name="edotaccent" unicode="&#x117;" horiz-adv-x="550" 
d="M295 759v-113h-33v113h33zM278 19q50 0 88 15t56.5 37.5t27 43.5t8.5 39h34q0 -14 -4 -31t-18 -42t-35.5 -44t-62.5 -33t-94 -14q-117 0 -168 66.5t-51 206.5t51 208.5t168 68.5q219 0 219 -254h-404v-24q0 -54 7.5 -94.5t26.5 -76t57 -54t94 -18.5zM278 512
q-92 0 -133.5 -53.5t-49.5 -144.5h366q-10 198 -183 198z" />
    <glyph glyph-name="Eogonek" unicode="&#x118;" horiz-adv-x="547" 
d="M480 -143q11 0 23 3.5t19 6.5l6 3v-24q-23 -15 -54 -15q-33 0 -51 17.5t-18 48.5q0 58 76 103h-389v704h429v-32h-395v-288h345v-31h-345v-321h400v-32h-1q-4 -2 -9.5 -5t-21 -12.5t-27 -20.5t-21 -27.5t-9.5 -33.5q0 -22 12.5 -33t30.5 -11z" />
    <glyph glyph-name="eogonek" unicode="&#x119;" horiz-adv-x="550" 
d="M278 19q50 0 88 15t56.5 37.5t27 43.5t8.5 39h34q0 -28 -17.5 -67t-61.5 -65q-1 0 -2 -1l-15 -8q-71 -43 -71 -90q0 -22 12.5 -33t30.5 -11q11 0 23 3.5t19 6.5l6 3v-24q-23 -15 -54 -15q-33 0 -51 17.5t-18 48.5q0 39 38 75q-21 -4 -53 -4q-117 0 -168 66.5t-51 206.5
t51 208.5t168 68.5q219 0 219 -254h-404v-24q0 -54 7.5 -94.5t26.5 -76t57 -54t94 -18.5zM278 512q-92 0 -133.5 -53.5t-49.5 -144.5h366q-10 198 -183 198z" />
    <glyph glyph-name="Ecaron" unicode="&#x11a;" horiz-adv-x="547" 
d="M319 760h-28l-98 101h37l75 -72l74 72h38zM126 32h400v-32h-434v704h429v-32h-395v-288h345v-31h-345v-321z" />
    <glyph glyph-name="ecaron" unicode="&#x11b;" horiz-adv-x="550" 
d="M291 637h-26l-100 125h35l77 -94l77 94h37zM278 19q50 0 88 15t56.5 37.5t27 43.5t8.5 39h34q0 -14 -4 -31t-18 -42t-35.5 -44t-62.5 -33t-94 -14q-117 0 -168 66.5t-51 206.5t51 208.5t168 68.5q219 0 219 -254h-404v-24q0 -54 7.5 -94.5t26.5 -76t57 -54t94 -18.5z
M278 512q-92 0 -133.5 -53.5t-49.5 -144.5h366q-10 198 -183 198z" />
    <glyph glyph-name="Gcircumflex" unicode="&#x11c;" horiz-adv-x="656" 
d="M337 833l-74 -72h-38l98 101h28l98 -101h-38zM587 333v-257q0 -5 -9 -15t-29 -23t-47.5 -25t-70.5 -20.5t-92 -8.5q-80 0 -135 25t-86 74.5t-44.5 114t-13.5 152.5q0 182 62.5 276t216.5 94q123 0 186.5 -63.5t63.5 -158.5h-34q-1 82 -57.5 136t-158.5 54
q-132 0 -188.5 -83.5t-56.5 -254.5t56.5 -253t189.5 -82q62 0 114.5 15.5t76 32t23.5 24.5v215h-166v31h199z" />
    <glyph glyph-name="gcircumflex" unicode="&#x11d;" horiz-adv-x="572" 
d="M282 731l-77 -94h-36l100 125h26l100 -125h-36zM469 531h30l-9 -130v-401q0 -44 -2.5 -72.5t-14.5 -63.5t-34 -55.5t-63.5 -34.5t-100.5 -14t-100.5 19t-59 45.5t-26.5 53.5t-9 46v19l32 1q0 -100 76 -138q36 -18 88 -18q50 0 85 12t53.5 29.5t28.5 48.5t12 56.5t2 65.5
v99q-53 -107 -195 -107q-203 0 -203 271q0 277 203 277q76 0 126 -34t72 -72zM265 21q84 0 131.5 42.5t60.5 95.5v232q-8 16 -21.5 33t-36.5 38.5t-58 35t-76 13.5q-86 0 -129 -65t-43 -183q0 -242 172 -242z" />
    <glyph glyph-name="Gbreve" unicode="&#x11e;" horiz-adv-x="656" 
d="M337 761q-48 0 -76.5 28t-28.5 58h30q0 -21 21.5 -39.5t53.5 -18.5t54 18.5t22 39.5h29q0 -30 -28.5 -58t-76.5 -28zM587 333v-257q0 -5 -9 -15t-29 -23t-47.5 -25t-70.5 -20.5t-92 -8.5q-80 0 -135 25t-86 74.5t-44.5 114t-13.5 152.5q0 182 62.5 276t216.5 94
q123 0 186.5 -63.5t63.5 -158.5h-34q-1 82 -57.5 136t-158.5 54q-132 0 -188.5 -83.5t-56.5 -254.5t56.5 -253t189.5 -82q62 0 114.5 15.5t76 32t23.5 24.5v215h-166v31h199z" />
    <glyph glyph-name="gbreve" unicode="&#x11f;" horiz-adv-x="572" 
d="M282 636q-47 0 -76 32t-29 64h29q0 -22 22 -44.5t54 -22.5t54.5 23t22.5 44h28q0 -32 -29 -64t-76 -32zM469 531h30l-9 -130v-401q0 -44 -2.5 -72.5t-14.5 -63.5t-34 -55.5t-63.5 -34.5t-100.5 -14t-100.5 19t-59 45.5t-26.5 53.5t-9 46v19l32 1q0 -100 76 -138
q36 -18 88 -18q50 0 85 12t53.5 29.5t28.5 48.5t12 56.5t2 65.5v99q-53 -107 -195 -107q-203 0 -203 271q0 277 203 277q76 0 126 -34t72 -72zM265 21q84 0 131.5 42.5t60.5 95.5v232q-8 16 -21.5 33t-36.5 38.5t-58 35t-76 13.5q-86 0 -129 -65t-43 -183q0 -242 172 -242z
" />
    <glyph glyph-name="Gdotaccent" unicode="&#x120;" horiz-adv-x="656" 
d="M354 874v-113h-33v113h33zM587 333v-257q0 -5 -9 -15t-29 -23t-47.5 -25t-70.5 -20.5t-92 -8.5q-80 0 -135 25t-86 74.5t-44.5 114t-13.5 152.5q0 182 62.5 276t216.5 94q123 0 186.5 -63.5t63.5 -158.5h-34q-1 82 -57.5 136t-158.5 54q-132 0 -188.5 -83.5t-56.5 -254.5
t56.5 -253t189.5 -82q62 0 114.5 15.5t76 32t23.5 24.5v215h-166v31h199z" />
    <glyph glyph-name="gdotaccent" unicode="&#x121;" horiz-adv-x="572" 
d="M299 759v-113h-33v113h33zM469 531h30l-9 -130v-401q0 -44 -2.5 -72.5t-14.5 -63.5t-34 -55.5t-63.5 -34.5t-100.5 -14t-100.5 19t-59 45.5t-26.5 53.5t-9 46v19l32 1q0 -100 76 -138q36 -18 88 -18q50 0 85 12t53.5 29.5t28.5 48.5t12 56.5t2 65.5v99
q-53 -107 -195 -107q-203 0 -203 271q0 277 203 277q76 0 126 -34t72 -72zM265 21q84 0 131.5 42.5t60.5 95.5v232q-8 16 -21.5 33t-36.5 38.5t-58 35t-76 13.5q-86 0 -129 -65t-43 -183q0 -242 172 -242z" />
    <glyph glyph-name="Gcommaaccent" unicode="&#x122;" horiz-adv-x="656" 
d="M587 333v-257q0 -5 -9 -15t-29 -23t-47.5 -25t-70.5 -20.5t-92 -8.5q-80 0 -135 25t-86 74.5t-44.5 114t-13.5 152.5q0 182 62.5 276t216.5 94q123 0 186.5 -63.5t63.5 -158.5h-34q-1 82 -57.5 136t-158.5 54q-132 0 -188.5 -83.5t-56.5 -254.5t56.5 -253t189.5 -82
q62 0 114.5 15.5t76 32t23.5 24.5v215h-166v31h199zM324 -118q5 19 8 38.5t4 29.5l1 11h36q-4 -39 -15 -80q-6 -21 -14 -41.5t-14 -31.5l-5 -10h-30q17 36 29 84z" />
    <glyph glyph-name="gcommaaccent" unicode="&#x123;" horiz-adv-x="572" 
d="M282 572h-37q-2 33 13 95q7 28 17.5 54t17.5 39l7 12h31q-22 -43 -36 -106q-7 -28 -10 -51.5t-3 -32.5v-10zM469 531h30l-9 -130v-401q0 -44 -2.5 -72.5t-14.5 -63.5t-34 -55.5t-63.5 -34.5t-100.5 -14t-100.5 19t-59 45.5t-26.5 53.5t-9 46v19l32 1q0 -100 76 -138
q36 -18 88 -18q50 0 85 12t53.5 29.5t28.5 48.5t12 56.5t2 65.5v99q-53 -107 -195 -107q-203 0 -203 271q0 277 203 277q76 0 126 -34t72 -72zM265 21q84 0 131.5 42.5t60.5 95.5v232q-8 16 -21.5 33t-36.5 38.5t-58 35t-76 13.5q-86 0 -129 -65t-43 -183q0 -242 172 -242z
" />
    <glyph glyph-name="Hcircumflex" unicode="&#x124;" horiz-adv-x="683" 
d="M342 832l-74 -72h-38l98 101h28l98 -101h-38zM556 704h35v-704h-35v352h-430v-352h-34v704h34v-319h430v319z" />
    <glyph glyph-name="hcircumflex" unicode="&#x125;" horiz-adv-x="568" 
d="M172 783l-74 72l-74 -72h-38l98 101h28l98 -101h-38zM302 540q95 0 138.5 -50.5t43.5 -174.5v-315h-33v314q0 101 -34 148.5t-118 47.5q-37 0 -69.5 -13.5t-55 -36t-36.5 -42t-25 -40.5v-378h-33v760h33v-335q26 45 73 80t116 35z" />
    <glyph glyph-name="Hbar" unicode="&#x126;" horiz-adv-x="683" 
d="M655 555v-30h-64v-525h-35v352h-430v-352h-34v525h-55v30h55v149h34v-149h430v149h35v-149h64zM556 385v140h-430v-140h430z" />
    <glyph glyph-name="hbar" unicode="&#x127;" horiz-adv-x="568" 
d="M302 540q95 0 138.5 -50.5t43.5 -174.5v-315h-33v314q0 101 -34 148.5t-118 47.5q-37 0 -69.5 -13.5t-55 -36t-36.5 -42t-25 -40.5v-378h-33v596h-77v28h77v136h33v-136h137v-28h-137v-171q26 45 73 80t116 35z" />
    <glyph glyph-name="Itilde" unicode="&#x128;" horiz-adv-x="218" 
d="M196 842h25q0 -78 -62 -78q-32 0 -53 22.5t-42 22.5q-39 0 -39 -49h-26q0 77 64 77q31 0 51.5 -22t41.5 -22q40 0 40 49zM92 0v704h34v-704h-34z" />
    <glyph glyph-name="itilde" unicode="&#x129;" horiz-adv-x="207" 
d="M190 718h24q0 -77 -62 -77q-32 0 -53 23t-42 23q-40 0 -40 -50h-25q0 76 64 76q31 0 51.5 -22.5t41.5 -22.5q41 0 41 50zM87 0v531h33v-531h-33z" />
    <glyph glyph-name="Imacron" unicode="&#x12a;" horiz-adv-x="218" 
d="M7 817h206v-29h-206v29zM92 0v704h34v-704h-34z" />
    <glyph glyph-name="imacron" unicode="&#x12b;" horiz-adv-x="207" 
d="M0 694h206v-28h-206v28zM87 0v531h33v-531h-33z" />
    <glyph glyph-name="Ibreve" unicode="&#x12c;" horiz-adv-x="218" 
d="M186 846h29q0 -30 -28.5 -58t-76.5 -28t-76.5 28t-28.5 58h30q0 -21 21.5 -39.5t53.5 -18.5t54 18.5t22 39.5zM92 0v704h34v-704h-34z" />
    <glyph glyph-name="ibreve" unicode="&#x12d;" horiz-adv-x="207" 
d="M180 732h28q0 -32 -29 -64t-76 -32t-76 32t-29 64h29q0 -22 22 -44.5t54 -22.5t54.5 23t22.5 44zM87 0v531h33v-531h-33z" />
    <glyph glyph-name="Iogonek" unicode="&#x12e;" horiz-adv-x="218" 
d="M126 0h-6q-12 -5 -29 -15.5t-37 -34.5t-20 -48q0 -22 12.5 -33t30.5 -11q11 0 23 3t18 7l7 3v-24q-23 -15 -54 -15q-33 0 -51 17.5t-18 48.5q0 22 11 42t28.5 34.5t29 22t21.5 12.5v695h34v-704z" />
    <glyph glyph-name="iogonek" unicode="&#x12f;" horiz-adv-x="207" 
d="M87 759h33v-113h-33v113zM87 9v522h33v-531h-5q-4 -2 -9.5 -5t-21 -12.5t-27 -20.5t-21 -27.5t-9.5 -33.5q0 -22 12.5 -33t30.5 -11q11 0 23 3.5t19 6.5l6 3v-24q-23 -15 -54 -15q-33 0 -51 17.5t-18 48.5q0 23 12 44t31 35.5t29.5 21t19.5 11.5z" />
    <glyph glyph-name="Idotaccent" unicode="&#x130;" horiz-adv-x="218" 
d="M94 760v113h33v-113h-33zM92 0v704h34v-704h-34z" />
    <glyph glyph-name="dotlessi" unicode="&#x131;" horiz-adv-x="207" 
d="M87 0v531h33v-531h-33z" />
    <glyph glyph-name="IJ" unicode="&#x132;" horiz-adv-x="563" 
d="M92 0v704h34v-704h-34zM270 0h-50v34h50q59 0 94 10t55 38.5t26 68t6 108.5l-1 445h34l2 -445q0 -51 -3 -85.5t-11.5 -65.5t-23 -50t-39 -33t-58.5 -19.5t-81 -5.5z" />
    <glyph glyph-name="ij" unicode="&#x133;" horiz-adv-x="426" 
d="M87 646v113h33v-113h-33zM305 646v113h33v-113h-33zM87 0v531h33v-531h-33zM186 -172v30q30 0 50 3t33.5 14t20.5 20.5t10.5 33.5t4 42t0.5 57v503h33v-503q0 -43 -1 -66.5t-6 -50t-14.5 -39.5t-26.5 -24.5t-42.5 -15.5t-61.5 -4z" />
    <glyph glyph-name="Jcircumflex" unicode="&#x134;" horiz-adv-x="345" 
d="M171 832l-74 -72h-38l98 101h28l98 -101h-38zM232 704h34l2 -445q0 -51 -3 -85.5t-11.5 -65.5t-23 -50t-39 -33t-58.5 -19.5t-81 -5.5h-50v34h50q59 0 94 10t55 38.5t26 68t6 108.5z" />
    <glyph glyph-name="jcircumflex" unicode="&#x135;" horiz-adv-x="219" 
d="M127 762l100 -125h-36l-77 94l-77 -94h-36l100 125h26zM98 28v503h33v-503q0 -43 -1 -66.5t-6 -50t-14.5 -39.5t-26.5 -24.5t-42.5 -15.5t-61.5 -4v30q30 0 50 3t33.5 14t20.5 20.5t10.5 33.5t4 42t0.5 57z" />
    <glyph glyph-name="Kcommaaccent" unicode="&#x136;" horiz-adv-x="570" 
d="M275 391l282 -391h-39l-264 366l-128 -143v-223h-34v704h34v-439l386 439h42zM269 -118q5 19 8 38.5t4 29.5l1 11h36q-4 -39 -15 -80q-6 -21 -14 -41.5t-13 -31.5l-6 -10h-30q17 36 29 84z" />
    <glyph glyph-name="kcommaaccent" unicode="&#x137;" horiz-adv-x="478" 
d="M243 325l231 -325h-38l-216 302l-96 -98v-204h-33v760h33v-515l278 286h41zM238 -118q5 19 8 38.5t4 29.5l1 11h36q-4 -39 -15 -80q-6 -21 -14 -41.5t-14 -31.5l-5 -10h-30q17 36 29 84z" />
    <glyph glyph-name="kgreenlandic" unicode="&#x138;" horiz-adv-x="478" 
d="M436 0l-216 303l-96 -99v-204h-33v531h33v-286l278 286h41l-201 -206l232 -325h-38z" />
    <glyph glyph-name="Lacute" unicode="&#x139;" horiz-adv-x="494" 
d="M213 867l-77 -107h-32l66 107h43zM126 31h353v-31h-387v704h34v-673z" />
    <glyph glyph-name="lacute" unicode="&#x13a;" horiz-adv-x="215" 
d="M91 815l66 107h43l-77 -107h-32zM91 0v760h33v-760h-33z" />
    <glyph glyph-name="Lcommaaccent" unicode="&#x13b;" horiz-adv-x="494" 
d="M126 31h353v-31h-387v704h34v-673zM254 -118q5 19 8 38.5t4 29.5l1 11h36q-4 -39 -15 -80q-6 -21 -14 -41.5t-14 -31.5l-5 -10h-30q17 36 29 84z" />
    <glyph glyph-name="lcommaaccent" unicode="&#x13c;" horiz-adv-x="215" 
d="M91 0v760h33v-760h-33zM77 -202h-30q17 36 29 84q5 19 8 38.5t4 29.5l1 11h36q-4 -39 -15 -80q-6 -21 -14 -41.5t-14 -31.5z" />
    <glyph glyph-name="Lcaron" unicode="&#x13d;" horiz-adv-x="494" 
d="M329 762l-59 -112h-32l49 112h42zM126 31h353v-31h-387v704h34v-673z" />
    <glyph glyph-name="lcaron" unicode="&#x13e;" horiz-adv-x="215" 
d="M91 0v760h33v-760h-33zM168 631l47 129h40l-58 -129h-29z" />
    <glyph glyph-name="Ldot" unicode="&#x13f;" horiz-adv-x="494" 
d="M126 31h353v-31h-387v704h34v-673zM294 409v-112h-33v112h33z" />
    <glyph glyph-name="ldot" unicode="&#x140;" horiz-adv-x="229" 
d="M91 0v760h33v-760h-33zM168 329v112h34v-112h-34z" />
    <glyph glyph-name="Lslash" unicode="&#x141;" horiz-adv-x="494" 
d="M126 31h353v-31h-387v321l-80 -53l-15 24l95 63v349h34v-327l83 55l15 -24l-98 -65v-312z" />
    <glyph glyph-name="lslash" unicode="&#x142;" horiz-adv-x="215" 
d="M225 440l-101 -67v-373h-33v352l-78 -52l-15 24l93 61v375h33v-353l86 57z" />
    <glyph glyph-name="Nacute" unicode="&#x143;" horiz-adv-x="704" 
d="M446 867l-77 -107h-32l66 107h43zM578 704h34v-704h-37l-445 650l-5 -650h-33l5 704h36l447 -651z" />
    <glyph glyph-name="nacute" unicode="&#x144;" horiz-adv-x="577" 
d="M368 762l-77 -125h-31l66 125h42zM311 540q95 0 138.5 -50.5t43.5 -174.5v-315h-33v314q0 101 -34 148.5t-118 47.5q-69 0 -114.5 -40t-70.5 -90v-380h-33v395l-10 136h30l10 -111q25 46 72.5 83t118.5 37z" />
    <glyph glyph-name="Ncommaaccent" unicode="&#x145;" horiz-adv-x="704" 
d="M578 704h34v-704h-37l-445 650l-5 -650h-33l5 704h36l447 -651zM334 -118q5 19 8 38.5t4 29.5l1 11h36q-4 -39 -15 -80q-6 -21 -14 -41.5t-14 -31.5l-5 -10h-30q17 36 29 84z" />
    <glyph glyph-name="ncommaaccent" unicode="&#x146;" horiz-adv-x="577" 
d="M311 540q95 0 138.5 -50.5t43.5 -174.5v-315h-33v314q0 101 -34 148.5t-118 47.5q-69 0 -114.5 -40t-70.5 -90v-380h-33v395l-10 136h30l10 -111q25 46 72.5 83t118.5 37zM267 -118q5 19 8 38.5t4 29.5l1 11h36q-4 -39 -15 -80q-6 -21 -14 -41.5t-13 -31.5l-6 -10h-30
q17 36 29 84z" />
    <glyph glyph-name="Ncaron" unicode="&#x147;" horiz-adv-x="704" 
d="M367 760h-28l-98 101h37l75 -72l74 72h38zM578 704h34v-704h-37l-445 650l-5 -650h-33l5 704h36l447 -651z" />
    <glyph glyph-name="ncaron" unicode="&#x148;" horiz-adv-x="577" 
d="M307 637h-26l-100 125h35l77 -94l77 94h37zM311 540q95 0 138.5 -50.5t43.5 -174.5v-315h-33v314q0 101 -34 148.5t-118 47.5q-69 0 -114.5 -40t-70.5 -90v-380h-33v395l-10 136h30l10 -111q25 46 72.5 83t118.5 37z" />
    <glyph glyph-name="Eng" unicode="&#x14a;" horiz-adv-x="704" 
d="M578 704h34v-704q0 -115 -34 -166t-132 -51h-49v32h50q77 0 104.5 42.5t27.5 142.5l-449 650l-5 -650h-33l5 704h36l447 -651z" />
    <glyph glyph-name="eng" unicode="&#x14b;" horiz-adv-x="577" 
d="M311 540q95 0 139 -50.5t43 -174.5v-273q0 -43 -1 -66.5t-6 -50t-14.5 -39.5t-26.5 -24.5t-42.5 -15.5t-61.5 -4v31q22 0 39 1.5t29.5 7.5t21 11t14.5 18t9 22t4.5 30t1.5 34.5v43.5v273q0 101 -34 148.5t-118 47.5q-69 0 -114.5 -40t-70.5 -90v-380h-33v395l-10 136h30
l10 -111q25 46 72.5 83t118.5 37z" />
    <glyph glyph-name="Omacron" unicode="&#x14c;" horiz-adv-x="686" 
d="M240 818h206v-29h-206v29zM343 -16q-157 0 -220 93t-63 274t63 275t220 94t220 -94t63 -275t-63 -274t-220 -93zM343 15q135 0 192 82t57 254q0 171 -57 254t-192 83t-192 -83t-57 -254t57 -253.5t192 -82.5z" />
    <glyph glyph-name="omacron" unicode="&#x14d;" horiz-adv-x="561" 
d="M177 686h206v-28h-206v28zM281 -10q-124 0 -173 70.5t-49 203.5t49 204.5t173 72.5q123 1 172.5 -71.5t49.5 -205.5t-49.5 -203.5t-172.5 -70.5zM280 19q103 0 145.5 61t42.5 184t-42.5 185.5t-145.5 62.5q-102 0 -144.5 -62.5t-42.5 -185.5t42 -184t145 -61z" />
    <glyph glyph-name="Obreve" unicode="&#x14e;" horiz-adv-x="686" 
d="M419 847h29q0 -30 -28.5 -58t-76.5 -28t-76.5 28t-28.5 58h30q0 -21 21.5 -39.5t53.5 -18.5t54 18.5t22 39.5zM343 -16q-157 0 -220 93t-63 274t63 275t220 94t220 -94t63 -275t-63 -274t-220 -93zM343 15q135 0 192 82t57 254q0 171 -57 254t-192 83t-192 -83t-57 -254
t57 -253.5t192 -82.5z" />
    <glyph glyph-name="obreve" unicode="&#x14f;" horiz-adv-x="561" 
d="M357 724h28q0 -32 -29 -64t-76 -32t-76 32t-29 64h29q0 -22 22 -44.5t54 -22.5t54.5 23t22.5 44zM281 -10q-124 0 -173 70.5t-49 203.5t49 204.5t173 72.5q123 1 172.5 -71.5t49.5 -205.5t-49.5 -203.5t-172.5 -70.5zM280 19q103 0 145.5 61t42.5 184t-42.5 185.5
t-145.5 62.5q-102 0 -144.5 -62.5t-42.5 -185.5t42 -184t145 -61z" />
    <glyph glyph-name="Ohungarumlaut" unicode="&#x150;" horiz-adv-x="686" 
d="M259 761l59 107h43l-70 -107h-32zM370 761l68 107h43l-78 -107h-33zM343 -16q-157 0 -220 93t-63 274t63 275t220 94t220 -94t63 -275t-63 -274t-220 -93zM343 15q135 0 192 82t57 254q0 171 -57 254t-192 83t-192 -83t-57 -254t57 -253.5t192 -82.5z" />
    <glyph glyph-name="ohungarumlaut" unicode="&#x151;" horiz-adv-x="561" 
d="M195 629l59 125h42l-70 -125h-31zM306 629l68 125h42l-78 -125h-32zM281 -10q-124 0 -173 70.5t-49 203.5t49 204.5t173 72.5q123 1 172.5 -71.5t49.5 -205.5t-49.5 -203.5t-172.5 -70.5zM280 19q103 0 145.5 61t42.5 184t-42.5 185.5t-145.5 62.5q-102 0 -144.5 -62.5
t-42.5 -185.5t42 -184t145 -61z" />
    <glyph glyph-name="OE" unicode="&#x152;" horiz-adv-x="952" 
d="M531 32h400v-32h-590q-154 0 -217.5 92t-63.5 259q0 81 13.5 142t44.5 110t87 75t136 26h585v-32h-395v-288h345v-31h-345v-321zM343 31h154v642h-154q-133 0 -191 -82t-58 -240q0 -159 57.5 -239.5t191.5 -80.5z" />
    <glyph glyph-name="oe" unicode="&#x153;" horiz-adv-x="955" 
d="M684 19q50 0 87.5 15t56 37.5t27 43.5t8.5 39h35q0 -18 -8 -41.5t-28.5 -53t-66.5 -49.5t-111 -20q-162 0 -201 137q-39 -137 -202 -137q-124 0 -173 70.5t-49 203.5t49 204.5t173 72.5q162 1 203 -141q40 140 200 140q109 0 163.5 -61.5t54.5 -210.5h-403v-6
q0 -55 7.5 -94.5t26.5 -75.5t57 -54.5t94 -18.5zM280 19q103 0 145 61t42 184q0 124 -42 186t-145 62q-102 0 -144.5 -62.5t-42.5 -185.5t42 -184t145 -61zM684 512q-175 0 -184 -216h367q-4 110 -46 163t-137 53z" />
    <glyph glyph-name="Racute" unicode="&#x154;" horiz-adv-x="640" 
d="M410 867l-77 -107h-32l66 107h43zM594 0h-39l-160 303q-34 -2 -53 -2h-216v-301h-34v707h250q123 0 180.5 -44.5t57.5 -158.5q0 -94 -37 -139.5t-114 -57.5zM126 333l216 -1q49 0 79.5 5t62 21t46.5 52t15 94q0 56 -15 92t-46 52.5t-62.5 22t-79.5 5.5h-216v-343z" />
    <glyph glyph-name="racute" unicode="&#x155;" horiz-adv-x="337" 
d="M257 762l-77 -125h-31l66 125h42zM110 531l11 -127q6 19 17 38.5t32 43.5t58.5 39t85.5 15v-30q-41 0 -74.5 -13.5t-53 -32.5t-34 -43.5t-20.5 -41t-9 -31.5v-348h-33v384l-10 147h30z" />
    <glyph glyph-name="Rcommaaccent" unicode="&#x156;" horiz-adv-x="640" 
d="M594 0h-39l-160 303q-34 -2 -53 -2h-216v-301h-34v707h250q123 0 180.5 -44.5t57.5 -158.5q0 -94 -37 -139.5t-114 -57.5zM126 333l216 -1q49 0 79.5 5t62 21t46.5 52t15 94q0 56 -15 92t-46 52.5t-62.5 22t-79.5 5.5h-216v-343zM295 -118q5 19 8 38.5t4 29.5l1 11h36
q-4 -39 -15 -80q-6 -21 -14 -41.5t-13 -31.5l-6 -10h-30q17 36 29 84z" />
    <glyph glyph-name="rcommaaccent" unicode="&#x157;" horiz-adv-x="337" 
d="M110 531l11 -127q6 19 17 38.5t32 43.5t58.5 39t85.5 15v-30q-41 0 -74.5 -13.5t-53 -32.5t-34 -43.5t-20.5 -41t-9 -31.5v-348h-33v384l-10 147h30zM76 -118q5 19 8 38.5t4 29.5l1 11h36q-4 -39 -15 -80q-6 -21 -14 -41.5t-14 -31.5l-5 -10h-30q17 36 29 84z" />
    <glyph glyph-name="Rcaron" unicode="&#x158;" horiz-adv-x="640" 
d="M331 760h-28l-98 101h37l75 -72l74 72h38zM594 0h-39l-160 303q-34 -2 -53 -2h-216v-301h-34v707h250q123 0 180.5 -44.5t57.5 -158.5q0 -94 -37 -139.5t-114 -57.5zM126 333l216 -1q49 0 79.5 5t62 21t46.5 52t15 94q0 56 -15 92t-46 52.5t-62.5 22t-79.5 5.5h-216v-343
z" />
    <glyph glyph-name="rcaron" unicode="&#x159;" horiz-adv-x="337" 
d="M196 637h-26l-100 125h35l77 -94l77 94h37zM110 531l11 -127q6 19 17 38.5t32 43.5t58.5 39t85.5 15v-30q-41 0 -74.5 -13.5t-53 -32.5t-34 -43.5t-20.5 -41t-9 -31.5v-348h-33v384l-10 147h30z" />
    <glyph glyph-name="Sacute" unicode="&#x15a;" horiz-adv-x="618" 
d="M296 761l66 107h43l-77 -107h-32zM53 205h34q0 -89 56 -139t167 -51q116 -1 170 40.5t54 113.5q0 55 -25.5 90.5t-66.5 52t-90 27t-98.5 21.5t-90.5 29t-66.5 56t-25.5 96q0 85 57.5 132.5t177.5 46.5q124 -1 183.5 -54t59.5 -141h-33q0 30 -10 56.5t-32 51.5t-65 40
t-103 16q-200 1 -200 -148q0 -51 25.5 -83.5t66.5 -47.5t90 -24.5t98.5 -21.5t90.5 -31t66.5 -60.5t25.5 -103.5q0 -89 -66.5 -137.5t-192.5 -47.5q-122 1 -189.5 55.5t-67.5 165.5z" />
    <glyph glyph-name="sacute" unicode="&#x15b;" horiz-adv-x="504" 
d="M219 637l66 125h42l-77 -125h-31zM45 160h32q0 -139 175 -140q172 -3 174 113q0 38 -20 63t-52 36.5t-71.5 19t-78.5 16t-72 22t-53.5 41.5t-21.5 71q0 65 49.5 102t148.5 36q191 -3 191 -158h-31q0 60 -35.5 94.5t-123.5 35.5q-90 1 -127.5 -30.5t-37.5 -79.5
q0 -41 27.5 -66t68.5 -33.5t88.5 -19t88.5 -22.5t68.5 -44t27.5 -83q0 -146 -208 -143q-207 3 -207 169z" />
    <glyph glyph-name="Scircumflex" unicode="&#x15c;" horiz-adv-x="618" 
d="M312 833l-74 -72h-38l98 101h28l98 -101h-38zM106 541q0 -51 25.5 -83.5t66.5 -47.5t90 -24.5t98.5 -21.5t90.5 -31t66.5 -60.5t25.5 -103.5q0 -89 -66.5 -137.5t-192.5 -47.5q-122 1 -189.5 55.5t-67.5 165.5h34q0 -89 56 -139t167 -51q116 -1 170 40.5t54 113.5
q0 55 -25.5 90.5t-66.5 52t-90 27t-98.5 21.5t-90.5 29t-66.5 56t-25.5 96q0 85 57.5 132.5t177.5 46.5q124 -1 183.5 -54t59.5 -141h-33q0 30 -10 56.5t-32 51.5t-65 40t-103 16q-200 1 -200 -148z" />
    <glyph glyph-name="scircumflex" unicode="&#x15d;" horiz-adv-x="504" 
d="M253 731l-77 -94h-36l100 125h26l100 -125h-36zM91 402q0 -41 27.5 -66t68.5 -33.5t88.5 -19t88.5 -22.5t68.5 -44t27.5 -83q0 -146 -208 -143q-207 3 -207 169h32q0 -139 175 -140q172 -3 174 113q0 38 -20 63t-52 36.5t-71.5 19t-78.5 16t-72 22t-53.5 41.5t-21.5 71
q0 65 49.5 102t148.5 36q191 -3 191 -158h-31q0 60 -35.5 94.5t-123.5 35.5q-90 1 -127.5 -30.5t-37.5 -79.5z" />
    <glyph glyph-name="Scedilla" unicode="&#x15e;" horiz-adv-x="618" 
d="M569 169q0 -86 -62 -134.5t-180 -50.5l-22 -46q87 -5 87 -70q0 -41 -25 -57.5t-75 -16.5l-48 5v25q20 -5 45 -5q39 0 55.5 10t16.5 40q0 50 -87 50h-6l30 65q-116 3 -180.5 57.5t-64.5 163.5h34q0 -89 56 -139t167 -51q116 -1 170 40.5t54 113.5q0 55 -25.5 90.5
t-66.5 52t-90 27t-98.5 21.5t-90.5 29t-66.5 56t-25.5 96q0 85 57.5 132.5t177.5 46.5q124 -1 183.5 -54t59.5 -141h-33q0 30 -10 56.5t-32 51.5t-65 40t-103 16q-200 1 -200 -148q0 -51 25.5 -83.5t66.5 -47.5t90 -24.5t98.5 -21.5t90.5 -31t66.5 -60.5t25.5 -103.5z" />
    <glyph glyph-name="scedilla" unicode="&#x15f;" horiz-adv-x="504" 
d="M460 134q0 -142 -194 -143l-22 -45q87 -5 87 -70q0 -41 -25 -57.5t-75 -16.5l-48 5v25q20 -5 45 -5q39 0 55.5 10t16.5 40q0 50 -87 50h-6l30 64q-192 9 -192 169h32q0 -139 175 -140q172 -3 174 113q0 38 -20 63t-52 36.5t-71.5 19t-78.5 16t-72 22t-53.5 41.5t-21.5 71
q0 65 49.5 102t148.5 36q191 -3 191 -158h-31q0 60 -35.5 94.5t-123.5 35.5q-90 1 -127.5 -30.5t-37.5 -79.5q0 -41 27.5 -66t68.5 -33.5t88.5 -19t88.5 -22.5t68.5 -44t27.5 -83z" />
    <glyph glyph-name="Scaron" unicode="&#x160;" horiz-adv-x="618" 
d="M326 761h-28l-98 101h37l75 -72l74 72h38zM106 541q0 -51 25.5 -83.5t66.5 -47.5t90 -24.5t98.5 -21.5t90.5 -31t66.5 -60.5t25.5 -103.5q0 -89 -66.5 -137.5t-192.5 -47.5q-122 1 -189.5 55.5t-67.5 165.5h34q0 -89 56 -139t167 -51q116 -1 170 40.5t54 113.5
q0 55 -25.5 90.5t-66.5 52t-90 27t-98.5 21.5t-90.5 29t-66.5 56t-25.5 96q0 85 57.5 132.5t177.5 46.5q124 -1 183.5 -54t59.5 -141h-33q0 30 -10 56.5t-32 51.5t-65 40t-103 16q-200 1 -200 -148z" />
    <glyph glyph-name="scaron" unicode="&#x161;" horiz-adv-x="504" 
d="M266 637h-26l-100 125h35l77 -94l77 94h37zM91 402q0 -41 27.5 -66t68.5 -33.5t88.5 -19t88.5 -22.5t68.5 -44t27.5 -83q0 -146 -208 -143q-207 3 -207 169h32q0 -139 175 -140q172 -3 174 113q0 38 -20 63t-52 36.5t-71.5 19t-78.5 16t-72 22t-53.5 41.5t-21.5 71
q0 65 49.5 102t148.5 36q191 -3 191 -158h-31q0 60 -35.5 94.5t-123.5 35.5q-90 1 -127.5 -30.5t-37.5 -79.5z" />
    <glyph glyph-name="uni0162" unicode="&#x162;" horiz-adv-x="536" 
d="M281 0h-5l-27 -56q87 -5 87 -70q0 -41 -25 -57.5t-75 -16.5l-48 5v25q20 -5 45 -5q39 0 55.5 10t16.5 40q0 50 -87 50h-6l35 75h-1l5 672h-240v32h514v-32h-240z" />
    <glyph glyph-name="uni0163" unicode="&#x163;" horiz-adv-x="298" 
d="M282 -1h-46q-25 0 -42 4l-22 -47q87 -5 87 -70q0 -41 -25 -57.5t-75 -16.5l-48 5v25q20 -5 45 -5q39 0 55.5 10t16.5 40q0 50 -87 50h-6l34 73q-45 18 -58.5 61.5t-13.5 117.5v313h-67v29h67v161l33 9v-170h148v-29h-148v-313q0 -39 3.5 -64t13.5 -49t33 -35.5t58 -11.5
h44v-30z" />
    <glyph glyph-name="Tcaron" unicode="&#x164;" horiz-adv-x="536" 
d="M283 760h-28l-98 101h37l75 -72l74 72h38zM525 704v-32h-240l-4 -672h-35l5 672h-240v32h514z" />
    <glyph glyph-name="tcaron" unicode="&#x165;" horiz-adv-x="298" 
d="M280 734l-58 -129h-29l47 129h40zM238 29h44v-30h-46q-38 0 -64.5 10.5t-41 26t-22 43t-9.5 51t-2 59.5v313h-67v29h67v161l33 9v-170h148v-29h-148v-313q0 -39 3.5 -64t13.5 -49t33 -35.5t58 -11.5z" />
    <glyph glyph-name="Tbar" unicode="&#x166;" horiz-adv-x="554" 
d="M534 672h-240l-2 -307h129v-30h-129l-2 -335h-35l2 335h-123v30h124l2 307h-240v32h514v-32z" />
    <glyph glyph-name="tbar" unicode="&#x167;" horiz-adv-x="298" 
d="M238 29h44v-30h-46q-38 0 -64.5 10.5t-41 26t-22 43t-9.5 51t-2 59.5v76h-71v28h71v209h-67v29h67v161l33 9v-170h148v-29h-148v-209h143v-28h-143v-76q0 -39 3.5 -64t13.5 -49t33 -35.5t58 -11.5z" />
    <glyph glyph-name="Utilde" unicode="&#x168;" horiz-adv-x="677" 
d="M425 842h25q0 -78 -62 -78q-32 0 -53 22.5t-42 22.5q-39 0 -39 -49h-26q0 77 64 77q31 0 51.5 -22t41.5 -22q40 0 40 49zM338 -16q-80 0 -132.5 24.5t-80 75.5t-37.5 112.5t-10 152.5v355h34v-355q0 -176 47.5 -255t178.5 -79q132 0 179 79t47 255v355h36v-355
q0 -91 -10.5 -153t-38 -112.5t-80.5 -75t-133 -24.5z" />
    <glyph glyph-name="utilde" unicode="&#x169;" horiz-adv-x="566" 
d="M238 687q-40 0 -40 -50h-25q0 76 64 76q31 0 51.5 -22.5t41.5 -22.5q41 0 41 50h24q0 -77 -62 -77q-32 0 -53 23t-42 23zM493 0h-30l-11 128q-8 -18 -22 -38t-37.5 -44t-59.5 -39.5t-77 -15.5q-94 0 -138.5 50.5t-44.5 173.5l1 316h33l-1 -313q0 -102 34 -149t119 -47
q42 0 78.5 18t59 46.5t34 48t19.5 38.5v358h33v-384z" />
    <glyph glyph-name="Umacron" unicode="&#x16a;" horiz-adv-x="677" 
d="M236 817h206v-29h-206v29zM338 -16q-80 0 -132.5 24.5t-80 75.5t-37.5 112.5t-10 152.5v355h34v-355q0 -176 47.5 -255t178.5 -79q132 0 179 79t47 255v355h36v-355q0 -91 -10.5 -153t-38 -112.5t-80.5 -75t-133 -24.5z" />
    <glyph glyph-name="umacron" unicode="&#x16b;" horiz-adv-x="566" 
d="M387 694v-28h-206v28h206zM493 0h-30l-11 128q-8 -18 -22 -38t-37.5 -44t-59.5 -39.5t-77 -15.5q-94 0 -138.5 50.5t-44.5 173.5l1 316h33l-1 -313q0 -102 34 -149t119 -47q42 0 78.5 18t59 46.5t34 48t19.5 38.5v358h33v-384z" />
    <glyph glyph-name="Ubreve" unicode="&#x16c;" horiz-adv-x="677" 
d="M415 846h29q0 -30 -28.5 -58t-76.5 -28t-76.5 28t-28.5 58h30q0 -21 21.5 -39.5t53.5 -18.5t54 18.5t22 39.5zM338 -16q-80 0 -132.5 24.5t-80 75.5t-37.5 112.5t-10 152.5v355h34v-355q0 -176 47.5 -255t178.5 -79q132 0 179 79t47 255v355h36v-355q0 -91 -10.5 -153
t-38 -112.5t-80.5 -75t-133 -24.5z" />
    <glyph glyph-name="ubreve" unicode="&#x16d;" horiz-adv-x="566" 
d="M284 636q-47 0 -76 32t-29 64h29q0 -22 22 -44.5t54 -22.5t54.5 23t22.5 44h28q0 -32 -29 -64t-76 -32zM493 0h-30l-11 128q-8 -18 -22 -38t-37.5 -44t-59.5 -39.5t-77 -15.5q-94 0 -138.5 50.5t-44.5 173.5l1 316h33l-1 -313q0 -102 34 -149t119 -47q42 0 78.5 18
t59 46.5t34 48t19.5 38.5v358h33v-384z" />
    <glyph glyph-name="Uring" unicode="&#x16e;" horiz-adv-x="677" 
d="M339 760q-31 0 -48.5 18t-17.5 46t17.5 46t48.5 18t49 -18t18 -46t-18 -46t-49 -18zM339 783q18 0 29 11t11 30t-11 30t-29 11t-29 -11t-11 -30t11 -30t29 -11zM338 -16q-80 0 -132.5 24.5t-80 75.5t-37.5 112.5t-10 152.5v355h34v-355q0 -176 47.5 -255t178.5 -79
q132 0 179 79t47 255v355h36v-355q0 -91 -10.5 -153t-38 -112.5t-80.5 -75t-133 -24.5z" />
    <glyph glyph-name="uring" unicode="&#x16f;" horiz-adv-x="566" 
d="M284 636q-32 0 -50.5 19t-18.5 47t18.5 47t50.5 19t50.5 -19t18.5 -47t-18.5 -47t-50.5 -19zM284 743q-18 0 -29 -11t-11 -30t11 -30t29 -11t29 11t11 30t-11 30t-29 11zM493 0h-30l-11 128q-8 -18 -22 -38t-37.5 -44t-59.5 -39.5t-77 -15.5q-94 0 -138.5 50.5
t-44.5 173.5l1 316h33l-1 -313q0 -102 34 -149t119 -47q42 0 78.5 18t59 46.5t34 48t19.5 38.5v358h33v-384z" />
    <glyph glyph-name="Uhungarumlaut" unicode="&#x170;" horiz-adv-x="677" 
d="M255 760l59 107h43l-70 -107h-32zM366 760l68 107h43l-78 -107h-33zM338 -16q-80 0 -132.5 24.5t-80 75.5t-37.5 112.5t-10 152.5v355h34v-355q0 -176 47.5 -255t178.5 -79q132 0 179 79t47 255v355h36v-355q0 -91 -10.5 -153t-38 -112.5t-80.5 -75t-133 -24.5z" />
    <glyph glyph-name="uhungarumlaut" unicode="&#x171;" horiz-adv-x="566" 
d="M300 762l-70 -125h-31l59 125h42zM420 762l-78 -125h-32l68 125h42zM493 0h-30l-11 128q-8 -18 -22 -38t-37.5 -44t-59.5 -39.5t-77 -15.5q-94 0 -138.5 50.5t-44.5 173.5l1 316h33l-1 -313q0 -102 34 -149t119 -47q42 0 78.5 18t59 46.5t34 48t19.5 38.5v358h33v-384z
" />
    <glyph glyph-name="Uogonek" unicode="&#x172;" horiz-adv-x="677" 
d="M564 704h36v-355q0 -130 -24 -210.5t-87 -119.5q-3 -2 -7 -4l-6 -3q-74 -43 -74 -92q0 -22 12.5 -33t30.5 -11q11 0 23 3t18 7l7 3v-24q-23 -15 -54 -15q-33 0 -51 17.5t-18 48.5q0 40 37 73q-35 -5 -69 -5q-80 0 -132.5 24.5t-80 75.5t-37.5 112.5t-10 152.5v355h34
v-355q0 -176 47.5 -255t178.5 -79q132 0 179 79t47 255v355z" />
    <glyph glyph-name="uogonek" unicode="&#x173;" horiz-adv-x="566" 
d="M446 -143q11 0 23 3.5t19 6.5l6 3v-24q-23 -15 -54 -15q-33 0 -51 17.5t-18 48.5q0 22 11.5 42.5t30 35.5t29.5 21.5t20 11.5l-10 120q-8 -18 -22 -38t-37.5 -44t-59.5 -39.5t-77 -15.5q-94 0 -138.5 50.5t-44.5 173.5l1 316h33l-1 -313q0 -102 34 -149t119 -47
q42 0 78.5 18t59 46.5t34 48t19.5 38.5v358h33v-384l10 -147h-2q-4 -2 -9.5 -5t-21 -12.5t-27 -20.5t-21 -27.5t-9.5 -33.5q0 -22 12.5 -33t30.5 -11z" />
    <glyph glyph-name="Wcircumflex" unicode="&#x174;" horiz-adv-x="925" 
d="M463 832l-74 -72h-38l98 101h28l98 -101h-38zM875 704h36l-212 -704h-37l-200 656l-193 -656h-36l-220 704h38l201 -661l193 661h34l203 -663z" />
    <glyph glyph-name="wcircumflex" unicode="&#x175;" horiz-adv-x="728" 
d="M364 731l-77 -94h-36l100 125h26l100 -125h-36zM685 531h34l-163 -531h-41l-152 479l-144 -479h-41l-169 532h35l155 -498l148 497h34l155 -495z" />
    <glyph glyph-name="Ycircumflex" unicode="&#x176;" horiz-adv-x="553" 
d="M276 832l-74 -72h-38l98 101h28l98 -101h-38zM502 704h38l-241 -419v-285h-35v285l-251 419h40l229 -382z" />
    <glyph glyph-name="ycircumflex" unicode="&#x177;" horiz-adv-x="466" 
d="M232 731l-77 -94h-36l100 125h26l100 -125h-36zM422 531h35l-277 -749h-33l80 218h-10l-208 531h38l191 -500z" />
    <glyph glyph-name="Ydieresis" unicode="&#x178;" horiz-adv-x="553" 
d="M230 873v-113h-34v113h34zM357 873v-113h-34v113h34zM502 704h38l-241 -419v-285h-35v285l-251 419h40l229 -382z" />
    <glyph glyph-name="Zacute" unicode="&#x179;" horiz-adv-x="531" 
d="M371 867l-77 -107h-32l66 107h43zM59 35h449v-30h-488v32l445 631h-416v31h455v-33z" />
    <glyph glyph-name="zacute" unicode="&#x17a;" horiz-adv-x="408" 
d="M286 762l-77 -125h-31l66 125h42zM28 526h359v-32l-336 -460l336 1v-29h-369v31l334 461l-324 -1v29z" />
    <glyph glyph-name="Zdotaccent" unicode="&#x17b;" horiz-adv-x="531" 
d="M295 873v-113h-33v113h33zM59 35h449v-30h-488v32l445 631h-416v31h455v-33z" />
    <glyph glyph-name="zdotaccent" unicode="&#x17c;" horiz-adv-x="408" 
d="M229 759v-113h-33v113h33zM28 526h359v-32l-336 -460l336 1v-29h-369v31l334 461l-324 -1v29z" />
    <glyph glyph-name="Zcaron" unicode="&#x17d;" horiz-adv-x="531" 
d="M292 760h-28l-98 101h37l75 -72l74 72h38zM59 35h449v-30h-488v32l445 631h-416v31h455v-33z" />
    <glyph glyph-name="zcaron" unicode="&#x17e;" horiz-adv-x="408" 
d="M225 637h-26l-100 125h35l77 -94l77 94h37zM28 526h359v-32l-336 -460l336 1v-29h-369v31l334 461l-324 -1v29z" />
    <glyph glyph-name="uni018F" unicode="&#x18f;" horiz-adv-x="686" 
d="M343 720q157 0 220 -94t63 -275t-63 -274t-220 -93q-81 0 -137 25t-87.5 74.5t-45 113.5t-13.5 151h34l498 -1v4q0 171 -57 254t-192 83q-103 0 -160 -48t-76 -146h-36q21 112 85 169t187 57zM343 15q129 0 186.5 74.5t62.5 229.5h-498q5 -154 62.5 -229t186.5 -75z" />
    <glyph glyph-name="uni019D" unicode="&#x19d;" horiz-adv-x="704" 
d="M578 704h34v-704h-37l-445 650l-5 -650q0 -122 -30.5 -169.5t-127.5 -47.5h-49v33h51q74 0 98.5 39t24.5 145l5 704h36l447 -651z" />
    <glyph glyph-name="Gcaron" unicode="&#x1e6;" horiz-adv-x="656" 
d="M351 761h-28l-98 101h37l75 -72l74 72h38zM587 333v-257q0 -5 -9 -15t-29 -23t-47.5 -25t-70.5 -20.5t-92 -8.5q-80 0 -135 25t-86 74.5t-44.5 114t-13.5 152.5q0 182 62.5 276t216.5 94q123 0 186.5 -63.5t63.5 -158.5h-34q-1 82 -57.5 136t-158.5 54
q-132 0 -188.5 -83.5t-56.5 -254.5t56.5 -253t189.5 -82q62 0 114.5 15.5t76 32t23.5 24.5v215h-166v31h199z" />
    <glyph glyph-name="gcaron" unicode="&#x1e7;" horiz-adv-x="572" 
d="M295 637h-26l-100 125h35l77 -94l77 94h37zM469 531h30l-9 -130v-401q0 -44 -2.5 -72.5t-14.5 -63.5t-34 -55.5t-63.5 -34.5t-100.5 -14t-100.5 19t-59 45.5t-26.5 53.5t-9 46v19l32 1q0 -100 76 -138q36 -18 88 -18q50 0 85 12t53.5 29.5t28.5 48.5t12 56.5t2 65.5v99
q-53 -107 -195 -107q-203 0 -203 271q0 277 203 277q76 0 126 -34t72 -72zM265 21q84 0 131.5 42.5t60.5 95.5v232q-8 16 -21.5 33t-36.5 38.5t-58 35t-76 13.5q-86 0 -129 -65t-43 -183q0 -242 172 -242z" />
    <glyph glyph-name="uni01EA" unicode="&#x1ea;" horiz-adv-x="686" 
d="M482 11q-70 -40 -70 -90q0 -22 12.5 -33t30.5 -11q11 0 23 3.5t18 6.5l7 3v-24q-23 -15 -54 -15q-33 0 -51 17.5t-18 48.5q0 39 36 73q-33 -6 -73 -6q-157 0 -220 93t-63 274t63 275t220 94t220 -94t63 -275q0 -133 -33 -218.5t-111 -121.5zM94 351q0 -171 57 -253.5
t192 -82.5t192 82t57 254q0 171 -57 254t-192 83t-192 -83t-57 -254z" />
    <glyph glyph-name="uni01EB" unicode="&#x1eb;" horiz-adv-x="561" 
d="M388 9q-27 -14 -51 -38t-24 -54q0 -22 12.5 -33t30.5 -11q11 0 23 3.5t19 6.5l6 3v-24q-23 -15 -54 -15q-33 0 -51 17.5t-18 48.5q0 41 43 80q-20 -3 -43 -3q-124 0 -173 70.5t-49 203.5t49 204.5t173 72.5q123 1 172.5 -71.5t49.5 -205.5q0 -204 -115 -255zM280 19
q103 0 145.5 61t42.5 184t-42.5 185.5t-145.5 62.5q-102 0 -144.5 -62.5t-42.5 -185.5t42 -184t145 -61z" />
    <glyph glyph-name="Aringacute" unicode="&#x1fa;" horiz-adv-x="608" 
d="M397 1051l-77 -107h-32l66 107h43zM304 760q-31 0 -48.5 18t-17.5 46t17.5 46t48.5 18t49 -18t18 -46t-18 -46t-49 -18zM304 865q-18 0 -29 -11t-11 -30t11 -30t29 -11t29 11t11 30t-11 30t-29 11zM558 0l-81 210h-348l-80 -210h-36l273 704h36l273 -704h-37zM141 241
h325l-163 424z" />
    <glyph glyph-name="aringacute" unicode="&#x1fb;" horiz-adv-x="551" 
d="M355 944l-77 -125h-31l66 125h42zM272 636q-32 0 -50.5 19t-18.5 47t18.5 47t50.5 19t50.5 -19t18.5 -47t-18.5 -47t-50.5 -19zM272 743q-18 0 -29 -11t-11 -30t11 -30t29 -11t29 11t11 30t-11 30t-29 11zM478 1h-30l-10 95q-44 -105 -205 -105q-95 0 -136 38t-41 114
q0 102 87 132q57 20 217 19q70 -1 74 -1q0 55 -2.5 84.5t-11 60t-25.5 44t-45.5 22t-72.5 8.5q-51 0 -86.5 -13t-52 -35t-22.5 -42.5t-6 -44.5h-31q0 163 198 163q35 0 63 -4.5t47.5 -13.5t34 -22t22.5 -29.5t13.5 -36t7 -42t2.5 -47.5t0 -52v-29v-133zM236 18q81 0 133 34
t65 91v125q-174 0 -206 -3q-102 -10 -127 -63q-12 -25 -12 -60q0 -60 33.5 -92t113.5 -32z" />
    <glyph glyph-name="AEacute" unicode="&#x1fc;" horiz-adv-x="877" 
d="M551 867l-77 -107h-32l66 107h43zM458 32h398v-32h-432v210h-253l-119 -210h-39l400 704h439v-32h-394v-288h344v-31h-344v-321zM189 242h235v416z" />
    <glyph glyph-name="aeacute" unicode="&#x1fd;" horiz-adv-x="912" 
d="M553 762l-77 -125h-31l66 125h42zM824 276l-369 1v-15q0 -54 7.5 -94.5t26.5 -76t57 -54t94 -18.5q50 0 87.5 15t56 37.5t27 43.5t8.5 39h35q0 -14 -4 -31t-18 -42t-35.5 -44t-62.5 -33t-94 -14q-154 0 -197 120q-40 -119 -210 -119q-177 0 -177 161q0 102 86 133
q57 20 215 18h23h42q3 47 10 78q-6 73 -38 102t-117 29q-51 0 -86.5 -13t-52 -35t-22.5 -42.5t-6 -44.5h-31q0 163 198 163q84 0 122.5 -27t49.5 -80q49 107 191 107q109 0 164 -60t55 -204h-35zM640 512q-95 0 -136.5 -56t-47.5 -152h367q-4 104 -46.5 156t-136.5 52z
M236 18q85 0 135.5 36.5t59.5 97.5q-10 46 -10 111v14q-168 1 -208 -4q-95 -13 -116 -71q-8 -22 -8 -51q0 -133 147 -133z" />
    <glyph glyph-name="Oslashacute" unicode="&#x1fe;" horiz-adv-x="686" 
d="M430 868l-77 -107h-32l66 107h43zM604 714l-51 -75q73 -87 73 -288q0 -181 -63 -274t-220 -93q-127 0 -194 64l-38 -55h-36l53 78q-68 87 -68 280q0 181 63 275t220 94q121 0 188 -59l36 53h37zM94 351q0 -171 55 -250l362 531q-59 56 -168 56q-135 0 -192 -83t-57 -254z
M343 15q135 0 192 82t57 254q0 178 -60 258l-364 -532q60 -62 175 -62z" />
    <glyph glyph-name="oslashacute" unicode="&#x1ff;" horiz-adv-x="561" 
d="M354 754l-77 -125h-31l66 125h42zM491 537l-43 -61q55 -66 55 -212q0 -133 -49.5 -203.5t-172.5 -70.5q-94 0 -147 44l-26 -37h-35l40 57q-54 66 -54 210q0 133 49 204.5t173 72.5q94 0 147 -44l28 40h35zM93 264q0 -125 41 -182l274 388q-45 42 -128 42
q-102 0 -144.5 -62.5t-42.5 -185.5zM280 19q103 0 145.5 61t42.5 184q0 126 -41 183l-274 -387q44 -41 127 -41z" />
    <glyph glyph-name="Scommaaccent" unicode="&#x218;" horiz-adv-x="618" 
d="M53 205h34q0 -89 56 -139t167 -51q116 -1 170 40.5t54 113.5q0 55 -25.5 90.5t-66.5 52t-90 27t-98.5 21.5t-90.5 29t-66.5 56t-25.5 96q0 85 57.5 132.5t177.5 46.5q124 -1 183.5 -54t59.5 -141h-33q0 30 -10 56.5t-32 51.5t-65 40t-103 16q-200 1 -200 -148
q0 -51 25.5 -83.5t66.5 -47.5t90 -24.5t98.5 -21.5t90.5 -31t66.5 -60.5t25.5 -103.5q0 -89 -66.5 -137.5t-192.5 -47.5q-122 1 -189.5 55.5t-67.5 165.5zM306 -211h-30q17 36 29 84q5 19 8 38.5t4 30.5l1 10h36q-4 -39 -15 -80q-6 -21 -14 -41.5t-13 -30.5z" />
    <glyph glyph-name="scommaaccent" unicode="&#x219;" horiz-adv-x="504" 
d="M45 160h32q0 -139 175 -140q172 -3 174 113q0 38 -20 63t-52 36.5t-71.5 19t-78.5 16t-72 22t-53.5 41.5t-21.5 71q0 65 49.5 102t148.5 36q191 -3 191 -158h-31q0 60 -35.5 94.5t-123.5 35.5q-90 1 -127.5 -30.5t-37.5 -79.5q0 -41 27.5 -66t68.5 -33.5t88.5 -19
t88.5 -22.5t68.5 -44t27.5 -83q0 -146 -208 -143q-207 3 -207 169zM245 -203h-30q17 36 29 84q5 19 8 38.5t4 30.5l1 10h36q-4 -39 -15 -80q-6 -21 -14 -41.5t-14 -30.5z" />
    <glyph glyph-name="uni021A" unicode="&#x21a;" horiz-adv-x="554" 
d="M534 704v-32h-240l-4 -672h-35l5 672h-240v32h514zM241 -121q4 19 7 38.5t4 30.5l1 10h36q-3 -39 -15 -80q-6 -21 -14 -41.5t-14 -30.5l-5 -11h-30q17 36 30 84z" />
    <glyph glyph-name="uni021B" unicode="&#x21b;" horiz-adv-x="298" 
d="M238 29h44v-30h-46q-38 0 -64.5 10.5t-41 26t-22 43t-9.5 51t-2 59.5v313h-67v29h67v161l33 9v-170h148v-29h-148v-313q0 -39 3.5 -64t13.5 -49t33 -35.5t58 -11.5zM172 -109q5 19 8 38.5t4 30.5l1 10h36q-4 -39 -15 -80q-6 -21 -14 -41.5t-14 -30.5l-5 -11h-30
q17 36 29 84z" />
    <glyph glyph-name="uni0232" unicode="&#x232;" horiz-adv-x="553" 
d="M379 817v-29h-206v29h206zM502 704h38l-241 -419v-285h-35v285l-251 419h40l229 -382z" />
    <glyph glyph-name="uni0233" unicode="&#x233;" horiz-adv-x="466" 
d="M335 694v-28h-206v28h206zM422 531h35l-277 -749h-33l80 218h-10l-208 531h38l191 -500z" />
    <glyph glyph-name="uni0237" unicode="&#x237;" horiz-adv-x="219" 
d="M-21 -172v30q30 0 50 3t33.5 14t20.5 20.5t10.5 33.5t4 42t0.5 57v503h33v-503q0 -43 -1 -66.5t-6 -50t-14.5 -39.5t-26.5 -24.5t-42.5 -15.5t-61.5 -4z" />
    <glyph glyph-name="uni0259" unicode="&#x259;" horiz-adv-x="555" 
d="M277 540q118 0 169 -66.5t51 -205.5q0 -141 -51 -209.5t-169 -68.5q-109 0 -163.5 61.5t-54.5 210.5h404v7q0 54 -7.5 94.5t-26.5 76t-57 54t-94 18.5q-51 0 -88.5 -15t-55.5 -38t-26.5 -44t-8.5 -39h-35q0 14 4 31.5t18 42t35.5 43.5t62 33t93.5 14zM278 18q51 0 87 17
t56 48.5t29.5 68t11.5 83.5h-369q5 -110 47.5 -163.5t137.5 -53.5z" />
    <glyph glyph-name="uni0272" unicode="&#x272;" horiz-adv-x="585" 
d="M319 540q95 0 138.5 -50.5t43.5 -174.5v-315h-33v314q0 101 -34 148.5t-118 47.5q-69 0 -114.5 -40t-70.5 -90v-338q0 -43 -1 -66.5t-6 -50t-14.5 -39.5t-26.5 -24.5t-42.5 -15.5t-61.5 -4v31q30 0 50 3t33.5 13.5t20.5 20t10.5 33.5t4 42t0.5 57v353l-10 136h30l10 -111
q25 46 72.5 83t118.5 37z" />
    <glyph glyph-name="circumflex" unicode="&#x2c6;" horiz-adv-x="357" 
d="M283 637h-36l-77 94l-77 -94h-36l100 125h26z" />
    <glyph glyph-name="caron" unicode="&#x2c7;" horiz-adv-x="357" 
d="M246 762h37l-100 -125h-26l-100 125h35l77 -94z" />
    <glyph glyph-name="breve" unicode="&#x2d8;" horiz-adv-x="346" 
d="M237 732h28q0 -32 -29 -64t-76 -32t-76 32t-29 64h29q0 -22 22 -44.5t54 -22.5t54.5 23t22.5 44z" />
    <glyph glyph-name="dotaccent" unicode="&#x2d9;" horiz-adv-x="188" 
d="M62 646v113h33v-113h-33z" />
    <glyph glyph-name="ring" unicode="&#x2da;" horiz-adv-x="288" 
d="M129 636q-32 0 -50.5 19t-18.5 47t18.5 47t50.5 19t50.5 -19t18.5 -47t-18.5 -47t-50.5 -19zM129 661q18 0 29 11t11 30t-11 30t-29 11t-29 -11t-11 -30t11 -30t29 -11z" />
    <glyph glyph-name="ogonek" unicode="&#x2db;" horiz-adv-x="286" 
d="M113 10l27 -9q-4 -2 -9.5 -5t-21 -12.5t-27 -20.5t-21 -27.5t-9.5 -33.5q0 -22 12.5 -33t30.5 -11q11 0 23 3t18 7l7 3v-24q-23 -15 -54 -15q-33 0 -51 17.5t-18 48.5t23 59t47 41z" />
    <glyph glyph-name="tilde" unicode="&#x2dc;" horiz-adv-x="357" 
d="M258 718h24q0 -77 -62 -77q-32 0 -53 23t-42 23q-40 0 -40 -50h-25q0 76 64 76q31 0 51.5 -22.5t41.5 -22.5q41 0 41 50z" />
    <glyph glyph-name="hungarumlaut" unicode="&#x2dd;" horiz-adv-x="344" 
d="M59 637l59 125h42l-70 -125h-31zM170 637l68 125h42l-78 -125h-32z" />
    <glyph glyph-name="gravecomb" unicode="&#x300;" 
d="M-59 637h-32l-76 125h42z" />
    <glyph glyph-name="acutecomb" unicode="&#x301;" 
d="M-166 637l66 125h42l-77 -125h-31z" />
    <glyph glyph-name="uni0302" unicode="&#x302;" 
d="M-57 637h-36l-77 94l-77 -94h-36l100 125h26z" />
    <glyph glyph-name="tildecomb" unicode="&#x303;" 
d="M-85 718h24q0 -77 -62 -77q-32 0 -53 23t-42 23q-40 0 -40 -50h-25q0 76 64 76q31 0 51.5 -22.5t41.5 -22.5q41 0 41 50z" />
    <glyph glyph-name="uni0304" unicode="&#x304;" 
d="M-266 694h206v-28h-206v28z" />
    <glyph glyph-name="uni0306" unicode="&#x306;" 
d="M-83 732h28q0 -32 -29 -64t-76 -32t-76 32t-29 64h29q0 -22 22 -44.5t54 -22.5t54.5 23t22.5 44z" />
    <glyph glyph-name="uni0307" unicode="&#x307;" 
d="M-94 646v113h33v-113h-33z" />
    <glyph glyph-name="uni0308" unicode="&#x308;" 
d="M-226 637v113h34v-113h-34zM-97 637v113h34v-113h-34z" />
    <glyph glyph-name="uni030A" unicode="&#x30a;" 
d="M-129 636q-32 0 -50.5 19t-18.5 47t18.5 47t50.5 19t50.5 -19t18.5 -47t-18.5 -47t-50.5 -19zM-129 661q18 0 29 11t11 30t-11 30t-29 11t-29 -11t-11 -30t11 -30t29 -11z" />
    <glyph glyph-name="uni030B" unicode="&#x30b;" 
d="M-279 637l59 125h42l-70 -125h-31zM-168 637l68 125h42l-78 -125h-32z" />
    <glyph glyph-name="uni030C" unicode="&#x30c;" 
d="M-94 762h37l-100 -125h-26l-100 125h35l77 -94z" />
    <glyph glyph-name="uni0312" unicode="&#x312;" 
d="M-89 772h31q-22 -43 -36 -106q-7 -28 -10 -51.5t-3 -32.5v-10h-37q-2 33 13 95q7 28 17.5 54t17.5 39z" />
    <glyph glyph-name="dotbelowcomb" unicode="&#x323;" 
d="M-94 -173v95h33v-95h-33z" />
    <glyph glyph-name="uni0326" unicode="&#x326;" 
d="M-144 -202h-30q17 36 29 84q5 19 8 38.5t4 29.5l1 11h36q-4 -39 -15 -80q-6 -21 -14 -41.5t-13 -31.5z" />
    <glyph glyph-name="uni0327" unicode="&#x327;" 
d="M-109 3l-27 -56q87 -5 87 -70q0 -41 -25 -57.5t-75 -16.5l-48 5v25q20 -5 45 -5q39 0 55.5 10t16.5 40q0 50 -87 50h-6l35 75h29z" />
    <glyph glyph-name="uni0328" unicode="&#x328;" 
d="M-132 10l27 -9q-4 -2 -9.5 -5t-21 -12.5t-27 -20.5t-21 -27.5t-9.5 -33.5q0 -22 12.5 -33t30.5 -11q11 0 23 3t19 7l6 3v-24q-23 -15 -54 -15q-33 0 -51 17.5t-18 48.5t23.5 59t46.5 41z" />
    <glyph glyph-name="uni0335" unicode="&#x335;" 
d="M-296 308v28h247v-28h-247z" />
    <glyph glyph-name="uni0336" unicode="&#x336;" 
d="M-683 307v30h618v-30h-618z" />
    <glyph glyph-name="uni0337" unicode="&#x337;" 
d="M-265 226l-15 24l212 140l15 -24z" />
    <glyph glyph-name="uni0338" unicode="&#x338;" 
d="M-369 111l383 540h35l-383 -540h-35z" />
    <glyph glyph-name="pi" unicode="&#x3c0;" horiz-adv-x="610" 
d="M539 28h13v-28h-13q-30 0 -51.5 9t-33 22.5t-18 37t-8 43.5t-1.5 51v343h-258v-506h-31v506h-90v29h500v-29h-90v-343q0 -32 2.5 -52t10 -41t24.5 -31.5t44 -10.5z" />
    <glyph glyph-name="Wgrave" unicode="&#x1e80;" horiz-adv-x="925" 
d="M482 760h-33l-76 107h42zM875 704h36l-212 -704h-37l-200 656l-193 -656h-36l-220 704h38l201 -661l193 661h34l203 -663z" />
    <glyph glyph-name="wgrave" unicode="&#x1e81;" horiz-adv-x="728" 
d="M376 637h-32l-76 125h42zM685 531h34l-163 -531h-41l-152 479l-144 -479h-41l-169 532h35l155 -498l148 497h34l155 -495z" />
    <glyph glyph-name="Wacute" unicode="&#x1e82;" horiz-adv-x="925" 
d="M556 867l-77 -107h-32l66 107h43zM875 704h36l-212 -704h-37l-200 656l-193 -656h-36l-220 704h38l201 -661l193 661h34l203 -663z" />
    <glyph glyph-name="wacute" unicode="&#x1e83;" horiz-adv-x="728" 
d="M438 762l-77 -125h-31l66 125h42zM685 531h34l-163 -531h-41l-152 479l-144 -479h-41l-169 532h35l155 -498l148 497h34l155 -495z" />
    <glyph glyph-name="Wdieresis" unicode="&#x1e84;" horiz-adv-x="925" 
d="M417 873v-113h-34v113h34zM544 873v-113h-34v113h34zM875 704h36l-212 -704h-37l-200 656l-193 -656h-36l-220 704h38l201 -661l193 661h34l203 -663z" />
    <glyph glyph-name="wdieresis" unicode="&#x1e85;" horiz-adv-x="728" 
d="M317 750v-113h-34v113h34zM446 750v-113h-34v113h34zM685 531h34l-163 -531h-41l-152 479l-144 -479h-41l-169 532h35l155 -498l148 497h34l155 -495z" />
    <glyph glyph-name="uni1EA0" unicode="&#x1ea0;" horiz-adv-x="608" 
d="M595 0h-37l-81 210h-348l-80 -210h-36l273 704h36zM141 241h325l-163 424zM288 -173v95h33v-95h-33z" />
    <glyph glyph-name="uni1EA1" unicode="&#x1ea1;" horiz-adv-x="551" 
d="M478 1h-30l-10 95q-44 -105 -205 -105q-95 0 -136 38t-41 114q0 102 87 132q57 20 217 19q70 -1 74 -1q0 55 -2.5 84.5t-11 60t-25.5 44t-45.5 22t-72.5 8.5q-51 0 -86.5 -13t-52 -35t-22.5 -42.5t-6 -44.5h-31q0 163 198 163q35 0 63 -4.5t47.5 -13.5t34 -22t22.5 -29.5
t13.5 -36t7 -42t2.5 -47.5t0 -52v-29v-133zM236 18q81 0 133 34t65 91v125q-174 0 -206 -3q-102 -10 -127 -63q-12 -25 -12 -60q0 -60 33.5 -92t113.5 -32zM256 -173v95h33v-95h-33z" />
    <glyph glyph-name="uni1EB8" unicode="&#x1eb8;" horiz-adv-x="547" 
d="M126 32h400v-32h-434v704h429v-32h-395v-288h345v-31h-345v-321zM291 -173v95h33v-95h-33z" />
    <glyph glyph-name="uni1EB9" unicode="&#x1eb9;" horiz-adv-x="550" 
d="M278 19q50 0 88 15t56.5 37.5t27 43.5t8.5 39h34q0 -14 -4 -31t-18 -42t-35.5 -44t-62.5 -33t-94 -14q-117 0 -168 66.5t-51 206.5t51 208.5t168 68.5q219 0 219 -254h-404v-24q0 -54 7.5 -94.5t26.5 -76t57 -54t94 -18.5zM278 512q-92 0 -133.5 -53.5t-49.5 -144.5h366
q-10 198 -183 198zM264 -173v95h33v-95h-33z" />
    <glyph glyph-name="uni1EBC" unicode="&#x1ebc;" horiz-adv-x="547" 
d="M259 809q-39 0 -39 -49h-26q0 77 64 77q31 0 51.5 -22t41.5 -22q40 0 40 49h25q0 -78 -62 -78q-32 0 -53 22.5t-42 22.5zM126 32h400v-32h-434v704h429v-32h-395v-288h345v-31h-345v-321z" />
    <glyph glyph-name="uni1EBD" unicode="&#x1ebd;" horiz-adv-x="550" 
d="M232 687q-40 0 -40 -50h-25q0 76 64 76q31 0 51.5 -22.5t41.5 -22.5q41 0 41 50h24q0 -77 -62 -77q-32 0 -53 23t-42 23zM278 19q50 0 88 15t56.5 37.5t27 43.5t8.5 39h34q0 -14 -4 -31t-18 -42t-35.5 -44t-62.5 -33t-94 -14q-117 0 -168 66.5t-51 206.5t51 208.5
t168 68.5q219 0 219 -254h-404v-24q0 -54 7.5 -94.5t26.5 -76t57 -54t94 -18.5zM278 512q-92 0 -133.5 -53.5t-49.5 -144.5h366q-10 198 -183 198z" />
    <glyph glyph-name="uni1ECA" unicode="&#x1eca;" horiz-adv-x="218" 
d="M92 0v704h34v-704h-34zM94 -173v95h33v-95h-33z" />
    <glyph glyph-name="uni1ECB" unicode="&#x1ecb;" horiz-adv-x="207" 
d="M87 646v113h33v-113h-33zM87 0v531h33v-531h-33zM90 -173v95h33v-95h-33z" />
    <glyph glyph-name="uni1ECC" unicode="&#x1ecc;" horiz-adv-x="686" 
d="M343 -16q-157 0 -220 93t-63 274t63 275t220 94t220 -94t63 -275t-63 -274t-220 -93zM343 15q135 0 192 82t57 254q0 171 -57 254t-192 83t-192 -83t-57 -254t57 -253.5t192 -82.5zM327 -173v95h33v-95h-33z" />
    <glyph glyph-name="uni1ECD" unicode="&#x1ecd;" horiz-adv-x="561" 
d="M281 -10q-124 0 -173 70.5t-49 203.5t49 204.5t173 72.5q123 1 172.5 -71.5t49.5 -205.5t-49.5 -203.5t-172.5 -70.5zM280 19q103 0 145.5 61t42.5 184t-42.5 185.5t-145.5 62.5q-102 0 -144.5 -62.5t-42.5 -185.5t42 -184t145 -61zM264 -173v95h33v-95h-33z" />
    <glyph glyph-name="uni1EE4" unicode="&#x1ee4;" horiz-adv-x="677" 
d="M338 -16q-80 0 -132.5 24.5t-80 75.5t-37.5 112.5t-10 152.5v355h34v-355q0 -176 47.5 -255t178.5 -79q132 0 179 79t47 255v355h36v-355q0 -91 -10.5 -153t-38 -112.5t-80.5 -75t-133 -24.5zM323 -173v95h33v-95h-33z" />
    <glyph glyph-name="uni1EE5" unicode="&#x1ee5;" horiz-adv-x="566" 
d="M493 0h-30l-11 128q-8 -18 -22 -38t-37.5 -44t-59.5 -39.5t-77 -15.5q-94 0 -138.5 50.5t-44.5 173.5l1 316h33l-1 -313q0 -102 34 -149t119 -47q42 0 78.5 18t59 46.5t34 48t19.5 38.5v358h33v-384zM268 -173v95h33v-95h-33z" />
    <glyph glyph-name="Ygrave" unicode="&#x1ef2;" horiz-adv-x="553" 
d="M295 760h-33l-76 107h42zM502 704h38l-241 -419v-285h-35v285l-251 419h40l229 -382z" />
    <glyph glyph-name="ygrave" unicode="&#x1ef3;" horiz-adv-x="466" 
d="M244 637h-32l-76 125h42zM422 531h35l-277 -749h-33l80 218h-10l-208 531h38l191 -500z" />
    <glyph glyph-name="uni1EF8" unicode="&#x1ef8;" horiz-adv-x="553" 
d="M230 809q-39 0 -39 -49h-26q0 77 64 77q31 0 51.5 -22t41.5 -22q40 0 40 49h25q0 -78 -62 -78q-32 0 -53 22.5t-42 22.5zM502 704h38l-241 -419v-285h-35v285l-251 419h40l229 -382z" />
    <glyph glyph-name="uni1EF9" unicode="&#x1ef9;" horiz-adv-x="466" 
d="M186 687q-40 0 -40 -50h-25q0 76 64 76q31 0 51.5 -22.5t41.5 -22.5q41 0 41 50h24q0 -77 -62 -77q-32 0 -53 23t-42 23zM422 531h35l-277 -749h-33l80 218h-10l-208 531h38l191 -500z" />
    <glyph glyph-name="uni2009" unicode="&#x2009;" horiz-adv-x="78" 
 />
    <glyph glyph-name="endash" unicode="&#x2013;" horiz-adv-x="561" 
d="M60 305v30h440v-30h-440z" />
    <glyph glyph-name="emdash" unicode="&#x2014;" horiz-adv-x="904" 
d="M80 305v30h744v-30h-744z" />
    <glyph glyph-name="uni2016" unicode="&#x2016;" horiz-adv-x="369" 
d="M91 -180v1000h31v-1000h-31zM247 -180v1000h31v-1000h-31z" />
    <glyph glyph-name="quoteleft" unicode="&#x2018;" horiz-adv-x="164" 
d="M76 560h-37q-1 33 14 94q7 28 17.5 54.5t17.5 39.5l7 12h31q-22 -43 -37 -107q-6 -28 -9.5 -51t-3.5 -32v-10z" />
    <glyph glyph-name="quoteright" unicode="&#x2019;" horiz-adv-x="162" 
d="M69 560h-31q22 43 37 106q6 28 9.5 51.5t3.5 32.5v10h36q2 -33 -13 -95q-7 -28 -17.5 -54t-17.5 -39z" />
    <glyph glyph-name="quotesinglbase" unicode="&#x201a;" horiz-adv-x="185" 
d="M83 -88h-31q23 44 37 107q6 28 9.5 51.5t3.5 33.5v9h37q1 -33 -14 -95q-7 -28 -17.5 -54.5t-17.5 -39.5z" />
    <glyph glyph-name="quotedblleft" unicode="&#x201c;" horiz-adv-x="267" 
d="M85 560h-37q-1 33 14 94q7 28 17.5 54.5t17.5 39.5l7 12h31q-23 -43 -37 -107q-6 -28 -9.5 -51t-3.5 -32v-10zM189 560h-37q-2 33 13 94q7 28 17.5 54.5t17.5 39.5l7 12h31q-22 -43 -36 -107q-7 -28 -10 -51t-3 -32v-10z" />
    <glyph glyph-name="quotedblright" unicode="&#x201d;" horiz-adv-x="267" 
d="M60 560h-31q22 43 37 106q6 28 9.5 51.5t3.5 32.5v10h36q2 -33 -13 -95q-7 -28 -17.5 -54t-17.5 -39zM164 560h-32q23 43 37 106q7 28 10 51.5t3 32.5v10h37q2 -33 -13 -95q-7 -28 -17.5 -54t-17.5 -39z" />
    <glyph glyph-name="quotedblbase" unicode="&#x201e;" horiz-adv-x="267" 
d="M60 -107h-31q22 43 37 106q6 28 9.5 51.5t3.5 33.5v9h36q2 -33 -13 -95q-7 -28 -17.5 -54t-17.5 -38zM164 -107h-32q23 43 37 106q7 28 10 51.5t3 33.5v9h37q1 -33 -14 -95q-7 -28 -17 -54t-17 -38z" />
    <glyph glyph-name="dagger" unicode="&#x2020;" horiz-adv-x="534" 
d="M454 555v-29h-171v-526h-31v526h-172v29h172v208h31v-208h171z" />
    <glyph glyph-name="daggerdbl" unicode="&#x2021;" horiz-adv-x="534" 
d="M454 526h-171v-289h171v-29h-171v-208h-31v208h-172v29h172v289h-172v29h172v208h31v-208h171v-29z" />
    <glyph glyph-name="bullet" unicode="&#x2022;" horiz-adv-x="411" 
d="M176 245v101h60v-101h-60z" />
    <glyph glyph-name="ellipsis" unicode="&#x2026;" horiz-adv-x="474" 
d="M96 0v113h37v-113h-37zM219 0v113h36v-113h-36zM341 0v113h37v-113h-37z" />
    <glyph glyph-name="perthousand" unicode="&#x2030;" horiz-adv-x="1014" 
d="M183 378q-144 0 -144 163q0 167 144 167q143 0 143 -167q0 -163 -143 -163zM183 403q60 0 86.5 34.5t26.5 103.5q0 70 -26.5 106t-86.5 36q-114 0 -114 -142q0 -69 27 -103.5t87 -34.5zM92 0l460 702h36l-460 -702h-36zM496 -6q-144 0 -144 163q0 167 144 167t144 -167
q0 -163 -144 -163zM496 19q60 0 86.5 34.5t26.5 103.5q0 142 -113 142t-113 -142q0 -138 113 -138zM825 -6q-144 0 -144 163q0 167 144 167q143 0 143 -167q0 -163 -143 -163zM825 19q60 0 86.5 34.5t26.5 103.5q0 142 -113 142q-114 0 -114 -142q0 -69 27 -103.5t87 -34.5z
" />
    <glyph glyph-name="guilsinglleft" unicode="&#x2039;" horiz-adv-x="309" 
d="M233 418l-123 -156l123 -149h-38l-117 141v16l117 148h38z" />
    <glyph glyph-name="guilsinglright" unicode="&#x203a;" horiz-adv-x="309" 
d="M115 418l117 -148v-16l-117 -141h-39l123 149l-123 156h39z" />
    <glyph glyph-name="fraction" unicode="&#x2044;" horiz-adv-x="241" 
d="M-168 -40l546 836h35l-547 -836h-34z" />
    <glyph glyph-name="uni2070" unicode="&#x2070;" horiz-adv-x="471" 
d="M236 336q-100 0 -139.5 60t-39.5 193q0 134 39.5 195t139.5 61q98 0 137.5 -61t39.5 -195q0 -133 -39.5 -193t-137.5 -60zM236 362q79 0 113 52t34 175q0 124 -34 176.5t-113 52.5t-113.5 -52.5t-34.5 -176.5q0 -123 34.5 -175t113.5 -52z" />
    <glyph glyph-name="uni2074" unicode="&#x2074;" horiz-adv-x="404" 
d="M373 486v-26h-60v-117h-30v117h-255v26l253 353h32v-353h60zM60 486h223v315z" />
    <glyph glyph-name="uni2075" unicode="&#x2075;" horiz-adv-x="431" 
d="M222 666q78 0 120 -44t42 -121q0 -78 -41.5 -121.5t-125.5 -43.5t-127 38.5t-43 93.5h30q0 -45 36.5 -75.5t103.5 -30.5t102 35.5t35 103.5q0 67 -36.5 103t-100.5 36q-27 0 -50 -6t-36 -14t-22 -16.5t-13 -14.5l-3 -6h-29l38 225l4 25h252v-26l-227 1l-31 -186
q38 44 122 44z" />
    <glyph glyph-name="uni2076" unicode="&#x2076;" horiz-adv-x="458" 
d="M240 669q161 0 161 -167q0 -166 -172 -166q-91 0 -131.5 54.5t-40.5 171.5q0 154 40 219.5t133 65.5q79 0 115 -40t36 -91h-30q0 42 -30 74t-91 32q-71 0 -105 -52.5t-37 -184.5q48 84 152 84zM230 361q140 0 140 140q0 142 -133 142q-45 0 -79.5 -20.5t-47.5 -40
t-22 -40.5q3 -96 37.5 -138.5t104.5 -42.5z" />
    <glyph glyph-name="uni2077" unicode="&#x2077;" horiz-adv-x="345" 
d="M131 343h-32q0 72 20.5 147t50.5 130t59.5 99.5t50.5 67.5l20 23l-283 -1v27h315v-27q-8 -9 -21.5 -24.5t-48.5 -66t-61.5 -102.5t-48 -127t-21.5 -146z" />
    <glyph glyph-name="uni2078" unicode="&#x2078;" horiz-adv-x="457" 
d="M57 477q0 65 34.5 97t66.5 33q-25 2 -54.5 28.5t-29.5 76.5q0 135 155 135t155 -135q0 -51 -29.5 -77t-56.5 -28q31 -1 66.5 -33.5t35.5 -96.5q0 -141 -171 -141q-172 0 -172 141zM88 479q0 -117 141 -117q140 0 140 117q0 58 -33.5 86t-106.5 28q-141 0 -141 -114z
M104 710q0 -91 125 -91q124 0 124 91q0 111 -124 111q-125 0 -125 -111z" />
    <glyph glyph-name="uni2079" unicode="&#x2079;" horiz-adv-x="458" 
d="M228 847q92 0 132.5 -56t40.5 -185q0 -152 -39.5 -211t-133.5 -59q-84 0 -124.5 40.5t-40.5 88.5h31q0 -41 34 -72.5t100 -31.5q72 0 105.5 46t36.5 174q-48 -84 -152 -84q-161 0 -161 182q0 168 171 168zM221 524q107 0 149 97q-2 111 -36 155.5t-106 44.5
q-140 0 -140 -142q0 -155 133 -155z" />
    <glyph glyph-name="Euro" unicode="&#x20ac;" horiz-adv-x="600" 
d="M343 42q71 0 116.5 41.5t50.5 102.5h32q-5 -73 -56.5 -124t-142.5 -51q-106 0 -159 62.5t-68 176.5h-86v26h84q-3 36 -3 74q0 22 2 60h-83v26h85q12 121 65.5 188t162.5 67q95 0 147 -55t55 -133h-33q-4 67 -49 112t-120 45q-169 0 -195 -224h220v-26h-222q-2 -38 -2 -60
q0 -40 3 -74h221v-26h-218q29 -208 193 -208z" />
    <glyph glyph-name="uni20BD" unicode="&#x20bd;" horiz-adv-x="599" 
d="M322 331h-156v-94h187v-29h-187v-208h-34v208h-102v29h102v94h-102v31h102v345h190q120 0 179.5 -43t59.5 -145t-59.5 -145t-179.5 -43zM166 676v-314l156 -1q47 0 80 5.5t63.5 21.5t46 49t15.5 82t-15.5 81.5t-46 48.5t-63.5 21.5t-80 5.5h-156z" />
    <glyph glyph-name="uni2116" unicode="&#x2116;" horiz-adv-x="1178" 
d="M580 53l-2 651h34v-704h-37l-445 650l-5 -650h-33l5 704h36zM887 111q-101 0 -141 58t-40 167q0 110 40 168.5t141 58.5q54 0 91 -16t56.5 -48t27.5 -71t8 -92q0 -110 -39.5 -167.5t-143.5 -57.5zM887 535q-81 0 -114.5 -50.5t-33.5 -148.5q0 -99 34 -147.5t115 -48.5
q83 0 116.5 48.5t33.5 147.5q0 98 -34.5 148.5t-116.5 50.5zM701 29h376v-29h-376v29z" />
    <glyph glyph-name="uni2117" unicode="&#x2117;" horiz-adv-x="773" 
d="M386 705q92 0 158 -28.5t101.5 -80t51.5 -112.5t16 -136q0 -352 -327 -352q-90 0 -155.5 28t-101.5 78.5t-52.5 111t-16.5 134.5q0 75 16.5 136t52.5 112.5t101.5 80t155.5 28.5zM386 21q83 0 142.5 26t93 72.5t48.5 103t15 125.5q0 70 -15 127t-48.5 104.5t-93.5 74
t-142 26.5t-141.5 -26.5t-92.5 -74t-48.5 -104.5t-15.5 -127q0 -69 15.5 -125.5t48.5 -103t92.5 -72.5t141.5 -26zM262 546h143q71 0 105 -27t34 -100q0 -74 -33.5 -100t-105.5 -26h-112v-148h-31v401zM293 320h112q24 0 40 3t32.5 12t25 30t8.5 54q0 62 -28 81t-78 19h-112
v-199z" />
    <glyph glyph-name="uni2120" unicode="&#x2120;" horiz-adv-x="723" 
d="M71 644q0 -32 22.5 -48.5t55 -23t65 -14t55 -31t22.5 -65.5q0 -43 -33.5 -67t-92.5 -24q-125 0 -125 108h25q0 -38 25 -61.5t75 -23.5q46 0 73 19.5t27 47.5q0 35 -22.5 54t-55 25.5t-65 14t-55 29t-22.5 60.5q0 41 30 64.5t88 23.5q118 0 118 -96h-25q0 28 -21 50.5
t-72 22.5q-47 0 -69.5 -19.5t-22.5 -45.5zM663 723l-1 -344h-26l2 303l-121 -304h-27l-118 308l1 -307h-24v344h34l122 -314l124 314h34z" />
    <glyph glyph-name="trademark" unicode="&#x2122;" horiz-adv-x="685" 
d="M270 723v-23h-112l-3 -321h-24l1 321h-112v23h250zM625 723l-1 -344h-25l1 304l-122 -305h-25l-119 306v-305h-24v344h35l122 -314l125 314h33z" />
    <glyph glyph-name="oneeighth" unicode="&#x215b;" horiz-adv-x="884" 
d="M811 369q0 -51 -29.5 -77t-56.5 -28q31 -1 66.5 -33.5t35.5 -96.5q0 -141 -171 -141q-172 0 -172 141q0 65 34.5 97t66.5 33q-25 2 -54.5 28.5t-29.5 76.5q0 135 155 135t155 -135zM656 19q140 0 140 117q0 58 -33.5 86t-106.5 28q-141 0 -141 -114q0 -117 141 -117z
M531 367q0 -91 125 -91q124 0 124 91q0 111 -124 111q-125 0 -125 -111zM591 796h35l-547 -836h-34zM107 264v467l-97 -47v29l102 49h25v-498h-30z" />
    <glyph glyph-name="threeeighths" unicode="&#x215c;" horiz-adv-x="1068" 
d="M995 369q0 -51 -29.5 -77t-56.5 -28q31 -1 66.5 -33.5t35.5 -96.5q0 -141 -171 -141q-172 0 -172 141q0 65 34.5 97t66.5 33q-25 2 -54.5 28.5t-29.5 76.5q0 135 155 135t155 -135zM840 19q140 0 140 117q0 58 -33.5 86t-106.5 28q-141 0 -141 -114q0 -117 141 -117z
M715 367q0 -91 125 -91q124 0 124 91q0 111 -124 111q-125 0 -125 -111zM361 418q0 -75 -41 -118t-126 -43q-80 0 -120.5 39t-40.5 96h30q0 -46 34.5 -77t96.5 -31q137 0 137 135q0 63 -37 99.5t-103 36.5l-61 -7v24l182 157l-252 -2v27h290v-25l-176 -151q5 1 16 1
q84 0 127.5 -43t43.5 -118zM775 796h35l-547 -836h-34z" />
    <glyph glyph-name="fiveeighths" unicode="&#x215d;" horiz-adv-x="1093" 
d="M1020 369q0 -51 -29.5 -77t-56.5 -28q31 -1 66.5 -33.5t35.5 -96.5q0 -141 -171 -141q-172 0 -172 141q0 65 34.5 97t66.5 33q-25 2 -54.5 28.5t-29.5 76.5q0 135 155 135t155 -135zM865 19q140 0 140 117q0 58 -33.5 86t-106.5 28q-141 0 -141 -114q0 -117 141 -117z
M740 367q0 -91 125 -91q124 0 124 91q0 111 -124 111q-125 0 -125 -111zM384 422q0 -78 -41.5 -121.5t-125.5 -43.5t-127 38.5t-43 93.5h30q0 -45 36.5 -75.5t103.5 -30.5t102 35.5t35 103.5q0 67 -36.5 103t-100.5 36q-43 0 -74 -14.5t-41 -28.5l-9 -14h-29l38 225l4 25
h252v-26l-227 1l-31 -186q38 44 122 44q78 0 120 -44t42 -121zM800 796h35l-547 -836h-34z" />
    <glyph glyph-name="seveneighths" unicode="&#x215e;" horiz-adv-x="958" 
d="M558 134q0 65 34.5 97t66.5 33q-25 2 -54.5 28.5t-29.5 76.5q0 135 155 135t155 -135q0 -51 -29.5 -77t-56.5 -28q31 -1 66.5 -33.5t35.5 -96.5q0 -141 -171 -141q-172 0 -172 141zM589 136q0 -117 141 -117q140 0 140 117q0 58 -33.5 86t-106.5 28q-141 0 -141 -114z
M605 367q0 -91 125 -91q124 0 124 91q0 111 -124 111q-125 0 -125 -111zM119 -40l546 836h35l-547 -836h-34zM131 264h-32q0 72 20.5 147t50.5 130t59.5 99.5t50.5 67.5l20 23l-283 -1v27h315v-27q-8 -9 -21.5 -24.5t-48.5 -66t-61.5 -102.5t-48 -127t-21.5 -146z" />
    <glyph glyph-name="arrowleft" unicode="&#x2190;" horiz-adv-x="686" 
d="M638 281l-530 3l229 -177l-20 -23l-269 213l269 216l19 -22l-230 -178l531 2z" />
    <glyph glyph-name="arrowup" unicode="&#x2191;" horiz-adv-x="525" 
d="M477 330l-23 -20l-178 231l3 -532h-34l3 532l-178 -231l-22 20l214 269z" />
    <glyph glyph-name="arrowright" unicode="&#x2192;" horiz-adv-x="687" 
d="M369 516l270 -214l-270 -215l-19 22l229 177l-530 -2l-1 34l531 -2l-230 177z" />
    <glyph glyph-name="arrowdown" unicode="&#x2193;" horiz-adv-x="525" 
d="M454 284l23 -20l-213 -270l-216 270l22 20l178 -231l-3 531l35 1l-3 -530z" />
    <glyph glyph-name="arrowboth" unicode="&#x2194;" horiz-adv-x="933" 
d="M616 475l269 -216l-269 -213l-20 23l227 175l-715 2l229 -177l-20 -23l-269 213l269 216l19 -22l-230 -178l718 2l-227 176z" />
    <glyph glyph-name="arrowupdn" unicode="&#x2195;" horiz-adv-x="525" 
d="M279 -88l176 227l22 -19l-216 -269l-213 269l23 20l175 -227l2 714l-177 -228l-23 20l213 269l216 -269l-22 -20l-178 230z" />
    <glyph glyph-name="uni2196" unicode="&#x2196;" horiz-adv-x="526" 
d="M488 85l-23 -25l-373 377l37 -288l-31 -1l-40 341l344 -38l-2 -29l-289 37z" />
    <glyph glyph-name="uni2197" unicode="&#x2197;" horiz-adv-x="525" 
d="M125 449l342 40l-38 -343l-30 2l38 289l-375 -377l-24 23l377 373l-288 -37z" />
    <glyph glyph-name="uni2198" unicode="&#x2198;" horiz-adv-x="526" 
d="M124 100l3 30l288 -37l-377 373l23 25l374 -377l-37 288l30 1l40 -341z" />
    <glyph glyph-name="uni2199" unicode="&#x2199;" horiz-adv-x="524" 
d="M110 94l287 37l2 -30l-341 -41l37 344l29 -2l-37 -290l375 379l24 -24z" />
    <glyph glyph-name="minus" unicode="&#x2212;" horiz-adv-x="412" 
d="M50 294v29h312v-29h-312z" />
    <glyph glyph-name="infinity" unicode="&#x221e;" horiz-adv-x="710" 
d="M672 304q0 -65 -35 -105.5t-111 -40.5h-1q-59 0 -96 31.5t-74 89.5q-37 -58 -74 -89.5t-96 -31.5h-1q-76 0 -110.5 40.5t-34.5 105.5t34.5 105.5t110.5 40.5h1q59 0 96 -31.5t74 -89.5q37 58 74 89.5t96 31.5h1q76 0 111 -40.5t35 -105.5zM526 184q115 0 115 120
t-115 120q-37 0 -67.5 -19t-47 -40.5t-40.5 -60.5q24 -39 40.5 -60.5t47 -40.5t67.5 -19zM184 184q37 0 67.5 19t47 40.5t40.5 60.5q-24 39 -40.5 60.5t-47 40.5t-67.5 19q-59 0 -87 -32t-28 -88t28 -88t87 -32z" />
    <glyph glyph-name="approxequal" unicode="&#x2248;" horiz-adv-x="493" 
d="M405 406h27q0 -29 -22 -56.5t-73 -27.5q-47 0 -96 27.5t-86 27.5q-34 0 -51 -19.5t-17 -35.5h-26q0 28 22 56t72 28q47 0 96 -27.5t86 -27.5q34 0 51 19.5t17 35.5zM405 277h27q0 -28 -22 -55.5t-73 -27.5q-47 0 -96 27.5t-86 27.5q-34 0 -51 -19.5t-17 -35.5h-26
q0 28 22 55.5t72 27.5q47 0 96 -27.5t86 -27.5q34 0 51 19t17 36z" />
    <glyph glyph-name="notequal" unicode="&#x2260;" horiz-adv-x="483" 
d="M420 354h-138l-61 -105h199v-30h-216l-57 -99h-32l57 99h-110v30h128l61 105h-189v30h206l55 95h31l-55 -95h121v-30z" />
    <glyph glyph-name="lessequal" unicode="&#x2264;" horiz-adv-x="530" 
d="M440 490v-32l-325 -109l325 -126v-32l-360 146v25zM81 122v29h358v-29h-358z" />
    <glyph glyph-name="greaterequal" unicode="&#x2265;" horiz-adv-x="530" 
d="M90 490l360 -128v-25l-360 -146v32l325 126l-325 109v32zM91 122v29h358v-29h-358z" />
    <glyph glyph-name="acutecomb.case" 
d="M-167 760l66 107h43l-77 -107h-32z" />
    <glyph glyph-name="at.case" horiz-adv-x="844" 
d="M784 340q0 -137 -29.5 -195.5t-90.5 -59.5h-1q-93 1 -103 130q-47 -94 -148 -94q-88 0 -130 54t-42 168q0 227 172 227q55 0 91.5 -24.5t54.5 -55.5l3 64h29v-299q0 -145 76 -145q44 0 67 49.5t23 180.5q0 381 -335 381q-91 0 -156.5 -29t-103 -82t-55 -120t-17.5 -150
q0 -366 333 -366q107 0 172 32v-29q-76 -28 -173 -28q-99 0 -170.5 29.5t-112.5 84t-59.5 123t-18.5 154.5q0 87 18.5 157t59 127.5t112.5 89.5t171 32q363 0 363 -406zM415 148q57 0 93.5 37.5t49.5 84.5v178q-45 96 -143 96q-68 0 -105 -50.5t-37 -150.5q0 -105 36 -150
t106 -45z" />
    <glyph glyph-name="bitcoin" horiz-adv-x="565" 
d="M510 223q0 -44 -6.5 -72.5t-25.5 -52.5t-56 -36t-96 -14v-97h-26v97h-65v-97h-26v97h-117v641h117v92h26v-92h65v92h26v-93q91 -4 129 -45.5t38 -111.5q0 -59 -21 -94.5t-81 -50.5q67 -15 93 -56.5t26 -106.5zM304 659h-177v-258l177 -1q89 0 122 30.5t33 98.5
q0 66 -37.5 98t-117.5 32zM127 79l177 -1q101 0 136.5 31.5t35.5 115.5q0 74 -39.5 110.5t-132.5 36.5h-177v-293z" />
    <glyph glyph-name="braceleft.case" horiz-adv-x="365" 
d="M335 762v-32q-89 0 -113 -23.5t-24 -93.5v-198q0 -27 -11.5 -44.5t-18.5 -21t-14 -5.5q44 -11 44 -70v-197q0 -70 24 -93.5t113 -23.5v-32q-57 0 -91 7t-51.5 26.5t-22.5 44t-5 69.5v199q0 32 -16.5 44t-70.5 12v30q54 0 70.5 11.5t16.5 43.5v201q0 45 5 69.5t22.5 43.5
t51 26t91.5 7z" />
    <glyph glyph-name="braceright.case" horiz-adv-x="365" 
d="M30 -72v32q89 0 113 23.5t24 93.5v198q0 59 43 70q-43 11 -43 71v197q0 70 -24 93.5t-113 23.5v32q57 0 91 -7t51.5 -26.5t22.5 -44t5 -69.5v-199q0 -32 16.5 -44t70.5 -12v-30q-54 0 -70.5 -11.5t-16.5 -43.5v-201q0 -45 -5 -69.5t-22.5 -43.5t-51 -26t-91.5 -7z" />
    <glyph glyph-name="bracketleft.case" horiz-adv-x="307" 
d="M277 728h-144v-761h144v-31h-177v824h177v-32z" />
    <glyph glyph-name="bracketright.case" horiz-adv-x="307" 
d="M207 760v-824h-177v31h144v761h-144v32h177z" />
    <glyph glyph-name="caroncomb.alt" 
d="M-148 631l47 129h40l-58 -129h-29z" />
    <glyph glyph-name="caroncomb.alt.case" 
d="M-148 760l49 112h42l-59 -112h-32z" />
    <glyph glyph-name="dagger.sups" horiz-adv-x="294" 
d="M234 636v-24h-74v-242h-26v242h-74v24h74v89h26v-89h74z" />
    <glyph glyph-name="daggerdbl.sups" horiz-adv-x="292" 
d="M233 612h-74v-129h74v-24h-74v-89h-26v89h-74v24h74v129h-74v24h74v89h26v-89h74v-24z" />
    <glyph glyph-name="eight.dnom" horiz-adv-x="457" 
d="M57 134q0 65 34.5 97t66.5 33q-25 2 -54.5 28.5t-29.5 76.5q0 135 155 135t155 -135q0 -51 -29.5 -77t-56.5 -28q31 -1 66.5 -33.5t35.5 -96.5q0 -141 -171 -141q-172 0 -172 141zM88 136q0 -117 141 -117q140 0 140 117q0 58 -33.5 86t-106.5 28q-141 0 -141 -114z
M104 367q0 -91 125 -91q124 0 124 91q0 111 -124 111q-125 0 -125 -111z" />
    <glyph glyph-name="eight.numr" horiz-adv-x="457" 
d="M57 398q0 65 34.5 97t66.5 33q-25 2 -54.5 28.5t-29.5 76.5q0 135 155 135t155 -135q0 -51 -29.5 -77t-56.5 -28q31 -1 66.5 -33.5t35.5 -96.5q0 -141 -171 -141q-172 0 -172 141zM88 400q0 -117 141 -117q140 0 140 117q0 58 -33.5 86t-106.5 28q-141 0 -141 -114z
M104 631q0 -91 125 -91q124 0 124 91q0 111 -124 111q-125 0 -125 -111z" />
    <glyph glyph-name="eight.subs" horiz-adv-x="457" 
d="M57 -57q0 65 34.5 97t66.5 33q-25 2 -54.5 28.5t-29.5 76.5q0 135 155 135t155 -135q0 -51 -29.5 -77t-56.5 -28q31 -1 66.5 -33.5t35.5 -96.5q0 -141 -171 -141q-172 0 -172 141zM88 -55q0 -117 141 -117q140 0 140 117q0 58 -33.5 86t-106.5 28q-141 0 -141 -114z
M104 176q0 -91 125 -91q124 0 124 91q0 111 -124 111q-125 0 -125 -111z" />
    <glyph glyph-name="eight.tf" horiz-adv-x="639" 
d="M70 190q0 48 16 85.5t40.5 57t47 29.5t41.5 11q-14 1 -33 9.5t-40 24.5t-35 46.5t-14 68.5q0 191 217 191q112 0 164.5 -51t52.5 -140q0 -38 -14 -68.5t-35 -46.5t-40 -24.5t-34 -9.5q18 -1 40.5 -11t47.5 -29.5t41.5 -57t16.5 -85.5q0 -200 -240 -200t-240 200zM105 191
q0 -169 205 -169t205 169q0 84 -49.5 125t-155.5 41t-155.5 -41t-49.5 -125zM128 520q0 -133 182 -133t182 133q0 161 -182 161t-182 -161z" />
    <glyph glyph-name="exclamdown.case" horiz-adv-x="215" 
d="M91 609v95h33v-95h-33zM91 0l1 549h31l1 -549h-33z" />
    <glyph glyph-name="five.dnom" horiz-adv-x="431" 
d="M222 323q78 0 120 -44t42 -121q0 -78 -41.5 -121.5t-125.5 -43.5t-127 38.5t-43 93.5h30q0 -45 36.5 -75.5t103.5 -30.5t102 35.5t35 103.5q0 67 -36.5 103t-100.5 36q-43 0 -74 -14.5t-41 -28.5l-9 -14h-29l38 225l4 25h252v-26l-227 1l-31 -186q38 44 122 44z" />
    <glyph glyph-name="five.numr" horiz-adv-x="431" 
d="M222 587q78 0 120 -44t42 -121q0 -78 -41.5 -121.5t-125.5 -43.5t-127 38.5t-43 93.5h30q0 -45 36.5 -75.5t103.5 -30.5t102 35.5t35 103.5q0 67 -36.5 103t-100.5 36q-43 0 -74 -14.5t-41 -28.5l-9 -14h-29l38 225l4 25h252v-26l-227 1l-31 -186q38 44 122 44z" />
    <glyph glyph-name="five.subs" horiz-adv-x="431" 
d="M222 132q78 0 120 -44t42 -121q0 -78 -41.5 -121.5t-125.5 -43.5t-127 38.5t-43 93.5h30q0 -45 36.5 -75.5t103.5 -30.5t102 35.5t35 103.5q0 67 -36.5 103t-100.5 36q-27 0 -50 -6t-36 -14.5t-22 -16.5t-13 -14l-3 -6h-29l38 225l4 25h252v-26l-227 1l-31 -186
q38 44 122 44z" />
    <glyph glyph-name="five.tf" horiz-adv-x="639" 
d="M306 455q110 0 170.5 -61.5t60.5 -170.5q0 -111 -58.5 -172t-176.5 -61q-116 0 -176.5 53.5t-60.5 131.5h33q0 -65 53.5 -109t150.5 -44q98 0 149 51.5t51 149.5q0 97 -54 149t-146 52q-39 0 -72 -8.5t-52 -20.5t-32 -24t-18 -21l-5 -8h-33l55 319l4 31h351v-31h-323
l-46 -271q57 65 175 65z" />
    <glyph glyph-name="four.dnom" horiz-adv-x="404" 
d="M373 143v-26h-60v-117h-30v117h-255v26l253 353h32v-353h60zM60 143h223v315z" />
    <glyph glyph-name="four.numr" horiz-adv-x="404" 
d="M373 407v-26h-60v-117h-30v117h-255v26l253 353h32v-353h60zM60 407h223v315z" />
    <glyph glyph-name="four.subs" horiz-adv-x="404" 
d="M373 -48v-26h-60v-117h-30v117h-255v26l253 353h32v-353h60zM60 -48h223v315z" />
    <glyph glyph-name="four.tf" horiz-adv-x="639" 
d="M521 199v-31h-86v-168h-33v168h-363v31l360 503h36v-503h86zM79 199h323v456z" />
    <glyph glyph-name="gravecomb.case" 
d="M-58 760h-33l-76 107h42z" />
    <glyph glyph-name="guillemotleft.case" horiz-adv-x="414" 
d="M229 487l-123 -156l123 -149h-39l-117 141v16l117 148h39zM342 487l-123 -156l123 -149h-38l-117 141v16l117 148h38z" />
    <glyph glyph-name="guillemotright.case" horiz-adv-x="414" 
d="M227 330v-16l-117 -141h-38l123 149l-123 156h38zM224 478l117 -148v-16l-117 -141h-39l123 149l-123 156h39z" />
    <glyph glyph-name="guilsinglleft.case" horiz-adv-x="309" 
d="M233 478l-123 -156l123 -149h-38l-117 141v16l117 148h38z" />
    <glyph glyph-name="guilsinglright.case" horiz-adv-x="309" 
d="M115 478l117 -148v-16l-117 -141h-39l123 149l-123 156h39z" />
    <glyph glyph-name="i.loclTRK" horiz-adv-x="207" 
d="M87 646v113h33v-113h-33zM87 0v531h33v-531h-33z" />
    <glyph glyph-name="nine.dnom" horiz-adv-x="458" 
d="M228 504q92 0 132.5 -56t40.5 -185q0 -152 -39.5 -211t-133.5 -59q-84 0 -124.5 40.5t-40.5 88.5h31q0 -41 34 -72.5t100 -31.5q72 0 105.5 46t36.5 174q-48 -84 -152 -84q-161 0 -161 182q0 168 171 168zM221 181q107 0 149 97q-2 111 -36 155.5t-106 44.5
q-140 0 -140 -142q0 -155 133 -155z" />
    <glyph glyph-name="nine.numr" horiz-adv-x="458" 
d="M228 768q92 0 132.5 -56t40.5 -185q0 -152 -39.5 -211t-133.5 -59q-84 0 -124.5 40.5t-40.5 88.5h31q0 -41 34 -72.5t100 -31.5q72 0 105.5 46t36.5 174q-48 -84 -152 -84q-161 0 -161 182q0 168 171 168zM221 445q107 0 149 97q-2 111 -36 155.5t-106 44.5
q-140 0 -140 -142q0 -155 133 -155z" />
    <glyph glyph-name="nine.subs" horiz-adv-x="458" 
d="M228 313q92 0 132.5 -56t40.5 -185q0 -152 -39.5 -211t-133.5 -59q-84 0 -124.5 40.5t-40.5 88.5h31q0 -41 34 -72.5t100 -31.5q72 0 105.5 46t36.5 174q-48 -84 -152 -84q-161 0 -161 182q0 168 171 168zM221 -10q107 0 149 97q-2 111 -36 155.5t-106 44.5
q-140 0 -140 -142q0 -155 133 -155z" />
    <glyph glyph-name="nine.tf" horiz-adv-x="639" 
d="M311 712q128 1 184.5 -78t56.5 -263q0 -213 -55.5 -297t-185.5 -84q-61 0 -108 18t-72 46t-37.5 58t-12.5 60h35q0 -59 49.5 -105t145.5 -46q71 0 112.5 26t65.5 97t28 199q-61 -127 -219 -127q-115 0 -170.5 68t-55.5 191q0 237 239 237zM301 247q51 0 92 16t65.5 42
t38 46.5t21.5 42.5q-4 160 -53.5 223.5t-153.5 63.5q-205 0 -205 -206q0 -112 49.5 -170t145.5 -58z" />
    <glyph glyph-name="one.dnom" horiz-adv-x="211" 
d="M112 498h25v-498h-30v467l-97 -47v29z" />
    <glyph glyph-name="one.numr" horiz-adv-x="211" 
d="M112 762h25v-498h-30v467l-97 -47v29z" />
    <glyph glyph-name="one.subs" horiz-adv-x="211" 
d="M112 307h25v-498h-30v467l-97 -47v29z" />
    <glyph glyph-name="one.tf" horiz-adv-x="639" 
d="M342 30h123v-30h-287v30h129v638l-138 -68v34l141 70h32v-674z" />
    <glyph glyph-name="paragraph.alt" horiz-adv-x="518" 
d="M427 760v-760h-31v729h-96v-729h-31v325q-127 2 -178 48t-51 169q0 124 51 170t178 48h158z" />
    <glyph glyph-name="parenleft.case" horiz-adv-x="258" 
d="M184 760h33l-7 -16q-7 -15 -18.5 -50t-22 -81t-18.5 -118.5t-8 -151.5t10 -150.5t24 -116.5t28 -79t24 -49l10 -14h-35q-4 5 -10.5 14.5t-23 45t-29 78.5t-23 116t-10.5 155t8 155.5t19 119t22 79.5t19 49z" />
    <glyph glyph-name="parenright.case" horiz-adv-x="258" 
d="M38 760h36q3 -5 8 -15t18.5 -47t23.5 -81t18 -118t8 -156t-10 -154.5t-24 -117t-28 -77.5t-24 -46l-10 -14h-33l9 14q8 15 22.5 49t28 79t23.5 116.5t10 150.5q0 126 -19 230t-38 145z" />
    <glyph glyph-name="questiondown.case" horiz-adv-x="474" 
d="M274 704v-95h-33v95h33zM242 549h32l-1 -42q0 -53 -16.5 -89.5t-40 -56.5l-47 -40t-40 -53.5t-16.5 -82.5q0 -158 144 -158t144 162h34q0 -193 -178 -193t-178 187q0 53 17 90.5t40.5 58.5t47.5 41.5t41 53.5t17 80v42z" />
    <glyph glyph-name="registered.alt" horiz-adv-x="469" 
d="M234 730q99 0 142 -55t43 -144q0 -88 -43 -142t-142 -54q-98 0 -140.5 54t-42.5 142q0 89 42.5 144t140.5 55zM234 353q87 0 125.5 49.5t38.5 128.5q0 81 -38.5 131.5t-125.5 50.5t-125 -50.5t-38 -131.5q0 -79 38 -128.5t125 -49.5zM321 576q0 -31 -12 -45.5t-38 -18.5
l49 -93h-27l-46 91h-63v-91h-25v224h79q44 0 63.5 -14t19.5 -53zM184 530h54q19 0 30 2t19.5 13t8.5 31q0 29 -14.5 38t-43.5 9h-54v-93z" />
    <glyph glyph-name="section.sups" horiz-adv-x="309" 
d="M220 490q27 -19 27 -52q0 -64 -94 -64q-93 0 -93 74h23q0 -53 70 -53q69 0 69 43q0 25 -24.5 37.5t-54.5 15.5t-54.5 19t-24.5 48q0 36 28 56q-25 17 -25 48q0 63 88 63q47 0 67 -17t20 -53h-24q0 24 -13 36.5t-50 12.5q-64 0 -64 -41q0 -19 16.5 -30t39.5 -15.5
t46 -10.5t39.5 -21.5t16.5 -42.5q0 -37 -29 -53zM89 558q0 -20 16 -30t49.5 -17t46.5 -12q24 15 24 43q0 17 -12 28t-26.5 15t-39 9.5t-36.5 10.5q-22 -18 -22 -47z" />
    <glyph glyph-name="seven.dnom" horiz-adv-x="345" 
d="M131 0h-32q0 72 20.5 147t50.5 130t59.5 99.5t50.5 67.5l20 23l-283 -1v27h315v-27q-8 -9 -21.5 -24.5t-48.5 -66t-61.5 -102.5t-48 -127t-21.5 -146z" />
    <glyph glyph-name="seven.numr" horiz-adv-x="345" 
d="M131 264h-32q0 72 20.5 147t50.5 130t59.5 99.5t50.5 67.5l20 23l-283 -1v27h315v-27q-8 -9 -21.5 -24.5t-48.5 -66t-61.5 -102.5t-48 -127t-21.5 -146z" />
    <glyph glyph-name="seven.subs" horiz-adv-x="345" 
d="M131 -191h-32q0 72 20.5 147t50.5 130t59.5 99.5t50.5 67.5l20 23l-283 -1v27h315v-27q-8 -9 -21.5 -24.5t-48.5 -66t-61.5 -102.5t-48 -127t-21.5 -146z" />
    <glyph glyph-name="seven.tf" horiz-adv-x="639" 
d="M249 0h-35q0 103 29.5 209.5t72 184.5t85 141.5t71.5 96.5l30 33h-406v31h444v-31q-12 -12 -31.5 -34.5t-69.5 -94.5t-88.5 -146t-70 -181t-31.5 -209z" />
    <glyph glyph-name="six.dnom" horiz-adv-x="458" 
d="M240 326q161 0 161 -167q0 -166 -172 -166q-91 0 -131.5 54.5t-40.5 171.5q0 154 40 219.5t133 65.5q79 0 115 -40t36 -91h-30q0 42 -30 74t-91 32q-71 0 -105 -52.5t-37 -184.5q48 84 152 84zM230 18q140 0 140 140q0 142 -133 142q-45 0 -79.5 -20.5t-47.5 -40
t-22 -40.5q3 -96 37.5 -138.5t104.5 -42.5z" />
    <glyph glyph-name="six.numr" horiz-adv-x="458" 
d="M240 590q161 0 161 -167q0 -166 -172 -166q-91 0 -131.5 54.5t-40.5 171.5q0 154 40 219.5t133 65.5q79 0 115 -40t36 -91h-30q0 42 -30 74t-91 32q-71 0 -105 -52.5t-37 -184.5q48 84 152 84zM230 282q140 0 140 140q0 142 -133 142q-45 0 -79.5 -20.5t-47.5 -40
t-22 -40.5q3 -96 37.5 -138.5t104.5 -42.5z" />
    <glyph glyph-name="six.subs" horiz-adv-x="458" 
d="M240 135q161 0 161 -167q0 -166 -172 -166q-91 0 -131.5 54.5t-40.5 171.5q0 154 40 219.5t133 65.5q79 0 115 -40t36 -91h-30q0 42 -30 74t-91 32q-71 0 -105 -52.5t-37 -184.5q48 84 152 84zM230 -173q140 0 140 140q0 142 -133 142q-45 0 -79.5 -20.5t-47.5 -40
t-22 -40.5q3 -96 37.5 -138.5t104.5 -42.5z" />
    <glyph glyph-name="six.tf" horiz-adv-x="639" 
d="M333 462q226 0 226 -237q0 -235 -239 -235q-127 0 -184 77t-57 242q0 218 56.5 310.5t184.5 92.5q57 0 100.5 -17.5t66 -46t33.5 -58.5t11 -61h-35q0 60 -44 106t-132 46q-103 0 -151 -75t-54 -269q64 125 218 125zM320 21q205 0 205 204q0 101 -49.5 153t-145.5 52
q-51 0 -91.5 -16t-65 -42t-38 -47t-21.5 -43q4 -140 54.5 -200.5t151.5 -60.5z" />
    <glyph glyph-name="three.dnom" horiz-adv-x="406" 
d="M190 315q84 0 127.5 -43t43.5 -118t-41 -118t-126 -43q-80 0 -120.5 39t-40.5 96h30q0 -46 34.5 -77t96.5 -31q137 0 137 135q0 63 -37 99.5t-103 36.5l-61 -7v24l182 157l-252 -2v27h290v-25l-176 -151q5 1 16 1z" />
    <glyph glyph-name="three.numr" horiz-adv-x="406" 
d="M190 579q84 0 127.5 -43t43.5 -118t-41 -118t-126 -43q-80 0 -120.5 39t-40.5 96h30q0 -46 34.5 -77t96.5 -31q137 0 137 135q0 63 -37 99.5t-103 36.5l-61 -7v24l182 157l-252 -2v27h290v-25l-176 -151q5 1 16 1z" />
    <glyph glyph-name="three.subs" horiz-adv-x="406" 
d="M190 124q84 0 127.5 -43t43.5 -118t-41 -118t-126 -43q-80 0 -120.5 39t-40.5 96h30q0 -46 34.5 -77t96.5 -31q137 0 137 135q0 63 -37 99.5t-103 36.5l-61 -7v24l182 157l-252 -2v27h290v-25l-176 -151q5 1 16 1z" />
    <glyph glyph-name="three.tf" horiz-adv-x="639" 
d="M288 445q115 0 176.5 -61t61.5 -166q0 -108 -58 -168t-177 -60q-109 0 -166.5 54.5t-57.5 133.5h33q0 -67 50.5 -111.5t140.5 -44.5q99 0 149.5 50t50.5 146q0 92 -53.5 144t-149.5 52q-18 0 -39.5 -2.5t-34.5 -5.5l-12 -2v31l262 227l-359 -1v31h404v-30l-258 -219
q22 2 37 2z" />
    <glyph glyph-name="tildecomb.case" 
d="M-86 842h25q0 -78 -62 -78q-32 0 -53 22.5t-42 22.5q-39 0 -39 -49h-26q0 77 64 77q31 0 51.5 -22t41.5 -22q40 0 40 49z" />
    <glyph glyph-name="two.dnom" horiz-adv-x="394" 
d="M38 4v32q73 62 149 134q36 34 52 50.5t36 42t27.5 49t7.5 51.5q0 55 -31.5 84t-88.5 29q-58 0 -90 -29t-32 -82h-31q0 65 40 101t113 36q72 0 111 -36t39 -101q0 -31 -8 -56.5t-27.5 -52.5t-36.5 -45t-52 -51q-32 -32 -67.5 -64.5t-54.5 -49.5l-19 -16l273 1v-27h-310z
" />
    <glyph glyph-name="two.numr" horiz-adv-x="394" 
d="M38 268v32q73 62 149 134q36 34 52 50.5t36 42t27.5 49t7.5 51.5q0 55 -31.5 84t-88.5 29q-58 0 -90 -29t-32 -82h-31q0 65 40 101t113 36q72 0 111 -36t39 -101q0 -31 -8 -56.5t-27.5 -52.5t-36.5 -45t-52 -51q-32 -32 -67.5 -64.5t-54.5 -49.5l-19 -16l273 1v-27h-310z
" />
    <glyph glyph-name="two.subs" horiz-adv-x="394" 
d="M38 -187v32q73 62 149 134q36 34 52 50.5t36 42t27.5 49t7.5 51.5q0 55 -31.5 84t-88.5 29q-58 0 -90 -29t-32 -82h-31q0 65 40 101t113 36q72 0 111 -36t39 -101q0 -31 -8 -56.5t-27.5 -52.5t-36.5 -45t-52 -51q-32 -32 -67.5 -64.5t-54.5 -48.5l-19 -17l273 1v-27h-310
z" />
    <glyph glyph-name="two.tf" horiz-adv-x="639" 
d="M91 5v40l29 25q28 26 81.5 74.5t101.5 94.5q50 47 74 72t52 61.5t38.5 70.5t10.5 74q0 80 -46 121t-130 41q-83 0 -129.5 -41t-46.5 -118h-35q0 89 56 139.5t155 50.5t154.5 -50t55.5 -142q0 -44 -11 -80.5t-38.5 -74.5t-52.5 -64t-74 -74q-47 -46 -98.5 -93t-79.5 -71
l-28 -24h394v-32h-433z" />
    <glyph glyph-name="uni0302.case" 
d="M-58 760h-38l-74 72l-74 -72h-38l98 101h28z" />
    <glyph glyph-name="uni0304.case" 
d="M-266 817h206v-29h-206v29z" />
    <glyph glyph-name="uni0306.case" 
d="M-84 846h29q0 -30 -28.5 -58t-76.5 -28t-76.5 28t-28.5 58h30q0 -21 21.5 -39.5t53.5 -18.5t54 18.5t22 39.5z" />
    <glyph glyph-name="uni0307.case" 
d="M-94 760v113h33v-113h-33z" />
    <glyph glyph-name="uni0308.case" 
d="M-225 760v113h34v-113h-34zM-98 760v113h34v-113h-34z" />
    <glyph glyph-name="uni030A.case" 
d="M-129 760q-31 0 -48.5 18t-17.5 46t17.5 46t48.5 18t49 -18t18 -46t-18 -46t-49 -18zM-129 783q18 0 29 11t11 30t-11 30t-29 11t-29 -11t-11 -30t11 -30t29 -11z" />
    <glyph glyph-name="uni030B.case" 
d="M-280 760l59 107h43l-70 -107h-32zM-169 760l68 107h43l-78 -107h-33z" />
    <glyph glyph-name="uni030C.case" 
d="M-96 861h38l-98 -101h-28l-98 101h37l75 -72z" />
    <glyph glyph-name="uni0338.case" 
d="M-423 21l492 721h37l-493 -721h-36z" />
    <glyph glyph-name="zero.dnom" horiz-adv-x="471" 
d="M236 -7q-100 0 -139.5 60t-39.5 193q0 134 39.5 195t139.5 61q98 0 137.5 -61t39.5 -195q0 -133 -39.5 -193t-137.5 -60zM236 19q79 0 113 52t34 175q0 124 -34 176.5t-113 52.5t-113.5 -52.5t-34.5 -176.5q0 -123 34.5 -175t113.5 -52z" />
    <glyph glyph-name="zero.numr" horiz-adv-x="471" 
d="M236 257q-100 0 -139.5 60t-39.5 193q0 134 39.5 195t139.5 61q98 0 137.5 -61t39.5 -195q0 -133 -39.5 -193t-137.5 -60zM236 283q79 0 113 52t34 175q0 124 -34 176.5t-113 52.5t-113.5 -52.5t-34.5 -176.5q0 -123 34.5 -175t113.5 -52z" />
    <glyph glyph-name="zero.subs" horiz-adv-x="471" 
d="M236 -198q-100 0 -139.5 60t-39.5 193q0 134 39.5 195t139.5 61q98 0 137.5 -61t39.5 -195q0 -133 -39.5 -193t-137.5 -60zM236 -172q79 0 113 52t34 175q0 124 -34 176.5t-113 52.5t-113.5 -52.5t-34.5 -176.5q0 -123 34.5 -175t113.5 -52z" />
    <glyph glyph-name="zero.tf" horiz-adv-x="639" 
d="M320 -10q-139 0 -194.5 85t-55.5 273q0 189 56 275.5t194 86.5t193.5 -86t55.5 -276q0 -188 -55.5 -273t-193.5 -85zM320 21q115 0 165 74.5t50 252.5q0 179 -50 254.5t-165 75.5q-116 0 -166 -75.5t-50 -254.5q0 -178 50 -252.5t166 -74.5z" />
    </font>
</defs>
</svg>
