<svg xmlns="http://www.w3.org/2000/svg">
<defs>
<font id="TofinoPersonal-BookItalic" horiz-adv-x="0" >
  <font-face 
    font-family="Tofino Personal Book Italic"
    font-weight="425"
    font-style="italic"
    font-stretch="normal"
    units-per-em="1000"
    panose-1="2 0 0 0 0 0 0 0 0 0"
    ascent="760"
    descent="-240"
    x-height="530"
    cap-height="708"
    bbox="-711 -255 1098.66 1088"
    underline-thickness="50"
    underline-position="-225"
    unicode-range="U+000D-FB04"
  />
<missing-glyph horiz-adv-x="691" 
d="M362 540q8 -13 55 -18q1 -1 4 -1q1 1 1 3l4 9q-42 39 -54 36q-5 -2 -9 -14q-3 -10 -1 -15zM464 495l5 -1q15 0 17 11q2 9 -1 13q-3 5 -12 8q-1 1 -5 1q-14 0 -17 -11q-1 -5 2 -12q4 -8 11 -9zM582 486q4 2 2 16q0 10 -5 15q-12 8 -57 -7q-2 -1 -5 -1q0 -9 -2 -13
q2 -1 3 -1q56 -15 64 -9zM306 239q4 16 -3 25l-2 3h-1q-24 12 -85 12q-22 0 -38.5 -2.5t-22 -5.5t-5.5 -4q-3 -25 6 -50t31 -29q15 -3 38 -3q38 0 54 6q17 11 28 48zM485 188q22 2 30.5 27t6.5 52q-12 12 -67 12q-60 0 -84 -12q-1 0 -1 -2l-3 -1q-7 -8 -2 -25q3 -33 28 -48
q14 -6 52 -6q7 0 40 3zM511 465q77 -80 77 -194q0 -112 -74.5 -191t-178.5 -79t-177.5 79t-73.5 191q0 119 80 197q-27 39 -10 82q16 40 67 66t114 26q65 0 118 -27t70 -70q0 -1 1 -3q52 15 72 -1q18 -13 19 -38q2 -27 -14 -41q-13 -9 -31 -9q-17 0 -59 12zM241 439
q22 -44 102 -78t207 -28q-21 82 -85 132q-7 0 -10 1q-20 7 -28 23h-1q-2 1 -6.5 1.5t-6.5 0.5q-45 6 -62 18q-6 1 -16 1q-47 0 -88 -19q-20 -24 -6 -52zM182 539q-10 -25 5 -50q65 51 144 52q-1 11 3 26q13 28 32 32q29 6 80 -43l3 -2q12 4 19 4q1 0 13 -3q-22 26 -63 41
t-83 15q-52 0 -96 -21t-57 -51zM205 465q-69 -57 -85 -143q37 -1 78 12.5t66 34.5q-36 27 -50 57q-9 20 -9 39zM133 291l10 -9q20 11 72 11q67 0 91 -12q30 -15 59 0q24 12 90 12q54 0 72 -11q10 15 18 21q-10 -1 -31 -1q-133 0 -223 50q-28 -25 -71.5 -42t-86.5 -19z
M335 31q92 0 157 70.5t65 169.5q0 14 -1 21q-10 -9 -20 -23v-1q4 -35 -9 -64t-41 -32q-20 -2 -41 -2q-43 0 -60 9q-27 15 -36 57q-1 3 -1 6q-3 13 -14 13q-8 0 -11 -13q-2 -1 -2 -6q-9 -43 -37 -57q-14 -9 -60 -9q-21 0 -39 2q-28 3 -41.5 32t-9.5 64v1l-19 18v-16

<glyph glyph-name="f_f" unicode="ff" horiz-adv-x="592" 
d="M633 767h49l-12 -55h-41q-58 0 -85.5 -34.5t-44.5 -114.5l-6 -28h136l-11 -54h-136l-100 -481h-66l100 481h-225l-100 -481h-66l101 481h-73l11 54h73l6 28q10 50 22 82.5t34 62.5t57.5 44.5t85.5 14.5h50l-12 -55h-41q-58 0 -86.5 -34.5t-44.5 -114.5l-6 -28h225l6 28
q10 49 22.5 82.5t34 63t57.5 44t86 14.5z" />
    <glyph glyph-name="fi" unicode="fi" horiz-adv-x="522" 
d="M380 712h-41q-58 0 -86.5 -34.5t-44.5 -114.5l-6 -28h138l-12 -54h-137l-100 -481h-66l101 481h-73l11 54h73l6 28q10 50 22 82.5t34 62.5t57.5 44.5t85.5 14.5h50zM446 636l27 123h66l-26 -123h-67zM312 0l111 535h66l-111 -535h-66z" />
    <glyph glyph-name="fl" unicode="fl" horiz-adv-x="537" 
d="M380 712h-41q-58 0 -86.5 -34.5t-44.5 -114.5l-6 -28h138l-12 -54h-137l-100 -481h-66l101 481h-73l11 54h73l6 28q10 50 22 82.5t34 62.5t57.5 44.5t85.5 14.5h50zM320 0l159 760h66l-159 -760h-66z" />
    <glyph glyph-name="f_f_i" unicode="ffi" horiz-adv-x="816" 
d="M615 481h-133l-100 -481h-66l100 481h-225l-100 -481h-66l101 481h-73l11 54h73l6 28q10 50 22 82.5t34 62.5t57.5 44.5t85.5 14.5h50l-12 -55h-41q-58 0 -86.5 -34.5t-44.5 -114.5l-6 -28h225l6 28q11 50 23 82.5t34 62.5t57.5 44.5t85.5 14.5h49l-11 -55h-41
q-58 0 -86.5 -34.5t-44.5 -114.5l-6 -28h133zM766 765h67l-29 -135h-67zM605 0l111 535h66l-111 -535h-66z" />
    <glyph glyph-name="f_f_l" unicode="ffl" horiz-adv-x="820" 
d="M615 481h-133l-100 -481h-66l100 481h-225l-100 -481h-66l101 481h-73l11 54h73l6 28q10 50 22 82.5t34 62.5t57.5 44.5t85.5 14.5h50l-12 -55h-41q-58 0 -86.5 -34.5t-44.5 -114.5l-6 -28h225l6 28q10 49 22.5 82.5t34 63t57.5 44t86 14.5h49l-12 -55h-41
q-58 0 -85.5 -34.5t-44.5 -114.5l-6 -28h133zM762 760h66l-159 -760h-66z" />
    <glyph glyph-name=".notdef" horiz-adv-x="691" 
d="M362 540q8 -13 55 -18q1 -1 4 -1q1 1 1 3l4 9q-42 39 -54 36q-5 -2 -9 -14q-3 -10 -1 -15zM464 495l5 -1q15 0 17 11q2 9 -1 13q-3 5 -12 8q-1 1 -5 1q-14 0 -17 -11q-1 -5 2 -12q4 -8 11 -9zM582 486q4 2 2 16q0 10 -5 15q-12 8 -57 -7q-2 -1 -5 -1q0 -9 -2 -13
q2 -1 3 -1q56 -15 64 -9zM306 239q4 16 -3 25l-2 3h-1q-24 12 -85 12q-22 0 -38.5 -2.5t-22 -5.5t-5.5 -4q-3 -25 6 -50t31 -29q15 -3 38 -3q38 0 54 6q17 11 28 48zM485 188q22 2 30.5 27t6.5 52q-12 12 -67 12q-60 0 -84 -12q-1 0 -1 -2l-3 -1q-7 -8 -2 -25q3 -33 28 -48
q14 -6 52 -6q7 0 40 3zM511 465q77 -80 77 -194q0 -112 -74.5 -191t-178.5 -79t-177.5 79t-73.5 191q0 119 80 197q-27 39 -10 82q16 40 67 66t114 26q65 0 118 -27t70 -70q0 -1 1 -3q52 15 72 -1q18 -13 19 -38q2 -27 -14 -41q-13 -9 -31 -9q-17 0 -59 12zM241 439
q22 -44 102 -78t207 -28q-21 82 -85 132q-7 0 -10 1q-20 7 -28 23h-1q-2 1 -6.5 1.5t-6.5 0.5q-45 6 -62 18q-6 1 -16 1q-47 0 -88 -19q-20 -24 -6 -52zM182 539q-10 -25 5 -50q65 51 144 52q-1 11 3 26q13 28 32 32q29 6 80 -43l3 -2q12 4 19 4q1 0 13 -3q-22 26 -63 41
t-83 15q-52 0 -96 -21t-57 -51zM205 465q-69 -57 -85 -143q37 -1 78 12.5t66 34.5q-36 27 -50 57q-9 20 -9 39zM133 291l10 -9q20 11 72 11q67 0 91 -12q30 -15 59 0q24 12 90 12q54 0 72 -11q10 15 18 21q-10 -1 -31 -1q-133 0 -223 50q-28 -25 -71.5 -42t-86.5 -19z
M335 31q92 0 157 70.5t65 169.5q0 14 -1 21q-10 -9 -20 -23v-1q4 -35 -9 -64t-41 -32q-20 -2 -41 -2q-43 0 -60 9q-27 15 -36 57q-1 3 -1 6q-3 13 -14 13q-8 0 -11 -13q-2 -1 -2 -6q-9 -43 -37 -57q-14 -9 -60 -9q-21 0 -39 2q-28 3 -41.5 32t-9.5 64v1l-19 18v-16
q0 -99 64.5 -169.5t155.5 -70.5zM403 106q0 -20 -20 -33.5t-49 -13.5t-49 13.5t-20 33.5q0 19 20.5 32.5t48.5 13.5t48.5 -13.5t20.5 -32.5zM249 269l-4 -18q14 -8 14 -26q0 -13 -9 -22t-22 -9q-12 0 -21.5 9t-9.5 22q0 6 2 10l-14 11q-4 3 0 7q2 2 6 0l12 -11l3 6l-7 14
q-2 1 -1.5 3t2.5 3q4 2 6 -3l8 -12q0 1 2 1t3 1l-2 16q0 5 5 5q3 0 5 -4l1 -16q2 0 4.5 -0.5t3.5 -0.5l4 17q2 4 6 4q4 -3 3 -7zM491 253q1 -4 -1 -7l-13 -13q0 -1 0.5 -3.5t0.5 -4.5q0 -13 -9.5 -22t-22.5 -9q-12 0 -21 9t-9 22q0 18 15 26l-5 18q0 4 4 7q5 0 5 -4l4 -17
q2 1 7 1l3 16q0 4 5 4q4 0 4 -5l-3 -16l7 -2l7 12q3 5 5 3q2 -1 3 -3t0 -3l-9 -14q4 -3 4 -6l13 11q1 1 3 1t3 -1z" />
    <glyph glyph-name=".null" 
 />
    <glyph glyph-name="nonmarkingreturn" horiz-adv-x="333" 
 />
    <glyph glyph-name="NULL" 
 />
    <glyph glyph-name="NULL" 
 />
    <glyph glyph-name="CR" unicode="&#xd;" horiz-adv-x="216" 
 />
    <glyph glyph-name="space" unicode=" " horiz-adv-x="216" 
 />
    <glyph glyph-name="exclam" unicode="!" horiz-adv-x="223" 
d="M56 165l110 543h65l-116 -543h-59zM18 0l23 105h65l-22 -105h-66z" />
    <glyph glyph-name="quotedbl" unicode="&#x22;" horiz-adv-x="283" 
d="M103 573l30 184h73l-47 -184h-56zM230 573l30 184h73l-46 -184h-57z" />
    <glyph glyph-name="numbersign" unicode="#" horiz-adv-x="717" 
d="M665 467h-111l-84 -210h105l-10 -50h-116l-83 -207h-61l83 207h-174l-83 -207h-61l83 207h-102l10 50h113l84 210h-107l10 50h117l75 185h61l-75 -185h174l75 185h61l-75 -185h101zM409 257l84 210h-174l-84 -210h174z" />
    <glyph glyph-name="dollar" unicode="$" horiz-adv-x="542" 
d="M522 517h-62q26 122 -102 130l-52 -247q20 -4 32.5 -7t31 -8.5t30 -11t26 -14t22.5 -18t16.5 -22.5t11.5 -28.5t3 -36t-5 -43.5q-17 -80 -79.5 -126t-164.5 -50l-19 -93h-45l20 94q-200 9 -160 205h63q-30 -141 108 -149l55 262q-21 5 -34.5 8.5t-32.5 9.5t-30.5 13
t-25.5 16.5t-21 22.5t-12.5 29t-5 36.5t5.5 45.5q15 75 72.5 119.5t156.5 49.5l14 66h44l-14 -67q191 -10 153 -186zM161 533q-12 -55 16 -81t87 -41l49 236q-64 -5 -103 -36.5t-49 -77.5zM406 209q13 61 -17 89.5t-95 45.5l-52 -252q67 4 110 35.5t54 81.5z" />
    <glyph glyph-name="percent" unicode="%" horiz-adv-x="724" 
d="M183 370q-152 0 -116 168q17 84 60.5 128.5t126.5 44.5q151 0 116 -173q-17 -82 -60 -125t-127 -43zM193 414q98 0 122 124q14 65 -1 97t-69 32q-96 0 -124 -129q-13 -64 2 -94t70 -30zM23 0l597 702h64l-598 -702h-63zM448 -9q-153 0 -117 168q17 84 60.5 128.5
t126.5 44.5q152 0 116 -173q-17 -82 -59.5 -125t-126.5 -43zM457 35q51 0 80 31t42 93q16 61 0.5 95t-70.5 34q-96 0 -124 -129q-13 -64 2 -94t70 -30z" />
    <glyph glyph-name="ampersand" unicode="&#x26;" horiz-adv-x="710" 
d="M547 353h62q-33 -157 -87 -239l80 -114h-78q-18 23 -45 61q-79 -78 -227 -78q-241 0 -196 217q33 158 180 208q-21 36 -27 66t3 79q16 81 67.5 125t152.5 44q174 0 139 -179h-69q12 58 -5.5 88.5t-77.5 30.5q-114 0 -135 -109q-4 -20 -4.5 -37.5t4 -35t9.5 -30.5
t17.5 -33t22 -33.5t28.5 -40t32 -44.5l91 -131q39 70 63 185zM266 44q112 0 176 67q-80 111 -129 184l-50 72q-111 -45 -137 -164q-17 -76 12.5 -117.5t127.5 -41.5z" />
    <glyph glyph-name="quotesingle" unicode="'" horiz-adv-x="149" 
d="M99 573l30 184h73l-46 -184h-57z" />
    <glyph glyph-name="parenleft" unicode="(" horiz-adv-x="288" 
d="M272 760h67l-15 -22q-14 -22 -38.5 -66.5t-51 -100t-53.5 -134.5t-44 -158q-26 -147 -21 -253t24 -164l20 -59h-67q-3 7 -8.5 21t-17 61.5t-17 99t-1.5 132t21 162.5q28 131 78.5 251t87.5 175z" />
    <glyph glyph-name="parenright" unicode=")" horiz-adv-x="289" 
d="M134 760h67q3 -8 6.5 -22t11 -62.5t10 -100.5t-3.5 -133t-23 -163t-46 -161.5t-58 -134t-56 -97t-44 -62.5l-16 -21h-68q7 8 18 22.5t42 63t58 100.5t57 131.5t47 158.5q26 144 25.5 250.5t-13.5 168.5z" />
    <glyph glyph-name="asterisk" unicode="*" horiz-adv-x="376" 
d="M84 611l25 56l85 -34l13 93h58l-25 -93l98 34l2 -56l-97 -20l53 -75l-56 -35l-39 80l-74 -80l-40 35l84 75z" />
    <glyph glyph-name="plus" unicode="+" horiz-adv-x="485" 
d="M439 344l-12 -55h-163l-35 -165h-58l35 165h-164l12 55h163l35 165h59l-35 -165h163z" />
    <glyph glyph-name="comma" unicode="," horiz-adv-x="218" 
d="M-4 -104h-58q36 51 65 120q13 31 22 56.5t11 35.5l2 11h70q-7 -38 -39 -106q-15 -32 -33.5 -61t-29.5 -42z" />
    <glyph glyph-name="hyphen" unicode="-" horiz-adv-x="388" 
d="M74 293l11 54h230l-11 -54h-230z" />
    <glyph glyph-name="period" unicode="." horiz-adv-x="200" 
d="M0 0l25 119h68l-24 -119h-69z" />
    <glyph glyph-name="slash" unicode="/" horiz-adv-x="465" 
d="M-16 -40l479 840h68l-478 -840h-69z" />
    <glyph glyph-name="zero" unicode="0" horiz-adv-x="631" 
d="M248 -11q-140 0 -180.5 88.5t0.5 269.5q41 195 113.5 281t216.5 86q140 0 180 -90t-2 -277q-39 -189 -111.5 -273.5t-216.5 -84.5zM261 51q96 0 154.5 68t91.5 228q36 169 10 238t-131 69q-96 0 -154.5 -70.5t-93.5 -236.5q-35 -163 -8.5 -229.5t131.5 -66.5z" />
    <glyph glyph-name="one" unicode="1" horiz-adv-x="272" 
d="M210 708h56l-147 -708h-68l132 638l-149 -67l14 64z" />
    <glyph glyph-name="two" unicode="2" horiz-adv-x="509" 
d="M-36 4l14 65l32 24q33 24 93.5 70.5t114.5 90.5q50 41 66.5 54.5t52 45.5t49 51.5t29 48t21.5 58.5q29 143 -118 143q-69 0 -117 -36.5t-63 -106.5h-69q20 99 87 151t175 52q102 0 148.5 -52t25.5 -150q-17 -81 -67.5 -141.5t-150.5 -142.5q-51 -42 -106 -83.5t-85 -62.5
l-29 -21l350 1l-14 -59h-439z" />
    <glyph glyph-name="three" unicode="3" horiz-adv-x="520" 
d="M541 694l-11 -55l-250 -188q107 -6 154.5 -66.5t25.5 -162.5q-48 -231 -287 -231q-108 0 -155.5 57t-30.5 144h64q-12 -59 21 -99t114 -40q83 0 135.5 44.5t68.5 124.5q17 79 -18 124t-127 45q-18 0 -39.5 -2.5t-33.5 -4.5l-13 -2l12 60l261 196l-319 -3l13 59h415z" />
    <glyph glyph-name="four" unicode="4" horiz-adv-x="541" 
d="M514 701l-101 -486h85l-13 -61h-85l-32 -154h-67l33 154h-345l13 61l443 486h69zM80 215h267l83 391z" />
    <glyph glyph-name="five" unicode="5" horiz-adv-x="559" 
d="M548 635h-304l-80 -220q64 47 160 47q105 0 152 -62.5t24 -174.5q-49 -234 -289 -234q-114 0 -164 55.5t-32 137.5h64q-11 -54 23.5 -92.5t121.5 -38.5q80 0 135 45.5t71 126.5q18 83 -16 129.5t-118 46.5q-31 0 -59.5 -7.5t-47 -18.5t-32 -22.5t-19.5 -18.5l-6 -8l-66 1
l112 308l21 59h362z" />
    <glyph glyph-name="six" unicode="6" horiz-adv-x="608" 
d="M570 525h-69q11 52 -16 91t-105 39q-80 0 -135 -61.5t-96 -219.5q86 90 212 90q112 0 153 -66t19 -174q-49 -234 -292 -235q-125 0 -168.5 79t-9.5 243q46 219 121.5 312t208.5 93q46 0 81.5 -12t55 -31.5t32 -44.5t12.5 -51.5t-4 -51.5zM337 403q-126 0 -207 -113
q-26 -131 3.5 -185t120.5 -54q82 0 136.5 44.5t72.5 128.5q38 179 -126 179z" />
    <glyph glyph-name="seven" unicode="7" horiz-adv-x="469" 
d="M126 0h-74q20 98 68 200t101.5 176.5t104 135.5t84.5 92l33 32h-368l14 61h451l-14 -61q-13 -12 -36 -34t-83.5 -91t-110.5 -140t-100 -173t-70 -198z" />
    <glyph glyph-name="eight" unicode="8" horiz-adv-x="602" 
d="M31 195q13 61 48.5 104.5t67.5 59.5t56 18q-32 4 -63.5 41t-17.5 106q39 193 263 193q113 0 157 -52t25 -141q-8 -37 -27 -67t-41.5 -46t-41 -24.5t-31.5 -9.5q39 -3 76 -49t19 -133q-21 -99 -89 -152t-199 -53q-124 0 -173 54t-29 151zM102 199q-16 -76 18 -112t126 -36
q175 0 206 148q15 74 -17.5 110t-127.5 36q-86 0 -138.5 -37.5t-66.5 -108.5zM191 519q-12 -58 17 -87t111 -29q154 0 177 116q15 71 -15 104.5t-109 33.5q-153 0 -181 -138z" />
    <glyph glyph-name="nine" unicode="9" horiz-adv-x="607" 
d="M381 716q125 1 168 -80t7 -257q-46 -217 -118.5 -303.5t-207.5 -86.5q-49 0 -87.5 12.5t-60 32t-35 45t-14 51t2.5 49.5h70q-12 -51 18.5 -89.5t117.5 -38.5q83 0 135 54t92 204q-87 -91 -213 -91q-109 0 -150.5 71t-17.5 187q50 240 293 240zM281 280q124 0 206 109
q30 155 3 210.5t-122 55.5q-82 0 -137 -45.5t-73 -133.5q-20 -97 8.5 -146.5t114.5 -49.5z" />
    <glyph glyph-name="colon" unicode=":" horiz-adv-x="225" 
d="M92 370l24 119h69l-25 -119h-68zM18 19l25 119h68l-24 -119h-69z" />
    <glyph glyph-name="semicolon" unicode=";" horiz-adv-x="239" 
d="M94 351l26 118h68l-25 -118h-69zM0 -104h-59q37 51 66 120q13 31 21.5 56.5t11.5 35.5l2 11h70q-7 -38 -40 -106q-15 -32 -33 -61t-29 -42z" />
    <glyph glyph-name="less" unicode="&#x3c;" horiz-adv-x="547" 
d="M485 480l-12 -62l-349 -107l303 -106l-13 -61l-355 141l11 54z" />
    <glyph glyph-name="equal" unicode="=" horiz-adv-x="532" 
d="M82 353l12 57h380l-12 -57h-380zM50 202l12 56h380l-12 -56h-380z" />
    <glyph glyph-name="greater" unicode="&#x3e;" horiz-adv-x="540" 
d="M122 480l356 -141l-12 -54l-415 -141l12 62l349 107l-303 106z" />
    <glyph glyph-name="question" unicode="?" horiz-adv-x="489" 
d="M226 165h-63l8 35q11 53 34.5 91t51 60.5t54 43.5t49 53t31.5 76q14 68 -7 102t-86 34q-124 0 -153 -151h-67q43 212 234 212q96 0 131.5 -50.5t16.5 -139.5q-11 -52 -35.5 -91t-53 -63t-57 -46.5t-51.5 -55t-31 -75.5zM127 0l22 105h66l-22 -105h-66z" />
    <glyph glyph-name="at" unicode="@" horiz-adv-x="843" 
d="M505 686q79 0 137.5 -21t92.5 -58t50.5 -89t16.5 -111.5t-15 -129.5q-28 -136 -73 -196.5t-114 -61.5h-1q-89 0 -87 107q-60 -73 -159 -73q-168 0 -122 225q23 109 74.5 168t141.5 59q89 0 120 -81l23 73h53l-63 -301q-15 -69 -7.5 -101t43.5 -32q79 0 123 214
q78 367 -243 367q-85 0 -153.5 -28.5t-115.5 -80t-77 -115.5t-47 -143q-13 -63 -15 -114t11 -97t42.5 -76.5t81.5 -48.5t125 -18q115 0 186 32l-11 -46q-79 -28 -186 -28q-79 0 -137.5 19.5t-93 55t-52.5 85t-16.5 109t14.5 127.5q19 89 52.5 159.5t87 128.5t133 89.5
t180.5 31.5zM376 101q48 0 85 26.5t58 62.5q0 1 0.5 3t0.5 3l34 165q-7 39 -31.5 68t-73.5 29q-118 0 -156 -180q-20 -85 -0.5 -131t83.5 -46z" />
    <glyph glyph-name="A" unicode="A" horiz-adv-x="606" 
d="M476 0l-29 191h-319l-109 -191h-73l414 708h67l118 -708h-69zM162 251h275l-58 379z" />
    <glyph glyph-name="B" unicode="B" horiz-adv-x="641" 
d="M611 531q-14 -67 -46 -106t-103 -55q74 -18 94.5 -62.5t4.5 -115.5q-10 -50 -26 -82.5t-48 -60t-87 -40t-137 -12.5h-241l148 714h244q131 0 172.5 -46.5t24.5 -133.5zM540 525q14 67 -17 97.5t-123 30.5h-173l-53 -255l173 -1q93 -1 136.5 30.5t56.5 97.5zM493 198
q15 73 -19 108.5t-138 35.5h-174l-60 -287h174q105 -1 152.5 31.5t64.5 111.5z" />
    <glyph glyph-name="C" unicode="C" horiz-adv-x="649" 
d="M269 -17q-150 0 -196 93t-7 277q39 186 121.5 279t236.5 93q124 0 175 -64.5t27 -188.5h-68q17 100 -17 146t-130 46q-110 0 -176 -75.5t-99 -235.5q-37 -157 -5 -233t151 -76q84 0 142.5 45.5t81.5 138.5h68q-59 -245 -305 -245z" />
    <glyph glyph-name="D" unicode="D" horiz-adv-x="665" 
d="M170 711h175q137 0 204.5 -39t78 -118.5t-14.5 -200.5q-20 -97 -46.5 -159t-73.5 -109t-119 -67.5t-178 -20.5h-174zM543 353q26 111 16.5 177.5t-61 93.5t-164.5 27h-108l-123 -591l108 -1q154 -1 225.5 62t106.5 232z" />
    <glyph glyph-name="E" unicode="E" horiz-adv-x="557" 
d="M596 647h-371l-52 -249h322l-13 -59h-321l-58 -278h376l-13 -61h-444l147 708h439z" />
    <glyph glyph-name="F" unicode="F" horiz-adv-x="530" 
d="M589 647h-364l-55 -263h315l-12 -61h-315l-68 -323h-68l147 708h433z" />
    <glyph glyph-name="G" unicode="G" horiz-adv-x="657" 
d="M629 490h-68q17 80 -20 127t-131 47q-110 0 -175.5 -76t-98.5 -236q-37 -157 -4 -232.5t154 -75.5q51 0 99 14.5t72 29.5t26 22l37 175h-147l13 58h210l-54 -261q-1 -5 -12 -16t-34 -25.5t-53.5 -27t-76.5 -21.5t-97 -9q-150 0 -196 92t-7 277q39 188 121 280.5t236 92.5
q125 0 176.5 -65t29.5 -170z" />
    <glyph glyph-name="H" unicode="H" horiz-adv-x="684" 
d="M609 708h69l-148 -708h-69l70 335h-371l-70 -335h-68l147 708h69l-64 -308h371z" />
    <glyph glyph-name="I" unicode="I" horiz-adv-x="244" 
d="M22 0l147 708h69l-148 -708h-68z" />
    <glyph glyph-name="J" unicode="J" horiz-adv-x="376" 
d="M-2 0h-57l14 66h56q107 0 147.5 42.5t67.5 176.5l87 423h69l-86 -423q-15 -70 -28 -111.5t-34 -79t-51.5 -56t-75 -28.5t-109.5 -10z" />
    <glyph glyph-name="K" unicode="K" horiz-adv-x="591" 
d="M655 708l-332 -318l193 -390h-76l-168 342l-138 -133l-44 -209h-68l147 708h69l-84 -402l409 402h92z" />
    <glyph glyph-name="L" unicode="L" horiz-adv-x="492" 
d="M103 63h320l-14 -63h-387l147 708h69z" />
    <glyph glyph-name="M" unicode="M" horiz-adv-x="831" 
d="M825 708l-150 -708h-67l137 634l-370 -636h-68l-94 636l-128 -634h-63l147 708h99l90 -626l358 626h109z" />
    <glyph glyph-name="N" unicode="N" horiz-adv-x="703" 
d="M629 708h68l-147 -708h-75l-259 605l-129 -605h-65l150 708h75l261 -610z" />
    <glyph glyph-name="O" unicode="O" horiz-adv-x="686" 
d="M273 -17q-151 0 -198.5 93.5t-9.5 276.5q40 187 123.5 279.5t239.5 92.5q151 0 198 -94t9 -278q-39 -186 -122 -278t-240 -92zM287 44q113 0 179 75t99 234q37 157 4 234t-154 77q-113 0 -179.5 -76t-99.5 -235q-37 -157 -4 -233t155 -76z" />
    <glyph glyph-name="P" unicode="P" horiz-adv-x="627" 
d="M170 711h244q131 0 184 -50t27 -178q-28 -130 -97 -178t-210 -48h-175l-53 -257h-68zM554 484q5 37 7.5 64t-8 45.5t-22 29.5t-34.5 17t-44.5 8t-52.5 2h-175l-68 -330l173 -1q45 0 76.5 5.5t63 22t52.5 50.5t32 87z" />
    <glyph glyph-name="Q" unicode="Q" horiz-adv-x="685" 
d="M634 353q-49 -231 -161 -312l100 -95l-50 -46l-102 110q-63 -27 -148 -27q-151 0 -198.5 93.5t-9.5 276.5q40 187 123 279.5t239 92.5q151 0 198 -94t9 -278zM136 353q-37 -157 -4 -233t154 -76q113 0 178.5 75t99.5 234q37 157 4.5 234t-154.5 77q-112 0 -178.5 -76
t-99.5 -235z" />
    <glyph glyph-name="R" unicode="R" horiz-adv-x="644" 
d="M170 710h244q131 0 182.5 -49t28.5 -165q-19 -92 -60.5 -139.5t-117.5 -63.5l92 -293h-75l-85 284q-34 -2 -55 -2h-174l-59 -282h-69zM553 496q6 30 6.5 53t-3.5 39t-15 27.5t-23.5 18t-32.5 10.5t-39 5t-46 1h-174l-63 -306l174 -1q43 0 72 4.5t60.5 19t52.5 47t31 82.5
z" />
    <glyph glyph-name="S" unicode="S" horiz-adv-x="614" 
d="M26 212h67q-35 -167 157 -168q92 -1 148 34.5t71 97.5q10 43 -2 73t-39 45t-63.5 26.5t-76.5 18t-76 21t-63 33.5t-38.5 56.5t-0.5 89.5q40 189 279 186q124 -1 174.5 -55.5t31.5 -149.5h-66q13 61 -19 103t-131 43q-169 1 -199 -129q-11 -46 6.5 -76t53 -44t80.5 -23.5
t89.5 -22t79 -32t50.5 -60.5t3 -101q-41 -196 -304 -195q-120 1 -178 57.5t-34 171.5z" />
    <glyph glyph-name="T" unicode="T" horiz-adv-x="534" 
d="M602 708l-13 -63h-219l-138 -645h-69l138 645h-219l13 63h507z" />
    <glyph glyph-name="U" unicode="U" horiz-adv-x="676" 
d="M267 -17q-98 0 -148 42t-56 122.5t18 198.5l76 362h69l-76 -362q-38 -157 -12 -229.5t142 -72.5q106 0 164 71t91 231l76 362h71l-76 -362q-39 -189 -113 -276t-226 -87z" />
    <glyph glyph-name="V" unicode="V" horiz-adv-x="558" 
d="M559 708h78l-404 -708h-66l-109 708h72l86 -615z" />
    <glyph glyph-name="W" unicode="W" horiz-adv-x="914" 
d="M908 708h78l-358 -708h-71l-51 610l-299 -610h-67l-67 708h71l47 -611l296 611h72l52 -612z" />
    <glyph glyph-name="X" unicode="X" horiz-adv-x="602" 
d="M669 708l-320 -357l173 -351h-76l-148 300l-269 -300h-86l325 360l-171 348h76l146 -297l264 297h86z" />
    <glyph glyph-name="Y" unicode="Y" horiz-adv-x="554" 
d="M543 708h83l-331 -437l-56 -271h-69l57 271l-158 437h74l129 -367z" />
    <glyph glyph-name="Z" unicode="Z" horiz-adv-x="544" 
d="M595 704l-12 -60l-2 -8l-527 -572h412l-13 -60h-495l12 60l2 7l527 573h-384l13 60h467z" />
    <glyph glyph-name="bracketleft" unicode="[" horiz-adv-x="340" 
d="M390 699h-147l-174 -836h147l-13 -60h-212l199 957h212z" />
    <glyph glyph-name="backslash" unicode="\" horiz-adv-x="401" 
d="M269 -40h-66l-128 840h65z" />
    <glyph glyph-name="bracketright" unicode="]" horiz-adv-x="339" 
d="M333 760l-199 -957h-212l13 60h146l174 836h-147l13 61h212z" />
    <glyph glyph-name="asciicircum" unicode="^" horiz-adv-x="389" 
d="M358 468h-57l-47 200l-131 -200h-59l178 268h49z" />
    <glyph glyph-name="underscore" unicode="_" horiz-adv-x="558" 
d="M13 0l11 53h400l-11 -53h-400z" />
    <glyph glyph-name="grave" unicode="`" horiz-adv-x="356" 
d="M262 629h-60l-57 138h75z" />
    <glyph glyph-name="a" unicode="a" horiz-adv-x="552" 
d="M321 544q59 0 96 -16t53 -37t17 -64.5t-3.5 -73t-17.5 -88.5l-28 -130l-17 -134h-57l6 80q-68 -91 -210 -91q-177 0 -145 157q8 39 24.5 67.5t40.5 45t55.5 27t69 14t81 4.5t91.5 0h31q6 32 9 50.5t5 41.5t-0.5 35.5t-9.5 26t-20 20t-32.5 10.5t-46.5 4q-79 0 -119 -36
t-49 -81h-60q36 168 236 168zM182 38q67 0 119 31t77 86l21 104q-159 1 -204 -7q-85 -16 -109 -80q-4 -12 -7 -27q-11 -52 11 -79.5t92 -27.5z" />
    <glyph glyph-name="b" unicode="b" horiz-adv-x="599" 
d="M386 544q204 0 148 -278q-57 -275 -263 -275q-134 0 -166 97l-30 -88h-57l38 140l129 620h67l-65 -307q88 91 199 91zM465 266q46 224 -101 224q-66 0 -115 -36t-77 -77l-44 -207q2 -49 35.5 -86.5t108.5 -37.5q148 0 193 220z" />
    <glyph glyph-name="c" unicode="c" horiz-adv-x="544" 
d="M212 -11q-225 0 -168 278q28 135 93 206.5t191 71.5q103 0 147 -53t26 -147h-65q28 146 -119 146q-159 0 -205 -224q-27 -109 -2.5 -166t114.5 -57q65 0 113 34.5t61 92.5h67q-20 -85 -83 -133.5t-170 -48.5z" />
    <glyph glyph-name="d" unicode="d" horiz-adv-x="591" 
d="M533 760h66l-128 -620l-21 -140h-57l7 88q-74 -97 -207 -97q-205 0 -149 275q58 278 264 278q64 0 103.5 -28t58.5 -63zM215 46q73 0 123.5 38.5t72.5 87.5l42 200q-4 18 -12 35t-24 37.5t-44.5 33t-64.5 12.5q-73 0 -123 -58.5t-72 -165.5q-22 -110 1.5 -165t100.5 -55z
" />
    <glyph glyph-name="e" unicode="e" horiz-adv-x="559" 
d="M329 546q227 0 169 -275h-385l-1 -7q-12 -66 -13.5 -115.5t29.5 -78.5t97 -29q76 0 123 40t56 80h68q-5 -24 -19.5 -49.5t-42.5 -55t-79 -48.5t-117 -19q-118 0 -158 69t-12 207q30 142 96 211.5t189 69.5zM127 321h315q11 87 -16.5 130t-107.5 43q-138 0 -191 -173z" />
    <glyph glyph-name="f" unicode="f" horiz-adv-x="302" 
d="M380 712h-41q-58 0 -86.5 -34.5t-44.5 -114.5l-6 -28h138l-12 -54h-137l-100 -481h-66l101 481h-73l11 54h73l6 28q10 50 22 82.5t34 62.5t57.5 44.5t85.5 14.5h50z" />
    <glyph glyph-name="g" unicode="g" horiz-adv-x="593" 
d="M501 535h57l-37 -140l-82 -396q-7 -32 -11.5 -50t-15 -46.5t-22.5 -46t-32.5 -38t-46.5 -31.5t-64 -19t-85 -8q-42 0 -74 10t-49.5 26.5t-28 36t-13 39t-2.5 36t2 26.5l2 10l62 1l-1 -5q-1 -6 -2 -13.5t-1.5 -18t2 -21t6.5 -21.5t13.5 -20.5t22 -17t32 -12t44.5 -4.5
q53 0 89 14t56.5 43t31 57t19.5 73l16 79q-72 -87 -199 -87q-204 0 -148 275q58 278 264 278q70 0 109.5 -32t55.5 -69zM213 46q73 0 123.5 39t72.5 88l43 205q-33 112 -147 112q-73 0 -122.5 -58.5t-72.5 -165.5q-22 -110 1.5 -165t101.5 -55z" />
    <glyph glyph-name="h" unicode="h" horiz-adv-x="585" 
d="M376 545q95 0 128 -51t7 -176l-67 -318h-66l66 313q22 84 3 128.5t-95 44.5q-33 0 -65 -13.5t-57 -35.5t-41.5 -41t-29.5 -38l-75 -358h-66l159 760h66l-67 -319q86 104 200 104z" />
    <glyph glyph-name="i" unicode="i" horiz-adv-x="220" 
d="M144 636l27 123h66l-26 -123h-67zM10 0l111 535h66l-111 -535h-66z" />
    <glyph glyph-name="j" unicode="j" horiz-adv-x="239" 
d="M156 636l27 123h66l-26 -123h-67zM-131 -188l12 57q29 0 49 3t35.5 13t24.5 19.5t17 32.5t12 41t12 55l104 502h67l-105 -502q-15 -70 -27 -106.5t-37 -66t-63 -39t-101 -9.5z" />
    <glyph glyph-name="k" unicode="k" horiz-adv-x="500" 
d="M514 535l-241 -212l159 -323h-72l-137 279l-99 -87l-40 -192h-66l159 760h66l-102 -490l287 265h86z" />
    <glyph glyph-name="l" unicode="l" horiz-adv-x="235" 
d="M18 0l159 760h66l-159 -760h-66z" />
    <glyph glyph-name="m" unicode="m" horiz-adv-x="906" 
d="M704 545q91 0 122.5 -51t5.5 -176l-67 -318h-64l65 313q21 84 3 128.5t-88 44.5q-96 0 -182 -118q-4 -32 -8 -50l-66 -318h-64l66 313q21 84 3 128.5t-88 44.5q-100 0 -185 -126l-74 -360h-66l82 394l20 141h57l-9 -104q32 43 83.5 78.5t115.5 35.5q66 0 99.5 -26.5
t36.5 -89.5q32 43 84.5 79.5t117.5 36.5z" />
    <glyph glyph-name="n" unicode="n" horiz-adv-x="581" 
d="M372 545q95 0 128 -51t7 -176l-66 -318h-66l65 313q12 56 11 94.5t-25.5 58.5t-77.5 20q-59 0 -108.5 -39t-82.5 -86l-74 -361h-66l82 394l20 141h57l-9 -102q32 43 84.5 77.5t120.5 34.5z" />
    <glyph glyph-name="o" unicode="o" horiz-adv-x="570" 
d="M217 -11q-232 0 -173 277q29 136 94.5 208t194.5 72q83 0 128.5 -35.5t52.5 -98t-9 -146.5q-28 -135 -93.5 -206t-194.5 -71zM228 43q86 0 135.5 55.5t73.5 167.5q14 72 12 122.5t-33 77t-95 26.5q-162 0 -209 -226q-27 -109 -2.5 -166t118.5 -57z" />
    <glyph glyph-name="p" unicode="p" horiz-adv-x="592" 
d="M380 544q105 0 139.5 -73t7.5 -205q-57 -275 -263 -275q-125 0 -162 87l-66 -318h-66l133 637l20 138h56l-8 -97q29 38 83.5 72t125.5 34zM458 266q25 106 2 165t-103 59q-34 0 -67 -13t-58 -34t-41 -38.5t-28 -34.5l-42 -199q2 -50 34.5 -87.5t108.5 -37.5
q74 0 123 56.5t71 163.5z" />
    <glyph glyph-name="q" unicode="q" horiz-adv-x="589" 
d="M505 535h56l-34 -121l-136 -654h-66l66 317q-73 -86 -198 -86q-205 0 -149 275q58 278 264 278q68 0 108 -31t56 -67zM215 46q72 0 122 37.5t73 85.5l44 209q-4 17 -12.5 33t-24 35.5t-44 31.5t-65.5 12q-73 0 -123 -58.5t-72 -165.5q-22 -110 1.5 -165t100.5 -55z" />
    <glyph glyph-name="r" unicode="r" horiz-adv-x="357" 
d="M176 535l-11 -115q11 19 25.5 37t40 40t65 35.5t85.5 13.5l-13 -61q-41 0 -77.5 -14.5t-59 -34t-42 -45.5t-27 -41t-13.5 -29l-66 -321h-66l79 384l23 151h57z" />
    <glyph glyph-name="s" unicode="s" horiz-adv-x="512" 
d="M13 166h61q-13 -62 17.5 -92.5t107.5 -31.5q75 -1 116.5 25t51.5 69q7 34 -7.5 56.5t-43 33t-64 17.5t-71 16t-63 23.5t-40.5 44.5t-4 74q14 69 72 107t160 37q99 -1 140.5 -42t24.5 -121h-61q12 53 -11.5 81.5t-101.5 29.5q-73 1 -110.5 -26t-45.5 -66
q-8 -37 13.5 -59.5t58.5 -30.5t80 -18.5t79 -23t55 -45.5t8 -84q-31 -152 -247 -151q-211 3 -175 177z" />
    <glyph glyph-name="t" unicode="t" horiz-adv-x="326" 
d="M196 481l-59 -283q-9 -46 -10.5 -78t16 -49.5t57.5 -17.5h48l-11 -55h-56q-41 0 -67.5 11t-38.5 28t-15 45t0 53.5t11 62.5l59 283h-67l11 54h67l32 155l69 13l-35 -168h137l-11 -54h-137z" />
    <glyph glyph-name="u" unicode="u" horiz-adv-x="598" 
d="M476 535h66l-81 -387l-22 -148h-56l10 113q-29 -44 -84 -84t-128 -40q-93 0 -126.5 51t-8.5 173l68 322h65l-65 -313q-22 -83 -3 -128.5t94 -45.5q35 0 69.5 16t60.5 42t41.5 45.5t27.5 37.5z" />
    <glyph glyph-name="v" unicode="v" horiz-adv-x="484" 
d="M452 535h76l-319 -535h-71l-87 535h68l68 -467z" />
    <glyph glyph-name="w" unicode="w" horiz-adv-x="727" 
d="M695 535h71l-274 -535h-63l-40 450l-220 -450h-65l-58 535h66l40 -447l215 447h73l39 -447z" />
    <glyph glyph-name="x" unicode="x" horiz-adv-x="473" 
d="M512 535l-247 -273l128 -262h-74l-104 215l-192 -215h-83l247 272l-128 263h73l106 -217l192 217h82z" />
    <glyph glyph-name="y" unicode="y" horiz-adv-x="475" 
d="M443 535h76l-428 -754h-67l122 219h-18l-90 535h68l72 -477z" />
    <glyph glyph-name="z" unicode="z" horiz-adv-x="435" 
d="M447 507l-9 -42l-393 -406l309 1l-12 -55h-383l11 54h1l2 11l393 407l-299 -1l11 54h374z" />
    <glyph glyph-name="braceleft" unicode="{" horiz-adv-x="387" 
d="M450 761l-13 -61q-84 0 -114 -23t-45 -92l-44 -216q-4 -19 -12.5 -35t-16.5 -24t-18 -14t-14 -7.5t-7 -2.5q46 -18 32 -84l-44 -216q-15 -70 3.5 -92t106.5 -22l-12 -61q-87 0 -126 15.5t-46.5 53t7.5 99.5l46 223q6 32 -7.5 44t-65.5 12l11 57q51 0 70.5 11.5t26.5 42.5
l47 228q11 52 22.5 79.5t37 49t66 28.5t109.5 7z" />
    <glyph glyph-name="bar" unicode="|" horiz-adv-x="374" 
d="M48 -197l216 1017h58l-216 -1017h-58z" />
    <glyph glyph-name="braceright" unicode="}" horiz-adv-x="386" 
d="M-76 -189l13 61q84 0 113.5 22.5t44.5 91.5l45 217q6 29 22.5 49.5t27 26t18.5 7.5q-6 1 -14.5 6.5t-16.5 26.5t-2 51l44 215q15 71 -3 93t-107 22l13 61q87 0 125.5 -15.5t46 -53t-7.5 -99.5l-46 -223q-7 -32 7 -44t67 -12l-11 -57q-52 0 -71.5 -11.5t-25.5 -42.5
l-48 -228q-14 -69 -33 -100.5t-64.5 -47.5t-136.5 -16z" />
    <glyph glyph-name="asciitilde" unicode="~" horiz-adv-x="515" 
d="M421 356h45q-10 -44 -42 -78t-93 -34q-47 0 -90 27.5t-80 27.5q-32 0 -53 -19.5t-24 -35.5h-45q10 44 41.5 78t92.5 34q47 0 90 -27.5t80 -27.5q32 0 53.5 19.5t24.5 35.5z" />
    <glyph glyph-name="uni00A0" unicode="&#xa0;" horiz-adv-x="216" 
 />
    <glyph glyph-name="exclamdown" unicode="&#xa1;" horiz-adv-x="212" 
d="M95 430l23 105h65l-22 -105h-66zM-30 -173l118 543h58l-110 -543h-66z" />
    <glyph glyph-name="cent" unicode="&#xa2;" horiz-adv-x="545" 
d="M501 421h-65q27 134 -94 146l-93 -445q57 7 98 40.5t52 84.5h67q-40 -169 -228 -180l-19 -91h-52l19 91q-105 8 -136.5 79t-5.5 197q27 127 86.5 198.5t170.5 79.5l18 85h52l-18 -85q92 -7 129 -59t19 -141zM111 343q-24 -100 -5.5 -156.5t91.5 -64.5l93 444
q-135 -17 -179 -223z" />
    <glyph glyph-name="sterling" unicode="&#xa3;" horiz-adv-x="544" 
d="M398 708q92 0 133.5 -54.5t23.5 -141.5h-69q14 67 -11 105t-88 38q-56 0 -100 -38t-57 -102q-6 -30 -6.5 -58.5t3 -71.5t4.5 -59h159l-11 -52h-148q-2 -43 -9 -75q-21 -99 -108 -145h337l-12 -58h-431l12 58q4 1 11.5 3.5t27.5 14t36 26t32.5 42t23.5 59.5q7 34 9 75h-94
l11 52h83q-1 12 -3.5 43.5t-3.5 47.5t0.5 44t7.5 55q18 89 79 140.5t158 51.5z" />
    <glyph glyph-name="currency" unicode="&#xa4;" horiz-adv-x="639" 
d="M586 88l-41 -41l-71 72q-57 -51 -164 -51q-105 0 -163 50l-74 -74l-41 41l79 77q-35 59 -35 161q0 96 32 157l-75 75l41 41l69 -70q59 56 167 56q102 0 160 -48l70 70l40 -40l-73 -73q38 -62 38 -168q0 -101 -35 -160zM310 129q167 0 167 194q0 198 -167 198
q-166 0 -166 -198q0 -194 166 -194z" />
    <glyph glyph-name="yen" unicode="&#xa5;" horiz-adv-x="505" 
d="M577 708l-282 -376h86l-8 -41h-108l-14 -66h108l-9 -41h-108l-39 -184h-69l39 184h-111l8 41h112l13 65v1h-111l9 41h87l-134 376h75l120 -350l256 350h80z" />
    <glyph glyph-name="brokenbar" unicode="&#xa6;" horiz-adv-x="374" 
d="M174 395l90 425h58l-90 -425h-58zM200 245l-90 -425h-58l90 425h58z" />
    <glyph glyph-name="section" unicode="&#xa7;" horiz-adv-x="545" 
d="M531 615h-60q5 31 2 55t-33 38.5t-89 14.5q-139 0 -159 -92q-8 -37 14 -59.5t60.5 -30t82.5 -18t81 -23t56.5 -45.5t8.5 -85q-17 -82 -99 -120q62 -37 45 -121q-33 -151 -249 -151q-109 0 -153 42.5t-26 131.5h61q-12 -62 17 -91.5t112 -29.5q74 0 117.5 26t52.5 68
q6 30 -5 50.5t-34 31t-53 18.5t-62.5 13t-62 16t-52 25.5t-32 43t-1.5 67.5q18 86 96 125q-58 36 -42 116q29 144 235 144q108 0 148 -40t23 -120zM427 366q6 29 -3.5 49t-34.5 31.5t-49.5 18t-62.5 14t-60 14.5q-65 -35 -79 -103q-5 -27 4 -46t33.5 -29.5t48 -16.5
t61.5 -13.5t60 -13.5q69 34 82 95z" />
    <glyph glyph-name="dieresis" unicode="&#xa8;" horiz-adv-x="411" 
d="M136 630l26 123h66l-26 -123h-66zM284 630l26 123h66l-25 -123h-67z" />
    <glyph glyph-name="copyright" unicode="&#xa9;" horiz-adv-x="787" 
d="M316 -12q-74 0 -128 19t-85 52t-46 79.5t-14.5 98t13.5 111.5q16 76 47 139.5t79.5 115.5t122.5 81t166 29q75 0 129.5 -19.5t85.5 -53t45.5 -80.5t13.5 -99t-14 -113q-16 -76 -46.5 -138t-78.5 -113.5t-122 -80t-168 -28.5zM325 29q80 0 144 26t106 71.5t68.5 100.5
t40.5 121q11 53 12 98.5t-11 88t-38.5 72t-73 47.5t-111.5 18q-80 0 -143.5 -26.5t-106 -73t-69 -102t-40.5 -122.5q-16 -63 -11 -120.5t26 -101.5t74 -70.5t133 -26.5zM351 137q-92 0 -121.5 53.5t-6.5 160.5q23 108 75 161.5t144 53.5q154 0 125 -149h-62q9 49 -10.5 74
t-63.5 25q-59 0 -93 -39.5t-53 -125.5q-18 -83 -0.5 -123.5t76.5 -40.5q90 0 115 95h61q-34 -145 -186 -145z" />
    <glyph glyph-name="ordfeminine" unicode="&#xaa;" horiz-adv-x="405" 
d="M284 743q28 0 48.5 -3t34.5 -11.5t23.5 -16.5t13 -24.5t5 -28t-1.5 -34.5t-5 -37t-8 -42l-18 -89l-14 -96h-53l3 54q-42 -62 -142 -62q-68 0 -93 28t-13 84q7 33 22.5 55t39 32.5t55 15.5t70.5 5h87q18 68 8 98t-68 30q-91 0 -108 -78h-57q4 17 8.5 29.5t16.5 31t29 30
t47.5 20.5t69.5 9zM192 391q88 0 123 69l16 79q-44 1 -79.5 0t-61 -6.5t-41.5 -22.5t-22 -46q-8 -36 6.5 -54.5t58.5 -18.5z" />
    <glyph glyph-name="guillemotleft" unicode="&#xab;" horiz-adv-x="468" 
d="M282 429l-162 -172l90 -155h-72l-84 149l5 22l147 156h76zM426 429l-160 -172l92 -155h-73l-85 149l5 22l147 156h74z" />
    <glyph glyph-name="registered" unicode="&#xae;" horiz-adv-x="787" 
d="M471 713q75 0 130 -19.5t85.5 -53t45 -80.5t13.5 -99t-14 -113q-16 -76 -46.5 -138t-78.5 -113.5t-122 -80t-168 -28.5q-74 0 -128 19t-85 52t-46 79.5t-14.5 98t13.5 111.5q17 77 47.5 139.5t79.5 115t122.5 81.5t165.5 29zM684 348q11 53 12 98.5t-11 88t-38.5 72
t-73 47.5t-111.5 18q-80 0 -143.5 -26.5t-106 -73t-69 -102t-40.5 -122.5q-16 -63 -11 -120.5t26.5 -101.5t74.5 -70.5t132 -26.5q81 0 144.5 25.5t105.5 72t68.5 101t40.5 120.5zM293 552h151q84 0 115.5 -27.5t16.5 -99.5q-12 -55 -39.5 -83.5t-74.5 -37.5l51 -159h-60
l-49 153h-104l-33 -153h-61zM514 425q10 47 -12.5 62.5t-69.5 15.5h-88l-34 -155l89 -1q31 0 50.5 4t38.5 22t26 52z" />
    <glyph glyph-name="macron" unicode="&#xaf;" horiz-adv-x="421" 
d="M140 708h230l-12 -53h-229z" />
    <glyph glyph-name="degree" unicode="&#xb0;" horiz-adv-x="321" 
d="M149 505q-100 0 -78 110q24 111 125 111t77 -111q-24 -110 -124 -110zM158 545q53 0 68 70q16 71 -38 71q-52 0 -70 -71q-13 -70 40 -70z" />
    <glyph glyph-name="plusminus" unicode="&#xb1;" horiz-adv-x="537" 
d="M311 388h157l-12 -55h-156l-26 -122h-59l26 122h-157l12 55h156l26 121h59zM36 108l13 56h372l-12 -56h-373z" />
    <glyph glyph-name="uni00B2" unicode="&#xb2;" horiz-adv-x="418" 
d="M-31 327l11 51q90 61 177 130q42 33 60 47t44.5 39.5t39 48t18.5 48.5q20 102 -86 102q-50 0 -85 -27.5t-45 -77.5h-59q34 154 200 154q78 0 112 -39t20 -108q-12 -59 -49.5 -102t-112.5 -103q-36 -29 -74.5 -58t-59.5 -44l-21 -15l254 3l-10 -49h-334z" />
    <glyph glyph-name="uni00B3" unicode="&#xb3;" horiz-adv-x="426" 
d="M410 829l-9 -44l-182 -137q160 -12 128 -165q-36 -167 -214 -167q-84 0 -119 42.5t-22 106.5h57q-10 -43 13.5 -71.5t80.5 -28.5q59 0 97.5 31.5t50.5 88.5q12 59 -13 91.5t-90 32.5l-62 -6l7 39l191 142l-240 -3l10 48h316z" />
    <glyph glyph-name="acute" unicode="&#xb4;" horiz-adv-x="356" 
d="M120 629l99 138h75l-114 -138h-60z" />
    <glyph glyph-name="paragraph" unicode="&#xb6;" horiz-adv-x="548" 
d="M556 760l-157 -760h-59l146 700h-83l-146 -700h-58l64 306q-133 2 -176.5 50.5t-16.5 176.5q27 129 88 177t199 50h199zM138 533q-7 -35 -8.5 -61.5t4.5 -44.5t16.5 -30t29.5 -18.5t41 -9t54 -3.5l69 333q-44 -1 -73.5 -7t-57.5 -23t-46 -50.5t-29 -85.5z" />
    <glyph glyph-name="periodcentered" unicode="&#xb7;" horiz-adv-x="212" 
d="M56 237l25 119h68l-24 -119h-69z" />
    <glyph glyph-name="cedilla" unicode="&#xb8;" horiz-adv-x="376" 
d="M115 3l-40 -56q37 -3 57 -21.5t12 -54.5q-18 -86 -130 -86q-19 0 -34.5 1.5t-21.5 2.5l-6 1l10 44q18 -5 50 -5q33 0 50.5 9.5t22.5 35.5q11 46 -80 46h-5l58 83h57z" />
    <glyph glyph-name="uni00B9" unicode="&#xb9;" horiz-adv-x="233" 
d="M162 837h41l-109 -513h-58l97 458l-104 -46l11 49z" />
    <glyph glyph-name="ordmasculine" unicode="&#xba;" horiz-adv-x="395" 
d="M192 351q-167 0 -126 196q20 98 66.5 147.5t141.5 50.5q167 0 126 -198q-20 -97 -66.5 -146.5t-141.5 -49.5zM203 399q55 0 86.5 36t47.5 112q18 74 2.5 112t-75.5 38q-55 0 -87 -37t-48 -113q-18 -74 -2 -111t76 -37z" />
    <glyph glyph-name="guillemotright" unicode="&#xbb;" horiz-adv-x="469" 
d="M245 273l-5 -22l-145 -149h-74l159 163l-89 164h72zM310 429l81 -156l-5 -22l-145 -149h-74l159 163l-89 164h73z" />
    <glyph glyph-name="onequarter" unicode="&#xbc;" horiz-adv-x="854" 
d="M683 785h68l-688 -825h-68zM36 248l97 458l-104 -46l11 49l122 52h41l-109 -513h-58zM804 510l-75 -354h60l-9 -46h-61l-23 -110h-57l24 110h-257l10 46l328 354h60zM474 156h198l61 283z" />
    <glyph glyph-name="onehalf" unicode="&#xbd;" horiz-adv-x="906" 
d="M683 785h68l-688 -825h-68zM36 248l97 458l-104 -46l11 49l122 52h41l-109 -513h-58zM864 371q-12 -59 -49.5 -102t-112.5 -103q-36 -29 -75 -58t-59 -44l-21 -15l254 3l-10 -49h-334l11 51q90 61 177 130q42 33 60 47t44.5 39.5t39 48t18.5 48.5q20 102 -86 102
q-50 0 -85 -27.5t-45 -77.5h-59q34 154 200 154q78 0 112 -39t20 -108z" />
    <glyph glyph-name="threequarters" unicode="&#xbe;" horiz-adv-x="1034" 
d="M863 785h68l-688 -825h-68zM347 407q-36 -167 -214 -167q-84 0 -119 42.5t-22 106.5h57q-10 -43 13.5 -71.5t80.5 -28.5q59 0 97.5 31.5t50.5 88.5q12 59 -13 91.5t-90 32.5l-62 -6l7 39l191 142l-240 -3l10 48h316l-9 -44l-182 -137q160 -12 128 -165zM984 510l-75 -354
h60l-9 -46h-61l-23 -110h-57l24 110h-257l10 46l328 354h60zM654 156h198l61 283z" />
    <glyph glyph-name="questiondown" unicode="&#xbf;" horiz-adv-x="489" 
d="M339 525l-22 -105h-66l22 105h66zM242 360h61l-7 -35q-11 -53 -35 -91t-51.5 -60.5t-54 -43.5t-49 -53t-31.5 -76q-14 -68 7.5 -102.5t86.5 -34.5q120 0 154 152h67q-45 -212 -235 -212q-96 0 -132 50.5t-17 139.5q11 52 35.5 91t52.5 63t56 46.5t51 55t33 75.5z" />
    <glyph glyph-name="Agrave" unicode="&#xc0;" horiz-adv-x="606" 
d="M422 760h-60l-59 126h75zM476 0l-29 191h-319l-109 -191h-73l414 708h67l118 -708h-69zM162 251h275l-58 379z" />
    <glyph glyph-name="Aacute" unicode="&#xc1;" horiz-adv-x="606" 
d="M547 886l-112 -126h-63l97 126h78zM360 708h67l118 -708h-69l-29 191h-319l-109 -191h-73zM162 251h275l-58 379z" />
    <glyph glyph-name="Acircumflex" unicode="&#xc2;" horiz-adv-x="606" 
d="M418 828l-81 -68h-66l124 115h62l74 -115h-61zM476 0l-29 191h-319l-109 -191h-73l414 708h67l118 -708h-69zM162 251h275l-58 379z" />
    <glyph glyph-name="Atilde" unicode="&#xc3;" horiz-adv-x="606" 
d="M365 806q-40 0 -53 -46h-38q22 99 96 99q31 0 50 -20t38 -20q24 0 37.5 16t15.5 30h39q-20 -101 -96 -101q-30 0 -49.5 21t-39.5 21zM360 708h67l118 -708h-69l-29 191h-319l-109 -191h-73zM162 251h275l-58 379z" />
    <glyph glyph-name="Adieresis" unicode="&#xc4;" horiz-adv-x="606" 
d="M387 883l-26 -123h-67l26 123h67zM533 883l-25 -123h-66l25 123h66zM476 0l-29 191h-319l-109 -191h-73l414 708h67l118 -708h-69zM162 251h275l-58 379z" />
    <glyph glyph-name="Aring" unicode="&#xc5;" horiz-adv-x="606" 
d="M399 760q-34 0 -51 21.5t-10 53.5q8 34 32 54.5t61 20.5q34 0 51.5 -21.5t10.5 -53.5q-7 -34 -31 -54.5t-63 -20.5zM379 835q-6 -38 29 -38q16 0 28 10.5t16 27.5q8 38 -28 38q-16 0 -28.5 -10.5t-16.5 -27.5zM476 0l-29 191h-319l-109 -191h-73l414 708h67l118 -708h-69
zM162 251h275l-58 379z" />
    <glyph glyph-name="AE" unicode="&#xc6;" horiz-adv-x="891" 
d="M929 647h-372l-51 -249h322l-12 -59h-323l-57 -278h376l-12 -61h-441l40 191h-230l-144 -191h-79l538 708h458zM214 251h197l75 362z" />
    <glyph glyph-name="Ccedilla" unicode="&#xc7;" horiz-adv-x="649" 
d="M626 472h-68q17 100 -17 146t-130 46q-110 0 -176 -75.5t-99 -235.5q-37 -157 -5 -233t151 -76q84 0 142.5 45.5t81.5 138.5h68q-55 -228 -271 -244l-31 -43q37 -3 57 -21.5t12 -54.5q-18 -86 -130 -86q-19 0 -34.5 1.5t-21.5 2.5l-6 1l10 44q18 -5 50 -5q33 0 50.5 9.5
t22.5 35.5q11 46 -80 46h-5l49 70q-136 7 -176.5 100t-3.5 269q39 186 121.5 279t236.5 93q124 0 175 -64.5t27 -188.5z" />
    <glyph glyph-name="Egrave" unicode="&#xc8;" horiz-adv-x="557" 
d="M413 760h-60l-59 126h75zM596 647h-371l-52 -249h322l-13 -59h-321l-58 -278h376l-13 -61h-444l147 708h439z" />
    <glyph glyph-name="Eacute" unicode="&#xc9;" horiz-adv-x="557" 
d="M538 886l-112 -126h-63l97 126h78zM596 647h-371l-52 -249h322l-13 -59h-321l-58 -278h376l-13 -61h-444l147 708h439z" />
    <glyph glyph-name="Ecircumflex" unicode="&#xca;" horiz-adv-x="557" 
d="M409 828l-81 -68h-66l124 115h62l74 -115h-61zM596 647h-371l-52 -249h322l-13 -59h-321l-58 -278h376l-13 -61h-444l147 708h439z" />
    <glyph glyph-name="Edieresis" unicode="&#xcb;" horiz-adv-x="557" 
d="M378 883l-26 -123h-67l26 123h67zM524 883l-25 -123h-66l25 123h66zM596 647h-371l-52 -249h322l-13 -59h-321l-58 -278h376l-13 -61h-444l147 708h439z" />
    <glyph glyph-name="Igrave" unicode="&#xcc;" horiz-adv-x="244" 
d="M235 760h-60l-59 126h75zM22 0l147 708h69l-148 -708h-68z" />
    <glyph glyph-name="Iacute" unicode="&#xcd;" horiz-adv-x="244" 
d="M185 760l97 126h78l-112 -126h-63zM22 0l147 708h69l-148 -708h-68z" />
    <glyph glyph-name="Icircumflex" unicode="&#xce;" horiz-adv-x="244" 
d="M270 875l74 -115h-61l-52 68l-81 -68h-66l124 115h62zM22 0l147 708h69l-148 -708h-68z" />
    <glyph glyph-name="Idieresis" unicode="&#xcf;" horiz-adv-x="244" 
d="M107 760l26 123h67l-26 -123h-67zM255 760l25 123h66l-25 -123h-66zM22 0l147 708h69l-148 -708h-68z" />
    <glyph glyph-name="Eth" unicode="&#xd0;" horiz-adv-x="665" 
d="M170 711h175q137 0 204.5 -39t78 -118.5t-14.5 -200.5q-20 -97 -46.5 -159t-73.5 -109t-119 -67.5t-178 -20.5h-174l70 336h-65l10 47h64zM543 353q26 111 16.5 177.5t-61 93.5t-164.5 27h-108l-56 -271h138l-10 -47h-138l-57 -273l108 -1q154 -1 225.5 62t106.5 232z
" />
    <glyph glyph-name="Ntilde" unicode="&#xd1;" horiz-adv-x="703" 
d="M409 806q-40 0 -53 -46h-38q22 99 96 99q31 0 50 -20t38 -20q24 0 37.5 16t15.5 30h39q-20 -101 -96 -101q-30 0 -49.5 21t-39.5 21zM629 708h68l-147 -708h-75l-259 605l-129 -605h-65l150 708h75l261 -610z" />
    <glyph glyph-name="Ograve" unicode="&#xd2;" horiz-adv-x="686" 
d="M458 768h-60l-59 126h75zM273 -17q-151 0 -198.5 93.5t-9.5 276.5q40 187 123.5 279.5t239.5 92.5q151 0 198 -94t9 -278q-39 -186 -122 -278t-240 -92zM287 44q113 0 179 75t99 234q37 157 4 234t-154 77q-113 0 -179.5 -76t-99.5 -235q-37 -157 -4 -233t155 -76z" />
    <glyph glyph-name="Oacute" unicode="&#xd3;" horiz-adv-x="686" 
d="M408 768l97 126h78l-112 -126h-63zM273 -17q-151 0 -198.5 93.5t-9.5 276.5q40 187 123.5 279.5t239.5 92.5q151 0 198 -94t9 -278q-39 -186 -122 -278t-240 -92zM287 44q113 0 179 75t99 234q37 157 4 234t-154 77q-113 0 -179.5 -76t-99.5 -235q-37 -157 -4 -233
t155 -76z" />
    <glyph glyph-name="Ocircumflex" unicode="&#xd4;" horiz-adv-x="686" 
d="M454 836l-81 -68h-66l124 115h62l74 -115h-61zM428 725q151 0 198 -94t9 -278q-39 -186 -122 -278t-240 -92q-151 0 -198.5 93.5t-9.5 276.5q40 187 123.5 279.5t239.5 92.5zM565 353q37 157 4 234t-154 77q-113 0 -179.5 -76t-99.5 -235q-37 -157 -4 -233t155 -76
q113 0 179 75t99 234z" />
    <glyph glyph-name="Otilde" unicode="&#xd5;" horiz-adv-x="686" 
d="M547 873h39q-20 -101 -96 -101q-30 0 -49.5 21t-39.5 21q-40 0 -53 -46h-38q22 99 96 99q31 0 50 -20t38 -20q24 0 37.5 16t15.5 30zM273 -17q-151 0 -198.5 93.5t-9.5 276.5q40 187 123.5 279.5t239.5 92.5q151 0 198 -94t9 -278q-39 -186 -122 -278t-240 -92zM287 44
q113 0 179 75t99 234q37 157 4 234t-154 77q-113 0 -179.5 -76t-99.5 -235q-37 -157 -4 -233t155 -76z" />
    <glyph glyph-name="Odieresis" unicode="&#xd6;" horiz-adv-x="686" 
d="M330 768l26 123h67l-26 -123h-67zM478 768l25 123h66l-25 -123h-66zM273 -17q-151 0 -198.5 93.5t-9.5 276.5q40 187 123.5 279.5t239.5 92.5q151 0 198 -94t9 -278q-39 -186 -122 -278t-240 -92zM287 44q113 0 179 75t99 234q37 157 4 234t-154 77q-113 0 -179.5 -76
t-99.5 -235q-37 -157 -4 -233t155 -76z" />
    <glyph glyph-name="multiply" unicode="&#xd7;" horiz-adv-x="524" 
d="M463 447l-166 -141l106 -141l-49 -40l-105 140l-165 -140l-32 40l167 141l-106 141l48 39l105 -140l165 140z" />
    <glyph glyph-name="Oslash" unicode="&#xd8;" horiz-adv-x="686" 
d="M701 719l-76 -87q49 -89 10 -279q-39 -186 -122 -278t-240 -92q-114 0 -169 55l-42 -48h-67l78 89q-47 92 -8 274q40 187 123.5 279.5t239.5 92.5q109 0 166 -52l40 46h67zM136 353q-30 -146 -11 -214l423 481q-40 44 -133 44q-113 0 -179.5 -76t-99.5 -235zM565 353
q31 150 9 221l-424 -483q40 -47 137 -47q113 0 179 75t99 234z" />
    <glyph glyph-name="Ugrave" unicode="&#xd9;" horiz-adv-x="676" 
d="M446 760h-60l-59 126h75zM267 -17q-98 0 -148 42t-56 122.5t18 198.5l76 362h69l-76 -362q-38 -157 -12 -229.5t142 -72.5q106 0 164 71t91 231l76 362h71l-76 -362q-39 -189 -113 -276t-226 -87z" />
    <glyph glyph-name="Uacute" unicode="&#xda;" horiz-adv-x="676" 
d="M396 760l97 126h78l-112 -126h-63zM267 -17q-98 0 -148 42t-56 122.5t18 198.5l76 362h69l-76 -362q-38 -157 -12 -229.5t142 -72.5q106 0 164 71t91 231l76 362h71l-76 -362q-39 -189 -113 -276t-226 -87z" />
    <glyph glyph-name="Ucircumflex" unicode="&#xdb;" horiz-adv-x="676" 
d="M442 828l-81 -68h-66l124 115h62l74 -115h-61zM611 708h71l-76 -362q-39 -189 -113 -276t-226 -87q-98 0 -148 42t-56 122.5t18 198.5l76 362h69l-76 -362q-38 -157 -12 -229.5t142 -72.5q106 0 164 71t91 231z" />
    <glyph glyph-name="Udieresis" unicode="&#xdc;" horiz-adv-x="676" 
d="M318 760l26 123h67l-26 -123h-67zM466 760l25 123h66l-25 -123h-66zM267 -17q-98 0 -148 42t-56 122.5t18 198.5l76 362h69l-76 -362q-38 -157 -12 -229.5t142 -72.5q106 0 164 71t91 231l76 362h71l-76 -362q-39 -189 -113 -276t-226 -87z" />
    <glyph glyph-name="Yacute" unicode="&#xdd;" horiz-adv-x="554" 
d="M503 886l-112 -126h-63l97 126h78zM543 708h83l-331 -437l-56 -271h-69l57 271l-158 437h74l129 -367z" />
    <glyph glyph-name="Thorn" unicode="&#xde;" horiz-adv-x="596" 
d="M213 589h169q133 0 185.5 -50t25.5 -178q-27 -131 -96.5 -179t-210.5 -48h-168l-28 -134h-68l147 708h69zM523 362q6 31 6 56t-4.5 42t-15.5 29.5t-24.5 20t-33 11.5t-38.5 5.5t-45 1.5h-168l-69 -330l168 -1q34 0 60 2.5t54 12.5t47.5 28t36.5 48.5t26 73.5z" />
    <glyph glyph-name="germandbls" unicode="&#xdf;" horiz-adv-x="567" 
d="M540 566q-8 -40 -30.5 -71.5t-45.5 -47.5t-52 -27.5t-41 -14t-23 -4.5q3 0 7.5 -0.5t17.5 -2t23.5 -4.5t26.5 -9.5t26.5 -16t23.5 -23.5t17 -32.5t7 -43.5t-6 -56q-24 -112 -102 -162.5t-248 -50.5l11 55q129 0 190.5 34t80.5 124q5 24 5 43.5t-4 34.5t-13 27t-19 20
t-26 14t-29.5 9.5t-33.5 5.5t-35 3t-37 2l12 57q85 0 149.5 31.5t79.5 105.5q14 71 -7.5 109t-95.5 38q-66 -1 -109.5 -41t-57.5 -106l-118 -566h-66l115 551q22 102 78.5 159t167.5 58h1q106 0 142.5 -56.5t17.5 -145.5z" />
    <glyph glyph-name="agrave" unicode="&#xe0;" horiz-adv-x="552" 
d="M365 629h-60l-57 138h75zM321 544q59 0 96 -16t53 -37t17 -64.5t-3.5 -73t-17.5 -88.5l-28 -130l-17 -134h-57l6 80q-68 -91 -210 -91q-177 0 -145 157q8 39 24.5 67.5t40.5 45t55.5 27t69 14t81 4.5t91.5 0h31q6 32 9 50.5t5 41.5t-0.5 35.5t-9.5 26t-20 20t-32.5 10.5
t-46.5 4q-79 0 -119 -36t-49 -81h-60q36 168 236 168zM182 38q67 0 119 31t77 86l21 104q-159 1 -204 -7q-85 -16 -109 -80q-4 -12 -7 -27q-11 -52 11 -79.5t92 -27.5z" />
    <glyph glyph-name="aacute" unicode="&#xe1;" horiz-adv-x="552" 
d="M469 767l-114 -138h-60l99 138h75zM321 544q59 0 96 -16t53 -37t17 -64.5t-3.5 -73t-17.5 -88.5l-28 -130l-17 -134h-57l6 80q-68 -91 -210 -91q-177 0 -145 157q8 39 24.5 67.5t40.5 45t55.5 27t69 14t81 4.5t91.5 0h31q6 32 9 50.5t5 41.5t-0.5 35.5t-9.5 26t-20 20
t-32.5 10.5t-46.5 4q-79 0 -119 -36t-49 -81h-60q36 168 236 168zM182 38q67 0 119 31t77 86l21 104q-159 1 -204 -7q-85 -16 -109 -80q-4 -12 -7 -27q-11 -52 11 -79.5t92 -27.5z" />
    <glyph glyph-name="acircumflex" unicode="&#xe2;" horiz-adv-x="552" 
d="M359 717l-87 -88h-67l135 138h54l78 -138h-63zM321 544q59 0 96 -16t53 -37t17 -64.5t-3.5 -73t-17.5 -88.5l-28 -130l-17 -134h-57l6 80q-68 -91 -210 -91q-177 0 -145 157q8 39 24.5 67.5t40.5 45t55.5 27t69 14t81 4.5t91.5 0h31q6 32 9 50.5t5 41.5t-0.5 35.5
t-9.5 26t-20 20t-32.5 10.5t-46.5 4q-79 0 -119 -36t-49 -81h-60q36 168 236 168zM182 38q67 0 119 31t77 86l21 104q-159 1 -204 -7q-85 -16 -109 -80q-4 -12 -7 -27q-11 -52 11 -79.5t92 -27.5z" />
    <glyph glyph-name="atilde" unicode="&#xe3;" horiz-adv-x="552" 
d="M303 676q-24 0 -37.5 -16t-15.5 -31h-38q19 95 95 95q31 0 49.5 -20t38.5 -20q24 0 37.5 16t15.5 30h39q-10 -45 -30.5 -71t-64.5 -26q-31 0 -50 21.5t-39 21.5zM321 544q59 0 96 -16t53 -37t17 -64.5t-3.5 -73t-17.5 -88.5l-28 -130l-17 -134h-57l6 80q-68 -91 -210 -91
q-177 0 -145 157q8 39 24.5 67.5t40.5 45t55.5 27t69 14t81 4.5t91.5 0h31q6 32 9 50.5t5 41.5t-0.5 35.5t-9.5 26t-20 20t-32.5 10.5t-46.5 4q-79 0 -119 -36t-49 -81h-60q36 168 236 168zM182 38q67 0 119 31t77 86l21 104q-159 1 -204 -7q-85 -16 -109 -80q-4 -12 -7 -27
q-11 -52 11 -79.5t92 -27.5z" />
    <glyph glyph-name="adieresis" unicode="&#xe4;" horiz-adv-x="552" 
d="M324 753l-26 -123h-66l26 123h66zM472 753l-25 -123h-67l26 123h66zM321 544q59 0 96 -16t53 -37t17 -64.5t-3.5 -73t-17.5 -88.5l-28 -130l-17 -134h-57l6 80q-68 -91 -210 -91q-177 0 -145 157q8 39 24.5 67.5t40.5 45t55.5 27t69 14t81 4.5t91.5 0h31q6 32 9 50.5
t5 41.5t-0.5 35.5t-9.5 26t-20 20t-32.5 10.5t-46.5 4q-79 0 -119 -36t-49 -81h-60q36 168 236 168zM182 38q67 0 119 31t77 86l21 104q-159 1 -204 -7q-85 -16 -109 -80q-4 -12 -7 -27q-11 -52 11 -79.5t92 -27.5z" />
    <glyph glyph-name="aring" unicode="&#xe5;" horiz-adv-x="552" 
d="M338 626q-38 0 -56 24t-10 58q7 35 32.5 58.5t67.5 23.5q38 0 56.5 -24t11.5 -58q-7 -35 -33.5 -58.5t-68.5 -23.5zM319 708q-8 -38 29 -38q15 0 28 10.5t16 27.5q8 38 -29 38q-15 0 -28 -10.5t-16 -27.5zM321 544q59 0 96 -16t53 -37t17 -64.5t-3.5 -73t-17.5 -88.5
l-28 -130l-17 -134h-57l6 80q-68 -91 -210 -91q-177 0 -145 157q8 39 24.5 67.5t40.5 45t55.5 27t69 14t81 4.5t91.5 0h31q6 32 9 50.5t5 41.5t-0.5 35.5t-9.5 26t-20 20t-32.5 10.5t-46.5 4q-79 0 -119 -36t-49 -81h-60q36 168 236 168zM182 38q67 0 119 31t77 86l21 104
q-159 1 -204 -7q-85 -16 -109 -80q-4 -12 -7 -27q-11 -52 11 -79.5t92 -27.5z" />
    <glyph glyph-name="ae" unicode="&#xe6;" horiz-adv-x="903" 
d="M673 546q112 0 155.5 -67t12.5 -215h-66l-319 1v-1q-12 -66 -13 -115.5t29.5 -78t95.5 -28.5q76 0 122.5 39.5t55.5 79.5h69q-5 -23 -19 -49t-42 -55.5t-79.5 -48.5t-117.5 -19q-148 0 -175 111q-67 -110 -223 -110q-177 0 -144 163q9 41 26.5 70t43.5 45.5t59 27t73 13
t85.5 3.5t96.5 0q10 36 24 70q4 58 -19.5 84.5t-90.5 26.5q-80 0 -119.5 -35.5t-49.5 -81.5h-60q36 168 237 168q127 0 144 -88q70 90 208 90zM468 314h316q13 93 -14 137t-108 44q-142 0 -194 -181zM181 38q67 0 119 32t76 89q-1 41 12 106q-154 1 -198 -8
q-80 -16 -104 -80q-4 -12 -7 -25q-25 -114 102 -114z" />
    <glyph glyph-name="ccedilla" unicode="&#xe7;" horiz-adv-x="544" 
d="M501 345h-65q28 146 -119 146q-159 0 -205 -224q-27 -109 -2.5 -166t114.5 -57q65 0 113 34.5t61 92.5h67q-18 -78 -72.5 -125.5t-145.5 -55.5l-32 -44q37 -3 57 -21.5t12 -54.5q-18 -86 -130 -86q-19 0 -34.5 1t-21.5 3l-6 1l10 44q18 -5 50 -5q33 0 50.5 9.5t22.5 35.5
q11 46 -80 46h-5l49 71q-198 13 -145 277q28 135 93 206.5t191 71.5q103 0 147 -53t26 -147z" />
    <glyph glyph-name="egrave" unicode="&#xe8;" horiz-adv-x="559" 
d="M373 629h-60l-57 138h75zM329 546q227 0 169 -275h-385l-1 -7q-12 -66 -13.5 -115.5t29.5 -78.5t97 -29q76 0 123 40t56 80h68q-5 -24 -19.5 -49.5t-42.5 -55t-79 -48.5t-117 -19q-118 0 -158 69t-12 207q30 142 96 211.5t189 69.5zM127 321h315q11 87 -16.5 130
t-107.5 43q-138 0 -191 -173z" />
    <glyph glyph-name="eacute" unicode="&#xe9;" horiz-adv-x="559" 
d="M477 767l-114 -138h-60l99 138h75zM329 546q227 0 169 -275h-385l-1 -7q-12 -66 -13.5 -115.5t29.5 -78.5t97 -29q76 0 123 40t56 80h68q-5 -24 -19.5 -49.5t-42.5 -55t-79 -48.5t-117 -19q-118 0 -158 69t-12 207q30 142 96 211.5t189 69.5zM127 321h315
q11 87 -16.5 130t-107.5 43q-138 0 -191 -173z" />
    <glyph glyph-name="ecircumflex" unicode="&#xea;" horiz-adv-x="559" 
d="M367 717l-87 -88h-67l135 138h54l78 -138h-63zM329 546q227 0 169 -275h-385l-1 -7q-12 -66 -13.5 -115.5t29.5 -78.5t97 -29q76 0 123 40t56 80h68q-5 -24 -19.5 -49.5t-42.5 -55t-79 -48.5t-117 -19q-118 0 -158 69t-12 207q30 142 96 211.5t189 69.5zM127 321h315
q11 87 -16.5 130t-107.5 43q-138 0 -191 -173z" />
    <glyph glyph-name="edieresis" unicode="&#xeb;" horiz-adv-x="559" 
d="M332 753l-26 -123h-66l26 123h66zM480 753l-25 -123h-67l26 123h66zM329 546q227 0 169 -275h-385l-1 -7q-12 -66 -13.5 -115.5t29.5 -78.5t97 -29q76 0 123 40t56 80h68q-5 -24 -19.5 -49.5t-42.5 -55t-79 -48.5t-117 -19q-118 0 -158 69t-12 207q30 142 96 211.5
t189 69.5zM127 321h315q11 87 -16.5 130t-107.5 43q-138 0 -191 -173z" />
    <glyph glyph-name="igrave" unicode="&#xec;" horiz-adv-x="220" 
d="M202 629h-60l-57 138h75zM10 0l111 535h66l-111 -535h-66z" />
    <glyph glyph-name="iacute" unicode="&#xed;" horiz-adv-x="220" 
d="M132 629l99 138h75l-114 -138h-60zM10 0l111 535h66l-111 -535h-66z" />
    <glyph glyph-name="icircumflex" unicode="&#xee;" horiz-adv-x="220" 
d="M309 629h-63l-50 88l-87 -88h-67l135 138h54zM10 0l111 535h66l-111 -535h-66z" />
    <glyph glyph-name="idieresis" unicode="&#xef;" horiz-adv-x="220" 
d="M69 630l26 123h66l-26 -123h-66zM217 630l26 123h66l-25 -123h-67zM10 0l111 535h66l-111 -535h-66z" />
    <glyph glyph-name="eth" unicode="&#xf0;" horiz-adv-x="571" 
d="M546 705l-93 -45q83 -191 47 -388l-1 -6q-48 -277 -285 -277q-229 0 -170 277q57 273 264 273q83 0 126 -57q-12 76 -42 148l-100 -48l-14 36l98 47q-13 27 -27 50.5t-22 34.5l-8 10h78q18 -23 39 -65l96 46zM225 43q83 0 135.5 57t69.5 166l3 16h1q5 29 7 65
q2 20 -3 42.5t-18 47t-42.5 40t-71.5 15.5q-73 0 -122 -58.5t-72 -167.5q-26 -109 -0.5 -166t113.5 -57z" />
    <glyph glyph-name="ntilde" unicode="&#xf1;" horiz-adv-x="581" 
d="M330 676q-24 0 -37.5 -16t-15.5 -31h-38q19 95 95 95q31 0 49.5 -20t38.5 -20q24 0 37.5 16t15.5 30h39q-10 -45 -30.5 -71t-64.5 -26q-31 0 -50 21.5t-39 21.5zM372 545q95 0 128 -51t7 -176l-66 -318h-66l65 313q12 56 11 94.5t-25.5 58.5t-77.5 20q-59 0 -108.5 -39
t-82.5 -86l-74 -361h-66l82 394l20 141h57l-9 -102q32 43 84.5 77.5t120.5 34.5z" />
    <glyph glyph-name="ograve" unicode="&#xf2;" horiz-adv-x="570" 
d="M375 624h-60l-57 138h75zM217 -11q-232 0 -173 277q29 136 94.5 208t194.5 72q83 0 128.5 -35.5t52.5 -98t-9 -146.5q-28 -135 -93.5 -206t-194.5 -71zM228 43q86 0 135.5 55.5t73.5 167.5q14 72 12 122.5t-33 77t-95 26.5q-162 0 -209 -226q-27 -109 -2.5 -166
t118.5 -57z" />
    <glyph glyph-name="oacute" unicode="&#xf3;" horiz-adv-x="570" 
d="M305 624l99 138h75l-114 -138h-60zM217 -11q-232 0 -173 277q29 136 94.5 208t194.5 72q83 0 128.5 -35.5t52.5 -98t-9 -146.5q-28 -135 -93.5 -206t-194.5 -71zM228 43q86 0 135.5 55.5t73.5 167.5q14 72 12 122.5t-33 77t-95 26.5q-162 0 -209 -226q-27 -109 -2.5 -166
t118.5 -57z" />
    <glyph glyph-name="ocircumflex" unicode="&#xf4;" horiz-adv-x="570" 
d="M369 712l-87 -88h-67l135 138h54l78 -138h-63zM333 546q83 0 128.5 -35.5t52.5 -98t-9 -146.5q-28 -135 -93.5 -206t-194.5 -71q-232 0 -173 277q29 136 94.5 208t194.5 72zM437 266q14 72 12 122.5t-33 77t-95 26.5q-162 0 -209 -226q-27 -109 -2.5 -166t118.5 -57
q86 0 135.5 55.5t73.5 167.5z" />
    <glyph glyph-name="otilde" unicode="&#xf5;" horiz-adv-x="570" 
d="M458 725h39q-10 -45 -30.5 -71t-64.5 -26q-31 0 -50 21.5t-39 21.5q-24 0 -37.5 -16t-15.5 -31h-38q19 95 95 95q31 0 49.5 -20t38.5 -20q24 0 37.5 16t15.5 30zM217 -11q-232 0 -173 277q29 136 94.5 208t194.5 72q83 0 128.5 -35.5t52.5 -98t-9 -146.5
q-28 -135 -93.5 -206t-194.5 -71zM228 43q86 0 135.5 55.5t73.5 167.5q14 72 12 122.5t-33 77t-95 26.5q-162 0 -209 -226q-27 -109 -2.5 -166t118.5 -57z" />
    <glyph glyph-name="odieresis" unicode="&#xf6;" horiz-adv-x="570" 
d="M242 625l26 123h66l-26 -123h-66zM390 625l26 123h66l-25 -123h-67zM217 -11q-232 0 -173 277q29 136 94.5 208t194.5 72q83 0 128.5 -35.5t52.5 -98t-9 -146.5q-28 -135 -93.5 -206t-194.5 -71zM228 43q86 0 135.5 55.5t73.5 167.5q14 72 12 122.5t-33 77t-95 26.5
q-162 0 -209 -226q-27 -109 -2.5 -166t118.5 -57z" />
    <glyph glyph-name="divide" unicode="&#xf7;" horiz-adv-x="500" 
d="M237 412l23 105h62l-22 -105h-63zM42 288l12 57h400l-12 -57h-400zM175 115l21 106h63l-22 -106h-62z" />
    <glyph glyph-name="oslash" unicode="&#xf8;" horiz-adv-x="570" 
d="M553 542l-61 -66q42 -70 13 -210q-28 -135 -93.5 -206t-194.5 -71q-88 0 -133 39l-31 -34h-57l60 66q-41 69 -12 206q29 136 94.5 208t194.5 72q86 0 132 -38l31 34h57zM112 266q-21 -105 -7 -153l317 347q-32 32 -101 32q-162 0 -209 -226zM437 266q21 107 6 156
l-316 -347q30 -32 101 -32q86 0 135.5 55.5t73.5 167.5z" />
    <glyph glyph-name="ugrave" unicode="&#xf9;" horiz-adv-x="598" 
d="M369 629h-60l-57 138h75zM476 535h66l-81 -387l-22 -148h-56l10 113q-29 -44 -84 -84t-128 -40q-93 0 -126.5 51t-8.5 173l68 322h65l-65 -313q-22 -83 -3 -128.5t94 -45.5q35 0 69.5 16t60.5 42t41.5 45.5t27.5 37.5z" />
    <glyph glyph-name="uacute" unicode="&#xfa;" horiz-adv-x="598" 
d="M473 767l-114 -138h-60l99 138h75zM476 535h66l-81 -387l-22 -148h-56l10 113q-29 -44 -84 -84t-128 -40q-93 0 -126.5 51t-8.5 173l68 322h65l-65 -313q-22 -83 -3 -128.5t94 -45.5q35 0 69.5 16t60.5 42t41.5 45.5t27.5 37.5z" />
    <glyph glyph-name="ucircumflex" unicode="&#xfb;" horiz-adv-x="598" 
d="M363 717l-87 -88h-67l135 138h54l78 -138h-63zM476 535h66l-81 -387l-22 -148h-56l10 113q-29 -44 -84 -84t-128 -40q-93 0 -126.5 51t-8.5 173l68 322h65l-65 -313q-22 -83 -3 -128.5t94 -45.5q35 0 69.5 16t60.5 42t41.5 45.5t27.5 37.5z" />
    <glyph glyph-name="udieresis" unicode="&#xfc;" horiz-adv-x="598" 
d="M328 753l-26 -123h-66l26 123h66zM476 753l-25 -123h-67l26 123h66zM476 535h66l-81 -387l-22 -148h-56l10 113q-29 -44 -84 -84t-128 -40q-93 0 -126.5 51t-8.5 173l68 322h65l-65 -313q-22 -83 -3 -128.5t94 -45.5q35 0 69.5 16t60.5 42t41.5 45.5t27.5 37.5z" />
    <glyph glyph-name="yacute" unicode="&#xfd;" horiz-adv-x="475" 
d="M427 767l-114 -138h-60l99 138h75zM443 535h76l-428 -754h-67l122 219h-18l-90 535h68l72 -477z" />
    <glyph glyph-name="thorn" unicode="&#xfe;" horiz-adv-x="590" 
d="M379 544q204 0 146 -278q-56 -275 -262 -275q-125 0 -162 86l-66 -317h-65l209 1000h64l-65 -312q85 96 201 96zM457 266q25 106 1.5 165t-103.5 59q-106 0 -193 -120l-42 -199q2 -50 34.5 -87.5t108.5 -37.5q74 0 123 56.5t71 163.5z" />
    <glyph glyph-name="ydieresis" unicode="&#xff;" horiz-adv-x="475" 
d="M282 753l-26 -123h-66l26 123h66zM430 753l-25 -123h-67l26 123h66zM443 535h76l-428 -754h-67l122 219h-18l-90 535h68l72 -477z" />
    <glyph glyph-name="Amacron" unicode="&#x100;" horiz-adv-x="606" 
d="M532 839l-12 -53h-229l12 53h229zM476 0l-29 191h-319l-109 -191h-73l414 708h67l118 -708h-69zM162 251h275l-58 379z" />
    <glyph glyph-name="amacron" unicode="&#x101;" horiz-adv-x="552" 
d="M470 708l-12 -53h-229l11 53h230zM321 544q59 0 96 -16t53 -37t17 -64.5t-3.5 -73t-17.5 -88.5l-28 -130l-17 -134h-57l6 80q-68 -91 -210 -91q-177 0 -145 157q8 39 24.5 67.5t40.5 45t55.5 27t69 14t81 4.5t91.5 0h31q6 32 9 50.5t5 41.5t-0.5 35.5t-9.5 26t-20 20
t-32.5 10.5t-46.5 4q-79 0 -119 -36t-49 -81h-60q36 168 236 168zM182 38q67 0 119 31t77 86l21 104q-159 1 -204 -7q-85 -16 -109 -80q-4 -12 -7 -27q-11 -52 11 -79.5t92 -27.5z" />
    <glyph glyph-name="Abreve" unicode="&#x102;" horiz-adv-x="606" 
d="M401 760q-58 0 -83.5 31.5t-17.5 73.5h54q-4 -22 9.5 -38.5t47.5 -16.5q33 0 54 17t25 38h55q-9 -44 -44 -74.5t-100 -30.5zM360 708h67l118 -708h-69l-29 191h-319l-109 -191h-73zM162 251h275l-58 379z" />
    <glyph glyph-name="abreve" unicode="&#x103;" horiz-adv-x="552" 
d="M339 627q-58 0 -83 34.5t-16 79.5h54q-5 -23 8 -42.5t48 -19.5q32 0 54.5 20t27.5 42h53q-9 -46 -46.5 -80t-99.5 -34zM321 544q59 0 96 -16t53 -37t17 -64.5t-3.5 -73t-17.5 -88.5l-28 -130l-17 -134h-57l6 80q-68 -91 -210 -91q-177 0 -145 157q8 39 24.5 67.5t40.5 45
t55.5 27t69 14t81 4.5t91.5 0h31q6 32 9 50.5t5 41.5t-0.5 35.5t-9.5 26t-20 20t-32.5 10.5t-46.5 4q-79 0 -119 -36t-49 -81h-60q36 168 236 168zM182 38q67 0 119 31t77 86l21 104q-159 1 -204 -7q-85 -16 -109 -80q-4 -12 -7 -27q-11 -52 11 -79.5t92 -27.5z" />
    <glyph glyph-name="Aogonek" unicode="&#x104;" horiz-adv-x="606" 
d="M426 -95q-4 -20 4.5 -30.5t25.5 -10.5q10 0 22.5 3t19.5 7l7 3l-8 -40q-32 -19 -76 -19q-36 0 -50.5 19t-8.5 52q6 30 32 58t44.5 40t36.5 21l-28 183h-319l-109 -191h-73l414 708h67l118 -708h-22q-13 -6 -29.5 -15.5t-39.5 -32.5t-28 -47zM162 251h275l-58 379z" />
    <glyph glyph-name="aogonek" unicode="&#x105;" horiz-adv-x="552" 
d="M321 544q59 0 96 -16t53 -37t17 -64.5t-3.5 -73t-17.5 -88.5l-28 -130l-17 -134h-6q-13 -6 -29.5 -15.5t-39.5 -32.5t-28 -47q-4 -20 4.5 -30.5t25.5 -10.5q10 0 22.5 3.5t19.5 6.5l7 3l-8 -40q-32 -19 -76 -19q-36 0 -50.5 19t-8.5 52q6 29 30.5 56.5t43.5 39.5t37 22
l5 73q-68 -91 -210 -91q-177 0 -145 157q8 39 24.5 67.5t40.5 45t55.5 27t69 14t81 4.5t91.5 0h31q6 32 9 50.5t5 41.5t-0.5 35.5t-9.5 26t-20 20t-32.5 10.5t-46.5 4q-79 0 -119 -36t-49 -81h-60q36 168 236 168zM182 38q67 0 119 31t77 86l21 104q-159 1 -204 -7
q-85 -16 -109 -80q-4 -12 -7 -27q-11 -52 11 -79.5t92 -27.5z" />
    <glyph glyph-name="Cacute" unicode="&#x106;" horiz-adv-x="649" 
d="M399 767l97 126h78l-112 -126h-63zM269 -17q-150 0 -196 93t-7 277q39 186 121.5 279t236.5 93q124 0 175 -64.5t27 -188.5h-68q17 100 -17 146t-130 46q-110 0 -176 -75.5t-99 -235.5q-37 -157 -5 -233t151 -76q84 0 142.5 45.5t81.5 138.5h68q-59 -245 -305 -245z" />
    <glyph glyph-name="cacute" unicode="&#x107;" horiz-adv-x="544" 
d="M299 629l99 138h75l-114 -138h-60zM212 -11q-225 0 -168 278q28 135 93 206.5t191 71.5q103 0 147 -53t26 -147h-65q28 146 -119 146q-159 0 -205 -224q-27 -109 -2.5 -166t114.5 -57q65 0 113 34.5t61 92.5h67q-20 -85 -83 -133.5t-170 -48.5z" />
    <glyph glyph-name="Ccircumflex" unicode="&#x108;" horiz-adv-x="649" 
d="M445 835l-81 -68h-66l124 115h62l74 -115h-61zM626 472h-68q17 100 -17 146t-130 46q-110 0 -176 -75.5t-99 -235.5q-37 -157 -5 -233t151 -76q84 0 142.5 45.5t81.5 138.5h68q-59 -245 -305 -245q-150 0 -196 93t-7 277q39 186 121.5 279t236.5 93q124 0 175 -64.5
t27 -188.5z" />
    <glyph glyph-name="ccircumflex" unicode="&#x109;" horiz-adv-x="544" 
d="M363 717l-87 -88h-67l135 138h54l78 -138h-63zM501 345h-65q28 146 -119 146q-159 0 -205 -224q-27 -109 -2.5 -166t114.5 -57q65 0 113 34.5t61 92.5h67q-20 -85 -83 -133.5t-170 -48.5q-225 0 -168 278q28 135 93 206.5t191 71.5q103 0 147 -53t26 -147z" />
    <glyph glyph-name="Cdotaccent" unicode="&#x10a;" horiz-adv-x="649" 
d="M395 767l26 123h67l-26 -123h-67zM269 -17q-150 0 -196 93t-7 277q39 186 121.5 279t236.5 93q124 0 175 -64.5t27 -188.5h-68q17 100 -17 146t-130 46q-110 0 -176 -75.5t-99 -235.5q-37 -157 -5 -233t151 -76q84 0 142.5 45.5t81.5 138.5h68q-59 -245 -305 -245z" />
    <glyph glyph-name="cdotaccent" unicode="&#x10b;" horiz-adv-x="544" 
d="M311 636l27 123h66l-26 -123h-67zM212 -11q-225 0 -168 278q28 135 93 206.5t191 71.5q103 0 147 -53t26 -147h-65q28 146 -119 146q-159 0 -205 -224q-27 -109 -2.5 -166t114.5 -57q65 0 113 34.5t61 92.5h67q-20 -85 -83 -133.5t-170 -48.5z" />
    <glyph glyph-name="Ccaron" unicode="&#x10c;" horiz-adv-x="649" 
d="M458 767h-62l-74 115h61l51 -68l82 68h66zM626 472h-68q17 100 -17 146t-130 46q-110 0 -176 -75.5t-99 -235.5q-37 -157 -5 -233t151 -76q84 0 142.5 45.5t81.5 138.5h68q-59 -245 -305 -245q-150 0 -196 93t-7 277q39 186 121.5 279t236.5 93q124 0 175 -64.5
t27 -188.5z" />
    <glyph glyph-name="ccaron" unicode="&#x10d;" horiz-adv-x="544" 
d="M370 629h-55l-77 138h63l50 -88l87 88h67zM501 345h-65q28 146 -119 146q-159 0 -205 -224q-27 -109 -2.5 -166t114.5 -57q65 0 113 34.5t61 92.5h67q-20 -85 -83 -133.5t-170 -48.5q-225 0 -168 278q28 135 93 206.5t191 71.5q103 0 147 -53t26 -147z" />
    <glyph glyph-name="Dcaron" unicode="&#x10e;" horiz-adv-x="665" 
d="M435 762h-62l-74 115h61l51 -68l82 68h66zM170 711h175q137 0 204.5 -39t78 -118.5t-14.5 -200.5q-20 -97 -46.5 -159t-73.5 -109t-119 -67.5t-178 -20.5h-174zM543 353q26 111 16.5 177.5t-61 93.5t-164.5 27h-108l-123 -591l108 -1q154 -1 225.5 62t106.5 232z" />
    <glyph glyph-name="dcaron" unicode="&#x10f;" horiz-adv-x="591" 
d="M533 760h66l-128 -620l-21 -140h-57l7 88q-74 -97 -207 -97q-205 0 -149 275q58 278 264 278q64 0 103.5 -28t58.5 -63zM215 46q73 0 123.5 38.5t72.5 87.5l42 200q-4 18 -12 35t-24 37.5t-44.5 33t-64.5 12.5q-73 0 -123 -58.5t-72 -165.5q-22 -110 1.5 -165t100.5 -55z
M676 760h68l-102 -153h-52z" />
    <glyph glyph-name="Dcroat" unicode="&#x110;" horiz-adv-x="665" 
d="M170 711h175q137 0 204.5 -39t78 -118.5t-14.5 -200.5q-20 -97 -46.5 -159t-73.5 -109t-119 -67.5t-178 -20.5h-174l70 336h-65l10 47h64zM543 353q26 111 16.5 177.5t-61 93.5t-164.5 27h-108l-56 -271h138l-10 -47h-138l-57 -273l108 -1q154 -1 225.5 62t106.5 232z
" />
    <glyph glyph-name="dcroat" unicode="&#x111;" horiz-adv-x="591" 
d="M642 638l-10 -47h-68l-93 -451l-21 -140h-57l7 88q-74 -97 -207 -97q-205 0 -149 275q58 278 264 278q64 0 103.5 -28t58.5 -63l28 138h-137l10 47h137l25 122h66l-25 -122h68zM215 46q73 0 123.5 38.5t72.5 87.5l42 200q-4 18 -12 35t-24 37.5t-44.5 33t-64.5 12.5
q-73 0 -123 -58.5t-72 -165.5q-22 -110 1.5 -165t100.5 -55z" />
    <glyph glyph-name="Emacron" unicode="&#x112;" horiz-adv-x="557" 
d="M523 839l-12 -53h-229l12 53h229zM596 647h-371l-52 -249h322l-13 -59h-321l-58 -278h376l-13 -61h-444l147 708h439z" />
    <glyph glyph-name="emacron" unicode="&#x113;" horiz-adv-x="559" 
d="M478 708l-12 -53h-229l11 53h230zM329 546q227 0 169 -275h-385l-1 -7q-12 -66 -13.5 -115.5t29.5 -78.5t97 -29q76 0 123 40t56 80h68q-5 -24 -19.5 -49.5t-42.5 -55t-79 -48.5t-117 -19q-118 0 -158 69t-12 207q30 142 96 211.5t189 69.5zM127 321h315q11 87 -16.5 130
t-107.5 43q-138 0 -191 -173z" />
    <glyph glyph-name="Ebreve" unicode="&#x114;" horiz-adv-x="557" 
d="M392 760q-58 0 -83.5 31.5t-17.5 73.5h54q-4 -22 9.5 -38.5t47.5 -16.5q33 0 54 17t25 38h55q-9 -44 -44 -74.5t-100 -30.5zM596 647h-371l-52 -249h322l-13 -59h-321l-58 -278h376l-13 -61h-444l147 708h439z" />
    <glyph glyph-name="ebreve" unicode="&#x115;" horiz-adv-x="559" 
d="M347 627q-58 0 -83 34.5t-16 79.5h54q-5 -23 8 -42.5t48 -19.5q32 0 54.5 20t27.5 42h53q-9 -46 -46.5 -80t-99.5 -34zM329 546q227 0 169 -275h-385l-1 -7q-12 -66 -13.5 -115.5t29.5 -78.5t97 -29q76 0 123 40t56 80h68q-5 -24 -19.5 -49.5t-42.5 -55t-79 -48.5
t-117 -19q-118 0 -158 69t-12 207q30 142 96 211.5t189 69.5zM127 321h315q11 87 -16.5 130t-107.5 43q-138 0 -191 -173z" />
    <glyph glyph-name="Edotaccent" unicode="&#x116;" horiz-adv-x="557" 
d="M452 883l-26 -123h-67l26 123h67zM596 647h-371l-52 -249h322l-13 -59h-321l-58 -278h376l-13 -61h-444l147 708h439z" />
    <glyph glyph-name="edotaccent" unicode="&#x117;" horiz-adv-x="559" 
d="M408 759l-26 -123h-67l27 123h66zM329 546q227 0 169 -275h-385l-1 -7q-12 -66 -13.5 -115.5t29.5 -78.5t97 -29q76 0 123 40t56 80h68q-5 -24 -19.5 -49.5t-42.5 -55t-79 -48.5t-117 -19q-118 0 -158 69t-12 207q30 142 96 211.5t189 69.5zM127 321h315q11 87 -16.5 130
t-107.5 43q-138 0 -191 -173z" />
    <glyph glyph-name="Eogonek" unicode="&#x118;" horiz-adv-x="557" 
d="M596 647h-371l-52 -249h322l-13 -59h-321l-58 -278h376l-13 -61h-1q-10 -4 -24.5 -11.5t-42 -32.5t-32.5 -52q-4 -20 4.5 -30.5t25.5 -10.5q10 0 22.5 3.5t19.5 6.5l7 3l-8 -40q-32 -19 -76 -19q-36 0 -50.5 19t-8.5 52q13 63 100 112h-380l147 708h439z" />
    <glyph glyph-name="eogonek" unicode="&#x119;" horiz-adv-x="559" 
d="M329 546q227 0 169 -275h-385l-1 -7q-12 -66 -13.5 -115.5t29.5 -78.5t97 -29q76 0 123 40t56 80h68q-8 -37 -39 -79.5t-89 -68.5q-68 -35 -78 -85q-4 -20 4.5 -30.5t25.5 -10.5q10 0 22.5 3.5t19.5 6.5l7 3l-8 -40q-32 -19 -76 -19q-36 0 -50.5 19t-8.5 52q9 43 53 79
q-26 -2 -41 -2q-118 0 -158 69t-12 207q30 142 96 211.5t189 69.5zM127 321h315q11 87 -16.5 130t-107.5 43q-138 0 -191 -173z" />
    <glyph glyph-name="Ecaron" unicode="&#x11a;" horiz-adv-x="557" 
d="M422 760h-62l-74 115h61l51 -68l82 68h66zM596 647h-371l-52 -249h322l-13 -59h-321l-58 -278h376l-13 -61h-444l147 708h439z" />
    <glyph glyph-name="ecaron" unicode="&#x11b;" horiz-adv-x="559" 
d="M374 629h-55l-77 138h63l50 -88l87 88h67zM329 546q227 0 169 -275h-385l-1 -7q-12 -66 -13.5 -115.5t29.5 -78.5t97 -29q76 0 123 40t56 80h68q-5 -24 -19.5 -49.5t-42.5 -55t-79 -48.5t-117 -19q-118 0 -158 69t-12 207q30 142 96 211.5t189 69.5zM127 321h315
q11 87 -16.5 130t-107.5 43q-138 0 -191 -173z" />
    <glyph glyph-name="Gcircumflex" unicode="&#x11c;" horiz-adv-x="657" 
d="M447 836l-81 -68h-66l124 115h62l74 -115h-61zM629 490h-68q17 80 -20 127t-131 47q-110 0 -175.5 -76t-98.5 -236q-37 -157 -4 -232.5t154 -75.5q51 0 99 14.5t72 29.5t26 22l37 175h-147l13 58h210l-54 -261q-1 -5 -12 -16t-34 -25.5t-53.5 -27t-76.5 -21.5t-97 -9
q-150 0 -196 92t-7 277q39 188 121 280.5t236 92.5q125 0 176.5 -65t29.5 -170z" />
    <glyph glyph-name="gcircumflex" unicode="&#x11d;" horiz-adv-x="593" 
d="M373 717l-87 -88h-67l135 138h54l78 -138h-63zM501 535h57l-37 -140l-82 -396q-7 -32 -11.5 -50t-15 -46.5t-22.5 -46t-32.5 -38t-46.5 -31.5t-64 -19t-85 -8q-42 0 -74 10t-49.5 26.5t-28 36t-13 39t-2.5 36t2 26.5l2 10l62 1l-1 -5q-1 -6 -2 -13.5t-1.5 -18t2 -21
t6.5 -21.5t13.5 -20.5t22 -17t32 -12t44.5 -4.5q53 0 89 14t56.5 43t31 57t19.5 73l16 79q-72 -87 -199 -87q-204 0 -148 275q58 278 264 278q70 0 109.5 -32t55.5 -69zM213 46q73 0 123.5 39t72.5 88l43 205q-33 112 -147 112q-73 0 -122.5 -58.5t-72.5 -165.5
q-22 -110 1.5 -165t101.5 -55z" />
    <glyph glyph-name="Gbreve" unicode="&#x11e;" horiz-adv-x="657" 
d="M430 768q-58 0 -83.5 31.5t-17.5 73.5h54q-4 -22 9.5 -38.5t47.5 -16.5q33 0 54 17t25 38h55q-9 -44 -44 -74.5t-100 -30.5zM629 490h-68q17 80 -20 127t-131 47q-110 0 -175.5 -76t-98.5 -236q-37 -157 -4 -232.5t154 -75.5q51 0 99 14.5t72 29.5t26 22l37 175h-147
l13 58h210l-54 -261q-1 -5 -12 -16t-34 -25.5t-53.5 -27t-76.5 -21.5t-97 -9q-150 0 -196 92t-7 277q39 188 121 280.5t236 92.5q125 0 176.5 -65t29.5 -170z" />
    <glyph glyph-name="gbreve" unicode="&#x11f;" horiz-adv-x="593" 
d="M353 627q-58 0 -83 34.5t-16 79.5h54q-5 -23 8 -42.5t48 -19.5q32 0 54.5 20t27.5 42h53q-9 -46 -46.5 -80t-99.5 -34zM501 535h57l-37 -140l-82 -396q-7 -32 -11.5 -50t-15 -46.5t-22.5 -46t-32.5 -38t-46.5 -31.5t-64 -19t-85 -8q-42 0 -74 10t-49.5 26.5t-28 36
t-13 39t-2.5 36t2 26.5l2 10l62 1l-1 -5q-1 -6 -2 -13.5t-1.5 -18t2 -21t6.5 -21.5t13.5 -20.5t22 -17t32 -12t44.5 -4.5q53 0 89 14t56.5 43t31 57t19.5 73l16 79q-72 -87 -199 -87q-204 0 -148 275q58 278 264 278q70 0 109.5 -32t55.5 -69zM213 46q73 0 123.5 39t72.5 88
l43 205q-33 112 -147 112q-73 0 -122.5 -58.5t-72.5 -165.5q-22 -110 1.5 -165t101.5 -55z" />
    <glyph glyph-name="Gdotaccent" unicode="&#x120;" horiz-adv-x="657" 
d="M490 891l-26 -123h-67l26 123h67zM629 490h-68q17 80 -20 127t-131 47q-110 0 -175.5 -76t-98.5 -236q-37 -157 -4 -232.5t154 -75.5q51 0 99 14.5t72 29.5t26 22l37 175h-147l13 58h210l-54 -261q-1 -5 -12 -16t-34 -25.5t-53.5 -27t-76.5 -21.5t-97 -9q-150 0 -196 92
t-7 277q39 188 121 280.5t236 92.5q125 0 176.5 -65t29.5 -170z" />
    <glyph glyph-name="gdotaccent" unicode="&#x121;" horiz-adv-x="593" 
d="M414 759l-26 -123h-67l27 123h66zM501 535h57l-37 -140l-82 -396q-7 -32 -11.5 -50t-15 -46.5t-22.5 -46t-32.5 -38t-46.5 -31.5t-64 -19t-85 -8q-42 0 -74 10t-49.5 26.5t-28 36t-13 39t-2.5 36t2 26.5l2 10l62 1l-1 -5q-1 -6 -2 -13.5t-1.5 -18t2 -21t6.5 -21.5
t13.5 -20.5t22 -17t32 -12t44.5 -4.5q53 0 89 14t56.5 43t31 57t19.5 73l16 79q-72 -87 -199 -87q-204 0 -148 275q58 278 264 278q70 0 109.5 -32t55.5 -69zM213 46q73 0 123.5 39t72.5 88l43 205q-33 112 -147 112q-73 0 -122.5 -58.5t-72.5 -165.5q-22 -110 1.5 -165
t101.5 -55z" />
    <glyph glyph-name="Gcommaaccent" unicode="&#x122;" horiz-adv-x="657" 
d="M629 490h-68q17 80 -20 127t-131 47q-110 0 -175.5 -76t-98.5 -236q-37 -157 -4 -232.5t154 -75.5q51 0 99 14.5t72 29.5t26 22l37 175h-147l13 58h210l-54 -261q-1 -5 -12 -16t-34 -25.5t-53.5 -27t-76.5 -21.5t-97 -9q-150 0 -196 92t-7 277q39 188 121 280.5t236 92.5
q125 0 176.5 -65t29.5 -170zM202 -147q10 22 18 43.5t11 32.5l3 11h67q-13 -42 -37 -90q-13 -26 -28.5 -49.5t-24.5 -34.5l-9 -11h-57q30 43 57 98z" />
    <glyph glyph-name="gcommaaccent" unicode="&#x123;" horiz-adv-x="593" 
d="M392 688q-12 -28 -21 -53.5t-12 -37.5l-3 -12h-69q10 45 40 107q15 31 32 59t27 40l10 12h59q-32 -47 -63 -115zM501 535h57l-37 -140l-82 -396q-7 -32 -11.5 -50t-15 -46.5t-22.5 -46t-32.5 -38t-46.5 -31.5t-64 -19t-85 -8q-42 0 -74 10t-49.5 26.5t-28 36t-13 39
t-2.5 36t2 26.5l2 10l62 1l-1 -5q-1 -6 -2 -13.5t-1.5 -18t2 -21t6.5 -21.5t13.5 -20.5t22 -17t32 -12t44.5 -4.5q53 0 89 14t56.5 43t31 57t19.5 73l16 79q-72 -87 -199 -87q-204 0 -148 275q58 278 264 278q70 0 109.5 -32t55.5 -69zM213 46q73 0 123.5 39t72.5 88l43 205
q-33 112 -147 112q-73 0 -122.5 -58.5t-72.5 -165.5q-22 -110 1.5 -165t101.5 -55z" />
    <glyph glyph-name="Hcircumflex" unicode="&#x124;" horiz-adv-x="684" 
d="M451 828l-81 -68h-66l124 115h62l74 -115h-61zM609 708h69l-148 -708h-69l70 335h-371l-70 -335h-68l147 708h69l-64 -308h371z" />
    <glyph glyph-name="hcircumflex" unicode="&#x125;" horiz-adv-x="585" 
d="M233 857l-81 -68h-66l124 115h62l74 -115h-61zM376 545q95 0 128 -51t7 -176l-67 -318h-66l66 313q22 84 3 128.5t-95 44.5q-33 0 -65 -13.5t-57 -35.5t-41.5 -41t-29.5 -38l-75 -358h-66l159 760h66l-67 -319q86 104 200 104z" />
    <glyph glyph-name="Hbar" unicode="&#x126;" horiz-adv-x="684" 
d="M715 577l-11 -53h-64l-110 -524h-69l70 335h-371l-70 -335h-68l109 524h-61l11 53h61l27 131h69l-27 -131h371l27 131h69l-27 -131h64zM545 400l26 124h-371l-26 -124h371z" />
    <glyph glyph-name="hbar" unicode="&#x127;" horiz-adv-x="585" 
d="M376 545q95 0 128 -51t7 -176l-67 -318h-66l66 313q22 84 3 128.5t-95 44.5q-33 0 -65 -13.5t-57 -35.5t-41.5 -41t-29.5 -38l-75 -358h-66l124 594h-70l10 47h70l25 119h66l-25 -119h135l-10 -47h-135l-32 -153q86 104 200 104z" />
    <glyph glyph-name="Itilde" unicode="&#x128;" horiz-adv-x="244" 
d="M324 865h39q-20 -101 -96 -101q-30 0 -49.5 21t-39.5 21q-40 0 -53 -46h-38q23 99 96 99q31 0 50 -20t38 -20q24 0 37.5 16t15.5 30zM22 0l147 708h69l-148 -708h-68z" />
    <glyph glyph-name="itilde" unicode="&#x129;" horiz-adv-x="220" 
d="M285 730h39q-10 -45 -30.5 -71t-64.5 -26q-31 0 -50 21.5t-39 21.5q-24 0 -37.5 -16t-15.5 -31h-38q19 95 95 95q31 0 49.5 -20t38.5 -20q24 0 37.5 16t15.5 30zM10 0l111 535h66l-111 -535h-66z" />
    <glyph glyph-name="Imacron" unicode="&#x12a;" horiz-adv-x="244" 
d="M116 839h229l-12 -53h-229zM22 0l147 708h69l-148 -708h-68z" />
    <glyph glyph-name="imacron" unicode="&#x12b;" horiz-adv-x="220" 
d="M77 708h230l-12 -53h-229zM10 0l111 535h66l-111 -535h-66z" />
    <glyph glyph-name="Ibreve" unicode="&#x12c;" horiz-adv-x="244" 
d="M303 865h55q-9 -44 -44 -74.5t-100 -30.5q-58 0 -83.5 31.5t-17.5 73.5h54q-4 -22 9.5 -38.5t47.5 -16.5q33 0 54 17t25 38zM22 0l147 708h69l-148 -708h-68z" />
    <glyph glyph-name="ibreve" unicode="&#x12d;" horiz-adv-x="220" 
d="M269 741h53q-9 -46 -46.5 -80t-99.5 -34q-58 0 -83 34.5t-16 79.5h54q-5 -23 8 -42.5t48 -19.5q32 0 54.5 20t27.5 42zM10 0l111 535h66l-111 -535h-66z" />
    <glyph glyph-name="Iogonek" unicode="&#x12e;" horiz-adv-x="244" 
d="M90 0h-19q-15 -7 -31.5 -16.5t-37.5 -31.5t-26 -46q-4 -20 4.5 -30.5t25.5 -10.5q10 0 22.5 3.5t19.5 6.5l7 3l-8 -40q-32 -19 -76 -19q-36 0 -50.5 19t-8.5 52q6 29 31.5 57t44.5 40.5t36 20.5l145 700h69z" />
    <glyph glyph-name="iogonek" unicode="&#x12f;" horiz-adv-x="220" 
d="M171 759h66l-26 -123h-67zM12 7l109 528h66l-111 -535h-15q-13 -6 -29.5 -15.5t-39.5 -32.5t-28 -47q-4 -20 4.5 -30.5t25.5 -10.5q10 0 22.5 3t19.5 7l7 3l-8 -40q-32 -19 -76 -19q-36 0 -50.5 19t-8.5 52q6 29 31 56.5t44 40t37 21.5z" />
    <glyph glyph-name="Idotaccent" unicode="&#x130;" horiz-adv-x="244" 
d="M181 760l26 123h67l-26 -123h-67zM22 0l147 708h69l-148 -708h-68z" />
    <glyph glyph-name="dotlessi" unicode="&#x131;" horiz-adv-x="220" 
d="M10 0l111 535h66l-111 -535h-66z" />
    <glyph glyph-name="IJ" unicode="&#x132;" horiz-adv-x="620" 
d="M22 0l147 708h69l-148 -708h-68zM242 0h-57l14 66h56q107 0 147.5 42.5t67.5 176.5l87 423h69l-86 -423q-15 -70 -28 -111.5t-34 -79t-51.5 -56t-75 -28.5t-109.5 -10z" />
    <glyph glyph-name="ij" unicode="&#x133;" horiz-adv-x="459" 
d="M144 636l27 123h66l-26 -123h-67zM376 636l27 123h66l-26 -123h-67zM10 0l111 535h66l-111 -535h-66zM89 -188l12 57q29 0 49 3t35.5 13t24.5 19.5t17 32.5t12 41t12 55l104 502h67l-105 -502q-15 -70 -27 -106.5t-37 -66t-63 -39t-101 -9.5z" />
    <glyph glyph-name="Jcircumflex" unicode="&#x134;" horiz-adv-x="376" 
d="M294 828l-81 -68h-66l124 115h62l74 -115h-61zM226 285l87 423h69l-86 -423q-15 -70 -28 -111.5t-34 -79t-51.5 -56t-75 -28.5t-109.5 -10h-57l14 66h56q107 0 147.5 42.5t67.5 176.5z" />
    <glyph glyph-name="jcircumflex" unicode="&#x135;" horiz-adv-x="239" 
d="M321 629h-63l-50 88l-87 -88h-67l135 138h54zM31 33l104 502h67l-105 -502q-15 -70 -27 -106.5t-37 -66t-63 -39t-101 -9.5l12 57q29 0 49 3t35.5 13t24.5 19.5t17 32.5t12 41t12 55z" />
    <glyph glyph-name="Kcommaaccent" unicode="&#x136;" horiz-adv-x="591" 
d="M655 708l-332 -318l193 -390h-76l-168 342l-138 -133l-44 -209h-68l147 708h69l-84 -402l409 402h92zM161 -147q10 22 18 43.5t11 32.5l3 11h67q-13 -42 -37 -90q-13 -26 -28.5 -49.5t-24.5 -34.5l-9 -11h-57q30 43 57 98z" />
    <glyph glyph-name="kcommaaccent" unicode="&#x137;" horiz-adv-x="500" 
d="M514 535l-241 -212l159 -323h-72l-137 279l-99 -87l-40 -192h-66l159 760h66l-102 -490l287 265h86zM122 -147q10 22 18 43.5t11 32.5l3 11h67q-13 -42 -37 -90q-13 -26 -28.5 -49.5t-24.5 -34.5l-9 -11h-57q30 43 57 98z" />
    <glyph glyph-name="kgreenlandic" unicode="&#x138;" horiz-adv-x="500" 
d="M514 535l-242 -213l160 -322h-72l-137 279l-99 -87l-40 -192h-66l112 535h66l-55 -264l287 264h86z" />
    <glyph glyph-name="Lacute" unicode="&#x139;" horiz-adv-x="492" 
d="M370 886l-112 -126h-63l97 126h78zM103 63h320l-14 -63h-387l147 708h69z" />
    <glyph glyph-name="lacute" unicode="&#x13a;" horiz-adv-x="235" 
d="M190 808l97 126h78l-112 -126h-63zM18 0l159 760h66l-159 -760h-66z" />
    <glyph glyph-name="Lcommaaccent" unicode="&#x13b;" horiz-adv-x="492" 
d="M103 63h320l-14 -63h-387l147 708h69zM130 -147q10 22 18 43.5t11 32.5l3 11h67q-13 -42 -37 -90q-13 -26 -28.5 -49.5t-24.5 -34.5l-9 -11h-57q30 43 57 98z" />
    <glyph glyph-name="lcommaaccent" unicode="&#x13c;" horiz-adv-x="235" 
d="M18 0l159 760h66l-159 -760h-66zM-38 -245h-57q30 43 57 98q10 22 18 43.5t11 32.5l3 11h67q-13 -42 -37 -90q-13 -26 -28.5 -49.5t-24.5 -34.5z" />
    <glyph glyph-name="Lcaron" unicode="&#x13d;" horiz-adv-x="492" 
d="M471 767l-105 -142h-61l90 142h76zM238 708l-135 -645h320l-14 -63h-387l147 708h69z" />
    <glyph glyph-name="lcaron" unicode="&#x13e;" horiz-adv-x="235" 
d="M18 0l159 760h66l-159 -760h-66zM243 607l86 153h68l-102 -153h-52z" />
    <glyph glyph-name="Ldot" unicode="&#x13f;" horiz-adv-x="492" 
d="M103 63h320l-14 -63h-387l147 708h69zM346 412l-25 -119h-66l25 119h66z" />
    <glyph glyph-name="ldot" unicode="&#x140;" horiz-adv-x="287" 
d="M17 0l162 760h66l-162 -760h-66zM194 325l25 119h67l-25 -119h-67z" />
    <glyph glyph-name="Lslash" unicode="&#x141;" horiz-adv-x="492" 
d="M103 63h320l-14 -63h-387l63 301l-88 -48l-16 45l116 64l72 346h69l-63 -303l92 51l16 -45l-121 -67z" />
    <glyph glyph-name="lslash" unicode="&#x142;" horiz-adv-x="235" 
d="M285 443l-122 -68l-79 -375h-66l70 334l-89 -49l-16 45l118 65l76 365h66l-68 -324l94 52z" />
    <glyph glyph-name="Nacute" unicode="&#x143;" horiz-adv-x="703" 
d="M591 886l-112 -126h-63l97 126h78zM629 708h68l-147 -708h-75l-259 605l-129 -605h-65l150 708h75l261 -610z" />
    <glyph glyph-name="nacute" unicode="&#x144;" horiz-adv-x="581" 
d="M496 767l-114 -138h-60l99 138h75zM372 545q95 0 128 -51t7 -176l-66 -318h-66l65 313q12 56 11 94.5t-25.5 58.5t-77.5 20q-59 0 -108.5 -39t-82.5 -86l-74 -361h-66l82 394l20 141h57l-9 -102q32 43 84.5 77.5t120.5 34.5z" />
    <glyph glyph-name="Ncommaaccent" unicode="&#x145;" horiz-adv-x="703" 
d="M629 708h68l-147 -708h-75l-259 605l-129 -605h-65l150 708h75l261 -610zM207 -147q10 22 18 43.5t11 32.5l3 11h67q-13 -42 -37 -90q-13 -26 -28.5 -49.5t-24.5 -34.5l-9 -11h-57q30 43 57 98z" />
    <glyph glyph-name="ncommaaccent" unicode="&#x146;" horiz-adv-x="581" 
d="M372 545q95 0 128 -51t7 -176l-66 -318h-66l65 313q12 56 11 94.5t-25.5 58.5t-77.5 20q-59 0 -108.5 -39t-82.5 -86l-74 -361h-66l82 394l20 141h57l-9 -102q32 43 84.5 77.5t120.5 34.5zM147 -147q10 22 18 43.5t11 32.5l3 11h67q-13 -42 -37 -90q-13 -26 -28.5 -49.5
t-24.5 -34.5l-9 -11h-57q30 43 57 98z" />
    <glyph glyph-name="Ncaron" unicode="&#x147;" horiz-adv-x="703" 
d="M475 760h-62l-74 115h61l51 -68l82 68h66zM629 708h68l-147 -708h-75l-259 605l-129 -605h-65l150 708h75l261 -610z" />
    <glyph glyph-name="ncaron" unicode="&#x148;" horiz-adv-x="581" 
d="M393 629h-55l-77 138h63l50 -88l87 88h67zM372 545q95 0 128 -51t7 -176l-66 -318h-66l65 313q12 56 11 94.5t-25.5 58.5t-77.5 20q-59 0 -108.5 -39t-82.5 -86l-74 -361h-66l82 394l20 141h57l-9 -102q32 43 84.5 77.5t120.5 34.5z" />
    <glyph glyph-name="Eng" unicode="&#x14a;" horiz-adv-x="703" 
d="M629 708h68l-147 -708q-11 -54 -26 -91.5t-41.5 -68.5t-68 -46t-100.5 -15h-54l13 62h57q68 0 103.5 38t52.5 121l-269 609l-130 -609h-65l150 708h75l262 -605z" />
    <glyph glyph-name="eng" unicode="&#x14b;" horiz-adv-x="581" 
d="M372 545q95 0 128.5 -51t6.5 -176l-6 -28l-51 -247q-10 -47 -17.5 -75.5t-20 -56t-27 -42.5t-38 -27t-53.5 -16t-73 -4l12 57q29 0 49 3t35.5 13t24.5 19.5t17 32.5t12 41t12 55l57 271q12 56 11 94t-26 58t-77 20q-59 0 -108.5 -39t-82.5 -86l-74 -361h-66l82 394
l20 141h57l-9 -102q32 43 84.5 77.5t120.5 34.5z" />
    <glyph glyph-name="Omacron" unicode="&#x14c;" horiz-adv-x="686" 
d="M339 847h229l-12 -53h-229zM273 -17q-151 0 -198.5 93.5t-9.5 276.5q40 187 123.5 279.5t239.5 92.5q151 0 198 -94t9 -278q-39 -186 -122 -278t-240 -92zM287 44q113 0 179 75t99 234q37 157 4 234t-154 77q-113 0 -179.5 -76t-99.5 -235q-37 -157 -4 -233t155 -76z" />
    <glyph glyph-name="omacron" unicode="&#x14d;" horiz-adv-x="570" 
d="M250 703h230l-12 -53h-229zM217 -11q-232 0 -173 277q29 136 94.5 208t194.5 72q83 0 128.5 -35.5t52.5 -98t-9 -146.5q-28 -135 -93.5 -206t-194.5 -71zM228 43q86 0 135.5 55.5t73.5 167.5q14 72 12 122.5t-33 77t-95 26.5q-162 0 -209 -226q-27 -109 -2.5 -166
t118.5 -57z" />
    <glyph glyph-name="Obreve" unicode="&#x14e;" horiz-adv-x="686" 
d="M526 873h55q-9 -44 -44 -74.5t-100 -30.5q-58 0 -83.5 31.5t-17.5 73.5h54q-4 -22 9.5 -38.5t47.5 -16.5q33 0 54 17t25 38zM273 -17q-151 0 -198.5 93.5t-9.5 276.5q40 187 123.5 279.5t239.5 92.5q151 0 198 -94t9 -278q-39 -186 -122 -278t-240 -92zM287 44
q113 0 179 75t99 234q37 157 4 234t-154 77q-113 0 -179.5 -76t-99.5 -235q-37 -157 -4 -233t155 -76z" />
    <glyph glyph-name="obreve" unicode="&#x14f;" horiz-adv-x="570" 
d="M442 736h53q-9 -46 -46.5 -80t-99.5 -34q-58 0 -83 34.5t-16 79.5h54q-5 -23 8 -42.5t48 -19.5q32 0 54.5 20t27.5 42zM217 -11q-232 0 -173 277q29 136 94.5 208t194.5 72q83 0 128.5 -35.5t52.5 -98t-9 -146.5q-28 -135 -93.5 -206t-194.5 -71zM228 43q86 0 135.5 55.5
t73.5 167.5q14 72 12 122.5t-33 77t-95 26.5q-162 0 -209 -226q-27 -109 -2.5 -166t118.5 -57z" />
    <glyph glyph-name="Ohungarumlaut" unicode="&#x150;" horiz-adv-x="686" 
d="M328 768l92 126h76l-107 -126h-61zM460 768l105 126h77l-120 -126h-62zM273 -17q-151 0 -198.5 93.5t-9.5 276.5q40 187 123.5 279.5t239.5 92.5q151 0 198 -94t9 -278q-39 -186 -122 -278t-240 -92zM287 44q113 0 179 75t99 234q37 157 4 234t-154 77q-113 0 -179.5 -76
t-99.5 -235q-37 -157 -4 -233t155 -76z" />
    <glyph glyph-name="ohungarumlaut" unicode="&#x151;" horiz-adv-x="570" 
d="M238 624l94 138h76l-109 -138h-61zM371 624l107 138h75l-121 -138h-61zM217 -11q-232 0 -173 277q29 136 94.5 208t194.5 72q83 0 128.5 -35.5t52.5 -98t-9 -146.5q-28 -135 -93.5 -206t-194.5 -71zM228 43q86 0 135.5 55.5t73.5 167.5q14 72 12 122.5t-33 77t-95 26.5
q-162 0 -209 -226q-27 -109 -2.5 -166t118.5 -57z" />
    <glyph glyph-name="OE" unicode="&#x152;" horiz-adv-x="942" 
d="M980 647h-370l-52 -249h322l-13 -59h-321l-58 -278h376l-13 -61h-584q-278 0 -204 353q37 173 119 264t233 91h578zM418 57l124 593h-132q-112 0 -179 -74.5t-98 -222.5q-19 -97 -14.5 -162.5t45.5 -99.5t123 -34h131z" />
    <glyph glyph-name="oe" unicode="&#x153;" horiz-adv-x="945" 
d="M716 546q112 0 155 -68t12 -219h-385q-12 -65 -12.5 -113t30 -76.5t95.5 -28.5q76 0 123 40t56 80h68q-5 -23 -19 -49t-42 -55.5t-79.5 -48.5t-117.5 -19q-140 0 -167 106q-66 -106 -216 -106q-232 0 -173 277q29 136 94.5 208t194.5 72q141 1 169 -107q67 107 214 107z
M510 309h316q15 97 -11.5 141.5t-109.5 44.5q-143 0 -195 -186zM228 43q86 0 135.5 55.5t72.5 167.5q15 72 13 122.5t-33 77t-95 26.5q-162 0 -209 -226q-27 -109 -2.5 -166t118.5 -57z" />
    <glyph glyph-name="Racute" unicode="&#x154;" horiz-adv-x="644" 
d="M546 886l-112 -126h-63l97 126h78zM170 710h244q131 0 182.5 -49t28.5 -165q-19 -92 -60.5 -139.5t-117.5 -63.5l92 -293h-75l-85 284q-34 -2 -55 -2h-174l-59 -282h-69zM553 496q6 30 6.5 53t-3.5 39t-15 27.5t-23.5 18t-32.5 10.5t-39 5t-46 1h-174l-63 -306l174 -1
q43 0 72 4.5t60.5 19t52.5 47t31 82.5z" />
    <glyph glyph-name="racute" unicode="&#x155;" horiz-adv-x="357" 
d="M384 767l-114 -138h-60l99 138h75zM176 535l-11 -115q11 19 25.5 37t40 40t65 35.5t85.5 13.5l-13 -61q-41 0 -77.5 -14.5t-59 -34t-42 -45.5t-27 -41t-13.5 -29l-66 -321h-66l79 384l23 151h57z" />
    <glyph glyph-name="Rcommaaccent" unicode="&#x156;" horiz-adv-x="644" 
d="M170 710h244q131 0 182.5 -49t28.5 -165q-19 -92 -60.5 -139.5t-117.5 -63.5l92 -293h-75l-85 284q-34 -2 -55 -2h-174l-59 -282h-69zM553 496q6 30 6.5 53t-3.5 39t-15 27.5t-23.5 18t-32.5 10.5t-39 5t-46 1h-174l-63 -306l174 -1q43 0 72 4.5t60.5 19t52.5 47t31 82.5
zM180 -147q10 22 18 43.5t11 32.5l3 11h67q-13 -42 -37 -90q-13 -26 -28.5 -49.5t-24.5 -34.5l-9 -11h-57q30 43 57 98z" />
    <glyph glyph-name="rcommaaccent" unicode="&#x157;" horiz-adv-x="357" 
d="M176 535l-11 -115q11 19 25.5 37t40 40t65 35.5t85.5 13.5l-13 -61q-41 0 -77.5 -14.5t-59 -34t-42 -45.5t-27 -41t-13.5 -29l-66 -321h-66l79 384l23 151h57zM-29 -147q10 22 18 43.5t11 32.5l3 11h67q-13 -42 -37 -90q-13 -26 -28.5 -49.5t-24.5 -34.5l-9 -11h-57
q30 43 57 98z" />
    <glyph glyph-name="Rcaron" unicode="&#x158;" horiz-adv-x="644" 
d="M430 760h-62l-74 115h61l51 -68l82 68h66zM170 710h244q131 0 182.5 -49t28.5 -165q-19 -92 -60.5 -139.5t-117.5 -63.5l92 -293h-75l-85 284q-34 -2 -55 -2h-174l-59 -282h-69zM553 496q6 30 6.5 53t-3.5 39t-15 27.5t-23.5 18t-32.5 10.5t-39 5t-46 1h-174l-63 -306
l174 -1q43 0 72 4.5t60.5 19t52.5 47t31 82.5z" />
    <glyph glyph-name="rcaron" unicode="&#x159;" horiz-adv-x="357" 
d="M281 629h-55l-77 138h63l50 -88l87 88h67zM176 535l-11 -115q11 19 25.5 37t40 40t65 35.5t85.5 13.5l-13 -61q-41 0 -77.5 -14.5t-59 -34t-42 -45.5t-27 -41t-13.5 -29l-66 -321h-66l79 384l23 151h57z" />
    <glyph glyph-name="Sacute" unicode="&#x15a;" horiz-adv-x="614" 
d="M367 769l97 126h78l-112 -126h-63zM26 212h67q-35 -167 157 -168q92 -1 148 34.5t71 97.5q10 43 -2 73t-39 45t-63.5 26.5t-76.5 18t-76 21t-63 33.5t-38.5 56.5t-0.5 89.5q40 189 279 186q124 -1 174.5 -55.5t31.5 -149.5h-66q13 61 -19 103t-131 43q-169 1 -199 -129
q-11 -46 6.5 -76t53 -44t80.5 -23.5t89.5 -22t79 -32t50.5 -60.5t3 -101q-41 -196 -304 -195q-120 1 -178 57.5t-34 171.5z" />
    <glyph glyph-name="sacute" unicode="&#x15b;" horiz-adv-x="512" 
d="M275 629l99 138h75l-114 -138h-60zM13 166h61q-13 -62 17.5 -92.5t107.5 -31.5q75 -1 116.5 25t51.5 69q7 34 -7.5 56.5t-43 33t-64 17.5t-71 16t-63 23.5t-40.5 44.5t-4 74q14 69 72 107t160 37q99 -1 140.5 -42t24.5 -121h-61q12 53 -11.5 81.5t-101.5 29.5
q-73 1 -110.5 -26t-45.5 -66q-8 -37 13.5 -59.5t58.5 -30.5t80 -18.5t79 -23t55 -45.5t8 -84q-31 -152 -247 -151q-211 3 -175 177z" />
    <glyph glyph-name="Scircumflex" unicode="&#x15c;" horiz-adv-x="614" 
d="M413 837l-81 -68h-66l124 115h62l74 -115h-61zM595 520h-66q13 61 -19 103t-131 43q-169 1 -199 -129q-11 -46 6.5 -76t53 -44t80.5 -23.5t89.5 -22t79 -32t50.5 -60.5t3 -101q-41 -196 -304 -195q-120 1 -178 57.5t-34 171.5h67q-35 -167 157 -168q92 -1 148 34.5
t71 97.5q10 43 -2 73t-39 45t-63.5 26.5t-76.5 18t-76 21t-63 33.5t-38.5 56.5t-0.5 89.5q40 189 279 186q124 -1 174.5 -55.5t31.5 -149.5z" />
    <glyph glyph-name="scircumflex" unicode="&#x15d;" horiz-adv-x="512" 
d="M339 717l-87 -88h-67l135 138h54l78 -138h-63zM471 382h-61q12 53 -11.5 81.5t-101.5 29.5q-73 1 -110.5 -26t-45.5 -66q-8 -37 13.5 -59.5t58.5 -30.5t80 -18.5t79 -23t55 -45.5t8 -84q-31 -152 -247 -151q-211 3 -175 177h61q-13 -62 17.5 -92.5t107.5 -31.5
q75 -1 116.5 25t51.5 69q7 34 -7.5 56.5t-43 33t-64 17.5t-71 16t-63 23.5t-40.5 44.5t-4 74q14 69 72 107t160 37q99 -1 140.5 -42t24.5 -121z" />
    <glyph glyph-name="Scedilla" unicode="&#x15e;" horiz-adv-x="614" 
d="M595 520h-66q13 61 -19 103t-131 43q-169 1 -199 -129q-11 -46 6.5 -76t53 -44t80.5 -23.5t89.5 -22t79 -32t50.5 -60.5t3 -101q-38 -184 -270 -194l-33 -47q37 -3 57 -21.5t12 -54.5q-18 -86 -130 -86q-19 0 -34.5 1.5t-21.5 2.5l-6 1l10 44q18 -5 50 -5q33 0 50.5 9.5
t22.5 35.5q11 46 -80 46h-5l51 74q-109 5 -160 61.5t-29 166.5h67q-35 -167 157 -168q92 -1 148 34.5t71 97.5q10 43 -2 73t-39 45t-63.5 26.5t-76.5 18t-76 21t-63 33.5t-38.5 56.5t-0.5 89.5q40 189 279 186q124 -1 174.5 -55.5t31.5 -149.5z" />
    <glyph glyph-name="scedilla" unicode="&#x15f;" horiz-adv-x="512" 
d="M471 382h-61q12 53 -11.5 81.5t-101.5 29.5q-73 1 -110.5 -26t-45.5 -66q-8 -37 13.5 -59.5t58.5 -30.5t80 -18.5t79 -23t55 -45.5t8 -84q-30 -142 -216 -150l-31 -44q37 -3 57 -21.5t12 -54.5q-18 -86 -130 -86q-19 0 -34.5 1t-21.5 3l-6 1l10 44q18 -5 50 -5
q33 0 50.5 9.5t22.5 35.5q11 46 -80 46h-5l50 71q-183 13 -150 176h61q-13 -62 17.5 -92.5t107.5 -31.5q75 -1 116.5 25t51.5 69q7 34 -7.5 56.5t-43 33t-64 17.5t-71 16t-63 23.5t-40.5 44.5t-4 74q14 69 72 107t160 37q99 -1 140.5 -42t24.5 -121z" />
    <glyph glyph-name="Scaron" unicode="&#x160;" horiz-adv-x="614" 
d="M426 769h-62l-74 115h61l51 -68l82 68h66zM595 520h-66q13 61 -19 103t-131 43q-169 1 -199 -129q-11 -46 6.5 -76t53 -44t80.5 -23.5t89.5 -22t79 -32t50.5 -60.5t3 -101q-41 -196 -304 -195q-120 1 -178 57.5t-34 171.5h67q-35 -167 157 -168q92 -1 148 34.5t71 97.5
q10 43 -2 73t-39 45t-63.5 26.5t-76.5 18t-76 21t-63 33.5t-38.5 56.5t-0.5 89.5q40 189 279 186q124 -1 174.5 -55.5t31.5 -149.5z" />
    <glyph glyph-name="scaron" unicode="&#x161;" horiz-adv-x="512" 
d="M346 629h-55l-77 138h63l50 -88l87 88h67zM306 545q99 -1 140.5 -42t24.5 -121h-61q12 53 -11.5 81.5t-101.5 29.5q-73 1 -110.5 -26t-45.5 -66q-8 -37 13.5 -59.5t58.5 -30.5t80 -18.5t79 -23t55 -45.5t8 -84q-31 -152 -247 -151q-211 3 -175 177h61q-13 -62 17.5 -92.5
t107.5 -31.5q75 -1 116.5 25t51.5 69q7 34 -7.5 56.5t-43 33t-64 17.5t-71 16t-63 23.5t-40.5 44.5t-4 74q14 69 72 107t160 37z" />
    <glyph glyph-name="uni0162" unicode="&#x162;" horiz-adv-x="534" 
d="M232 0h-13l-39 -55q37 -3 57 -21.5t12 -54.5q-18 -86 -130 -86q-19 0 -34.5 1.5t-21.5 2.5l-6 1l10 44q18 -5 50 -5q33 0 50.5 9.5t22.5 35.5q11 46 -80 46h-5l58 83l138 644h-219l13 63h507l-13 -63h-219z" />
    <glyph glyph-name="uni0163" unicode="&#x163;" horiz-adv-x="326" 
d="M196 481l-59 -283q-9 -46 -10.5 -78t16 -49.5t57.5 -17.5h48l-11 -55h-56q-15 0 -22 1l-31 -43q37 -3 57 -21.5t12 -54.5q-18 -86 -130 -86q-19 0 -34.5 1t-21.5 3l-6 1l10 44q18 -5 50 -5q33 0 50.5 9.5t22.5 35.5q11 46 -80 46h-5l57 81q-23 10 -36 28.5t-15 45.5
t1 52.5t11 61.5l59 283h-67l11 54h67l32 155l69 13l-35 -168h137l-11 -54h-137z" />
    <glyph glyph-name="Tcaron" unicode="&#x164;" horiz-adv-x="534" 
d="M390 760h-62l-74 115h61l51 -68l82 68h66zM602 708l-13 -63h-219l-138 -645h-69l138 645h-219l13 63h507z" />
    <glyph glyph-name="tcaron" unicode="&#x165;" horiz-adv-x="326" 
d="M424 751l-102 -153h-52l86 153h68zM242 703l-35 -168h137l-11 -54h-137l-59 -283q-9 -46 -10.5 -78t16 -49.5t57.5 -17.5h48l-11 -55h-56q-41 0 -67.5 11t-38.5 28t-15 45t0 53.5t11 62.5l59 283h-67l11 54h67l32 155z" />
    <glyph glyph-name="Tbar" unicode="&#x166;" horiz-adv-x="547" 
d="M595 645h-219l-57 -263h123l-11 -54h-123l-70 -328h-69l70 328h-118l11 54h118l57 263h-219l13 63h508z" />
    <glyph glyph-name="tbar" unicode="&#x167;" horiz-adv-x="326" 
d="M333 481h-137l-37 -175h135l-10 -47h-134l-13 -61q-9 -46 -10.5 -78t16 -49.5t57.5 -17.5h48l-11 -55h-56q-41 0 -67.5 11t-38.5 28t-15 45t0 53.5t11 62.5l13 61h-71l10 47h70l37 175h-67l11 54h67l32 155l69 13l-35 -168h137z" />
    <glyph glyph-name="Utilde" unicode="&#x168;" horiz-adv-x="676" 
d="M535 865h39q-20 -101 -96 -101q-30 0 -49.5 21t-39.5 21q-40 0 -53 -46h-38q22 99 96 99q31 0 50 -20t38 -20q24 0 37.5 16t15.5 30zM267 -17q-98 0 -148 42t-56 122.5t18 198.5l76 362h69l-76 -362q-38 -157 -12 -229.5t142 -72.5q106 0 164 71t91 231l76 362h71
l-76 -362q-39 -189 -113 -276t-226 -87z" />
    <glyph glyph-name="utilde" unicode="&#x169;" horiz-adv-x="598" 
d="M307 676q-24 0 -37.5 -16t-15.5 -31h-38q19 95 95 95q31 0 49.5 -20t38.5 -20q24 0 37.5 16t15.5 30h39q-10 -45 -30.5 -71t-64.5 -26q-31 0 -50 21.5t-39 21.5zM476 535h66l-81 -387l-22 -148h-56l10 113q-29 -44 -84 -84t-128 -40q-93 0 -126.5 51t-8.5 173l68 322h65
l-65 -313q-22 -83 -3 -128.5t94 -45.5q35 0 69.5 16t60.5 42t41.5 45.5t27.5 37.5z" />
    <glyph glyph-name="Umacron" unicode="&#x16a;" horiz-adv-x="676" 
d="M327 839h229l-12 -53h-229zM267 -17q-98 0 -148 42t-56 122.5t18 198.5l76 362h69l-76 -362q-38 -157 -12 -229.5t142 -72.5q106 0 164 71t91 231l76 362h71l-76 -362q-39 -189 -113 -276t-226 -87z" />
    <glyph glyph-name="umacron" unicode="&#x16b;" horiz-adv-x="598" 
d="M474 708l-12 -53h-229l11 53h230zM476 535h66l-81 -387l-22 -148h-56l10 113q-29 -44 -84 -84t-128 -40q-93 0 -126.5 51t-8.5 173l68 322h65l-65 -313q-22 -83 -3 -128.5t94 -45.5q35 0 69.5 16t60.5 42t41.5 45.5t27.5 37.5z" />
    <glyph glyph-name="Ubreve" unicode="&#x16c;" horiz-adv-x="676" 
d="M514 865h55q-9 -44 -44 -74.5t-100 -30.5q-58 0 -83.5 31.5t-17.5 73.5h54q-4 -22 9.5 -38.5t47.5 -16.5q33 0 54 17t25 38zM267 -17q-98 0 -148 42t-56 122.5t18 198.5l76 362h69l-76 -362q-38 -157 -12 -229.5t142 -72.5q106 0 164 71t91 231l76 362h71l-76 -362
q-39 -189 -113 -276t-226 -87z" />
    <glyph glyph-name="ubreve" unicode="&#x16d;" horiz-adv-x="598" 
d="M343 627q-58 0 -83 34.5t-16 79.5h54q-5 -23 8 -42.5t48 -19.5q32 0 54.5 20t27.5 42h53q-9 -46 -46.5 -80t-99.5 -34zM476 535h66l-81 -387l-22 -148h-56l10 113q-29 -44 -84 -84t-128 -40q-93 0 -126.5 51t-8.5 173l68 322h65l-65 -313q-22 -83 -3 -128.5t94 -45.5
q35 0 69.5 16t60.5 42t41.5 45.5t27.5 37.5z" />
    <glyph glyph-name="Uring" unicode="&#x16e;" horiz-adv-x="676" 
d="M423 760q-34 0 -51 21.5t-10 53.5q8 34 32 54.5t61 20.5q34 0 51.5 -21.5t10.5 -53.5q-7 -34 -31 -54.5t-63 -20.5zM432 797q16 0 28 10.5t16 27.5q8 38 -28 38q-16 0 -28.5 -10.5t-16.5 -27.5q-6 -38 29 -38zM267 -17q-98 0 -148 42t-56 122.5t18 198.5l76 362h69
l-76 -362q-38 -157 -12 -229.5t142 -72.5q106 0 164 71t91 231l76 362h71l-76 -362q-39 -189 -113 -276t-226 -87z" />
    <glyph glyph-name="uring" unicode="&#x16f;" horiz-adv-x="598" 
d="M342 626q-38 0 -56 24t-10 58q7 35 32.5 58.5t67.5 23.5q38 0 56.5 -24t11.5 -58q-7 -35 -33.5 -58.5t-68.5 -23.5zM323 708q-8 -38 29 -38q15 0 28 10.5t16 27.5q8 38 -29 38q-15 0 -28 -10.5t-16 -27.5zM476 535h66l-81 -387l-22 -148h-56l10 113q-29 -44 -84 -84
t-128 -40q-93 0 -126.5 51t-8.5 173l68 322h65l-65 -313q-22 -83 -3 -128.5t94 -45.5q35 0 69.5 16t60.5 42t41.5 45.5t27.5 37.5z" />
    <glyph glyph-name="Uhungarumlaut" unicode="&#x170;" horiz-adv-x="676" 
d="M316 760l92 126h76l-107 -126h-61zM448 760l105 126h77l-120 -126h-62zM267 -17q-98 0 -148 42t-56 122.5t18 198.5l76 362h69l-76 -362q-38 -157 -12 -229.5t142 -72.5q106 0 164 71t91 231l76 362h71l-76 -362q-39 -189 -113 -276t-226 -87z" />
    <glyph glyph-name="uhungarumlaut" unicode="&#x171;" horiz-adv-x="598" 
d="M402 767l-109 -138h-61l94 138h76zM426 629h-61l107 138h75zM404 189l72 346h66l-81 -387l-22 -148h-56l10 113q-29 -44 -84 -84t-128 -40q-93 0 -126.5 51t-8.5 173l68 322h65l-65 -313q-22 -83 -3 -128.5t94 -45.5q35 0 69.5 16t60.5 42t41.5 45.5t27.5 37.5z" />
    <glyph glyph-name="Uogonek" unicode="&#x172;" horiz-adv-x="676" 
d="M611 708h71l-76 -362q-30 -141 -75.5 -223t-126.5 -116q-63 -37 -72 -82q-4 -20 4.5 -30.5t25.5 -10.5q10 0 22.5 3t19.5 7l7 3l-8 -40q-32 -19 -76 -19q-36 0 -50.5 19t-8.5 52q9 40 50 77q-24 -3 -51 -3q-98 0 -148 42t-56 122.5t18 198.5l76 362h69l-76 -362
q-38 -157 -12 -229.5t142 -72.5q106 0 164 71t91 231z" />
    <glyph glyph-name="uogonek" unicode="&#x173;" horiz-adv-x="598" 
d="M476 535h66l-81 -387l-22 -148h-4q-10 -4 -24.5 -11.5t-42 -32.5t-32.5 -52q-4 -20 4.5 -30.5t25.5 -10.5q10 0 22.5 3.5t19.5 6.5l7 3l-8 -40q-32 -19 -76 -19q-36 0 -50.5 19t-8.5 52q9 41 45.5 73t66.5 45l9 107q-29 -44 -84 -84t-128 -40q-93 0 -126.5 51t-8.5 173
l68 322h65l-65 -313q-22 -83 -3 -128.5t94 -45.5q35 0 69.5 16t60.5 42t41.5 45.5t27.5 37.5z" />
    <glyph glyph-name="Wcircumflex" unicode="&#x174;" horiz-adv-x="914" 
d="M551 828l-81 -68h-66l124 115h62l74 -115h-61zM908 708h78l-358 -708h-71l-51 610l-299 -610h-67l-67 708h71l47 -611l296 611h72l52 -612z" />
    <glyph glyph-name="wcircumflex" unicode="&#x175;" horiz-adv-x="727" 
d="M447 717l-87 -88h-67l135 138h54l78 -138h-63zM695 535h71l-274 -535h-63l-40 450l-220 -450h-65l-58 535h66l40 -447l215 447h73l39 -447z" />
    <glyph glyph-name="Ycircumflex" unicode="&#x176;" horiz-adv-x="554" 
d="M374 828l-81 -68h-66l124 115h62l74 -115h-61zM543 708h83l-331 -437l-56 -271h-69l57 271l-158 437h74l129 -367z" />
    <glyph glyph-name="ycircumflex" unicode="&#x177;" horiz-adv-x="475" 
d="M317 717l-87 -88h-67l135 138h54l78 -138h-63zM443 535h76l-428 -754h-67l122 219h-18l-90 535h68l72 -477z" />
    <glyph glyph-name="Ydieresis" unicode="&#x178;" horiz-adv-x="554" 
d="M343 883l-26 -123h-67l26 123h67zM489 883l-25 -123h-66l25 123h66zM543 708h83l-331 -437l-56 -271h-69l57 271l-158 437h74l129 -367z" />
    <glyph glyph-name="Zacute" unicode="&#x179;" horiz-adv-x="544" 
d="M518 886l-112 -126h-63l97 126h78zM595 704l-12 -60l-2 -8l-527 -572h412l-13 -60h-495l12 60l2 7l527 573h-384l13 60h467z" />
    <glyph glyph-name="zacute" unicode="&#x17a;" horiz-adv-x="435" 
d="M409 767l-114 -138h-60l99 138h75zM447 507l-9 -42l-393 -406l309 1l-12 -55h-383l11 54h1l2 11l393 407l-299 -1l11 54h374z" />
    <glyph glyph-name="Zdotaccent" unicode="&#x17b;" horiz-adv-x="544" 
d="M432 883l-26 -123h-67l26 123h67zM595 704l-12 -60l-2 -8l-527 -572h412l-13 -60h-495l12 60l2 7l527 573h-384l13 60h467z" />
    <glyph glyph-name="zdotaccent" unicode="&#x17c;" horiz-adv-x="435" 
d="M340 759l-26 -123h-67l27 123h66zM447 507l-9 -42l-393 -406l309 1l-12 -55h-383l11 54h1l2 11l393 407l-299 -1l11 54h374z" />
    <glyph glyph-name="Zcaron" unicode="&#x17d;" horiz-adv-x="544" 
d="M402 760h-62l-74 115h61l51 -68l82 68h66zM595 704l-12 -60l-2 -8l-527 -572h412l-13 -60h-495l12 60l2 7l527 573h-384l13 60h467z" />
    <glyph glyph-name="zcaron" unicode="&#x17e;" horiz-adv-x="435" 
d="M306 629h-55l-77 138h63l50 -88l87 88h67zM447 507l-9 -42l-393 -406l309 1l-12 -55h-383l11 54h1l2 11l393 407l-299 -1l11 54h374z" />
    <glyph glyph-name="uni018F" unicode="&#x18f;" horiz-adv-x="684" 
d="M426 725q151 0 198 -94t9 -278q-40 -187 -122.5 -278.5t-238.5 -91.5q-151 0 -198.5 94t-7.5 280h70l428 -1q36 155 3 231.5t-154 76.5q-171 0 -241 -180h-70q44 121 120.5 181t203.5 60zM285 44q102 0 166.5 63.5t99.5 194.5h-425q-22 -135 13 -196.5t146 -61.5z" />
    <glyph glyph-name="uni019D" unicode="&#x19d;" horiz-adv-x="703" 
d="M629 708h68l-147 -708h-75l-259 606l-128 -606q-12 -58 -26.5 -95t-39.5 -67.5t-65 -44.5t-98 -14h-53l14 62h56q68 0 97.5 34.5t48.5 124.5l151 708h74l261 -610z" />
    <glyph glyph-name="Gcaron" unicode="&#x1e6;" horiz-adv-x="657" 
d="M460 768h-62l-74 115h61l51 -68l82 68h66zM629 490h-68q17 80 -20 127t-131 47q-110 0 -175.5 -76t-98.5 -236q-37 -157 -4 -232.5t154 -75.5q51 0 99 14.5t72 29.5t26 22l37 175h-147l13 58h210l-54 -261q-1 -5 -12 -16t-34 -25.5t-53.5 -27t-76.5 -21.5t-97 -9
q-150 0 -196 92t-7 277q39 188 121 280.5t236 92.5q125 0 176.5 -65t29.5 -170z" />
    <glyph glyph-name="gcaron" unicode="&#x1e7;" horiz-adv-x="593" 
d="M380 629h-55l-77 138h63l50 -88l87 88h67zM501 535h57l-37 -140l-82 -396q-7 -32 -11.5 -50t-15 -46.5t-22.5 -46t-32.5 -38t-46.5 -31.5t-64 -19t-85 -8q-42 0 -74 10t-49.5 26.5t-28 36t-13 39t-2.5 36t2 26.5l2 10l62 1l-1 -5q-1 -6 -2 -13.5t-1.5 -18t2 -21
t6.5 -21.5t13.5 -20.5t22 -17t32 -12t44.5 -4.5q53 0 89 14t56.5 43t31 57t19.5 73l16 79q-72 -87 -199 -87q-204 0 -148 275q58 278 264 278q70 0 109.5 -32t55.5 -69zM213 46q73 0 123.5 39t72.5 88l43 205q-33 112 -147 112q-73 0 -122.5 -58.5t-72.5 -165.5
q-22 -110 1.5 -165t101.5 -55z" />
    <glyph glyph-name="uni01EA" unicode="&#x1ea;" horiz-adv-x="686" 
d="M428 725q151 0 198 -94t9 -278q-29 -140 -81 -225.5t-141 -120.5q-66 -38 -75 -84q-4 -20 4.5 -30.5t25.5 -10.5q10 0 22.5 3t19.5 7l7 3l-8 -40q-32 -19 -76 -19q-36 0 -50.5 19t-8.5 52q9 43 53 79q-25 -3 -54 -3q-151 0 -198.5 93.5t-9.5 276.5q40 187 123.5 279.5
t239.5 92.5zM565 353q37 157 4 234t-154 77q-113 0 -179.5 -76t-99.5 -235q-37 -157 -4 -233t155 -76q113 0 179 75t99 234z" />
    <glyph glyph-name="uni01EB" unicode="&#x1eb;" horiz-adv-x="570" 
d="M333 546q83 0 128.5 -35.5t52.5 -98t-9 -146.5q-43 -209 -174 -258q-62 -36 -70 -81q-4 -20 4.5 -30.5t25.5 -10.5q10 0 22.5 3t19.5 7l7 3l-8 -40q-32 -19 -76 -19q-36 0 -50.5 19t-8.5 52q9 43 53 79q-11 -1 -33 -1q-232 0 -173 277q29 136 94.5 208t194.5 72zM437 266
q14 72 12 122.5t-33 77t-95 26.5q-162 0 -209 -226q-27 -109 -2.5 -166t118.5 -57q86 0 135.5 55.5t73.5 167.5z" />
    <glyph glyph-name="Aringacute" unicode="&#x1fa;" horiz-adv-x="606" 
d="M588 1088l-112 -126h-63l97 126h78zM399 760q-34 0 -51 21.5t-10 53.5q8 34 32 54.5t61 20.5q34 0 51.5 -21.5t10.5 -53.5q-7 -34 -31 -54.5t-63 -20.5zM379 835q-6 -38 29 -38q16 0 28 10.5t16 27.5q8 38 -28 38q-16 0 -28.5 -10.5t-16.5 -27.5zM360 708h67l118 -708
h-69l-29 191h-319l-109 -191h-73zM162 251h275l-58 379z" />
    <glyph glyph-name="aringacute" unicode="&#x1fb;" horiz-adv-x="552" 
d="M519 977l-114 -138h-60l99 138h75zM338 626q-38 0 -56 24t-10 58q7 35 32.5 58.5t67.5 23.5q38 0 56.5 -24t11.5 -58q-7 -35 -33.5 -58.5t-68.5 -23.5zM319 708q-8 -38 29 -38q15 0 28 10.5t16 27.5q8 38 -29 38q-15 0 -28 -10.5t-16 -27.5zM321 544q59 0 96 -16t53 -37
t17 -64.5t-3.5 -73t-17.5 -88.5l-28 -130l-17 -134h-57l6 80q-68 -91 -210 -91q-177 0 -145 157q8 39 24.5 67.5t40.5 45t55.5 27t69 14t81 4.5t91.5 0h31q6 32 9 50.5t5 41.5t-0.5 35.5t-9.5 26t-20 20t-32.5 10.5t-46.5 4q-79 0 -119 -36t-49 -81h-60q36 168 236 168z
M182 38q67 0 119 31t77 86l21 104q-159 1 -204 -7q-85 -16 -109 -80q-4 -12 -7 -27q-11 -52 11 -79.5t92 -27.5z" />
    <glyph glyph-name="AEacute" unicode="&#x1fc;" horiz-adv-x="891" 
d="M692 886l-112 -126h-63l97 126h78zM929 647h-372l-51 -249h322l-12 -59h-323l-57 -278h376l-12 -61h-441l40 191h-230l-144 -191h-79l538 708h458zM214 251h197l75 362z" />
    <glyph glyph-name="aeacute" unicode="&#x1fd;" horiz-adv-x="903" 
d="M661 767l-114 -138h-60l99 138h75zM673 546q112 0 155.5 -67t12.5 -215h-66l-319 1v-1q-12 -66 -13 -115.5t29.5 -78t95.5 -28.5q76 0 122.5 39.5t55.5 79.5h69q-5 -23 -19 -49t-42 -55.5t-79.5 -48.5t-117.5 -19q-148 0 -175 111q-67 -110 -223 -110q-177 0 -144 163
q9 41 26.5 70t43.5 45.5t59 27t73 13t85.5 3.5t96.5 0q10 36 24 70q4 58 -19.5 84.5t-90.5 26.5q-80 0 -119.5 -35.5t-49.5 -81.5h-60q36 168 237 168q127 0 144 -88q70 90 208 90zM468 314h316q13 93 -14 137t-108 44q-142 0 -194 -181zM181 38q67 0 119 32t76 89
q-1 41 12 106q-154 1 -198 -8q-80 -16 -104 -80q-4 -12 -7 -25q-25 -114 102 -114z" />
    <glyph glyph-name="Oslashacute" unicode="&#x1fe;" horiz-adv-x="686" 
d="M402 895l-112 -126h-63l97 126h78zM701 719l-76 -87q49 -89 10 -279q-39 -186 -122 -278t-240 -92q-114 0 -169 55l-42 -48h-67l78 89q-47 92 -8 274q40 187 123.5 279.5t239.5 92.5q109 0 166 -52l40 46h67zM136 353q-30 -146 -11 -214l423 481q-40 44 -133 44
q-113 0 -179.5 -76t-99.5 -235zM565 353q31 150 9 221l-424 -483q40 -47 137 -47q113 0 179 75t99 234z" />
    <glyph glyph-name="oslashacute" unicode="&#x1ff;" horiz-adv-x="570" 
d="M479 762l-114 -138h-60l99 138h75zM553 542l-61 -66q42 -70 13 -210q-28 -135 -93.5 -206t-194.5 -71q-88 0 -133 39l-31 -34h-57l60 66q-41 69 -12 206q29 136 94.5 208t194.5 72q86 0 132 -38l31 34h57zM112 266q-21 -105 -7 -153l317 347q-32 32 -101 32
q-162 0 -209 -226zM437 266q21 107 6 156l-316 -347q30 -32 101 -32q86 0 135.5 55.5t73.5 167.5z" />
    <glyph glyph-name="Scommaaccent" unicode="&#x218;" horiz-adv-x="614" 
d="M26 212h67q-35 -167 157 -168q92 -1 148 34.5t71 97.5q10 43 -2 73t-39 45t-63.5 26.5t-76.5 18t-76 21t-63 33.5t-38.5 56.5t-0.5 89.5q40 189 279 186q124 -1 174.5 -55.5t31.5 -149.5h-66q13 61 -19 103t-131 43q-169 1 -199 -129q-11 -46 6.5 -76t53 -44t80.5 -23.5
t89.5 -22t79 -32t50.5 -60.5t3 -101q-41 -196 -304 -195q-120 1 -178 57.5t-34 171.5zM179 -255h-57q30 43 57 98q10 22 18 43.5t11 32.5l3 11h67q-13 -42 -37 -90q-13 -26 -28.5 -49.5t-24.5 -34.5z" />
    <glyph glyph-name="scommaaccent" unicode="&#x219;" horiz-adv-x="512" 
d="M13 166h61q-13 -62 17.5 -92.5t107.5 -31.5q75 -1 116.5 25t51.5 69q7 34 -7.5 56.5t-43 33t-64 17.5t-71 16t-63 23.5t-40.5 44.5t-4 74q14 69 72 107t160 37q99 -1 140.5 -42t24.5 -121h-61q12 53 -11.5 81.5t-101.5 29.5q-73 1 -110.5 -26t-45.5 -66
q-8 -37 13.5 -59.5t58.5 -30.5t80 -18.5t79 -23t55 -45.5t8 -84q-31 -152 -247 -151q-211 3 -175 177zM128 -246h-57q30 43 57 98q10 22 18 43.5t11 32.5l3 11h67q-13 -42 -37 -90q-13 -26 -28.5 -49.5t-24.5 -34.5z" />
    <glyph glyph-name="uni021A" unicode="&#x21a;" horiz-adv-x="547" 
d="M609 708l-14 -63h-219l-138 -645h-69l138 645h-219l13 63h508zM125 -135q10 22 18 43.5t11 31.5l3 11h66q-12 -42 -36 -90q-13 -26 -28.5 -49.5t-24.5 -34.5l-8 -11h-57q30 43 56 99z" />
    <glyph glyph-name="uni021B" unicode="&#x21b;" horiz-adv-x="326" 
d="M196 481l-59 -283q-9 -46 -10.5 -78t16 -49.5t57.5 -17.5h48l-11 -55h-56q-41 0 -67.5 11t-38.5 28t-15 45t0 53.5t11 62.5l59 283h-67l11 54h67l32 155l69 13l-35 -168h137l-11 -54h-137zM68 -138q10 22 18 43.5t11 32.5l3 11h67q-13 -42 -37 -90q-13 -26 -28.5 -49.5
t-24.5 -34.5l-9 -11h-57q30 43 57 98z" />
    <glyph glyph-name="uni0232" unicode="&#x232;" horiz-adv-x="554" 
d="M488 839l-12 -53h-229l12 53h229zM543 708h83l-331 -437l-56 -271h-69l57 271l-158 437h74l129 -367z" />
    <glyph glyph-name="uni0233" unicode="&#x233;" horiz-adv-x="475" 
d="M428 708l-12 -53h-229l11 53h230zM443 535h76l-428 -754h-67l122 219h-18l-90 535h68l72 -477z" />
    <glyph glyph-name="uni0237" unicode="&#x237;" horiz-adv-x="239" 
d="M-131 -188l12 57q29 0 49 3t35.5 13t24.5 19.5t17 32.5t12 41t12 55l104 502h67l-105 -502q-15 -70 -27 -106.5t-37 -66t-63 -39t-101 -9.5z" />
    <glyph glyph-name="uni0259" unicode="&#x259;" horiz-adv-x="563" 
d="M329 546q118 0 158 -69.5t11 -206.5q-30 -142 -96 -211.5t-189 -69.5q-112 0 -155 67.5t-12 219.5h385q12 65 12.5 113t-30 76t-95.5 28q-76 0 -122.5 -39.5t-55.5 -79.5h-69q5 24 19.5 49.5t42 55t79 48.5t117.5 19zM224 40q143 0 195 186h-316q-15 -97 11.5 -141.5
t109.5 -44.5z" />
    <glyph glyph-name="uni0272" unicode="&#x272;" horiz-adv-x="587" 
d="M378 545q95 0 128.5 -51t6.5 -176l-66 -318h-66l65 313q12 56 11 94.5t-25.5 58.5t-77.5 20q-101 0 -188 -121l-68 -322q-10 -47 -17.5 -75.5t-20 -56t-27 -42.5t-38 -27t-53.5 -16t-73 -4l12 57q28 0 48 3t35 12t24 18.5t17 30.5t13 39t12 52l75 360l20 141h57l-9 -102
q32 43 84.5 77.5t120.5 34.5z" />
    <glyph glyph-name="circumflex" unicode="&#x2c6;" horiz-adv-x="429" 
d="M381 629h-63l-50 88l-87 -88h-67l135 138h54z" />
    <glyph glyph-name="caron" unicode="&#x2c7;" horiz-adv-x="429" 
d="M342 767h67l-135 -138h-55l-77 138h63l50 -88z" />
    <glyph glyph-name="breve" unicode="&#x2d8;" horiz-adv-x="421" 
d="M321 741h53q-9 -46 -46.5 -80t-99.5 -34q-58 0 -83 34.5t-16 79.5h54q-5 -23 8 -42.5t48 -19.5q32 0 54.5 20t27.5 42z" />
    <glyph glyph-name="dotaccent" unicode="&#x2d9;" horiz-adv-x="311" 
d="M130 636l27 123h66l-26 -123h-67z" />
    <glyph glyph-name="ring" unicode="&#x2da;" horiz-adv-x="381" 
d="M199 626q-38 0 -56 24t-10 58q7 35 32.5 58.5t67.5 23.5q38 0 56.5 -24t11.5 -58q-7 -35 -33.5 -58.5t-68.5 -23.5zM209 670q15 0 28 10.5t16 27.5q8 38 -29 38q-15 0 -28 -10.5t-16 -27.5q-8 -38 29 -38z" />
    <glyph glyph-name="ogonek" unicode="&#x2db;" horiz-adv-x="379" 
d="M48 11l46 -9q-10 -4 -24.5 -11.5t-42 -32.5t-32.5 -52q-4 -20 4.5 -30.5t25.5 -10.5q10 0 22.5 3.5t19.5 6.5l7 3l-8 -40q-32 -19 -76 -19q-36 0 -50.5 19t-8.5 52q7 33 36.5 63.5t54.5 44.5z" />
    <glyph glyph-name="tilde" unicode="&#x2dc;" horiz-adv-x="429" 
d="M362 730h39q-10 -45 -30.5 -71t-64.5 -26q-31 0 -50 21.5t-39 21.5q-24 0 -37.5 -16t-15.5 -31h-38q19 95 95 95q31 0 49.5 -20t38.5 -20q24 0 37.5 16t15.5 30z" />
    <glyph glyph-name="hungarumlaut" unicode="&#x2dd;" horiz-adv-x="420" 
d="M120 629l94 138h76l-109 -138h-61zM253 629l107 138h75l-121 -138h-61z" />
    <glyph glyph-name="gravecomb" unicode="&#x300;" 
d="M9 629h-60l-57 138h75z" />
    <glyph glyph-name="acutecomb" unicode="&#x301;" 
d="M-133 629l99 138h75l-114 -138h-60z" />
    <glyph glyph-name="uni0302" unicode="&#x302;" 
d="M17 629h-63l-50 88l-87 -88h-67l135 138h54z" />
    <glyph glyph-name="tildecomb" unicode="&#x303;" 
d="M-13 730h39q-10 -45 -30.5 -71t-64.5 -26q-31 0 -50 21.5t-39 21.5q-24 0 -37.5 -16t-15.5 -31h-38q19 95 95 95q31 0 49.5 -20t38.5 -20q24 0 37.5 16t15.5 30z" />
    <glyph glyph-name="uni0304" unicode="&#x304;" 
d="M-207 708h230l-12 -53h-229z" />
    <glyph glyph-name="uni0306" unicode="&#x306;" 
d="M-6 741h53q-9 -46 -46.5 -80t-99.5 -34q-58 0 -83 34.5t-16 79.5h54q-5 -23 8 -42.5t48 -19.5q32 0 54.5 20t27.5 42z" />
    <glyph glyph-name="uni0307" unicode="&#x307;" 
d="M-64 636l27 123h66l-26 -123h-67z" />
    <glyph glyph-name="uni0308" unicode="&#x308;" 
d="M-220 630l26 123h66l-26 -123h-66zM-72 630l26 123h66l-25 -123h-67z" />
    <glyph glyph-name="uni030A" unicode="&#x30a;" 
d="M-70 626q-38 0 -56 24t-10 58q7 35 32.5 58.5t67.5 23.5q38 0 56.5 -24t11.5 -58q-7 -35 -33.5 -58.5t-68.5 -23.5zM-60 670q15 0 28 10.5t16 27.5q8 38 -29 38q-15 0 -28 -10.5t-16 -27.5q-8 -38 29 -38z" />
    <glyph glyph-name="uni030B" unicode="&#x30b;" 
d="M-273 629l94 138h76l-109 -138h-61zM-140 629l107 138h75l-121 -138h-61z" />
    <glyph glyph-name="uni030C" unicode="&#x30c;" 
d="M-22 767h67l-135 -138h-55l-77 138h63l50 -88z" />
    <glyph glyph-name="uni0312" unicode="&#x312;" 
d="M-10 803h59q-32 -47 -63 -115q-12 -28 -21 -53.5t-12 -37.5l-3 -12h-69q10 45 40 107q15 31 32 59t27 40z" />
    <glyph glyph-name="dotbelowcomb" unicode="&#x323;" 
d="M-233 -180l23 110h66l-23 -110h-66z" />
    <glyph glyph-name="uni0326" unicode="&#x326;" 
d="M-263 -232h-57q30 43 57 98q10 22 18 43.5t11 32.5l3 11h67q-13 -42 -37 -90q-13 -26 -28.5 -49.5t-24.5 -34.5z" />
    <glyph glyph-name="uni0327" unicode="&#x327;" 
d="M-173 3l-40 -56q37 -3 57 -21.5t12 -54.5q-18 -86 -130 -86q-19 0 -34.5 1.5t-21.5 2.5l-6 1l10 44q18 -5 50 -5q33 0 50.5 9.5t22.5 35.5q11 46 -80 46h-5l58 83h57z" />
    <glyph glyph-name="uni0328" unicode="&#x328;" 
d="M-185 11l46 -9q-10 -4 -24.5 -11.5t-42 -32.5t-32.5 -52q-4 -20 4.5 -30.5t25.5 -10.5q10 0 22.5 3.5t19.5 6.5l7 3l-8 -40q-32 -19 -76 -19q-36 0 -50.5 19t-8.5 52q7 33 36.5 63.5t55.5 44.5z" />
    <glyph glyph-name="uni0335" unicode="&#x335;" 
d="M-320 303l10 47h271l-10 -47h-271z" />
    <glyph glyph-name="uni0336" unicode="&#x336;" 
d="M-711 301l11 53h634l-11 -53h-634z" />
    <glyph glyph-name="uni0337" unicode="&#x337;" 
d="M-316 208l-16 45l286 158l16 -45z" />
    <glyph glyph-name="uni0338" unicode="&#x338;" 
d="M-434 107l500 548h57l-500 -548h-57z" />
    <glyph glyph-name="pi" unicode="&#x3c0;" horiz-adv-x="599" 
d="M491 492l-64 -307q-6 -29 -8.5 -42.5t-3 -35t4.5 -31.5t18 -18t35 -8h18l-10 -50h-18q-59 0 -84.5 23.5t-23 65t13.5 96.5l63 307h-208l-102 -492h-58l102 492h-88l12 57h501l-12 -57h-88z" />
    <glyph glyph-name="Wgrave" unicode="&#x1e80;" horiz-adv-x="914" 
d="M555 760h-60l-59 126h75zM908 708h78l-358 -708h-71l-51 610l-299 -610h-67l-67 708h71l47 -611l296 611h72l52 -612z" />
    <glyph glyph-name="wgrave" unicode="&#x1e81;" horiz-adv-x="727" 
d="M453 629h-60l-57 138h75zM695 535h71l-274 -535h-63l-40 450l-220 -450h-65l-58 535h66l40 -447l215 447h73l39 -447z" />
    <glyph glyph-name="Wacute" unicode="&#x1e82;" horiz-adv-x="914" 
d="M680 886l-112 -126h-63l97 126h78zM908 708h78l-358 -708h-71l-51 610l-299 -610h-67l-67 708h71l47 -611l296 611h72l52 -612z" />
    <glyph glyph-name="wacute" unicode="&#x1e83;" horiz-adv-x="727" 
d="M557 767l-114 -138h-60l99 138h75zM695 535h71l-274 -535h-63l-40 450l-220 -450h-65l-58 535h66l40 -447l215 447h73l39 -447z" />
    <glyph glyph-name="Wdieresis" unicode="&#x1e84;" horiz-adv-x="914" 
d="M520 883l-26 -123h-67l26 123h67zM666 883l-25 -123h-66l25 123h66zM908 708h78l-358 -708h-71l-51 610l-299 -610h-67l-67 708h71l47 -611l296 611h72l52 -612z" />
    <glyph glyph-name="wdieresis" unicode="&#x1e85;" horiz-adv-x="727" 
d="M412 753l-26 -123h-66l26 123h66zM560 753l-25 -123h-67l26 123h66zM695 535h71l-274 -535h-63l-40 450l-220 -450h-65l-58 535h66l40 -447l215 447h73l39 -447z" />
    <glyph glyph-name="uni1EA0" unicode="&#x1ea0;" horiz-adv-x="606" 
d="M545 0h-69l-29 191h-319l-109 -191h-73l414 708h67zM162 251h275l-58 379zM175 -180l23 110h66l-23 -110h-66z" />
    <glyph glyph-name="uni1EA1" unicode="&#x1ea1;" horiz-adv-x="552" 
d="M321 544q59 0 96 -16t53 -37t17 -64.5t-3.5 -73t-17.5 -88.5l-28 -130l-17 -134h-57l6 80q-68 -91 -210 -91q-177 0 -145 157q8 39 24.5 67.5t40.5 45t55.5 27t69 14t81 4.5t91.5 0h31q6 32 9 50.5t5 41.5t-0.5 35.5t-9.5 26t-20 20t-32.5 10.5t-46.5 4q-79 0 -119 -36
t-49 -81h-60q36 168 236 168zM182 38q67 0 119 31t77 86l21 104q-159 1 -204 -7q-85 -16 -109 -80q-4 -12 -7 -27q-11 -52 11 -79.5t92 -27.5zM141 -180l23 110h66l-23 -110h-66z" />
    <glyph glyph-name="uni1EB8" unicode="&#x1eb8;" horiz-adv-x="557" 
d="M596 647h-371l-52 -249h322l-13 -59h-321l-58 -278h376l-13 -61h-444l147 708h439zM173 -180l23 110h66l-23 -110h-66z" />
    <glyph glyph-name="uni1EB9" unicode="&#x1eb9;" horiz-adv-x="559" 
d="M329 546q227 0 169 -275h-385l-1 -7q-12 -66 -13.5 -115.5t29.5 -78.5t97 -29q76 0 123 40t56 80h68q-5 -24 -19.5 -49.5t-42.5 -55t-79 -48.5t-117 -19q-118 0 -158 69t-12 207q30 142 96 211.5t189 69.5zM127 321h315q11 87 -16.5 130t-107.5 43q-138 0 -191 -173z
M148 -180l23 110h66l-23 -110h-66z" />
    <glyph glyph-name="uni1EBC" unicode="&#x1ebc;" horiz-adv-x="557" 
d="M356 806q-40 0 -53 -46h-38q23 99 96 99q31 0 50 -20t38 -20q24 0 37.5 16t15.5 30h39q-20 -101 -96 -101q-30 0 -49.5 21t-39.5 21zM596 647h-371l-52 -249h322l-13 -59h-321l-58 -278h376l-13 -61h-444l147 708h439z" />
    <glyph glyph-name="uni1EBD" unicode="&#x1ebd;" horiz-adv-x="559" 
d="M311 676q-24 0 -37.5 -16t-15.5 -31h-38q19 95 95 95q31 0 49.5 -20t38.5 -20q24 0 37.5 16t15.5 30h39q-10 -45 -30.5 -71t-64.5 -26q-31 0 -50 21.5t-39 21.5zM329 546q227 0 169 -275h-385l-1 -7q-12 -66 -13.5 -115.5t29.5 -78.5t97 -29q76 0 123 40t56 80h68
q-5 -24 -19.5 -49.5t-42.5 -55t-79 -48.5t-117 -19q-118 0 -158 69t-12 207q30 142 96 211.5t189 69.5zM127 321h315q11 87 -16.5 130t-107.5 43q-138 0 -191 -173z" />
    <glyph glyph-name="uni1ECA" unicode="&#x1eca;" horiz-adv-x="244" 
d="M22 0l147 708h69l-148 -708h-68zM-14 -180l23 110h66l-23 -110h-66z" />
    <glyph glyph-name="uni1ECB" unicode="&#x1ecb;" horiz-adv-x="220" 
d="M144 636l27 123h66l-26 -123h-67zM10 0l111 535h66l-111 -535h-66zM-27 -180l23 110h66l-23 -110h-66z" />
    <glyph glyph-name="uni1ECC" unicode="&#x1ecc;" horiz-adv-x="686" 
d="M273 -17q-151 0 -198.5 93.5t-9.5 276.5q40 187 123.5 279.5t239.5 92.5q151 0 198 -94t9 -278q-39 -186 -122 -278t-240 -92zM287 44q113 0 179 75t99 234q37 157 4 234t-154 77q-113 0 -179.5 -76t-99.5 -235q-37 -157 -4 -233t155 -76zM205 -187l23 110h66l-23 -110
h-66z" />
    <glyph glyph-name="uni1ECD" unicode="&#x1ecd;" horiz-adv-x="570" 
d="M217 -11q-232 0 -173 277q29 136 94.5 208t194.5 72q83 0 128.5 -35.5t52.5 -98t-9 -146.5q-28 -135 -93.5 -206t-194.5 -71zM228 43q86 0 135.5 55.5t73.5 167.5q14 72 12 122.5t-33 77t-95 26.5q-162 0 -209 -226q-27 -109 -2.5 -166t118.5 -57zM149 -180l23 110h66
l-23 -110h-66z" />
    <glyph glyph-name="uni1EE4" unicode="&#x1ee4;" horiz-adv-x="676" 
d="M267 -17q-98 0 -148 42t-56 122.5t18 198.5l76 362h69l-76 -362q-38 -157 -12 -229.5t142 -72.5q106 0 164 71t91 231l76 362h71l-76 -362q-39 -189 -113 -276t-226 -87zM200 -180l23 110h66l-23 -110h-66z" />
    <glyph glyph-name="uni1EE5" unicode="&#x1ee5;" horiz-adv-x="598" 
d="M476 535h66l-81 -387l-22 -148h-56l10 113q-29 -44 -84 -84t-128 -40q-93 0 -126.5 51t-8.5 173l68 322h65l-65 -313q-22 -83 -3 -128.5t94 -45.5q35 0 69.5 16t60.5 42t41.5 45.5t27.5 37.5zM151 -180l23 110h66l-23 -110h-66z" />
    <glyph glyph-name="Ygrave" unicode="&#x1ef2;" horiz-adv-x="554" 
d="M378 760h-60l-59 126h75zM543 708h83l-331 -437l-56 -271h-69l57 271l-158 437h74l129 -367z" />
    <glyph glyph-name="ygrave" unicode="&#x1ef3;" horiz-adv-x="475" 
d="M323 629h-60l-57 138h75zM443 535h76l-428 -754h-67l122 219h-18l-90 535h68l72 -477z" />
    <glyph glyph-name="uni1EF8" unicode="&#x1ef8;" horiz-adv-x="554" 
d="M321 806q-40 0 -53 -46h-38q22 99 96 99q31 0 50 -20t38 -20q24 0 37.5 16t15.5 30h39q-20 -101 -96 -101q-30 0 -49.5 21t-39.5 21zM543 708h83l-331 -437l-56 -271h-69l57 271l-158 437h74l129 -367z" />
    <glyph glyph-name="uni1EF9" unicode="&#x1ef9;" horiz-adv-x="475" 
d="M261 676q-24 0 -37.5 -16t-15.5 -31h-38q19 95 95 95q31 0 49.5 -20t38.5 -20q24 0 37.5 16t15.5 30h39q-10 -45 -30.5 -71t-64.5 -26q-31 0 -50 21.5t-39 21.5zM443 535h76l-428 -754h-67l122 219h-18l-90 535h68l72 -477z" />
    <glyph glyph-name="uni2009" unicode="&#x2009;" horiz-adv-x="73" 
 />
    <glyph glyph-name="endash" unicode="&#x2013;" horiz-adv-x="599" 
d="M74 293l11 54h441l-11 -54h-441z" />
    <glyph glyph-name="emdash" unicode="&#x2014;" horiz-adv-x="903" 
d="M74 293l11 54h745l-11 -54h-745z" />
    <glyph glyph-name="uni2016" unicode="&#x2016;" horiz-adv-x="544" 
d="M52 -180l212 1000h58l-212 -1000h-58zM222 -180l212 1000h58l-212 -1000h-58z" />
    <glyph glyph-name="quoteleft" unicode="&#x2018;" horiz-adv-x="193" 
d="M153 536h-70q7 39 39 107q15 32 33 61t29 42l11 14h59q-36 -52 -66 -121q-13 -31 -22 -56.5t-11 -36.5z" />
    <glyph glyph-name="quoteright" unicode="&#x2019;" horiz-adv-x="186" 
d="M129 536h-59q37 52 66 121q13 31 22 56.5t11 36.5l2 10h70q-7 -38 -39 -107q-15 -32 -33 -61t-29 -42z" />
    <glyph glyph-name="quotesinglbase" unicode="&#x201a;" horiz-adv-x="205" 
d="M7 -104h-58q36 51 65 120q13 31 22 56.5t11 35.5l2 11h70q-7 -38 -39 -106q-15 -32 -33.5 -61t-28.5 -42z" />
    <glyph glyph-name="quotedblleft" unicode="&#x201c;" horiz-adv-x="329" 
d="M158 536h-69q7 39 40 107q15 32 32.5 61t28.5 42l10 14h59q-34 -52 -64 -121q-14 -31 -23 -56.5t-12 -36.5zM294 536h-69q6 39 39 107q15 32 33 61t29 42l10 14h59q-36 -52 -65 -121q-13 -31 -22 -56.5t-12 -36.5z" />
    <glyph glyph-name="quotedblright" unicode="&#x201d;" horiz-adv-x="328" 
d="M131 536h-59q36 52 65 121q13 31 22 56.5t11 36.5l3 10h69q-7 -38 -39 -107q-15 -32 -33 -61t-28 -42zM267 536h-59q36 52 65 121q13 31 22 56.5t11 36.5l3 10h69q-8 -38 -40 -107q-15 -32 -32.5 -61t-27.5 -42z" />
    <glyph glyph-name="quotedblbase" unicode="&#x201e;" horiz-adv-x="327" 
d="M-6 -118h-59q37 52 66 120q13 31 21.5 56.5t11.5 35.5l2 11h70q-8 -38 -39 -106q-15 -32 -33 -61t-29 -42zM130 -118h-59q35 52 65 120q13 31 22 56.5t12 35.5l2 11h69q-8 -38 -39 -106q-15 -32 -33 -61t-29 -42z" />
    <glyph glyph-name="dagger" unicode="&#x2020;" horiz-adv-x="497" 
d="M482 571l-12 -56h-159l-107 -515h-58l107 515h-160l12 56h159l42 200h58l-42 -200h160z" />
    <glyph glyph-name="daggerdbl" unicode="&#x2021;" horiz-adv-x="535" 
d="M496 515h-159l-55 -259h161l-12 -56h-160l-42 -200h-58l42 200h-159l12 56h158l55 259h-160l12 56h159l42 200h58l-42 -200h160z" />
    <glyph glyph-name="bullet" unicode="&#x2022;" horiz-adv-x="422" 
d="M144 233l27 127h98l-26 -127h-99z" />
    <glyph glyph-name="ellipsis" unicode="&#x2026;" horiz-adv-x="552" 
d="M23 0l26 119h67l-24 -119h-69zM176 0l25 119h68l-25 -119h-68zM328 0l25 119h69l-25 -119h-69z" />
    <glyph glyph-name="perthousand" unicode="&#x2030;" horiz-adv-x="1055" 
d="M183 370q-152 0 -116 168q17 84 60.5 128.5t126.5 44.5q151 0 116 -173q-17 -82 -60 -125t-127 -43zM193 414q98 0 122 124q14 65 -1 97t-69 32q-96 0 -124 -129q-13 -64 2 -94t70 -30zM23 0l597 702h64l-598 -702h-63zM448 -9q-153 0 -117 168q17 84 60.5 128.5
t126.5 44.5q152 0 116 -173q-17 -82 -59.5 -125t-126.5 -43zM457 35q51 0 80 31t42 93q16 61 0.5 95t-70.5 34q-96 0 -124 -129q-13 -64 2 -94t70 -30zM790 -9q-151 0 -116 168q18 85 61.5 129t126.5 44q151 0 115 -173q-17 -82 -60 -125t-127 -43zM800 35q51 0 80.5 31
t42.5 93q13 65 -1.5 97t-69.5 32q-96 0 -123 -129q-14 -64 1 -94t70 -30z" />
    <glyph glyph-name="guilsinglleft" unicode="&#x2039;" horiz-adv-x="328" 
d="M285 429l-160 -172l88 -155h-72l-84 149l5 22l147 156h76z" />
    <glyph glyph-name="guilsinglright" unicode="&#x203a;" horiz-adv-x="329" 
d="M166 429l82 -156l-5 -22l-145 -149h-76l158 165l-86 162h72z" />
    <glyph glyph-name="fraction" unicode="&#x2044;" horiz-adv-x="244" 
d="M-245 -40l688 825h68l-688 -825h-68z" />
    <glyph glyph-name="uni2070" unicode="&#x2070;" horiz-adv-x="485" 
d="M172 316q-104 0 -134.5 64.5t0.5 196.5q30 141 84 203t162 62q103 0 133.5 -65.5t-1.5 -199.5q-29 -138 -83 -199.5t-161 -61.5zM182 366q69 0 111 48.5t66 162.5q26 118 6.5 167t-92.5 49q-69 0 -111 -50t-66 -166q-25 -116 -6 -163.5t92 -47.5z" />
    <glyph glyph-name="uni2074" unicode="&#x2074;" horiz-adv-x="429" 
d="M379 834l-75 -354h60l-9 -46h-61l-23 -110h-57l24 110h-257l10 46l328 354h60zM49 480h198l61 283z" />
    <glyph glyph-name="uni2075" unicode="&#x2075;" horiz-adv-x="447" 
d="M404 782l-225 2l-62 -162q46 37 124 37t111 -47t17 -125q-37 -171 -215 -171q-88 0 -125.5 41t-25.5 99h58q-8 -39 17 -66.5t86 -27.5q59 0 98 32.5t52 92.5q12 61 -12.5 93.5t-83.5 32.5q-37 0 -68 -13t-44 -26l-12 -13h-52l83 224l16 44h273z" />
    <glyph glyph-name="uni2076" unicode="&#x2076;" horiz-adv-x="474" 
d="M414 704h-56q8 38 -11.5 66.5t-76.5 28.5q-58 0 -99 -45t-70 -159q60 64 154 64q85 0 116.5 -46.5t14.5 -125.5q-35 -171 -219 -171q-96 0 -128 57t-6 177q34 161 89.5 227.5t157.5 66.5q83 0 114.5 -43t19.5 -97zM237 612q-89 0 -150 -82q-17 -91 4.5 -129.5t85.5 -38.5
q125 0 150 123q28 127 -90 127z" />
    <glyph glyph-name="uni2077" unicode="&#x2077;" horiz-adv-x="364" 
d="M89 324h-62q15 71 49.5 144.5t73.5 128t76 98.5t61 67l24 23l-266 -2l10 48h334l-10 -48q-10 -9 -26 -25t-60 -66t-80.5 -101.5t-72.5 -125t-51 -141.5z" />
    <glyph glyph-name="uni2078" unicode="&#x2078;" horiz-adv-x="473" 
d="M14 465q14 65 55 98t72 34q-23 2 -46.5 29t-13.5 78q30 140 198 140q84 0 116.5 -37.5t18.5 -102.5q-7 -36 -30 -61.5t-42.5 -35t-33.5 -10.5q30 -1 57.5 -34.5t14.5 -97.5q-15 -72 -65.5 -110.5t-148.5 -38.5q-94 0 -130.5 39t-21.5 110zM74 469q-11 -53 13.5 -78.5
t88.5 -25.5q124 0 146 104q11 51 -12 76.5t-90 25.5q-124 0 -146 -102zM136 700q-9 -42 12.5 -63t81.5 -21q111 0 128 84q11 50 -10.5 74t-78.5 24q-111 0 -133 -98z" />
    <glyph glyph-name="uni2079" unicode="&#x2079;" horiz-adv-x="474" 
d="M277 844q97 0 129 -58.5t4 -188.5q-34 -159 -87.5 -220t-158.5 -61q-89 0 -123.5 43t-22.5 96h56q-8 -38 14.5 -66t84.5 -28q60 0 99.5 40t68.5 149q-61 -65 -155 -65q-85 0 -116 49.5t-13 135.5q36 174 220 174zM206 534q90 0 150 82q19 101 -2 141t-87 40
q-123 0 -151 -127q-28 -136 90 -136z" />
    <glyph glyph-name="Euro" unicode="&#x20ac;" horiz-adv-x="648" 
d="M460 699q96 0 139.5 -57.5t29.5 -138.5h-63q9 60 -20.5 97.5t-97.5 37.5q-141 0 -209 -191h195l-9 -45h-200q-6 -20 -13 -52q-5 -20 -11 -63h200l-9 -45h-196q-6 -89 24.5 -133.5t108.5 -44.5q58 0 106 35.5t63 86.5h62q-22 -79 -83.5 -131t-160.5 -52q-200 0 -185 239
h-73l10 45h67l11 63l12 52h-66l9 45h70q39 120 107.5 186t181.5 66z" />
    <glyph glyph-name="uni20BD" unicode="&#x20bd;" horiz-adv-x="657" 
d="M252 711h190q129 0 183.5 -45.5t31.5 -155.5q-23 -109 -93 -153t-206 -44h-120l-18 -84h172l-11 -53h-172l-37 -177h-68l37 177h-91l11 53h91l17 84h-90l12 58h90zM588 511q17 84 -24 111.5t-136 27.5h-120l-58 -280h119q42 0 73 5t63 19t53 43.5t30 73.5z" />
    <glyph glyph-name="uni2116" unicode="&#x2116;" horiz-adv-x="1178" 
d="M629 708h68l-147 -708h-75l-259 606l-129 -606h-65l150 708h75l261 -612zM947 577q71 0 108.5 -28.5t42 -79.5t-8.5 -120q-23 -113 -75 -169.5t-161 -56.5q-102 0 -132.5 58t-7.5 168q24 112 76 170t158 58zM1026 349q11 55 10 94.5t-25 60.5t-74 21q-124 0 -161 -176
q-21 -84 -2.5 -128.5t90.5 -44.5q126 0 162 173zM639 0l12 53h383l-11 -53h-384z" />
    <glyph glyph-name="uni2117" unicode="&#x2117;" horiz-adv-x="777" 
d="M471 713q75 0 130 -19.5t85.5 -53t45 -80.5t13.5 -99t-14 -113q-16 -76 -46.5 -138t-78.5 -113.5t-122 -80t-167 -28.5q-74 0 -128.5 19t-85.5 52t-45.5 79.5t-14 98t12.5 111.5q17 77 48 139.5t79.5 115t122 81.5t165.5 29zM684 348q11 53 12.5 98.5t-11 88t-38.5 72
t-73 47.5t-112 18q-80 0 -143.5 -26.5t-106 -73t-69 -102t-40.5 -122.5q-16 -63 -11 -120.5t26.5 -101.5t74.5 -70.5t133 -26.5t144 26t106 71.5t68 100.5t40 121zM298 550h151q84 0 115.5 -29.5t14.5 -108.5t-60.5 -107.5t-129.5 -28.5h-88l-29 -134h-61zM517 412
q11 55 -11 71.5t-69 16.5h-89l-37 -175h89q23 0 38 2.5t32 10.5t29 26.5t18 47.5z" />
    <glyph glyph-name="uni2120" unicode="&#x2120;" horiz-adv-x="710" 
d="M229 731q120 0 98 -101h-37q6 26 -7.5 46t-59.5 20q-40 0 -64 -17.5t-28 -39.5q-6 -29 12 -44t47.5 -21t58.5 -14t45.5 -31.5t7.5 -65.5q-9 -45 -47 -69.5t-99 -24.5q-127 0 -102 111h38q-17 -76 70 -76q41 0 67.5 17t31.5 41q7 32 -11 48.5t-47 23t-58 13.5t-46 29.5
t-8 63.5q20 91 138 91zM735 719l-73 -342h-40l62 285l-168 -286h-41l-42 285l-57 -284h-39l72 342h55l44 -292l169 292h58z" />
    <glyph glyph-name="trademark" unicode="&#x2122;" horiz-adv-x="662" 
d="M314 686h-104l-66 -309h-39l66 309h-103l7 36h247zM687 719l-72 -342h-41l62 285l-167 -286h-40l-44 287l-58 -286h-38l71 342h57l43 -290l168 290h59z" />
    <glyph glyph-name="oneeighth" unicode="&#x215b;" horiz-adv-x="938" 
d="M879 380q-7 -36 -30 -61.5t-42.5 -35t-33.5 -10.5q30 -1 57.5 -34.5t14.5 -97.5q-15 -72 -65.5 -110.5t-148.5 -38.5q-94 0 -130.5 39t-21.5 110q14 65 55 98t72 34q-23 2 -46.5 29t-13.5 78q30 140 198 140q84 0 116.5 -37.5t18.5 -102.5zM787 145q11 51 -12 76.5
t-90 25.5q-124 0 -146 -102q-11 -53 13.5 -78.5t88.5 -25.5q124 0 146 104zM823 376q11 50 -10.5 74t-78.5 24q-111 0 -133 -98q-9 -42 12.5 -63t81.5 -21q111 0 128 84zM683 785h68l-688 -825h-68zM36 248l97 458l-104 -46l11 49l122 52h41l-109 -513h-58z" />
    <glyph glyph-name="threeeighths" unicode="&#x215c;" horiz-adv-x="1118" 
d="M1059 380q-7 -36 -30 -61.5t-42.5 -35t-33.5 -10.5q30 -1 57.5 -34.5t14.5 -97.5q-15 -72 -65.5 -110.5t-148.5 -38.5q-94 0 -130.5 39t-21.5 110q14 65 55 98t72 34q-23 2 -46.5 29t-13.5 78q30 140 198 140q84 0 116.5 -37.5t18.5 -102.5zM967 145q11 51 -12 76.5
t-90 25.5q-124 0 -146 -102q-11 -53 13.5 -78.5t88.5 -25.5q124 0 146 104zM1003 376q11 50 -10.5 74t-78.5 24q-111 0 -133 -98q-9 -42 12.5 -63t81.5 -21q111 0 128 84zM347 407q-36 -167 -214 -167q-84 0 -119 42.5t-22 106.5h57q-10 -43 13.5 -71.5t80.5 -28.5
q59 0 97.5 31.5t50.5 88.5q12 59 -13 91.5t-90 32.5l-62 -6l7 39l191 142l-240 -3l10 48h316l-9 -44l-182 -137q160 -12 128 -165zM863 785h68l-688 -825h-68z" />
    <glyph glyph-name="fiveeighths" unicode="&#x215d;" horiz-adv-x="1139" 
d="M1080 380q-7 -36 -30 -61.5t-42.5 -35t-33.5 -10.5q30 -1 57.5 -34.5t14.5 -97.5q-15 -72 -65.5 -110.5t-148.5 -38.5q-94 0 -130.5 39t-21.5 110q14 65 55 98t72 34q-23 2 -46.5 29t-13.5 78q30 140 198 140q84 0 116.5 -37.5t18.5 -102.5zM988 145q11 51 -12 76.5
t-90 25.5q-124 0 -146 -102q-11 -53 13.5 -78.5t88.5 -25.5q124 0 146 104zM1024 376q11 50 -10.5 74t-78.5 24q-111 0 -133 -98q-9 -42 12.5 -63t81.5 -21q111 0 128 84zM369 411q-37 -171 -215 -171q-88 0 -125.5 41t-25.5 99h58q-8 -39 17 -66.5t86 -27.5q59 0 98 32.5
t52 92.5q12 61 -12.5 93.5t-83.5 32.5q-37 0 -68 -13t-44 -26l-12 -13h-52l83 224l16 44h273l-10 -47l-225 2l-62 -162q46 37 124 37t111 -47t17 -125zM884 785h68l-688 -825h-68z" />
    <glyph glyph-name="seveneighths" unicode="&#x215e;" horiz-adv-x="1009" 
d="M550 141q14 65 55 98t72 34q-23 2 -46.5 29t-13.5 78q30 140 198 140q84 0 116.5 -37.5t18.5 -102.5q-7 -36 -30 -61.5t-42.5 -35t-33.5 -10.5q30 -1 57.5 -34.5t14.5 -97.5q-15 -72 -65.5 -110.5t-148.5 -38.5q-94 0 -130.5 39t-21.5 110zM610 145q-11 -53 13.5 -78.5
t88.5 -25.5q124 0 146 104q11 51 -12 76.5t-90 25.5q-124 0 -146 -102zM672 376q-9 -42 12.5 -63t81.5 -21q111 0 128 84q11 50 -10.5 74t-78.5 24q-111 0 -133 -98zM66 -40l688 825h68l-688 -825h-68zM89 248h-62q15 71 49.5 144.5t73.5 128t76 98.5t61 67l24 23l-266 -2
l10 48h334l-10 -48q-10 -9 -26 -25t-60 -66t-80.5 -101.5t-72.5 -125t-51 -141.5z" />
    <glyph glyph-name="arrowleft" unicode="&#x2190;" horiz-adv-x="707" 
d="M645 329v-67l-499 4l209 -162l-36 -43l-295 233l295 236l36 -42l-210 -162z" />
    <glyph glyph-name="arrowup" unicode="&#x2191;" horiz-adv-x="555" 
d="M494 322l-43 -36l-163 211l4 -502h-67l4 500l-162 -209l-43 36l233 294z" />
    <glyph glyph-name="arrowright" unicode="&#x2192;" horiz-adv-x="706" 
d="M350 540l295 -234l-295 -236l-35 43l209 162l-499 -4l-1 68l500 -4l-209 162z" />
    <glyph glyph-name="arrowdown" unicode="&#x2193;" horiz-adv-x="555" 
d="M451 316l43 -36l-233 -295l-237 295l43 36l162 -210l-3 500l67 1l-4 -500z" />
    <glyph glyph-name="arrowboth" unicode="&#x2194;" horiz-adv-x="977" 
d="M621 504l295 -237l-295 -233l-36 44l206 159l-645 2l209 -161l-36 -44l-295 233l295 237l36 -42l-211 -163l649 2l-208 161z" />
    <glyph glyph-name="arrowupdn" unicode="&#x2195;" horiz-adv-x="555" 
d="M291 -49l161 209l42 -36l-237 -295l-233 295l44 36l159 -207l2 646l-161 -209l-44 36l233 295l237 -295l-42 -36l-163 210z" />
    <glyph glyph-name="uni2196" unicode="&#x2196;" horiz-adv-x="550" 
d="M499 89l-48 -48l-351 355l34 -261l-56 -5l-44 373l377 -41l-5 -55l-264 34z" />
    <glyph glyph-name="uni2197" unicode="&#x2197;" horiz-adv-x="547" 
d="M103 461l373 43l-41 -375l-56 5l34 263l-351 -356l-48 47l356 351l-263 -34z" />
    <glyph glyph-name="uni2198" unicode="&#x2198;" horiz-adv-x="549" 
d="M102 89l5 56l264 -34l-357 351l47 48l351 -355l-34 261l56 5l44 -373z" />
    <glyph glyph-name="uni2199" unicode="&#x2199;" horiz-adv-x="547" 
d="M139 112l263 33l5 -56l-373 -44l41 377l55 -5l-34 -265l352 358l48 -48z" />
    <glyph glyph-name="minus" unicode="&#x2212;" horiz-adv-x="461" 
d="M52 288l12 57h341l-12 -57h-341z" />
    <glyph glyph-name="infinity" unicode="&#x221e;" horiz-adv-x="762" 
d="M582 458h1q83 0 112 -41.5t14 -112.5t-62 -112.5t-129 -41.5h-1q-59 0 -91.5 29.5t-57.5 82.5q-48 -53 -93 -82.5t-104 -29.5h-1q-82 0 -111 41.5t-15 112.5q15 71 62.5 112.5t129.5 41.5h1q58 0 90.5 -29.5t57.5 -83.5q48 54 93.5 83.5t103.5 29.5zM654 304
q24 106 -81 106q-47 0 -85.5 -27t-83.5 -79q23 -51 50 -78.5t74 -27.5q105 0 126 106zM180 198q48 0 86 27t83 79q-23 52 -49.5 79t-73.5 27q-105 0 -127 -106t81 -106z" />
    <glyph glyph-name="approxequal" unicode="&#x2248;" horiz-adv-x="540" 
d="M450 435h45q-9 -42 -41 -76t-93 -34q-47 0 -90 27.5t-80 27.5q-32 0 -53 -19.5t-24 -35.5h-45q9 42 41 76t93 34q47 0 90 -27.5t80 -27.5q32 0 52.5 19t24.5 36zM418 285h45q-9 -42 -40.5 -76t-92.5 -34q-47 0 -90.5 27.5t-80.5 27.5q-32 0 -53 -19.5t-24 -35.5h-45
q9 42 40.5 76t93.5 34q47 0 90 -27.5t80 -27.5q32 0 53 19.5t24 35.5z" />
    <glyph glyph-name="notequal" unicode="&#x2260;" horiz-adv-x="532" 
d="M462 353h-140l-75 -95h195l-12 -56h-227l-76 -96h-54l76 96h-99l12 56h131l75 95h-186l12 57h220l70 89h53l-70 -89h107z" />
    <glyph glyph-name="lessequal" unicode="&#x2264;" horiz-adv-x="584" 
d="M522 530l-13 -61l-350 -102l304 -112l-13 -61l-354 147l12 54zM48 100l12 57h380l-12 -57h-380z" />
    <glyph glyph-name="greaterequal" unicode="&#x2265;" horiz-adv-x="578" 
d="M144 530l357 -135l-12 -54l-417 -147l13 61l352 112l-307 102zM54 100l12 57h380l-12 -57h-380z" />
    <glyph glyph-name="acutecomb.case" 
d="M-107 760l97 126h78l-112 -126h-63z" />
    <glyph glyph-name="at.case" horiz-adv-x="840" 
d="M513 776q99 0 165.5 -32.5t95 -88t35 -130t-13.5 -158.5q-29 -136 -74 -196.5t-113 -61.5h-1q-90 0 -88 106q-59 -72 -158 -72q-167 0 -123 225q46 227 217 227q89 0 120 -82l3 15l20 59h53l-63 -301q-15 -69 -7.5 -101t42.5 -32q37 0 68 46t56 168q76 367 -243 367
q-85 0 -154 -28.5t-115.5 -80t-77 -115.5t-46.5 -143q-19 -75 -15 -140t27.5 -112.5t81.5 -74.5t149 -27q116 0 187 32l-10 -46q-81 -28 -186 -28q-79 0 -137.5 19.5t-93 55t-52.5 85t-16.5 109t14.5 127.5q19 89 52.5 159.5t86.5 128.5t133 89.5t181 31.5zM383 190
q47 0 84.5 26t58.5 62q0 5 1 8l35 165q-7 39 -31.5 68t-73.5 29q-60 0 -99.5 -47t-57.5 -133q-20 -85 -0.5 -131.5t83.5 -46.5z" />
    <glyph glyph-name="bitcoin" horiz-adv-x="559" 
d="M529 532q-12 -58 -36 -93t-75 -52q52 -18 66.5 -61.5t-0.5 -98.5q-17 -87 -58.5 -127.5t-148.5 -47.5l-21 -99h-45l21 97h-58l-20 -97h-45l20 97h-91v1h-16l133 644h109l18 88h45l-19 -88h58l19 88h44l-20 -90q82 -9 108.5 -49.5t11.5 -111.5zM417 234q13 67 -14 96.5
t-111 29.5h-138l-52 -253l137 -1q88 0 125.5 27.5t52.5 100.5zM461 525q12 61 -12.5 87.5t-98.5 26.5h-138l-47 -226l137 -1q76 0 111 26.5t48 86.5z" />
    <glyph glyph-name="braceleft.case" horiz-adv-x="387" 
d="M450 761l-13 -61q-84 0 -114 -23t-45 -92l-34 -163q-6 -30 -22 -50.5t-26 -26t-18 -7.5q45 -22 32 -83l-34 -162q-15 -72 3.5 -94t106.5 -22l-12 -61q-87 0 -126 15.5t-47 53.5t8 101l35 169q6 32 -7 44t-66 12l12 56q50 0 70 12t26 43l36 175q11 52 22.5 79.5t37 49
t66 28.5t109.5 7z" />
    <glyph glyph-name="braceright.case" horiz-adv-x="387" 
d="M-53 -84l12 61q84 0 114 23t44 91l34 164q6 29 22.5 50t27 26.5t18.5 7.5q-3 1 -7 2.5t-11 7.5t-11 15t-6.5 23.5t2.5 34.5l34 163q11 44 6.5 69.5t-30 35.5t-86.5 10l13 61q86 0 125 -15.5t46 -53t-8 -99.5l-35 -171q-6 -32 8 -44t67 -12l-12 -56q-52 0 -71.5 -12
t-26.5 -43l-36 -175q-14 -69 -32.5 -100.5t-64 -47.5t-136.5 -16z" />
    <glyph glyph-name="bracketleft.case" horiz-adv-x="340" 
d="M389 699h-146l-148 -713h146l-13 -61h-212l174 835h212z" />
    <glyph glyph-name="bracketright.case" horiz-adv-x="340" 
d="M334 760l-174 -835h-212l13 61h146l148 713h-146l13 61h212z" />
    <glyph glyph-name="caroncomb.alt" 
d="M-125 607l86 153h68l-102 -153h-52z" />
    <glyph glyph-name="caroncomb.alt.case" 
d="M-94 760l90 142h76l-105 -142h-61z" />
    <glyph glyph-name="dagger.sups" horiz-adv-x="259" 
d="M269 646l-9 -38h-71l-50 -237h-40l49 237h-72l9 38h71l18 88h41l-18 -88h72z" />
    <glyph glyph-name="daggerdbl.sups" horiz-adv-x="262" 
d="M267 608h-71l-24 -112h72l-8 -38h-72l-18 -87h-41l18 87h-71l8 38h71l23 112h-71l8 38h71l18 88h42l-18 -88h71z" />
    <glyph glyph-name="eight.dnom" horiz-adv-x="473" 
d="M14 141q14 65 55 98t72 34q-23 2 -46.5 29t-13.5 78q30 140 198 140q84 0 116.5 -37.5t18.5 -102.5q-7 -36 -30 -61.5t-42.5 -35t-33.5 -10.5q30 -1 57.5 -34.5t14.5 -97.5q-15 -72 -65.5 -110.5t-148.5 -38.5q-94 0 -130.5 39t-21.5 110zM74 145q-11 -53 13.5 -78.5
t88.5 -25.5q124 0 146 104q11 51 -12 76.5t-90 25.5q-124 0 -146 -102zM136 376q-9 -42 12.5 -63t81.5 -21q111 0 128 84q11 50 -10.5 74t-78.5 24q-111 0 -133 -98z" />
    <glyph glyph-name="eight.numr" horiz-adv-x="473" 
d="M14 389q14 65 55 98t72 34q-23 2 -46.5 29t-13.5 78q30 140 198 140q84 0 116.5 -37.5t18.5 -102.5q-7 -36 -30 -61.5t-42.5 -35t-33.5 -10.5q30 -1 57.5 -34.5t14.5 -97.5q-15 -72 -65.5 -110.5t-148.5 -38.5q-94 0 -130.5 39t-21.5 110zM74 393q-11 -53 13.5 -78.5
t88.5 -25.5q124 0 146 104q11 51 -12 76.5t-90 25.5q-124 0 -146 -102zM136 624q-9 -42 12.5 -63t81.5 -21q111 0 128 84q11 50 -10.5 74t-78.5 24q-111 0 -133 -98z" />
    <glyph glyph-name="eight.subs" horiz-adv-x="473" 
d="M14 -52q14 65 55 98t72 34q-23 2 -46.5 29t-13.5 78q30 140 198 140q84 0 116.5 -37.5t18.5 -102.5q-7 -36 -30 -61.5t-42.5 -35t-33.5 -10.5q30 -1 57.5 -34.5t14.5 -97.5q-15 -72 -65.5 -110.5t-148.5 -38.5q-94 0 -130.5 39t-21.5 110zM74 -48q-11 -53 13.5 -78.5
t88.5 -25.5q124 0 146 104q11 51 -12 76.5t-90 25.5q-124 0 -146 -102zM136 183q-9 -42 12.5 -63t81.5 -21q111 0 128 84q11 50 -10.5 74t-78.5 24q-111 0 -133 -98z" />
    <glyph glyph-name="eight.tf" horiz-adv-x="657" 
d="M50 195q13 61 48.5 104.5t67.5 59.5t56 18q-32 4 -63.5 41t-17.5 106q39 193 263 193q113 0 157 -52t25 -141q-8 -37 -27 -67t-41.5 -46t-41 -24.5t-31.5 -9.5q39 -3 76 -49t19 -133q-21 -99 -89 -152t-199 -53q-124 0 -173 54t-29 151zM121 199q-16 -76 18 -112t126 -36
q175 0 206 148q15 74 -17.5 110t-127.5 36q-86 0 -138.5 -37.5t-66.5 -108.5zM210 519q-12 -58 17 -87t111 -29q154 0 177 116q15 71 -15 104.5t-109 33.5q-153 0 -181 -138z" />
    <glyph glyph-name="exclamdown.case" horiz-adv-x="223" 
d="M143 603l23 105h65l-22 -105h-66zM18 0l118 543h58l-110 -543h-66z" />
    <glyph glyph-name="five.dnom" horiz-adv-x="447" 
d="M404 458l-225 2l-62 -162q46 37 124 37t111 -47t17 -125q-37 -171 -215 -171q-88 0 -125.5 41t-25.5 99h58q-8 -39 17 -66.5t86 -27.5q59 0 98 32.5t52 92.5q12 61 -12.5 93.5t-83.5 32.5q-37 0 -68 -13t-44 -26l-12 -13h-52l83 224l16 44h273z" />
    <glyph glyph-name="five.numr" horiz-adv-x="447" 
d="M404 706l-225 2l-62 -162q46 37 124 37t111 -47t17 -125q-37 -171 -215 -171q-88 0 -125.5 41t-25.5 99h58q-8 -39 17 -66.5t86 -27.5q59 0 98 32.5t52 92.5q12 61 -12.5 93.5t-83.5 32.5q-37 0 -68 -13t-44 -26l-12 -13h-52l83 224l16 44h273z" />
    <glyph glyph-name="five.subs" horiz-adv-x="447" 
d="M404 265l-225 2l-62 -162q46 37 124 37t111 -47t17 -125q-37 -171 -215 -171q-88 0 -125.5 41t-25.5 99h58q-8 -39 17 -66.5t86 -27.5q59 0 98 32.5t52 92.5q12 61 -12.5 93.5t-83.5 32.5q-37 0 -68 -13t-44 -26l-12 -13h-52l83 224l16 44h273z" />
    <glyph glyph-name="five.tf" horiz-adv-x="657" 
d="M579 635h-304l-80 -220q64 47 160 47q105 0 152 -62.5t24 -174.5q-49 -234 -289 -234q-114 0 -164 55.5t-32 137.5h64q-11 -54 23.5 -92.5t121.5 -38.5q80 0 135 45.5t71 126.5q18 83 -16 129.5t-118 46.5q-31 0 -59.5 -7.5t-47 -18.5t-32 -22.5t-19.5 -18.5l-6 -8l-66 1
l112 308l21 59h362z" />
    <glyph glyph-name="four.dnom" horiz-adv-x="429" 
d="M379 510l-75 -354h60l-9 -46h-61l-23 -110h-57l24 110h-257l10 46l328 354h60zM49 156h198l61 283z" />
    <glyph glyph-name="four.numr" horiz-adv-x="429" 
d="M379 758l-75 -354h60l-9 -46h-61l-23 -110h-57l24 110h-257l10 46l328 354h60zM49 404h198l61 283z" />
    <glyph glyph-name="four.subs" horiz-adv-x="429" 
d="M379 317l-75 -354h60l-9 -46h-61l-23 -110h-57l24 110h-257l10 46l328 354h60zM49 -37h198l61 283z" />
    <glyph glyph-name="four.tf" horiz-adv-x="657" 
d="M545 701l-101 -486h85l-13 -61h-85l-32 -154h-67l33 154h-345l13 61l443 486h69zM111 215h267l83 391z" />
    <glyph glyph-name="gravecomb.case" 
d="M38 760h-60l-59 126h75z" />
    <glyph glyph-name="guillemotleft.case" horiz-adv-x="468" 
d="M296 495l-160 -171l88 -156h-72l-84 150l4 21l148 156h76zM442 495l-160 -172l89 -155h-72l-85 150l5 21l147 156h76z" />
    <glyph glyph-name="guillemotright.case" horiz-adv-x="468" 
d="M257 333l-4 -22l-146 -149h-76l158 164l-86 163h73zM322 489l82 -156l-5 -22l-146 -149h-76l159 165l-86 162h72z" />
    <glyph glyph-name="guilsinglleft.case" horiz-adv-x="328" 
d="M298 489l-160 -172l88 -155h-73l-83 149l4 22l148 156h76z" />
    <glyph glyph-name="guilsinglright.case" horiz-adv-x="328" 
d="M179 489l82 -156l-5 -22l-146 -149h-76l158 164l-85 163h72z" />
    <glyph glyph-name="i.loclTRK" horiz-adv-x="220" 
d="M144 636l27 123h66l-26 -123h-67zM10 0l111 535h66l-111 -535h-66z" />
    <glyph glyph-name="nine.dnom" horiz-adv-x="474" 
d="M277 520q97 0 129 -58.5t4 -188.5q-34 -159 -87.5 -220t-158.5 -61q-89 0 -123.5 43t-22.5 96h56q-8 -38 14.5 -66t84.5 -28q60 0 99.5 40t68.5 149q-61 -65 -155 -65q-85 0 -116 49.5t-13 135.5q36 174 220 174zM206 210q90 0 150 82q19 101 -2 141t-87 40
q-123 0 -151 -127q-28 -136 90 -136z" />
    <glyph glyph-name="nine.numr" horiz-adv-x="474" 
d="M277 768q97 0 129 -58.5t4 -188.5q-34 -159 -87.5 -220t-158.5 -61q-89 0 -123.5 43t-22.5 96h56q-8 -38 14.5 -66t84.5 -28q60 0 99.5 40t68.5 149q-61 -65 -155 -65q-85 0 -116 49.5t-13 135.5q36 174 220 174zM206 458q90 0 150 82q19 101 -2 141t-87 40
q-123 0 -151 -127q-28 -136 90 -136z" />
    <glyph glyph-name="nine.subs" horiz-adv-x="474" 
d="M277 327q97 0 129 -58.5t4 -188.5q-34 -159 -87.5 -220t-158.5 -61q-89 0 -123.5 43t-22.5 96h56q-8 -38 14.5 -66t84.5 -28q60 0 99.5 40t68.5 149q-61 -65 -155 -65q-85 0 -116 49.5t-13 135.5q36 174 220 174zM206 17q90 0 150 82q19 101 -2 141t-87 40
q-123 0 -151 -127q-28 -136 90 -136z" />
    <glyph glyph-name="nine.tf" horiz-adv-x="657" 
d="M401 716q125 1 168 -80t7 -257q-46 -217 -118.5 -303.5t-207.5 -86.5q-49 0 -87.5 12.5t-60 32t-35 45t-14 51t2.5 49.5h70q-12 -51 18.5 -89.5t117.5 -38.5q83 0 135 54t92 204q-87 -91 -213 -91q-109 0 -150.5 71t-17.5 187q50 240 293 240zM301 280q124 0 206 109
q30 155 3 210.5t-122 55.5q-82 0 -137 -45.5t-73 -133.5q-20 -97 8.5 -146.5t114.5 -49.5z" />
    <glyph glyph-name="one.dnom" horiz-adv-x="233" 
d="M162 513h41l-109 -513h-58l97 458l-104 -46l11 49z" />
    <glyph glyph-name="one.numr" horiz-adv-x="233" 
d="M162 761h41l-109 -513h-58l97 458l-104 -46l11 49z" />
    <glyph glyph-name="one.subs" horiz-adv-x="233" 
d="M162 320h41l-109 -513h-58l97 458l-104 -46l11 49z" />
    <glyph glyph-name="one.tf" horiz-adv-x="657" 
d="M445 708l-135 -649h132l-14 -59h-321l13 59h122l120 579l-149 -67l14 64l162 73h56z" />
    <glyph glyph-name="paragraph.alt" horiz-adv-x="529" 
d="M537 760l-157 -760h-58l145 700h-83l-146 -700h-58l64 306q-136 2 -178 50t-15 177t89 177t198 50h199z" />
    <glyph glyph-name="parenleft.case" horiz-adv-x="289" 
d="M272 760h68l-12 -16q-12 -17 -32.5 -53t-42.5 -84t-44.5 -121t-36.5 -152q-19 -127 -16.5 -220.5t15.5 -146.5l13 -53h-68q-2 6 -6 18.5t-11.5 54t-11 87t0 116.5t16.5 144q14 82 36.5 156.5t44.5 121.5t42 82t33 50z" />
    <glyph glyph-name="parenright.case" horiz-adv-x="289" 
d="M133 760h68q5 -18 11 -52t5 -145t-25 -229q-17 -81 -42 -154t-49.5 -119.5t-46.5 -81.5t-36 -50l-13 -15h-69q5 6 14.5 16.5t35 49.5t48 84t48.5 118t42 152q24 115 26 221.5t-8 155.5z" />
    <glyph glyph-name="questiondown.case" horiz-adv-x="486" 
d="M378 708l-22 -105h-66l22 105h66zM279 543h62l-8 -35q-11 -53 -34.5 -91t-50.5 -60.5t-54 -43.5t-49.5 -53t-31.5 -76q-14 -68 7.5 -102t86.5 -34q122 0 153 151h67q-43 -212 -234 -212q-95 0 -131 50.5t-18 139.5q11 52 35.5 91t52.5 63t56 46.5t51 55t33 75.5z" />
    <glyph glyph-name="registered.alt" horiz-adv-x="475" 
d="M293 736q192 0 150 -205q-44 -201 -237 -201q-101 0 -134.5 55t-13.5 146q19 92 76.5 148.5t158.5 56.5zM413 531q37 180 -125 180q-163 0 -200 -180q-38 -176 125 -176q161 0 200 176zM192 647h79q54 0 71 -14t8 -57q-7 -32 -20 -46.5t-37 -19.5l26 -94l-44 1l-20 89
h-55l-19 -89h-38zM312 576q6 28 -5 35.5t-42 7.5h-41l-18 -84h40q32 0 46.5 7t19.5 34z" />
    <glyph glyph-name="section.sups" horiz-adv-x="291" 
d="M297 659h-35q5 22 -4.5 33t-44.5 11q-57 0 -65 -36q-5 -22 17.5 -33t51.5 -14t50 -21t13 -52q-7 -37 -41 -56q25 -18 17 -55q-14 -69 -114 -69q-49 0 -70 19.5t-12 60.5h34q-6 -26 6.5 -38t47.5 -12q61 0 70 38q5 24 -17.5 35.5t-51 14t-49.5 20t-14 51.5q7 33 41 57
q-24 17 -16 53q13 67 108 67q48 0 67 -18.5t11 -55.5zM242 545q3 12 -1 20.5t-14.5 14t-21 8t-26.5 6.5t-26 7q-24 -18 -29 -45q-2 -11 2 -19t14 -13t20 -7.5t26.5 -6t25.5 -6.5q25 17 30 41z" />
    <glyph glyph-name="seven.dnom" horiz-adv-x="364" 
d="M89 0h-62q15 71 49.5 144.5t73.5 128t76 98.5t61 67l24 23l-266 -2l10 48h334l-10 -48q-10 -9 -26 -25t-60 -66t-80.5 -101.5t-72.5 -125t-51 -141.5z" />
    <glyph glyph-name="seven.numr" horiz-adv-x="364" 
d="M89 248h-62q15 71 49.5 144.5t73.5 128t76 98.5t61 67l24 23l-266 -2l10 48h334l-10 -48q-10 -9 -26 -25t-60 -66t-80.5 -101.5t-72.5 -125t-51 -141.5z" />
    <glyph glyph-name="seven.subs" horiz-adv-x="364" 
d="M89 -193h-62q15 71 49.5 144.5t73.5 128t76 98.5t61 67l24 23l-266 -2l10 48h334l-10 -48q-10 -9 -26 -25t-60 -66t-80.5 -101.5t-72.5 -125t-51 -141.5z" />
    <glyph glyph-name="seven.tf" horiz-adv-x="657" 
d="M223 0h-74q20 98 68 200t101.5 176.5t104 135.5t83.5 92l34 32h-368l14 61h451l-14 -61q-13 -12 -36 -34t-83.5 -91t-110.5 -140t-100 -173t-70 -198z" />
    <glyph glyph-name="six.dnom" horiz-adv-x="474" 
d="M414 380h-56q8 38 -11.5 66.5t-76.5 28.5q-58 0 -99 -45t-70 -159q60 64 154 64q85 0 116.5 -46.5t14.5 -125.5q-35 -171 -219 -171q-96 0 -128 57t-6 177q34 161 89.5 227.5t157.5 66.5q83 0 114.5 -43t19.5 -97zM237 288q-89 0 -150 -82q-17 -91 4.5 -129.5t85.5 -38.5
q125 0 150 123q28 127 -90 127z" />
    <glyph glyph-name="six.numr" horiz-adv-x="474" 
d="M414 628h-56q8 38 -11.5 66.5t-76.5 28.5q-58 0 -99 -45t-70 -159q60 64 154 64q85 0 116.5 -46.5t14.5 -125.5q-35 -171 -219 -171q-96 0 -128 57t-6 177q34 161 89.5 227.5t157.5 66.5q83 0 114.5 -43t19.5 -97zM237 536q-89 0 -150 -82q-17 -91 4.5 -129.5t85.5 -38.5
q125 0 150 123q28 127 -90 127z" />
    <glyph glyph-name="six.subs" horiz-adv-x="474" 
d="M414 187h-56q8 38 -11.5 66.5t-76.5 28.5q-58 0 -99 -45t-70 -159q60 64 154 64q85 0 116.5 -46.5t14.5 -125.5q-35 -171 -219 -171q-96 0 -128 57t-6 177q34 161 89.5 227.5t157.5 66.5q83 0 114.5 -43t19.5 -97zM237 95q-89 0 -150 -82q-17 -91 4.5 -129.5t85.5 -38.5
q125 0 150 123q28 127 -90 127z" />
    <glyph glyph-name="six.tf" horiz-adv-x="657" 
d="M590 525h-69q11 52 -16 91t-105 39q-80 0 -135 -61.5t-96 -219.5q86 90 212 90q112 0 153 -66t19 -174q-49 -234 -292 -235q-125 0 -168.5 79t-9.5 243q46 219 121.5 312t208.5 93q46 0 81.5 -12t55 -31.5t32 -44.5t12.5 -51.5t-4 -51.5zM357 403q-126 0 -207 -113
q-26 -131 3.5 -185t120.5 -54q82 0 136.5 44.5t72.5 128.5q38 179 -126 179z" />
    <glyph glyph-name="three.dnom" horiz-adv-x="426" 
d="M410 505l-9 -44l-182 -137q160 -12 128 -165q-36 -167 -214 -167q-84 0 -119 42.5t-22 106.5h57q-10 -43 13.5 -71.5t80.5 -28.5q59 0 97.5 31.5t50.5 88.5q12 59 -13 91.5t-90 32.5l-62 -6l7 39l191 142l-240 -3l10 48h316z" />
    <glyph glyph-name="three.numr" horiz-adv-x="426" 
d="M410 753l-9 -44l-182 -137q160 -12 128 -165q-36 -167 -214 -167q-84 0 -119 42.5t-22 106.5h57q-10 -43 13.5 -71.5t80.5 -28.5q59 0 97.5 31.5t50.5 88.5q12 59 -13 91.5t-90 32.5l-62 -6l7 39l191 142l-240 -3l10 48h316z" />
    <glyph glyph-name="three.subs" horiz-adv-x="426" 
d="M410 312l-9 -44l-182 -137q160 -12 128 -165q-36 -167 -214 -167q-84 0 -119 42.5t-22 106.5h57q-10 -43 13.5 -71.5t80.5 -28.5q59 0 97.5 31.5t50.5 88.5q12 59 -13 91.5t-90 32.5l-62 -6l7 39l191 142l-240 -3l10 48h316z" />
    <glyph glyph-name="three.tf" horiz-adv-x="657" 
d="M595 694l-11 -55l-250 -188q107 -6 154.5 -66.5t25.5 -162.5q-48 -231 -287 -231q-108 0 -155.5 57t-30.5 144h64q-12 -59 21 -99t114 -40q83 0 135.5 44.5t68.5 124.5q17 79 -18 124t-127 45q-18 0 -39.5 -2.5t-33.5 -4.5l-13 -2l12 60l261 196l-319 -3l13 59h415z" />
    <glyph glyph-name="tildecomb.case" 
d="M15 865h39q-20 -101 -96 -101q-30 0 -49.5 21t-39.5 21q-40 0 -53 -46h-38q22 99 96 99q31 0 50 -20t38 -20q24 0 37.5 16t15.5 30z" />
    <glyph glyph-name="two.dnom" horiz-adv-x="418" 
d="M-31 3l11 51q90 61 177 130q42 33 60 47t44.5 39.5t39 48t18.5 48.5q20 102 -86 102q-50 0 -85 -27.5t-45 -77.5h-59q34 154 200 154q78 0 112 -39t20 -108q-12 -59 -49.5 -102t-112.5 -103q-36 -29 -74.5 -58t-59.5 -44l-21 -15l254 3l-10 -49h-334z" />
    <glyph glyph-name="two.numr" horiz-adv-x="418" 
d="M-31 251l11 51q90 61 177 130q42 33 60 47t44.5 39.5t39 48t18.5 48.5q20 102 -86 102q-50 0 -85 -27.5t-45 -77.5h-59q34 154 200 154q78 0 112 -39t20 -108q-12 -59 -49.5 -102t-112.5 -103q-36 -29 -74.5 -58t-59.5 -44l-21 -15l254 3l-10 -49h-334z" />
    <glyph glyph-name="two.subs" horiz-adv-x="418" 
d="M-31 -190l11 51q90 61 177 130q42 33 60 47t44.5 39.5t39 48t18.5 48.5q20 102 -86 102q-50 0 -85 -27.5t-45 -77.5h-59q34 154 200 154q78 0 112 -39t20 -108q-12 -59 -49.5 -102t-112.5 -103q-36 -29 -74.5 -58t-59.5 -44l-21 -15l254 3l-10 -49h-334z" />
    <glyph glyph-name="two.tf" horiz-adv-x="657" 
d="M34 4l14 65l32 24q33 24 93.5 70.5t114.5 90.5q50 41 66.5 54.5t52 45.5t49 51.5t29 48t21.5 58.5q29 143 -118 143q-69 0 -117 -36.5t-63 -106.5h-69q20 99 87 151t175 52q102 0 148.5 -52t25.5 -150q-17 -81 -67.5 -141.5t-150.5 -142.5q-51 -42 -106 -83.5t-85 -62.5
l-29 -21l350 1l-14 -59h-439z" />
    <glyph glyph-name="uni0302.case" 
d="M40 760h-61l-52 68l-81 -68h-66l124 115h62z" />
    <glyph glyph-name="uni0304.case" 
d="M-178 839h229l-12 -53h-229z" />
    <glyph glyph-name="uni0306.case" 
d="M19 865h55q-9 -44 -44 -74.5t-100 -30.5q-58 0 -83.5 31.5t-17.5 73.5h54q-4 -22 9.5 -38.5t47.5 -16.5q33 0 54 17t25 38z" />
    <glyph glyph-name="uni0307.case" 
d="M-39 760l26 123h67l-26 -123h-67z" />
    <glyph glyph-name="uni0308.case" 
d="M-193 760l26 123h67l-26 -123h-67zM-45 760l25 123h66l-25 -123h-66z" />
    <glyph glyph-name="uni030A.case" 
d="M-43 760q-34 0 -51 21.5t-10 53.5q8 34 32 54.5t61 20.5q34 0 51.5 -21.5t10.5 -53.5q-7 -34 -31 -54.5t-63 -20.5zM-34 797q16 0 28 10.5t16 27.5q8 38 -28 38q-16 0 -28.5 -10.5t-16.5 -27.5q-6 -38 29 -38z" />
    <glyph glyph-name="uni030B.case" 
d="M-246 760l92 126h76l-107 -126h-61zM-114 760l105 126h77l-120 -126h-62z" />
    <glyph glyph-name="uni030C.case" 
d="M-194 875h66l-124 -115h-62l-74 115h61l51 -68z" />
    <glyph glyph-name="uni0338.case" 
d="M-494 17l639 729h67l-639 -729h-67z" />
    <glyph glyph-name="zero.dnom" horiz-adv-x="485" 
d="M172 -8q-104 0 -134.5 64.5t0.5 196.5q30 141 84 203t162 62q103 0 133.5 -65.5t-1.5 -199.5q-29 -138 -83 -199.5t-161 -61.5zM182 42q69 0 111 48.5t66 162.5q26 118 6.5 167t-92.5 49q-69 0 -111 -50t-66 -166q-25 -116 -6 -163.5t92 -47.5z" />
    <glyph glyph-name="zero.numr" horiz-adv-x="485" 
d="M172 240q-104 0 -134.5 64.5t0.5 196.5q30 141 84 203t162 62q103 0 133.5 -65.5t-1.5 -199.5q-29 -138 -83 -199.5t-161 -61.5zM182 290q69 0 111 48.5t66 162.5q26 118 6.5 167t-92.5 49q-69 0 -111 -50t-66 -166q-25 -116 -6 -163.5t92 -47.5z" />
    <glyph glyph-name="zero.subs" horiz-adv-x="485" 
d="M172 -201q-104 0 -134.5 64.5t0.5 196.5q30 141 84 203t162 62q103 0 133.5 -65.5t-1.5 -199.5q-29 -138 -83 -199.5t-161 -61.5zM182 -151q69 0 111 48.5t66 162.5q26 118 6.5 167t-92.5 49q-69 0 -111 -50t-66 -166q-25 -116 -6 -163.5t92 -47.5z" />
    <glyph glyph-name="zero.tf" horiz-adv-x="657" 
d="M258 -11q-140 0 -180.5 88.5t0.5 269.5q41 195 113.5 281t216.5 86q140 0 180 -90t-2 -277q-39 -189 -111.5 -273.5t-216.5 -84.5zM271 51q96 0 154.5 68t91.5 228q36 169 10 238t-131 69q-96 0 -154.5 -70.5t-93.5 -236.5q-35 -163 -8.5 -229.5t131.5 -66.5z" />
    </font>
</defs>
</svg>
