<svg xmlns="http://www.w3.org/2000/svg">
<defs>
<font id="TofinoPersonal-Medium" horiz-adv-x="0" >
  <font-face 
    font-family="Tofino Personal Medium"
    font-weight="440"
    font-stretch="normal"
    units-per-em="1000"
    panose-1="2 0 0 0 0 0 0 0 0 0"
    ascent="760"
    descent="-240"
    x-height="537"
    cap-height="714"
    bbox="-780 -280 1161 1142"
    underline-thickness="50"
    underline-position="-225"
    unicode-range="U+000D-FB04"
  />
<missing-glyph horiz-adv-x="671" 
d="M362 540q8 -13 55 -18q1 -1 4 -1q1 1 1 3l4 9q-42 39 -54 36q-5 -2 -9 -14q-3 -10 -1 -15zM464 495l5 -1q15 0 17 11q2 9 -1 13q-3 5 -12 8q-1 1 -5 1q-14 0 -17 -11q-1 -5 2 -12q4 -8 11 -9zM582 486q4 2 2 16q0 10 -5 15q-12 8 -57 -7q-2 -1 -5 -1q0 -9 -2 -13
q2 -1 3 -1q56 -15 64 -9zM306 239q4 16 -3 25l-2 3h-1q-24 12 -85 12q-22 0 -38.5 -2.5t-22 -5.5t-5.5 -4q-3 -25 6 -50t31 -29q15 -3 38 -3q38 0 54 6q17 11 28 48zM485 188q22 2 30.5 27t6.5 52q-12 12 -67 12q-60 0 -84 -12q-1 0 -1 -2l-3 -1q-7 -8 -2 -25q3 -33 28 -48
q14 -6 52 -6q7 0 40 3zM511 465q77 -80 77 -194q0 -112 -74.5 -191t-178.5 -79t-177.5 79t-73.5 191q0 119 80 197q-27 39 -10 82q16 40 67 66t114 26q65 0 118 -27t70 -70q0 -1 1 -3q52 15 72 -1q18 -13 19 -38q2 -27 -14 -41q-13 -9 -31 -9q-17 0 -59 12zM241 439
q22 -44 102 -78t207 -28q-21 82 -85 132q-7 0 -10 1q-20 7 -28 23h-1q-2 1 -6.5 1.5t-6.5 0.5q-45 6 -62 18q-6 1 -16 1q-47 0 -88 -19q-20 -24 -6 -52zM182 539q-10 -25 5 -50q65 51 144 52q-1 11 3 26q13 28 32 32q29 6 80 -43l3 -2q12 4 19 4q1 0 13 -3q-22 26 -63 41
t-83 15q-52 0 -96 -21t-57 -51zM205 465q-69 -57 -85 -143q37 -1 78 12.5t66 34.5q-36 27 -50 57q-9 20 -9 39zM133 291l10 -9q20 11 72 11q67 0 91 -12q30 -15 59 0q24 12 90 12q54 0 72 -11q10 15 18 21q-10 -1 -31 -1q-133 0 -223 50q-28 -25 -71.5 -42t-86.5 -19z
M335 31q92 0 157 70.5t65 169.5q0 14 -1 21q-10 -9 -20 -23v-1q4 -35 -9 -64t-41 -32q-20 -2 -41 -2q-43 0 -60 9q-27 15 -36 57q-1 3 -1 6q-3 13 -14 13q-8 0 -11 -13q-2 -1 -2 -6q-9 -43 -37 -57q-14 -9 -60 -9q-21 0 -39 2q-28 3 -41.5 32t-9.5 64v1l-19 18v-16

<glyph glyph-name="f_f" unicode="ff" horiz-adv-x="661" 
d="M651 672h-44q-43 0 -60.5 -26.5t-17.5 -97.5v-7h121v-93h-121v-448h-116v448h-207v-448h-116v448h-74v93h74v7q0 41 3 69.5t14 58.5t29.5 48.5t52 30t79.5 11.5h60v-94h-44q-43 0 -60.5 -26.5t-17.5 -97.5v-7h207v7q0 51 6 85.5t23.5 67.5t54.5 49t95 16h59v-94z" />
    <glyph glyph-name="fi" unicode="fi" horiz-adv-x="596" 
d="M328 672h-44q-43 0 -60.5 -26.5t-17.5 -97.5v-7h121v-93h-121v-448h-116v448h-74v93h74v7q0 41 3 69.5t14 58.5t29.5 48.5t52 30t79.5 11.5h60v-94zM414 621v139h116v-139h-116zM410 0v541h116v-541h-116z" />
    <glyph glyph-name="fl" unicode="fl" horiz-adv-x="612" 
d="M328 672h-44q-43 0 -60.5 -26.5t-17.5 -97.5v-7h121v-93h-121v-448h-116v448h-74v93h74v7q0 41 3 69.5t14 58.5t29.5 48.5t52 30t79.5 11.5h60v-94zM417 0v760h116v-760h-116z" />
    <glyph glyph-name="f_f_i" unicode="ffi" horiz-adv-x="916" 
d="M414 541v7q0 51 6 85.5t23.5 67.5t54.5 49t95 16h59v-94h-44q-43 0 -60.5 -26.5t-17.5 -97.5v-7h114v-93h-114v-448h-116v448h-208v-448h-116v448h-74v93h74v7q0 41 3 69.5t14 58.5t29.5 48.5t52 30t79.5 11.5h60v-94h-44q-43 0 -60.5 -26.5t-17.5 -97.5v-7h208zM734 762
h116v-144h-116v144zM731 0v541h116v-541h-116z" />
    <glyph glyph-name="f_f_l" unicode="ffl" horiz-adv-x="932" 
d="M413 541v7q0 51 6 85.5t23.5 67.5t54.5 49t95 16h59v-94h-44q-43 0 -60.5 -26.5t-17.5 -97.5v-7h115v-93h-115v-448h-116v448h-207v-448h-116v448h-74v93h74v7q0 41 3 69.5t14 58.5t29.5 48.5t52 30t79.5 11.5h60v-94h-44q-43 0 -60.5 -26.5t-17.5 -97.5v-7h207zM737 760
h116v-760h-116v760z" />
    <glyph glyph-name=".notdef" horiz-adv-x="671" 
d="M362 540q8 -13 55 -18q1 -1 4 -1q1 1 1 3l4 9q-42 39 -54 36q-5 -2 -9 -14q-3 -10 -1 -15zM464 495l5 -1q15 0 17 11q2 9 -1 13q-3 5 -12 8q-1 1 -5 1q-14 0 -17 -11q-1 -5 2 -12q4 -8 11 -9zM582 486q4 2 2 16q0 10 -5 15q-12 8 -57 -7q-2 -1 -5 -1q0 -9 -2 -13
q2 -1 3 -1q56 -15 64 -9zM306 239q4 16 -3 25l-2 3h-1q-24 12 -85 12q-22 0 -38.5 -2.5t-22 -5.5t-5.5 -4q-3 -25 6 -50t31 -29q15 -3 38 -3q38 0 54 6q17 11 28 48zM485 188q22 2 30.5 27t6.5 52q-12 12 -67 12q-60 0 -84 -12q-1 0 -1 -2l-3 -1q-7 -8 -2 -25q3 -33 28 -48
q14 -6 52 -6q7 0 40 3zM511 465q77 -80 77 -194q0 -112 -74.5 -191t-178.5 -79t-177.5 79t-73.5 191q0 119 80 197q-27 39 -10 82q16 40 67 66t114 26q65 0 118 -27t70 -70q0 -1 1 -3q52 15 72 -1q18 -13 19 -38q2 -27 -14 -41q-13 -9 -31 -9q-17 0 -59 12zM241 439
q22 -44 102 -78t207 -28q-21 82 -85 132q-7 0 -10 1q-20 7 -28 23h-1q-2 1 -6.5 1.5t-6.5 0.5q-45 6 -62 18q-6 1 -16 1q-47 0 -88 -19q-20 -24 -6 -52zM182 539q-10 -25 5 -50q65 51 144 52q-1 11 3 26q13 28 32 32q29 6 80 -43l3 -2q12 4 19 4q1 0 13 -3q-22 26 -63 41
t-83 15q-52 0 -96 -21t-57 -51zM205 465q-69 -57 -85 -143q37 -1 78 12.5t66 34.5q-36 27 -50 57q-9 20 -9 39zM133 291l10 -9q20 11 72 11q67 0 91 -12q30 -15 59 0q24 12 90 12q54 0 72 -11q10 15 18 21q-10 -1 -31 -1q-133 0 -223 50q-28 -25 -71.5 -42t-86.5 -19z
M335 31q92 0 157 70.5t65 169.5q0 14 -1 21q-10 -9 -20 -23v-1q4 -35 -9 -64t-41 -32q-20 -2 -41 -2q-43 0 -60 9q-27 15 -36 57q-1 3 -1 6q-3 13 -14 13q-8 0 -11 -13q-2 -1 -2 -6q-9 -43 -37 -57q-14 -9 -60 -9q-21 0 -39 2q-28 3 -41.5 32t-9.5 64v1l-19 18v-16
q0 -99 64.5 -169.5t155.5 -70.5zM403 106q0 -20 -20 -33.5t-49 -13.5t-49 13.5t-20 33.5q0 19 20.5 32.5t48.5 13.5t48.5 -13.5t20.5 -32.5zM249 269l-4 -18q14 -8 14 -26q0 -13 -9 -22t-22 -9q-12 0 -21.5 9t-9.5 22q0 6 2 10l-14 11q-4 3 0 7q2 2 6 0l12 -11l3 6l-7 14
q-2 1 -1.5 3t2.5 3q4 2 6 -3l8 -12q0 1 2 1t3 1l-2 16q0 5 5 5q3 0 5 -4l1 -16q2 0 4.5 -0.5t3.5 -0.5l4 17q2 4 6 4q4 -3 3 -7zM491 253q1 -4 -1 -7l-13 -13q0 -1 0.5 -3.5t0.5 -4.5q0 -13 -9.5 -22t-22.5 -9q-12 0 -21 9t-9 22q0 18 15 26l-5 18q0 4 4 7q5 0 5 -4l4 -17
q2 1 7 1l3 16q0 4 5 4q4 0 4 -5l-3 -16l7 -2l7 12q3 5 5 3q2 -1 3 -3t0 -3l-9 -14q4 -3 4 -6l13 11q1 1 3 1t3 -1z" />
    <glyph glyph-name=".null" 
 />
    <glyph glyph-name="nonmarkingreturn" horiz-adv-x="333" 
 />
    <glyph glyph-name="NULL" 
 />
    <glyph glyph-name="NULL" 
 />
    <glyph glyph-name="CR" unicode="&#xd;" horiz-adv-x="205" 
 />
    <glyph glyph-name="space" unicode=" " horiz-adv-x="205" 
 />
    <glyph glyph-name="exclam" unicode="!" horiz-adv-x="273" 
d="M87 181l-8 533h115l-7 -533h-100zM79 0v121h115v-121h-115z" />
    <glyph glyph-name="quotedbl" unicode="&#x22;" horiz-adv-x="381" 
d="M46 533l-11 220h125l-12 -220h-102zM234 533l-12 220h125l-12 -220h-101z" />
    <glyph glyph-name="numbersign" unicode="#" horiz-adv-x="782" 
d="M692 453h-114l-35 -178h102v-82h-119l-38 -193h-106l38 193h-134l-38 -193h-106l38 193h-100v82h117l35 178h-105v82h122l33 167h106l-33 -167h134l33 167h106l-33 -167h97v-82zM437 275l35 178h-134l-35 -178h134z" />
    <glyph glyph-name="dollar" unicode="$" horiz-adv-x="569" 
d="M531 222q0 -85 -53.5 -132.5t-157.5 -54.5l5 -62h-75l5 62q-107 6 -159.5 58t-52.5 158h108q0 -122 131 -122q63 0 98 24.5t35 65.5q0 34 -20 55.5t-52 32t-70.5 19t-77.5 21t-71 32t-52 58t-20 94.5q0 80 50.5 126.5t151.5 52.5l-4 60h75l-4 -60q102 -8 148.5 -58.5
t46.5 -141.5h-107q0 45 -29 75.5t-93 30.5q-62 0 -91.5 -25t-29.5 -63t27 -61t67.5 -32t88 -22.5t88 -30.5t67.5 -58t27 -102z" />
    <glyph glyph-name="percent" unicode="%" horiz-adv-x="816" 
d="M203 358q-92 0 -131.5 44.5t-39.5 131.5q0 89 39.5 135t131.5 46t131 -46t39 -135q0 -87 -39 -131.5t-131 -44.5zM203 430q45 0 62.5 25t17.5 79q0 56 -17.5 82.5t-62.5 26.5t-62.5 -27t-17.5 -82q0 -54 17.5 -79t62.5 -25zM126 0l460 702h101l-460 -702h-101zM608 -14
q-92 0 -131.5 44.5t-39.5 132.5q0 89 39.5 134.5t131.5 45.5t130.5 -45.5t38.5 -134.5q0 -88 -38.5 -132.5t-130.5 -44.5zM608 59q45 0 62 25t17 79q0 55 -17.5 81.5t-61.5 26.5q-45 0 -63 -26.5t-18 -81.5q0 -54 18 -79t63 -25z" />
    <glyph glyph-name="ampersand" unicode="&#x26;" horiz-adv-x="756" 
d="M729 0h-133q-21 20 -54 53q-71 -71 -204 -71q-257 0 -257 222q0 150 125 206q-50 62 -50 136q0 181 208 181q111 0 154.5 -53t43.5 -150h-120q0 100 -78 100q-81 0 -81 -78q0 -26 6.5 -48t26 -48.5t34 -43t51.5 -55t58 -60.5l56 -61q14 58 14 135h104q0 -138 -35 -225z
M201 211q0 -124 137 -124q81 0 126 45q-86 87 -142 151q-8 10 -54 58q-67 -45 -67 -130z" />
    <glyph glyph-name="quotesingle" unicode="'" horiz-adv-x="179" 
d="M39 533l-12 220h125l-12 -220h-101z" />
    <glyph glyph-name="parenleft" unicode="(" horiz-adv-x="348" 
d="M184 760h116q-4 -8 -11 -23t-25 -64t-32 -101.5t-25 -132t-11 -158.5t13 -157.5t31 -133.5t36 -98.5t31 -65.5l13 -21h-116q-5 7 -13.5 21t-30 61.5t-37.5 99t-29.5 132t-13.5 162.5t10.5 162t26 134.5t31 97.5t26.5 64z" />
    <glyph glyph-name="parenright" unicode=")" horiz-adv-x="348" 
d="M48 760h116l11 -22t25 -62t32 -100t25 -132.5t11 -162.5t-13 -161.5t-31 -134t-36 -97t-31 -62.5l-13 -21h-116q5 8 13.5 22.5t30 63t37.5 100.5t29.5 131.5t13.5 158.5t-10.5 157.5t-26 134t-31 99.5t-26.5 66z" />
    <glyph glyph-name="asterisk" unicode="*" horiz-adv-x="435" 
d="M60 573l21 97l98 -38l-11 96h99l-11 -96l99 38l20 -97l-99 -11l77 -79l-84 -57l-51 85l-52 -85l-84 57l78 79z" />
    <glyph glyph-name="plus" unicode="+" horiz-adv-x="512" 
d="M456 375v-94h-150v-153h-100v153h-151v94h151v154h100v-154h150z" />
    <glyph glyph-name="comma" unicode="," horiz-adv-x="288" 
d="M129 -130h-103q32 65 49 142q8 35 12 64.5t5 41.5v11h119q-1 -46 -22 -124q-11 -37 -26 -71t-25 -49z" />
    <glyph glyph-name="hyphen" unicode="-" horiz-adv-x="395" 
d="M72 275v90h251v-90h-251z" />
    <glyph glyph-name="period" unicode="." horiz-adv-x="268" 
d="M75 0v129h117v-129h-117z" />
    <glyph glyph-name="slash" unicode="/" horiz-adv-x="519" 
d="M60 -40l310 840h116l-310 -840h-116z" />
    <glyph glyph-name="zero" unicode="0" horiz-adv-x="665" 
d="M332 -12q-151 0 -211.5 85t-60.5 273q0 199 60 287t212 88q153 0 213 -88t60 -287q0 -188 -60.5 -273t-212.5 -85zM332 94q85 0 119 56.5t34 195.5q0 150 -34 210t-119 60q-84 0 -118 -60t-34 -210q0 -139 34 -195.5t118 -56.5z" />
    <glyph glyph-name="one" unicode="1" horiz-adv-x="343" 
d="M158 714h96v-714h-119v593l-140 -66v110z" />
    <glyph glyph-name="two" unicode="2" horiz-adv-x="549" 
d="M30 1v105q97 78 195 171q8 8 30 28.5t30.5 28.5t26 26t24.5 28t19 26.5t16.5 29t8.5 28.5t4 32q0 114 -115 114q-121 0 -121 -118h-122q0 223 243 223q235 0 235 -218q0 -42 -11.5 -79t-36 -72t-45.5 -59t-57 -60t-77.5 -70t-64.5 -50l-24 -16l310 4v-102h-468z" />
    <glyph glyph-name="three" unicode="3" horiz-adv-x="558" 
d="M500 604l-200 -146q219 -26 219 -231q0 -115 -65.5 -175t-192.5 -60q-116 0 -178.5 60t-62.5 161h111q0 -45 32.5 -80.5t97.5 -35.5q70 0 103 35.5t33 94.5q0 129 -159 129l-86 -7v102l198 150l-302 -5v101h452v-93z" />
    <glyph glyph-name="four" unicode="4" horiz-adv-x="585" 
d="M559 239v-105h-86v-134h-119l1 134h-335v105l331 461h122v-461h86zM144 239h212l3 301z" />
    <glyph glyph-name="five" unicode="5" horiz-adv-x="580" 
d="M319 471q109 0 168.5 -63t59.5 -180q0 -236 -258 -236q-121 0 -183.5 57t-62.5 149h112q0 -35 34.5 -68t99.5 -33q69 0 103 36t34 95t-35 98.5t-102 39.5q-27 0 -49.5 -6.5t-35.5 -16t-22.5 -18.5t-13.5 -15l-3 -7l-106 2l43 291l13 101h395v-101h-301l-25 -166
q55 41 135 41z" />
    <glyph glyph-name="six" unicode="6" horiz-adv-x="638" 
d="M354 467q63 0 109 -20t70.5 -56t35.5 -77t11 -91q0 -105 -62 -169.5t-197 -65.5q-140 0 -200.5 80t-60.5 246q0 218 61.5 313t199.5 95q65 0 113 -18t74 -48t38 -64t12 -72h-121q0 35 -30.5 66t-85.5 31q-62 0 -93.5 -44t-41.5 -165q68 59 168 59zM321 94
q67 0 102.5 33.5t35.5 95.5q0 65 -31 102t-97 37q-96 0 -149 -68q3 -111 37 -155.5t102 -44.5z" />
    <glyph glyph-name="seven" unicode="7" horiz-adv-x="488" 
d="M225 0h-119q0 91 25 185.5t60.5 164.5t71 127t60.5 87l25 29h-352v105h484v-105l-27.5 -33t-61.5 -86.5t-77.5 -132t-61 -160.5t-27.5 -181z" />
    <glyph glyph-name="eight" unicode="8" horiz-adv-x="629" 
d="M50 203q0 44 14.5 80t36 56.5t40.5 32t32 12.5q-9 1 -24 9.5t-33 24.5t-30.5 44.5t-12.5 63.5q0 198 242 198q241 0 241 -198q0 -35 -12.5 -63.5t-30.5 -44.5t-33 -24.5t-25 -9.5q19 -2 45.5 -19.5t52.5 -61t26 -100.5q0 -103 -61 -158t-203 -55t-203.5 55t-61.5 158z
M172 211q0 -116 143 -116t143 116q0 117 -143 117t-143 -117zM195 516q0 -90 120 -90t120 90q0 105 -120 105t-120 -105z" />
    <glyph glyph-name="nine" unicode="9" horiz-adv-x="639" 
d="M317 722q136 1 199 -81t63 -251q0 -218 -59.5 -310t-202.5 -92q-71 0 -122.5 19t-77.5 50.5t-37.5 64t-11.5 68.5h122q0 -36 30.5 -66t96.5 -30q65 0 95.5 39t39.5 151q-70 -62 -168 -62q-116 0 -171 72.5t-55 184.5q0 109 64.5 175.5t194.5 67.5zM307 327q96 0 150 63
q0 127 -34 177t-106 50q-67 0 -102 -35.5t-35 -102.5q0 -72 31.5 -112t95.5 -40z" />
    <glyph glyph-name="colon" unicode=":" horiz-adv-x="277" 
d="M80 385v129h117v-129h-117zM80 32v129h117v-129h-117z" />
    <glyph glyph-name="semicolon" unicode=";" horiz-adv-x="301" 
d="M102 353v126h117v-126h-117zM130 -130h-103q32 65 49 142q8 35 12 64.5t4 41.5l1 11h120q-1 -46 -23 -124q-10 -37 -25 -71t-25 -49z" />
    <glyph glyph-name="less" unicode="&#x3c;" horiz-adv-x="564" 
d="M477 508v-105l-324 -91l324 -91v-105l-425 146v100z" />
    <glyph glyph-name="equal" unicode="=" horiz-adv-x="563" 
d="M75 351v97h412v-97h-412zM75 175v97h412v-97h-412z" />
    <glyph glyph-name="greater" unicode="&#x3e;" horiz-adv-x="557" 
d="M80 508l424 -146v-100l-424 -146v105l324 91l-324 91v105z" />
    <glyph glyph-name="question" unicode="?" horiz-adv-x="532" 
d="M303 181h-108v23q0 53 15.5 94t37.5 66.5t44.5 48.5t38 52.5t15.5 65.5q0 105 -97 105q-54 0 -75 -33.5t-21 -102.5h-117q0 122 52.5 182t163.5 60q211 0 211 -196q0 -51 -16.5 -92t-40 -68t-47 -52t-40 -57.5t-16.5 -72.5v-23zM191 0v121h116v-121h-116z" />
    <glyph glyph-name="at" unicode="@" horiz-adv-x="905" 
d="M845 277q0 -260 -158 -262h-1q-95 0 -125 93q-45 -63 -144 -63q-90 0 -132.5 58t-42.5 175q0 234 175 234q79 0 135 -63l12 58h90v-305q0 -62 11.5 -88.5t37.5 -26.5q14 0 24 7t20.5 25.5t16 58.5t5.5 99t-9.5 108.5t-32.5 93.5t-58.5 75t-89.5 49t-124 18
q-86 0 -148 -27t-97 -76t-51 -108.5t-16 -132.5q0 -59 8.5 -106.5t30 -91.5t56 -73.5t90 -47t128.5 -17.5q134 0 199 32v-72q-76 -28 -200 -28q-106 0 -183.5 30t-123 85.5t-67 127t-21.5 161.5q0 91 21.5 163.5t66.5 130t123 88.5t184 31q203 0 296.5 -111.5t93.5 -301.5z
M444 123q78 0 104 69v177q-35 65 -104 65q-44 0 -69.5 -39.5t-25.5 -116.5q0 -78 25 -116.5t70 -38.5z" />
    <glyph glyph-name="A" unicode="A" horiz-adv-x="659" 
d="M529 0l-57 162h-292l-58 -162h-119l270 714h114l268 -714h-126zM217 267h218l-109 307z" />
    <glyph glyph-name="B" unicode="B" horiz-adv-x="674" 
d="M495 369q72 -19 98 -60.5t26 -112.5q0 -51 -10 -83.5t-39.5 -60.5t-88.5 -41t-151 -13h-243v719h247q79 0 132 -13t80.5 -39.5t38.5 -58.5t11 -77q0 -62 -21.5 -101t-79.5 -59zM331 618h-125v-204l125 -1q86 0 116 23.5t30 78.5q0 54 -31.5 78.5t-114.5 24.5zM206 97h125
q102 0 134.5 24.5t32.5 86.5q0 59 -34 85.5t-133 26.5h-125v-223z" />
    <glyph glyph-name="C" unicode="C" horiz-adv-x="680" 
d="M353 -18q-156 0 -224.5 91t-68.5 283q0 193 68.5 285t224.5 92q269 0 272 -274h-116q-4 90 -42 129.5t-114 39.5q-94 0 -133.5 -62.5t-39.5 -209.5q0 -146 39.5 -207.5t133.5 -61.5q75 0 113 38t42 127h116q-3 -138 -70.5 -204t-200.5 -66z" />
    <glyph glyph-name="D" unicode="D" horiz-adv-x="702" 
d="M87 717h197q108 0 177.5 -20t109.5 -66t55.5 -110.5t15.5 -164.5t-15.5 -164t-55.5 -109.5t-109.5 -65t-177.5 -19.5h-197v719zM206 102h83q139 0 185.5 49.5t46.5 204.5q0 82 -10 130.5t-38 77t-69.5 38.5t-114.5 10h-83v-510z" />
    <glyph glyph-name="E" unicode="E" horiz-adv-x="600" 
d="M206 105h363v-105h-482v714h475v-105h-356v-190h306v-102h-306v-212z" />
    <glyph glyph-name="F" unicode="F" horiz-adv-x="558" 
d="M548 608h-342v-208h292v-104h-292v-296h-119v714h461v-106z" />
    <glyph glyph-name="G" unicode="G" horiz-adv-x="690" 
d="M624 358v-268q0 -6 -9.5 -18t-31 -27.5t-51.5 -29.5t-77.5 -23.5t-101.5 -9.5q-157 -1 -225 88.5t-68 285.5q0 195 68 286t225 91q271 0 271 -255h-115q-2 73 -42 111.5t-114 38.5q-94 0 -133.5 -63t-39.5 -209q0 -145 41.5 -207t140.5 -62q45 0 82 9t53 19t15 17v127
h-126v99h238z" />
    <glyph glyph-name="H" unicode="H" horiz-adv-x="720" 
d="M513 714h120v-714h-120v309h-307v-309h-119v714h119v-292h307v292z" />
    <glyph glyph-name="I" unicode="I" horiz-adv-x="293" 
d="M87 0v714h119v-714h-119z" />
    <glyph glyph-name="J" unicode="J" horiz-adv-x="442" 
d="M86 0h-71v114h71q36 0 59 2.5t42.5 11.5t29.5 22t17 38t9.5 56t2.5 79l-1 391h120l2 -391q0 -66 -3 -108t-13.5 -82t-29 -62.5t-50 -40t-76.5 -24t-109 -6.5z" />
    <glyph glyph-name="K" unicode="K" horiz-adv-x="650" 
d="M512 0l-216 305l-90 -111v-194h-119v714h119v-375l283 375h140l-261 -321l279 -393h-135z" />
    <glyph glyph-name="L" unicode="L" horiz-adv-x="513" 
d="M206 110h289v-110h-408v714h119v-604z" />
    <glyph glyph-name="M" unicode="M" horiz-adv-x="907" 
d="M820 714l-2 -714h-115l7 594l-211 -596h-116l-198 595l7 -593h-105v714h178l188 -577l194 577h173z" />
    <glyph glyph-name="N" unicode="N" horiz-adv-x="740" 
d="M539 714h114v-714h-132l-324 543l-1 -543h-109l1 714h132l331 -554z" />
    <glyph glyph-name="O" unicode="O" horiz-adv-x="715" 
d="M357 -18q-159 0 -228 91t-69 283q0 193 69 285t228 92t228.5 -92t69.5 -285q0 -192 -69 -283t-229 -91zM357 87q98 0 137.5 61.5t39.5 207.5q0 147 -39.5 209.5t-137.5 62.5q-97 0 -137 -63t-40 -209q0 -145 40 -207t137 -62z" />
    <glyph glyph-name="P" unicode="P" horiz-adv-x="665" 
d="M87 717h247q166 0 231 -50t65 -192q0 -141 -65 -191t-234 -50h-125v-234h-119v717zM206 340l125 -1q46 0 74.5 4t54.5 17.5t37.5 42t11.5 73.5t-11.5 73t-37.5 41.5t-54 17.5t-75 4h-125v-272z" />
    <glyph glyph-name="Q" unicode="Q" horiz-adv-x="714" 
d="M684 -52l-68 -76l-141 126q-49 -16 -118 -16q-159 0 -228 91t-69 283q0 193 69 285t228 92t228.5 -92t69.5 -285q0 -226 -96 -311zM180 356q0 -145 40 -207t137 -62q98 0 137.5 61.5t39.5 207.5q0 147 -39.5 209.5t-137.5 62.5q-97 0 -137 -63t-40 -209z" />
    <glyph glyph-name="R" unicode="R" horiz-adv-x="682" 
d="M652 0h-136l-129 255q-17 -1 -54 -1h-127v-254h-119v715h249q117 0 179 -23t85.5 -70.5t23.5 -136.5q0 -92 -26 -141.5t-93 -70.5zM206 360l127 -1q46 0 71.5 3t51 15t36.5 38.5t11 69.5t-11 69t-36.5 37.5t-51.5 15t-71 3.5h-127v-250z" />
    <glyph glyph-name="S" unicode="S" horiz-adv-x="637" 
d="M43 223h116q0 -65 42 -100.5t115 -35.5q82 -1 120.5 26.5t38.5 72.5q0 36 -23 60t-59.5 36t-80.5 22t-88 24.5t-80.5 36.5t-59.5 65.5t-23 104.5q0 199 256 198q133 0 199 -57t66 -164h-114q0 48 -37 82t-110 34q-76 1 -107.5 -27t-31.5 -70q0 -36 23 -60t60 -36
t81 -22.5t88.5 -24.5t81.5 -35.5t60 -62.5t23 -99q0 -210 -279 -209q-277 0 -277 241z" />
    <glyph glyph-name="T" unicode="T" horiz-adv-x="557" 
d="M539 714v-110h-201l-3 -604h-119l3 604h-201v110h521z" />
    <glyph glyph-name="U" unicode="U" horiz-adv-x="706" 
d="M352 -18q-150 0 -213 84t-63 275v373h119v-373q0 -143 34.5 -198.5t121.5 -55.5q88 0 122.5 55.5t34.5 198.5v373h122v-373q0 -190 -64 -274.5t-214 -84.5z" />
    <glyph glyph-name="V" unicode="V" horiz-adv-x="634" 
d="M508 714h125l-260 -714h-114l-258 714h132l188 -552z" />
    <glyph glyph-name="W" unicode="W" horiz-adv-x="987" 
d="M859 714h125l-218 -714h-123l-155 541l-152 -541h-115l-218 714h133l145 -560l149 560h122l161 -567z" />
    <glyph glyph-name="X" unicode="X" horiz-adv-x="643" 
d="M644 0h-137l-193 272l-186 -272h-131l250 365h1l-247 349h137l185 -261l180 261h131l-244 -355z" />
    <glyph glyph-name="Y" unicode="Y" horiz-adv-x="638" 
d="M501 714h133l-250 -463v-251h-120v251l-261 463h139l184 -343z" />
    <glyph glyph-name="Z" unicode="Z" horiz-adv-x="590" 
d="M155 108h403v-105h-530v120l399 484h-382v105h510v-121z" />
    <glyph glyph-name="bracketleft" unicode="[" horiz-adv-x="403" 
d="M373 655h-157v-749h157v-105h-273v959h273v-105z" />
    <glyph glyph-name="backslash" unicode="\" horiz-adv-x="546" 
d="M486 -40h-116l-310 840h116z" />
    <glyph glyph-name="bracketright" unicode="]" horiz-adv-x="403" 
d="M303 760v-959h-273v105h157v749h-157v105h273z" />
    <glyph glyph-name="asciicircum" unicode="^" horiz-adv-x="465" 
d="M398 464h-96l-73 166l-73 -166h-96l125 276h88z" />
    <glyph glyph-name="underscore" unicode="_" horiz-adv-x="583" 
d="M82 0v90h420v-90h-420z" />
    <glyph glyph-name="grave" unicode="`" horiz-adv-x="512" 
d="M253 617h-106l-102 158h128z" />
    <glyph glyph-name="a" unicode="a" horiz-adv-x="588" 
d="M526 1h-97l-13 65q-56 -77 -181 -77q-100 0 -144.5 40t-44.5 124q0 32 7 57t20 42.5t32 30t43 20t52 12t60 5.5t67.5 2t73.5 0q-1 83 -20.5 113.5t-87.5 30.5q-65 0 -92 -28.5t-27 -63.5h-104q0 22 3.5 42.5t17 46.5t36 44t64 31t97.5 13q34 0 62 -3t49.5 -10.5t38.5 -15
t29.5 -22.5t21 -26t14 -33t8.5 -36t4.5 -42t1.5 -44v-49v-2v-126zM259 69q51 0 89.5 23.5t52.5 70.5v83q-48 0 -72.5 -0.5t-58.5 -3t-50 -8.5t-33.5 -16.5t-24 -27.5t-6.5 -40q0 -81 103 -81z" />
    <glyph glyph-name="b" unicode="b" horiz-adv-x="629" 
d="M360 551q115 0 167 -71.5t52 -209.5t-52 -209t-167 -71q-125 0 -180 80l-13 -70h-97l7 148v612h116v-288q67 79 167 79zM338 83q122 0 122 187q0 188 -122 188q-96 0 -145 -98v-172q12 -43 46.5 -74t98.5 -31z" />
    <glyph glyph-name="c" unicode="c" horiz-adv-x="585" 
d="M300 -13q-136 0 -193 72.5t-57 210.5t57 210.5t193 72.5q230 0 236 -214h-114q-1 60 -33 90.5t-89 30.5q-72 0 -102 -45.5t-30 -144.5t29.5 -144t102.5 -45q56 0 88 27.5t33 76.5h116q-4 -94 -62.5 -146t-174.5 -52z" />
    <glyph glyph-name="d" unicode="d" horiz-adv-x="633" 
d="M559 0h-97l-13 69q-56 -79 -180 -79q-115 0 -167 71t-52 209t52 209.5t167 71.5q100 0 166 -68v277h116v-612zM291 83q62 0 96.5 29.5t47.5 71.5v176q-49 98 -144 98q-123 0 -123 -188q0 -187 123 -187z" />
    <glyph glyph-name="e" unicode="e" horiz-adv-x="593" 
d="M297 75q66 0 96.5 30t32.5 65h116q0 -30 -12 -60t-38 -59t-76.5 -47t-117.5 -18q-134 0 -191 71t-57 211q0 141 57 213.5t191 72.5q131 0 189.5 -75t58.5 -230h-378q2 -90 31 -132t98 -42zM297 468q-60 0 -89 -33.5t-37 -101.5h257q-10 69 -41 102t-90 33z" />
    <glyph glyph-name="f" unicode="f" horiz-adv-x="338" 
d="M328 672h-44q-43 0 -60.5 -26.5t-17.5 -97.5v-7h121v-93h-121v-448h-116v448h-74v93h74v7q0 41 3 69.5t14 58.5t29.5 48.5t52 30t79.5 11.5h60v-94z" />
    <glyph glyph-name="g" unicode="g" horiz-adv-x="621" 
d="M462 541h97l-6 -156v-387q0 -30 -0.5 -46.5t-5.5 -45.5t-14 -46t-27.5 -38.5t-45 -33t-68 -20t-94.5 -8.5q-48 0 -86 10.5t-60.5 26.5t-38.5 36t-22.5 40t-10 36t-2.5 27v10h108q0 -9 0.5 -14.5t6.5 -23.5t17 -29t36.5 -21t60.5 -10q36 0 61 8t38.5 20t20.5 33.5t8.5 40
t1.5 48.5v56q-57 -64 -168 -64q-115 0 -167 71t-52 209t52 209.5t167 71.5q112 0 179 -94zM291 83q65 0 100 32.5t46 76.5v166q-50 100 -146 100q-123 0 -123 -188q0 -187 123 -187z" />
    <glyph glyph-name="h" unicode="h" horiz-adv-x="624" 
d="M357 553q104 0 148.5 -51t44.5 -179l-2 -323h-116l2 312q0 69 -21 104t-78 35q-99 0 -149 -112v-339h-116v760h116v-296q66 89 171 89z" />
    <glyph glyph-name="i" unicode="i" horiz-adv-x="250" 
d="M68 621v139h116v-139h-116zM64 0v541h116v-541h-116z" />
    <glyph glyph-name="j" unicode="j" horiz-adv-x="279" 
d="M83 621v139h116v-139h-116zM-34 -212v97q25 0 43 3t31 7t21 14.5t13 20t7.5 29t3 36t0.5 46.5v500h116v-500q0 -54 -3 -88.5t-12 -65.5t-24.5 -48t-42.5 -29.5t-63.5 -17t-89.5 -4.5z" />
    <glyph glyph-name="k" unicode="k" horiz-adv-x="557" 
d="M425 0l-170 237l-60 -66v-171h-116v760h116v-463l198 244h137l-202 -223l228 -318h-131z" />
    <glyph glyph-name="l" unicode="l" horiz-adv-x="274" 
d="M79 0v760h116v-760h-116z" />
    <glyph glyph-name="m" unicode="m" horiz-adv-x="948" 
d="M692 553q94 0 138 -52t44 -178l-1 -323h-113l1 312q0 71 -18 105t-73 34q-85 0 -136 -95q1 -10 1 -33v-323h-111l1 312q0 71 -18 105t-73 34q-53 0 -87.5 -33t-53.5 -74v-344h-116v393l-7 148h97l16 -91q22 37 66.5 70t106.5 33q65 0 104.5 -23.5t57.5 -78.5q24 38 68 70
t106 32z" />
    <glyph glyph-name="n" unicode="n" horiz-adv-x="626" 
d="M360 553q104 0 148 -51t44 -179l-1 -323h-116l1 312q0 69 -21 104t-78 35q-93 0 -144 -101v-350h-116v393l-7 148h97l15 -87q24 37 69 68t109 31z" />
    <glyph glyph-name="o" unicode="o" horiz-adv-x="607" 
d="M303 -14q-137 0 -195 73t-58 210t58 211t195 74q137 1 195.5 -73.5t58.5 -211.5t-58 -210t-196 -73zM303 80q75 0 105 44.5t30 144.5q0 99 -30.5 145.5t-104.5 46.5t-104.5 -46.5t-30.5 -145.5q0 -100 30 -144.5t105 -44.5z" />
    <glyph glyph-name="p" unicode="p" horiz-adv-x="629" 
d="M360 551q115 0 167 -71.5t52 -209.5t-52 -209t-167 -71q-109 0 -167 63v-293h-116v629l-7 152h97l15 -85q24 35 69 65t109 30zM338 83q122 0 122 187q0 188 -122 188q-96 0 -145 -100v-170q12 -43 46.5 -74t98.5 -31z" />
    <glyph glyph-name="q" unicode="q" horiz-adv-x="634" 
d="M462 541h98l-8 -142v-639h-116v293q-58 -63 -167 -63q-115 0 -167 71t-52 209t52 209.5t167 71.5q63 0 108.5 -29t68.5 -63zM291 83q63 0 98 31t47 74v172q-49 98 -145 98q-123 0 -123 -188q0 -187 123 -187z" />
    <glyph glyph-name="r" unicode="r" horiz-adv-x="404" 
d="M167 541l16 -102q7 18 18.5 35t33.5 36.5t58.5 31.5t83.5 12v-108q-40 0 -72.5 -12t-51.5 -28.5t-32.5 -38.5t-19 -37t-8.5 -30v-300h-116v384l-7 157h97z" />
    <glyph glyph-name="s" unicode="s" horiz-adv-x="551" 
d="M48 176h104q0 -100 124 -102q118 0 118 67q0 31 -25 50t-62 25.5t-80.5 18t-80.5 25.5t-62 50t-25 90q0 72 55.5 113t162.5 40q220 0 220 -171h-104q0 83 -113 84q-57 0 -81 -19t-24 -47q0 -35 34.5 -53.5t84.5 -27.5t99.5 -22.5t84 -50t34.5 -97.5q0 -163 -235 -162
q-229 0 -229 189z" />
    <glyph glyph-name="t" unicode="t" horiz-adv-x="384" 
d="M291 90h59v-94h-74q-58 0 -95 16.5t-54 49.5t-22.5 66.5t-5.5 83.5v236h-69v93h69v145l116 21v-166h129v-93h-129v-236q0 -69 17 -95.5t59 -26.5z" />
    <glyph glyph-name="u" unicode="u" horiz-adv-x="610" 
d="M548 0h-97l-16 94q-9 -15 -22 -30.5t-35.5 -34t-55 -30.5t-68.5 -12q-99 0 -145 51t-46 173l2 330h115l-1 -312q0 -70 20 -105t77 -35q100 0 149 114v338h116v-391z" />
    <glyph glyph-name="v" unicode="v" horiz-adv-x="537" 
d="M406 541h125l-208 -541h-115l-202 541h129l138 -414z" />
    <glyph glyph-name="w" unicode="w" horiz-adv-x="762" 
d="M650 541h110l-172 -541h-100l-114 378l-104 -378h-100l-168 542h117l105 -391l101 390h111l108 -390z" />
    <glyph glyph-name="x" unicode="x" horiz-adv-x="526" 
d="M524 541l-192 -278l185 -263h-130l-130 185l-131 -185h-124l194 271l-189 270h130l134 -190l130 190h123z" />
    <glyph glyph-name="y" unicode="y" horiz-adv-x="532" 
d="M406 541h120l-271 -761h-105l74 220h-32l-186 541h128l131 -420z" />
    <glyph glyph-name="z" unicode="z" horiz-adv-x="495" 
d="M44 537h413v-116l-303 -324l303 1v-95h-423v117l305 326l-295 -1v92z" />
    <glyph glyph-name="braceleft" unicode="{" horiz-adv-x="436" 
d="M406 759v-105q-88 0 -113 -20t-25 -91v-155q0 -22 -6 -41t-14 -29.5t-18.5 -19t-15.5 -11t-9 -3.5q3 -1 8 -3.5t15.5 -10.5t18.5 -18.5t14.5 -29.5t6.5 -42v-155q0 -71 25 -91t113 -20v-105q-84 0 -133 9t-76.5 34t-35.5 60t-8 97v171q0 32 -16.5 44t-70.5 12v97
q54 0 70.5 11.5t16.5 43.5v179q0 82 17.5 120t70 55t165.5 17z" />
    <glyph glyph-name="bar" unicode="|" horiz-adv-x="259" 
d="M79 -199v1019h101v-1019h-101z" />
    <glyph glyph-name="braceright" unicode="}" horiz-adv-x="436" 
d="M30 -191v105q88 0 113 20t25 91v155q0 22 6.5 41t14 29.5t18 19t15 10.5t8.5 4q-3 1 -8 3.5t-15 10.5t-18 18.5t-14.5 29.5t-6.5 42v155q0 71 -25 91t-113 20v105q85 0 134 -9t76 -34t35 -59.5t8 -97.5v-171q0 -32 16.5 -44t70.5 -12v-97q-54 0 -70.5 -11.5t-16.5 -43.5
v-179q0 -82 -17 -120t-70 -55t-166 -17z" />
    <glyph glyph-name="asciitilde" unicode="~" horiz-adv-x="566" 
d="M435 380h74q0 -155 -135 -155q-47 0 -96 27.5t-86 27.5q-29 0 -45 -19.5t-16 -35.5h-73q0 155 134 155q47 0 96 -27.5t86 -27.5q29 0 45 19.5t16 35.5z" />
    <glyph glyph-name="uni00A0" unicode="&#xa0;" horiz-adv-x="205" 
 />
    <glyph glyph-name="exclamdown" unicode="&#xa1;" horiz-adv-x="273" 
d="M79 420v121h115v-121h-115zM79 -174l8 534h100l7 -534h-115z" />
    <glyph glyph-name="cent" unicode="&#xa2;" horiz-adv-x="585" 
d="M421 261h116q-8 -178 -194 -197v-89h-89v89q-111 12 -157.5 84t-46.5 198t46.5 197.5t157.5 83.5v78h89v-78q187 -18 193 -213h-114q-1 60 -33 91t-89 31q-72 0 -102 -46t-30 -144q0 -99 30 -144.5t102 -45.5q56 0 88 28t33 77z" />
    <glyph glyph-name="sterling" unicode="&#xa3;" horiz-adv-x="520" 
d="M241 227q0 -83 -82 -133h321v-98h-450v98l10 5t21.5 14.5t27.5 25.5t22 37.5t10 50.5q0 21 -3 39h-88v88h63q-1 3 -5.5 13.5t-5.5 14t-5 14t-5.5 15t-4.5 14.5t-4 16t-3 15.5t-3 17.5t-1.5 18t-0.5 20q0 83 56.5 139.5t160.5 56.5q114 0 165.5 -57t51.5 -151h-121
q0 118 -96 118q-46 0 -70.5 -30.5t-24.5 -76.5q0 -19 4.5 -41t9 -36.5t14 -40.5t13.5 -39h162v-88h-141q2 -24 2 -39z" />
    <glyph glyph-name="currency" unicode="&#xa4;" horiz-adv-x="703" 
d="M653 94l-70 -69l-64 64q-61 -45 -165 -45q-103 0 -164 44l-71 -70l-69 69l79 78q-29 61 -29 158q0 90 26 154l-72 72l69 69l62 -62q63 50 169 50q101 0 160 -42l63 63l69 -69l-69 -69q31 -66 31 -166q0 -95 -28 -157zM354 149q73 0 103.5 45t30.5 129q0 178 -134 178
q-73 0 -103.5 -46.5t-30.5 -131.5q0 -84 30 -129t104 -45z" />
    <glyph glyph-name="yen" unicode="&#xa5;" horiz-adv-x="603" 
d="M599 714l-199 -390h83v-66h-117v-50h117v-65h-117v-143h-120v143h-117v65h117v50h-117v66h82l-208 390h139l167 -332l158 332h132z" />
    <glyph glyph-name="brokenbar" unicode="&#xa6;" horiz-adv-x="259" 
d="M79 395v425h101v-425h-101zM180 245v-425h-101v425h101z" />
    <glyph glyph-name="section" unicode="&#xa7;" horiz-adv-x="563" 
d="M444 257q78 -40 78 -131q0 -163 -239 -163q-122 0 -178.5 45t-56.5 143h104q0 -53 31.5 -76.5t98.5 -23.5q61 0 92.5 18t31.5 49q0 28 -19.5 45.5t-50.5 26t-68.5 15t-75 16.5t-68.5 26.5t-50.5 49t-19.5 79.5q0 81 76 122q-74 41 -74 132q0 73 56.5 113t170.5 40
q120 0 173.5 -42t53.5 -128h-103q0 40 -26 61.5t-95 21.5q-62 0 -88 -19t-26 -47q0 -27 19.5 -44t50.5 -25t68.5 -14t75 -15.5t68.5 -25.5t50.5 -48t19.5 -79q0 -83 -80 -122zM170 377q0 -14 4.5 -25t15.5 -19t20 -13.5t29 -10.5t31 -7.5t37 -7t36 -6.5q65 29 65 83
q0 15 -5 26.5t-16 20t-22.5 14.5t-31 11t-33.5 8.5t-38.5 8t-38.5 7.5q-53 -33 -53 -90z" />
    <glyph glyph-name="dieresis" unicode="&#xa8;" horiz-adv-x="532" 
d="M87 618v140h116v-140h-116zM269 618v140h116v-140h-116z" />
    <glyph glyph-name="copyright" unicode="&#xa9;" horiz-adv-x="827" 
d="M413 -24q-94 0 -164 29t-110.5 81.5t-59.5 117.5t-19 144q0 80 19 145.5t59.5 119t110.5 83t164 29.5q77 0 138 -20t101 -54t66 -82.5t37.5 -103t11.5 -117.5q0 -79 -18.5 -144t-59 -117.5t-110.5 -81.5t-166 -29zM413 40q62 0 111 17.5t80 46t51 69t28.5 83.5t8.5 92
q0 62 -14 115t-44.5 99t-87 72.5t-133.5 26.5t-133 -26.5t-86.5 -72.5t-44.5 -99t-14 -115q0 -49 8 -92t28.5 -83.5t51.5 -69t79.5 -46t110.5 -17.5zM416 128q-99 0 -145 54t-46 170q0 117 45.5 171.5t145.5 54.5q86 0 130.5 -40.5t45.5 -127.5h-105q-4 84 -71 84
q-45 0 -64 -31.5t-19 -110.5q0 -74 19.5 -106.5t63.5 -32.5q66 0 70 81h105q-1 -87 -45 -126.5t-130 -39.5z" />
    <glyph glyph-name="ordfeminine" unicode="&#xaa;" horiz-adv-x="419" 
d="M388 360h-90l-11 46q-30 -55 -117 -55q-78 0 -110 28.5t-32 91.5q0 28 6.5 47.5t23.5 31.5t33 19t51 9.5t59 3t74 0.5q0 57 -10.5 77t-52.5 20q-36 0 -52 -16.5t-16 -41.5h-98q0 22 4.5 39.5t18.5 40t49.5 35.5t88.5 13q29 0 52.5 -3.5t41.5 -7.5t31 -14.5t21.5 -18
t14.5 -24.5t9 -26.5t4.5 -32.5t1.5 -34v-39v-86zM197 414q60 0 78 44v71q-32 0 -49 -0.5t-37 -3t-29 -9t-15.5 -18t-6.5 -28.5q0 -56 59 -56z" />
    <glyph glyph-name="guillemotleft" unicode="&#xab;" horiz-adv-x="568" 
d="M304 445l-130 -183l130 -176h-124l-117 161v30l117 168h124zM505 445l-131 -183l131 -176h-124l-117 161v30l117 168h124z" />
    <glyph glyph-name="registered" unicode="&#xae;" horiz-adv-x="827" 
d="M413 725q77 0 138 -20t101 -54t66 -82.5t37.5 -103t11.5 -117.5q0 -79 -18.5 -144t-59 -117.5t-110.5 -81.5t-166 -29q-94 0 -164 29t-110.5 81.5t-59.5 117.5t-19 144q0 80 19 145.5t59.5 119t110.5 83t164 29.5zM413 40q62 0 111 17.5t80 46t51 69t28.5 83.5t8.5 92
q0 62 -14 115t-44.5 99t-87 72.5t-133.5 26.5t-133 -26.5t-86.5 -72.5t-44.5 -99t-14 -115q0 -49 8 -92t28.5 -83.5t51.5 -69t79.5 -46t110.5 -17.5zM602 417q0 -102 -79 -129l78 -145h-102l-69 131h-76v-131h-105v418h161q104 0 148 -31.5t44 -112.5zM354 477v-120h54
q28 0 44 3t29 17t13 40q0 38 -21.5 49t-64.5 11h-54z" />
    <glyph glyph-name="macron" unicode="&#xaf;" horiz-adv-x="536" 
d="M60 728h273v-89h-273v89z" />
    <glyph glyph-name="degree" unicode="&#xb0;" horiz-adv-x="361" 
d="M181 481q-121 0 -121 126q0 127 121 127q120 0 120 -127q0 -126 -120 -126zM181 545q45 0 45 62q0 63 -45 63q-46 0 -46 -63q0 -62 46 -62z" />
    <glyph glyph-name="plusminus" unicode="&#xb1;" horiz-adv-x="536" 
d="M318 423h148v-94h-148v-106h-100v106h-148v94h148v106h100v-106zM70 87v97h396v-97h-396z" />
    <glyph glyph-name="uni00B2" unicode="&#xb2;" horiz-adv-x="453" 
d="M36 298v80q83 60 152 122q72 64 91 90q30 39 30 79q0 41 -22.5 64t-64.5 23q-88 0 -88 -97h-100q0 179 188 179q184 0 184 -163q0 -42 -19.5 -81.5t-39.5 -62t-58 -59.5q-25 -24 -53 -49t-44 -37l-15 -13l229 6v-81h-370z" />
    <glyph glyph-name="uni00B3" unicode="&#xb3;" horiz-adv-x="456" 
d="M404 752l-135 -120q145 -23 145 -169q0 -176 -194 -176q-100 0 -145.5 47t-45.5 122h97q0 -37 23.5 -63t69.5 -26q49 0 74 27t25 73q0 50 -28 77.5t-85 27.5l-62 -4v61l143 120l-236 -6v80h354v-71z" />
    <glyph glyph-name="acute" unicode="&#xb4;" horiz-adv-x="512" 
d="M52 617l80 158h128l-103 -158h-105z" />
    <glyph glyph-name="paragraph" unicode="&#xb6;" horiz-adv-x="657" 
d="M578 760v-760h-101v656h-69v-656h-100v277q-156 4 -212 54t-56 187q0 138 56.5 188.5t211.5 53.5h270zM160 519q0 -82 32 -108.5t116 -28.5v273q-84 -2 -116 -28t-32 -108z" />
    <glyph glyph-name="periodcentered" unicode="&#xb7;" horiz-adv-x="253" 
d="M68 233v129h117v-129h-117z" />
    <glyph glyph-name="cedilla" unicode="&#xb8;" horiz-adv-x="520" 
d="M229 3l-33 -56q41 -3 66 -24.5t25 -61.5q0 -104 -132 -104q-30 0 -51.5 1.5t-28.5 3.5l-7 1v71q20 -6 64 -6q56 0 56 40t-101 40h-3l52 95h93z" />
    <glyph glyph-name="uni00B9" unicode="&#xb9;" horiz-adv-x="266" 
d="M137 832h65v-536h-98v444l-92 -44v80z" />
    <glyph glyph-name="ordmasculine" unicode="&#xba;" horiz-adv-x="431" 
d="M215 349q-103 0 -145.5 50.5t-42.5 150.5q0 101 43 151.5t146 50.5t145 -50.5t42 -151.5q0 -100 -42.5 -150.5t-145.5 -50.5zM215 430q43 0 60.5 27t17.5 93t-17.5 93.5t-60.5 27.5t-60 -27.5t-17 -93.5t17 -93t60 -27z" />
    <glyph glyph-name="guillemotright" unicode="&#xbb;" horiz-adv-x="568" 
d="M304 277v-30l-117 -161h-124l131 176l-131 183h124zM388 445l117 -168v-30l-117 -161h-124l130 176l-130 183h124z" />
    <glyph glyph-name="onequarter" unicode="&#xbc;" horiz-adv-x="948" 
d="M578 769h106l-459 -809h-106zM202 224h-98v444l-92 -44v80l125 56h65v-536zM922 176v-75h-59v-101h-97v101h-259v75l252 354h104v-354h59zM593 176h173l1 247z" />
    <glyph glyph-name="onehalf" unicode="&#xbd;" horiz-adv-x="990" 
d="M578 769h106l-459 -809h-106zM202 224h-98v444l-92 -44v80l125 56h65v-536zM826 176q-25 -24 -53 -49t-43 -37l-16 -13l229 6v-81h-370v80q83 60 152 122q72 64 91 90q30 39 30 79q0 41 -22.5 64t-64.5 23q-88 0 -88 -97h-100q0 179 188 179q184 0 184 -163
q0 -42 -19.5 -81.5t-39.5 -62t-58 -59.5z" />
    <glyph glyph-name="threequarters" unicode="&#xbe;" horiz-adv-x="1121" 
d="M751 769h106l-459 -809h-106zM414 391q0 -176 -194 -176q-100 0 -145.5 47t-45.5 122h97q0 -37 23.5 -63t69.5 -26q49 0 74 27t25 73q0 50 -28 77.5t-85 27.5l-62 -4v61l143 120l-236 -6v80h354v-71l-135 -120q145 -23 145 -169zM1095 176v-75h-59v-101h-97v101h-259v75
l252 354h104v-354h59zM766 176h173l1 247z" />
    <glyph glyph-name="questiondown" unicode="&#xbf;" horiz-adv-x="532" 
d="M341 519v-121h-116v121h116zM229 338h108v-23q0 -53 -15.5 -94t-37.5 -66.5t-44.5 -48.5t-38 -52.5t-15.5 -65.5q0 -105 96 -105q54 0 75.5 34t21.5 102h117q0 -122 -53 -182t-164 -60q-210 0 -210 196q0 51 16.5 92t40 68t47 52t40 57.5t16.5 72.5v23z" />
    <glyph glyph-name="Agrave" unicode="&#xc0;" horiz-adv-x="659" 
d="M384 760h-106l-102 154h128zM529 0l-57 162h-292l-58 -162h-119l270 714h114l268 -714h-126zM217 267h218l-109 307z" />
    <glyph glyph-name="Aacute" unicode="&#xc1;" horiz-adv-x="659" 
d="M486 914l-103 -154h-105l80 154h128zM529 0l-57 162h-292l-58 -162h-119l270 714h114l268 -714h-126zM217 267h218l-109 307z" />
    <glyph glyph-name="Acircumflex" unicode="&#xc2;" horiz-adv-x="659" 
d="M329 822l-59 -62h-103l104 138h115l105 -138h-102zM529 0l-57 162h-292l-58 -162h-119l270 714h114l268 -714h-126zM217 267h218l-109 307z" />
    <glyph glyph-name="Atilde" unicode="&#xc3;" horiz-adv-x="659" 
d="M282 802q-26 0 -37.5 -14.5t-11.5 -27.5h-60q0 132 97 132q31 0 59.5 -17t45.5 -17q26 0 38 14.5t12 27.5h60q0 -69 -20.5 -102.5t-74.5 -33.5q-30 0 -60.5 19t-47.5 19zM529 0l-57 162h-292l-58 -162h-119l270 714h114l268 -714h-126zM217 267h218l-109 307z" />
    <glyph glyph-name="Adieresis" unicode="&#xc4;" horiz-adv-x="659" 
d="M296 899v-139h-116v139h116zM478 899v-139h-116v139h116zM529 0l-57 162h-292l-58 -162h-119l270 714h114l268 -714h-126zM217 267h218l-109 307z" />
    <glyph glyph-name="Aring" unicode="&#xc5;" horiz-adv-x="659" 
d="M329 760q-44 0 -69.5 25t-25.5 66t25.5 66t69.5 25q45 0 70.5 -25t25.5 -66t-25.5 -66t-70.5 -25zM329 885q-15 0 -24 -9.5t-9 -24.5t9 -24.5t24 -9.5t24.5 9t9.5 25t-9.5 25t-24.5 9zM529 0l-57 162h-292l-58 -162h-119l270 714h114l268 -714h-126zM217 267h218
l-109 307z" />
    <glyph glyph-name="AE" unicode="&#xc6;" horiz-adv-x="945" 
d="M559 105h355v-105h-474v162h-221l-88 -162h-128l397 714h507v-105h-348v-190h298v-102h-298v-212zM281 275h159v292z" />
    <glyph glyph-name="Ccedilla" unicode="&#xc7;" horiz-adv-x="680" 
d="M353 87q75 0 113 38t42 127h116q-6 -243 -217 -267l-24 -40q41 -3 66 -24.5t25 -61.5q0 -104 -132 -104q-30 0 -51.5 1.5t-28.5 3.5l-7 1v71q20 -6 64 -6q56 0 56 40t-101 40h-3l42 78q-134 10 -193.5 101t-59.5 271q0 193 68.5 285t224.5 92q269 0 272 -274h-116
q-4 90 -42 129.5t-114 39.5q-94 0 -133.5 -62.5t-39.5 -209.5q0 -146 39.5 -207.5t133.5 -61.5z" />
    <glyph glyph-name="Egrave" unicode="&#xc8;" horiz-adv-x="600" 
d="M378 760h-106l-102 154h128zM206 105h363v-105h-482v714h475v-105h-356v-190h306v-102h-306v-212z" />
    <glyph glyph-name="Eacute" unicode="&#xc9;" horiz-adv-x="600" 
d="M480 914l-103 -154h-105l80 154h128zM206 105h363v-105h-482v714h475v-105h-356v-190h306v-102h-306v-212z" />
    <glyph glyph-name="Ecircumflex" unicode="&#xca;" horiz-adv-x="600" 
d="M323 822l-59 -62h-103l104 138h115l105 -138h-102zM206 105h363v-105h-482v714h475v-105h-356v-190h306v-102h-306v-212z" />
    <glyph glyph-name="Edieresis" unicode="&#xcb;" horiz-adv-x="600" 
d="M290 899v-139h-116v139h116zM472 899v-139h-116v139h116zM206 105h363v-105h-482v714h475v-105h-356v-190h306v-102h-306v-212z" />
    <glyph glyph-name="Igrave" unicode="&#xcc;" horiz-adv-x="293" 
d="M202 760h-106l-102 154h128zM87 0v714h119v-714h-119z" />
    <glyph glyph-name="Iacute" unicode="&#xcd;" horiz-adv-x="293" 
d="M96 760l80 154h128l-103 -154h-105zM87 0v714h119v-714h-119z" />
    <glyph glyph-name="Icircumflex" unicode="&#xce;" horiz-adv-x="293" 
d="M204 898l105 -138h-102l-60 62l-59 -62h-103l104 138h115zM87 0v714h119v-714h-119z" />
    <glyph glyph-name="Idieresis" unicode="&#xcf;" horiz-adv-x="293" 
d="M-2 760v139h116v-139h-116zM180 760v139h116v-139h-116zM87 0v714h119v-714h-119z" />
    <glyph glyph-name="Eth" unicode="&#xd0;" horiz-adv-x="702" 
d="M87 717h197q108 0 177.5 -20t109.5 -66t55.5 -110.5t15.5 -164.5t-15.5 -164t-55.5 -109.5t-109.5 -65t-177.5 -19.5h-197v326h-53v78h53v315zM206 102h83q139 0 185.5 49.5t46.5 204.5q0 82 -10 130.5t-38 77t-69.5 38.5t-114.5 10h-83v-210h146v-78h-146v-222z" />
    <glyph glyph-name="Ntilde" unicode="&#xd1;" horiz-adv-x="740" 
d="M323 802q-26 0 -37.5 -14.5t-11.5 -27.5h-60q0 132 97 132q31 0 59.5 -17t45.5 -17q26 0 38 14.5t12 27.5h60q0 -69 -20.5 -102.5t-74.5 -33.5q-30 0 -60.5 19t-47.5 19zM539 714h114v-714h-132l-324 543l-1 -543h-109l1 714h132l331 -554z" />
    <glyph glyph-name="Ograve" unicode="&#xd2;" horiz-adv-x="715" 
d="M412 768h-106l-102 154h128zM357 -18q-159 0 -228 91t-69 283q0 193 69 285t228 92t228.5 -92t69.5 -285q0 -192 -69 -283t-229 -91zM357 87q98 0 137.5 61.5t39.5 207.5q0 147 -39.5 209.5t-137.5 62.5q-97 0 -137 -63t-40 -209q0 -145 40 -207t137 -62z" />
    <glyph glyph-name="Oacute" unicode="&#xd3;" horiz-adv-x="715" 
d="M306 768l80 154h128l-103 -154h-105zM357 -18q-159 0 -228 91t-69 283q0 193 69 285t228 92t228.5 -92t69.5 -285q0 -192 -69 -283t-229 -91zM357 87q98 0 137.5 61.5t39.5 207.5q0 147 -39.5 209.5t-137.5 62.5q-97 0 -137 -63t-40 -209q0 -145 40 -207t137 -62z" />
    <glyph glyph-name="Ocircumflex" unicode="&#xd4;" horiz-adv-x="715" 
d="M357 830l-59 -62h-103l104 138h115l105 -138h-102zM357 733q159 0 228.5 -92t69.5 -285q0 -192 -69 -283t-229 -91q-159 0 -228 91t-69 283q0 193 69 285t228 92zM357 87q98 0 137.5 61.5t39.5 207.5q0 147 -39.5 209.5t-137.5 62.5q-97 0 -137 -63t-40 -209
q0 -145 40 -207t137 -62z" />
    <glyph glyph-name="Otilde" unicode="&#xd5;" horiz-adv-x="715" 
d="M453 908h60q0 -69 -20.5 -102.5t-74.5 -33.5q-30 0 -60.5 19t-47.5 19q-26 0 -37.5 -14.5t-11.5 -27.5h-60q0 132 97 132q31 0 59.5 -17t45.5 -17q26 0 38 14.5t12 27.5zM357 -18q-159 0 -228 91t-69 283q0 193 69 285t228 92t228.5 -92t69.5 -285q0 -192 -69 -283
t-229 -91zM357 87q98 0 137.5 61.5t39.5 207.5q0 147 -39.5 209.5t-137.5 62.5q-97 0 -137 -63t-40 -209q0 -145 40 -207t137 -62z" />
    <glyph glyph-name="Odieresis" unicode="&#xd6;" horiz-adv-x="715" 
d="M208 768v139h116v-139h-116zM390 768v139h116v-139h-116zM357 -18q-159 0 -228 91t-69 283q0 193 69 285t228 92t228.5 -92t69.5 -285q0 -192 -69 -283t-229 -91zM357 87q98 0 137.5 61.5t39.5 207.5q0 147 -39.5 209.5t-137.5 62.5q-97 0 -137 -63t-40 -209
q0 -145 40 -207t137 -62z" />
    <glyph glyph-name="multiply" unicode="&#xd7;" horiz-adv-x="569" 
d="M484 173l-69 -67l-131 135l-130 -135l-69 67l133 137l-133 138l68 65l131 -134l130 134l69 -65l-133 -138z" />
    <glyph glyph-name="Oslash" unicode="&#xd8;" horiz-adv-x="715" 
d="M660 727l-66 -97q61 -89 61 -274q0 -192 -69 -283t-229 -91q-109 0 -176 43l-26 -39h-104l68 100q-59 89 -59 270q0 193 69 285t228 92q110 0 175 -43l25 37h103zM180 356q0 -99 17 -156l270 396q-38 32 -110 32q-97 0 -137 -63t-40 -209zM534 356q0 103 -18 160
l-270 -397q39 -32 111 -32q98 0 137.5 61.5t39.5 207.5z" />
    <glyph glyph-name="Ugrave" unicode="&#xd9;" horiz-adv-x="706" 
d="M408 760h-106l-102 154h128zM352 -18q-150 0 -213 84t-63 275v373h119v-373q0 -143 34.5 -198.5t121.5 -55.5q88 0 122.5 55.5t34.5 198.5v373h122v-373q0 -190 -64 -274.5t-214 -84.5z" />
    <glyph glyph-name="Uacute" unicode="&#xda;" horiz-adv-x="706" 
d="M302 760l80 154h128l-103 -154h-105zM352 -18q-150 0 -213 84t-63 275v373h119v-373q0 -143 34.5 -198.5t121.5 -55.5q88 0 122.5 55.5t34.5 198.5v373h122v-373q0 -190 -64 -274.5t-214 -84.5z" />
    <glyph glyph-name="Ucircumflex" unicode="&#xdb;" horiz-adv-x="706" 
d="M353 822l-59 -62h-103l104 138h115l105 -138h-102zM508 714h122v-373q0 -190 -64 -274.5t-214 -84.5t-213 84t-63 275v373h119v-373q0 -143 34.5 -198.5t121.5 -55.5q88 0 122.5 55.5t34.5 198.5v373z" />
    <glyph glyph-name="Udieresis" unicode="&#xdc;" horiz-adv-x="706" 
d="M204 760v139h116v-139h-116zM386 760v139h116v-139h-116zM352 -18q-150 0 -213 84t-63 275v373h119v-373q0 -143 34.5 -198.5t121.5 -55.5q88 0 122.5 55.5t34.5 198.5v373h122v-373q0 -190 -64 -274.5t-214 -84.5z" />
    <glyph glyph-name="Yacute" unicode="&#xdd;" horiz-adv-x="638" 
d="M473 914l-103 -154h-105l80 154h128zM501 714h133l-250 -463v-251h-120v251l-261 463h139l184 -343z" />
    <glyph glyph-name="Thorn" unicode="&#xde;" horiz-adv-x="662" 
d="M206 602h126q165 0 230 -50.5t65 -191.5t-65 -191t-233 -50h-123v-119h-119v714h119v-112zM206 226l123 -1q37 0 60.5 2t48 10t38.5 22.5t22.5 40t8.5 61.5t-8.5 61.5t-22.5 40t-38.5 22.5t-48 10t-60.5 2h-123v-271z" />
    <glyph glyph-name="germandbls" unicode="&#xdf;" horiz-adv-x="620" 
d="M540 562q0 -35 -14 -64t-31.5 -45.5t-40.5 -29t-35 -16.5t-20 -6q8 0 20 -1t40.5 -11t49.5 -27t38.5 -54t17.5 -87q0 -114 -72 -167.5t-248 -53.5v94q108 0 155 25.5t47 101.5q0 29 -8 51t-24.5 36t-32.5 22.5t-42.5 13t-42 6t-43.5 2.5v97q41 0 76.5 9t63.5 36t28 68
q0 113 -111 113q-56 -1 -86 -30.5t-30 -82.5v-562h-116v531q0 114 50.5 175t180.5 62h1q129 0 179 -56t50 -150z" />
    <glyph glyph-name="agrave" unicode="&#xe0;" horiz-adv-x="588" 
d="M343 617h-106l-102 158h128zM526 1h-97l-13 65q-56 -77 -181 -77q-100 0 -144.5 40t-44.5 124q0 32 7 57t20 42.5t32 30t43 20t52 12t60 5.5t67.5 2t73.5 0q-1 83 -20.5 113.5t-87.5 30.5q-65 0 -92 -28.5t-27 -63.5h-104q0 22 3.5 42.5t17 46.5t36 44t64 31t97.5 13
q34 0 62 -3t49.5 -10.5t38.5 -15t29.5 -22.5t21 -26t14 -33t8.5 -36t4.5 -42t1.5 -44v-49v-2v-126zM259 69q51 0 89.5 23.5t52.5 70.5v83q-48 0 -72.5 -0.5t-58.5 -3t-50 -8.5t-33.5 -16.5t-24 -27.5t-6.5 -40q0 -81 103 -81z" />
    <glyph glyph-name="aacute" unicode="&#xe1;" horiz-adv-x="588" 
d="M441 775l-103 -158h-105l80 158h128zM526 1h-97l-13 65q-56 -77 -181 -77q-100 0 -144.5 40t-44.5 124q0 32 7 57t20 42.5t32 30t43 20t52 12t60 5.5t67.5 2t73.5 0q-1 83 -20.5 113.5t-87.5 30.5q-65 0 -92 -28.5t-27 -63.5h-104q0 22 3.5 42.5t17 46.5t36 44t64 31
t97.5 13q34 0 62 -3t49.5 -10.5t38.5 -15t29.5 -22.5t21 -26t14 -33t8.5 -36t4.5 -42t1.5 -44v-49v-2v-126zM259 69q51 0 89.5 23.5t52.5 70.5v83q-48 0 -72.5 -0.5t-58.5 -3t-50 -8.5t-33.5 -16.5t-24 -27.5t-6.5 -40q0 -81 103 -81z" />
    <glyph glyph-name="acircumflex" unicode="&#xe2;" horiz-adv-x="588" 
d="M293 695l-60 -78h-110l120 158h99l120 -158h-109zM526 1h-97l-13 65q-56 -77 -181 -77q-100 0 -144.5 40t-44.5 124q0 32 7 57t20 42.5t32 30t43 20t52 12t60 5.5t67.5 2t73.5 0q-1 83 -20.5 113.5t-87.5 30.5q-65 0 -92 -28.5t-27 -63.5h-104q0 22 3.5 42.5t17 46.5
t36 44t64 31t97.5 13q34 0 62 -3t49.5 -10.5t38.5 -15t29.5 -22.5t21 -26t14 -33t8.5 -36t4.5 -42t1.5 -44v-49v-2v-126zM259 69q51 0 89.5 23.5t52.5 70.5v83q-48 0 -72.5 -0.5t-58.5 -3t-50 -8.5t-33.5 -16.5t-24 -27.5t-6.5 -40q0 -81 103 -81z" />
    <glyph glyph-name="atilde" unicode="&#xe3;" horiz-adv-x="588" 
d="M246 659q-26 0 -38 -14.5t-12 -27.5h-59q0 124 97 124q31 0 59.5 -17t45.5 -17q26 0 38 14.5t12 27.5h60q0 -67 -20 -97.5t-75 -30.5q-30 0 -60.5 19t-47.5 19zM526 1h-97l-13 65q-56 -77 -181 -77q-100 0 -144.5 40t-44.5 124q0 32 7 57t20 42.5t32 30t43 20t52 12
t60 5.5t67.5 2t73.5 0q-1 83 -20.5 113.5t-87.5 30.5q-65 0 -92 -28.5t-27 -63.5h-104q0 22 3.5 42.5t17 46.5t36 44t64 31t97.5 13q34 0 62 -3t49.5 -10.5t38.5 -15t29.5 -22.5t21 -26t14 -33t8.5 -36t4.5 -42t1.5 -44v-49v-2v-126zM259 69q51 0 89.5 23.5t52.5 70.5v83
q-48 0 -72.5 -0.5t-58.5 -3t-50 -8.5t-33.5 -16.5t-24 -27.5t-6.5 -40q0 -81 103 -81z" />
    <glyph glyph-name="adieresis" unicode="&#xe4;" horiz-adv-x="588" 
d="M260 758v-140h-116v140h116zM442 758v-140h-116v140h116zM526 1h-97l-13 65q-56 -77 -181 -77q-100 0 -144.5 40t-44.5 124q0 32 7 57t20 42.5t32 30t43 20t52 12t60 5.5t67.5 2t73.5 0q-1 83 -20.5 113.5t-87.5 30.5q-65 0 -92 -28.5t-27 -63.5h-104q0 22 3.5 42.5
t17 46.5t36 44t64 31t97.5 13q34 0 62 -3t49.5 -10.5t38.5 -15t29.5 -22.5t21 -26t14 -33t8.5 -36t4.5 -42t1.5 -44v-49v-2v-126zM259 69q51 0 89.5 23.5t52.5 70.5v83q-48 0 -72.5 -0.5t-58.5 -3t-50 -8.5t-33.5 -16.5t-24 -27.5t-6.5 -40q0 -81 103 -81z" />
    <glyph glyph-name="aring" unicode="&#xe5;" horiz-adv-x="588" 
d="M293 610q-54 0 -82 31t-28 75t28 75.5t82 31.5t82.5 -31.5t28.5 -75.5t-28.5 -75t-82.5 -31zM293 751q-14 0 -23.5 -9.5t-9.5 -25.5q0 -15 9.5 -24.5t23.5 -9.5q15 0 24.5 9.5t9.5 24.5q0 16 -9.5 25.5t-24.5 9.5zM526 1h-97l-13 65q-56 -77 -181 -77q-100 0 -144.5 40
t-44.5 124q0 32 7 57t20 42.5t32 30t43 20t52 12t60 5.5t67.5 2t73.5 0q-1 83 -20.5 113.5t-87.5 30.5q-65 0 -92 -28.5t-27 -63.5h-104q0 22 3.5 42.5t17 46.5t36 44t64 31t97.5 13q34 0 62 -3t49.5 -10.5t38.5 -15t29.5 -22.5t21 -26t14 -33t8.5 -36t4.5 -42t1.5 -44v-49
v-2v-126zM259 69q51 0 89.5 23.5t52.5 70.5v83q-48 0 -72.5 -0.5t-58.5 -3t-50 -8.5t-33.5 -16.5t-24 -27.5t-6.5 -40q0 -81 103 -81z" />
    <glyph glyph-name="ae" unicode="&#xe6;" horiz-adv-x="935" 
d="M640 75q66 0 96.5 30t31.5 65h117q0 -30 -12 -60t-38 -59t-76.5 -47t-117.5 -18q-155 0 -212 101q-51 -98 -194 -98q-100 0 -144.5 40.5t-44.5 125.5q0 32 7 56.5t19.5 42t31 30.5t42 20t51.5 12t59.5 6t66 2t71.5 0q2 26 10 62q-7 43 -32 61.5t-79 18.5q-65 0 -92 -28.5
t-27 -63.5h-104q0 22 3.5 42.5t17 46.5t36 44t64 31t97.5 13q122 0 164 -67q62 70 189 70q131 0 189 -75t58 -233h-113l-265 1q3 -89 32 -130.5t98 -41.5zM640 468q-61 0 -90.5 -34t-36.5 -104h257q-9 71 -40 104.5t-90 33.5zM259 69q52 0 90 24t52 73q-7 37 -9 83
q-44 0 -69.5 -1t-56.5 -3.5t-48 -9t-33 -17t-22.5 -26.5t-6.5 -39q0 -84 103 -84z" />
    <glyph glyph-name="ccedilla" unicode="&#xe7;" horiz-adv-x="585" 
d="M421 185h116q-6 -173 -187 -195l-25 -43q41 -3 66 -24.5t25 -61.5q0 -104 -132 -104q-30 0 -51.5 1.5t-28.5 3.5l-7 1v71q20 -6 64 -6q56 0 56 40t-101 40h-3l44 81q-112 11 -159.5 82.5t-47.5 198.5q0 138 57 210.5t193 72.5q230 0 236 -214h-114q-1 60 -33 90.5
t-89 30.5q-72 0 -102 -45.5t-30 -144.5t29.5 -144t102.5 -45q56 0 88 27.5t33 76.5z" />
    <glyph glyph-name="egrave" unicode="&#xe8;" horiz-adv-x="593" 
d="M349 617h-106l-102 158h128zM297 75q66 0 96.5 30t32.5 65h116q0 -30 -12 -60t-38 -59t-76.5 -47t-117.5 -18q-134 0 -191 71t-57 211q0 141 57 213.5t191 72.5q131 0 189.5 -75t58.5 -230h-378q2 -90 31 -132t98 -42zM297 468q-60 0 -89 -33.5t-37 -101.5h257
q-10 69 -41 102t-90 33z" />
    <glyph glyph-name="eacute" unicode="&#xe9;" horiz-adv-x="593" 
d="M447 775l-103 -158h-105l80 158h128zM297 75q66 0 96.5 30t32.5 65h116q0 -30 -12 -60t-38 -59t-76.5 -47t-117.5 -18q-134 0 -191 71t-57 211q0 141 57 213.5t191 72.5q131 0 189.5 -75t58.5 -230h-378q2 -90 31 -132t98 -42zM297 468q-60 0 -89 -33.5t-37 -101.5h257
q-10 69 -41 102t-90 33z" />
    <glyph glyph-name="ecircumflex" unicode="&#xea;" horiz-adv-x="593" 
d="M299 695l-60 -78h-110l120 158h99l120 -158h-109zM297 75q66 0 96.5 30t32.5 65h116q0 -30 -12 -60t-38 -59t-76.5 -47t-117.5 -18q-134 0 -191 71t-57 211q0 141 57 213.5t191 72.5q131 0 189.5 -75t58.5 -230h-378q2 -90 31 -132t98 -42zM297 468q-60 0 -89 -33.5
t-37 -101.5h257q-10 69 -41 102t-90 33z" />
    <glyph glyph-name="edieresis" unicode="&#xeb;" horiz-adv-x="593" 
d="M266 758v-140h-116v140h116zM448 758v-140h-116v140h116zM297 75q66 0 96.5 30t32.5 65h116q0 -30 -12 -60t-38 -59t-76.5 -47t-117.5 -18q-134 0 -191 71t-57 211q0 141 57 213.5t191 72.5q131 0 189.5 -75t58.5 -230h-378q2 -90 31 -132t98 -42zM297 468
q-60 0 -89 -33.5t-37 -101.5h257q-10 69 -41 102t-90 33z" />
    <glyph glyph-name="igrave" unicode="&#xec;" horiz-adv-x="250" 
d="M176 617h-106l-102 158h128zM64 0v541h116v-541h-116z" />
    <glyph glyph-name="iacute" unicode="&#xed;" horiz-adv-x="250" 
d="M66 617l80 158h128l-103 -158h-105zM64 0v541h116v-541h-116z" />
    <glyph glyph-name="icircumflex" unicode="&#xee;" horiz-adv-x="250" 
d="M175 775l120 -158h-109l-60 78l-60 -78h-110l120 158h99zM64 0v541h116v-541h-116z" />
    <glyph glyph-name="idieresis" unicode="&#xef;" horiz-adv-x="250" 
d="M-23 618v140h116v-140h-116zM159 618v140h116v-140h-116zM64 0v541h116v-541h-116z" />
    <glyph glyph-name="eth" unicode="&#xf0;" horiz-adv-x="605" 
d="M555 270v-7q-1 -134 -59.5 -205.5t-193.5 -71.5q-136 0 -194 73.5t-58 209.5q0 270 237 270q48 0 85 -21q-24 46 -53 90l-85 -44l-33 55l80 42q-22 28 -45 52.5t-35 35.5l-12 11h147q18 -17 44 -48l78 41l32 -55l-71 -37q134 -188 136 -391zM301 80q74 0 104 44t31 142v4
l-1 24q-3 42 -12 83q-12 34 -44 59t-78 25q-73 0 -103 -46.5t-30 -145.5t30 -144t103 -45z" />
    <glyph glyph-name="ntilde" unicode="&#xf1;" horiz-adv-x="626" 
d="M280 659q-26 0 -38 -14.5t-12 -27.5h-59q0 124 97 124q31 0 59.5 -17t45.5 -17q26 0 38 14.5t12 27.5h60q0 -67 -20 -97.5t-75 -30.5q-30 0 -60.5 19t-47.5 19zM360 553q104 0 148 -51t44 -179l-1 -323h-116l1 312q0 69 -21 104t-78 35q-93 0 -144 -101v-350h-116v393
l-7 148h97l15 -87q24 37 69 68t109 31z" />
    <glyph glyph-name="ograve" unicode="&#xf2;" horiz-adv-x="607" 
d="M352 615h-106l-102 158h128zM303 -14q-137 0 -195 73t-58 210t58 211t195 74q137 1 195.5 -73.5t58.5 -211.5t-58 -210t-196 -73zM303 80q75 0 105 44.5t30 144.5q0 99 -30.5 145.5t-104.5 46.5t-104.5 -46.5t-30.5 -145.5q0 -100 30 -144.5t105 -44.5z" />
    <glyph glyph-name="oacute" unicode="&#xf3;" horiz-adv-x="607" 
d="M242 615l80 158h128l-103 -158h-105zM303 -14q-137 0 -195 73t-58 210t58 211t195 74q137 1 195.5 -73.5t58.5 -211.5t-58 -210t-196 -73zM303 80q75 0 105 44.5t30 144.5q0 99 -30.5 145.5t-104.5 46.5t-104.5 -46.5t-30.5 -145.5q0 -100 30 -144.5t105 -44.5z" />
    <glyph glyph-name="ocircumflex" unicode="&#xf4;" horiz-adv-x="607" 
d="M302 693l-60 -78h-110l120 158h99l120 -158h-109zM303 554q137 1 195.5 -73.5t58.5 -211.5t-58 -210t-196 -73q-137 0 -195 73t-58 210t58 211t195 74zM303 80q75 0 105 44.5t30 144.5q0 99 -30.5 145.5t-104.5 46.5t-104.5 -46.5t-30.5 -145.5q0 -100 30 -144.5
t105 -44.5z" />
    <glyph glyph-name="otilde" unicode="&#xf5;" horiz-adv-x="607" 
d="M398 747h60q0 -67 -20 -97.5t-75 -30.5q-30 0 -60.5 19t-47.5 19q-26 0 -38 -14.5t-12 -27.5h-59q0 124 97 124q31 0 59.5 -17t45.5 -17q26 0 38 14.5t12 27.5zM303 -14q-137 0 -195 73t-58 210t58 211t195 74q137 1 195.5 -73.5t58.5 -211.5t-58 -210t-196 -73zM303 80
q75 0 105 44.5t30 144.5q0 99 -30.5 145.5t-104.5 46.5t-104.5 -46.5t-30.5 -145.5q0 -100 30 -144.5t105 -44.5z" />
    <glyph glyph-name="odieresis" unicode="&#xf6;" horiz-adv-x="607" 
d="M153 616v140h116v-140h-116zM335 616v140h116v-140h-116zM303 -14q-137 0 -195 73t-58 210t58 211t195 74q137 1 195.5 -73.5t58.5 -211.5t-58 -210t-196 -73zM303 80q75 0 105 44.5t30 144.5q0 99 -30.5 145.5t-104.5 46.5t-104.5 -46.5t-30.5 -145.5q0 -100 30 -144.5
t105 -44.5z" />
    <glyph glyph-name="divide" unicode="&#xf7;" horiz-adv-x="527" 
d="M210 423v124h108v-124h-108zM48 280v97h432v-97h-432zM210 109v124h108v-124h-108z" />
    <glyph glyph-name="oslash" unicode="&#xf8;" horiz-adv-x="607" 
d="M552 549l-52 -71q57 -70 57 -209q0 -137 -58 -210t-196 -73q-85 0 -140 29l-19 -26h-92l54 73q-56 70 -56 207t58 211t195 74q85 0 140 -29l17 24h92zM168 269q0 -63 12 -105l201 277q-29 20 -78 20q-74 0 -104.5 -46.5t-30.5 -145.5zM303 80q75 0 105 44.5t30 144.5
q0 63 -12 107l-202 -277q29 -19 79 -19z" />
    <glyph glyph-name="ugrave" unicode="&#xf9;" horiz-adv-x="610" 
d="M356 617h-106l-102 158h128zM548 0h-97l-16 94q-9 -15 -22 -30.5t-35.5 -34t-55 -30.5t-68.5 -12q-99 0 -145 51t-46 173l2 330h115l-1 -312q0 -70 20 -105t77 -35q100 0 149 114v338h116v-391z" />
    <glyph glyph-name="uacute" unicode="&#xfa;" horiz-adv-x="610" 
d="M454 775l-103 -158h-105l80 158h128zM548 0h-97l-16 94q-9 -15 -22 -30.5t-35.5 -34t-55 -30.5t-68.5 -12q-99 0 -145 51t-46 173l2 330h115l-1 -312q0 -70 20 -105t77 -35q100 0 149 114v338h116v-391z" />
    <glyph glyph-name="ucircumflex" unicode="&#xfb;" horiz-adv-x="610" 
d="M306 695l-60 -78h-110l120 158h99l120 -158h-109zM548 0h-97l-16 94q-9 -15 -22 -30.5t-35.5 -34t-55 -30.5t-68.5 -12q-99 0 -145 51t-46 173l2 330h115l-1 -312q0 -70 20 -105t77 -35q100 0 149 114v338h116v-391z" />
    <glyph glyph-name="udieresis" unicode="&#xfc;" horiz-adv-x="610" 
d="M273 758v-140h-116v140h116zM455 758v-140h-116v140h116zM548 0h-97l-16 94q-9 -15 -22 -30.5t-35.5 -34t-55 -30.5t-68.5 -12q-99 0 -145 51t-46 173l2 330h115l-1 -312q0 -70 20 -105t77 -35q100 0 149 114v338h116v-391z" />
    <glyph glyph-name="yacute" unicode="&#xfd;" horiz-adv-x="532" 
d="M403 775l-103 -158h-105l80 158h128zM406 541h120l-271 -761h-105l74 220h-32l-186 541h128l131 -420z" />
    <glyph glyph-name="thorn" unicode="&#xfe;" horiz-adv-x="619" 
d="M350 551q115 0 167 -71.5t52 -209.5t-52 -209t-167 -71q-109 0 -167 63v-293h-113v1000h113v-289q68 80 167 80zM328 83q122 0 122 187q0 188 -122 188q-96 0 -145 -100v-170q12 -43 46.5 -74t98.5 -31z" />
    <glyph glyph-name="ydieresis" unicode="&#xff;" horiz-adv-x="532" 
d="M222 758v-140h-116v140h116zM404 758v-140h-116v140h116zM406 541h120l-271 -761h-105l74 220h-32l-186 541h128l131 -420z" />
    <glyph glyph-name="Amacron" unicode="&#x100;" horiz-adv-x="659" 
d="M465 872v-90h-273v90h273zM529 0l-57 162h-292l-58 -162h-119l270 714h114l268 -714h-126zM217 267h218l-109 307z" />
    <glyph glyph-name="amacron" unicode="&#x101;" horiz-adv-x="588" 
d="M429 728v-89h-273v89h273zM526 1h-97l-13 65q-56 -77 -181 -77q-100 0 -144.5 40t-44.5 124q0 32 7 57t20 42.5t32 30t43 20t52 12t60 5.5t67.5 2t73.5 0q-1 83 -20.5 113.5t-87.5 30.5q-65 0 -92 -28.5t-27 -63.5h-104q0 22 3.5 42.5t17 46.5t36 44t64 31t97.5 13
q34 0 62 -3t49.5 -10.5t38.5 -15t29.5 -22.5t21 -26t14 -33t8.5 -36t4.5 -42t1.5 -44v-49v-2v-126zM259 69q51 0 89.5 23.5t52.5 70.5v83q-48 0 -72.5 -0.5t-58.5 -3t-50 -8.5t-33.5 -16.5t-24 -27.5t-6.5 -40q0 -81 103 -81z" />
    <glyph glyph-name="Abreve" unicode="&#x102;" horiz-adv-x="659" 
d="M329 760q-74 0 -113 38t-39 96h90q0 -20 17 -36t45 -16t46 16t18 36h89q0 -58 -39.5 -96t-113.5 -38zM529 0l-57 162h-292l-58 -162h-119l270 714h114l268 -714h-126zM217 267h218l-109 307z" />
    <glyph glyph-name="abreve" unicode="&#x103;" horiz-adv-x="588" 
d="M293 614q-70 0 -111 39t-41 100h90q0 -20 17 -37t45 -17t46 17t18 37h89q0 -61 -41 -100t-112 -39zM526 1h-97l-13 65q-56 -77 -181 -77q-100 0 -144.5 40t-44.5 124q0 32 7 57t20 42.5t32 30t43 20t52 12t60 5.5t67.5 2t73.5 0q-1 83 -20.5 113.5t-87.5 30.5
q-65 0 -92 -28.5t-27 -63.5h-104q0 22 3.5 42.5t17 46.5t36 44t64 31t97.5 13q34 0 62 -3t49.5 -10.5t38.5 -15t29.5 -22.5t21 -26t14 -33t8.5 -36t4.5 -42t1.5 -44v-49v-2v-126zM259 69q51 0 89.5 23.5t52.5 70.5v83q-48 0 -72.5 -0.5t-58.5 -3t-50 -8.5t-33.5 -16.5
t-24 -27.5t-6.5 -40q0 -81 103 -81z" />
    <glyph glyph-name="Aogonek" unicode="&#x104;" horiz-adv-x="659" 
d="M546 -89q0 -14 8.5 -24t24.5 -10q11 0 23 3.5t18 6.5l7 3v-64q0 -1 -11 -7.5t-35.5 -13t-52.5 -6.5q-43 0 -64 22t-21 57q0 72 84 127l-55 157h-292l-58 -162h-119l270 714h114l268 -714h-44q-13 -7 -25.5 -16.5t-26 -30t-13.5 -42.5zM217 267h218l-109 307z" />
    <glyph glyph-name="aogonek" unicode="&#x105;" horiz-adv-x="588" 
d="M481 -123q11 0 23 3.5t18 6.5l7 3v-64q0 -1 -11 -7.5t-35.5 -13t-52.5 -6.5q-43 0 -64 22t-21 57q0 72 83 126l-12 62q-56 -77 -181 -77q-100 0 -144.5 40t-44.5 124q0 32 7 57t20 42.5t32 30t43 20t52 12t60 5.5t67.5 2t73.5 0q-1 83 -20.5 113.5t-87.5 30.5
q-65 0 -92 -28.5t-27 -63.5h-104q0 22 3.5 42.5t17 46.5t36 44t64 31t97.5 13q34 0 62 -3t49.5 -10.5t38.5 -15t29.5 -22.5t21 -26t14 -33t8.5 -36t4.5 -42t1.5 -44v-49v-2v-126l9 -141h-11q-67 -36 -67 -90q0 -14 8.5 -24t24.5 -10zM259 69q51 0 89.5 23.5t52.5 70.5v83
q-48 0 -72.5 -0.5t-58.5 -3t-50 -8.5t-33.5 -16.5t-24 -27.5t-6.5 -40q0 -81 103 -81z" />
    <glyph glyph-name="Cacute" unicode="&#x106;" horiz-adv-x="680" 
d="M299 768l80 154h128l-103 -154h-105zM353 -18q-156 0 -224.5 91t-68.5 283q0 193 68.5 285t224.5 92q269 0 272 -274h-116q-4 90 -42 129.5t-114 39.5q-94 0 -133.5 -62.5t-39.5 -209.5q0 -146 39.5 -207.5t133.5 -61.5q75 0 113 38t42 127h116q-3 -138 -70.5 -204
t-200.5 -66z" />
    <glyph glyph-name="cacute" unicode="&#x107;" horiz-adv-x="585" 
d="M239 617l80 158h128l-103 -158h-105zM300 -13q-136 0 -193 72.5t-57 210.5t57 210.5t193 72.5q230 0 236 -214h-114q-1 60 -33 90.5t-89 30.5q-72 0 -102 -45.5t-30 -144.5t29.5 -144t102.5 -45q56 0 88 27.5t33 76.5h116q-4 -94 -62.5 -146t-174.5 -52z" />
    <glyph glyph-name="Ccircumflex" unicode="&#x108;" horiz-adv-x="680" 
d="M350 830l-59 -62h-103l104 138h115l105 -138h-102zM353 87q75 0 113 38t42 127h116q-3 -138 -70.5 -204t-200.5 -66q-156 0 -224.5 91t-68.5 283q0 193 68.5 285t224.5 92q269 0 272 -274h-116q-4 90 -42 129.5t-114 39.5q-94 0 -133.5 -62.5t-39.5 -209.5
q0 -146 39.5 -207.5t133.5 -61.5z" />
    <glyph glyph-name="ccircumflex" unicode="&#x109;" horiz-adv-x="585" 
d="M299 695l-60 -78h-110l120 158h99l120 -158h-109zM421 185h116q-4 -94 -62.5 -146t-174.5 -52q-136 0 -193 72.5t-57 210.5t57 210.5t193 72.5q230 0 236 -214h-114q-1 60 -33 90.5t-89 30.5q-72 0 -102 -45.5t-30 -144.5t29.5 -144t102.5 -45q56 0 88 27.5t33 76.5z" />
    <glyph glyph-name="Cdotaccent" unicode="&#x10a;" horiz-adv-x="680" 
d="M292 768v139h116v-139h-116zM353 -18q-156 0 -224.5 91t-68.5 283q0 193 68.5 285t224.5 92q269 0 272 -274h-116q-4 90 -42 129.5t-114 39.5q-94 0 -133.5 -62.5t-39.5 -209.5q0 -146 39.5 -207.5t133.5 -61.5q75 0 113 38t42 127h116q-3 -138 -70.5 -204t-200.5 -66z
" />
    <glyph glyph-name="cdotaccent" unicode="&#x10b;" horiz-adv-x="585" 
d="M241 621v139h116v-139h-116zM300 -13q-136 0 -193 72.5t-57 210.5t57 210.5t193 72.5q230 0 236 -214h-114q-1 60 -33 90.5t-89 30.5q-72 0 -102 -45.5t-30 -144.5t29.5 -144t102.5 -45q56 0 88 27.5t33 76.5h116q-4 -94 -62.5 -146t-174.5 -52z" />
    <glyph glyph-name="Ccaron" unicode="&#x10c;" horiz-adv-x="680" 
d="M407 768h-115l-104 138h102l60 -62l59 62h103zM353 87q75 0 113 38t42 127h116q-3 -138 -70.5 -204t-200.5 -66q-156 0 -224.5 91t-68.5 283q0 193 68.5 285t224.5 92q269 0 272 -274h-116q-4 90 -42 129.5t-114 39.5q-94 0 -133.5 -62.5t-39.5 -209.5
q0 -146 39.5 -207.5t133.5 -61.5z" />
    <glyph glyph-name="ccaron" unicode="&#x10d;" horiz-adv-x="585" 
d="M348 617h-99l-120 158h110l60 -78l60 78h109zM421 185h116q-4 -94 -62.5 -146t-174.5 -52q-136 0 -193 72.5t-57 210.5t57 210.5t193 72.5q230 0 236 -214h-114q-1 60 -33 90.5t-89 30.5q-72 0 -102 -45.5t-30 -144.5t29.5 -144t102.5 -45q56 0 88 27.5t33 76.5z" />
    <glyph glyph-name="Dcaron" unicode="&#x10e;" horiz-adv-x="702" 
d="M390 760h-115l-104 138h102l60 -62l59 62h103zM87 717h197q108 0 177.5 -20t109.5 -66t55.5 -110.5t15.5 -164.5t-15.5 -164t-55.5 -109.5t-109.5 -65t-177.5 -19.5h-197v719zM206 102h83q139 0 185.5 49.5t46.5 204.5q0 82 -10 130.5t-38 77t-69.5 38.5t-114.5 10h-83
v-510z" />
    <glyph glyph-name="dcaron" unicode="&#x10f;" horiz-adv-x="633" 
d="M551 760v-612l8 -148h-97l-13 69q-56 -79 -180 -79q-115 0 -167 71t-52 209t52 209.5t167 71.5q100 0 166 -68v277h116zM291 83q62 0 96.5 29.5t47.5 71.5v176q-49 98 -144 98q-123 0 -123 -188q0 -187 123 -187zM635 760h111l-91 -188h-88z" />
    <glyph glyph-name="Dcroat" unicode="&#x110;" horiz-adv-x="702" 
d="M87 717h197q108 0 177.5 -20t109.5 -66t55.5 -110.5t15.5 -164.5t-15.5 -164t-55.5 -109.5t-109.5 -65t-177.5 -19.5h-197v326h-53v78h53v315zM206 102h83q139 0 185.5 49.5t46.5 204.5q0 82 -10 130.5t-38 77t-69.5 38.5t-114.5 10h-83v-210h146v-78h-146v-222z" />
    <glyph glyph-name="dcroat" unicode="&#x111;" horiz-adv-x="633" 
d="M616 585h-65v-437l8 -148h-97l-13 69q-56 -79 -180 -79q-115 0 -167 71t-52 209t52 209.5t167 71.5q100 0 166 -68v102h-137v78h137v97h116v-97h65v-78zM291 83q62 0 96.5 29.5t47.5 71.5v176q-49 98 -144 98q-123 0 -123 -188q0 -187 123 -187z" />
    <glyph glyph-name="Emacron" unicode="&#x112;" horiz-adv-x="600" 
d="M459 872v-90h-273v90h273zM206 105h363v-105h-482v714h475v-105h-356v-190h306v-102h-306v-212z" />
    <glyph glyph-name="emacron" unicode="&#x113;" horiz-adv-x="593" 
d="M435 728v-89h-273v89h273zM297 75q66 0 96.5 30t32.5 65h116q0 -30 -12 -60t-38 -59t-76.5 -47t-117.5 -18q-134 0 -191 71t-57 211q0 141 57 213.5t191 72.5q131 0 189.5 -75t58.5 -230h-378q2 -90 31 -132t98 -42zM297 468q-60 0 -89 -33.5t-37 -101.5h257
q-10 69 -41 102t-90 33z" />
    <glyph glyph-name="Ebreve" unicode="&#x114;" horiz-adv-x="600" 
d="M323 760q-74 0 -113 38t-39 96h90q0 -20 17 -36t45 -16t46 16t18 36h89q0 -58 -39.5 -96t-113.5 -38zM206 105h363v-105h-482v714h475v-105h-356v-190h306v-102h-306v-212z" />
    <glyph glyph-name="ebreve" unicode="&#x115;" horiz-adv-x="593" 
d="M299 614q-70 0 -111 39t-41 100h90q0 -20 17 -37t45 -17t46 17t18 37h89q0 -61 -41 -100t-112 -39zM297 75q66 0 96.5 30t32.5 65h116q0 -30 -12 -60t-38 -59t-76.5 -47t-117.5 -18q-134 0 -191 71t-57 211q0 141 57 213.5t191 72.5q131 0 189.5 -75t58.5 -230h-378
q2 -90 31 -132t98 -42zM297 468q-60 0 -89 -33.5t-37 -101.5h257q-10 69 -41 102t-90 33z" />
    <glyph glyph-name="Edotaccent" unicode="&#x116;" horiz-adv-x="600" 
d="M381 899v-139h-116v139h116zM206 105h363v-105h-482v714h475v-105h-356v-190h306v-102h-306v-212z" />
    <glyph glyph-name="edotaccent" unicode="&#x117;" horiz-adv-x="593" 
d="M357 760v-139h-116v139h116zM297 75q66 0 96.5 30t32.5 65h116q0 -30 -12 -60t-38 -59t-76.5 -47t-117.5 -18q-134 0 -191 71t-57 211q0 141 57 213.5t191 72.5q131 0 189.5 -75t58.5 -230h-378q2 -90 31 -132t98 -42zM297 468q-60 0 -89 -33.5t-37 -101.5h257
q-10 69 -41 102t-90 33z" />
    <glyph glyph-name="Eogonek" unicode="&#x118;" horiz-adv-x="600" 
d="M530 -126q11 0 23 3t19 7l6 3v-64q0 -1 -11 -7.5t-35.5 -13t-52.5 -6.5q-43 0 -64 22t-21 57q0 73 81 125h-388v714h475v-105h-356v-190h306v-102h-306v-212h363v-105h-1q-8 -4 -20 -11t-31.5 -30.5t-19.5 -50.5q0 -14 8.5 -24t24.5 -10z" />
    <glyph glyph-name="eogonek" unicode="&#x119;" horiz-adv-x="593" 
d="M297 75q66 0 96.5 30t32.5 65h116q0 -91 -80 -143q-12 -8 -19 -11q-52 -35 -52 -81q0 -14 8.5 -24t24.5 -10q11 0 23 3.5t19 6.5l6 3v-64q0 -1 -11 -7.5t-35.5 -13t-52.5 -6.5q-43 0 -64 22t-21 57q0 44 35 85q-8 -1 -25 -1q-134 0 -191 71t-57 211q0 141 57 213.5
t191 72.5q131 0 189.5 -75t58.5 -230h-378q2 -90 31 -132t98 -42zM297 468q-60 0 -89 -33.5t-37 -101.5h257q-10 69 -41 102t-90 33z" />
    <glyph glyph-name="Ecaron" unicode="&#x11a;" horiz-adv-x="600" 
d="M380 760h-115l-104 138h102l60 -62l59 62h103zM206 105h363v-105h-482v714h475v-105h-356v-190h306v-102h-306v-212z" />
    <glyph glyph-name="ecaron" unicode="&#x11b;" horiz-adv-x="593" 
d="M348 617h-99l-120 158h110l60 -78l60 78h109zM297 75q66 0 96.5 30t32.5 65h116q0 -30 -12 -60t-38 -59t-76.5 -47t-117.5 -18q-134 0 -191 71t-57 211q0 141 57 213.5t191 72.5q131 0 189.5 -75t58.5 -230h-378q2 -90 31 -132t98 -42zM297 468q-60 0 -89 -33.5
t-37 -101.5h257q-10 69 -41 102t-90 33z" />
    <glyph glyph-name="Gcircumflex" unicode="&#x11c;" horiz-adv-x="690" 
d="M348 830l-59 -62h-103l104 138h115l105 -138h-102zM624 358v-268q0 -6 -9.5 -18t-31 -27.5t-51.5 -29.5t-77.5 -23.5t-101.5 -9.5q-157 -1 -225 88.5t-68 285.5q0 195 68 286t225 91q271 0 271 -255h-115q-2 73 -42 111.5t-114 38.5q-94 0 -133.5 -63t-39.5 -209
q0 -145 41.5 -207t140.5 -62q45 0 82 9t53 19t15 17v127h-126v99h238z" />
    <glyph glyph-name="gcircumflex" unicode="&#x11d;" horiz-adv-x="621" 
d="M312 695l-60 -78h-110l120 158h99l120 -158h-109zM462 541h97l-6 -156v-387q0 -30 -0.5 -46.5t-5.5 -45.5t-14 -46t-27.5 -38.5t-45 -33t-68 -20t-94.5 -8.5q-48 0 -86 10.5t-60.5 26.5t-38.5 36t-22.5 40t-10 36t-2.5 27v10h108q0 -9 0.5 -14.5t6.5 -23.5t17 -29
t36.5 -21t60.5 -10q36 0 61 8t38.5 20t20.5 33.5t8.5 40t1.5 48.5v56q-57 -64 -168 -64q-115 0 -167 71t-52 209t52 209.5t167 71.5q112 0 179 -94zM291 83q65 0 100 32.5t46 76.5v166q-50 100 -146 100q-123 0 -123 -188q0 -187 123 -187z" />
    <glyph glyph-name="Gbreve" unicode="&#x11e;" horiz-adv-x="690" 
d="M348 768q-74 0 -113 38t-39 96h90q0 -20 17 -36t45 -16t46 16t18 36h89q0 -58 -39.5 -96t-113.5 -38zM624 358v-268q0 -6 -9.5 -18t-31 -27.5t-51.5 -29.5t-77.5 -23.5t-101.5 -9.5q-157 -1 -225 88.5t-68 285.5q0 195 68 286t225 91q271 0 271 -255h-115
q-2 73 -42 111.5t-114 38.5q-94 0 -133.5 -63t-39.5 -209q0 -145 41.5 -207t140.5 -62q45 0 82 9t53 19t15 17v127h-126v99h238z" />
    <glyph glyph-name="gbreve" unicode="&#x11f;" horiz-adv-x="621" 
d="M312 614q-70 0 -111 39t-41 100h90q0 -20 17 -37t45 -17t46 17t18 37h89q0 -61 -41 -100t-112 -39zM462 541h97l-6 -156v-387q0 -30 -0.5 -46.5t-5.5 -45.5t-14 -46t-27.5 -38.5t-45 -33t-68 -20t-94.5 -8.5q-48 0 -86 10.5t-60.5 26.5t-38.5 36t-22.5 40t-10 36t-2.5 27
v10h108q0 -9 0.5 -14.5t6.5 -23.5t17 -29t36.5 -21t60.5 -10q36 0 61 8t38.5 20t20.5 33.5t8.5 40t1.5 48.5v56q-57 -64 -168 -64q-115 0 -167 71t-52 209t52 209.5t167 71.5q112 0 179 -94zM291 83q65 0 100 32.5t46 76.5v166q-50 100 -146 100q-123 0 -123 -188
q0 -187 123 -187z" />
    <glyph glyph-name="Gdotaccent" unicode="&#x120;" horiz-adv-x="690" 
d="M406 907v-139h-116v139h116zM624 358v-268q0 -6 -9.5 -18t-31 -27.5t-51.5 -29.5t-77.5 -23.5t-101.5 -9.5q-157 -1 -225 88.5t-68 285.5q0 195 68 286t225 91q271 0 271 -255h-115q-2 73 -42 111.5t-114 38.5q-94 0 -133.5 -63t-39.5 -209q0 -145 41.5 -207t140.5 -62
q45 0 82 9t53 19t15 17v127h-126v99h238z" />
    <glyph glyph-name="gdotaccent" unicode="&#x121;" horiz-adv-x="621" 
d="M370 760v-139h-116v139h116zM462 541h97l-6 -156v-387q0 -30 -0.5 -46.5t-5.5 -45.5t-14 -46t-27.5 -38.5t-45 -33t-68 -20t-94.5 -8.5q-48 0 -86 10.5t-60.5 26.5t-38.5 36t-22.5 40t-10 36t-2.5 27v10h108q0 -9 0.5 -14.5t6.5 -23.5t17 -29t36.5 -21t60.5 -10
q36 0 61 8t38.5 20t20.5 33.5t8.5 40t1.5 48.5v56q-57 -64 -168 -64q-115 0 -167 71t-52 209t52 209.5t167 71.5q112 0 179 -94zM291 83q65 0 100 32.5t46 76.5v166q-50 100 -146 100q-123 0 -123 -188q0 -187 123 -187z" />
    <glyph glyph-name="Gcommaaccent" unicode="&#x122;" horiz-adv-x="690" 
d="M624 358v-268q0 -6 -9.5 -18t-31 -27.5t-51.5 -29.5t-77.5 -23.5t-101.5 -9.5q-157 -1 -225 88.5t-68 285.5q0 195 68 286t225 91q271 0 271 -255h-115q-2 73 -42 111.5t-114 38.5q-94 0 -133.5 -63t-39.5 -209q0 -145 41.5 -207t140.5 -62q45 0 82 9t53 19t15 17v127
h-126v99h238zM291 -157q8 27 12 51.5t5 35.5v12h114q-3 -48 -23 -107q-11 -32 -25 -60.5t-22 -40.5l-9 -12h-99q28 54 47 121z" />
    <glyph glyph-name="gcommaaccent" unicode="&#x123;" horiz-adv-x="621" 
d="M357 707q-8 -35 -12 -64.5t-5 -40.5v-12h-119q1 46 22 125q11 37 26 70.5t25 48.5l9 15h103q-32 -65 -49 -142zM462 541h97l-6 -156v-387q0 -30 -0.5 -46.5t-5.5 -45.5t-14 -46t-27.5 -38.5t-45 -33t-68 -20t-94.5 -8.5q-48 0 -86 10.5t-60.5 26.5t-38.5 36t-22.5 40
t-10 36t-2.5 27v10h108q0 -9 0.5 -14.5t6.5 -23.5t17 -29t36.5 -21t60.5 -10q36 0 61 8t38.5 20t20.5 33.5t8.5 40t1.5 48.5v56q-57 -64 -168 -64q-115 0 -167 71t-52 209t52 209.5t167 71.5q112 0 179 -94zM291 83q65 0 100 32.5t46 76.5v166q-50 100 -146 100
q-123 0 -123 -188q0 -187 123 -187z" />
    <glyph glyph-name="Hcircumflex" unicode="&#x124;" horiz-adv-x="720" 
d="M360 822l-59 -62h-103l104 138h115l105 -138h-102zM513 714h120v-714h-120v309h-307v-309h-119v714h119v-292h307v292z" />
    <glyph glyph-name="hcircumflex" unicode="&#x125;" horiz-adv-x="624" 
d="M186 798l-60 62l-59 -62h-103l104 138h115l105 -138h-102zM357 553q104 0 148.5 -51t44.5 -179l-2 -323h-116l2 312q0 69 -21 104t-78 35q-99 0 -149 -112v-339h-116v760h116v-296q66 89 171 89z" />
    <glyph glyph-name="Hbar" unicode="&#x126;" horiz-adv-x="720" 
d="M705 612v-89h-72v-523h-120v309h-307v-309h-119v523h-70v89h70v102h119v-102h307v102h120v-102h72zM513 422v101h-307v-101h307z" />
    <glyph glyph-name="hbar" unicode="&#x127;" horiz-adv-x="624" 
d="M357 553q104 0 148.5 -51t44.5 -179l-2 -323h-116l2 312q0 69 -21 104t-78 35q-99 0 -149 -112v-339h-116v590h-64v78h64v92h116v-92h138v-78h-138v-126q66 89 171 89z" />
    <glyph glyph-name="Itilde" unicode="&#x128;" horiz-adv-x="293" 
d="M243 900h60q0 -69 -20.5 -102.5t-74.5 -33.5q-30 0 -60.5 19t-47.5 19q-26 0 -37.5 -14.5t-11.5 -27.5h-60q0 132 97 132q31 0 59.5 -17t45.5 -17q26 0 38 14.5t12 27.5zM87 0v714h119v-714h-119z" />
    <glyph glyph-name="itilde" unicode="&#x129;" horiz-adv-x="250" 
d="M222 749h60q0 -67 -20 -97.5t-75 -30.5q-30 0 -60.5 19t-47.5 19q-26 0 -38 -14.5t-12 -27.5h-59q0 124 97 124q31 0 59.5 -17t45.5 -17q26 0 38 14.5t12 27.5zM64 0v541h116v-541h-116z" />
    <glyph glyph-name="Imacron" unicode="&#x12a;" horiz-adv-x="293" 
d="M10 872h273v-90h-273v90zM87 0v714h119v-714h-119z" />
    <glyph glyph-name="imacron" unicode="&#x12b;" horiz-adv-x="250" 
d="M-11 728h273v-89h-273v89zM64 0v541h116v-541h-116z" />
    <glyph glyph-name="Ibreve" unicode="&#x12c;" horiz-adv-x="293" 
d="M211 894h89q0 -58 -39.5 -96t-113.5 -38t-113 38t-39 96h90q0 -20 17 -36t45 -16t46 16t18 36zM87 0v714h119v-714h-119z" />
    <glyph glyph-name="ibreve" unicode="&#x12d;" horiz-adv-x="250" 
d="M190 753h89q0 -61 -41 -100t-112 -39q-70 0 -111 39t-41 100h90q0 -20 17 -37t45 -17t46 17t18 37zM64 0v541h116v-541h-116z" />
    <glyph glyph-name="Iogonek" unicode="&#x12e;" horiz-adv-x="293" 
d="M206 0h-32q-67 -36 -67 -90q0 -14 8.5 -24t24.5 -10q11 0 23 3t19 7l6 3v-64q0 -1 -11 -7.5t-35.5 -13t-52.5 -6.5q-43 0 -64 22t-21 57q0 30 17 58.5t33 42.5t33 25v711h119v-714z" />
    <glyph glyph-name="iogonek" unicode="&#x12f;" horiz-adv-x="250" 
d="M68 760h116v-139h-116v139zM64 2v539h116v-541h-28q-67 -36 -67 -90q0 -14 8.5 -24t24.5 -10q11 0 23 3t19 7l6 3v-64q0 -1 -11 -7.5t-35.5 -13t-52.5 -6.5q-43 0 -64 22t-21 57q0 73 82 125z" />
    <glyph glyph-name="Idotaccent" unicode="&#x130;" horiz-adv-x="293" 
d="M89 760v139h116v-139h-116zM87 0v714h119v-714h-119z" />
    <glyph glyph-name="dotlessi" unicode="&#x131;" horiz-adv-x="250" 
d="M64 0v541h116v-541h-116z" />
    <glyph glyph-name="IJ" unicode="&#x132;" horiz-adv-x="735" 
d="M87 0v714h119v-714h-119zM379 0h-71v114h71q36 0 59 2.5t42.5 11.5t29.5 22t17 38t9.5 56t2.5 79l-1 391h120l2 -391q0 -66 -3 -108t-13.5 -82t-29 -62.5t-50 -40t-76.5 -24t-109 -6.5z" />
    <glyph glyph-name="ij" unicode="&#x133;" horiz-adv-x="529" 
d="M68 621v139h116v-139h-116zM333 621v139h116v-139h-116zM64 0v541h116v-541h-116zM216 -212v97q25 0 43 3t31 7t21 14.5t13 20t7.5 29t3 36t0.5 46.5v500h116v-500q0 -54 -3 -88.5t-12 -65.5t-24.5 -48t-42.5 -29.5t-63.5 -17t-89.5 -4.5z" />
    <glyph glyph-name="Jcircumflex" unicode="&#x134;" horiz-adv-x="442" 
d="M214 822l-59 -62h-103l104 138h115l105 -138h-102zM245 714h120l2 -391q0 -66 -3 -108t-13.5 -82t-29 -62.5t-50 -40t-76.5 -24t-109 -6.5h-71v114h71q36 0 59 2.5t42.5 11.5t29.5 22t17 38t9.5 56t2.5 79z" />
    <glyph glyph-name="jcircumflex" unicode="&#x135;" horiz-adv-x="279" 
d="M190 775l120 -158h-109l-60 78l-60 -78h-110l120 158h99zM85 41v500h116v-500q0 -54 -3 -88.5t-12 -65.5t-24.5 -48t-42.5 -29.5t-63.5 -17t-89.5 -4.5v97q25 0 43 3t31 7t21 14.5t13 20t7.5 29t3 36t0.5 46.5z" />
    <glyph glyph-name="Kcommaaccent" unicode="&#x136;" horiz-adv-x="650" 
d="M368 393l279 -393h-135l-216 305l-90 -111v-194h-119v714h119v-375l283 375h140zM267 -157q8 27 12 51.5t5 35.5v12h114q-3 -48 -23 -107q-11 -32 -25 -60.5t-22 -40.5l-9 -12h-99q28 54 47 121z" />
    <glyph glyph-name="kcommaaccent" unicode="&#x137;" horiz-adv-x="557" 
d="M328 318l228 -318h-131l-170 237l-60 -66v-171h-116v760h116v-463l198 244h137zM216 -157q8 27 12 51.5t4 35.5l1 12h114q-3 -48 -23 -107q-11 -32 -25 -60.5t-23 -40.5l-8 -12h-99q28 54 47 121z" />
    <glyph glyph-name="kgreenlandic" unicode="&#x138;" horiz-adv-x="557" 
d="M425 0l-170 237l-60 -67v-170h-116v541h116v-244l198 244h137l-202 -223l228 -318h-131z" />
    <glyph glyph-name="Lacute" unicode="&#x139;" horiz-adv-x="513" 
d="M311 914l-103 -154h-105l80 154h128zM206 110h289v-110h-408v714h119v-604z" />
    <glyph glyph-name="lacute" unicode="&#x13a;" horiz-adv-x="274" 
d="M85 797l80 154h128l-103 -154h-105zM79 0v760h116v-760h-116z" />
    <glyph glyph-name="Lcommaaccent" unicode="&#x13b;" horiz-adv-x="513" 
d="M206 110h289v-110h-408v714h119v-604zM213 -157q8 27 12 51.5t5 35.5v12h114q-3 -48 -23 -107q-11 -32 -25 -60.5t-22 -40.5l-9 -12h-99q28 54 47 121z" />
    <glyph glyph-name="lcommaaccent" unicode="&#x13c;" horiz-adv-x="274" 
d="M79 0v760h116v-760h-116zM104 -278h-99q28 54 47 121q8 27 12 51.5t4 35.5l1 12h114q-3 -48 -23 -107q-11 -32 -25 -60.5t-23 -40.5z" />
    <glyph glyph-name="Lcaron" unicode="&#x13d;" horiz-adv-x="513" 
d="M465 774l-102 -188h-105l79 188h128zM206 110h289v-110h-408v714h119v-604z" />
    <glyph glyph-name="lcaron" unicode="&#x13e;" horiz-adv-x="274" 
d="M79 0v760h116v-760h-116zM212 572l68 188h111l-91 -188h-88z" />
    <glyph glyph-name="Ldot" unicode="&#x13f;" horiz-adv-x="513" 
d="M206 110h289v-110h-408v714h119v-604zM387 416v-129h-116v129h116z" />
    <glyph glyph-name="ldot" unicode="&#x140;" horiz-adv-x="375" 
d="M79 0v760h116v-760h-116zM233 319v129h116v-129h-116z" />
    <glyph glyph-name="Lslash" unicode="&#x141;" horiz-adv-x="513" 
d="M206 110h289v-110h-408v274l-76 -44l-43 77l119 68v339h119v-271l86 49l43 -76l-129 -74v-232z" />
    <glyph glyph-name="lslash" unicode="&#x142;" horiz-adv-x="274" 
d="M321 448l-126 -72v-376h-116v309l-82 -47l-43 77l125 71v350h116v-283l83 47z" />
    <glyph glyph-name="Nacute" unicode="&#x143;" horiz-adv-x="740" 
d="M527 914l-103 -154h-105l80 154h128zM539 714h114v-714h-132l-324 543l-1 -543h-109l1 714h132l331 -554z" />
    <glyph glyph-name="nacute" unicode="&#x144;" horiz-adv-x="626" 
d="M475 775l-103 -158h-105l80 158h128zM360 553q104 0 148 -51t44 -179l-1 -323h-116l1 312q0 69 -21 104t-78 35q-93 0 -144 -101v-350h-116v393l-7 148h97l15 -87q24 37 69 68t109 31z" />
    <glyph glyph-name="Ncommaaccent" unicode="&#x145;" horiz-adv-x="740" 
d="M539 714h114v-714h-132l-324 543l-1 -543h-109l1 714h132l331 -554zM289 -157q8 27 12 51.5t5 35.5v12h114q-3 -48 -23 -107q-11 -32 -25 -60.5t-22 -40.5l-9 -12h-99q28 54 47 121z" />
    <glyph glyph-name="ncommaaccent" unicode="&#x146;" horiz-adv-x="626" 
d="M360 553q104 0 148 -51t44 -179l-1 -323h-116l1 312q0 69 -21 104t-78 35q-93 0 -144 -101v-350h-116v393l-7 148h97l15 -87q24 37 69 68t109 31zM236 -157q8 27 12 51.5t4 35.5l1 12h114q-3 -48 -23 -107q-11 -32 -25 -60.5t-23 -40.5l-8 -12h-99q28 54 47 121z" />
    <glyph glyph-name="Ncaron" unicode="&#x147;" horiz-adv-x="740" 
d="M427 760h-115l-104 138h102l60 -62l59 62h103zM539 714h114v-714h-132l-324 543l-1 -543h-109l1 714h132l331 -554z" />
    <glyph glyph-name="ncaron" unicode="&#x148;" horiz-adv-x="626" 
d="M376 617h-99l-120 158h110l60 -78l60 78h109zM360 553q104 0 148 -51t44 -179l-1 -323h-116l1 312q0 69 -21 104t-78 35q-93 0 -144 -101v-350h-116v393l-7 148h97l15 -87q24 37 69 68t109 31z" />
    <glyph glyph-name="Eng" unicode="&#x14a;" horiz-adv-x="740" 
d="M539 714h114v-714q0 -49 -10 -86.5t-34.5 -71t-73 -51.5t-118.5 -18h-63v106h71q119 0 119 121l-347 547l-1 -547h-109l1 714h132l331 -554z" />
    <glyph glyph-name="eng" unicode="&#x14b;" horiz-adv-x="626" 
d="M360 553q104 0 148 -51t44 -179l-1 -278q0 -82 -7 -125.5t-32.5 -75.5t-70.5 -42.5t-125 -10.5v98q35 0 57 6t34.5 14t18.5 31t7.5 42.5t1.5 62.5l1 267q0 69 -21 104t-78 35q-93 0 -144 -101v-350h-116v393l-7 148h97l15 -87q24 37 69 68t109 31z" />
    <glyph glyph-name="Omacron" unicode="&#x14c;" horiz-adv-x="715" 
d="M220 880h273v-90h-273v90zM357 -18q-159 0 -228 91t-69 283q0 193 69 285t228 92t228.5 -92t69.5 -285q0 -192 -69 -283t-229 -91zM357 87q98 0 137.5 61.5t39.5 207.5q0 147 -39.5 209.5t-137.5 62.5q-97 0 -137 -63t-40 -209q0 -145 40 -207t137 -62z" />
    <glyph glyph-name="omacron" unicode="&#x14d;" horiz-adv-x="607" 
d="M165 726h273v-89h-273v89zM303 -14q-137 0 -195 73t-58 210t58 211t195 74q137 1 195.5 -73.5t58.5 -211.5t-58 -210t-196 -73zM303 80q75 0 105 44.5t30 144.5q0 99 -30.5 145.5t-104.5 46.5t-104.5 -46.5t-30.5 -145.5q0 -100 30 -144.5t105 -44.5z" />
    <glyph glyph-name="Obreve" unicode="&#x14e;" horiz-adv-x="715" 
d="M421 902h89q0 -58 -39.5 -96t-113.5 -38t-113 38t-39 96h90q0 -20 17 -36t45 -16t46 16t18 36zM357 -18q-159 0 -228 91t-69 283q0 193 69 285t228 92t228.5 -92t69.5 -285q0 -192 -69 -283t-229 -91zM357 87q98 0 137.5 61.5t39.5 207.5q0 147 -39.5 209.5t-137.5 62.5
q-97 0 -137 -63t-40 -209q0 -145 40 -207t137 -62z" />
    <glyph glyph-name="obreve" unicode="&#x14f;" horiz-adv-x="607" 
d="M366 751h89q0 -61 -41 -100t-112 -39q-70 0 -111 39t-41 100h90q0 -20 17 -37t45 -17t46 17t18 37zM303 -14q-137 0 -195 73t-58 210t58 211t195 74q137 1 195.5 -73.5t58.5 -211.5t-58 -210t-196 -73zM303 80q75 0 105 44.5t30 144.5q0 99 -30.5 145.5t-104.5 46.5
t-104.5 -46.5t-30.5 -145.5q0 -100 30 -144.5t105 -44.5z" />
    <glyph glyph-name="Ohungarumlaut" unicode="&#x150;" horiz-adv-x="715" 
d="M208 768l78 154h129l-102 -154h-105zM378 768l95 154h129l-118 -154h-106zM357 -18q-159 0 -228 91t-69 283q0 193 69 285t228 92t228.5 -92t69.5 -285q0 -192 -69 -283t-229 -91zM357 87q98 0 137.5 61.5t39.5 207.5q0 147 -39.5 209.5t-137.5 62.5q-97 0 -137 -63
t-40 -209q0 -145 40 -207t137 -62z" />
    <glyph glyph-name="ohungarumlaut" unicode="&#x151;" horiz-adv-x="607" 
d="M149 615l78 158h129l-102 -158h-105zM319 615l95 158h129l-118 -158h-106zM303 -14q-137 0 -195 73t-58 210t58 211t195 74q137 1 195.5 -73.5t58.5 -211.5t-58 -210t-196 -73zM303 80q75 0 105 44.5t30 144.5q0 99 -30.5 145.5t-104.5 46.5t-104.5 -46.5t-30.5 -145.5
q0 -100 30 -144.5t105 -44.5z" />
    <glyph glyph-name="OE" unicode="&#x152;" horiz-adv-x="978" 
d="M584 105h363v-105h-605q-147 0 -214.5 89t-67.5 267t67.5 268t214.5 90h599v-105h-357v-190h307v-102h-307v-212zM357 98h109v518h-109q-97 0 -137 -61.5t-40 -198.5t40 -197.5t137 -60.5z" />
    <glyph glyph-name="oe" unicode="&#x153;" horiz-adv-x="972" 
d="M676 75q66 0 96.5 30t32.5 65h116q0 -30 -12 -60t-38 -59t-76.5 -47t-117.5 -18q-131 0 -185 74q-57 -74 -189 -74q-137 0 -195 73t-58 210t58 211t195 74q133 0 189 -75q54 75 185 75t189.5 -75.5t58.5 -234.5h-378q3 -87 32 -128t97 -41zM676 468q-60 0 -89.5 -34.5
t-36.5 -105.5h257q-9 72 -40 106t-91 34zM303 80q75 0 105 44.5t30 144.5q0 99 -30.5 145.5t-104.5 46.5t-104.5 -46.5t-30.5 -145.5q0 -100 30 -144.5t105 -44.5z" />
    <glyph glyph-name="Racute" unicode="&#x154;" horiz-adv-x="682" 
d="M487 914l-103 -154h-105l80 154h128zM652 0h-136l-129 255q-17 -1 -54 -1h-127v-254h-119v715h249q117 0 179 -23t85.5 -70.5t23.5 -136.5q0 -92 -26 -141.5t-93 -70.5zM206 360l127 -1q46 0 71.5 3t51 15t36.5 38.5t11 69.5t-11 69t-36.5 37.5t-51.5 15t-71 3.5h-127
v-250z" />
    <glyph glyph-name="racute" unicode="&#x155;" horiz-adv-x="404" 
d="M356 775l-103 -158h-105l80 158h128zM167 541l16 -102q7 18 18.5 35t33.5 36.5t58.5 31.5t83.5 12v-108q-40 0 -72.5 -12t-51.5 -28.5t-32.5 -38.5t-19 -37t-8.5 -30v-300h-116v384l-7 157h97z" />
    <glyph glyph-name="Rcommaaccent" unicode="&#x156;" horiz-adv-x="682" 
d="M505 273l147 -273h-136l-129 255q-17 -1 -54 -1h-127v-254h-119v715h249q117 0 179 -23t85.5 -70.5t23.5 -136.5q0 -92 -26 -141.5t-93 -70.5zM206 360l127 -1q46 0 71.5 3t51 15t36.5 38.5t11 69.5t-11 69t-36.5 37.5t-51.5 15t-71 3.5h-127v-250zM280 -157
q8 27 12 51.5t4 35.5l1 12h114q-3 -48 -23 -107q-11 -32 -25 -60.5t-23 -40.5l-8 -12h-99q28 54 47 121z" />
    <glyph glyph-name="rcommaaccent" unicode="&#x157;" horiz-adv-x="404" 
d="M167 541l16 -102q7 18 18.5 35t33.5 36.5t58.5 31.5t83.5 12v-108q-40 0 -72.5 -12t-51.5 -28.5t-32.5 -38.5t-19 -37t-8.5 -30v-300h-116v384l-7 157h97zM58 -157q8 27 12 51.5t4 35.5l1 12h114q-3 -48 -23 -107q-11 -32 -25 -60.5t-23 -40.5l-8 -12h-99q28 54 47 121z
" />
    <glyph glyph-name="Rcaron" unicode="&#x158;" horiz-adv-x="682" 
d="M387 760h-115l-104 138h102l60 -62l59 62h103zM652 0h-136l-129 255q-17 -1 -54 -1h-127v-254h-119v715h249q117 0 179 -23t85.5 -70.5t23.5 -136.5q0 -92 -26 -141.5t-93 -70.5zM206 360l127 -1q46 0 71.5 3t51 15t36.5 38.5t11 69.5t-11 69t-36.5 37.5t-51.5 15
t-71 3.5h-127v-250z" />
    <glyph glyph-name="rcaron" unicode="&#x159;" horiz-adv-x="404" 
d="M257 617h-99l-120 158h110l60 -78l60 78h109zM167 541l16 -102q7 18 18.5 35t33.5 36.5t58.5 31.5t83.5 12v-108q-40 0 -72.5 -12t-51.5 -28.5t-32.5 -38.5t-19 -37t-8.5 -30v-300h-116v384l-7 157h97z" />
    <glyph glyph-name="Sacute" unicode="&#x15a;" horiz-adv-x="637" 
d="M271 768l80 154h128l-103 -154h-105zM43 223h116q0 -65 42 -100.5t115 -35.5q82 -1 120.5 26.5t38.5 72.5q0 36 -23 60t-59.5 36t-80.5 22t-88 24.5t-80.5 36.5t-59.5 65.5t-23 104.5q0 199 256 198q133 0 199 -57t66 -164h-114q0 48 -37 82t-110 34q-76 1 -107.5 -27
t-31.5 -70q0 -36 23 -60t60 -36t81 -22.5t88.5 -24.5t81.5 -35.5t60 -62.5t23 -99q0 -210 -279 -209q-277 0 -277 241z" />
    <glyph glyph-name="sacute" unicode="&#x15b;" horiz-adv-x="551" 
d="M219 617l80 158h128l-103 -158h-105zM48 176h104q0 -100 124 -102q118 0 118 67q0 31 -25 50t-62 25.5t-80.5 18t-80.5 25.5t-62 50t-25 90q0 72 55.5 113t162.5 40q220 0 220 -171h-104q0 83 -113 84q-57 0 -81 -19t-24 -47q0 -35 34.5 -53.5t84.5 -27.5t99.5 -22.5
t84 -50t34.5 -97.5q0 -163 -235 -162q-229 0 -229 189z" />
    <glyph glyph-name="Scircumflex" unicode="&#x15c;" horiz-adv-x="637" 
d="M322 830l-59 -62h-103l104 138h115l105 -138h-102zM182 531q0 -36 23 -60t60 -36t81 -22.5t88.5 -24.5t81.5 -35.5t60 -62.5t23 -99q0 -210 -279 -209q-277 0 -277 241h116q0 -65 42 -100.5t115 -35.5q82 -1 120.5 26.5t38.5 72.5q0 36 -23 60t-59.5 36t-80.5 22
t-88 24.5t-80.5 36.5t-59.5 65.5t-23 104.5q0 199 256 198q133 0 199 -57t66 -164h-114q0 48 -37 82t-110 34q-76 1 -107.5 -27t-31.5 -70z" />
    <glyph glyph-name="scircumflex" unicode="&#x15d;" horiz-adv-x="551" 
d="M279 695l-60 -78h-110l120 158h99l120 -158h-109zM175 400q0 -35 34.5 -53.5t84.5 -27.5t99.5 -22.5t84 -50t34.5 -97.5q0 -163 -235 -162q-229 0 -229 189h104q0 -100 124 -102q118 0 118 67q0 31 -25 50t-62 25.5t-80.5 18t-80.5 25.5t-62 50t-25 90q0 72 55.5 113
t162.5 40q220 0 220 -171h-104q0 83 -113 84q-57 0 -81 -19t-24 -47z" />
    <glyph glyph-name="Scedilla" unicode="&#x15e;" horiz-adv-x="637" 
d="M599 191q0 -192 -230 -208l-23 -38q41 -3 66 -24.5t25 -61.5q0 -104 -132 -104q-30 0 -51.5 1.5t-28.5 3.5l-7 1v71q20 -6 64 -6q56 0 56 40t-101 40h-3l42 78q-233 17 -233 239h116q0 -65 42 -100.5t115 -35.5q82 -1 120.5 26.5t38.5 72.5q0 36 -23 60t-59.5 36
t-80.5 22t-88 24.5t-80.5 36.5t-59.5 65.5t-23 104.5q0 199 256 198q133 0 199 -57t66 -164h-114q0 48 -37 82t-110 34q-76 1 -107.5 -27t-31.5 -70q0 -36 23 -60t60 -36t81 -22.5t88.5 -24.5t81.5 -35.5t60 -62.5t23 -99z" />
    <glyph glyph-name="scedilla" unicode="&#x15f;" horiz-adv-x="551" 
d="M512 149q0 -145 -184 -160l-25 -42q41 -3 66 -24.5t25 -61.5q0 -104 -132 -104q-30 0 -51.5 1.5t-28.5 3.5l-7 1v71q20 -6 64 -6q56 0 56 40t-101 40h-3l44 81q-187 16 -187 187h104q0 -100 124 -102q118 0 118 67q0 31 -25 50t-62 25.5t-80.5 18t-80.5 25.5t-62 50
t-25 90q0 72 55.5 113t162.5 40q220 0 220 -171h-104q0 83 -113 84q-57 0 -81 -19t-24 -47q0 -35 34.5 -53.5t84.5 -27.5t99.5 -22.5t84 -50t34.5 -97.5z" />
    <glyph glyph-name="Scaron" unicode="&#x160;" horiz-adv-x="637" 
d="M379 768h-115l-104 138h102l60 -62l59 62h103zM182 531q0 -36 23 -60t60 -36t81 -22.5t88.5 -24.5t81.5 -35.5t60 -62.5t23 -99q0 -210 -279 -209q-277 0 -277 241h116q0 -65 42 -100.5t115 -35.5q82 -1 120.5 26.5t38.5 72.5q0 36 -23 60t-59.5 36t-80.5 22t-88 24.5
t-80.5 36.5t-59.5 65.5t-23 104.5q0 199 256 198q133 0 199 -57t66 -164h-114q0 48 -37 82t-110 34q-76 1 -107.5 -27t-31.5 -70z" />
    <glyph glyph-name="scaron" unicode="&#x161;" horiz-adv-x="551" 
d="M328 617h-99l-120 158h110l60 -78l60 78h109zM175 400q0 -35 34.5 -53.5t84.5 -27.5t99.5 -22.5t84 -50t34.5 -97.5q0 -163 -235 -162q-229 0 -229 189h104q0 -100 124 -102q118 0 118 67q0 31 -25 50t-62 25.5t-80.5 18t-80.5 25.5t-62 50t-25 90q0 72 55.5 113
t162.5 40q220 0 220 -171h-104q0 83 -113 84q-57 0 -81 -19t-24 -47z" />
    <glyph glyph-name="uni0162" unicode="&#x162;" horiz-adv-x="557" 
d="M335 0h-26l-32 -54q41 -3 66 -24.5t25 -61.5q0 -104 -132 -104q-30 0 -51.5 1.5t-28.5 2.5l-7 2v71q20 -6 64 -6q56 0 56 40t-101 40h-3l51 93l3 604h-201v110h521v-110h-201z" />
    <glyph glyph-name="uni0163" unicode="&#x163;" horiz-adv-x="384" 
d="M276 -4l-23 -39q41 -3 66 -24.5t25 -61.5q0 -104 -132 -104q-30 0 -51.5 1.5t-28.5 3.5l-7 1v71q20 -6 64 -6q56 0 56 40t-101 40h-3l50 91q-56 21 -74 71t-18 132v236h-69v93h69v145l116 21v-166h129v-93h-129v-236q0 -69 17 -95.5t59 -26.5h59v-94h-74z" />
    <glyph glyph-name="Tcaron" unicode="&#x164;" horiz-adv-x="557" 
d="M336 760h-115l-104 138h102l60 -62l59 62h103zM539 714v-110h-201l-3 -604h-119l3 604h-201v110h521z" />
    <glyph glyph-name="tcaron" unicode="&#x165;" horiz-adv-x="384" 
d="M429 776l-91 -188h-88l68 188h111zM215 448v-236q0 -69 17 -95.5t59 -26.5h59v-94h-74q-58 0 -95 16.5t-54 49.5t-22.5 66.5t-5.5 83.5v236h-69v93h69v145l116 21v-166h129v-93h-129z" />
    <glyph glyph-name="Tbar" unicode="&#x166;" horiz-adv-x="562" 
d="M542 604h-202l-1 -195h121v-93h-121l-1 -316h-120l1 316h-117v93h118l1 195h-201v110h522v-110z" />
    <glyph glyph-name="tbar" unicode="&#x167;" horiz-adv-x="384" 
d="M291 90h59v-94h-74q-58 0 -95 16.5t-54 49.5t-22.5 66.5t-5.5 83.5v36h-74v78h74v122h-69v93h69v145l116 21v-166h129v-93h-129v-122h128v-78h-128v-36q0 -69 17 -95.5t59 -26.5z" />
    <glyph glyph-name="Utilde" unicode="&#x168;" horiz-adv-x="706" 
d="M449 900h60q0 -69 -20.5 -102.5t-74.5 -33.5q-30 0 -60.5 19t-47.5 19q-26 0 -37.5 -14.5t-11.5 -27.5h-60q0 132 97 132q31 0 59.5 -17t45.5 -17q26 0 38 14.5t12 27.5zM352 -18q-150 0 -213 84t-63 275v373h119v-373q0 -143 34.5 -198.5t121.5 -55.5q88 0 122.5 55.5
t34.5 198.5v373h122v-373q0 -190 -64 -274.5t-214 -84.5z" />
    <glyph glyph-name="utilde" unicode="&#x169;" horiz-adv-x="610" 
d="M259 659q-26 0 -38 -14.5t-12 -27.5h-59q0 124 97 124q31 0 59.5 -17t45.5 -17q26 0 38 14.5t12 27.5h60q0 -67 -20 -97.5t-75 -30.5q-30 0 -60.5 19t-47.5 19zM548 0h-97l-16 94q-9 -15 -22 -30.5t-35.5 -34t-55 -30.5t-68.5 -12q-99 0 -145 51t-46 173l2 330h115
l-1 -312q0 -70 20 -105t77 -35q100 0 149 114v338h116v-391z" />
    <glyph glyph-name="Umacron" unicode="&#x16a;" horiz-adv-x="706" 
d="M216 872h273v-90h-273v90zM352 -18q-150 0 -213 84t-63 275v373h119v-373q0 -143 34.5 -198.5t121.5 -55.5q88 0 122.5 55.5t34.5 198.5v373h122v-373q0 -190 -64 -274.5t-214 -84.5z" />
    <glyph glyph-name="umacron" unicode="&#x16b;" horiz-adv-x="610" 
d="M442 728v-89h-273v89h273zM548 0h-97l-16 94q-9 -15 -22 -30.5t-35.5 -34t-55 -30.5t-68.5 -12q-99 0 -145 51t-46 173l2 330h115l-1 -312q0 -70 20 -105t77 -35q100 0 149 114v338h116v-391z" />
    <glyph glyph-name="Ubreve" unicode="&#x16c;" horiz-adv-x="706" 
d="M417 894h89q0 -58 -39.5 -96t-113.5 -38t-113 38t-39 96h90q0 -20 17 -36t45 -16t46 16t18 36zM352 -18q-150 0 -213 84t-63 275v373h119v-373q0 -143 34.5 -198.5t121.5 -55.5q88 0 122.5 55.5t34.5 198.5v373h122v-373q0 -190 -64 -274.5t-214 -84.5z" />
    <glyph glyph-name="ubreve" unicode="&#x16d;" horiz-adv-x="610" 
d="M306 614q-70 0 -111 39t-41 100h90q0 -20 17 -37t45 -17t46 17t18 37h89q0 -61 -41 -100t-112 -39zM548 0h-97l-16 94q-9 -15 -22 -30.5t-35.5 -34t-55 -30.5t-68.5 -12q-99 0 -145 51t-46 173l2 330h115l-1 -312q0 -70 20 -105t77 -35q100 0 149 114v338h116v-391z" />
    <glyph glyph-name="Uring" unicode="&#x16e;" horiz-adv-x="706" 
d="M353 760q-44 0 -69.5 25t-25.5 66t25.5 66t69.5 25q45 0 70.5 -25t25.5 -66t-25.5 -66t-70.5 -25zM353 817q15 0 24.5 9t9.5 25t-9.5 25t-24.5 9t-24 -9.5t-9 -24.5t9 -24.5t24 -9.5zM352 -18q-150 0 -213 84t-63 275v373h119v-373q0 -143 34.5 -198.5t121.5 -55.5
q88 0 122.5 55.5t34.5 198.5v373h122v-373q0 -190 -64 -274.5t-214 -84.5z" />
    <glyph glyph-name="uring" unicode="&#x16f;" horiz-adv-x="610" 
d="M306 610q-54 0 -82 31t-28 75t28 75.5t82 31.5t82.5 -31.5t28.5 -75.5t-28.5 -75t-82.5 -31zM306 751q-14 0 -23.5 -9.5t-9.5 -25.5q0 -15 9.5 -24.5t23.5 -9.5q15 0 24.5 9.5t9.5 24.5q0 16 -9.5 25.5t-24.5 9.5zM548 0h-97l-16 94q-9 -15 -22 -30.5t-35.5 -34
t-55 -30.5t-68.5 -12q-99 0 -145 51t-46 173l2 330h115l-1 -312q0 -70 20 -105t77 -35q100 0 149 114v338h116v-391z" />
    <glyph glyph-name="Uhungarumlaut" unicode="&#x170;" horiz-adv-x="706" 
d="M204 760l78 154h129l-102 -154h-105zM374 760l95 154h129l-118 -154h-106zM352 -18q-150 0 -213 84t-63 275v373h119v-373q0 -143 34.5 -198.5t121.5 -55.5q88 0 122.5 55.5t34.5 198.5v373h122v-373q0 -190 -64 -274.5t-214 -84.5z" />
    <glyph glyph-name="uhungarumlaut" unicode="&#x171;" horiz-adv-x="610" 
d="M360 775l-102 -158h-105l78 158h129zM429 617h-106l95 158h129zM548 0h-97l-16 94q-9 -15 -22 -30.5t-35.5 -34t-55 -30.5t-68.5 -12q-99 0 -145 51t-46 173l2 330h115l-1 -312q0 -70 20 -105t77 -35q100 0 149 114v338h116v-391z" />
    <glyph glyph-name="Uogonek" unicode="&#x172;" horiz-adv-x="706" 
d="M508 714h122v-373q0 -245 -110 -318l-1 -1l-18 -10q-52 -35 -52 -81q0 -14 8.5 -24t24.5 -10q11 0 23 3.5t19 6.5l6 3v-64q0 -1 -11 -7.5t-35.5 -13t-52.5 -6.5q-43 0 -64 22t-21 57q0 44 35 85q-9 -1 -29 -1q-150 0 -213 84t-63 275v373h119v-373q0 -143 34.5 -198.5
t121.5 -55.5q88 0 122.5 55.5t34.5 198.5v373z" />
    <glyph glyph-name="uogonek" unicode="&#x173;" horiz-adv-x="610" 
d="M502 -126q11 0 23 3t19 7l6 3v-64q0 -1 -11 -7.5t-35.5 -13t-52.5 -6.5q-43 0 -64 22t-21 57q0 31 18 60t34 43t33 24l-16 92q-9 -15 -22 -30.5t-35.5 -34t-55 -30.5t-68.5 -12q-99 0 -145 51t-46 173l2 330h115l-1 -312q0 -70 20 -105t77 -35q100 0 149 114v338h116
v-391l7 -150h-8q-8 -4 -20 -11t-31.5 -30.5t-19.5 -50.5q0 -14 8.5 -24t24.5 -10z" />
    <glyph glyph-name="Wcircumflex" unicode="&#x174;" horiz-adv-x="987" 
d="M498 822l-59 -62h-103l104 138h115l105 -138h-102zM859 714h125l-218 -714h-123l-155 541l-152 -541h-115l-218 714h133l145 -560l149 560h122l161 -567z" />
    <glyph glyph-name="wcircumflex" unicode="&#x175;" horiz-adv-x="762" 
d="M378 695l-60 -78h-110l120 158h99l120 -158h-109zM650 541h110l-172 -541h-100l-114 378l-104 -378h-100l-168 542h117l105 -391l101 390h111l108 -390z" />
    <glyph glyph-name="Ycircumflex" unicode="&#x176;" horiz-adv-x="638" 
d="M316 822l-59 -62h-103l104 138h115l105 -138h-102zM501 714h133l-250 -463v-251h-120v251l-261 463h139l184 -343z" />
    <glyph glyph-name="ycircumflex" unicode="&#x177;" horiz-adv-x="532" 
d="M255 695l-60 -78h-110l120 158h99l120 -158h-109zM406 541h120l-271 -761h-105l74 220h-32l-186 541h128l131 -420z" />
    <glyph glyph-name="Ydieresis" unicode="&#x178;" horiz-adv-x="638" 
d="M283 899v-139h-116v139h116zM465 899v-139h-116v139h116zM501 714h133l-250 -463v-251h-120v251l-261 463h139l184 -343z" />
    <glyph glyph-name="Zacute" unicode="&#x179;" horiz-adv-x="590" 
d="M454 914l-103 -154h-105l80 154h128zM155 108h403v-105h-530v120l399 484h-382v105h510v-121z" />
    <glyph glyph-name="zacute" unicode="&#x17a;" horiz-adv-x="495" 
d="M395 775l-103 -158h-105l80 158h128zM44 537h413v-116l-303 -324l303 1v-95h-423v117l305 326l-295 -1v92z" />
    <glyph glyph-name="Zdotaccent" unicode="&#x17b;" horiz-adv-x="590" 
d="M355 899v-139h-116v139h116zM155 108h403v-105h-530v120l399 484h-382v105h510v-121z" />
    <glyph glyph-name="zdotaccent" unicode="&#x17c;" horiz-adv-x="495" 
d="M305 760v-139h-116v139h116zM44 537h413v-116l-303 -324l303 1v-95h-423v117l305 326l-295 -1v92z" />
    <glyph glyph-name="Zcaron" unicode="&#x17d;" horiz-adv-x="590" 
d="M354 760h-115l-104 138h102l60 -62l59 62h103zM155 108h403v-105h-530v120l399 484h-382v105h510v-121z" />
    <glyph glyph-name="zcaron" unicode="&#x17e;" horiz-adv-x="495" 
d="M296 617h-99l-120 158h110l60 -78l60 78h109zM44 537h413v-116l-303 -324l303 1v-95h-423v117l305 326l-295 -1v92z" />
    <glyph glyph-name="uni018F" unicode="&#x18f;" horiz-adv-x="715" 
d="M357 733q159 0 228.5 -92t69.5 -285q0 -192 -69 -283t-229 -91t-228.5 93t-68.5 295h474q-2 139 -41.5 198.5t-135.5 59.5q-76 0 -116 -37.5t-53 -121.5h-121q17 135 86.5 199.5t203.5 64.5zM357 87q86 0 126.5 46.5t48.5 152.5h-349q10 -107 50.5 -153t123.5 -46z" />
    <glyph glyph-name="uni019D" unicode="&#x19d;" horiz-adv-x="740" 
d="M539 714h114v-714h-132l-324 543l-1 -543q0 -50 -9 -87.5t-31.5 -71t-67.5 -51t-111 -17.5h-63v107h71q59 0 80.5 28.5t21.5 91.5l1 714h132l331 -554z" />
    <glyph glyph-name="Gcaron" unicode="&#x1e6;" horiz-adv-x="690" 
d="M405 768h-115l-104 138h102l60 -62l59 62h103zM624 358v-268q0 -6 -9.5 -18t-31 -27.5t-51.5 -29.5t-77.5 -23.5t-101.5 -9.5q-157 -1 -225 88.5t-68 285.5q0 195 68 286t225 91q271 0 271 -255h-115q-2 73 -42 111.5t-114 38.5q-94 0 -133.5 -63t-39.5 -209
q0 -145 41.5 -207t140.5 -62q45 0 82 9t53 19t15 17v127h-126v99h238z" />
    <glyph glyph-name="gcaron" unicode="&#x1e7;" horiz-adv-x="621" 
d="M361 617h-99l-120 158h110l60 -78l60 78h109zM462 541h97l-6 -156v-387q0 -30 -0.5 -46.5t-5.5 -45.5t-14 -46t-27.5 -38.5t-45 -33t-68 -20t-94.5 -8.5q-48 0 -86 10.5t-60.5 26.5t-38.5 36t-22.5 40t-10 36t-2.5 27v10h108q0 -9 0.5 -14.5t6.5 -23.5t17 -29t36.5 -21
t60.5 -10q36 0 61 8t38.5 20t20.5 33.5t8.5 40t1.5 48.5v56q-57 -64 -168 -64q-115 0 -167 71t-52 209t52 209.5t167 71.5q112 0 179 -94zM291 83q65 0 100 32.5t46 76.5v166q-50 100 -146 100q-123 0 -123 -188q0 -187 123 -187z" />
    <glyph glyph-name="uni01EA" unicode="&#x1ea;" horiz-adv-x="715" 
d="M504 9q-58 -35 -58 -85q0 -14 8.5 -24t24.5 -10q11 0 23 3t18 7l7 3v-64q0 -1 -11 -7.5t-35.5 -13t-52.5 -6.5q-43 0 -64 22t-21 57q0 47 41 92q-9 -1 -27 -1q-159 0 -228 91t-69 283q0 193 69 285t228 92t228.5 -92t69.5 -285q0 -140 -36 -225.5t-115 -121.5zM180 356
q0 -145 40 -207t137 -62q98 0 137.5 61.5t39.5 207.5q0 147 -39.5 209.5t-137.5 62.5q-97 0 -137 -63t-40 -209z" />
    <glyph glyph-name="uni01EB" unicode="&#x1eb;" horiz-adv-x="607" 
d="M439 13q-41 -33 -41 -73q0 -14 8.5 -24t24.5 -10q11 0 23 3t18 7l7 3v-64q0 -1 -11 -7.5t-35.5 -13t-52.5 -6.5q-43 0 -64 22t-21 57q0 41 30 80q-7 -1 -22 -1q-137 0 -195 73t-58 210t58 211t195 74q137 1 195.5 -73.5t58.5 -211.5q0 -198 -118 -256zM168 269
q0 -100 30 -144.5t105 -44.5t105 44.5t30 144.5q0 99 -30.5 145.5t-104.5 46.5t-104.5 -46.5t-30.5 -145.5z" />
    <glyph glyph-name="Aringacute" unicode="&#x1fa;" horiz-adv-x="659" 
d="M486 1142l-103 -154h-105l80 154h128zM329 760q-44 0 -69.5 25t-25.5 66t25.5 66t69.5 25q45 0 70.5 -25t25.5 -66t-25.5 -66t-70.5 -25zM329 885q-15 0 -24 -9.5t-9 -24.5t9 -24.5t24 -9.5t24.5 9t9.5 25t-9.5 25t-24.5 9zM529 0l-57 162h-292l-58 -162h-119l270 714
h114l268 -714h-126zM217 267h218l-109 307z" />
    <glyph glyph-name="aringacute" unicode="&#x1fb;" horiz-adv-x="588" 
d="M444 1027l-103 -158h-105l80 158h128zM293 610q-54 0 -82 31t-28 75t28 75.5t82 31.5t82.5 -31.5t28.5 -75.5t-28.5 -75t-82.5 -31zM293 751q-14 0 -23.5 -9.5t-9.5 -25.5q0 -15 9.5 -24.5t23.5 -9.5q15 0 24.5 9.5t9.5 24.5q0 16 -9.5 25.5t-24.5 9.5zM526 1h-97l-13 65
q-56 -77 -181 -77q-100 0 -144.5 40t-44.5 124q0 32 7 57t20 42.5t32 30t43 20t52 12t60 5.5t67.5 2t73.5 0q-1 83 -20.5 113.5t-87.5 30.5q-65 0 -92 -28.5t-27 -63.5h-104q0 22 3.5 42.5t17 46.5t36 44t64 31t97.5 13q34 0 62 -3t49.5 -10.5t38.5 -15t29.5 -22.5t21 -26
t14 -33t8.5 -36t4.5 -42t1.5 -44v-49v-2v-126zM259 69q51 0 89.5 23.5t52.5 70.5v83q-48 0 -72.5 -0.5t-58.5 -3t-50 -8.5t-33.5 -16.5t-24 -27.5t-6.5 -40q0 -81 103 -81z" />
    <glyph glyph-name="AEacute" unicode="&#x1fc;" horiz-adv-x="945" 
d="M642 914l-103 -154h-105l80 154h128zM559 105h355v-105h-474v162h-221l-88 -162h-128l397 714h507v-105h-348v-190h298v-102h-298v-212zM281 275h159v292z" />
    <glyph glyph-name="aeacute" unicode="&#x1fd;" horiz-adv-x="935" 
d="M621 775l-103 -158h-105l80 158h128zM640 75q66 0 96.5 30t31.5 65h117q0 -30 -12 -60t-38 -59t-76.5 -47t-117.5 -18q-155 0 -212 101q-51 -98 -194 -98q-100 0 -144.5 40.5t-44.5 125.5q0 32 7 56.5t19.5 42t31 30.5t42 20t51.5 12t59.5 6t66 2t71.5 0q2 26 10 62
q-7 43 -32 61.5t-79 18.5q-65 0 -92 -28.5t-27 -63.5h-104q0 22 3.5 42.5t17 46.5t36 44t64 31t97.5 13q122 0 164 -67q62 70 189 70q131 0 189 -75t58 -233h-113l-265 1q3 -89 32 -130.5t98 -41.5zM640 468q-61 0 -90.5 -34t-36.5 -104h257q-9 71 -40 104.5t-90 33.5z
M259 69q52 0 90 24t52 73q-7 37 -9 83q-44 0 -69.5 -1t-56.5 -3.5t-48 -9t-33 -17t-22.5 -26.5t-6.5 -39q0 -84 103 -84z" />
    <glyph glyph-name="Oslashacute" unicode="&#x1fe;" horiz-adv-x="715" 
d="M513 922l-103 -154h-105l80 154h128zM660 727l-66 -97q61 -89 61 -274q0 -192 -69 -283t-229 -91q-109 0 -176 43l-26 -39h-104l68 100q-59 89 -59 270q0 193 69 285t228 92q110 0 175 -43l25 37h103zM180 356q0 -99 17 -156l270 396q-38 32 -110 32q-97 0 -137 -63
t-40 -209zM534 356q0 103 -18 160l-270 -397q39 -32 111 -32q98 0 137.5 61.5t39.5 207.5z" />
    <glyph glyph-name="oslashacute" unicode="&#x1ff;" horiz-adv-x="607" 
d="M450 773l-103 -158h-105l80 158h128zM552 549l-52 -71q57 -70 57 -209q0 -137 -58 -210t-196 -73q-85 0 -140 29l-19 -26h-92l54 73q-56 70 -56 207t58 211t195 74q85 0 140 -29l17 24h92zM168 269q0 -63 12 -105l201 277q-29 20 -78 20q-74 0 -104.5 -46.5t-30.5 -145.5
zM303 80q75 0 105 44.5t30 144.5q0 63 -12 107l-202 -277q29 -19 79 -19z" />
    <glyph glyph-name="Scommaaccent" unicode="&#x218;" horiz-adv-x="637" 
d="M43 223h116q0 -65 42 -100.5t115 -35.5q82 -1 120.5 26.5t38.5 72.5q0 36 -23 60t-59.5 36t-80.5 22t-88 24.5t-80.5 36.5t-59.5 65.5t-23 104.5q0 199 256 198q133 0 199 -57t66 -164h-114q0 48 -37 82t-110 34q-76 1 -107.5 -27t-31.5 -70q0 -36 23 -60t60 -36
t81 -22.5t88.5 -24.5t81.5 -35.5t60 -62.5t23 -99q0 -210 -279 -209q-277 0 -277 241zM318 -280h-99q28 54 47 121q8 27 12 51.5t4 35.5l1 12h114q-3 -48 -23 -107q-11 -32 -25 -60.5t-23 -40.5z" />
    <glyph glyph-name="scommaaccent" unicode="&#x219;" horiz-adv-x="551" 
d="M48 176h104q0 -100 124 -102q118 0 118 67q0 31 -25 50t-62 25.5t-80.5 18t-80.5 25.5t-62 50t-25 90q0 72 55.5 113t162.5 40q220 0 220 -171h-104q0 83 -113 84q-57 0 -81 -19t-24 -47q0 -35 34.5 -53.5t84.5 -27.5t99.5 -22.5t84 -50t34.5 -97.5q0 -163 -235 -162
q-229 0 -229 189zM275 -278h-99q28 54 47 121q8 27 12 51.5t5 35.5v12h114q-3 -48 -23 -107q-11 -32 -25 -60.5t-22 -40.5z" />
    <glyph glyph-name="uni021A" unicode="&#x21a;" horiz-adv-x="562" 
d="M542 714v-110h-202l-2 -604h-120l3 604h-201v110h522zM199 -158q8 27 12 51.5t5 36.5v11h115q-4 -47 -23 -106q-11 -33 -25 -61.5t-23 -40.5l-9 -12h-99q28 54 47 121z" />
    <glyph glyph-name="uni021B" unicode="&#x21b;" horiz-adv-x="384" 
d="M291 90h59v-94h-74q-58 0 -95 16.5t-54 49.5t-22.5 66.5t-5.5 83.5v236h-69v93h69v145l116 21v-166h129v-93h-129v-236q0 -69 17 -95.5t59 -26.5zM173 -147q8 27 12 51.5t5 35.5v12h114q-3 -48 -23 -107q-11 -32 -25 -60.5t-22 -40.5l-9 -12h-99q28 54 47 121z" />
    <glyph glyph-name="uni0232" unicode="&#x232;" horiz-adv-x="638" 
d="M452 872v-90h-273v90h273zM501 714h133l-250 -463v-251h-120v251l-261 463h139l184 -343z" />
    <glyph glyph-name="uni0233" unicode="&#x233;" horiz-adv-x="532" 
d="M391 728v-89h-273v89h273zM406 541h120l-271 -761h-105l74 220h-32l-186 541h128l131 -420z" />
    <glyph glyph-name="uni0237" unicode="&#x237;" horiz-adv-x="279" 
d="M-34 -212v97q25 0 43 3t31 7t21 14.5t13 20t7.5 29t3 36t0.5 46.5v500h116v-500q0 -54 -3 -88.5t-12 -65.5t-24.5 -48t-42.5 -29.5t-63.5 -17t-89.5 -4.5z" />
    <glyph glyph-name="uni0259" unicode="&#x259;" horiz-adv-x="598" 
d="M300 554q134 0 191 -71t57 -211t-57 -213t-191 -73q-131 0 -189.5 75.5t-58.5 234.5h378q-3 88 -32 129t-98 41q-66 0 -96 -30.5t-32 -64.5h-116q0 30 12 60t38 58.5t76.5 46.5t117.5 18zM300 73q61 0 90.5 34t36.5 105h-257q9 -72 40 -105.5t90 -33.5z" />
    <glyph glyph-name="uni0272" unicode="&#x272;" horiz-adv-x="634" 
d="M368 553q104 0 148 -51t44 -179l-1 -323h-116l1 312q0 69 -21 104t-78 35q-93 0 -144 -101v-305q0 -54 -3 -89t-12.5 -66t-24.5 -48t-42 -29.5t-63.5 -17t-89.5 -4.5v98q29 0 48.5 2.5t33 12t20.5 18.5t10.5 31t4.5 39t1 53l1 329v19l-7 148h97l15 -87q24 37 69 68
t109 31z" />
    <glyph glyph-name="circumflex" unicode="&#x2c6;" horiz-adv-x="539" 
d="M376 617h-109l-60 78l-60 -78h-110l120 158h99z" />
    <glyph glyph-name="caron" unicode="&#x2c7;" horiz-adv-x="539" 
d="M267 775h109l-120 -158h-99l-120 158h110l60 -78z" />
    <glyph glyph-name="breve" unicode="&#x2d8;" horiz-adv-x="536" 
d="M237 753h89q0 -61 -41 -100t-112 -39q-70 0 -111 39t-41 100h90q0 -20 17 -37t45 -17t46 17t18 37z" />
    <glyph glyph-name="dotaccent" unicode="&#x2d9;" horiz-adv-x="496" 
d="M72 621v139h116v-139h-116z" />
    <glyph glyph-name="ring" unicode="&#x2da;" horiz-adv-x="521" 
d="M148 610q-54 0 -82 31t-28 75t28 75.5t82 31.5t82.5 -31.5t28.5 -75.5t-28.5 -75t-82.5 -31zM148 682q15 0 24.5 9.5t9.5 24.5q0 16 -9.5 25.5t-24.5 9.5q-14 0 -23.5 -9.5t-9.5 -25.5q0 -15 9.5 -24.5t23.5 -9.5z" />
    <glyph glyph-name="ogonek" unicode="&#x2db;" horiz-adv-x="521" 
d="M113 10l80 -7l-3 -1q-3 -2 -7 -4.5t-9.5 -6t-11 -8t-11.5 -10.5t-11 -12.5t-8.5 -14t-6 -17t-2.5 -18.5q0 -14 8.5 -24t24.5 -10q11 0 23 3.5t19 6.5l6 3v-64q0 -1 -11 -7.5t-35.5 -13t-52.5 -6.5q-43 0 -64 22t-21 57q0 23 9.5 45.5t23 37.5t27.5 26.5t24 16.5z" />
    <glyph glyph-name="tilde" unicode="&#x2dc;" horiz-adv-x="539" 
d="M315 749h60q0 -67 -20 -97.5t-75 -30.5q-30 0 -60.5 19t-47.5 19q-26 0 -38 -14.5t-12 -27.5h-59q0 124 97 124q31 0 59.5 -17t45.5 -17q26 0 38 14.5t12 27.5z" />
    <glyph glyph-name="hungarumlaut" unicode="&#x2dd;" horiz-adv-x="535" 
d="M52 617l78 158h129l-102 -158h-105zM222 617l95 158h129l-118 -158h-106z" />
    <glyph glyph-name="gravecomb" unicode="&#x300;" 
d="M-52 617h-106l-102 158h128z" />
    <glyph glyph-name="acutecomb" unicode="&#x301;" 
d="M-253 617l80 158h128l-103 -158h-105z" />
    <glyph glyph-name="uni0302" unicode="&#x302;" 
d="M-37 617h-109l-60 78l-60 -78h-110l120 158h99z" />
    <glyph glyph-name="tildecomb" unicode="&#x303;" 
d="M-122 749h60q0 -67 -20 -97.5t-75 -30.5q-30 0 -60.5 19t-47.5 19q-26 0 -38 -14.5t-12 -27.5h-59q0 124 97 124q31 0 59.5 -17t45.5 -17q26 0 38 14.5t12 27.5z" />
    <glyph glyph-name="uni0304" unicode="&#x304;" 
d="M-333 728h273v-89h-273v89z" />
    <glyph glyph-name="uni0306" unicode="&#x306;" 
d="M-110 753h89q0 -61 -41 -100t-112 -39q-70 0 -111 39t-41 100h90q0 -20 17 -37t45 -17t46 17t18 37z" />
    <glyph glyph-name="uni0307" unicode="&#x307;" 
d="M-187 621v139h116v-139h-116z" />
    <glyph glyph-name="uni0308" unicode="&#x308;" 
d="M-385 618v140h116v-140h-116zM-203 618v140h116v-140h-116z" />
    <glyph glyph-name="uni030A" unicode="&#x30a;" 
d="M-149 610q-54 0 -82 31t-28 75t28 75.5t82 31.5t82.5 -31.5t28.5 -75.5t-28.5 -75t-82.5 -31zM-149 682q15 0 24.5 9.5t9.5 24.5q0 16 -9.5 25.5t-24.5 9.5q-14 0 -23.5 -9.5t-9.5 -25.5q0 -15 9.5 -24.5t23.5 -9.5z" />
    <glyph glyph-name="uni030B" unicode="&#x30b;" 
d="M-439 617l78 158h129l-102 -158h-105zM-269 617l95 158h129l-118 -158h-106z" />
    <glyph glyph-name="uni030C" unicode="&#x30c;" 
d="M-146 775h109l-120 -158h-99l-120 158h110l60 -78z" />
    <glyph glyph-name="uni0312" unicode="&#x312;" 
d="M-148 849h103q-32 -65 -49 -142q-8 -35 -12 -64.5t-4 -40.5l-1 -12h-119q1 46 22 125q11 37 26 70.5t24 48.5z" />
    <glyph glyph-name="dotbelowcomb" unicode="&#x323;" 
d="M-187 -192v135h116v-135h-116z" />
    <glyph glyph-name="uni0326" unicode="&#x326;" 
d="M-161 -278h-99q28 54 47 121q8 27 12 51.5t5 35.5v12h114q-3 -48 -23 -107q-11 -32 -25 -60.5t-22 -40.5z" />
    <glyph glyph-name="uni0327" unicode="&#x327;" 
d="M-115 3l-33 -56q41 -3 66 -24.5t25 -61.5q0 -104 -132 -104q-30 0 -51.5 1.5t-28.5 3.5l-7 1v71q20 -6 64 -6q56 0 56 40t-101 40h-3l52 95h93z" />
    <glyph glyph-name="uni0328" unicode="&#x328;" 
d="M-109 10l81 -7q-71 -35 -71 -92q0 -14 8.5 -24t24.5 -10q11 0 23 3.5t19 6.5l6 3v-64q0 -1 -11 -7.5t-35.5 -13t-52.5 -6.5q-43 0 -64 22t-21 57q0 23 9.5 45.5t23 37.5t27.5 26.5t24 16.5z" />
    <glyph glyph-name="uni0335" unicode="&#x335;" 
d="M-362 295v78h318v-78h-318z" />
    <glyph glyph-name="uni0336" unicode="&#x336;" 
d="M-780 291v89h688v-89h-688z" />
    <glyph glyph-name="uni0337" unicode="&#x337;" 
d="M-348 180l-43 77l324 185l43 -76z" />
    <glyph glyph-name="uni0338" unicode="&#x338;" 
d="M-440 101l408 560h92l-408 -560h-92z" />
    <glyph glyph-name="pi" unicode="&#x3c0;" horiz-adv-x="610" 
d="M539 82h26v-82h-26q-47 0 -79 10t-49.5 25t-26.5 45.5t-11 58.5t-2 78v255h-146v-472h-100v472h-90v97h526v-97h-90v-255q0 -76 6 -96q13 -39 62 -39z" />
    <glyph glyph-name="Wgrave" unicode="&#x1e80;" horiz-adv-x="987" 
d="M553 760h-106l-102 154h128zM859 714h125l-218 -714h-123l-155 541l-152 -541h-115l-218 714h133l145 -560l149 560h122l161 -567z" />
    <glyph glyph-name="wgrave" unicode="&#x1e81;" horiz-adv-x="762" 
d="M428 617h-106l-102 158h128zM650 541h110l-172 -541h-100l-114 378l-104 -378h-100l-168 542h117l105 -391l101 390h111l108 -390z" />
    <glyph glyph-name="Wacute" unicode="&#x1e82;" horiz-adv-x="987" 
d="M655 914l-103 -154h-105l80 154h128zM859 714h125l-218 -714h-123l-155 541l-152 -541h-115l-218 714h133l145 -560l149 560h122l161 -567z" />
    <glyph glyph-name="wacute" unicode="&#x1e83;" horiz-adv-x="762" 
d="M526 775l-103 -158h-105l80 158h128zM650 541h110l-172 -541h-100l-114 378l-104 -378h-100l-168 542h117l105 -391l101 390h111l108 -390z" />
    <glyph glyph-name="Wdieresis" unicode="&#x1e84;" horiz-adv-x="987" 
d="M465 899v-139h-116v139h116zM647 899v-139h-116v139h116zM859 714h125l-218 -714h-123l-155 541l-152 -541h-115l-218 714h133l145 -560l149 560h122l161 -567z" />
    <glyph glyph-name="wdieresis" unicode="&#x1e85;" horiz-adv-x="762" 
d="M345 758v-140h-116v140h116zM527 758v-140h-116v140h116zM650 541h110l-172 -541h-100l-114 378l-104 -378h-100l-168 542h117l105 -391l101 390h111l108 -390z" />
    <glyph glyph-name="uni1EA0" unicode="&#x1ea0;" horiz-adv-x="659" 
d="M655 0h-126l-57 162h-292l-58 -162h-119l270 714h114zM217 267h218l-109 307zM271 -192v135h116v-135h-116z" />
    <glyph glyph-name="uni1EA1" unicode="&#x1ea1;" horiz-adv-x="588" 
d="M526 1h-97l-13 65q-56 -77 -181 -77q-100 0 -144.5 40t-44.5 124q0 32 7 57t20 42.5t32 30t43 20t52 12t60 5.5t67.5 2t73.5 0q-1 83 -20.5 113.5t-87.5 30.5q-65 0 -92 -28.5t-27 -63.5h-104q0 22 3.5 42.5t17 46.5t36 44t64 31t97.5 13q34 0 62 -3t49.5 -10.5t38.5 -15
t29.5 -22.5t21 -26t14 -33t8.5 -36t4.5 -42t1.5 -44v-49v-2v-126zM259 69q51 0 89.5 23.5t52.5 70.5v83q-48 0 -72.5 -0.5t-58.5 -3t-50 -8.5t-33.5 -16.5t-24 -27.5t-6.5 -40q0 -81 103 -81zM235 -192v135h116v-135h-116z" />
    <glyph glyph-name="uni1EB8" unicode="&#x1eb8;" horiz-adv-x="600" 
d="M206 105h363v-105h-482v714h475v-105h-356v-190h306v-102h-306v-212zM269 -192v135h116v-135h-116z" />
    <glyph glyph-name="uni1EB9" unicode="&#x1eb9;" horiz-adv-x="593" 
d="M297 75q66 0 96.5 30t32.5 65h116q0 -30 -12 -60t-38 -59t-76.5 -47t-117.5 -18q-134 0 -191 71t-57 211q0 141 57 213.5t191 72.5q131 0 189.5 -75t58.5 -230h-378q2 -90 31 -132t98 -42zM297 468q-60 0 -89 -33.5t-37 -101.5h257q-10 69 -41 102t-90 33zM241 -192v135
h116v-135h-116z" />
    <glyph glyph-name="uni1EBC" unicode="&#x1ebc;" horiz-adv-x="600" 
d="M276 802q-26 0 -37.5 -14.5t-11.5 -27.5h-60q0 132 97 132q31 0 59.5 -17t45.5 -17q26 0 38 14.5t12 27.5h60q0 -69 -20.5 -102.5t-74.5 -33.5q-30 0 -60.5 19t-47.5 19zM206 105h363v-105h-482v714h475v-105h-356v-190h306v-102h-306v-212z" />
    <glyph glyph-name="uni1EBD" unicode="&#x1ebd;" horiz-adv-x="593" 
d="M252 659q-26 0 -38 -14.5t-12 -27.5h-59q0 124 97 124q31 0 59.5 -17t45.5 -17q26 0 38 14.5t12 27.5h60q0 -67 -20 -97.5t-75 -30.5q-30 0 -60.5 19t-47.5 19zM297 75q66 0 96.5 30t32.5 65h116q0 -30 -12 -60t-38 -59t-76.5 -47t-117.5 -18q-134 0 -191 71t-57 211
q0 141 57 213.5t191 72.5q131 0 189.5 -75t58.5 -230h-378q2 -90 31 -132t98 -42zM297 468q-60 0 -89 -33.5t-37 -101.5h257q-10 69 -41 102t-90 33z" />
    <glyph glyph-name="uni1ECA" unicode="&#x1eca;" horiz-adv-x="293" 
d="M87 0v714h119v-714h-119zM89 -192v135h116v-135h-116z" />
    <glyph glyph-name="uni1ECB" unicode="&#x1ecb;" horiz-adv-x="250" 
d="M68 621v139h116v-139h-116zM64 0v541h116v-541h-116zM64 -192v135h116v-135h-116z" />
    <glyph glyph-name="uni1ECC" unicode="&#x1ecc;" horiz-adv-x="715" 
d="M357 -18q-159 0 -228 91t-69 283q0 193 69 285t228 92t228.5 -92t69.5 -285q0 -192 -69 -283t-229 -91zM357 87q98 0 137.5 61.5t39.5 207.5q0 147 -39.5 209.5t-137.5 62.5q-97 0 -137 -63t-40 -209q0 -145 40 -207t137 -62zM299 -192v135h116v-135h-116z" />
    <glyph glyph-name="uni1ECD" unicode="&#x1ecd;" horiz-adv-x="607" 
d="M303 -14q-137 0 -195 73t-58 210t58 211t195 74q137 1 195.5 -73.5t58.5 -211.5t-58 -210t-196 -73zM303 80q75 0 105 44.5t30 144.5q0 99 -30.5 145.5t-104.5 46.5t-104.5 -46.5t-30.5 -145.5q0 -100 30 -144.5t105 -44.5zM244 -192v135h116v-135h-116z" />
    <glyph glyph-name="uni1EE4" unicode="&#x1ee4;" horiz-adv-x="706" 
d="M352 -18q-150 0 -213 84t-63 275v373h119v-373q0 -143 34.5 -198.5t121.5 -55.5q88 0 122.5 55.5t34.5 198.5v373h122v-373q0 -190 -64 -274.5t-214 -84.5zM295 -192v135h116v-135h-116z" />
    <glyph glyph-name="uni1EE5" unicode="&#x1ee5;" horiz-adv-x="610" 
d="M548 0h-97l-16 94q-9 -15 -22 -30.5t-35.5 -34t-55 -30.5t-68.5 -12q-99 0 -145 51t-46 173l2 330h115l-1 -312q0 -70 20 -105t77 -35q100 0 149 114v338h116v-391zM248 -192v135h116v-135h-116z" />
    <glyph glyph-name="Ygrave" unicode="&#x1ef2;" horiz-adv-x="638" 
d="M371 760h-106l-102 154h128zM501 714h133l-250 -463v-251h-120v251l-261 463h139l184 -343z" />
    <glyph glyph-name="ygrave" unicode="&#x1ef3;" horiz-adv-x="532" 
d="M305 617h-106l-102 158h128zM406 541h120l-271 -761h-105l74 220h-32l-186 541h128l131 -420z" />
    <glyph glyph-name="uni1EF8" unicode="&#x1ef8;" horiz-adv-x="638" 
d="M269 802q-26 0 -37.5 -14.5t-11.5 -27.5h-60q0 132 97 132q31 0 59.5 -17t45.5 -17q26 0 38 14.5t12 27.5h60q0 -69 -20.5 -102.5t-74.5 -33.5q-30 0 -60.5 19t-47.5 19zM501 714h133l-250 -463v-251h-120v251l-261 463h139l184 -343z" />
    <glyph glyph-name="uni1EF9" unicode="&#x1ef9;" horiz-adv-x="532" 
d="M208 659q-26 0 -38 -14.5t-12 -27.5h-59q0 124 97 124q31 0 59.5 -17t45.5 -17q26 0 38 14.5t12 27.5h60q0 -67 -20 -97.5t-75 -30.5q-30 0 -60.5 19t-47.5 19zM406 541h120l-271 -761h-105l74 220h-32l-186 541h128l131 -420z" />
    <glyph glyph-name="uni2009" unicode="&#x2009;" horiz-adv-x="65" 
 />
    <glyph glyph-name="endash" unicode="&#x2013;" horiz-adv-x="583" 
d="M62 275v90h460v-90h-460z" />
    <glyph glyph-name="emdash" unicode="&#x2014;" horiz-adv-x="947" 
d="M82 275v90h783v-90h-783z" />
    <glyph glyph-name="uni2016" unicode="&#x2016;" horiz-adv-x="450" 
d="M79 -180v1000h101v-1000h-101zM271 -180v1000h100v-1000h-100z" />
    <glyph glyph-name="quoteleft" unicode="&#x2018;" horiz-adv-x="246" 
d="M155 501h-119q1 46 23 125q10 37 25 70.5t25 48.5l10 15h103q-32 -65 -49 -142q-8 -35 -12.5 -64.5t-4.5 -41.5z" />
    <glyph glyph-name="quoteright" unicode="&#x2019;" horiz-adv-x="235" 
d="M127 501h-102q31 65 48 142q8 35 12.5 64t4.5 41l1 12h119q-1 -46 -23 -125q-10 -37 -25 -70.5t-25 -48.5z" />
    <glyph glyph-name="quotesinglbase" unicode="&#x201a;" horiz-adv-x="274" 
d="M139 -130h-103q32 65 49 142q8 35 12 64.5t5 41.5v11h119q-1 -46 -22 -124q-11 -37 -26 -71t-25 -49z" />
    <glyph glyph-name="quotedblleft" unicode="&#x201c;" horiz-adv-x="436" 
d="M158 501h-120q1 46 23 125q11 37 26 70.5t25 48.5l9 15h103q-32 -65 -49 -142q-8 -35 -12 -64.5t-5 -41.5v-11zM347 501h-119q1 46 23 125q10 37 25 70.5t25 48.5l10 15h103q-32 -65 -49 -142q-8 -35 -12.5 -64.5t-4.5 -41.5z" />
    <glyph glyph-name="quotedblright" unicode="&#x201d;" horiz-adv-x="432" 
d="M125 501h-103q32 65 49 142q8 35 12.5 64t4.5 41l1 12h119q-1 -46 -23 -125q-10 -37 -25 -70.5t-25 -48.5zM315 501h-103q32 65 49 142q8 35 12 64t5 41v12h120q-1 -46 -23 -125q-10 -37 -25 -70.5t-25 -48.5z" />
    <glyph glyph-name="quotedblbase" unicode="&#x201e;" horiz-adv-x="431" 
d="M125 -135h-103q32 65 49 142q8 35 12.5 64.5t4.5 40.5l1 12h119q-1 -46 -23 -124q-10 -37 -25 -71t-25 -49zM314 -135h-103q32 65 49 142q8 35 12.5 64.5t5.5 40.5v12h119q-1 -46 -23 -124q-10 -37 -25 -71t-25 -49z" />
    <glyph glyph-name="dagger" unicode="&#x2020;" horiz-adv-x="561" 
d="M481 595v-97h-150v-498h-101v498h-150v97h150v188h101v-188h150z" />
    <glyph glyph-name="daggerdbl" unicode="&#x2021;" horiz-adv-x="561" 
d="M481 498h-150v-213h150v-97h-150v-188h-101v188h-150v97h150v213h-150v97h150v188h101v-188h150v-97z" />
    <glyph glyph-name="bullet" unicode="&#x2022;" horiz-adv-x="458" 
d="M149 214v168h160v-168h-160z" />
    <glyph glyph-name="ellipsis" unicode="&#x2026;" horiz-adv-x="691" 
d="M84 0v129h117v-129h-117zM287 0v129h117v-129h-117zM490 0v129h117v-129h-117z" />
    <glyph glyph-name="perthousand" unicode="&#x2030;" horiz-adv-x="1193" 
d="M203 358q-92 0 -131.5 44.5t-39.5 131.5q0 89 39.5 135t131.5 46t131 -46t39 -135q0 -87 -39 -131.5t-131 -44.5zM203 430q45 0 62.5 25t17.5 79q0 56 -17.5 82.5t-62.5 26.5t-62.5 -27t-17.5 -82q0 -54 17.5 -79t62.5 -25zM126 0l460 702h101l-460 -702h-101zM608 -14
q-92 0 -131.5 44.5t-39.5 132.5q0 89 39.5 134.5t131.5 45.5t130.5 -45.5t38.5 -134.5q0 -88 -38.5 -132.5t-130.5 -44.5zM608 59q45 0 62 25t17 79q0 55 -17.5 81.5t-61.5 26.5q-45 0 -63 -26.5t-18 -81.5q0 -54 18 -79t63 -25zM989 -14q-92 0 -131.5 45t-39.5 132
q0 88 39.5 134t131.5 46q93 0 131.5 -45.5t38.5 -134.5q0 -88 -38.5 -132.5t-131.5 -44.5zM989 59q45 0 62.5 25t17.5 79q0 55 -17.5 81.5t-62.5 26.5q-44 0 -62 -26.5t-18 -81.5q0 -54 18 -79t62 -25z" />
    <glyph glyph-name="guilsinglleft" unicode="&#x2039;" horiz-adv-x="370" 
d="M306 445l-131 -183l131 -176h-124l-117 161v30l117 168h124z" />
    <glyph glyph-name="guilsinglright" unicode="&#x203a;" horiz-adv-x="370" 
d="M188 445l117 -168v-30l-117 -161h-124l131 176l-131 183h124z" />
    <glyph glyph-name="fraction" unicode="&#x2044;" horiz-adv-x="248" 
d="M-162 -40l459 809h106l-459 -809h-106z" />
    <glyph glyph-name="uni2070" unicode="&#x2070;" horiz-adv-x="507" 
d="M253 287q-115 0 -160.5 64.5t-45.5 206.5q0 147 45.5 213.5t160.5 66.5t160.5 -66.5t45.5 -213.5q0 -142 -45.5 -206.5t-160.5 -64.5zM253 370q59 0 84 43t25 145q0 107 -25 152t-84 45q-58 0 -83 -45t-25 -152q0 -102 25 -145t83 -43z" />
    <glyph glyph-name="uni2074" unicode="&#x2074;" horiz-adv-x="466" 
d="M440 472v-75h-59v-101h-97v101h-259v75l252 354h104v-354h59zM111 472h173l1 247z" />
    <glyph glyph-name="uni2075" unicode="&#x2075;" horiz-adv-x="471" 
d="M265 649q85 0 125.5 -50.5t40.5 -131.5q0 -180 -195 -180q-102 0 -149 44.5t-47 108.5h99q0 -30 25 -54.5t72 -24.5q102 0 102 106q0 49 -26 77.5t-76 28.5q-32 0 -55 -11.5t-30 -22.5l-7 -11l-90 1l32 222l11 72h306v-77l-225 4l-20 -131q40 30 107 30z" />
    <glyph glyph-name="uni2076" unicode="&#x2076;" horiz-adv-x="498" 
d="M274 643q177 0 177 -177q0 -179 -200 -179q-112 -1 -158 58.5t-46 187.5q0 169 46 238t158 69q97 0 139.5 -46t42.5 -108h-94q0 31 -21.5 55t-66.5 24q-48 0 -72.5 -36t-29.5 -131q51 45 125 45zM251 361q100 0 100 100q0 49 -24 76.5t-71 27.5q-70 0 -109 -56
q4 -79 28.5 -113.5t75.5 -34.5z" />
    <glyph glyph-name="uni2077" unicode="&#x2077;" horiz-adv-x="394" 
d="M200 296h-109q0 69 19 140.5t46 125t54 97t46 66.5l19 23l-258 -3v80h361v-80q-7 -9 -19 -25t-43 -66.5t-54.5 -100.5t-42.5 -121.5t-19 -135.5z" />
    <glyph glyph-name="uni2078" unicode="&#x2078;" horiz-adv-x="496" 
d="M47 446q0 64 33 99t61 38q-22 4 -49.5 32t-27.5 77q0 148 184 148t184 -148q0 -51 -28 -79t-51 -30q29 -3 62.5 -38t33.5 -99q0 -77 -46 -118t-155 -41q-108 0 -154.5 41t-46.5 118zM149 453q0 -85 99 -85t99 85q0 86 -99 86t-99 -86zM159 684q0 -70 89 -70t89 70
q0 79 -89 79t-89 -79z" />
    <glyph glyph-name="uni2079" unicode="&#x2079;" horiz-adv-x="498" 
d="M247 840q110 0 157 -61t47 -195q0 -167 -45 -232t-161 -65q-104 0 -148 45t-44 107h94q0 -30 24 -54.5t74 -24.5t74 32.5t30 122.5q-50 -46 -124 -46q-180 0 -180 188q0 83 47.5 132.5t154.5 50.5zM243 550q71 0 108 55q-3 87 -27.5 121.5t-76.5 34.5q-100 0 -100 -103
q0 -108 96 -108z" />
    <glyph glyph-name="Euro" unicode="&#x20ac;" horiz-adv-x="627" 
d="M343 96q47 0 81 25.5t39 64.5h106q-5 -85 -60.5 -140t-165.5 -55q-221 0 -258 239h-55v73h48q-1 15 -1 47q0 27 1 40h-48v73h54q35 248 259 248q113 0 169.5 -59t59.5 -149h-107q-4 45 -37.5 74t-84.5 29q-117 0 -143 -143h168v-73h-176q-1 -13 -1 -40q0 -32 1 -47h176
v-73h-167q28 -134 142 -134z" />
    <glyph glyph-name="uni20BD" unicode="&#x20bd;" horiz-adv-x="635" 
d="M302 286h-73v-69h158v-89h-158v-130h-120v130h-79v89h79v69h-79v99h79v332h196q160 0 227.5 -47.5t67.5 -172.5q0 -119 -68 -165t-230 -46zM229 612v-228h73q46 0 74.5 3.5t54 15t37.5 35t12 60.5t-12 60.5t-37.5 35t-54 15t-74.5 3.5h-73z" />
    <glyph glyph-name="uni2116" unicode="&#x2116;" horiz-adv-x="1265" 
d="M551 160l-12 554h114v-714h-132l-324 543l-1 -543h-109l1 714h132zM947 140q-115 0 -160 57t-45 171t45.5 172t159.5 58t160 -58t46 -172q0 -113 -45.5 -170.5t-160.5 -57.5zM946 509q-51 0 -73.5 -35t-22.5 -106t22.5 -104.5t73.5 -33.5q53 0 75.5 33.5t22.5 104.5
t-23 106t-75 35zM747 89h414v-89h-414v89z" />
    <glyph glyph-name="uni2117" unicode="&#x2117;" horiz-adv-x="827" 
d="M413 725q77 0 138 -20t101 -54t66 -82.5t37.5 -103t11.5 -117.5q0 -79 -18.5 -144t-59 -117.5t-110.5 -81.5t-166 -29q-94 0 -164 29t-110.5 81.5t-59.5 117.5t-19 144q0 80 19 145.5t59.5 119t110.5 83t164 29.5zM413 40q62 0 111 17.5t80 46t51 69t28.5 83.5t8.5 92
q0 62 -14 115t-44.5 99t-87 72.5t-133.5 26.5t-133 -26.5t-86.5 -72.5t-44.5 -99t-14 -115q0 -49 8 -92t28.5 -83.5t51.5 -69t79.5 -46t110.5 -17.5zM254 556h161q105 0 148.5 -33t43.5 -121q0 -87 -44.5 -120t-149.5 -33h-54v-111h-105v418zM359 333h54q29 0 44.5 3
t28.5 19t13 47q0 45 -21.5 58t-64.5 13h-54v-140z" />
    <glyph glyph-name="uni2120" unicode="&#x2120;" horiz-adv-x="775" 
d="M106 631q0 -25 20.5 -38t50 -18t58.5 -12.5t49.5 -31.5t20.5 -65q0 -101 -133 -101q-70 0 -101 27.5t-31 88.5h58q0 -30 18.5 -47t53.5 -17q34 0 53.5 13.5t19.5 32.5q0 28 -20.5 41.5t-49.5 18.5t-58 12.5t-49.5 31t-20.5 66.5q0 96 126 96q68 0 97 -27t29 -81h-57
q0 23 -16.5 39t-51.5 16q-33 0 -49.5 -13.5t-16.5 -31.5zM715 713l-1 -339h-62l4 266l-96 -267h-62l-90 266l3 -265h-57v339h89l91 -265l91 265h90z" />
    <glyph glyph-name="trademark" unicode="&#x2122;" horiz-adv-x="734" 
d="M272 719v-55h-96l-2 -290h-59l1 290h-96v55h252zM674 713l-1 -339h-62l4 267l-97 -268h-61l-90 265l2 -264h-56v339h92l88 -265l91 265h90z" />
    <glyph glyph-name="oneeighth" unicode="&#x215b;" horiz-adv-x="1018" 
d="M954 396q0 -51 -28 -79t-51 -30q29 -3 62.5 -38t33.5 -99q0 -77 -46 -118t-155 -41q-108 0 -154.5 41t-46.5 118q0 64 33 99t61 38q-22 4 -49.5 32t-27.5 77q0 148 184 148t184 -148zM770 72q99 0 99 85q0 86 -99 86t-99 -86q0 -85 99 -85zM770 467q-89 0 -89 -79
q0 -70 89 -70t89 70q0 79 -89 79zM578 769h106l-459 -809h-106zM202 224h-98v444l-92 -44v80l125 56h65v-536z" />
    <glyph glyph-name="threeeighths" unicode="&#x215c;" horiz-adv-x="1191" 
d="M1127 396q0 -51 -28 -79t-51 -30q29 -3 62.5 -38t33.5 -99q0 -77 -46 -118t-155 -41q-108 0 -154.5 41t-46.5 118q0 64 33 99t61 38q-22 4 -49.5 32t-27.5 77q0 148 184 148t184 -148zM943 72q99 0 99 85q0 86 -99 86t-99 -86q0 -85 99 -85zM943 467q-89 0 -89 -79
q0 -70 89 -70t89 70q0 79 -89 79zM414 391q0 -176 -194 -176q-100 0 -145.5 47t-45.5 122h97q0 -37 23.5 -63t69.5 -26q49 0 74 27t25 73q0 50 -28 77.5t-85 27.5l-62 -4v61l143 120l-236 -6v80h354v-71l-135 -120q145 -23 145 -169zM751 769h106l-459 -809h-106z" />
    <glyph glyph-name="fiveeighths" unicode="&#x215d;" horiz-adv-x="1206" 
d="M1142 396q0 -51 -28 -79t-51 -30q29 -3 62.5 -38t33.5 -99q0 -77 -46 -118t-155 -41q-108 0 -154.5 41t-46.5 118q0 64 33 99t61 38q-22 4 -49.5 32t-27.5 77q0 148 184 148t184 -148zM958 72q99 0 99 85q0 86 -99 86t-99 -86q0 -85 99 -85zM958 467q-89 0 -89 -79
q0 -70 89 -70t89 70q0 79 -89 79zM431 395q0 -180 -195 -180q-102 0 -149 44.5t-47 108.5h99q0 -30 25 -54.5t72 -24.5q102 0 102 106q0 49 -26 77.5t-76 28.5q-32 0 -55 -11.5t-30 -22.5l-7 -11l-90 1l32 222l11 72h306v-77l-225 4l-20 -131q40 30 107 30q85 0 125.5 -50.5
t40.5 -131.5zM766 769h106l-459 -809h-106z" />
    <glyph glyph-name="seveneighths" unicode="&#x215e;" horiz-adv-x="1086" 
d="M637 150q0 64 33 99t61 38q-22 4 -49.5 32t-27.5 77q0 148 184 148t184 -148q0 -51 -28 -79t-51 -30q29 -3 62.5 -38t33.5 -99q0 -77 -46 -118t-155 -41q-108 0 -154.5 41t-46.5 118zM739 157q0 -85 99 -85t99 85q0 86 -99 86t-99 -86zM749 388q0 -70 89 -70t89 70
q0 79 -89 79t-89 -79zM187 -40l459 809h106l-459 -809h-106zM200 224h-109q0 69 19 140.5t46 125t54 97t46 66.5l19 23l-258 -3v80h361v-80q-7 -9 -19 -25t-43 -66.5t-54.5 -100.5t-42.5 -121.5t-19 -135.5z" />
    <glyph glyph-name="arrowleft" unicode="&#x2190;" horiz-adv-x="738" 
d="M703 350v-118l-453 5l178 -137l-60 -74l-333 263l334 268l60 -73l-179 -138z" />
    <glyph glyph-name="arrowup" unicode="&#x2191;" horiz-adv-x="600" 
d="M566 310l-74 -61l-138 179l5 -453h-118l5 453l-138 -179l-73 61l263 332z" />
    <glyph glyph-name="arrowright" unicode="&#x2192;" horiz-adv-x="736" 
d="M369 576l333 -263l-333 -268l-60 74l179 138l-453 -5v118l453 -5l-179 138z" />
    <glyph glyph-name="arrowdown" unicode="&#x2193;" horiz-adv-x="601" 
d="M492 364l75 -60l-263 -333l-269 333l73 61l138 -179l-4 453h118l-6 -453z" />
    <glyph glyph-name="arrowboth" unicode="&#x2194;" horiz-adv-x="1043" 
d="M674 548l334 -269l-333 -263l-60 75l176 135l-542 3l179 -138l-60 -75l-333 263l334 269l60 -73l-180 -139l544 1l-179 138z" />
    <glyph glyph-name="arrowupdn" unicode="&#x2195;" horiz-adv-x="600" 
d="M355 12l138 179l73 -61l-268 -334l-263 334l74 60l135 -176l3 541l-138 -179l-74 61l263 333l268 -334l-73 -60l-139 180z" />
    <glyph glyph-name="uni2196" unicode="&#x2196;" horiz-adv-x="585" 
d="M561 96l-84 -84l-317 325l29 -224l-95 -10l-49 422l426 -46l-10 -94l-223 28z" />
    <glyph glyph-name="uni2197" unicode="&#x2197;" horiz-adv-x="581" 
d="M115 478l422 49l-46 -425l-95 9l29 225l-317 -324l-83 83l323 316l-223 -28z" />
    <glyph glyph-name="uni2198" unicode="&#x2198;" horiz-adv-x="584" 
d="M114 72l10 95l225 -29l-324 318l82 83l317 -324l-28 224l94 10l50 -422z" />
    <glyph glyph-name="uni2199" unicode="&#x2199;" horiz-adv-x="582" 
d="M233 139l223 29l10 -96l-421 -49l46 426l94 -10l-29 -223l317 323l84 -84z" />
    <glyph glyph-name="minus" unicode="&#x2212;" horiz-adv-x="485" 
d="M50 280v97h385v-97h-385z" />
    <glyph glyph-name="infinity" unicode="&#x221e;" horiz-adv-x="777" 
d="M745 304q0 -166 -179 -166h-1q-59 0 -100 27t-76 75q-36 -48 -77 -75t-100 -27h-1q-179 0 -179 166t179 166h1q59 0 100 -27t77 -75q35 48 76 75t100 27h1q179 0 179 -166zM566 218q88 0 88 86t-88 86q-41 0 -71 -22.5t-60 -63.5q30 -41 60 -63.5t71 -22.5zM211 218
q41 0 71 22.5t60 63.5q-30 41 -60 63.5t-71 22.5q-88 0 -88 -86t88 -86z" />
    <glyph glyph-name="approxequal" unicode="&#x2248;" horiz-adv-x="586" 
d="M445 479h74q0 -150 -135 -150q-47 0 -96 27.5t-86 27.5q-29 0 -45 -19.5t-16 -35.5h-73q0 150 134 150q47 0 96 -27.5t86 -27.5q29 0 45 19.5t16 35.5zM445 297h74q0 -150 -135 -150q-47 0 -96 27.5t-86 27.5q-29 0 -45 -19.5t-16 -35.5h-73q0 150 134 150q47 0 96 -27.5
t86 -27.5q29 0 45 19.5t16 35.5z" />
    <glyph glyph-name="notequal" unicode="&#x2260;" horiz-adv-x="563" 
d="M487 351h-143l-46 -79h189v-97h-245l-51 -89h-86l51 89h-81v97h137l46 79h-183v97h238l47 81h87l-47 -81h87v-97z" />
    <glyph glyph-name="lessequal" unicode="&#x2264;" horiz-adv-x="594" 
d="M504 590v-105l-324 -89l324 -93v-105l-424 149v99zM88 68v97h412v-97h-412z" />
    <glyph glyph-name="greaterequal" unicode="&#x2265;" horiz-adv-x="594" 
d="M90 590l424 -144v-99l-424 -149v105l324 93l-324 89v105zM95 68v97h412v-97h-412z" />
    <glyph glyph-name="acutecomb.case" 
d="M-253 760l80 154h128l-103 -154h-105z" />
    <glyph glyph-name="at.case" horiz-adv-x="905" 
d="M845 360q0 -260 -158 -262h-1q-95 0 -125 93q-45 -63 -144 -63q-90 0 -132.5 58t-42.5 175q0 234 175 234q82 0 134 -63l13 59h90v-306q0 -61 11.5 -87.5t37.5 -26.5q19 0 32 11.5t23.5 55.5t10.5 122q0 59 -9.5 108.5t-32.5 94t-58.5 75.5t-89.5 49t-124 18
q-86 0 -148 -27t-97 -76t-51 -109t-16 -133q0 -59 8.5 -106.5t30 -91.5t56 -73.5t90 -47t128.5 -17.5q134 0 199 32v-72q-76 -28 -200 -28q-106 0 -183.5 30t-123 85.5t-67 127t-21.5 161.5q0 91 21.5 164t66.5 130t123 88t184 31q203 0 296.5 -111.5t93.5 -301.5zM444 206
q78 0 104 70v176q-35 65 -104 65q-44 0 -69.5 -39.5t-25.5 -116.5q0 -78 25 -116.5t70 -38.5z" />
    <glyph glyph-name="bitcoin" horiz-adv-x="599" 
d="M544 234q0 -83 -31.5 -124t-128.5 -52v-103h-73v99h-51v-99h-72v99h-70v1h-31v648h101v82h72v-82h51v82h73v-88q80 -12 110 -51.5t30 -112.5q0 -105 -65 -142q50 -20 67.5 -57.5t17.5 -99.5zM208 149h87q79 0 104 20t25 77q0 56 -26 76.5t-103 20.5h-87v-194zM407 519
q0 50 -24 69.5t-88 19.5h-87v-177h87q66 0 89 19t23 69z" />
    <glyph glyph-name="braceleft.case" horiz-adv-x="436" 
d="M406 759v-105q-88 0 -113 -20t-25 -91v-111q0 -22 -6 -41t-14 -29.5t-18.5 -18.5t-15.5 -11t-9 -4q3 -1 8 -3t15.5 -10t18.5 -18.5t14.5 -29.5t6.5 -42v-108q0 -73 25 -93.5t113 -20.5v-105q-85 0 -133.5 9t-76 34.5t-35.5 61t-8 99.5v123q0 32 -16.5 44t-70.5 12v96
q54 0 70.5 11.5t16.5 43.5v135q0 82 17.5 120t70 55t165.5 17z" />
    <glyph glyph-name="braceright.case" horiz-adv-x="436" 
d="M30 -102v105q88 0 113 20t25 91v111q0 22 6 41t14 29.5t18.5 19t15 10.5t8.5 4q-3 1 -8 3t-15 10t-18 18.5t-14.5 29.5t-6.5 42v111q0 71 -25 91t-113 20v105q85 0 134 -9t76 -34t35 -59.5t8 -97.5v-127q0 -32 16.5 -44t70.5 -12v-96q-54 0 -70.5 -11.5t-16.5 -43.5v-135
q0 -82 -17 -120t-70 -55t-166 -17z" />
    <glyph glyph-name="bracketleft.case" horiz-adv-x="403" 
d="M373 655h-157v-641h157v-105h-273v851h273v-105z" />
    <glyph glyph-name="bracketright.case" horiz-adv-x="403" 
d="M303 760v-851h-273v105h157v641h-157v105h273z" />
    <glyph glyph-name="caroncomb.alt" 
d="M-248 572l68 188h111l-91 -188h-88z" />
    <glyph glyph-name="caroncomb.alt.case" 
d="M-248 760l79 188h128l-102 -188h-105z" />
    <glyph glyph-name="dagger.sups" horiz-adv-x="327" 
d="M267 661v-59h-70v-230h-67v230h-70v59h70v85h67v-85h70z" />
    <glyph glyph-name="daggerdbl.sups" horiz-adv-x="311" 
d="M259 602h-70v-86h70v-61h-70v-83h-66v83h-71v61h71v86h-71v59h71v85h66v-85h70v-59z" />
    <glyph glyph-name="eight.dnom" horiz-adv-x="496" 
d="M47 150q0 64 33 99t61 38q-22 4 -49.5 32t-27.5 77q0 148 184 148t184 -148q0 -51 -28 -79t-51 -30q29 -3 62.5 -38t33.5 -99q0 -77 -46 -118t-155 -41q-108 0 -154.5 41t-46.5 118zM149 157q0 -85 99 -85t99 85q0 86 -99 86t-99 -86zM159 388q0 -70 89 -70t89 70
q0 79 -89 79t-89 -79z" />
    <glyph glyph-name="eight.numr" horiz-adv-x="496" 
d="M47 374q0 64 33 99t61 38q-22 4 -49.5 32t-27.5 77q0 148 184 148t184 -148q0 -51 -28 -79t-51 -30q29 -3 62.5 -38t33.5 -99q0 -77 -46 -118t-155 -41q-108 0 -154.5 41t-46.5 118zM149 381q0 -85 99 -85t99 85q0 86 -99 86t-99 -86zM159 612q0 -70 89 -70t89 70
q0 79 -89 79t-89 -79z" />
    <glyph glyph-name="eight.subs" horiz-adv-x="496" 
d="M47 -47q0 64 33 99t61 38q-22 4 -49.5 32t-27.5 77q0 148 184 148t184 -148q0 -51 -28 -79t-51 -30q29 -3 62.5 -38t33.5 -99q0 -77 -46 -118t-155 -41q-108 0 -154.5 41t-46.5 118zM149 -40q0 -85 99 -85t99 85q0 86 -99 86t-99 -86zM159 191q0 -70 89 -70t89 70
q0 79 -89 79t-89 -79z" />
    <glyph glyph-name="eight.tf" horiz-adv-x="685" 
d="M68 203q0 44 14.5 80t36 56.5t40.5 32t32 12.5q-9 1 -24 9.5t-33 24.5t-30.5 44.5t-12.5 63.5q0 198 242 198q241 0 241 -198q0 -35 -12.5 -63.5t-30.5 -44.5t-33 -24.5t-25 -9.5q19 -2 45.5 -19.5t52.5 -61t26 -100.5q0 -103 -61 -158t-203 -55t-203.5 55t-61.5 158z
M190 211q0 -116 143 -116t143 116q0 117 -143 117t-143 -117zM213 516q0 -90 120 -90t120 90q0 105 -120 105t-120 -105z" />
    <glyph glyph-name="exclamdown.case" horiz-adv-x="273" 
d="M79 593v121h115v-121h-115zM79 0l8 533h100l7 -533h-115z" />
    <glyph glyph-name="five.dnom" horiz-adv-x="471" 
d="M265 353q85 0 125.5 -50.5t40.5 -131.5q0 -180 -195 -180q-102 0 -149 44.5t-47 108.5h99q0 -30 25 -54.5t72 -24.5q102 0 102 106q0 49 -26 77.5t-76 28.5q-32 0 -55 -11.5t-30 -22.5l-7 -11l-90 1l32 222l11 72h306v-77l-225 4l-20 -131q40 30 107 30z" />
    <glyph glyph-name="five.numr" horiz-adv-x="471" 
d="M265 577q85 0 125.5 -50.5t40.5 -131.5q0 -180 -195 -180q-102 0 -149 44.5t-47 108.5h99q0 -30 25 -54.5t72 -24.5q102 0 102 106q0 49 -26 77.5t-76 28.5q-32 0 -55 -11.5t-30 -22.5l-7 -11l-90 1l32 222l11 72h306v-77l-225 4l-20 -131q40 30 107 30z" />
    <glyph glyph-name="five.subs" horiz-adv-x="471" 
d="M265 156q85 0 125.5 -50.5t40.5 -131.5q0 -180 -195 -180q-102 0 -149 44.5t-47 108.5h99q0 -30 25 -54.5t72 -24.5q102 0 102 106q0 49 -26 77.5t-76 28.5q-20 0 -37 -4.5t-26.5 -11t-16.5 -13.5t-10 -11l-2 -5l-90 1l32 222l11 72h306v-77l-225 4l-20 -131
q40 30 107 30z" />
    <glyph glyph-name="five.tf" horiz-adv-x="685" 
d="M366 471q109 0 168.5 -63t59.5 -180q0 -236 -258 -236q-121 0 -183.5 57t-62.5 149h112q0 -35 34.5 -68t99.5 -33q69 0 103 36t34 95t-35 98.5t-102 39.5q-27 0 -49.5 -6.5t-35.5 -16t-22.5 -18.5t-12.5 -15l-4 -7l-106 2l43 291l13 101h395v-101h-301l-25 -166
q55 41 135 41z" />
    <glyph glyph-name="four.dnom" horiz-adv-x="466" 
d="M440 176v-75h-59v-101h-97v101h-259v75l252 354h104v-354h59zM111 176h173l1 247z" />
    <glyph glyph-name="four.numr" horiz-adv-x="466" 
d="M440 400v-75h-59v-101h-97v101h-259v75l252 354h104v-354h59zM111 400h173l1 247z" />
    <glyph glyph-name="four.subs" horiz-adv-x="466" 
d="M440 -21v-75h-59v-101h-97v101h-259v75l252 354h104v-354h59zM111 -21h173l1 247z" />
    <glyph glyph-name="four.tf" horiz-adv-x="685" 
d="M589 239v-105h-86v-134h-119l1 134h-335v105l331 461h122v-461h86zM174 239h212l3 301z" />
    <glyph glyph-name="gravecomb.case" 
d="M-52 760h-106l-102 154h128z" />
    <glyph glyph-name="guillemotleft.case" horiz-adv-x="568" 
d="M304 507l-130 -183l130 -176h-124l-117 162v29l117 168h124zM505 507l-131 -183l131 -176h-124l-117 162v29l117 168h124z" />
    <glyph glyph-name="guillemotright.case" horiz-adv-x="568" 
d="M304 337v-30l-117 -161h-124l131 176l-131 183h124zM388 505l117 -168v-30l-117 -161h-124l130 176l-130 183h124z" />
    <glyph glyph-name="guilsinglleft.case" horiz-adv-x="370" 
d="M306 505l-131 -183l131 -176h-124l-117 161v30l117 168h124z" />
    <glyph glyph-name="guilsinglright.case" horiz-adv-x="370" 
d="M188 505l117 -168v-30l-117 -161h-124l131 176l-131 183h124z" />
    <glyph glyph-name="i.loclTRK" horiz-adv-x="250" 
d="M68 621v139h116v-139h-116zM64 0v541h116v-541h-116z" />
    <glyph glyph-name="nine.dnom" horiz-adv-x="498" 
d="M247 544q110 0 157 -61t47 -195q0 -167 -45 -232t-161 -65q-104 0 -148 45t-44 107h94q0 -30 24 -54.5t74 -24.5t74 32.5t30 122.5q-50 -46 -124 -46q-180 0 -180 188q0 83 47.5 132.5t154.5 50.5zM243 254q71 0 108 55q-3 87 -27.5 121.5t-76.5 34.5q-100 0 -100 -103
q0 -108 96 -108z" />
    <glyph glyph-name="nine.numr" horiz-adv-x="498" 
d="M247 768q110 0 157 -61t47 -195q0 -167 -45 -232t-161 -65q-104 0 -148 45t-44 107h94q0 -30 24 -54.5t74 -24.5t74 32.5t30 122.5q-50 -46 -124 -46q-180 0 -180 188q0 83 47.5 132.5t154.5 50.5zM243 478q71 0 108 55q-3 87 -27.5 121.5t-76.5 34.5q-100 0 -100 -103
q0 -108 96 -108z" />
    <glyph glyph-name="nine.subs" horiz-adv-x="498" 
d="M247 347q110 0 157 -61t47 -195q0 -167 -45 -232t-161 -65q-104 0 -148 45t-44 107h94q0 -30 24 -54.5t74 -24.5t74 32.5t30 122.5q-50 -46 -124 -46q-180 0 -180 188q0 83 47.5 132.5t154.5 50.5zM243 57q71 0 108 55q-3 87 -27.5 121.5t-76.5 34.5q-100 0 -100 -103
q0 -108 96 -108z" />
    <glyph glyph-name="nine.tf" horiz-adv-x="685" 
d="M339 722q136 1 199 -81t63 -251q0 -218 -59.5 -310t-202.5 -92q-71 0 -122.5 19t-77.5 50.5t-37.5 64t-11.5 68.5h122q0 -36 30.5 -66t96.5 -30q65 0 95.5 39t39.5 151q-70 -62 -168 -62q-116 0 -171 72.5t-55 184.5q0 109 64.5 175.5t194.5 67.5zM329 327q96 0 150 63
q0 127 -34 177t-106 50q-67 0 -102 -35.5t-35 -102.5q0 -72 31.5 -112t95.5 -40z" />
    <glyph glyph-name="one.dnom" horiz-adv-x="266" 
d="M137 536h65v-536h-98v444l-92 -44v80z" />
    <glyph glyph-name="one.numr" horiz-adv-x="266" 
d="M137 760h65v-536h-98v444l-92 -44v80z" />
    <glyph glyph-name="one.subs" horiz-adv-x="266" 
d="M137 339h65v-536h-98v444l-92 -44v80z" />
    <glyph glyph-name="one.tf" horiz-adv-x="685" 
d="M421 103h125v-103h-375v103h131v490l-140 -66v110l163 77h96v-611z" />
    <glyph glyph-name="paragraph.alt" horiz-adv-x="657" 
d="M578 760v-760h-101v656h-69v-656h-100v277q-155 3 -211.5 53.5t-56.5 187.5q0 138 56.5 188.5t211.5 53.5h270z" />
    <glyph glyph-name="parenleft.case" horiz-adv-x="348" 
d="M184 760h116q-4 -6 -10 -18.5t-21 -55t-27 -89.5t-21.5 -122.5t-9.5 -154.5t11 -153.5t27.5 -123.5t32.5 -87t27 -56l11 -17h-116q-4 6 -11.5 17.5t-26.5 52t-33 87t-26 122.5t-12 158q0 131 22.5 241t44.5 155z" />
    <glyph glyph-name="parenright.case" horiz-adv-x="348" 
d="M47 760h117q4 -6 10 -17.5t21 -52.5t27 -88t21.5 -123.5t9.5 -158.5t-11 -157.5t-27.5 -124t-32.5 -85.5t-27 -53l-11 -17h-116l6 9q5 9 15 28.5t21.5 45.5t23.5 63.5t21.5 80t15.5 97.5t6 113q0 79 -9.5 153.5t-22.5 124.5t-26 88t-23 56z" />
    <glyph glyph-name="questiondown.case" horiz-adv-x="524" 
d="M341 714v-121h-116v121h116zM229 533h108v-22q0 -53 -15.5 -94.5t-37.5 -67t-44.5 -48.5t-38 -52.5t-15.5 -65.5q0 -104 96 -104q54 0 75.5 33.5t21.5 101.5h117q0 -122 -53 -182t-164 -60q-210 0 -210 196q0 51 16.5 92t40 68t47 52t40 58t16.5 73v22z" />
    <glyph glyph-name="registered.alt" horiz-adv-x="483" 
d="M242 744q108 0 156.5 -58t48.5 -155q0 -96 -48.5 -152.5t-156.5 -56.5t-157 57t-49 152q0 97 49 155t157 58zM242 359q161 0 161 172q0 176 -161 176q-162 0 -162 -176q0 -172 162 -172zM339 577q0 -33 -7 -48.5t-26 -21.5l43 -95l-70 2l-30 86h-42v-86h-59v239h80
q69 0 90 -13t21 -63zM207 542h18q35 0 46.5 5.5t11.5 29.5t-11.5 30t-45.5 6h-19v-71z" />
    <glyph glyph-name="section.sups" horiz-adv-x="346" 
d="M254 493q31 -19 31 -59q0 -78 -113 -78q-59 0 -85.5 21.5t-26.5 68.5h52q0 -46 59 -46q56 0 56 30q0 17 -17 26t-41 13t-48 10.5t-41 24.5t-17 48q0 31 31 60q-30 18 -30 60q0 73 107 73q58 0 83 -20t25 -61h-52q0 18 -11.5 27.5t-42.5 9.5q-51 0 -51 -28
q0 -20 25.5 -29.5t56.5 -12.5t56.5 -22t25.5 -56q0 -35 -32 -60zM121 552q0 -9 4 -15t14.5 -10.5t17.5 -6.5t25 -5.5t24 -4.5q22 18 22 40q0 9 -4.5 16t-15 11t-19 6.5t-25 6t-25.5 5.5q-18 -20 -18 -43z" />
    <glyph glyph-name="seven.dnom" horiz-adv-x="394" 
d="M200 0h-109q0 69 19 140.5t46 125t54 97t46 66.5l19 23l-258 -3v80h361v-80q-7 -9 -19 -25t-43 -66.5t-54.5 -100.5t-42.5 -121.5t-19 -135.5z" />
    <glyph glyph-name="seven.numr" horiz-adv-x="394" 
d="M200 224h-109q0 69 19 140.5t46 125t54 97t46 66.5l19 23l-258 -3v80h361v-80q-7 -9 -19 -25t-43 -66.5t-54.5 -100.5t-42.5 -121.5t-19 -135.5z" />
    <glyph glyph-name="seven.subs" horiz-adv-x="394" 
d="M200 -197h-109q0 69 19 140.5t46 125t54 97t46 66.5l19 23l-258 -3v80h361v-80q-7 -9 -19 -25t-43 -66.5t-54.5 -100.5t-42.5 -121.5t-19 -135.5z" />
    <glyph glyph-name="seven.tf" horiz-adv-x="685" 
d="M321 0h-119q0 91 25 185.5t60.5 164.5t71 127t60.5 87l25 29h-352v105h484v-105l-27.5 -33t-61.5 -86.5t-77.5 -132t-61 -160.5t-27.5 -181z" />
    <glyph glyph-name="six.dnom" horiz-adv-x="498" 
d="M274 347q177 0 177 -177q0 -179 -200 -179q-112 -1 -158 58.5t-46 187.5q0 169 46 238t158 69q97 0 139.5 -46t42.5 -108h-94q0 31 -21.5 55t-66.5 24q-48 0 -72.5 -36t-29.5 -131q51 45 125 45zM251 65q100 0 100 100q0 49 -24 76.5t-71 27.5q-70 0 -109 -56
q4 -79 28.5 -113.5t75.5 -34.5z" />
    <glyph glyph-name="six.numr" horiz-adv-x="498" 
d="M274 571q177 0 177 -177q0 -179 -200 -179q-112 -1 -158 58.5t-46 187.5q0 169 46 238t158 69q97 0 139.5 -46t42.5 -108h-94q0 31 -21.5 55t-66.5 24q-48 0 -72.5 -36t-29.5 -131q51 45 125 45zM251 289q100 0 100 100q0 49 -24 76.5t-71 27.5q-70 0 -109 -56
q4 -79 28.5 -113.5t75.5 -34.5z" />
    <glyph glyph-name="six.subs" horiz-adv-x="498" 
d="M274 150q177 0 177 -177q0 -179 -200 -179q-112 -1 -158 58.5t-46 187.5q0 169 46 238t158 69q97 0 139.5 -46t42.5 -108h-94q0 31 -21.5 55t-66.5 24q-48 0 -72.5 -36t-29.5 -131q51 45 125 45zM251 -132q100 0 100 100q0 49 -24 76.5t-71 27.5q-70 0 -109 -56
q4 -79 28.5 -113.5t75.5 -34.5z" />
    <glyph glyph-name="six.tf" horiz-adv-x="685" 
d="M376 467q63 0 109 -20t70.5 -56t35.5 -77t11 -91q0 -105 -62 -169.5t-197 -65.5q-140 0 -200.5 80t-60.5 246q0 218 61.5 313t199.5 95q65 0 113 -18t74 -48t38 -64t12 -72h-121q0 35 -30.5 66t-85.5 31q-62 0 -93.5 -44t-41.5 -165q68 59 168 59zM343 94
q67 0 102.5 33.5t35.5 95.5q0 65 -31 102t-97 37q-96 0 -149 -68q3 -111 37 -155.5t102 -44.5z" />
    <glyph glyph-name="three.dnom" horiz-adv-x="456" 
d="M404 456l-135 -120q145 -23 145 -169q0 -176 -194 -176q-100 0 -145.5 47t-45.5 122h97q0 -37 23.5 -63t69.5 -26q49 0 74 27t25 73q0 50 -28 77.5t-85 27.5l-62 -4v61l143 120l-236 -6v80h354v-71z" />
    <glyph glyph-name="three.numr" horiz-adv-x="456" 
d="M404 680l-135 -120q145 -23 145 -169q0 -176 -194 -176q-100 0 -145.5 47t-45.5 122h97q0 -37 23.5 -63t69.5 -26q49 0 74 27t25 73q0 50 -28 77.5t-85 27.5l-62 -4v61l143 120l-236 -6v80h354v-71z" />
    <glyph glyph-name="three.subs" horiz-adv-x="456" 
d="M404 259l-135 -120q145 -23 145 -169q0 -176 -194 -176q-100 0 -145.5 47t-45.5 122h97q0 -37 23.5 -63t69.5 -26q49 0 74 27t25 73q0 50 -28 77.5t-85 27.5l-62 -4v61l143 120l-236 -6v80h354v-71z" />
    <glyph glyph-name="three.tf" horiz-adv-x="685" 
d="M562 604l-200 -146q219 -26 219 -231q0 -115 -65.5 -175t-192.5 -60q-116 0 -178.5 60t-62.5 161h111q0 -45 32.5 -80.5t97.5 -35.5q70 0 103 35.5t33 94.5q0 129 -159 129l-86 -7v102l198 150l-302 -5v101h452v-93z" />
    <glyph glyph-name="tildecomb.case" 
d="M-122 900h60q0 -69 -20.5 -102.5t-74.5 -33.5q-30 0 -60.5 19t-47.5 19q-26 0 -37.5 -14.5t-11.5 -27.5h-60q0 132 97 132q31 0 59.5 -17t45.5 -17q26 0 38 14.5t12 27.5z" />
    <glyph glyph-name="two.dnom" horiz-adv-x="453" 
d="M36 2v80q83 60 152 122q72 64 91 90q30 39 30 79q0 41 -22.5 64t-64.5 23q-88 0 -88 -97h-100q0 179 188 179q184 0 184 -163q0 -42 -19.5 -81.5t-39.5 -62t-58 -59.5q-25 -24 -53 -49t-44 -37l-15 -13l229 6v-81h-370z" />
    <glyph glyph-name="two.numr" horiz-adv-x="453" 
d="M36 226v80q83 60 152 122q72 64 91 90q30 39 30 79q0 41 -22.5 64t-64.5 23q-88 0 -88 -97h-100q0 179 188 179q184 0 184 -163q0 -42 -19.5 -81.5t-39.5 -62t-58 -59.5q-25 -24 -53 -49t-44 -37l-15 -13l229 6v-81h-370z" />
    <glyph glyph-name="two.subs" horiz-adv-x="453" 
d="M36 -195v80q83 60 152 122q72 64 91 90q30 39 30 79q0 41 -22.5 64t-64.5 23q-88 0 -88 -97h-100q0 179 188 179q184 0 184 -163q0 -42 -19.5 -81.5t-39.5 -62t-58 -59.5q-25 -24 -53 -49t-44 -38l-15 -12l229 6v-81h-370z" />
    <glyph glyph-name="two.tf" horiz-adv-x="685" 
d="M103 1v105q97 78 195 171q8 8 30 28.5t30.5 28.5t26 26t24.5 28t19 26.5t16.5 29t8.5 28.5t4 32q0 114 -115 114q-121 0 -121 -118h-122q0 223 243 223q235 0 235 -218q0 -42 -11.5 -79t-36 -72t-45.5 -59t-57 -60t-77.5 -70t-65.5 -50l-23 -16l310 4v-102h-468z" />
    <glyph glyph-name="uni0302.case" 
d="M-44 760h-102l-60 62l-59 -62h-103l104 138h115z" />
    <glyph glyph-name="uni0304.case" 
d="M-333 872h273v-90h-273v90z" />
    <glyph glyph-name="uni0306.case" 
d="M-110 894h89q0 -58 -39.5 -96t-113.5 -38t-113 38t-39 96h90q0 -20 17 -36t45 -16t46 16t18 36z" />
    <glyph glyph-name="uni0307.case" 
d="M-187 760v139h116v-139h-116z" />
    <glyph glyph-name="uni0308.case" 
d="M-385 760v139h116v-139h-116zM-203 760v139h116v-139h-116z" />
    <glyph glyph-name="uni030A.case" 
d="M-149 760q-44 0 -69.5 25t-25.5 66t25.5 66t69.5 25q45 0 70.5 -25t25.5 -66t-25.5 -66t-70.5 -25zM-149 817q15 0 24.5 9t9.5 25t-9.5 25t-24.5 9t-24 -9.5t-9 -24.5t9 -24.5t24 -9.5z" />
    <glyph glyph-name="uni030B.case" 
d="M-439 760l78 154h129l-102 -154h-105zM-269 760l95 154h129l-118 -154h-106z" />
    <glyph glyph-name="uni030C.case" 
d="M-147 898h103l-105 -138h-115l-104 138h102l60 -62z" />
    <glyph glyph-name="uni0338.case" 
d="M-455 11l506 741h103l-505 -741h-104z" />
    <glyph glyph-name="zero.dnom" horiz-adv-x="507" 
d="M253 -9q-115 0 -160.5 64.5t-45.5 206.5q0 147 45.5 213.5t160.5 66.5t160.5 -66.5t45.5 -213.5q0 -142 -45.5 -206.5t-160.5 -64.5zM253 74q59 0 84 43t25 145q0 107 -25 152t-84 45q-58 0 -83 -45t-25 -152q0 -102 25 -145t83 -43z" />
    <glyph glyph-name="zero.numr" horiz-adv-x="507" 
d="M253 215q-115 0 -160.5 64.5t-45.5 206.5q0 147 45.5 213.5t160.5 66.5t160.5 -66.5t45.5 -213.5q0 -142 -45.5 -206.5t-160.5 -64.5zM253 298q59 0 84 43t25 145q0 107 -25 152t-84 45q-58 0 -83 -45t-25 -152q0 -102 25 -145t83 -43z" />
    <glyph glyph-name="zero.subs" horiz-adv-x="507" 
d="M253 -206q-115 0 -160.5 64.5t-45.5 206.5q0 147 45.5 213.5t160.5 66.5t160.5 -66.5t45.5 -213.5q0 -142 -45.5 -206.5t-160.5 -64.5zM253 -123q59 0 84 43t25 145q0 107 -25 152t-84 45q-58 0 -83 -45t-25 -152q0 -102 25 -145t83 -43z" />
    <glyph glyph-name="zero.tf" horiz-adv-x="685" 
d="M342 -12q-151 0 -211.5 85t-60.5 273q0 199 60 287t212 88q153 0 213 -88t60 -287q0 -188 -60.5 -273t-212.5 -85zM342 94q85 0 119 56.5t34 195.5q0 150 -34 210t-119 60q-84 0 -118 -60t-34 -210q0 -139 34 -195.5t118 -56.5z" />
    </font>
</defs>
</svg>
