<svg xmlns="http://www.w3.org/2000/svg">
<defs>
<font id="ZingScriptRustSBDemo-Base" horiz-adv-x="442" >
  <font-face 
    font-family="Zing Script Rust SB Demo Base"
    font-weight="100"
    font-style="italic"
    font-stretch="normal"
    units-per-em="1000"
    panose-1="0 0 2 0 0 0 0 0 0 0"
    ascent="764"
    descent="-236"
    x-height="446"
    cap-height="701"
    bbox="-375 -300 1379 965"
    underline-thickness="50"
    underline-position="-200"
    slope="-17"
    unicode-range="U+0020-2260"
  />
<missing-glyph horiz-adv-x="499" 
d="M407 709l2 -13l-2 -14v-16l1 -14l-1 -13l1 -15v-12l2 -16v-14l-2 -14l1 -12l-1 -16l2 -13l-1 -15l2 -13v-14l-2 -14l-1 -15l3 -12v-43l-1 -16l-2 -14l1 -12l1 -16l-3 -14l1 -12l2 -14l1 -14l-4 -15v-13l1 -15l1 -13l-2 -14v-14l2 -16l1 -12v-16l1 -13l-1 -13l-3 -14
l2 -16l-1 -14l3 -12l-2 -31l2 -14l-4 -12v-15l2 -15l2 -12l-4 -15v-29l1 -13l-1 -15l4 -26l-4 -15l2 -14l-2 -15l2 -12v-14l-1 -15v-15l1 -12l-2 -15v-15l-12 -14l-13 -1l-30 2l-10 -2l-17 2l-15 -2h-23l-30 2h-14l-15 -1h-13l-14 1h-25l-14 -1h-13l-13 1l-18 -2h-10l-14 15
v42l-2 14l1 14l-2 15l4 28l-4 14l1 14v14l2 15v13l-3 15l4 14l-2 13l2 13l-3 14l2 16v14l-3 14l1 14l2 13l-3 14v16l4 13l-2 14v14l-1 15l3 13v14l-3 13l-1 16v26l1 15l3 14l-1 13l-2 14l3 16l-4 28v41l1 13l2 16l-1 13v29l-2 14v13l4 15l-3 15l1 14l-2 12l1 15l-1 13l3 15
v13l-1 16l-2 14l2 14v12l-1 15v14l3 14l-1 15l1 12l11 17h13l15 -2l11 2l32 -2l11 2l16 -2l12 2h26l15 -2l14 2l14 -1h16l12 -1l14 1l11 1l29 -2l16 2h10zM316 658l-13 -1h-41l-13 -1l-14 2l-13 -2l-14 1l-12 1l-16 -2l-12 -17l12 -14l13 -2l13 1l11 -1l13 -12l1 -13
l-14 -12h-40l-9 -14l11 -16h16l13 -2h12l16 2l12 -2h41l14 2h14l16 15l-13 17l-13 -2l-14 2h-12l-17 12l4 11l9 14h29l11 -2l14 18zM249 528l-10 2l-14 -1h-19l-11 1l-14 -2l-13 -13v-15l-3 -16l2 -15l-3 -15l3 -14l13 -14l12 -1h16l14 -1l14 2l13 -2h14l15 1h11l13 1l18 -2

<glyph glyph-name="Q_j" unicode="Qj" horiz-adv-x="976" 
d="M542 -20l-6 13l-12 11l-4 10l-11 12l-16 2l-15 -8l-10 -4l-15 -8l-10 -4l-17 -5l-12 -2l-13 -6l-13 -1l-15 -2l-14 -1l-13 -2h-27l-15 2l-13 1l-16 2l-12 2l-11 4l-18 5l-11 7l-10 7l-15 7l-11 9l-8 7l-10 11l-13 9l-8 9l-8 12l-7 12l-9 13l-3 13l-9 11l-4 14l-2 12
l-5 15l-4 15v14l-4 12l1 15v13v30l-2 13l2 16v14l3 13v16v13l6 13l1 16l5 14l1 12l4 15l4 12l8 14l1 14l9 14l1 11l9 14l7 13l4 11l10 12l5 13l11 13l7 11l10 12l9 9l8 11l11 9l7 12l10 8l15 9l8 9l24 16l13 7l12 5l15 7l11 4l16 5l10 5l14 4l15 2l11 2l15 3l16 -1h44l10 -1
l16 -2l13 -5l11 -4l16 -4l11 -6l12 -7l15 -6l10 -9l13 -8l6 -11l12 -8l8 -13l10 -9l7 -12l8 -13l5 -13l6 -13l6 -12l2 -15l6 -12l2 -14l3 -13l1 -14v-14l1 -14l2 -29l-2 -14l-2 -15v-12l-2 -15v-14l-2 -14l-2 -13l-5 -12l-3 -14v-15l-6 -12l-5 -14l-4 -12l-1 -15l-5 -12
l-5 -12l-5 -13l-10 -12l-3 -14l-10 -12l-5 -9l-9 -13l-7 -10l-8 -11l-10 -13l-5 -11l-12 -9l-1 -21l7 -12l8 -11l10 -9l6 -12l-3 -18l-10 -9l-11 -11l-15 -7h-17zM1023 633l-6 -13l-4 -15l-5 -13l-2 -12l-3 -15l-9 -13l-3 -15l-17 -12h-14l-14 -2h-16l-15 1l-7 13l2 13l5 14
l4 12l5 14l4 12l6 13l1 13l22 15l12 2l13 1h16l16 1zM427 634l-14 -4l-13 -2l-16 -2l-10 -6l-13 -6l-14 -6l-8 -8l-14 -8l-9 -9l-11 -8l-9 -10l-12 -11l-8 -9l-8 -11l-9 -13l-8 -11l-7 -12l-5 -14l-9 -11l-4 -14l-4 -12l-9 -14l-3 -14l-4 -12l-2 -15l-8 -12v-15l-3 -15v-12
l-2 -14l-2 -16l-4 -12l-1 -15l1 -28l4 -15v-14l4 -13l15 -6l9 7l13 5l17 7l14 5l13 4l15 3l13 3l12 1h32l14 -1l13 -2l10 -3l17 -3l23 -8l12 -7l12 -6l12 -9l11 -10l12 -9l9 -9l7 -10l20 2l4 12l11 9l4 12l11 14l6 10l6 15l7 11l2 13l4 15l4 13l7 12l3 14l3 14l3 14v13l5 15
l1 13l-1 14l5 14l-2 29l-2 13l2 14l-2 14l-7 16l1 12l-5 15l-8 13l-5 13l-6 11l-6 11l-10 11l-9 10l-12 11l-12 6l-10 8l-17 4l-12 6l-14 3l-11 2h-29zM1073 214l-9 -11l-7 -11l-11 -12l-7 -10l-5 -12l-11 -11l-8 -11l-10 -11l-8 -13l-6 -11l-12 -10l-9 -11l-10 -9l-9 -11
l-11 -11l-8 -8l-8 -11l-12 -8l-12 -11l-12 -9l-10 -7l-11 -10l-13 -5l-9 -9l-17 -4l-10 -7l-20 -18l-1 -14l-8 -12l-3 -13l-5 -13l-6 -14l-6 -14l-8 -13l-8 -12l-5 -13l-8 -13l-8 -12l-6 -11l-7 -12l-10 -12l-12 -11l-7 -10l-14 -11l-9 -7l-10 -9l-16 -4l-14 -5l-12 -5h-14
l-27 -1l-15 2l-13 4l-12 5l-13 7l-8 9l-13 10l-8 10l-3 15l-6 13l1 14l-2 26l2 15l3 14l7 11l6 11l10 12l10 10l10 9l14 9l9 7l13 8l15 6l14 5l11 4l16 6l10 6l14 4l16 4l10 6l17 4l14 5l14 4l12 11l7 15l2 11l4 11l2 10l6 11l1 13l7 10l2 13l2 12l7 13l5 14l2 13l4 13l6 14
l3 13l7 14l4 15l4 12l2 14l4 16l7 13l5 16l1 15l6 12l4 16l6 14l2 14l7 15l5 15l6 12l4 16l1 14l5 15l21 15l15 -2l16 1h27l11 -14l-4 -14l-5 -13l-4 -13l-4 -14l-3 -12l-7 -14l-4 -13l-6 -16l-3 -11l-4 -16l-2 -11l-4 -16l-6 -12l-3 -14l-5 -13l-6 -15l-6 -11v-14l-6 -15
l-6 -13l-3 -14l-7 -11l-4 -14l-4 -14l-4 -14l-3 -14l-6 -12l-2 -13l-5 -13l-7 -14l10 -6l14 6l8 9l11 8l12 11l9 7l10 11l12 9l8 12l8 8l12 12l7 11l10 12l10 9l9 12l9 10l6 13l11 12l8 11l5 12l10 10l8 11l17 4l16 -9zM358 69l18 2l11 4l15 2l11 6l17 5l8 7l3 18l-10 12
l-10 7l-9 9l-14 9l-13 6l-11 5l-17 3l-14 3l-15 3l-30 -1l-11 -2l-15 -5l-16 -5l-14 -5l-14 -7l-3 -18l7 -11l22 -19l10 -7l16 -8l11 -4l15 -3l14 -5l14 -1h24zM601 -224l10 2l13 8l10 7l8 8l9 13l9 10l6 11l7 13l6 10l9 14l6 14l3 11l7 14l-8 7l-12 -3l-11 -5l-13 -5
l-13 -7l-12 -5l-15 -5l-11 -8l-13 -7l-23 -15l-11 -8l-4 -12l-8 -11l4 -29l5 -12l12 -9z" />
    <glyph glyph-name="Q_thorn" unicode="Q&#xfe;" horiz-adv-x="1202" 
d="M693 431l1 -13v-16l-2 -14l1 -14l-4 -15l-3 -13l-3 -14l-1 -13l-3 -16l-4 -12l-1 -13l-8 -15l-4 -14l-4 -12l-4 -15l-5 -12l-6 -11l-9 -14l-5 -12l-9 -13l-8 -13l-8 -11l-8 -12l-6 -11l-8 -9l-12 -11l1 -23l7 -10l8 -12l19 -22l6 -12l-1 -20l-12 -9l-11 -7l-11 -9l-18 1
l-12 10l-6 13l-8 11l-10 10l-6 11l-22 4l-12 -7l-14 -7l-9 -5l-15 -5l-15 -6l-13 -4l-12 -2l-15 -2l-16 -5l-12 1l-12 -3l-46 3l-15 1l-11 3l-13 3l-12 3l-15 4l-13 6l-14 7l-11 7l-13 10l-8 7l-13 11l-9 9l-8 10l-6 13l-12 10l-7 12l-6 13l-4 13l-2 12l-5 13l-5 14l-4 15
l-2 15l-2 12l-3 14l1 14l1 29l-2 14l4 14l-2 16l2 15l2 14l4 12l2 15v14l5 14l4 15l4 12l4 15l7 13l4 12l5 15l3 11l8 13l7 15l6 12l7 11l8 11l8 13l8 13l10 11l8 10l7 9l10 10l13 12l8 10l13 6l9 10l14 8l12 9l12 7l14 6l8 4l29 12l11 3l15 3l15 2l15 3l14 1l14 1l28 1
l14 -1l15 -1l10 -3l13 -3l13 -4l13 -5l15 -7l14 -6l23 -16l10 -9l10 -8l8 -10l8 -11l11 -11l8 -11l8 -12l3 -14l7 -12l7 -12v-16l7 -13l3 -13l1 -15l4 -12l1 -16l1 -12zM429 633l-15 -2l-12 -2l-16 -5l-11 -4l-14 -5l-13 -8l-12 -6l-12 -9l-7 -9l-14 -8l-9 -10l-8 -10
l-12 -11l-8 -11l-5 -13l-10 -12l-6 -12l-8 -12l-4 -13l-7 -11l-5 -13l-5 -15l-6 -13l-5 -13l-1 -12l-4 -16l-6 -13l-3 -13v-16l-1 -13l-4 -13l-2 -15l4 -14l-1 -28l-1 -13l4 -14l3 -15l15 -6l12 6l13 6l11 7l17 4l10 6l18 3l11 3l17 2l26 -2l15 1l16 -3l10 -3l14 -4l13 -5
l15 -4l11 -5l10 -7l11 -9l12 -7l10 -10l12 -9l7 -11l17 2l7 10l11 11l4 14l8 11l6 12l10 12l2 14l8 13l3 12l6 13v13l6 14l2 14l4 15l4 14l1 13l3 13l1 15l-2 14l1 27l1 14l-5 14l-1 15l-3 13l-2 15l-4 12l-7 14l-4 14l-7 12l-9 12l-8 9l-10 10l-22 19l-14 5l-9 7l-15 2
l-15 3l-11 3h-27zM1329 400l15 -4v-17l-3 -12l-10 -12l-10 -12l-6 -11l-8 -9l-11 -11l-9 -10l-10 -8l-12 -8l-15 -10l-8 -5l-14 -7l-13 -4l-15 -3h-32l-16 -10v-15l-5 -14l-1 -14l-1 -13l-7 -16l-5 -13l-6 -11l-5 -13l-6 -14l-5 -12l-9 -12l-9 -11l-6 -13l-9 -11l-11 -10
l-9 -11l-11 -9l-15 -8l-10 -10l-10 -7l-12 -6l-17 -6l-11 -5l-26 -7l-17 -2l-29 -1l-11 2l-15 6l-12 2l-16 8l-10 8l-12 9l-9 10l-9 9l-8 12l-5 14l-8 13l-3 -13l-4 -14l-5 -11l-1 -13l-5 -13l-2 -16l-8 -13l-4 -12l-2 -14l-4 -13l-2 -13l-3 -14l-6 -13l-5 -13l-14 -12h-15
l-13 -2l-13 1l-14 -1l-11 15l2 15l5 11l2 16l6 12l2 14l6 13l5 13l1 13l7 16l1 14l8 13l2 12l2 13l6 14l2 13l4 14l3 14l8 14v12l4 16l4 14l5 13l4 13l3 13l5 15l6 12l3 14l6 14v13l8 12l1 14l3 14l8 15v13l6 13l3 15l6 11v16l8 12l3 14l2 14l5 14l10 25l2 15l5 14l1 14
l6 11l5 15l5 13l3 15l15 13l15 1l14 -2l11 1l14 -1l11 -13l-7 -13v-15l-5 -12l-4 -13l-5 -13l-4 -13l-4 -15l-5 -13l-3 -12l-3 -16l-3 -11l-4 -14l-8 -13l-2 -14l-3 -13l11 10l9 11l9 9l11 9l12 10l10 8l10 7l13 5l12 4l15 2l13 1h27l17 -3l11 -2l11 -6l13 -6l12 -8l9 -7
l22 -22l6 -10l5 -12l6 -15l4 -11l7 -13l11 -21l11 -5l13 -3l26 -1l16 6l9 5l14 9l13 9l9 9l12 11l9 11l10 9l7 11zM936 65l11 4l16 3l10 8l13 6l11 10l10 10l10 11l9 12l8 11l7 13l8 12l1 15l9 13l4 13l3 15l3 14l2 13l1 14l-3 30v12l-6 14v12l-8 13l-10 9l-9 11l-9 6l-11 7
l-14 3l-26 -1l-16 -2l-11 -5l-12 -6l-15 -5l-7 -8l-12 -11l-11 -9l-10 -9l-7 -12l-10 -12l-5 -11l-6 -13l-8 -11l-3 -13l-5 -12l-3 -14l-2 -15l-6 -13l1 -13l1 -28l2 -15l2 -13l9 -14l3 -12l13 -10l7 -11l12 -6l28 -10h31zM359 68l16 2l12 4l14 3l15 7l11 7l13 6l3 17
l-10 11l-21 17l-14 7l-14 6l-12 6l-12 5h-15l-14 2h-32l-13 -1l-16 -6l-15 -4l-14 -5l-10 -5l-7 -20l10 -11l10 -11l11 -8l10 -8l11 -5l14 -5l15 -4l15 -3l11 -2z" />
    <glyph glyph-name="Q_rcommaaccent" unicode="Q&#x157;" horiz-adv-x="1118" 
d="M693 430l-1 -15l3 -14l-4 -14l2 -15l-4 -13l-1 -13l-4 -16v-13l-6 -13l-4 -15l-2 -13l-2 -15l-8 -12l-4 -14l-7 -12l-3 -14l-8 -11l-5 -14l-5 -13l-10 -13l-4 -12l-12 -11l-6 -12l-10 -9l-8 -12l-10 -9l1 -24l8 -11l7 -10l8 -14l10 -10l7 -10l-2 -20l-11 -10l-9 -9
l-13 -8l-19 2l-9 12l-8 11l-7 10l-11 11l-8 11l-18 6l-15 -8l-11 -6l-11 -7l-16 -5l-11 -5l-15 -2l-12 -4l-15 -4l-16 -1l-15 -3l-13 -1h-26l-15 1l-16 2l-14 3l-13 4l-14 2l-9 5l-17 7l-9 7l-14 7l-10 6l-14 11l-10 7l-7 10l-12 11l-8 12l-5 13l-10 10l-2 14l-9 12l-4 14
l-2 13l-3 13l-6 13l-1 15l-3 15l-2 14v13v27l2 16l2 12l1 14l-2 16l2 12l5 14l1 14l3 13l1 14l3 14l5 15l5 12l1 15l5 11l9 13l3 13l5 12l9 13l3 12l7 12l8 14l6 11l12 12l5 10l12 12l5 10l13 9l8 10l8 10l11 9l13 8l11 9l12 8l11 6l13 9l12 6l11 5l13 6l15 4l13 4l14 4
l12 1l12 4h13h46l12 1l15 -4l12 -1l14 -4l11 -3l17 -7l25 -12l10 -7l12 -8l10 -8l12 -10l6 -11l12 -10l10 -11l7 -13l5 -11l8 -12l2 -12l7 -13l5 -14l1 -15l5 -13l2 -15l1 -14l4 -12l-3 -14zM427 634l-16 -3l-12 -2l-13 -5l-14 -3l-11 -7l-11 -8l-14 -6l-9 -7l-12 -9l-12 -9
l-8 -10l-11 -10l-7 -11l-10 -12l-6 -10l-11 -13l-6 -13l-13 -24l-8 -13l-1 -14l-7 -13l-4 -14l-7 -11l-2 -16l-2 -13l-5 -15l-3 -14v-12l-4 -16l-1 -14l1 -14l-1 -12l-2 -29l2 -14l-1 -14l4 -15l15 -4l13 6l13 5l13 7l17 4l28 9l14 1l14 3l26 1l17 -3l13 -1l14 -4l11 -3
l13 -4l10 -6l13 -6l14 -7l23 -16l8 -7l8 -11l13 -9l18 -1l4 13l9 12l11 10l4 12l6 13l6 13l7 12l7 13l5 13v14l7 12l2 13l6 14l2 16l2 14l3 13l1 14l-2 12l4 16v27l-1 15l-1 15l-1 14l-5 13l-2 14l-7 13l-4 14l-4 13l-17 24l-9 11l-8 9l-10 9l-15 7l-12 8l-9 7l-16 3l-15 4
l-10 1zM1050 458l16 -3l13 -7l7 -9l14 -8l3 -13l6 -14l4 -13l6 -15l-2 -28l-4 -16v-15l-19 -13h-30l-15 -1l-13 12l2 14l-4 26l-6 14l-11 6l-23 1l-13 -1l-9 -7l-8 -7l-14 -9l-5 -9l-8 -10l-16 -24l-9 -12l-9 -13l-8 -11l-5 -12l-8 -15l-3 -12l-9 -15l-3 -12l-9 -14l-3 -12
l-5 -16l-8 -13l-3 -13l-4 -13l-4 -14l-6 -16l-7 -13l-2 -14l-4 -14l-4 -12l-4 -16l-3 -13l-18 -15l-15 2l-16 -3l-13 3h-15l-12 11l4 15l4 13l4 14l5 12l4 14l4 14l4 14l2 13l5 13l1 15l8 13l1 13l2 12l4 16l7 11l4 14l3 13l5 14l1 14l2 13l5 13l3 14l7 13l3 14l3 14l1 15
l4 11l5 14l6 13l3 15l4 12l18 15l12 1l14 -2l14 2l16 -17l-5 -14l-1 -15l-8 -28l-2 -14l-3 -14l-2 -15l8 13l8 12l4 13l11 11l9 9l6 13l10 10l8 11l11 7l13 8l11 8l13 6l12 5l16 3h27zM359 70l17 2l12 1l14 6l14 5l12 7l12 6l1 18l-9 9l-11 8l-9 9l-13 6l-26 13l-18 2l-10 3
l-16 3h-27l-15 -5l-17 -1l-11 -6l-13 -6l-17 -7l-3 -19l7 -10l12 -8l13 -9l8 -7l13 -6l14 -7l12 -5l15 -2l10 -2zM640 -218l6 13l2 14l13 25l4 11l7 15l2 10l5 13l6 14l7 11l15 13l18 -1l15 2l10 -1l9 -12l-5 -14l-5 -11l-5 -14l-4 -10l-9 -15l-4 -11l-5 -14l-7 -11l-3 -12
l-9 -14l-17 -13h-14l-11 -1l-14 1z" />
    <glyph glyph-name="Q_scedilla" unicode="Q&#x15f;" horiz-adv-x="1022" 
d="M568 68l6 -13l11 -11l8 -11l8 -12l9 -11l8 -12l12 -11l7 -9l13 -8l8 -10l6 -18l-21 -21l-13 -10l-23 -3l-10 10l-11 9l-8 8l-11 10l-9 13l-9 10l-8 10l-6 10l-11 12l-3 12l-11 10l-19 5l-11 -6l-15 -6l-12 -7l-13 -3l-14 -7l-10 -2l-14 -4l-15 -3l-14 -3h-13l-15 -2
l-28 1l-11 1l-14 2l-14 3l-15 1l-11 6l-15 5l-14 5l-11 6l-11 8l-13 7l-9 8l-14 10l-10 12l-7 9l-7 11l-9 11l-8 12l-5 13l-7 14l-3 14l-4 11l-3 16l-3 12l-2 15l-1 15l-2 12l-2 14l1 29l-2 14v15l5 15l-2 13l1 16l5 12l3 16v13l6 15l1 13l6 14l3 12l3 14l8 15l2 12l9 12
l3 15l8 13l7 10l5 14l10 11l7 11l10 13l6 12l11 11l10 8l8 12l13 10l9 10l8 7l13 10l10 8l13 6l14 9l13 4l10 7l12 5l17 6l12 3l13 3l16 3l13 3l13 1h16l26 2l13 -1l14 -2l13 -2l15 -6l16 -2l10 -7l15 -4l12 -6l11 -7l14 -9l7 -10l12 -7l9 -10l9 -12l7 -11l11 -11l5 -13
l6 -11l4 -15l8 -12l2 -14l5 -14l4 -13l3 -15l2 -13v-13l2 -14v-30l-3 -14l-1 -14l1 -13l-3 -14v-13l-2 -15l-2 -14l-5 -13l-1 -14l-1 -12l-5 -13l-5 -15l-4 -12l-3 -15l-5 -13l-7 -12l-6 -13l-6 -12l-7 -11l-5 -14l-10 -11l-6 -11l-6 -11l-11 -12l-7 -10l-8 -11l-10 -10v-21
zM427 632h-15l-14 -4l-12 -2l-15 -5l-11 -8l-10 -6l-13 -7l-10 -9l-13 -6l-12 -10l-6 -9l-10 -13l-9 -8l-10 -12l-8 -12l-6 -13l-10 -10l-6 -13l-8 -13l-2 -13l-8 -13l-4 -14l-3 -11l-5 -14l-6 -14l-2 -15l-5 -13l-3 -13l2 -15l-2 -15l-6 -12l2 -14l-1 -16l-1 -27l4 -14
l1 -13v-16l17 -5l12 8l11 4l13 8l17 3l11 5l17 5h15l11 2h31h15l9 -3l16 -2l12 -4l14 -5l12 -3l11 -8l13 -6l10 -9l11 -8l12 -10l7 -8l9 -11l19 1l9 12l6 11l11 12l4 13l8 12l4 12l5 12l10 14l3 14l5 12l2 13l3 13l3 14l4 15l3 14l3 14l2 14v13l2 14l-2 30l1 12v14l-3 15
l-3 13l-2 15l-6 12l-5 13l-5 13l-10 13l-7 13l-10 9l-7 12l-10 7l-11 8l-13 6l-16 7l-10 3l-16 3l-12 3zM1024 322l-32 2l-13 -1l-16 12l-1 16l-6 10l-8 11l-10 8l-17 7l-12 2l-29 2l-9 -4l-13 -5l-11 -7l-11 -9l-10 -9l-1 -13l-1 -27l8 -15l9 -12l10 -7l12 -10l22 -14
l16 -9l12 -6l11 -8l12 -8l13 -8l9 -7l11 -12l9 -10l9 -11l6 -13l4 -16l5 -14l-1 -28l-2 -14l-2 -13l-8 -14l-4 -13l-12 -11l-9 -9l-9 -12l-9 -7l-14 -7l-11 -8l-13 -5l-13 -4l-18 -2l-13 -2l-18 -17l-6 -13l-6 -13l7 -14l16 -6l12 -5l11 -5l12 -10l8 -13l6 -12l4 -14l2 -28
l-6 -16l-5 -11l-7 -13l-13 -10l-12 -8l-12 -9l-14 -3l-12 -6l-16 -3l-42 -2l-12 2l-16 1l-12 4l-12 4l-7 18l5 12l6 10l2 13l20 4l15 -4l17 -1l29 1l12 4l11 7l13 10v26l-9 12l-14 5l-10 4l-14 3l-15 1l-22 1l-7 13l5 12l8 15l2 14l5 14l8 12l-10 15l-22 8l-14 3l-14 6
l-13 6l-12 5l-8 7l-12 8l-3 17l8 12l8 11l7 10l4 10l23 4l10 -8l13 -6l13 -5l16 -7l13 -3l13 -2l16 -2h26l16 1l13 3l11 5l12 8l9 7l9 13l2 12l4 26l-9 11l-5 11l-11 9l-13 9l-10 8l-11 6l-11 7l-15 7l-12 9l-9 7l-10 7l-15 7l-8 9l-8 13l-11 11l-5 10l-5 13l-1 16l-3 28
l2 12l5 16l5 14l8 12l6 13l7 11l13 8l9 10l16 8l10 6l15 6l12 4h14l18 2l26 1l12 -1l16 -2l13 -6l13 -4l27 -15l7 -8l10 -11l8 -11l6 -11l5 -12l4 -14l3 -13l2 -14zM361 70l15 1l12 3l16 5l13 4l13 5l12 7v18l-10 12l-12 9l-12 7l-8 9l-16 6l-12 5l-13 4l-17 1l-11 4l-32 -1
l-12 -4l-16 -3l-12 -4l-16 -7l-12 -6l-4 -17l7 -13l8 -8l12 -9l12 -9l14 -5l9 -7l31 -5l12 -4z" />
    <glyph glyph-name="f_f" unicode="ff" horiz-adv-x="519" 
d="M580 737h9l15 -5l12 -6l13 -6l9 -11l9 -9l10 -13l5 -13l3 -12l6 -15l-1 -28l-2 -13l-7 -14l-17 -12l-13 -1l-17 2h-13l-13 13l2 14l1 25l-7 13l-11 8l-11 8l-26 -1l-10 -5l-9 -7l-11 -8l-6 -9l-10 -13l-7 -10l-3 -13l-6 -14l-6 -13l-6 -15l-2 -13l-4 -14l-7 -14l-2 -13
l-8 -13l-1 -15l-7 -14l9 -13l13 -1h17l14 2h12l13 -1h14l12 1l8 -16l-2 -12l-7 -14l-2 -14l-17 -13h-17l-15 2l-12 -1h-18l-15 -1l-15 1l-18 -13l-3 -14l-2 -14l-2 -13l-5 -14l-6 -14l-2 -14l-5 -13l-2 -13l-7 -14l-1 -14l-5 -11l-6 -27l-5 -15l-6 -12l-2 -14l-3 -14l-4 -14
l-2 -13l-6 -15l-2 -12l-4 -15l-7 -11l-2 -15l-2 -12l-5 -15l-16 -12l-13 -3l-16 1l-14 2l-15 -2l-8 15l3 13l4 14l3 13l6 13l4 12l3 14l2 14l4 13l5 13l6 16l2 13l4 13l3 14l4 13l6 12l1 14l7 13v14l5 13l6 15l-1 14l10 25l5 15l3 14l2 13l-9 14l-14 -1h-24l-15 2h-15
l-11 -2l-16 2l-10 -1l-16 -1l-14 1l-17 -13l-4 -16l-5 -13l-1 -13l-6 -13v-14l-5 -13l-4 -14l-4 -14l-6 -14v-11l-7 -14v-15l-6 -12l-3 -15l-5 -13l-2 -12l-5 -16l-1 -11l-8 -15l-1 -13l-4 -12l-2 -14l-8 -13l-2 -14l-1 -13l-8 -14l-17 -15l-14 2h-12l-15 -2h-12l-12 14
l7 13l3 14l1 15l6 12l6 15l2 13l5 13l1 13l7 13l4 13l1 15l3 12l5 14l4 13l2 15l3 14l6 13l3 14l4 13l6 12l3 15l2 14l3 14l5 13l2 14l5 12l-6 15h-13l-29 -2l-12 2l-10 13l8 12l2 13l4 15l22 14l14 -2h12l15 2l20 4l4 15v15l7 13l4 14l5 13l1 13l7 14l7 13l2 14l8 14l5 13
l3 11l6 15l8 10l7 13l7 13l9 12l13 10l10 10l10 9l7 10l15 5l11 8l15 3l13 6l15 2l13 2l13 -1l26 -2l14 -1l15 -5l9 -6l2 -21l-7 -13l-6 -13l-9 -13l-20 -8l-10 2l-27 1l-15 -5l-10 -3l-16 -8l-10 -8l-7 -11l-12 -10l-7 -11l-8 -11l-6 -13l-6 -14l-4 -13l-5 -13l-6 -12v-14
l-9 -16l-1 -12l-3 -15l-4 -12l8 -13h14l14 -2l10 1l15 -1h13l14 1l13 1l12 -2l15 2l16 -2l12 5l7 17l4 12l2 13l6 14l1 15l7 12l1 14l6 12l6 15l6 13l3 12l6 12l6 13l7 12l4 12l6 12l11 12l8 13l10 9l9 10l12 10l11 6l10 7l15 5l13 2l10 3l16 2z" />
    <glyph glyph-name="f_f_i" unicode="ffi" horiz-adv-x="747" 
d="M826 245l10 -9l4 -22l-8 -10l-3 -13l-12 -11l-5 -14l-7 -11l-11 -11l-7 -14l-6 -12l-9 -12l-10 -9l-8 -12l-8 -13l-9 -11l-6 -10l-10 -10l-11 -10l-21 -17l-15 -10l-11 -5l-11 -6l-17 -4l-10 -4h-32l-11 3l-13 4l-12 7l-11 7l-12 10l-11 9l-6 14l-5 11l-5 15l-1 14l2 25
l-2 14l4 11l2 14l1 14l5 12l1 14l7 12l4 15l1 13l5 14l4 15l3 14l5 14l4 12l4 16l5 14l5 12l4 15l3 14l-8 16l-13 -2l-17 1h-10l-18 1h-11l-16 -1l-14 1l-12 -2l-16 1l-12 1l-20 -15l-1 -14l-7 -14l-4 -13v-12l-7 -16l-1 -11l-4 -15l-5 -14l-6 -13l-1 -14l-4 -12l-5 -15
l-3 -11l-2 -16l-4 -13l-4 -13l-5 -13l-5 -15l-3 -11l-1 -14l-4 -15l-5 -12l-7 -14v-15l-4 -12l-7 -15l-16 -14l-14 3h-13l-13 -3l-15 3l-8 11l5 16l2 12l3 13l5 13l6 15l4 13l3 27l4 15l4 11l6 15l4 13l4 13l5 15l1 13l4 13l4 13l4 14l2 13l7 13l2 15l2 13l8 15l1 11l4 15
l2 14l-8 13l-11 -1l-16 1l-12 -1h-13l-13 2l-15 -2l-14 2l-13 -2l-13 2l-15 -1l-17 -15l-4 -14l-2 -12l-5 -13l-3 -15l-6 -11l-1 -16l-7 -12l-3 -13l-5 -14l-5 -28l-3 -13l-4 -12l-8 -27l-2 -14l-4 -15l-5 -13l-2 -12l-4 -16l-4 -11l-4 -16l-3 -12l-5 -13l-5 -13l-1 -14
l-18 -16l-16 3l-14 -3l-11 3h-16l-8 12l3 13l5 15l2 12l3 13l3 16l4 11l6 14l3 15l6 13l1 12l7 16l3 13l2 14l4 13l5 13l4 13l4 15v11l7 14l1 14l6 15l1 13l6 14l3 13l2 14l8 11l-13 16h-23l-14 -2h-12l-11 14l4 12l6 16l7 12l19 14l14 -1l14 1l14 -1l19 4v17l7 13l4 16
l1 11l4 15l8 14l5 12l3 14l3 13l8 11l2 14l9 14l4 10l8 14l9 11l4 13l10 12l8 10l8 10l13 10l8 10l14 7l11 7l10 4l30 6l12 2l12 2l28 -3l11 -3l14 -2l14 -6l1 -21l-7 -13l-11 -12l-5 -14l-24 -9l-33 3l-11 -3l-14 -6l-10 -7l-10 -10l-10 -10l-6 -11l-10 -9l-4 -14l-9 -13
l-2 -12l-9 -14l-1 -12l-8 -13l-3 -15l-1 -11l-5 -15l-4 -12l-5 -15l10 -13h16l13 1h11l15 -2l11 1l17 1h24l17 -1l11 1l17 3v16l4 13l8 15l2 13l2 13l9 14l3 12l2 13l8 13l3 14l6 13l6 11l8 13l3 11l8 14l7 11l12 11l6 11l10 10l23 19l20 12l13 6l13 6l14 2l12 1l13 3l31 -2
l12 -2l15 -1l13 -5l12 -7l14 -6l13 -10l8 -9l9 -13l4 -11l8 -12l2 -16l4 -13v-28l-5 -14v-12l-4 -14l1 -12l-21 -11l-17 -1l-11 -1l-15 2l-13 12l2 13l-1 10l1 14l3 28l-7 15l-9 14l-11 9l-12 5l-28 2l-14 -5l-12 -4l-10 -7l-13 -10l-8 -7l-9 -13l-8 -11l-7 -13l-4 -11
l-6 -14l-6 -14l-5 -11l-8 -16l-5 -14l-5 -12l-3 -15l-7 -14l-4 -14l13 -14l10 2l17 -1h14l11 1h41l16 -1l11 1l15 -2h15l13 2h29l14 -2l15 1l12 1l7 -16v-11l-9 -14v-12l-6 -15l-6 -14l-4 -13l-5 -13l-5 -13l-2 -11l-6 -14l-5 -15v-12l-8 -12v-14l-5 -13l-7 -15l-4 -11v-13
l-6 -15l-1 -14l-3 -13l-5 -12l-1 -15l2 -28l6 -12l7 -13l11 -7l27 -1l13 3l24 15l8 10l13 8l9 12l17 21l8 11l11 11l6 13l6 13l9 11l10 12l4 13l9 11l5 11z" />
    <glyph glyph-name="f_i" unicode="fi" horiz-adv-x="512" 
d="M591 245l11 -8l6 -22l-10 -12l-4 -11l-10 -13l-5 -11l-8 -14l-8 -11l-10 -12l-6 -12l-11 -13l-4 -11l-13 -12l-5 -11l-12 -11l-8 -9l-8 -12l-14 -9l-7 -9l-11 -8l-15 -9l-13 -7l-11 -5l-12 -6l-17 -3l-26 1l-16 2l-25 10l-13 8l-10 9l-8 13l-6 11l-7 13l-1 14l-2 13l1 26
l-2 12v14l7 13l2 13v13l5 13l4 14l5 12l2 15l4 15l3 13l6 14l1 15l9 12l4 16l5 14l3 13l4 14l2 14l-8 16h-15l-11 -1l-13 1h-15l-14 -2h-10l-17 2h-14l-12 -1l-14 -1l-13 2l-16 -16l-5 -14l-5 -24l-5 -15l-7 -14l-3 -12l-4 -16l-1 -11l-4 -14l-2 -14l-5 -14l-6 -13l-1 -14
l-3 -13l-5 -14l-5 -12l-2 -16l-4 -13l-7 -25l-6 -13l-1 -16l-8 -13l1 -14l-4 -13l-8 -14l-17 -11l-10 -3l-14 3h-30l-7 12l2 15l5 11l2 15l5 14l3 14l4 12l6 14l3 12l3 14l5 14l4 14l2 13l2 13l7 13v15l5 12l5 14l6 29l6 11l4 27l4 15l5 12l6 16l2 13l-8 14l-12 -2l-13 1
l-13 -1l-16 1l-5 12l4 15l3 12l5 14l17 15l17 -2h29l15 4l7 18l3 13l4 14l5 14l5 14l3 11l6 13l2 14l6 14l6 12l6 15l9 10l5 15l9 10l5 12l11 11l8 14l11 10l8 10l11 7l10 10l14 8l12 5l13 6l14 3l9 5h17l14 1l29 1l12 -1l11 -4l14 -5l13 -4l15 -10l11 -8l8 -9l5 -12l6 -14
l8 -11l2 -15l1 -14v-30l-4 -13v-15l-15 -16h-17l-12 1h-27l-8 16l3 13l2 32l-6 14l-7 12l-16 10l-12 6l-27 1l-15 -2l-10 -5l-10 -7l-13 -8l-11 -11l-6 -11l-12 -10l-6 -14l-6 -13l-6 -13l-7 -12l-8 -15l-2 -11l-6 -15l-3 -13l-6 -14l-5 -14l-6 -14l9 -15l15 1l17 -1l14 -1
h13l12 2h29l15 -1l12 1l18 -1l11 1l13 -2l17 1l13 1l13 -2l14 2h15l12 -16l-5 -13l-4 -13l-7 -12l-4 -13l-2 -14l-4 -12l-6 -15l-7 -12l-1 -12l-5 -15l-7 -11l-4 -15l-4 -12l-5 -15l-1 -13l-6 -14l-2 -13l-5 -12v-15l-5 -13l-5 -14l-3 -11l1 -15l-2 -29l9 -12l6 -11l14 -9
h23l13 3l12 9l15 8l11 8l8 10l12 11l5 11l13 11l7 11l9 12l7 11l10 12l7 12l4 11l8 12l10 11l6 13z" />
    <glyph glyph-name="f_j" unicode="fj" horiz-adv-x="472" 
d="M566 216l-10 -12l-3 -12l-8 -9l-10 -12l-8 -12l-9 -12l-7 -11l-11 -12l-6 -9l-12 -13l-9 -9l-6 -10l-11 -12l-10 -11l-8 -11l-11 -8l-12 -11l-10 -9l-10 -10l-12 -7l-11 -9l-8 -7l-15 -9l-9 -8l-14 -4l-11 -6l-19 -19l-7 -14l-2 -12l-8 -13l-4 -14l-7 -12l-4 -15l-7 -13
l-7 -11l-5 -14l-8 -12l-9 -14l-5 -10l-9 -13l-10 -10l-7 -11l-12 -11l-12 -11l-11 -7l-12 -8l-10 -7l-13 -5l-18 -3l-13 -2l-28 2l-11 2l-16 4l-11 5l-11 6l-11 10l-11 10l-7 9l-7 15l-2 11l-4 14l-2 30l3 13l7 12l3 14l7 11l11 11l10 9l11 10l10 8l11 7l15 6l12 9l12 5
l12 6l16 4l13 7l13 4l14 4l15 5l14 4l12 5l14 6l18 9l6 18l4 14l1 13l3 13l7 13l3 12l3 15l8 14l3 13l5 13l2 12l7 15l1 14l7 13l1 13l4 13l7 12l4 14l2 13l8 14l3 12l6 13l3 16l5 11l5 15l3 13l3 14l2 13l-7 12l-29 2l-12 -2l-17 2h-11l-14 -1l-17 1l-11 -1l-18 1l-11 -1
l-15 -1l-18 -12l-2 -14l-4 -14l-4 -12l-5 -16l-2 -13l-3 -14l-5 -14l-3 -13l-4 -12l-7 -13v-14l-4 -14l-6 -13l-1 -14l-8 -14l-1 -12l-2 -14l-8 -13l-2 -13l-3 -14l-6 -13v-16l-6 -11l-2 -15l-5 -13l-3 -15l-20 -14l-11 3l-15 -3l-13 1l-12 -1l-14 14l6 16l5 12l1 15l3 11
l8 27l5 16l6 12l4 14l2 12l6 16l-1 12l4 13l8 14l2 13l3 15l5 14l2 13l4 12l3 15l4 14l5 11l3 16l5 13l5 13l4 14l-13 12h-22l-27 2l-9 12l5 13l3 15l6 12l19 15h15l12 -1l18 -1l14 5l6 17l2 14l3 14l7 13l4 11l3 16l6 12l7 14l5 13l4 13l5 12l6 13l8 11l3 14l11 12l8 12
l8 10l10 11l8 10l8 10l15 8l9 6l13 7l11 6l16 3l14 5l12 1h14l29 2l15 -2l10 -3l16 -6l14 -4l13 -9l11 -7l6 -12l12 -10l3 -13l7 -14l4 -12v-14l2 -31v-16l-7 -14l-20 -13h-12l-18 -2h-15l-12 15l5 17l-3 29l-3 16l-9 12l-13 9l-12 6l-29 2l-12 -4l-11 -5l-12 -6l-13 -10
l-7 -9l-10 -9l-6 -12l-8 -13l-7 -14l-7 -13l-6 -11l-6 -15l-8 -14l-3 -14l-4 -13l-4 -13l-6 -14l-5 -15l11 -15l13 1h55l14 -1l14 2l10 -1l14 1l14 -1l16 -1h14l13 2l13 -1h28l11 1l13 -1l13 -13l-8 -13l-3 -16l-3 -11l-4 -15l-5 -13l-6 -13l-5 -13l-5 -14l-3 -14l-5 -13
l-1 -14l-7 -12l-2 -16l-8 -12v-14l-4 -13l-6 -14l-4 -12l-5 -15l-7 -13l-2 -12l-5 -16l-5 -12l-1 -12l-8 -15l-1 -13l-5 -14l-3 -13l-6 -14l-3 -12l7 -8l10 9l14 6l10 9l10 11l11 10l7 7l11 12l11 9l9 12l10 9l6 11l9 11l12 10l7 12l7 11l9 11l9 12l7 13l9 11l8 11l8 11
l19 2l13 -7zM98 -224l13 4l12 6l9 10l9 10l10 10l7 14l11 12l3 13l8 12l6 14l6 14l4 14l-4 9l-16 -6l-14 -6l-14 -5l-10 -6l-16 -4l-14 -8l-12 -5l-13 -9l-13 -9l-9 -7l-10 -14l-7 -12l1 -28l8 -13l13 -9z" />
    <glyph glyph-name="f_t" unicode="ft" horiz-adv-x="544" 
d="M611 244l15 -8l4 -20l-8 -14l-5 -11l-10 -13l-9 -11l-7 -13l-6 -10l-10 -14l-6 -12l-11 -10l-5 -13l-12 -9l-8 -14l-10 -10l-7 -9l-9 -11l-10 -10l-14 -10l-10 -10l-11 -7l-13 -8l-10 -6l-15 -3l-14 -2l-30 -2l-14 4l-24 10l-16 10l-9 8l-6 11l-10 13l-5 14l-1 15l-2 14
l-2 26l3 15l-3 13l4 11l3 13l2 14v13l3 14l4 13l2 13l4 13l6 15l1 13l6 14l-1 12l7 14l3 15l2 13l5 12l7 15l-13 14l-16 1l-14 -2h-27l-25 2l-14 -1h-44l-14 -1l-19 -14l-4 -13l-5 -12l1 -15l-7 -13l-3 -13l-5 -15l-3 -14l-5 -11l-2 -14l-4 -13l-4 -15l-5 -12l-2 -14l-4 -15
l-2 -13l-4 -12l-3 -16l-7 -11l-1 -15l-6 -14l-4 -11v-16l-5 -13l-5 -13l-1 -12l-8 -16l-14 -13h-57l-10 15l7 14l1 11l5 15l2 12l4 15l3 12l7 14l3 14l1 13l4 15l8 13v13l4 15l4 12l7 15v12l7 15l3 12l2 14l2 13l4 15l4 13l7 12l4 15l4 12l4 13l-9 14l-17 1l-9 1l-14 -1
l-15 1l-5 11v15l5 14l5 13l19 12l31 2h14l15 4l6 16l2 13l8 14l4 13l1 13l5 13l6 13l3 14l7 13l4 12l4 13l7 14l5 11l8 14l7 12l5 12l10 11l10 12l9 9l8 11l10 7l12 10l14 5l12 4l11 5l14 3l13 2l17 -1h28l9 -5l14 -3l13 -7l8 -8l9 -10l-3 -25l-12 -12l-6 -11l-8 -11l-18 -1
l-10 6l-11 6l-26 3l-12 -3l-14 -7l-13 -7l-7 -8l-9 -10l-12 -10l-7 -12l-2 -13l-9 -12l-5 -12l-4 -14l-7 -14l-3 -11l-6 -14l-1 -14l-4 -14l-4 -12l-6 -16l11 -12l14 -1l15 2l14 -1h27l18 -1l26 2l16 -1l14 1h10l19 13l6 12l2 13l3 15l7 14l3 12l6 16l3 13l5 12l2 16l5 12
l4 14l6 13l4 15l19 16l11 1l15 -1l15 3h14l7 -13l-1 -13l-4 -14l-6 -11l-2 -14l-4 -14l-6 -14l-2 -11l-3 -13l-8 -16l-2 -11l-6 -13l1 -15l-7 -12l-1 -12l9 -15l29 2l15 -2h14l13 1h15l10 -15l-3 -12l-6 -13l-4 -13l-16 -13l-16 -1l-12 -1h-28l-16 1l-14 -1l-19 -12l-3 -16
l-5 -13l-4 -12l-1 -14l-6 -14l-4 -12l-3 -14l-2 -14l-7 -14v-13l-5 -15v-15l-6 -11v-14l-3 -15l-2 -13l-2 -16v-25l5 -12l4 -11l9 -11l12 -6l27 1l13 5l12 6l12 7l7 9l15 7l9 10l9 13l6 10l10 13l9 9l7 13l8 12l8 13l7 10l11 13l6 12l9 12z" />
    <glyph glyph-name="s_s" unicode="ss" horiz-adv-x="729" 
d="M180 -15l-12 3l-13 3l-12 2l-16 3l-13 4l-10 5l-15 5l-9 7l-14 7l-11 8l-4 18l9 10l8 10l5 11l7 13l22 2l12 -7l10 -7l14 -5l14 -5l15 -4l17 -4l12 -3l41 3l12 4l12 3l15 8l8 9l8 10l5 14l-3 27l-2 13l-9 11l-13 9l-8 7l-14 8l-13 7l-11 6l-15 6l-12 9l-11 7l-12 9l-11 8
l-9 10l-8 12l-10 11l-11 2l-5 -13l-8 -14l-9 -12l-7 -12l-6 -12l-20 -4l-11 7l-8 20l8 10l5 14l4 11l8 13l8 11l6 12l3 11l10 14l6 11l3 12l10 12l9 25l7 10l11 13l9 8l12 10l9 6l14 8l12 5l14 3l13 4l18 2h11l27 1l18 -2l25 -8l15 -3l9 -7l14 -9l8 -7l10 -12l11 -9l3 -12
l7 -15l5 -13l-1 -14v-12l-14 -15h-17l-11 2l-14 -2l-17 15l-1 12l-8 14l-5 11l-14 6l-13 6l-13 4h-25l-17 -2l-9 -6l-14 -6l-8 -10l-9 -10l-5 -14l1 -28l6 -14l9 -11l12 -10l11 -7l25 -15l15 -9l10 -6l15 -7l11 -6l13 -9l12 -9l8 -11l11 -9l8 -11l6 -15l7 -12l1 -16l3 -26
l-4 -15l-5 -14l-3 -12l-5 -13l-8 -9l-7 -11l-10 -10l-15 -9l-11 -9l-9 -6l-15 -4l-10 -4l-14 -5l-16 -3h-12l-13 -2h-45zM531 -15h-14l-12 3l-16 2l-14 5l-13 4l-13 5l-16 6l-12 6l-6 22l4 15l6 14l5 13l18 9l11 -8l16 -5l13 -5l15 -4l27 -6h29l12 3l17 6l13 7l7 10l10 10
l4 13l2 28l-8 13l-7 12l-10 10l-12 9l-13 6l-11 9l-15 5l-12 8l-14 7l-12 9l-11 9l-12 9l-8 11l-8 9l-6 13l-4 15l-7 14l2 28l2 16l2 14l4 14l8 11l10 12l8 12l11 10l10 8l14 9l12 7l12 4l15 4l29 3h26l17 -1l13 -1l12 -5l27 -12l12 -7l10 -8l9 -11l13 -23l8 -14l3 -13
l-2 -14l5 -12l-17 -13l-18 -2l-12 1h-15l-13 14l-2 12l-8 14l-8 10l-10 10l-13 3l-12 5l-30 -2l-14 -3l-13 -4l-13 -7l-9 -9l-5 -12l-4 -12l-2 -29l10 -12l7 -8l8 -11l25 -15l22 -12l13 -9l14 -6l8 -8l12 -6l12 -8l10 -10l21 -20l3 -10l9 -14l1 -12l6 -16l-1 -28l-2 -14
l-6 -13l-5 -11l-7 -13l-7 -13l-9 -10l-10 -10l-9 -8l-10 -7l-17 -8l-9 -4l-15 -5l-16 -3l-13 -3l-12 -1h-30z" />
    <glyph glyph-name="t_f" unicode="tf" horiz-adv-x="575" 
d="M637 739l16 -4l13 -4l14 -4l10 -7l9 -10l9 -11l9 -12l6 -13l3 -12l1 -13v-29l-1 -14l-3 -13l-23 -13l-14 1l-12 -1l-18 2l-11 13l4 13l-2 28l-3 11l-6 9l-16 7l-24 1l-8 -6l-9 -5l-10 -11l-9 -10l-7 -9l-7 -14l-6 -11l-5 -14l-5 -13l-5 -14l-5 -15l-6 -13l-4 -15l-3 -13
l-7 -13l-1 -15l-6 -14l12 -14h14l9 -1h68l17 2l7 -15l-3 -12l-6 -14l-3 -15l-18 -12l-15 1l-13 -1h-23l-14 1l-15 -1l-13 1h-11l-19 -16l-2 -12l-5 -13l-6 -13l-3 -15l-1 -12l-6 -15l-4 -12l-5 -15l-1 -12l-7 -14l-3 -15l-2 -13l-2 -12l-6 -15l-3 -12l-6 -15l-2 -13l-5 -14
l-4 -12l-2 -15l-2 -12l-6 -14l-2 -14l-4 -15l-2 -13l-4 -14l-20 -14l-27 3h-12l-14 -3l-13 15l6 15l3 13l5 12l3 14l3 14l6 13l4 14l4 12l2 15l4 13l2 14l7 13l1 14l5 12l6 14v13l3 15l8 13l2 15l4 13l9 25l1 14l3 14l4 13l6 15l-11 12l-14 1l-16 -1h-10l-17 2h-14l-16 -2
h-11l-16 1l-13 -1h-30l-27 2l-17 -15l-7 -14l-3 -13l-5 -15l-2 -12l-3 -13l-3 -15l-3 -14l-5 -14l-3 -12l-6 -15l-3 -15l-1 -14l-2 -12l-2 -16l-3 -14l-3 -14l-2 -12l3 -29l5 -15l11 -13l11 -5l31 -3l13 4l9 3l16 5l10 7l12 8l14 -7l6 -14l7 -12l-4 -25l-15 -7l-7 -9l-13 -8
l-12 -5l-9 -7l-13 -5l-17 -2l-12 -5h-12l-27 -1l-17 4l-10 4l-16 5l-9 8l-12 9l-10 12l-4 13l-9 14l-3 13l-2 15l2 27v13l1 13l2 12l-1 14l3 12l2 16l3 12l3 14l5 14l1 12l3 15l4 12l7 15l4 12l-1 16l7 11l3 14l6 15v12l-8 16h-45l-11 11l4 14l5 13l3 13l17 15l16 -1l14 2
l17 -2l20 13l2 14l6 13l3 16l2 13l3 13l4 15l7 12l2 13l4 16l7 13l3 14l4 11l3 15l20 14l13 3l13 1l15 1h15l10 -13l-3 -11l-4 -13l-7 -15l-2 -12l-4 -13l-3 -13l-3 -15l-6 -13l-2 -12l-7 -14l-6 -26l-4 -13l-5 -14l13 -13h14l12 2h41l18 -1h26l15 1h27l16 -2l13 2l13 3
l7 16l3 15l6 11l3 15l5 14l3 12l2 12l6 15l5 11l6 14l2 13l6 13l8 12l7 13l3 12l10 12l7 13l7 11l10 9l8 11l13 8l11 8l13 8l12 3l11 3l16 5l13 -1z" />
    <glyph glyph-name="t_t" unicode="tt" horiz-adv-x="554" 
d="M622 245l13 -9l4 -19l-4 -13l-8 -11l-9 -12l-8 -12l-8 -13l-5 -13l-7 -9l-7 -12l-11 -11l-5 -13l-12 -9l-6 -12l-10 -12l-11 -9l-7 -11l-11 -9l-11 -9l-9 -8l-13 -9l-12 -6l-11 -9l-14 -4l-12 -4l-16 -2l-27 1l-11 2l-17 4l-12 7l-14 8l-7 9l-12 11l-4 13l-8 13l-1 15
l-2 14l-2 25l1 14v13l1 14l3 14l3 11l1 14l4 13l4 15l2 12l4 14l5 15l2 14l1 13l5 14l6 14v13l8 14l3 13l2 13l-11 14l-13 1h-26l-12 -1h-13l-17 1l-11 -2l-15 1l-11 -1l-16 1h-11l-20 -13l-1 -15l-7 -12v-15l-4 -14l-6 -13l-5 -12l-2 -13l-4 -15l-2 -12l-5 -14l-3 -16
l-1 -11l-4 -14l-2 -14l-1 -13l-4 -14l-1 -15v-26l4 -14l8 -12l7 -8l14 -8h29l15 2l14 4l16 4l14 5l13 -6l6 -13l3 -14l3 -12l-11 -22l-11 -5l-14 -7l-13 -4l-9 -4l-16 -5l-27 -3h-10l-30 1l-11 2l-16 4l-15 7l-8 7l-12 12l-8 10l-8 11l-9 14l-4 14v16v26l-1 12l5 13l2 13
l1 16l1 13l1 11l6 15v13l5 15l1 13l3 12l7 13l4 16l3 12l3 15l5 12l3 14l2 12l7 14l-13 16l-29 -2l-16 1l-9 12l2 15l5 13l3 13l20 14l13 -1l18 1l13 -1l19 15l6 13l1 13l7 13v16l7 13l1 12l8 15l1 13l4 14l3 14l8 14l3 11l2 15l22 16l14 -1l11 2l16 2l13 -1l9 -12l-5 -12
l-2 -14l-6 -14l-4 -11l-3 -13l-2 -15l-3 -11l-7 -14l-3 -15l-5 -13l-3 -12l-1 -13l-7 -13l-4 -14l13 -12l14 -1h11l16 1l11 -1l16 1h23l17 -1h26l11 1l17 13l7 14l2 12l9 28l4 13l5 15l2 12l8 14l1 15l7 13l1 12l4 16l6 13l20 15l12 2h13l14 2l13 1l14 -14l-3 -13l-6 -11
l-6 -13l-1 -13l-3 -15l-8 -14l-3 -13l-1 -12l-4 -13l-7 -14l-1 -13l-8 -13l-3 -13l-2 -14l11 -11l10 -2l17 2l15 -2l26 2l12 -2l13 2l9 -16v-13l-5 -12l-5 -14l-19 -14l-13 2l-29 -2l-11 1h-13l-16 1h-12l-16 -16l-3 -14l-6 -13l-2 -13l-6 -13l-1 -14l-5 -14l-4 -14l-2 -15
l-5 -12l-2 -13l-5 -16l-4 -12l-1 -16l-4 -12l-4 -16l-2 -12l2 -14v-29l6 -14l11 -13l12 -7h30l12 3l11 4l14 6l8 10l14 8l9 10l9 13l10 10l7 12l13 10l5 13l8 11l10 14l7 12l10 13l5 12l10 12z" />
    <glyph glyph-name="uni0431044F" unicode="&#x431;&#x44f;" horiz-adv-x="963" 
d="M1038 246l16 -8l4 -23l-7 -11l-8 -11l-6 -14l-18 -24l-8 -10l-7 -13l-7 -12l-8 -11l-12 -10l-7 -12l-10 -12l-6 -10l-9 -11l-12 -12l-10 -9l-12 -11l-8 -7l-12 -8l-11 -7l-14 -8l-26 -8l-28 3l-17 2l-13 8l-13 7l-9 11l-6 11l-6 15l-2 13l-3 16l-1 25l1 14l2 14l3 14
l2 13l-1 14l-10 13h-12l-12 1h-14l-17 -16l-8 -13l-6 -10l-7 -14l-5 -13l-7 -13l-5 -12l-9 -13l-7 -12l-8 -11l-10 -10l-7 -12l-8 -10l-12 -10l-13 -7l-9 -5l-14 -5l-17 -6l-14 -1l-28 -1l-14 3l-10 5l-14 9l-9 9l-7 10l-12 12l-3 12l-8 16l-4 12l-9 4l-11 -12l-9 -12l-8 -8
l-15 -9l-10 -11l-9 -7l-13 -7l-16 -6l-11 -6l-13 -2l-13 -4l-16 -4l-14 -3h-13h-31h-12l-15 4l-11 4l-17 4l-9 7l-14 6l-11 8l-17 20l-10 13l-4 11l-8 11l-5 13l-2 13l-4 15l-4 13l2 15l-1 27l-2 13l4 13l3 16l-1 12l3 13l3 16l-1 13l3 13l3 14l4 14l6 11l1 16l3 11l4 14
l3 13l5 15l5 13l4 13l4 13l7 27l6 12l8 14l2 12l10 12l6 15l4 11l11 11l8 13l7 11l11 12l5 10l12 10l8 11l12 8l9 10l14 7l13 8l11 9l11 6l27 13l11 4l12 6l15 5l15 3l15 5l9 4l16 5l16 3l12 5l13 5l14 4l15 4l11 6l19 -5l8 -13l2 -13l10 -14l-8 -21l-15 -3l-13 -5l-13 -6
l-13 -6l-10 -3l-16 -3l-10 -6l-13 -3l-12 -4l-18 -4l-11 -2l-12 -5l-14 -4l-26 -14l-11 -5l-12 -9l-22 -17l-11 -10l-11 -8l-8 -13l-8 -11l-8 -11l-9 -12l-9 -12l-4 -13l-8 -15l-3 -13l4 -8l27 13l13 5l15 3l13 2l16 1l32 1l12 -2l15 -3l14 -5l10 -5l13 -7l11 -8l12 -11
l11 -10l10 -10l6 -11l5 -14l8 -12l1 -14l8 -13v-15l1 -13l4 -15l1 -15l1 -29l-1 -13l-3 -15v-26l-1 -10v-27v-15l1 -12l2 -15l3 -12l7 -14l6 -13l8 -10l14 -5l28 -2l8 4l13 6l11 10l9 8l6 11l9 12l5 14l9 12l4 12l7 14l3 10l-5 22l-11 6l-14 9l-6 10l-8 11l-8 15l-4 13l1 13
l-4 15l2 25l3 14l2 13l7 13l8 13l6 11l6 12l12 10l6 10l14 8l10 7l14 6l10 6l12 4l16 2l16 4l41 1h13l15 -1h26l16 1h40l13 -1l12 2l17 -1l14 1l6 -15l-3 -12l-3 -14l-4 -14l-6 -14l-5 -11v-14l-6 -14l-3 -13l-5 -12l-3 -14l-8 -14l-1 -14l-6 -13l-4 -13l-3 -12l-4 -14
l-6 -14l-3 -14l-5 -11l-2 -16l-5 -12l-2 -14l-4 -13v-13l-3 -30l7 -13l12 -10l29 -1l7 6l13 6l12 7l9 8l9 8l13 11l10 11l7 11l9 11l8 11l7 12l8 11l11 11l5 12l7 13l9 9l9 13l8 13zM376 275l-1 15l2 15l-3 13l-8 13l-4 10l-11 14l-7 10l-10 7l-13 8l-13 3l-15 3h-27l-16 -3
l-14 -3l-10 -5l-15 -6l-13 -9l-9 -7l-11 -12l-11 -11l-10 -27l-4 -14l-1 -15l-6 -13l-4 -15l-2 -14l-3 -15l-2 -14l1 -14l-1 -14l-3 -28l2 -12l7 -15l2 -11l10 -11l10 -13l11 -8l8 -6l16 -6l14 -3h23l14 2l13 5l13 5l13 7l11 8l13 6l12 10l7 11l10 13l6 12l4 10l8 15l5 13
l5 13l3 13l4 15l1 15l1 14zM686 243l16 -1h15l13 2l15 -2l15 1l15 11l6 13l2 13l4 15l5 14l3 12l8 14l2 12l2 16l-8 14l-14 -1l-11 1l-13 -2h-14l-11 2l-16 -2l-28 -1l-12 -2l-11 -6l-12 -5l-23 -20l-7 -12l-1 -14l-5 -29l3 -14l12 -13l8 -10l14 -6h28z" />
    <glyph glyph-name="uni0432044F" unicode="&#x432;&#x44f;" horiz-adv-x="980" 
d="M1058 246l10 -9l5 -21l-5 -11l-8 -14l-6 -11l-9 -11l-10 -14l-7 -11l-7 -11l-6 -11l-8 -13l-12 -11l-5 -10l-13 -13l-5 -10l-10 -10l-12 -11l-11 -12l-10 -8l-12 -10l-9 -9l-12 -5l-12 -6l-13 -6l-18 -3h-25l-15 4l-11 8l-16 7l-9 10l-5 14l-9 13l-4 12l-2 17l2 25v15
l3 13l2 15l1 12l3 15l-8 13h-17l-12 -2h-12l-19 -13l-7 -13l-7 -11l-3 -15l-5 -13l-16 -23l-7 -13l-7 -13l-7 -10l-12 -12l-5 -11l-10 -10l-15 -8l-9 -8l-13 -7l-11 -5l-13 -4l-14 -1l-29 -1l-12 2l-16 7l-9 5l-11 11l-9 11l-9 12l-7 11l-4 15l-3 14h-11l-11 -9l-8 -12
l-13 -10l-9 -8l-22 -16l-16 -9l-11 -5l-12 -6l-14 -3l-16 -3l-14 -5h-13l-15 -2l-25 -1l-15 3l-16 3l-10 3l-16 4l-12 6l-14 5l-7 8l-13 11l-8 10l-10 9l-7 14l-5 12l-7 13l-5 11l-2 13l-1 16l-2 13l-1 14l-5 14l4 27l-1 13l2 13l-1 14l1 13l5 14l2 16l1 13v13l4 14l4 15
l2 12l4 13l2 16l6 14v12l8 13l6 27l3 16l6 12l4 12l6 14l7 14l5 13l2 12l9 15l5 13l6 13l5 11l10 14l3 12l10 10l8 13l7 12l10 9l8 11l13 11l7 8l14 9l10 9l13 9l12 5l13 7l9 5l17 4l11 3l14 2l16 2h27l12 -3l15 -2l11 -3l15 -7l10 -8l12 -7l9 -9l7 -13l3 -12l6 -12l3 -12
l4 -13l-2 -29l-1 -12v-13l-3 -15l-9 -11l-4 -15l-5 -12l-6 -12l-12 -12l-8 -9l-7 -12l-8 -9l-13 -11l-11 -8l-9 -10l-10 -8l-15 -5l1 -13l15 -8l10 -8l11 -9l11 -11l7 -10l4 -12l10 -12l5 -14l5 -12l3 -14l3 -14v-13l2 -15l1 -28l1 -12l-6 -13l3 -28v-31l-1 -13v-14l2 -15
l6 -14l6 -11l4 -15l12 -10l11 -6l27 -1l9 4l15 7l7 10l9 10l9 9l9 13l5 12l5 12l6 12l6 14l4 13l-5 18l-9 9l-15 9l-9 9l-6 12l-6 14l-5 11l-2 16l-1 13l1 28l3 13l5 14l7 12l5 11l4 14l11 10l7 12l13 7l10 8l8 9l14 7l14 5l10 2l15 4l30 2l24 2l15 -1h14l13 2h18l11 -1
l17 1h13l14 -2l12 2l14 -1h30l8 -13l-5 -13l-3 -13l-5 -16l-3 -13l-7 -11l-6 -27l-7 -15l-3 -12l-6 -12l-1 -16l-7 -12l-1 -14l-4 -12l-8 -14v-13l-5 -14l-6 -13l-5 -13l-2 -14l-4 -14l-4 -14l-4 -13l2 -12l-2 -30l6 -13l10 -9l28 -1l11 5l15 5l10 7l9 10l8 9l11 9l12 12
l5 8l11 11l7 13l12 12l4 10l11 12l8 12l4 13l12 12l5 11l8 11zM369 662l-12 -2l-13 -5l-14 -6l-11 -6l-13 -10l-10 -8l-12 -10l-9 -11l-5 -13l-10 -10l-7 -14l-9 -11l-10 -12l-5 -14l-8 -12l-3 -15l-5 -13l-8 -12l-2 -15l-7 -13l-6 -15l9 -8l17 6l14 4l16 4l12 5l27 9l17 4
l12 7l10 7l14 7l13 8l10 7l11 9l10 12l9 9l12 11l9 13l5 12l8 12l1 15l6 13l-3 26l-1 13l-9 12l-10 5l-14 4zM396 271l-3 15l-3 14v13l-5 13l-7 13l-11 13l-11 10l-10 7l-14 7l-14 6l-14 2l-39 -3l-16 -2l-10 -4l-17 -5l-10 -9l-23 -13l-6 -10l-12 -11l-12 -24l-1 -16
l-1 -12l-7 -16l-2 -15l1 -13l-1 -14l-1 -15l-5 -13l4 -29v-13l5 -14l3 -13l8 -12l10 -11l9 -11l10 -8l11 -7l13 -5l14 -2h27l14 2l16 3l10 6l12 8l14 6l9 11l10 10l10 9l7 13l8 12l10 12l4 14l4 14l3 13l5 15l-1 16l1 12zM703 244l14 -1l16 1h28l14 -2l17 13l4 13l8 15l1 13
l6 11l4 14l1 14l6 12l6 14l-9 15h-41l-14 1h-12l-12 -1l-40 -3l-15 -5l-14 -9l-9 -8l-11 -12l-7 -10l-2 -15l-3 -27l6 -17l8 -11l8 -8l13 -7h29z" />
    <glyph glyph-name="uni043E044F" unicode="&#x43e;&#x44f;" horiz-adv-x="956" 
d="M1031 246l15 -8l3 -23l-7 -12l-8 -10l-5 -14l-6 -10l-11 -13l-9 -12l-7 -12l-7 -12l-9 -9l-9 -13l-9 -10l-7 -12l-8 -12l-9 -9l-10 -13l-14 -8l-10 -10l-8 -11l-12 -7l-14 -7l-12 -7l-13 -5l-15 -1l-27 1l-14 2l-15 5l-8 11l-11 9l-7 13l-6 13l-8 15l-1 15l2 26v15l-1 14
l5 13v12l4 15l-8 12l-16 1l-14 -2h-13l-17 -13l-6 -13l-8 -11l-5 -14l-6 -14l-3 -13l-10 -10l-8 -14l-7 -11l-5 -11l-9 -11l-10 -11l-10 -11l-11 -8l-12 -8l-10 -7l-12 -5l-18 -3l-11 -2l-28 -1l-16 2l-8 7l-15 4l-11 9l-9 10l-5 13l-7 11l-4 13l-6 14l-5 14h-8l-9 -9
l-12 -11l-7 -10l-13 -12l-8 -7l-14 -8l-10 -8l-12 -9l-13 -4l-15 -7l-10 -5l-17 -4l-11 -2l-16 -2l-28 1l-11 3l-17 1l-14 4l-10 6l-15 6l-9 6l-12 8l-11 9l-8 10l-8 11l-10 12l-5 14l-7 13l-5 12l-4 13l-2 13l1 16l-5 12l1 31v12l1 13l6 15v13l5 15l5 12l2 15l8 12l4 13
l4 14l7 10l10 14l5 11l11 12l7 10l8 9l11 11l11 8l9 11l12 7l26 14l11 6l12 4l16 7l12 2l15 4l15 1l24 -2l15 -2h12l16 -4l26 -13l9 -8l10 -7l10 -10l10 -9l8 -11l6 -13l10 -13l3 -12l3 -13l8 -12v-14l1 -16l3 -14l1 -25l-4 -13l2 -13l-3 -15l-2 -24l-3 -14l1 -27l4 -14v-14
l2 -12l1 -16l7 -12l9 -12l9 -10l10 -7l29 1l9 3l13 6l11 10l9 9l9 11l5 11l6 13l5 11l8 13l6 15l2 12l-4 20l-10 5l-15 10l-8 10l-4 13l-8 13l-5 12l-3 15l-1 12l3 27l2 16l3 12l6 13l8 11l7 13l8 11l9 10l9 10l8 9l15 5l11 7l13 6l11 3l17 3l13 3h13l27 3l15 -1l14 1h14
l26 -2h17l12 2l13 -1l16 1h11l15 -1h15l10 -13l-4 -14l-5 -13l-3 -14l-8 -13l-5 -12l-2 -14l-2 -13l-4 -13l-9 -28l-8 -14l-2 -13l-5 -12l-4 -14l-4 -14l-4 -13l-5 -11l-3 -16l-2 -12l-4 -14l-7 -13v-15l-3 -13l-3 -12l3 -29l3 -12l12 -10l28 -2l8 4l12 7l12 6l9 10l11 9
l12 9l9 10l9 13l9 9l7 11l8 11l8 13l7 11l9 13l6 10l7 13l10 12l8 10zM234 67h11l15 5l12 7l13 9l13 7l8 11l8 12l13 11l5 10l6 12l8 13l7 15l2 12l4 14l3 15l2 15l2 15l2 26l-3 14v14l-8 14l-3 12l-8 11l-7 10l-7 11l-15 8l-11 4l-10 4l-29 1l-14 -5l-15 -4l-12 -6l-13 -6
l-9 -11l-10 -7l-9 -13l-12 -11l-5 -12l-9 -11l-9 -12l-5 -15l-4 -14l-3 -14l-3 -13l-4 -16l2 -14v-26l1 -16l4 -13l4 -12l5 -13l5 -13l9 -11l10 -10l9 -7l13 -6l12 -3zM682 243l12 1l15 -2l13 1l14 -1h15l16 14l4 11l6 13l6 15l9 27l2 14l4 12l3 14l-6 13l-16 1h-11l-12 1
l-18 -1l-11 -1l-15 2l-27 -1l-10 -3l-13 -5l-16 -8l-8 -8l-12 -12l-4 -11l-3 -15l-1 -29l2 -12l6 -15l12 -7l15 -8h29z" />
    <glyph glyph-name="uni0440044F" unicode="&#x440;&#x44f;" horiz-adv-x="953" 
d="M1030 246l13 -8l5 -23l-9 -10l-6 -12l-9 -12l-7 -13l-9 -11l-8 -11l-7 -14l-7 -10l-8 -12l-18 -24l-10 -9l-9 -13l-9 -11l-7 -11l-12 -10l-9 -8l-11 -10l-12 -9l-11 -5l-16 -6l-10 -7l-15 -1h-28l-14 4l-13 6l-13 7l-9 11l-11 14l-5 11l-5 16l-2 14v26l4 14l1 15v12l2 15
l7 12l-10 15l-15 -1l-14 1l-14 -1l-19 -13l-6 -13l-4 -12l-7 -15l-4 -12l-6 -14l-10 -11l-6 -11l-9 -13l-7 -13l-7 -11l-11 -11l-9 -10l-12 -9l-12 -8l-10 -4l-13 -7l-13 -4h-13l-29 -1l-12 3l-14 6l-10 5l-12 10l-7 8l-10 12l-5 13l-9 12v12l-3 13l-13 4l-6 -13l-13 -9
l-6 -11l-11 -8l-12 -9l-7 -8l-16 -10l-11 -6l-24 -13l-12 -2l-15 -4l-12 -3l-14 -3l-26 1l-16 3l-16 1l-10 7l-17 4l-10 8l-12 8l-7 11l-13 13l-3 12l-10 11l-4 16l-3 -15l-7 -12l-2 -15l-6 -12l-5 -30l-4 -12l-2 -14l-5 -13l-5 -15l-1 -13l-8 -13l-4 -12l-4 -14l-4 -14
l-3 -13v-13l-5 -16l-3 -11l-6 -14l-4 -14l-5 -14l-2 -12l-5 -16l-5 -11l-14 -15l-17 1l-14 -1l-11 -1l-16 1l-10 14l3 15l6 13l4 13l2 14l6 14l1 13l7 12l1 15l4 12l7 15l5 13l2 13l6 14l2 15l6 12l3 14l3 12l3 15l4 14l4 12l4 14l6 13l2 15l2 12l6 14l3 15l5 14l5 11l5 15
l4 13v14l7 14l5 12v14l5 14l6 14l3 14l4 12l4 14l1 14l7 12l5 14l4 15l1 12l6 15l4 12l4 16l4 11l3 14l2 13l6 15l20 14h27l13 -1l14 -15l-4 -15l-2 -14l-6 -15v-14l9 9l7 11l11 11l10 8l12 9l8 9l13 8l12 6l10 8l15 2l14 5l13 3l25 -2l18 -1l11 -4l11 -6l11 -8l12 -6
l12 -10l8 -10l9 -13l6 -9l4 -14l7 -14l6 -11v-15l6 -14l-2 -14l2 -12l3 -31l-2 -15l-2 -12l-2 -17l-4 -27l3 -11l-3 -28l4 -12l-1 -16l4 -12l3 -15l7 -13l7 -13l8 -9l10 -5l28 -3l12 5l10 6l11 10l9 10l8 11l7 10l9 12l5 13l4 14l8 11l2 13l-5 21l-10 6l-12 9l-12 11l-5 10
l-5 15l-5 11l-4 14v14l3 27l3 16l5 12l2 13l5 12l7 12l8 11l10 11l9 9l13 8l13 7l10 7l12 5l16 3l9 4l17 1l14 1l25 1h28l17 1l10 -1l17 2h12l14 -1l12 -1l16 1h29l11 1l10 -14l-1 -15l-6 -13l-3 -13l-7 -12l-1 -13l-6 -13l-5 -14l-1 -14l-4 -13l-6 -12l-4 -15l-6 -12
l-2 -14l-6 -12l-2 -14l-5 -13l-5 -13l-1 -15l-7 -12l-5 -14l-3 -14l-1 -14l-4 -14l-4 -12l1 -28l6 -13l13 -12l29 -1l7 5l14 6l9 7l12 9l9 9l12 11l9 11l8 10l9 12l6 9l10 11l8 14l8 10l8 13l6 10l9 13l8 11l6 13zM241 66l14 2l9 6l14 6l14 10l7 9l9 12l9 11l11 10l7 14
l8 11l6 15l4 13l5 13l1 14l4 16l2 13l2 15l-1 28l-4 15v12l-3 14l-9 14l-7 11l-8 11l-10 9l-13 7l-14 2l-27 1l-12 -5l-13 -4l-12 -6l-14 -7l-10 -10l-9 -9l-8 -13l-8 -9l-9 -11l-9 -13l-4 -12l-8 -14l-7 -14l-4 -12l-4 -14l-1 -13l-4 -15l2 -13l-2 -28l1 -14l7 -15l3 -14
l8 -13l8 -11l23 -18l26 -8zM675 244l15 -1l13 1h45l19 10l4 13l4 13l5 15l2 14l5 11l6 16l1 13l7 12l-10 14l-12 2h-15l-12 -2l-30 2l-9 -2l-29 -1l-14 -1l-13 -7l-10 -5l-12 -9l-12 -13l-3 -10l-4 -14l-5 -28l3 -14l10 -13l11 -11l12 -6z" />
    <glyph glyph-name="uni0444044F" unicode="&#x444;&#x44f;" horiz-adv-x="1117" 
d="M1193 245l14 -8l7 -22l-12 -12l-3 -10l-11 -14l-9 -12l-4 -11l-8 -11l-11 -13l-8 -11l-8 -12l-9 -10l-5 -12l-9 -13l-12 -11l-9 -11l-9 -9l-10 -11l-11 -10l-13 -7l-9 -9l-12 -7l-25 -10l-16 -3l-26 1l-16 1l-13 9l-13 6l-9 13l-5 10l-6 15l-6 14l-2 13l-3 27l5 16l-2 12
l4 13l4 14v15l-8 13h-16l-13 -2l-10 1l-20 -13l-6 -13l-8 -13l-4 -13l-7 -13l-3 -14l-11 -11l-4 -12l-10 -13l-5 -12l-11 -11l-7 -10l-12 -9l-12 -11l-11 -7l-9 -7l-14 -4l-13 -5l-16 -1l-26 1l-14 2l-15 4l-10 7l-13 12l-7 9l-10 13l-6 12l-4 14l-2 13l-6 15l-11 2l-9 -11
l-7 -9l-12 -12l-10 -7l-10 -11l-14 -7l-8 -9l-16 -5l-8 -6l-14 -7l-14 -6l-13 -3l-13 -4l-15 -3l-13 -3l-14 -4l-15 -1l-17 1l-19 -1l-10 -13l-8 -13l-3 -15l-2 -13l-7 -13l-3 -15l-1 -13l-7 -12l-3 -13l-3 -15l-6 -13v-13l-6 -12l-4 -14l-4 -15l-4 -12l-3 -13l-6 -15
l-15 -13l-15 -1l-15 1l-9 -1h-17l-11 15l5 12l6 16l5 13l8 27l1 12l7 13l4 13l2 15l3 14l7 14l2 12l4 14l2 13l6 13l4 14l3 12l-11 15l-14 4l-9 5l-16 2l-11 6l-14 8l-10 7l-11 7l-10 9l-11 10l-7 11l-11 10l-8 12l-5 14l-6 12l-1 12l-6 15v13l-4 12l-1 15l2 27l1 14l1 15
v14l3 13l5 13l4 13l4 12l6 14l6 12l5 12l11 11l6 13l10 10l6 11l10 9l8 10l11 10l14 9l9 7l15 7l11 9l13 5l12 5l14 6l11 3l13 6l14 2l15 3l13 2l13 1h17l22 1l11 13l3 12l5 14l2 15l4 12l3 13l4 12l7 14l1 15l5 13l3 13l6 14v13l8 11l1 15l4 12l3 15l5 11l19 15l14 -1h10
l15 2l14 -2l10 -12l-6 -14l-4 -13l-2 -14l-7 -13l-1 -13l-7 -13l-2 -14l-4 -13l-5 -14v-14l-7 -13l-5 -14l-3 -12l-2 -12l-6 -14l-4 -13l-2 -14l7 -14l15 -4l12 -4l17 -3l12 -7l10 -5l12 -7l23 -17l12 -11l9 -9l7 -11l8 -13l4 -12l5 -13l6 -12l4 -15l3 -13v-13l1 -13l2 -31
l-2 -13l1 -16l-6 -26l2 -13v-24l1 -15l1 -14l3 -14l2 -13l6 -13l6 -12l9 -12l14 -4l25 -1l13 2l13 7l8 8l8 11l10 10l5 12l6 13l9 11l7 13l1 13l9 13l-11 20l-19 16l-10 11l-9 11l-2 13l-8 12l-2 14l2 15l3 27l1 14l2 14l7 11l3 14l9 11l6 10l9 10l12 11l9 7l13 9l11 5l16 7
l12 4l12 3l14 2l15 -1l42 3l12 -2l12 1l17 -1h14l15 2h25l13 -1l14 1h27l12 -16l-5 -11l-3 -13l-4 -15l-7 -14l-5 -11l-2 -13l-5 -16l-1 -13l-8 -13l-3 -13l-6 -14l-1 -12l-5 -14l-6 -13l-4 -13l-3 -14l-5 -12l-2 -14l-6 -12v-16l-7 -13l-4 -14l1 -11l-2 -15l-2 -28l8 -13
l10 -9l28 -3l8 6l11 4l14 8l7 8l13 9l9 12l9 11l8 9l8 12l9 11l10 11l6 13l11 10l7 11l9 12l5 14l8 9l8 14zM135 175l-2 -14l3 -14l6 -14l5 -15l11 -11l7 -12l8 -9l14 -10l15 -7l9 -3l14 -6l19 14l4 12l4 13l7 15l1 15l8 12v15l6 13l3 12l6 15l3 13l4 14l3 15l6 12l4 13
l5 14l3 14l5 15l1 12l3 14l7 13l2 13l3 16l1 13h-22l-10 -2l-18 -4l-10 -2l-17 -4l-11 -5l-14 -6l-12 -8l-9 -9l-14 -8l-7 -10l-9 -10l-11 -11l-8 -12l-5 -11l-4 -15l-10 -11l-3 -13l-4 -15l-1 -13v-14zM336 58l16 3l12 2l14 3l15 4l12 4l11 8l15 6l10 7l15 9l10 10l6 11
l12 9l10 12l6 12l5 11l9 14l5 13l2 11l7 14l-1 14l6 15l-4 27l2 15l-6 14l-6 13l-4 12l-10 12l-11 11l-8 9l-12 7l-14 8l-27 7l-18 -11l-5 -14l-2 -15l-6 -13l-5 -13l-4 -13l-1 -14l-8 -16l-2 -11l-3 -14l-7 -15l-1 -14l-3 -12l-6 -16l-6 -12l-4 -15l-4 -13l-4 -13l-2 -13
l-2 -14l-4 -15l-6 -12l-5 -14zM843 243h10l16 -1h16l12 1l15 1l16 11l8 12l2 15l4 12l7 13l3 15l2 12l5 14l6 14l-13 14h-24l-11 1l-15 -2l-13 2l-16 -1l-26 -2l-15 -1l-11 -6l-11 -7l-14 -10l-6 -10l-5 -13l-8 -14l-2 -26l7 -15l6 -14l9 -8l16 -6z" />
    <glyph glyph-name="uni0445044F" unicode="&#x445;&#x44f;" horiz-adv-x="1109" 
d="M1186 245l11 -9l8 -20l-8 -11l-8 -14l-8 -12l-5 -11l-10 -13l-6 -11l-8 -10l-11 -13l-6 -11l-8 -13l-12 -11l-9 -11l-5 -12l-11 -8l-11 -12l-19 -20l-13 -8l-11 -8l-12 -8l-14 -6l-10 -4l-16 -5l-26 2l-18 2l-12 7l-11 8l-10 13l-6 11l-6 13l-5 13l-2 15l-4 28l4 13
l-1 14l6 15l1 14l3 11l-8 13l-17 1h-10l-14 1l-21 -14l-3 -14l-7 -12l-4 -12l-7 -14l-7 -12l-6 -13l-8 -13l-9 -11l-7 -11l-9 -12l-8 -10l-9 -12l-13 -8l-10 -8l-10 -6l-15 -4l-12 -5l-17 -3l-27 2l-12 1l-15 4l-11 8l-10 9l-7 8l-8 12l-5 14l-8 10v14l-3 15l-3 12l-12 2
l-9 -10l-8 -12l-8 -10l-9 -10l-11 -9l-6 -9l-10 -11l-13 -7l-11 -7l-12 -7l-15 -6l-12 -5l-9 -6h-15h-27l-13 3l-15 5l-11 8l-12 8l-7 10l-9 10l-7 13l-9 11l-3 13l-6 11l-6 15l-4 11l-6 13l-6 15l-2 13l-13 2l-12 -9l-8 -10l-9 -11l-7 -12l-9 -9l-8 -13l-13 -10l-5 -9
l-10 -12l-9 -11l-12 -11l-6 -10l-10 -11l-23 -11l-18 1l-11 -1l-16 1l-13 2l-7 9l8 12l12 10l9 10l8 10l7 12l20 20l8 11l9 12l13 12l8 8l11 13l9 11l6 9l11 10l11 12l6 11l9 9l11 11l7 13l8 23l-5 13l-1 13l-7 14l-3 12l-5 14l-3 11l-7 12l-5 12l-10 13l-15 -5l-7 -11
l-7 -12l-5 -12l-7 -11l-9 -13l-7 -13l-3 -12l-9 -10l-6 -14l-4 -10l-21 -5l-11 9l-7 19l5 13l5 12l6 11l6 13l10 14l6 11l5 12l8 14l5 12l5 11l6 13l7 13l10 12l6 12l3 12l24 9l11 -3l13 -7l14 -8l9 -9l8 -11l9 -9l10 -14l7 -10l2 -15l10 -11l2 -13l8 -15v-11l8 -14l12 -3
l11 11l7 11l9 9l10 11l6 11l12 12l10 10l6 11l12 11l9 12l7 11l8 11l24 10h61l3 -12l-8 -9l-8 -11l-11 -12l-12 -11l-6 -11l-12 -11l-9 -11l-7 -10l-9 -10l-10 -13l-10 -9l-7 -12l-21 -20l-8 -13l-10 -9l-9 -11l-10 -13l-6 -10l-8 -26l3 -12l4 -15l3 -15l6 -14l4 -12l6 -14
l5 -13l10 -14l10 -9l11 -11l8 -4l28 -2l14 4l11 6l13 5l12 9l11 9l11 8l9 11l12 12l7 8l10 13l6 10l11 11l8 13l7 13h19l13 -7l12 -24l2 -14l-1 -14l1 -14l6 -12l3 -14l6 -13l7 -12l9 -10l8 -5h30l13 2l23 16l17 21l5 9l8 14l4 11l7 14l7 11l4 15l-8 17l-9 9l-11 8l-10 10
l-19 27l-3 12l-3 14v16v26l3 15l5 14l4 11l5 13l9 12l10 10l8 11l7 10l14 9l10 8l12 4l14 5l11 6l15 1l16 2l12 3h28l12 -1h17l12 2l29 -2h39l14 2l14 -2h31l9 -13l-5 -13l-6 -13l-3 -13l-3 -14l-8 -13l-4 -13l-2 -14l-4 -13l-4 -12l-7 -14l-3 -14l-3 -12l-2 -15l-5 -12
l-5 -13l-3 -13l-6 -13l-6 -15v-12l-6 -14l-3 -15l-2 -12l-6 -13l-2 -16v-26l9 -14l10 -9l26 -2l12 3l10 8l12 6l9 9l14 8l10 11l7 11l8 11l8 10l10 12l9 10l7 12l7 11l10 12l6 14l6 9l11 14l6 11zM832 244h29l16 -1l14 1l11 -1l20 13l3 13l6 11l3 14l4 13l3 15l8 12l4 14v13
l-8 16h-38l-15 -2h-26l-27 -1l-10 -1l-17 -5l-12 -7l-8 -9l-8 -13l-9 -10l-4 -16l-3 -28l3 -13l11 -12l8 -10l15 -7z" />
    <glyph glyph-name="uni044D044F" unicode="&#x44d;&#x44f;" horiz-adv-x="978" 
d="M1054 244l12 -6l9 -23l-11 -10l-5 -14l-11 -11l-4 -12l-9 -12l-6 -13l-8 -9l-11 -13l-5 -13l-11 -11l-8 -11l-9 -12l-8 -10l-13 -11l-9 -9l-9 -12l-10 -10l-24 -17l-10 -7l-12 -4l-17 -5l-13 -3l-27 1l-16 2l-13 7l-10 8l-9 12l-9 12l-5 11l-5 15l-1 14l-3 27l1 15l5 13
l1 14l4 13l-1 15l-6 11l-18 1l-10 1l-13 -1l-19 -14l-7 -14l-5 -10l-9 -13l-3 -14l-6 -14l-7 -11l-9 -13l-8 -11l-5 -13l-10 -12l-10 -10l-11 -10l-9 -9l-11 -8l-15 -5l-8 -6l-18 -3l-11 -1l-30 -2l-13 4l-14 6l-12 6l-17 18l-10 14l-4 11l-6 13l-1 13l-13 3l-10 -9l-11 -12
l-11 -8l-11 -9l-12 -10l-12 -8l-9 -6l-12 -4l-15 -7l-11 -5l-17 -2l-11 -4l-18 -1l-14 -2l-26 1h-14l-13 4l-26 6l-15 6l-9 4l-13 8l-11 5l-11 10l-2 20l12 9l8 13l9 11l26 4l9 -8l29 -11l11 -4l14 -2l33 2l10 1l15 5l12 4l16 5l10 9l13 6l11 10l5 12l12 11l8 13l5 10l5 14
l6 14l-13 14h-24l-17 -1l-13 2l-15 -1l-14 1l-11 -1l-16 -1l-11 2l-15 -2l-16 1l-10 -1l-13 14l13 26l2 13l16 14l18 -2l10 1l16 1l15 -2l12 1h11l16 1l13 -2l13 1l15 -1l15 2l11 14l-1 13l-5 14l-5 12l-5 14l-8 12l-11 11l-7 9l-11 11l-14 5l-12 6l-13 2l-31 -1l-15 -1
l-10 -4l-17 -4l-13 -8l-8 -6l-15 -8l-9 -9l-12 -10l-10 -10l-5 -11l-10 -14l-11 -10l-8 -11l-6 -12l-10 -14l-9 -13h-17l-11 8l-7 23l6 12l10 12l6 15l7 11l5 13l10 11l9 10l8 13l7 11l7 9l9 11l11 11l12 9l11 8l12 10l23 13l13 3l15 6l14 3h12l12 3l31 -2l13 -2l14 -3
l14 -3l15 -4l10 -8l11 -8l16 -7l10 -12l6 -10l9 -10l15 -24l8 -13l6 -14l4 -12l2 -16l3 -12l5 -16v-13l1 -27l-4 -14l-1 -13v-12l-4 -23l4 -24l-3 -15l5 -12l-1 -16l7 -13l6 -14l4 -10l8 -12l13 -4l27 -3l13 6l10 4l12 11l10 10l6 11l7 9l9 15l3 12l7 11l4 15l6 12l-7 20
l-11 5l-11 10l-7 10l-10 13l-5 13l-2 12l-5 14l1 13v28l4 14l3 13l3 14l9 11l8 13l4 10l12 10l9 11l11 8l10 8l26 11l11 2l15 5h14l14 1l29 1h15l12 1l16 -1l11 1h30l10 1h14l16 -2l14 2l15 -2l14 2l6 -15v-13l-8 -12l-4 -15l-1 -12l-4 -13l-5 -15l-7 -14v-13l-7 -13l-4 -13
l-5 -12l-1 -15l-4 -13l-9 -13v-12l-7 -14l-2 -13l-3 -15l-7 -12l-2 -13l-2 -14l-8 -14l1 -12l-4 -14v-29l7 -14l10 -10l29 -1l12 4l10 6l12 9l10 7l8 11l12 10l9 10l8 10l10 10l9 12l6 12l10 12l6 11l7 11l10 13l7 11l7 12l9 11zM705 243h26l16 -1l25 2l20 11l4 14l1 13
l9 25l5 14l6 15l5 11l3 15l-8 15h-15l-15 -2l-11 2l-15 -2l-9 2h-14l-27 -3l-15 -1l-16 -7l-8 -6l-12 -9l-7 -11l-7 -13l-7 -12l1 -28v-15l9 -14l9 -9l15 -4z" />
    <glyph glyph-name="uni044E044F" unicode="&#x44e;&#x44f;" horiz-adv-x="1104" 
d="M1183 244l12 -8l2 -21l-5 -10l-6 -14l-10 -11l-6 -13l-9 -10l-6 -14l-12 -10l-5 -11l-11 -14l-5 -11l-11 -9l-6 -14l-9 -10l-10 -9l-13 -12l-7 -11l-13 -10l-9 -8l-13 -7l-11 -9l-13 -5l-13 -5l-16 -4l-27 2l-15 4l-10 6l-14 9l-8 11l-9 10l-7 14l-6 14v15v27l1 13l3 15
l2 14l1 14l1 13l-10 12l-11 1l-15 -2h-15l-19 -14l-4 -12l-6 -11l-5 -14l-5 -12l-8 -15l-4 -10l-18 -27l-7 -11l-6 -11l-11 -9l-10 -12l-10 -8l-13 -8l-10 -6l-13 -4l-14 -5l-14 -2h-27l-13 2l-13 4l-14 8l-7 8l-9 11l-10 10l-4 13l-6 11l-8 12v15h-9l-9 -11l-13 -10l-5 -10
l-13 -10l-7 -8l-15 -9l-9 -7l-15 -6l-11 -6l-12 -6l-14 -5l-11 -2l-12 -2l-18 -1l-27 -1l-11 1l-16 5l-13 4l-16 5l-8 7l-15 7l-12 8l-7 13l-12 10l-5 12l-8 13l-5 13l-5 11l-3 15l-3 13l-4 16v13v32l-14 16l-13 2l-18 -1l-15 -1l-14 1l-18 -15l-4 -11l-5 -15l-1 -12l-6 -13
l-4 -15l-2 -12l-5 -15l-1 -13l-5 -12l-5 -14l-3 -14l-5 -12l-2 -14l-21 -15h-12l-15 3h-11l-15 -2l-11 13l6 15l1 14l8 12l1 13l3 14l8 14l3 12l3 16l8 27l4 11l2 14l4 14l6 14l4 12l5 16l3 12l2 13l4 15l4 13l6 14l5 13l4 13l3 15l2 12l3 14l4 13l7 14l5 14v14l4 11l18 16
l13 -2l15 1l16 -1l12 2l12 -15l-8 -14l-2 -15l-2 -11l-5 -16l-3 -13l-5 -14l-10 -28l-2 -11l-7 -15l-2 -14l7 -12l17 -2h12l12 2h18l15 11l7 15l4 11l7 13l5 13l9 10l7 11l5 12l21 22l8 9l11 10l12 10l7 8l13 6l13 8l10 6l13 3l15 7l11 1l16 2l14 3l27 1l13 -4l13 -1l17 -4
l11 -7l14 -7l12 -8l6 -9l13 -11l8 -11l5 -12l7 -11l9 -13l2 -15l5 -12l1 -15l3 -13l3 -14l-2 -30l-3 -14l1 -16l-2 -13l-1 -33v-29l-1 -15l-1 -13l7 -16v-12l9 -14l3 -12l12 -10l12 -7h24l16 4l10 7l10 8l9 9l6 12l11 10l5 14l8 13l5 11l4 15l3 12l-5 18l-12 7l-8 10l-10 12
l-9 11l-7 11l-4 15l-3 13v15l4 26l4 15l2 11l5 14l6 13l8 11l5 11l12 10l6 9l12 8l24 15l15 4l13 6l14 3l13 2l38 1l14 1h15l17 -1h14l12 -1h13l14 1l12 1l16 -1l13 -1h16l11 2l12 -15l-4 -12l-5 -15l-4 -12l-2 -13l-7 -13l-3 -15l-3 -14l-13 -26v-13l-8 -12l-1 -15l-3 -13
l-6 -13l-4 -13l-7 -13l-3 -12l-3 -14l-4 -14l-3 -14l-6 -14l-3 -12v-15l-2 -13l-3 -29l7 -13l12 -9l28 -2l23 12l9 5l13 11l9 8l9 9l10 11l7 11l10 11l18 23l4 11l12 12l6 11l6 14l7 11l10 10l8 14zM388 66l12 2l12 5l11 7l13 8l11 8l11 9l10 9l5 11l6 12l7 14l7 12l4 11
l5 13l7 15v13l6 15l2 13l1 13l-2 28l1 15l-5 11l-5 15l-6 11l-8 14l-7 9l-12 9l-9 5l-12 3l-27 2l-15 -4l-12 -3l-13 -8l-10 -5l-11 -9l-10 -9l-13 -13l-7 -9l-7 -14l-5 -11l-9 -12l-3 -14l-5 -11l-4 -16l-4 -14l-4 -13l-2 -14l2 -13l1 -29l2 -12l2 -14l2 -13l5 -13l10 -12
l6 -10l11 -9l15 -4l12 -3zM830 242l26 2l16 -2l12 1h15l20 11v14l4 13l7 15l4 13l2 13l7 14l1 13l5 13l-8 15h-15l-10 -2l-13 1h-14l-15 1h-10l-27 -3l-15 -3l-14 -3l-13 -8l-7 -10l-11 -10l-5 -12l-7 -13v-28l2 -16l6 -12l11 -10l14 -4z" />
    <glyph glyph-name=".notdef" horiz-adv-x="499" 
d="M407 709l2 -13l-2 -14v-16l1 -14l-1 -13l1 -15v-12l2 -16v-14l-2 -14l1 -12l-1 -16l2 -13l-1 -15l2 -13v-14l-2 -14l-1 -15l3 -12v-43l-1 -16l-2 -14l1 -12l1 -16l-3 -14l1 -12l2 -14l1 -14l-4 -15v-13l1 -15l1 -13l-2 -14v-14l2 -16l1 -12v-16l1 -13l-1 -13l-3 -14
l2 -16l-1 -14l3 -12l-2 -31l2 -14l-4 -12v-15l2 -15l2 -12l-4 -15v-29l1 -13l-1 -15l4 -26l-4 -15l2 -14l-2 -15l2 -12v-14l-1 -15v-15l1 -12l-2 -15v-15l-12 -14l-13 -1l-30 2l-10 -2l-17 2l-15 -2h-23l-30 2h-14l-15 -1h-13l-14 1h-25l-14 -1h-13l-13 1l-18 -2h-10l-14 15
v42l-2 14l1 14l-2 15l4 28l-4 14l1 14v14l2 15v13l-3 15l4 14l-2 13l2 13l-3 14l2 16v14l-3 14l1 14l2 13l-3 14v16l4 13l-2 14v14l-1 15l3 13v14l-3 13l-1 16v26l1 15l3 14l-1 13l-2 14l3 16l-4 28v41l1 13l2 16l-1 13v29l-2 14v13l4 15l-3 15l1 14l-2 12l1 15l-1 13l3 15
v13l-1 16l-2 14l2 14v12l-1 15v14l3 14l-1 15l1 12l11 17h13l15 -2l11 2l32 -2l11 2l16 -2l12 2h26l15 -2l14 2l14 -1h16l12 -1l14 1l11 1l29 -2l16 2h10zM316 658l-13 -1h-41l-13 -1l-14 2l-13 -2l-14 1l-12 1l-16 -2l-12 -17l12 -14l13 -2l13 1l11 -1l13 -12l1 -13
l-14 -12h-40l-9 -14l11 -16h16l13 -2h12l16 2l12 -2h41l14 2h14l16 15l-13 17l-13 -2l-14 2h-12l-17 12l4 11l9 14h29l11 -2l14 18zM249 528l-10 2l-14 -1h-19l-11 1l-14 -2l-13 -13v-15l-3 -16l2 -15l-3 -15l3 -14l13 -14l12 -1h16l14 -1l14 2l13 -2h14l15 1h11l13 1l18 -2
l13 19l-14 17l-15 -2l-11 2h-16l-13 13l1 14l1 13l1 14zM234 482l-4 -10l-16 -12l-14 11l-2 11l19 13zM318 397l-16 2l-10 -2l-16 2l-12 -2h-14l-13 1l-18 1l-12 -1l-15 -1l-11 2l-14 -17l10 -18l14 2l26 -2l17 -12l-1 -13l-14 -10l-15 -2l-12 1l-15 1l-12 -17l14 -18h30
l16 2l11 -2l15 2l13 13l4 15l-4 13l2 14l15 13l13 1h12l12 -1l14 18zM317 337l-20 -14l3 -11l-3 -13l2 -15l-13 -11h-12l-28 -2h-15l-28 2l-13 -2h-13l-12 -17l12 -15l18 -2l14 2h11l30 -2l13 2h15l14 -2l14 2l12 -2l12 16v42l4 14v15zM318 218l-16 -1l-12 1h-17l-12 -1
l-13 1l-14 -15l-3 -14l1 -15l17 -14l16 11l15 13l20 -15l-3 -18l-11 -14h-16l-13 1h-43l-16 13l-1 12v15l1 11v14l-16 15l-15 -15l-3 -14l1 -14v-15l1 -15v-14l-1 -12l16 -14l13 -2l15 2l10 -1l18 1l11 -1h14l13 1l16 -2h29l12 15v13l-2 16l4 14l-2 14v13l-1 14zM316 44
l-12 -1l-16 1l-10 -1h-30l-12 1h-31l-13 1l-11 -2l-15 -13l1 -16l-2 -12v-16l2 -13l-2 -14l3 -13l10 -15h28l16 -2h15l12 1l12 -1l16 2l15 -1l14 1l10 -1l16 14l1 15l-3 15l4 14l-4 14l4 12l-2 14zM299 -5v-15l-14 -18l-17 2l-12 -1l-17 -1l-14 2l-13 -1l-14 15l2 17l13 17
l16 -1l11 1h14l28 -2zM319 -92l-16 -1l-13 -1h-12l-15 2l-30 -2l-12 2l-15 -2l-12 2h-15l-14 -16l13 -18l14 2l17 -2l12 2l4 -8l-24 -15l-14 -8l-12 -9l-7 -25l11 -16l13 -1h13l17 1l15 -1h14l9 2l18 -2l10 2l15 -1l16 1l13 17l-13 16l-16 -2h-17l-26 2l-14 -2l-4 9l13 8
l9 7l14 8l8 8l29 9l19 16z" />
    <glyph glyph-name=".null" horiz-adv-x="0" 
 />
    <glyph glyph-name="nonmarkingreturn" horiz-adv-x="333" 
 />
    <glyph glyph-name="space" unicode=" " horiz-adv-x="256" 
 />
    <glyph glyph-name="exclam" unicode="!" horiz-adv-x="357" 
d="M155 207l4 13l3 14l2 15l3 13l3 13l2 12l6 15l5 12l2 14l5 28l4 14l3 13l2 12l5 14l8 26l2 14l5 14l5 13l4 12l3 13l8 28l2 11l6 13l3 15l5 13l2 12l3 13l3 14l4 14l6 14l2 11l4 13l5 14l17 15l15 -2l13 1l10 -1l16 1l11 -14l-5 -14l-3 -13l-7 -12v-12l-5 -15l-6 -13
l-3 -14l-2 -13l-3 -11l-4 -16l-7 -11v-13l-5 -14l-7 -13l-3 -13v-13l-7 -14l-4 -14l-5 -11l-6 -27l-4 -13l-6 -14l-2 -14l-7 -14l-4 -14l-5 -13l-3 -13l-3 -12l-3 -16l-7 -12l-4 -14l-6 -12v-14l-8 -13l-5 -15l-17 -12h-10l-13 1l-14 -1zM90 13l1 15l5 13l4 12l4 15l3 13
l20 14l13 -1l14 2h32l12 -2l9 -14l-2 -12l-6 -15l-5 -12l-2 -14l-5 -13l-19 -13l-13 -2l-16 -1h-41z" />
    <glyph glyph-name="quotedbl" unicode="&#x22;" horiz-adv-x="370" 
d="M152 503l5 12l2 14l6 14l1 12l4 14l8 13v15l7 12l2 15l7 12l3 14l6 12l5 13l2 14l5 13l17 14h28l17 1l14 -1l9 -13l-8 -13l-2 -10l-5 -13l-8 -13l-6 -14l-2 -13l-7 -11l-4 -14l-6 -11l-5 -14l-4 -12l-4 -12l-6 -13l-7 -12l-3 -14l-4 -14l-20 -11l-11 1l-16 -1h-12z
M292 502l4 14l6 12l2 13l7 15l4 12l2 13l4 15l5 13l6 15l5 13l1 13l7 12l3 14l7 14l1 14l19 12l14 2h16l12 -1l17 -1l9 -12l-7 -13l-7 -11l-3 -15l-4 -11l-5 -14l-4 -12l-7 -13l-5 -11l-3 -15l-6 -12l-6 -12l-4 -13l-8 -12l-4 -12l-2 -15l-6 -12l-21 -13h-11l-16 2h-11z" />
    <glyph glyph-name="numbersign" unicode="#" horiz-adv-x="628" 
d="M583 362l-12 2l-23 -2l-16 1l-14 -14l-5 -13l-7 -14l-4 -13l-1 -14l-4 -13l-7 -14v-15l-5 -13l-4 -13l6 -14h13l16 2h26l8 -16l-7 -13l-3 -13l-2 -13l-20 -14h-10l-13 2l-13 -1h-12l-18 -15l-4 -12l-3 -15l-6 -13l-3 -12l-2 -13l-8 -13l-1 -13l-5 -16l-2 -11l-19 -15
l-17 -1l-11 1l-16 -1l-15 1l-6 15l3 11l3 15l2 12l8 15l1 13l6 14l2 13l7 14l3 13l-13 14l-24 -2l-15 1h-27l-11 1l-16 -16l-6 -12l-2 -15l-7 -13l-1 -12l-4 -15l-7 -11l-2 -15l-2 -14l-6 -11l-19 -13h-11l-18 -2l-10 -1l-15 3l-12 11l7 14l3 15l4 12l2 14l5 13l4 13l6 12
l3 14l4 15l-11 12h-14l-19 1l-12 -1l-13 15l3 12l7 15l3 12l20 15l16 -2l13 1l13 -1l21 15l3 12l5 13l3 15l5 14l4 12l2 15l7 12l2 13l4 14l-11 15l-9 1h-40l-10 11l5 13v15l4 11l20 15h27l13 -1l14 1l13 12l5 14l6 11l1 13l4 14l4 14l4 12l7 14v12l6 12l20 13h11l13 2
l32 -2l7 -11l-4 -13l-4 -14l-3 -12l-2 -13l-7 -14l-3 -14l-1 -11l-5 -14l-3 -13l7 -11l16 -1l11 -1l13 2l14 -2l14 1h13l17 12l2 14l3 13l8 13v13l6 11l1 14l6 14l5 11l5 13l15 14l16 -1h12l17 1l11 -1l9 -13l-2 -13l-6 -12l-1 -13l-7 -14l-2 -13l-1 -13l-5 -12l-4 -14
l-3 -12l10 -12l13 1h36l9 -14l-3 -15l-2 -13l-6 -11zM397 227l4 14l4 14l2 14l3 11l7 15l5 12l1 15l3 12l6 14l-8 14l-14 1h-14l-14 -1h-15l-13 2h-11l-15 -16l-4 -14l-4 -11l-4 -16l-8 -12l-2 -13l-5 -13l-3 -16l-3 -11l-6 -14l9 -15l15 1l11 1l17 -2h24l14 2z" />
    <glyph glyph-name="dollar" unicode="$" horiz-adv-x="494" 
d="M483 496l-11 1l-13 -1h-16l-11 2l-12 13l-4 15l-3 12l-10 13l-8 10l-9 9l-13 9l-15 2l-10 4l-31 -1l-15 -2l-14 -3l-13 -7l-9 -5l-10 -10l-12 -13l-3 -12l-4 -14l-1 -27l2 -14l2 -12l12 -13l7 -11l9 -8l9 -8l11 -9l14 -9l23 -16l11 -7l14 -6l12 -10l11 -8l9 -7l12 -9
l7 -12l9 -8l10 -11l8 -14l8 -10l1 -14l8 -13l-1 -16l4 -13l-2 -28l-2 -16l-4 -12l-2 -15l-5 -11l-8 -14l-5 -12l-8 -11l-9 -11l-12 -10l-6 -8l-13 -9l-14 -9l-9 -6l-16 -6l-12 -5l-11 -4l-15 -4l-11 -3l-15 -1l-17 -1l-17 -14l-4 -14l-2 -12l-4 -12l-2 -14l-7 -13l-4 -12
l-14 -13l-17 1l-13 -2h-18l-8 14l4 16l6 12v15l8 12v15l6 15l-9 18l-14 4l-10 6l-15 6l-8 10l-11 8l-8 11l-11 11l-5 9l-8 12l-3 13l-7 14l-5 12l-2 15v13l-2 14l-1 12l11 16h18l10 -1l18 -1l12 1l14 -14l4 -13l3 -14l6 -12l2 -11l10 -13l7 -10l15 -7l12 -7l9 -5l14 -6
l16 -2l24 2l16 1l15 2l13 4l12 7l15 9l11 7l12 24l10 13l-1 12l4 30l-3 13l-7 14l-7 11l-8 11l-11 12l-6 8l-11 9l-15 9l-10 6l-14 9l-11 8l-22 14l-11 8l-14 10l-7 8l-10 11l-9 10l-9 11l-11 13l-2 12l-5 13l-2 14l-5 14l4 28v14l3 15l2 14l6 11l8 15l9 10l6 11l9 10l10 12
l11 7l15 9l13 5l9 6l14 6l16 3l11 5l16 1l16 14l3 14l7 14l2 15l4 15l5 14l15 14l15 -2l16 1l13 -1l9 -12l-3 -13l-4 -14l-6 -13v-12l-6 -13l-4 -14l12 -15l14 -7l8 -7l15 -7l22 -18l5 -12l11 -11l6 -11l6 -15l1 -13l3 -14l-1 -13l4 -14z" />
    <glyph glyph-name="percent" unicode="%" horiz-adv-x="612" 
d="M188 453l-9 1l-15 4l-16 5l-12 8l-9 7l-12 9l-5 11l-11 14l-4 11l-2 16l-2 12l-2 27l1 15l3 12l9 13l6 14l5 11l7 11l8 11l9 11l13 8l8 8l13 7l13 5l14 6l14 3l14 2l27 -2l10 -1l16 -5l11 -3l15 -8l11 -7l7 -9l10 -13l8 -12l3 -11l4 -15l2 -12l1 -28l-1 -13l-3 -15
l-3 -12l-8 -11l-5 -12l-10 -14l-7 -10l-9 -10l-14 -8l-10 -9l-12 -7l-9 -5l-16 -4l-11 -3l-16 -4zM-14 11l9 10l8 11l13 10l5 11l13 10l5 10l11 10l8 12l12 10l8 11l10 10l10 11l7 12l13 10l7 10l10 12l8 9l11 10l7 13l8 9l13 11l10 9l6 11l9 11l9 11l9 10l12 11l20 21
l14 22l11 12l9 9l10 12l8 9l10 11l8 11l10 9l11 13l9 9l10 12l10 9l10 12l8 9l10 11l5 11l10 11l12 10l8 11l7 9l13 11l7 13l12 9l8 12l8 10l9 9l8 11l12 10l8 12l8 10l11 12l8 9l12 11l9 11l23 10h17l13 2l13 -1l14 1h14l5 -13l-6 -9l-9 -11l-10 -10l-10 -12l-7 -11
l-19 -21l-13 -9l-5 -12l-11 -11l-10 -11l-11 -9l-5 -12l-12 -11l-8 -9l-9 -12l-11 -10l-9 -11l-8 -10l-8 -11l-12 -11l-7 -10l-9 -9l-12 -12l-8 -10l-9 -12l-12 -10l-7 -9l-12 -12l-9 -11l-9 -10l-9 -11l-8 -11l-7 -10l-10 -9l-12 -13l-9 -11l-8 -9l-10 -12l-8 -9l-12 -10
l-5 -12l-22 -22l-9 -8l-7 -11l-11 -13l-7 -8l-13 -11l-8 -10l-19 -24l-7 -8l-12 -13l-9 -8l-6 -11l-10 -13l-20 -20l-11 -9l-8 -12l-11 -11l-14 -21l-27 -11l-12 -1l-14 3l-29 -3h-17zM223 520l16 2l23 14l8 10l6 10l5 13l3 11l1 29l-6 15l-7 10l-13 11l-16 5l-27 -1l-14 -4
l-9 -6l-10 -9l-10 -7l-10 -11l-3 -13l-6 -13v-27l9 -14l7 -14l14 -7l11 -4h28zM411 -14l-17 2l-14 3l-13 5l-11 7l-12 9l-8 7l-7 12l-8 11l-8 14l-2 14l-3 13l-2 28l3 14l3 14l6 13l8 11l6 12l6 12l10 9l9 10l8 10l14 6l12 9l13 4l10 5l16 5h14l25 2l14 -2l13 -4l14 -6
l11 -5l13 -10l12 -8l5 -11l10 -14l4 -11l2 -15l5 -12l-1 -27v-15l-8 -14l-4 -12l-5 -11l-4 -13l-10 -13l-9 -10l-7 -9l-10 -10l-11 -6l-14 -8l-12 -6l-28 -8l-10 -1h-28zM446 52l12 2l12 6l7 7l12 11l7 11l4 12l6 13l1 26l-9 16l-10 11l-12 8l-14 4l-26 1l-11 -3l-14 -6
l-13 -8l-5 -9l-12 -10l-3 -14l-4 -13l-1 -28l8 -13l7 -12l13 -8l13 -4h32z" />
    <glyph glyph-name="ampersand" unicode="&#x26;" horiz-adv-x="687" 
d="M631 1l-13 -2l-17 -1h-25l-14 1l-17 2l-24 10l-6 11l-13 11l-10 11l-23 3l-10 -8l-13 -7l-11 -8l-15 -7l-12 -7l-11 -3l-16 -5l-11 -5l-17 -3l-24 -7l-14 -2l-15 -1h-31l-12 1l-16 3l-13 4l-11 3l-16 4l-13 5l-9 8l-13 6l-9 8l-15 8l-7 10l-7 12l-12 12l-7 12l-2 11
l-6 12l-6 13l-1 15l-4 14l-2 13l2 28v16l4 14l5 14l3 11l8 13l6 14l8 12l6 10l9 12l7 11l10 10l14 11l9 9l13 10l13 7l7 8l9 21l-5 15l-10 11l-1 15l-8 13l-3 13l-5 14v14l-1 14l-1 28l2 15l1 14l4 15v12l3 12l8 15l4 11l8 13l6 12l11 9l9 11l7 11l14 6l9 9l13 6l14 7l10 3
l13 4l15 2l12 1l28 1l14 -1l13 -4l14 -4l13 -2l15 -8l12 -4l9 -10l13 -6l9 -12l8 -11l4 -10l7 -13l6 -12l6 -13l-1 -13l5 -13l-3 -27l-2 -15l-3 -13l-2 -13l-2 -13l-6 -13l-7 -11l-10 -11l-6 -10l-12 -11l-8 -10l-10 -10l-11 -10l-13 -9l-9 -6l-13 -8l-9 -9l-12 -7l-15 -9
l-10 -6l-17 -9l1 -13l9 -12l10 -13l9 -9l7 -12l7 -12l13 -12l9 -11l6 -10l12 -11l9 -9l7 -12l21 -20l10 -13l17 2l10 11l6 14l7 13l7 12l5 13l9 15l15 9l17 -3l12 -6l12 -3l14 -4l8 -17l-3 -12l-5 -13l-7 -14l-4 -10l-9 -14l-4 -9l-11 -12l-5 -11l-7 -12l-10 -11v-19l11 -9
l10 -12l9 -8l11 -11l9 -9l9 -10l9 -10l9 -12l8 -8zM272 508l2 -13v-13l6 -12l5 -14l4 -14l7 -11l6 -10l16 6l13 7l14 7l13 8l10 8l12 8l13 9l9 11l20 22l8 11l5 13l3 14l1 30l-7 14l-7 11l-9 12l-10 8l-11 7l-14 4l-27 1l-17 -5l-11 -3l-10 -8l-13 -7l-10 -11l-4 -11l-8 -12
l-4 -14l-2 -12l-2 -15zM307 75l14 1l39 9l13 5l13 5l13 8l12 8l2 17l-10 11l-6 9l-11 12l-11 10l-9 12l-6 9l-12 11l-7 13l-11 10l-8 10l-9 14l-9 10l-10 10l-8 13l-6 11l-23 5l-11 -10l-8 -9l-14 -7l-9 -11l-6 -11l-10 -12l-6 -12l-8 -13l-4 -12l2 -13l-3 -28l6 -14l3 -14
l7 -12l8 -12l13 -9l8 -8l12 -7l16 -5l12 -2l15 -1z" />
    <glyph glyph-name="quotesingle" unicode="'" horiz-adv-x="227" 
d="M153 503v11l7 16l5 13l1 14l7 13l5 11l1 14l6 13l5 15l2 12l7 15l1 13l8 14v13l7 13l17 15l13 -1l15 -1l16 1h14l10 -12l-7 -14l-4 -12l-6 -14l-7 -12l-5 -11l-4 -15l-3 -11l-4 -14l-7 -13l-5 -11l-4 -13l-6 -13l-3 -12l-5 -14l-8 -12l-6 -14l-18 -10l-10 -1l-13 1
l-14 -2z" />
    <glyph glyph-name="parenleft" unicode="(" horiz-adv-x="380" 
d="M231 -26l-13 9l-7 7l-10 11l-11 12l-6 10l-12 10l-5 13l-7 10l-7 15l-5 12l-6 13l-9 12l-1 12l-8 12l-4 14l-2 15l-4 14l1 11l-6 16l2 13l-6 13l3 16v27l-2 14l4 14l-1 13l4 15l1 14l2 13l5 15v14l5 12l3 15l9 12l3 12l4 14l6 14l9 13l3 12l9 12l4 11l11 14l8 12l7 9
l7 14l10 10l8 12l8 10l11 10l8 11l12 10l9 10l8 10l10 7l13 9l10 11l11 8l10 8l12 8l21 -6l6 -11l9 -13l6 -12l-3 -19l-10 -10l-10 -7l-11 -9l-9 -9l-10 -9l-10 -7l-9 -11l-11 -10l-10 -9l-8 -11l-10 -12l-6 -11l-9 -12l-9 -12l-5 -12l-10 -12l-4 -11l-6 -12l-5 -13l-7 -12
l-3 -15l-7 -12l-5 -14l-1 -14l-6 -12l-4 -13l-1 -16l-2 -13l-3 -13v-14l-2 -15v-28l3 -14l3 -15l-2 -13l5 -13l5 -14l3 -15l3 -11l4 -14l4 -12l6 -15l9 -12l9 -12l9 -10l7 -12l10 -9l9 -10l1 -21l-5 -12l-6 -12l-8 -10l-7 -10z" />
    <glyph glyph-name="parenright" unicode=")" horiz-adv-x="396" 
d="M93 -32l-8 10l-10 14l-9 11l3 21l11 6l11 9l10 10l11 7l12 11l9 9l11 10l7 10l13 11l6 9l10 12l6 12l10 12l6 12l8 11l9 13l4 11l5 13l10 12l5 12l1 16l7 13l2 13l8 13l3 14l3 12l1 16l3 14l-2 13l5 14v14l-3 29v13v14v17l-3 14l-5 12l-6 14l-4 13l-2 14l-7 13l-6 13
l-7 12l-6 12l-10 14l-9 12l-5 10l-14 11l1 20l3 12l7 9l8 13l9 9l17 2l12 -7l6 -10l10 -10l12 -12l5 -11l8 -12l9 -11l8 -12l8 -14l2 -11l6 -12l8 -15l2 -13l7 -13l4 -13l2 -13l5 -16l3 -14v-12l4 -16v-13l-1 -13l3 -30l-4 -15l1 -14l-1 -12l-1 -16l-5 -14l-3 -12l-1 -15
l-3 -13l-4 -14l-7 -15l-4 -12l-3 -13l-8 -13l-6 -15l-2 -12l-7 -12l-10 -13l-3 -12l-11 -12l-8 -11l-4 -11l-8 -13l-13 -10l-7 -12l-8 -10l-9 -11l-10 -10l-12 -10l-8 -11l-9 -10l-12 -10l-9 -8l-10 -10l-11 -8l-11 -7l-14 -10z" />
    <glyph glyph-name="asterisk" unicode="*" horiz-adv-x="513" 
d="M538 605l-14 -4l-12 -7l-17 -3l-12 -6l-10 -4l-17 -5l1 -11l15 -10l10 -7l16 -9l13 -8l2 -19l-8 -11l-8 -10l-10 -10l-9 -12l-19 -1l-9 9l-11 8l-9 8l-14 10l-8 9l-16 -5l-4 -14v-13l-2 -13l-3 -15l-4 -12l-18 -14l-11 -1l-18 1h-9l-15 -1l-11 15l4 13l7 13l6 14l3 12
l6 13l-8 7l-13 -6l-14 -5l-24 -12l-12 -6l-21 6l-3 15l-5 13l-8 14l10 20l15 7l13 4l16 6l14 3l10 6l5 12l-14 10l-12 6l-10 8l-12 10l-5 18l10 10l9 13l9 11l6 9l22 4l10 -9l19 -19l11 -10l9 -8l11 3l6 14v15l6 13l1 13l3 16l17 13l17 1h11l15 -2l11 1l13 -14l-6 -13
l-8 -15l-1 -13l-7 -15l-3 -13l7 -10l14 8l11 7l16 7l11 7l15 7l20 -7l4 -14l4 -14l7 -13z" />
    <glyph glyph-name="plus" unicode="+" horiz-adv-x="433" 
d="M421 356l-6 -12l-3 -14l-3 -11l-17 -15h-30l-14 2l-12 -2l-15 1h-11l-13 1l-20 -16l-6 -26l-5 -15l-5 -15l-3 -13l-6 -13l-5 -14l-15 -15h-30l-15 -1l-12 1l-10 13l6 15l4 14l2 13l4 14l8 14l1 16l6 13l-11 14h-14l-14 -1l-13 1h-10l-14 -1h-16l-12 2l-9 11l3 14l6 14
l5 13l17 12h26l14 2l10 -2h14l13 2l13 -1l22 14l3 13l1 15l5 13l8 13l4 15v14l8 13l16 16h14l15 -2l13 2l13 -1l8 -13l-4 -15v-15l-4 -13l-8 -15l-1 -13l-4 -15l-8 -12l12 -13l13 -2l14 1h15l12 1l11 -1h15l16 1z" />
    <glyph glyph-name="comma" unicode="," horiz-adv-x="298" 
d="M203 81l-4 -13v-15l-4 -12l-6 -16l-5 -12l-4 -13l-10 -14l-6 -12l-5 -13l-8 -11l-7 -13l-5 -11l-8 -14l-8 -11l-7 -10l-9 -12l-9 -10l-13 -10l-9 -11l-8 -10l-13 -9l-7 -12h-23l-7 9l-14 6l2 20l12 9l10 8l7 12l10 9l11 10l5 14l9 11l10 10l5 12l9 14l4 12l8 14l-10 11
h-13l-6 14l3 14l4 15l5 12l5 14l1 15l18 14l17 -1l10 1h26l16 -2h9z" />
    <glyph glyph-name="hyphen" unicode="-" horiz-adv-x="469" 
d="M62 209l3 12l3 10l4 14l7 12l14 13l16 -1h16l14 -1l9 1l18 -1l27 2l14 -2l12 2l16 -1h27l11 -1h16l11 1h14l18 1h12l15 -1l13 1h13l10 -15l-5 -11l-2 -12l-6 -13l-4 -11l-19 -12l-14 -1l-13 2l-14 -2l-15 1l-12 1l-16 -1l-12 1l-15 -2h-41l-12 1l-13 1l-16 -2l-11 2
l-18 -1h-27l-10 1l-14 -2h-15z" />
    <glyph glyph-name="period" unicode="." horiz-adv-x="292" 
d="M76 13l7 14v13l7 14l6 12l3 16l20 13l13 1h15l13 -2l15 2l11 -1l11 -14l-4 -14l-4 -13l-4 -15l-8 -12l-1 -15l-21 -11l-12 -3h-15l-12 3l-14 -3h-15z" />
    <glyph glyph-name="slash" unicode="/" horiz-adv-x="458" 
d="M37 11l7 13l9 12l5 11l7 13l9 11l5 14l8 11l6 11l9 14l4 10l10 13l5 12l5 11l10 13l5 14l9 10l14 24l4 14l6 10l11 12l6 13l4 13l9 11l8 13l8 11l4 11l8 14l6 12l9 12l6 11l6 12l8 14l7 12l8 11l4 12l6 13l11 10l7 13l5 11l5 12l8 12l9 15l4 11l8 12l9 12l3 13l11 10
l5 12l7 14l7 10l5 12l9 12l9 14l5 11l6 13l21 12l11 -1h15l14 1l15 -1l12 2l7 -14l-9 -13l-4 -10l-10 -13l-5 -12l-9 -11l-4 -12l-8 -13l-8 -12l-7 -11l-6 -12l-9 -13l-5 -11l-7 -12l-8 -15l-7 -10l-4 -12l-10 -13l-4 -11l-9 -13l-8 -11l-8 -12l-7 -13l-3 -11l-10 -13
l-5 -13l-8 -11l-9 -12l-4 -12l-9 -12l-6 -13l-8 -12l-7 -11l-7 -12l-6 -14l-8 -10l-3 -13l-11 -11l-4 -13l-9 -13l-4 -10l-9 -13l-5 -13l-10 -13l-3 -12l-11 -10l-5 -14l-7 -10l-8 -12l-5 -14l-9 -11l-8 -13l-3 -11l-10 -13l-7 -10l-7 -12l-8 -13l-17 -14h-14l-11 3l-18 -3
l-10 1l-12 -1z" />
    <glyph glyph-name="zero" unicode="0" horiz-adv-x="641" 
d="M249 -14l-13 1l-13 2l-13 2l-12 3l-12 5l-15 6l-9 6l-15 8l-10 9l-10 9l-5 10l-12 12l-6 11l-7 12l-4 14l-4 11l-5 15v13l-6 12v14l-1 15l-3 14l1 14l-1 13l2 15l-2 15l1 13l2 14l5 15v12l6 15l2 15v12l11 28l1 12l7 15l1 14l5 13l8 13l5 12l5 13l5 13l9 12l4 13l9 11
l6 11l7 13l6 13l10 11l5 9l11 13l8 10l11 10l10 11l8 10l11 8l7 10l11 9l15 7l11 9l8 6l16 7l10 8l13 6l10 3l15 6l16 4l13 3l10 3h16l15 2l26 1l13 -3l17 -1l14 -4l10 -2l14 -6l14 -7l11 -6l10 -9l9 -8l12 -12l10 -11l5 -10l7 -12l6 -12l4 -14l9 -12l2 -14l4 -16v-13l3 -15
l3 -13l1 -15l-4 -13l1 -14l1 -15l-4 -16l1 -13l-2 -14l-6 -15l-1 -15l-1 -15l-3 -14l-8 -26l-7 -15l-4 -12l-3 -14l-6 -12l-3 -14l-4 -13l-10 -13l-5 -11l-7 -14l-3 -13l-6 -10l-8 -14l-9 -11l-7 -12l-6 -12l-10 -10l-8 -12l-9 -11l-8 -9l-10 -11l-12 -11l-7 -10l-11 -9
l-10 -6l-14 -9l-9 -10l-15 -7l-11 -6l-12 -5l-11 -7l-14 -6l-12 -5l-16 -2l-12 -4l-12 -1l-12 -3h-45zM287 74l13 2l16 2l15 6l12 5l10 5l26 13l8 9l15 10l10 10l7 9l11 12l9 9l7 11l8 12l11 12l8 14l6 11l8 12l5 14l8 12l2 14l6 14l4 14l8 12l5 13l5 14l5 27l3 14l1 14
l2 13l7 15v12l3 15l1 14l-2 13l1 15l-3 15l-3 12l2 15l-8 12l-1 14l-7 11l-6 12l-11 11l-12 10l-7 7l-15 6l-12 5l-13 1l-26 1l-16 -3l-13 -3l-13 -4l-13 -5l-14 -7l-10 -7l-13 -7l-9 -7l-13 -11l-11 -10l-10 -8l-10 -13l-8 -11l-7 -11l-8 -11l-12 -12l-3 -12l-8 -12l-8 -12
l-8 -15l-6 -11l-6 -15l-4 -12l-5 -15l-5 -14l-3 -12l-4 -16l-7 -27l-3 -12l-3 -16l-7 -15l1 -13l-4 -14l2 -14l-1 -14l-4 -16l4 -15l-1 -12l1 -15l5 -14l6 -15l6 -12l5 -14l10 -11l12 -8l10 -8l14 -8l11 -3l16 -2z" />
    <glyph glyph-name="one" unicode="1" horiz-adv-x="464" 
d="M432 687l-6 -13l-5 -14l-3 -14l-2 -15l-5 -11l-4 -16l-6 -12l-4 -14l-5 -14l-4 -13v-14l-8 -13l-4 -13l-1 -13l-8 -13l-2 -15l-3 -12l-4 -14l-6 -13l-4 -16l-1 -12l-5 -15l-11 -25l-1 -13l-6 -15l-2 -13l-5 -15l-7 -12l-3 -15l-5 -12l-1 -13l-4 -14l-8 -14l-2 -13l-2 -15
l-4 -12l-7 -15l-4 -12l-2 -14l-8 -14l-4 -12l-4 -14l-2 -15l9 -13l13 2l19 -1l12 -1l13 1h28l17 -1h14l10 -12l-6 -14v-12l-6 -13l-5 -14l-16 -14l-13 -1l-15 1l-16 -1l-12 1l-14 -1l-17 3l-10 -3h-46l-11 1l-15 -1l-12 1l-17 -1l-13 1l-16 2l-11 -2l-14 -1l-16 3l-13 -2
l-16 2l-12 -2l-15 -1l-12 1l-11 15l4 12l7 13l1 12l4 15l20 14l15 -2h14l11 1h27l16 -1h12l16 2l17 13l1 12l5 14l3 12l8 14v15l8 11l1 13l7 15l4 13l4 14l3 13l1 14l8 11l2 14l3 13l3 15l4 12l6 14l5 14l4 13l2 12l7 16l4 11l3 14l1 13l4 14l4 13l6 13l3 15l4 13l5 13l6 14
v14l-8 -11l-10 -12l-10 -10l-12 -8l-10 -11l-11 -8l-14 -8l-9 -10l-15 -8l-11 -6l-13 -8l-15 -6l-16 5l-8 15l-5 14l-8 13l4 20l14 6l12 7l13 8l11 8l11 6l10 10l14 7l8 10l14 7l11 10l10 10l7 10l12 8l12 11l9 9l9 12l9 9l9 13l11 10l7 11l9 12l19 10h15l24 2l16 -2z" />
    <glyph glyph-name="two" unicode="2" horiz-adv-x="639" 
d="M558 153l13 -11l11 -9l11 -10v-22l-7 -10l-10 -10l-8 -10l-12 -12l-8 -8l-11 -10l-10 -8l-14 -7l-9 -8l-14 -7l-13 -4l-15 -7l-13 -3l-12 -3l-11 -4l-13 -4l-16 1l-15 -3l-24 1h-15l-17 4l-12 1l-13 3l-13 5l-12 4l-13 7l-14 6l-10 7l-17 6l-11 6l-9 6l-12 9l-12 6
l-28 -2l-11 -10l-8 -7l-15 -8l-11 -7l-8 -6l-15 -7l-18 4l-7 15l-6 14l-7 13l3 22l12 7l12 8l12 8l11 6l14 8l13 8l9 6l12 8l10 8l25 16l10 8l13 9l10 9l13 7l12 8l11 9l9 10l12 7l9 10l13 9l12 10l11 9l7 8l13 11l9 8l8 12l10 10l9 8l10 12l12 9l16 22l7 12l7 11l7 13l8 12
l5 13l8 11l7 15l3 11l9 29l2 12l1 14l-2 16v13l1 14l-6 13l-6 15l-6 10l-9 10l-13 10l-8 6l-16 7l-14 3l-11 1l-31 2l-27 -6l-9 -4l-12 -8l-14 -6l-8 -8l-12 -9l-7 -13l-8 -11l-6 -11l-4 -15v-13l-5 -13l-13 -13l-13 -1l-28 2l-10 -2l-14 16l3 12l3 14l-1 14l5 13l7 14l3 14
l9 12l4 12l9 10l9 11l12 11l10 9l12 8l11 7l13 8l10 5l13 4l15 5l14 5h14l29 5h25l16 -3h15l12 -4l13 -6l16 -3l9 -7l12 -8l13 -8l11 -9l11 -12l4 -12l11 -12l3 -11l6 -13l4 -15l6 -14v-15v-13l3 -13l-3 -16l1 -15l-5 -12l-1 -15l-8 -29l-1 -13l-8 -12l-2 -14l-5 -13l-9 -11
l-6 -13l-5 -12l-7 -10l-10 -14l-8 -10l-10 -12l-5 -10l-10 -12l-10 -10l-7 -12l-11 -10l-12 -8l-10 -10l-7 -12l-9 -8l-14 -10l-11 -9l-9 -8l-9 -11l-12 -8l-13 -10l-9 -6l-13 -9l-8 -10l-14 -9l-12 -7l-11 -9v-14l13 -6l12 -5l14 -6l12 -7l12 -6l12 -3l16 -2l12 -4h15l30 1
l13 2l13 1l12 5l17 6l12 4l11 8l13 8l10 10l12 9l9 10l9 11l9 12z" />
    <glyph glyph-name="three" unicode="3" horiz-adv-x="572" 
d="M399 401l15 -2l9 -4l17 -6l13 -5l10 -7l15 -8l11 -8l6 -10l11 -9l10 -13l3 -12l6 -14l3 -12l5 -12l1 -16l5 -12l1 -16l-3 -14l1 -13l-4 -15l-5 -14l-5 -27l-5 -12l-9 -14l-7 -10l-7 -13l-6 -12l-8 -12l-8 -9l-12 -10l-10 -10l-11 -8l-13 -8l-8 -9l-12 -8l-15 -5l-13 -6
l-10 -6l-15 -4l-13 -3l-16 -4l-14 -3h-12h-13l-30 -2l-44 9l-15 1l-9 5l-17 7l-13 7l-10 6l-13 8l-23 17l-7 11l-9 10l-13 13l-4 12l-12 11l-3 12l7 20l10 8l11 6l12 5l13 8l18 -7l7 -11l6 -12l12 -10l6 -8l10 -11l13 -7l13 -8l12 -5l14 -4l14 -3l12 -5l13 1l27 -2l17 2
l13 2l16 4l13 4l12 8l14 7l8 7l14 9l10 10l7 12l10 10l9 12l6 13l5 27l5 16l2 12v14l-2 14l1 14l-6 12l-5 14l-7 13l-10 10l-9 7l-14 7l-23 9l-15 1h-28l-10 1l-14 -3l-12 -2l-24 13l-6 13l1 22l6 11l11 11l12 11l6 9l11 9l7 12l9 10l12 11l10 10l9 10l9 11l9 8l10 11l7 12
l11 10l10 9l10 10l9 11l-6 17l-11 7l-9 9l-15 6l-7 8l-14 7l-13 5l-14 5l-13 4l-14 2h-29l-14 -3l-10 -6l-14 -6l-11 -8l-11 -12l-9 -11l-6 -10l-7 -14l-5 -13l-3 -14l-3 -15l-13 -12h-28l-12 -2h-13l-13 16l3 13l4 14l4 14l1 14l8 12l3 13l8 14l11 12l4 11l12 12l8 8l11 9
l12 11l13 6l11 7l13 5l28 6l18 3l10 3h33l10 -4h16l15 -5l12 -4l13 -6l11 -7l14 -9l14 -6l10 -8l13 -10l10 -5l14 -7l20 3l10 12l11 8l10 13l10 10l22 10l14 -1l11 2h15l10 -1l15 1l4 -12l-13 -12l-9 -9l-10 -12l-6 -10l-14 -10l-8 -10l-11 -12l-9 -9l-6 -12l-9 -9l-12 -12
l-11 -11l-10 -10l-6 -9l-9 -13l-13 -8l-9 -11l-11 -10l-6 -13l-11 -9l-8 -11l-11 -11l-8 -11l-9 -10l-13 -11l-7 -11l-12 -11z" />
    <glyph glyph-name="four" unicode="4" horiz-adv-x="605" 
d="M592 571l-3 -13l-4 -13l-6 -15l-2 -11l-5 -13l-2 -14l-7 -15l-1 -13l-4 -13l-5 -13l-6 -12l-2 -14l-8 -13l-3 -13l-5 -14l-5 -14l-1 -12l-4 -14l-5 -12l-6 -13l11 -15l15 2h11l14 -2l12 2h13l9 -13l-2 -14l-3 -10l-6 -13l-4 -12l-19 -14h-12l-10 1h-13l-16 1l-12 -1
l-19 -13l-1 -14l-7 -15l-6 -12l-1 -16l-5 -14l-6 -12l-4 -15l-2 -13l-7 -14l-5 -13l-4 -15l-1 -11l-8 -16l-2 -14l-20 -13l-11 2h-16l-13 -2h-15l-8 14l5 15l4 14l1 13l6 14l6 14l1 13l9 13l3 13l4 13l3 14l4 15l4 13l4 14l8 14l-9 13l-31 2l-11 -1l-18 -1h-10l-18 2l-9 -1
l-17 -1l-14 2h-11l-18 -2h-12l-15 2l-11 -1l-15 1h-28l-13 -2l-30 2l-17 12l-8 12l-8 12l-8 12l4 22l9 10l11 10l11 12l9 8l8 11l11 10l7 12l10 10l9 10l5 11l13 13l4 11l12 9l8 13l5 9l8 12l13 12l7 12l5 11l10 11l8 10l6 12l9 12l7 12l9 13l6 11l5 13l9 11l5 13l8 12l6 11
l9 12l6 11l7 15l5 11l7 13l6 13l17 11h29l28 2l10 -13l-7 -13l-8 -14l-5 -13l-7 -10l-5 -13l-7 -12l-7 -13l-5 -12l-5 -12l-6 -12l-10 -12l-6 -13l-7 -12l-10 -13l-7 -11l-7 -11l-5 -13l-6 -12l-8 -11l-10 -10l-8 -14l-6 -10l-7 -10l-12 -12l-9 -13l-8 -11l-7 -10l-10 -11
l-5 -11l-12 -10l-9 -11l-9 -11l-5 -12l-12 -8l-7 -10l-11 -11l16 -3l28 2l12 -2l30 2h14l12 -2l15 2l10 -2h45l11 2h31l11 -2l21 14l5 14l4 13l2 13l6 14l5 11l4 14v13l9 13l3 15l3 13l6 14v11l9 14v15l7 11l2 13l5 15l5 12l5 15l2 11l20 16l15 -2h12l14 2l15 -2z" />
    <glyph glyph-name="five" unicode="5" horiz-adv-x="574" 
d="M544 623l-12 1l-14 -1l-18 1h-25l-18 -1h-14l-14 1l-10 -1h-14l-18 1l-13 -1l-16 1l-13 -1l-12 1h-13l-17 -2h-14l-15 -11l-4 -15l-8 -14l-3 -13l-1 -13l-6 -14l-3 -11l-5 -14l-3 -13l-5 -16l-6 -12l-2 -15l-6 -12l11 -10l13 6l12 2l15 2l12 3l14 3l12 1l30 -2l11 -1
l13 1l15 -3l17 -5l12 -4l12 -5l15 -3l12 -9l21 -15l12 -9l6 -10l12 -12l4 -11l7 -14l9 -12l1 -13l6 -14l1 -13l3 -15v-13l3 -14l1 -13l-2 -15l-4 -13l-1 -16l-5 -13v-12l-10 -27l-8 -14l-5 -12l-7 -12l-8 -11l-9 -14l-9 -10l-7 -10l-10 -9l-12 -9l-25 -18l-8 -8l-15 -7
l-13 -6l-10 -4l-16 -6l-14 -4l-14 -4l-12 -3l-14 -4l-13 1l-17 -3l-27 2l-14 -1l-15 3l-11 4l-15 2l-12 5l-15 6l-9 5l-16 8l-9 6l-12 10l-13 7l-8 10l-7 12l-11 10l-9 10l-3 13l-9 13l-2 14l-5 12l7 17l17 5l12 3l13 2l17 3l15 -9l10 -13l3 -11l21 -23l13 -7l13 -9l12 -8
l13 -4l14 -4l15 -4l11 -1l29 -1l15 1l13 4l14 3l26 8l11 8l11 7l12 6l10 9l7 10l13 12l4 11l9 12l7 10l8 26l1 15l7 15v12l-1 16v14l-1 12l-2 15l-9 14l-4 12l-10 10l-6 11l-12 10l-14 7l-11 7l-11 4l-17 4l-14 4l-12 1l-29 1l-12 -4l-15 -2l-17 -4l-13 -2l-15 -5l-24 -12
l-28 -8l-15 2l-10 -1l-14 -1l-12 14l2 13l8 14l1 14l6 15l3 11l3 15l8 12l4 14l1 14l7 14l4 15l3 13l9 28l6 12l1 13l3 14l5 15l4 14l7 13l5 13v15l5 11l4 15l20 14l12 1l14 -1l15 1h13l27 -2l16 1h14l11 1l17 -1h13l16 1l10 -1l14 1l14 -1l16 1h15l12 -1h13l15 -1h42l16 2
l7 -13l-4 -14l-3 -14l-9 -26z" />
    <glyph glyph-name="six" unicode="6" horiz-adv-x="557" 
d="M348 449l13 -2l15 -3l14 -1l13 -5l14 -2l11 -7l15 -6l9 -6l12 -9l10 -7l10 -10l9 -11l13 -12l4 -11l7 -12l7 -11l4 -14l4 -14l5 -13l3 -14v-14l1 -15l2 -14l-4 -14l-1 -11l-3 -14v-16l-10 -27l-4 -13l-6 -11l-3 -13l-11 -13l-5 -11l-8 -13l-8 -10l-12 -10l-9 -9l-14 -8
l-8 -11l-13 -8l-13 -7l-13 -6l-12 -4l-13 -6l-13 -4l-14 -3l-13 -4l-11 -2l-18 -3l-11 -1h-31l-12 1l-15 3l-13 3l-13 4l-13 4l-14 6l-11 7l-14 6l-9 8l-10 8l-11 10l-8 9l-10 11l-7 14l-7 12l-4 12l-8 13l-3 12l-5 12l-2 16l-6 12l-2 13l-2 17v12l1 15l-2 14l1 15l4 14
l-1 13l4 16l4 14l1 26l4 15l7 11v15l6 14l4 11l4 14l7 13l5 12l5 14l6 13l6 11l6 14l9 10l5 12l8 14l7 11l10 11l9 9l10 12l7 10l10 9l13 11l10 10l8 8l11 10l12 7l9 9l12 7l14 8l10 5l11 8l13 4l13 5l16 7l24 7l14 4l13 5l12 2l15 2l16 1l13 3l16 -1l14 2l11 -15l-1 -12
l1 -14l-5 -14l-1 -13l-14 -13l-13 -1l-15 -2l-16 -1l-12 -3l-16 -2l-13 -3l-12 -5l-11 -4l-17 -6l-10 -8l-15 -6l-10 -7l-14 -7l-11 -9l-10 -8l-12 -10l-7 -9l-14 -9l-6 -12l-12 -9l-5 -13l-12 -10l-5 -12l-6 -11l-9 -13l-6 -13l-9 -14l11 -7l12 8l10 4l27 6l11 3l16 3l12 2
h16l12 2zM452 204l4 14v15l-2 13l1 15l-4 15l-3 11l-4 14l-5 12l-11 11l-4 12l-11 10l-12 9l-14 5l-23 11l-13 2l-15 3h-29l-12 -3l-17 1l-13 -3l-14 -2l-15 -5l-10 -4l-15 -3l-10 -6l-15 -5l-10 -8l-16 -12l-3 -24l-2 -12l-2 -16l-4 -13l-1 -15l-1 -13l2 -13l1 -15l5 -13
l4 -15l3 -12l3 -15l5 -11l9 -11l10 -12l9 -10l8 -9l11 -8l16 -6l10 -3l15 -3l12 -2l28 -1h14l15 2l10 4l14 6l12 5l15 7l12 5l11 10l7 10l9 10l11 11l5 9l6 12l5 15z" />
    <glyph glyph-name="seven" unicode="7" horiz-adv-x="594" 
d="M627 688l-7 -12l-8 -14l-6 -12l-7 -12l-9 -11l-7 -14l-7 -12l-4 -11l-8 -14l-6 -11l-7 -12l-6 -13l-9 -12l-7 -12l-5 -14l-4 -10l-10 -12l-7 -15l-7 -11l-6 -12l-8 -14l-7 -12l-4 -10l-8 -14l-5 -12l-6 -12l-11 -12l7 -11l15 -1l12 1l16 -1l10 1l18 -2l11 1l12 -1l11 -15
l-7 -14l-5 -13l-3 -13l-17 -16l-15 2l-16 -1l-10 1l-17 -1h-24l-14 -1l-13 1l-23 -13l-7 -11l-7 -13l-7 -13l-4 -12l-8 -14l-9 -10l-6 -14l-5 -11l-5 -13l-10 -12l-4 -12l-11 -15l-7 -12l-12 -25l-6 -12l-9 -11l-6 -14l-5 -11l-6 -14l-21 -12h-25l-14 -1l-13 3h-12l-9 11
l12 25l11 13l5 12l14 24l4 12l11 14l4 12l10 13l4 12l8 11l6 12l6 14l9 13l12 23l7 12l7 15l8 12l-8 11h-14l-16 1l-13 1l-13 -2l-13 2l-15 -1l-10 14l3 14l3 14l9 15l19 15l14 -2h15l11 2h15l16 -2l12 1l17 -1l22 14l14 22l4 12l6 14l10 12l5 11l5 11l8 12l7 14l8 11l6 13
l5 10l6 12l7 14l7 10l7 12l6 12l-5 18l-13 7l-13 4l-12 9l-11 6l-12 8l-10 6l-11 5l-13 5l-14 7l-12 1l-11 3h-31l-13 -3l-14 -2l-10 -7l-14 -5l-9 -10l-12 -10l-7 -9l-5 -13l-9 -13l-4 -12l-3 -15l-1 -12l-17 -13l-11 -2l-11 2h-14l-14 -1l-13 13l5 15l2 14l2 14l3 14l4 14
l9 12l6 13l4 12l13 13l5 10l13 8l8 10l12 10l14 5l12 7l14 6l14 5l12 1l17 3l10 3l30 -2l17 -1l12 -3l30 -6l13 -4l13 -7l10 -7l14 -7l9 -8l14 -6l13 -9l10 -8l16 -4l20 7l7 11l4 13l10 12l17 15l16 -2l12 1l15 -1l11 1l12 -1z" />
    <glyph glyph-name="eight" unicode="8" horiz-adv-x="558" 
d="M532 466l-6 -13l-5 -13l-5 -12l-6 -12l-6 -10l-8 -11l-10 -13l-10 -10l-10 -8l-8 -8l-12 -9l-1 -19l8 -8l8 -11l12 -11l4 -13l5 -13l7 -13l5 -11l2 -16l1 -13l2 -14l-2 -12l-2 -14l-2 -13l-6 -28l-4 -14l-4 -12l-8 -11l-6 -13l-8 -11l-6 -11l-10 -10l-9 -9l-13 -9l-10 -8
l-12 -8l-13 -7l-13 -4l-10 -8l-13 -3l-14 -4l-11 -5l-17 -1l-13 -2l-12 -3l-15 -1h-27l-15 1l-13 4l-14 2l-13 2l-14 7l-15 5l-14 4l-11 8l-11 9l-12 8l-9 8l-9 10l-8 12l-13 9l-6 13l-8 14l-3 12l-5 12l-3 14l-1 16l-2 12l-1 16l-2 12l1 15l1 15l7 27l3 12l5 13l5 15l7 12
l6 10l8 13l10 11l5 10l11 9l9 10l12 9l9 10l11 8l11 6l13 7l4 17l-8 11l-7 14l-5 12l-2 13l-5 15v16l-3 14l3 12l5 29l5 14l2 13l5 13l8 11l5 12l8 12l10 12l11 9l9 9l12 11l11 8l10 7l12 4l14 7l13 5l29 5l13 3l13 1l28 -2l12 1l14 -4l16 -3l12 -5l14 -6l16 -6l10 -8l9 -9
l14 -8l8 -10l8 -12l9 -13l7 -12l8 -14l3 -13l3 -13l1 -13l2 -14l5 -16l-1 -14v-14l-7 -14zM462 516l-1 15l-1 15l-6 12l-2 14l-7 13l-7 12l-14 8l-11 9l-11 8l-11 6l-13 3l-14 3l-42 -3l-15 -3l-14 -4l-24 -17l-10 -7l-10 -10l-9 -12l-2 -15l-7 -12l-2 -27v-16l-1 -13l6 -14
l6 -10l10 -13l9 -11l8 -10l13 -7l11 -10l27 -14l13 -4l25 -12h24l14 9l11 9l10 9l11 10l7 11l5 13l10 10l6 13l4 15zM412 190l2 14l-2 12l-2 15l-2 13l-10 13l-6 10l-8 12l-15 9l-7 8l-12 8l-15 7l-11 7l-27 11l-9 7l-12 6l-12 8l-12 8h-28l-11 -6l-13 -5l-12 -9l-10 -10
l-11 -10l-7 -11l-9 -9l-8 -14l-8 -10l-2 -14l-9 -26l-2 -16l-1 -14l-2 -12l2 -16l4 -13l7 -13l7 -11l3 -13l13 -11l7 -9l13 -9l12 -6l14 -5l10 -5l16 -3l13 -4l14 -1l25 -1l14 3l17 1l12 5l13 6l10 6l11 5l15 8l10 10l8 12l5 11l9 12l7 12z" />
    <glyph glyph-name="nine" unicode="9" horiz-adv-x="594" 
d="M399 713l12 -1h11l17 -5l14 -1l12 -7l11 -4l16 -6l9 -8l11 -8l11 -9l8 -8l10 -11l11 -10l8 -14l4 -10l9 -14l3 -12l5 -13l4 -14l5 -12l2 -16l3 -12v-14l2 -14l-1 -16l-2 -15l1 -14l-2 -14v-12l-4 -14l-1 -16l-4 -13l-6 -27l-4 -15l-6 -14l-4 -12l-4 -15l-7 -12l-7 -14
l-4 -11l-7 -14l-5 -13l-5 -12l-11 -11l-5 -12l-8 -13l-8 -9l-10 -12l-10 -10l-6 -13l-11 -11l-8 -10l-11 -8l-24 -20l-11 -8l-7 -10l-14 -7l-12 -8l-10 -8l-23 -14l-26 -12l-15 -4l-23 -11l-16 -4l-14 -2l-12 -4l-15 -5l-12 -2l-17 -1l-11 -3l-15 -1h-16l-13 15l2 14v13
l1 16v12l12 16l17 1l12 -1l13 3l13 1l14 5l16 2l11 4l15 5l13 5l14 5l12 7l11 8l14 6l8 7l15 9l12 10l6 9l14 8l9 10l10 9l9 13l8 11l9 11l7 9l11 14l6 10l7 14l-6 6l-15 -6l-12 -2l-12 -4l-15 -2l-15 -4l-13 1l-17 -1l-27 -1l-26 2l-13 3l-27 9l-16 6l-10 7l-14 5l-9 8
l-15 10l-8 8l-12 12l-5 10l-11 11l-6 13l-7 12l-3 12l-4 15l-4 14l-3 14l-3 12l1 14v14l3 14l1 16l1 13l8 28l4 14l5 13l3 14l9 11l6 14l6 11l11 12l9 10l9 10l9 11l12 8l12 10l11 6l27 14l14 5l12 5l16 3l12 4l17 3l10 2h14zM364 331l12 1l17 2h11l16 3l14 5l13 4l9 5l12 5
l16 5l9 8l3 16l3 13l4 13l2 15l3 12v15l2 14l3 15l-2 11l-3 16l-2 12v14l-6 14l-6 13l-5 11l-7 13l-11 11l-6 7l-11 9l-12 7l-12 5l-13 3l-13 2l-16 4l-29 -2h-10l-14 -4l-18 -4l-10 -3l-12 -7l-13 -8l-13 -9l-9 -10l-11 -10l-7 -11l-10 -11l-3 -11l-6 -15l-3 -12l-8 -29
v-12l-4 -14l4 -17l1 -13l6 -15l2 -13l7 -11l8 -13l8 -11l15 -9l10 -8l12 -8l13 -4l14 -4l15 -2l12 -2z" />
    <glyph glyph-name="semicolon" unicode=";" horiz-adv-x="302" 
d="M205 430l16 -1l14 2h11l16 -1h13l11 -15l-6 -12l-3 -15l-7 -12l-4 -13l-3 -15l-18 -13h-28l-12 -1l-17 1l-11 -1l-10 13l1 16l8 12l3 13l6 13l4 16zM204 82l-2 -14l-2 -14l-6 -14l-5 -15l-3 -13l-7 -13l-4 -12l-6 -11l-10 -15l-5 -10l-8 -14l-5 -12l-10 -10l-10 -13
l-5 -10l-8 -12l-11 -12l-11 -11l-9 -8l-11 -10l-10 -12l-11 -7l-18 -3l-23 16l3 19l9 7l8 10l14 11l7 12l11 8l4 14l11 10l5 13l10 10l7 15l4 11l5 12l-6 14l-14 -1l-4 14v14l6 15l7 13l1 14l7 13l16 13h14l10 2l17 -1h12l13 1l11 -2z" />
    <glyph glyph-name="less" unicode="&#x3c;" horiz-adv-x="368" 
d="M303 162l-10 5l-13 9l-9 6l-16 7l-23 16l-8 8l-11 7l-15 5l-12 9l-8 7l-12 7l-13 8l-13 5l-12 9l-12 6l-11 9l-13 7l-8 8l-13 6l-13 6l-8 23l4 16l19 20l13 6l15 6l13 5l10 7l14 4l11 5l16 7l10 5l14 6l12 7l11 4l16 7l11 6l13 6l13 3l36 19l17 5l10 6l12 6l16 4l10 6
l19 -8l9 -14l7 -12l2 -15l-3 -18l-13 -6l-14 -5l-10 -6l-17 -7l-13 -4l-9 -6l-16 -5l-9 -5l-16 -5l-11 -7l-13 -5l-14 -6l-11 -3l-14 -8l-14 -4l-9 -7l-17 -4l4 -12l9 -8l12 -9l14 -6l14 -9l9 -8l13 -7l12 -8l25 -13l14 -9l13 -6l12 -9l9 -6l9 -19l-13 -23l-9 -11l-7 -13z
" />
    <glyph glyph-name="equal" unicode="=" horiz-adv-x="439" 
d="M447 428l-3 -14l-3 -12l-7 -12l-14 -15h-56l-14 2l-14 -2l-17 1h-27l-12 -1l-16 1h-10l-14 -1l-15 2l-15 -2l-12 2l-17 -1l-10 -1l-15 2h-16l-15 -1l-12 1l-9 12l4 14l3 11l6 14l17 14h26l16 1l29 -2l10 1l15 -1l14 1h15l15 1l15 -2l9 2l15 -1h17l13 1l12 -2l15 1l12 -1
l15 1h16l13 -1l14 1zM401 276l-4 -12l-3 -14l-4 -12l-20 -15l-15 1h-15l-11 -1l-12 2l-16 -1l-14 1l-15 -1h-25l-17 -1l-11 1l-15 1l-14 -1l-12 1l-31 -2l-10 2l-17 -1h-10l-17 -1h-28l-9 15l3 12l5 13l3 13l21 14h14l12 2l13 -1l17 -1h10l15 2l17 -1l11 -1l14 2l15 -1h13
l15 1l15 -2h12l15 1l15 -1h12l11 1h17l13 -1l12 1l18 -1z" />
    <glyph glyph-name="greater" unicode="&#x3e;" horiz-adv-x="425" 
d="M83 173l-7 12l-5 11l-3 13l-6 11l4 17l13 7l14 6l27 9l11 7l27 11l12 5l12 6l16 7l8 4l14 5l12 6l13 6l15 7l12 4l12 7v13l-11 7l-13 8l-14 5l-9 10l-14 5l-11 8l-13 7l-14 8l-12 9l-12 7l-12 8l-9 7l-14 6l-5 20l7 12l6 11l6 10l7 12l14 2l14 -7l12 -5l12 -7l21 -17
l15 -6l9 -7l14 -6l10 -10l10 -7l14 -6l11 -7l10 -9l15 -6l11 -7l12 -7l9 -6l11 -9l14 -8l10 -7l14 -6l6 -19l-5 -13l-4 -13l-13 -16l-17 -7l-9 -6l-16 -6l-10 -6l-13 -4l-16 -6l-11 -7l-23 -10l-12 -6l-16 -7l-11 -4l-15 -7l-9 -6l-15 -5l-23 -10l-13 -7l-14 -5l-12 -8
l-12 -4l-14 -5l-15 -8z" />
    <glyph glyph-name="question" unicode="?" horiz-adv-x="520" 
d="M201 204l4 14l7 12l2 13l8 14l6 11l8 12l8 11l3 14l12 11l6 11l9 10l11 10l9 11l10 8l11 8l13 11l7 8l15 8l10 8l12 8l10 8l12 6l12 11l9 8l9 9l8 11l8 12l4 10l10 13l6 28l4 12l-2 14l1 15l-5 13l-4 15l-11 10l-10 10l-11 6l-13 2l-12 3l-29 1l-13 -3l-15 -5l-13 -6
l-15 -7l-11 -9l-8 -10l-12 -9l-7 -13l-4 -10l-9 -14l-5 -13l-2 -13l-18 -15l-15 2l-12 -2l-10 1l-13 -1l-11 13l-1 14l6 16l2 13l5 13l8 12l5 13l10 13l8 10l6 12l10 10l8 11l14 8l8 9l16 8l11 6l12 8l11 5l17 4l12 4l14 1l13 4h15l28 -1h15l13 -4l13 -2l14 -6l12 -5l11 -6
l12 -10l8 -7l9 -11l12 -13l3 -12l6 -11l6 -16l3 -14l1 -12l-2 -15l-2 -14l1 -13l-1 -16l-4 -14l-7 -25l-10 -13l-4 -15l-9 -12l-7 -10l-7 -13l-10 -10l-11 -10l-12 -9l-8 -8l-13 -9l-10 -8l-11 -9l-13 -8l-23 -15l-13 -7l-10 -11l-8 -9l-11 -9l-11 -9l-8 -12l-10 -13l-6 -12
l-10 -12l-4 -12l-8 -14l-4 -14l-16 -11l-16 -2l-13 2h-17l-14 -2zM135 14l7 14l1 11l5 14l6 13l6 16l15 14l18 -2h11l14 1h14l17 -1l5 -14v-13l-4 -12l-6 -15l-7 -13v-14l-18 -15l-18 3l-11 -3l-17 3l-10 -3l-18 3z" />
    <glyph glyph-name="at" unicode="@" horiz-adv-x="861" 
d="M512 715l15 -2l12 -2l12 1l14 -3l17 -2l12 -5l12 -3l13 -3l17 -7l11 -4l12 -7l14 -5l9 -7l12 -7l11 -11l14 -8l6 -7l10 -12l10 -10l11 -10l7 -9l8 -12l9 -13l6 -11l8 -14l4 -10l5 -13l5 -15l4 -13l2 -14l5 -13l1 -12l3 -15l2 -13l3 -15l-1 -14l-1 -27l2 -14l-3 -15
l-4 -12l2 -14l-7 -16l-1 -11l-2 -14l-7 -15l-2 -11l-7 -13l-4 -15l-7 -11l-7 -11l-6 -14l-11 -11l-10 -11l-10 -9l-8 -8l-11 -9l-12 -9l-12 -7l-12 -5l-12 -5l-12 -3l-13 -4l-15 -1h-27l-17 3l-12 6l-14 7l-10 6l-8 12l-6 11l-7 14l-7 12l-3 14l-12 -10l-9 -8l-10 -8l-8 -10
l-15 -6l-12 -7l-10 -2l-13 -4l-13 -2h-44l-10 4l-17 5l-10 9l-9 6l-11 10l-9 12l-9 10l-6 11l-8 14l-4 13l-2 15l-6 12v14l-4 16l2 27l1 14l-1 15l5 14l2 12l2 15l3 15l4 12l8 12l5 13l6 15l4 11l8 11l8 13l9 12l12 10l6 9l12 9l10 9l12 7l15 6l13 8l12 4l12 5l14 2l14 1
l28 1l15 -2l12 -4l10 -6l13 -9l13 -9l8 -9l7 -11l9 -14l7 -12l1 12l5 12l4 13l8 13l15 7l14 -6l14 -5l10 -19l-4 -13l-2 -12l-9 -15l-3 -14l-2 -13l-6 -12l-7 -16l-5 -12l-5 -13l-4 -15l-2 -14l-5 -14l-5 -13l-4 -12l-4 -15l-3 -13l-1 -15l-3 -13l-5 -14l1 -14l-1 -30l4 -12
l7 -13l10 -9l13 -8l25 2l15 1l13 6l9 8l15 9l7 11l7 10l11 14l5 10l8 13l6 16l3 13l3 13l3 16l2 14l2 15l4 13l-2 15l2 28v16l-4 12v13l-3 15l-3 14l-3 13l-4 14l-5 12l-10 13l-3 12l-9 13l-8 9l-8 12l-8 11l-11 9l-10 9l-15 8l-7 7l-16 9l-11 6l-10 5l-16 3l-11 4l-15 5
l-13 2l-16 3l-11 1l-17 1l-25 -1h-17h-13l-15 -3l-11 -3l-16 -4l-14 -3l-13 -6l-11 -5l-11 -6l-16 -6l-9 -6l-12 -8l-11 -6l-13 -8l-10 -10l-14 -8l-8 -12l-9 -10l-10 -9l-8 -11l-8 -10l-10 -13l-8 -11l-6 -12l-7 -13l-4 -13l-7 -13l-5 -14l-1 -13l-5 -13l-5 -12v-15l-4 -13
l-1 -14l1 -13l-2 -30l-1 -15l2 -14l3 -14l3 -14l1 -12l4 -16l4 -12l8 -13l6 -12l6 -15l10 -12l7 -10l7 -10l8 -12l14 -9l7 -9l13 -10l12 -5l15 -7l12 -8l14 -5l14 -2l9 -5l17 -3h14l12 -1l17 -16l1 -12l-4 -14l3 -13l-14 -14h-15l-14 2l-13 3h-18l-13 5l-25 7l-12 7l-16 3
l-10 8l-15 6l-8 8l-13 9l-11 8l-11 10l-9 7l-12 11l-6 10l-10 13l-9 12l-6 11l-6 12l-9 12l-4 13l-3 12l-7 14l-5 15l-2 13l-2 13l-6 14l-2 14l2 15l-2 14l1 13l-3 28l3 13l-2 14l3 15v15l6 12l2 15l3 12l6 14l5 15l4 12l6 11l5 15l7 12l2 11l19 26l8 9l8 12l7 11l7 12l9 9
l12 9l9 10l10 9l10 9l12 10l14 8l12 8l9 7l14 6l11 6l14 6l9 7l17 3l13 5l14 4l13 4l13 2l12 5h12l14 3l18 1l12 1h28zM433 201l14 3l11 7l12 7l11 9l12 8l7 11l11 12l6 12l6 13l9 13l3 14l6 12l5 16l-1 15l3 13l3 13l1 31l-6 13l-3 14l-6 14l-10 12l-7 8l-11 9l-14 6
l-27 -2l-18 -2l-9 -6l-12 -5l-12 -9l-11 -9l-8 -12l-12 -13l-7 -10l-5 -12l-8 -15l-4 -14l-4 -12l-6 -14v-15l-2 -16v-14l-1 -27l1 -15l4 -13l7 -13l9 -14l6 -8l14 -9l15 -6h28z" />
    <glyph glyph-name="A" unicode="A" horiz-adv-x="610" 
d="M459 13v16l-4 13l1 14v15l-4 15l2 14l-1 14v12l-3 16l-2 15l2 14v14l-18 13l-11 1l-14 1l-27 -2h-31l-12 2h-15l-11 -1l-16 -1l-13 1l-17 1h-27l-11 -1l-17 1l-12 -2l-20 -12l-6 -10l-7 -14l-11 -9l-6 -14l-5 -10l-7 -11l-8 -14l-14 -22l-6 -12l-9 -12l-4 -12l-11 -12
l-3 -11l-10 -11l-22 -11l-14 -2l-12 2l-29 -3l-13 1l-4 14l7 12l6 10l7 12l7 14l9 10l6 12l9 12l4 13l12 11l14 26l6 11l7 13l7 12l6 11l8 12l10 13l4 11l9 14l7 12l5 11l10 11l7 14l6 12l8 12l7 10l6 14l8 11l9 12l7 13l8 12l5 12l7 12l9 11l10 14l3 12l11 11l6 11l5 12
l7 13l8 12l9 13l9 11l4 12l10 14l5 12l6 11l12 11l3 14l7 11l10 13l5 10l9 13l9 12l5 13l8 11l22 13l13 -1l10 1l16 1l13 -2h11l14 1l12 -13l5 -16l-1 -14l2 -12v-14l1 -16v-12l1 -16l2 -14l1 -13l-1 -14l1 -13l1 -14l4 -14v-15l3 -15l-3 -12l3 -15l1 -15l-1 -13l1 -14
l3 -15l-1 -12v-15l3 -13l-1 -16l5 -14l2 -28l1 -13l1 -15l-2 -12v-15l4 -13l-2 -14l1 -14l2 -15v-13l1 -16l3 -14l2 -14l1 -13v-13l1 -16v-12l-1 -14l4 -15l2 -13l-3 -14l-12 -16l-13 -1l-31 3l-14 -2zM244 276l13 1l17 -1h29l12 1h16l14 -2l15 1h10l18 1l11 -2l18 1l14 -1
l13 13l-2 16v13l-3 14l1 14l-1 13l-1 16l-2 11v15l2 14l-3 13l-2 15v15v13l-1 13l-2 15l2 13v15l-3 14l1 12l-4 14l3 14l-6 15l-9 -12l-9 -11l-4 -14l-11 -10l-5 -13l-5 -10l-8 -14l-7 -12l-8 -11l-7 -12l-6 -11l-7 -11l-6 -12l-11 -12l-4 -13l-11 -12l-7 -12l-7 -10l-3 -13
l-7 -11l-11 -13l-4 -12l-9 -12l-8 -12l-5 -11l-8 -12z" />
    <glyph glyph-name="B" unicode="B" horiz-adv-x="608" 
d="M594 483l-6 -12l-10 -13l-6 -14l-9 -10l-7 -12l-10 -10l-11 -11l-9 -10l-11 -8l-14 -6l-12 -6l10 -8l13 -7l10 -9l9 -11l9 -9l7 -11l9 -13l2 -12l6 -13l2 -13l3 -13l-2 -30l-3 -14v-15l-9 -29l-7 -11l-3 -14l-6 -13l-10 -11l-7 -12l-5 -10l-8 -11l-12 -11l-11 -10l-7 -7
l-11 -9l-11 -7l-15 -7l-10 -8l-13 -5l-16 -3l-9 -4l-13 -4l-15 -2l-15 -4l-26 -2h-31h-41l-13 -1h-15l-15 1l-12 -1h-17l-15 1l-14 -1l-13 3l-15 -3l-13 3l-13 -3h-16l-11 3l-18 -2l-11 2l-13 12l6 14l3 12l3 13l7 14l3 14l2 15l6 13l2 13l5 13l8 13v14l7 15l2 11l4 14l7 15
l3 12l5 14l3 12l3 14l3 14l6 14l3 12l5 16l2 12l7 15l1 12l8 13l4 13v15l6 12l7 13l3 14l2 14l5 13l4 13l5 15l3 14l6 13l1 13l6 12l4 16l2 13l6 13l2 14l4 14l4 11l4 16l5 13l6 13l5 14l16 14h15l14 -2l14 1l11 -1h16l12 1l14 1l13 -1l15 1l16 -1l11 -1l13 1l16 1l28 -3h12
l15 -1l17 -3l10 -6l15 -3l12 -6l10 -8l12 -8l13 -12l5 -11l11 -12l5 -11l6 -15l3 -12l1 -14l1 -29l-3 -13l-2 -12l-6 -14zM405 411l12 2l28 11l10 4l13 9l10 9l11 10l6 12l8 11l5 13l10 26l1 15l1 25l-6 13l-3 13l-11 13l-7 9l-14 5l-16 6l-14 3l-29 1l-13 -1h-29l-17 1h-43
l-15 -14l-8 -15l-2 -11l-4 -13l-6 -15v-13l-5 -11l-5 -14l-6 -13v-14l-4 -12l-5 -12l-3 -13l-5 -15l-5 -13l9 -11l14 -2h14l10 1l15 1l14 -2l14 2h27l15 -1h28zM475 212v15v30l-2 15l-4 14l-10 11l-6 10l-13 9l-14 6l-12 7l-27 4l-32 1l-11 1h-16l-15 -2h-26l-15 1h-29
l-10 -1l-20 -12l-7 -16l-3 -13l-5 -14l-4 -14l-2 -11l-5 -16l-4 -12l-6 -14v-14l-5 -15l-4 -12l-4 -15l-5 -14l-8 -27l-6 -13l8 -14l18 2l13 -1l10 -1h15l13 2l14 -1h12l15 -1l13 2h30l27 -1l14 2l14 2l12 3l16 5l12 7l13 8l12 9l9 9l11 13l7 9l6 13l5 13z" />
    <glyph glyph-name="C" unicode="C" horiz-adv-x="659" 
d="M451 632l-14 -2l-14 -2l-27 -7l-13 -5l-10 -7l-14 -7l-9 -5l-15 -9l-8 -8l-15 -10l-6 -8l-14 -11l-10 -10l-5 -11l-10 -12l-8 -10l-10 -13l-5 -11l-7 -12l-6 -13l-9 -12l-8 -13l-5 -13l-6 -14l-3 -13l-2 -14l-6 -12l-3 -14l-8 -28l-3 -13l-1 -16l-7 -13l1 -15l-1 -13v-27
l-1 -15l6 -14l1 -15l4 -11l6 -13l6 -13l3 -12l8 -13l10 -8l11 -11l9 -8l16 -6l13 -6l13 -3l13 -3l11 -3l15 -1l28 -2l15 1l15 1l24 5l13 6l13 3l18 4l10 8l11 5l14 6l15 7l9 9l11 7l10 9l18 -5l5 -13l7 -12l8 -15l5 -13l-6 -21l-15 -10l-9 -6l-15 -7l-13 -9l-8 -5l-16 -6
l-11 -6l-13 -6l-15 -5l-16 -4l-12 -4l-12 -3l-16 -2l-12 -3l-14 -1h-15l-15 -1l-28 -1l-15 1h-11l-14 4l-16 2l-13 5l-12 2l-16 6l-9 6l-14 6l-13 8l-7 9l-15 9l-6 8l-11 13l-8 10l-8 11l-4 12l-7 13l-8 13l-3 12l-6 14l-2 14l-4 13l-1 14l2 15l-2 13l-2 29l-1 12l5 15l2 14
l1 15l3 12l-1 16l7 13l8 26l3 16l5 13l2 14l5 11l7 14l7 13l5 13l7 13l4 13l9 12l3 14l11 10l7 14l5 10l8 12l8 12l12 11l10 10l7 10l9 12l15 7l9 10l10 8l12 11l22 13l11 8l17 8l9 4l15 7l14 3l12 5l15 2l14 6l11 1l14 3l17 -1l10 2l28 -1l15 1l16 -3l15 -4l11 -2l13 -6
l13 -7l12 -7l9 -7l10 -10l14 -10l9 -10l7 -10l8 -14l4 -12l4 -12l4 -15l4 -13l4 -13l-2 -15v-26l-2 -13l-1 -15l-14 -11h-59l-8 12l2 10v12v29l-1 13l-7 13l-5 14l-10 12l-8 11l-11 9l-13 6l-12 4l-17 6l-15 1z" />
    <glyph glyph-name="D" unicode="D" horiz-adv-x="690" 
d="M463 698l12 -1l29 -2l15 -4l12 -4l15 -4l12 -5l16 -6l9 -5l15 -8l11 -9l11 -11l7 -8l12 -10l6 -12l9 -12l5 -14l5 -13l7 -12l2 -13l7 -15l1 -13l3 -15l2 -14v-14l1 -27l-2 -14l1 -13l-5 -13v-15v-12l-6 -14v-13l-9 -25l-2 -14l-5 -15l-5 -11l-6 -15l-7 -13l-3 -11l-6 -14
l-8 -12l-6 -12l-6 -12l-6 -15l-7 -12l-10 -10l-7 -13l-8 -10l-6 -10l-12 -12l-9 -11l-9 -10l-11 -7l-11 -9l-10 -11l-10 -8l-11 -6l-13 -9l-13 -5l-12 -7l-13 -7l-13 -4l-9 -5l-14 -4l-16 -2l-14 -3l-14 -5h-14l-14 -4l-13 -1l-14 2h-28l-11 -2l-16 -1l-30 3l-15 -2l-11 2
l-14 -2l-17 2l-16 -3h-11l-16 3h-16l-11 -2l-13 2l-19 -3l-13 3l-9 13l4 11l5 16l3 12l6 13v14l8 13l4 13l1 14l3 13l4 14l8 13v15l7 12l3 13l2 15l4 13l8 13l2 14l6 13l5 14l2 15l5 12l1 15l6 11l6 14l3 13l3 14l2 15l4 12l6 14l3 13l6 15l4 12l5 15l2 12l3 14l8 12v15
l7 14l1 11l7 15l3 14l5 13l1 13l8 13l1 14l4 15l6 13l1 12l4 14l19 13l13 2l18 -2l13 1l14 -1h25l16 2l14 -1l15 1h15l13 -2l29 2zM587 371l1 16l1 14l4 12l2 17v12l1 28l1 15l-4 14l-3 13l-3 12l-4 14l-8 11l-5 13l-11 11l-9 9l-10 9l-11 8l-11 5l-16 8l-9 3l-14 3l-13 1
l-14 3l-30 -1l-12 2h-19l-28 -2h-28l-13 2l-19 -16l-3 -11l-7 -15l-2 -14l-7 -12l-3 -15l-1 -12l-8 -13l-1 -15l-5 -12l-4 -16l-4 -13l-6 -14l-3 -11l-2 -15l-5 -12l-3 -14l-7 -13v-14l-4 -14l-8 -13l-5 -15l-4 -13l-1 -12l-4 -13l-7 -16l-3 -11l-4 -14l-1 -13l-6 -15
l-3 -13l-7 -14v-13l-12 -27l-1 -15l-7 -12l-2 -14l-4 -13l10 -12h25l17 -1l13 1l14 -2h15l14 2l12 -2l14 1l29 -1l15 2l26 5l12 3l16 3l12 6l10 5l14 6l12 5l12 7l10 8l22 20l7 10l12 10l6 9l11 12l5 10l8 14l9 12l8 11l5 12l6 12l7 13l2 14l6 14l4 13l6 14l5 12z" />
    <glyph glyph-name="E" unicode="E" horiz-adv-x="550" 
d="M598 620l-14 1h-28l-11 1l-17 -1h-12l-15 1l-16 -2h-13l-13 2l-12 -2h-15l-29 2h-25l-28 -2l-29 2l-17 -16l-7 -13l-4 -12l-4 -14l-1 -14l-6 -14l-5 -13l-4 -14l-5 -15l-4 -12l-3 -14l-4 -13l-3 -14l-8 -15l-3 -14l10 -11h15l12 -2l15 2h25l17 -1l11 1h28l14 -1h12l15 -1
l13 2h15l14 -1l13 1l12 -1h27l12 -14l-3 -12l-4 -14l-7 -13l-2 -15l-16 -14l-18 1h-13l-11 1l-14 -2h-15l-12 1l-16 -1l-14 1l-12 1l-28 -2l-14 1l-15 -1l-12 2h-16l-10 -1h-42l-21 -13v-13l-8 -15l-4 -13l-1 -13l-6 -13l-2 -15l-4 -12l-5 -13l-6 -14l-3 -14l-1 -14l-8 -14
l-3 -13l-4 -13l-1 -13l-5 -12l9 -14h11l18 -1l10 2l17 -2l14 2l13 -2l29 2l14 -1h12l16 -1l15 1h24l17 -1h11l16 2l15 -2l11 1h32l11 1l10 -14l-4 -13l-5 -15l-2 -13l-4 -15l-18 -11l-16 -2l-13 -1l-16 3l-12 -3l-15 1l-15 -1l-16 3h-10l-15 -2h-29l-13 2l-15 -3l-16 3h-13
l-15 -3l-12 3l-14 -2l-18 2l-14 -2l-13 2h-14l-13 -3l-14 3l-29 -3l-15 3h-15l-9 12l3 14l8 12l1 13l3 14l8 15l3 13l2 12l4 16l7 13l5 14v13l8 14l4 13l1 12l5 13l2 13l4 16l5 11l5 14l7 14l3 14l2 12l6 15l4 12l4 14l5 15l3 11l2 15l5 13l5 13l6 14l1 13l4 15l4 12l7 15
l4 14l2 12l5 15l4 13l1 13l5 14l5 11l3 15l6 13l4 13l4 14l6 13v14l6 15l3 12l18 14h15l15 -1l16 2l14 -2h15l26 2l14 -1h45l11 -1l14 1h16l16 1l12 -1l14 1h17l14 -2l13 1l14 -1h11l17 2l16 -2l12 2l13 -1l12 -13l-5 -15l-2 -12l-6 -14l-3 -12z" />
    <glyph glyph-name="F" unicode="F" horiz-adv-x="516" 
d="M593 622l-14 -2h-17l-14 1l-13 1l-12 -2h-17l-12 1h-32l-12 1l-12 -1h-16l-13 1l-17 -1h-11l-18 1l-15 -1h-13l-14 1l-15 -15l-5 -12l-5 -14l-2 -14l-6 -12l-3 -12l-4 -14l-3 -12l-4 -14l-6 -14l-2 -12l-7 -13l-2 -14l-3 -13l-8 -26l-6 -14l9 -12l17 1l13 -2l14 2l14 -2
l11 1l18 1l10 -2l18 2h11l17 -1l10 -1h15l14 2h13l16 -2l27 2l13 -1l11 -14l-6 -12l-4 -15l-2 -12l-4 -16l-20 -11l-13 -2h-12l-13 1l-17 1l-15 -2l-11 2l-16 -1h-39l-15 1l-14 -2l-13 2h-17l-15 -2l-14 1h-14l-11 -1l-19 -12l-7 -13l-2 -14l-5 -14l-2 -12l-4 -14l-6 -14
l-5 -13l-4 -13l-1 -12l-5 -14l-2 -14l-5 -13l-4 -13l-6 -14l-3 -12l-3 -14l-5 -11l-3 -15l-7 -12l-3 -15l-5 -11l-17 -16l-14 3l-12 -3l-13 1h-24l-9 15l3 11l6 14l2 15l7 14v11l8 15l4 14l4 13l1 12l4 14l5 13l5 15l3 14l4 12l3 15l4 12l4 15l5 12l5 15l5 12l6 15v12l4 15
l8 27l4 11l5 13l5 16l4 11l6 14l2 15l5 13l2 12l4 14l8 14l1 14l6 13l1 13l4 15l4 12l8 13l5 13l4 16v13l7 12l1 13l5 15l6 13l3 15l2 13l22 13l11 1l14 -1l15 1l14 -2l16 2h12l17 -2l14 1h13l15 -1l13 1h15l12 1l16 -1l11 1h17l14 -1h13l13 -1l12 1l14 -1h18l11 2l15 -1
l12 1h14l10 -16l-5 -11l-3 -14l-3 -12l-3 -14z" />
    <glyph glyph-name="G" unicode="G" horiz-adv-x="674" 
d="M312 -14l-15 1l-12 1h-15l-14 5l-13 3l-15 2l-13 5l-13 7l-12 5l-14 8l-10 7l-11 9l-12 10l-8 12l-9 9l-7 11l-7 14l-9 11l-5 14l-3 14l-6 13l-6 12l1 14l-5 15l-1 14l-1 14v27l3 14l-1 15v13l3 13l5 13l1 13v13l11 27l4 14l4 14l3 13l3 13l6 16l7 13l2 13l9 11l5 15
l5 10l8 14l6 12l9 11l6 13l10 12l6 11l12 11l5 12l12 10l9 10l8 11l12 8l11 10l10 7l13 11l12 5l12 9l10 6l14 6l14 7l10 3l31 8l13 3l11 4l13 1l16 1l44 3l11 -3h18l9 -3l16 -5l12 -6l16 -3l12 -8l11 -9l10 -8l8 -10l11 -9l8 -13l6 -12l8 -11l4 -14l5 -14l3 -11l2 -15
l3 -13v-29l-1 -13l-5 -14l-15 -14l-14 1h-40l-13 15l6 15v30l-3 14l-6 13l-5 12l-6 13l-8 9l-11 10l-11 8l-17 5l-26 5l-15 2h-27l-10 -1l-17 -1l-11 -5l-12 -2l-16 -6l-13 -6l-22 -14l-9 -7l-11 -8l-10 -8l-13 -11l-11 -10l-6 -10l-10 -9l-8 -12l-9 -13l-5 -12l-6 -11
l-11 -12l-10 -24l-7 -15l-4 -12l-4 -12l-4 -13l-8 -14l-1 -13l-6 -16l-8 -26l-2 -14l-1 -14v-13l-4 -12v-14l-2 -29l3 -13l1 -15l1 -12l5 -13l3 -14l9 -14l7 -12l7 -11l10 -10l7 -11l11 -6l23 -15l13 -4l15 -6l14 -2l15 -3l10 -1l27 1h14l18 2l10 2l15 3l16 4l13 5l11 3
l15 5l13 6l9 7l19 21l3 16l2 12l6 14l3 14l5 14l5 13l2 14l3 13l5 15l-7 13l-17 2l-11 -2l-12 1l-17 -1l-14 2l-13 -2l-11 2l-15 -1h-16l-6 12l2 12l2 14l3 11l5 13l18 11l16 2h12l11 -2l18 1l14 -1h13l11 1l17 1l13 -2l10 2l30 -2l12 1h16l13 -1l9 -12l-6 -15l-4 -11
l-1 -14l-5 -14l-3 -12l-9 -27l-3 -15l-4 -13l-7 -11v-15l-6 -13l-3 -14l-3 -13l-5 -12l-4 -13l-4 -15l-6 -13l-3 -12l-16 -21l-14 -7l-12 -8l-10 -7l-14 -6l-10 -9l-15 -4l-13 -5l-14 -5l-12 -4l-12 -3l-14 -4l-17 -3l-13 -3l-12 -1l-16 -2l-14 1z" />
    <glyph glyph-name="H" unicode="H" horiz-adv-x="669" 
d="M639 700l15 -1l10 1l14 1l15 -2h12l10 -12l-5 -15l-5 -13l-3 -12l-5 -14l-5 -14l-1 -13l-6 -14l-3 -13l-9 -28l-5 -14l-6 -13l-1 -13l-7 -14l-3 -13l-5 -13l-4 -14l-5 -14l-1 -12l-3 -13l-4 -16l-5 -13l-6 -14l-3 -12l-3 -13l-5 -13l-6 -14l-2 -14l-5 -14l-5 -14l-4 -11
l-6 -14l-2 -13l-5 -14l-1 -15l-7 -13l-3 -14l-6 -13l-1 -12l-5 -14l-6 -13l-5 -14l-2 -15l-5 -12l-8 -27l-4 -15l-6 -13l-3 -13l-5 -14l-17 -14l-14 1l-10 2h-13l-13 -2h-13l-9 13l3 14l3 14l9 28l6 13l2 13l7 14l1 13l5 15l4 13l7 14l1 11l5 16l3 13l7 13v13l8 13l2 14
l6 13l4 13l3 16l-7 12h-17l-14 1h-53l-18 -1h-12l-14 1h-13l-13 -1l-14 2h-18l-11 -1l-16 1l-12 -2l-15 1h-13l-16 1l-20 -14l-4 -16l-4 -13l-4 -13l-1 -14l-10 -25l-2 -16l-10 -25l-3 -14l-5 -15l-6 -11l-1 -16l-5 -12l-7 -13v-13l-6 -16l-2 -13l-8 -14l-2 -11l-5 -16
l-16 -13l-15 2l-9 -2h-17l-12 2h-14l-7 11l6 14l1 14l6 12l5 14l3 15l3 14l3 12l7 14l4 12l7 29l5 13l5 14l1 13l6 14l5 11l1 16l6 11l1 14l5 14l7 15l1 12l4 14l7 12l5 16l1 12l3 12l5 16l5 12l3 13l7 13l3 15l2 14l7 12l5 15l2 12l2 14l6 15l6 13v12l7 14l3 14l5 13l4 13
l2 15l5 12l4 14l5 14l6 13l2 13l17 15l13 -1l12 1h26l17 -2l7 -14l-2 -12l-4 -14l-5 -13l-3 -12l-5 -16l-5 -11l-2 -14l-6 -13l-2 -13l-6 -15l-7 -14l-3 -12l-2 -14l-6 -12l-2 -15l-7 -13l-1 -13l-4 -13l-5 -13l-4 -14l-6 -14l10 -13h16l15 2l14 -1l11 -1l17 1l11 -1h15
l15 1l15 -1l15 2l12 -2h13l15 1l13 -1h13l15 1h16l14 -1l11 1l18 13l6 14l6 12l3 14l5 14l3 14l5 13l2 13l4 14l4 11l3 14l8 14l6 26l5 14l5 14l5 12l2 15l5 13l2 13l7 12l2 14z" />
    <glyph glyph-name="I" unicode="I" horiz-adv-x="303" 
d="M43 12l4 14l4 13l3 13l5 15l3 12l4 14l1 15l5 14l3 12l7 15l5 12l1 14l5 12l3 13l6 14l5 14l5 13l2 14l2 13l5 15l6 12l4 14l3 15l5 13l2 12l4 15l5 11l6 16l4 11l1 14l14 40l6 15l2 14l3 13l7 14l1 12l7 14l4 12l4 14l2 14l7 15l3 12l4 15l3 11l4 14l6 13l5 15l4 13
l17 14h11l14 -1h24l13 2l13 -14l-7 -13l-3 -14l-5 -13l-3 -14l-4 -14l-6 -14l-4 -12l-5 -14l-1 -15l-6 -12l-1 -14l-5 -13l-4 -14l-3 -13l-4 -13l-5 -13l-4 -15l-6 -14l-2 -14l-6 -12l-4 -15l-5 -11l-3 -15l-6 -12l-1 -13l-5 -15l-6 -13l-1 -14l-7 -13l-2 -15l-3 -11l-8 -14
l-3 -15l-2 -13l-5 -14l-6 -13l-2 -13l-4 -14l-4 -13l-3 -13l-7 -13l-5 -13l-1 -15l-4 -12l-6 -16l-2 -13l-4 -13l-7 -12l-5 -15l-1 -13l-18 -12h-25l-25 -3l-16 1z" />
    <glyph glyph-name="J" unicode="J" horiz-adv-x="574" 
d="M188 -15h-14l-12 5l-15 2l-15 5l-11 5l-12 8l-15 9l-10 10l-19 20l-4 15l-6 11l-9 14l-4 14l-2 14l-2 14v14l1 29l1 15l2 13l1 15v14l3 14l20 12l16 2l14 -1h28l10 -15l-8 -14l-2 -14l-1 -14l1 -13l-2 -29l4 -14l3 -12l2 -15l8 -12l8 -11l12 -8l11 -8l14 -5l13 -2h30
l14 3l14 2l11 5l14 5l12 8l14 9l7 7l11 12l9 10l11 10l7 12l7 12l7 11l8 15l9 10l3 14l9 14l2 12l5 15l4 13l9 13l5 13l1 15l10 26l6 15v13l7 14l1 12l4 14l6 15l4 13l3 13l8 13l1 13l4 15l8 27l5 13l5 14l5 13l2 14l4 11l3 14l4 15l-9 12h-14l-10 2l-17 -2l-13 2h-15
l-10 -2h-16l-14 2l-13 -2l-17 2h-11l-13 -1l-15 1l-15 -2h-27l-13 2l-10 12l3 13l5 14l6 12v14l18 13l18 -2l11 2l13 -2h14l16 2l15 -2l13 2l14 -2l13 2l17 -1l12 1h14l13 -1l16 1l13 -2h15l14 1l12 1l14 -2h15l13 2l27 -2l13 -13l-7 -13l-1 -13l-6 -15l-5 -13v-14l-5 -12
l-5 -15l-3 -15l-5 -11l-7 -14l-1 -14l-5 -13l-5 -15l-2 -14l-3 -13l-5 -12l-7 -14l-4 -14l-1 -13l-7 -15l-2 -14l-4 -13l-5 -12l-3 -15l-4 -14l-3 -13l-13 -28v-12l-6 -14l-5 -15l-3 -11l-8 -13l-6 -16l-4 -13l-3 -13l-8 -13l-4 -13l-7 -12l-8 -12l-7 -13l-7 -11l-5 -14
l-10 -12l-10 -9l-8 -12l-8 -11l-11 -9l-8 -12l-11 -7l-10 -10l-13 -7l-12 -7l-25 -11l-15 -6l-12 -3l-13 -5l-14 -3l-15 -1h-43z" />
    <glyph glyph-name="K" unicode="K" horiz-adv-x="619" 
d="M657 685l-5 -11l-3 -15l-2 -13l-7 -14l-6 -12l-3 -12l-9 -13l-5 -14l-6 -12l-7 -12l-2 -14l-11 -12l-4 -10l-10 -13l-5 -10l-10 -14l-9 -9l-5 -13l-11 -10l-10 -11l-8 -9l-10 -11l-8 -9l-11 -11l-9 -7l-14 -10l-10 -8l-10 -8l-11 -8l-10 -21l5 -13l5 -14l4 -11l4 -13
l7 -14v-13l5 -13l4 -12l4 -13l7 -14l4 -13l3 -14l6 -12l3 -15l5 -12l5 -12l5 -13l4 -15l2 -11l6 -13l5 -13l4 -13l1 -13l8 -15v-11l-7 -13l-14 -3h-51l-20 16v12l-8 12l-5 26l-4 13l-8 14l-3 13l-4 15l-3 11l-4 15l-4 12l-6 15l-5 11l-2 15l-11 26l-2 13l-7 14l-3 12l-5 13
l-1 12l-8 14l-14 9l-16 -3l-11 -6l-14 -2l-15 -2l-17 -3l-13 -1l-25 -4l-20 -13l-3 -12l-7 -15l-1 -13l-5 -13l-6 -13l-3 -13l-2 -14l-8 -13l-1 -14l-7 -13l-4 -13l-3 -11l-1 -15l-5 -12l-5 -13l-6 -14l-2 -14l-4 -13l-4 -12l-6 -14l-18 -14l-16 2l-12 -3l-16 3h-16l-9 12
l2 13l7 13l3 14l2 15l3 12l5 14l6 12l3 14l5 15l5 12l4 15l4 14l2 13l6 12l1 15l5 12l6 13l3 15l4 12l6 14l2 14l7 13l2 15l3 11l6 14l4 15l3 13l8 25l4 15l4 14l8 25l4 16l3 12l7 13l5 15l3 13l1 13l5 12l5 16l7 11l1 14l7 14l2 14l6 12l3 15l2 12l3 14l4 13l21 14l10 1
l16 1l11 -2l14 2h14l5 -16l-1 -12l-6 -15l-1 -13l-6 -13l-3 -12l-7 -14l-3 -14l-2 -13l-4 -14l-3 -14l-5 -12l-8 -15l-1 -13l-6 -13l-5 -14l-4 -14l-3 -13l-4 -12l-2 -13l-4 -14l-7 -15l-3 -11l12 -14l13 3l14 3l11 1l15 3l16 6l12 3l12 4l15 5l11 8l10 6l15 6l12 9l8 6
l12 10l9 10l15 7l6 11l9 9l12 11l10 10l8 14l7 11l5 12l10 10l9 12l6 14l7 12l2 13l10 13l4 14l5 13l3 12l6 13l2 13l23 15l12 -1h13l18 2l13 -2z" />
    <glyph glyph-name="L" unicode="L" horiz-adv-x="540" 
d="M154 81l14 1h18l10 -1h14l19 -1l13 1h13l15 1l14 -1h29l14 -1l15 2l11 -2h13l17 2h13l29 -2l12 2h16l15 -2l11 -14l-8 -13l-4 -14l-3 -11l-7 -16l-17 -14l-15 3h-13l-12 -3h-14l-16 1l-10 -1h-57l-15 1l-15 -1h-11l-17 1l-10 2h-16l-12 -2h-14l-14 -1h-29l-13 3l-14 -2
h-13l-15 -1l-11 3l-15 -3l-29 3l-7 11l2 14l5 13l1 15l8 12l4 14v15l7 13l5 12v15l6 13l7 12l4 15l1 14l8 27l3 11l6 16l5 12l3 13l6 13l5 15v13l5 15l6 13l5 14l1 11l5 15l6 12v14l7 13l2 14l7 15l4 11l1 16l6 13l6 12l3 13l2 16l3 13l13 25v14l7 14l1 12l6 16l4 11l6 15
l2 14l6 14l3 12l16 15l12 -1h30l10 1h16l7 -14l-3 -15l-8 -12l-1 -15l-3 -12l-13 -40l-4 -14l-4 -13l-5 -16l-7 -11l-2 -13l-9 -28l-2 -14l-7 -12l-2 -16l-4 -12l-5 -15l-6 -12l-3 -14l-4 -13l-5 -14l-4 -12l-1 -15l-5 -14l-7 -13l-1 -13l-3 -13l-6 -14l-3 -12l-3 -14
l-7 -14l-4 -13l-5 -15l-4 -12l-5 -14l-2 -12l-3 -15l-4 -13l-4 -13l-3 -14l-4 -13l-7 -14z" />
    <glyph glyph-name="M" unicode="M" horiz-adv-x="865" 
d="M29 13l5 13l6 13l4 15l5 14l1 11l5 16l2 13l11 27l2 13l8 14l1 13l6 12l4 13l6 15l1 13l5 15l7 13l3 12l5 13v15l8 13l2 13l3 13l6 16l6 12l4 13l5 15l1 13l6 14l4 13l5 13l3 14l10 27l2 12l3 15l4 12l5 15l3 12l6 15l3 13l6 13l2 12l6 15l3 13l5 14l7 14l3 13l1 12
l21 16l15 -2l12 1h16l12 1l14 -2l18 -12l2 -16l4 -12l1 -15l6 -12l3 -15l1 -14v-12l5 -15l3 -27l3 -12l2 -15l6 -13v-14l5 -15l-1 -12l4 -15l2 -12l2 -14l3 -13l3 -13l6 -15l-2 -14l7 -12l1 -15v-14l5 -12l2 -16l2 -14l2 -13l3 -12l5 -13l10 10l13 11l6 10l9 13l8 9l8 11
l9 10l8 12l11 12l8 11l5 11l13 10l4 12l11 10l11 12l8 10l9 11l8 12l7 12l17 20l9 12l6 10l10 13l8 10l7 11l12 10l6 12l10 10l8 11l11 12l5 12l10 9l11 12l7 12l9 9l7 12l8 11l8 10l12 13l22 10l12 -2l13 1h28l13 1l16 -1h12l11 -14l-4 -12l-7 -16l-1 -12l-5 -13l-2 -13
l-5 -16l-3 -13l-7 -12l-1 -14l-5 -13l-4 -15l-6 -13l-1 -13l-5 -14l-5 -12l-6 -13l-4 -14l-4 -14l-2 -15l-4 -13l-5 -13l-2 -14l-3 -12l-8 -13l-1 -15l-4 -12l-3 -13l-6 -14l-4 -15l-2 -12l-7 -13l-1 -15l-8 -14l-2 -12l-2 -14l-7 -15l-1 -11l-8 -15l-4 -14v-11l-12 -29v-13
l-7 -12l-3 -15l-6 -14l-6 -27l-3 -13l-3 -14l-20 -13l-17 -1l-15 1l-13 2l-15 -3l-15 15l5 12l3 15l8 14l3 11l1 13l7 16l4 12l1 13l4 15l6 11l6 14l1 15l7 12l1 13l6 14l1 13l6 14l5 13l1 13l6 13l3 12l7 16l2 13l2 12l5 15l6 11l5 14l2 14l3 14l4 12l5 13l4 13l3 14l5 14
l3 13l7 13v14l5 14l3 12l5 13l2 15l-13 -13l-8 -11l-11 -10l-8 -12l-8 -10l-6 -10l-8 -13l-10 -11l-10 -9l-7 -13l-10 -10l-10 -12l-8 -10l-8 -11l-20 -22l-8 -10l-7 -12l-7 -10l-12 -13l-9 -9l-6 -12l-8 -11l-10 -12l-7 -9l-9 -12l-11 -12l-10 -10l-5 -12l-9 -10l-8 -11
l-10 -10l-11 -12l-10 -10l-6 -13l-7 -10l-11 -12l-9 -10l-7 -11l-12 -11l-24 -12l-19 14l-5 13v15l-4 12l-4 15v14l-4 13l-3 13l1 15l-6 14v12l-3 15l-5 14l-2 12l-6 27l-3 15l-2 13l-1 15l-3 13l-3 13v13l-7 14l1 16l-11 41l1 12l-6 15l-4 12l1 15l-4 13l-4 15l-7 -14
l-4 -13l-6 -15l-1 -12l-4 -13l-8 -13l-1 -14l-4 -13l-3 -15l-5 -12l-6 -14l-2 -13l-6 -13l-6 -14v-12l-8 -15l-4 -12l-2 -13l-5 -15l-2 -14l-6 -13l-7 -27l-4 -11l-5 -15l-6 -12l-4 -13l-1 -13l-7 -15l-1 -14l-3 -12l-5 -14l-5 -13l-4 -14l-3 -13l-6 -12l-4 -15l-4 -11
l-6 -15l-2 -14l-3 -13l-20 -11l-28 -3l-18 1l-16 -1z" />
    <glyph glyph-name="N" unicode="N" horiz-adv-x="730" 
d="M30 14l5 11l5 14l3 14l2 13l8 15v12l5 13l7 14l3 15l3 12l3 15l5 14l4 13l5 13l3 12l6 15l2 13l5 13l3 14l6 13l4 13l4 13l6 14l5 15l3 12l5 14l1 13l6 14l6 12l5 29l5 14l6 12l2 14l3 14l9 12l4 14v13l5 15l4 13l4 12l8 15v12l6 15l5 12l4 15l6 13l2 14l4 13l4 14l20 14
l10 -2l15 2h28l11 -1h15l17 -15l7 -12v-14l7 -14l2 -14l4 -13l1 -13l3 -16l6 -13l3 -14l1 -13l8 -15l-1 -11l5 -16l3 -14l7 -11l-1 -15l6 -13l2 -13l3 -15l4 -15l7 -11l-1 -15l5 -14l2 -14l7 -12l4 -15l1 -13l3 -14l7 -14l1 -13l6 -15l1 -14l2 -12l7 -15l4 -12v-15l7 -13
v-14l3 -14l11 -28l6 -11l8 13l2 12l2 15l8 11l3 14l1 13l6 15l3 13l6 13l4 12l6 15l4 14l4 11l1 16l4 12l4 13l8 14l2 12l7 14v14l7 12l2 16l7 12l4 14l1 13l6 12l6 14l4 13l3 15l3 11l2 16l9 12l3 14l1 13l5 14l3 14l7 11l6 15v14l8 11l4 14l1 14l6 12l19 14h12l16 2l13 -2
l14 1l12 -15l-6 -11l-3 -16l-2 -13l-4 -13l-5 -13l-6 -13l-4 -15l-5 -14l-5 -11v-14l-6 -14l-4 -12l-7 -14v-15l-6 -13l-5 -13l-5 -15l-3 -13l-3 -13l-6 -14l-1 -13l-6 -14l-6 -12l-3 -13l-3 -15l-6 -12l-5 -15l-2 -13l-5 -12l-6 -16l-2 -13l-6 -14l-1 -13l-6 -12l-5 -13
l-6 -29l-4 -12l-6 -13l-4 -13l-2 -14l-8 -15l-1 -14l-6 -11l-1 -14l-9 -14l-1 -15l-4 -13l-5 -12l-2 -13l-21 -15h-13l-16 2h-12l-15 -2h-30l-15 13l-3 16l-7 12l-2 14l-4 14v13l-6 14l-2 12l-6 16l-1 13l-9 25l-2 16l-6 12l-1 14l-5 12l-1 16l-5 13l-4 13v14l-8 12l-1 16
l-4 12l-3 15l-7 25l-3 15l-6 14l1 14l-7 11v16l-8 11l-1 15l-6 14l-1 14l-4 14l-3 13l-1 14l-6 12l-2 15l-3 12l-4 14l-6 15l-7 -15l-8 -12l-4 -28l-7 -12l-5 -14l-2 -14l-5 -12l-1 -14l-4 -14l-8 -13l-1 -12l-4 -13l-4 -14l-5 -14l-3 -13l-5 -13l-3 -13l-7 -13l-2 -14
l-5 -13l-4 -12l-3 -13l-7 -14l-1 -14l-8 -14l-3 -12l-1 -13l-4 -14l-5 -12l-4 -15l-5 -12l-2 -15l-5 -13l-5 -13l-6 -11l-5 -14l-1 -14l-7 -13l-3 -13l-3 -15l-3 -12l-7 -14l-19 -11h-15l-11 -3l-17 3l-15 -2z" />
    <glyph glyph-name="O" unicode="O" horiz-adv-x="727" 
d="M293 -16l-11 1l-16 1l-11 4l-31 6l-9 5l-26 11l-15 7l-12 8l-9 10l-9 8l-12 9l-6 13l-9 11l-9 12l-3 12l-8 13l-6 12l-1 15l-6 14l-1 14l-3 14v13l-1 13l-1 29l3 17v12l2 17v14l2 14l2 15l5 15l8 28l5 11l1 15l8 14l5 11l5 15l3 12l6 12l7 14l14 23l6 12l6 12l8 11l7 11
l12 11l5 11l11 11l11 12l7 10l12 9l9 10l10 10l13 9l9 7l10 9l13 7l11 6l14 9l11 6l13 5l14 5l12 4l11 5l15 2l14 5l12 1l16 2l12 2h13h28l15 1l14 -3l15 -2l12 -3l14 -1l11 -7l16 -5l11 -5l13 -5l10 -8l11 -8l12 -8l9 -12l7 -10l8 -9l8 -12l9 -13l6 -11l6 -13l6 -14l-1 -12
l6 -13l1 -13l1 -15l4 -14l1 -14l-3 -29l1 -13l-1 -16l-4 -13l1 -15l-4 -16l-1 -13l-6 -15l-4 -27l-4 -15l-8 -13l-4 -13l-4 -14l-8 -11l-5 -14l-2 -14l-8 -12l-7 -11l-7 -13l-9 -12l-3 -11l-8 -12l-9 -12l-9 -11l-10 -9l-9 -11l-11 -11l-9 -11l-7 -10l-14 -8l-7 -9l-14 -8
l-9 -10l-10 -6l-13 -8l-11 -7l-15 -8l-10 -5l-14 -6l-14 -5l-12 -4l-14 -5l-14 -3l-13 -5l-13 -1l-15 -1l-11 -1l-14 -1zM335 70h14l10 4l17 3l11 4l15 4l10 4l15 6l12 7l10 7l12 6l9 10l13 9l9 7l11 10l12 10l9 10l10 12l4 9l11 13l6 10l7 12l8 13l9 11l4 15l7 11l7 13
l3 14l3 11l6 15l3 12l9 27l1 16l4 15l2 13v15l1 14l2 26l-1 14l-4 16l-2 14l-4 14l-4 11l-4 13l-6 14l-6 11l-9 11l-12 10l-8 7l-15 7l-9 8l-17 4l-9 6h-18l-11 2h-28l-13 1l-27 -7l-15 -3l-11 -4l-12 -6l-16 -7l-11 -6l-10 -6l-13 -9l-12 -9l-8 -8l-10 -9l-12 -9l-9 -12
l-8 -11l-12 -11l-8 -10l-5 -12l-10 -12l-5 -11l-9 -12l-7 -13l-5 -12l-6 -14l-6 -12l-4 -14l-5 -13l-5 -12l-5 -15l-8 -43l-4 -14l1 -12l-1 -16l-5 -13l1 -28l4 -16l1 -13v-15l6 -13l7 -15l4 -12l7 -11l7 -13l9 -11l14 -9l11 -8l12 -6l13 -5l12 -6h16l15 -2z" />
    <glyph glyph-name="P" unicode="P" horiz-adv-x="583" 
d="M452 700l13 -3l19 -1l10 -2l17 -4l13 -6l11 -7l13 -5l12 -9l10 -10l11 -10l8 -11l9 -12l5 -12l9 -12l4 -15l5 -14l3 -14l-1 -13l-3 -41l1 -13l-2 -12l-8 -27l-2 -14l-7 -12l-2 -14l-5 -12l-9 -11l-10 -13l-5 -12l-11 -10l-9 -10l-7 -10l-10 -10l-14 -8l-10 -10l-9 -7
l-13 -8l-13 -6l-12 -6l-16 -5l-26 -8l-12 -3l-15 -3l-14 -2l-12 -2l-13 -2h-27h-17l-10 1l-17 -1l-9 2l-16 -1h-11l-17 1l-11 -2l-14 2l-17 -16l-6 -13l-3 -13l-3 -11l-4 -13l-6 -15l-4 -14l-2 -12l-4 -14l-3 -13l-4 -11l-6 -15l-3 -13l-5 -14l-1 -11l-7 -15l-2 -11l-6 -15
l-20 -11l-13 -3l-30 3l-14 -3l-10 14l3 13l4 15l1 14l12 27l2 12l2 15l6 14l2 12l7 14l4 14l6 14l2 13l4 13l5 12l2 15l5 12l4 14l5 13l6 14l2 13l4 13l3 16l7 12v14l7 12l5 13l4 16l2 12l6 14l5 14l2 14l4 13l4 13l5 12l2 16l6 11l3 14l4 13l4 15l5 14l5 11l5 16v11l7 15
l3 14l3 13l4 14l7 12l2 13l18 16l13 -2l11 2l17 -2h11l15 2l23 -1h13l14 -1l16 2l13 -1h25h28zM532 490l2 14l-3 29l-2 11l-2 14l-14 25l-10 11l-11 7l-12 8l-11 4l-17 4l-12 3h-30l-12 -1l-12 2l-13 -2l-28 2h-10l-16 -2l-19 -14v-11l-12 -28l-3 -11l-5 -13l-1 -13l-5 -14
l-6 -13l-1 -14l-7 -14l-1 -13l-6 -12l-4 -13l-1 -15l-5 -11l-3 -15l-5 -13l-6 -12l-1 -14l-4 -11l8 -13h39l16 -1l10 -1l17 1l13 1h15l26 -1l12 3h13l12 6l17 2l10 7l13 7l12 6l10 9l9 9l10 9l11 11l7 11l4 12l7 13l5 12l6 13z" />
    <glyph glyph-name="Q" unicode="Q" horiz-adv-x="724" 
d="M560 72l8 -13l6 -11l1 -15l10 -11l5 -12l5 -12l8 -14l7 -11l9 -11l12 -11l9 -9l10 -9l12 -8l9 -8l12 -5l14 -6l14 -2l15 -5l11 -16l-5 -14l-7 -14v-13l-20 -13l-14 4l-12 5l-15 4l-15 5l-10 7l-16 6l-8 8l-11 9l-13 9l-11 10l-7 10l-21 21l-7 12l-7 12l-8 13l-4 11l-8 13
l-7 13l-6 12l-4 14l-16 4l-17 -6l-10 -5l-15 -6l-13 -6l-13 -4l-11 -4l-14 -6l-17 -2l-14 -2l-13 -3h-16l-14 -3h-29l-12 1l-16 1l-14 3l-12 5l-15 3l-11 5l-10 5l-13 6l-15 7l-9 10l-13 9l-8 7l-9 12l-10 11l-8 10l-5 11l-5 14l-6 12l-5 13l-5 15l-4 11l-2 14l-3 16l-2 14
l3 14v27v16v13l-1 14l4 15l2 14l2 15l6 14l4 30l4 11l9 14l3 14l4 14l5 11l7 15l4 10l5 15l6 11l8 11l8 14l8 12l7 12l8 11l8 9l8 12l8 12l11 10l10 11l11 8l7 9l11 10l12 8l12 9l13 8l8 9l13 7l12 6l13 7l12 5l11 4l17 4l12 6l27 6l13 3l13 3l14 1h12l29 1l13 -2h17l15 -3
l13 -3l14 -4l12 -5l14 -5l12 -6l12 -9l14 -7l22 -17l8 -11l11 -11l6 -11l6 -14l9 -10l3 -14l6 -15l5 -11l6 -16v-14l5 -14l-1 -14l1 -15l-1 -28l-2 -14l-1 -15l1 -14l-5 -17v-14l-5 -13v-14l-10 -30l-4 -14l-3 -13l-4 -12l-8 -14l-3 -12l-9 -14l-3 -12l-9 -13l-4 -12l-8 -12
l-7 -13l-7 -11l-10 -13l-8 -10l-7 -11l-12 -12l-10 -12l-10 -9l-9 -11zM176 324v-13l-5 -15l-1 -15l1 -13l-5 -14l3 -30l1 -12l3 -15l1 -14l10 -2l7 10l9 10l13 11l11 10l11 8l9 6l11 9l12 5l16 5l12 5l15 4l13 1l14 3l28 -2l13 1l15 -2l24 -7l16 -7l11 -6l14 -8l8 -7l10 -8
l11 -10l7 -11l12 -13l5 -12l17 -1l18 23l6 9l8 12l6 13l6 10l8 12l8 14l4 11l4 12l8 12l4 14l2 12l6 13l5 29l6 14l2 14l3 15l-3 14l3 12l-2 29v16l-2 14l-3 11l-3 14l-5 15l-3 13l-6 11l-10 11l-9 12l-9 10l-12 7l-11 9l-12 7l-11 5l-14 4l-17 2l-10 1l-29 -1l-15 -1
l-12 -1l-16 -2l-11 -4l-12 -6l-13 -5l-11 -5l-15 -8l-9 -6l-15 -8l-11 -10l-12 -7l-6 -12l-13 -8l-9 -12l-9 -10l-9 -10l-9 -10l-8 -13l-9 -11l-4 -14l-8 -12l-5 -10l-6 -13l-6 -14l-6 -14l-6 -13l-3 -12l-8 -13l-2 -13zM335 71l13 -1l13 4l12 2l11 3l16 6l14 5l10 6l10 5
l14 7l3 19l-4 11l-10 13l-9 10l-11 8l-13 11l-9 4l-15 6l-13 3l-14 3l-28 -1h-12l-13 -4l-17 -7l-11 -6l-13 -7l-7 -9l-10 -7l-17 -21l-11 -12l3 -22l10 -8l12 -5l13 -7l11 -4l14 -3l13 -1l16 -3z" />
    <glyph glyph-name="R" unicode="R" horiz-adv-x="625" 
d="M456 700l14 -2l16 -1l15 -4l10 -4l30 -10l12 -6l10 -10l9 -8l13 -11l5 -10l10 -11l6 -14l6 -13l3 -12l3 -16l3 -14l2 -13l-2 -30l3 -15l-4 -15l-6 -27l-2 -14l-6 -14l-7 -14l-8 -13l-7 -10l-4 -13l-8 -11l-12 -11l-8 -10l-10 -9l-14 -9l-8 -10l-15 -8l-8 -7l-17 -5
l-12 -6l-13 -7l-11 -4l-11 -16l6 -15l5 -13l4 -12l4 -13l7 -14l3 -11l5 -16l2 -11l5 -15l6 -11l8 -15l1 -13l5 -11l8 -14l5 -14v-13l9 -13l5 -13l3 -14l-7 -13l-14 2l-16 -2h-36l-19 15l-7 12l-4 12l-2 15l-4 14l-5 12l-6 15l-7 11l-3 14l-6 14l-4 14l-3 12l-4 13l-14 27
l-1 14l-8 14l-5 11l-1 14l-19 15l-14 -1h-18l-14 -1l-14 1l-15 -1l-13 2h-13l-14 -2l-23 -14l-1 -11l-3 -14l-7 -14l-2 -12l-3 -13l-12 -27l-2 -13l-2 -15l-6 -13l-4 -12l-5 -13l-4 -16l-1 -13l-5 -12l-6 -15l-2 -13l-7 -11l-16 -16l-16 3h-13l-18 -3h-16l-9 16l4 12l5 13
l2 13l3 14l9 28l6 14l5 13l4 12l3 16l2 11l8 14l1 15l5 11l5 14l4 13l3 16l2 13l5 13l8 13v15l6 11l2 16l8 13l2 13l5 14l2 12l7 13v15l5 14l7 13l4 13l1 14l6 12l6 15l1 13l5 14l6 13l4 12l3 13l2 15l7 12l2 14l4 13l5 14l6 14l2 14l6 13l2 14l5 14l19 13h23l12 1h16l12 -1
l26 1h43l13 -1h31h25zM538 492l2 14l-4 26v14l-4 12l-5 13l-7 11l-10 11l-13 10l-14 6l-12 5l-12 3l-16 2l-24 1l-14 1l-17 -2l-27 2h-29l-11 -1l-18 -14l-4 -15l-6 -12l-2 -15l-3 -12l-9 -13l-3 -14l-1 -13l-6 -15l-2 -12l-9 -16v-14l-6 -13l-3 -13l-5 -12l-6 -15l-2 -14
l-7 -14l-2 -12l7 -13h14l16 -1l14 1l13 -2h13l16 2h25l29 -1l14 1l16 2l25 7l12 5l13 6l15 9l11 7l7 10l10 12l10 9l5 12l7 12l5 13l8 14z" />
    <glyph glyph-name="S" unicode="S" horiz-adv-x="511" 
d="M199 -15l-30 2l-12 5l-13 1l-14 5l-16 3l-13 8l-14 4l-9 6l-15 7l-11 7l-11 9l-11 7l-10 11l-13 8l-4 22l8 13l9 9l5 12l8 13l5 10h19l9 -10l9 -10l14 -7l11 -9l13 -5l10 -8l14 -5l12 -6l13 -5l13 -1l14 -2l16 -2l29 -2l12 3l18 1l10 4l13 5l14 6l13 10l9 9l12 8l9 12
l5 11l8 13l6 15l2 14l2 27l-3 15l-2 12l-10 13l-3 14l-11 11l-11 10l-10 10l-8 10l-12 8l-23 16l-21 16l-12 7l-13 10l-11 7l-9 10l-10 9l-10 11l-11 13l-5 10l-11 14l-1 13l-6 11l-5 14v16l1 13l-2 29l2 14l7 13l2 14l2 12l6 13l7 14l9 10l5 14l9 8l14 11l10 8l11 10l8 8
l13 5l15 7l13 4l12 4l11 6h18l11 2l17 2l24 1l15 -1l16 -4l10 -3l14 -4l12 -6l16 -4l19 -16l10 -10l11 -11l8 -11l9 -11l6 -14l3 -13l3 -12l2 -14l3 -14v-29l-5 -18l-13 -13l-18 -1l-13 1l-12 -2l-17 1l-7 13v12l1 27l-4 16l-8 12l-4 14l-13 9l-9 9l-14 7l-13 5l-15 3
l-27 -1l-15 -3l-11 -3l-14 -6l-12 -6l-12 -6l-9 -11l-12 -11l-7 -10l-4 -14l-7 -13l1 -12l-2 -30l1 -12l5 -14l4 -13l8 -10l8 -12l12 -9l7 -11l14 -8l10 -8l9 -9l13 -7l12 -10l14 -7l10 -7l13 -10l8 -7l13 -9l11 -11l8 -11l10 -11l8 -11l7 -11l5 -14l5 -11l2 -14l3 -15
l3 -14l-1 -28l-4 -16l-1 -14l-2 -12l-6 -16l-2 -11l-5 -13l-9 -13l-6 -14l-11 -10l-9 -10l-9 -13l-12 -7l-9 -10l-9 -9l-13 -8l-12 -4l-15 -7l-15 -6l-13 -4l-11 -3l-15 -4l-13 -1l-16 -3l-16 -1z" />
    <glyph glyph-name="T" unicode="T" horiz-adv-x="559" 
d="M668 686l-1 -13l-7 -12l-3 -13l-2 -12l-20 -12l-12 -1h-14l-15 -1h-25l-17 2h-15l-10 -2l-15 1l-14 -1l-14 2h-27l-18 -15l-7 -13v-13l-10 -27l-2 -12l-6 -14l-5 -13l-5 -14l-2 -12l-2 -14l-4 -15l-7 -11l-4 -13l-2 -13l-5 -15l-7 -12l-4 -13l-3 -14l-1 -14l-5 -14
l-7 -12l-3 -14l-2 -12l-6 -13l-5 -15l-4 -25l-5 -15l-4 -11l-5 -15l-6 -14l-4 -13l-2 -12l-6 -13l-2 -14l-7 -13l-4 -13l-3 -12l-1 -14l-6 -14l-6 -12l-3 -15l-3 -12l-2 -15l-5 -12l-22 -14l-14 -1l-14 1l-17 -1l-14 1l-10 13l5 13l6 14l4 13l2 14l3 14l4 13l5 12l6 14l2 13
l5 14l4 13l2 14l5 13l2 13l9 13l4 12l4 14l2 12l6 15l3 12l1 15l5 11l6 16l3 12l4 14l3 13l5 14l3 13l6 13l3 12l6 14l2 13l6 12l3 15l3 12l5 14l3 14l3 11l5 15l7 13v12l6 14l4 13l4 15l5 11l-9 16l-17 -1l-10 1l-18 -1l-12 -1l-11 1h-16l-16 -1l-11 1l-14 1l-12 -2l-17 1
l-13 1l-13 -2l-8 12l3 14l5 14l2 12l2 14l20 13h14l14 -2h14l14 2l15 -2l14 2l11 -2h17l12 2l15 -2l14 1h13l13 -1l32 2l14 -2l13 1h43l12 1l16 -1h25l15 -1h12l30 2h16l12 -2l13 2h31l10 -2z" />
    <glyph glyph-name="U" unicode="U" horiz-adv-x="689" 
d="M324 70l27 4l10 3l15 4l12 4l13 7l11 8l11 9l11 9l10 12l9 10l10 12l9 10l5 14l7 12l6 13l8 12l2 13l7 13l2 15l5 14l8 26l4 16l5 13l4 14l5 12l5 14l2 14l6 12l1 14l6 13l1 15l6 14l3 12l7 13l4 13l2 14l2 14l7 14l5 13l3 12l2 15l6 14l2 13l3 14l4 13l3 13l7 15l2 13
l3 12l6 13l15 14l13 2l16 -1l11 -1l13 2h15l10 -15l-6 -12l-2 -16l-8 -13v-12l-4 -14l-7 -14l-3 -11l-6 -16l-3 -12l-5 -12l-4 -16v-13l-5 -14l-4 -12l-3 -13l-8 -14v-14l-12 -27l-4 -14v-15l-5 -14l-7 -12l-3 -13l-5 -15l-2 -14l-3 -14l-7 -14l-3 -15l-1 -12l-10 -29
l-4 -13l-7 -13l-4 -13l-4 -14l-6 -13l-4 -12l-8 -13l-7 -12l-7 -15l-5 -11l-7 -12l-9 -10l-10 -13l-9 -11l-10 -9l-9 -10l-21 -19l-10 -6l-15 -8l-13 -9l-9 -4l-16 -6l-12 -6l-15 -2l-12 -5l-12 -1l-13 -3h-16l-16 -2l-26 1l-12 1h-14l-15 4l-15 3l-11 5l-14 3l-15 8l-23 15
l-10 7l-7 10l-12 12l-5 12l-7 10l-9 14l-2 13l-5 12l-4 14v14l-2 15l-1 26l3 14l1 14l1 14l1 13l4 14l1 11l7 13l5 29l3 12l4 14l5 13l3 15l4 12l3 14l7 14l5 13l1 15l5 14l2 12l7 13v15l5 13l5 15l2 12l4 15l6 13l5 12l4 14l3 14l6 15v14l5 13l4 14l6 13l5 13v14l20 15
l32 -2l12 2h19l8 -16l-4 -11l-1 -15l-7 -12l-5 -14v-13l-8 -15v-11l-8 -14v-14l-4 -12l-5 -15l-4 -12l-5 -13l-3 -13l-5 -16l-2 -11l-4 -14l-3 -15l-5 -12l-4 -14l-3 -13l-5 -12l-2 -13l-8 -15l-1 -13l-5 -12l-8 -27l-6 -15l-3 -12l-7 -27l-4 -15l-3 -12l-3 -13l-1 -14
l-2 -16l3 -28v-13l3 -14l9 -11l3 -12l13 -12l11 -10l12 -6l9 -5l17 -6l13 -1l12 -2h32z" />
    <glyph glyph-name="V" unicode="V" horiz-adv-x="597" 
d="M170 15l-1 14l3 14l-1 12v14l1 15l-4 13l-1 14l4 15l-4 14v15l1 14v13v14l-2 14l-1 27l2 15l-1 14l1 15l-3 13l4 13l-4 14l-1 15l3 14l1 13l-4 14l2 16v14l-1 13l-3 13l2 15l-1 13l1 15l-2 14l1 15l2 14l-2 12l-2 14l3 14l-3 15v13v14l2 16l-2 12l-1 15l2 13l-2 14l1 16
l11 14l17 -2l14 2l11 -1l15 -1l14 -13l3 -15l-3 -13l2 -15l3 -13l-1 -15l1 -15l-3 -12l3 -15l1 -15l-2 -13l1 -13v-15l1 -15l1 -14l-3 -14l4 -14l-2 -26l2 -14l-2 -15l-1 -15l4 -14l-3 -13l2 -14v-15l2 -14l-1 -13v-15v-14l-2 -12l3 -16l1 -12l1 -15l-3 -14l-1 -14l3 -15
v-13l-2 -13v-15l7 -13l9 9l5 13l9 13l6 10l9 14l5 10l8 14l5 11l9 13l8 10l7 13l6 13l9 10l8 14l4 10l8 14l8 11l8 12l5 11l10 13l7 12l5 12l9 11l7 13l5 13l6 11l9 12l6 11l9 12l7 14l4 10l8 13l7 11l10 12l6 14l4 10l8 12l9 13l7 11l5 13l7 13l8 11l8 12l6 13l10 12l5 11
l7 11l23 12l12 2l14 -1h28l14 1l2 -14l-6 -11l-8 -14l-5 -12l-5 -11l-10 -11l-14 -24l-6 -14l-10 -10l-6 -13l-5 -12l-10 -11l-7 -13l-4 -13l-10 -12l-6 -12l-9 -12l-4 -11l-11 -13l-4 -12l-9 -11l-5 -12l-11 -14l-3 -11l-9 -12l-8 -11l-6 -14l-6 -10l-11 -15l-4 -12l-7 -10
l-7 -12l-10 -12l-6 -12l-9 -12l-7 -12l-8 -13l-3 -13l-11 -12l-5 -10l-7 -12l-9 -14l-7 -12l-4 -11l-8 -12l-10 -14l-6 -10l-9 -13l-3 -13l-11 -10l-6 -14l-9 -10l-3 -14l-10 -11l-6 -11l-7 -14l-23 -12l-13 2h-26l-10 -3l-16 3h-15z" />
    <glyph glyph-name="W" unicode="W" horiz-adv-x="892" 
d="M128 14l-1 13l1 16l2 13v13l2 14l-1 15l3 15v13l-3 28l5 15l-1 12l-2 16l1 11l2 15l2 14v14l-1 16l-1 14l4 13l-2 14l2 13v14l3 14l-1 15l-2 14l1 14l2 13l2 15l-2 15l3 12l1 15v15v12l1 14v15v15l1 12l2 15l-2 13v15v13l1 16l1 14l2 12l-2 14l2 14v16l15 14l17 -2l10 1
l16 -1h12l14 -14l2 -13l-3 -16l1 -13v-13l-1 -14l-2 -16v-13l-1 -28l-1 -13v-15v-15v-14l-2 -12l3 -15l-4 -14l1 -15l-2 -14v-13v-13v-15l-2 -14l-2 -13l3 -16l-1 -14l-1 -14l1 -12l-5 -16l1 -14v-12l1 -15l-4 -14l-1 -13l4 -15l-4 -13l2 -15l-2 -15l-2 -14l-1 -14l4 -12
l9 11l7 12l8 12l6 12l11 11l8 11l7 14l3 12l10 11l4 11l8 12l11 12l7 13l3 13l18 24l3 12l8 11l9 12l8 13l8 11l7 10l3 12l12 13l5 13l9 10l3 14l11 12l4 11l10 13l7 11l6 13l8 11l8 12l6 12l6 12l7 11l9 12l7 14l8 12l20 12l15 -2h16l13 -14l3 -14v-13l1 -14l4 -13l2 -16
l-1 -13l4 -13l3 -14l2 -16v-14l2 -12l2 -14l-1 -16l2 -13l5 -15l-3 -13l3 -14v-15l3 -13l2 -13v-14l5 -16v-12l3 -14l2 -14l2 -14l2 -15l1 -14l2 -15l1 -14l3 -14v-12l1 -14l3 -15l12 12l6 14l6 13l5 14l3 11l9 13l6 12l2 13l9 13l6 13l6 12l2 14l7 14l9 10l6 14l2 12l5 15
l8 13l4 10l8 13l5 15l4 13l10 11l3 14l9 11l3 15l5 11l5 12l10 14l4 12l4 14l5 11l8 15l7 12l6 12l11 25l5 15l5 13l5 12l9 12l2 13l9 14l4 12l21 13h17l11 -1l18 1l13 -1l9 -14l-5 -13l-9 -13l-2 -10l-6 -13l-5 -13l-9 -13l-3 -13l-10 -14l-2 -11l-7 -14l-6 -12l-6 -14
l-7 -11l-3 -13l-9 -12l-2 -13l-6 -13l-10 -13l-1 -14l-9 -11l-6 -13l-6 -13l-5 -13l-5 -13l-5 -13l-8 -13l-7 -13l-6 -13l-5 -11l-4 -13l-8 -14l-6 -10l-4 -14l-7 -14l-2 -13l-8 -12l-8 -12l-6 -14l-2 -11l-8 -12l-4 -14l-8 -12l-5 -12l-6 -13l-3 -15l-8 -13l-8 -10l-5 -13
l-4 -14l-4 -12l-8 -12l-4 -14l-6 -13l-24 -13l-11 2l-16 -2l-13 -1l-16 3h-15l-15 12l-2 14l1 13l-3 14l-4 16l2 12l-1 15l-4 12l-3 15l-2 15l3 14l-4 27l-3 12l-3 16l-2 12l2 13l-5 16l1 13l-3 13l-3 14v15v12l-6 14l-1 28v15l-1 13l-5 13l-2 14l2 15l-2 14l-5 14l-10 -13
l-7 -12l-11 -11l-7 -12l-5 -14l-8 -9l-7 -14l-8 -12l-8 -12l-6 -12l-5 -12l-8 -12l-7 -11l-11 -11l-14 -26l-5 -11l-7 -12l-8 -11l-9 -12l-4 -13l-11 -11l-3 -13l-9 -11l-7 -15l-6 -9l-14 -24l-10 -13l-7 -11l-7 -12l-9 -14l-3 -11l-9 -11l-8 -14l-6 -12l-8 -12l-23 -12h-13
l-11 -1h-12l-13 3h-14l-15 -2z" />
    <glyph glyph-name="X" unicode="X" horiz-adv-x="632" 
d="M678 688l-9 -10l-9 -11l-7 -10l-11 -11l-11 -10l-7 -10l-9 -10l-7 -12l-12 -11l-7 -10l-10 -10l-7 -10l-8 -12l-13 -9l-5 -12l-13 -10l-7 -11l-10 -11l-7 -9l-11 -13l-6 -8l-8 -12l-12 -11l-6 -11l-9 -8l-9 -13l-9 -10l-12 -10l-7 -12l-8 -9l-13 -12l1 -23l2 -12l6 -14
l3 -12l5 -12l9 -15l3 -12l3 -14l6 -13l8 -14l1 -10l9 -13l2 -15l8 -13l3 -13l6 -11l6 -13l2 -14l5 -13l8 -12l2 -15l7 -13l6 -13l5 -12l4 -12l3 -15l-5 -11l-12 -3l-16 3l-14 -3h-11l-11 3l-20 12l-5 14l-8 11l-3 16l-3 12l-6 13l-8 15l-2 12l-6 14l-7 11l-3 15l-7 13l-3 12
l-4 16l-8 13l-6 11l-7 28l-4 12l-7 11l-4 14l-11 -10l-13 -11l-7 -10l-6 -9l-20 -22l-9 -10l-9 -11l-7 -12l-9 -9l-12 -11l-4 -10l-12 -12l-8 -12l-8 -9l-8 -12l-13 -11l-5 -11l-9 -9l-9 -12l-12 -9l-8 -11l-7 -10l-10 -12l-11 -12l-18 -11l-14 1h-15l-13 -1h-13l-11 3h-13
l-8 10l12 9l9 13l6 10l8 9l11 11l11 12l6 11l12 9l9 11l8 10l7 12l9 11l9 10l12 12l7 8l7 11l8 13l10 9l9 10l9 11l12 12l9 10l9 11l7 11l7 11l13 10l7 11l10 9l8 13l10 8l16 24l5 23l-6 13l-5 11l-6 15l-6 13l-3 13l-3 12l-8 14l-5 11l-3 13l-8 15l-4 13l-5 11l-6 15l-4 11
l-5 13l-2 14l-9 14l-5 12l-4 14l-2 11l-5 15l-8 11l-3 14l-6 12l11 13l12 2l18 -2l12 2l18 -2l16 -11l9 -13l2 -14l4 -14l7 -13l3 -12l9 -12l5 -15l4 -11l6 -13l1 -15l7 -12l6 -13l4 -13l6 -12l11 -27l4 -14l4 -15l10 -11l11 9l8 13l9 11l23 20l6 11l10 11l20 24l9 11l8 8
l7 11l9 11l11 11l7 12l12 10l8 12l6 10l13 12l8 11l10 11l7 10l11 11l19 10l29 2l15 -2l9 1l13 -1l17 2z" />
    <glyph glyph-name="Y" unicode="Y" horiz-adv-x="557" 
d="M168 13l2 14l6 12l1 14l8 12l2 13l5 14l2 11l4 15l5 12l4 15l4 11l4 14l4 13l3 12l7 15v12l8 13l3 12l5 13l4 15l-1 26l-2 15l-6 13l-7 27l-1 13l-5 16v12l-4 13l-2 16l-7 12l1 15l-5 14l-5 14v12l-3 15l-5 14l-2 12l-7 13l1 14l-4 16l-4 12l-3 15l-4 14l-3 14l-2 14
l-6 13l-4 14v12l11 14h13l26 2h14l19 -16l2 -11l6 -15l1 -13l3 -15l4 -12l4 -13l1 -15l3 -12l2 -14l6 -14l1 -12l4 -16l5 -12l3 -15l3 -11l2 -16l2 -13l3 -13l5 -12l2 -15l4 -12l2 -15l5 -13l11 11l11 10l7 12l9 12l11 9l8 14l6 10l12 12l7 9l7 12l12 12l6 11l8 11l12 12
l9 9l7 13l9 11l7 10l10 12l10 10l7 13l7 11l11 10l8 13l11 11l6 10l11 12l5 9l27 13l12 1l17 -2l13 1l14 1h17l3 -13l-10 -12l-8 -11l-9 -9l-6 -11l-10 -13l-6 -10l-11 -12l-6 -11l-13 -9l-6 -13l-10 -11l-8 -11l-9 -10l-8 -12l-9 -11l-10 -11l-5 -11l-12 -9l-9 -12l-8 -13
l-8 -9l-9 -12l-9 -12l-10 -9l-7 -12l-7 -10l-10 -11l-8 -13l-8 -10l-11 -12l-8 -10l-10 -10l-18 -22l-7 -13l-9 -10l-8 -12l-11 -23l-7 -15l-4 -13l-1 -13l-8 -27l-5 -13l-7 -15l-4 -12l-1 -13l-4 -15l-7 -12l-4 -13l-4 -15l-5 -14l-4 -13v-14l-5 -13l-6 -12l-17 -15l-18 2
h-13l-17 -3l-13 3z" />
    <glyph glyph-name="Z" unicode="Z" horiz-adv-x="652" 
d="M445 69l15 3l13 1l15 7l10 6l12 6l10 11l11 8l12 10l4 11l11 14l15 6l12 -8l12 -4l11 -7l14 -6l2 -20l-8 -13l-8 -13l-6 -10l-8 -12l-10 -11l-9 -8l-12 -9l-13 -8l-12 -9l-12 -8l-15 -4l-12 -7l-13 -3l-16 -4l-12 -1l-16 -3h-26l-15 1l-13 3l-13 2l-16 5l-13 3l-11 5
l-13 6l-13 3l-14 6l-13 8l-13 5l-10 5l-16 7l-11 5l-14 5l-10 6l-17 3l-10 5l-14 1l-23 -9l-11 -9l-11 -9l-7 -12l-19 -21l-9 -8l-21 -3l-11 11l-10 9l-11 7l-11 10l-5 20l11 9l11 11l9 9l8 10l12 12l6 10l12 9l7 11l10 9l12 12l9 8l7 10l14 10l8 10l11 13l8 10l9 10l12 9
l5 10l14 12l6 8l11 10l8 12l13 9l6 11l9 10l14 9l6 12l13 9l10 11l8 10l10 9l9 10l11 12l10 11l7 10l10 8l7 11l10 10l13 11l10 9l9 10l9 12l8 10l12 9l6 11l20 19l10 12l-3 16l-11 6l-14 5l-10 9l-14 8l-11 7l-13 5l-14 8l-14 5l-10 3l-16 3l-16 4l-27 -1l-12 -4l-13 -5
l-13 -7l-9 -8l-13 -11l-6 -10l-7 -13l-5 -12l-4 -14l-3 -12l-3 -14l-17 -14h-10l-18 -2l-14 1l-10 1l-18 13l1 13l6 15v12l1 14l4 12l7 15l8 12l4 13l6 11l10 12l7 8l12 10l11 11l12 6l9 9l12 4l11 6l16 4l13 2l14 5l15 -1l27 2l11 -3l15 -1l29 -8l11 -3l14 -6l11 -8l11 -5
l11 -8l14 -7l10 -7l13 -6l10 -7l13 -6l16 -4l13 -6l21 8l9 10l12 11l7 9l8 11l14 10l8 8l21 2l9 -9l10 -8l14 -9l10 -7l3 -19l-12 -10l-8 -10l-12 -12l-10 -11l-10 -8l-8 -12l-10 -10l-8 -11l-11 -10l-7 -11l-13 -9l-11 -11l-9 -8l-7 -12l-8 -10l-10 -11l-13 -11l-10 -10
l-6 -10l-12 -10l-19 -19l-10 -11l-7 -10l-12 -12l-7 -10l-13 -8l-9 -12l-10 -9l-7 -10l-13 -11l-9 -12l-8 -10l-9 -9l-13 -10l-9 -10l-9 -12l-8 -8l-32 -31l-7 -11l-10 -10l-10 -12l-10 -9l-7 -10l-10 -10l-13 -11l5 -16l13 -3l15 -7l12 -3l14 -8l10 -5l14 -6l11 -8l15 -7
l15 -4l12 -7l15 -2l10 -6l15 -1l13 -1h28z" />
    <glyph glyph-name="bracketleft" unicode="[" horiz-adv-x="376" 
d="M435 631h-13l-15 1l-14 -1l-15 1l-14 -1l-15 1l-11 -2l-15 2l-14 -2l-18 -13l-5 -12l-4 -16l-2 -12l-4 -14l-8 -13v-13l-5 -13l-7 -15l-4 -13l-2 -13l-6 -13l-3 -15l-5 -13l-3 -13l-2 -14l-6 -13l-2 -13l-7 -13l-3 -16l-3 -11l-5 -14l-3 -15l-2 -13l-6 -14l-2 -13l-4 -13
l-4 -13l-8 -14l-2 -14l-5 -14l-2 -11l-7 -14l-3 -13l-4 -14l-3 -15l-3 -13l-6 -12l-1 -15l-5 -14l-4 -11l-7 -15l-3 -14l9 -12l16 1l14 -1l12 1h17l15 -1l9 1l14 -1l18 -1l12 1h16l9 -13l-9 -14l-4 -14l-2 -16l-18 -13l-15 -1h-13l-18 2h-28l-10 -1h-32l-14 1l-12 -1h-44
l-14 -1h-14l-10 15l4 15l7 13l3 12l5 15l2 14l7 13l4 13v13l5 13l6 15l1 14l7 12l2 15l6 11l1 16l5 11l3 15l7 13l3 14l6 13l4 15l3 11l3 14l3 15l3 13l4 15l4 11l6 14l8 29l10 27l4 13l1 13l7 12l1 15l7 13l3 14l3 14l4 13l6 13l3 14l3 14l5 12l5 14v14l6 13l3 13l7 13
l2 16l4 11l3 16l21 14l13 -2l13 2l14 -1h11l16 -1l11 2l17 -1h41l12 1l26 -2h15l15 1l7 -14l-1 -15l-9 -13l-2 -15z" />
    <glyph glyph-name="backslash" unicode="\" horiz-adv-x="662" 
d="M468 12l-7 14l-6 12l-3 14l-7 13l-3 13l-4 15l-5 12l-5 13l-4 15l-6 14l-3 12l-3 13l-7 12l-3 14l-5 15l-5 13l-3 13l-7 14l-2 13l-8 13l-5 14l-5 13l-4 11l-3 13l-6 16l-2 13l-4 13l-7 13l-2 13l-8 12l-2 14l-8 15l-4 11l-3 14l-7 15l-4 11l-1 14l-8 14l-2 14l-8 13
l-5 11l-4 14l-4 14l-6 13l-3 12l-6 15l-4 14l-4 12l-3 13l-5 15l-4 11l-4 15l9 13h14l16 1l16 -2h16l18 -14l3 -13l5 -13l3 -13l6 -14l4 -11l6 -14l6 -13l4 -14l5 -13l1 -13l5 -14l4 -12l8 -13l5 -16l4 -12l5 -14l4 -12l4 -13l4 -13l4 -15l5 -13l5 -12l4 -13l7 -13v-16
l7 -11l6 -13l3 -16l6 -11l1 -13l9 -15l3 -12l5 -15l4 -12l5 -14l3 -14l5 -11l6 -15l4 -12l6 -15l1 -12l5 -12l4 -16l5 -13l4 -11l6 -15l5 -13l7 -14l4 -12l3 -14l2 -14l9 -11l-14 -16h-28l-14 3l-13 -2z" />
    <glyph glyph-name="bracketright" unicode="]" horiz-adv-x="421" 
d="M457 686l-4 -15l-3 -11l-4 -14l-3 -13l-6 -16l-4 -13l-1 -13l-7 -12l-4 -14v-14l-8 -14l-2 -14l-5 -12l-1 -13l-8 -14v-13l-6 -15l-3 -14l-5 -14l-2 -12l-4 -15l-7 -13l-2 -14l-3 -11l-7 -14l-1 -15l-6 -14l-4 -12l-4 -14l-6 -15l-3 -13l-1 -12l-6 -13l-6 -15v-14l-8 -14
v-12l-5 -15l-6 -12l-4 -14l-3 -12l-4 -14l-10 -27v-15l-7 -12l-2 -14l-5 -13l-5 -15l-4 -13l-3 -13l-2 -13l-23 -14l-10 -2l-18 2l-14 -2l-27 2l-29 -2h-11l-16 1l-11 -1l-18 1l-10 1l-18 -2l-10 2h-15l-12 13l4 13l6 15l7 14l16 14l14 1l15 -2l12 2l12 -1l17 -1h13l13 2
l11 -1l14 -1h12l18 13l7 14l1 14l4 13l7 15l3 11l1 14l8 14l2 13l6 15l4 12l4 13l2 13l6 15l3 13l3 13l3 13l10 29l1 13l8 14v14l7 11l3 13l4 14l6 15l2 12l5 14l1 15l4 12l7 13l5 13l2 15l5 14l5 12l2 14l2 12l4 14l6 15l6 14l1 11l3 14l5 13l-9 16h-28l-14 -2l-14 2
l-26 -2l-11 2l-14 -1l-16 1h-10l-13 11l9 16l3 13l3 15l21 13l13 -1l28 2l15 -1l11 1h30l14 -1l12 -1h13l17 2h25l16 -2l11 1z" />
    <glyph glyph-name="underscore" unicode="_" horiz-adv-x="394" 
d="M-1 15l9 13v15l8 14l17 13h13l16 -1l14 2l13 -1h28l15 -1l30 2l14 -1l11 1h13l15 -1h30l13 -1l14 2l7 -14l-2 -16l-6 -12l-3 -16l-21 -15l-14 3h-24l-14 -2l-17 2h-13l-29 -3l-12 3l-27 -3h-18l-12 1l-15 -1h-13l-14 1l-13 -1z" />
    <glyph glyph-name="grave" unicode="`" horiz-adv-x="218" 
d="M292 566l-9 12l-7 11l-12 12l-8 11l-6 10l-13 11l-7 11l-9 10l-8 13l-11 11l-9 11l9 10h13l18 2h25l26 -13l6 -13l7 -12l16 -22l11 -12l8 -13l9 -12l8 -12l4 -11l10 -13l-5 -11h-42z" />
    <glyph glyph-name="a" unicode="a" horiz-adv-x="555" 
d="M191 -16l-15 2l-14 5l-16 3l-14 7l-11 6l-10 8l-10 11l-12 8l-7 12l-6 12l-11 14l-2 14l-7 12l-1 13l-4 14l-2 16l-1 14l2 30l-3 14l3 14l1 12l4 14l4 16l1 14l4 12l5 14l9 12l4 15l8 13l6 12l5 10l11 13l9 10l8 13l11 9l8 10l15 8l10 9l11 6l14 6l13 5l14 6l15 4l10 3
h18h25l14 -2l13 -3l27 -12l10 -9l7 -8l9 -9l9 -11l7 -14l7 -11l7 -13l2 -13l3 -13l7 13l6 13l5 12l10 15l4 12l8 12l3 13l18 14h14l15 -1h15l6 -13l-6 -12l-5 -13l-1 -14l-6 -15l-7 -12l-2 -12l-6 -13l-3 -16l-3 -11l-7 -15l-3 -12l-7 -14l-5 -14l-3 -11l-4 -15l-4 -12
l-3 -14l-5 -14l-5 -14l-5 -13l-4 -14l-3 -12l-3 -16l-2 -12l6 -30l9 -12l29 -3l10 5l14 4l8 10l12 7l8 11l12 11l8 9l11 11l5 11l12 11l6 12l6 13l9 11l6 13l12 11l4 15l10 12l18 3l13 -8l3 -23l-5 -12l-7 -11l-8 -12l-7 -12l-9 -13l-6 -11l-8 -14l-5 -10l-11 -13l-6 -10
l-7 -12l-9 -10l-10 -13l-10 -9l-12 -10l-10 -11l-19 -19l-14 -7l-12 -8l-8 -6l-16 -5l-11 -1l-27 -1l-16 2l-13 5l-13 8l-8 7l-8 10l-5 12l-5 13l-2 16l-10 -14l-13 -9l-10 -9l-12 -11l-10 -6l-14 -9l-13 -5l-13 -5l-14 -4h-16zM237 64l11 3l10 7l13 4l14 9l9 7l12 9l8 11
l6 12l10 10l8 12l6 13l2 13l7 12l3 13l3 15l4 14l-2 12l1 15l2 29l-4 13l-2 14l-3 15l-5 11l-10 13l-11 11l-9 7l-14 7l-15 2h-27l-13 -1l-12 -5l-15 -8l-13 -6l-8 -10l-13 -11l-8 -8l-9 -14l-6 -10l-7 -12l-4 -13l-8 -15l-3 -15l-2 -12l-6 -14l-2 -15l-1 -13l2 -29l1 -16
l2 -14l6 -13l6 -15l9 -11l8 -12l10 -8l13 -7l16 -5z" />
    <glyph glyph-name="b" unicode="b" horiz-adv-x="506" 
d="M623 444l13 -8l3 -18l-3 -12l-7 -12l-7 -13l-12 -12l-6 -11l-9 -13l-7 -13l-8 -11l-8 -10l-12 -10l-9 -10l-13 -8l-12 -7l-11 -7l-17 -5l-10 -3l-13 -2l-23 -2l-9 -12l-4 -14l-1 -16l-1 -12l-7 -14v-13l-7 -16l-5 -13l-6 -11l-4 -13l-8 -15l-6 -10l-7 -12l-10 -12
l-11 -10l-8 -13l-11 -9l-8 -8l-14 -11l-9 -7l-12 -7l-17 -6l-13 -6l-9 -3l-15 -5l-15 -3h-16h-28l-13 1l-14 3l-13 5l-13 3l-13 7l-12 7l-10 8l-9 12l-12 9l-6 13l-7 12l-7 12l-4 13l-6 12l-6 16v13l-5 13l2 15l-2 24l-1 12l5 11v10l-2 10l5 11v12l3 12l1 12l6 11l1 12l3 14
l5 13v12l6 14l4 15l1 13l6 13l5 16l2 14l7 12l3 16l5 14l1 13l3 17l9 14v14l6 15l4 13l6 17l1 13l5 16l8 14v13l7 15l3 16l4 12l7 16l1 14l4 14l17 16l13 -2h17l12 2l12 -1l9 -15l-3 -14l-2 -13l-6 -13l-3 -15l-4 -11l-3 -16l-3 -13l-7 -12l-2 -15l-7 -13l-3 -14v-13l-5 -15
l-7 -13v-13l-5 -16l-5 -11l-6 -16l-1 -13l-4 -14l-6 -12l-4 -15l-4 -12l11 9l21 19l10 8l12 10l12 6l15 4l13 5l16 1l26 1l29 -5l10 -7l13 -4l14 -6l10 -10l10 -7l8 -11l12 -10l6 -13l5 -12l9 -12l3 -13l4 -13l20 -21h25l16 5l12 4l13 6l10 9l12 7l7 10l11 11l5 11l12 11
l6 11l8 12l6 11l9 13zM228 67l17 2l9 4l13 6l11 10l11 7l14 11l5 10l11 13l7 12l5 12l7 14l7 12l4 15l2 12l2 14l4 15v15v27l-1 17l-5 14l-1 13l-9 12l-7 14l-9 10l-10 8l-17 6l-11 4l-30 1l-15 -2l-13 -6l-9 -6l-11 -8l-12 -7l-13 -12l-6 -10l-12 -12l-3 -11l-10 -13
l-6 -11l-5 -15l-3 -13l-5 -13l-1 -15l-6 -13v-13v-29v-15l5 -12l2 -15l8 -12l6 -11l6 -12l10 -8l15 -10l13 -5l12 -1h24z" />
    <glyph glyph-name="c" unicode="c" horiz-adv-x="443" 
d="M221 -15l-14 2l-11 3l-14 2l-12 3l-14 7l-13 6l-15 7l-8 8l-11 10l-9 9l-12 12l-8 9l-5 13l-5 14l-6 11l-4 15l-3 13l-2 13l-3 15l-1 14l1 27l-1 14l1 15l5 13v12l3 14l5 13l5 14l4 11l8 13l4 12l6 12l7 13l8 10l9 12l10 11l7 11l13 9l12 7l8 9l11 8l14 5l13 7l10 6l15 4
l12 1l16 4h15h28l13 -1l10 -4l16 -3l12 -6l11 -8l13 -8l8 -9l10 -13l6 -11l5 -14l6 -13l1 -12v-30l-6 -14l-18 -11l-15 1l-10 -2h-15l-13 11l-2 26l-4 11l-8 12l-8 10l-12 6l-13 4l-26 1l-11 -4l-13 -4l-12 -6l-14 -8l-10 -7l-9 -9l-8 -12l-12 -11l-5 -9l-8 -12l-7 -13
l-2 -14l-7 -13l-3 -12l-2 -15l-2 -15l-2 -12l2 -28l-2 -13l3 -13l8 -14l3 -13l7 -13l6 -10l11 -9l9 -9l15 -6l11 -6l13 -4l11 -2l29 -1l16 1l14 3h11l12 5l16 4l14 3l10 7l15 8l11 7l13 7l7 10l15 9l6 9l11 11l13 10l6 9l10 14l6 12l11 10l6 12l11 12l3 15l25 3l10 -10
l5 -19l-5 -11l-7 -13l-10 -12l-4 -13l-10 -10l-9 -13l-4 -9l-8 -11l-9 -14l-12 -8l-7 -12l-12 -9l-7 -12l-12 -9l-8 -9l-11 -8l-13 -11l-11 -5l-8 -10l-12 -4l-12 -6l-17 -5l-10 -6l-16 -2l-10 -5l-13 -1l-16 -3l-14 -1z" />
    <glyph glyph-name="d" unicode="d" horiz-adv-x="565" 
d="M189 -14l-30 4l-13 4l-10 6l-12 8l-13 10l-11 7l-10 11l-8 12l-9 10l-4 15l-5 12l-7 13l-4 12l-2 14l-3 14l1 16l-2 28l3 14l1 14l-1 15l6 13l-1 14l6 14l6 13v12l7 13l8 15l4 13l5 11l12 13l5 11l11 10l7 10l11 12l10 9l8 8l15 8l10 8l14 7l12 7l12 5l13 4l16 1l13 3h25
l13 -2l15 -3l13 -6l14 -6l13 -5l9 -9l9 -10l10 -11l7 -13l5 -12l6 -15l2 -13l5 13l8 15l1 13l6 11l4 15l4 13l2 12l4 13l6 15l2 11l7 13l1 14l4 14l4 13l3 14l8 12l1 14l4 12l3 15l7 12l1 14l7 13l2 13l7 13l1 12l4 13l7 13l16 16l16 -1l12 1h11l16 -1l12 -15l-6 -13l-4 -12
l-2 -13l-4 -14l-5 -12l-4 -15l-5 -14l-4 -12l-5 -14l-2 -12l-7 -15v-13l-6 -12l-4 -15l-5 -12l-1 -13l-4 -15l-7 -11l-8 -26l-2 -14l-7 -13l-2 -15l-3 -12l-7 -15l-4 -11v-13l-6 -14l-6 -14v-14l-6 -14l-4 -13l-4 -12l-4 -13l-3 -13l-4 -13l-2 -14l-5 -14l-3 -13l-4 -15
l-2 -14l-6 -11l-2 -15l-2 -13l-2 -14v-26l5 -11l13 -5l22 -3l15 4l9 7l25 16l10 11l12 9l6 10l11 12l8 10l8 12l7 11l11 13l4 11l9 13l7 13l9 12l7 11l18 4l15 -9l7 -21l-11 -10l-4 -12l-8 -12l-10 -13l-8 -14l-7 -10l-5 -12l-11 -13l-8 -11l-8 -12l-9 -12l-9 -9l-8 -13
l-10 -10l-10 -11l-11 -9l-10 -11l-9 -8l-13 -7l-10 -8l-17 -4l-13 -6l-11 -1l-27 -1l-15 4l-27 10l-10 9l-10 10l-4 12l-7 15l-3 12l-10 -11l-8 -8l-9 -10l-8 -9l-14 -8l-10 -7l-12 -7l-15 -3l-10 -6l-13 -2h-17h-24zM231 64l16 3l15 6l9 4l13 8l13 7l9 11l7 10l11 12l8 9
l6 13l5 14l6 12l6 12l4 14l1 14v14l4 14v15l-1 26l2 14l-4 14l-7 14l-7 13l-5 12l-12 9l-12 11l-12 4l-14 4l-27 2l-13 -4l-16 -5l-11 -6l-12 -7l-11 -10l-11 -9l-12 -10l-5 -12l-8 -14l-6 -11l-10 -12l-5 -16l-4 -12l-1 -14l-4 -16l-3 -14v-14l-1 -30l6 -15l-1 -13l7 -15
l7 -13l8 -11l7 -12l11 -8l14 -7l16 -2z" />
    <glyph glyph-name="e" unicode="e" horiz-adv-x="440" 
d="M215 -15l-13 2l-26 5l-14 4l-12 8l-17 6l-10 7l-13 9l-9 11l-6 10l-10 10l-7 14l-6 11l-10 13l-4 15v14l-7 15l-2 12l1 15l-2 27l2 15v15l7 12l1 16l2 13l5 12l4 13l5 15l7 13l3 11l9 12l8 13l7 12l6 11l13 9l8 10l9 11l14 10l7 7l16 6l9 8l15 5l12 6l11 5l15 2l16 2
l13 2h26l14 -3l16 -3l10 -4l12 -3l14 -8l11 -8l7 -11l8 -11l9 -10l3 -14l6 -11l-1 -14l2 -27l-4 -16l-2 -12l-5 -12l-3 -12l-9 -11l-10 -11l-8 -13l-10 -8l-11 -10l-8 -8l-11 -6l-16 -7l-9 -8l-14 -4l-13 -5l-16 -6l-13 -3l-13 -4l-15 -1l-14 -5h-12l-13 -3l-16 -1l-12 -1
l-11 -15l2 -12l4 -14l8 -14l7 -10l9 -9l9 -9l11 -9l14 -4l27 -4l28 -2l15 3l11 1l13 2l15 5l13 4l10 6l13 5l12 5l14 7l10 8l13 8l12 11l10 10l7 9l13 9l6 11l10 12l11 11l8 12l9 15l6 12l8 12l17 4l12 -8l8 -21l-9 -14l-6 -12l-5 -11l-9 -12l-5 -11l-12 -14l-6 -10l-8 -10
l-7 -12l-12 -10l-10 -12l-7 -10l-8 -9l-14 -9l-10 -11l-8 -9l-14 -8l-9 -7l-13 -7l-13 -5l-13 -8l-12 -5l-16 -5l-10 -2l-17 -4l-10 -3l-27 -2zM150 218l15 1l14 3l13 1l16 3l29 9l15 5l9 7l16 7l13 6l9 10l10 11l8 10l8 14l3 12l-2 28l-4 12l-10 11l-14 8l-13 3l-27 -1
l-11 -1l-14 -6l-24 -15l-11 -9l-13 -9l-8 -12l-9 -12l-6 -13l-9 -13l-3 -13l-7 -15l-1 -14l-4 -13z" />
    <glyph glyph-name="f" unicode="f" horiz-adv-x="270" 
d="M333 738l13 -1l12 -6l15 -5l9 -7l12 -8l10 -12l7 -12l3 -11l7 -14l-1 -14l2 -27l-2 -15l-5 -12l-20 -12l-12 -2l-18 2h-13l-9 12l-1 14v27l-3 11l-10 12l-8 4l-27 1l-9 -3l-10 -9l-10 -8l-5 -10l-8 -11l-15 -25l-3 -15l-6 -12l-7 -14l-4 -13l-7 -14l-5 -13l-4 -14l-3 -14
l-5 -15l-6 -15l13 -12l12 -2h42l11 2l16 -2l29 2l8 -15l-7 -13v-14l-7 -13l-18 -14l-13 1l-11 -1h-27l-15 1l-13 -1l-14 1l-12 -1l-16 -14l-4 -12l-5 -13l-6 -13l-4 -14l-2 -15l-4 -12l-2 -13l-7 -15l-2 -12l-7 -29l-2 -12l-4 -13l-8 -15v-13l-7 -13l-1 -13l-6 -14l-4 -13
l-3 -14l-4 -15l-4 -13v-14l-8 -14l-2 -11l-4 -15l-16 -14l-16 2l-10 -3h-30l-10 16l6 12l2 15l3 14l7 11l2 15l3 12l5 14l5 13v16l7 13l5 12l3 13v14l6 15l4 14l5 13v14l6 12l5 14l5 14v12l5 13l3 16l4 12l4 15l3 11l-8 16l-10 -1l-13 -1l-17 2l-10 -2l-9 13l5 14l4 15l5 11
l16 15l16 -1h16l16 1l16 5l5 16l4 12l3 15l1 13l7 14l1 11l8 14l3 12l4 13l6 15l5 11l3 14l7 12l8 13l3 12l11 13l4 11l11 11l7 11l13 11l7 8l14 7l11 6l14 5l11 5l12 1l16 2h26z" />
    <glyph glyph-name="g" unicode="g" horiz-adv-x="545" 
d="M641 215l-5 -12l-6 -10l-7 -12l-8 -12l-7 -13l-8 -11l-7 -12l-9 -12l-6 -11l-9 -9l-10 -11l-10 -11l-5 -12l-11 -11l-7 -9l-13 -12l-9 -7l-10 -10l-10 -10l-13 -10l-10 -6l-9 -9l-15 -7l-9 -9l-13 -6l-13 -5l-13 -7l-14 -5l-16 -19l-5 -13l-4 -13l-7 -12l-7 -13l-4 -12
l-4 -13l-7 -12l-9 -14l-5 -12l-5 -13l-8 -11l-10 -10l-6 -13l-13 -11l-6 -10l-13 -8l-12 -8l-8 -7l-16 -8l-9 -4l-14 -2l-13 -4l-15 -2l-43 3l-13 3l-13 7l-13 5l-13 11l-8 10l-11 10l-5 15l-3 14l-6 14l3 28l-1 13l6 12l3 14l5 10l12 12l7 8l11 11l11 8l10 8l10 7l15 5
l10 5l13 6l15 3l13 5l12 4l15 4l13 3l14 5l12 1l17 5l11 3l17 1l15 10l6 21l3 10l1 14l6 13l1 12l6 14l-13 -11l-10 -9l-11 -7l-15 -7l-11 -7l-27 -9l-12 -3l-13 -1l-31 -1l-14 3l-10 3l-13 3l-15 6l-13 9l-8 8l-12 10l-18 21l-5 15l-6 12l-5 14l-6 12l-2 14l-2 16l1 13
l-2 28v15l2 13l5 14v14l6 13l4 14l4 15l6 13l5 11l4 14l10 11l6 13l10 12l7 10l8 10l22 21l10 7l23 17l14 5l15 5l13 5l10 5h15l16 2l29 1l10 -2l14 -2l12 -7l17 -4l9 -8l13 -9l6 -12l10 -11l5 -10l8 -15l7 -13l3 -14l2 -11l7 12l4 13l6 14l8 11l5 13l6 13l9 13l18 14l24 2
l17 -1l6 -14l-3 -12l-5 -13l-5 -13l-1 -15l-4 -14l-9 -11v-15l-7 -12l-1 -15l-8 -11l-2 -13l-6 -14l-6 -13l-3 -13l-4 -15l-1 -12l-8 -15l-2 -12l-6 -13l-1 -14l-7 -14l-10 -24l-3 -15l-4 -11l-4 -15l-4 -12l-2 -12l-2 -15l-7 -10l-1 -13l-10 -20l12 -1l24 14l22 16l14 10
l8 9l11 10l9 8l8 10l9 10l9 12l12 11l5 9l10 12l8 11l9 11l5 12l9 14l5 9l9 13l5 13l7 12l8 10l19 4l15 -7zM241 86l11 4l13 5l28 13l9 9l12 9l7 11l9 11l8 12l5 14l8 14l5 13l1 13l3 15l4 14l-1 12l2 30l-1 14l-3 13l-5 14l-8 12l-9 13l-9 11l-14 6l-10 7l-14 3l-27 -1
l-17 -3l-11 -4l-11 -7l-14 -6l-13 -9l-8 -11l-11 -10l-16 -24l-2 -12l-8 -13l-3 -14l-4 -15l-6 -13l-3 -15l2 -13v-30l-1 -12l5 -14l5 -14l5 -14l10 -10l8 -9l14 -9l14 -5l10 -3zM158 -223l17 1l9 8l14 7l10 9l8 9l6 9l12 12l5 12l8 13l8 10l7 15l2 12l7 14l-10 10l-9 -4
l-14 -5l-15 -2l-26 -7l-13 -5l-14 -4l-13 -6l-8 -7l-14 -6l-13 -9l-10 -9l-7 -10l-2 -14v-25l7 -14l9 -8l14 -8z" />
    <glyph glyph-name="h" unicode="h" horiz-adv-x="503" 
d="M350 -15l-10 5l-16 5l-13 6l-7 12l-11 9l-6 16l-6 13l-2 13l3 29l-1 14l1 14l6 13l3 15l6 13l1 12l7 15l5 11l5 13l4 13l7 14l6 12l3 15l7 13l1 12l3 14l5 14l-1 26l-6 14l-10 9l-13 9l-24 1l-13 -3l-9 -5l-16 -6l-11 -7l-6 -8l-10 -9l-19 -18l-10 -12l-8 -9l-9 -12
l-7 -11l-8 -12l-5 -13l-11 -13l-2 -13l-7 -14l-8 -11l-5 -13l-9 -13l-5 -15l-2 -14l-9 -11l-4 -15l-4 -13l-4 -13l-7 -14l-6 -14l-4 -13l-1 -15l-8 -13l-1 -15l-20 -13l-15 2h-11l-15 -3h-13l-12 16l2 13l4 14l5 13l6 14l1 11l8 14v13l7 14l3 13l6 13l3 15l5 12l1 14l5 15
l2 12l9 13l2 15l3 13l2 13l5 13l4 13l4 13l8 15l1 12l4 13l3 15l3 14l4 13l8 14l3 11l2 15l3 12l8 15v14l7 12l3 14l3 12l6 13l6 16l2 12l6 14l2 13l5 13l2 14l4 14l6 14l5 11l3 13l2 14l5 15l2 13l6 13l18 14l11 -1h30l10 1l8 -14l-4 -14v-13l-6 -14l-4 -14l-5 -13l-3 -12
l-2 -14l-8 -15l-4 -12l-1 -13l-5 -14l-5 -15l-3 -13l-3 -15l-3 -12l-8 -14l-1 -14l-3 -12l-8 -13l-4 -29l-6 -14l-4 -11l-5 -16l-4 -13l-1 -14l-6 -12l9 11l9 11l9 11l8 10l14 13l7 9l11 7l13 11l13 8l9 5l13 6l14 7l16 1l14 3l26 1l13 -2l13 -6l16 -5l12 -7l8 -10l13 -10
l7 -11l2 -13l8 -13l1 -15l-1 -30l-1 -14l-1 -13l-5 -14l-6 -12l-4 -16l-3 -12l-2 -14l-9 -14l-3 -13l-8 -12l-4 -13l-7 -13l-5 -12l-1 -15l-7 -13l-3 -12l-2 -16l-1 -28l10 -13l28 -1l15 4l11 5l7 8l12 10l10 9l8 9l11 10l7 12l13 11l5 11l11 12l6 11l10 12l7 14l7 13l9 12
l6 10l20 6l13 -11l4 -21l-6 -10l-11 -13l-4 -11l-9 -12l-6 -14l-11 -11l-4 -11l-9 -13l-8 -10l-8 -12l-12 -11l-4 -13l-13 -11l-9 -10l-9 -10l-9 -10l-12 -11l-10 -8l-14 -9l-8 -6l-15 -5l-15 -5l-14 -4z" />
    <glyph glyph-name="i" unicode="i" horiz-adv-x="263" 
d="M141 538l7 12l4 12v13l9 15l4 11l4 13l1 14l19 13l18 1l11 2l15 2h19l10 -11l-5 -15l-8 -13l-2 -14l-5 -14l-3 -13l-6 -14l-6 -16l-15 -13h-14l-30 2h-18zM109 -16l-15 5l-11 3l-15 6l-10 7l-11 10l-6 11l-7 13l-9 13l-2 12l-1 14l1 25v14l-1 10l1 14l6 12l3 14l1 11
l1 16l5 11l4 16l5 12l5 15l3 12l4 14l4 14l6 14v16l7 13l3 15l4 13l5 14l5 15l4 14l7 13l5 16l16 15h30l16 -2l15 1l8 -13l-4 -15l-1 -12l-8 -14l-4 -11l-3 -15l-4 -14l-6 -12l-1 -14l-4 -12l-7 -12l-5 -13l-2 -16l-6 -12l-3 -14l-3 -13l-5 -12l-3 -13l-3 -14l-4 -15l-1 -11
l-5 -14l1 -13l-5 -15l4 -28l3 -13l10 -10l9 -8l29 -3l26 11l8 7l12 10l10 9l11 11l12 9l8 12l9 13l5 10l10 12l8 12l10 12l5 11l10 14l4 11l8 14l21 2l10 -8l7 -20l-9 -12l-4 -12l-7 -13l-7 -11l-7 -10l-10 -13l-5 -10l-11 -13l-4 -10l-10 -12l-7 -13l-16 -21l-12 -10l-7 -9
l-9 -10l-21 -19l-11 -8l-13 -6l-11 -8l-12 -4l-17 -4l-10 -3z" />
    <glyph glyph-name="j" unicode="j" horiz-adv-x="212" 
d="M258 634l-2 -14l-6 -14l-4 -13l-7 -13l-3 -14l-6 -14l-1 -14l-22 -13l-14 -2l-14 2l-15 -2l-14 1l-10 12l7 15l4 13l1 11l9 13l4 15v12l6 13l17 13l19 3l11 -1l14 1l19 2zM308 217l-5 -14l-7 -11l-7 -13l-8 -10l-7 -12l-10 -12l-6 -12l-11 -11l-7 -13l-9 -10l-6 -13
l-13 -10l-8 -12l-10 -9l-5 -13l-14 -8l-7 -11l-9 -12l-12 -8l-10 -11l-10 -8l-11 -10l-10 -9l-16 -7l-7 -7l-13 -9l-12 -7l-17 -6l-17 -19l-3 -13l-4 -13l-10 -14l-5 -11l-5 -14l-6 -11l-7 -12l-8 -14l-5 -12l-10 -11l-6 -11l-11 -13l-5 -10l-11 -11l-10 -7l-13 -9l-12 -8
l-14 -6l-12 -5l-14 -2l-13 -3l-28 2l-11 2l-16 2l-12 7l-13 6l-8 9l-9 9l-10 11l-3 15l-8 12l-2 15v26l4 13l3 13l4 14l9 13l10 8l8 12l10 9l11 7l11 8l17 5l10 5l13 5l13 6l16 4l13 4l15 1l12 5l16 1l15 3l10 4l23 15v12l4 13l11 25l1 14l6 11l3 12l5 13l2 11l5 14l4 11
l2 15l5 12l3 13l4 13l8 12l4 13l2 14l3 14l5 13l4 15l8 13v14l4 13l6 12l4 16l5 11l5 15l2 14l9 12l2 15l3 13l4 14l9 14l3 13l18 16l16 -1l16 1h13l13 -1l11 -15l-4 -12l-6 -13l-2 -14l-3 -14l-7 -13l-6 -13l-1 -15l-4 -12l-4 -15l-6 -13l-4 -12l-6 -14l-5 -15l-1 -14
l-6 -12l-2 -14l-6 -13l-5 -15l-2 -12l-8 -15l-3 -12l-2 -14l-6 -12l-3 -13l-8 -16l-3 -13l-4 -13l-5 -12l-4 -15l-4 -12l-2 -15l-6 -12l7 -5l10 6l12 10l10 8l15 10l9 8l9 11l12 11l7 9l10 11l11 11l7 10l10 10l6 12l17 24l10 11l6 12l6 12l9 10l6 13l10 13l5 11l8 13l20 4
l13 -9zM-162 -223l17 4l9 6l10 7l10 11l10 10l7 11l10 13l3 13l9 12l5 11l5 15l-9 9l-13 -1l-14 -5l-17 -2l-11 -6l-15 -5l-12 -5l-16 -5l-10 -8l-12 -11l-7 -11l-6 -14v-27l8 -15l12 -6z" />
    <glyph glyph-name="k" unicode="k" horiz-adv-x="445" 
d="M298 -16l-11 2l-15 6l-11 4l-8 10l-13 7l-9 11l-4 12l-6 13l-4 14l-4 12l-3 14l-4 12l-1 16l-3 13v14l-5 13l3 16l-5 12l-11 12l-13 -1l-14 -2l-12 -1l-15 -1l-16 -13l-5 -15l-5 -14l-3 -14l-6 -11l-8 -28l-5 -15l-1 -14l-6 -14l-2 -14l-4 -13l-7 -14l-15 -12l-17 -3
l-11 3h-16l-14 -3l-10 16l4 13l3 12l4 13l5 14l4 14l3 12l5 16l4 13l5 12l5 15l5 11l1 15l5 12l4 16l6 13l1 12l6 15l1 13l8 13l3 14l5 13l4 13l5 13l4 15l2 12l3 15l7 11l2 15l2 13l5 13l5 13l7 28l4 13l8 13v15l7 13l1 12l8 15l3 11l4 16l3 11l3 14l8 14l2 14l5 14l2 11
l4 15l3 12l5 13l4 16l6 11l18 14l13 1l15 1l12 -2h15l8 -13l-3 -12l-2 -15l-4 -12l-8 -15l-1 -12l-3 -13l-8 -16v-13l-12 -25l-5 -13l-4 -15l-1 -14l-4 -13l-3 -13l-6 -12l-3 -15l-5 -14l-3 -11l-4 -14l-4 -14l-8 -13l-1 -14l-5 -12l-2 -15l-6 -14l-3 -11l-6 -14l-2 -14
l-5 -14l-4 -14l-2 -11l7 -13l29 2l12 4l14 4l15 3l13 5l10 7l13 10l10 8l11 9l8 10l13 12l5 12l10 10l4 12l8 13l4 14l7 14l3 12l21 13l14 1l14 -1h25l10 -14l-5 -11l-4 -15l-8 -11l-6 -12l-4 -14l-7 -11l-9 -12l-4 -12l-10 -11l-9 -13l-5 -9l-9 -13l-13 -8l-6 -10l-13 -9
l-7 -11l-14 -7l-11 -6l-10 -24l-1 -13v-16l3 -13l1 -15l-1 -15l4 -15l2 -14l7 -13l3 -13l9 -11l15 -8h29l12 3l10 6l12 9l12 7l10 12l12 10l10 9l10 12l7 11l8 12l9 12l11 11l6 14l6 10l10 12l6 14l8 11l20 6l13 -10l4 -21l-6 -12l-9 -12l-5 -11l-8 -12l-9 -13l-7 -12
l-6 -12l-7 -10l-8 -11l-8 -13l-8 -12l-11 -11l-9 -11l-11 -8l-10 -12l-6 -11l-14 -7l-7 -9l-13 -9l-13 -8l-9 -6l-15 -3l-15 -4z" />
    <glyph glyph-name="l" unicode="l" horiz-adv-x="278" 
d="M124 -15l-18 2l-13 5l-10 6l-12 8l-14 10l-8 12l-4 12l-6 15l-7 12l-1 16l3 25l-4 13l2 11l2 11l4 14l2 13l1 12l2 12l3 14l4 14l2 12l2 16l7 11l3 15l5 13l3 14l2 15l3 13l3 13l7 16l5 13l3 14l4 14l3 12l5 15l1 15l7 15l6 13l3 15l3 13l5 14l3 13l3 16l5 14l7 12l3 14
l4 16l5 14l2 14l8 13l3 13l5 15l3 15l4 14l5 13l17 15l14 -1h15l14 2l13 -1l10 -13l-1 -13l-7 -14l-2 -15l-7 -12l-3 -15l-1 -11l-7 -16l-3 -12l-4 -13l-2 -13l-6 -15l-6 -14v-11l-7 -14l-2 -14l-3 -14l-5 -13l-6 -14l-3 -13l-3 -13l-6 -13l-4 -14l-3 -14l-1 -12l-8 -15
l-3 -13l-3 -12l-2 -14l-6 -13l-2 -13l-5 -16l-4 -13l-2 -13l-5 -15l-1 -12l-6 -15l-4 -12v-14l-4 -13l-3 -14l-4 -16l-1 -13l-2 -12l3 -30l4 -13l7 -14l13 -6l26 -1l12 3l15 2l13 8l9 6l11 10l8 9l12 10l7 12l8 10l9 11l10 10l6 12l9 14l6 10l10 14l5 10l6 14l8 12l18 1
l13 -8l6 -22l-7 -13l-4 -11l-8 -11l-8 -14l-7 -12l-8 -12l-6 -10l-7 -12l-9 -12l-8 -10l-8 -12l-8 -10l-9 -11l-9 -13l-10 -9l-10 -10l-8 -10l-12 -8l-12 -8l-12 -6l-10 -6l-13 -6l-28 -5z" />
    <glyph glyph-name="m" unicode="m" horiz-adv-x="751" 
d="M598 -16l-11 4l-17 7l-10 7l-9 10l-10 9l-6 14l-6 13l-2 16l-2 26l2 14l5 16v14l8 11l4 15l4 14l6 13l4 13l3 12l7 13l5 13l3 12l8 14l2 13l4 12l5 14l1 13l-1 28l-2 15l-12 11l-11 7l-24 1l-13 -5l-14 -5l-10 -5l-10 -9l-6 -9l-14 -8l-5 -11l-10 -10l-7 -12l-7 -12
l-12 -11l-3 -13l-7 -13l-7 -13l-8 -11l-7 -15l-8 -12l-6 -13l-2 -15l-6 -11l-6 -15l-7 -12l-5 -16l-7 -13l-3 -14l-4 -14l-7 -12l-3 -15l-5 -13l-4 -14l-5 -13l-20 -13l-29 -3l-31 3l-8 11l1 14l5 12l6 15l2 11l7 15l4 12l3 13l1 15l4 11l5 15l4 13l3 14l7 12l3 14l3 12
l4 14l6 12v14l6 13l1 15l3 13v15l4 12v28l-4 11l-11 11l-9 9l-25 -1l-8 -1l-13 -6l-11 -6l-9 -8l-10 -11l-6 -8l-7 -11l-12 -13l-4 -11l-12 -10l-5 -13l-7 -11l-4 -13l-9 -13l-6 -14l-8 -12l-5 -13l-7 -15l-1 -12l-7 -13l-5 -12l-7 -15l-6 -13l-5 -13l-3 -14l-6 -13l-2 -15
l-6 -14l-4 -14l-7 -12l-3 -13l-18 -15l-12 2h-16l-12 -3l-16 3l-12 13l7 11l1 16l4 13l6 13l2 12l7 16l1 13l7 13l2 14l4 14l2 11l7 14l3 14l6 15l1 11l3 14l10 29l4 11l6 15l4 14l2 14l6 12l1 15l4 12l4 15l3 11l8 14l3 15l3 12l4 14l19 15h13l16 -1h13l12 -14l-2 -13
l-7 -14l-3 -14l-3 -11l-3 -15l-2 -14l-3 -11l-2 -14l-3 -12l10 12l4 11l8 12l8 13l6 11l9 12l12 10l9 11l8 10l10 8l15 9l8 9l15 7l11 4l14 5l13 3l29 -2l11 -2l16 -6l8 -10l10 -10l7 -10l8 -13l4 -14v-14l1 -29l-2 -15v-12l-3 -14l-2 -16l5 14l4 10l9 14l5 12l9 12l10 11
l6 11l8 9l10 12l11 9l10 10l8 9l12 6l12 9l13 5l13 6l15 3l12 4l28 1l10 -3l17 -6l10 -5l14 -7l8 -8l10 -11l7 -14l5 -13l5 -13l3 -14l-1 -29l-3 -14l-3 -12l-1 -16l-5 -11l-5 -15l-3 -14l-4 -13l-3 -13l-9 -13l-3 -14l-7 -12l-4 -13l-4 -13l-7 -13l-4 -14l-4 -15l-5 -13
l3 -28l12 -14l26 -2l13 6l11 4l9 9l9 9l11 8l10 11l12 11l7 9l10 13l7 10l6 13l8 13l10 12l9 12l7 12l7 12l7 13l19 3l17 -10l1 -20l-3 -12l-9 -11l-8 -13l-8 -12l-8 -12l-9 -11l-7 -14l-7 -9l-10 -12l-6 -14l-8 -10l-12 -11l-7 -12l-9 -11l-12 -9l-7 -10l-11 -10l-13 -9
l-10 -8l-15 -8l-11 -5l-14 -5l-15 -1z" />
    <glyph glyph-name="n" unicode="n" horiz-adv-x="504" 
d="M352 -15l-15 5l-10 3l-16 8l-9 10l-10 12l-5 13l-3 14l-5 12l3 29l-1 14l3 13l3 14l3 13l5 13l7 16l3 13l3 11l5 14l9 13l6 13l4 12l3 14l5 12l4 14l2 12l5 15l1 27l-9 15l-7 10l-17 8h-22l-14 -3l-10 -5l-14 -4l-11 -8l-7 -8l-9 -12l-11 -9l-8 -10l-8 -13l-10 -9l-6 -14
l-10 -11l-5 -14l-10 -12l-6 -13l-5 -12l-9 -15l-4 -11l-6 -15l-9 -12l-3 -14l-9 -13l-2 -16l-8 -14l-4 -14l-7 -12l-3 -14l-6 -15l-7 -13l-5 -15l-4 -12l-19 -17l-12 3l-16 -2h-12l-13 -1l-14 15l4 12l7 16l1 13l7 12l1 15l6 12l6 14l1 13l7 15l1 12l7 14l6 27l3 15l7 11
l3 16l4 12l3 15l6 11v16l4 13l8 12l4 14l1 15l7 11l4 15l1 14l4 12l3 15l8 12v13l19 16l17 -2l14 1h12l12 -13l-4 -15l-1 -13l-4 -13v-12l-5 -15l-3 -11l-1 -14l-6 -14l1 -11l8 10l3 13l12 10l7 10l9 11l6 11l9 11l9 9l9 12l11 9l15 6l8 9l14 6l9 6l17 7l13 3l10 3l28 -2
l13 -1l14 -4l13 -8l13 -6l10 -10l9 -12l4 -10l7 -13l1 -14l4 -14l2 -29l-2 -14l-5 -12l-1 -15l-7 -13l-2 -15l-7 -13l-4 -14l-6 -12l-5 -12l-6 -15l-2 -11l-5 -14l-7 -15l-7 -12l-3 -13l-6 -15v-14l-1 -29l14 -12l26 -2l13 5l11 5l11 8l10 9l7 8l13 13l6 8l11 12l8 13l8 11
l11 12l5 12l7 10l12 12l4 13l10 13l8 13l17 2l16 -9l4 -19l-7 -12l-7 -12l-10 -14l-5 -12l-10 -11l-7 -11l-6 -13l-9 -12l-8 -12l-8 -11l-8 -12l-9 -10l-9 -14l-11 -8l-9 -12l-8 -11l-14 -9l-9 -7l-11 -9l-14 -8l-24 -8l-16 -2z" />
    <glyph glyph-name="o" unicode="o" horiz-adv-x="516" 
d="M634 443l12 -6l2 -18l-5 -13l-7 -12l-8 -14l-4 -11l-11 -13l-6 -11l-10 -13l-10 -9l-7 -11l-9 -12l-14 -7l-7 -9l-15 -7l-11 -9l-12 -4l-18 -3l-10 -3l-25 1l-9 -13l1 -14l-4 -16l-4 -13v-14l-6 -11l-2 -14l-8 -14l-3 -12l-7 -12l-4 -14l-11 -11l-7 -11l-7 -12l-7 -9
l-9 -12l-13 -10l-8 -8l-22 -18l-12 -7l-15 -8l-24 -9l-12 -6l-11 -2l-15 -3h-14h-26h-15l-17 3l-13 5l-12 4l-11 7l-14 6l-8 10l-14 8l-8 9l-10 11l-6 12l-8 14l-1 11l-9 13v15l-6 12v16l-2 13l1 29l2 15l-2 11l3 16l2 13l7 15l4 11l5 15l5 13l5 11l4 14l8 12l4 11l10 13
l9 10l6 11l10 12l13 9l7 9l12 10l14 8l12 6l11 8l10 5l16 5l11 6l16 3l12 1l15 1h27l16 -2l24 -6l15 -5l14 -6l12 -8l9 -9l8 -9l13 -11l6 -14l5 -12l9 -12l3 -12l5 -16l20 -18h25l16 2l12 5l24 15l9 8l9 8l9 11l7 10l10 12l8 10l8 12l9 12l5 14zM232 65l16 4l14 4l13 8l9 6
l14 9l10 11l7 11l10 9l6 12l7 13l7 13l8 14l2 13l7 14v15l4 13l2 15l1 29l-4 12l-3 14l-1 13l-9 12l-7 11l-4 13l-9 9l-14 8l-12 4l-11 3l-28 1l-12 -2l-17 -6l-10 -6l-16 -7l-10 -10l-12 -8l-5 -10l-9 -11l-12 -12l-7 -13l-7 -13l-4 -15l-3 -13l-4 -12l-4 -14v-17l-4 -13
v-29l2 -14l4 -13l1 -12l5 -12l9 -12l8 -12l9 -11l13 -7l11 -4l11 -5h28z" />
    <glyph glyph-name="p" unicode="p" horiz-adv-x="521" 
d="M639 442l10 -5l6 -17l-8 -13l-6 -15l-8 -10l-8 -15l-7 -10l-5 -13l-12 -12l-7 -10l-10 -10l-10 -11l-10 -11l-13 -6l-9 -9l-17 -6l-9 -5l-17 -5l-10 -2l-29 2l-10 -13l-4 -14l-3 -14v-15l-3 -12l-5 -14l-5 -14l-3 -14l-6 -13l-6 -12l-11 -13l-7 -13l-4 -10l-10 -12
l-11 -12l-8 -9l-10 -11l-10 -8l-12 -10l-9 -8l-12 -8l-14 -5l-14 -7l-14 -4l-14 -5l-13 -3l-12 -1h-28l-16 1l-14 5l-14 4l-11 7l-14 8l-8 6l-13 11l-9 11l-7 14l-4 11l-4 15l-9 -13l-4 -14l-1 -13l-6 -14l-4 -14v-14l-5 -13l-3 -13l-6 -14l-5 -13v-13l-5 -15l-4 -12l-6 -16
l-2 -12l-6 -13l-4 -14l-2 -14l-3 -12l-3 -16l-7 -13l-4 -12l-4 -15l-3 -13l-1 -12l-22 -16h-26l-12 1l-17 1l-7 14l3 14l1 13l6 14l3 11l3 16l8 12l4 14l2 12l6 14l3 15l2 14l4 14l7 11l1 15l3 13l8 14l2 13l2 15l3 13l5 12l3 16l6 11l4 16l2 11l7 14l2 14l4 14l7 14v12
l4 15l4 13l7 15l2 13l6 12l3 13l1 14l7 15l5 12l2 14l5 15l5 13l4 13l1 14l4 14l5 13l2 13l8 14v12l7 15l5 14l3 14l18 13h41l13 -16l-3 -15l-3 -14l-2 -16l-1 -14l6 11l9 10l10 11l9 9l12 10l10 8l14 7l8 8l14 6l13 3l13 4l14 1h30l13 -1l11 -6l15 -4l10 -8l13 -8l9 -11
l8 -10l10 -12l5 -14l8 -13l3 -15l5 -12l12 -22l16 -6h26l13 5l13 3l11 6l11 8l9 8l10 10l9 12l8 11l8 9l8 11l8 14l6 12l10 11zM242 66l12 3l12 5l15 8l10 7l11 10l9 12l6 9l9 12l8 15l8 10l5 15l7 13l3 14l2 13l4 16l2 14l3 14l-2 28l-1 16l-1 13l-5 14l-6 11l-9 13l-11 10
l-7 7l-13 8l-16 3h-27l-11 -3l-14 -6l-14 -6l-8 -8l-14 -7l-9 -10l-8 -13l-9 -11l-10 -11l-5 -10l-8 -13l-3 -14l-5 -13l-4 -12l-6 -15l-1 -12l-6 -14v-16l3 -29l-1 -13l3 -13l9 -13l3 -14l11 -11l10 -11l14 -6l11 -5l11 -5z" />
    <glyph glyph-name="q" unicode="q" horiz-adv-x="553" 
d="M221 -259l7 11v14l5 13l7 15l4 12l4 14l4 14l7 14l6 12v15l6 11l5 15l7 12l4 16l5 11l2 15l7 12l1 14l5 15l7 12l4 14l3 13l5 14l-9 -11l-8 -12l-13 -9l-10 -7l-15 -9l-14 -4l-13 -5l-13 -5l-13 -3l-29 1l-16 3l-10 1l-18 5l-9 5l-14 10l-10 7l-12 10l-11 11l-7 9l-9 13
l-4 12l-7 13l-6 16l-2 13l-1 15l-6 14l-1 14l4 29l-1 14v15l1 13l6 14l1 15l3 13l4 14l5 13l8 14l5 11l6 13l10 12l6 13l9 11l8 12l11 10l10 10l8 9l22 17l13 6l11 7l17 7l13 5l13 3l15 2l12 1l27 1l17 -3l13 -4l13 -6l11 -5l10 -9l12 -10l11 -9l6 -12l9 -11l3 -14l3 -12
l8 -16v-12l13 27l6 14l10 14l6 13l4 13l7 14l21 12l13 2l11 -1h14l12 -15l-4 -11l-4 -13l-5 -16l-6 -12l-4 -12l-5 -16l-4 -13l-2 -11l-9 -15v-12l-4 -15l-8 -12l-5 -15v-11l-8 -16l-3 -12l-2 -14l-5 -13l-4 -14l-5 -13l-7 -14l-3 -12l-5 -12l-1 -14l-6 -13l-4 -15l-5 -14
l-3 -12l-5 -13l-6 -14l-1 -12l-8 -13l-3 -14l-4 -13l-3 -14l11 8l11 9l10 7l13 10l10 10l9 8l11 9l11 12l10 10l8 10l11 11l8 9l11 12l9 12l6 9l9 13l9 10l8 12l9 10l5 14l12 10l5 12l8 14l7 11l6 13l7 11l22 4l11 -10l7 -19l-9 -12l-5 -13l-5 -11l-8 -13l-9 -13l-8 -11
l-6 -13l-6 -12l-11 -11l-5 -12l-9 -9l-9 -13l-13 -11l-8 -11l-8 -10l-11 -11l-9 -9l-11 -9l-6 -11l-12 -8l-11 -11l-12 -10l-8 -7l-12 -9l-9 -12l-8 -8l-12 -8l-10 -11l-9 -10l-5 -10l-11 -11l-10 -11l-5 -12l-8 -11l-10 -10l-5 -12l-7 -12l-4 -14l-9 -12l-6 -14l-5 -11
l-7 -13l-3 -14l-22 -14l-15 1h-26zM234 64l10 4l16 4l13 7l8 6l14 7l9 10l9 10l11 10l5 12l10 12l6 14l2 11l12 27l-1 14l5 16l1 14l1 12l-1 30l-3 13l1 14l-8 16l-6 12l-8 12l-9 8l-11 10l-16 5l-12 4h-30l-13 -2l-12 -6l-14 -5l-14 -10l-7 -8l-12 -11l-7 -11l-10 -12
l-8 -11l-6 -13l-7 -12l-3 -16l-7 -14l-2 -14v-13l-5 -14v-15l2 -29l-1 -15l5 -14l6 -13l2 -14l12 -10l9 -12l10 -7l10 -8l13 -2z" />
    <glyph glyph-name="r" unicode="r" horiz-adv-x="391" 
d="M-14 12l3 14l7 15v12l4 15l4 11l3 16l7 12l5 15l1 12l3 15l6 12l5 13l3 13v14l5 13l6 16l2 12l5 13l1 13l7 16v13l6 13l1 13l5 15l6 13l1 14l6 13l4 14l2 11l3 16l5 11l20 14h26l15 2l12 -16l-1 -15l-4 -15l-6 -12v-15l-6 -16l-3 -15l-1 -14l7 12l8 12l6 12l8 13l10 10
l12 10l7 12l19 20l13 9l10 7l15 6l28 6l24 2l17 -3l11 -8l11 -9l12 -9l8 -12l4 -13l5 -16l2 -14v-29l-2 -15l-6 -14l-15 -13l-18 -2l-27 2l-13 10l2 14l-5 27l-5 12l-10 9l-25 1l-12 -4l-12 -5l-8 -8l-11 -7l-5 -11l-9 -10l-9 -9l-9 -13l-8 -11l-6 -14l-9 -11l-6 -13l-5 -15
l-9 -11l-4 -15l-8 -14l-6 -13l-5 -13l-3 -12l-8 -15l-3 -13l-3 -15l-6 -15l-7 -13l-1 -13l-4 -15l-5 -14l-5 -14l-4 -12l-4 -16l-19 -12l-12 -2l-15 2h-13l-16 -2z" />
    <glyph glyph-name="s" unicode="s" horiz-adv-x="402" 
d="M198 -14l-17 1h-14l-14 4l-12 2l-14 3l-11 4l-11 6l-16 5l-11 6l-13 6l-8 8l-4 19l7 10l5 10l9 11l5 11l22 2l23 -11l18 -6l12 -6l14 -3l16 -5l10 -2h31l12 2l15 4l9 4l13 7l9 11l6 10l8 13l-1 26l-8 12l-8 11l-11 9l-11 10l-11 8l-11 7l-13 6l-11 7l-13 8l-13 5l-13 9
l-10 11l-7 9l-13 10l-7 12l-11 2l-7 -15l-8 -12l-5 -12l-8 -14l-8 -10l-18 -4l-15 6l-3 20l6 12l7 13l5 10l6 14l5 11l8 11l4 14l5 12l9 11l5 13l9 13l12 24l6 9l11 12l18 17l13 10l14 5l13 4l9 5l18 2l10 4l18 -1h24h17l25 -8l12 -3l13 -6l13 -9l10 -8l9 -11l9 -11l5 -13
l6 -13l5 -11l1 -16l1 -14l-18 -13l-14 1l-11 -1l-15 2l-15 13l-5 13l-5 11l-8 13l-13 8l-10 4l-14 4l-26 1l-13 -4l-16 -6l-12 -6l-8 -10l-6 -9l-3 -12l-4 -30l8 -14l11 -12l12 -7l9 -11l25 -15l14 -5l13 -7l13 -7l11 -8l12 -8l14 -10l7 -10l9 -11l11 -9l4 -13l7 -14l4 -16
l-1 -26l-1 -14l-7 -15l-2 -13l-9 -12l-4 -11l-12 -9l-10 -9l-8 -9l-13 -8l-12 -6l-12 -6l-15 -4l-11 -6l-15 -1l-14 -1l-11 -3z" />
    <glyph glyph-name="t" unicode="t" horiz-adv-x="309" 
d="M378 244l11 -9l4 -18l-6 -13l-5 -13l-6 -10l-9 -13l-10 -11l-6 -12l-7 -13l-8 -9l-6 -12l-9 -12l-10 -10l-8 -12l-11 -9l-8 -11l-7 -11l-11 -9l-10 -9l-14 -7l-11 -7l-9 -7l-13 -8l-15 -6l-23 -6l-18 -1l-27 -2l-14 4l-15 5l-11 5l-14 7l-10 12l-8 9l-7 14l-6 13l-5 13
l-2 15l1 28v12l1 14l4 14v11l5 15l1 12l3 13l1 14l4 15l5 12l2 13l2 14l8 15l1 12l2 15l4 14l8 12l3 14l1 13l-8 14l-14 1l-18 1l-15 -1l-10 13l4 14l5 13l5 13l17 15l14 -2l18 1h14l19 14l3 13l3 13l3 15l6 12l3 15l10 25l3 14l4 16l2 11l8 15l1 12l4 16l20 13l13 1l29 2
l14 2l10 -13l-1 -12l-7 -12l-4 -14l-1 -14l-8 -14l-2 -12l-5 -12l-2 -13l-7 -13l-4 -16l-2 -12l-6 -13l-6 -26l11 -12l17 -2h13l15 2l12 -1l15 -1h46l8 -14l-3 -13l-3 -13l-4 -14l-21 -12l-13 1l-15 -2l-13 2l-18 -2l-12 2h-28l-13 -2l-18 -14l-8 -12l-3 -13l-5 -14l-1 -14
l-5 -13l-4 -16l-5 -14l-2 -12l-5 -15l-1 -13l-4 -14l-1 -15l-6 -13v-14l-3 -14l-3 -15l-1 -14l4 -27l6 -16l8 -11l12 -7l30 -1l14 3l14 4l9 5l16 6l8 9l11 8l11 9l12 12l6 9l13 14l6 10l8 13l8 12l11 12l5 10l7 14l11 12l8 13z" />
    <glyph glyph-name="u" unicode="u" horiz-adv-x="521" 
d="M119 -15l-15 1l-14 5l-14 6l-8 6l-15 9l-5 11l-10 12l-6 12l-5 12l-3 13l-4 15l4 24l1 11v12l-1 13l5 14l2 11l1 13l6 13l2 15l3 12l6 15l1 12l6 14l4 13l3 14l8 15v12l7 16l4 13l4 15l5 13l8 14l1 14l7 12l7 13l19 14h44l14 2l6 -14l-2 -15l-5 -14l-6 -13l-3 -13l-4 -13
l-4 -14l-7 -15l-5 -12l-1 -13l-7 -15l-5 -13l-5 -14l-5 -14l-1 -12l-4 -15l-7 -13l-4 -13l-3 -15l-3 -14l-3 -15l1 -14l-6 -14l4 -25l2 -14l5 -11l13 -8l12 -4l25 -2l9 3l13 5l11 8l22 15l9 10l7 11l8 11l9 13l8 12l8 12l10 11l6 14l4 12l11 13l5 12l6 16l5 11l10 16l5 13
l4 12l8 15l4 12l4 15l8 14l4 12l10 28l5 13l7 13l6 13l16 15h29l14 1l16 -2l5 -13l-1 -14l-6 -13l-7 -12l-6 -15l-4 -12l-4 -14l-3 -14l-7 -15l-5 -11l-4 -16l-4 -13l-3 -14l-6 -14l-5 -11l-2 -16l-5 -13l-5 -12l-4 -16l-5 -13l-4 -15l-3 -12l-2 -16l2 -13l-3 -26l7 -14
l9 -10l29 -1l11 3l10 9l14 7l12 8l11 10l6 9l9 12l11 11l6 11l12 13l9 11l7 10l5 13l10 11l8 13l3 11l10 13l22 3l11 -9l6 -19l-10 -13l-7 -11l-7 -15l-9 -10l-7 -14l-5 -11l-11 -11l-6 -13l-7 -11l-7 -13l-10 -10l-18 -24l-12 -9l-6 -10l-11 -12l-12 -9l-12 -7l-10 -9
l-14 -6l-13 -5l-13 -5l-15 -2l-28 -1l-11 5l-13 4l-14 8l-10 12l-7 11l-4 12l-3 14l-4 14l1 32l2 15l3 16l-8 -12l-6 -14l-5 -10l-9 -14l-10 -10l-6 -12l-13 -9l-10 -11l-8 -8l-13 -11l-12 -7l-9 -6l-15 -7l-12 -7l-11 -2l-16 -2z" />
    <glyph glyph-name="v" unicode="v" horiz-adv-x="404" 
d="M115 -13l-12 3l-15 5l-9 9l-11 12l-7 14l-4 12l-3 15l-3 29l-1 11l1 13l2 14l1 16l1 13v15l-2 13l2 13l3 15l1 13l-3 13l5 14v15l-1 15l4 14l-4 12l4 15l2 15v14v13l-2 14l1 13l2 13l2 14l3 14l10 15l17 1l12 -2h14l14 1l13 -15l-5 -13l1 -14l-1 -14l-1 -13v-13l-4 -14
l-1 -14l2 -16l-2 -12v-14l-2 -13l-3 -15v-13l2 -15l-4 -14v-14v-14l1 -13l-5 -13l3 -15l-2 -14v-14v-12l-2 -14l5 -28l22 -5l5 5l12 8l6 9l10 10l8 10l9 11l8 14l5 10l8 12l5 15l9 10l6 14l6 12l7 15l9 13l8 13l5 13l7 13l8 12l7 12l6 15l5 13l7 14l3 11l9 15l6 11l8 16
l5 12l6 13l3 14l23 12l17 1l13 1l12 -2l16 1l7 -14l-3 -11l-5 -13l-10 -14l-3 -12l-5 -12l-7 -11l-8 -15l-6 -12l-4 -12l-9 -13l-2 -13l-9 -12l-6 -11l-8 -14l-5 -12l-5 -12l-5 -13l-10 -13l-7 -11l-6 -14l-5 -12l-9 -11l-6 -13l-6 -11l-7 -13l-7 -11l-10 -13l-8 -11l-7 -12
l-7 -11l-8 -12l-10 -8l-10 -13l-10 -8l-10 -10l-13 -9l-13 -5l-11 -5l-12 -4l-12 -5z" />
    <glyph glyph-name="w" unicode="w" horiz-adv-x="682" 
d="M127 -15l-14 3l-15 7l-15 7l-6 10l-8 11l-9 16l-2 14l-1 25l2 15l1 12l-1 15l4 15l-2 13l2 13l-1 16l4 14l2 15l2 14l-2 13l2 15l4 14l-2 13l2 14l3 15l-2 15l3 12l3 16l-1 12l1 15l6 13v15l1 16l1 12l13 15h15l13 1l14 -1h13l11 -14l1 -14l-3 -14l1 -12l-2 -16l-5 -12
v-14v-13l-4 -15l-1 -14l1 -15l-5 -13l1 -13l-5 -15l1 -12v-15l-5 -12l1 -14l-3 -14l-2 -13l-1 -15l1 -13v-14l-2 -13l2 -14l2 -29l23 -6l5 4l8 9l10 10l8 8l6 12l10 14l3 12l8 11l7 12l8 14l8 13l4 15l9 11l2 14l7 13l9 13l3 14l10 15l4 12l4 13l7 14l6 13l6 15l8 13l5 13
l18 14l14 2l11 -2l16 1l13 1h11l12 -16l2 -12l-1 -15l-3 -14v-14l2 -13l-1 -15l-3 -12l2 -13l-4 -15l2 -15l1 -12l-4 -15l2 -14v-11v-15l-1 -14l-3 -15l1 -13l-2 -14l3 -13l1 -28l25 -6l7 5l10 10l9 8l3 12l8 11l10 13l3 12l9 14l8 12l2 14l6 12l7 12l8 16l3 11l8 14l2 13
l7 14l4 15l9 12l2 13l8 15l2 13l8 12l6 16l6 11l1 14l5 14l9 14l3 12l22 14l27 2l12 -2l16 1l11 -15l-6 -11l-5 -14l-6 -14l-6 -12l-4 -12l-5 -14l-8 -13l-3 -13l-7 -12l-3 -15l-4 -11l-6 -13l-7 -14l-5 -12l-3 -13l-7 -13l-4 -14l-8 -12l-8 -14l-5 -12l-4 -15l-6 -12
l-8 -13l-7 -13l-5 -12l-8 -11l-3 -14l-10 -10l-10 -12l-7 -13l-9 -11l-9 -10l-8 -10l-10 -9l-14 -8l-13 -6l-12 -6l-15 -3l-28 1l-9 3l-17 7l-10 8l-9 12l-6 10l-7 13l-3 16v27l3 13l-2 15v13l2 15l-1 15l1 15l4 14l-3 15l3 15l1 15l1 15l2 13l-2 17l-9 -15l-3 -11l-7 -15
l-5 -12l-9 -12l-1 -13l-6 -11l-9 -13l-3 -12l-9 -12l-4 -13l-9 -12l-4 -13l-8 -12l-8 -12l-5 -12l-8 -10l-8 -13l-11 -9l-10 -12l-28 -25l-15 -8l-9 -6l-14 -2z" />
    <glyph glyph-name="x" unicode="x" horiz-adv-x="539" 
d="M623 267l11 -8l7 -24l-9 -12l-6 -13l-8 -12l-6 -13l-4 -13l-7 -12l-9 -12l-7 -11l-11 -13l-6 -11l-6 -12l-11 -12l-6 -11l-10 -11l-11 -10l-21 -20l-8 -10l-14 -9l-9 -7l-11 -7l-16 -9l-14 -3l-10 -4l-15 -3h-28l-15 4l-10 5l-13 6l-9 11l-9 7l-9 12l-8 11l-9 14l-6 11
l-6 12l-5 14l-3 12l-6 14l-5 13l-5 14l-9 2l-12 -9l-9 -12l-9 -9l-9 -11l-9 -10l-7 -13l-11 -8l-8 -12l-9 -9l-12 -11l-6 -11l-12 -10l-9 -13l-24 -8l-14 -3h-15l-15 1h-15l-4 11l12 10l6 11l12 12l8 10l10 11l11 12l6 10l13 10l6 12l10 9l8 12l13 12l9 10l8 10l9 11l9 12
l12 10l9 11l7 11l11 9l4 26l-1 11l-6 14l-2 14l-7 12l-4 13l-4 12l-3 12l-10 12l-9 11l-16 -4l-3 -11l-6 -11l-10 -13l-7 -13l-4 -11l-10 -12l-8 -14l-6 -11l-5 -14l-5 -10l-9 -12l-9 -12l-3 -12l-22 -4l-14 9l-8 18l9 13l8 10l7 14l6 12l8 11l6 15l6 12l7 12l8 11l5 13
l8 12l6 12l5 13l6 12l8 14l8 12l5 13l5 11l23 10l14 -5l9 -5l11 -7l11 -10l12 -9l10 -11l7 -12l3 -12l10 -13l3 -13l5 -14l5 -11l5 -14l5 -13l11 -5l10 13l9 11l11 10l6 10l13 12l9 9l6 11l8 11l12 12l6 11l12 11l9 10l23 11l12 -1l14 2l16 -2h17l4 -9l-8 -13l-13 -9
l-18 -22l-6 -10l-10 -13l-8 -10l-12 -11l-7 -11l-9 -10l-9 -11l-12 -11l-10 -11l-7 -10l-12 -12l-6 -10l-9 -11l-12 -11l-5 -12l-10 -24l5 -11l3 -15l4 -13l3 -12l6 -12l4 -15l6 -12l8 -10l6 -14l6 -8l12 -8l13 -6l28 -1l11 2l10 5l12 7l13 10l12 6l11 11l6 9l13 12l9 10
l8 10l8 11l6 12l11 12l7 10l9 13l6 10l9 13l4 13l5 11l7 13z" />
    <glyph glyph-name="y" unicode="y" horiz-adv-x="503" 
d="M599 217l-7 -14l-6 -12l-8 -13l-9 -12l-7 -11l-4 -12l-8 -12l-9 -11l-8 -11l-7 -12l-11 -12l-9 -12l-8 -11l-9 -11l-13 -10l-8 -8l-9 -12l-10 -9l-11 -10l-15 -8l-10 -10l-11 -8l-14 -7l-8 -6l-16 -8l-14 -4l-13 -8l-14 -16l-7 -14l-6 -13l-3 -13l-8 -12l-5 -13l-4 -12
l-9 -14l-8 -12l-3 -11l-9 -13l-8 -11l-6 -11l-9 -12l-10 -10l-10 -9l-9 -11l-11 -9l-11 -5l-28 -14l-10 -2l-14 -4l-16 -1l-40 2l-14 1l-10 6l-15 5l-9 8l-9 10l-12 10l-8 9l-4 13l-5 15l-2 12l1 29l5 13l4 14l2 11l6 13l12 12l5 8l13 10l11 8l13 7l12 7l14 7l12 4l11 5
l17 5l13 4l14 5l15 4l12 2l13 5l29 5l14 4l19 19l8 28l6 13l3 14l3 13l6 12l4 14v13l-8 -11l-7 -11l-10 -10l-12 -11l-9 -8l-13 -10l-11 -8l-11 -7l-13 -6l-14 -4l-9 -5l-17 -3h-28l-12 2l-16 5l-11 5l-14 6l-10 11l-8 9l-9 12l-7 11l-4 12l-4 14l-2 14l2 27l1 14l1 12l3 14
l1 15l2 14l6 14l4 12l2 15l4 11l2 15l7 14l3 13l3 13l5 14l2 13l5 13l4 14l3 13l7 13l6 13l1 14l4 14l19 13l16 2l15 -1h29l13 -13l-4 -13l-7 -14l-4 -14l-2 -13l-4 -11l-5 -15l-7 -12l-5 -14l-1 -13l-3 -14l-8 -11l-3 -15l-4 -14l-2 -13l-3 -13l-4 -12l-7 -14v-14l-1 -14
l-4 -14l-1 -11v-28l5 -13l10 -11l7 -8l15 -5l27 -1l12 3l15 5l11 6l7 7l21 18l13 10l7 11l7 11l9 14l8 11l10 11l7 14l3 10l6 13l7 15l8 11l4 14l5 12l6 13l4 14l6 12l8 13l3 16l6 13l5 13l1 13l5 14l8 14v12l19 14l14 1h28l15 -2l9 -14l-2 -11l-4 -15l-4 -13l-6 -15l-4 -14
l-3 -12l-5 -15l-16 -40l-1 -13l-7 -12l-1 -15l-5 -14l-6 -13l-3 -12l-3 -14l-6 -14l-6 -14l-2 -13l-7 -14l-1 -14l-7 -13l-3 -14l-2 -12l-7 -15l-6 -14l-3 -14l-5 -13v-14l-9 -19l9 2l17 6l12 7l11 8l10 11l9 7l13 12l8 8l12 10l9 13l9 8l8 13l8 12l9 11l10 11l10 13l8 11
l5 11l8 12l7 14l6 10l8 15l8 10l20 4l14 -8zM118 -224l16 4l13 4l7 8l10 11l13 10l4 9l11 11l5 13l8 11l8 11l6 14l7 13l2 12l-10 10l-10 -3l-15 -5l-14 -4l-17 -2l-12 -6l-12 -3l-14 -7l-14 -6l-11 -6l-14 -9l-12 -8l-7 -14l-6 -13l3 -27l6 -13l11 -9l14 -6h24z" />
    <glyph glyph-name="z" unicode="z" horiz-adv-x="503" 
d="M339 -14h-14l-16 2l-11 6l-16 4l-12 5l-12 6l-12 4l-15 4l-11 3l-16 2l-28 -2h-11l-15 -6l-10 -4l-14 -5l-17 3l-10 9l-11 11l-6 8l2 22l7 10l13 10l6 9l9 11l10 10l19 23l10 10l12 10l8 10l8 12l9 9l11 9l7 13l13 9l8 12l11 9l7 10l11 10l11 12l6 9l12 10l9 13l7 10
l19 19l-1 13l-15 2h-12l-16 5l-14 2l-12 3l-14 5l-12 5l-16 5l-10 6l-15 5l-17 -8l-6 -11l-5 -12l-7 -14l-5 -13l-9 -13l-4 -14l-6 -11l-10 -12l-5 -15l-7 -11l-3 -12l-11 -14l-5 -13l-19 -2l-15 7l-6 22l9 11l7 14l7 11l6 14l5 11l9 13l6 13l5 13l4 12l6 11l8 14l6 12l5 14
l7 12l4 14l4 12l9 13l6 11l15 8l14 -9l14 -5l11 -7l14 -3l13 -5l9 -6l16 -4l14 -5l12 -2l14 -2l11 -4l16 -1l14 -2l15 -1l11 -2h14l27 12l9 12l11 9l23 3l11 -6l15 -11l12 -6l4 -20l-9 -11l-10 -11l-11 -8l-10 -12l-9 -10l-8 -10l-10 -10l-10 -10l-9 -12l-12 -8l-19 -23
l-7 -10l-10 -9l-9 -10l-12 -12l-6 -9l-12 -12l-7 -11l-12 -10l-8 -9l-12 -10l-8 -12l-11 -9l-7 -11l-10 -11l-12 -8l-6 -12l-10 -10l4 -11l27 -3l12 -3l13 -5l11 -3l16 -2l11 -3l14 -1h13h43l13 6l10 4l17 7l10 6l10 8l9 8l13 11l11 9l6 12l8 11l10 9l9 13l6 12l9 9l10 13
l5 12l5 13l7 10l22 4l13 -8l5 -22l-6 -12l-8 -12l-6 -13l-7 -13l-6 -12l-9 -11l-9 -12l-7 -14l-9 -10l-7 -13l-8 -11l-11 -11l-10 -9l-6 -11l-10 -10l-13 -11l-9 -9l-11 -7l-15 -8l-10 -8l-28 -10l-15 -1l-12 -2h-27z" />
    <glyph glyph-name="braceleft" unicode="{" horiz-adv-x="360" 
d="M235 -44h-15l-13 3l-13 2l-12 3l-14 5l-12 7l-13 8l-6 11l-11 9l-8 13l-4 11l-5 14l-3 15l3 28v14l3 14v12l6 16l1 12l5 15l4 12l2 15l3 14l5 14l1 12l3 14l1 15l6 14l-3 28l-5 12l-10 12l-8 9l-15 5l-11 4l-13 13l6 12l15 13l17 4l12 3l13 7l15 8l7 9l20 23l7 11l6 14
l3 13l7 13l6 13l4 29l7 12l2 16l1 12l4 14l7 15l2 14l8 13l6 12l8 13l5 13l12 10l7 11l12 8l14 8l14 3l11 5l47 3l12 -3h13l10 -18v-13l-6 -13l-5 -12l-16 -11l-30 -2l-12 -2l-13 -8l-10 -10l-8 -14l-6 -13l-8 -11l-2 -15l-5 -14l-9 -28l-4 -15l-2 -14l-3 -11l-4 -14l-7 -14
l-6 -14l-2 -11l-8 -12l-10 -13l-10 -12l-8 -10l-9 -7l-13 -8l-12 -8l7 -13l12 -13l5 -29l3 -27l-1 -12l-5 -15l-4 -13l-3 -14l-3 -13l-3 -15l-4 -11l-1 -15l-4 -13l-2 -13l-3 -14l-3 -12l-4 -14l-3 -14l2 -29l4 -14l10 -11l11 -8l15 -5l14 -3h28l4 -15l-7 -12l-4 -15l-3 -14
z" />
    <glyph glyph-name="braceright" unicode="}" horiz-adv-x="408" 
d="M269 715l15 -3l14 -1l10 -2l17 -5l10 -5l16 -6l11 -9l6 -9l12 -10l6 -11l4 -13l5 -12l2 -15v-29l1 -13l-5 -12v-14l-4 -14l-8 -15l-2 -12l-2 -13l-6 -14l-5 -13l-4 -15l-3 -12l-2 -13l-3 -14l1 -29l3 -13l12 -9l11 -9l9 -6l13 -4l14 -11l-3 -14l-21 -13l-13 -4l-14 -5
l-11 -9l-13 -8l-6 -11l-11 -13l-5 -11l-10 -13l-3 -13l-5 -12l-5 -14l-5 -16l-2 -14l-7 -27l-3 -13l-5 -14l-5 -13l-1 -14l-5 -14l-3 -13l-9 -14l-4 -14l-8 -12l-8 -12l-6 -11l-11 -10l-13 -8l-13 -7l-14 -3l-11 -5l-16 -2h-31l-11 1l-17 3l-9 17l4 15l3 11l5 13l16 12l30 1
l15 1l12 7l11 11l9 10l4 13l4 14l7 13l1 14l9 28l2 13l2 12l7 13l2 16l3 11l2 14l5 12l5 15l9 12l5 10l4 14l8 9l10 10l23 20l12 5l-13 13l-5 11l-9 16l-2 15v27l1 16l3 13l5 14l4 14l6 14l3 13l6 13l3 15l3 14l3 13l5 14l2 14l-3 29l-3 15l-12 12l-10 6l-14 7l-15 2l-23 2
l-5 12l5 15l4 13l5 15z" />
    <glyph glyph-name="exclamdown" unicode="&#xa1;" horiz-adv-x="373" 
d="M381 686l-1 -15l-5 -12l-2 -14l-8 -13l-3 -14l-18 -13l-11 1h-58l-12 13l5 14l6 12l6 13l3 13l2 16l18 13l14 -1l28 2l17 -1l10 1zM319 490l-4 -12l-6 -13l-3 -13l-3 -15v-12l-5 -15l-4 -13l-4 -12l-4 -16l-1 -12l-4 -12l-1 -14l-3 -15l-9 -25l-6 -27l-3 -15l-7 -11
l-5 -13l-2 -14l-6 -27l-7 -12l-2 -13l-3 -14l-5 -13l-4 -13l-2 -13l-5 -15l-5 -13l-1 -13l-4 -13l-4 -12l-2 -15l-4 -12l-17 -14h-17l-14 2h-11l-13 -3l-13 16l5 12l4 12l5 13l1 15l7 14l3 12l2 12l4 15l3 12l4 15l7 13l3 11l5 14l3 14l1 14l5 13l6 13v11l7 15l5 25l7 15
l4 14l4 11l5 16l4 12l6 12l3 16l5 11l5 14v15l7 11l2 15l8 13l2 15l6 13l18 13l13 -1h10l15 1z" />
    <glyph glyph-name="cent" unicode="&#xa2;" horiz-adv-x="372" 
d="M401 124l7 -10l7 -11l10 -11l-3 -19l-8 -11l-13 -9l-10 -9l-10 -8l-13 -9l-11 -8l-13 -5l-12 -8l-9 -5l-16 -3l-12 -5l-15 -4l-26 -4l-13 1l-18 -2l-10 -13l-4 -14l-5 -13l-5 -15l-3 -14l-18 -15h-15l-12 1h-17l-8 16l3 13l1 13l8 17l1 13l6 15l-9 20l-13 7l-11 10l-9 11
l-9 11l-11 12l-3 12l-7 11l-9 15l-3 14l-2 14l-3 13l-3 14l-1 15l-3 28l2 14l2 14l2 14l4 14l3 14l4 12l3 13l6 14l2 13l10 13l7 12l3 12l8 11l13 11l6 10l12 10l8 10l12 10l13 9l10 5l14 8l12 4l10 7l17 2l14 4l14 17l7 11l2 13l5 15l6 11l1 13l19 14h14l14 -1h10l11 -12
l-2 -13l-7 -16l-3 -12l-5 -15l-4 -11l11 -19l10 -6l14 -7l10 -10l11 -12l7 -11l7 -12l2 -13l4 -13l4 -14l-1 -15l-1 -14l-18 -14l-13 1h-24l-13 13l-4 13l-6 13l-8 12l-8 8l-11 7l-17 4l-27 1l-13 -5l-11 -4l-12 -7l-13 -6l-10 -11l-14 -9l-4 -14l-12 -11l-7 -12l-4 -13
l-6 -14l-2 -14l-5 -12l-6 -14l-1 -15v-15l1 -29l2 -14l-1 -13l4 -13l6 -14l7 -14l8 -10l12 -9l7 -11l14 -5l13 -6l13 -2l29 -1l16 2l15 2l10 4l17 4l14 6l11 5l13 8l10 7l14 9l10 11z" />
    <glyph glyph-name="sterling" unicode="&#xa3;" horiz-adv-x="529" 
d="M502 559l-12 -1h-18l-10 -1l-16 2l-14 14l-2 13l-5 12l-5 13l-8 10l-8 8l-15 7l-13 3h-40l-11 -6l-13 -4l-13 -6l-11 -9l-6 -11l-9 -9l-9 -12l-5 -11l-10 -13l-5 -14l-4 -13l-3 -15l-3 -13l-2 -15l-5 -13l-3 -14l-3 -13l1 -14l-3 -15l-1 -14l-3 -15l13 -13l17 -2l12 1
l14 -1h25l14 2h16l11 -1l16 -1h10l17 1l7 -16l-2 -13l-6 -16l-5 -14l-21 -14l-12 -1l-16 1h-15l-14 1l-12 -1l-16 1h-12l-18 -1l-15 1l-12 -15l-4 -14l-3 -14l-1 -15l-4 -13l-4 -13v-13l-7 -15l-2 -12l-6 -14l-3 -12l-8 -15l-3 -12l-5 -12l-8 -11l-6 -14l5 -10h15l15 -2l9 1
l18 -1h10l16 1h13l15 1h26l12 -2l17 1l15 -1l12 2h12l13 -1h17l11 -1l13 2l14 -1l17 -1l11 1l16 -1l7 -13l-1 -14l-6 -13l-4 -11l-3 -14l-19 -12h-12l-14 -3h-29l-12 1l-16 -1l-11 3l-14 -2h-18l-14 -1l-14 1l-12 2l-13 -3l-16 1h-12l-12 2h-17l-11 -3l-17 3h-12l-16 -2h-39
l-13 2l-27 12l-8 9l-9 13l-7 14l-2 20l8 12l5 12l9 11l7 11l7 13l7 11l4 14l6 11l5 14l5 14l4 12l1 14l4 15v12l3 15l3 13l3 14l-14 16h-25l-15 1l-10 -1l-18 -1l-8 15l5 15l5 15l5 14l18 15h13l12 -1l15 2l11 -2l12 14l4 16l-2 13l6 14l2 13l-2 15l3 14l3 13l4 14l4 13
l1 14l6 15l5 12l2 15l7 13l5 11l7 13l4 14l8 10l7 14l9 10l12 11l8 10l10 9l12 8l12 5l15 7l11 4l15 6l14 2l12 1l17 3l26 -2l13 -1l16 -2l23 -10l17 -4l9 -9l10 -8l10 -11l10 -10l10 -13l4 -10l7 -15l1 -14l3 -13l4 -12v-16z" />
    <glyph glyph-name="dieresis" unicode="&#xa8;" horiz-adv-x="320" 
d="M158 576l5 13l2 12l3 13l5 14l5 11l2 13l18 14l16 -1l13 2l16 -2l12 -11l-8 -14l-2 -12l-3 -13l-7 -14l-3 -13l-5 -13l-15 -11l-16 1l-29 -2zM330 577l5 12l2 12l7 13l1 12l5 15l4 13l16 13l15 -2h31l11 -11l-7 -13l-1 -14l-3 -11l-6 -15l-3 -11l-6 -13l-16 -12h-45z" />
    <glyph glyph-name="macron" unicode="&#xaf;" horiz-adv-x="307" 
d="M163 585l5 15l2 16l18 16l15 -1l16 1l11 -2l14 2l13 -2l17 2h15l13 -1l15 1h14l11 -2l14 2l14 -2h17l11 1l11 -15l-5 -16l-6 -14l-20 -16l-14 2l-14 -2l-12 1l-15 1l-11 -2l-15 2h-14l-14 -2l-16 2l-14 -1l-12 1h-28l-13 -2l-14 1z" />
    <glyph glyph-name="acute" unicode="&#xb4;" horiz-adv-x="174" 
d="M159 568l7 10l7 11l13 10l7 13l9 10l9 11l11 12l9 10l7 11l9 12l10 11l21 11l16 1l16 -2l12 2l17 -2l6 -11l-9 -9l-9 -9l-24 -21l-7 -10l-11 -12l-8 -10l-21 -20l-9 -12l-7 -9l-14 -11l-23 -8h-13l-14 -2l-16 2z" />
    <glyph glyph-name="cedilla" unicode="&#xb8;" horiz-adv-x="224" 
d="M-25 -256l-15 2l-14 1l-10 5l-14 3l-7 18l3 12l6 10l5 13l23 6l14 -5l12 -2l32 2l12 4l15 7l7 14l-1 28l-9 10l-11 9l-19 3l-25 2h-13l-9 14l6 12l7 15l5 14l3 12l5 13l8 15l18 13l11 -2l11 1l15 1l9 -16l-9 -12l-4 -16l-6 -12l6 -17l16 -1l16 -8l11 -5l11 -11l10 -11
l3 -15l2 -14l2 -26l-2 -15l-6 -11l-9 -12l-8 -11l-8 -11l-14 -7l-8 -5l-17 -6l-13 -2l-14 -5z" />
    <glyph glyph-name="questiondown" unicode="&#xbf;" horiz-adv-x="560" 
d="M492 701l-5 -13l-4 -13l-2 -13l-6 -14l-2 -15l-17 -12l-18 -1h-25l-17 2h-12l-12 13l5 12l7 15l4 12l5 14l3 15l20 13l12 1l16 -1l14 1l11 -1l15 -1zM429 509l-6 -12l-1 -14l-10 -10l-6 -13l-6 -14l-7 -11l-4 -11l-9 -14l-7 -11l-7 -9l-10 -12l-10 -9l-13 -11l-8 -8
l-8 -10l-24 -18l-13 -6l-10 -8l-12 -9l-10 -8l-12 -7l-9 -11l-13 -9l-5 -9l-12 -9l-7 -12l-5 -13l-7 -11l-6 -27l-7 -14v-13l1 -16l7 -12l2 -14l10 -12l12 -9l10 -6l14 -3l14 -2h27l15 1l25 11l14 7l9 9l11 9l11 12l10 12l5 10l7 15l6 13l3 14l18 14l10 -1l17 1l13 -1l9 -1
l14 -13l-7 -15l-3 -12l-2 -15l-5 -14l-9 -12l-4 -11l-8 -14l-7 -11l-18 -20l-8 -10l-11 -9l-13 -11l-12 -7l-10 -8l-17 -4l-12 -7l-12 -2l-14 -5l-14 -4l-13 -2l-13 1h-32h-14l-11 3l-16 2l-10 5l-28 15l-11 8l-10 8l-9 12l-4 10l-10 12l-3 12l-4 14l-1 15l-6 14l2 14l3 15
l-1 13l1 15l5 14l9 25l4 13l7 15l7 12l10 11l8 11l6 11l10 9l15 10l10 8l9 10l11 8l12 6l15 9l10 8l21 17l11 9l12 8l11 9l7 10l12 12l8 11l9 12l3 12l7 15l8 13l5 14l19 14l14 -2l15 1l11 1l18 -2z" />
    <glyph glyph-name="Agrave" unicode="&#xc0;" horiz-adv-x="610" 
d="M546 791l-13 1l-17 -1h-11l-26 10l-10 12l-5 11l-13 12l-8 11l-8 10l-6 12l-13 9l-7 12l-9 10l-10 11l-8 12l6 13l14 -1l17 -1l13 2l15 -2l25 -12l8 -12l8 -10l6 -13l7 -12l8 -12l8 -13l10 -11l8 -12l10 -11l5 -13zM406 701l15 -1h10l13 1l13 -1l14 1l11 -1l17 -13l2 -15
l-3 -15l3 -13l1 -14v-13l2 -16l3 -12l-3 -14l2 -16l4 -13v-14l1 -14v-13l1 -16l1 -13l-1 -13l3 -15l-2 -14l2 -13v-14l3 -16l2 -12l-1 -15l3 -14v-15v-12l2 -15l-1 -13l1 -15l1 -14l2 -13l4 -15l-4 -13l2 -15l2 -13l-1 -14l1 -15l5 -15l1 -14l-3 -14l3 -14v-12l4 -14l-2 -14
l4 -15l1 -15l-1 -14l3 -14l-16 -15l-13 1h-42l-15 14l-3 15l-1 15v12l-1 15l-3 16v14l2 14l-5 14v13l1 14l-1 15v14l-16 15l-14 -1l-12 2l-16 -2l-12 1h-44l-11 1l-17 -1h-11l-16 -1l-11 1l-15 -1l-15 2l-15 -2h-27l-21 -10l-7 -14l-7 -10l-8 -11l-7 -12l-5 -12l-5 -12
l-10 -11l-7 -13l-7 -11l-6 -13l-6 -10l-9 -13l-8 -10l-5 -12l-7 -12l-19 -13h-14l-15 -1h-29l-11 3l-7 10l7 12l6 12l9 13l6 13l8 12l6 10l6 14l10 12l5 10l9 14l5 10l10 13l8 13l8 11l5 14l8 12l9 12l3 10l11 13l8 11l7 13l7 13l4 12l8 12l7 12l8 11l10 12l5 13l8 12l8 13
l4 11l8 13l10 10l7 12l8 13l6 13l8 10l7 14l6 11l6 13l10 11l6 12l10 14l7 10l7 14l5 12l9 12l8 11l8 11l6 13l5 12l8 11l7 13l7 12l8 12l6 13zM245 275l11 1l18 1l13 -2l15 2h15l13 -1l16 1l10 -2l18 2l13 -2l26 2h15l14 12l1 13l-2 16l1 12l-4 15l-1 14v14l3 13l-4 13
l2 14l-2 14l-3 15l-1 13l-1 15l2 14l-1 13v13l-2 16l-1 13l1 14l-1 13v14l-4 16l-10 -13l-7 -11l-8 -13l-9 -12l-6 -11l-8 -12l-7 -13l-5 -12l-9 -12l-4 -11l-11 -12l-7 -12l-3 -11l-15 -24l-11 -13l-7 -9l-3 -12l-7 -14l-8 -10l-10 -12l-7 -12l-3 -13l-7 -12l-11 -10
l-4 -12z" />
    <glyph glyph-name="Aacute" unicode="&#xc1;" horiz-adv-x="610" 
d="M570 925l-9 -10l-6 -12l-14 -11l-9 -9l-8 -11l-8 -10l-13 -10l-9 -10l-8 -11l-10 -9l-8 -10l-12 -12l-22 -10h-16l-13 2h-15l-5 11l9 10l10 12l9 10l10 12l5 10l11 12l11 11l5 9l10 13l12 11l8 10l21 13l15 -1l17 1l12 -2l15 2zM407 699h14l9 2l14 -2l15 2l11 -1l13 -1
l13 -14l1 -14l2 -12l3 -16l2 -13l-1 -15v-28l1 -14l3 -13l3 -14v-14l-2 -14l2 -15l3 -14l1 -13v-14l2 -14v-15v-13l-1 -15l3 -14l4 -26l-3 -15l1 -14l1 -15l4 -13l1 -15l-2 -14l4 -14l-1 -12l2 -14l-2 -15l5 -15v-13l2 -15v-13l-1 -13l2 -14l3 -16l1 -14l-2 -12l2 -15v-14
l2 -14v-14v-15l3 -12l-14 -16l-13 2l-16 -3l-16 3l-13 -3l-15 15l2 16l-5 13l3 13l-1 15l-2 15l1 14l-3 13l-1 16v13l-2 15l-2 13l3 14l-16 16l-12 1h-16l-12 -1h-14l-17 -1l-11 1l-14 1l-31 -2l-12 2l-15 -2l-11 1h-29l-16 1h-12l-13 -2l-23 -12l-5 -12l-9 -10l-5 -11
l-10 -13l-5 -11l-7 -11l-6 -13l-9 -12l-6 -11l-5 -11l-7 -13l-16 -23l-8 -13l-7 -10l-21 -11h-13l-16 -2l-11 -1l-14 3h-15l-3 11l4 12l7 13l7 11l8 12l7 11l8 12l9 13l8 13l5 12l7 10l10 12l8 12l7 14l6 11l8 12l6 12l9 13l5 12l7 13l10 11l5 12l9 11l8 14l5 11l9 11l4 14
l7 10l10 15l5 12l9 12l5 11l10 12l5 11l11 13l6 13l6 10l10 14l4 12l11 10l3 12l11 13l5 12l6 14l9 11l8 12l6 12l8 12l10 11l6 14l6 10l8 13l7 11l7 13l6 11l7 12l8 13zM243 276l17 -1l12 2h87l14 -2l14 1h15l12 1h16l15 13l-3 13l-1 13l1 15l-1 13l-2 15l-2 13l-1 14v13
l-2 14l3 15l-3 14l1 15l-2 13v14v12l-4 28v16l-2 14l-1 13l3 15l-4 14l-13 -12l-6 -12l-5 -13l-10 -13l-5 -12l-7 -10l-6 -12l-11 -11l-3 -13l-10 -11l-5 -11l-9 -12l-8 -12l-7 -12l-8 -12l-5 -13l-5 -10l-10 -13l-6 -13l-9 -10l-6 -12l-5 -13l-8 -10l-7 -12l-5 -13l-11 -12
z" />
    <glyph glyph-name="Acircumflex" unicode="&#xc2;" horiz-adv-x="610" 
d="M466 858l-7 -7l-13 -10l-8 -9l-10 -7l-13 -9l-9 -10l-9 -7l-25 -10h-18l-12 2h-19l-13 -1l-4 9l8 8l15 10l8 10l11 7l11 9l21 19l10 10l14 7l8 10l10 9l13 9l10 9l14 9l21 8l14 1l20 -12l6 -11l10 -12l10 -10l6 -11l9 -12l8 -9l9 -11l10 -12l9 -11l9 -11l6 -12l-3 -9
l-13 -2h-12l-12 2l-13 -1l-23 12l-11 9l-6 11l-10 13l-6 9l-11 12zM407 700h12l15 1l13 -1l10 1l15 -2l13 1l15 -14l-2 -13v-16l5 -12l-3 -15l5 -14l1 -15l-1 -13l-1 -15l5 -12l-1 -16l2 -14l2 -13l-1 -13l3 -14v-14l-3 -14l5 -16l-3 -14l1 -13l2 -13l1 -14l4 -16l-1 -13
l1 -14l-1 -13l5 -16v-13l2 -13l-3 -14l4 -15v-13v-15l3 -13l-2 -14l3 -15v-14v-13l4 -16l-2 -14l2 -12l2 -14l1 -14v-15v-13l1 -15v-13l4 -14l2 -16l-17 -14h-57l-13 15l-1 15l-4 12l1 16l-2 15l-1 12l-1 16l3 12l-5 14l1 15v16l1 14l-2 12l-13 16l-17 1l-15 -2l-13 1
l-11 -1l-18 2l-10 -2l-14 2l-15 -2l-16 2l-12 -1h-27l-15 1l-29 -2l-14 2h-11l-20 -12l-10 -14l-4 -10l-10 -11l-6 -12l-6 -14l-6 -10l-7 -13l-10 -10l-7 -14l-8 -11l-4 -12l-9 -12l-7 -11l-8 -12l-6 -10l-18 -14l-18 1h-14l-13 2l-14 -3h-14l-3 13l4 14l10 12l8 12l6 12
l7 10l8 14l5 12l15 22l11 12l7 13l6 13l7 10l9 14l6 11l5 14l18 24l8 12l6 11l8 12l7 11l5 12l10 14l8 10l7 13l5 11l7 14l9 11l8 14l4 11l7 11l10 14l5 10l10 14l6 11l6 13l9 11l5 13l7 12l11 10l5 14l8 12l6 13l8 10l9 14l6 11l9 13l5 11l8 13l7 11l7 12l10 11l6 14l6 12
l10 12zM244 275l14 1h14l16 1l13 -1h13l13 -1l19 1l10 1l15 -2h32l11 1h17l10 12l-1 15l-1 14v13l2 16l-4 14l1 12l-1 13l1 16v14l-4 13l3 14l-5 15l-1 12v16v13l2 12l-5 14l1 15v14l-3 15v12l-4 15l-7 -12l-7 -12l-10 -12l-6 -11l-5 -14l-7 -11l-10 -12l-6 -12l-9 -12
l-6 -10l-8 -11l-6 -12l-8 -12l-8 -13l-3 -13l-10 -12l-8 -11l-5 -10l-6 -12l-9 -14l-7 -12l-8 -11l-3 -10l-7 -12l-10 -14l-8 -11z" />
    <glyph glyph-name="Atilde" unicode="&#xc3;" horiz-adv-x="610" 
d="M558 897l18 1h14l15 -17l-6 -12l-7 -15l-6 -12l-11 -9l-9 -11l-10 -8l-15 -6l-14 -3l-30 1l-21 7l-26 16l-9 10l-11 4h-25l-12 -5l-9 -11l-18 -12l-19 -2l-13 1l-14 14l6 13l4 14l7 12l11 12l10 9l12 7l14 7l12 3l30 -1l14 -4l9 -4l12 -10l12 -9l13 -8l9 -4h26l12 6l8 12
zM405 699h13l16 2l12 -2l14 1h10l13 -1l13 -13l3 -15l1 -14l-1 -14l4 -13l1 -14l2 -15l-2 -12v-14l3 -16l2 -14l-2 -12l2 -16l1 -13l4 -15v-12l-3 -16l3 -12l-1 -16l3 -14l1 -14l3 -13l-3 -15l5 -13l-2 -14l4 -15l-1 -12l-1 -15l3 -14v-13l4 -14l-1 -15l-1 -13v-14l3 -16
v-14l3 -13l-2 -13l1 -14l3 -16l3 -12l-1 -15l3 -13l1 -14l-1 -14l1 -16l1 -12l3 -14l1 -16l-18 -15l-14 3h-10l-18 -2l-11 2l-18 14v12l-3 16l3 13l-2 15l-2 13l-1 14v14v15l-1 15v15v12l-3 15l-15 15l-14 1h-11l-32 -2l-12 2h-43l-11 -1h-17l-13 -1l-12 2l-14 -1h-27
l-17 -1h-11l-21 -12l-8 -11l-8 -13l-5 -9l-6 -13l-9 -12l-5 -12l-11 -10l-3 -13l-9 -11l-8 -11l-5 -13l-7 -11l-7 -11l-9 -14l-4 -10l-25 -14l-14 3l-12 -3l-14 3l-11 -2l-18 2l-2 12l5 10l5 13l11 13l7 11l6 12l6 12l11 11l6 14l5 12l10 12l6 11l8 12l9 13l3 12l8 12l8 11
l6 14l17 22l5 12l9 13l10 12l4 11l9 14l6 10l9 12l4 13l10 12l8 13l7 11l7 14l5 11l7 12l10 11l6 12l6 13l17 24l9 13l5 10l6 14l7 12l10 11l6 13l7 12l8 13l7 12l7 11l9 11l4 13l11 11l4 12l8 14l7 11l7 11l9 12zM246 275l14 2l14 -2l12 2l17 -2l14 1l12 1h17l11 -1l16 -1
l15 2l11 -1l16 -1l14 1l14 14v13l-1 14l1 15l-3 12l1 14l-3 16l-1 11l-2 15l1 14v13l1 14l-2 15l-3 14l1 14l1 13l-3 14l-3 13l3 16l-2 12l-1 14l-3 15l-1 13l-12 -10l-7 -12l-7 -14l-7 -10l-8 -13l-5 -12l-9 -12l-4 -10l-7 -13l-9 -13l-7 -11l-5 -11l-8 -13l-8 -11l-6 -12
l-9 -11l-12 -25l-7 -11l-8 -13l-7 -10l-8 -13l-6 -11l-6 -13l-9 -12l-4 -10z" />
    <glyph glyph-name="Adieresis" unicode="&#xc4;" horiz-adv-x="610" 
d="M433 887l-5 -13v-11l-4 -13l-7 -14l-5 -12l-1 -14l-21 -10l-13 -2l-11 2l-16 -1l-10 12l1 12l5 14l6 13l1 12l6 14l5 11l14 13l15 2l17 -2h11zM550 902h32l12 -2l12 -12l-5 -14l-1 -13l-7 -12l-4 -12l-8 -26l-17 -12l-11 1h-33l-7 11l4 13l2 13l6 13l-1 11l6 14l4 12z
M406 701h39l14 -1l14 1l10 -1l13 -13l1 -16l5 -14l-2 -12l2 -28l2 -16l1 -13l2 -13l2 -14l-1 -14l2 -14v-15l1 -15l2 -12l-1 -16l1 -12v-15l3 -15l2 -13l1 -15l-1 -14l-1 -13l2 -13v-14l4 -14l1 -14l2 -16v-13l1 -14l-1 -14v-13l4 -15v-14l-1 -13l1 -14l4 -14l-2 -15l1 -15
v-13l5 -15l1 -13l-1 -15l2 -12l-1 -15l3 -13v-15l1 -13l-1 -16l-11 -15h-15l-14 3h-17l-12 -3l-17 16l2 15l-2 12l-1 16l1 15l-2 12l-2 16l2 14l-4 13v16l-2 14l-1 13l-1 15l-14 14h-24l-14 1l-16 -2h-30l-13 1h-14l-10 1l-15 -2l-17 1h-12l-16 1l-11 -1h-16l-13 1l-13 -2
l-20 -12l-7 -10l-7 -14l-9 -9l-5 -12l-9 -12l-8 -13l-3 -11l-11 -11l-3 -14l-11 -9l-6 -12l-5 -13l-7 -12l-10 -10l-6 -14l-21 -12h-15l-12 3l-11 -2h-14l-18 2l-4 12l9 11l6 12l7 13l7 10l9 14l7 11l4 11l11 13l7 11l4 14l11 12l7 10l6 14l14 23l6 14l10 12l6 11l10 13
l3 12l8 11l7 11l11 12l4 12l11 14l3 10l10 13l7 13l8 11l7 12l6 14l10 12l7 12l6 12l5 10l8 13l10 11l6 13l7 12l5 12l9 12l6 11l9 15l5 11l8 12l10 11l4 12l10 13l7 12l8 12l5 13l10 12l6 11l6 12l10 11l8 13zM242 276h14l15 -1l14 1l18 -1h12l13 2h29l16 -1h30l14 -1l13 1
l12 13v13v15l-2 14l-2 14l3 13l-2 15l-2 14v13l-3 14l1 14l-2 15v13l-2 15l3 13l-4 14l1 14l-3 14l3 13l-3 13l-1 15l2 13l-3 15l-14 -12l-8 -13l-5 -12l-6 -12l-8 -12l-5 -11l-9 -11l-6 -11l-10 -14l-6 -10l-4 -11l-7 -12l-7 -14l-10 -10l-8 -12l-7 -14l-7 -10l-5 -11
l-9 -13l-6 -13l-7 -11l-6 -10l-6 -14l-10 -12l-8 -11l-4 -12z" />
    <glyph glyph-name="Aring" unicode="&#xc5;" horiz-adv-x="610" 
d="M436 772l-12 2l-14 4l-13 9l-9 7l-13 12l-6 13l-5 12l-3 13v28l3 16l2 14l6 11l11 13l7 9l12 8l12 10l12 3l13 4l13 5l29 -2l29 -6l10 -9l13 -7l10 -12l5 -13l9 -14l2 -12l-2 -29l-1 -16l-3 -11l-6 -14l-6 -11l-13 -11l-8 -8l-14 -7l-12 -7l-14 -3l-16 -2zM451 909
l-14 -7l-13 -11l-3 -14l-2 -28l7 -12l17 -10l25 -1l17 7l7 12l6 11l3 32l-7 12l-16 7zM407 701l11 -2h25l28 2l11 -1l15 -15l2 -13v-13l4 -14v-14l-2 -16l2 -12l1 -14l1 -16v-14l4 -14l-1 -14l2 -13v-14l4 -14l-1 -14l2 -15l-1 -14l3 -13l-1 -14l3 -15l1 -13v-14l-1 -13
l1 -16l4 -13l-2 -13l3 -15l2 -14l-1 -13l3 -16l-3 -14l2 -14l-1 -13l4 -15l-2 -14l2 -12l4 -14l-3 -16l3 -14l-1 -13l5 -15l1 -12l2 -28l-1 -16v-12v-15l3 -13l-15 -14l-13 -2h-12l-15 -1l-17 1l-12 15l-4 28v13v16l-3 13l-2 16v13l-2 13v17l1 13l-1 13v16l-14 14l-16 1
l-15 -2l-11 2h-15l-12 -2h-45l-14 1l-11 1l-15 -1l-12 1l-18 -1l-13 1l-11 -1h-14l-16 -1l-22 -12l-14 -22l-4 -11l-10 -13l-5 -11l-7 -11l-13 -26l-7 -12l-6 -11l-10 -10l-5 -14l-10 -10l-3 -13l-7 -11l-24 -10l-14 -3l-11 3l-15 -2l-14 2l-16 -3l-3 14l5 12l6 12l8 12
l7 13l11 12l5 10l7 12l8 13l10 11l3 13l10 12l9 11l4 13l10 12l4 12l8 13l10 11l3 13l9 12l9 11l7 13l7 12l7 11l5 14l12 12l4 12l10 11l6 14l9 12l5 11l15 24l9 11l3 13l9 11l9 13l4 12l11 12l5 11l10 12l4 13l8 13l9 13l5 12l10 11l4 11l19 26l5 11l8 11l6 13l10 13l5 10
l10 13l6 12l7 12zM246 276l12 -1l12 2h17l12 -2l16 2l16 -1h26l14 -1l13 1l18 -1h15l12 2l13 12l-2 15l3 12l-3 14l-1 16l2 14l-1 14l-3 12l-2 15v12l-2 15l4 14l-4 14v14l-2 14l1 13l-2 15l1 14l-4 14l1 14v12l1 15l-3 13l-13 -11l-5 -12l-11 -11l-4 -14l-8 -10l-7 -11
l-9 -14l-5 -12l-9 -10l-3 -14l-10 -10l-8 -12l-6 -13l-6 -12l-8 -11l-7 -11l-6 -12l-9 -13l-6 -11l-7 -13l-7 -12l-9 -11l-3 -11l-7 -11l-10 -12l-7 -13z" />
    <glyph glyph-name="AE" unicode="&#xc6;" horiz-adv-x="830" 
d="M861 622l-14 -1h-17l-13 1h-45l-12 -2l-16 1h-25l-17 1h-28l-12 -1l-14 1l-14 -2l-14 2l-17 -15l-5 -14l-2 -12l-5 -15l-5 -14l-1 -12l-3 -14l-6 -13l-3 -14l-7 -29l-5 -13v-14l-6 -12l-5 -14l10 -13l16 -2l15 1h42l11 -1l16 2l11 -1l18 -1l13 2h12l15 -1h13l15 -1l11 1
l15 -1l12 -14l-8 -11l-1 -14l-7 -15l-4 -14l-19 -12h-27l-12 -1l-16 2h-16l-12 -1l-14 -1h-14l-15 2h-17l-15 -2h-39l-16 2l-18 -16l-2 -11l-7 -15l-3 -14l-3 -13l-3 -14l-3 -13l-1 -12l-3 -14l-7 -12v-15l-4 -12l-6 -14l-1 -15l-5 -13l-4 -13l-3 -13l11 -13l12 1h16l13 -2
l13 2h15l16 -2h12l14 2l15 -2l11 1h15l11 -1h14l30 2l13 -2h14l15 2h15l8 -14l-3 -14l-4 -14l-6 -12l-6 -15l-17 -15l-16 1l-11 2l-13 -2l-18 -1l-14 3h-12l-16 -3l-11 1h-15l-12 -1h-16l-11 3h-29l-17 -2h-11l-16 2l-12 -3h-15l-12 1h-16l-16 -1l-13 3h-11l-10 13l4 12
l-1 13l4 14l7 12l4 14l-1 13l8 15l2 12l3 13l5 14l3 27l7 11l-9 14h-18l-12 1l-15 -1h-24l-16 1l-15 -1l-25 2h-17l-14 -2l-11 1l-13 1l-25 -14l-7 -10l-9 -12l-10 -11l-7 -9l-7 -12l-9 -11l-11 -11l-9 -10l-8 -13l-15 -22l-8 -11l-13 -9l-6 -13l-11 -11l-8 -11l-22 -11
l-11 2l-12 -3h-15l-11 3h-13l-6 9l8 12l9 10l9 11l6 10l13 12l6 11l7 12l11 9l8 13l15 20l11 13l9 11l9 11l8 9l10 11l8 10l9 11l7 12l7 11l8 12l11 10l7 11l8 10l11 13l9 9l6 11l11 11l6 13l12 9l8 13l10 8l7 11l9 12l9 11l6 12l10 9l9 13l7 9l7 11l13 12l7 12l7 9l11 13
l5 9l13 11l5 11l12 10l8 11l8 12l10 11l5 12l12 9l5 13l10 10l9 11l10 12l8 9l6 11l12 12l5 10l10 12l23 10h28l12 2h17l15 -1l10 1l18 -2h13l16 2l11 -2l13 1h30l14 -1l13 1l15 1l17 -1l10 1l17 -1h25l16 -1l13 1h14l14 -1l10 -13l-3 -13l-2 -12l-8 -14l-2 -12zM289 277
l11 -1l16 1l14 -1h15l12 -1h13l18 1l14 1h10l16 -1l19 12l1 14l4 16l2 12l4 13l4 16l4 12l6 15l4 25l5 16l6 14l2 14l2 13l4 12l6 16l1 11l4 14l6 27l5 14l5 16l1 14l-11 -11l-7 -11l-12 -13l-8 -11l-5 -9l-9 -12l-11 -12l-5 -10l-9 -10l-11 -10l-7 -12l-9 -11l-10 -12
l-9 -11l-9 -10l-4 -11l-12 -10l-6 -12l-12 -11l-4 -9l-11 -12l-7 -11l-12 -9l-8 -13l-9 -9l-6 -12l-10 -10l-8 -12z" />
    <glyph glyph-name="Ccedilla" unicode="&#xc7;" horiz-adv-x="659" 
d="M490 715l30 -4l14 -3l15 -4l12 -7l11 -5l14 -6l11 -9l11 -10l10 -8l6 -11l10 -10l7 -14l7 -11l3 -13l2 -13l6 -16l-1 -13l5 -14l-4 -26l1 -13l-1 -14l-18 -14l-13 2l-29 -2l-14 2l-8 10v13l1 13v27l-1 12l-6 14l-5 13l-10 14l-12 9l-9 8l-11 7l-16 7l-13 2l-15 4l-26 -2
h-16l-16 -3l-11 -3l-12 -5l-13 -3l-12 -6l-12 -8l-14 -6l-14 -9l-9 -8l-12 -7l-7 -10l-14 -10l-8 -11l-11 -12l-4 -10l-10 -11l-7 -12l-11 -12l-3 -13l-11 -13l-5 -12l-6 -11l-5 -14l-4 -15l-8 -11l-1 -15l-9 -14l-1 -14l-6 -25l-7 -16l1 -14l-6 -12l3 -15l-5 -14l3 -28v-15
l3 -14l1 -14l2 -12l8 -13l4 -12l8 -14l9 -10l30 -27l10 -8l28 -10l10 -3l14 -1l18 -3l25 2h17h12l26 5l14 4l12 6l15 4l13 7l12 4l15 9l11 6l13 7l9 9l12 10l19 -7l6 -13l4 -11l4 -16l5 -13l-2 -22l-14 -7l-13 -8l-10 -8l-12 -7l-13 -6l-10 -5l-13 -5l-13 -5l-13 -4l-15 -6
l-11 -2l-14 -6l-12 -1l-12 -3l-27 -5h-14l-22 -13l-3 -15l-6 -14l6 -16l16 -1l13 -8l10 -5l14 -10l6 -12l10 -14l3 -15l-3 -28l-3 -14l-2 -12l-7 -10l-10 -11l-13 -10l-9 -7l-10 -7l-13 -3l-16 -6l-16 -1l-12 -2l-26 -1l-13 3l-14 2l-14 3l-10 5l-9 15l3 12l9 13l2 11l19 5
l32 -6l29 2l13 3l13 8l11 13v28l-10 12l-13 8l-18 5l-27 2l-13 -2l-7 13l3 16l13 25l6 14l3 15l-5 16l-17 4l-9 5l-13 3l-15 7l-11 6l-13 7l-12 9l-12 8l-7 12l-11 9l-7 12l-8 9l-9 13l-4 13l-8 12l-5 13l-3 15l-5 14l-1 12v14l-4 14l-1 15l2 28l-3 15l4 13l1 15l4 15v12
l5 16l3 12l7 27l2 16l7 13l4 13l2 12l6 13l9 16l4 11l7 12l7 15l6 12l3 12l10 12l6 13l8 10l9 14l11 9l6 12l12 9l6 13l14 8l10 9l10 11l12 9l8 8l15 8l9 8l12 7l15 6l10 5l16 7l12 3l11 6l18 2l11 3l15 3l14 1l12 3l17 1h24z" />
    <glyph glyph-name="Egrave" unicode="&#xc8;" horiz-adv-x="550" 
d="M531 790h-43l-19 12l-12 11l-6 9l-12 11l-6 12l-10 11l-11 12l-7 9l-6 13l-10 11l-9 9l-9 11l7 13l13 -1h14l16 1l13 -1l23 -11l8 -12l8 -11l8 -13l9 -13l7 -12l7 -11l9 -11l8 -13l10 -11l9 -13zM597 621l-10 1h-15l-16 -1l-13 1l-12 -2l-16 2h-12l-17 -1l-12 -1h-16
l-13 2l-13 -1l-14 1h-13l-30 -2h-29l-13 2h-12l-21 -14l-3 -14l-2 -15l-7 -12v-15l-8 -14l-2 -12l-5 -15l-10 -28l-3 -12l-4 -15l-4 -12l-5 -13l-2 -16l8 -11l12 -1h41l17 1l14 -2l14 1l13 -1l11 1h15l13 -1l16 1h10l15 1l12 -1h30l11 -1l18 2l10 -14l-5 -13l-3 -14l-6 -15
l-3 -12l-19 -14l-15 1l-12 -2h-12l-18 2l-25 -2l-13 1l-15 1l-13 -1h-15l-13 -1l-15 2l-11 -2l-13 2l-15 -1l-17 1h-13l-14 -1l-14 1l-17 -16l-1 -12l-8 -13l-4 -14l-3 -14l-3 -13l-4 -13l-5 -15l-5 -11v-13l-8 -14l-3 -14l-1 -15l-4 -11l-4 -13l-4 -15l-5 -12l8 -14h14
l14 1l14 -1l14 1h41l13 -1l17 -1h27l12 1h30l16 -1l14 2h13l13 -1l15 1l14 -2l13 1h12l13 -14l-6 -13l-2 -13l-6 -14l-5 -13l-17 -16l-31 3l-13 -3l-14 3h-15l-12 -2h-14l-14 2h-29l-15 -3h-15l-11 1l-15 -1l-13 1l-16 2l-13 -3l-29 3l-15 -2h-16l-14 2l-14 -2h-15l-10 2
h-17l-11 -3h-14l-14 14l8 14l2 14l2 12l5 15l5 12l5 16l4 13l4 13l4 13l6 14l1 12l3 14l4 15l7 11l2 16l5 11l2 15l6 13l4 15l5 13l4 12l5 13l1 16l7 11l1 15l6 12l3 13l4 15l6 13l5 14l2 14l4 13l4 13l6 13l3 14l2 14l5 14l4 12l3 14l4 13l6 15l4 11l5 16l5 13l1 14l6 11
l2 14l6 13l6 15l2 12l18 15h13l18 1h14l13 -1l14 1l16 -1h14l12 1l14 -1h14l13 -1h17l16 2l12 -2l13 2h15l16 -2h12l15 1l13 -1l13 1h32l15 1l14 -2l13 2l7 -15l-3 -12l-5 -13v-14l-8 -12z" />
    <glyph glyph-name="Eacute" unicode="&#xc9;" horiz-adv-x="550" 
d="M560 924l-19 -22l-13 -9l-10 -11l-7 -10l-9 -11l-9 -10l-10 -9l-12 -10l-10 -12l-10 -10l-10 -11l-22 -10l-12 2h-15l-13 -1l-7 10l9 11l10 13l8 11l9 10l7 11l12 12l9 11l6 10l11 11l8 11l11 11l25 12l15 1l15 -1h14l13 1zM600 620l-14 1l-13 -1l-16 1l-13 1h-29l-15 -1
h-15l-13 1l-10 -2h-30l-13 2h-43l-16 -1h-42l-17 -14l-3 -15l-6 -12l-4 -15l-2 -12l-4 -15l-7 -14v-11l-5 -16l-4 -12l-8 -13l-1 -16l-6 -14l-1 -13l-4 -13l7 -13l13 1l16 -1l11 -1h14l16 2l10 -2l18 1h12l12 1l14 -1l15 1l13 -2l16 1l10 -1l16 2l14 -2l13 1h26l10 -14
l-3 -12l-5 -14l-1 -15l-4 -14l-18 -12l-14 1l-16 -2l-11 2h-15l-13 -1h-16l-11 1h-70l-14 -1h-28l-12 -1l-16 1l-11 1l-14 -2l-20 -12l-2 -13l-4 -14l-8 -13l-4 -13l-2 -16l-5 -12l-1 -14l-5 -14l-5 -11l-5 -16l-5 -11l-4 -15l-1 -14l-3 -11l-6 -16l-3 -11l8 -13l15 -2h12
l31 2l11 -1h29l14 1l12 -2h16l14 1h41l14 -1l15 1h15l12 1h13l15 -1l14 1l14 -2l8 -13l-3 -14l-5 -13v-13l-5 -13l-22 -15l-11 -1l-16 3l-13 -3h-29l-13 3l-17 -3l-10 3h-17l-15 -3l-14 1h-26l-16 2l-14 -2l-13 2h-12l-16 -2h-45l-14 2l-12 -3l-13 3h-32l-13 -2l-15 2l-9 12
l5 12l3 15l5 14l6 13l2 12l3 16l5 12l6 14l4 12l5 15l1 13l4 15l7 12l2 14l2 12l4 13l4 16l5 11l4 15l7 14l3 13l4 13l5 14l3 14l3 14l7 11l3 15l3 13l5 14l3 14l6 13l2 12l4 15l7 14l1 12l5 15l4 13l3 13l5 13l4 14l5 14l2 12l6 15l5 11l1 14l7 14l2 14l6 12l5 15l2 12
l17 14l14 1l17 1l15 -1h12l17 1h10l32 -2l13 1l15 1h11l17 -1h13l14 -1l15 1l12 1l15 -2l16 2l16 -2l11 1l16 1l14 -2l14 1l12 -1h16l16 1l10 -15l-5 -11l-5 -14l-2 -13l-8 -13z" />
    <glyph glyph-name="Ecircumflex" unicode="&#xca;" horiz-adv-x="550" 
d="M454 857l-9 -9l-10 -6l-14 -10l-10 -8l-21 -19l-7 -9l-28 -6l-14 -2l-13 2l-15 -1l-16 1l-5 7l10 11l10 8l26 19l9 7l10 10l13 8l7 9l12 11l13 8l9 9l10 8l14 11l10 8l22 9l14 1l21 -13l7 -10l6 -11l13 -12l8 -10l15 -23l9 -11l9 -12l8 -11l17 -20l-4 -13h-27l-10 1
l-15 -1l-22 12l-7 10l-11 12l-9 12l-7 10l-9 11zM597 620h-11l-15 2h-13l-17 -1h-14l-12 -1h-13l-15 2l-14 -1h-12l-13 -1l-16 1h-15l-11 1l-15 -1l-13 1l-14 -1h-14l-14 -1h-18l-15 -14l-6 -12l-1 -13l-7 -16l-2 -13l-4 -12l-7 -14l-4 -14l-5 -14l-4 -13l-3 -13l-4 -16
l-5 -14l-2 -11l-4 -14l8 -13l13 -2l17 2l11 -2l28 2l14 -1l14 1l12 -1l16 -1l24 2l13 -2l17 1l12 -1l27 2l13 -1h14l16 1l7 -15l-1 -14l-6 -14l-2 -12l-5 -15l-20 -12h-24l-17 1h-14l-10 -2h-13l-16 1h-30l-11 -1l-16 2h-10l-17 -1l-14 1l-11 -1l-14 -1h-30l-13 2l-19 -15
l-3 -14l-4 -12l-4 -14l-5 -12l-3 -15l-5 -12l-1 -16l-3 -12l-5 -13l-3 -14l-7 -14l-4 -14l-1 -13l-8 -13l-1 -14l-3 -12l8 -14h28l26 2l15 -1l16 1l11 -2l14 1l14 -1h45l24 2h30l15 -1h25l17 -1l14 2l11 -1l9 -15l-4 -12l-1 -14l-6 -12l-2 -15l-22 -14l-10 2l-18 -2h-14
l-12 2l-15 -2h-16l-13 2l-11 -3l-29 3l-13 -3l-16 1h-29l-16 -1l-14 1l-12 -1l-31 3l-12 -3l-16 1l-14 -1l-12 3l-15 -2h-15l-14 2h-27l-11 13l8 25l7 13l2 15l5 12l2 14l3 15l4 12l6 15l3 14l8 11l4 15l3 14l3 13l5 13l2 13l6 14l5 12l4 14l4 15l3 12l6 13l4 15l1 13l7 13
l2 14l5 13l3 13l5 13l5 15l3 14l6 13l2 13l3 14l3 14l6 14l2 12l7 13l1 13l6 13l7 16l4 12l1 13l4 13l6 15l3 12l5 16l4 13l5 13l4 13l15 14l14 -1l16 1h13l17 -1l12 1l15 -1h27l18 2l14 -2h10l17 2l12 -1h14l16 -1l12 1l17 -1l15 1l13 -1h14l14 2l16 -2l11 2l14 -1l14 1
l18 -1l10 -15l-6 -13l-2 -13l-6 -12l-6 -13z" />
    <glyph glyph-name="Edieresis" unicode="&#xcb;" horiz-adv-x="550" 
d="M420 888l-5 -13l-2 -14l-5 -12l-5 -14l-2 -13l-3 -11l-20 -13l-11 1h-17l-12 -2l-14 12l8 14l4 14l3 11l1 13l4 14l6 12l18 13h15l14 1l14 -1zM594 886l-6 -12l-1 -13l-3 -11l-5 -13l-4 -15l-3 -11l-21 -12l-14 -1h-28l-11 11l3 14l6 13l3 13l2 13l4 11l3 14l21 12h13
l17 2l11 -1zM601 620l-14 2h-28l-18 -2l-10 2l-14 -1l-18 -1l-14 2l-12 -1h-13l-15 -1l-14 1h-25l-18 -1h-12l-16 2h-24l-14 -1l-21 -15l-5 -12l-4 -13l-4 -16l-4 -13l-2 -14l-7 -13l-1 -14l-6 -12l-1 -16l-5 -11l-8 -15v-14l-8 -13l-1 -14l7 -14h29l14 1l11 -1l15 2h42
l15 -2l12 2l29 -2l10 2l14 -1l17 -1h11l14 1l15 -1h14l11 -14l-7 -12l-2 -13l-7 -13v-15l-20 -13h-111l-12 1h-15l-11 -2l-14 2h-84l-14 -2l-19 -13l-2 -12l-5 -14l-4 -14l-6 -13l-4 -15l-1 -12l-7 -14l-3 -14l-3 -13l-5 -14l-1 -13l-8 -12l-2 -15l-2 -11l-7 -16l-3 -13
l8 -13h13l16 1l13 1h14l17 -2l11 2h56l14 -1l16 1l29 -2l11 1h16l14 1l13 -2h13l15 1l12 -1h14l13 -14l-6 -13l-8 -27l-5 -12l-19 -13h-29l-10 -3h-29l-16 3l-14 -3l-13 1l-14 -1l-13 1l-18 2l-15 -3l-11 1l-16 -1l-12 1l-14 2h-15l-15 -3l-12 3h-15l-14 -3l-31 3h-12
l-13 -2h-42l-11 15l4 11l5 16l3 11l1 16l5 13l7 12l4 14l2 15l4 12l4 15l5 11l2 14l4 13l5 15l7 12l6 29l2 13l6 13l4 13l3 13l12 29l3 11l2 14l7 13l4 13l3 14l1 15l4 12l6 14l3 13l8 27l5 14l3 14l5 14l7 14l1 11l7 14l2 15l7 13l1 12l6 13l1 16l6 12l4 15l6 11v16l8 13
l16 13l17 1h25l30 -2l14 2l15 -1l15 1l29 -2h27l13 1l16 1h13l16 -2h26l16 1h26l14 -1l29 2h16l14 -2l7 -12l-1 -14l-5 -12l-5 -15l-3 -13z" />
    <glyph glyph-name="Igrave" unicode="&#xcc;" horiz-adv-x="303" 
d="M335 801l-8 12l-8 10l-20 21l-7 13l-11 11l-8 9l-7 13l-10 9l-7 11l-9 11l5 13l15 -1l12 2l16 -1l14 -1l23 -11l7 -11l9 -13l8 -12l7 -13l10 -10l8 -12l10 -14l4 -10l9 -12l8 -14l-6 -12l-14 1l-12 -1l-16 1zM41 12l2 15l8 12l1 14l4 14l4 12l8 27l6 16l2 13l5 12l6 15
l2 13l5 14l6 13l4 12l4 15l4 13l3 13l2 15l5 11l5 16l5 13l3 14l6 12l2 15l4 11l8 27l4 15l3 13l5 12l3 16l5 11l7 15v12l6 14l4 14l2 14l4 14l4 11l6 15l6 12l1 14l8 14v14l6 14l6 13l1 12l5 15l4 12l18 15h25l16 -1h13l11 2l9 -14l-5 -13l-2 -15l-3 -14l-8 -13l-2 -12
l-6 -15l-3 -14l-6 -14v-12l-8 -27l-8 -13l-1 -13l-4 -14l-7 -13v-14l-9 -13l-1 -14l-6 -14l-1 -14l-7 -12l-5 -13v-14l-12 -26l-4 -14l-5 -13l-4 -15l-1 -13l-7 -14v-12l-7 -15l-3 -13l-4 -15l-6 -12l-2 -13l-7 -15v-12l-8 -13l-1 -13l-3 -14l-8 -15l-3 -12l-3 -15l-4 -12
l-6 -13l-3 -16l-5 -11l-4 -15l-1 -14l-18 -14l-15 1l-10 -1l-17 3h-11l-13 -3z" />
    <glyph glyph-name="Iacute" unicode="&#xcd;" horiz-adv-x="303" 
d="M240 802l7 10l13 12l8 11l10 11l5 10l13 12l9 11l8 9l10 12l5 10l10 13l26 12l31 -2l13 2l14 -2l6 -11l-12 -10l-17 -21l-19 -18l-10 -12l-12 -11l-6 -9l-13 -11l-11 -10l-7 -9l-10 -10l-23 -10h-14l-15 -2l-13 2zM42 13l4 13l3 15l4 13l10 25v14l6 15l5 13l5 13l3 15
l6 12v14l5 12l7 14l3 13l3 14l5 13l1 14l4 14l9 13l3 13l2 13l7 15v12l6 15l2 13l4 14l6 14l3 12l3 15l8 13l2 13l3 12l7 16l5 11l3 16l2 12l3 13l4 15l6 13l3 12l4 14l7 13l1 15l5 13l7 13l4 15l4 11v15l4 12l19 16l16 -1l13 -1l9 1l16 -1h10l10 -12l-4 -13l-3 -16l-5 -11
l-2 -16l-7 -12l-3 -13l-1 -14l-6 -14l-3 -12l-8 -16l-6 -24l-5 -16l-2 -12l-4 -15l-7 -13l-1 -14l-7 -12l-1 -15l-6 -11l-3 -16l-7 -13l-4 -12l-3 -14l-4 -14l-6 -13l-4 -13v-15l-7 -12l-5 -14v-13l-7 -13l-5 -14l-4 -13l-4 -15l-4 -13l-2 -12l-3 -15l-6 -14l-6 -12l-2 -15
l-3 -11l-11 -29l-2 -12l-5 -13l-4 -16l-4 -12l-2 -15l-5 -11l-20 -13h-13l-9 -3h-15l-11 1l-16 2z" />
    <glyph glyph-name="Icircumflex" unicode="&#xce;" horiz-adv-x="303" 
d="M159 797l10 10l11 10l13 9l11 7l8 10l13 10l11 8l13 10l9 9l11 7l8 10l13 9l11 8l11 9l23 11l13 -1l19 -12l11 -10l7 -11l10 -11l5 -11l13 -12l6 -12l10 -11l6 -10l11 -11l7 -11l9 -12l-3 -11l-14 2l-14 -2l-12 1h-14l-19 11l-11 12l-7 10l-9 12l-7 10l-13 11l-15 2
l-10 -9l-14 -8l-10 -8l-8 -9l-10 -7l-14 -10l-10 -9l-22 -7h-29l-17 -1l-16 1zM41 12l3 15l6 12l1 15l5 14l3 11l8 14l4 14l3 15l2 12l7 14l4 13l5 15l2 13l3 13l5 14l4 12l2 13l6 15l5 12l4 13l5 14l4 13l3 16l2 13l6 12l2 13l4 13l6 16l5 12l3 13l4 15l3 14l5 12l6 13
l4 15l1 12l8 15l4 13l1 14l5 13l7 12l3 15l1 13l6 13l5 15l2 12l7 14l3 13l1 15l5 13l20 14l11 -2l15 1h14l11 -1l11 1l10 -15l-3 -12l-5 -13l-3 -13l-4 -14l-5 -15l-1 -12l-6 -14l-3 -14l-8 -12l-2 -15l-6 -14l-1 -11l-6 -16l-1 -11l-5 -16l-5 -13l-7 -13l-3 -13l-3 -13
l-4 -13l-2 -15l-6 -14l-5 -14l-5 -12l-4 -13l-5 -15l-4 -12l-2 -14l-3 -14l-3 -13l-8 -12l-1 -16l-6 -11l-4 -14l-3 -15l-4 -14l-7 -13v-11l-6 -16l-3 -13l-4 -14l-3 -12l-7 -13l-3 -15l-6 -13l-4 -12l-2 -16l-4 -13l-5 -12l-4 -15l-17 -13l-15 -1l-13 1l-9 2l-17 -3h-11z
" />
    <glyph glyph-name="Idieresis" unicode="&#xcf;" horiz-adv-x="303" 
d="M194 809l6 15l4 12v12l4 13l6 12l4 15l18 12l12 -1h18l11 1l12 -14l-2 -13l-6 -11l-3 -13l-4 -13l-4 -12l-3 -13l-18 -13l-18 1h-11l-14 -1zM367 810l4 13l2 14l7 11v12l7 13l1 14l18 13l16 1l12 -2l18 2l8 -15l-4 -11l-2 -15l-6 -10l-3 -15l-4 -12l-1 -13l-20 -11
l-16 -2l-14 2h-15zM41 12l3 14l6 14l1 13l4 13l7 15l1 14l6 11l5 16l3 12l5 15l8 27l4 11l2 14l4 14l4 12l7 15l4 12l2 16l4 12l4 13l4 14l6 13l5 14l1 13l8 14l2 13l5 13l5 13l4 16l4 13l2 12l7 14l3 13l2 14l7 13l2 14l6 13l3 14l2 14l4 14l8 12l4 15l2 12l4 14l3 14l7 14
l3 11l3 15l5 12l17 15l15 1l10 -2l15 2h25l9 -16l-3 -11l-5 -15l-4 -14l-6 -13l-2 -12l-4 -16l-5 -13l-4 -13l-5 -12l-3 -14l-6 -13l-2 -13l-5 -16l-2 -13l-3 -13l-4 -14l-5 -14l-7 -12l-2 -15l-4 -13l-6 -14l-3 -11l-3 -15l-3 -13l-4 -12l-5 -14l-12 -27v-15l-8 -14l-3 -12
l-2 -14l-5 -12l-5 -16l-4 -11l-3 -16l-5 -12l-4 -14l-2 -12l-6 -13l-4 -14l-2 -14l-7 -13l-6 -29l-7 -11l-3 -14l-9 -28l-2 -12l-20 -15l-11 -1h-14l-14 3l-10 -2h-12z" />
    <glyph glyph-name="Eth" unicode="&#xd0;" horiz-adv-x="651" 
d="M423 700l16 -3h13l16 -3l11 -2l30 -9l14 -4l12 -6l11 -6l14 -9l10 -7l8 -12l10 -8l12 -12l9 -11l6 -11l6 -13l8 -13l2 -14l6 -12l2 -13l6 -16v-13l-1 -15l1 -13l4 -28l-1 -12l-1 -15l-4 -12l-2 -16l-1 -11l-3 -15l-5 -13l-5 -25l-5 -15l-4 -13l-2 -12l-5 -15l-6 -11
l-5 -13l-8 -14l-7 -12l-5 -12l-6 -12l-8 -15l-5 -12l-9 -11l-6 -11l-12 -11l-8 -12l-6 -9l-10 -10l-10 -12l-11 -8l-8 -10l-13 -9l-10 -7l-15 -7l-8 -9l-12 -7l-12 -5l-13 -7l-15 -5l-10 -4l-16 -3l-12 -3l-13 -4l-13 -2l-16 -3l-16 -2l-13 -2h-14h-29h-11l-15 2l-17 -2
l-10 -1h-14l-17 3l-12 -2l-15 -1l-18 3h-13l-15 -2h-29l-12 2l-15 -2l-14 2l-11 11l5 15l4 13l5 13l2 13l3 14l4 14l4 12l7 15l2 13l7 15l4 13l2 13l4 13l5 13l2 14l7 15v12l5 13l7 13l4 14l4 15l-10 12l-15 1l-10 1l-14 -2l-12 1h-12l-13 13l5 13l7 12l5 13l2 13l19 13h15
l15 1l30 -2l20 15l1 13l5 12l7 14l1 16l7 12v14l4 13l6 13l5 14l5 15l5 12l1 13l3 14l7 15l1 14l4 14l7 12l2 13l4 16l4 13l5 12l19 14l13 2l14 -2l12 1h14l18 1l11 -1l13 1h16l14 -2h26l15 1h14h28zM547 373l2 14l2 13l6 15v14l1 14v28l-3 15l-1 12l-1 13l-8 13l-4 15
l-6 10l-4 14l-10 10l-11 9l-9 8l-9 8l-12 7l-13 6l-13 5l-15 3l-15 1h-13l-27 3l-14 -1l-18 1h-43l-14 -2l-12 2l-18 -15l-7 -14l-3 -11l-1 -13l-5 -13l-3 -14l-5 -13l-4 -13l-5 -13l-4 -13l-5 -13l-5 -14l-4 -11l-4 -15l-4 -13l-4 -12l-3 -13l14 -14h29l13 1l12 -1h18l15 2
l14 -2l15 2h12l16 -2h15l7 -11l-5 -13l-3 -14l-3 -12l-5 -13l-21 -12l-11 -1h-16l-15 1l-12 -2l-15 1l-12 1h-14l-15 -1h-29l-13 1l-21 -15l-1 -13l-7 -13l-4 -14l-4 -12l-1 -16l-6 -13l-2 -11l-6 -16l-3 -13l-3 -12l-5 -15l-6 -11l-3 -13l-5 -15l-1 -14l9 -13l14 2l14 -1
h12l15 1l11 -1l15 1l17 -2l10 2l17 -2h26l15 2l11 3l17 2l10 2l16 3l12 6l14 5l9 6l14 8l12 5l10 8l10 9l13 10l10 11l5 10l11 11l9 9l8 11l8 12l7 12l7 14l6 11l4 13l6 14l7 13l6 13l3 12l5 15l4 11z" />
    <glyph glyph-name="Ntilde" unicode="&#xd1;" horiz-adv-x="730" 
d="M556 804l-9 3l-12 7l-15 6l-7 9l-13 8l-13 5h-25l-11 -7l-8 -11l-21 -11l-15 1l-15 -1l-11 13l1 15l7 14l9 12l10 9l7 10l16 9l9 6l17 2h25l14 -3l12 -5l13 -10l12 -7l11 -8l13 -7l27 -1l7 8l9 12l19 13l15 2l16 -1l12 -16l-5 -14l-6 -11l-6 -14l-9 -9l-12 -12l-9 -7
l-16 -4l-12 -5h-31zM29 13l7 12v16l7 12l2 14l5 12l6 16l1 11l8 27l5 15l6 14l6 12l4 13l1 14l7 15l1 12l4 15l6 13l3 14l5 12l4 14l3 14l4 14l6 13l5 13l5 14l1 11l4 14l4 15l5 14l5 13l7 13v13l5 13l5 15l4 13l3 13l5 13l4 15l6 11l9 27l1 15l5 14l5 12l3 14l8 13l2 15
l6 12l4 14l17 15l13 -2h15l25 2l14 -2l16 2l14 -16l6 -13l3 -13l5 -27l3 -16l7 -11l1 -16l4 -12l6 -15l3 -14l1 -12l5 -13l5 -16l2 -14l3 -12l5 -15l2 -14l4 -13l2 -14l4 -14l5 -11v-15l8 -14l-1 -12l8 -15v-13l7 -14l-1 -15l6 -13l1 -14l4 -13l5 -13l3 -15l6 -13l2 -15
l2 -12l7 -15l-1 -13l7 -12v-15l6 -13l9 -15l5 14l2 14l5 12l6 14l5 14v12l5 13l4 15l6 13l6 13v15l7 12l4 13l5 15l4 12l5 14l3 12l5 14l4 14l4 14l3 11l3 15l6 13l1 14l4 13l6 12l7 14l4 13l3 15l5 13v14l5 13l6 14l5 13l2 13l5 14l2 12l6 12l5 14l2 14l8 14l6 27l21 13
l13 -1h14l13 2l13 -2l13 -13l-4 -13l-4 -15l-3 -12l-4 -15l-8 -12l-1 -14l-8 -13v-14l-8 -12l-4 -16l-3 -12l-4 -13l-6 -15v-11l-8 -14l-2 -13l-6 -15l-1 -12l-6 -16l-4 -13l-2 -14l-4 -11l-6 -14l-6 -15l-3 -12l-5 -15l-4 -13l-5 -13l-3 -13l-5 -13l-2 -14l-6 -13l-3 -14
l-3 -15l-7 -11l-2 -14l-3 -14l-8 -13l-1 -14l-7 -13l-5 -14l-1 -14l-6 -13l-3 -14l-6 -14l-4 -13l-5 -14l-2 -11l-6 -16l-4 -11l-17 -15l-15 2h-29l-12 -3l-16 1l-11 -1l-19 16l-2 14l-5 11l-5 15l-3 12l-4 14l-2 13l-3 16l-3 13l-2 12l-4 14l-6 15l-1 14l-4 12l-5 14l-4 13
l-2 13l-2 16l-3 11l-7 15l-3 12l-2 15l-5 12l-1 14l-6 15l-2 14l-3 14l-4 12l-4 13l-4 15l-4 12l-3 14l-1 13l-4 14l-5 13l-3 14l-4 15l-4 12l-3 29l-8 11v14l-6 14l-10 -12l-4 -13l-3 -15l-3 -11l-5 -15l-2 -12l-7 -14l-3 -12l-4 -14l-2 -15l-11 -24l-5 -14l-5 -15l-1 -11
l-4 -14l-5 -14l-6 -12v-14l-5 -12l-7 -16v-13l-9 -13l-3 -11l-5 -15l-4 -14l-1 -13l-6 -13l-1 -12l-5 -13l-3 -14l-7 -14l-3 -13l-5 -12l-3 -13l-8 -29l-4 -11l-6 -13l-5 -13l-4 -15l-3 -14l-3 -13l-17 -13h-18l-15 -1h-31z" />
    <glyph glyph-name="Ograve" unicode="&#xd2;" horiz-adv-x="727" 
d="M533 801l-9 10l-9 12l-10 12l-6 10l-11 10l-9 13l-9 9l-4 12l-9 10l-10 11l-11 12l5 13h16l15 -1h13l16 -1l23 -12l7 -10l16 -24l10 -12l6 -14l10 -11l7 -13l9 -12l6 -12l8 -11l-4 -12h-13l-16 1l-13 -1zM294 -17l-11 3h-14l-18 3l-12 4l-11 1l-16 6l-10 5l-13 7l-15 7
l-12 9l-11 7l-9 10l-9 10l-11 10l-4 14l-9 12l-7 10l-6 15l-4 13l-4 14l-1 12l-4 13l-1 16l-2 14v14l-4 28l3 14l1 14l-1 15l7 15l-2 14l6 16l2 13l5 29l8 12l1 14l5 13l8 14l6 13l2 13l6 11l6 13l5 12l10 13l4 12l9 12l7 11l10 11l9 12l7 10l7 11l10 10l9 13l10 7l11 11
l10 8l13 9l11 10l12 6l8 9l15 6l12 9l10 5l14 4l15 7l9 5l16 5l13 3l14 3l11 3h14l15 1l13 1h44h10l14 -4l14 -2l16 -3l14 -6l12 -4l10 -4l13 -8l13 -6l9 -10l9 -7l11 -12l8 -9l8 -10l10 -13l7 -12l8 -10l1 -13l9 -13l-1 -15l4 -13l3 -13l1 -13l2 -14l2 -14l-1 -30l1 -15
l-1 -14l-4 -14l-1 -14l-2 -14l-4 -16l-2 -14l-9 -28l-2 -13l-8 -15v-12l-6 -13l-5 -13l-7 -14l-4 -12l-6 -13l-7 -11l-8 -12l-7 -12l-10 -13l-7 -11l-6 -10l-11 -14l-9 -8l-8 -13l-8 -10l-11 -10l-10 -10l-11 -7l-11 -9l-12 -9l-7 -8l-11 -9l-15 -9l-9 -7l-14 -5l-12 -5
l-11 -6l-17 -5l-9 -5l-16 -6l-15 -3l-12 -3l-12 -2l-16 -3l-15 -1h-11zM331 70l17 1l12 3l16 2l11 3l14 5l10 5l13 7l14 6l10 8l13 7l10 6l11 9l14 10l8 9l7 11l10 10l13 9l7 12l7 11l10 12l8 11l6 14l8 10l6 15l4 11l4 12l6 14l4 12l6 16l4 12l8 28l1 13l2 15l3 15l2 12
l2 15v27l-4 15l1 15l-3 12l-5 16l-6 13l-5 12l-4 12l-8 12l-7 9l-13 12l-9 8l-10 6l-16 7l-11 6l-12 4l-16 3l-12 1h-29l-13 -1l-12 -3l-16 -3l-13 -2l-12 -6l-12 -5l-13 -5l-14 -8l-9 -8l-14 -6l-9 -10l-12 -8l-9 -10l-13 -9l-9 -9l-9 -13l-7 -11l-7 -11l-10 -10l-8 -12
l-8 -11l-3 -14l-8 -12l-9 -12l-3 -13l-4 -15l-6 -12l-8 -14v-13l-7 -12l-5 -28l-3 -16l-1 -12l-4 -15l-3 -15l1 -12l-2 -29l3 -14l-1 -14l7 -15l3 -15l5 -13l6 -14l8 -12l5 -9l13 -12l7 -8l11 -9l15 -7l13 -5l13 -6h14l14 -4z" />
    <glyph glyph-name="Oacute" unicode="&#xd3;" horiz-adv-x="727" 
d="M438 800l10 11l11 11l8 13l8 11l8 10l8 12l12 11l7 9l8 13l9 9l13 11l23 14l14 -1l15 1h28l7 -12l-13 -9l-5 -10l-14 -13l-9 -8l-10 -11l-7 -11l-12 -9l-8 -10l-10 -11l-11 -11l-8 -9l-12 -10l-20 -12l-14 2h-16l-14 -2zM293 -16l-13 1l-12 2l-14 1l-14 5l-12 2l-15 6
l-15 5l-10 6l-15 7l-8 7l-11 10l-13 10l-10 10l-6 9l-10 12l-4 12l-6 13l-10 12l-4 13l-1 16l-7 12l1 15l-5 14l2 12l-1 16l-1 27l2 16l-3 13l2 15l3 17l5 12l3 15l1 15l6 27l3 13l8 16l4 13l3 13l8 13l5 13l3 12l8 11l8 12l6 14l7 10l7 12l9 14l4 9l12 11l6 11l11 12l9 10
l8 12l10 8l10 10l10 9l14 9l9 9l11 8l12 8l14 5l12 8l12 6l13 4l11 8l13 4l14 5l12 2l14 4l11 3h14l17 1l41 3l15 -3l13 1l11 -4l30 -5l13 -5l25 -10l9 -8l14 -5l10 -10l12 -8l8 -11l12 -8l6 -13l9 -11l8 -11l5 -11l3 -15l5 -13l6 -11l3 -15l2 -13l1 -15l1 -12l3 -14v-30
l-1 -15l-4 -12l-2 -17v-14l-2 -14l-3 -14l-6 -16l-8 -28l-3 -13l-6 -14l-2 -13l-6 -12l-7 -13l-5 -12l-3 -15l-9 -11l-6 -13l-6 -13l-8 -12l-8 -11l-5 -10l-11 -11l-8 -14l-6 -10l-10 -9l-12 -11l-8 -10l-10 -10l-12 -9l-7 -9l-14 -10l-9 -6l-11 -10l-13 -8l-10 -6l-16 -6
l-12 -7l-11 -6l-11 -3l-15 -5l-15 -5l-11 -4l-16 -4h-11l-13 -2l-17 -1l-14 -3zM335 70h12l12 3l16 2l10 5l15 3l13 6l13 6l13 6l10 7l14 9l7 6l14 11l10 8l11 8l9 10l11 11l5 11l11 10l6 12l9 13l9 10l8 13l6 13l6 13l4 10l7 15l6 13l2 11l6 14l5 13l8 29l1 15l1 12l4 14
l-2 16l5 12l-1 29l-3 15l-2 14l-1 14l-4 14l-5 13l-4 12l-6 12l-7 11l-9 12l-22 19l-11 7l-13 6l-10 6l-15 4l-13 2l-14 2l-30 -1l-10 -2h-17l-10 -5l-17 -2l-9 -7l-16 -4l-10 -5l-11 -9l-14 -6l-10 -8l-13 -7l-8 -9l-11 -10l-13 -11l-7 -10l-9 -10l-12 -11l-8 -11l-8 -13
l-6 -11l-8 -10l-4 -13l-10 -13l-6 -14l-3 -11l-7 -13l-4 -14l-8 -14l-1 -11l-3 -15l-8 -26l-2 -16l-5 -15l-3 -14l-2 -12l1 -15l-1 -30v-12l5 -14l1 -14l3 -15l6 -15l6 -13l6 -11l11 -10l11 -13l8 -7l13 -10l13 -7l11 -5l16 -4l11 -3l14 -1h31z" />
    <glyph glyph-name="Ocircumflex" unicode="&#xd4;" horiz-adv-x="727" 
d="M357 798l14 10l10 8l11 8l21 20l13 9l9 8l12 9l11 9l9 9l11 9l21 19l11 9l25 7l12 2l21 -12l7 -13l9 -11l7 -9l9 -11l11 -11l5 -12l11 -10l7 -12l10 -11l6 -12l12 -10l-7 -10h-23l-12 -1l-13 1l-23 9l-12 11l-8 11l-5 11l-11 13l-8 9l-17 3l-13 -7l-9 -9l-11 -8l-10 -11
l-9 -7l-11 -8l-13 -10l-23 -7l-14 -1l-17 -1l-16 1l-13 1zM297 -17l-15 3h-17l-11 4l-15 2l-12 3l-12 5l-17 5l-11 7l-11 7l-10 8l-12 9l-10 8l-13 11l-6 11l-8 12l-10 13l-6 11l-3 13l-8 12v16l-6 13l-4 14l2 12l-1 15l-2 13l1 29l-3 15l4 16v14l4 16l2 12v17l7 13l7 28v13
l9 13v15l5 12l6 13l9 14l4 10l5 13l9 13l5 11l7 12l9 12l6 13l6 12l9 11l10 11l9 10l9 10l11 11l10 9l10 11l11 8l11 9l7 7l12 10l12 6l13 9l13 6l12 6l12 5l11 6l16 5l13 5l10 3l16 2l14 4h13l16 2h11l27 2l30 -4h11l16 -5l14 -3l14 -4l13 -4l11 -6l13 -6l10 -7l9 -9l14 -9
l8 -11l11 -9l7 -12l9 -9l7 -12l2 -13l9 -13l1 -14l5 -13l3 -12l2 -14l2 -13l2 -16l2 -12l-1 -28l-3 -16v-13v-16l-1 -16l-4 -13l-2 -14l-3 -14l-11 -29l-3 -12l-2 -14l-5 -15l-6 -11l-6 -13l-7 -13l-4 -13l-7 -12l-5 -13l-10 -13l-4 -12l-6 -11l-8 -13l-11 -9l-8 -14l-10 -8
l-10 -11l-8 -11l-10 -10l-11 -10l-6 -10l-14 -8l-8 -8l-15 -10l-8 -8l-12 -7l-12 -8l-14 -5l-14 -5l-12 -8l-12 -4l-14 -4l-11 -6l-12 -3l-18 -3l-9 -3l-18 -2h-13h-13zM334 69l15 3h14l13 4l9 5l17 4l12 4l9 5l16 7l11 9l12 5l8 10l15 9l10 9l9 8l8 9l11 11l8 12l16 20
l7 13l9 12l10 13l4 10l9 15l4 12l6 11l5 15l5 11l5 16l1 11l11 27l3 15v14v14l3 14l2 16l-1 27l-1 13l-2 14l-4 14v16l-8 11l-3 13l-9 13l-5 10l-11 12l-9 11l-11 9l-11 7l-10 6l-12 4l-28 6l-17 4l-39 -1l-12 -2l-15 -5l-11 -2l-15 -6l-11 -4l-13 -7l-15 -8l-12 -5l-8 -10
l-24 -15l-10 -11l-12 -10l-5 -10l-9 -9l-11 -13l-6 -11l-8 -10l-11 -13l-4 -11l-10 -12l-6 -13l-5 -14l-5 -12l-5 -13l-9 -12l-2 -14l-7 -14v-12l-10 -27v-17l-5 -12l-3 -15l-1 -13l2 -14l-2 -29l1 -15l3 -14l1 -15l6 -14l4 -13l8 -12l4 -12l10 -11l7 -13l10 -8l16 -7l8 -7
l15 -7l30 -5l14 -4h27z" />
    </font>
</defs>
</svg>
