<?xml version="1.0" standalone="no"?>
<!DOCTYPE svg PUBLIC "-//W3C//DTD SVG 1.1//EN" "http://www.w3.org/Graphics/SVG/1.1/DTD/svg11.dtd" >
<svg xmlns="http://www.w3.org/2000/svg" xmlns:xlink="http://www.w3.org/1999/xlink" version="1.1">
<metadata>
Created by FontForge 20170731 at Wed Apr 25 02:05:03 2018
 By Aleksey,,,
copyright missing
</metadata>
<defs>
<font id="Culonite-Light" horiz-adv-x="540" >
  <font-face 
    font-family="Culonite Light"
    font-weight="300"
    font-stretch="normal"
    units-per-em="1000"
    panose-1="0 0 4 0 0 0 0 0 0 0"
    ascent="800"
    descent="-200"
    x-height="485"
    bbox="-441 -201 969.206 800"
    underline-thickness="50"
    underline-position="-200"
    unicode-range="U+0020-203A"
  />
<missing-glyph horiz-adv-x="500" 
d="M410 800v-1000h-317v1000h317zM333 733h-165v-33h65v-37h-66v-33h166v33h-66v37h66v33zM267 604h-100v-104h166v34h-66v70zM233 570v-36h-33v36h33zM333 473h-166v-33h66v-37h-66v-33h100v70h66v33zM333 413h-33v-66h-133v-34h166v100zM333 291h-100v-56h34v23h33v-47
h-100v80h-33v-113h166v113zM333 118h-166v-113h166v113zM300 85v-47h-100v47h100zM333 -18h-166v-33h70l-70 -47v-33h166v33h-102l70 47h32v33z" />
    <glyph glyph-name=".notdef" horiz-adv-x="500" 
d="M410 800v-1000h-317v1000h317zM333 733h-165v-33h65v-37h-66v-33h166v33h-66v37h66v33zM267 604h-100v-104h166v34h-66v70zM233 570v-36h-33v36h33zM333 473h-166v-33h66v-37h-66v-33h100v70h66v33zM333 413h-33v-66h-133v-34h166v100zM333 291h-100v-56h34v23h33v-47
h-100v80h-33v-113h166v113zM333 118h-166v-113h166v113zM300 85v-47h-100v47h100zM333 -18h-166v-33h70l-70 -47v-33h166v33h-102l70 47h32v33z" />
    <glyph glyph-name=".null" horiz-adv-x="0" 
 />
    <glyph glyph-name="nonmarkingreturn" horiz-adv-x="333" 
 />
    <glyph glyph-name="space" unicode=" " horiz-adv-x="680" 
 />
    <glyph glyph-name="exclam" unicode="!" horiz-adv-x="90" 
d="M45 119q-11 0 -18 7.5t-7 17.5v531q0 11 7 18t18 7t18 -7t7 -18v-531q0 -10 -7 -17.5t-18 -7.5zM45 0q-10 0 -17.5 7t-7.5 17t7 17.5t18 7.5t18 -7.5t7 -17.5t-7.5 -17t-17.5 -7z" />
    <glyph glyph-name="quotedbl" unicode="&#x22;" horiz-adv-x="212" 
d="M45 446q-23 0 -25 26l1 188q0 10 7 17.5t17 7.5t17 -7.5t7 -18.5l1 -187q0 -11 -7 -18.5t-18 -7.5zM166 446q-10 0 -16.5 7.5t-7.5 18.5v188q0 10 7 17.5t17 7.5q11 0 18 -7.5t7 -18.5l1 -187q0 -11 -7.5 -18.5t-18.5 -7.5z" />
    <glyph glyph-name="numbersign" unicode="#" horiz-adv-x="555" 
d="M510 490q11 0 18 -7t7 -18t-7.5 -18t-17.5 -7h-51l-34 -188h42q11 0 18 -7t7 -18t-7 -18t-18 -7h-51l-32 -167q-2 -11 -10.5 -16.5t-18.5 -3.5q-10 1 -16 10t-4 19l29 158h-227l-32 -167q-2 -11 -10.5 -16.5t-18.5 -3.5q-10 1 -16 10t-4 18l30 159h-41q-11 0 -18 7t-7 18
t7 18t18 7h50l35 188h-42q-10 0 -17.5 7t-7.5 18t7 18t18 7h52l30 169q5 24 30 19q10 -2 15.5 -10.5t3.5 -18.5l-29 -159h229l30 169q5 24 30 19q10 -2 15.5 -10.5t3.5 -18.5l-29 -159h41zM142 231l121 21l131 -10l-3 101l27 119h-2l-3 -3v2l-121 -21l-132 10l4 -101
l-26 -119l5 4z" />
    <glyph glyph-name="quotesingle" unicode="'" horiz-adv-x="90" 
d="M44 446q-10 0 -16.5 7.5t-7.5 18.5v188q0 10 7 17.5t17 7.5q11 0 18 -7.5t7 -18.5l1 -187q0 -11 -7.5 -18.5t-18.5 -7.5z" />
    <glyph glyph-name="parenleft" unicode="(" horiz-adv-x="333" 
d="M288 -63q-117 7 -192.5 115.5t-75.5 267.5q0 158 79 270t191 113h1q9 0 15.5 -7t6.5 -16t-6.5 -15.5t-15.5 -6.5q-99 0 -162.5 -105t-63.5 -233t59.5 -226.5t164.5 -112.5q24 -3 24 -22q0 -22 -25 -22z" />
    <glyph glyph-name="parenright" unicode=")" horiz-adv-x="333" 
d="M45 -63q-25 0 -25 22q0 19 24 22q41 6 83 30.5t69 62.5q72 100 72 246t-72 247q-66 91 -154 91q-9 0 -15.5 6.5t-6.5 15.5t6.5 16t15.5 7h1q112 -1 191 -113t79 -270q0 -159 -75.5 -267.5t-192.5 -115.5z" />
    <glyph glyph-name="asterisk" unicode="*" horiz-adv-x="238" 
d="M206 553q9 -5 11.5 -15t-2.5 -18q-5 -10 -15 -12.5t-19 2.5l-37 21v-42q0 -11 -7 -18t-18 -7t-18 7t-7 18v41l-36 -20q-21 -12 -34 10q-12 21 9 33l35 23l-35 20q-21 12 -9 34q5 9 15 11.5t19 -2.5l36 -20v41q0 10 7 17.5t18 7.5t18 -7.5t7 -17.5v-42l37 21q9 5 19 2.5
t15 -11.5t2.5 -19t-11.5 -15l-36 -20z" />
    <glyph glyph-name="comma" unicode="," horiz-adv-x="136" 
d="M34 -69q-22 10 -10 34l47 91q11 21 33 11q8 -5 11 -14.5t-1 -19.5l-46 -90q-12 -23 -34 -12z" />
    <glyph glyph-name="hyphen" unicode="-" horiz-adv-x="300" 
d="M45 226q-11 0 -18 7t-7 18q0 10 7 17t18 7h210q11 0 18 -7t7 -17q0 -11 -7 -18t-18 -7h-210z" />
    <glyph glyph-name="period" unicode="." horiz-adv-x="124" 
d="M62 0q-17 0 -29.5 12t-12.5 29q0 18 12.5 30t29.5 12t29.5 -12t12.5 -30q0 -17 -12.5 -29t-29.5 -12z" />
    <glyph glyph-name="slash" unicode="/" horiz-adv-x="219" 
d="M41 -50q-11 2 -16.5 10t-3.5 18l128 688q5 24 30 19q10 -2 15.5 -10.5t4.5 -18.5l-129 -687q-2 -10 -10.5 -15.5t-18.5 -3.5z" />
    <glyph glyph-name="zero" unicode="0" horiz-adv-x="415" 
d="M208 0q-76 0 -133 55q-55 55 -55 133v325q0 77 55 132t133 55t133 -55q54 -54 54 -132v-325q0 -78 -54.5 -133t-132.5 -55zM208 51q56 0 96 40q41 39 41 97v325q0 57 -41 96q-37 40 -96 40q-57 0 -97 -40t-40 -96v-325q0 -58 40 -96q41 -41 97 -41z" />
    <glyph glyph-name="one" unicode="1" horiz-adv-x="257" 
d="M194 692q9 10 26 5.5t17 -21.5v-650q0 -11 -7.5 -18.5t-17.5 -7.5q-11 0 -18.5 7.5t-7.5 18.5v587l-122 -122q-7 -7 -17.5 -7t-18.5 7q-17 17 0 36z" />
    <glyph glyph-name="two" unicode="2" horiz-adv-x="482" 
d="M437 50q10 0 17.5 -7t7.5 -17q0 -11 -7 -18.5t-18 -7.5h-392q-17 0 -23 17t6 27q35 30 101.5 86t91 76.5t61.5 54t55 54t30 39.5q38 58 43.5 117.5t-27.5 111.5q-40 58 -108.5 67t-125.5 -42q-31 -29 -48.5 -73t-17.5 -90q0 -11 -6.5 -17.5t-17.5 -6.5q-10 0 -17.5 7
t-7.5 17q0 62 25 117.5t66.5 88.5t93.5 45.5t106 -11.5q134 -55 134 -193q0 -86 -51 -164q-25 -39 -70 -82t-120.5 -106t-105.5 -90h325z" />
    <glyph glyph-name="three" unicode="3" horiz-adv-x="434" 
d="M304 370q55 -23 82.5 -70t27.5 -103q0 -81 -57.5 -139t-139.5 -58t-139.5 57.5t-57.5 138.5q0 11 7.5 18.5t17.5 7.5q11 0 18.5 -7.5t7.5 -17.5q0 -61 42 -104t104 -43q61 0 104 43.5t43 103.5q0 64 -35 97t-112 50q-11 0 -18 7t-7 18t7 18t18 7q128 21 128 128
q0 53 -37.5 90.5t-90.5 37.5t-90.5 -37.5t-37.5 -90.5q0 -10 -7.5 -17.5t-17.5 -7.5t-17.5 7.5t-7.5 17.5q0 74 52 126t126 52t126 -52t52 -126q0 -110 -91 -152z" />
    <glyph glyph-name="four" unicode="4" horiz-adv-x="535" 
d="M490 154q11 0 18 -7.5t7 -18.5q0 -10 -7.5 -17.5t-17.5 -7.5h-57v-77q0 -10 -7.5 -17.5t-17.5 -7.5q-11 0 -18 7t-7 18v77l-345 1q-14 0 -17.5 14.5t5.5 27.5l358 537q14 20 31 16t18 -25v-520h57zM395 608l-302 -454h290v428z" />
    <glyph glyph-name="five" unicode="5" horiz-adv-x="478" 
d="M233 450q93 0 159 -66t66 -159t-66 -159t-159 -66q-72 0 -130 41.5t-82 108.5q-3 8 1 16.5t13 11.5q22 8 29 -12q19 -53 66.5 -86t102.5 -34q72 0 125.5 52.5t53.5 126.5q0 72 -53.5 125.5t-125.5 53.5q-78 0 -137 -59q-12 -10 -27 -3t-14 24l42 315q5 17 23 19h283
q11 0 18 -7t7 -18t-7 -18.5t-18 -7.5h-259l-32 -232q50 33 121 33z" />
    <glyph glyph-name="six" unicode="6" horiz-adv-x="454" 
d="M227 415q86 0 146.5 -61t60.5 -147q0 -85 -61 -146t-146 -61t-146 61t-61 146v286q0 86 60.5 146.5t146.5 60.5t146 -60.5t61 -146.5q0 -10 -7 -17t-17 -7q-11 0 -18.5 7t-7.5 17q0 65 -46 111t-111 46t-111 -46t-46 -111v-156q28 38 71 58t86 20zM227 50q65 0 111 46
t46 111t-46 111.5t-111 46.5t-111 -46.5t-46 -111.5t46 -111t111 -46z" />
    <glyph glyph-name="seven" unicode="7" horiz-adv-x="465" 
d="M421 699q13 0 20 -10.5t1 -31.5l-236 -642q-4 -9 -13.5 -14t-18.5 -2q-11 4 -15.5 14t0.5 20l226 616h-340q-11 0 -18 7t-7 17q0 11 7.5 18.5t17.5 7.5h376z" />
    <glyph glyph-name="eight" unicode="8" horiz-adv-x="451" 
d="M316 388q53 -24 84 -74.5t31 -107.5q0 -85 -60 -145.5t-145 -60.5q-86 0 -146 60t-60 146q0 57 31.5 108t84.5 74q-36 21 -58 60.5t-22 82.5q0 70 50 119.5t120 49.5t119.5 -49.5t49.5 -119.5q0 -42 -22 -82t-57 -61zM226 650q-49 0 -84.5 -35t-35.5 -84t35 -84.5
t85 -35.5q49 0 84 35t35 85q0 49 -35 84t-84 35zM226 50q63 0 109 46t46 110q0 63 -45.5 108.5t-109.5 45.5t-110 -45.5t-46 -108.5q0 -65 46 -110.5t110 -45.5z" />
    <glyph glyph-name="nine" unicode="9" horiz-adv-x="454" 
d="M227 700q86 0 146.5 -60.5t60.5 -146.5v-286q0 -85 -61 -146t-146 -61t-145.5 60t-61.5 146v1q0 11 7 18t18 7t18 -7t7 -18q0 -65 46 -111t111 -46t111 46t46 111v157q-28 -39 -70.5 -58.5t-86.5 -19.5q-85 0 -146 61t-61 146q0 86 60.5 146.5t146.5 60.5zM227 336
q65 0 111 46t46 111t-46 111t-111 46t-111 -46t-46 -111t46 -111t111 -46z" />
    <glyph glyph-name="colon" unicode=":" horiz-adv-x="124" 
d="M62 322q-17 0 -29.5 12t-12.5 29q0 18 12.5 30t29.5 12t29.5 -12t12.5 -30q0 -17 -12.5 -29t-29.5 -12zM62 95q-17 0 -29.5 12.5t-12.5 29.5t12.5 29t29.5 12t29.5 -12t12.5 -29t-12.5 -29.5t-29.5 -12.5z" />
    <glyph glyph-name="semicolon" unicode=";" horiz-adv-x="152" 
d="M90 321q-17 0 -29 12.5t-12 29.5t12 29.5t29 12.5q18 0 30 -12.5t12 -29.5t-12 -29.5t-30 -12.5zM33 39q-21 12 -9 34l47 90q10 22 33 12q8 -5 11 -14.5t-1 -19.5l-46 -90q-5 -10 -15 -13.5t-20 1.5z" />
    <glyph glyph-name="question" unicode="?" horiz-adv-x="510" 
d="M490 450q0 -91 -60.5 -158t-149.5 -76v-108q0 -10 -7 -17.5t-18 -7.5t-18 7.5t-7 17.5v131q0 11 7 18t18 7h6q75 3 127.5 57t52.5 129q0 76 -54.5 131t-131.5 55t-131.5 -55t-54.5 -131q0 -10 -7.5 -17t-17.5 -7t-17 7t-7 17q0 97 69 166t166 69t166 -68.5t69 -166.5z
M255 49q11 0 18 -7.5t7 -17.5t-7.5 -17t-17.5 -7t-17.5 7t-7.5 17t7 17.5t18 7.5z" />
    <glyph glyph-name="bracketleft" unicode="[" horiz-adv-x="306" 
d="M152 -23q22 0 22 -22q0 -9 -6 -15t-16 -6h-110q-9 0 -15.5 6.5t-6.5 14.5v723q0 9 6.5 15.5t16.5 6.5h109q9 0 15.5 -6.5t6.5 -15.5t-6 -15.5t-16 -6.5h-87v-679h87z" />
    <glyph glyph-name="backslash" unicode="\" horiz-adv-x="219" 
d="M179 -50q-10 -2 -19 3.5t-11 16.5l-128 686q-2 10 3.5 18.5t16.5 10.5q25 5 30 -19l127 -688q2 -11 -3.5 -19t-15.5 -9z" />
    <glyph glyph-name="bracketright" unicode="]" horiz-adv-x="242" 
d="M152 700q9 0 15.5 -6.5t6.5 -15.5v-723q0 -8 -6 -14.5t-15 -6.5h-110q-10 0 -16.5 6t-6.5 15q0 10 6.5 16t16.5 6h86v679h-86q-10 0 -16.5 6.5t-6.5 15.5t6.5 15.5t16.5 6.5h109z" />
    <glyph glyph-name="underscore" unicode="_" horiz-adv-x="446" 
d="M45 -125q-11 0 -18 7.5t-7 17.5t7.5 17t17.5 7h356q10 0 17.5 -7t7.5 -17t-7 -17.5t-18 -7.5h-356z" />
    <glyph glyph-name="a" unicode="a" 
d="M269 500q104 0 177.5 -73t73.5 -176v-226q0 -11 -7 -18t-18 -7q-10 0 -17.5 7.5t-7.5 17.5v77q-35 -51 -89.5 -76.5t-111.5 -25.5q-103 0 -176 73.5t-73 177.5q0 103 73 176t176 73zM269 50q84 0 142.5 58.5t58.5 142.5q0 83 -58.5 141.5t-142.5 58.5q-83 0 -141.5 -58.5
t-58.5 -141.5t58.5 -142t141.5 -59z" />
    <glyph glyph-name="b" unicode="b" 
d="M271 500q103 0 176 -73.5t73 -177.5q0 -103 -73 -176t-176 -73q-104 0 -177.5 73t-73.5 176v426q0 10 7.5 17.5t17.5 7.5q11 0 18 -7t7 -18v-278q35 51 89.5 77t111.5 26zM271 49q83 0 141.5 58.5t58.5 141.5q0 84 -58.5 142.5t-141.5 58.5t-142 -58.5t-59 -142.5
q0 -83 59 -141.5t142 -58.5z" />
    <glyph glyph-name="c" unicode="c" horiz-adv-x="455" 
d="M273 0q-103 0 -176.5 73.5t-73.5 177.5q0 103 73.5 176t176.5 73q83 0 149 -48q8 -6 9.5 -16.5t-4.5 -19.5q-6 -8 -16.5 -9.5t-18.5 4.5q-51 39 -119 39q-83 0 -141.5 -58.5t-58.5 -140.5t58.5 -140.5t141.5 -58.5q67 0 119 38q8 6 18.5 4.5t16.5 -9.5t4.5 -19t-9.5 -17
q-67 -49 -149 -49z" />
    <glyph glyph-name="d" unicode="d" 
d="M495 700q11 0 18 -7t7 -18v-426q0 -103 -73.5 -176t-177.5 -73q-103 0 -176 73t-73 176q0 104 73 177.5t176 73.5q57 0 111.5 -25.5t89.5 -76.5v277q0 10 7.5 17.5t17.5 7.5zM269 49q84 0 142.5 58.5t58.5 141.5q0 84 -58.5 142.5t-142.5 58.5q-83 0 -141.5 -58.5
t-58.5 -142.5q0 -83 58.5 -141.5t141.5 -58.5z" />
    <glyph glyph-name="e" unicode="e" horiz-adv-x="538" 
d="M272 501q105 0 178.5 -75.5t69.5 -179.5q0 -7 -5.5 -11.5t-11.5 -4.5h-427q6 -74 63 -125.5t133 -51.5q81 0 140 61q7 7 17.5 7.5t17.5 -6.5q18 -18 0 -35q-52 -52 -119.5 -70.5t-136 3t-114.5 83.5q-48 63 -52.5 136.5t26 132t90 97.5t131.5 39zM272 453
q-75 0 -131 -50.5t-65 -123.5l394 1q-10 73 -66 123t-132 50z" />
    <glyph glyph-name="f" unicode="f" horiz-adv-x="429" 
d="M215 700q77 0 132 -55t55 -132q0 -10 -7 -17.5t-17 -7.5t-18 7.5t-8 17.5q-2 56 -38 96t-99 40q-56 0 -96.5 -40t-40.5 -96v-183h154q11 0 18 -7.5t7 -18.5q0 -10 -7.5 -17.5t-17.5 -7.5h-154v-253q0 -11 -7.5 -18.5t-17.5 -7.5q-11 0 -18 7.5t-7 18.5v487q1 77 55.5 132
t131.5 55z" />
    <glyph glyph-name="g" unicode="g" 
d="M270 500q104 0 177 -73t73 -177v-221q0 -95 -67 -162t-162 -67q-10 0 -17 7t-7 16q0 10 7 16.5t17 6.5q75 0 128.5 53.5t53.5 129.5v75q-34 -48 -87.5 -76t-115.5 -28q-104 0 -177 73t-73 177t73 177t177 73zM271 50q83 0 141.5 59t58.5 142t-58.5 141.5t-141.5 58.5
t-142 -58.5t-59 -141.5t59 -142t142 -59z" />
    <glyph glyph-name="h" unicode="h" horiz-adv-x="507" 
d="M254 457q94 0 161 -67.5t67 -161.5v-204q0 -10 -7 -17t-17 -7t-16.5 7t-6.5 17v204q0 75 -53.5 128.5t-127.5 53.5t-128 -53.5t-54 -128.5v-204q0 -9 -7 -16.5t-16 -7.5q-10 0 -17 7t-7 17v653q0 10 7 16.5t17 6.5q9 0 16 -7t7 -16v-313q31 45 81.5 69t100.5 24z" />
    <glyph glyph-name="i" unicode="i" horiz-adv-x="91" 
d="M46 521q-11 0 -18.5 7.5t-7.5 18.5q0 10 7.5 17t18.5 7q10 0 17.5 -7t7.5 -17t-7.5 -18t-17.5 -8zM45 0q-11 0 -18 7.5t-7 18.5v449q0 12 7 19t18 7t18.5 -7.5t7.5 -18.5v-449q0 -11 -7.5 -18.5t-18.5 -7.5z" />
    <glyph glyph-name="j" unicode="j" horiz-adv-x="310" 
d="M53 -200q-10 0 -17 7t-7 17t7 16.5t17 6.5q75 0 128 53t53 128v448q0 10 6.5 17t16.5 7t17 -7t7 -17v-448q0 -94 -66.5 -161t-161.5 -67z" />
    <glyph glyph-name="k" unicode="k" horiz-adv-x="362" 
d="M329 43q14 -18 -2 -34q-7 -6 -17 -5t-17 8l-175 205l-43 -44v-146q0 -9 -7 -16t-16 -7q-10 0 -17 7t-7 16v650q0 11 7 17.5t17 6.5t16.5 -7t6.5 -17v-437l214 212q17 17 33 0q16 -15 0 -33l-170 -169z" />
    <glyph glyph-name="l" unicode="l" horiz-adv-x="179" 
d="M124 0q-38 0 -65 27t-27 65v585q0 23 24 23q10 0 16.5 -6.5t6.5 -16.5v-585q0 -19 13.5 -32t31.5 -13q10 0 16.5 -6.5t6.5 -16.5t-6.5 -17t-16.5 -7z" />
    <glyph glyph-name="m" unicode="m" horiz-adv-x="541" 
d="M383 500q55 0 95.5 -38t42.5 -93v-344q0 -11 -7.5 -18t-17.5 -7t-17.5 7.5t-7.5 17.5v337q0 37 -25.5 63t-62.5 26q-36 0 -62 -26t-26 -63v-198q0 -10 -7.5 -17.5t-17.5 -7.5q-9 0 -16.5 7.5t-7.5 17.5v198q0 37 -26 63t-62 26t-61.5 -26t-25.5 -63v-337
q0 -10 -7.5 -17.5t-18.5 -7.5t-18 7t-7 18v451q0 10 7.5 17t17.5 7q12 0 20 -9t5 -18l-14 -22q17 22 46 35.5t56 13.5q33 0 63.5 -16t48.5 -43q18 26 49.5 42.5t63.5 16.5z" />
    <glyph glyph-name="n" unicode="n" 
d="M270 500q104 0 177 -73t73 -177v-225q0 -10 -7 -17.5t-17 -7.5t-17.5 7.5t-7.5 17.5v225q0 83 -59 142t-142 59t-141.5 -59t-58.5 -142v-225q0 -11 -7 -18t-18 -7t-18 7t-7 18v451q0 10 7.5 17t17.5 7t17.5 -7t7.5 -17v-79q33 49 89 76t111 27z" />
    <glyph glyph-name="o" unicode="o" 
d="M270 0q-104 0 -177 73t-73 177t73 177t177 73t177 -73t73 -177t-73 -177t-177 -73zM270 50q83 0 142 58.5t59 141.5t-59 142t-142 59t-141.5 -59t-58.5 -142q0 -82 59 -141t141 -59z" />
    <glyph glyph-name="p" unicode="p" horiz-adv-x="543" 
d="M515 291q18 -99 -40.5 -183t-157.5 -101q-75 -13 -143 17t-108 92v-293q0 -10 -6.5 -16.5t-16.5 -6.5t-16.5 6.5t-6.5 16.5v654q0 10 7 16.5t16 6.5q10 0 16.5 -6.5t6.5 -16.5v-75v-21q59 93 165 111q100 18 183 -41t101 -160zM313 57q79 16 124 83.5t29 147.5
q-17 80 -84.5 125t-146.5 29q-80 -16 -125 -84t-29 -148q17 -80 84.5 -124.5t147.5 -28.5z" />
    <glyph glyph-name="q" unicode="q" horiz-adv-x="543" 
d="M500 500q9 0 16 -6.5t7 -16.5v-654q0 -10 -6.5 -16.5t-16.5 -6.5t-16.5 6.5t-6.5 16.5v293q-40 -62 -108 -92t-143 -17q-99 17 -157.5 101t-40.5 183q18 101 101 160t183 41q106 -18 165 -111v21v75q0 10 6.5 16.5t16.5 6.5zM462 210q16 80 -29 148t-125 84
q-79 16 -146.5 -29t-84.5 -125q-16 -80 29 -147.5t124 -83.5q80 -16 147.5 28.5t84.5 124.5z" />
    <glyph glyph-name="r" unicode="r" horiz-adv-x="330" 
d="M277 500q11 0 18.5 -7t7.5 -16q0 -11 -7.5 -18t-18.5 -7q-82 0 -141 -59.5t-59 -142.5v-225q0 -11 -7.5 -18t-17.5 -7t-17.5 7t-7.5 18v452q0 9 7.5 16t18.5 7q10 0 17 -7t7 -16v-80q70 103 200 103z" />
    <glyph glyph-name="s" unicode="s" horiz-adv-x="420" 
d="M210 15q-76 0 -140 46q-8 6 -9.5 16.5t4.5 18.5t16.5 9.5t17.5 -4.5q50 -36 111 -36q39 0 71.5 13.5t46.5 36.5q7 9 7.5 23.5t-11.5 27.5q-11 8 -125.5 62t-134.5 73q-23 23 -27 52.5t12 58.5q21 36 65.5 54.5t95.5 18.5q78 0 140 -46q19 -14 5 -34q-15 -20 -35 -5
q-49 36 -110 36q-87 0 -119 -50q-14 -28 17 -54t95 -56q18 -8 49 -22.5t48.5 -23t35.5 -18t25 -16.5q23 -20 25 -50t-15 -57q-22 -36 -66 -55t-95 -19z" />
    <glyph glyph-name="t" unicode="t" horiz-adv-x="349" 
d="M297 495q11 0 17.5 -6.5t6.5 -17.5q0 -9 -7 -15.5t-17 -6.5h-99v-355q0 -19 13 -33t32 -14q10 0 17 -7t7 -16q0 -10 -7 -17t-17 -7q-37 0 -63.5 26t-28.5 60v363h-99q-10 0 -16.5 6.5t-6.5 15.5q0 10 6.5 17t16.5 7h99v182q0 10 7 16.5t16 6.5q10 0 17 -6.5t7 -16.5v-182
h99z" />
    <glyph glyph-name="u" unicode="u" 
d="M495 500q11 0 18 -7t7 -18v-451q0 -9 -7.5 -16.5t-17.5 -7.5t-17 7.5t-7 16.5v79q-33 -48 -89 -75.5t-112 -27.5q-104 0 -177 73t-73 177v225q0 10 7 17.5t17 7.5q11 0 18.5 -7t7.5 -18v-225q0 -82 59 -141t141 -59q83 0 142 58.5t59 141.5v225q0 11 7 18t17 7z" />
    <glyph glyph-name="v" unicode="v" 
d="M495 500q10 0 17.5 -7.5t7.5 -17.5q0 -9 -5 -14l-223 -446q-6 -14 -22 -14q-14 0 -25 21q-218 432 -223 448q-1 3 -1 5q-1 10 7 17.5t18 7.5q12 0 19 -10l205 -409l203 408q8 11 22 11z" />
    <glyph glyph-name="w" unicode="w" horiz-adv-x="790" 
d="M753 500q10 -1 17.5 -8t7.5 -17q0 -8 -5 -15l-222 -446q-6 -12 -22 -14q-16 1 -26 22q-79 158 -108 215l-111 -222q-6 -14 -22 -14q-15 0 -25 22q-223 441 -225 452q0 10 8 17.5t18 7.5q12 0 19 -10l205 -409l105 211q-87 173 -88 183t7 17.5t19 7.5q12 0 19 -10l71 -142
l70 141q8 11 21 11q11 -1 18.5 -8t7.5 -17q0 -8 -5 -15l-84 -168l106 -211l202 408q8 11 22 11z" />
    <glyph glyph-name="x" unicode="x" 
d="M512 43q8 -7 8 -18t-7 -18t-18 -7q-12 0 -18 7l-207 208l-207 -208q-7 -7 -18 -7t-18 7t-7 18t7 18l208 207l-208 207q-7 6 -7 18q0 11 7 18t18 7t18 -8l207 -206l207 206q7 8 18 8t18 -7t7 -18t-8 -18l-206 -207z" />
    <glyph glyph-name="y" unicode="y" horiz-adv-x="507" 
d="M458 500q10 0 17 -7t7 -17v-454q-2 -92 -69 -157t-160 -65q-10 0 -17 7t-7 17t7.5 16.5t16.5 6.5q76 0 129 53t53 128v108q-31 -47 -80.5 -70t-101.5 -23q-94 0 -161 67.5t-67 161.5v204q0 10 7.5 17t16.5 7q10 0 17 -7t7 -17v-204q0 -75 53 -128t127 -53q75 0 128.5 53
t53.5 128v204q0 10 6.5 17t16.5 7z" />
    <glyph glyph-name="z" unicode="z" horiz-adv-x="370" 
d="M296 100q20 14 34 -5q14 -20 -5 -34q-64 -46 -140 -46q-74 0 -135 43q-23 19 -10 37l235 317q-37 23 -90 23q-63 0 -110 -36q-8 -6 -18.5 -4.5t-16.5 9.5t-4 18.5t10 16.5q61 46 139 46t140 -46q8 -6 9.5 -16.5t-4.5 -18.5l-235 -317q37 -23 90 -23q61 0 111 36z" />
    <glyph glyph-name="exclamdown" unicode="&#xa1;" horiz-adv-x="90" 
d="M45 661q-6 0 -10.5 4.5t-4.5 10.5t4.5 10.5t10.5 4.5t10.5 -4.5t4.5 -10.5t-4.5 -10.5t-10.5 -4.5zM45 299q-6 0 -10.5 4.5t-4.5 10.5v-46q0 6 4.5 10.5t10.5 4.5t10.5 -4.5t4.5 -10.5v46q0 -6 -4.5 -10.5t-10.5 -4.5z" />
    <glyph glyph-name="guillemotleft" unicode="&#xab;" horiz-adv-x="305" 
d="M166 250l81 -162q5 -10 2 -19.5t-12 -14.5q-21 -11 -33 11l-84 168q-8 15 0 35l84 168q12 21 33 11q9 -5 12 -14.5t-2 -19.5zM106 248l80 -163q5 -10 2 -19.5t-12 -14.5q-21 -10 -33 11l-84 169q-9 14 0 34l84 168q12 22 33 11q9 -5 12 -14.5t-2 -19.5z" />
    <glyph glyph-name="periodcentered" unicode="&#xb7;" horiz-adv-x="124" 
d="M62 209q-17 0 -29.5 12t-12.5 29q0 18 12.5 30t29.5 12t29.5 -12t12.5 -30q0 -17 -12.5 -29t-29.5 -12z" />
    <glyph glyph-name="guillemotright" unicode="&#xbb;" horiz-adv-x="305" 
d="M185 268q9 -18 1 -35l-85 -168q-11 -23 -33 -11q-8 5 -11 14.5t1 19.5l81 162l-81 163q-4 10 -1 19.5t11 14.5q22 10 33 -11zM246 265q9 -17 1 -34l-85 -169q-11 -21 -33 -11q-8 5 -11 14.5t1 19.5l80 163l-80 162q-4 10 -1 19.5t11 14.5q22 12 33 -11z" />
    <glyph glyph-name="questiondown" unicode="&#xbf;" horiz-adv-x="510" 
d="M255 636q-11 0 -18 7t-7 18q0 10 7 17t18 7t18 -6.5t7 -17.5t-7 -18t-18 -7zM466 259q10 0 17 -6.5t7 -17.5q0 -97 -69 -166t-166 -69t-166 69t-69 166q0 90 60.5 157.5t149.5 76.5v109q0 10 7 17.5t18 7.5t18 -7t7 -18v-132q0 -11 -7 -18t-18 -7h-5q-75 -2 -128 -56.5
t-53 -129.5q0 -77 54.5 -131.5t131.5 -54.5t131.5 54.5t54.5 131.5q0 10 7 17t18 7z" />
    <glyph glyph-name="agrave" unicode="&#xe0;" 
d="M259 639l-72 72q-17 17 0 35q17 17 35 0l72 -72q16 -16 -1 -35q-7 -7 -17 -7t-17 7zM269 500q104 0 177.5 -73t73.5 -176v-226q0 -11 -7 -18t-18 -7q-10 0 -17.5 7.5t-7.5 17.5v77q-35 -51 -89.5 -76.5t-111.5 -25.5q-103 0 -176 73.5t-73 177.5q0 103 73 176t176 73z
M269 50q84 0 142.5 58.5t58.5 142.5q0 83 -58.5 141.5t-142.5 58.5q-83 0 -141.5 -58.5t-58.5 -141.5t58.5 -142t141.5 -59z" />
    <glyph glyph-name="aacute" unicode="&#xe1;" 
d="M252 639q-8 -7 -18 -7t-17 7q-17 18 0 35l72 72q17 17 35 0q17 -18 0 -35zM269 500q104 0 177.5 -73t73.5 -176v-226q0 -11 -7 -18t-18 -7q-10 0 -17.5 7.5t-7.5 17.5v77q-35 -51 -89.5 -76.5t-111.5 -25.5q-103 0 -176 73.5t-73 177.5q0 103 73 176t176 73zM269 50
q84 0 142.5 58.5t58.5 142.5q0 83 -58.5 141.5t-142.5 58.5q-83 0 -141.5 -58.5t-58.5 -141.5t58.5 -142t141.5 -59z" />
    <glyph glyph-name="acircumflex" unicode="&#xe2;" 
d="M215 666q-19 -17 -36 0q-7 7 -6.5 16.5t7.5 16.5l70 72q9 8 20 8q12 0 20 -7l71 -73q7 -7 7.5 -16.5t-6.5 -16.5q-9 -8 -19 -7.5t-16 7.5l-57 55zM269 500q104 0 177.5 -73t73.5 -176v-226q0 -11 -7 -18t-18 -7q-10 0 -17.5 7.5t-7.5 17.5v77q-35 -51 -89.5 -76.5
t-111.5 -25.5q-103 0 -176 73.5t-73 177.5q0 103 73 176t176 73zM269 50q84 0 142.5 58.5t58.5 142.5q0 83 -58.5 141.5t-142.5 58.5q-83 0 -141.5 -58.5t-58.5 -141.5t58.5 -142t141.5 -59z" />
    <glyph glyph-name="atilde" unicode="&#xe3;" 
d="M134 644q-16 9 -7 28q35 73 91 73q23 0 54.5 -22t50.5 -22q30 0 57 44q4 8 11.5 11t14.5 -1q16 -9 9 -26q-11 -26 -38.5 -49.5t-50.5 -23.5q-26 0 -58 22t-51 22q-30 0 -56 -47q-10 -17 -27 -9zM269 500q104 0 177.5 -73t73.5 -176v-226q0 -11 -7 -18t-18 -7
q-10 0 -17.5 7.5t-7.5 17.5v77q-35 -51 -89.5 -76.5t-111.5 -25.5q-103 0 -176 73.5t-73 177.5q0 103 73 176t176 73zM269 50q84 0 142.5 58.5t58.5 142.5q0 83 -58.5 141.5t-142.5 58.5q-83 0 -141.5 -58.5t-58.5 -141.5t58.5 -142t141.5 -59z" />
    <glyph glyph-name="adieresis" unicode="&#xe4;" 
d="M175 658q-17 0 -29 12.5t-12 29.5t12 29t29 12q18 0 30 -12t12 -29q0 -18 -12 -30t-30 -12zM364 658q-17 0 -29.5 12.5t-12.5 29.5t12.5 29t29.5 12t29.5 -12t12.5 -29t-12.5 -29.5t-29.5 -12.5zM269 500q104 0 177.5 -73t73.5 -176v-226q0 -11 -7 -18t-18 -7
q-10 0 -17.5 7.5t-7.5 17.5v77q-35 -51 -89.5 -76.5t-111.5 -25.5q-103 0 -176 73.5t-73 177.5q0 103 73 176t176 73zM269 50q84 0 142.5 58.5t58.5 142.5q0 83 -58.5 141.5t-142.5 58.5q-83 0 -141.5 -58.5t-58.5 -141.5t58.5 -142t141.5 -59z" />
    <glyph glyph-name="aring" unicode="&#xe5;" 
d="M270 626q-31 0 -53 22t-22 52q0 31 22 53t53 22t53 -22t22 -53q0 -30 -22 -52t-53 -22zM270 760q-25 0 -42.5 -17.5t-17.5 -42.5q0 -24 17.5 -41.5t42.5 -17.5t42.5 17.5t17.5 41.5q0 26 -17 43t-43 17zM269 500q104 0 177.5 -73t73.5 -176v-226q0 -11 -7 -18t-18 -7
q-10 0 -17.5 7.5t-7.5 17.5v77q-35 -51 -89.5 -76.5t-111.5 -25.5q-103 0 -176 73.5t-73 177.5q0 103 73 176t176 73zM269 50q84 0 142.5 58.5t58.5 142.5q0 83 -58.5 141.5t-142.5 58.5q-83 0 -141.5 -58.5t-58.5 -141.5t58.5 -142t141.5 -59z" />
    <glyph glyph-name="ae" unicode="&#xe6;" horiz-adv-x="987" 
d="M719 501q105 0 178.5 -75.5t69.5 -179.5q0 -7 -5.5 -11.5t-11.5 -4.5h-427q6 -74 63 -125.5t133 -51.5q81 0 140 61q7 7 17.5 7.5t17.5 -6.5q18 -18 0 -35q-52 -52 -119.5 -70.5t-136 3t-114.5 83.5q-1 2 -4 5v-76q0 -11 -7 -18t-18 -7q-10 0 -17.5 7.5t-7.5 17.5v77
q-35 -51 -89.5 -76.5t-111.5 -25.5q-103 0 -176 73.5t-73 177.5q0 103 73 176t176 73q73 0 134.5 -39t91.5 -103q31 64 91 103.5t133 39.5zM719 453q-75 0 -131 -50.5t-65 -123.5l394 1q-10 73 -66 123t-132 50zM269 50q84 0 142.5 58.5t58.5 142.5q0 83 -58.5 141.5
t-142.5 58.5q-83 0 -141.5 -58.5t-58.5 -141.5t58.5 -142t141.5 -59z" />
    <glyph glyph-name="ccedilla" unicode="&#xe7;" horiz-adv-x="455" 
d="M392 90q8 6 18.5 4.5t16.5 -9.5t4.5 -19t-9.5 -17q-60 -42 -125 -48v-35q38 4 66 -20.5t28 -61.5q0 -34 -24.5 -58.5t-58.5 -24.5t-58.5 24.5t-24.5 58.5q0 19 19 19t19 -19t13 -32t32 -13t32 13t13 32t-13 32t-32 13h-29q-8 0 -14 5.5t-6 13.5v52q-99 6 -167.5 79
t-68.5 172q0 103 73.5 176t176.5 73q83 0 149 -48q8 -6 9.5 -16.5t-4.5 -19.5q-6 -8 -16.5 -9.5t-18.5 4.5q-51 39 -119 39q-83 0 -141.5 -58.5t-58.5 -140.5t58.5 -140.5t141.5 -58.5q67 0 119 38z" />
    <glyph glyph-name="egrave" unicode="&#xe8;" horiz-adv-x="538" 
d="M260 639l-72 72q-17 17 0 35q17 17 35 0l72 -72q16 -16 -1 -35q-7 -7 -16.5 -7t-17.5 7zM272 501q105 0 178.5 -75.5t69.5 -179.5q0 -7 -5.5 -11.5t-11.5 -4.5h-427q6 -74 63 -125.5t133 -51.5q81 0 140 61q7 7 17.5 7.5t17.5 -6.5q18 -18 0 -35q-52 -52 -119.5 -70.5
t-136 3t-114.5 83.5q-48 63 -52.5 136.5t26 132t90 97.5t131.5 39zM272 453q-75 0 -131 -50.5t-65 -123.5l394 1q-10 73 -66 123t-132 50z" />
    <glyph glyph-name="eacute" unicode="&#xe9;" horiz-adv-x="538" 
d="M282 639q-8 -7 -18 -7t-17 7q-17 18 0 35l72 72q17 17 35 0q17 -18 0 -35zM272 501q105 0 178.5 -75.5t69.5 -179.5q0 -7 -5.5 -11.5t-11.5 -4.5h-427q6 -74 63 -125.5t133 -51.5q81 0 140 61q7 7 17.5 7.5t17.5 -6.5q18 -18 0 -35q-52 -52 -119.5 -70.5t-136 3
t-114.5 83.5q-48 63 -52.5 136.5t26 132t90 97.5t131.5 39zM272 453q-75 0 -131 -50.5t-65 -123.5l394 1q-10 73 -66 123t-132 50z" />
    <glyph glyph-name="ecircumflex" unicode="&#xea;" horiz-adv-x="538" 
d="M225 666q-19 -17 -36 0q-7 7 -6.5 16.5t7.5 16.5l70 72q9 8 20 8q12 0 20 -7l71 -73q7 -7 7.5 -16.5t-6.5 -16.5q-9 -8 -19 -7.5t-16 7.5l-57 55zM272 501q105 0 178.5 -75.5t69.5 -179.5q0 -7 -5.5 -11.5t-11.5 -4.5h-427q6 -74 63 -125.5t133 -51.5q81 0 140 61
q7 7 17.5 7.5t17.5 -6.5q18 -18 0 -35q-52 -52 -119.5 -70.5t-136 3t-114.5 83.5q-48 63 -52.5 136.5t26 132t90 97.5t131.5 39zM272 453q-75 0 -131 -50.5t-65 -123.5l394 1q-10 73 -66 123t-132 50z" />
    <glyph glyph-name="edieresis" unicode="&#xeb;" horiz-adv-x="538" 
d="M188 658q-17 0 -29 12.5t-12 29.5t12 29t29 12q18 0 30 -12t12 -29q0 -18 -12 -30t-30 -12zM377 658q-17 0 -29.5 12.5t-12.5 29.5t12.5 29t29.5 12t29.5 -12t12.5 -29t-12.5 -29.5t-29.5 -12.5zM272 501q105 0 178.5 -75.5t69.5 -179.5q0 -7 -5.5 -11.5t-11.5 -4.5h-427
q6 -74 63 -125.5t133 -51.5q81 0 140 61q7 7 17.5 7.5t17.5 -6.5q18 -18 0 -35q-52 -52 -119.5 -70.5t-136 3t-114.5 83.5q-48 63 -52.5 136.5t26 132t90 97.5t131.5 39zM272 453q-75 0 -131 -50.5t-65 -123.5l394 1q-10 73 -66 123t-132 50z" />
    <glyph glyph-name="igrave" unicode="&#xec;" horiz-adv-x="162" 
d="M100 639l-72 72q-17 17 0 35q17 17 35 0l72 -72q16 -16 -1 -35q-7 -7 -16.5 -7t-17.5 7zM117 0q-11 0 -18 7.5t-7 18.5v449q0 12 7 19t18 7t18.5 -7.5t7.5 -18.5v-449q0 -11 -7.5 -18.5t-18.5 -7.5z" />
    <glyph glyph-name="iacute" unicode="&#xed;" horiz-adv-x="182" 
d="M63 639q-7 -7 -17.5 -7t-17.5 7q-17 18 0 35l72 72q17 17 35 0q17 -18 0 -35zM45 0q-11 0 -18 7.5t-7 18.5v449q0 12 7 19t18 7t18.5 -7.5t7.5 -18.5v-449q0 -11 -7.5 -18.5t-18.5 -7.5z" />
    <glyph glyph-name="icircumflex" unicode="&#xee;" horiz-adv-x="143" 
d="M162 699q7 -7 7.5 -16.5t-6.5 -16.5q-9 -8 -19 -7.5t-16 7.5l-57 55l-55 -55q-19 -17 -36 0q-7 7 -6.5 16.5t7.5 16.5l70 72q9 8 20 8q12 0 20 -7zM72 501q11 0 18.5 -7.5t7.5 -18.5v-449q0 -11 -7.5 -18.5t-18.5 -7.5t-18 7.5t-7 18.5v449q0 12 7 19t18 7z" />
    <glyph glyph-name="idieresis" unicode="&#xef;" horiz-adv-x="182" 
d="M-4 658q-17 0 -29 12.5t-12 29.5t12 29t29 12q18 0 30 -12t12 -29q0 -18 -12 -30t-30 -12zM185 658q-17 0 -29.5 12.5t-12.5 29.5t12.5 29t29.5 12t29.5 -12t12.5 -29t-12.5 -29.5t-29.5 -12.5zM91 0q-11 0 -18 7.5t-7 18.5v449q0 12 7 19t18 7t18.5 -7.5t7.5 -18.5v-449
q0 -11 -7.5 -18.5t-18.5 -7.5z" />
    <glyph glyph-name="ntilde" unicode="&#xf1;" 
d="M134 644q-16 9 -7 28q35 73 91 73q23 0 54.5 -22t50.5 -22q30 0 57 44q4 8 11.5 11t14.5 -1q16 -9 9 -26q-11 -26 -38.5 -49.5t-50.5 -23.5q-26 0 -58 22t-51 22q-30 0 -56 -47q-10 -17 -27 -9zM270 500q104 0 177 -73t73 -177v-225q0 -10 -7 -17.5t-17 -7.5t-17.5 7.5
t-7.5 17.5v225q0 83 -59 142t-142 59t-141.5 -59t-58.5 -142v-225q0 -11 -7 -18t-18 -7t-18 7t-7 18v451q0 10 7.5 17t17.5 7t17.5 -7t7.5 -17v-79q33 49 89 76t111 27z" />
    <glyph glyph-name="ograve" unicode="&#xf2;" 
d="M266 639l-72 72q-17 17 0 35q17 17 35 0l72 -72q16 -16 -1 -35q-7 -7 -16.5 -7t-17.5 7zM270 0q-104 0 -177 73t-73 177t73 177t177 73t177 -73t73 -177t-73 -177t-177 -73zM270 50q83 0 142 58.5t59 141.5t-59 142t-142 59t-141.5 -59t-58.5 -142q0 -82 59 -141t141 -59
z" />
    <glyph glyph-name="oacute" unicode="&#xf3;" 
d="M314 639q-8 -7 -18 -7t-17 7q-17 18 0 35l72 72q17 17 35 0q17 -18 0 -35zM270 0q-104 0 -177 73t-73 177t73 177t177 73t177 -73t73 -177t-73 -177t-177 -73zM270 50q83 0 142 58.5t59 141.5t-59 142t-142 59t-141.5 -59t-58.5 -142q0 -82 59 -141t141 -59z" />
    <glyph glyph-name="ocircumflex" unicode="&#xf4;" 
d="M215 666q-19 -17 -36 0q-7 7 -6.5 16.5t7.5 16.5l70 72q9 8 20 8q12 0 20 -7l71 -73q7 -7 7.5 -16.5t-6.5 -16.5q-9 -8 -19 -7.5t-16 7.5l-57 55zM270 500q104 0 177 -73t73 -177t-73 -177t-177 -73t-177 73t-73 177t73 177t177 73zM270 50q83 0 142 58.5t59 141.5
t-59 142t-142 59t-141.5 -59t-58.5 -142q0 -82 59 -141t141 -59z" />
    <glyph glyph-name="otilde" unicode="&#xf5;" 
d="M134 644q-16 9 -7 28q35 73 91 73q23 0 54.5 -22t50.5 -22q30 0 57 44q4 8 11.5 11t14.5 -1q16 -9 9 -26q-11 -26 -38.5 -49.5t-50.5 -23.5q-26 0 -58 22t-51 22q-30 0 -56 -47q-10 -17 -27 -9zM270 0q-104 0 -177 73t-73 177t73 177t177 73t177 -73t73 -177t-73 -177
t-177 -73zM270 50q83 0 142 58.5t59 141.5t-59 142t-142 59t-141.5 -59t-58.5 -142q0 -82 59 -141t141 -59z" />
    <glyph glyph-name="odieresis" unicode="&#xf6;" 
d="M175 658q-17 0 -29 12.5t-12 29.5t12 29t29 12q18 0 30 -12t12 -29q0 -18 -12 -30t-30 -12zM364 658q-17 0 -29.5 12.5t-12.5 29.5t12.5 29t29.5 12t29.5 -12t12.5 -29t-12.5 -29.5t-29.5 -12.5zM270 0q-104 0 -177 73t-73 177t73 177t177 73t177 -73t73 -177t-73 -177
t-177 -73zM270 50q83 0 142 58.5t59 141.5t-59 142t-142 59t-141.5 -59t-58.5 -142q0 -82 59 -141t141 -59z" />
    <glyph glyph-name="oslash" unicode="&#xf8;" 
d="M341 490q78 -24 128.5 -90t50.5 -150q0 -104 -73 -177t-177 -73q-14 0 -21 1l-18 -99q-2 -11 -11 -16.5t-19 -3.5q-10 1 -16 9.5t-4 18.5l19 100q-79 23 -129.5 89t-50.5 151q0 104 73 177t177 73q14 0 21 -1l18 99q2 11 10.5 16.5t19.5 3.5q10 -1 16 -10t4 -19zM70 250
q0 -66 39 -118t100 -72l73 391h-12q-83 0 -141.5 -59t-58.5 -142zM270 50q83 0 142 58.5t59 141.5q0 66 -39 118.5t-100 72.5l-73 -391h11z" />
    <glyph glyph-name="ugrave" unicode="&#xf9;" 
d="M256 639l-72 72q-17 17 0 35q17 17 35 0l72 -72q16 -16 -1 -35q-7 -7 -16.5 -7t-17.5 7zM495 500q11 0 18 -7t7 -18v-451q0 -9 -7.5 -16.5t-17.5 -7.5t-17 7.5t-7 16.5v79q-33 -48 -89 -75.5t-112 -27.5q-104 0 -177 73t-73 177v225q0 10 7 17.5t17 7.5q11 0 18.5 -7
t7.5 -18v-225q0 -82 59 -141t141 -59q83 0 142 58.5t59 141.5v225q0 11 7 18t17 7z" />
    <glyph glyph-name="uacute" unicode="&#xfa;" 
d="M298 639q-8 -7 -18 -7t-17 7q-17 18 0 35l72 72q17 17 35 0q17 -18 0 -35zM495 500q11 0 18 -7t7 -18v-451q0 -9 -7.5 -16.5t-17.5 -7.5t-17 7.5t-7 16.5v79q-33 -48 -89 -75.5t-112 -27.5q-104 0 -177 73t-73 177v225q0 10 7 17.5t17 7.5q11 0 18.5 -7t7.5 -18v-225
q0 -82 59 -141t141 -59q83 0 142 58.5t59 141.5v225q0 11 7 18t17 7z" />
    <glyph glyph-name="ucircumflex" unicode="&#xfb;" 
d="M215 666q-19 -17 -36 0q-7 7 -6.5 16.5t7.5 16.5l70 72q9 8 20 8q12 0 20 -7l71 -73q7 -7 7.5 -16.5t-6.5 -16.5q-9 -8 -19 -7.5t-16 7.5l-57 55zM495 500q11 0 18 -7t7 -18v-451q0 -9 -7.5 -16.5t-17.5 -7.5t-17 7.5t-7 16.5v79q-33 -48 -89 -75.5t-112 -27.5
q-104 0 -177 73t-73 177v225q0 10 7 17.5t17 7.5q11 0 18.5 -7t7.5 -18v-225q0 -82 59 -141t141 -59q83 0 142 58.5t59 141.5v225q0 11 7 18t17 7z" />
    <glyph glyph-name="udieresis" unicode="&#xfc;" 
d="M175 658q-17 0 -29 12.5t-12 29.5t12 29t29 12q18 0 30 -12t12 -29q0 -18 -12 -30t-30 -12zM364 658q-17 0 -29.5 12.5t-12.5 29.5t12.5 29t29.5 12t29.5 -12t12.5 -29t-12.5 -29.5t-29.5 -12.5zM495 500q11 0 18 -7t7 -18v-451q0 -9 -7.5 -16.5t-17.5 -7.5t-17 7.5
t-7 16.5v79q-33 -48 -89 -75.5t-112 -27.5q-104 0 -177 73t-73 177v225q0 10 7 17.5t17 7.5q11 0 18.5 -7t7.5 -18v-225q0 -82 59 -141t141 -59q83 0 142 58.5t59 141.5v225q0 11 7 18t17 7z" />
    <glyph glyph-name="yacute" unicode="&#xfd;" horiz-adv-x="507" 
d="M320 639q-8 -7 -18 -7t-17 7q-17 18 0 35l72 72q17 17 35 0q17 -18 0 -35zM458 500q10 0 17 -7t7 -17v-454q-2 -92 -69 -157t-160 -65q-10 0 -17 7t-7 17t7.5 16.5t16.5 6.5q76 0 129 53t53 128v108q-31 -47 -80.5 -70t-101.5 -23q-94 0 -161 67.5t-67 161.5v204
q0 10 7.5 17t16.5 7q10 0 17 -7t7 -17v-204q0 -75 53 -128t127 -53q75 0 128.5 53t53.5 128v204q0 10 6.5 17t16.5 7z" />
    <glyph glyph-name="ydieresis" unicode="&#xff;" horiz-adv-x="507" 
d="M159 658q-17 0 -29 12.5t-12 29.5t12 29t29 12q18 0 30 -12t12 -29q0 -18 -12 -30t-30 -12zM348 658q-17 0 -29.5 12.5t-12.5 29.5t12.5 29t29.5 12t29.5 -12t12.5 -29t-12.5 -29.5t-29.5 -12.5zM458 500q10 0 17 -7t7 -17v-454q-2 -92 -69 -157t-160 -65q-10 0 -17 7
t-7 17t7.5 16.5t16.5 6.5q76 0 129 53t53 128v108q-31 -47 -80.5 -70t-101.5 -23q-94 0 -161 67.5t-67 161.5v204q0 10 7.5 17t16.5 7q10 0 17 -7t7 -17v-204q0 -75 53 -128t127 -53q75 0 128.5 53t53.5 128v204q0 10 6.5 17t16.5 7z" />
    <glyph glyph-name="dotlessi" unicode="&#x131;" horiz-adv-x="121" 
d="M60 0q-11 0 -18 7.5t-7 18.5v449q0 12 7 19t18 7t18.5 -7.5t7.5 -18.5v-449q0 -11 -7.5 -18.5t-18.5 -7.5z" />
    <glyph glyph-name="oe" unicode="&#x153;" horiz-adv-x="989" 
d="M721 501q105 0 178.5 -75.5t69.5 -179.5q0 -7 -5.5 -11.5t-11.5 -4.5h-427q6 -74 63 -125.5t133 -51.5q81 0 140 61q7 7 17.5 7.5t17.5 -6.5q18 -18 0 -35q-52 -52 -119.5 -70.5t-136 3t-114.5 83.5q-19 26 -29 48q-30 -65 -91.5 -104.5t-135.5 -39.5q-104 0 -177 73
t-73 177t73 177t177 73q74 0 135 -39.5t91 -104.5q31 65 91 105t134 40zM721 453q-75 0 -131 -50.5t-65 -123.5l394 1q-10 73 -66 123t-132 50zM270 50q83 0 142 58.5t59 141.5t-59 142t-142 59t-141.5 -59t-58.5 -142q0 -82 59 -141t141 -59z" />
    <glyph glyph-name="wcircumflex" unicode="&#x175;" horiz-adv-x="790" 
d="M340 666q-19 -17 -36 0q-7 7 -6.5 16.5t7.5 16.5l70 72q9 8 20 8q12 0 20 -7l71 -73q7 -7 7.5 -16.5t-6.5 -16.5q-9 -8 -19 -7.5t-16 7.5l-57 55zM753 500q10 -1 17.5 -8t7.5 -17q0 -8 -5 -15l-222 -446q-6 -12 -22 -14q-16 1 -26 22q-79 158 -108 215l-111 -222
q-6 -14 -22 -14q-15 0 -25 22q-223 441 -225 452q0 10 8 17.5t18 7.5q12 0 19 -10l205 -409l105 211q-87 173 -88 183t7 17.5t19 7.5q12 0 19 -10l71 -142l70 141q8 11 21 11q11 -1 18.5 -8t7.5 -17q0 -8 -5 -15l-84 -168l106 -211l202 408q8 11 22 11z" />
    <glyph glyph-name="ycircumflex" unicode="&#x177;" horiz-adv-x="507" 
d="M199 666q-19 -17 -36 0q-7 7 -6.5 16.5t7.5 16.5l70 72q9 8 20 8q12 0 20 -7l71 -73q7 -7 7.5 -16.5t-6.5 -16.5q-9 -8 -19 -7.5t-16 7.5l-57 55zM458 500q10 0 17 -7t7 -17v-454q-2 -92 -69 -157t-160 -65q-10 0 -17 7t-7 17t7.5 16.5t16.5 6.5q76 0 129 53t53 128v108
q-31 -47 -80.5 -70t-101.5 -23q-94 0 -161 67.5t-67 161.5v204q0 10 7.5 17t16.5 7q10 0 17 -7t7 -17v-204q0 -75 53 -128t127 -53q75 0 128.5 53t53.5 128v204q0 10 6.5 17t16.5 7z" />
    <glyph glyph-name="gravecomb" unicode="&#x300;" horiz-adv-x="0" 
d="M-77 639l-72 72q-17 17 0 35q17 17 35 0l72 -72q16 -16 -1 -35q-7 -7 -17 -7t-17 7z" />
    <glyph glyph-name="acutecomb" unicode="&#x301;" horiz-adv-x="0" 
d="M-114 639q-8 -7 -18 -7t-17 7q-17 18 0 35l72 72q17 17 35 0q17 -18 0 -35z" />
    <glyph glyph-name="uni0302" unicode="&#x302;" horiz-adv-x="0" 
d="M-43 699q7 -7 7.5 -16.5t-6.5 -16.5q-9 -8 -19 -7.5t-16 7.5l-57 55l-55 -55q-19 -17 -36 0q-7 7 -6.5 16.5t7.5 16.5l70 72q9 8 20 8q12 0 20 -7z" />
    <glyph glyph-name="tildecomb" unicode="&#x303;" horiz-adv-x="0" 
d="M-312 644q-16 9 -7 28q35 73 91 73q23 0 54.5 -22t50.5 -22q30 0 57 44q4 8 11.5 11t14.5 -1q16 -9 9 -26q-11 -26 -38.5 -49.5t-50.5 -23.5q-26 0 -58 22t-51 22q-30 0 -56 -47q-10 -17 -27 -9z" />
    <glyph glyph-name="uni0307" unicode="&#x307;" horiz-adv-x="0" 
d="M-77 658q-17 0 -29.5 12.5t-12.5 29.5t12.5 29t29.5 12t29.5 -12t12.5 -29t-12.5 -29.5t-29.5 -12.5z" />
    <glyph glyph-name="uni0308" unicode="&#x308;" horiz-adv-x="0" 
d="M-304 658q-17 0 -29 12.5t-12 29.5t12 29t29 12q18 0 30 -12t12 -29q0 -18 -12 -30t-30 -12zM-115 658q-17 0 -29.5 12.5t-12.5 29.5t12.5 29t29.5 12t29.5 -12t12.5 -29t-12.5 -29.5t-29.5 -12.5z" />
    <glyph glyph-name="uni030A" unicode="&#x30a;" horiz-adv-x="0" 
d="M-110 626q-31 0 -53 22t-22 52q0 31 22 53t53 22t53 -22t22 -53q0 -30 -22 -52t-53 -22zM-110 641q25 0 42.5 17.5t17.5 41.5q0 26 -17 43t-43 17q-25 0 -42.5 -17.5t-17.5 -42.5q0 -24 17.5 -41.5t42.5 -17.5z" />
    <glyph glyph-name="uni0327" unicode="&#x327;" horiz-adv-x="0" 
d="M-120 -36q38 4 66 -20.5t28 -61.5q0 -34 -24 -58.5t-59 -24.5t-59 24.5t-24 58.5q0 19 19 19t19 -19t13 -32t32 -13t32 13t13 32t-13 32t-32 13h-29q-8 0 -14 5.5t-6 13.5v54h38v-36z" />
    <glyph glyph-name="uni0335" unicode="&#x335;" horiz-adv-x="0" 
d="M-416 226q-10 0 -17.5 7t-7.5 18q0 10 7 17t18 7h356q11 0 18 -7t7 -17q0 -11 -7.5 -18t-17.5 -7h-356z" />
    <glyph glyph-name="uni0338" unicode="&#x338;" horiz-adv-x="0" 
d="M-193 -118q-10 1 -16 9.5t-4 18.5l128 688q2 11 10.5 16.5t19.5 3.5q10 -1 16 -10t4 -19l-128 -687q-2 -11 -11 -16.5t-19 -3.5z" />
    <glyph glyph-name="wgrave" unicode="&#x1e81;" horiz-adv-x="790" 
d="M360 639l-72 72q-17 17 0 35q17 17 35 0l72 -72q16 -16 -1 -35q-7 -7 -16.5 -7t-17.5 7zM753 500q10 -1 17.5 -8t7.5 -17q0 -8 -5 -15l-222 -446q-6 -12 -22 -14q-16 1 -26 22q-79 158 -108 215l-111 -222q-6 -14 -22 -14q-15 0 -25 22q-223 441 -225 452q0 10 8 17.5
t18 7.5q12 0 19 -10l205 -409l105 211q-87 173 -88 183t7 17.5t19 7.5q12 0 19 -10l71 -142l70 141q8 11 21 11q11 -1 18.5 -8t7.5 -17q0 -8 -5 -15l-84 -168l106 -211l202 408q8 11 22 11z" />
    <glyph glyph-name="wacute" unicode="&#x1e83;" horiz-adv-x="790" 
d="M415 639q-7 -7 -17.5 -7t-17.5 7q-17 18 0 35l72 72q17 17 35 0q17 -18 0 -35zM753 500q10 -1 17.5 -8t7.5 -17q0 -8 -5 -15l-222 -446q-6 -12 -22 -14q-16 1 -26 22q-79 158 -108 215l-111 -222q-6 -14 -22 -14q-15 0 -25 22q-223 441 -225 452q0 10 8 17.5t18 7.5
q12 0 19 -10l205 -409l105 211q-87 173 -88 183t7 17.5t19 7.5q12 0 19 -10l71 -142l70 141q8 11 21 11q11 -1 18.5 -8t7.5 -17q0 -8 -5 -15l-84 -168l106 -211l202 408q8 11 22 11z" />
    <glyph glyph-name="wdieresis" unicode="&#x1e85;" horiz-adv-x="790" 
d="M281 658q-17 0 -29 12.5t-12 29.5t12 29t29 12q18 0 30 -12t12 -29q0 -18 -12 -30t-30 -12zM470 658q-17 0 -29.5 12.5t-12.5 29.5t12.5 29t29.5 12t29.5 -12t12.5 -29t-12.5 -29.5t-29.5 -12.5zM753 500q10 -1 17.5 -8t7.5 -17q0 -8 -5 -15l-222 -446q-6 -12 -22 -14
q-16 1 -26 22q-79 158 -108 215l-111 -222q-6 -14 -22 -14q-15 0 -25 22q-223 441 -225 452q0 10 8 17.5t18 7.5q12 0 19 -10l205 -409l105 211q-87 173 -88 183t7 17.5t19 7.5q12 0 19 -10l71 -142l70 141q8 11 21 11q11 -1 18.5 -8t7.5 -17q0 -8 -5 -15l-84 -168l106 -211
l202 408q8 11 22 11z" />
    <glyph glyph-name="ygrave" unicode="&#x1ef3;" horiz-adv-x="507" 
d="M248 639l-72 72q-17 17 0 35q17 17 35 0l72 -72q16 -16 -1 -35q-7 -7 -16.5 -7t-17.5 7zM458 500q10 0 17 -7t7 -17v-454q-2 -92 -69 -157t-160 -65q-10 0 -17 7t-7 17t7.5 16.5t16.5 6.5q76 0 129 53t53 128v108q-31 -47 -80.5 -70t-101.5 -23q-94 0 -161 67.5
t-67 161.5v204q0 10 7.5 17t16.5 7q10 0 17 -7t7 -17v-204q0 -75 53 -128t127 -53q75 0 128.5 53t53.5 128v204q0 10 6.5 17t16.5 7z" />
    <glyph glyph-name="endash" unicode="&#x2013;" horiz-adv-x="446" 
d="M45 226q-11 0 -18 7t-7 18q0 10 7 17t18 7h356q11 0 18 -7t7 -17q0 -11 -7 -18t-18 -7h-356z" />
    <glyph glyph-name="emdash" unicode="&#x2014;" horiz-adv-x="738" 
d="M45 226q-11 0 -18 7t-7 18q0 10 7 17t18 7h648q11 0 18 -7t7 -17q0 -11 -7 -18t-18 -7h-648z" />
    <glyph glyph-name="quoteleft" unicode="&#x2018;" horiz-adv-x="174" 
d="M34 474q-22 10 -10 33l85 169q11 21 33 11q8 -5 11 -14.5t-1 -19.5l-84 -168q-13 -23 -34 -11z" />
    <glyph glyph-name="quoteright" unicode="&#x2019;" horiz-adv-x="174" 
d="M34 474q-22 10 -10 33l85 169q11 21 33 11q8 -5 11 -14.5t-1 -19.5l-84 -168q-13 -23 -34 -11z" />
    <glyph glyph-name="quotesinglbase" unicode="&#x201a;" horiz-adv-x="136" 
d="M34 -69q-22 10 -10 34l47 91q11 21 33 11q8 -5 11 -14.5t-1 -19.5l-46 -90q-12 -23 -34 -12z" />
    <glyph glyph-name="quotedblleft" unicode="&#x201c;" horiz-adv-x="291" 
d="M34 474q-22 10 -10 33l85 169q11 21 33 11q8 -5 11 -14.5t-1 -19.5l-84 -168q-13 -23 -34 -11zM150 474q-20 10 -10 33l85 169q12 21 33 11q9 -5 12 -14.5t-2 -19.5l-84 -168q-12 -23 -34 -11z" />
    <glyph glyph-name="quotedblright" unicode="&#x201d;" horiz-adv-x="291" 
d="M34 474q-22 10 -10 33l85 169q11 21 33 11q8 -5 11 -14.5t-1 -19.5l-84 -168q-13 -23 -34 -11zM150 474q-20 10 -10 33l85 169q12 21 33 11q9 -5 12 -14.5t-2 -19.5l-84 -168q-12 -23 -34 -11z" />
    <glyph glyph-name="quotedblbase" unicode="&#x201e;" horiz-adv-x="136" 
d="M104 67q8 -5 11 -14.5t-1 -19.5l-46 -90q-12 -23 -34 -12q-22 10 -10 34l47 91q11 21 33 11z" />
    <glyph glyph-name="bullet" unicode="&#x2022;" horiz-adv-x="209" 
d="M105 166q-35 0 -60 24.5t-25 59.5t25 59.5t60 24.5t59.5 -24.5t24.5 -59.5q0 -34 -24.5 -59t-59.5 -25z" />
    <glyph glyph-name="ellipsis" unicode="&#x2026;" horiz-adv-x="124" 
d="M62 83q17 0 29.5 -12t12.5 -30q0 -17 -12.5 -29t-29.5 -12t-29.5 12t-12.5 29q0 18 12.5 30t29.5 12z" />
    <glyph glyph-name="guilsinglleft" unicode="&#x2039;" horiz-adv-x="173" 
d="M70 250l81 -162q4 -10 1 -19.5t-11 -14.5q-22 -12 -33 11l-85 168q-8 17 1 35l84 168q11 21 33 11q8 -5 11 -14.5t-1 -19.5z" />
    <glyph glyph-name="guilsinglright" unicode="&#x203a;" horiz-adv-x="173" 
d="M150 268q8 -20 0 -35l-84 -168q-12 -22 -33 -11q-9 5 -12 14.5t2 19.5l81 162l-81 163q-5 10 -2 19.5t12 14.5q21 10 33 -11z" />
    </font>
</defs>
</svg>
