<svg xmlns="http://www.w3.org/2000/svg" width="19.72" height="16.197" viewBox="0 0 19.72 16.197"><defs><style>.a{fill:#f2df31;}</style></defs><path class="a" d="M0,6.172V4.977c.032-.172.054-.344.086-.506A5.283,5.283,0,0,1,3.841.3a5.241,5.241,0,0,1,5.5,1.409c.183.183.344.387.516.581.022-.011.032-.011.043-.022a.941.941,0,0,0,.086-.108A5.314,5.314,0,0,1,14.911.082a5.394,5.394,0,0,1,4.6,3.894,10.083,10.083,0,0,1,.2.99V6.161a.816.816,0,0,0-.032.172,6.614,6.614,0,0,1-.635,2.345,7.959,7.959,0,0,1-2.216,2.679c-2.044,1.678-4.217,3.184-6.39,4.68a.984.984,0,0,1-1.183-.011c-1.108-.775-2.227-1.538-3.324-2.335a37.678,37.678,0,0,1-3.658-2.872A6.768,6.768,0,0,1,.14,7.065C.075,6.763.043,6.462,0,6.172Zm2.033-.549a5.077,5.077,0,0,0,.258,1.689A5.515,5.515,0,0,0,4.11,9.743c1.8,1.5,3.722,2.819,5.627,4.163a.169.169,0,0,0,.237,0c.43-.312.871-.6,1.313-.914,1.571-1.119,3.152-2.227,4.615-3.5a4.856,4.856,0,0,0,1.743-4.529A3.353,3.353,0,0,0,15.1,2.18a3.419,3.419,0,0,0-3.55,1.269,3.676,3.676,0,0,0-.689,2.1.981.981,0,0,1-1,.947,1,1,0,0,1-1.011-.947c-.022-.226-.032-.452-.065-.667a3.406,3.406,0,0,0-6.756.742Z" transform="translate(0 -0.032)"/></svg>