<?xml version="1.0" standalone="no"?>
<!DOCTYPE svg PUBLIC "-//W3C//DTD SVG 1.1//EN" "http://www.w3.org/Graphics/SVG/1.1/DTD/svg11.dtd" >
<svg xmlns="http://www.w3.org/2000/svg" xmlns:xlink="http://www.w3.org/1999/xlink" version="1.1">
<metadata>
Created by FontForge 20170731 at Thu Feb 28 02:38:42 2019
 By Aleksey,,,
Copyright (c) 2019 by Eko Bimantara. All rights reserved.
</metadata>
<defs>
<font id="AgeoPersonalUse-SemiBold" horiz-adv-x="533" >
  <font-face 
    font-family="Ageo Personal Use"
    font-weight="600"
    font-stretch="normal"
    units-per-em="1000"
    panose-1="0 0 0 0 0 0 0 0 0 0"
    ascent="760"
    descent="-240"
    x-height="460"
    cap-height="694"
    bbox="-61.4545 -240 902 895"
    underline-thickness="50"
    underline-position="-225"
    unicode-range="U+000D-FB04"
  />
<missing-glyph horiz-adv-x="0" 
 />
    <glyph glyph-name=".notdef" horiz-adv-x="0" 
 />
    <glyph glyph-name="uni0000" horiz-adv-x="0" 
 />
    <glyph glyph-name="uni0000" horiz-adv-x="0" 
 />
    <glyph glyph-name="uni000D" unicode="&#xd;" horiz-adv-x="0" 
 />
    <glyph glyph-name="space" unicode=" " horiz-adv-x="250" 
 />
    <glyph glyph-name="exclam" unicode="!" horiz-adv-x="252" 
d="M166 196h-82q-10 0 -10 10l-2 478q0 10 10 10h86q10 0 10 -10l-2 -478q0 -10 -10 -10zM187 53q0 -28 -16.5 -45.5t-44.5 -17.5t-45.5 17.5t-17.5 45.5t17.5 45t45.5 17t44.5 -17t16.5 -45z" />
    <glyph glyph-name="quotedbl" unicode="&#x22;" horiz-adv-x="364" 
d="M217 436l-29 27q-6 6 2 13q63 49 74 114h-1q-1 1 -2 1q-25 2 -39.5 19.5t-14.5 43.5q0 29 17.5 47t46.5 18q25 0 42 -14t21 -37q13 -61 -19.5 -135t-82.5 -101q-2 -1 -5 -1q-5 0 -10 5zM104 590q-1 0 -2 1q-25 2 -40 19.5t-15 43.5q0 29 18 47t47 18q25 0 41.5 -14
t20.5 -37q14 -61 -19 -134.5t-83 -101.5q-2 -1 -5 -1q-5 0 -10 5l-28 27q-6 6 1 13q63 49 74 114z" />
    <glyph glyph-name="numbersign" unicode="#" horiz-adv-x="651" 
d="M45 266q5 9 14 9h80l37 137h-93q-10 0 -7 10l22 68q4 9 13 9h88l49 185q2 10 12 10h76q9 0 7 -10l-49 -185h142l49 185q2 10 13 10h75q10 0 7 -10l-49 -185h90q11 0 7 -9l-22 -68q-3 -10 -13 -10h-85l-36 -137h96q11 0 7 -9l-22 -68q-2 -10 -13 -10h-91l-47 -178
q-3 -10 -13 -10h-75q-10 0 -8 10l47 178h-141l-48 -178q-2 -10 -12 -10h-76q-10 0 -7 10l47 178h-86q-9 0 -6 10zM377 275l36 137h-142l-36 -137h142z" />
    <glyph glyph-name="dollar" unicode="$" horiz-adv-x="573" 
d="M258 295q-108 25 -159 74.5t-53 129.5q-2 82 56.5 138.5t155.5 63.5v30q0 10 10 10h39q10 0 10 -10v-29q46 -3 87.5 -16.5t61 -25.5t31.5 -23q7 -7 3 -16l-35 -77q-2 -5 -6 -5q-3 0 -6 3q-64 48 -136 56v-204q111 -28 162 -73t53 -123q3 -88 -53.5 -144t-161.5 -63v-93
q0 -10 -10 -10h-39q-10 0 -10 10v93q-77 6 -132.5 32.5t-80.5 49.5q-6 6 -2 15l43 74q3 4 6 4q4 0 7 -3q66 -56 159 -68v200zM317 281v-187q52 4 82 29.5t30 65.5q0 31 -26 53t-86 39zM258 598q-48 -5 -78.5 -31t-30.5 -61t23.5 -56.5t85.5 -40.5v189z" />
    <glyph glyph-name="percent" unicode="%" horiz-adv-x="766" 
d="M27 549q0 75 45.5 120.5t120.5 45.5q74 0 119.5 -45.5t45.5 -120.5q0 -74 -45.5 -119.5t-119.5 -45.5q-75 0 -120.5 45.5t-45.5 119.5zM119 549q0 -33 20.5 -53t52.5 -20q33 0 53.5 20t20.5 53t-20 53.5t-54 20.5q-33 0 -53 -20.5t-20 -53.5zM530 156q0 -34 20.5 -54
t53.5 -20q32 0 52.5 20t20.5 54q0 33 -20 53t-53 20t-53.5 -20t-20.5 -53zM438 156q0 74 45.5 119.5t120.5 45.5q74 0 119.5 -45.5t45.5 -119.5q0 -75 -45.5 -120.5t-119.5 -45.5q-75 0 -120.5 45.5t-45.5 120.5zM158 13l396 702q5 7 12 7h80q12 0 7 -11l-398 -704
q-3 -7 -12 -7h-79q-14 0 -6 13z" />
    <glyph glyph-name="ampersand" unicode="&#x26;" horiz-adv-x="669" 
d="M265 602q-33 0 -53.5 -22t-20.5 -58q0 -12 3 -24t11.5 -25.5t14.5 -22.5t20.5 -23.5t20.5 -21t24.5 -23.5t23.5 -22l159 -152q30 70 31 168q0 10 11 10h81q10 0 10 -10q-3 -154 -51 -248l121 -116q5 -4 4 -8t-8 -4h-105q-9 0 -18 7l-51 48q-74 -71 -190 -71
q-124 0 -200.5 63t-76.5 162q0 62 32 108t88 71q-61 66 -61 142q0 78 49.5 125.5t129.5 47.5q117 0 160 -93q5 -9 -3 -14l-68 -44q-4 -2 -5 -2q-3 0 -8 5q-27 46 -75 47zM204 330q-75 -34 -75 -116q0 -59 48.5 -98.5t124.5 -39.5q69 0 118 49q-15 13 -108 102t-108 103z" />
    <glyph glyph-name="quotesingle" unicode="'" horiz-adv-x="205" 
d="M58 437l-30 27q-6 6 1 13q62 50 75 114h-3q-25 3 -40 21t-15 44q0 29 18 47.5t47 18.5q25 0 42.5 -14.5t21.5 -38.5q13 -62 -20 -135t-83 -101q-2 -1 -5 -1q-6 0 -9 5z" />
    <glyph glyph-name="parenleft" unicode="(" horiz-adv-x="302" 
d="M157 685q5 9 16 9h79q9 -2 5 -9q-14 -23 -28.5 -54.5t-36.5 -88t-36 -129.5t-14 -147q-2 -226 114 -418q6 -8 -4 -8h-79q-11 0 -16 9q-14 22 -28.5 52t-36.5 85t-35.5 129t-13.5 151q0 96 26 195t47 144.5t41 79.5z" />
    <glyph glyph-name="parenright" unicode=")" horiz-adv-x="302" 
d="M50 694h80q10 0 15 -9q20 -34 41 -79.5t47 -144.5t26 -195q0 -77 -13.5 -151t-35.5 -129t-36.5 -85t-28.5 -52q-5 -9 -15 -9h-80q-9 0 -4 8q116 192 114 418q0 96 -26 195.5t-47 143.5t-42 80q-5 9 5 9z" />
    <glyph glyph-name="asterisk" unicode="*" horiz-adv-x="419" 
d="M211 431l-73 -108q-3 -5 -8 -5q-4 0 -8 4l-56 51q-9 7 0 16l75 85l-113 61q-9 4 -5 14l43 67q3 5 9 5q2 0 6 -2l87 -63l-8 125q0 11 10 11h82q9 0 9 -11l-8 -125l88 63q4 2 6 2q4 0 9 -5l42 -67q6 -10 -4 -14l-114 -61l76 -85q8 -8 0 -16l-57 -51q-4 -4 -8 -4q-5 0 -8 5z
" />
    <glyph glyph-name="plus" unicode="+" horiz-adv-x="565" 
d="M245 73q-10 0 -10 10v164h-161q-10 0 -10 10v70q0 10 10 10h161v163q0 10 10 10h75q10 0 10 -10v-163h161q10 0 10 -10v-70q0 -10 -10 -10h-161v-164q0 -10 -10 -10h-75z" />
    <glyph glyph-name="comma" unicode="," horiz-adv-x="240" 
d="M69 -164l-31 28q-6 8 2 14q65 51 78 119l-1 1h-2q-26 3 -41.5 21t-15.5 45q0 31 18.5 50t49.5 19q26 0 44 -14.5t22 -39.5q14 -65 -20.5 -142t-86.5 -105q-2 -1 -5 -1q-6 0 -11 5z" />
    <glyph glyph-name="hyphen" unicode="-" horiz-adv-x="413" 
d="M56 259v67q0 11 11 11h279q11 0 11 -11v-67q0 -11 -11 -11h-279q-11 0 -11 11z" />
    <glyph glyph-name="period" unicode="." horiz-adv-x="263" 
d="M67 55q0 30 17.5 48t47.5 18q29 0 46.5 -18t17.5 -48q0 -29 -18 -47t-46 -18q-30 0 -47.5 18t-17.5 47z" />
    <glyph glyph-name="slash" unicode="/" horiz-adv-x="404" 
d="M1 11l304 702q5 9 14 9h77q11 0 7 -11l-305 -701q-3 -10 -14 -10h-77q-10 0 -6 11z" />
    <glyph glyph-name="zero" unicode="0" 
d="M181 -29q-40 -25 -40 -75q0 -43 27.5 -69.5t71.5 -26.5t71 26.5t27 69.5q0 51 -39 75l31 5q4 0 4 4v14q0 5 -5 5h-180q-3 0 -3 -5v-13q0 -2 3 -5zM240 -173q-32 0 -52 20t-20 51q0 32 20 51.5t52 21.5q32 -2 51 -21.5t19 -51.5t-19.5 -51.5t-50.5 -19.5zM141 120
q0 -43 27.5 -69t71.5 -26t71 26t27 69q0 53 -39 76h39q32 0 50.5 -19.5t18.5 -53.5q-1 -36 -17 -60q-3 -3 2 -6l16 -9h1q1 -1 2 -1t3 3q20 35 20 73q0 45 -26.5 73t-71.5 28l-187 -1q-3 0 -3 -4v-12q0 -3 3 -6l33 -5q-41 -25 -41 -76zM240 52q32 0 51.5 19t19.5 51
q0 33 -19.5 53.5t-51.5 20.5q-31 0 -51 -21t-20 -53q0 -31 19.5 -50.5t51.5 -19.5zM227 265v139q-27 -4 -43 -22.5t-16 -46.5q0 -29 16 -47.5t43 -22.5zM252 265v164q0 3 -4 3q-48 0 -77 -25t-29 -72q0 -44 27 -71t71 -27t71 28t27 74q0 49 -30 76q-2 2 -3 2q-2 0 -4 -2
l-12 -13q-3 -4 1 -7q20 -20 20 -56q0 -30 -16 -50t-42 -24zM240 457q44 0 71 27.5t27 70.5t-27 70t-71 27t-71 -27t-27 -70t27 -70.5t71 -27.5zM240 484q-32 0 -52 20t-20 51t20 50.5t52 19.5t51 -19.5t19 -50.5q0 -32 -19.5 -51.5t-50.5 -19.5zM50 -240v937h433v-937h-433z
" />
    <glyph glyph-name="one" unicode="1" horiz-adv-x="549" 
d="M181 -29q-40 -25 -40 -75q0 -43 27.5 -69.5t71.5 -26.5t71 26.5t27 69.5q0 51 -39 75l31 5q4 0 4 4v14q0 5 -5 5h-180q-3 0 -3 -5v-13q0 -2 3 -5zM240 -173q-32 0 -52 20t-20 51q0 32 20 51.5t52 21.5q32 -2 51 -21.5t19 -51.5t-19.5 -51.5t-50.5 -19.5zM141 120
q0 -43 27.5 -69t71.5 -26t71 26t27 69q0 53 -39 76h39q32 0 50.5 -19.5t18.5 -53.5q-1 -36 -17 -60q-3 -3 2 -6l16 -9h1q1 -1 2 -1t3 3q20 35 20 73q0 45 -26.5 73t-71.5 28l-187 -1q-3 0 -3 -4v-12q0 -3 3 -6l33 -5q-41 -25 -41 -76zM240 52q32 0 51.5 19t19.5 51
q0 33 -19.5 53.5t-51.5 20.5q-31 0 -51 -21t-20 -53q0 -31 19.5 -50.5t51.5 -19.5zM227 265v139q-27 -4 -43 -22.5t-16 -46.5q0 -29 16 -47.5t43 -22.5zM252 265v164q0 3 -4 3q-48 0 -77 -25t-29 -72q0 -44 27 -71t71 -27t71 28t27 74q0 49 -30 76q-2 2 -3 2q-2 0 -4 -2
l-12 -13q-3 -4 1 -7q20 -20 20 -56q0 -30 -16 -50t-42 -24zM240 457q44 0 71 27.5t27 70.5t-27 70t-71 27t-71 -27t-27 -70t27 -70.5t71 -27.5zM240 484q-32 0 -52 20t-20 51t20 50.5t52 19.5t51 -19.5t19 -50.5q0 -32 -19.5 -51.5t-50.5 -19.5zM50 -240v937h433v-937h-433z
" />
    <glyph glyph-name="two" unicode="2" horiz-adv-x="549" 
d="M181 -29q-40 -25 -40 -75q0 -43 27.5 -69.5t71.5 -26.5t71 26.5t27 69.5q0 51 -39 75l31 5q4 0 4 4v14q0 5 -5 5h-180q-3 0 -3 -5v-13q0 -2 3 -5zM240 -173q-32 0 -52 20t-20 51q0 32 20 51.5t52 21.5q32 -2 51 -21.5t19 -51.5t-19.5 -51.5t-50.5 -19.5zM141 120
q0 -43 27.5 -69t71.5 -26t71 26t27 69q0 53 -39 76h39q32 0 50.5 -19.5t18.5 -53.5q-1 -36 -17 -60q-3 -3 2 -6l16 -9h1q1 -1 2 -1t3 3q20 35 20 73q0 45 -26.5 73t-71.5 28l-187 -1q-3 0 -3 -4v-12q0 -3 3 -6l33 -5q-41 -25 -41 -76zM240 52q32 0 51.5 19t19.5 51
q0 33 -19.5 53.5t-51.5 20.5q-31 0 -51 -21t-20 -53q0 -31 19.5 -50.5t51.5 -19.5zM227 265v139q-27 -4 -43 -22.5t-16 -46.5q0 -29 16 -47.5t43 -22.5zM252 265v164q0 3 -4 3q-48 0 -77 -25t-29 -72q0 -44 27 -71t71 -27t71 28t27 74q0 49 -30 76q-2 2 -3 2q-2 0 -4 -2
l-12 -13q-3 -4 1 -7q20 -20 20 -56q0 -30 -16 -50t-42 -24zM240 457q44 0 71 27.5t27 70.5t-27 70t-71 27t-71 -27t-27 -70t27 -70.5t71 -27.5zM240 484q-32 0 -52 20t-20 51t20 50.5t52 19.5t51 -19.5t19 -50.5q0 -32 -19.5 -51.5t-50.5 -19.5zM50 -240v937h433v-937h-433z
" />
    <glyph glyph-name="three" unicode="3" horiz-adv-x="549" 
d="M181 -29q-40 -25 -40 -75q0 -43 27.5 -69.5t71.5 -26.5t71 26.5t27 69.5q0 51 -39 75l31 5q4 0 4 4v14q0 5 -5 5h-180q-3 0 -3 -5v-13q0 -2 3 -5zM240 -173q-32 0 -52 20t-20 51q0 32 20 51.5t52 21.5q32 -2 51 -21.5t19 -51.5t-19.5 -51.5t-50.5 -19.5zM141 120
q0 -43 27.5 -69t71.5 -26t71 26t27 69q0 53 -39 76h39q32 0 50.5 -19.5t18.5 -53.5q-1 -36 -17 -60q-3 -3 2 -6l16 -9h1q1 -1 2 -1t3 3q20 35 20 73q0 45 -26.5 73t-71.5 28l-187 -1q-3 0 -3 -4v-12q0 -3 3 -6l33 -5q-41 -25 -41 -76zM240 52q32 0 51.5 19t19.5 51
q0 33 -19.5 53.5t-51.5 20.5q-31 0 -51 -21t-20 -53q0 -31 19.5 -50.5t51.5 -19.5zM227 265v139q-27 -4 -43 -22.5t-16 -46.5q0 -29 16 -47.5t43 -22.5zM252 265v164q0 3 -4 3q-48 0 -77 -25t-29 -72q0 -44 27 -71t71 -27t71 28t27 74q0 49 -30 76q-2 2 -3 2q-2 0 -4 -2
l-12 -13q-3 -4 1 -7q20 -20 20 -56q0 -30 -16 -50t-42 -24zM240 457q44 0 71 27.5t27 70.5t-27 70t-71 27t-71 -27t-27 -70t27 -70.5t71 -27.5zM240 484q-32 0 -52 20t-20 51t20 50.5t52 19.5t51 -19.5t19 -50.5q0 -32 -19.5 -51.5t-50.5 -19.5zM50 -240v937h433v-937h-433z
" />
    <glyph glyph-name="four" unicode="4" horiz-adv-x="549" 
d="M181 -29q-40 -25 -40 -75q0 -43 27.5 -69.5t71.5 -26.5t71 26.5t27 69.5q0 51 -39 75l31 5q4 0 4 4v14q0 5 -5 5h-180q-3 0 -3 -5v-13q0 -2 3 -5zM240 -173q-32 0 -52 20t-20 51q0 32 20 51.5t52 21.5q32 -2 51 -21.5t19 -51.5t-19.5 -51.5t-50.5 -19.5zM141 120
q0 -43 27.5 -69t71.5 -26t71 26t27 69q0 53 -39 76h39q32 0 50.5 -19.5t18.5 -53.5q-1 -36 -17 -60q-3 -3 2 -6l16 -9h1q1 -1 2 -1t3 3q20 35 20 73q0 45 -26.5 73t-71.5 28l-187 -1q-3 0 -3 -4v-12q0 -3 3 -6l33 -5q-41 -25 -41 -76zM240 52q32 0 51.5 19t19.5 51
q0 33 -19.5 53.5t-51.5 20.5q-31 0 -51 -21t-20 -53q0 -31 19.5 -50.5t51.5 -19.5zM227 265v139q-27 -4 -43 -22.5t-16 -46.5q0 -29 16 -47.5t43 -22.5zM252 265v164q0 3 -4 3q-48 0 -77 -25t-29 -72q0 -44 27 -71t71 -27t71 28t27 74q0 49 -30 76q-2 2 -3 2q-2 0 -4 -2
l-12 -13q-3 -4 1 -7q20 -20 20 -56q0 -30 -16 -50t-42 -24zM240 457q44 0 71 27.5t27 70.5t-27 70t-71 27t-71 -27t-27 -70t27 -70.5t71 -27.5zM240 484q-32 0 -52 20t-20 51t20 50.5t52 19.5t51 -19.5t19 -50.5q0 -32 -19.5 -51.5t-50.5 -19.5zM50 -240v937h433v-937h-433z
" />
    <glyph glyph-name="five" unicode="5" horiz-adv-x="549" 
d="M181 -29q-40 -25 -40 -75q0 -43 27.5 -69.5t71.5 -26.5t71 26.5t27 69.5q0 51 -39 75l31 5q4 0 4 4v14q0 5 -5 5h-180q-3 0 -3 -5v-13q0 -2 3 -5zM240 -173q-32 0 -52 20t-20 51q0 32 20 51.5t52 21.5q32 -2 51 -21.5t19 -51.5t-19.5 -51.5t-50.5 -19.5zM141 120
q0 -43 27.5 -69t71.5 -26t71 26t27 69q0 53 -39 76h39q32 0 50.5 -19.5t18.5 -53.5q-1 -36 -17 -60q-3 -3 2 -6l16 -9h1q1 -1 2 -1t3 3q20 35 20 73q0 45 -26.5 73t-71.5 28l-187 -1q-3 0 -3 -4v-12q0 -3 3 -6l33 -5q-41 -25 -41 -76zM240 52q32 0 51.5 19t19.5 51
q0 33 -19.5 53.5t-51.5 20.5q-31 0 -51 -21t-20 -53q0 -31 19.5 -50.5t51.5 -19.5zM227 265v139q-27 -4 -43 -22.5t-16 -46.5q0 -29 16 -47.5t43 -22.5zM252 265v164q0 3 -4 3q-48 0 -77 -25t-29 -72q0 -44 27 -71t71 -27t71 28t27 74q0 49 -30 76q-2 2 -3 2q-2 0 -4 -2
l-12 -13q-3 -4 1 -7q20 -20 20 -56q0 -30 -16 -50t-42 -24zM240 457q44 0 71 27.5t27 70.5t-27 70t-71 27t-71 -27t-27 -70t27 -70.5t71 -27.5zM240 484q-32 0 -52 20t-20 51t20 50.5t52 19.5t51 -19.5t19 -50.5q0 -32 -19.5 -51.5t-50.5 -19.5zM50 -240v937h433v-937h-433z
" />
    <glyph glyph-name="six" unicode="6" horiz-adv-x="549" 
d="M181 -29q-40 -25 -40 -75q0 -43 27.5 -69.5t71.5 -26.5t71 26.5t27 69.5q0 51 -39 75l31 5q4 0 4 4v14q0 5 -5 5h-180q-3 0 -3 -5v-13q0 -2 3 -5zM240 -173q-32 0 -52 20t-20 51q0 32 20 51.5t52 21.5q32 -2 51 -21.5t19 -51.5t-19.5 -51.5t-50.5 -19.5zM141 120
q0 -43 27.5 -69t71.5 -26t71 26t27 69q0 53 -39 76h39q32 0 50.5 -19.5t18.5 -53.5q-1 -36 -17 -60q-3 -3 2 -6l16 -9h1q1 -1 2 -1t3 3q20 35 20 73q0 45 -26.5 73t-71.5 28l-187 -1q-3 0 -3 -4v-12q0 -3 3 -6l33 -5q-41 -25 -41 -76zM240 52q32 0 51.5 19t19.5 51
q0 33 -19.5 53.5t-51.5 20.5q-31 0 -51 -21t-20 -53q0 -31 19.5 -50.5t51.5 -19.5zM227 265v139q-27 -4 -43 -22.5t-16 -46.5q0 -29 16 -47.5t43 -22.5zM252 265v164q0 3 -4 3q-48 0 -77 -25t-29 -72q0 -44 27 -71t71 -27t71 28t27 74q0 49 -30 76q-2 2 -3 2q-2 0 -4 -2
l-12 -13q-3 -4 1 -7q20 -20 20 -56q0 -30 -16 -50t-42 -24zM240 457q44 0 71 27.5t27 70.5t-27 70t-71 27t-71 -27t-27 -70t27 -70.5t71 -27.5zM240 484q-32 0 -52 20t-20 51t20 50.5t52 19.5t51 -19.5t19 -50.5q0 -32 -19.5 -51.5t-50.5 -19.5zM50 -240v937h433v-937h-433z
" />
    <glyph glyph-name="seven" unicode="7" horiz-adv-x="549" 
d="M181 -29q-40 -25 -40 -75q0 -43 27.5 -69.5t71.5 -26.5t71 26.5t27 69.5q0 51 -39 75l31 5q4 0 4 4v14q0 5 -5 5h-180q-3 0 -3 -5v-13q0 -2 3 -5zM240 -173q-32 0 -52 20t-20 51q0 32 20 51.5t52 21.5q32 -2 51 -21.5t19 -51.5t-19.5 -51.5t-50.5 -19.5zM141 120
q0 -43 27.5 -69t71.5 -26t71 26t27 69q0 53 -39 76h39q32 0 50.5 -19.5t18.5 -53.5q-1 -36 -17 -60q-3 -3 2 -6l16 -9h1q1 -1 2 -1t3 3q20 35 20 73q0 45 -26.5 73t-71.5 28l-187 -1q-3 0 -3 -4v-12q0 -3 3 -6l33 -5q-41 -25 -41 -76zM240 52q32 0 51.5 19t19.5 51
q0 33 -19.5 53.5t-51.5 20.5q-31 0 -51 -21t-20 -53q0 -31 19.5 -50.5t51.5 -19.5zM227 265v139q-27 -4 -43 -22.5t-16 -46.5q0 -29 16 -47.5t43 -22.5zM252 265v164q0 3 -4 3q-48 0 -77 -25t-29 -72q0 -44 27 -71t71 -27t71 28t27 74q0 49 -30 76q-2 2 -3 2q-2 0 -4 -2
l-12 -13q-3 -4 1 -7q20 -20 20 -56q0 -30 -16 -50t-42 -24zM240 457q44 0 71 27.5t27 70.5t-27 70t-71 27t-71 -27t-27 -70t27 -70.5t71 -27.5zM240 484q-32 0 -52 20t-20 51t20 50.5t52 19.5t51 -19.5t19 -50.5q0 -32 -19.5 -51.5t-50.5 -19.5zM50 -240v937h433v-937h-433z
" />
    <glyph glyph-name="eight" unicode="8" horiz-adv-x="549" 
d="M181 -29q-40 -25 -40 -75q0 -43 27.5 -69.5t71.5 -26.5t71 26.5t27 69.5q0 51 -39 75l31 5q4 0 4 4v14q0 5 -5 5h-180q-3 0 -3 -5v-13q0 -2 3 -5zM240 -173q-32 0 -52 20t-20 51q0 32 20 51.5t52 21.5q32 -2 51 -21.5t19 -51.5t-19.5 -51.5t-50.5 -19.5zM141 120
q0 -43 27.5 -69t71.5 -26t71 26t27 69q0 53 -39 76h39q32 0 50.5 -19.5t18.5 -53.5q-1 -36 -17 -60q-3 -3 2 -6l16 -9h1q1 -1 2 -1t3 3q20 35 20 73q0 45 -26.5 73t-71.5 28l-187 -1q-3 0 -3 -4v-12q0 -3 3 -6l33 -5q-41 -25 -41 -76zM240 52q32 0 51.5 19t19.5 51
q0 33 -19.5 53.5t-51.5 20.5q-31 0 -51 -21t-20 -53q0 -31 19.5 -50.5t51.5 -19.5zM227 265v139q-27 -4 -43 -22.5t-16 -46.5q0 -29 16 -47.5t43 -22.5zM252 265v164q0 3 -4 3q-48 0 -77 -25t-29 -72q0 -44 27 -71t71 -27t71 28t27 74q0 49 -30 76q-2 2 -3 2q-2 0 -4 -2
l-12 -13q-3 -4 1 -7q20 -20 20 -56q0 -30 -16 -50t-42 -24zM240 457q44 0 71 27.5t27 70.5t-27 70t-71 27t-71 -27t-27 -70t27 -70.5t71 -27.5zM240 484q-32 0 -52 20t-20 51t20 50.5t52 19.5t51 -19.5t19 -50.5q0 -32 -19.5 -51.5t-50.5 -19.5zM50 -240v937h433v-937h-433z
" />
    <glyph glyph-name="nine" unicode="9" horiz-adv-x="549" 
d="M181 -29q-40 -25 -40 -75q0 -43 27.5 -69.5t71.5 -26.5t71 26.5t27 69.5q0 51 -39 75l31 5q4 0 4 4v14q0 5 -5 5h-180q-3 0 -3 -5v-13q0 -2 3 -5zM240 -173q-32 0 -52 20t-20 51q0 32 20 51.5t52 21.5q32 -2 51 -21.5t19 -51.5t-19.5 -51.5t-50.5 -19.5zM141 120
q0 -43 27.5 -69t71.5 -26t71 26t27 69q0 53 -39 76h39q32 0 50.5 -19.5t18.5 -53.5q-1 -36 -17 -60q-3 -3 2 -6l16 -9h1q1 -1 2 -1t3 3q20 35 20 73q0 45 -26.5 73t-71.5 28l-187 -1q-3 0 -3 -4v-12q0 -3 3 -6l33 -5q-41 -25 -41 -76zM240 52q32 0 51.5 19t19.5 51
q0 33 -19.5 53.5t-51.5 20.5q-31 0 -51 -21t-20 -53q0 -31 19.5 -50.5t51.5 -19.5zM227 265v139q-27 -4 -43 -22.5t-16 -46.5q0 -29 16 -47.5t43 -22.5zM252 265v164q0 3 -4 3q-48 0 -77 -25t-29 -72q0 -44 27 -71t71 -27t71 28t27 74q0 49 -30 76q-2 2 -3 2q-2 0 -4 -2
l-12 -13q-3 -4 1 -7q20 -20 20 -56q0 -30 -16 -50t-42 -24zM240 457q44 0 71 27.5t27 70.5t-27 70t-71 27t-71 -27t-27 -70t27 -70.5t71 -27.5zM240 484q-32 0 -52 20t-20 51t20 50.5t52 19.5t51 -19.5t19 -50.5q0 -32 -19.5 -51.5t-50.5 -19.5zM50 -240v937h433v-937h-433z
" />
    <glyph glyph-name="colon" unicode=":" horiz-adv-x="238" 
d="M47 439q0 32 20 51.5t52 19.5t52 -19.5t20 -51.5t-20 -52t-52 -20t-52 20t-20 52zM47 63q0 32 20 52t52 20t52 -20t20 -52t-20 -51.5t-52 -19.5t-52 19.5t-20 51.5z" />
    <glyph glyph-name="semicolon" unicode=";" horiz-adv-x="255" 
d="M58 439q0 -32 19.5 -52t52.5 -20q32 0 51.5 20t19.5 52t-19.5 51.5t-51.5 19.5t-52 -19.5t-20 -51.5zM75 -164l-31 28q-6 8 2 14q65 52 77 119q-1 0 -3 1q-26 3 -41.5 21t-15.5 45q1 31 19.5 50t48.5 19q27 0 44.5 -14.5t21.5 -39.5q14 -65 -20.5 -142t-86.5 -105
q-2 -1 -5 -1q-5 0 -10 5z" />
    <glyph glyph-name="less" unicode="&#x3c;" horiz-adv-x="539" 
d="M38 344q0 12 9 16l443 179l2 1h2q7 0 7 -9v-84q0 -12 -10 -15l-344 -134l344 -135q10 -3 10 -15v-84q0 -8 -6 -8q-3 0 -5 1l-443 178q-9 4 -9 16v93z" />
    <glyph glyph-name="equal" unicode="=" horiz-adv-x="524" 
d="M79 338q-11 0 -11 12v64q0 12 11 12h365q12 0 12 -12v-64q0 -12 -12 -12h-365zM79 172q-11 0 -11 12v64q0 12 11 12h365q12 0 12 -12v-64q0 -12 -12 -12h-365z" />
    <glyph glyph-name="greater" unicode="&#x3e;" horiz-adv-x="539" 
d="M392 298l-345 134q-9 3 -9 15v84q0 9 7 9q1 0 2 -0.5t2 -0.5l443 -179q9 -4 9 -16v-93q0 -12 -9 -16l-443 -178q-2 -1 -5 -1q-6 0 -6 8v84q0 12 9 15z" />
    <glyph glyph-name="question" unicode="?" horiz-adv-x="476" 
d="M325 506q0 46 -28 72.5t-71 26.5q-70 0 -122 -66q-3 -4 -7 -4q-3 0 -6 3l-55 60q-7 8 0 15q73 90 194 90q85 0 141.5 -52t56.5 -135q0 -48 -16 -86t-39 -63t-46.5 -47.5t-41.5 -52t-20 -64.5q0 -10 -10 -10h-88q-10 0 -10 10q2 45 20 82t42.5 61.5t48.5 47.5t40.5 51
t16.5 61zM277 54q0 -29 -17.5 -46.5t-45.5 -17.5t-46 18t-18 46t17.5 45.5t46.5 17.5q28 0 45.5 -17.5t17.5 -45.5z" />
    <glyph glyph-name="at" unicode="@" horiz-adv-x="906" 
d="M849 333q0 -87 -45 -141.5t-120 -56.5q-67 0 -108 54q-44 -74 -139 -74q-80 0 -130 53.5t-51 139.5q0 86 50 139t131 53t125 -55l14 30q4 6 10 6h48q8 0 8 -8v-194q-1 -28 13.5 -47t43.5 -19q34 0 53.5 34t18.5 86q1 126 -83.5 206t-214.5 80q-150 0 -241 -85.5
t-92 -223.5q1 -139 92.5 -224t240.5 -85q109 0 195 74q4 4 8 4t7 -3l46 -46q9 -8 0 -17q-99 -96 -256 -96q-187 0 -301.5 108t-114.5 284q0 177 114.5 285.5t301.5 108.5q167 0 271.5 -102t104.5 -268zM446 209q43 0 68.5 27t25.5 71q0 46 -25.5 72.5t-68.5 26.5t-69 -27.5
t-26 -71.5t26 -71t69 -27z" />
    <glyph glyph-name="A" unicode="A" horiz-adv-x="657" 
d="M474 197h-291l-76 -190q-1 -7 -10 -7h-84q-13 0 -8 11l267 673q3 9 13 9h87q10 0 13 -9l267 -673q5 -11 -8 -11h-84q-8 0 -11 7zM329 566l-111 -279h221z" />
    <glyph glyph-name="B" unicode="B" horiz-adv-x="599" 
d="M332 333h-151v-237l141 1q62 0 98.5 33t36.5 87q0 51 -33 83.5t-90 32.5h-2zM299 410q58 0 86.5 26.5t28.5 72.5q0 47 -37 67.5t-88 20.5h-108v-187h118zM295 694q102 0 162 -48t61 -131t-76 -134q55 -24 86.5 -68.5t32.5 -105.5q2 -93 -61.5 -150t-169.5 -57h-242
q-10 0 -10 10v673q0 11 10 11h207z" />
    <glyph glyph-name="C" unicode="C" horiz-adv-x="675" 
d="M642 82q-96 -92 -250 -92q-158 0 -256 99t-98 257q0 114 52.5 197t131.5 121.5t170 38.5q149 0 248 -93q7 -6 0 -13l-50 -61q-2 -3 -6 -3t-8 3q-75 65 -180 65q-115 0 -184.5 -69.5t-69.5 -185.5q0 -114 69 -184t181 -70q108 0 184 66q4 3 8 3t6 -3l52 -62q7 -7 0 -14z
" />
    <glyph glyph-name="D" unicode="D" horiz-adv-x="677" 
d="M282 598h-101v-501h102q115 0 183.5 67.5t68.5 182.5t-69 183t-184 68zM282 0h-195q-10 0 -10 10v674q0 10 10 10h195q161 0 258.5 -94t97.5 -253q0 -160 -97 -253.5t-259 -93.5z" />
    <glyph glyph-name="E" unicode="E" horiz-adv-x="523" 
d="M181 306v-209h294q10 0 10 -10v-78q0 -9 -9 -9h-389q-9 0 -9 10v674q0 10 10 10h378q9 0 9 -10v-78q0 -9 -9 -9h-285v-195h237q10 0 10 -10v-76q0 -10 -10 -10h-237z" />
    <glyph glyph-name="F" unicode="F" horiz-adv-x="502" 
d="M181 306v-295q0 -11 -11 -11h-82q-10 0 -10 10v674q0 10 10 10h377q10 0 10 -10v-77q0 -10 -10 -10h-284v-195h237q10 0 10 -10v-76q0 -10 -10 -10h-237z" />
    <glyph glyph-name="G" unicode="G" horiz-adv-x="742" 
d="M600 280h-199q-10 0 -10 10v68q0 10 10 10h292q11 0 11 -11q-3 -175 -84.5 -271t-238.5 -95q-155 0 -249 98t-94 258t98.5 258t258.5 98q147 0 248 -94q7 -5 0 -12l-53 -62q-3 -3 -6 -3q-4 0 -7 3q-74 66 -182 66q-113 0 -183 -70t-70 -184t66 -184t173 -70
q188 0 219 187z" />
    <glyph glyph-name="H" unicode="H" horiz-adv-x="679" 
d="M171 0h-84q-10 0 -10 10v674q0 10 10 10h84q10 0 10 -9v-289h317v288q0 10 9 10h85q9 0 9 -9v-675q0 -10 -9 -10h-85q-10 0 -10 10l1 296h-317v-296q-2 -10 -10 -10z" />
    <glyph glyph-name="I" unicode="I" horiz-adv-x="258" 
d="M181 684v-675q0 -9 -10 -9h-84q-9 0 -9 9v675q0 10 9 10h84q10 0 10 -10z" />
    <glyph glyph-name="J" unicode="J" horiz-adv-x="406" 
d="M226 192l-1 492q0 10 10 10h83q10 0 10 -10l1 -508q1 -89 -41.5 -137t-119.5 -49q-87 1 -153 56q-7 7 -2 15l39 69q2 5 9 5q5 0 7 -2q62 -40 93 -40q36 0 49.5 22t15.5 77z" />
    <glyph glyph-name="K" unicode="K" horiz-adv-x="572" 
d="M181 684v-313l250 317q6 6 11 6h98q15 0 5 -12l-264 -333l299 -337q10 -12 -5 -12h-108q-8 0 -13 5l-273 319v-315q0 -9 -10 -9h-84q-9 0 -9 9v675q0 10 9 10h84q10 0 10 -10z" />
    <glyph glyph-name="L" unicode="L" horiz-adv-x="452" 
d="M181 93h233q10 0 10 -10v-74q0 -9 -10 -9h-327q-10 0 -10 9v675q0 10 10 10h84q10 0 10 -10v-591z" />
    <glyph glyph-name="M" unicode="M" horiz-adv-x="856" 
d="M174 694q9 0 12 -8l241 -478l238 479q3 7 12 7h91q10 0 10 -10v-674q0 -10 -10 -10h-83q-10 0 -10 10v484l-196 -382q-3 -8 -12 -8h-79q-8 0 -12 7l-195 380v-481q0 -10 -10 -10h-80q-13 0 -13 13v666q0 15 15 15h81z" />
    <glyph glyph-name="N" unicode="N" horiz-adv-x="715" 
d="M544 694h84q10 0 10 -10l-1 -674q0 -10 -9 -10h-99q-7 0 -11 6l-337 522v-518q0 -10 -10 -10h-84q-10 0 -10 10v674q0 10 10 10h99q8 0 12 -7l336 -520v517q0 10 10 10z" />
    <glyph glyph-name="O" unicode="O" horiz-adv-x="789" 
d="M38 347q0 160 98.5 258t258.5 98t257.5 -98t97.5 -258q0 -161 -97.5 -258.5t-257.5 -97.5q-161 0 -259 98t-98 258zM142 347q0 -115 69.5 -184.5t183.5 -69.5q113 0 182.5 70t69.5 184t-69.5 184t-182.5 70q-114 0 -183.5 -69.5t-69.5 -184.5z" />
    <glyph glyph-name="P" unicode="P" horiz-adv-x="552" 
d="M181 279v-269q0 -10 -10 -10h-83q-10 0 -10 10v673q0 11 10 11h78h157q103 0 162.5 -56t60.5 -151q-1 -95 -60.5 -151.5t-162.5 -56.5h-142zM181 376h136q59 0 92.5 28t33.5 82q0 56 -34 83.5t-92 27.5h-136v-221z" />
    <glyph glyph-name="Q" unicode="Q" horiz-adv-x="790" 
d="M577 35l163 -94q9 -5 4 -13l-41 -67q-5 -6 -9 -6q-1 0 -5 2l-226 139q-35 -5 -68 -5q-161 0 -259 98t-98 258t98.5 258t258.5 98t257.5 -98t97.5 -258q0 -107 -45.5 -188t-127.5 -124zM647 347q0 114 -69.5 184t-182.5 70q-114 0 -183.5 -70t-69.5 -184t69.5 -184
t183.5 -70t183 69.5t69 184.5z" />
    <glyph glyph-name="R" unicode="R" horiz-adv-x="575" 
d="M271 279h-90v-269q0 -10 -10 -10h-84q-10 0 -10 10v674q0 10 10 10h77h153q103 0 162.5 -56t60.5 -151q-1 -80 -44 -132.5t-121 -68.5l172 -274q6 -12 -7 -12h-97q-7 0 -10 5zM319 597l-138 1v-222h138q53 0 85.5 28.5t32.5 81.5q0 54 -33 82.5t-85 28.5z" />
    <glyph glyph-name="S" unicode="S" horiz-adv-x="574" 
d="M45 74q-7 5 -2 14l42 73q3 5 8 5q2 0 7 -3q27 -24 79.5 -47t115.5 -23q60 0 97 26t37 70q0 36 -35 60t-119 42q-117 25 -172 75t-57 133q-2 89 66 147t178 57q77 -1 131 -23t77 -44q7 -5 2 -15l-34 -76q-3 -5 -7 -5q-3 0 -7 3q-77 57 -167 57q-59 0 -97.5 -27t-38.5 -67
q0 -41 33 -64t124 -45q117 -28 170.5 -73.5t56.5 -125.5q2 -94 -63 -151.5t-183 -56.5q-88 1 -152 29.5t-90 54.5z" />
    <glyph glyph-name="T" unicode="T" horiz-adv-x="542" 
d="M219 597h-196q-9 0 -9 9v78q0 10 10 10h495q9 0 9 -10v-78q0 -9 -10 -9h-196l1 -588q0 -9 -10 -9h-84q-10 0 -10 9v588z" />
    <glyph glyph-name="U" unicode="U" horiz-adv-x="673" 
d="M77 272v412q0 9 10 9h84q10 0 10 -9v-413q0 -86 42 -132t114 -46q71 0 113 46t41 132v413q0 9 10 9h85q9 0 9 -9v-413q0 -135 -72 -207.5t-186 -72.5q-115 0 -187.5 73t-72.5 208z" />
    <glyph glyph-name="V" unicode="V" horiz-adv-x="655" 
d="M266 9l-262 672q-5 12 8 12h91q7 0 11 -7l214 -561l214 561q2 7 10 7h91q13 0 8 -12l-262 -672q-3 -9 -14 -9h-96q-10 0 -13 9z" />
    <glyph glyph-name="W" unicode="W" horiz-adv-x="901" 
d="M450 563l-149 -555q-2 -8 -11 -8h-73q-8 0 -11 8l-203 676q-3 10 7 10h87q9 0 11 -9l146 -521l143 521q4 9 12 9h81q7 0 11 -9l144 -525l149 527q2 7 9 7h87q11 0 8 -10l-204 -676q-3 -8 -12 -8h-73q-9 0 -11 8z" />
    <glyph glyph-name="X" unicode="X" horiz-adv-x="588" 
d="M111 0h-101q-12 0 -5 10l229 334l-223 340q-7 10 6 10h104q9 0 12 -6l161 -253l169 252q4 6 13 6h101q13 0 6 -10l-232 -337l222 -336q8 -10 -5 -10h-104q-9 0 -12 6l-161 249l-168 -249q-3 -6 -12 -6z" />
    <glyph glyph-name="Y" unicode="Y" horiz-adv-x="590" 
d="M243 9v267l-238 405q-7 12 7 12h91q9 0 14 -8l178 -317l178 317q5 8 14 8h91q14 0 7 -12l-238 -404v-268q0 -9 -10 -9h-84q-10 0 -10 9z" />
    <glyph glyph-name="Z" unicode="Z" horiz-adv-x="579" 
d="M192 96h343q10 0 10 -10v-76q0 -10 -10 -10h-495q-19 0 -9 16l346 582h-316q-9 0 -9 9v77q0 10 9 10h469q18 0 9 -17z" />
    <glyph glyph-name="bracketleft" unicode="[" horiz-adv-x="333" 
d="M157 -76h104q11 0 11 -11v-63q0 -12 -11 -12l-189 1q-11 0 -11 10l-1 834q0 11 12 11h189q11 0 11 -11v-63q0 -11 -11 -11h-104v-685z" />
    <glyph glyph-name="backslash" unicode="\" horiz-adv-x="398" 
d="M9 722h77q9 0 12 -8l304 -702q2 -4 0 -8t-7 -4h-76q-10 0 -13 8l-304 701q-6 13 7 13z" />
    <glyph glyph-name="bracketright" unicode="]" horiz-adv-x="333" 
d="M60 -75h103v684h-103q-11 0 -11 11v63q0 11 11 11h189q11 0 11 -11v-834q0 -10 -11 -10h-189q-11 0 -11 11v63q0 12 11 12z" />
    <glyph glyph-name="asciicircum" unicode="^" horiz-adv-x="581" 
d="M46 272l183 412q3 9 14 9h95q11 0 14 -9l183 -412q5 -13 -9 -13h-84q-10 0 -13 9l-139 326l-138 -326q-3 -9 -13 -9h-84q-14 0 -9 13z" />
    <glyph glyph-name="underscore" unicode="_" horiz-adv-x="589" 
d="M60 -53h469q11 0 11 -12v-56q0 -13 -11 -13h-469q-11 0 -11 12v58q0 11 11 11z" />
    <glyph glyph-name="grave" unicode="`" horiz-adv-x="276" 
d="M200 542l-163 112q-11 5 -2 14l47 58q3 4 8 4q4 0 7 -3l144 -140q6 -4 1 -11l-29 -33q-1 -2 -6 -2t-7 1z" />
    <glyph glyph-name="a" unicode="a" horiz-adv-x="583" 
d="M424 391l14 61q4 9 11 9h62q9 0 9 -10v-441q0 -10 -10 -10h-62q-7 0 -11 9l-13 60q-54 -79 -159 -79q-104 -1 -168 65.5t-64 174.5q0 107 64 173t168 67q105 0 159 -79zM129 230q0 -64 39.5 -104t103.5 -40q65 0 105 39.5t41 104.5q-2 65 -42 104t-104 39t-103.5 -39.5
t-39.5 -103.5z" />
    <glyph glyph-name="b" unicode="b" horiz-adv-x="579" 
d="M128 0h-55q-10 0 -10 10v702q0 10 10 10h78q10 0 10 -10v-316q52 74 153 74q104 0 168 -66.5t64 -173.5t-64 -173.5t-168 -66.5q-106 0 -160 81l-14 -61q-3 -10 -12 -10zM307 374q-65 0 -105.5 -40t-40.5 -104t40.5 -104t105.5 -40q64 0 103.5 40t39.5 104t-39.5 104
t-103.5 40z" />
    <glyph glyph-name="c" unicode="c" horiz-adv-x="505" 
d="M469 87q-65 -98 -197 -98q-107 0 -173 67t-66 174q0 113 70.5 176.5t167.5 64.5q134 0 202 -103q7 -6 -1 -14l-59 -48q-3 -3 -7 -3t-9 6q-43 64 -125 64q-64 0 -103.5 -39.5t-39.5 -103.5q0 -65 39.5 -104.5t103.5 -39.5q81 0 124 62q4 5 10 5q5 0 7 -2l54 -50
q7 -7 2 -14z" />
    <glyph glyph-name="d" unicode="d" horiz-adv-x="579" 
d="M265 -10q-104 0 -168 66.5t-64 173.5t64 173.5t168 66.5q101 0 153 -73v316q0 9 10 9h78q10 0 10 -9v-703q0 -10 -10 -10h-55q-9 0 -11 9l-15 61q-53 -80 -160 -80zM418 230q0 64 -40.5 104t-105.5 40q-64 0 -103 -39.5t-39 -104.5q0 -64 39 -104t103 -40t105 39.5
t41 104.5z" />
    <glyph glyph-name="e" unicode="e" horiz-adv-x="543" 
d="M134 266h275q-9 51 -45.5 81t-91.5 30q-56 0 -92.5 -30t-45.5 -81zM135 191q11 -50 50 -79.5t98 -29.5q72 0 115 41q4 4 9 4t8 -3l50 -51q7 -7 0 -14q-63 -69 -186 -69q-110 0 -178 66.5t-68 173.5t66 173.5t173 66.5q112 0 175.5 -69t62.5 -201q0 -9 -10 -9h-365z" />
    <glyph glyph-name="f" unicode="f" horiz-adv-x="326" 
d="M183 371v-361q0 -10 -10 -10h-78q-10 0 -10 10v361h-68q-10 0 -10 10v69q0 10 10 10h68l-1 96q0 89 38.5 133t106.5 44q67 0 113 -36q7 -5 2 -14l-31 -63q-3 -5 -8 -5q-2 0 -6 2q-33 20 -59 20q-57 0 -58 -90l1 -87h108q10 0 10 -10v-69q0 -10 -10 -10h-108z" />
    <glyph glyph-name="g" unicode="g" horiz-adv-x="581" 
d="M265 471q107 0 162 -82l16 62q2 8 11 10h54q10 0 10 -10l1 -445q0 -110 -68 -176.5t-178 -67.5q-104 1 -184 49q-9 5 -4 15l34 68q3 5 8 5q3 0 5 -1q56 -35 137 -39q72 1 111.5 40t40.5 108v57q-54 -75 -156 -75q-104 1 -168 67t-64 174q0 107 64 174t168 67zM130 230
q0 -64 39 -103.5t103 -39.5q66 0 107 39.5t41 103.5q0 65 -41 104.5t-107 39.5q-64 0 -103 -39.5t-39 -104.5z" />
    <glyph glyph-name="h" unicode="h" horiz-adv-x="547" 
d="M63 10v702q0 10 10 10h78q10 0 10 -10v-317q47 76 147 77q82 -1 130 -54t48 -152l1 -256q0 -10 -10 -10h-78q-10 0 -10 10v242q0 61 -27.5 91.5t-75.5 30.5q-58 0 -90 -44.5t-35 -105.5v-214q0 -10 -10 -10h-78q-10 0 -10 10z" />
    <glyph glyph-name="i" unicode="i" horiz-adv-x="228" 
d="M163 451v-441q0 -10 -10 -10h-78q-9 0 -9 10v441q0 10 10 10h77q10 0 10 -10zM48 624q0 29 18.5 47t47.5 18q30 0 48 -18t18 -47q0 -30 -18 -48t-48 -18q-29 0 -47.5 18t-18.5 48z" />
    <glyph glyph-name="j" unicode="j" horiz-adv-x="257" 
d="M76 624q0 29 18 47t48 18t47.5 -18t17.5 -47q0 -30 -17.5 -48.5t-47.5 -18.5t-48 18.5t-18 48.5zM94 -58v509q0 9 10 9h77q10 0 10 -10l1 -519q0 -78 -37.5 -123.5t-102.5 -45.5q-66 0 -109 36q-7 5 -3 14l32 64q3 6 9 6q4 0 8 -3q26 -19 53 -19q52 0 52 82z" />
    <glyph glyph-name="k" unicode="k" horiz-adv-x="472" 
d="M333 460h107q17 0 6 -13l-182 -202l214 -232q12 -13 -6 -13h-105q-9 0 -13 5l-193 212v-208q0 -9 -10 -9h-78q-10 0 -10 9v704q0 9 10 9h78q10 0 10 -9v-444l161 186q5 5 11 5z" />
    <glyph glyph-name="l" unicode="l" horiz-adv-x="229" 
d="M163 712v-702q0 -10 -10 -10h-78q-9 0 -9 10v702q0 10 9 10h78q10 0 10 -10z" />
    <glyph glyph-name="m" unicode="m" horiz-adv-x="818" 
d="M73 461h60q10 0 12 -10l11 -58q44 79 138 79q105 -2 145 -94q49 94 155 94q76 -1 121 -54t44 -152l1 -256q0 -10 -10 -10h-78q-10 0 -10 10v242q0 122 -92 122q-49 0 -79 -41t-31 -117v-206q0 -10 -10 -10h-77q-10 0 -10 10v242q0 122 -91 122q-54 0 -81.5 -45.5
t-29.5 -103.5v-215q0 -10 -10 -10h-78q-10 0 -10 10v441q0 10 10 10z" />
    <glyph glyph-name="n" unicode="n" horiz-adv-x="548" 
d="M63 10v441q0 10 10 10h60q9 0 11 -10l12 -62q48 83 152 83q82 -1 130 -54t48 -152l1 -256q0 -10 -10 -10h-78q-10 0 -10 10v242q0 61 -27.5 91.5t-75.5 30.5q-58 0 -90.5 -44.5t-34.5 -106.5v-213q0 -10 -10 -10h-78q-10 0 -10 10z" />
    <glyph glyph-name="o" unicode="o" horiz-adv-x="545" 
d="M33 231q0 107 66 174t173 67q108 0 174 -66.5t66 -174.5t-66 -174.5t-174 -66.5q-107 0 -173 67t-66 174zM130 231q0 -65 39 -104.5t103 -39.5t103.5 39.5t39.5 104.5t-39.5 104.5t-103.5 39.5t-103 -39.5t-39 -104.5z" />
    <glyph glyph-name="p" unicode="p" horiz-adv-x="580" 
d="M73 -228q-10 0 -10 10v669q0 10 11 10h53q10 0 13 -10l14 -61q54 81 161 81q104 0 168 -67t64 -174t-64 -174t-168 -67q-102 0 -154 73v-280q0 -10 -10 -10h-78zM162 230q0 -64 40.5 -104t104.5 -40t103.5 39.5t39.5 104.5t-39.5 104.5t-103.5 39.5t-104.5 -40
t-40.5 -104z" />
    <glyph glyph-name="q" unicode="q" horiz-adv-x="580" 
d="M517 450l-1 -668q0 -10 -10 -10h-76q-11 0 -11 10v281q-52 -74 -154 -74q-104 0 -168 67t-64 174t64 174t168 67q107 0 161 -81l14 61q3 10 12 10h55q10 0 10 -11zM130 230q0 -65 39 -104.5t103 -39.5q65 0 105.5 40t40.5 104t-40.5 104t-105.5 40q-64 0 -103 -39.5
t-39 -104.5z" />
    <glyph glyph-name="r" unicode="r" horiz-adv-x="354" 
d="M312 359q-34 13 -64 13q-57 0 -87 -64v-298q0 -10 -10 -10h-78q-10 0 -10 10v441q0 9 10 9h54q10 0 12 -9l9 -34q50 53 119 53q29 0 71 -12q10 -2 7 -12l-20 -81q-2 -7 -8 -7q-3 0 -5 1z" />
    <glyph glyph-name="s" unicode="s" horiz-adv-x="422" 
d="M37 41q-7 5 -2 15l32 61q3 5 8 5q2 0 6 -2q62 -38 127 -38q38 0 61 12.5t22 33.5q0 23 -24.5 36t-82.5 28q-74 20 -109 53t-37 86q-1 64 49.5 102.5t130.5 38.5q86 -1 147 -47q8 -6 3 -15l-31 -60q-1 -6 -8 -6q-2 0 -6 2q-50 30 -99 33q-88 0 -88 -43q0 -23 21 -35.5
t74 -26.5q81 -21 119 -51.5t39 -87.5q2 -66 -47.5 -105.5t-131.5 -38.5q-105 0 -173 50z" />
    <glyph glyph-name="t" unicode="t" horiz-adv-x="325" 
d="M188 193q0 -59 10 -81.5t34 -22.5q18 0 42 18q2 2 6 2t8 -4l30 -66q5 -10 -3 -15q-42 -33 -98 -33q-61 0 -94 42.5t-32 119.5v218h-67q-10 0 -10 10v70q0 9 10 9h67l1 149q0 10 9 10h77q10 0 10 -10v-149h102q10 0 10 -9v-70q0 -10 -10 -10h-102v-178z" />
    <glyph glyph-name="u" unicode="u" horiz-adv-x="551" 
d="M407 9l-12 63q-52 -83 -157 -83q-81 0 -129 53.5t-48 152.5v255q0 10 9 10h78q10 0 10 -10v-242q0 -126 107 -126q52 0 87 42t38 113v213q0 10 10 10h78q10 0 10 -9v-441q0 -10 -10 -10h-60q-9 0 -11 9z" />
    <glyph glyph-name="v" unicode="v" horiz-adv-x="478" 
d="M472 447l-176 -438q-4 -9 -14 -9h-86q-11 0 -14 9l-177 438q-5 13 9 13h86q8 0 11 -7l128 -339l127 338q3 8 12 8h86q13 0 8 -13z" />
    <glyph glyph-name="w" unicode="w" horiz-adv-x="653" 
d="M189 131l91 321q3 8 11 8h71q10 0 12 -9l91 -329l76 330q2 8 10 8h91q9 0 7 -9l-127 -443q-3 -8 -12 -8h-85q-10 0 -12 8l-86 319l-87 -319q-3 -8 -12 -8h-84q-9 0 -11 8l-128 443q-4 9 6 9h90q9 0 11 -8z" />
    <glyph glyph-name="x" unicode="x" horiz-adv-x="481" 
d="M135 8q-5 -8 -15 -8h-97q-15 0 -6 12l161 216l-164 220q-9 12 6 12h99q10 0 16 -8l104 -143l106 143q6 8 16 8h97q15 0 6 -12l-167 -216l163 -220q9 -12 -6 -12h-99q-10 0 -15 8l-104 142z" />
    <glyph glyph-name="y" unicode="y" horiz-adv-x="480" 
d="M464 460q14 0 9 -13l-270 -666q-4 -9 -14 -9h-79q-14 0 -9 13l87 218l-181 444q-5 13 8 13h85q10 0 13 -8l123 -330l132 330q3 8 13 8h83z" />
    <glyph glyph-name="z" unicode="z" horiz-adv-x="453" 
d="M404 0h-354q-16 0 -8 15l215 356h-197q-9 0 -9 10v70q0 9 9 9h341q18 0 8 -16l-215 -355h210q9 0 9 -10v-69q0 -10 -9 -10z" />
    <glyph glyph-name="braceleft" unicode="{" horiz-adv-x="361" 
d="M75 306q25 6 47 29t22 60v160q0 26 3.5 46.5t13 43.5t30.5 35.5t53 12.5h56q12 0 12 -11v-66q0 -12 -12 -12h-33q-28 0 -28 -49v-156q0 -90 -75 -134q75 -44 75 -133v-156q0 -50 28 -50h33q12 0 12 -12v-65q0 -12 -12 -12h-56q-100 0 -100 139v159q0 38 -22 60.5
t-47 29.5q-7 1 -7 8v65q0 5 7 8z" />
    <glyph glyph-name="bar" unicode="|" horiz-adv-x="216" 
d="M155 710v-926q0 -12 -11 -12h-70q-12 0 -12 12l-1 926q0 12 12 12h70q12 0 12 -12z" />
    <glyph glyph-name="braceright" unicode="}" horiz-adv-x="361" 
d="M94 604h-34q-11 0 -11 12v66q0 11 11 11h56q32 0 53.5 -12.5t30.5 -35.5t12.5 -43.5t3.5 -46.5v-160q0 -37 22.5 -60t47.5 -29q6 -3 7 -9v-64q0 -6 -7 -8q-26 -7 -48 -29.5t-22 -60.5v-159q0 -139 -100 -139h-56q-11 0 -11 12v65q0 12 11 12h34q27 0 27 50v156
q0 88 75 133q-75 45 -75 134v156q0 49 -27 49z" />
    <glyph glyph-name="asciitilde" unicode="~" horiz-adv-x="566" 
d="M100 156q-3 -6 -7 -6t-7 3l-50 52q-7 8 -3 17q20 56 60 91t89 35q39 0 71 -16.5t49.5 -36t40 -35.5t44.5 -15q26 0 43.5 24t33.5 66q3 8 8 8q4 0 8 -4l49 -51q7 -9 4 -16q-20 -56 -59.5 -92.5t-89.5 -37.5q-31 0 -58 11t-45 26.5t-34.5 31t-33.5 26t-34 9.5
q-27 0 -44 -23.5t-35 -66.5z" />
    <glyph glyph-name="exclamdown" unicode="&#xa1;" 
d="M181 -29q-40 -25 -40 -75q0 -43 27.5 -69.5t71.5 -26.5t71 26.5t27 69.5q0 51 -39 75l31 5q4 0 4 4v14q0 5 -5 5h-180q-3 0 -3 -5v-13q0 -2 3 -5zM240 -173q-32 0 -52 20t-20 51q0 32 20 51.5t52 21.5q32 -2 51 -21.5t19 -51.5t-19.5 -51.5t-50.5 -19.5zM141 120
q0 -43 27.5 -69t71.5 -26t71 26t27 69q0 53 -39 76h39q32 0 50.5 -19.5t18.5 -53.5q-1 -36 -17 -60q-3 -3 2 -6l16 -9h1q1 -1 2 -1t3 3q20 35 20 73q0 45 -26.5 73t-71.5 28l-187 -1q-3 0 -3 -4v-12q0 -3 3 -6l33 -5q-41 -25 -41 -76zM240 52q32 0 51.5 19t19.5 51
q0 33 -19.5 53.5t-51.5 20.5q-31 0 -51 -21t-20 -53q0 -31 19.5 -50.5t51.5 -19.5zM227 265v139q-27 -4 -43 -22.5t-16 -46.5q0 -29 16 -47.5t43 -22.5zM252 265v164q0 3 -4 3q-48 0 -77 -25t-29 -72q0 -44 27 -71t71 -27t71 28t27 74q0 49 -30 76q-2 2 -3 2q-2 0 -4 -2
l-12 -13q-3 -4 1 -7q20 -20 20 -56q0 -30 -16 -50t-42 -24zM240 457q44 0 71 27.5t27 70.5t-27 70t-71 27t-71 -27t-27 -70t27 -70.5t71 -27.5zM240 484q-32 0 -52 20t-20 51t20 50.5t52 19.5t51 -19.5t19 -50.5q0 -32 -19.5 -51.5t-50.5 -19.5zM50 -240v937h433v-937h-433z
" />
    <glyph glyph-name="cent" unicode="&#xa2;" 
d="M181 -29q-40 -25 -40 -75q0 -43 27.5 -69.5t71.5 -26.5t71 26.5t27 69.5q0 51 -39 75l31 5q4 0 4 4v14q0 5 -5 5h-180q-3 0 -3 -5v-13q0 -2 3 -5zM240 -173q-32 0 -52 20t-20 51q0 32 20 51.5t52 21.5q32 -2 51 -21.5t19 -51.5t-19.5 -51.5t-50.5 -19.5zM141 120
q0 -43 27.5 -69t71.5 -26t71 26t27 69q0 53 -39 76h39q32 0 50.5 -19.5t18.5 -53.5q-1 -36 -17 -60q-3 -3 2 -6l16 -9h1q1 -1 2 -1t3 3q20 35 20 73q0 45 -26.5 73t-71.5 28l-187 -1q-3 0 -3 -4v-12q0 -3 3 -6l33 -5q-41 -25 -41 -76zM240 52q32 0 51.5 19t19.5 51
q0 33 -19.5 53.5t-51.5 20.5q-31 0 -51 -21t-20 -53q0 -31 19.5 -50.5t51.5 -19.5zM227 265v139q-27 -4 -43 -22.5t-16 -46.5q0 -29 16 -47.5t43 -22.5zM252 265v164q0 3 -4 3q-48 0 -77 -25t-29 -72q0 -44 27 -71t71 -27t71 28t27 74q0 49 -30 76q-2 2 -3 2q-2 0 -4 -2
l-12 -13q-3 -4 1 -7q20 -20 20 -56q0 -30 -16 -50t-42 -24zM240 457q44 0 71 27.5t27 70.5t-27 70t-71 27t-71 -27t-27 -70t27 -70.5t71 -27.5zM240 484q-32 0 -52 20t-20 51t20 50.5t52 19.5t51 -19.5t19 -50.5q0 -32 -19.5 -51.5t-50.5 -19.5zM50 -240v937h433v-937h-433z
" />
    <glyph glyph-name="sterling" unicode="&#xa3;" 
d="M181 -29q-40 -25 -40 -75q0 -43 27.5 -69.5t71.5 -26.5t71 26.5t27 69.5q0 51 -39 75l31 5q4 0 4 4v14q0 5 -5 5h-180q-3 0 -3 -5v-13q0 -2 3 -5zM240 -173q-32 0 -52 20t-20 51q0 32 20 51.5t52 21.5q32 -2 51 -21.5t19 -51.5t-19.5 -51.5t-50.5 -19.5zM141 120
q0 -43 27.5 -69t71.5 -26t71 26t27 69q0 53 -39 76h39q32 0 50.5 -19.5t18.5 -53.5q-1 -36 -17 -60q-3 -3 2 -6l16 -9h1q1 -1 2 -1t3 3q20 35 20 73q0 45 -26.5 73t-71.5 28l-187 -1q-3 0 -3 -4v-12q0 -3 3 -6l33 -5q-41 -25 -41 -76zM240 52q32 0 51.5 19t19.5 51
q0 33 -19.5 53.5t-51.5 20.5q-31 0 -51 -21t-20 -53q0 -31 19.5 -50.5t51.5 -19.5zM227 265v139q-27 -4 -43 -22.5t-16 -46.5q0 -29 16 -47.5t43 -22.5zM252 265v164q0 3 -4 3q-48 0 -77 -25t-29 -72q0 -44 27 -71t71 -27t71 28t27 74q0 49 -30 76q-2 2 -3 2q-2 0 -4 -2
l-12 -13q-3 -4 1 -7q20 -20 20 -56q0 -30 -16 -50t-42 -24zM240 457q44 0 71 27.5t27 70.5t-27 70t-71 27t-71 -27t-27 -70t27 -70.5t71 -27.5zM240 484q-32 0 -52 20t-20 51t20 50.5t52 19.5t51 -19.5t19 -50.5q0 -32 -19.5 -51.5t-50.5 -19.5zM50 -240v937h433v-937h-433z
" />
    <glyph glyph-name="currency" unicode="&#xa4;" 
d="M181 -29q-40 -25 -40 -75q0 -43 27.5 -69.5t71.5 -26.5t71 26.5t27 69.5q0 51 -39 75l31 5q4 0 4 4v14q0 5 -5 5h-180q-3 0 -3 -5v-13q0 -2 3 -5zM240 -173q-32 0 -52 20t-20 51q0 32 20 51.5t52 21.5q32 -2 51 -21.5t19 -51.5t-19.5 -51.5t-50.5 -19.5zM141 120
q0 -43 27.5 -69t71.5 -26t71 26t27 69q0 53 -39 76h39q32 0 50.5 -19.5t18.5 -53.5q-1 -36 -17 -60q-3 -3 2 -6l16 -9h1q1 -1 2 -1t3 3q20 35 20 73q0 45 -26.5 73t-71.5 28l-187 -1q-3 0 -3 -4v-12q0 -3 3 -6l33 -5q-41 -25 -41 -76zM240 52q32 0 51.5 19t19.5 51
q0 33 -19.5 53.5t-51.5 20.5q-31 0 -51 -21t-20 -53q0 -31 19.5 -50.5t51.5 -19.5zM227 265v139q-27 -4 -43 -22.5t-16 -46.5q0 -29 16 -47.5t43 -22.5zM252 265v164q0 3 -4 3q-48 0 -77 -25t-29 -72q0 -44 27 -71t71 -27t71 28t27 74q0 49 -30 76q-2 2 -3 2q-2 0 -4 -2
l-12 -13q-3 -4 1 -7q20 -20 20 -56q0 -30 -16 -50t-42 -24zM240 457q44 0 71 27.5t27 70.5t-27 70t-71 27t-71 -27t-27 -70t27 -70.5t71 -27.5zM240 484q-32 0 -52 20t-20 51t20 50.5t52 19.5t51 -19.5t19 -50.5q0 -32 -19.5 -51.5t-50.5 -19.5zM50 -240v937h433v-937h-433z
" />
    <glyph glyph-name="yen" unicode="&#xa5;" 
d="M181 -29q-40 -25 -40 -75q0 -43 27.5 -69.5t71.5 -26.5t71 26.5t27 69.5q0 51 -39 75l31 5q4 0 4 4v14q0 5 -5 5h-180q-3 0 -3 -5v-13q0 -2 3 -5zM240 -173q-32 0 -52 20t-20 51q0 32 20 51.5t52 21.5q32 -2 51 -21.5t19 -51.5t-19.5 -51.5t-50.5 -19.5zM141 120
q0 -43 27.5 -69t71.5 -26t71 26t27 69q0 53 -39 76h39q32 0 50.5 -19.5t18.5 -53.5q-1 -36 -17 -60q-3 -3 2 -6l16 -9h1q1 -1 2 -1t3 3q20 35 20 73q0 45 -26.5 73t-71.5 28l-187 -1q-3 0 -3 -4v-12q0 -3 3 -6l33 -5q-41 -25 -41 -76zM240 52q32 0 51.5 19t19.5 51
q0 33 -19.5 53.5t-51.5 20.5q-31 0 -51 -21t-20 -53q0 -31 19.5 -50.5t51.5 -19.5zM227 265v139q-27 -4 -43 -22.5t-16 -46.5q0 -29 16 -47.5t43 -22.5zM252 265v164q0 3 -4 3q-48 0 -77 -25t-29 -72q0 -44 27 -71t71 -27t71 28t27 74q0 49 -30 76q-2 2 -3 2q-2 0 -4 -2
l-12 -13q-3 -4 1 -7q20 -20 20 -56q0 -30 -16 -50t-42 -24zM240 457q44 0 71 27.5t27 70.5t-27 70t-71 27t-71 -27t-27 -70t27 -70.5t71 -27.5zM240 484q-32 0 -52 20t-20 51t20 50.5t52 19.5t51 -19.5t19 -50.5q0 -32 -19.5 -51.5t-50.5 -19.5zM50 -240v937h433v-937h-433z
" />
    <glyph glyph-name="brokenbar" unicode="&#xa6;" 
d="M181 -29q-40 -25 -40 -75q0 -43 27.5 -69.5t71.5 -26.5t71 26.5t27 69.5q0 51 -39 75l31 5q4 0 4 4v14q0 5 -5 5h-180q-3 0 -3 -5v-13q0 -2 3 -5zM240 -173q-32 0 -52 20t-20 51q0 32 20 51.5t52 21.5q32 -2 51 -21.5t19 -51.5t-19.5 -51.5t-50.5 -19.5zM141 120
q0 -43 27.5 -69t71.5 -26t71 26t27 69q0 53 -39 76h39q32 0 50.5 -19.5t18.5 -53.5q-1 -36 -17 -60q-3 -3 2 -6l16 -9h1q1 -1 2 -1t3 3q20 35 20 73q0 45 -26.5 73t-71.5 28l-187 -1q-3 0 -3 -4v-12q0 -3 3 -6l33 -5q-41 -25 -41 -76zM240 52q32 0 51.5 19t19.5 51
q0 33 -19.5 53.5t-51.5 20.5q-31 0 -51 -21t-20 -53q0 -31 19.5 -50.5t51.5 -19.5zM227 265v139q-27 -4 -43 -22.5t-16 -46.5q0 -29 16 -47.5t43 -22.5zM252 265v164q0 3 -4 3q-48 0 -77 -25t-29 -72q0 -44 27 -71t71 -27t71 28t27 74q0 49 -30 76q-2 2 -3 2q-2 0 -4 -2
l-12 -13q-3 -4 1 -7q20 -20 20 -56q0 -30 -16 -50t-42 -24zM240 457q44 0 71 27.5t27 70.5t-27 70t-71 27t-71 -27t-27 -70t27 -70.5t71 -27.5zM240 484q-32 0 -52 20t-20 51t20 50.5t52 19.5t51 -19.5t19 -50.5q0 -32 -19.5 -51.5t-50.5 -19.5zM50 -240v937h433v-937h-433z
" />
    <glyph glyph-name="section" unicode="&#xa7;" 
d="M181 -29q-40 -25 -40 -75q0 -43 27.5 -69.5t71.5 -26.5t71 26.5t27 69.5q0 51 -39 75l31 5q4 0 4 4v14q0 5 -5 5h-180q-3 0 -3 -5v-13q0 -2 3 -5zM240 -173q-32 0 -52 20t-20 51q0 32 20 51.5t52 21.5q32 -2 51 -21.5t19 -51.5t-19.5 -51.5t-50.5 -19.5zM141 120
q0 -43 27.5 -69t71.5 -26t71 26t27 69q0 53 -39 76h39q32 0 50.5 -19.5t18.5 -53.5q-1 -36 -17 -60q-3 -3 2 -6l16 -9h1q1 -1 2 -1t3 3q20 35 20 73q0 45 -26.5 73t-71.5 28l-187 -1q-3 0 -3 -4v-12q0 -3 3 -6l33 -5q-41 -25 -41 -76zM240 52q32 0 51.5 19t19.5 51
q0 33 -19.5 53.5t-51.5 20.5q-31 0 -51 -21t-20 -53q0 -31 19.5 -50.5t51.5 -19.5zM227 265v139q-27 -4 -43 -22.5t-16 -46.5q0 -29 16 -47.5t43 -22.5zM252 265v164q0 3 -4 3q-48 0 -77 -25t-29 -72q0 -44 27 -71t71 -27t71 28t27 74q0 49 -30 76q-2 2 -3 2q-2 0 -4 -2
l-12 -13q-3 -4 1 -7q20 -20 20 -56q0 -30 -16 -50t-42 -24zM240 457q44 0 71 27.5t27 70.5t-27 70t-71 27t-71 -27t-27 -70t27 -70.5t71 -27.5zM240 484q-32 0 -52 20t-20 51t20 50.5t52 19.5t51 -19.5t19 -50.5q0 -32 -19.5 -51.5t-50.5 -19.5zM50 -240v937h433v-937h-433z
" />
    <glyph glyph-name="dieresis" unicode="&#xa8;" 
d="M181 -29q-40 -25 -40 -75q0 -43 27.5 -69.5t71.5 -26.5t71 26.5t27 69.5q0 51 -39 75l31 5q4 0 4 4v14q0 5 -5 5h-180q-3 0 -3 -5v-13q0 -2 3 -5zM240 -173q-32 0 -52 20t-20 51q0 32 20 51.5t52 21.5q32 -2 51 -21.5t19 -51.5t-19.5 -51.5t-50.5 -19.5zM141 120
q0 -43 27.5 -69t71.5 -26t71 26t27 69q0 53 -39 76h39q32 0 50.5 -19.5t18.5 -53.5q-1 -36 -17 -60q-3 -3 2 -6l16 -9h1q1 -1 2 -1t3 3q20 35 20 73q0 45 -26.5 73t-71.5 28l-187 -1q-3 0 -3 -4v-12q0 -3 3 -6l33 -5q-41 -25 -41 -76zM240 52q32 0 51.5 19t19.5 51
q0 33 -19.5 53.5t-51.5 20.5q-31 0 -51 -21t-20 -53q0 -31 19.5 -50.5t51.5 -19.5zM227 265v139q-27 -4 -43 -22.5t-16 -46.5q0 -29 16 -47.5t43 -22.5zM252 265v164q0 3 -4 3q-48 0 -77 -25t-29 -72q0 -44 27 -71t71 -27t71 28t27 74q0 49 -30 76q-2 2 -3 2q-2 0 -4 -2
l-12 -13q-3 -4 1 -7q20 -20 20 -56q0 -30 -16 -50t-42 -24zM240 457q44 0 71 27.5t27 70.5t-27 70t-71 27t-71 -27t-27 -70t27 -70.5t71 -27.5zM240 484q-32 0 -52 20t-20 51t20 50.5t52 19.5t51 -19.5t19 -50.5q0 -32 -19.5 -51.5t-50.5 -19.5zM50 -240v937h433v-937h-433z
" />
    <glyph glyph-name="copyright" unicode="&#xa9;" 
d="M181 -29q-40 -25 -40 -75q0 -43 27.5 -69.5t71.5 -26.5t71 26.5t27 69.5q0 51 -39 75l31 5q4 0 4 4v14q0 5 -5 5h-180q-3 0 -3 -5v-13q0 -2 3 -5zM240 -173q-32 0 -52 20t-20 51q0 32 20 51.5t52 21.5q32 -2 51 -21.5t19 -51.5t-19.5 -51.5t-50.5 -19.5zM141 120
q0 -43 27.5 -69t71.5 -26t71 26t27 69q0 53 -39 76h39q32 0 50.5 -19.5t18.5 -53.5q-1 -36 -17 -60q-3 -3 2 -6l16 -9h1q1 -1 2 -1t3 3q20 35 20 73q0 45 -26.5 73t-71.5 28l-187 -1q-3 0 -3 -4v-12q0 -3 3 -6l33 -5q-41 -25 -41 -76zM240 52q32 0 51.5 19t19.5 51
q0 33 -19.5 53.5t-51.5 20.5q-31 0 -51 -21t-20 -53q0 -31 19.5 -50.5t51.5 -19.5zM227 265v139q-27 -4 -43 -22.5t-16 -46.5q0 -29 16 -47.5t43 -22.5zM252 265v164q0 3 -4 3q-48 0 -77 -25t-29 -72q0 -44 27 -71t71 -27t71 28t27 74q0 49 -30 76q-2 2 -3 2q-2 0 -4 -2
l-12 -13q-3 -4 1 -7q20 -20 20 -56q0 -30 -16 -50t-42 -24zM240 457q44 0 71 27.5t27 70.5t-27 70t-71 27t-71 -27t-27 -70t27 -70.5t71 -27.5zM240 484q-32 0 -52 20t-20 51t20 50.5t52 19.5t51 -19.5t19 -50.5q0 -32 -19.5 -51.5t-50.5 -19.5zM50 -240v937h433v-937h-433z
" />
    <glyph glyph-name="ordfeminine" unicode="&#xaa;" 
d="M181 -29q-40 -25 -40 -75q0 -43 27.5 -69.5t71.5 -26.5t71 26.5t27 69.5q0 51 -39 75l31 5q4 0 4 4v14q0 5 -5 5h-180q-3 0 -3 -5v-13q0 -2 3 -5zM240 -173q-32 0 -52 20t-20 51q0 32 20 51.5t52 21.5q32 -2 51 -21.5t19 -51.5t-19.5 -51.5t-50.5 -19.5zM141 120
q0 -43 27.5 -69t71.5 -26t71 26t27 69q0 53 -39 76h39q32 0 50.5 -19.5t18.5 -53.5q-1 -36 -17 -60q-3 -3 2 -6l16 -9h1q1 -1 2 -1t3 3q20 35 20 73q0 45 -26.5 73t-71.5 28l-187 -1q-3 0 -3 -4v-12q0 -3 3 -6l33 -5q-41 -25 -41 -76zM240 52q32 0 51.5 19t19.5 51
q0 33 -19.5 53.5t-51.5 20.5q-31 0 -51 -21t-20 -53q0 -31 19.5 -50.5t51.5 -19.5zM227 265v139q-27 -4 -43 -22.5t-16 -46.5q0 -29 16 -47.5t43 -22.5zM252 265v164q0 3 -4 3q-48 0 -77 -25t-29 -72q0 -44 27 -71t71 -27t71 28t27 74q0 49 -30 76q-2 2 -3 2q-2 0 -4 -2
l-12 -13q-3 -4 1 -7q20 -20 20 -56q0 -30 -16 -50t-42 -24zM240 457q44 0 71 27.5t27 70.5t-27 70t-71 27t-71 -27t-27 -70t27 -70.5t71 -27.5zM240 484q-32 0 -52 20t-20 51t20 50.5t52 19.5t51 -19.5t19 -50.5q0 -32 -19.5 -51.5t-50.5 -19.5zM50 -240v937h433v-937h-433z
" />
    <glyph glyph-name="guillemotleft" unicode="&#xab;" 
d="M181 -29q-40 -25 -40 -75q0 -43 27.5 -69.5t71.5 -26.5t71 26.5t27 69.5q0 51 -39 75l31 5q4 0 4 4v14q0 5 -5 5h-180q-3 0 -3 -5v-13q0 -2 3 -5zM240 -173q-32 0 -52 20t-20 51q0 32 20 51.5t52 21.5q32 -2 51 -21.5t19 -51.5t-19.5 -51.5t-50.5 -19.5zM141 120
q0 -43 27.5 -69t71.5 -26t71 26t27 69q0 53 -39 76h39q32 0 50.5 -19.5t18.5 -53.5q-1 -36 -17 -60q-3 -3 2 -6l16 -9h1q1 -1 2 -1t3 3q20 35 20 73q0 45 -26.5 73t-71.5 28l-187 -1q-3 0 -3 -4v-12q0 -3 3 -6l33 -5q-41 -25 -41 -76zM240 52q32 0 51.5 19t19.5 51
q0 33 -19.5 53.5t-51.5 20.5q-31 0 -51 -21t-20 -53q0 -31 19.5 -50.5t51.5 -19.5zM227 265v139q-27 -4 -43 -22.5t-16 -46.5q0 -29 16 -47.5t43 -22.5zM252 265v164q0 3 -4 3q-48 0 -77 -25t-29 -72q0 -44 27 -71t71 -27t71 28t27 74q0 49 -30 76q-2 2 -3 2q-2 0 -4 -2
l-12 -13q-3 -4 1 -7q20 -20 20 -56q0 -30 -16 -50t-42 -24zM240 457q44 0 71 27.5t27 70.5t-27 70t-71 27t-71 -27t-27 -70t27 -70.5t71 -27.5zM240 484q-32 0 -52 20t-20 51t20 50.5t52 19.5t51 -19.5t19 -50.5q0 -32 -19.5 -51.5t-50.5 -19.5zM50 -240v937h433v-937h-433z
" />
    <glyph glyph-name="logicalnot" unicode="&#xac;" 
d="M181 -29q-40 -25 -40 -75q0 -43 27.5 -69.5t71.5 -26.5t71 26.5t27 69.5q0 51 -39 75l31 5q4 0 4 4v14q0 5 -5 5h-180q-3 0 -3 -5v-13q0 -2 3 -5zM240 -173q-32 0 -52 20t-20 51q0 32 20 51.5t52 21.5q32 -2 51 -21.5t19 -51.5t-19.5 -51.5t-50.5 -19.5zM141 120
q0 -43 27.5 -69t71.5 -26t71 26t27 69q0 53 -39 76h39q32 0 50.5 -19.5t18.5 -53.5q-1 -36 -17 -60q-3 -3 2 -6l16 -9h1q1 -1 2 -1t3 3q20 35 20 73q0 45 -26.5 73t-71.5 28l-187 -1q-3 0 -3 -4v-12q0 -3 3 -6l33 -5q-41 -25 -41 -76zM240 52q32 0 51.5 19t19.5 51
q0 33 -19.5 53.5t-51.5 20.5q-31 0 -51 -21t-20 -53q0 -31 19.5 -50.5t51.5 -19.5zM227 265v139q-27 -4 -43 -22.5t-16 -46.5q0 -29 16 -47.5t43 -22.5zM252 265v164q0 3 -4 3q-48 0 -77 -25t-29 -72q0 -44 27 -71t71 -27t71 28t27 74q0 49 -30 76q-2 2 -3 2q-2 0 -4 -2
l-12 -13q-3 -4 1 -7q20 -20 20 -56q0 -30 -16 -50t-42 -24zM240 457q44 0 71 27.5t27 70.5t-27 70t-71 27t-71 -27t-27 -70t27 -70.5t71 -27.5zM240 484q-32 0 -52 20t-20 51t20 50.5t52 19.5t51 -19.5t19 -50.5q0 -32 -19.5 -51.5t-50.5 -19.5zM50 -240v937h433v-937h-433z
" />
    <glyph glyph-name="registered" unicode="&#xae;" 
d="M181 -29q-40 -25 -40 -75q0 -43 27.5 -69.5t71.5 -26.5t71 26.5t27 69.5q0 51 -39 75l31 5q4 0 4 4v14q0 5 -5 5h-180q-3 0 -3 -5v-13q0 -2 3 -5zM240 -173q-32 0 -52 20t-20 51q0 32 20 51.5t52 21.5q32 -2 51 -21.5t19 -51.5t-19.5 -51.5t-50.5 -19.5zM141 120
q0 -43 27.5 -69t71.5 -26t71 26t27 69q0 53 -39 76h39q32 0 50.5 -19.5t18.5 -53.5q-1 -36 -17 -60q-3 -3 2 -6l16 -9h1q1 -1 2 -1t3 3q20 35 20 73q0 45 -26.5 73t-71.5 28l-187 -1q-3 0 -3 -4v-12q0 -3 3 -6l33 -5q-41 -25 -41 -76zM240 52q32 0 51.5 19t19.5 51
q0 33 -19.5 53.5t-51.5 20.5q-31 0 -51 -21t-20 -53q0 -31 19.5 -50.5t51.5 -19.5zM227 265v139q-27 -4 -43 -22.5t-16 -46.5q0 -29 16 -47.5t43 -22.5zM252 265v164q0 3 -4 3q-48 0 -77 -25t-29 -72q0 -44 27 -71t71 -27t71 28t27 74q0 49 -30 76q-2 2 -3 2q-2 0 -4 -2
l-12 -13q-3 -4 1 -7q20 -20 20 -56q0 -30 -16 -50t-42 -24zM240 457q44 0 71 27.5t27 70.5t-27 70t-71 27t-71 -27t-27 -70t27 -70.5t71 -27.5zM240 484q-32 0 -52 20t-20 51t20 50.5t52 19.5t51 -19.5t19 -50.5q0 -32 -19.5 -51.5t-50.5 -19.5zM50 -240v937h433v-937h-433z
" />
    <glyph glyph-name="macron" unicode="&#xaf;" 
d="M181 -29q-40 -25 -40 -75q0 -43 27.5 -69.5t71.5 -26.5t71 26.5t27 69.5q0 51 -39 75l31 5q4 0 4 4v14q0 5 -5 5h-180q-3 0 -3 -5v-13q0 -2 3 -5zM240 -173q-32 0 -52 20t-20 51q0 32 20 51.5t52 21.5q32 -2 51 -21.5t19 -51.5t-19.5 -51.5t-50.5 -19.5zM141 120
q0 -43 27.5 -69t71.5 -26t71 26t27 69q0 53 -39 76h39q32 0 50.5 -19.5t18.5 -53.5q-1 -36 -17 -60q-3 -3 2 -6l16 -9h1q1 -1 2 -1t3 3q20 35 20 73q0 45 -26.5 73t-71.5 28l-187 -1q-3 0 -3 -4v-12q0 -3 3 -6l33 -5q-41 -25 -41 -76zM240 52q32 0 51.5 19t19.5 51
q0 33 -19.5 53.5t-51.5 20.5q-31 0 -51 -21t-20 -53q0 -31 19.5 -50.5t51.5 -19.5zM227 265v139q-27 -4 -43 -22.5t-16 -46.5q0 -29 16 -47.5t43 -22.5zM252 265v164q0 3 -4 3q-48 0 -77 -25t-29 -72q0 -44 27 -71t71 -27t71 28t27 74q0 49 -30 76q-2 2 -3 2q-2 0 -4 -2
l-12 -13q-3 -4 1 -7q20 -20 20 -56q0 -30 -16 -50t-42 -24zM240 457q44 0 71 27.5t27 70.5t-27 70t-71 27t-71 -27t-27 -70t27 -70.5t71 -27.5zM240 484q-32 0 -52 20t-20 51t20 50.5t52 19.5t51 -19.5t19 -50.5q0 -32 -19.5 -51.5t-50.5 -19.5zM50 -240v937h433v-937h-433z
" />
    <glyph glyph-name="degree" unicode="&#xb0;" 
d="M181 -29q-40 -25 -40 -75q0 -43 27.5 -69.5t71.5 -26.5t71 26.5t27 69.5q0 51 -39 75l31 5q4 0 4 4v14q0 5 -5 5h-180q-3 0 -3 -5v-13q0 -2 3 -5zM240 -173q-32 0 -52 20t-20 51q0 32 20 51.5t52 21.5q32 -2 51 -21.5t19 -51.5t-19.5 -51.5t-50.5 -19.5zM141 120
q0 -43 27.5 -69t71.5 -26t71 26t27 69q0 53 -39 76h39q32 0 50.5 -19.5t18.5 -53.5q-1 -36 -17 -60q-3 -3 2 -6l16 -9h1q1 -1 2 -1t3 3q20 35 20 73q0 45 -26.5 73t-71.5 28l-187 -1q-3 0 -3 -4v-12q0 -3 3 -6l33 -5q-41 -25 -41 -76zM240 52q32 0 51.5 19t19.5 51
q0 33 -19.5 53.5t-51.5 20.5q-31 0 -51 -21t-20 -53q0 -31 19.5 -50.5t51.5 -19.5zM227 265v139q-27 -4 -43 -22.5t-16 -46.5q0 -29 16 -47.5t43 -22.5zM252 265v164q0 3 -4 3q-48 0 -77 -25t-29 -72q0 -44 27 -71t71 -27t71 28t27 74q0 49 -30 76q-2 2 -3 2q-2 0 -4 -2
l-12 -13q-3 -4 1 -7q20 -20 20 -56q0 -30 -16 -50t-42 -24zM240 457q44 0 71 27.5t27 70.5t-27 70t-71 27t-71 -27t-27 -70t27 -70.5t71 -27.5zM240 484q-32 0 -52 20t-20 51t20 50.5t52 19.5t51 -19.5t19 -50.5q0 -32 -19.5 -51.5t-50.5 -19.5zM50 -240v937h433v-937h-433z
" />
    <glyph glyph-name="plusminus" unicode="&#xb1;" 
d="M181 -29q-40 -25 -40 -75q0 -43 27.5 -69.5t71.5 -26.5t71 26.5t27 69.5q0 51 -39 75l31 5q4 0 4 4v14q0 5 -5 5h-180q-3 0 -3 -5v-13q0 -2 3 -5zM240 -173q-32 0 -52 20t-20 51q0 32 20 51.5t52 21.5q32 -2 51 -21.5t19 -51.5t-19.5 -51.5t-50.5 -19.5zM141 120
q0 -43 27.5 -69t71.5 -26t71 26t27 69q0 53 -39 76h39q32 0 50.5 -19.5t18.5 -53.5q-1 -36 -17 -60q-3 -3 2 -6l16 -9h1q1 -1 2 -1t3 3q20 35 20 73q0 45 -26.5 73t-71.5 28l-187 -1q-3 0 -3 -4v-12q0 -3 3 -6l33 -5q-41 -25 -41 -76zM240 52q32 0 51.5 19t19.5 51
q0 33 -19.5 53.5t-51.5 20.5q-31 0 -51 -21t-20 -53q0 -31 19.5 -50.5t51.5 -19.5zM227 265v139q-27 -4 -43 -22.5t-16 -46.5q0 -29 16 -47.5t43 -22.5zM252 265v164q0 3 -4 3q-48 0 -77 -25t-29 -72q0 -44 27 -71t71 -27t71 28t27 74q0 49 -30 76q-2 2 -3 2q-2 0 -4 -2
l-12 -13q-3 -4 1 -7q20 -20 20 -56q0 -30 -16 -50t-42 -24zM240 457q44 0 71 27.5t27 70.5t-27 70t-71 27t-71 -27t-27 -70t27 -70.5t71 -27.5zM240 484q-32 0 -52 20t-20 51t20 50.5t52 19.5t51 -19.5t19 -50.5q0 -32 -19.5 -51.5t-50.5 -19.5zM50 -240v937h433v-937h-433z
" />
    <glyph glyph-name="twosuperior" unicode="&#xb2;" 
d="M181 -29q-40 -25 -40 -75q0 -43 27.5 -69.5t71.5 -26.5t71 26.5t27 69.5q0 51 -39 75l31 5q4 0 4 4v14q0 5 -5 5h-180q-3 0 -3 -5v-13q0 -2 3 -5zM240 -173q-32 0 -52 20t-20 51q0 32 20 51.5t52 21.5q32 -2 51 -21.5t19 -51.5t-19.5 -51.5t-50.5 -19.5zM141 120
q0 -43 27.5 -69t71.5 -26t71 26t27 69q0 53 -39 76h39q32 0 50.5 -19.5t18.5 -53.5q-1 -36 -17 -60q-3 -3 2 -6l16 -9h1q1 -1 2 -1t3 3q20 35 20 73q0 45 -26.5 73t-71.5 28l-187 -1q-3 0 -3 -4v-12q0 -3 3 -6l33 -5q-41 -25 -41 -76zM240 52q32 0 51.5 19t19.5 51
q0 33 -19.5 53.5t-51.5 20.5q-31 0 -51 -21t-20 -53q0 -31 19.5 -50.5t51.5 -19.5zM227 265v139q-27 -4 -43 -22.5t-16 -46.5q0 -29 16 -47.5t43 -22.5zM252 265v164q0 3 -4 3q-48 0 -77 -25t-29 -72q0 -44 27 -71t71 -27t71 28t27 74q0 49 -30 76q-2 2 -3 2q-2 0 -4 -2
l-12 -13q-3 -4 1 -7q20 -20 20 -56q0 -30 -16 -50t-42 -24zM240 457q44 0 71 27.5t27 70.5t-27 70t-71 27t-71 -27t-27 -70t27 -70.5t71 -27.5zM240 484q-32 0 -52 20t-20 51t20 50.5t52 19.5t51 -19.5t19 -50.5q0 -32 -19.5 -51.5t-50.5 -19.5zM50 -240v937h433v-937h-433z
" />
    <glyph glyph-name="threesuperior" unicode="&#xb3;" 
d="M181 -29q-40 -25 -40 -75q0 -43 27.5 -69.5t71.5 -26.5t71 26.5t27 69.5q0 51 -39 75l31 5q4 0 4 4v14q0 5 -5 5h-180q-3 0 -3 -5v-13q0 -2 3 -5zM240 -173q-32 0 -52 20t-20 51q0 32 20 51.5t52 21.5q32 -2 51 -21.5t19 -51.5t-19.5 -51.5t-50.5 -19.5zM141 120
q0 -43 27.5 -69t71.5 -26t71 26t27 69q0 53 -39 76h39q32 0 50.5 -19.5t18.5 -53.5q-1 -36 -17 -60q-3 -3 2 -6l16 -9h1q1 -1 2 -1t3 3q20 35 20 73q0 45 -26.5 73t-71.5 28l-187 -1q-3 0 -3 -4v-12q0 -3 3 -6l33 -5q-41 -25 -41 -76zM240 52q32 0 51.5 19t19.5 51
q0 33 -19.5 53.5t-51.5 20.5q-31 0 -51 -21t-20 -53q0 -31 19.5 -50.5t51.5 -19.5zM227 265v139q-27 -4 -43 -22.5t-16 -46.5q0 -29 16 -47.5t43 -22.5zM252 265v164q0 3 -4 3q-48 0 -77 -25t-29 -72q0 -44 27 -71t71 -27t71 28t27 74q0 49 -30 76q-2 2 -3 2q-2 0 -4 -2
l-12 -13q-3 -4 1 -7q20 -20 20 -56q0 -30 -16 -50t-42 -24zM240 457q44 0 71 27.5t27 70.5t-27 70t-71 27t-71 -27t-27 -70t27 -70.5t71 -27.5zM240 484q-32 0 -52 20t-20 51t20 50.5t52 19.5t51 -19.5t19 -50.5q0 -32 -19.5 -51.5t-50.5 -19.5zM50 -240v937h433v-937h-433z
" />
    <glyph glyph-name="acute" unicode="&#xb4;" 
d="M181 -29q-40 -25 -40 -75q0 -43 27.5 -69.5t71.5 -26.5t71 26.5t27 69.5q0 51 -39 75l31 5q4 0 4 4v14q0 5 -5 5h-180q-3 0 -3 -5v-13q0 -2 3 -5zM240 -173q-32 0 -52 20t-20 51q0 32 20 51.5t52 21.5q32 -2 51 -21.5t19 -51.5t-19.5 -51.5t-50.5 -19.5zM141 120
q0 -43 27.5 -69t71.5 -26t71 26t27 69q0 53 -39 76h39q32 0 50.5 -19.5t18.5 -53.5q-1 -36 -17 -60q-3 -3 2 -6l16 -9h1q1 -1 2 -1t3 3q20 35 20 73q0 45 -26.5 73t-71.5 28l-187 -1q-3 0 -3 -4v-12q0 -3 3 -6l33 -5q-41 -25 -41 -76zM240 52q32 0 51.5 19t19.5 51
q0 33 -19.5 53.5t-51.5 20.5q-31 0 -51 -21t-20 -53q0 -31 19.5 -50.5t51.5 -19.5zM227 265v139q-27 -4 -43 -22.5t-16 -46.5q0 -29 16 -47.5t43 -22.5zM252 265v164q0 3 -4 3q-48 0 -77 -25t-29 -72q0 -44 27 -71t71 -27t71 28t27 74q0 49 -30 76q-2 2 -3 2q-2 0 -4 -2
l-12 -13q-3 -4 1 -7q20 -20 20 -56q0 -30 -16 -50t-42 -24zM240 457q44 0 71 27.5t27 70.5t-27 70t-71 27t-71 -27t-27 -70t27 -70.5t71 -27.5zM240 484q-32 0 -52 20t-20 51t20 50.5t52 19.5t51 -19.5t19 -50.5q0 -32 -19.5 -51.5t-50.5 -19.5zM50 -240v937h433v-937h-433z
" />
    <glyph glyph-name="mu" unicode="&#xb5;" 
d="M181 -29q-40 -25 -40 -75q0 -43 27.5 -69.5t71.5 -26.5t71 26.5t27 69.5q0 51 -39 75l31 5q4 0 4 4v14q0 5 -5 5h-180q-3 0 -3 -5v-13q0 -2 3 -5zM240 -173q-32 0 -52 20t-20 51q0 32 20 51.5t52 21.5q32 -2 51 -21.5t19 -51.5t-19.5 -51.5t-50.5 -19.5zM141 120
q0 -43 27.5 -69t71.5 -26t71 26t27 69q0 53 -39 76h39q32 0 50.5 -19.5t18.5 -53.5q-1 -36 -17 -60q-3 -3 2 -6l16 -9h1q1 -1 2 -1t3 3q20 35 20 73q0 45 -26.5 73t-71.5 28l-187 -1q-3 0 -3 -4v-12q0 -3 3 -6l33 -5q-41 -25 -41 -76zM240 52q32 0 51.5 19t19.5 51
q0 33 -19.5 53.5t-51.5 20.5q-31 0 -51 -21t-20 -53q0 -31 19.5 -50.5t51.5 -19.5zM227 265v139q-27 -4 -43 -22.5t-16 -46.5q0 -29 16 -47.5t43 -22.5zM252 265v164q0 3 -4 3q-48 0 -77 -25t-29 -72q0 -44 27 -71t71 -27t71 28t27 74q0 49 -30 76q-2 2 -3 2q-2 0 -4 -2
l-12 -13q-3 -4 1 -7q20 -20 20 -56q0 -30 -16 -50t-42 -24zM240 457q44 0 71 27.5t27 70.5t-27 70t-71 27t-71 -27t-27 -70t27 -70.5t71 -27.5zM240 484q-32 0 -52 20t-20 51t20 50.5t52 19.5t51 -19.5t19 -50.5q0 -32 -19.5 -51.5t-50.5 -19.5zM50 -240v937h433v-937h-433z
" />
    <glyph glyph-name="paragraph" unicode="&#xb6;" 
d="M181 -29q-40 -25 -40 -75q0 -43 27.5 -69.5t71.5 -26.5t71 26.5t27 69.5q0 51 -39 75l31 5q4 0 4 4v14q0 5 -5 5h-180q-3 0 -3 -5v-13q0 -2 3 -5zM240 -173q-32 0 -52 20t-20 51q0 32 20 51.5t52 21.5q32 -2 51 -21.5t19 -51.5t-19.5 -51.5t-50.5 -19.5zM141 120
q0 -43 27.5 -69t71.5 -26t71 26t27 69q0 53 -39 76h39q32 0 50.5 -19.5t18.5 -53.5q-1 -36 -17 -60q-3 -3 2 -6l16 -9h1q1 -1 2 -1t3 3q20 35 20 73q0 45 -26.5 73t-71.5 28l-187 -1q-3 0 -3 -4v-12q0 -3 3 -6l33 -5q-41 -25 -41 -76zM240 52q32 0 51.5 19t19.5 51
q0 33 -19.5 53.5t-51.5 20.5q-31 0 -51 -21t-20 -53q0 -31 19.5 -50.5t51.5 -19.5zM227 265v139q-27 -4 -43 -22.5t-16 -46.5q0 -29 16 -47.5t43 -22.5zM252 265v164q0 3 -4 3q-48 0 -77 -25t-29 -72q0 -44 27 -71t71 -27t71 28t27 74q0 49 -30 76q-2 2 -3 2q-2 0 -4 -2
l-12 -13q-3 -4 1 -7q20 -20 20 -56q0 -30 -16 -50t-42 -24zM240 457q44 0 71 27.5t27 70.5t-27 70t-71 27t-71 -27t-27 -70t27 -70.5t71 -27.5zM240 484q-32 0 -52 20t-20 51t20 50.5t52 19.5t51 -19.5t19 -50.5q0 -32 -19.5 -51.5t-50.5 -19.5zM50 -240v937h433v-937h-433z
" />
    <glyph glyph-name="periodcentered" unicode="&#xb7;" 
d="M181 -29q-40 -25 -40 -75q0 -43 27.5 -69.5t71.5 -26.5t71 26.5t27 69.5q0 51 -39 75l31 5q4 0 4 4v14q0 5 -5 5h-180q-3 0 -3 -5v-13q0 -2 3 -5zM240 -173q-32 0 -52 20t-20 51q0 32 20 51.5t52 21.5q32 -2 51 -21.5t19 -51.5t-19.5 -51.5t-50.5 -19.5zM141 120
q0 -43 27.5 -69t71.5 -26t71 26t27 69q0 53 -39 76h39q32 0 50.5 -19.5t18.5 -53.5q-1 -36 -17 -60q-3 -3 2 -6l16 -9h1q1 -1 2 -1t3 3q20 35 20 73q0 45 -26.5 73t-71.5 28l-187 -1q-3 0 -3 -4v-12q0 -3 3 -6l33 -5q-41 -25 -41 -76zM240 52q32 0 51.5 19t19.5 51
q0 33 -19.5 53.5t-51.5 20.5q-31 0 -51 -21t-20 -53q0 -31 19.5 -50.5t51.5 -19.5zM227 265v139q-27 -4 -43 -22.5t-16 -46.5q0 -29 16 -47.5t43 -22.5zM252 265v164q0 3 -4 3q-48 0 -77 -25t-29 -72q0 -44 27 -71t71 -27t71 28t27 74q0 49 -30 76q-2 2 -3 2q-2 0 -4 -2
l-12 -13q-3 -4 1 -7q20 -20 20 -56q0 -30 -16 -50t-42 -24zM240 457q44 0 71 27.5t27 70.5t-27 70t-71 27t-71 -27t-27 -70t27 -70.5t71 -27.5zM240 484q-32 0 -52 20t-20 51t20 50.5t52 19.5t51 -19.5t19 -50.5q0 -32 -19.5 -51.5t-50.5 -19.5zM50 -240v937h433v-937h-433z
" />
    <glyph glyph-name="cedilla" unicode="&#xb8;" 
d="M181 -29q-40 -25 -40 -75q0 -43 27.5 -69.5t71.5 -26.5t71 26.5t27 69.5q0 51 -39 75l31 5q4 0 4 4v14q0 5 -5 5h-180q-3 0 -3 -5v-13q0 -2 3 -5zM240 -173q-32 0 -52 20t-20 51q0 32 20 51.5t52 21.5q32 -2 51 -21.5t19 -51.5t-19.5 -51.5t-50.5 -19.5zM141 120
q0 -43 27.5 -69t71.5 -26t71 26t27 69q0 53 -39 76h39q32 0 50.5 -19.5t18.5 -53.5q-1 -36 -17 -60q-3 -3 2 -6l16 -9h1q1 -1 2 -1t3 3q20 35 20 73q0 45 -26.5 73t-71.5 28l-187 -1q-3 0 -3 -4v-12q0 -3 3 -6l33 -5q-41 -25 -41 -76zM240 52q32 0 51.5 19t19.5 51
q0 33 -19.5 53.5t-51.5 20.5q-31 0 -51 -21t-20 -53q0 -31 19.5 -50.5t51.5 -19.5zM227 265v139q-27 -4 -43 -22.5t-16 -46.5q0 -29 16 -47.5t43 -22.5zM252 265v164q0 3 -4 3q-48 0 -77 -25t-29 -72q0 -44 27 -71t71 -27t71 28t27 74q0 49 -30 76q-2 2 -3 2q-2 0 -4 -2
l-12 -13q-3 -4 1 -7q20 -20 20 -56q0 -30 -16 -50t-42 -24zM240 457q44 0 71 27.5t27 70.5t-27 70t-71 27t-71 -27t-27 -70t27 -70.5t71 -27.5zM240 484q-32 0 -52 20t-20 51t20 50.5t52 19.5t51 -19.5t19 -50.5q0 -32 -19.5 -51.5t-50.5 -19.5zM50 -240v937h433v-937h-433z
" />
    <glyph glyph-name="onesuperior" unicode="&#xb9;" 
d="M181 -29q-40 -25 -40 -75q0 -43 27.5 -69.5t71.5 -26.5t71 26.5t27 69.5q0 51 -39 75l31 5q4 0 4 4v14q0 5 -5 5h-180q-3 0 -3 -5v-13q0 -2 3 -5zM240 -173q-32 0 -52 20t-20 51q0 32 20 51.5t52 21.5q32 -2 51 -21.5t19 -51.5t-19.5 -51.5t-50.5 -19.5zM141 120
q0 -43 27.5 -69t71.5 -26t71 26t27 69q0 53 -39 76h39q32 0 50.5 -19.5t18.5 -53.5q-1 -36 -17 -60q-3 -3 2 -6l16 -9h1q1 -1 2 -1t3 3q20 35 20 73q0 45 -26.5 73t-71.5 28l-187 -1q-3 0 -3 -4v-12q0 -3 3 -6l33 -5q-41 -25 -41 -76zM240 52q32 0 51.5 19t19.5 51
q0 33 -19.5 53.5t-51.5 20.5q-31 0 -51 -21t-20 -53q0 -31 19.5 -50.5t51.5 -19.5zM227 265v139q-27 -4 -43 -22.5t-16 -46.5q0 -29 16 -47.5t43 -22.5zM252 265v164q0 3 -4 3q-48 0 -77 -25t-29 -72q0 -44 27 -71t71 -27t71 28t27 74q0 49 -30 76q-2 2 -3 2q-2 0 -4 -2
l-12 -13q-3 -4 1 -7q20 -20 20 -56q0 -30 -16 -50t-42 -24zM240 457q44 0 71 27.5t27 70.5t-27 70t-71 27t-71 -27t-27 -70t27 -70.5t71 -27.5zM240 484q-32 0 -52 20t-20 51t20 50.5t52 19.5t51 -19.5t19 -50.5q0 -32 -19.5 -51.5t-50.5 -19.5zM50 -240v937h433v-937h-433z
" />
    <glyph glyph-name="ordmasculine" unicode="&#xba;" 
d="M181 -29q-40 -25 -40 -75q0 -43 27.5 -69.5t71.5 -26.5t71 26.5t27 69.5q0 51 -39 75l31 5q4 0 4 4v14q0 5 -5 5h-180q-3 0 -3 -5v-13q0 -2 3 -5zM240 -173q-32 0 -52 20t-20 51q0 32 20 51.5t52 21.5q32 -2 51 -21.5t19 -51.5t-19.5 -51.5t-50.5 -19.5zM141 120
q0 -43 27.5 -69t71.5 -26t71 26t27 69q0 53 -39 76h39q32 0 50.5 -19.5t18.5 -53.5q-1 -36 -17 -60q-3 -3 2 -6l16 -9h1q1 -1 2 -1t3 3q20 35 20 73q0 45 -26.5 73t-71.5 28l-187 -1q-3 0 -3 -4v-12q0 -3 3 -6l33 -5q-41 -25 -41 -76zM240 52q32 0 51.5 19t19.5 51
q0 33 -19.5 53.5t-51.5 20.5q-31 0 -51 -21t-20 -53q0 -31 19.5 -50.5t51.5 -19.5zM227 265v139q-27 -4 -43 -22.5t-16 -46.5q0 -29 16 -47.5t43 -22.5zM252 265v164q0 3 -4 3q-48 0 -77 -25t-29 -72q0 -44 27 -71t71 -27t71 28t27 74q0 49 -30 76q-2 2 -3 2q-2 0 -4 -2
l-12 -13q-3 -4 1 -7q20 -20 20 -56q0 -30 -16 -50t-42 -24zM240 457q44 0 71 27.5t27 70.5t-27 70t-71 27t-71 -27t-27 -70t27 -70.5t71 -27.5zM240 484q-32 0 -52 20t-20 51t20 50.5t52 19.5t51 -19.5t19 -50.5q0 -32 -19.5 -51.5t-50.5 -19.5zM50 -240v937h433v-937h-433z
" />
    <glyph glyph-name="guillemotright" unicode="&#xbb;" 
d="M181 -29q-40 -25 -40 -75q0 -43 27.5 -69.5t71.5 -26.5t71 26.5t27 69.5q0 51 -39 75l31 5q4 0 4 4v14q0 5 -5 5h-180q-3 0 -3 -5v-13q0 -2 3 -5zM240 -173q-32 0 -52 20t-20 51q0 32 20 51.5t52 21.5q32 -2 51 -21.5t19 -51.5t-19.5 -51.5t-50.5 -19.5zM141 120
q0 -43 27.5 -69t71.5 -26t71 26t27 69q0 53 -39 76h39q32 0 50.5 -19.5t18.5 -53.5q-1 -36 -17 -60q-3 -3 2 -6l16 -9h1q1 -1 2 -1t3 3q20 35 20 73q0 45 -26.5 73t-71.5 28l-187 -1q-3 0 -3 -4v-12q0 -3 3 -6l33 -5q-41 -25 -41 -76zM240 52q32 0 51.5 19t19.5 51
q0 33 -19.5 53.5t-51.5 20.5q-31 0 -51 -21t-20 -53q0 -31 19.5 -50.5t51.5 -19.5zM227 265v139q-27 -4 -43 -22.5t-16 -46.5q0 -29 16 -47.5t43 -22.5zM252 265v164q0 3 -4 3q-48 0 -77 -25t-29 -72q0 -44 27 -71t71 -27t71 28t27 74q0 49 -30 76q-2 2 -3 2q-2 0 -4 -2
l-12 -13q-3 -4 1 -7q20 -20 20 -56q0 -30 -16 -50t-42 -24zM240 457q44 0 71 27.5t27 70.5t-27 70t-71 27t-71 -27t-27 -70t27 -70.5t71 -27.5zM240 484q-32 0 -52 20t-20 51t20 50.5t52 19.5t51 -19.5t19 -50.5q0 -32 -19.5 -51.5t-50.5 -19.5zM50 -240v937h433v-937h-433z
" />
    <glyph glyph-name="onequarter" unicode="&#xbc;" 
d="M181 -29q-40 -25 -40 -75q0 -43 27.5 -69.5t71.5 -26.5t71 26.5t27 69.5q0 51 -39 75l31 5q4 0 4 4v14q0 5 -5 5h-180q-3 0 -3 -5v-13q0 -2 3 -5zM240 -173q-32 0 -52 20t-20 51q0 32 20 51.5t52 21.5q32 -2 51 -21.5t19 -51.5t-19.5 -51.5t-50.5 -19.5zM141 120
q0 -43 27.5 -69t71.5 -26t71 26t27 69q0 53 -39 76h39q32 0 50.5 -19.5t18.5 -53.5q-1 -36 -17 -60q-3 -3 2 -6l16 -9h1q1 -1 2 -1t3 3q20 35 20 73q0 45 -26.5 73t-71.5 28l-187 -1q-3 0 -3 -4v-12q0 -3 3 -6l33 -5q-41 -25 -41 -76zM240 52q32 0 51.5 19t19.5 51
q0 33 -19.5 53.5t-51.5 20.5q-31 0 -51 -21t-20 -53q0 -31 19.5 -50.5t51.5 -19.5zM227 265v139q-27 -4 -43 -22.5t-16 -46.5q0 -29 16 -47.5t43 -22.5zM252 265v164q0 3 -4 3q-48 0 -77 -25t-29 -72q0 -44 27 -71t71 -27t71 28t27 74q0 49 -30 76q-2 2 -3 2q-2 0 -4 -2
l-12 -13q-3 -4 1 -7q20 -20 20 -56q0 -30 -16 -50t-42 -24zM240 457q44 0 71 27.5t27 70.5t-27 70t-71 27t-71 -27t-27 -70t27 -70.5t71 -27.5zM240 484q-32 0 -52 20t-20 51t20 50.5t52 19.5t51 -19.5t19 -50.5q0 -32 -19.5 -51.5t-50.5 -19.5zM50 -240v937h433v-937h-433z
" />
    <glyph glyph-name="onehalf" unicode="&#xbd;" 
d="M181 -29q-40 -25 -40 -75q0 -43 27.5 -69.5t71.5 -26.5t71 26.5t27 69.5q0 51 -39 75l31 5q4 0 4 4v14q0 5 -5 5h-180q-3 0 -3 -5v-13q0 -2 3 -5zM240 -173q-32 0 -52 20t-20 51q0 32 20 51.5t52 21.5q32 -2 51 -21.5t19 -51.5t-19.5 -51.5t-50.5 -19.5zM141 120
q0 -43 27.5 -69t71.5 -26t71 26t27 69q0 53 -39 76h39q32 0 50.5 -19.5t18.5 -53.5q-1 -36 -17 -60q-3 -3 2 -6l16 -9h1q1 -1 2 -1t3 3q20 35 20 73q0 45 -26.5 73t-71.5 28l-187 -1q-3 0 -3 -4v-12q0 -3 3 -6l33 -5q-41 -25 -41 -76zM240 52q32 0 51.5 19t19.5 51
q0 33 -19.5 53.5t-51.5 20.5q-31 0 -51 -21t-20 -53q0 -31 19.5 -50.5t51.5 -19.5zM227 265v139q-27 -4 -43 -22.5t-16 -46.5q0 -29 16 -47.5t43 -22.5zM252 265v164q0 3 -4 3q-48 0 -77 -25t-29 -72q0 -44 27 -71t71 -27t71 28t27 74q0 49 -30 76q-2 2 -3 2q-2 0 -4 -2
l-12 -13q-3 -4 1 -7q20 -20 20 -56q0 -30 -16 -50t-42 -24zM240 457q44 0 71 27.5t27 70.5t-27 70t-71 27t-71 -27t-27 -70t27 -70.5t71 -27.5zM240 484q-32 0 -52 20t-20 51t20 50.5t52 19.5t51 -19.5t19 -50.5q0 -32 -19.5 -51.5t-50.5 -19.5zM50 -240v937h433v-937h-433z
" />
    <glyph glyph-name="threequarters" unicode="&#xbe;" 
d="M181 -29q-40 -25 -40 -75q0 -43 27.5 -69.5t71.5 -26.5t71 26.5t27 69.5q0 51 -39 75l31 5q4 0 4 4v14q0 5 -5 5h-180q-3 0 -3 -5v-13q0 -2 3 -5zM240 -173q-32 0 -52 20t-20 51q0 32 20 51.5t52 21.5q32 -2 51 -21.5t19 -51.5t-19.5 -51.5t-50.5 -19.5zM141 120
q0 -43 27.5 -69t71.5 -26t71 26t27 69q0 53 -39 76h39q32 0 50.5 -19.5t18.5 -53.5q-1 -36 -17 -60q-3 -3 2 -6l16 -9h1q1 -1 2 -1t3 3q20 35 20 73q0 45 -26.5 73t-71.5 28l-187 -1q-3 0 -3 -4v-12q0 -3 3 -6l33 -5q-41 -25 -41 -76zM240 52q32 0 51.5 19t19.5 51
q0 33 -19.5 53.5t-51.5 20.5q-31 0 -51 -21t-20 -53q0 -31 19.5 -50.5t51.5 -19.5zM227 265v139q-27 -4 -43 -22.5t-16 -46.5q0 -29 16 -47.5t43 -22.5zM252 265v164q0 3 -4 3q-48 0 -77 -25t-29 -72q0 -44 27 -71t71 -27t71 28t27 74q0 49 -30 76q-2 2 -3 2q-2 0 -4 -2
l-12 -13q-3 -4 1 -7q20 -20 20 -56q0 -30 -16 -50t-42 -24zM240 457q44 0 71 27.5t27 70.5t-27 70t-71 27t-71 -27t-27 -70t27 -70.5t71 -27.5zM240 484q-32 0 -52 20t-20 51t20 50.5t52 19.5t51 -19.5t19 -50.5q0 -32 -19.5 -51.5t-50.5 -19.5zM50 -240v937h433v-937h-433z
" />
    <glyph glyph-name="questiondown" unicode="&#xbf;" 
d="M181 -29q-40 -25 -40 -75q0 -43 27.5 -69.5t71.5 -26.5t71 26.5t27 69.5q0 51 -39 75l31 5q4 0 4 4v14q0 5 -5 5h-180q-3 0 -3 -5v-13q0 -2 3 -5zM240 -173q-32 0 -52 20t-20 51q0 32 20 51.5t52 21.5q32 -2 51 -21.5t19 -51.5t-19.5 -51.5t-50.5 -19.5zM141 120
q0 -43 27.5 -69t71.5 -26t71 26t27 69q0 53 -39 76h39q32 0 50.5 -19.5t18.5 -53.5q-1 -36 -17 -60q-3 -3 2 -6l16 -9h1q1 -1 2 -1t3 3q20 35 20 73q0 45 -26.5 73t-71.5 28l-187 -1q-3 0 -3 -4v-12q0 -3 3 -6l33 -5q-41 -25 -41 -76zM240 52q32 0 51.5 19t19.5 51
q0 33 -19.5 53.5t-51.5 20.5q-31 0 -51 -21t-20 -53q0 -31 19.5 -50.5t51.5 -19.5zM227 265v139q-27 -4 -43 -22.5t-16 -46.5q0 -29 16 -47.5t43 -22.5zM252 265v164q0 3 -4 3q-48 0 -77 -25t-29 -72q0 -44 27 -71t71 -27t71 28t27 74q0 49 -30 76q-2 2 -3 2q-2 0 -4 -2
l-12 -13q-3 -4 1 -7q20 -20 20 -56q0 -30 -16 -50t-42 -24zM240 457q44 0 71 27.5t27 70.5t-27 70t-71 27t-71 -27t-27 -70t27 -70.5t71 -27.5zM240 484q-32 0 -52 20t-20 51t20 50.5t52 19.5t51 -19.5t19 -50.5q0 -32 -19.5 -51.5t-50.5 -19.5zM50 -240v937h433v-937h-433z
" />
    <glyph glyph-name="Agrave" unicode="&#xc0;" horiz-adv-x="657" 
d="M474 197h-291l-76 -190q-1 -7 -10 -7h-84q-13 0 -8 11l267 673q3 9 13 9h87q10 0 13 -9l267 -673q5 -11 -8 -11h-84q-8 0 -11 7zM329 566l-111 -279h221zM391 709l-188 98q-3 2 -4 6t2 7l38 64q3 5 8 5t7 -2l170 -126q8 -6 3 -13l-23 -36q-3 -5 -8 -5q-1 0 -5 2z" />
    <glyph glyph-name="Aacute" unicode="&#xc1;" horiz-adv-x="657" 
d="M474 197h-291l-76 -190q-1 -7 -10 -7h-84q-13 0 -8 11l267 673q3 9 13 9h87q10 0 13 -9l267 -673q5 -11 -8 -11h-84q-8 0 -11 7zM329 566l-111 -279h221zM416 886l39 -64q6 -9 -4 -14l-186 -98q-4 -2 -6 -2q-5 0 -8 5l-22 36q-6 8 3 13l170 126q2 2 6 2q5 0 8 -4z" />
    <glyph glyph-name="Acircumflex" unicode="&#xc2;" horiz-adv-x="657" 
d="M474 197h-291l-76 -190q-1 -7 -10 -7h-84q-13 0 -8 11l267 673q3 9 13 9h87q10 0 13 -9l267 -673q5 -11 -8 -11h-84q-8 0 -11 7zM329 566l-111 -279h221zM329 802l-63 -53q-7 -5 -12 -5h-87q-13 0 -3 10l117 99q6 6 14 6h68q7 0 13 -6l117 -99q12 -10 -4 -10h-85
q-6 0 -13 5z" />
    <glyph glyph-name="Atilde" unicode="&#xc3;" horiz-adv-x="657" 
d="M474 197h-291l-76 -190q-1 -7 -10 -7h-84q-13 0 -8 11l267 673q3 9 13 9h87q10 0 13 -9l267 -673q5 -11 -8 -11h-84q-8 0 -11 7zM329 566l-111 -279h221zM231 749q-1 -7 -8 -7q-1 0 -5 2l-27 26q-6 6 -5 13q14 40 39.5 64t52.5 24q22 0 40 -11.5t27.5 -25t23 -24.5
t27.5 -11q32 1 50 50q2 6 8 6q1 0 5 -2l28 -26q7 -5 4 -12q-13 -41 -38.5 -64.5t-53.5 -23.5q-22 0 -40 11.5t-27.5 25t-23 24.5t-27.5 11q-32 -1 -50 -50z" />
    <glyph glyph-name="Adieresis" unicode="&#xc4;" horiz-adv-x="657" 
d="M474 197h-291l-76 -190q-1 -7 -10 -7h-84q-13 0 -8 11l267 673q3 9 13 9h87q10 0 13 -9l267 -673q5 -11 -8 -11h-84q-8 0 -11 7zM329 566l-111 -279h221zM187 791q0 28 16.5 44.5t43.5 16.5q28 0 44.5 -16.5t16.5 -44.5q0 -26 -17 -43t-44 -17t-43.5 17t-16.5 43z
M349 791q0 28 16.5 44.5t43.5 16.5q28 0 44 -16.5t16 -44.5q0 -26 -16.5 -43t-43.5 -17t-43.5 17t-16.5 43z" />
    <glyph glyph-name="Aring" unicode="&#xc5;" horiz-adv-x="657" 
d="M474 197h-291l-76 -190q-1 -7 -10 -7h-84q-13 0 -8 11l267 673q3 9 13 9h87q10 0 13 -9l267 -673q5 -11 -8 -11h-84q-8 0 -11 7zM329 566l-111 -279h221zM233 802q0 42 25.5 67.5t66.5 25.5q43 0 68.5 -25.5t25.5 -67.5t-25.5 -67.5t-68.5 -25.5q-41 0 -66.5 25.5
t-25.5 67.5zM283 802q0 -20 12 -32t31 -12t31 12t12 32t-11.5 31.5t-31.5 11.5t-31.5 -11.5t-11.5 -31.5z" />
    <glyph glyph-name="AE" unicode="&#xc6;" horiz-adv-x="816" 
d="M99 0h-88q-8 0 -10.5 4t1.5 10l365 671q5 9 15 9h376q11 0 11 -12v-69q0 -12 -11 -12h-219v-201h172q10 0 10 -11v-71q0 -10 -10 -10h-172v-215h229q10 0 10 -10v-73q0 -10 -9 -10h-323q-10 2 -10 11v188h-222l-102 -191q-5 -8 -13 -8zM261 289h175v327z" />
    <glyph glyph-name="Ccedilla" unicode="&#xc7;" horiz-adv-x="675" 
d="M642 96q7 -7 0 -14q-81 -79 -211 -90l-11 -27q84 -11 84 -81q0 -42 -31 -66t-78 -24q-62 0 -104 35q-8 5 -2 11l20 31q3 3 6 3q4 0 6 -1q30 -19 68 -19q20 0 32 9t12 24q0 29 -53 29h-47q-9 0 -5 9l29 66q-144 11 -231.5 108.5t-87.5 246.5q0 114 52.5 197t131.5 121.5
t170 38.5q149 0 248 -93q7 -6 0 -13l-50 -61q-2 -3 -6 -3t-8 3q-75 65 -180 65q-115 0 -184.5 -69.5t-69.5 -185.5q0 -114 69 -184t181 -70q108 0 184 66q4 3 8 3t6 -3z" />
    <glyph glyph-name="Egrave" unicode="&#xc8;" horiz-adv-x="523" 
d="M181 306v-209h294q10 0 10 -10v-78q0 -9 -9 -9h-389q-9 0 -9 10v674q0 10 10 10h378q9 0 9 -10v-78q0 -9 -9 -9h-285v-195h237q10 0 10 -10v-76q0 -10 -10 -10h-237zM328 709l-188 98q-3 2 -4 6t2 7l38 64q2 5 8 5q5 0 7 -2l170 -126q7 -5 3 -13l-23 -36q-3 -5 -8 -5
q-1 0 -5 2z" />
    <glyph glyph-name="Eacute" unicode="&#xc9;" horiz-adv-x="523" 
d="M181 306v-209h294q10 0 10 -10v-78q0 -9 -9 -9h-389q-9 0 -9 10v674q0 10 10 10h378q9 0 9 -10v-78q0 -9 -9 -9h-285v-195h237q10 0 10 -10v-76q0 -10 -10 -10h-237zM377 886l39 -64q6 -9 -4 -14l-186 -98q-4 -2 -6 -2q-5 0 -8 5l-22 36q-6 8 3 13l170 126q2 2 6 2
q5 0 8 -4z" />
    <glyph glyph-name="Ecircumflex" unicode="&#xca;" horiz-adv-x="523" 
d="M181 306v-209h294q10 0 10 -10v-78q0 -9 -9 -9h-389q-9 0 -9 10v674q0 10 10 10h378q9 0 9 -10v-78q0 -9 -9 -9h-285v-195h237q10 0 10 -10v-76q0 -10 -10 -10h-237zM284 796l-62 -53q-7 -5 -13 -5h-86q-6 0 -7 2.5t4 6.5l117 100q6 6 13 6h69q7 0 13 -6l117 -100
q3 -2 3.5 -4.5t-1.5 -3.5t-6 -1h-86q-5 0 -12 5z" />
    <glyph glyph-name="Edieresis" unicode="&#xcb;" horiz-adv-x="523" 
d="M181 306v-209h294q10 0 10 -10v-78q0 -9 -9 -9h-389q-9 0 -9 10v674q0 10 10 10h378q9 0 9 -10v-78q0 -9 -9 -9h-285v-195h237q10 0 10 -10v-76q0 -10 -10 -10h-237zM141 795q0 26 15.5 42t41.5 16t42 -16t16 -42q0 -25 -16 -41t-42 -16t-41.5 16t-15.5 41zM296 795
q0 26 15.5 42t41.5 16t41.5 -16t15.5 -42q0 -25 -16 -41t-41 -16q-26 0 -41.5 15.5t-15.5 41.5z" />
    <glyph glyph-name="Igrave" unicode="&#xcc;" horiz-adv-x="258" 
d="M181 684v-675q0 -9 -10 -9h-84q-9 0 -9 9v675q0 10 9 10h84q10 0 10 -10zM188 709l-187 98q-11 5 -3 13l38 64q2 5 9 5q4 0 6 -2l170 -126q8 -6 3 -13l-23 -36q-2 -5 -7 -5q-2 0 -6 2z" />
    <glyph glyph-name="Iacute" unicode="&#xcd;" horiz-adv-x="258" 
d="M181 684v-675q0 -9 -10 -9h-84q-9 0 -9 9v675q0 10 9 10h84q10 0 10 -10zM217 886l39 -64q6 -9 -4 -14l-186 -98q-4 -2 -6 -2q-5 0 -8 5l-22 36q-6 8 3 13l170 126q2 2 6 2q5 0 8 -4z" />
    <glyph glyph-name="Icircumflex" unicode="&#xce;" horiz-adv-x="258" 
d="M171 0h-84q-9 0 -9 9v675q0 10 9 10h84q10 0 10 -10v-675q0 -9 -10 -9zM178 858l123 -106q3 -2 4 -4.5t-1 -4t-7 -1.5h-89q-6 0 -14 6l-66 56l-66 -56q-6 -6 -13 -6h-90q-7 0 -8 3t4 7l124 106q6 6 13 6h73q5 0 13 -6z" />
    <glyph glyph-name="Idieresis" unicode="&#xcf;" horiz-adv-x="258" 
d="M181 684v-675q0 -9 -10 -9h-84q-9 0 -9 9v675q0 10 9 10h84q10 0 10 -10zM-12 795q0 28 16.5 44.5t45.5 16.5q26 0 42 -17t16 -44q0 -26 -16.5 -43t-43.5 -17t-43.5 17t-16.5 43zM150 795q0 28 16.5 44.5t45.5 16.5q26 0 42 -17t16 -44q0 -26 -16.5 -43t-43.5 -17
t-43.5 17t-16.5 43z" />
    <glyph glyph-name="Eth" unicode="&#xd0;" horiz-adv-x="673" 
d="M283 0h-196q-9 0 -9 10v300h-49q-10 0 -10 10v46q0 10 10 10h49v308q0 10 10 10h195q161 0 258 -94t97 -253q0 -160 -97 -253.5t-258 -93.5zM181 97h102q115 0 183.5 67.5t68.5 182.5t-69 183t-184 68h-101v-222h134q9 0 9 -10v-46q0 -10 -9 -10h-134v-213z" />
    <glyph glyph-name="Ntilde" unicode="&#xd1;" horiz-adv-x="715" 
d="M544 694h84q10 0 10 -10l-1 -674q0 -10 -9 -10h-99q-7 0 -11 6l-337 522v-518q0 -10 -10 -10h-84q-10 0 -10 10v674q0 10 10 10h99q8 0 12 -7l336 -520v517q0 10 10 10zM247 747q-3 -7 -8 -7q-1 0 -5 2l-29 27q-6 4 -3 12q14 43 40 67t54 24q23 0 41 -11.5t28 -25.5
t23.5 -25.5t28.5 -10.5q32 0 51 50q3 7 8 7q2 0 6 -2l29 -27q6 -3 4 -12q-14 -42 -40 -66t-55 -24q-22 0 -40.5 11.5t-29 25.5t-24.5 25.5t-28 10.5q-31 -1 -51 -51z" />
    <glyph glyph-name="Ograve" unicode="&#xd2;" horiz-adv-x="789" 
d="M38 347q0 160 98.5 258t258.5 98t257.5 -98t97.5 -258q0 -161 -97.5 -258.5t-257.5 -97.5q-161 0 -259 98t-98 258zM142 347q0 -115 69.5 -184.5t183.5 -69.5q113 0 182.5 70t69.5 184t-69.5 184t-182.5 70q-114 0 -183.5 -69.5t-69.5 -184.5zM445 713l-188 98q-3 2 -4 6
t2 7l38 64q3 5 8 5t7 -2l170 -126q8 -6 3 -13l-23 -36q-3 -5 -8 -5q-1 0 -5 2z" />
    <glyph glyph-name="Oacute" unicode="&#xd3;" horiz-adv-x="789" 
d="M38 347q0 160 98.5 258t258.5 98t257.5 -98t97.5 -258q0 -161 -97.5 -258.5t-257.5 -97.5q-161 0 -259 98t-98 258zM142 347q0 -115 69.5 -184.5t183.5 -69.5q113 0 182.5 70t69.5 184t-69.5 184t-182.5 70q-114 0 -183.5 -69.5t-69.5 -184.5zM487 886l39 -64
q6 -9 -4 -14l-186 -98q-4 -2 -6 -2q-5 0 -8 5l-22 36q-6 8 3 13l170 126q2 2 6 2q5 0 8 -4z" />
    <glyph glyph-name="Ocircumflex" unicode="&#xd4;" horiz-adv-x="789" 
d="M39 347q0 161 98 258.5t259 97.5q160 0 257.5 -98t97.5 -258t-97.5 -258.5t-257.5 -98.5q-161 0 -259 98.5t-98 258.5zM142 347q0 -115 69.5 -185t184.5 -70q113 0 182.5 70t69.5 185q1 115 -68.5 185t-183.5 70t-184.5 -70t-69.5 -185zM392 803l-63 -54q-8 -4 -12 -4
h-87q-12 0 -2 9l116 100q6 6 14 6h68q8 0 13 -6l117 -100q10 -9 -4 -9h-85q-6 0 -12 4z" />
    <glyph glyph-name="Otilde" unicode="&#xd5;" horiz-adv-x="789" 
d="M38 347q0 160 98.5 258t258.5 98t257.5 -98t97.5 -258q0 -161 -97.5 -258.5t-257.5 -97.5q-161 0 -259 98t-98 258zM142 347q0 -115 69.5 -184.5t183.5 -69.5q113 0 182.5 70t69.5 184t-69.5 184t-182.5 70q-114 0 -183.5 -69.5t-69.5 -184.5zM285 747q-3 -7 -9 -7
q-1 0 -5 2l-28 27q-7 4 -4 12q14 42 40 66.5t54 24.5q19 0 34 -7.5t25 -18.5t19.5 -22t20 -18.5t23.5 -6.5q32 0 51 50q3 7 8 7q1 0 5 -2l30 -27q6 -3 4 -12q-14 -42 -40 -66t-55 -24q-19 0 -34 7.5t-25.5 18.5t-19.5 22t-20 18.5t-23 6.5q-33 -1 -51 -51z" />
    <glyph glyph-name="Odieresis" unicode="&#xd6;" horiz-adv-x="789" 
d="M38 347q0 160 98.5 258t258.5 98t257.5 -98t97.5 -258q0 -161 -97.5 -258.5t-257.5 -97.5q-161 0 -259 98t-98 258zM142 347q0 -115 69.5 -184.5t183.5 -69.5q113 0 182.5 70t69.5 184t-69.5 184t-182.5 70q-114 0 -183.5 -69.5t-69.5 -184.5zM253 795q0 28 16.5 44.5
t45.5 16.5q26 0 42.5 -17t16.5 -44q0 -26 -17 -43t-44 -17t-43.5 17t-16.5 43zM416 795q0 29 16 45t45 16q27 0 42.5 -17t15.5 -44t-16.5 -43.5t-43.5 -16.5t-43 16.5t-16 43.5z" />
    <glyph glyph-name="multiply" unicode="&#xd7;" 
d="M181 -29q-40 -25 -40 -75q0 -43 27.5 -69.5t71.5 -26.5t71 26.5t27 69.5q0 51 -39 75l31 5q4 0 4 4v14q0 5 -5 5h-180q-3 0 -3 -5v-13q0 -2 3 -5zM240 -173q-32 0 -52 20t-20 51q0 32 20 51.5t52 21.5q32 -2 51 -21.5t19 -51.5t-19.5 -51.5t-50.5 -19.5zM141 120
q0 -43 27.5 -69t71.5 -26t71 26t27 69q0 53 -39 76h39q32 0 50.5 -19.5t18.5 -53.5q-1 -36 -17 -60q-3 -3 2 -6l16 -9h1q1 -1 2 -1t3 3q20 35 20 73q0 45 -26.5 73t-71.5 28l-187 -1q-3 0 -3 -4v-12q0 -3 3 -6l33 -5q-41 -25 -41 -76zM240 52q32 0 51.5 19t19.5 51
q0 33 -19.5 53.5t-51.5 20.5q-31 0 -51 -21t-20 -53q0 -31 19.5 -50.5t51.5 -19.5zM227 265v139q-27 -4 -43 -22.5t-16 -46.5q0 -29 16 -47.5t43 -22.5zM252 265v164q0 3 -4 3q-48 0 -77 -25t-29 -72q0 -44 27 -71t71 -27t71 28t27 74q0 49 -30 76q-2 2 -3 2q-2 0 -4 -2
l-12 -13q-3 -4 1 -7q20 -20 20 -56q0 -30 -16 -50t-42 -24zM240 457q44 0 71 27.5t27 70.5t-27 70t-71 27t-71 -27t-27 -70t27 -70.5t71 -27.5zM240 484q-32 0 -52 20t-20 51t20 50.5t52 19.5t51 -19.5t19 -50.5q0 -32 -19.5 -51.5t-50.5 -19.5zM50 -240v937h433v-937h-433z
" />
    <glyph glyph-name="Oslash" unicode="&#xd8;" horiz-adv-x="765" 
d="M395 703q128 0 221 -66l54 60q3 4 8 4q4 0 7 -3l30 -27q7 -7 0 -14l-54 -61q89 -95 89 -249q0 -161 -97.5 -258.5t-257.5 -97.5q-127 0 -219 64l-65 -73q-3 -3 -7 -3t-7 3l-30 27q-7 6 -1 14l64 72q-92 98 -92 252q0 160 98.5 258t258.5 98zM201 174l344 384
q-61 43 -150 43q-114 0 -183.5 -69.5t-69.5 -184.5q0 -106 59 -173zM395 93q113 0 182.5 70t69.5 184q0 102 -57 170l-343 -383q63 -41 148 -41z" />
    <glyph glyph-name="Ugrave" unicode="&#xd9;" horiz-adv-x="657" 
d="M69 272v412q0 9 10 9h84q10 0 10 -9v-413q0 -86 42 -132t114 -46q71 0 113 46t41 132v413q0 9 10 9h85q9 0 9 -9v-413q0 -135 -72 -207.5t-186 -72.5q-115 0 -187.5 73t-72.5 208zM371 709l-187 98q-11 5 -3 13l38 64q3 5 9 5q4 0 6 -2l170 -126q8 -6 3 -13l-23 -36
q-2 -5 -7 -5q-2 0 -6 2z" />
    <glyph glyph-name="Uacute" unicode="&#xda;" horiz-adv-x="657" 
d="M69 272v412q0 9 10 9h84q10 0 10 -9v-413q0 -86 42 -132t114 -46q71 0 113 46t41 132v413q0 9 10 9h85q9 0 9 -9v-413q0 -135 -72 -207.5t-186 -72.5q-115 0 -187.5 73t-72.5 208zM416 886l39 -64q6 -9 -4 -14l-186 -98q-4 -2 -6 -2q-5 0 -8 5l-22 36q-6 8 3 13l170 126
q2 2 6 2q5 0 8 -4z" />
    <glyph glyph-name="Ucircumflex" unicode="&#xdb;" horiz-adv-x="657" 
d="M69 272v412q0 10 10 10h83q10 0 10 -10v-412q0 -87 42 -133.5t114 -46.5t114 46.5t42 133.5v412q0 10 9 10h84q10 0 10 -10v-412q-1 -135 -73 -208t-186 -74q-114 0 -186.5 73.5t-72.5 208.5zM329 803l-63 -54q-8 -4 -12 -4h-87q-12 0 -3 9l117 100q6 6 13 6h69
q7 0 13 -6l117 -100q10 -9 -4 -9h-85q-5 0 -13 4z" />
    <glyph glyph-name="Udieresis" unicode="&#xdc;" horiz-adv-x="657" 
d="M69 272v412q0 9 10 9h84q10 0 10 -9v-413q0 -86 42 -132t114 -46q71 0 113 46t41 132v413q0 9 10 9h85q9 0 9 -9v-413q0 -135 -72 -207.5t-186 -72.5q-115 0 -187.5 73t-72.5 208zM187 795q0 28 16.5 44.5t45.5 16.5q26 0 42.5 -17t16.5 -44q0 -26 -17 -43t-44 -17
t-43.5 17t-16.5 43zM350 795q0 28 16.5 44.5t45.5 16.5q26 0 41.5 -17t15.5 -44t-16 -43.5t-43 -16.5t-43.5 17t-16.5 43z" />
    <glyph glyph-name="Yacute" unicode="&#xdd;" horiz-adv-x="590" 
d="M243 9v267l-238 405q-7 12 7 12h91q9 0 14 -8l178 -317l178 317q5 8 14 8h91q14 0 7 -12l-238 -404v-268q0 -9 -10 -9h-84q-10 0 -10 9zM383 886l39 -64q6 -9 -4 -14l-186 -98q-4 -2 -6 -2q-5 0 -8 5l-22 36q-6 8 3 13l170 126q2 2 6 2q5 0 8 -4z" />
    <glyph glyph-name="Thorn" unicode="&#xde;" horiz-adv-x="551" 
d="M68 11v672q0 11 11 11h83q10 0 10 -10v-130h117q103 0 162.5 -56t60.5 -151q-1 -95 -60.5 -151t-162.5 -56h-117v-129q0 -11 -11 -11h-82q-11 0 -11 11zM172 457v-220h111q57 0 91 27t34 82q0 56 -34 83.5t-91 27.5h-111z" />
    <glyph glyph-name="germandbls" unicode="&#xdf;" horiz-adv-x="572" 
d="M289 96q29 -20 63 -20q36 1 57 20t21 46q0 25 -17 49.5t-41 45.5t-47.5 42t-40.5 48t-17 56q0 22 14 45t31.5 39t31.5 36t14 37q0 34 -22 51.5t-56 17.5q-25 0 -44 -8.5t-30.5 -26t-18.5 -36t-9.5 -47t-3.5 -51t-1 -54.5v-14v-362q0 -10 -11 -10h-81q-12 0 -12 11v465
q0 103 55.5 165.5t153.5 63.5q79 -1 131 -45t52 -120q0 -29 -14.5 -54t-32 -39.5t-33 -32t-16.5 -34.5q0 -15 17.5 -31t42.5 -33.5t49.5 -39t42 -56t17.5 -76.5q0 -75 -51.5 -123t-130.5 -48q-47 0 -102 26q-10 4 -5 16l31 77q2 6 7 6q2 0 6 -2z" />
    <glyph glyph-name="agrave" unicode="&#xe0;" horiz-adv-x="583" 
d="M424 391l14 61q4 9 11 9h62q9 0 9 -10v-441q0 -10 -10 -10h-62q-7 0 -11 9l-13 60q-54 -79 -159 -79q-104 -1 -168 65.5t-64 174.5q0 107 64 173t168 67q105 0 159 -79zM129 230q0 -64 39.5 -104t103.5 -40q65 0 105 39.5t41 104.5q-2 65 -42 104t-104 39t-103.5 -39.5
t-39.5 -103.5zM317 520l-164 111q-8 6 -2 14l48 58q3 4 7 4t7 -3l145 -140q4 -4 1 -11l-29 -32q-3 -3 -6 -3t-7 2z" />
    <glyph glyph-name="aacute" unicode="&#xe1;" horiz-adv-x="583" 
d="M424 391l14 61q4 9 11 9h62q9 0 9 -10v-441q0 -10 -10 -10h-62q-7 0 -11 9l-13 60q-54 -79 -159 -79q-104 -1 -168 65.5t-64 174.5q0 107 64 173t168 67q105 0 159 -79zM129 230q0 -64 39.5 -104t103.5 -40q65 0 105 39.5t41 104.5q-2 65 -42 104t-104 39t-103.5 -39.5
t-39.5 -103.5zM376 701l49 -60q7 -8 -2 -15l-169 -116q-4 -2 -6 -2q-5 0 -9 4l-27 33q-5 7 1 13l148 144q4 2 7 2q5 0 8 -3z" />
    <glyph glyph-name="acircumflex" unicode="&#xe2;" horiz-adv-x="583" 
d="M424 391l14 61q4 9 11 9h62q9 0 9 -10v-441q0 -10 -10 -10h-62q-7 0 -11 9l-13 60q-54 -79 -159 -79q-104 -1 -168 65.5t-64 174.5q0 107 64 173t168 67q105 0 159 -79zM129 230q0 -64 39.5 -104t103.5 -40q65 0 105 39.5t41 104.5q-2 65 -42 104t-104 39t-103.5 -39.5
t-39.5 -103.5zM126 541l103 133q5 6 13 6h72q10 0 14 -6l101 -132q7 -9 -3 -9h-76q-7 0 -10 5l-62 83l-61 -82q-3 -6 -12 -6h-75q-10 0 -4 8z" />
    <glyph glyph-name="atilde" unicode="&#xe3;" horiz-adv-x="583" 
d="M424 391l14 61q4 9 11 9h62q9 0 9 -10v-441q0 -10 -10 -10h-62q-7 0 -11 9l-13 60q-54 -79 -159 -79q-104 -1 -168 65.5t-64 174.5q0 107 64 173t168 67q105 0 159 -79zM129 230q0 -64 39.5 -104t103.5 -40q65 0 105 39.5t41 104.5q-2 65 -42 104t-104 39t-103.5 -39.5
t-39.5 -103.5zM174 550q-3 -7 -8 -7q-2 0 -6 2l-28 27q-6 4 -4 10q14 42 40 66t54 24q22 0 40 -11.5t27 -25t22.5 -24.5t28.5 -10q33 1 51 51q2 5 7 5q1 0 5 -2l31 -27q4 -3 3 -9q-13 -42 -39 -66t-55 -24q-22 0 -40 11.5t-28 25t-23 24.5t-27 10q-33 -1 -51 -50z" />
    <glyph glyph-name="adieresis" unicode="&#xe4;" horiz-adv-x="583" 
d="M424 391l14 61q4 9 11 9h62q9 0 9 -10v-441q0 -10 -10 -10h-62q-7 0 -11 9l-13 60q-54 -79 -159 -79q-104 -1 -168 65.5t-64 174.5q0 107 64 173t168 67q105 0 159 -79zM129 230q0 -64 39.5 -104t103.5 -40q65 0 105 39.5t41 104.5q-2 65 -42 104t-104 39t-103.5 -39.5
t-39.5 -103.5zM147 605q0 27 16.5 44t43.5 17t44 -17t17 -44t-17 -44t-44 -17t-43.5 17t-16.5 44zM310 605q0 27 16.5 44t43.5 17t43 -17t16 -44t-16 -44t-43 -17t-43.5 17t-16.5 44z" />
    <glyph glyph-name="aring" unicode="&#xe5;" horiz-adv-x="583" 
d="M424 391l14 61q4 9 11 9h62q9 0 9 -10v-441q0 -10 -10 -10h-62q-7 0 -11 9l-13 60q-54 -79 -159 -79q-104 -1 -168 65.5t-64 174.5q0 107 64 173t168 67q105 0 159 -79zM129 230q0 -64 39.5 -104t103.5 -40q65 0 105 39.5t41 104.5q-2 65 -42 104t-104 39t-103.5 -39.5
t-39.5 -103.5zM195 614q0 42 25.5 67.5t67.5 25.5t67.5 -25.5t25.5 -67.5t-25.5 -67.5t-67.5 -25.5t-67.5 25.5t-25.5 67.5zM248 614q0 -18 11 -29t29 -11t29 10.5t11 29.5q0 17 -11 28.5t-29 11.5q-17 0 -28.5 -11.5t-11.5 -28.5z" />
    <glyph glyph-name="ae" unicode="&#xe6;" horiz-adv-x="935" 
d="M790 124q4 4 9 4q3 0 6 -3l51 -51q7 -9 1 -15q-65 -69 -186 -69q-91 0 -151 49v-30q-2 -9 -10 -9h-62q-8 0 -11 10l-13 59q-54 -79 -159 -79q-104 -1 -168 65.5t-64 174.5q0 107 64 173t168 67q105 0 159 -79l14 60q2 10 12 10h60q10 0 10 -10v-28q58 47 143 47
q116 0 177.5 -73.5t61.5 -195.5q0 -10 -10 -10h-365q10 -50 49 -79.5t98 -29.5q74 0 116 42zM272 86q65 0 105 39.5t41 104.5q-2 65 -42 104t-104 39t-103.5 -39.5t-39.5 -103.5t39.5 -104t103.5 -40zM801 266q-9 51 -45.5 81t-92.5 30t-92.5 -30t-45.5 -81h276z" />
    <glyph glyph-name="ccedilla" unicode="&#xe7;" horiz-adv-x="505" 
d="M467 101q7 -7 2 -14q-59 -90 -180 -98l-10 -24q85 -10 85 -81q0 -42 -31.5 -66t-78.5 -24q-60 0 -104 35q-8 5 -2 11l20 31q3 3 7 3q3 0 5 -1q32 -19 68 -19q20 0 32 9t12 24q0 29 -53 29h-46q-10 0 -6 9l30 69q-84 17 -134 80t-50 156q0 113 70.5 176.5t167.5 64.5
q134 0 202 -103q7 -6 -1 -14l-59 -48q-3 -3 -7 -3t-9 6q-43 64 -125 64q-64 0 -103.5 -39.5t-39.5 -103.5q0 -65 39.5 -104.5t103.5 -39.5q81 0 124 62q4 5 10 5q5 0 7 -2z" />
    <glyph glyph-name="egrave" unicode="&#xe8;" horiz-adv-x="543" 
d="M134 266h275q-9 51 -45.5 81t-91.5 30q-56 0 -92.5 -30t-45.5 -81zM135 191q11 -50 50 -79.5t98 -29.5q72 0 115 41q4 4 9 4t8 -3l50 -51q7 -7 0 -14q-63 -69 -186 -69q-110 0 -178 66.5t-68 173.5t66 173.5t173 66.5q112 0 175.5 -69t62.5 -201q0 -9 -10 -9h-365z
M304 519l-163 111q-10 6 -2 14l47 58q3 4 8 4q4 0 7 -3l144 -140q7 -3 1 -11l-28 -32q-3 -3 -7 -3q-3 0 -7 2z" />
    <glyph glyph-name="eacute" unicode="&#xe9;" horiz-adv-x="543" 
d="M134 266h275q-9 51 -45.5 81t-91.5 30q-56 0 -92.5 -30t-45.5 -81zM500 191h-365q11 -50 50 -79.5t98 -29.5q72 0 115 41q4 4 9 4t8 -3l50 -51q7 -7 0 -14q-63 -69 -186 -69q-110 0 -178 66.5t-68 173.5t66 173.5t173 66.5q112 0 175.5 -69t62.5 -201q0 -9 -10 -9z
M345 701l47 -58q7 -8 -2 -15l-164 -112q-4 -2 -6 -2q-4 0 -8 4l-26 32q-7 5 1 13l144 139q4 2 6 2q5 0 8 -3z" />
    <glyph glyph-name="ecircumflex" unicode="&#xea;" horiz-adv-x="542" 
d="M134 266h275q-9 51 -45.5 81t-91.5 30q-56 0 -92.5 -30t-45.5 -81zM135 191q11 -50 50 -79.5t98 -29.5q72 0 115 41q4 4 9 4t8 -3l50 -51q7 -7 0 -14q-63 -69 -186 -69q-110 0 -178 66.5t-68 173.5t66 173.5t173 66.5q112 0 175.5 -69t62.5 -201q0 -9 -10 -9h-365z
M116 537l103 133q5 6 13 6h73q9 0 13 -6l102 -132q5 -8 -4 -8h-75q-8 0 -11 4l-62 83l-60 -82q-4 -5 -13 -5h-75q-8 0 -4 7z" />
    <glyph glyph-name="edieresis" unicode="&#xeb;" horiz-adv-x="543" 
d="M134 266h275q-9 51 -45.5 81t-91.5 30q-56 0 -92.5 -30t-45.5 -81zM135 191q11 -50 50 -79.5t98 -29.5q72 0 115 41q4 4 9 4t8 -3l50 -51q7 -7 0 -14q-63 -69 -186 -69q-110 0 -178 66.5t-68 173.5t66 173.5t173 66.5q112 0 175.5 -69t62.5 -201q0 -9 -10 -9h-365z
M131 609q0 27 16 43t43 16q26 0 42 -16.5t16 -42.5q0 -27 -16 -43t-42 -16q-27 0 -43 16t-16 43zM290 609q0 27 16 43t43 16q26 0 42.5 -16.5t16.5 -42.5q0 -27 -16.5 -43t-42.5 -16q-27 0 -43 16t-16 43z" />
    <glyph glyph-name="igrave" unicode="&#xec;" horiz-adv-x="228" 
d="M163 452l1 -442q0 -10 -10 -10h-79q-10 0 -10 10v442q0 10 10 10h79q9 0 9 -10zM164 516l-164 111q-10 7 -2 15l48 58q3 3 7 3q3 0 7 -2l144 -140q7 -5 1 -11l-28 -33q-3 -3 -7 -3q-2 0 -6 2z" />
    <glyph glyph-name="iacute" unicode="&#xed;" horiz-adv-x="228" 
d="M163 452l1 -442q0 -10 -10 -10h-79q-10 0 -10 10v442q0 10 10 10h79q9 0 9 -10zM181 701l48 -59q6 -8 -2 -13l-165 -113q-3 -3 -7 -3q-3 0 -7 4l-27 33q-5 7 1 13l144 139q3 3 7 3q5 0 8 -4z" />
    <glyph glyph-name="icircumflex" unicode="&#xee;" horiz-adv-x="228" 
d="M163 452l1 -442q0 -10 -10 -10h-79q-10 0 -10 10v442q0 10 10 10h79q9 0 9 -10zM-41 532l108 140q5 6 14 6h76q9 0 14 -6l107 -139q7 -9 -4 -9h-79q-8 0 -11 5l-65 87l-64 -86q-5 -6 -13 -6h-79q-10 0 -4 8z" />
    <glyph glyph-name="idieresis" unicode="&#xef;" horiz-adv-x="228" 
d="M163 452l1 -442q0 -10 -10 -10h-79q-10 0 -10 10v442q0 10 10 10h79q9 0 9 -10zM-30 599q0 28 16.5 44.5t43.5 16.5q28 0 44.5 -16.5t16.5 -44.5q0 -27 -16.5 -43.5t-44.5 -16.5q-27 0 -43.5 16.5t-16.5 43.5zM133 599q0 28 16.5 44.5t43.5 16.5t43.5 -16.5t16.5 -44.5
q0 -27 -16.5 -43.5t-43.5 -16.5t-43.5 16.5t-16.5 43.5z" />
    <glyph glyph-name="eth" unicode="&#xf0;" horiz-adv-x="539" 
d="M269 -10q-96 0 -158 60t-62 155t57.5 153t152.5 58q51 0 92 -26q-35 74 -96 135l-104 -53q-1 -1 -4 -1q-4 0 -7 3l-28 28q-7 7 2 12l96 49q-44 35 -97 59q-9 5 -4 13l36 67q3 6 9 6q3 0 5 -1q81 -31 150 -93l92 47q1 1 5 1q5 0 8 -3l27 -28q7 -7 -2 -12l-89 -46
q66 -73 104 -170t36 -194q-1 -102 -62.5 -160.5t-158.5 -58.5zM393 208q-1 55 -33.5 86.5t-90.5 31.5q-55 0 -88 -33t-33 -88q0 -53 33.5 -86t87.5 -33q53 0 88.5 35t35.5 87z" />
    <glyph glyph-name="ntilde" unicode="&#xf1;" horiz-adv-x="546" 
d="M61 10v441q0 10 10 10h60q9 0 11 -10l12 -62q48 83 152 83q82 -1 130 -54t48 -152l1 -256q0 -10 -10 -10h-78q-10 0 -10 10v242q0 61 -27.5 91.5t-75.5 30.5q-58 0 -90.5 -44.5t-34.5 -106.5v-213q0 -10 -10 -10h-78q-10 0 -10 10zM167 564q-3 -6 -7 -6q-1 0 -5 2l-29 26
q-4 4 -3 10q14 40 39 63.5t52 23.5q21 0 38 -11t26.5 -24t23 -23.5t27.5 -10.5q31 1 49 49q2 6 7 6q1 0 5 -2l29 -27q5 -3 3 -9q-12 -40 -37.5 -63.5t-53.5 -23.5q-21 0 -38.5 11t-27 24t-23 24t-26.5 10q-30 0 -49 -49z" />
    <glyph glyph-name="ograve" unicode="&#xf2;" horiz-adv-x="545" 
d="M33 231q0 107 66 174t173 67q108 0 174 -66.5t66 -174.5t-66 -174.5t-174 -66.5q-107 0 -173 67t-66 174zM130 231q0 -65 39 -104.5t103 -39.5t103.5 39.5t39.5 104.5t-39.5 104.5t-103.5 39.5t-103 -39.5t-39 -104.5zM298 519l-163 111q-10 6 -2 14l47 58q3 4 8 4
q4 0 7 -3l144 -140q7 -3 1 -11l-28 -32q-3 -3 -7 -3q-3 0 -7 2z" />
    <glyph glyph-name="oacute" unicode="&#xf3;" horiz-adv-x="545" 
d="M33 231q0 108 66 174.5t174 66.5q107 0 173.5 -66.5t66.5 -174.5q0 -107 -66.5 -174t-173.5 -67q-108 0 -174 66.5t-66 174.5zM131 231q0 -64 39 -103.5t103 -39.5t103 39.5t39 103.5q0 65 -39 104t-103 39q-65 0 -103.5 -39t-38.5 -104zM339 699l48 -57q5 -8 -2 -15
l-165 -112q-2 -2 -6 -2q-5 0 -8 4l-26 31q-5 6 1 14l144 138q3 3 7 3t7 -4z" />
    <glyph glyph-name="ocircumflex" unicode="&#xf4;" horiz-adv-x="545" 
d="M33 231q0 107 66 174t173 67q108 0 174 -66.5t66 -174.5t-66 -174.5t-174 -66.5q-107 0 -173 67t-66 174zM130 231q0 -65 39 -104.5t103 -39.5t103.5 39.5t39.5 104.5t-39.5 104.5t-103.5 39.5t-103 -39.5t-39 -104.5zM120 542l103 133q5 6 13 6h73q9 0 13 -6l101 -132
q8 -8 -3 -8h-75q-7 0 -11 4l-62 83l-60 -82q-5 -5 -13 -5h-75q-9 0 -4 7z" />
    <glyph glyph-name="otilde" unicode="&#xf5;" horiz-adv-x="545" 
d="M33 231q0 107 66 174t173 67q108 0 174 -66.5t66 -174.5t-66 -174.5t-174 -66.5q-107 0 -173 67t-66 174zM130 231q0 -65 39 -104.5t103 -39.5t103.5 39.5t39.5 104.5t-39.5 104.5t-103.5 39.5t-103 -39.5t-39 -104.5zM163 552q-3 -7 -8 -7q-1 0 -5 2l-29 26q-4 4 -4 11
q14 42 40 66t55 24q22 0 39.5 -11.5t27 -25t23 -24.5t27.5 -10q32 1 52 51q2 5 6 5q1 0 5 -2l31 -28q5 -2 3 -8q-13 -42 -39 -66t-55 -24q-22 0 -39.5 11.5t-27.5 25t-23.5 24.5t-27.5 10q-31 -1 -51 -50z" />
    <glyph glyph-name="odieresis" unicode="&#xf6;" horiz-adv-x="545" 
d="M33 231q0 107 66 174t173 67q108 0 174 -66.5t66 -174.5t-66 -174.5t-174 -66.5q-107 0 -173 67t-66 174zM130 231q0 -65 39 -104.5t103 -39.5t103.5 39.5t39.5 104.5t-39.5 104.5t-103.5 39.5t-103 -39.5t-39 -104.5zM130 610q0 27 16.5 44t43.5 17t44 -17t17 -44
t-17 -44t-44 -17t-43.5 17t-16.5 44zM293 610q0 27 16.5 44t43.5 17t43.5 -17t16.5 -44t-16.5 -44t-43.5 -17t-43.5 17t-16.5 44z" />
    <glyph glyph-name="divide" unicode="&#xf7;" 
d="M181 -29q-40 -25 -40 -75q0 -43 27.5 -69.5t71.5 -26.5t71 26.5t27 69.5q0 51 -39 75l31 5q4 0 4 4v14q0 5 -5 5h-180q-3 0 -3 -5v-13q0 -2 3 -5zM240 -173q-32 0 -52 20t-20 51q0 32 20 51.5t52 21.5q32 -2 51 -21.5t19 -51.5t-19.5 -51.5t-50.5 -19.5zM141 120
q0 -43 27.5 -69t71.5 -26t71 26t27 69q0 53 -39 76h39q32 0 50.5 -19.5t18.5 -53.5q-1 -36 -17 -60q-3 -3 2 -6l16 -9h1q1 -1 2 -1t3 3q20 35 20 73q0 45 -26.5 73t-71.5 28l-187 -1q-3 0 -3 -4v-12q0 -3 3 -6l33 -5q-41 -25 -41 -76zM240 52q32 0 51.5 19t19.5 51
q0 33 -19.5 53.5t-51.5 20.5q-31 0 -51 -21t-20 -53q0 -31 19.5 -50.5t51.5 -19.5zM227 265v139q-27 -4 -43 -22.5t-16 -46.5q0 -29 16 -47.5t43 -22.5zM252 265v164q0 3 -4 3q-48 0 -77 -25t-29 -72q0 -44 27 -71t71 -27t71 28t27 74q0 49 -30 76q-2 2 -3 2q-2 0 -4 -2
l-12 -13q-3 -4 1 -7q20 -20 20 -56q0 -30 -16 -50t-42 -24zM240 457q44 0 71 27.5t27 70.5t-27 70t-71 27t-71 -27t-27 -70t27 -70.5t71 -27.5zM240 484q-32 0 -52 20t-20 51t20 50.5t52 19.5t51 -19.5t19 -50.5q0 -32 -19.5 -51.5t-50.5 -19.5zM50 -240v937h433v-937h-433z
" />
    <glyph glyph-name="oslash" unicode="&#xf8;" horiz-adv-x="545" 
d="M413 432l38 41q3 4 7 4t7 -3l30 -27q7 -6 1 -14l-38 -42q54 -63 54 -160q0 -108 -66 -174.5t-174 -66.5q-80 0 -139 39l-46 -51q-3 -3 -7 -3t-7 3l-30 27q-7 6 -1 14l45 50q-54 67 -54 162q0 107 66 174t173 67q80 0 141 -40zM200 104q31 -17 72 -17q64 0 103.5 39.5
t39.5 104.5q0 51 -24 85zM155 144l191 213q-32 18 -74 18q-64 0 -103 -39.5t-39 -104.5q0 -49 25 -87z" />
    <glyph glyph-name="ugrave" unicode="&#xf9;" horiz-adv-x="551" 
d="M407 9l-12 63q-52 -83 -157 -83q-81 0 -129 53.5t-48 152.5v255q0 10 9 10h78q10 0 10 -10v-242q0 -126 107 -126q52 0 87 42t38 113v213q0 10 10 10h78q10 0 10 -9v-441q0 -10 -10 -10h-60q-9 0 -11 9zM303 512l-163 111q-10 7 -2 15l47 58q3 3 8 3q3 0 7 -2l144 -140
q7 -5 1 -11l-29 -33q-2 -3 -6 -3q-3 0 -7 2z" />
    <glyph glyph-name="uacute" unicode="&#xfa;" horiz-adv-x="551" 
d="M407 9l-12 63q-52 -83 -157 -83q-81 0 -129 53.5t-48 152.5v255q0 10 9 10h78q10 0 10 -10v-242q0 -126 107 -126q52 0 87 42t38 113v213q0 10 10 10h78q10 0 10 -9v-441q0 -10 -10 -10h-60q-9 0 -11 9zM354 699l48 -58q6 -8 -2 -14l-164 -112q-2 -2 -7 -2t-8 4l-25 31
q-6 6 1 13l143 139q3 3 7 3t7 -4z" />
    <glyph glyph-name="ucircumflex" unicode="&#xfb;" horiz-adv-x="551" 
d="M407 9l-12 63q-52 -83 -157 -83q-81 0 -129 53.5t-48 152.5v255q0 10 9 10h78q10 0 10 -10v-242q0 -126 107 -126q52 0 87 42t38 113v213q0 10 10 10h78q10 0 10 -9v-441q0 -10 -10 -10h-60q-9 0 -11 9zM121 538l104 136q5 6 14 6h74q9 0 13 -6l104 -135q7 -8 -4 -8h-76
q-8 0 -11 4l-63 85l-62 -84q-4 -5 -13 -5h-76q-10 0 -4 7z" />
    <glyph glyph-name="udieresis" unicode="&#xfc;" horiz-adv-x="551" 
d="M407 9l-12 63q-52 -83 -157 -83q-81 0 -129 53.5t-48 152.5v255q0 10 9 10h78q10 0 10 -10v-242q0 -126 107 -126q52 0 87 42t38 113v213q0 10 10 10h78q10 0 10 -9v-441q0 -10 -10 -10h-60q-9 0 -11 9zM134 599q0 28 16.5 44.5t43.5 16.5t44 -16.5t17 -44.5
q0 -27 -17 -43.5t-44 -16.5t-43.5 16.5t-16.5 43.5zM297 599q0 28 16.5 44.5t43.5 16.5t43.5 -16.5t16.5 -44.5q0 -27 -16.5 -43.5t-43.5 -16.5t-43.5 16.5t-16.5 43.5z" />
    <glyph glyph-name="yacute" unicode="&#xfd;" horiz-adv-x="480" 
d="M464 460q14 0 9 -13l-270 -666q-4 -9 -14 -9h-79q-14 0 -9 13l87 218l-181 444q-5 13 8 13h85q10 0 13 -8l123 -330l132 330q3 8 13 8h83zM333 684l48 -58q5 -8 -2 -15l-165 -112q-2 -2 -6 -2q-5 0 -8 4l-26 31q-5 6 1 14l144 138q4 3 7 3q4 0 7 -3z" />
    <glyph glyph-name="thorn" unicode="&#xfe;" horiz-adv-x="578" 
d="M73 722h75q10 0 10 -10v-314q52 73 153 73q104 0 168.5 -66.5t64.5 -174.5q0 -107 -64.5 -173.5t-168.5 -66.5q-101 0 -153 73v-281q0 -10 -10 -10h-75q-10 0 -10 10v930q0 10 10 10zM447 230q0 64 -39.5 104t-103.5 40t-104.5 -39t-41.5 -104q1 -66 41.5 -105.5
t104.5 -39.5t103.5 40t39.5 104z" />
    <glyph glyph-name="ydieresis" unicode="&#xff;" horiz-adv-x="480" 
d="M464 460q14 0 9 -13l-270 -666q-4 -9 -14 -9h-79q-14 0 -9 13l87 218l-181 444q-5 13 8 13h85q10 0 13 -8l123 -330l132 330q3 8 13 8h83zM82 590q0 27 16 44t43 17q28 0 44.5 -17t16.5 -44t-16.5 -44t-44.5 -17q-27 0 -43 17t-16 44zM244 590q0 27 16.5 44t43.5 17
t43.5 -17t16.5 -44t-16.5 -44t-43.5 -17t-43.5 17t-16.5 44z" />
    <glyph glyph-name="Amacron" unicode="&#x100;" 
d="M181 -29q-40 -25 -40 -75q0 -43 27.5 -69.5t71.5 -26.5t71 26.5t27 69.5q0 51 -39 75l31 5q4 0 4 4v14q0 5 -5 5h-180q-3 0 -3 -5v-13q0 -2 3 -5zM240 -173q-32 0 -52 20t-20 51q0 32 20 51.5t52 21.5q32 -2 51 -21.5t19 -51.5t-19.5 -51.5t-50.5 -19.5zM141 120
q0 -43 27.5 -69t71.5 -26t71 26t27 69q0 53 -39 76h39q32 0 50.5 -19.5t18.5 -53.5q-1 -36 -17 -60q-3 -3 2 -6l16 -9h1q1 -1 2 -1t3 3q20 35 20 73q0 45 -26.5 73t-71.5 28l-187 -1q-3 0 -3 -4v-12q0 -3 3 -6l33 -5q-41 -25 -41 -76zM240 52q32 0 51.5 19t19.5 51
q0 33 -19.5 53.5t-51.5 20.5q-31 0 -51 -21t-20 -53q0 -31 19.5 -50.5t51.5 -19.5zM227 265v139q-27 -4 -43 -22.5t-16 -46.5q0 -29 16 -47.5t43 -22.5zM252 265v164q0 3 -4 3q-48 0 -77 -25t-29 -72q0 -44 27 -71t71 -27t71 28t27 74q0 49 -30 76q-2 2 -3 2q-2 0 -4 -2
l-12 -13q-3 -4 1 -7q20 -20 20 -56q0 -30 -16 -50t-42 -24zM240 457q44 0 71 27.5t27 70.5t-27 70t-71 27t-71 -27t-27 -70t27 -70.5t71 -27.5zM240 484q-32 0 -52 20t-20 51t20 50.5t52 19.5t51 -19.5t19 -50.5q0 -32 -19.5 -51.5t-50.5 -19.5zM50 -240v937h433v-937h-433z
" />
    <glyph glyph-name="amacron" unicode="&#x101;" 
d="M181 -29q-40 -25 -40 -75q0 -43 27.5 -69.5t71.5 -26.5t71 26.5t27 69.5q0 51 -39 75l31 5q4 0 4 4v14q0 5 -5 5h-180q-3 0 -3 -5v-13q0 -2 3 -5zM240 -173q-32 0 -52 20t-20 51q0 32 20 51.5t52 21.5q32 -2 51 -21.5t19 -51.5t-19.5 -51.5t-50.5 -19.5zM141 120
q0 -43 27.5 -69t71.5 -26t71 26t27 69q0 53 -39 76h39q32 0 50.5 -19.5t18.5 -53.5q-1 -36 -17 -60q-3 -3 2 -6l16 -9h1q1 -1 2 -1t3 3q20 35 20 73q0 45 -26.5 73t-71.5 28l-187 -1q-3 0 -3 -4v-12q0 -3 3 -6l33 -5q-41 -25 -41 -76zM240 52q32 0 51.5 19t19.5 51
q0 33 -19.5 53.5t-51.5 20.5q-31 0 -51 -21t-20 -53q0 -31 19.5 -50.5t51.5 -19.5zM227 265v139q-27 -4 -43 -22.5t-16 -46.5q0 -29 16 -47.5t43 -22.5zM252 265v164q0 3 -4 3q-48 0 -77 -25t-29 -72q0 -44 27 -71t71 -27t71 28t27 74q0 49 -30 76q-2 2 -3 2q-2 0 -4 -2
l-12 -13q-3 -4 1 -7q20 -20 20 -56q0 -30 -16 -50t-42 -24zM240 457q44 0 71 27.5t27 70.5t-27 70t-71 27t-71 -27t-27 -70t27 -70.5t71 -27.5zM240 484q-32 0 -52 20t-20 51t20 50.5t52 19.5t51 -19.5t19 -50.5q0 -32 -19.5 -51.5t-50.5 -19.5zM50 -240v937h433v-937h-433z
" />
    <glyph glyph-name="Abreve" unicode="&#x102;" 
d="M181 -29q-40 -25 -40 -75q0 -43 27.5 -69.5t71.5 -26.5t71 26.5t27 69.5q0 51 -39 75l31 5q4 0 4 4v14q0 5 -5 5h-180q-3 0 -3 -5v-13q0 -2 3 -5zM240 -173q-32 0 -52 20t-20 51q0 32 20 51.5t52 21.5q32 -2 51 -21.5t19 -51.5t-19.5 -51.5t-50.5 -19.5zM141 120
q0 -43 27.5 -69t71.5 -26t71 26t27 69q0 53 -39 76h39q32 0 50.5 -19.5t18.5 -53.5q-1 -36 -17 -60q-3 -3 2 -6l16 -9h1q1 -1 2 -1t3 3q20 35 20 73q0 45 -26.5 73t-71.5 28l-187 -1q-3 0 -3 -4v-12q0 -3 3 -6l33 -5q-41 -25 -41 -76zM240 52q32 0 51.5 19t19.5 51
q0 33 -19.5 53.5t-51.5 20.5q-31 0 -51 -21t-20 -53q0 -31 19.5 -50.5t51.5 -19.5zM227 265v139q-27 -4 -43 -22.5t-16 -46.5q0 -29 16 -47.5t43 -22.5zM252 265v164q0 3 -4 3q-48 0 -77 -25t-29 -72q0 -44 27 -71t71 -27t71 28t27 74q0 49 -30 76q-2 2 -3 2q-2 0 -4 -2
l-12 -13q-3 -4 1 -7q20 -20 20 -56q0 -30 -16 -50t-42 -24zM240 457q44 0 71 27.5t27 70.5t-27 70t-71 27t-71 -27t-27 -70t27 -70.5t71 -27.5zM240 484q-32 0 -52 20t-20 51t20 50.5t52 19.5t51 -19.5t19 -50.5q0 -32 -19.5 -51.5t-50.5 -19.5zM50 -240v937h433v-937h-433z
" />
    <glyph glyph-name="abreve" unicode="&#x103;" 
d="M181 -29q-40 -25 -40 -75q0 -43 27.5 -69.5t71.5 -26.5t71 26.5t27 69.5q0 51 -39 75l31 5q4 0 4 4v14q0 5 -5 5h-180q-3 0 -3 -5v-13q0 -2 3 -5zM240 -173q-32 0 -52 20t-20 51q0 32 20 51.5t52 21.5q32 -2 51 -21.5t19 -51.5t-19.5 -51.5t-50.5 -19.5zM141 120
q0 -43 27.5 -69t71.5 -26t71 26t27 69q0 53 -39 76h39q32 0 50.5 -19.5t18.5 -53.5q-1 -36 -17 -60q-3 -3 2 -6l16 -9h1q1 -1 2 -1t3 3q20 35 20 73q0 45 -26.5 73t-71.5 28l-187 -1q-3 0 -3 -4v-12q0 -3 3 -6l33 -5q-41 -25 -41 -76zM240 52q32 0 51.5 19t19.5 51
q0 33 -19.5 53.5t-51.5 20.5q-31 0 -51 -21t-20 -53q0 -31 19.5 -50.5t51.5 -19.5zM227 265v139q-27 -4 -43 -22.5t-16 -46.5q0 -29 16 -47.5t43 -22.5zM252 265v164q0 3 -4 3q-48 0 -77 -25t-29 -72q0 -44 27 -71t71 -27t71 28t27 74q0 49 -30 76q-2 2 -3 2q-2 0 -4 -2
l-12 -13q-3 -4 1 -7q20 -20 20 -56q0 -30 -16 -50t-42 -24zM240 457q44 0 71 27.5t27 70.5t-27 70t-71 27t-71 -27t-27 -70t27 -70.5t71 -27.5zM240 484q-32 0 -52 20t-20 51t20 50.5t52 19.5t51 -19.5t19 -50.5q0 -32 -19.5 -51.5t-50.5 -19.5zM50 -240v937h433v-937h-433z
" />
    <glyph glyph-name="Aogonek" unicode="&#x104;" 
d="M181 -29q-40 -25 -40 -75q0 -43 27.5 -69.5t71.5 -26.5t71 26.5t27 69.5q0 51 -39 75l31 5q4 0 4 4v14q0 5 -5 5h-180q-3 0 -3 -5v-13q0 -2 3 -5zM240 -173q-32 0 -52 20t-20 51q0 32 20 51.5t52 21.5q32 -2 51 -21.5t19 -51.5t-19.5 -51.5t-50.5 -19.5zM141 120
q0 -43 27.5 -69t71.5 -26t71 26t27 69q0 53 -39 76h39q32 0 50.5 -19.5t18.5 -53.5q-1 -36 -17 -60q-3 -3 2 -6l16 -9h1q1 -1 2 -1t3 3q20 35 20 73q0 45 -26.5 73t-71.5 28l-187 -1q-3 0 -3 -4v-12q0 -3 3 -6l33 -5q-41 -25 -41 -76zM240 52q32 0 51.5 19t19.5 51
q0 33 -19.5 53.5t-51.5 20.5q-31 0 -51 -21t-20 -53q0 -31 19.5 -50.5t51.5 -19.5zM227 265v139q-27 -4 -43 -22.5t-16 -46.5q0 -29 16 -47.5t43 -22.5zM252 265v164q0 3 -4 3q-48 0 -77 -25t-29 -72q0 -44 27 -71t71 -27t71 28t27 74q0 49 -30 76q-2 2 -3 2q-2 0 -4 -2
l-12 -13q-3 -4 1 -7q20 -20 20 -56q0 -30 -16 -50t-42 -24zM240 457q44 0 71 27.5t27 70.5t-27 70t-71 27t-71 -27t-27 -70t27 -70.5t71 -27.5zM240 484q-32 0 -52 20t-20 51t20 50.5t52 19.5t51 -19.5t19 -50.5q0 -32 -19.5 -51.5t-50.5 -19.5zM50 -240v937h433v-937h-433z
" />
    <glyph glyph-name="aogonek" unicode="&#x105;" 
d="M181 -29q-40 -25 -40 -75q0 -43 27.5 -69.5t71.5 -26.5t71 26.5t27 69.5q0 51 -39 75l31 5q4 0 4 4v14q0 5 -5 5h-180q-3 0 -3 -5v-13q0 -2 3 -5zM240 -173q-32 0 -52 20t-20 51q0 32 20 51.5t52 21.5q32 -2 51 -21.5t19 -51.5t-19.5 -51.5t-50.5 -19.5zM141 120
q0 -43 27.5 -69t71.5 -26t71 26t27 69q0 53 -39 76h39q32 0 50.5 -19.5t18.5 -53.5q-1 -36 -17 -60q-3 -3 2 -6l16 -9h1q1 -1 2 -1t3 3q20 35 20 73q0 45 -26.5 73t-71.5 28l-187 -1q-3 0 -3 -4v-12q0 -3 3 -6l33 -5q-41 -25 -41 -76zM240 52q32 0 51.5 19t19.5 51
q0 33 -19.5 53.5t-51.5 20.5q-31 0 -51 -21t-20 -53q0 -31 19.5 -50.5t51.5 -19.5zM227 265v139q-27 -4 -43 -22.5t-16 -46.5q0 -29 16 -47.5t43 -22.5zM252 265v164q0 3 -4 3q-48 0 -77 -25t-29 -72q0 -44 27 -71t71 -27t71 28t27 74q0 49 -30 76q-2 2 -3 2q-2 0 -4 -2
l-12 -13q-3 -4 1 -7q20 -20 20 -56q0 -30 -16 -50t-42 -24zM240 457q44 0 71 27.5t27 70.5t-27 70t-71 27t-71 -27t-27 -70t27 -70.5t71 -27.5zM240 484q-32 0 -52 20t-20 51t20 50.5t52 19.5t51 -19.5t19 -50.5q0 -32 -19.5 -51.5t-50.5 -19.5zM50 -240v937h433v-937h-433z
" />
    <glyph glyph-name="Cacute" unicode="&#x106;" 
d="M181 -29q-40 -25 -40 -75q0 -43 27.5 -69.5t71.5 -26.5t71 26.5t27 69.5q0 51 -39 75l31 5q4 0 4 4v14q0 5 -5 5h-180q-3 0 -3 -5v-13q0 -2 3 -5zM240 -173q-32 0 -52 20t-20 51q0 32 20 51.5t52 21.5q32 -2 51 -21.5t19 -51.5t-19.5 -51.5t-50.5 -19.5zM141 120
q0 -43 27.5 -69t71.5 -26t71 26t27 69q0 53 -39 76h39q32 0 50.5 -19.5t18.5 -53.5q-1 -36 -17 -60q-3 -3 2 -6l16 -9h1q1 -1 2 -1t3 3q20 35 20 73q0 45 -26.5 73t-71.5 28l-187 -1q-3 0 -3 -4v-12q0 -3 3 -6l33 -5q-41 -25 -41 -76zM240 52q32 0 51.5 19t19.5 51
q0 33 -19.5 53.5t-51.5 20.5q-31 0 -51 -21t-20 -53q0 -31 19.5 -50.5t51.5 -19.5zM227 265v139q-27 -4 -43 -22.5t-16 -46.5q0 -29 16 -47.5t43 -22.5zM252 265v164q0 3 -4 3q-48 0 -77 -25t-29 -72q0 -44 27 -71t71 -27t71 28t27 74q0 49 -30 76q-2 2 -3 2q-2 0 -4 -2
l-12 -13q-3 -4 1 -7q20 -20 20 -56q0 -30 -16 -50t-42 -24zM240 457q44 0 71 27.5t27 70.5t-27 70t-71 27t-71 -27t-27 -70t27 -70.5t71 -27.5zM240 484q-32 0 -52 20t-20 51t20 50.5t52 19.5t51 -19.5t19 -50.5q0 -32 -19.5 -51.5t-50.5 -19.5zM50 -240v937h433v-937h-433z
" />
    <glyph glyph-name="cacute" unicode="&#x107;" 
d="M181 -29q-40 -25 -40 -75q0 -43 27.5 -69.5t71.5 -26.5t71 26.5t27 69.5q0 51 -39 75l31 5q4 0 4 4v14q0 5 -5 5h-180q-3 0 -3 -5v-13q0 -2 3 -5zM240 -173q-32 0 -52 20t-20 51q0 32 20 51.5t52 21.5q32 -2 51 -21.5t19 -51.5t-19.5 -51.5t-50.5 -19.5zM141 120
q0 -43 27.5 -69t71.5 -26t71 26t27 69q0 53 -39 76h39q32 0 50.5 -19.5t18.5 -53.5q-1 -36 -17 -60q-3 -3 2 -6l16 -9h1q1 -1 2 -1t3 3q20 35 20 73q0 45 -26.5 73t-71.5 28l-187 -1q-3 0 -3 -4v-12q0 -3 3 -6l33 -5q-41 -25 -41 -76zM240 52q32 0 51.5 19t19.5 51
q0 33 -19.5 53.5t-51.5 20.5q-31 0 -51 -21t-20 -53q0 -31 19.5 -50.5t51.5 -19.5zM227 265v139q-27 -4 -43 -22.5t-16 -46.5q0 -29 16 -47.5t43 -22.5zM252 265v164q0 3 -4 3q-48 0 -77 -25t-29 -72q0 -44 27 -71t71 -27t71 28t27 74q0 49 -30 76q-2 2 -3 2q-2 0 -4 -2
l-12 -13q-3 -4 1 -7q20 -20 20 -56q0 -30 -16 -50t-42 -24zM240 457q44 0 71 27.5t27 70.5t-27 70t-71 27t-71 -27t-27 -70t27 -70.5t71 -27.5zM240 484q-32 0 -52 20t-20 51t20 50.5t52 19.5t51 -19.5t19 -50.5q0 -32 -19.5 -51.5t-50.5 -19.5zM50 -240v937h433v-937h-433z
" />
    <glyph glyph-name="Ccircumflex" unicode="&#x108;" 
d="M181 -29q-40 -25 -40 -75q0 -43 27.5 -69.5t71.5 -26.5t71 26.5t27 69.5q0 51 -39 75l31 5q4 0 4 4v14q0 5 -5 5h-180q-3 0 -3 -5v-13q0 -2 3 -5zM240 -173q-32 0 -52 20t-20 51q0 32 20 51.5t52 21.5q32 -2 51 -21.5t19 -51.5t-19.5 -51.5t-50.5 -19.5zM141 120
q0 -43 27.5 -69t71.5 -26t71 26t27 69q0 53 -39 76h39q32 0 50.5 -19.5t18.5 -53.5q-1 -36 -17 -60q-3 -3 2 -6l16 -9h1q1 -1 2 -1t3 3q20 35 20 73q0 45 -26.5 73t-71.5 28l-187 -1q-3 0 -3 -4v-12q0 -3 3 -6l33 -5q-41 -25 -41 -76zM240 52q32 0 51.5 19t19.5 51
q0 33 -19.5 53.5t-51.5 20.5q-31 0 -51 -21t-20 -53q0 -31 19.5 -50.5t51.5 -19.5zM227 265v139q-27 -4 -43 -22.5t-16 -46.5q0 -29 16 -47.5t43 -22.5zM252 265v164q0 3 -4 3q-48 0 -77 -25t-29 -72q0 -44 27 -71t71 -27t71 28t27 74q0 49 -30 76q-2 2 -3 2q-2 0 -4 -2
l-12 -13q-3 -4 1 -7q20 -20 20 -56q0 -30 -16 -50t-42 -24zM240 457q44 0 71 27.5t27 70.5t-27 70t-71 27t-71 -27t-27 -70t27 -70.5t71 -27.5zM240 484q-32 0 -52 20t-20 51t20 50.5t52 19.5t51 -19.5t19 -50.5q0 -32 -19.5 -51.5t-50.5 -19.5zM50 -240v937h433v-937h-433z
" />
    <glyph glyph-name="ccircumflex" unicode="&#x109;" 
d="M181 -29q-40 -25 -40 -75q0 -43 27.5 -69.5t71.5 -26.5t71 26.5t27 69.5q0 51 -39 75l31 5q4 0 4 4v14q0 5 -5 5h-180q-3 0 -3 -5v-13q0 -2 3 -5zM240 -173q-32 0 -52 20t-20 51q0 32 20 51.5t52 21.5q32 -2 51 -21.5t19 -51.5t-19.5 -51.5t-50.5 -19.5zM141 120
q0 -43 27.5 -69t71.5 -26t71 26t27 69q0 53 -39 76h39q32 0 50.5 -19.5t18.5 -53.5q-1 -36 -17 -60q-3 -3 2 -6l16 -9h1q1 -1 2 -1t3 3q20 35 20 73q0 45 -26.5 73t-71.5 28l-187 -1q-3 0 -3 -4v-12q0 -3 3 -6l33 -5q-41 -25 -41 -76zM240 52q32 0 51.5 19t19.5 51
q0 33 -19.5 53.5t-51.5 20.5q-31 0 -51 -21t-20 -53q0 -31 19.5 -50.5t51.5 -19.5zM227 265v139q-27 -4 -43 -22.5t-16 -46.5q0 -29 16 -47.5t43 -22.5zM252 265v164q0 3 -4 3q-48 0 -77 -25t-29 -72q0 -44 27 -71t71 -27t71 28t27 74q0 49 -30 76q-2 2 -3 2q-2 0 -4 -2
l-12 -13q-3 -4 1 -7q20 -20 20 -56q0 -30 -16 -50t-42 -24zM240 457q44 0 71 27.5t27 70.5t-27 70t-71 27t-71 -27t-27 -70t27 -70.5t71 -27.5zM240 484q-32 0 -52 20t-20 51t20 50.5t52 19.5t51 -19.5t19 -50.5q0 -32 -19.5 -51.5t-50.5 -19.5zM50 -240v937h433v-937h-433z
" />
    <glyph glyph-name="Cdotaccent" unicode="&#x10a;" 
d="M181 -29q-40 -25 -40 -75q0 -43 27.5 -69.5t71.5 -26.5t71 26.5t27 69.5q0 51 -39 75l31 5q4 0 4 4v14q0 5 -5 5h-180q-3 0 -3 -5v-13q0 -2 3 -5zM240 -173q-32 0 -52 20t-20 51q0 32 20 51.5t52 21.5q32 -2 51 -21.5t19 -51.5t-19.5 -51.5t-50.5 -19.5zM141 120
q0 -43 27.5 -69t71.5 -26t71 26t27 69q0 53 -39 76h39q32 0 50.5 -19.5t18.5 -53.5q-1 -36 -17 -60q-3 -3 2 -6l16 -9h1q1 -1 2 -1t3 3q20 35 20 73q0 45 -26.5 73t-71.5 28l-187 -1q-3 0 -3 -4v-12q0 -3 3 -6l33 -5q-41 -25 -41 -76zM240 52q32 0 51.5 19t19.5 51
q0 33 -19.5 53.5t-51.5 20.5q-31 0 -51 -21t-20 -53q0 -31 19.5 -50.5t51.5 -19.5zM227 265v139q-27 -4 -43 -22.5t-16 -46.5q0 -29 16 -47.5t43 -22.5zM252 265v164q0 3 -4 3q-48 0 -77 -25t-29 -72q0 -44 27 -71t71 -27t71 28t27 74q0 49 -30 76q-2 2 -3 2q-2 0 -4 -2
l-12 -13q-3 -4 1 -7q20 -20 20 -56q0 -30 -16 -50t-42 -24zM240 457q44 0 71 27.5t27 70.5t-27 70t-71 27t-71 -27t-27 -70t27 -70.5t71 -27.5zM240 484q-32 0 -52 20t-20 51t20 50.5t52 19.5t51 -19.5t19 -50.5q0 -32 -19.5 -51.5t-50.5 -19.5zM50 -240v937h433v-937h-433z
" />
    <glyph glyph-name="cdotaccent" unicode="&#x10b;" 
d="M181 -29q-40 -25 -40 -75q0 -43 27.5 -69.5t71.5 -26.5t71 26.5t27 69.5q0 51 -39 75l31 5q4 0 4 4v14q0 5 -5 5h-180q-3 0 -3 -5v-13q0 -2 3 -5zM240 -173q-32 0 -52 20t-20 51q0 32 20 51.5t52 21.5q32 -2 51 -21.5t19 -51.5t-19.5 -51.5t-50.5 -19.5zM141 120
q0 -43 27.5 -69t71.5 -26t71 26t27 69q0 53 -39 76h39q32 0 50.5 -19.5t18.5 -53.5q-1 -36 -17 -60q-3 -3 2 -6l16 -9h1q1 -1 2 -1t3 3q20 35 20 73q0 45 -26.5 73t-71.5 28l-187 -1q-3 0 -3 -4v-12q0 -3 3 -6l33 -5q-41 -25 -41 -76zM240 52q32 0 51.5 19t19.5 51
q0 33 -19.5 53.5t-51.5 20.5q-31 0 -51 -21t-20 -53q0 -31 19.5 -50.5t51.5 -19.5zM227 265v139q-27 -4 -43 -22.5t-16 -46.5q0 -29 16 -47.5t43 -22.5zM252 265v164q0 3 -4 3q-48 0 -77 -25t-29 -72q0 -44 27 -71t71 -27t71 28t27 74q0 49 -30 76q-2 2 -3 2q-2 0 -4 -2
l-12 -13q-3 -4 1 -7q20 -20 20 -56q0 -30 -16 -50t-42 -24zM240 457q44 0 71 27.5t27 70.5t-27 70t-71 27t-71 -27t-27 -70t27 -70.5t71 -27.5zM240 484q-32 0 -52 20t-20 51t20 50.5t52 19.5t51 -19.5t19 -50.5q0 -32 -19.5 -51.5t-50.5 -19.5zM50 -240v937h433v-937h-433z
" />
    <glyph glyph-name="Ccaron" unicode="&#x10c;" 
d="M181 -29q-40 -25 -40 -75q0 -43 27.5 -69.5t71.5 -26.5t71 26.5t27 69.5q0 51 -39 75l31 5q4 0 4 4v14q0 5 -5 5h-180q-3 0 -3 -5v-13q0 -2 3 -5zM240 -173q-32 0 -52 20t-20 51q0 32 20 51.5t52 21.5q32 -2 51 -21.5t19 -51.5t-19.5 -51.5t-50.5 -19.5zM141 120
q0 -43 27.5 -69t71.5 -26t71 26t27 69q0 53 -39 76h39q32 0 50.5 -19.5t18.5 -53.5q-1 -36 -17 -60q-3 -3 2 -6l16 -9h1q1 -1 2 -1t3 3q20 35 20 73q0 45 -26.5 73t-71.5 28l-187 -1q-3 0 -3 -4v-12q0 -3 3 -6l33 -5q-41 -25 -41 -76zM240 52q32 0 51.5 19t19.5 51
q0 33 -19.5 53.5t-51.5 20.5q-31 0 -51 -21t-20 -53q0 -31 19.5 -50.5t51.5 -19.5zM227 265v139q-27 -4 -43 -22.5t-16 -46.5q0 -29 16 -47.5t43 -22.5zM252 265v164q0 3 -4 3q-48 0 -77 -25t-29 -72q0 -44 27 -71t71 -27t71 28t27 74q0 49 -30 76q-2 2 -3 2q-2 0 -4 -2
l-12 -13q-3 -4 1 -7q20 -20 20 -56q0 -30 -16 -50t-42 -24zM240 457q44 0 71 27.5t27 70.5t-27 70t-71 27t-71 -27t-27 -70t27 -70.5t71 -27.5zM240 484q-32 0 -52 20t-20 51t20 50.5t52 19.5t51 -19.5t19 -50.5q0 -32 -19.5 -51.5t-50.5 -19.5zM50 -240v937h433v-937h-433z
" />
    <glyph glyph-name="ccaron" unicode="&#x10d;" 
d="M181 -29q-40 -25 -40 -75q0 -43 27.5 -69.5t71.5 -26.5t71 26.5t27 69.5q0 51 -39 75l31 5q4 0 4 4v14q0 5 -5 5h-180q-3 0 -3 -5v-13q0 -2 3 -5zM240 -173q-32 0 -52 20t-20 51q0 32 20 51.5t52 21.5q32 -2 51 -21.5t19 -51.5t-19.5 -51.5t-50.5 -19.5zM141 120
q0 -43 27.5 -69t71.5 -26t71 26t27 69q0 53 -39 76h39q32 0 50.5 -19.5t18.5 -53.5q-1 -36 -17 -60q-3 -3 2 -6l16 -9h1q1 -1 2 -1t3 3q20 35 20 73q0 45 -26.5 73t-71.5 28l-187 -1q-3 0 -3 -4v-12q0 -3 3 -6l33 -5q-41 -25 -41 -76zM240 52q32 0 51.5 19t19.5 51
q0 33 -19.5 53.5t-51.5 20.5q-31 0 -51 -21t-20 -53q0 -31 19.5 -50.5t51.5 -19.5zM227 265v139q-27 -4 -43 -22.5t-16 -46.5q0 -29 16 -47.5t43 -22.5zM252 265v164q0 3 -4 3q-48 0 -77 -25t-29 -72q0 -44 27 -71t71 -27t71 28t27 74q0 49 -30 76q-2 2 -3 2q-2 0 -4 -2
l-12 -13q-3 -4 1 -7q20 -20 20 -56q0 -30 -16 -50t-42 -24zM240 457q44 0 71 27.5t27 70.5t-27 70t-71 27t-71 -27t-27 -70t27 -70.5t71 -27.5zM240 484q-32 0 -52 20t-20 51t20 50.5t52 19.5t51 -19.5t19 -50.5q0 -32 -19.5 -51.5t-50.5 -19.5zM50 -240v937h433v-937h-433z
" />
    <glyph glyph-name="Dcaron" unicode="&#x10e;" 
d="M181 -29q-40 -25 -40 -75q0 -43 27.5 -69.5t71.5 -26.5t71 26.5t27 69.5q0 51 -39 75l31 5q4 0 4 4v14q0 5 -5 5h-180q-3 0 -3 -5v-13q0 -2 3 -5zM240 -173q-32 0 -52 20t-20 51q0 32 20 51.5t52 21.5q32 -2 51 -21.5t19 -51.5t-19.5 -51.5t-50.5 -19.5zM141 120
q0 -43 27.5 -69t71.5 -26t71 26t27 69q0 53 -39 76h39q32 0 50.5 -19.5t18.5 -53.5q-1 -36 -17 -60q-3 -3 2 -6l16 -9h1q1 -1 2 -1t3 3q20 35 20 73q0 45 -26.5 73t-71.5 28l-187 -1q-3 0 -3 -4v-12q0 -3 3 -6l33 -5q-41 -25 -41 -76zM240 52q32 0 51.5 19t19.5 51
q0 33 -19.5 53.5t-51.5 20.5q-31 0 -51 -21t-20 -53q0 -31 19.5 -50.5t51.5 -19.5zM227 265v139q-27 -4 -43 -22.5t-16 -46.5q0 -29 16 -47.5t43 -22.5zM252 265v164q0 3 -4 3q-48 0 -77 -25t-29 -72q0 -44 27 -71t71 -27t71 28t27 74q0 49 -30 76q-2 2 -3 2q-2 0 -4 -2
l-12 -13q-3 -4 1 -7q20 -20 20 -56q0 -30 -16 -50t-42 -24zM240 457q44 0 71 27.5t27 70.5t-27 70t-71 27t-71 -27t-27 -70t27 -70.5t71 -27.5zM240 484q-32 0 -52 20t-20 51t20 50.5t52 19.5t51 -19.5t19 -50.5q0 -32 -19.5 -51.5t-50.5 -19.5zM50 -240v937h433v-937h-433z
" />
    <glyph glyph-name="dcaron" unicode="&#x10f;" 
d="M181 -29q-40 -25 -40 -75q0 -43 27.5 -69.5t71.5 -26.5t71 26.5t27 69.5q0 51 -39 75l31 5q4 0 4 4v14q0 5 -5 5h-180q-3 0 -3 -5v-13q0 -2 3 -5zM240 -173q-32 0 -52 20t-20 51q0 32 20 51.5t52 21.5q32 -2 51 -21.5t19 -51.5t-19.5 -51.5t-50.5 -19.5zM141 120
q0 -43 27.5 -69t71.5 -26t71 26t27 69q0 53 -39 76h39q32 0 50.5 -19.5t18.5 -53.5q-1 -36 -17 -60q-3 -3 2 -6l16 -9h1q1 -1 2 -1t3 3q20 35 20 73q0 45 -26.5 73t-71.5 28l-187 -1q-3 0 -3 -4v-12q0 -3 3 -6l33 -5q-41 -25 -41 -76zM240 52q32 0 51.5 19t19.5 51
q0 33 -19.5 53.5t-51.5 20.5q-31 0 -51 -21t-20 -53q0 -31 19.5 -50.5t51.5 -19.5zM227 265v139q-27 -4 -43 -22.5t-16 -46.5q0 -29 16 -47.5t43 -22.5zM252 265v164q0 3 -4 3q-48 0 -77 -25t-29 -72q0 -44 27 -71t71 -27t71 28t27 74q0 49 -30 76q-2 2 -3 2q-2 0 -4 -2
l-12 -13q-3 -4 1 -7q20 -20 20 -56q0 -30 -16 -50t-42 -24zM240 457q44 0 71 27.5t27 70.5t-27 70t-71 27t-71 -27t-27 -70t27 -70.5t71 -27.5zM240 484q-32 0 -52 20t-20 51t20 50.5t52 19.5t51 -19.5t19 -50.5q0 -32 -19.5 -51.5t-50.5 -19.5zM50 -240v937h433v-937h-433z
" />
    <glyph glyph-name="Dcroat" unicode="&#x110;" horiz-adv-x="677" 
d="M283 0h-196q-9 0 -9 10v300h-49q-10 0 -10 10v46q0 10 10 10h49v308q0 10 10 10h195q161 0 258 -94t97 -253q0 -160 -97 -253.5t-258 -93.5zM181 97h102q115 0 183.5 67.5t68.5 182.5t-69 183t-184 68h-101v-222h134q9 0 9 -10v-46q0 -10 -9 -10h-134v-213z" />
    <glyph glyph-name="dcroat" unicode="&#x111;" horiz-adv-x="585" 
d="M317 605h101v108q0 9 10 9h78q10 0 10 -9v-108h43q10 0 10 -10v-47q0 -9 -10 -9h-43v-529q0 -10 -10 -10h-55q-9 0 -11 9l-15 61q-53 -80 -160 -80q-104 0 -168 66.5t-64 173.5t64 173.5t168 66.5q101 0 153 -73v142h-101q-10 0 -10 9v47q0 10 10 10zM272 86
q64 0 105 39.5t41 104.5q0 64 -40.5 104t-105.5 40q-64 0 -103 -39.5t-39 -104.5q0 -64 39 -104t103 -40z" />
    <glyph glyph-name="Emacron" unicode="&#x112;" 
d="M181 -29q-40 -25 -40 -75q0 -43 27.5 -69.5t71.5 -26.5t71 26.5t27 69.5q0 51 -39 75l31 5q4 0 4 4v14q0 5 -5 5h-180q-3 0 -3 -5v-13q0 -2 3 -5zM240 -173q-32 0 -52 20t-20 51q0 32 20 51.5t52 21.5q32 -2 51 -21.5t19 -51.5t-19.5 -51.5t-50.5 -19.5zM141 120
q0 -43 27.5 -69t71.5 -26t71 26t27 69q0 53 -39 76h39q32 0 50.5 -19.5t18.5 -53.5q-1 -36 -17 -60q-3 -3 2 -6l16 -9h1q1 -1 2 -1t3 3q20 35 20 73q0 45 -26.5 73t-71.5 28l-187 -1q-3 0 -3 -4v-12q0 -3 3 -6l33 -5q-41 -25 -41 -76zM240 52q32 0 51.5 19t19.5 51
q0 33 -19.5 53.5t-51.5 20.5q-31 0 -51 -21t-20 -53q0 -31 19.5 -50.5t51.5 -19.5zM227 265v139q-27 -4 -43 -22.5t-16 -46.5q0 -29 16 -47.5t43 -22.5zM252 265v164q0 3 -4 3q-48 0 -77 -25t-29 -72q0 -44 27 -71t71 -27t71 28t27 74q0 49 -30 76q-2 2 -3 2q-2 0 -4 -2
l-12 -13q-3 -4 1 -7q20 -20 20 -56q0 -30 -16 -50t-42 -24zM240 457q44 0 71 27.5t27 70.5t-27 70t-71 27t-71 -27t-27 -70t27 -70.5t71 -27.5zM240 484q-32 0 -52 20t-20 51t20 50.5t52 19.5t51 -19.5t19 -50.5q0 -32 -19.5 -51.5t-50.5 -19.5zM50 -240v937h433v-937h-433z
" />
    <glyph glyph-name="emacron" unicode="&#x113;" 
d="M181 -29q-40 -25 -40 -75q0 -43 27.5 -69.5t71.5 -26.5t71 26.5t27 69.5q0 51 -39 75l31 5q4 0 4 4v14q0 5 -5 5h-180q-3 0 -3 -5v-13q0 -2 3 -5zM240 -173q-32 0 -52 20t-20 51q0 32 20 51.5t52 21.5q32 -2 51 -21.5t19 -51.5t-19.5 -51.5t-50.5 -19.5zM141 120
q0 -43 27.5 -69t71.5 -26t71 26t27 69q0 53 -39 76h39q32 0 50.5 -19.5t18.5 -53.5q-1 -36 -17 -60q-3 -3 2 -6l16 -9h1q1 -1 2 -1t3 3q20 35 20 73q0 45 -26.5 73t-71.5 28l-187 -1q-3 0 -3 -4v-12q0 -3 3 -6l33 -5q-41 -25 -41 -76zM240 52q32 0 51.5 19t19.5 51
q0 33 -19.5 53.5t-51.5 20.5q-31 0 -51 -21t-20 -53q0 -31 19.5 -50.5t51.5 -19.5zM227 265v139q-27 -4 -43 -22.5t-16 -46.5q0 -29 16 -47.5t43 -22.5zM252 265v164q0 3 -4 3q-48 0 -77 -25t-29 -72q0 -44 27 -71t71 -27t71 28t27 74q0 49 -30 76q-2 2 -3 2q-2 0 -4 -2
l-12 -13q-3 -4 1 -7q20 -20 20 -56q0 -30 -16 -50t-42 -24zM240 457q44 0 71 27.5t27 70.5t-27 70t-71 27t-71 -27t-27 -70t27 -70.5t71 -27.5zM240 484q-32 0 -52 20t-20 51t20 50.5t52 19.5t51 -19.5t19 -50.5q0 -32 -19.5 -51.5t-50.5 -19.5zM50 -240v937h433v-937h-433z
" />
    <glyph glyph-name="Ebreve" unicode="&#x114;" 
d="M181 -29q-40 -25 -40 -75q0 -43 27.5 -69.5t71.5 -26.5t71 26.5t27 69.5q0 51 -39 75l31 5q4 0 4 4v14q0 5 -5 5h-180q-3 0 -3 -5v-13q0 -2 3 -5zM240 -173q-32 0 -52 20t-20 51q0 32 20 51.5t52 21.5q32 -2 51 -21.5t19 -51.5t-19.5 -51.5t-50.5 -19.5zM141 120
q0 -43 27.5 -69t71.5 -26t71 26t27 69q0 53 -39 76h39q32 0 50.5 -19.5t18.5 -53.5q-1 -36 -17 -60q-3 -3 2 -6l16 -9h1q1 -1 2 -1t3 3q20 35 20 73q0 45 -26.5 73t-71.5 28l-187 -1q-3 0 -3 -4v-12q0 -3 3 -6l33 -5q-41 -25 -41 -76zM240 52q32 0 51.5 19t19.5 51
q0 33 -19.5 53.5t-51.5 20.5q-31 0 -51 -21t-20 -53q0 -31 19.5 -50.5t51.5 -19.5zM227 265v139q-27 -4 -43 -22.5t-16 -46.5q0 -29 16 -47.5t43 -22.5zM252 265v164q0 3 -4 3q-48 0 -77 -25t-29 -72q0 -44 27 -71t71 -27t71 28t27 74q0 49 -30 76q-2 2 -3 2q-2 0 -4 -2
l-12 -13q-3 -4 1 -7q20 -20 20 -56q0 -30 -16 -50t-42 -24zM240 457q44 0 71 27.5t27 70.5t-27 70t-71 27t-71 -27t-27 -70t27 -70.5t71 -27.5zM240 484q-32 0 -52 20t-20 51t20 50.5t52 19.5t51 -19.5t19 -50.5q0 -32 -19.5 -51.5t-50.5 -19.5zM50 -240v937h433v-937h-433z
" />
    <glyph glyph-name="ebreve" unicode="&#x115;" 
d="M181 -29q-40 -25 -40 -75q0 -43 27.5 -69.5t71.5 -26.5t71 26.5t27 69.5q0 51 -39 75l31 5q4 0 4 4v14q0 5 -5 5h-180q-3 0 -3 -5v-13q0 -2 3 -5zM240 -173q-32 0 -52 20t-20 51q0 32 20 51.5t52 21.5q32 -2 51 -21.5t19 -51.5t-19.5 -51.5t-50.5 -19.5zM141 120
q0 -43 27.5 -69t71.5 -26t71 26t27 69q0 53 -39 76h39q32 0 50.5 -19.5t18.5 -53.5q-1 -36 -17 -60q-3 -3 2 -6l16 -9h1q1 -1 2 -1t3 3q20 35 20 73q0 45 -26.5 73t-71.5 28l-187 -1q-3 0 -3 -4v-12q0 -3 3 -6l33 -5q-41 -25 -41 -76zM240 52q32 0 51.5 19t19.5 51
q0 33 -19.5 53.5t-51.5 20.5q-31 0 -51 -21t-20 -53q0 -31 19.5 -50.5t51.5 -19.5zM227 265v139q-27 -4 -43 -22.5t-16 -46.5q0 -29 16 -47.5t43 -22.5zM252 265v164q0 3 -4 3q-48 0 -77 -25t-29 -72q0 -44 27 -71t71 -27t71 28t27 74q0 49 -30 76q-2 2 -3 2q-2 0 -4 -2
l-12 -13q-3 -4 1 -7q20 -20 20 -56q0 -30 -16 -50t-42 -24zM240 457q44 0 71 27.5t27 70.5t-27 70t-71 27t-71 -27t-27 -70t27 -70.5t71 -27.5zM240 484q-32 0 -52 20t-20 51t20 50.5t52 19.5t51 -19.5t19 -50.5q0 -32 -19.5 -51.5t-50.5 -19.5zM50 -240v937h433v-937h-433z
" />
    <glyph glyph-name="Edotaccent" unicode="&#x116;" 
d="M181 -29q-40 -25 -40 -75q0 -43 27.5 -69.5t71.5 -26.5t71 26.5t27 69.5q0 51 -39 75l31 5q4 0 4 4v14q0 5 -5 5h-180q-3 0 -3 -5v-13q0 -2 3 -5zM240 -173q-32 0 -52 20t-20 51q0 32 20 51.5t52 21.5q32 -2 51 -21.5t19 -51.5t-19.5 -51.5t-50.5 -19.5zM141 120
q0 -43 27.5 -69t71.5 -26t71 26t27 69q0 53 -39 76h39q32 0 50.5 -19.5t18.5 -53.5q-1 -36 -17 -60q-3 -3 2 -6l16 -9h1q1 -1 2 -1t3 3q20 35 20 73q0 45 -26.5 73t-71.5 28l-187 -1q-3 0 -3 -4v-12q0 -3 3 -6l33 -5q-41 -25 -41 -76zM240 52q32 0 51.5 19t19.5 51
q0 33 -19.5 53.5t-51.5 20.5q-31 0 -51 -21t-20 -53q0 -31 19.5 -50.5t51.5 -19.5zM227 265v139q-27 -4 -43 -22.5t-16 -46.5q0 -29 16 -47.5t43 -22.5zM252 265v164q0 3 -4 3q-48 0 -77 -25t-29 -72q0 -44 27 -71t71 -27t71 28t27 74q0 49 -30 76q-2 2 -3 2q-2 0 -4 -2
l-12 -13q-3 -4 1 -7q20 -20 20 -56q0 -30 -16 -50t-42 -24zM240 457q44 0 71 27.5t27 70.5t-27 70t-71 27t-71 -27t-27 -70t27 -70.5t71 -27.5zM240 484q-32 0 -52 20t-20 51t20 50.5t52 19.5t51 -19.5t19 -50.5q0 -32 -19.5 -51.5t-50.5 -19.5zM50 -240v937h433v-937h-433z
" />
    <glyph glyph-name="edotaccent" unicode="&#x117;" 
d="M181 -29q-40 -25 -40 -75q0 -43 27.5 -69.5t71.5 -26.5t71 26.5t27 69.5q0 51 -39 75l31 5q4 0 4 4v14q0 5 -5 5h-180q-3 0 -3 -5v-13q0 -2 3 -5zM240 -173q-32 0 -52 20t-20 51q0 32 20 51.5t52 21.5q32 -2 51 -21.5t19 -51.5t-19.5 -51.5t-50.5 -19.5zM141 120
q0 -43 27.5 -69t71.5 -26t71 26t27 69q0 53 -39 76h39q32 0 50.5 -19.5t18.5 -53.5q-1 -36 -17 -60q-3 -3 2 -6l16 -9h1q1 -1 2 -1t3 3q20 35 20 73q0 45 -26.5 73t-71.5 28l-187 -1q-3 0 -3 -4v-12q0 -3 3 -6l33 -5q-41 -25 -41 -76zM240 52q32 0 51.5 19t19.5 51
q0 33 -19.5 53.5t-51.5 20.5q-31 0 -51 -21t-20 -53q0 -31 19.5 -50.5t51.5 -19.5zM227 265v139q-27 -4 -43 -22.5t-16 -46.5q0 -29 16 -47.5t43 -22.5zM252 265v164q0 3 -4 3q-48 0 -77 -25t-29 -72q0 -44 27 -71t71 -27t71 28t27 74q0 49 -30 76q-2 2 -3 2q-2 0 -4 -2
l-12 -13q-3 -4 1 -7q20 -20 20 -56q0 -30 -16 -50t-42 -24zM240 457q44 0 71 27.5t27 70.5t-27 70t-71 27t-71 -27t-27 -70t27 -70.5t71 -27.5zM240 484q-32 0 -52 20t-20 51t20 50.5t52 19.5t51 -19.5t19 -50.5q0 -32 -19.5 -51.5t-50.5 -19.5zM50 -240v937h433v-937h-433z
" />
    <glyph glyph-name="Eogonek" unicode="&#x118;" 
d="M181 -29q-40 -25 -40 -75q0 -43 27.5 -69.5t71.5 -26.5t71 26.5t27 69.5q0 51 -39 75l31 5q4 0 4 4v14q0 5 -5 5h-180q-3 0 -3 -5v-13q0 -2 3 -5zM240 -173q-32 0 -52 20t-20 51q0 32 20 51.5t52 21.5q32 -2 51 -21.5t19 -51.5t-19.5 -51.5t-50.5 -19.5zM141 120
q0 -43 27.5 -69t71.5 -26t71 26t27 69q0 53 -39 76h39q32 0 50.5 -19.5t18.5 -53.5q-1 -36 -17 -60q-3 -3 2 -6l16 -9h1q1 -1 2 -1t3 3q20 35 20 73q0 45 -26.5 73t-71.5 28l-187 -1q-3 0 -3 -4v-12q0 -3 3 -6l33 -5q-41 -25 -41 -76zM240 52q32 0 51.5 19t19.5 51
q0 33 -19.5 53.5t-51.5 20.5q-31 0 -51 -21t-20 -53q0 -31 19.5 -50.5t51.5 -19.5zM227 265v139q-27 -4 -43 -22.5t-16 -46.5q0 -29 16 -47.5t43 -22.5zM252 265v164q0 3 -4 3q-48 0 -77 -25t-29 -72q0 -44 27 -71t71 -27t71 28t27 74q0 49 -30 76q-2 2 -3 2q-2 0 -4 -2
l-12 -13q-3 -4 1 -7q20 -20 20 -56q0 -30 -16 -50t-42 -24zM240 457q44 0 71 27.5t27 70.5t-27 70t-71 27t-71 -27t-27 -70t27 -70.5t71 -27.5zM240 484q-32 0 -52 20t-20 51t20 50.5t52 19.5t51 -19.5t19 -50.5q0 -32 -19.5 -51.5t-50.5 -19.5zM50 -240v937h433v-937h-433z
" />
    <glyph glyph-name="eogonek" unicode="&#x119;" 
d="M181 -29q-40 -25 -40 -75q0 -43 27.5 -69.5t71.5 -26.5t71 26.5t27 69.5q0 51 -39 75l31 5q4 0 4 4v14q0 5 -5 5h-180q-3 0 -3 -5v-13q0 -2 3 -5zM240 -173q-32 0 -52 20t-20 51q0 32 20 51.5t52 21.5q32 -2 51 -21.5t19 -51.5t-19.5 -51.5t-50.5 -19.5zM141 120
q0 -43 27.5 -69t71.5 -26t71 26t27 69q0 53 -39 76h39q32 0 50.5 -19.5t18.5 -53.5q-1 -36 -17 -60q-3 -3 2 -6l16 -9h1q1 -1 2 -1t3 3q20 35 20 73q0 45 -26.5 73t-71.5 28l-187 -1q-3 0 -3 -4v-12q0 -3 3 -6l33 -5q-41 -25 -41 -76zM240 52q32 0 51.5 19t19.5 51
q0 33 -19.5 53.5t-51.5 20.5q-31 0 -51 -21t-20 -53q0 -31 19.5 -50.5t51.5 -19.5zM227 265v139q-27 -4 -43 -22.5t-16 -46.5q0 -29 16 -47.5t43 -22.5zM252 265v164q0 3 -4 3q-48 0 -77 -25t-29 -72q0 -44 27 -71t71 -27t71 28t27 74q0 49 -30 76q-2 2 -3 2q-2 0 -4 -2
l-12 -13q-3 -4 1 -7q20 -20 20 -56q0 -30 -16 -50t-42 -24zM240 457q44 0 71 27.5t27 70.5t-27 70t-71 27t-71 -27t-27 -70t27 -70.5t71 -27.5zM240 484q-32 0 -52 20t-20 51t20 50.5t52 19.5t51 -19.5t19 -50.5q0 -32 -19.5 -51.5t-50.5 -19.5zM50 -240v937h433v-937h-433z
" />
    <glyph glyph-name="Ecaron" unicode="&#x11a;" 
d="M181 -29q-40 -25 -40 -75q0 -43 27.5 -69.5t71.5 -26.5t71 26.5t27 69.5q0 51 -39 75l31 5q4 0 4 4v14q0 5 -5 5h-180q-3 0 -3 -5v-13q0 -2 3 -5zM240 -173q-32 0 -52 20t-20 51q0 32 20 51.5t52 21.5q32 -2 51 -21.5t19 -51.5t-19.5 -51.5t-50.5 -19.5zM141 120
q0 -43 27.5 -69t71.5 -26t71 26t27 69q0 53 -39 76h39q32 0 50.5 -19.5t18.5 -53.5q-1 -36 -17 -60q-3 -3 2 -6l16 -9h1q1 -1 2 -1t3 3q20 35 20 73q0 45 -26.5 73t-71.5 28l-187 -1q-3 0 -3 -4v-12q0 -3 3 -6l33 -5q-41 -25 -41 -76zM240 52q32 0 51.5 19t19.5 51
q0 33 -19.5 53.5t-51.5 20.5q-31 0 -51 -21t-20 -53q0 -31 19.5 -50.5t51.5 -19.5zM227 265v139q-27 -4 -43 -22.5t-16 -46.5q0 -29 16 -47.5t43 -22.5zM252 265v164q0 3 -4 3q-48 0 -77 -25t-29 -72q0 -44 27 -71t71 -27t71 28t27 74q0 49 -30 76q-2 2 -3 2q-2 0 -4 -2
l-12 -13q-3 -4 1 -7q20 -20 20 -56q0 -30 -16 -50t-42 -24zM240 457q44 0 71 27.5t27 70.5t-27 70t-71 27t-71 -27t-27 -70t27 -70.5t71 -27.5zM240 484q-32 0 -52 20t-20 51t20 50.5t52 19.5t51 -19.5t19 -50.5q0 -32 -19.5 -51.5t-50.5 -19.5zM50 -240v937h433v-937h-433z
" />
    <glyph glyph-name="ecaron" unicode="&#x11b;" 
d="M181 -29q-40 -25 -40 -75q0 -43 27.5 -69.5t71.5 -26.5t71 26.5t27 69.5q0 51 -39 75l31 5q4 0 4 4v14q0 5 -5 5h-180q-3 0 -3 -5v-13q0 -2 3 -5zM240 -173q-32 0 -52 20t-20 51q0 32 20 51.5t52 21.5q32 -2 51 -21.5t19 -51.5t-19.5 -51.5t-50.5 -19.5zM141 120
q0 -43 27.5 -69t71.5 -26t71 26t27 69q0 53 -39 76h39q32 0 50.5 -19.5t18.5 -53.5q-1 -36 -17 -60q-3 -3 2 -6l16 -9h1q1 -1 2 -1t3 3q20 35 20 73q0 45 -26.5 73t-71.5 28l-187 -1q-3 0 -3 -4v-12q0 -3 3 -6l33 -5q-41 -25 -41 -76zM240 52q32 0 51.5 19t19.5 51
q0 33 -19.5 53.5t-51.5 20.5q-31 0 -51 -21t-20 -53q0 -31 19.5 -50.5t51.5 -19.5zM227 265v139q-27 -4 -43 -22.5t-16 -46.5q0 -29 16 -47.5t43 -22.5zM252 265v164q0 3 -4 3q-48 0 -77 -25t-29 -72q0 -44 27 -71t71 -27t71 28t27 74q0 49 -30 76q-2 2 -3 2q-2 0 -4 -2
l-12 -13q-3 -4 1 -7q20 -20 20 -56q0 -30 -16 -50t-42 -24zM240 457q44 0 71 27.5t27 70.5t-27 70t-71 27t-71 -27t-27 -70t27 -70.5t71 -27.5zM240 484q-32 0 -52 20t-20 51t20 50.5t52 19.5t51 -19.5t19 -50.5q0 -32 -19.5 -51.5t-50.5 -19.5zM50 -240v937h433v-937h-433z
" />
    <glyph glyph-name="Gcircumflex" unicode="&#x11c;" 
d="M181 -29q-40 -25 -40 -75q0 -43 27.5 -69.5t71.5 -26.5t71 26.5t27 69.5q0 51 -39 75l31 5q4 0 4 4v14q0 5 -5 5h-180q-3 0 -3 -5v-13q0 -2 3 -5zM240 -173q-32 0 -52 20t-20 51q0 32 20 51.5t52 21.5q32 -2 51 -21.5t19 -51.5t-19.5 -51.5t-50.5 -19.5zM141 120
q0 -43 27.5 -69t71.5 -26t71 26t27 69q0 53 -39 76h39q32 0 50.5 -19.5t18.5 -53.5q-1 -36 -17 -60q-3 -3 2 -6l16 -9h1q1 -1 2 -1t3 3q20 35 20 73q0 45 -26.5 73t-71.5 28l-187 -1q-3 0 -3 -4v-12q0 -3 3 -6l33 -5q-41 -25 -41 -76zM240 52q32 0 51.5 19t19.5 51
q0 33 -19.5 53.5t-51.5 20.5q-31 0 -51 -21t-20 -53q0 -31 19.5 -50.5t51.5 -19.5zM227 265v139q-27 -4 -43 -22.5t-16 -46.5q0 -29 16 -47.5t43 -22.5zM252 265v164q0 3 -4 3q-48 0 -77 -25t-29 -72q0 -44 27 -71t71 -27t71 28t27 74q0 49 -30 76q-2 2 -3 2q-2 0 -4 -2
l-12 -13q-3 -4 1 -7q20 -20 20 -56q0 -30 -16 -50t-42 -24zM240 457q44 0 71 27.5t27 70.5t-27 70t-71 27t-71 -27t-27 -70t27 -70.5t71 -27.5zM240 484q-32 0 -52 20t-20 51t20 50.5t52 19.5t51 -19.5t19 -50.5q0 -32 -19.5 -51.5t-50.5 -19.5zM50 -240v937h433v-937h-433z
" />
    <glyph glyph-name="gcircumflex" unicode="&#x11d;" 
d="M181 -29q-40 -25 -40 -75q0 -43 27.5 -69.5t71.5 -26.5t71 26.5t27 69.5q0 51 -39 75l31 5q4 0 4 4v14q0 5 -5 5h-180q-3 0 -3 -5v-13q0 -2 3 -5zM240 -173q-32 0 -52 20t-20 51q0 32 20 51.5t52 21.5q32 -2 51 -21.5t19 -51.5t-19.5 -51.5t-50.5 -19.5zM141 120
q0 -43 27.5 -69t71.5 -26t71 26t27 69q0 53 -39 76h39q32 0 50.5 -19.5t18.5 -53.5q-1 -36 -17 -60q-3 -3 2 -6l16 -9h1q1 -1 2 -1t3 3q20 35 20 73q0 45 -26.5 73t-71.5 28l-187 -1q-3 0 -3 -4v-12q0 -3 3 -6l33 -5q-41 -25 -41 -76zM240 52q32 0 51.5 19t19.5 51
q0 33 -19.5 53.5t-51.5 20.5q-31 0 -51 -21t-20 -53q0 -31 19.5 -50.5t51.5 -19.5zM227 265v139q-27 -4 -43 -22.5t-16 -46.5q0 -29 16 -47.5t43 -22.5zM252 265v164q0 3 -4 3q-48 0 -77 -25t-29 -72q0 -44 27 -71t71 -27t71 28t27 74q0 49 -30 76q-2 2 -3 2q-2 0 -4 -2
l-12 -13q-3 -4 1 -7q20 -20 20 -56q0 -30 -16 -50t-42 -24zM240 457q44 0 71 27.5t27 70.5t-27 70t-71 27t-71 -27t-27 -70t27 -70.5t71 -27.5zM240 484q-32 0 -52 20t-20 51t20 50.5t52 19.5t51 -19.5t19 -50.5q0 -32 -19.5 -51.5t-50.5 -19.5zM50 -240v937h433v-937h-433z
" />
    <glyph glyph-name="Gbreve" unicode="&#x11e;" 
d="M181 -29q-40 -25 -40 -75q0 -43 27.5 -69.5t71.5 -26.5t71 26.5t27 69.5q0 51 -39 75l31 5q4 0 4 4v14q0 5 -5 5h-180q-3 0 -3 -5v-13q0 -2 3 -5zM240 -173q-32 0 -52 20t-20 51q0 32 20 51.5t52 21.5q32 -2 51 -21.5t19 -51.5t-19.5 -51.5t-50.5 -19.5zM141 120
q0 -43 27.5 -69t71.5 -26t71 26t27 69q0 53 -39 76h39q32 0 50.5 -19.5t18.5 -53.5q-1 -36 -17 -60q-3 -3 2 -6l16 -9h1q1 -1 2 -1t3 3q20 35 20 73q0 45 -26.5 73t-71.5 28l-187 -1q-3 0 -3 -4v-12q0 -3 3 -6l33 -5q-41 -25 -41 -76zM240 52q32 0 51.5 19t19.5 51
q0 33 -19.5 53.5t-51.5 20.5q-31 0 -51 -21t-20 -53q0 -31 19.5 -50.5t51.5 -19.5zM227 265v139q-27 -4 -43 -22.5t-16 -46.5q0 -29 16 -47.5t43 -22.5zM252 265v164q0 3 -4 3q-48 0 -77 -25t-29 -72q0 -44 27 -71t71 -27t71 28t27 74q0 49 -30 76q-2 2 -3 2q-2 0 -4 -2
l-12 -13q-3 -4 1 -7q20 -20 20 -56q0 -30 -16 -50t-42 -24zM240 457q44 0 71 27.5t27 70.5t-27 70t-71 27t-71 -27t-27 -70t27 -70.5t71 -27.5zM240 484q-32 0 -52 20t-20 51t20 50.5t52 19.5t51 -19.5t19 -50.5q0 -32 -19.5 -51.5t-50.5 -19.5zM50 -240v937h433v-937h-433z
" />
    <glyph glyph-name="gbreve" unicode="&#x11f;" 
d="M181 -29q-40 -25 -40 -75q0 -43 27.5 -69.5t71.5 -26.5t71 26.5t27 69.5q0 51 -39 75l31 5q4 0 4 4v14q0 5 -5 5h-180q-3 0 -3 -5v-13q0 -2 3 -5zM240 -173q-32 0 -52 20t-20 51q0 32 20 51.5t52 21.5q32 -2 51 -21.5t19 -51.5t-19.5 -51.5t-50.5 -19.5zM141 120
q0 -43 27.5 -69t71.5 -26t71 26t27 69q0 53 -39 76h39q32 0 50.5 -19.5t18.5 -53.5q-1 -36 -17 -60q-3 -3 2 -6l16 -9h1q1 -1 2 -1t3 3q20 35 20 73q0 45 -26.5 73t-71.5 28l-187 -1q-3 0 -3 -4v-12q0 -3 3 -6l33 -5q-41 -25 -41 -76zM240 52q32 0 51.5 19t19.5 51
q0 33 -19.5 53.5t-51.5 20.5q-31 0 -51 -21t-20 -53q0 -31 19.5 -50.5t51.5 -19.5zM227 265v139q-27 -4 -43 -22.5t-16 -46.5q0 -29 16 -47.5t43 -22.5zM252 265v164q0 3 -4 3q-48 0 -77 -25t-29 -72q0 -44 27 -71t71 -27t71 28t27 74q0 49 -30 76q-2 2 -3 2q-2 0 -4 -2
l-12 -13q-3 -4 1 -7q20 -20 20 -56q0 -30 -16 -50t-42 -24zM240 457q44 0 71 27.5t27 70.5t-27 70t-71 27t-71 -27t-27 -70t27 -70.5t71 -27.5zM240 484q-32 0 -52 20t-20 51t20 50.5t52 19.5t51 -19.5t19 -50.5q0 -32 -19.5 -51.5t-50.5 -19.5zM50 -240v937h433v-937h-433z
" />
    <glyph glyph-name="Gdotaccent" unicode="&#x120;" 
d="M181 -29q-40 -25 -40 -75q0 -43 27.5 -69.5t71.5 -26.5t71 26.5t27 69.5q0 51 -39 75l31 5q4 0 4 4v14q0 5 -5 5h-180q-3 0 -3 -5v-13q0 -2 3 -5zM240 -173q-32 0 -52 20t-20 51q0 32 20 51.5t52 21.5q32 -2 51 -21.5t19 -51.5t-19.5 -51.5t-50.5 -19.5zM141 120
q0 -43 27.5 -69t71.5 -26t71 26t27 69q0 53 -39 76h39q32 0 50.5 -19.5t18.5 -53.5q-1 -36 -17 -60q-3 -3 2 -6l16 -9h1q1 -1 2 -1t3 3q20 35 20 73q0 45 -26.5 73t-71.5 28l-187 -1q-3 0 -3 -4v-12q0 -3 3 -6l33 -5q-41 -25 -41 -76zM240 52q32 0 51.5 19t19.5 51
q0 33 -19.5 53.5t-51.5 20.5q-31 0 -51 -21t-20 -53q0 -31 19.5 -50.5t51.5 -19.5zM227 265v139q-27 -4 -43 -22.5t-16 -46.5q0 -29 16 -47.5t43 -22.5zM252 265v164q0 3 -4 3q-48 0 -77 -25t-29 -72q0 -44 27 -71t71 -27t71 28t27 74q0 49 -30 76q-2 2 -3 2q-2 0 -4 -2
l-12 -13q-3 -4 1 -7q20 -20 20 -56q0 -30 -16 -50t-42 -24zM240 457q44 0 71 27.5t27 70.5t-27 70t-71 27t-71 -27t-27 -70t27 -70.5t71 -27.5zM240 484q-32 0 -52 20t-20 51t20 50.5t52 19.5t51 -19.5t19 -50.5q0 -32 -19.5 -51.5t-50.5 -19.5zM50 -240v937h433v-937h-433z
" />
    <glyph glyph-name="gdotaccent" unicode="&#x121;" 
d="M181 -29q-40 -25 -40 -75q0 -43 27.5 -69.5t71.5 -26.5t71 26.5t27 69.5q0 51 -39 75l31 5q4 0 4 4v14q0 5 -5 5h-180q-3 0 -3 -5v-13q0 -2 3 -5zM240 -173q-32 0 -52 20t-20 51q0 32 20 51.5t52 21.5q32 -2 51 -21.5t19 -51.5t-19.5 -51.5t-50.5 -19.5zM141 120
q0 -43 27.5 -69t71.5 -26t71 26t27 69q0 53 -39 76h39q32 0 50.5 -19.5t18.5 -53.5q-1 -36 -17 -60q-3 -3 2 -6l16 -9h1q1 -1 2 -1t3 3q20 35 20 73q0 45 -26.5 73t-71.5 28l-187 -1q-3 0 -3 -4v-12q0 -3 3 -6l33 -5q-41 -25 -41 -76zM240 52q32 0 51.5 19t19.5 51
q0 33 -19.5 53.5t-51.5 20.5q-31 0 -51 -21t-20 -53q0 -31 19.5 -50.5t51.5 -19.5zM227 265v139q-27 -4 -43 -22.5t-16 -46.5q0 -29 16 -47.5t43 -22.5zM252 265v164q0 3 -4 3q-48 0 -77 -25t-29 -72q0 -44 27 -71t71 -27t71 28t27 74q0 49 -30 76q-2 2 -3 2q-2 0 -4 -2
l-12 -13q-3 -4 1 -7q20 -20 20 -56q0 -30 -16 -50t-42 -24zM240 457q44 0 71 27.5t27 70.5t-27 70t-71 27t-71 -27t-27 -70t27 -70.5t71 -27.5zM240 484q-32 0 -52 20t-20 51t20 50.5t52 19.5t51 -19.5t19 -50.5q0 -32 -19.5 -51.5t-50.5 -19.5zM50 -240v937h433v-937h-433z
" />
    <glyph glyph-name="uni0122" unicode="&#x122;" 
d="M181 -29q-40 -25 -40 -75q0 -43 27.5 -69.5t71.5 -26.5t71 26.5t27 69.5q0 51 -39 75l31 5q4 0 4 4v14q0 5 -5 5h-180q-3 0 -3 -5v-13q0 -2 3 -5zM240 -173q-32 0 -52 20t-20 51q0 32 20 51.5t52 21.5q32 -2 51 -21.5t19 -51.5t-19.5 -51.5t-50.5 -19.5zM141 120
q0 -43 27.5 -69t71.5 -26t71 26t27 69q0 53 -39 76h39q32 0 50.5 -19.5t18.5 -53.5q-1 -36 -17 -60q-3 -3 2 -6l16 -9h1q1 -1 2 -1t3 3q20 35 20 73q0 45 -26.5 73t-71.5 28l-187 -1q-3 0 -3 -4v-12q0 -3 3 -6l33 -5q-41 -25 -41 -76zM240 52q32 0 51.5 19t19.5 51
q0 33 -19.5 53.5t-51.5 20.5q-31 0 -51 -21t-20 -53q0 -31 19.5 -50.5t51.5 -19.5zM227 265v139q-27 -4 -43 -22.5t-16 -46.5q0 -29 16 -47.5t43 -22.5zM252 265v164q0 3 -4 3q-48 0 -77 -25t-29 -72q0 -44 27 -71t71 -27t71 28t27 74q0 49 -30 76q-2 2 -3 2q-2 0 -4 -2
l-12 -13q-3 -4 1 -7q20 -20 20 -56q0 -30 -16 -50t-42 -24zM240 457q44 0 71 27.5t27 70.5t-27 70t-71 27t-71 -27t-27 -70t27 -70.5t71 -27.5zM240 484q-32 0 -52 20t-20 51t20 50.5t52 19.5t51 -19.5t19 -50.5q0 -32 -19.5 -51.5t-50.5 -19.5zM50 -240v937h433v-937h-433z
" />
    <glyph glyph-name="uni0123" unicode="&#x123;" 
d="M181 -29q-40 -25 -40 -75q0 -43 27.5 -69.5t71.5 -26.5t71 26.5t27 69.5q0 51 -39 75l31 5q4 0 4 4v14q0 5 -5 5h-180q-3 0 -3 -5v-13q0 -2 3 -5zM240 -173q-32 0 -52 20t-20 51q0 32 20 51.5t52 21.5q32 -2 51 -21.5t19 -51.5t-19.5 -51.5t-50.5 -19.5zM141 120
q0 -43 27.5 -69t71.5 -26t71 26t27 69q0 53 -39 76h39q32 0 50.5 -19.5t18.5 -53.5q-1 -36 -17 -60q-3 -3 2 -6l16 -9h1q1 -1 2 -1t3 3q20 35 20 73q0 45 -26.5 73t-71.5 28l-187 -1q-3 0 -3 -4v-12q0 -3 3 -6l33 -5q-41 -25 -41 -76zM240 52q32 0 51.5 19t19.5 51
q0 33 -19.5 53.5t-51.5 20.5q-31 0 -51 -21t-20 -53q0 -31 19.5 -50.5t51.5 -19.5zM227 265v139q-27 -4 -43 -22.5t-16 -46.5q0 -29 16 -47.5t43 -22.5zM252 265v164q0 3 -4 3q-48 0 -77 -25t-29 -72q0 -44 27 -71t71 -27t71 28t27 74q0 49 -30 76q-2 2 -3 2q-2 0 -4 -2
l-12 -13q-3 -4 1 -7q20 -20 20 -56q0 -30 -16 -50t-42 -24zM240 457q44 0 71 27.5t27 70.5t-27 70t-71 27t-71 -27t-27 -70t27 -70.5t71 -27.5zM240 484q-32 0 -52 20t-20 51t20 50.5t52 19.5t51 -19.5t19 -50.5q0 -32 -19.5 -51.5t-50.5 -19.5zM50 -240v937h433v-937h-433z
" />
    <glyph glyph-name="Hcircumflex" unicode="&#x124;" 
d="M181 -29q-40 -25 -40 -75q0 -43 27.5 -69.5t71.5 -26.5t71 26.5t27 69.5q0 51 -39 75l31 5q4 0 4 4v14q0 5 -5 5h-180q-3 0 -3 -5v-13q0 -2 3 -5zM240 -173q-32 0 -52 20t-20 51q0 32 20 51.5t52 21.5q32 -2 51 -21.5t19 -51.5t-19.5 -51.5t-50.5 -19.5zM141 120
q0 -43 27.5 -69t71.5 -26t71 26t27 69q0 53 -39 76h39q32 0 50.5 -19.5t18.5 -53.5q-1 -36 -17 -60q-3 -3 2 -6l16 -9h1q1 -1 2 -1t3 3q20 35 20 73q0 45 -26.5 73t-71.5 28l-187 -1q-3 0 -3 -4v-12q0 -3 3 -6l33 -5q-41 -25 -41 -76zM240 52q32 0 51.5 19t19.5 51
q0 33 -19.5 53.5t-51.5 20.5q-31 0 -51 -21t-20 -53q0 -31 19.5 -50.5t51.5 -19.5zM227 265v139q-27 -4 -43 -22.5t-16 -46.5q0 -29 16 -47.5t43 -22.5zM252 265v164q0 3 -4 3q-48 0 -77 -25t-29 -72q0 -44 27 -71t71 -27t71 28t27 74q0 49 -30 76q-2 2 -3 2q-2 0 -4 -2
l-12 -13q-3 -4 1 -7q20 -20 20 -56q0 -30 -16 -50t-42 -24zM240 457q44 0 71 27.5t27 70.5t-27 70t-71 27t-71 -27t-27 -70t27 -70.5t71 -27.5zM240 484q-32 0 -52 20t-20 51t20 50.5t52 19.5t51 -19.5t19 -50.5q0 -32 -19.5 -51.5t-50.5 -19.5zM50 -240v937h433v-937h-433z
" />
    <glyph glyph-name="hcircumflex" unicode="&#x125;" 
d="M181 -29q-40 -25 -40 -75q0 -43 27.5 -69.5t71.5 -26.5t71 26.5t27 69.5q0 51 -39 75l31 5q4 0 4 4v14q0 5 -5 5h-180q-3 0 -3 -5v-13q0 -2 3 -5zM240 -173q-32 0 -52 20t-20 51q0 32 20 51.5t52 21.5q32 -2 51 -21.5t19 -51.5t-19.5 -51.5t-50.5 -19.5zM141 120
q0 -43 27.5 -69t71.5 -26t71 26t27 69q0 53 -39 76h39q32 0 50.5 -19.5t18.5 -53.5q-1 -36 -17 -60q-3 -3 2 -6l16 -9h1q1 -1 2 -1t3 3q20 35 20 73q0 45 -26.5 73t-71.5 28l-187 -1q-3 0 -3 -4v-12q0 -3 3 -6l33 -5q-41 -25 -41 -76zM240 52q32 0 51.5 19t19.5 51
q0 33 -19.5 53.5t-51.5 20.5q-31 0 -51 -21t-20 -53q0 -31 19.5 -50.5t51.5 -19.5zM227 265v139q-27 -4 -43 -22.5t-16 -46.5q0 -29 16 -47.5t43 -22.5zM252 265v164q0 3 -4 3q-48 0 -77 -25t-29 -72q0 -44 27 -71t71 -27t71 28t27 74q0 49 -30 76q-2 2 -3 2q-2 0 -4 -2
l-12 -13q-3 -4 1 -7q20 -20 20 -56q0 -30 -16 -50t-42 -24zM240 457q44 0 71 27.5t27 70.5t-27 70t-71 27t-71 -27t-27 -70t27 -70.5t71 -27.5zM240 484q-32 0 -52 20t-20 51t20 50.5t52 19.5t51 -19.5t19 -50.5q0 -32 -19.5 -51.5t-50.5 -19.5zM50 -240v937h433v-937h-433z
" />
    <glyph glyph-name="Hbar" unicode="&#x126;" 
d="M181 -29q-40 -25 -40 -75q0 -43 27.5 -69.5t71.5 -26.5t71 26.5t27 69.5q0 51 -39 75l31 5q4 0 4 4v14q0 5 -5 5h-180q-3 0 -3 -5v-13q0 -2 3 -5zM240 -173q-32 0 -52 20t-20 51q0 32 20 51.5t52 21.5q32 -2 51 -21.5t19 -51.5t-19.5 -51.5t-50.5 -19.5zM141 120
q0 -43 27.5 -69t71.5 -26t71 26t27 69q0 53 -39 76h39q32 0 50.5 -19.5t18.5 -53.5q-1 -36 -17 -60q-3 -3 2 -6l16 -9h1q1 -1 2 -1t3 3q20 35 20 73q0 45 -26.5 73t-71.5 28l-187 -1q-3 0 -3 -4v-12q0 -3 3 -6l33 -5q-41 -25 -41 -76zM240 52q32 0 51.5 19t19.5 51
q0 33 -19.5 53.5t-51.5 20.5q-31 0 -51 -21t-20 -53q0 -31 19.5 -50.5t51.5 -19.5zM227 265v139q-27 -4 -43 -22.5t-16 -46.5q0 -29 16 -47.5t43 -22.5zM252 265v164q0 3 -4 3q-48 0 -77 -25t-29 -72q0 -44 27 -71t71 -27t71 28t27 74q0 49 -30 76q-2 2 -3 2q-2 0 -4 -2
l-12 -13q-3 -4 1 -7q20 -20 20 -56q0 -30 -16 -50t-42 -24zM240 457q44 0 71 27.5t27 70.5t-27 70t-71 27t-71 -27t-27 -70t27 -70.5t71 -27.5zM240 484q-32 0 -52 20t-20 51t20 50.5t52 19.5t51 -19.5t19 -50.5q0 -32 -19.5 -51.5t-50.5 -19.5zM50 -240v937h433v-937h-433z
" />
    <glyph glyph-name="hbar" unicode="&#x127;" 
d="M181 -29q-40 -25 -40 -75q0 -43 27.5 -69.5t71.5 -26.5t71 26.5t27 69.5q0 51 -39 75l31 5q4 0 4 4v14q0 5 -5 5h-180q-3 0 -3 -5v-13q0 -2 3 -5zM240 -173q-32 0 -52 20t-20 51q0 32 20 51.5t52 21.5q32 -2 51 -21.5t19 -51.5t-19.5 -51.5t-50.5 -19.5zM141 120
q0 -43 27.5 -69t71.5 -26t71 26t27 69q0 53 -39 76h39q32 0 50.5 -19.5t18.5 -53.5q-1 -36 -17 -60q-3 -3 2 -6l16 -9h1q1 -1 2 -1t3 3q20 35 20 73q0 45 -26.5 73t-71.5 28l-187 -1q-3 0 -3 -4v-12q0 -3 3 -6l33 -5q-41 -25 -41 -76zM240 52q32 0 51.5 19t19.5 51
q0 33 -19.5 53.5t-51.5 20.5q-31 0 -51 -21t-20 -53q0 -31 19.5 -50.5t51.5 -19.5zM227 265v139q-27 -4 -43 -22.5t-16 -46.5q0 -29 16 -47.5t43 -22.5zM252 265v164q0 3 -4 3q-48 0 -77 -25t-29 -72q0 -44 27 -71t71 -27t71 28t27 74q0 49 -30 76q-2 2 -3 2q-2 0 -4 -2
l-12 -13q-3 -4 1 -7q20 -20 20 -56q0 -30 -16 -50t-42 -24zM240 457q44 0 71 27.5t27 70.5t-27 70t-71 27t-71 -27t-27 -70t27 -70.5t71 -27.5zM240 484q-32 0 -52 20t-20 51t20 50.5t52 19.5t51 -19.5t19 -50.5q0 -32 -19.5 -51.5t-50.5 -19.5zM50 -240v937h433v-937h-433z
" />
    <glyph glyph-name="Itilde" unicode="&#x128;" 
d="M181 -29q-40 -25 -40 -75q0 -43 27.5 -69.5t71.5 -26.5t71 26.5t27 69.5q0 51 -39 75l31 5q4 0 4 4v14q0 5 -5 5h-180q-3 0 -3 -5v-13q0 -2 3 -5zM240 -173q-32 0 -52 20t-20 51q0 32 20 51.5t52 21.5q32 -2 51 -21.5t19 -51.5t-19.5 -51.5t-50.5 -19.5zM141 120
q0 -43 27.5 -69t71.5 -26t71 26t27 69q0 53 -39 76h39q32 0 50.5 -19.5t18.5 -53.5q-1 -36 -17 -60q-3 -3 2 -6l16 -9h1q1 -1 2 -1t3 3q20 35 20 73q0 45 -26.5 73t-71.5 28l-187 -1q-3 0 -3 -4v-12q0 -3 3 -6l33 -5q-41 -25 -41 -76zM240 52q32 0 51.5 19t19.5 51
q0 33 -19.5 53.5t-51.5 20.5q-31 0 -51 -21t-20 -53q0 -31 19.5 -50.5t51.5 -19.5zM227 265v139q-27 -4 -43 -22.5t-16 -46.5q0 -29 16 -47.5t43 -22.5zM252 265v164q0 3 -4 3q-48 0 -77 -25t-29 -72q0 -44 27 -71t71 -27t71 28t27 74q0 49 -30 76q-2 2 -3 2q-2 0 -4 -2
l-12 -13q-3 -4 1 -7q20 -20 20 -56q0 -30 -16 -50t-42 -24zM240 457q44 0 71 27.5t27 70.5t-27 70t-71 27t-71 -27t-27 -70t27 -70.5t71 -27.5zM240 484q-32 0 -52 20t-20 51t20 50.5t52 19.5t51 -19.5t19 -50.5q0 -32 -19.5 -51.5t-50.5 -19.5zM50 -240v937h433v-937h-433z
" />
    <glyph glyph-name="itilde" unicode="&#x129;" 
d="M181 -29q-40 -25 -40 -75q0 -43 27.5 -69.5t71.5 -26.5t71 26.5t27 69.5q0 51 -39 75l31 5q4 0 4 4v14q0 5 -5 5h-180q-3 0 -3 -5v-13q0 -2 3 -5zM240 -173q-32 0 -52 20t-20 51q0 32 20 51.5t52 21.5q32 -2 51 -21.5t19 -51.5t-19.5 -51.5t-50.5 -19.5zM141 120
q0 -43 27.5 -69t71.5 -26t71 26t27 69q0 53 -39 76h39q32 0 50.5 -19.5t18.5 -53.5q-1 -36 -17 -60q-3 -3 2 -6l16 -9h1q1 -1 2 -1t3 3q20 35 20 73q0 45 -26.5 73t-71.5 28l-187 -1q-3 0 -3 -4v-12q0 -3 3 -6l33 -5q-41 -25 -41 -76zM240 52q32 0 51.5 19t19.5 51
q0 33 -19.5 53.5t-51.5 20.5q-31 0 -51 -21t-20 -53q0 -31 19.5 -50.5t51.5 -19.5zM227 265v139q-27 -4 -43 -22.5t-16 -46.5q0 -29 16 -47.5t43 -22.5zM252 265v164q0 3 -4 3q-48 0 -77 -25t-29 -72q0 -44 27 -71t71 -27t71 28t27 74q0 49 -30 76q-2 2 -3 2q-2 0 -4 -2
l-12 -13q-3 -4 1 -7q20 -20 20 -56q0 -30 -16 -50t-42 -24zM240 457q44 0 71 27.5t27 70.5t-27 70t-71 27t-71 -27t-27 -70t27 -70.5t71 -27.5zM240 484q-32 0 -52 20t-20 51t20 50.5t52 19.5t51 -19.5t19 -50.5q0 -32 -19.5 -51.5t-50.5 -19.5zM50 -240v937h433v-937h-433z
" />
    <glyph glyph-name="Imacron" unicode="&#x12a;" 
d="M181 -29q-40 -25 -40 -75q0 -43 27.5 -69.5t71.5 -26.5t71 26.5t27 69.5q0 51 -39 75l31 5q4 0 4 4v14q0 5 -5 5h-180q-3 0 -3 -5v-13q0 -2 3 -5zM240 -173q-32 0 -52 20t-20 51q0 32 20 51.5t52 21.5q32 -2 51 -21.5t19 -51.5t-19.5 -51.5t-50.5 -19.5zM141 120
q0 -43 27.5 -69t71.5 -26t71 26t27 69q0 53 -39 76h39q32 0 50.5 -19.5t18.5 -53.5q-1 -36 -17 -60q-3 -3 2 -6l16 -9h1q1 -1 2 -1t3 3q20 35 20 73q0 45 -26.5 73t-71.5 28l-187 -1q-3 0 -3 -4v-12q0 -3 3 -6l33 -5q-41 -25 -41 -76zM240 52q32 0 51.5 19t19.5 51
q0 33 -19.5 53.5t-51.5 20.5q-31 0 -51 -21t-20 -53q0 -31 19.5 -50.5t51.5 -19.5zM227 265v139q-27 -4 -43 -22.5t-16 -46.5q0 -29 16 -47.5t43 -22.5zM252 265v164q0 3 -4 3q-48 0 -77 -25t-29 -72q0 -44 27 -71t71 -27t71 28t27 74q0 49 -30 76q-2 2 -3 2q-2 0 -4 -2
l-12 -13q-3 -4 1 -7q20 -20 20 -56q0 -30 -16 -50t-42 -24zM240 457q44 0 71 27.5t27 70.5t-27 70t-71 27t-71 -27t-27 -70t27 -70.5t71 -27.5zM240 484q-32 0 -52 20t-20 51t20 50.5t52 19.5t51 -19.5t19 -50.5q0 -32 -19.5 -51.5t-50.5 -19.5zM50 -240v937h433v-937h-433z
" />
    <glyph glyph-name="imacron" unicode="&#x12b;" 
d="M181 -29q-40 -25 -40 -75q0 -43 27.5 -69.5t71.5 -26.5t71 26.5t27 69.5q0 51 -39 75l31 5q4 0 4 4v14q0 5 -5 5h-180q-3 0 -3 -5v-13q0 -2 3 -5zM240 -173q-32 0 -52 20t-20 51q0 32 20 51.5t52 21.5q32 -2 51 -21.5t19 -51.5t-19.5 -51.5t-50.5 -19.5zM141 120
q0 -43 27.5 -69t71.5 -26t71 26t27 69q0 53 -39 76h39q32 0 50.5 -19.5t18.5 -53.5q-1 -36 -17 -60q-3 -3 2 -6l16 -9h1q1 -1 2 -1t3 3q20 35 20 73q0 45 -26.5 73t-71.5 28l-187 -1q-3 0 -3 -4v-12q0 -3 3 -6l33 -5q-41 -25 -41 -76zM240 52q32 0 51.5 19t19.5 51
q0 33 -19.5 53.5t-51.5 20.5q-31 0 -51 -21t-20 -53q0 -31 19.5 -50.5t51.5 -19.5zM227 265v139q-27 -4 -43 -22.5t-16 -46.5q0 -29 16 -47.5t43 -22.5zM252 265v164q0 3 -4 3q-48 0 -77 -25t-29 -72q0 -44 27 -71t71 -27t71 28t27 74q0 49 -30 76q-2 2 -3 2q-2 0 -4 -2
l-12 -13q-3 -4 1 -7q20 -20 20 -56q0 -30 -16 -50t-42 -24zM240 457q44 0 71 27.5t27 70.5t-27 70t-71 27t-71 -27t-27 -70t27 -70.5t71 -27.5zM240 484q-32 0 -52 20t-20 51t20 50.5t52 19.5t51 -19.5t19 -50.5q0 -32 -19.5 -51.5t-50.5 -19.5zM50 -240v937h433v-937h-433z
" />
    <glyph glyph-name="Iogonek" unicode="&#x12e;" 
d="M181 -29q-40 -25 -40 -75q0 -43 27.5 -69.5t71.5 -26.5t71 26.5t27 69.5q0 51 -39 75l31 5q4 0 4 4v14q0 5 -5 5h-180q-3 0 -3 -5v-13q0 -2 3 -5zM240 -173q-32 0 -52 20t-20 51q0 32 20 51.5t52 21.5q32 -2 51 -21.5t19 -51.5t-19.5 -51.5t-50.5 -19.5zM141 120
q0 -43 27.5 -69t71.5 -26t71 26t27 69q0 53 -39 76h39q32 0 50.5 -19.5t18.5 -53.5q-1 -36 -17 -60q-3 -3 2 -6l16 -9h1q1 -1 2 -1t3 3q20 35 20 73q0 45 -26.5 73t-71.5 28l-187 -1q-3 0 -3 -4v-12q0 -3 3 -6l33 -5q-41 -25 -41 -76zM240 52q32 0 51.5 19t19.5 51
q0 33 -19.5 53.5t-51.5 20.5q-31 0 -51 -21t-20 -53q0 -31 19.5 -50.5t51.5 -19.5zM227 265v139q-27 -4 -43 -22.5t-16 -46.5q0 -29 16 -47.5t43 -22.5zM252 265v164q0 3 -4 3q-48 0 -77 -25t-29 -72q0 -44 27 -71t71 -27t71 28t27 74q0 49 -30 76q-2 2 -3 2q-2 0 -4 -2
l-12 -13q-3 -4 1 -7q20 -20 20 -56q0 -30 -16 -50t-42 -24zM240 457q44 0 71 27.5t27 70.5t-27 70t-71 27t-71 -27t-27 -70t27 -70.5t71 -27.5zM240 484q-32 0 -52 20t-20 51t20 50.5t52 19.5t51 -19.5t19 -50.5q0 -32 -19.5 -51.5t-50.5 -19.5zM50 -240v937h433v-937h-433z
" />
    <glyph glyph-name="iogonek" unicode="&#x12f;" 
d="M181 -29q-40 -25 -40 -75q0 -43 27.5 -69.5t71.5 -26.5t71 26.5t27 69.5q0 51 -39 75l31 5q4 0 4 4v14q0 5 -5 5h-180q-3 0 -3 -5v-13q0 -2 3 -5zM240 -173q-32 0 -52 20t-20 51q0 32 20 51.5t52 21.5q32 -2 51 -21.5t19 -51.5t-19.5 -51.5t-50.5 -19.5zM141 120
q0 -43 27.5 -69t71.5 -26t71 26t27 69q0 53 -39 76h39q32 0 50.5 -19.5t18.5 -53.5q-1 -36 -17 -60q-3 -3 2 -6l16 -9h1q1 -1 2 -1t3 3q20 35 20 73q0 45 -26.5 73t-71.5 28l-187 -1q-3 0 -3 -4v-12q0 -3 3 -6l33 -5q-41 -25 -41 -76zM240 52q32 0 51.5 19t19.5 51
q0 33 -19.5 53.5t-51.5 20.5q-31 0 -51 -21t-20 -53q0 -31 19.5 -50.5t51.5 -19.5zM227 265v139q-27 -4 -43 -22.5t-16 -46.5q0 -29 16 -47.5t43 -22.5zM252 265v164q0 3 -4 3q-48 0 -77 -25t-29 -72q0 -44 27 -71t71 -27t71 28t27 74q0 49 -30 76q-2 2 -3 2q-2 0 -4 -2
l-12 -13q-3 -4 1 -7q20 -20 20 -56q0 -30 -16 -50t-42 -24zM240 457q44 0 71 27.5t27 70.5t-27 70t-71 27t-71 -27t-27 -70t27 -70.5t71 -27.5zM240 484q-32 0 -52 20t-20 51t20 50.5t52 19.5t51 -19.5t19 -50.5q0 -32 -19.5 -51.5t-50.5 -19.5zM50 -240v937h433v-937h-433z
" />
    <glyph glyph-name="Idotaccent" unicode="&#x130;" 
d="M181 -29q-40 -25 -40 -75q0 -43 27.5 -69.5t71.5 -26.5t71 26.5t27 69.5q0 51 -39 75l31 5q4 0 4 4v14q0 5 -5 5h-180q-3 0 -3 -5v-13q0 -2 3 -5zM240 -173q-32 0 -52 20t-20 51q0 32 20 51.5t52 21.5q32 -2 51 -21.5t19 -51.5t-19.5 -51.5t-50.5 -19.5zM141 120
q0 -43 27.5 -69t71.5 -26t71 26t27 69q0 53 -39 76h39q32 0 50.5 -19.5t18.5 -53.5q-1 -36 -17 -60q-3 -3 2 -6l16 -9h1q1 -1 2 -1t3 3q20 35 20 73q0 45 -26.5 73t-71.5 28l-187 -1q-3 0 -3 -4v-12q0 -3 3 -6l33 -5q-41 -25 -41 -76zM240 52q32 0 51.5 19t19.5 51
q0 33 -19.5 53.5t-51.5 20.5q-31 0 -51 -21t-20 -53q0 -31 19.5 -50.5t51.5 -19.5zM227 265v139q-27 -4 -43 -22.5t-16 -46.5q0 -29 16 -47.5t43 -22.5zM252 265v164q0 3 -4 3q-48 0 -77 -25t-29 -72q0 -44 27 -71t71 -27t71 28t27 74q0 49 -30 76q-2 2 -3 2q-2 0 -4 -2
l-12 -13q-3 -4 1 -7q20 -20 20 -56q0 -30 -16 -50t-42 -24zM240 457q44 0 71 27.5t27 70.5t-27 70t-71 27t-71 -27t-27 -70t27 -70.5t71 -27.5zM240 484q-32 0 -52 20t-20 51t20 50.5t52 19.5t51 -19.5t19 -50.5q0 -32 -19.5 -51.5t-50.5 -19.5zM50 -240v937h433v-937h-433z
" />
    <glyph glyph-name="dotlessi" unicode="&#x131;" horiz-adv-x="226" 
d="M161 432v-422q0 -10 -12 -10h-72q-4 0 -7.5 3t-3.5 7l-1 422q0 11 10 11h74q12 0 12 -11z" />
    <glyph glyph-name="IJ" unicode="&#x132;" 
d="M181 -29q-40 -25 -40 -75q0 -43 27.5 -69.5t71.5 -26.5t71 26.5t27 69.5q0 51 -39 75l31 5q4 0 4 4v14q0 5 -5 5h-180q-3 0 -3 -5v-13q0 -2 3 -5zM240 -173q-32 0 -52 20t-20 51q0 32 20 51.5t52 21.5q32 -2 51 -21.5t19 -51.5t-19.5 -51.5t-50.5 -19.5zM141 120
q0 -43 27.5 -69t71.5 -26t71 26t27 69q0 53 -39 76h39q32 0 50.5 -19.5t18.5 -53.5q-1 -36 -17 -60q-3 -3 2 -6l16 -9h1q1 -1 2 -1t3 3q20 35 20 73q0 45 -26.5 73t-71.5 28l-187 -1q-3 0 -3 -4v-12q0 -3 3 -6l33 -5q-41 -25 -41 -76zM240 52q32 0 51.5 19t19.5 51
q0 33 -19.5 53.5t-51.5 20.5q-31 0 -51 -21t-20 -53q0 -31 19.5 -50.5t51.5 -19.5zM227 265v139q-27 -4 -43 -22.5t-16 -46.5q0 -29 16 -47.5t43 -22.5zM252 265v164q0 3 -4 3q-48 0 -77 -25t-29 -72q0 -44 27 -71t71 -27t71 28t27 74q0 49 -30 76q-2 2 -3 2q-2 0 -4 -2
l-12 -13q-3 -4 1 -7q20 -20 20 -56q0 -30 -16 -50t-42 -24zM240 457q44 0 71 27.5t27 70.5t-27 70t-71 27t-71 -27t-27 -70t27 -70.5t71 -27.5zM240 484q-32 0 -52 20t-20 51t20 50.5t52 19.5t51 -19.5t19 -50.5q0 -32 -19.5 -51.5t-50.5 -19.5zM50 -240v937h433v-937h-433z
" />
    <glyph glyph-name="ij" unicode="&#x133;" 
d="M181 -29q-40 -25 -40 -75q0 -43 27.5 -69.5t71.5 -26.5t71 26.5t27 69.5q0 51 -39 75l31 5q4 0 4 4v14q0 5 -5 5h-180q-3 0 -3 -5v-13q0 -2 3 -5zM240 -173q-32 0 -52 20t-20 51q0 32 20 51.5t52 21.5q32 -2 51 -21.5t19 -51.5t-19.5 -51.5t-50.5 -19.5zM141 120
q0 -43 27.5 -69t71.5 -26t71 26t27 69q0 53 -39 76h39q32 0 50.5 -19.5t18.5 -53.5q-1 -36 -17 -60q-3 -3 2 -6l16 -9h1q1 -1 2 -1t3 3q20 35 20 73q0 45 -26.5 73t-71.5 28l-187 -1q-3 0 -3 -4v-12q0 -3 3 -6l33 -5q-41 -25 -41 -76zM240 52q32 0 51.5 19t19.5 51
q0 33 -19.5 53.5t-51.5 20.5q-31 0 -51 -21t-20 -53q0 -31 19.5 -50.5t51.5 -19.5zM227 265v139q-27 -4 -43 -22.5t-16 -46.5q0 -29 16 -47.5t43 -22.5zM252 265v164q0 3 -4 3q-48 0 -77 -25t-29 -72q0 -44 27 -71t71 -27t71 28t27 74q0 49 -30 76q-2 2 -3 2q-2 0 -4 -2
l-12 -13q-3 -4 1 -7q20 -20 20 -56q0 -30 -16 -50t-42 -24zM240 457q44 0 71 27.5t27 70.5t-27 70t-71 27t-71 -27t-27 -70t27 -70.5t71 -27.5zM240 484q-32 0 -52 20t-20 51t20 50.5t52 19.5t51 -19.5t19 -50.5q0 -32 -19.5 -51.5t-50.5 -19.5zM50 -240v937h433v-937h-433z
" />
    <glyph glyph-name="Jcircumflex" unicode="&#x134;" 
d="M181 -29q-40 -25 -40 -75q0 -43 27.5 -69.5t71.5 -26.5t71 26.5t27 69.5q0 51 -39 75l31 5q4 0 4 4v14q0 5 -5 5h-180q-3 0 -3 -5v-13q0 -2 3 -5zM240 -173q-32 0 -52 20t-20 51q0 32 20 51.5t52 21.5q32 -2 51 -21.5t19 -51.5t-19.5 -51.5t-50.5 -19.5zM141 120
q0 -43 27.5 -69t71.5 -26t71 26t27 69q0 53 -39 76h39q32 0 50.5 -19.5t18.5 -53.5q-1 -36 -17 -60q-3 -3 2 -6l16 -9h1q1 -1 2 -1t3 3q20 35 20 73q0 45 -26.5 73t-71.5 28l-187 -1q-3 0 -3 -4v-12q0 -3 3 -6l33 -5q-41 -25 -41 -76zM240 52q32 0 51.5 19t19.5 51
q0 33 -19.5 53.5t-51.5 20.5q-31 0 -51 -21t-20 -53q0 -31 19.5 -50.5t51.5 -19.5zM227 265v139q-27 -4 -43 -22.5t-16 -46.5q0 -29 16 -47.5t43 -22.5zM252 265v164q0 3 -4 3q-48 0 -77 -25t-29 -72q0 -44 27 -71t71 -27t71 28t27 74q0 49 -30 76q-2 2 -3 2q-2 0 -4 -2
l-12 -13q-3 -4 1 -7q20 -20 20 -56q0 -30 -16 -50t-42 -24zM240 457q44 0 71 27.5t27 70.5t-27 70t-71 27t-71 -27t-27 -70t27 -70.5t71 -27.5zM240 484q-32 0 -52 20t-20 51t20 50.5t52 19.5t51 -19.5t19 -50.5q0 -32 -19.5 -51.5t-50.5 -19.5zM50 -240v937h433v-937h-433z
" />
    <glyph glyph-name="jcircumflex" unicode="&#x135;" 
d="M181 -29q-40 -25 -40 -75q0 -43 27.5 -69.5t71.5 -26.5t71 26.5t27 69.5q0 51 -39 75l31 5q4 0 4 4v14q0 5 -5 5h-180q-3 0 -3 -5v-13q0 -2 3 -5zM240 -173q-32 0 -52 20t-20 51q0 32 20 51.5t52 21.5q32 -2 51 -21.5t19 -51.5t-19.5 -51.5t-50.5 -19.5zM141 120
q0 -43 27.5 -69t71.5 -26t71 26t27 69q0 53 -39 76h39q32 0 50.5 -19.5t18.5 -53.5q-1 -36 -17 -60q-3 -3 2 -6l16 -9h1q1 -1 2 -1t3 3q20 35 20 73q0 45 -26.5 73t-71.5 28l-187 -1q-3 0 -3 -4v-12q0 -3 3 -6l33 -5q-41 -25 -41 -76zM240 52q32 0 51.5 19t19.5 51
q0 33 -19.5 53.5t-51.5 20.5q-31 0 -51 -21t-20 -53q0 -31 19.5 -50.5t51.5 -19.5zM227 265v139q-27 -4 -43 -22.5t-16 -46.5q0 -29 16 -47.5t43 -22.5zM252 265v164q0 3 -4 3q-48 0 -77 -25t-29 -72q0 -44 27 -71t71 -27t71 28t27 74q0 49 -30 76q-2 2 -3 2q-2 0 -4 -2
l-12 -13q-3 -4 1 -7q20 -20 20 -56q0 -30 -16 -50t-42 -24zM240 457q44 0 71 27.5t27 70.5t-27 70t-71 27t-71 -27t-27 -70t27 -70.5t71 -27.5zM240 484q-32 0 -52 20t-20 51t20 50.5t52 19.5t51 -19.5t19 -50.5q0 -32 -19.5 -51.5t-50.5 -19.5zM50 -240v937h433v-937h-433z
" />
    <glyph glyph-name="uni0136" unicode="&#x136;" 
d="M181 -29q-40 -25 -40 -75q0 -43 27.5 -69.5t71.5 -26.5t71 26.5t27 69.5q0 51 -39 75l31 5q4 0 4 4v14q0 5 -5 5h-180q-3 0 -3 -5v-13q0 -2 3 -5zM240 -173q-32 0 -52 20t-20 51q0 32 20 51.5t52 21.5q32 -2 51 -21.5t19 -51.5t-19.5 -51.5t-50.5 -19.5zM141 120
q0 -43 27.5 -69t71.5 -26t71 26t27 69q0 53 -39 76h39q32 0 50.5 -19.5t18.5 -53.5q-1 -36 -17 -60q-3 -3 2 -6l16 -9h1q1 -1 2 -1t3 3q20 35 20 73q0 45 -26.5 73t-71.5 28l-187 -1q-3 0 -3 -4v-12q0 -3 3 -6l33 -5q-41 -25 -41 -76zM240 52q32 0 51.5 19t19.5 51
q0 33 -19.5 53.5t-51.5 20.5q-31 0 -51 -21t-20 -53q0 -31 19.5 -50.5t51.5 -19.5zM227 265v139q-27 -4 -43 -22.5t-16 -46.5q0 -29 16 -47.5t43 -22.5zM252 265v164q0 3 -4 3q-48 0 -77 -25t-29 -72q0 -44 27 -71t71 -27t71 28t27 74q0 49 -30 76q-2 2 -3 2q-2 0 -4 -2
l-12 -13q-3 -4 1 -7q20 -20 20 -56q0 -30 -16 -50t-42 -24zM240 457q44 0 71 27.5t27 70.5t-27 70t-71 27t-71 -27t-27 -70t27 -70.5t71 -27.5zM240 484q-32 0 -52 20t-20 51t20 50.5t52 19.5t51 -19.5t19 -50.5q0 -32 -19.5 -51.5t-50.5 -19.5zM50 -240v937h433v-937h-433z
" />
    <glyph glyph-name="uni0137" unicode="&#x137;" 
d="M181 -29q-40 -25 -40 -75q0 -43 27.5 -69.5t71.5 -26.5t71 26.5t27 69.5q0 51 -39 75l31 5q4 0 4 4v14q0 5 -5 5h-180q-3 0 -3 -5v-13q0 -2 3 -5zM240 -173q-32 0 -52 20t-20 51q0 32 20 51.5t52 21.5q32 -2 51 -21.5t19 -51.5t-19.5 -51.5t-50.5 -19.5zM141 120
q0 -43 27.5 -69t71.5 -26t71 26t27 69q0 53 -39 76h39q32 0 50.5 -19.5t18.5 -53.5q-1 -36 -17 -60q-3 -3 2 -6l16 -9h1q1 -1 2 -1t3 3q20 35 20 73q0 45 -26.5 73t-71.5 28l-187 -1q-3 0 -3 -4v-12q0 -3 3 -6l33 -5q-41 -25 -41 -76zM240 52q32 0 51.5 19t19.5 51
q0 33 -19.5 53.5t-51.5 20.5q-31 0 -51 -21t-20 -53q0 -31 19.5 -50.5t51.5 -19.5zM227 265v139q-27 -4 -43 -22.5t-16 -46.5q0 -29 16 -47.5t43 -22.5zM252 265v164q0 3 -4 3q-48 0 -77 -25t-29 -72q0 -44 27 -71t71 -27t71 28t27 74q0 49 -30 76q-2 2 -3 2q-2 0 -4 -2
l-12 -13q-3 -4 1 -7q20 -20 20 -56q0 -30 -16 -50t-42 -24zM240 457q44 0 71 27.5t27 70.5t-27 70t-71 27t-71 -27t-27 -70t27 -70.5t71 -27.5zM240 484q-32 0 -52 20t-20 51t20 50.5t52 19.5t51 -19.5t19 -50.5q0 -32 -19.5 -51.5t-50.5 -19.5zM50 -240v937h433v-937h-433z
" />
    <glyph glyph-name="kgreenlandic" unicode="&#x138;" 
d="M181 -29q-40 -25 -40 -75q0 -43 27.5 -69.5t71.5 -26.5t71 26.5t27 69.5q0 51 -39 75l31 5q4 0 4 4v14q0 5 -5 5h-180q-3 0 -3 -5v-13q0 -2 3 -5zM240 -173q-32 0 -52 20t-20 51q0 32 20 51.5t52 21.5q32 -2 51 -21.5t19 -51.5t-19.5 -51.5t-50.5 -19.5zM141 120
q0 -43 27.5 -69t71.5 -26t71 26t27 69q0 53 -39 76h39q32 0 50.5 -19.5t18.5 -53.5q-1 -36 -17 -60q-3 -3 2 -6l16 -9h1q1 -1 2 -1t3 3q20 35 20 73q0 45 -26.5 73t-71.5 28l-187 -1q-3 0 -3 -4v-12q0 -3 3 -6l33 -5q-41 -25 -41 -76zM240 52q32 0 51.5 19t19.5 51
q0 33 -19.5 53.5t-51.5 20.5q-31 0 -51 -21t-20 -53q0 -31 19.5 -50.5t51.5 -19.5zM227 265v139q-27 -4 -43 -22.5t-16 -46.5q0 -29 16 -47.5t43 -22.5zM252 265v164q0 3 -4 3q-48 0 -77 -25t-29 -72q0 -44 27 -71t71 -27t71 28t27 74q0 49 -30 76q-2 2 -3 2q-2 0 -4 -2
l-12 -13q-3 -4 1 -7q20 -20 20 -56q0 -30 -16 -50t-42 -24zM240 457q44 0 71 27.5t27 70.5t-27 70t-71 27t-71 -27t-27 -70t27 -70.5t71 -27.5zM240 484q-32 0 -52 20t-20 51t20 50.5t52 19.5t51 -19.5t19 -50.5q0 -32 -19.5 -51.5t-50.5 -19.5zM50 -240v937h433v-937h-433z
" />
    <glyph glyph-name="Lacute" unicode="&#x139;" 
d="M181 -29q-40 -25 -40 -75q0 -43 27.5 -69.5t71.5 -26.5t71 26.5t27 69.5q0 51 -39 75l31 5q4 0 4 4v14q0 5 -5 5h-180q-3 0 -3 -5v-13q0 -2 3 -5zM240 -173q-32 0 -52 20t-20 51q0 32 20 51.5t52 21.5q32 -2 51 -21.5t19 -51.5t-19.5 -51.5t-50.5 -19.5zM141 120
q0 -43 27.5 -69t71.5 -26t71 26t27 69q0 53 -39 76h39q32 0 50.5 -19.5t18.5 -53.5q-1 -36 -17 -60q-3 -3 2 -6l16 -9h1q1 -1 2 -1t3 3q20 35 20 73q0 45 -26.5 73t-71.5 28l-187 -1q-3 0 -3 -4v-12q0 -3 3 -6l33 -5q-41 -25 -41 -76zM240 52q32 0 51.5 19t19.5 51
q0 33 -19.5 53.5t-51.5 20.5q-31 0 -51 -21t-20 -53q0 -31 19.5 -50.5t51.5 -19.5zM227 265v139q-27 -4 -43 -22.5t-16 -46.5q0 -29 16 -47.5t43 -22.5zM252 265v164q0 3 -4 3q-48 0 -77 -25t-29 -72q0 -44 27 -71t71 -27t71 28t27 74q0 49 -30 76q-2 2 -3 2q-2 0 -4 -2
l-12 -13q-3 -4 1 -7q20 -20 20 -56q0 -30 -16 -50t-42 -24zM240 457q44 0 71 27.5t27 70.5t-27 70t-71 27t-71 -27t-27 -70t27 -70.5t71 -27.5zM240 484q-32 0 -52 20t-20 51t20 50.5t52 19.5t51 -19.5t19 -50.5q0 -32 -19.5 -51.5t-50.5 -19.5zM50 -240v937h433v-937h-433z
" />
    <glyph glyph-name="lacute" unicode="&#x13a;" 
d="M181 -29q-40 -25 -40 -75q0 -43 27.5 -69.5t71.5 -26.5t71 26.5t27 69.5q0 51 -39 75l31 5q4 0 4 4v14q0 5 -5 5h-180q-3 0 -3 -5v-13q0 -2 3 -5zM240 -173q-32 0 -52 20t-20 51q0 32 20 51.5t52 21.5q32 -2 51 -21.5t19 -51.5t-19.5 -51.5t-50.5 -19.5zM141 120
q0 -43 27.5 -69t71.5 -26t71 26t27 69q0 53 -39 76h39q32 0 50.5 -19.5t18.5 -53.5q-1 -36 -17 -60q-3 -3 2 -6l16 -9h1q1 -1 2 -1t3 3q20 35 20 73q0 45 -26.5 73t-71.5 28l-187 -1q-3 0 -3 -4v-12q0 -3 3 -6l33 -5q-41 -25 -41 -76zM240 52q32 0 51.5 19t19.5 51
q0 33 -19.5 53.5t-51.5 20.5q-31 0 -51 -21t-20 -53q0 -31 19.5 -50.5t51.5 -19.5zM227 265v139q-27 -4 -43 -22.5t-16 -46.5q0 -29 16 -47.5t43 -22.5zM252 265v164q0 3 -4 3q-48 0 -77 -25t-29 -72q0 -44 27 -71t71 -27t71 28t27 74q0 49 -30 76q-2 2 -3 2q-2 0 -4 -2
l-12 -13q-3 -4 1 -7q20 -20 20 -56q0 -30 -16 -50t-42 -24zM240 457q44 0 71 27.5t27 70.5t-27 70t-71 27t-71 -27t-27 -70t27 -70.5t71 -27.5zM240 484q-32 0 -52 20t-20 51t20 50.5t52 19.5t51 -19.5t19 -50.5q0 -32 -19.5 -51.5t-50.5 -19.5zM50 -240v937h433v-937h-433z
" />
    <glyph glyph-name="uni013B" unicode="&#x13b;" 
d="M181 -29q-40 -25 -40 -75q0 -43 27.5 -69.5t71.5 -26.5t71 26.5t27 69.5q0 51 -39 75l31 5q4 0 4 4v14q0 5 -5 5h-180q-3 0 -3 -5v-13q0 -2 3 -5zM240 -173q-32 0 -52 20t-20 51q0 32 20 51.5t52 21.5q32 -2 51 -21.5t19 -51.5t-19.5 -51.5t-50.5 -19.5zM141 120
q0 -43 27.5 -69t71.5 -26t71 26t27 69q0 53 -39 76h39q32 0 50.5 -19.5t18.5 -53.5q-1 -36 -17 -60q-3 -3 2 -6l16 -9h1q1 -1 2 -1t3 3q20 35 20 73q0 45 -26.5 73t-71.5 28l-187 -1q-3 0 -3 -4v-12q0 -3 3 -6l33 -5q-41 -25 -41 -76zM240 52q32 0 51.5 19t19.5 51
q0 33 -19.5 53.5t-51.5 20.5q-31 0 -51 -21t-20 -53q0 -31 19.5 -50.5t51.5 -19.5zM227 265v139q-27 -4 -43 -22.5t-16 -46.5q0 -29 16 -47.5t43 -22.5zM252 265v164q0 3 -4 3q-48 0 -77 -25t-29 -72q0 -44 27 -71t71 -27t71 28t27 74q0 49 -30 76q-2 2 -3 2q-2 0 -4 -2
l-12 -13q-3 -4 1 -7q20 -20 20 -56q0 -30 -16 -50t-42 -24zM240 457q44 0 71 27.5t27 70.5t-27 70t-71 27t-71 -27t-27 -70t27 -70.5t71 -27.5zM240 484q-32 0 -52 20t-20 51t20 50.5t52 19.5t51 -19.5t19 -50.5q0 -32 -19.5 -51.5t-50.5 -19.5zM50 -240v937h433v-937h-433z
" />
    <glyph glyph-name="uni013C" unicode="&#x13c;" 
d="M181 -29q-40 -25 -40 -75q0 -43 27.5 -69.5t71.5 -26.5t71 26.5t27 69.5q0 51 -39 75l31 5q4 0 4 4v14q0 5 -5 5h-180q-3 0 -3 -5v-13q0 -2 3 -5zM240 -173q-32 0 -52 20t-20 51q0 32 20 51.5t52 21.5q32 -2 51 -21.5t19 -51.5t-19.5 -51.5t-50.5 -19.5zM141 120
q0 -43 27.5 -69t71.5 -26t71 26t27 69q0 53 -39 76h39q32 0 50.5 -19.5t18.5 -53.5q-1 -36 -17 -60q-3 -3 2 -6l16 -9h1q1 -1 2 -1t3 3q20 35 20 73q0 45 -26.5 73t-71.5 28l-187 -1q-3 0 -3 -4v-12q0 -3 3 -6l33 -5q-41 -25 -41 -76zM240 52q32 0 51.5 19t19.5 51
q0 33 -19.5 53.5t-51.5 20.5q-31 0 -51 -21t-20 -53q0 -31 19.5 -50.5t51.5 -19.5zM227 265v139q-27 -4 -43 -22.5t-16 -46.5q0 -29 16 -47.5t43 -22.5zM252 265v164q0 3 -4 3q-48 0 -77 -25t-29 -72q0 -44 27 -71t71 -27t71 28t27 74q0 49 -30 76q-2 2 -3 2q-2 0 -4 -2
l-12 -13q-3 -4 1 -7q20 -20 20 -56q0 -30 -16 -50t-42 -24zM240 457q44 0 71 27.5t27 70.5t-27 70t-71 27t-71 -27t-27 -70t27 -70.5t71 -27.5zM240 484q-32 0 -52 20t-20 51t20 50.5t52 19.5t51 -19.5t19 -50.5q0 -32 -19.5 -51.5t-50.5 -19.5zM50 -240v937h433v-937h-433z
" />
    <glyph glyph-name="Lcaron" unicode="&#x13d;" 
d="M181 -29q-40 -25 -40 -75q0 -43 27.5 -69.5t71.5 -26.5t71 26.5t27 69.5q0 51 -39 75l31 5q4 0 4 4v14q0 5 -5 5h-180q-3 0 -3 -5v-13q0 -2 3 -5zM240 -173q-32 0 -52 20t-20 51q0 32 20 51.5t52 21.5q32 -2 51 -21.5t19 -51.5t-19.5 -51.5t-50.5 -19.5zM141 120
q0 -43 27.5 -69t71.5 -26t71 26t27 69q0 53 -39 76h39q32 0 50.5 -19.5t18.5 -53.5q-1 -36 -17 -60q-3 -3 2 -6l16 -9h1q1 -1 2 -1t3 3q20 35 20 73q0 45 -26.5 73t-71.5 28l-187 -1q-3 0 -3 -4v-12q0 -3 3 -6l33 -5q-41 -25 -41 -76zM240 52q32 0 51.5 19t19.5 51
q0 33 -19.5 53.5t-51.5 20.5q-31 0 -51 -21t-20 -53q0 -31 19.5 -50.5t51.5 -19.5zM227 265v139q-27 -4 -43 -22.5t-16 -46.5q0 -29 16 -47.5t43 -22.5zM252 265v164q0 3 -4 3q-48 0 -77 -25t-29 -72q0 -44 27 -71t71 -27t71 28t27 74q0 49 -30 76q-2 2 -3 2q-2 0 -4 -2
l-12 -13q-3 -4 1 -7q20 -20 20 -56q0 -30 -16 -50t-42 -24zM240 457q44 0 71 27.5t27 70.5t-27 70t-71 27t-71 -27t-27 -70t27 -70.5t71 -27.5zM240 484q-32 0 -52 20t-20 51t20 50.5t52 19.5t51 -19.5t19 -50.5q0 -32 -19.5 -51.5t-50.5 -19.5zM50 -240v937h433v-937h-433z
" />
    <glyph glyph-name="lcaron" unicode="&#x13e;" 
d="M181 -29q-40 -25 -40 -75q0 -43 27.5 -69.5t71.5 -26.5t71 26.5t27 69.5q0 51 -39 75l31 5q4 0 4 4v14q0 5 -5 5h-180q-3 0 -3 -5v-13q0 -2 3 -5zM240 -173q-32 0 -52 20t-20 51q0 32 20 51.5t52 21.5q32 -2 51 -21.5t19 -51.5t-19.5 -51.5t-50.5 -19.5zM141 120
q0 -43 27.5 -69t71.5 -26t71 26t27 69q0 53 -39 76h39q32 0 50.5 -19.5t18.5 -53.5q-1 -36 -17 -60q-3 -3 2 -6l16 -9h1q1 -1 2 -1t3 3q20 35 20 73q0 45 -26.5 73t-71.5 28l-187 -1q-3 0 -3 -4v-12q0 -3 3 -6l33 -5q-41 -25 -41 -76zM240 52q32 0 51.5 19t19.5 51
q0 33 -19.5 53.5t-51.5 20.5q-31 0 -51 -21t-20 -53q0 -31 19.5 -50.5t51.5 -19.5zM227 265v139q-27 -4 -43 -22.5t-16 -46.5q0 -29 16 -47.5t43 -22.5zM252 265v164q0 3 -4 3q-48 0 -77 -25t-29 -72q0 -44 27 -71t71 -27t71 28t27 74q0 49 -30 76q-2 2 -3 2q-2 0 -4 -2
l-12 -13q-3 -4 1 -7q20 -20 20 -56q0 -30 -16 -50t-42 -24zM240 457q44 0 71 27.5t27 70.5t-27 70t-71 27t-71 -27t-27 -70t27 -70.5t71 -27.5zM240 484q-32 0 -52 20t-20 51t20 50.5t52 19.5t51 -19.5t19 -50.5q0 -32 -19.5 -51.5t-50.5 -19.5zM50 -240v937h433v-937h-433z
" />
    <glyph glyph-name="Ldot" unicode="&#x13f;" 
d="M181 -29q-40 -25 -40 -75q0 -43 27.5 -69.5t71.5 -26.5t71 26.5t27 69.5q0 51 -39 75l31 5q4 0 4 4v14q0 5 -5 5h-180q-3 0 -3 -5v-13q0 -2 3 -5zM240 -173q-32 0 -52 20t-20 51q0 32 20 51.5t52 21.5q32 -2 51 -21.5t19 -51.5t-19.5 -51.5t-50.5 -19.5zM141 120
q0 -43 27.5 -69t71.5 -26t71 26t27 69q0 53 -39 76h39q32 0 50.5 -19.5t18.5 -53.5q-1 -36 -17 -60q-3 -3 2 -6l16 -9h1q1 -1 2 -1t3 3q20 35 20 73q0 45 -26.5 73t-71.5 28l-187 -1q-3 0 -3 -4v-12q0 -3 3 -6l33 -5q-41 -25 -41 -76zM240 52q32 0 51.5 19t19.5 51
q0 33 -19.5 53.5t-51.5 20.5q-31 0 -51 -21t-20 -53q0 -31 19.5 -50.5t51.5 -19.5zM227 265v139q-27 -4 -43 -22.5t-16 -46.5q0 -29 16 -47.5t43 -22.5zM252 265v164q0 3 -4 3q-48 0 -77 -25t-29 -72q0 -44 27 -71t71 -27t71 28t27 74q0 49 -30 76q-2 2 -3 2q-2 0 -4 -2
l-12 -13q-3 -4 1 -7q20 -20 20 -56q0 -30 -16 -50t-42 -24zM240 457q44 0 71 27.5t27 70.5t-27 70t-71 27t-71 -27t-27 -70t27 -70.5t71 -27.5zM240 484q-32 0 -52 20t-20 51t20 50.5t52 19.5t51 -19.5t19 -50.5q0 -32 -19.5 -51.5t-50.5 -19.5zM50 -240v937h433v-937h-433z
" />
    <glyph glyph-name="ldot" unicode="&#x140;" 
d="M181 -29q-40 -25 -40 -75q0 -43 27.5 -69.5t71.5 -26.5t71 26.5t27 69.5q0 51 -39 75l31 5q4 0 4 4v14q0 5 -5 5h-180q-3 0 -3 -5v-13q0 -2 3 -5zM240 -173q-32 0 -52 20t-20 51q0 32 20 51.5t52 21.5q32 -2 51 -21.5t19 -51.5t-19.5 -51.5t-50.5 -19.5zM141 120
q0 -43 27.5 -69t71.5 -26t71 26t27 69q0 53 -39 76h39q32 0 50.5 -19.5t18.5 -53.5q-1 -36 -17 -60q-3 -3 2 -6l16 -9h1q1 -1 2 -1t3 3q20 35 20 73q0 45 -26.5 73t-71.5 28l-187 -1q-3 0 -3 -4v-12q0 -3 3 -6l33 -5q-41 -25 -41 -76zM240 52q32 0 51.5 19t19.5 51
q0 33 -19.5 53.5t-51.5 20.5q-31 0 -51 -21t-20 -53q0 -31 19.5 -50.5t51.5 -19.5zM227 265v139q-27 -4 -43 -22.5t-16 -46.5q0 -29 16 -47.5t43 -22.5zM252 265v164q0 3 -4 3q-48 0 -77 -25t-29 -72q0 -44 27 -71t71 -27t71 28t27 74q0 49 -30 76q-2 2 -3 2q-2 0 -4 -2
l-12 -13q-3 -4 1 -7q20 -20 20 -56q0 -30 -16 -50t-42 -24zM240 457q44 0 71 27.5t27 70.5t-27 70t-71 27t-71 -27t-27 -70t27 -70.5t71 -27.5zM240 484q-32 0 -52 20t-20 51t20 50.5t52 19.5t51 -19.5t19 -50.5q0 -32 -19.5 -51.5t-50.5 -19.5zM50 -240v937h433v-937h-433z
" />
    <glyph glyph-name="Lslash" unicode="&#x141;" horiz-adv-x="452" 
d="M37 299q0 9 9 14l31 13v358q0 10 10 10h84q10 0 10 -10v-313l134 57q2 1 4 1q6 0 6 -7v-48q0 -11 -10 -14l-134 -58v-209h233q10 0 10 -10v-74q0 -9 -10 -9h-327q-10 0 -10 9v248l-31 -13h-2l-2 -1q-5 0 -5 7v49z" />
    <glyph glyph-name="lslash" unicode="&#x142;" horiz-adv-x="234" 
d="M154 708q10 0 10 -10v-320l69 34q1 1 4 1q5 0 5 -7v-49q0 -9 -9 -14l-69 -33v-300q0 -10 -9 -10h-76q-9 0 -9 10v253l-67 -32q-2 -1 -4 -1q-6 0 -6 8v45q0 12 10 17l67 32l-1 366q0 10 10 10h75z" />
    <glyph glyph-name="Nacute" unicode="&#x143;" 
d="M181 -29q-40 -25 -40 -75q0 -43 27.5 -69.5t71.5 -26.5t71 26.5t27 69.5q0 51 -39 75l31 5q4 0 4 4v14q0 5 -5 5h-180q-3 0 -3 -5v-13q0 -2 3 -5zM240 -173q-32 0 -52 20t-20 51q0 32 20 51.5t52 21.5q32 -2 51 -21.5t19 -51.5t-19.5 -51.5t-50.5 -19.5zM141 120
q0 -43 27.5 -69t71.5 -26t71 26t27 69q0 53 -39 76h39q32 0 50.5 -19.5t18.5 -53.5q-1 -36 -17 -60q-3 -3 2 -6l16 -9h1q1 -1 2 -1t3 3q20 35 20 73q0 45 -26.5 73t-71.5 28l-187 -1q-3 0 -3 -4v-12q0 -3 3 -6l33 -5q-41 -25 -41 -76zM240 52q32 0 51.5 19t19.5 51
q0 33 -19.5 53.5t-51.5 20.5q-31 0 -51 -21t-20 -53q0 -31 19.5 -50.5t51.5 -19.5zM227 265v139q-27 -4 -43 -22.5t-16 -46.5q0 -29 16 -47.5t43 -22.5zM252 265v164q0 3 -4 3q-48 0 -77 -25t-29 -72q0 -44 27 -71t71 -27t71 28t27 74q0 49 -30 76q-2 2 -3 2q-2 0 -4 -2
l-12 -13q-3 -4 1 -7q20 -20 20 -56q0 -30 -16 -50t-42 -24zM240 457q44 0 71 27.5t27 70.5t-27 70t-71 27t-71 -27t-27 -70t27 -70.5t71 -27.5zM240 484q-32 0 -52 20t-20 51t20 50.5t52 19.5t51 -19.5t19 -50.5q0 -32 -19.5 -51.5t-50.5 -19.5zM50 -240v937h433v-937h-433z
" />
    <glyph glyph-name="nacute" unicode="&#x144;" 
d="M181 -29q-40 -25 -40 -75q0 -43 27.5 -69.5t71.5 -26.5t71 26.5t27 69.5q0 51 -39 75l31 5q4 0 4 4v14q0 5 -5 5h-180q-3 0 -3 -5v-13q0 -2 3 -5zM240 -173q-32 0 -52 20t-20 51q0 32 20 51.5t52 21.5q32 -2 51 -21.5t19 -51.5t-19.5 -51.5t-50.5 -19.5zM141 120
q0 -43 27.5 -69t71.5 -26t71 26t27 69q0 53 -39 76h39q32 0 50.5 -19.5t18.5 -53.5q-1 -36 -17 -60q-3 -3 2 -6l16 -9h1q1 -1 2 -1t3 3q20 35 20 73q0 45 -26.5 73t-71.5 28l-187 -1q-3 0 -3 -4v-12q0 -3 3 -6l33 -5q-41 -25 -41 -76zM240 52q32 0 51.5 19t19.5 51
q0 33 -19.5 53.5t-51.5 20.5q-31 0 -51 -21t-20 -53q0 -31 19.5 -50.5t51.5 -19.5zM227 265v139q-27 -4 -43 -22.5t-16 -46.5q0 -29 16 -47.5t43 -22.5zM252 265v164q0 3 -4 3q-48 0 -77 -25t-29 -72q0 -44 27 -71t71 -27t71 28t27 74q0 49 -30 76q-2 2 -3 2q-2 0 -4 -2
l-12 -13q-3 -4 1 -7q20 -20 20 -56q0 -30 -16 -50t-42 -24zM240 457q44 0 71 27.5t27 70.5t-27 70t-71 27t-71 -27t-27 -70t27 -70.5t71 -27.5zM240 484q-32 0 -52 20t-20 51t20 50.5t52 19.5t51 -19.5t19 -50.5q0 -32 -19.5 -51.5t-50.5 -19.5zM50 -240v937h433v-937h-433z
" />
    <glyph glyph-name="uni0145" unicode="&#x145;" 
d="M181 -29q-40 -25 -40 -75q0 -43 27.5 -69.5t71.5 -26.5t71 26.5t27 69.5q0 51 -39 75l31 5q4 0 4 4v14q0 5 -5 5h-180q-3 0 -3 -5v-13q0 -2 3 -5zM240 -173q-32 0 -52 20t-20 51q0 32 20 51.5t52 21.5q32 -2 51 -21.5t19 -51.5t-19.5 -51.5t-50.5 -19.5zM141 120
q0 -43 27.5 -69t71.5 -26t71 26t27 69q0 53 -39 76h39q32 0 50.5 -19.5t18.5 -53.5q-1 -36 -17 -60q-3 -3 2 -6l16 -9h1q1 -1 2 -1t3 3q20 35 20 73q0 45 -26.5 73t-71.5 28l-187 -1q-3 0 -3 -4v-12q0 -3 3 -6l33 -5q-41 -25 -41 -76zM240 52q32 0 51.5 19t19.5 51
q0 33 -19.5 53.5t-51.5 20.5q-31 0 -51 -21t-20 -53q0 -31 19.5 -50.5t51.5 -19.5zM227 265v139q-27 -4 -43 -22.5t-16 -46.5q0 -29 16 -47.5t43 -22.5zM252 265v164q0 3 -4 3q-48 0 -77 -25t-29 -72q0 -44 27 -71t71 -27t71 28t27 74q0 49 -30 76q-2 2 -3 2q-2 0 -4 -2
l-12 -13q-3 -4 1 -7q20 -20 20 -56q0 -30 -16 -50t-42 -24zM240 457q44 0 71 27.5t27 70.5t-27 70t-71 27t-71 -27t-27 -70t27 -70.5t71 -27.5zM240 484q-32 0 -52 20t-20 51t20 50.5t52 19.5t51 -19.5t19 -50.5q0 -32 -19.5 -51.5t-50.5 -19.5zM50 -240v937h433v-937h-433z
" />
    <glyph glyph-name="uni0146" unicode="&#x146;" 
d="M181 -29q-40 -25 -40 -75q0 -43 27.5 -69.5t71.5 -26.5t71 26.5t27 69.5q0 51 -39 75l31 5q4 0 4 4v14q0 5 -5 5h-180q-3 0 -3 -5v-13q0 -2 3 -5zM240 -173q-32 0 -52 20t-20 51q0 32 20 51.5t52 21.5q32 -2 51 -21.5t19 -51.5t-19.5 -51.5t-50.5 -19.5zM141 120
q0 -43 27.5 -69t71.5 -26t71 26t27 69q0 53 -39 76h39q32 0 50.5 -19.5t18.5 -53.5q-1 -36 -17 -60q-3 -3 2 -6l16 -9h1q1 -1 2 -1t3 3q20 35 20 73q0 45 -26.5 73t-71.5 28l-187 -1q-3 0 -3 -4v-12q0 -3 3 -6l33 -5q-41 -25 -41 -76zM240 52q32 0 51.5 19t19.5 51
q0 33 -19.5 53.5t-51.5 20.5q-31 0 -51 -21t-20 -53q0 -31 19.5 -50.5t51.5 -19.5zM227 265v139q-27 -4 -43 -22.5t-16 -46.5q0 -29 16 -47.5t43 -22.5zM252 265v164q0 3 -4 3q-48 0 -77 -25t-29 -72q0 -44 27 -71t71 -27t71 28t27 74q0 49 -30 76q-2 2 -3 2q-2 0 -4 -2
l-12 -13q-3 -4 1 -7q20 -20 20 -56q0 -30 -16 -50t-42 -24zM240 457q44 0 71 27.5t27 70.5t-27 70t-71 27t-71 -27t-27 -70t27 -70.5t71 -27.5zM240 484q-32 0 -52 20t-20 51t20 50.5t52 19.5t51 -19.5t19 -50.5q0 -32 -19.5 -51.5t-50.5 -19.5zM50 -240v937h433v-937h-433z
" />
    <glyph glyph-name="Ncaron" unicode="&#x147;" 
d="M181 -29q-40 -25 -40 -75q0 -43 27.5 -69.5t71.5 -26.5t71 26.5t27 69.5q0 51 -39 75l31 5q4 0 4 4v14q0 5 -5 5h-180q-3 0 -3 -5v-13q0 -2 3 -5zM240 -173q-32 0 -52 20t-20 51q0 32 20 51.5t52 21.5q32 -2 51 -21.5t19 -51.5t-19.5 -51.5t-50.5 -19.5zM141 120
q0 -43 27.5 -69t71.5 -26t71 26t27 69q0 53 -39 76h39q32 0 50.5 -19.5t18.5 -53.5q-1 -36 -17 -60q-3 -3 2 -6l16 -9h1q1 -1 2 -1t3 3q20 35 20 73q0 45 -26.5 73t-71.5 28l-187 -1q-3 0 -3 -4v-12q0 -3 3 -6l33 -5q-41 -25 -41 -76zM240 52q32 0 51.5 19t19.5 51
q0 33 -19.5 53.5t-51.5 20.5q-31 0 -51 -21t-20 -53q0 -31 19.5 -50.5t51.5 -19.5zM227 265v139q-27 -4 -43 -22.5t-16 -46.5q0 -29 16 -47.5t43 -22.5zM252 265v164q0 3 -4 3q-48 0 -77 -25t-29 -72q0 -44 27 -71t71 -27t71 28t27 74q0 49 -30 76q-2 2 -3 2q-2 0 -4 -2
l-12 -13q-3 -4 1 -7q20 -20 20 -56q0 -30 -16 -50t-42 -24zM240 457q44 0 71 27.5t27 70.5t-27 70t-71 27t-71 -27t-27 -70t27 -70.5t71 -27.5zM240 484q-32 0 -52 20t-20 51t20 50.5t52 19.5t51 -19.5t19 -50.5q0 -32 -19.5 -51.5t-50.5 -19.5zM50 -240v937h433v-937h-433z
" />
    <glyph glyph-name="ncaron" unicode="&#x148;" 
d="M181 -29q-40 -25 -40 -75q0 -43 27.5 -69.5t71.5 -26.5t71 26.5t27 69.5q0 51 -39 75l31 5q4 0 4 4v14q0 5 -5 5h-180q-3 0 -3 -5v-13q0 -2 3 -5zM240 -173q-32 0 -52 20t-20 51q0 32 20 51.5t52 21.5q32 -2 51 -21.5t19 -51.5t-19.5 -51.5t-50.5 -19.5zM141 120
q0 -43 27.5 -69t71.5 -26t71 26t27 69q0 53 -39 76h39q32 0 50.5 -19.5t18.5 -53.5q-1 -36 -17 -60q-3 -3 2 -6l16 -9h1q1 -1 2 -1t3 3q20 35 20 73q0 45 -26.5 73t-71.5 28l-187 -1q-3 0 -3 -4v-12q0 -3 3 -6l33 -5q-41 -25 -41 -76zM240 52q32 0 51.5 19t19.5 51
q0 33 -19.5 53.5t-51.5 20.5q-31 0 -51 -21t-20 -53q0 -31 19.5 -50.5t51.5 -19.5zM227 265v139q-27 -4 -43 -22.5t-16 -46.5q0 -29 16 -47.5t43 -22.5zM252 265v164q0 3 -4 3q-48 0 -77 -25t-29 -72q0 -44 27 -71t71 -27t71 28t27 74q0 49 -30 76q-2 2 -3 2q-2 0 -4 -2
l-12 -13q-3 -4 1 -7q20 -20 20 -56q0 -30 -16 -50t-42 -24zM240 457q44 0 71 27.5t27 70.5t-27 70t-71 27t-71 -27t-27 -70t27 -70.5t71 -27.5zM240 484q-32 0 -52 20t-20 51t20 50.5t52 19.5t51 -19.5t19 -50.5q0 -32 -19.5 -51.5t-50.5 -19.5zM50 -240v937h433v-937h-433z
" />
    <glyph glyph-name="napostrophe" unicode="&#x149;" 
d="M181 -29q-40 -25 -40 -75q0 -43 27.5 -69.5t71.5 -26.5t71 26.5t27 69.5q0 51 -39 75l31 5q4 0 4 4v14q0 5 -5 5h-180q-3 0 -3 -5v-13q0 -2 3 -5zM240 -173q-32 0 -52 20t-20 51q0 32 20 51.5t52 21.5q32 -2 51 -21.5t19 -51.5t-19.5 -51.5t-50.5 -19.5zM141 120
q0 -43 27.5 -69t71.5 -26t71 26t27 69q0 53 -39 76h39q32 0 50.5 -19.5t18.5 -53.5q-1 -36 -17 -60q-3 -3 2 -6l16 -9h1q1 -1 2 -1t3 3q20 35 20 73q0 45 -26.5 73t-71.5 28l-187 -1q-3 0 -3 -4v-12q0 -3 3 -6l33 -5q-41 -25 -41 -76zM240 52q32 0 51.5 19t19.5 51
q0 33 -19.5 53.5t-51.5 20.5q-31 0 -51 -21t-20 -53q0 -31 19.5 -50.5t51.5 -19.5zM227 265v139q-27 -4 -43 -22.5t-16 -46.5q0 -29 16 -47.5t43 -22.5zM252 265v164q0 3 -4 3q-48 0 -77 -25t-29 -72q0 -44 27 -71t71 -27t71 28t27 74q0 49 -30 76q-2 2 -3 2q-2 0 -4 -2
l-12 -13q-3 -4 1 -7q20 -20 20 -56q0 -30 -16 -50t-42 -24zM240 457q44 0 71 27.5t27 70.5t-27 70t-71 27t-71 -27t-27 -70t27 -70.5t71 -27.5zM240 484q-32 0 -52 20t-20 51t20 50.5t52 19.5t51 -19.5t19 -50.5q0 -32 -19.5 -51.5t-50.5 -19.5zM50 -240v937h433v-937h-433z
" />
    <glyph glyph-name="Omacron" unicode="&#x14c;" 
d="M181 -29q-40 -25 -40 -75q0 -43 27.5 -69.5t71.5 -26.5t71 26.5t27 69.5q0 51 -39 75l31 5q4 0 4 4v14q0 5 -5 5h-180q-3 0 -3 -5v-13q0 -2 3 -5zM240 -173q-32 0 -52 20t-20 51q0 32 20 51.5t52 21.5q32 -2 51 -21.5t19 -51.5t-19.5 -51.5t-50.5 -19.5zM141 120
q0 -43 27.5 -69t71.5 -26t71 26t27 69q0 53 -39 76h39q32 0 50.5 -19.5t18.5 -53.5q-1 -36 -17 -60q-3 -3 2 -6l16 -9h1q1 -1 2 -1t3 3q20 35 20 73q0 45 -26.5 73t-71.5 28l-187 -1q-3 0 -3 -4v-12q0 -3 3 -6l33 -5q-41 -25 -41 -76zM240 52q32 0 51.5 19t19.5 51
q0 33 -19.5 53.5t-51.5 20.5q-31 0 -51 -21t-20 -53q0 -31 19.5 -50.5t51.5 -19.5zM227 265v139q-27 -4 -43 -22.5t-16 -46.5q0 -29 16 -47.5t43 -22.5zM252 265v164q0 3 -4 3q-48 0 -77 -25t-29 -72q0 -44 27 -71t71 -27t71 28t27 74q0 49 -30 76q-2 2 -3 2q-2 0 -4 -2
l-12 -13q-3 -4 1 -7q20 -20 20 -56q0 -30 -16 -50t-42 -24zM240 457q44 0 71 27.5t27 70.5t-27 70t-71 27t-71 -27t-27 -70t27 -70.5t71 -27.5zM240 484q-32 0 -52 20t-20 51t20 50.5t52 19.5t51 -19.5t19 -50.5q0 -32 -19.5 -51.5t-50.5 -19.5zM50 -240v937h433v-937h-433z
" />
    <glyph glyph-name="omacron" unicode="&#x14d;" 
d="M181 -29q-40 -25 -40 -75q0 -43 27.5 -69.5t71.5 -26.5t71 26.5t27 69.5q0 51 -39 75l31 5q4 0 4 4v14q0 5 -5 5h-180q-3 0 -3 -5v-13q0 -2 3 -5zM240 -173q-32 0 -52 20t-20 51q0 32 20 51.5t52 21.5q32 -2 51 -21.5t19 -51.5t-19.5 -51.5t-50.5 -19.5zM141 120
q0 -43 27.5 -69t71.5 -26t71 26t27 69q0 53 -39 76h39q32 0 50.5 -19.5t18.5 -53.5q-1 -36 -17 -60q-3 -3 2 -6l16 -9h1q1 -1 2 -1t3 3q20 35 20 73q0 45 -26.5 73t-71.5 28l-187 -1q-3 0 -3 -4v-12q0 -3 3 -6l33 -5q-41 -25 -41 -76zM240 52q32 0 51.5 19t19.5 51
q0 33 -19.5 53.5t-51.5 20.5q-31 0 -51 -21t-20 -53q0 -31 19.5 -50.5t51.5 -19.5zM227 265v139q-27 -4 -43 -22.5t-16 -46.5q0 -29 16 -47.5t43 -22.5zM252 265v164q0 3 -4 3q-48 0 -77 -25t-29 -72q0 -44 27 -71t71 -27t71 28t27 74q0 49 -30 76q-2 2 -3 2q-2 0 -4 -2
l-12 -13q-3 -4 1 -7q20 -20 20 -56q0 -30 -16 -50t-42 -24zM240 457q44 0 71 27.5t27 70.5t-27 70t-71 27t-71 -27t-27 -70t27 -70.5t71 -27.5zM240 484q-32 0 -52 20t-20 51t20 50.5t52 19.5t51 -19.5t19 -50.5q0 -32 -19.5 -51.5t-50.5 -19.5zM50 -240v937h433v-937h-433z
" />
    <glyph glyph-name="Obreve" unicode="&#x14e;" 
d="M181 -29q-40 -25 -40 -75q0 -43 27.5 -69.5t71.5 -26.5t71 26.5t27 69.5q0 51 -39 75l31 5q4 0 4 4v14q0 5 -5 5h-180q-3 0 -3 -5v-13q0 -2 3 -5zM240 -173q-32 0 -52 20t-20 51q0 32 20 51.5t52 21.5q32 -2 51 -21.5t19 -51.5t-19.5 -51.5t-50.5 -19.5zM141 120
q0 -43 27.5 -69t71.5 -26t71 26t27 69q0 53 -39 76h39q32 0 50.5 -19.5t18.5 -53.5q-1 -36 -17 -60q-3 -3 2 -6l16 -9h1q1 -1 2 -1t3 3q20 35 20 73q0 45 -26.5 73t-71.5 28l-187 -1q-3 0 -3 -4v-12q0 -3 3 -6l33 -5q-41 -25 -41 -76zM240 52q32 0 51.5 19t19.5 51
q0 33 -19.5 53.5t-51.5 20.5q-31 0 -51 -21t-20 -53q0 -31 19.5 -50.5t51.5 -19.5zM227 265v139q-27 -4 -43 -22.5t-16 -46.5q0 -29 16 -47.5t43 -22.5zM252 265v164q0 3 -4 3q-48 0 -77 -25t-29 -72q0 -44 27 -71t71 -27t71 28t27 74q0 49 -30 76q-2 2 -3 2q-2 0 -4 -2
l-12 -13q-3 -4 1 -7q20 -20 20 -56q0 -30 -16 -50t-42 -24zM240 457q44 0 71 27.5t27 70.5t-27 70t-71 27t-71 -27t-27 -70t27 -70.5t71 -27.5zM240 484q-32 0 -52 20t-20 51t20 50.5t52 19.5t51 -19.5t19 -50.5q0 -32 -19.5 -51.5t-50.5 -19.5zM50 -240v937h433v-937h-433z
" />
    <glyph glyph-name="obreve" unicode="&#x14f;" 
d="M181 -29q-40 -25 -40 -75q0 -43 27.5 -69.5t71.5 -26.5t71 26.5t27 69.5q0 51 -39 75l31 5q4 0 4 4v14q0 5 -5 5h-180q-3 0 -3 -5v-13q0 -2 3 -5zM240 -173q-32 0 -52 20t-20 51q0 32 20 51.5t52 21.5q32 -2 51 -21.5t19 -51.5t-19.5 -51.5t-50.5 -19.5zM141 120
q0 -43 27.5 -69t71.5 -26t71 26t27 69q0 53 -39 76h39q32 0 50.5 -19.5t18.5 -53.5q-1 -36 -17 -60q-3 -3 2 -6l16 -9h1q1 -1 2 -1t3 3q20 35 20 73q0 45 -26.5 73t-71.5 28l-187 -1q-3 0 -3 -4v-12q0 -3 3 -6l33 -5q-41 -25 -41 -76zM240 52q32 0 51.5 19t19.5 51
q0 33 -19.5 53.5t-51.5 20.5q-31 0 -51 -21t-20 -53q0 -31 19.5 -50.5t51.5 -19.5zM227 265v139q-27 -4 -43 -22.5t-16 -46.5q0 -29 16 -47.5t43 -22.5zM252 265v164q0 3 -4 3q-48 0 -77 -25t-29 -72q0 -44 27 -71t71 -27t71 28t27 74q0 49 -30 76q-2 2 -3 2q-2 0 -4 -2
l-12 -13q-3 -4 1 -7q20 -20 20 -56q0 -30 -16 -50t-42 -24zM240 457q44 0 71 27.5t27 70.5t-27 70t-71 27t-71 -27t-27 -70t27 -70.5t71 -27.5zM240 484q-32 0 -52 20t-20 51t20 50.5t52 19.5t51 -19.5t19 -50.5q0 -32 -19.5 -51.5t-50.5 -19.5zM50 -240v937h433v-937h-433z
" />
    <glyph glyph-name="Ohungarumlaut" unicode="&#x150;" 
d="M181 -29q-40 -25 -40 -75q0 -43 27.5 -69.5t71.5 -26.5t71 26.5t27 69.5q0 51 -39 75l31 5q4 0 4 4v14q0 5 -5 5h-180q-3 0 -3 -5v-13q0 -2 3 -5zM240 -173q-32 0 -52 20t-20 51q0 32 20 51.5t52 21.5q32 -2 51 -21.5t19 -51.5t-19.5 -51.5t-50.5 -19.5zM141 120
q0 -43 27.5 -69t71.5 -26t71 26t27 69q0 53 -39 76h39q32 0 50.5 -19.5t18.5 -53.5q-1 -36 -17 -60q-3 -3 2 -6l16 -9h1q1 -1 2 -1t3 3q20 35 20 73q0 45 -26.5 73t-71.5 28l-187 -1q-3 0 -3 -4v-12q0 -3 3 -6l33 -5q-41 -25 -41 -76zM240 52q32 0 51.5 19t19.5 51
q0 33 -19.5 53.5t-51.5 20.5q-31 0 -51 -21t-20 -53q0 -31 19.5 -50.5t51.5 -19.5zM227 265v139q-27 -4 -43 -22.5t-16 -46.5q0 -29 16 -47.5t43 -22.5zM252 265v164q0 3 -4 3q-48 0 -77 -25t-29 -72q0 -44 27 -71t71 -27t71 28t27 74q0 49 -30 76q-2 2 -3 2q-2 0 -4 -2
l-12 -13q-3 -4 1 -7q20 -20 20 -56q0 -30 -16 -50t-42 -24zM240 457q44 0 71 27.5t27 70.5t-27 70t-71 27t-71 -27t-27 -70t27 -70.5t71 -27.5zM240 484q-32 0 -52 20t-20 51t20 50.5t52 19.5t51 -19.5t19 -50.5q0 -32 -19.5 -51.5t-50.5 -19.5zM50 -240v937h433v-937h-433z
" />
    <glyph glyph-name="ohungarumlaut" unicode="&#x151;" 
d="M181 -29q-40 -25 -40 -75q0 -43 27.5 -69.5t71.5 -26.5t71 26.5t27 69.5q0 51 -39 75l31 5q4 0 4 4v14q0 5 -5 5h-180q-3 0 -3 -5v-13q0 -2 3 -5zM240 -173q-32 0 -52 20t-20 51q0 32 20 51.5t52 21.5q32 -2 51 -21.5t19 -51.5t-19.5 -51.5t-50.5 -19.5zM141 120
q0 -43 27.5 -69t71.5 -26t71 26t27 69q0 53 -39 76h39q32 0 50.5 -19.5t18.5 -53.5q-1 -36 -17 -60q-3 -3 2 -6l16 -9h1q1 -1 2 -1t3 3q20 35 20 73q0 45 -26.5 73t-71.5 28l-187 -1q-3 0 -3 -4v-12q0 -3 3 -6l33 -5q-41 -25 -41 -76zM240 52q32 0 51.5 19t19.5 51
q0 33 -19.5 53.5t-51.5 20.5q-31 0 -51 -21t-20 -53q0 -31 19.5 -50.5t51.5 -19.5zM227 265v139q-27 -4 -43 -22.5t-16 -46.5q0 -29 16 -47.5t43 -22.5zM252 265v164q0 3 -4 3q-48 0 -77 -25t-29 -72q0 -44 27 -71t71 -27t71 28t27 74q0 49 -30 76q-2 2 -3 2q-2 0 -4 -2
l-12 -13q-3 -4 1 -7q20 -20 20 -56q0 -30 -16 -50t-42 -24zM240 457q44 0 71 27.5t27 70.5t-27 70t-71 27t-71 -27t-27 -70t27 -70.5t71 -27.5zM240 484q-32 0 -52 20t-20 51t20 50.5t52 19.5t51 -19.5t19 -50.5q0 -32 -19.5 -51.5t-50.5 -19.5zM50 -240v937h433v-937h-433z
" />
    <glyph glyph-name="OE" unicode="&#x152;" horiz-adv-x="754" 
d="M706 0h-324q-155 2 -249.5 96.5t-94.5 250.5t94 250.5t248 96.5h315q11 0 11 -12v-70q0 -11 -11 -11h-219v-201h172q11 0 11 -11v-71q0 -11 -11 -11h-172v-214h229q11 0 11 -11v-72q0 -10 -10 -10zM373 101v491q-105 -7 -168 -72t-63 -173t62.5 -173.5t168.5 -72.5z" />
    <glyph glyph-name="oe" unicode="&#x153;" horiz-adv-x="926" 
d="M130 231q0 -65 39 -104.5t103 -39.5t103.5 39t39.5 105q0 65 -39.5 104.5t-103.5 39.5t-103 -39.5t-39 -104.5zM516 266h276q-9 51 -45.5 81t-92.5 30t-92.5 -30t-45.5 -81zM33 231q0 107 66 174t173 67q128 0 192 -91q65 89 190 89q121 0 180.5 -73.5t58.5 -195.5
q0 -10 -10 -10h-365q11 -50 50 -79.5t98 -29.5q75 0 115 42q4 4 9 4q4 0 7 -3l50 -52q8 -7 1 -14q-63 -69 -186 -69q-131 0 -198 91q-65 -91 -192 -91q-107 0 -173 67t-66 174z" />
    <glyph glyph-name="Racute" unicode="&#x154;" 
d="M181 -29q-40 -25 -40 -75q0 -43 27.5 -69.5t71.5 -26.5t71 26.5t27 69.5q0 51 -39 75l31 5q4 0 4 4v14q0 5 -5 5h-180q-3 0 -3 -5v-13q0 -2 3 -5zM240 -173q-32 0 -52 20t-20 51q0 32 20 51.5t52 21.5q32 -2 51 -21.5t19 -51.5t-19.5 -51.5t-50.5 -19.5zM141 120
q0 -43 27.5 -69t71.5 -26t71 26t27 69q0 53 -39 76h39q32 0 50.5 -19.5t18.5 -53.5q-1 -36 -17 -60q-3 -3 2 -6l16 -9h1q1 -1 2 -1t3 3q20 35 20 73q0 45 -26.5 73t-71.5 28l-187 -1q-3 0 -3 -4v-12q0 -3 3 -6l33 -5q-41 -25 -41 -76zM240 52q32 0 51.5 19t19.5 51
q0 33 -19.5 53.5t-51.5 20.5q-31 0 -51 -21t-20 -53q0 -31 19.5 -50.5t51.5 -19.5zM227 265v139q-27 -4 -43 -22.5t-16 -46.5q0 -29 16 -47.5t43 -22.5zM252 265v164q0 3 -4 3q-48 0 -77 -25t-29 -72q0 -44 27 -71t71 -27t71 28t27 74q0 49 -30 76q-2 2 -3 2q-2 0 -4 -2
l-12 -13q-3 -4 1 -7q20 -20 20 -56q0 -30 -16 -50t-42 -24zM240 457q44 0 71 27.5t27 70.5t-27 70t-71 27t-71 -27t-27 -70t27 -70.5t71 -27.5zM240 484q-32 0 -52 20t-20 51t20 50.5t52 19.5t51 -19.5t19 -50.5q0 -32 -19.5 -51.5t-50.5 -19.5zM50 -240v937h433v-937h-433z
" />
    <glyph glyph-name="racute" unicode="&#x155;" 
d="M181 -29q-40 -25 -40 -75q0 -43 27.5 -69.5t71.5 -26.5t71 26.5t27 69.5q0 51 -39 75l31 5q4 0 4 4v14q0 5 -5 5h-180q-3 0 -3 -5v-13q0 -2 3 -5zM240 -173q-32 0 -52 20t-20 51q0 32 20 51.5t52 21.5q32 -2 51 -21.5t19 -51.5t-19.5 -51.5t-50.5 -19.5zM141 120
q0 -43 27.5 -69t71.5 -26t71 26t27 69q0 53 -39 76h39q32 0 50.5 -19.5t18.5 -53.5q-1 -36 -17 -60q-3 -3 2 -6l16 -9h1q1 -1 2 -1t3 3q20 35 20 73q0 45 -26.5 73t-71.5 28l-187 -1q-3 0 -3 -4v-12q0 -3 3 -6l33 -5q-41 -25 -41 -76zM240 52q32 0 51.5 19t19.5 51
q0 33 -19.5 53.5t-51.5 20.5q-31 0 -51 -21t-20 -53q0 -31 19.5 -50.5t51.5 -19.5zM227 265v139q-27 -4 -43 -22.5t-16 -46.5q0 -29 16 -47.5t43 -22.5zM252 265v164q0 3 -4 3q-48 0 -77 -25t-29 -72q0 -44 27 -71t71 -27t71 28t27 74q0 49 -30 76q-2 2 -3 2q-2 0 -4 -2
l-12 -13q-3 -4 1 -7q20 -20 20 -56q0 -30 -16 -50t-42 -24zM240 457q44 0 71 27.5t27 70.5t-27 70t-71 27t-71 -27t-27 -70t27 -70.5t71 -27.5zM240 484q-32 0 -52 20t-20 51t20 50.5t52 19.5t51 -19.5t19 -50.5q0 -32 -19.5 -51.5t-50.5 -19.5zM50 -240v937h433v-937h-433z
" />
    <glyph glyph-name="uni0156" unicode="&#x156;" 
d="M181 -29q-40 -25 -40 -75q0 -43 27.5 -69.5t71.5 -26.5t71 26.5t27 69.5q0 51 -39 75l31 5q4 0 4 4v14q0 5 -5 5h-180q-3 0 -3 -5v-13q0 -2 3 -5zM240 -173q-32 0 -52 20t-20 51q0 32 20 51.5t52 21.5q32 -2 51 -21.5t19 -51.5t-19.5 -51.5t-50.5 -19.5zM141 120
q0 -43 27.5 -69t71.5 -26t71 26t27 69q0 53 -39 76h39q32 0 50.5 -19.5t18.5 -53.5q-1 -36 -17 -60q-3 -3 2 -6l16 -9h1q1 -1 2 -1t3 3q20 35 20 73q0 45 -26.5 73t-71.5 28l-187 -1q-3 0 -3 -4v-12q0 -3 3 -6l33 -5q-41 -25 -41 -76zM240 52q32 0 51.5 19t19.5 51
q0 33 -19.5 53.5t-51.5 20.5q-31 0 -51 -21t-20 -53q0 -31 19.5 -50.5t51.5 -19.5zM227 265v139q-27 -4 -43 -22.5t-16 -46.5q0 -29 16 -47.5t43 -22.5zM252 265v164q0 3 -4 3q-48 0 -77 -25t-29 -72q0 -44 27 -71t71 -27t71 28t27 74q0 49 -30 76q-2 2 -3 2q-2 0 -4 -2
l-12 -13q-3 -4 1 -7q20 -20 20 -56q0 -30 -16 -50t-42 -24zM240 457q44 0 71 27.5t27 70.5t-27 70t-71 27t-71 -27t-27 -70t27 -70.5t71 -27.5zM240 484q-32 0 -52 20t-20 51t20 50.5t52 19.5t51 -19.5t19 -50.5q0 -32 -19.5 -51.5t-50.5 -19.5zM50 -240v937h433v-937h-433z
" />
    <glyph glyph-name="uni0157" unicode="&#x157;" 
d="M181 -29q-40 -25 -40 -75q0 -43 27.5 -69.5t71.5 -26.5t71 26.5t27 69.5q0 51 -39 75l31 5q4 0 4 4v14q0 5 -5 5h-180q-3 0 -3 -5v-13q0 -2 3 -5zM240 -173q-32 0 -52 20t-20 51q0 32 20 51.5t52 21.5q32 -2 51 -21.5t19 -51.5t-19.5 -51.5t-50.5 -19.5zM141 120
q0 -43 27.5 -69t71.5 -26t71 26t27 69q0 53 -39 76h39q32 0 50.5 -19.5t18.5 -53.5q-1 -36 -17 -60q-3 -3 2 -6l16 -9h1q1 -1 2 -1t3 3q20 35 20 73q0 45 -26.5 73t-71.5 28l-187 -1q-3 0 -3 -4v-12q0 -3 3 -6l33 -5q-41 -25 -41 -76zM240 52q32 0 51.5 19t19.5 51
q0 33 -19.5 53.5t-51.5 20.5q-31 0 -51 -21t-20 -53q0 -31 19.5 -50.5t51.5 -19.5zM227 265v139q-27 -4 -43 -22.5t-16 -46.5q0 -29 16 -47.5t43 -22.5zM252 265v164q0 3 -4 3q-48 0 -77 -25t-29 -72q0 -44 27 -71t71 -27t71 28t27 74q0 49 -30 76q-2 2 -3 2q-2 0 -4 -2
l-12 -13q-3 -4 1 -7q20 -20 20 -56q0 -30 -16 -50t-42 -24zM240 457q44 0 71 27.5t27 70.5t-27 70t-71 27t-71 -27t-27 -70t27 -70.5t71 -27.5zM240 484q-32 0 -52 20t-20 51t20 50.5t52 19.5t51 -19.5t19 -50.5q0 -32 -19.5 -51.5t-50.5 -19.5zM50 -240v937h433v-937h-433z
" />
    <glyph glyph-name="Rcaron" unicode="&#x158;" 
d="M181 -29q-40 -25 -40 -75q0 -43 27.5 -69.5t71.5 -26.5t71 26.5t27 69.5q0 51 -39 75l31 5q4 0 4 4v14q0 5 -5 5h-180q-3 0 -3 -5v-13q0 -2 3 -5zM240 -173q-32 0 -52 20t-20 51q0 32 20 51.5t52 21.5q32 -2 51 -21.5t19 -51.5t-19.5 -51.5t-50.5 -19.5zM141 120
q0 -43 27.5 -69t71.5 -26t71 26t27 69q0 53 -39 76h39q32 0 50.5 -19.5t18.5 -53.5q-1 -36 -17 -60q-3 -3 2 -6l16 -9h1q1 -1 2 -1t3 3q20 35 20 73q0 45 -26.5 73t-71.5 28l-187 -1q-3 0 -3 -4v-12q0 -3 3 -6l33 -5q-41 -25 -41 -76zM240 52q32 0 51.5 19t19.5 51
q0 33 -19.5 53.5t-51.5 20.5q-31 0 -51 -21t-20 -53q0 -31 19.5 -50.5t51.5 -19.5zM227 265v139q-27 -4 -43 -22.5t-16 -46.5q0 -29 16 -47.5t43 -22.5zM252 265v164q0 3 -4 3q-48 0 -77 -25t-29 -72q0 -44 27 -71t71 -27t71 28t27 74q0 49 -30 76q-2 2 -3 2q-2 0 -4 -2
l-12 -13q-3 -4 1 -7q20 -20 20 -56q0 -30 -16 -50t-42 -24zM240 457q44 0 71 27.5t27 70.5t-27 70t-71 27t-71 -27t-27 -70t27 -70.5t71 -27.5zM240 484q-32 0 -52 20t-20 51t20 50.5t52 19.5t51 -19.5t19 -50.5q0 -32 -19.5 -51.5t-50.5 -19.5zM50 -240v937h433v-937h-433z
" />
    <glyph glyph-name="rcaron" unicode="&#x159;" 
d="M181 -29q-40 -25 -40 -75q0 -43 27.5 -69.5t71.5 -26.5t71 26.5t27 69.5q0 51 -39 75l31 5q4 0 4 4v14q0 5 -5 5h-180q-3 0 -3 -5v-13q0 -2 3 -5zM240 -173q-32 0 -52 20t-20 51q0 32 20 51.5t52 21.5q32 -2 51 -21.5t19 -51.5t-19.5 -51.5t-50.5 -19.5zM141 120
q0 -43 27.5 -69t71.5 -26t71 26t27 69q0 53 -39 76h39q32 0 50.5 -19.5t18.5 -53.5q-1 -36 -17 -60q-3 -3 2 -6l16 -9h1q1 -1 2 -1t3 3q20 35 20 73q0 45 -26.5 73t-71.5 28l-187 -1q-3 0 -3 -4v-12q0 -3 3 -6l33 -5q-41 -25 -41 -76zM240 52q32 0 51.5 19t19.5 51
q0 33 -19.5 53.5t-51.5 20.5q-31 0 -51 -21t-20 -53q0 -31 19.5 -50.5t51.5 -19.5zM227 265v139q-27 -4 -43 -22.5t-16 -46.5q0 -29 16 -47.5t43 -22.5zM252 265v164q0 3 -4 3q-48 0 -77 -25t-29 -72q0 -44 27 -71t71 -27t71 28t27 74q0 49 -30 76q-2 2 -3 2q-2 0 -4 -2
l-12 -13q-3 -4 1 -7q20 -20 20 -56q0 -30 -16 -50t-42 -24zM240 457q44 0 71 27.5t27 70.5t-27 70t-71 27t-71 -27t-27 -70t27 -70.5t71 -27.5zM240 484q-32 0 -52 20t-20 51t20 50.5t52 19.5t51 -19.5t19 -50.5q0 -32 -19.5 -51.5t-50.5 -19.5zM50 -240v937h433v-937h-433z
" />
    <glyph glyph-name="Sacute" unicode="&#x15a;" 
d="M181 -29q-40 -25 -40 -75q0 -43 27.5 -69.5t71.5 -26.5t71 26.5t27 69.5q0 51 -39 75l31 5q4 0 4 4v14q0 5 -5 5h-180q-3 0 -3 -5v-13q0 -2 3 -5zM240 -173q-32 0 -52 20t-20 51q0 32 20 51.5t52 21.5q32 -2 51 -21.5t19 -51.5t-19.5 -51.5t-50.5 -19.5zM141 120
q0 -43 27.5 -69t71.5 -26t71 26t27 69q0 53 -39 76h39q32 0 50.5 -19.5t18.5 -53.5q-1 -36 -17 -60q-3 -3 2 -6l16 -9h1q1 -1 2 -1t3 3q20 35 20 73q0 45 -26.5 73t-71.5 28l-187 -1q-3 0 -3 -4v-12q0 -3 3 -6l33 -5q-41 -25 -41 -76zM240 52q32 0 51.5 19t19.5 51
q0 33 -19.5 53.5t-51.5 20.5q-31 0 -51 -21t-20 -53q0 -31 19.5 -50.5t51.5 -19.5zM227 265v139q-27 -4 -43 -22.5t-16 -46.5q0 -29 16 -47.5t43 -22.5zM252 265v164q0 3 -4 3q-48 0 -77 -25t-29 -72q0 -44 27 -71t71 -27t71 28t27 74q0 49 -30 76q-2 2 -3 2q-2 0 -4 -2
l-12 -13q-3 -4 1 -7q20 -20 20 -56q0 -30 -16 -50t-42 -24zM240 457q44 0 71 27.5t27 70.5t-27 70t-71 27t-71 -27t-27 -70t27 -70.5t71 -27.5zM240 484q-32 0 -52 20t-20 51t20 50.5t52 19.5t51 -19.5t19 -50.5q0 -32 -19.5 -51.5t-50.5 -19.5zM50 -240v937h433v-937h-433z
" />
    <glyph glyph-name="sacute" unicode="&#x15b;" 
d="M181 -29q-40 -25 -40 -75q0 -43 27.5 -69.5t71.5 -26.5t71 26.5t27 69.5q0 51 -39 75l31 5q4 0 4 4v14q0 5 -5 5h-180q-3 0 -3 -5v-13q0 -2 3 -5zM240 -173q-32 0 -52 20t-20 51q0 32 20 51.5t52 21.5q32 -2 51 -21.5t19 -51.5t-19.5 -51.5t-50.5 -19.5zM141 120
q0 -43 27.5 -69t71.5 -26t71 26t27 69q0 53 -39 76h39q32 0 50.5 -19.5t18.5 -53.5q-1 -36 -17 -60q-3 -3 2 -6l16 -9h1q1 -1 2 -1t3 3q20 35 20 73q0 45 -26.5 73t-71.5 28l-187 -1q-3 0 -3 -4v-12q0 -3 3 -6l33 -5q-41 -25 -41 -76zM240 52q32 0 51.5 19t19.5 51
q0 33 -19.5 53.5t-51.5 20.5q-31 0 -51 -21t-20 -53q0 -31 19.5 -50.5t51.5 -19.5zM227 265v139q-27 -4 -43 -22.5t-16 -46.5q0 -29 16 -47.5t43 -22.5zM252 265v164q0 3 -4 3q-48 0 -77 -25t-29 -72q0 -44 27 -71t71 -27t71 28t27 74q0 49 -30 76q-2 2 -3 2q-2 0 -4 -2
l-12 -13q-3 -4 1 -7q20 -20 20 -56q0 -30 -16 -50t-42 -24zM240 457q44 0 71 27.5t27 70.5t-27 70t-71 27t-71 -27t-27 -70t27 -70.5t71 -27.5zM240 484q-32 0 -52 20t-20 51t20 50.5t52 19.5t51 -19.5t19 -50.5q0 -32 -19.5 -51.5t-50.5 -19.5zM50 -240v937h433v-937h-433z
" />
    <glyph glyph-name="Scircumflex" unicode="&#x15c;" 
d="M181 -29q-40 -25 -40 -75q0 -43 27.5 -69.5t71.5 -26.5t71 26.5t27 69.5q0 51 -39 75l31 5q4 0 4 4v14q0 5 -5 5h-180q-3 0 -3 -5v-13q0 -2 3 -5zM240 -173q-32 0 -52 20t-20 51q0 32 20 51.5t52 21.5q32 -2 51 -21.5t19 -51.5t-19.5 -51.5t-50.5 -19.5zM141 120
q0 -43 27.5 -69t71.5 -26t71 26t27 69q0 53 -39 76h39q32 0 50.5 -19.5t18.5 -53.5q-1 -36 -17 -60q-3 -3 2 -6l16 -9h1q1 -1 2 -1t3 3q20 35 20 73q0 45 -26.5 73t-71.5 28l-187 -1q-3 0 -3 -4v-12q0 -3 3 -6l33 -5q-41 -25 -41 -76zM240 52q32 0 51.5 19t19.5 51
q0 33 -19.5 53.5t-51.5 20.5q-31 0 -51 -21t-20 -53q0 -31 19.5 -50.5t51.5 -19.5zM227 265v139q-27 -4 -43 -22.5t-16 -46.5q0 -29 16 -47.5t43 -22.5zM252 265v164q0 3 -4 3q-48 0 -77 -25t-29 -72q0 -44 27 -71t71 -27t71 28t27 74q0 49 -30 76q-2 2 -3 2q-2 0 -4 -2
l-12 -13q-3 -4 1 -7q20 -20 20 -56q0 -30 -16 -50t-42 -24zM240 457q44 0 71 27.5t27 70.5t-27 70t-71 27t-71 -27t-27 -70t27 -70.5t71 -27.5zM240 484q-32 0 -52 20t-20 51t20 50.5t52 19.5t51 -19.5t19 -50.5q0 -32 -19.5 -51.5t-50.5 -19.5zM50 -240v937h433v-937h-433z
" />
    <glyph glyph-name="scircumflex" unicode="&#x15d;" 
d="M181 -29q-40 -25 -40 -75q0 -43 27.5 -69.5t71.5 -26.5t71 26.5t27 69.5q0 51 -39 75l31 5q4 0 4 4v14q0 5 -5 5h-180q-3 0 -3 -5v-13q0 -2 3 -5zM240 -173q-32 0 -52 20t-20 51q0 32 20 51.5t52 21.5q32 -2 51 -21.5t19 -51.5t-19.5 -51.5t-50.5 -19.5zM141 120
q0 -43 27.5 -69t71.5 -26t71 26t27 69q0 53 -39 76h39q32 0 50.5 -19.5t18.5 -53.5q-1 -36 -17 -60q-3 -3 2 -6l16 -9h1q1 -1 2 -1t3 3q20 35 20 73q0 45 -26.5 73t-71.5 28l-187 -1q-3 0 -3 -4v-12q0 -3 3 -6l33 -5q-41 -25 -41 -76zM240 52q32 0 51.5 19t19.5 51
q0 33 -19.5 53.5t-51.5 20.5q-31 0 -51 -21t-20 -53q0 -31 19.5 -50.5t51.5 -19.5zM227 265v139q-27 -4 -43 -22.5t-16 -46.5q0 -29 16 -47.5t43 -22.5zM252 265v164q0 3 -4 3q-48 0 -77 -25t-29 -72q0 -44 27 -71t71 -27t71 28t27 74q0 49 -30 76q-2 2 -3 2q-2 0 -4 -2
l-12 -13q-3 -4 1 -7q20 -20 20 -56q0 -30 -16 -50t-42 -24zM240 457q44 0 71 27.5t27 70.5t-27 70t-71 27t-71 -27t-27 -70t27 -70.5t71 -27.5zM240 484q-32 0 -52 20t-20 51t20 50.5t52 19.5t51 -19.5t19 -50.5q0 -32 -19.5 -51.5t-50.5 -19.5zM50 -240v937h433v-937h-433z
" />
    <glyph glyph-name="Scedilla" unicode="&#x15e;" 
d="M181 -29q-40 -25 -40 -75q0 -43 27.5 -69.5t71.5 -26.5t71 26.5t27 69.5q0 51 -39 75l31 5q4 0 4 4v14q0 5 -5 5h-180q-3 0 -3 -5v-13q0 -2 3 -5zM240 -173q-32 0 -52 20t-20 51q0 32 20 51.5t52 21.5q32 -2 51 -21.5t19 -51.5t-19.5 -51.5t-50.5 -19.5zM141 120
q0 -43 27.5 -69t71.5 -26t71 26t27 69q0 53 -39 76h39q32 0 50.5 -19.5t18.5 -53.5q-1 -36 -17 -60q-3 -3 2 -6l16 -9h1q1 -1 2 -1t3 3q20 35 20 73q0 45 -26.5 73t-71.5 28l-187 -1q-3 0 -3 -4v-12q0 -3 3 -6l33 -5q-41 -25 -41 -76zM240 52q32 0 51.5 19t19.5 51
q0 33 -19.5 53.5t-51.5 20.5q-31 0 -51 -21t-20 -53q0 -31 19.5 -50.5t51.5 -19.5zM227 265v139q-27 -4 -43 -22.5t-16 -46.5q0 -29 16 -47.5t43 -22.5zM252 265v164q0 3 -4 3q-48 0 -77 -25t-29 -72q0 -44 27 -71t71 -27t71 28t27 74q0 49 -30 76q-2 2 -3 2q-2 0 -4 -2
l-12 -13q-3 -4 1 -7q20 -20 20 -56q0 -30 -16 -50t-42 -24zM240 457q44 0 71 27.5t27 70.5t-27 70t-71 27t-71 -27t-27 -70t27 -70.5t71 -27.5zM240 484q-32 0 -52 20t-20 51t20 50.5t52 19.5t51 -19.5t19 -50.5q0 -32 -19.5 -51.5t-50.5 -19.5zM50 -240v937h433v-937h-433z
" />
    <glyph glyph-name="scedilla" unicode="&#x15f;" 
d="M181 -29q-40 -25 -40 -75q0 -43 27.5 -69.5t71.5 -26.5t71 26.5t27 69.5q0 51 -39 75l31 5q4 0 4 4v14q0 5 -5 5h-180q-3 0 -3 -5v-13q0 -2 3 -5zM240 -173q-32 0 -52 20t-20 51q0 32 20 51.5t52 21.5q32 -2 51 -21.5t19 -51.5t-19.5 -51.5t-50.5 -19.5zM141 120
q0 -43 27.5 -69t71.5 -26t71 26t27 69q0 53 -39 76h39q32 0 50.5 -19.5t18.5 -53.5q-1 -36 -17 -60q-3 -3 2 -6l16 -9h1q1 -1 2 -1t3 3q20 35 20 73q0 45 -26.5 73t-71.5 28l-187 -1q-3 0 -3 -4v-12q0 -3 3 -6l33 -5q-41 -25 -41 -76zM240 52q32 0 51.5 19t19.5 51
q0 33 -19.5 53.5t-51.5 20.5q-31 0 -51 -21t-20 -53q0 -31 19.5 -50.5t51.5 -19.5zM227 265v139q-27 -4 -43 -22.5t-16 -46.5q0 -29 16 -47.5t43 -22.5zM252 265v164q0 3 -4 3q-48 0 -77 -25t-29 -72q0 -44 27 -71t71 -27t71 28t27 74q0 49 -30 76q-2 2 -3 2q-2 0 -4 -2
l-12 -13q-3 -4 1 -7q20 -20 20 -56q0 -30 -16 -50t-42 -24zM240 457q44 0 71 27.5t27 70.5t-27 70t-71 27t-71 -27t-27 -70t27 -70.5t71 -27.5zM240 484q-32 0 -52 20t-20 51t20 50.5t52 19.5t51 -19.5t19 -50.5q0 -32 -19.5 -51.5t-50.5 -19.5zM50 -240v937h433v-937h-433z
" />
    <glyph glyph-name="Scaron" unicode="&#x160;" horiz-adv-x="574" 
d="M45 74q-7 5 -2 14l42 73q3 5 8 5q2 0 7 -3q27 -24 79.5 -47t115.5 -23q60 0 97 26t37 70q0 36 -35 60t-119 42q-117 25 -172 75t-57 133q-2 89 66 147t178 57q77 -1 131 -23t77 -44q7 -5 2 -15l-34 -76q-3 -5 -7 -5q-3 0 -7 3q-77 57 -167 57q-59 0 -97.5 -27t-38.5 -67
q0 -41 33 -64t124 -45q117 -28 170.5 -73.5t56.5 -125.5q2 -94 -63 -151.5t-183 -56.5q-88 1 -152 29.5t-90 54.5zM222 848l66 -55l66 55q4 6 13 6h89q8 0 9 -3t-5 -8l-122 -104q-6 -6 -15 -6h-71q-8 0 -14 6l-123 104q-3 3 -4 5.5t1.5 4t7.5 1.5h88q8 0 14 -6z" />
    <glyph glyph-name="scaron" unicode="&#x161;" horiz-adv-x="423" 
d="M39 41q-7 5 -2 15l32 61q3 5 8 5q2 0 6 -2q62 -38 127 -38q38 0 61 12.5t22 33.5q0 23 -24.5 36t-82.5 28q-74 20 -109 53t-37 86q-1 64 49.5 102.5t130.5 38.5q86 -1 147 -47q8 -6 3 -15l-31 -60q-1 -6 -8 -6q-2 0 -6 2q-50 30 -99 33q-88 0 -88 -43q0 -23 21 -35.5
t74 -26.5q81 -21 119 -51.5t39 -87.5q2 -66 -47.5 -105.5t-131.5 -38.5q-105 0 -173 50zM52 682h78q6 0 13 -5l64 -87l63 86q5 5 14 7h78q12 0 4 -10l-107 -138q-6 -7 -14 -7h-77q-8 0 -13 6l-107 139q-7 9 4 9z" />
    <glyph glyph-name="uni0162" unicode="&#x162;" 
d="M181 -29q-40 -25 -40 -75q0 -43 27.5 -69.5t71.5 -26.5t71 26.5t27 69.5q0 51 -39 75l31 5q4 0 4 4v14q0 5 -5 5h-180q-3 0 -3 -5v-13q0 -2 3 -5zM240 -173q-32 0 -52 20t-20 51q0 32 20 51.5t52 21.5q32 -2 51 -21.5t19 -51.5t-19.5 -51.5t-50.5 -19.5zM141 120
q0 -43 27.5 -69t71.5 -26t71 26t27 69q0 53 -39 76h39q32 0 50.5 -19.5t18.5 -53.5q-1 -36 -17 -60q-3 -3 2 -6l16 -9h1q1 -1 2 -1t3 3q20 35 20 73q0 45 -26.5 73t-71.5 28l-187 -1q-3 0 -3 -4v-12q0 -3 3 -6l33 -5q-41 -25 -41 -76zM240 52q32 0 51.5 19t19.5 51
q0 33 -19.5 53.5t-51.5 20.5q-31 0 -51 -21t-20 -53q0 -31 19.5 -50.5t51.5 -19.5zM227 265v139q-27 -4 -43 -22.5t-16 -46.5q0 -29 16 -47.5t43 -22.5zM252 265v164q0 3 -4 3q-48 0 -77 -25t-29 -72q0 -44 27 -71t71 -27t71 28t27 74q0 49 -30 76q-2 2 -3 2q-2 0 -4 -2
l-12 -13q-3 -4 1 -7q20 -20 20 -56q0 -30 -16 -50t-42 -24zM240 457q44 0 71 27.5t27 70.5t-27 70t-71 27t-71 -27t-27 -70t27 -70.5t71 -27.5zM240 484q-32 0 -52 20t-20 51t20 50.5t52 19.5t51 -19.5t19 -50.5q0 -32 -19.5 -51.5t-50.5 -19.5zM50 -240v937h433v-937h-433z
" />
    <glyph glyph-name="uni0163" unicode="&#x163;" 
d="M181 -29q-40 -25 -40 -75q0 -43 27.5 -69.5t71.5 -26.5t71 26.5t27 69.5q0 51 -39 75l31 5q4 0 4 4v14q0 5 -5 5h-180q-3 0 -3 -5v-13q0 -2 3 -5zM240 -173q-32 0 -52 20t-20 51q0 32 20 51.5t52 21.5q32 -2 51 -21.5t19 -51.5t-19.5 -51.5t-50.5 -19.5zM141 120
q0 -43 27.5 -69t71.5 -26t71 26t27 69q0 53 -39 76h39q32 0 50.5 -19.5t18.5 -53.5q-1 -36 -17 -60q-3 -3 2 -6l16 -9h1q1 -1 2 -1t3 3q20 35 20 73q0 45 -26.5 73t-71.5 28l-187 -1q-3 0 -3 -4v-12q0 -3 3 -6l33 -5q-41 -25 -41 -76zM240 52q32 0 51.5 19t19.5 51
q0 33 -19.5 53.5t-51.5 20.5q-31 0 -51 -21t-20 -53q0 -31 19.5 -50.5t51.5 -19.5zM227 265v139q-27 -4 -43 -22.5t-16 -46.5q0 -29 16 -47.5t43 -22.5zM252 265v164q0 3 -4 3q-48 0 -77 -25t-29 -72q0 -44 27 -71t71 -27t71 28t27 74q0 49 -30 76q-2 2 -3 2q-2 0 -4 -2
l-12 -13q-3 -4 1 -7q20 -20 20 -56q0 -30 -16 -50t-42 -24zM240 457q44 0 71 27.5t27 70.5t-27 70t-71 27t-71 -27t-27 -70t27 -70.5t71 -27.5zM240 484q-32 0 -52 20t-20 51t20 50.5t52 19.5t51 -19.5t19 -50.5q0 -32 -19.5 -51.5t-50.5 -19.5zM50 -240v937h433v-937h-433z
" />
    <glyph glyph-name="Tcaron" unicode="&#x164;" 
d="M181 -29q-40 -25 -40 -75q0 -43 27.5 -69.5t71.5 -26.5t71 26.5t27 69.5q0 51 -39 75l31 5q4 0 4 4v14q0 5 -5 5h-180q-3 0 -3 -5v-13q0 -2 3 -5zM240 -173q-32 0 -52 20t-20 51q0 32 20 51.5t52 21.5q32 -2 51 -21.5t19 -51.5t-19.5 -51.5t-50.5 -19.5zM141 120
q0 -43 27.5 -69t71.5 -26t71 26t27 69q0 53 -39 76h39q32 0 50.5 -19.5t18.5 -53.5q-1 -36 -17 -60q-3 -3 2 -6l16 -9h1q1 -1 2 -1t3 3q20 35 20 73q0 45 -26.5 73t-71.5 28l-187 -1q-3 0 -3 -4v-12q0 -3 3 -6l33 -5q-41 -25 -41 -76zM240 52q32 0 51.5 19t19.5 51
q0 33 -19.5 53.5t-51.5 20.5q-31 0 -51 -21t-20 -53q0 -31 19.5 -50.5t51.5 -19.5zM227 265v139q-27 -4 -43 -22.5t-16 -46.5q0 -29 16 -47.5t43 -22.5zM252 265v164q0 3 -4 3q-48 0 -77 -25t-29 -72q0 -44 27 -71t71 -27t71 28t27 74q0 49 -30 76q-2 2 -3 2q-2 0 -4 -2
l-12 -13q-3 -4 1 -7q20 -20 20 -56q0 -30 -16 -50t-42 -24zM240 457q44 0 71 27.5t27 70.5t-27 70t-71 27t-71 -27t-27 -70t27 -70.5t71 -27.5zM240 484q-32 0 -52 20t-20 51t20 50.5t52 19.5t51 -19.5t19 -50.5q0 -32 -19.5 -51.5t-50.5 -19.5zM50 -240v937h433v-937h-433z
" />
    <glyph glyph-name="tcaron" unicode="&#x165;" 
d="M181 -29q-40 -25 -40 -75q0 -43 27.5 -69.5t71.5 -26.5t71 26.5t27 69.5q0 51 -39 75l31 5q4 0 4 4v14q0 5 -5 5h-180q-3 0 -3 -5v-13q0 -2 3 -5zM240 -173q-32 0 -52 20t-20 51q0 32 20 51.5t52 21.5q32 -2 51 -21.5t19 -51.5t-19.5 -51.5t-50.5 -19.5zM141 120
q0 -43 27.5 -69t71.5 -26t71 26t27 69q0 53 -39 76h39q32 0 50.5 -19.5t18.5 -53.5q-1 -36 -17 -60q-3 -3 2 -6l16 -9h1q1 -1 2 -1t3 3q20 35 20 73q0 45 -26.5 73t-71.5 28l-187 -1q-3 0 -3 -4v-12q0 -3 3 -6l33 -5q-41 -25 -41 -76zM240 52q32 0 51.5 19t19.5 51
q0 33 -19.5 53.5t-51.5 20.5q-31 0 -51 -21t-20 -53q0 -31 19.5 -50.5t51.5 -19.5zM227 265v139q-27 -4 -43 -22.5t-16 -46.5q0 -29 16 -47.5t43 -22.5zM252 265v164q0 3 -4 3q-48 0 -77 -25t-29 -72q0 -44 27 -71t71 -27t71 28t27 74q0 49 -30 76q-2 2 -3 2q-2 0 -4 -2
l-12 -13q-3 -4 1 -7q20 -20 20 -56q0 -30 -16 -50t-42 -24zM240 457q44 0 71 27.5t27 70.5t-27 70t-71 27t-71 -27t-27 -70t27 -70.5t71 -27.5zM240 484q-32 0 -52 20t-20 51t20 50.5t52 19.5t51 -19.5t19 -50.5q0 -32 -19.5 -51.5t-50.5 -19.5zM50 -240v937h433v-937h-433z
" />
    <glyph glyph-name="Tbar" unicode="&#x166;" 
d="M181 -29q-40 -25 -40 -75q0 -43 27.5 -69.5t71.5 -26.5t71 26.5t27 69.5q0 51 -39 75l31 5q4 0 4 4v14q0 5 -5 5h-180q-3 0 -3 -5v-13q0 -2 3 -5zM240 -173q-32 0 -52 20t-20 51q0 32 20 51.5t52 21.5q32 -2 51 -21.5t19 -51.5t-19.5 -51.5t-50.5 -19.5zM141 120
q0 -43 27.5 -69t71.5 -26t71 26t27 69q0 53 -39 76h39q32 0 50.5 -19.5t18.5 -53.5q-1 -36 -17 -60q-3 -3 2 -6l16 -9h1q1 -1 2 -1t3 3q20 35 20 73q0 45 -26.5 73t-71.5 28l-187 -1q-3 0 -3 -4v-12q0 -3 3 -6l33 -5q-41 -25 -41 -76zM240 52q32 0 51.5 19t19.5 51
q0 33 -19.5 53.5t-51.5 20.5q-31 0 -51 -21t-20 -53q0 -31 19.5 -50.5t51.5 -19.5zM227 265v139q-27 -4 -43 -22.5t-16 -46.5q0 -29 16 -47.5t43 -22.5zM252 265v164q0 3 -4 3q-48 0 -77 -25t-29 -72q0 -44 27 -71t71 -27t71 28t27 74q0 49 -30 76q-2 2 -3 2q-2 0 -4 -2
l-12 -13q-3 -4 1 -7q20 -20 20 -56q0 -30 -16 -50t-42 -24zM240 457q44 0 71 27.5t27 70.5t-27 70t-71 27t-71 -27t-27 -70t27 -70.5t71 -27.5zM240 484q-32 0 -52 20t-20 51t20 50.5t52 19.5t51 -19.5t19 -50.5q0 -32 -19.5 -51.5t-50.5 -19.5zM50 -240v937h433v-937h-433z
" />
    <glyph glyph-name="tbar" unicode="&#x167;" 
d="M181 -29q-40 -25 -40 -75q0 -43 27.5 -69.5t71.5 -26.5t71 26.5t27 69.5q0 51 -39 75l31 5q4 0 4 4v14q0 5 -5 5h-180q-3 0 -3 -5v-13q0 -2 3 -5zM240 -173q-32 0 -52 20t-20 51q0 32 20 51.5t52 21.5q32 -2 51 -21.5t19 -51.5t-19.5 -51.5t-50.5 -19.5zM141 120
q0 -43 27.5 -69t71.5 -26t71 26t27 69q0 53 -39 76h39q32 0 50.5 -19.5t18.5 -53.5q-1 -36 -17 -60q-3 -3 2 -6l16 -9h1q1 -1 2 -1t3 3q20 35 20 73q0 45 -26.5 73t-71.5 28l-187 -1q-3 0 -3 -4v-12q0 -3 3 -6l33 -5q-41 -25 -41 -76zM240 52q32 0 51.5 19t19.5 51
q0 33 -19.5 53.5t-51.5 20.5q-31 0 -51 -21t-20 -53q0 -31 19.5 -50.5t51.5 -19.5zM227 265v139q-27 -4 -43 -22.5t-16 -46.5q0 -29 16 -47.5t43 -22.5zM252 265v164q0 3 -4 3q-48 0 -77 -25t-29 -72q0 -44 27 -71t71 -27t71 28t27 74q0 49 -30 76q-2 2 -3 2q-2 0 -4 -2
l-12 -13q-3 -4 1 -7q20 -20 20 -56q0 -30 -16 -50t-42 -24zM240 457q44 0 71 27.5t27 70.5t-27 70t-71 27t-71 -27t-27 -70t27 -70.5t71 -27.5zM240 484q-32 0 -52 20t-20 51t20 50.5t52 19.5t51 -19.5t19 -50.5q0 -32 -19.5 -51.5t-50.5 -19.5zM50 -240v937h433v-937h-433z
" />
    <glyph glyph-name="Utilde" unicode="&#x168;" 
d="M181 -29q-40 -25 -40 -75q0 -43 27.5 -69.5t71.5 -26.5t71 26.5t27 69.5q0 51 -39 75l31 5q4 0 4 4v14q0 5 -5 5h-180q-3 0 -3 -5v-13q0 -2 3 -5zM240 -173q-32 0 -52 20t-20 51q0 32 20 51.5t52 21.5q32 -2 51 -21.5t19 -51.5t-19.5 -51.5t-50.5 -19.5zM141 120
q0 -43 27.5 -69t71.5 -26t71 26t27 69q0 53 -39 76h39q32 0 50.5 -19.5t18.5 -53.5q-1 -36 -17 -60q-3 -3 2 -6l16 -9h1q1 -1 2 -1t3 3q20 35 20 73q0 45 -26.5 73t-71.5 28l-187 -1q-3 0 -3 -4v-12q0 -3 3 -6l33 -5q-41 -25 -41 -76zM240 52q32 0 51.5 19t19.5 51
q0 33 -19.5 53.5t-51.5 20.5q-31 0 -51 -21t-20 -53q0 -31 19.5 -50.5t51.5 -19.5zM227 265v139q-27 -4 -43 -22.5t-16 -46.5q0 -29 16 -47.5t43 -22.5zM252 265v164q0 3 -4 3q-48 0 -77 -25t-29 -72q0 -44 27 -71t71 -27t71 28t27 74q0 49 -30 76q-2 2 -3 2q-2 0 -4 -2
l-12 -13q-3 -4 1 -7q20 -20 20 -56q0 -30 -16 -50t-42 -24zM240 457q44 0 71 27.5t27 70.5t-27 70t-71 27t-71 -27t-27 -70t27 -70.5t71 -27.5zM240 484q-32 0 -52 20t-20 51t20 50.5t52 19.5t51 -19.5t19 -50.5q0 -32 -19.5 -51.5t-50.5 -19.5zM50 -240v937h433v-937h-433z
" />
    <glyph glyph-name="utilde" unicode="&#x169;" 
d="M181 -29q-40 -25 -40 -75q0 -43 27.5 -69.5t71.5 -26.5t71 26.5t27 69.5q0 51 -39 75l31 5q4 0 4 4v14q0 5 -5 5h-180q-3 0 -3 -5v-13q0 -2 3 -5zM240 -173q-32 0 -52 20t-20 51q0 32 20 51.5t52 21.5q32 -2 51 -21.5t19 -51.5t-19.5 -51.5t-50.5 -19.5zM141 120
q0 -43 27.5 -69t71.5 -26t71 26t27 69q0 53 -39 76h39q32 0 50.5 -19.5t18.5 -53.5q-1 -36 -17 -60q-3 -3 2 -6l16 -9h1q1 -1 2 -1t3 3q20 35 20 73q0 45 -26.5 73t-71.5 28l-187 -1q-3 0 -3 -4v-12q0 -3 3 -6l33 -5q-41 -25 -41 -76zM240 52q32 0 51.5 19t19.5 51
q0 33 -19.5 53.5t-51.5 20.5q-31 0 -51 -21t-20 -53q0 -31 19.5 -50.5t51.5 -19.5zM227 265v139q-27 -4 -43 -22.5t-16 -46.5q0 -29 16 -47.5t43 -22.5zM252 265v164q0 3 -4 3q-48 0 -77 -25t-29 -72q0 -44 27 -71t71 -27t71 28t27 74q0 49 -30 76q-2 2 -3 2q-2 0 -4 -2
l-12 -13q-3 -4 1 -7q20 -20 20 -56q0 -30 -16 -50t-42 -24zM240 457q44 0 71 27.5t27 70.5t-27 70t-71 27t-71 -27t-27 -70t27 -70.5t71 -27.5zM240 484q-32 0 -52 20t-20 51t20 50.5t52 19.5t51 -19.5t19 -50.5q0 -32 -19.5 -51.5t-50.5 -19.5zM50 -240v937h433v-937h-433z
" />
    <glyph glyph-name="Umacron" unicode="&#x16a;" 
d="M181 -29q-40 -25 -40 -75q0 -43 27.5 -69.5t71.5 -26.5t71 26.5t27 69.5q0 51 -39 75l31 5q4 0 4 4v14q0 5 -5 5h-180q-3 0 -3 -5v-13q0 -2 3 -5zM240 -173q-32 0 -52 20t-20 51q0 32 20 51.5t52 21.5q32 -2 51 -21.5t19 -51.5t-19.5 -51.5t-50.5 -19.5zM141 120
q0 -43 27.5 -69t71.5 -26t71 26t27 69q0 53 -39 76h39q32 0 50.5 -19.5t18.5 -53.5q-1 -36 -17 -60q-3 -3 2 -6l16 -9h1q1 -1 2 -1t3 3q20 35 20 73q0 45 -26.5 73t-71.5 28l-187 -1q-3 0 -3 -4v-12q0 -3 3 -6l33 -5q-41 -25 -41 -76zM240 52q32 0 51.5 19t19.5 51
q0 33 -19.5 53.5t-51.5 20.5q-31 0 -51 -21t-20 -53q0 -31 19.5 -50.5t51.5 -19.5zM227 265v139q-27 -4 -43 -22.5t-16 -46.5q0 -29 16 -47.5t43 -22.5zM252 265v164q0 3 -4 3q-48 0 -77 -25t-29 -72q0 -44 27 -71t71 -27t71 28t27 74q0 49 -30 76q-2 2 -3 2q-2 0 -4 -2
l-12 -13q-3 -4 1 -7q20 -20 20 -56q0 -30 -16 -50t-42 -24zM240 457q44 0 71 27.5t27 70.5t-27 70t-71 27t-71 -27t-27 -70t27 -70.5t71 -27.5zM240 484q-32 0 -52 20t-20 51t20 50.5t52 19.5t51 -19.5t19 -50.5q0 -32 -19.5 -51.5t-50.5 -19.5zM50 -240v937h433v-937h-433z
" />
    <glyph glyph-name="umacron" unicode="&#x16b;" 
d="M181 -29q-40 -25 -40 -75q0 -43 27.5 -69.5t71.5 -26.5t71 26.5t27 69.5q0 51 -39 75l31 5q4 0 4 4v14q0 5 -5 5h-180q-3 0 -3 -5v-13q0 -2 3 -5zM240 -173q-32 0 -52 20t-20 51q0 32 20 51.5t52 21.5q32 -2 51 -21.5t19 -51.5t-19.5 -51.5t-50.5 -19.5zM141 120
q0 -43 27.5 -69t71.5 -26t71 26t27 69q0 53 -39 76h39q32 0 50.5 -19.5t18.5 -53.5q-1 -36 -17 -60q-3 -3 2 -6l16 -9h1q1 -1 2 -1t3 3q20 35 20 73q0 45 -26.5 73t-71.5 28l-187 -1q-3 0 -3 -4v-12q0 -3 3 -6l33 -5q-41 -25 -41 -76zM240 52q32 0 51.5 19t19.5 51
q0 33 -19.5 53.5t-51.5 20.5q-31 0 -51 -21t-20 -53q0 -31 19.5 -50.5t51.5 -19.5zM227 265v139q-27 -4 -43 -22.5t-16 -46.5q0 -29 16 -47.5t43 -22.5zM252 265v164q0 3 -4 3q-48 0 -77 -25t-29 -72q0 -44 27 -71t71 -27t71 28t27 74q0 49 -30 76q-2 2 -3 2q-2 0 -4 -2
l-12 -13q-3 -4 1 -7q20 -20 20 -56q0 -30 -16 -50t-42 -24zM240 457q44 0 71 27.5t27 70.5t-27 70t-71 27t-71 -27t-27 -70t27 -70.5t71 -27.5zM240 484q-32 0 -52 20t-20 51t20 50.5t52 19.5t51 -19.5t19 -50.5q0 -32 -19.5 -51.5t-50.5 -19.5zM50 -240v937h433v-937h-433z
" />
    <glyph glyph-name="Ubreve" unicode="&#x16c;" 
d="M181 -29q-40 -25 -40 -75q0 -43 27.5 -69.5t71.5 -26.5t71 26.5t27 69.5q0 51 -39 75l31 5q4 0 4 4v14q0 5 -5 5h-180q-3 0 -3 -5v-13q0 -2 3 -5zM240 -173q-32 0 -52 20t-20 51q0 32 20 51.5t52 21.5q32 -2 51 -21.5t19 -51.5t-19.5 -51.5t-50.5 -19.5zM141 120
q0 -43 27.5 -69t71.5 -26t71 26t27 69q0 53 -39 76h39q32 0 50.5 -19.5t18.5 -53.5q-1 -36 -17 -60q-3 -3 2 -6l16 -9h1q1 -1 2 -1t3 3q20 35 20 73q0 45 -26.5 73t-71.5 28l-187 -1q-3 0 -3 -4v-12q0 -3 3 -6l33 -5q-41 -25 -41 -76zM240 52q32 0 51.5 19t19.5 51
q0 33 -19.5 53.5t-51.5 20.5q-31 0 -51 -21t-20 -53q0 -31 19.5 -50.5t51.5 -19.5zM227 265v139q-27 -4 -43 -22.5t-16 -46.5q0 -29 16 -47.5t43 -22.5zM252 265v164q0 3 -4 3q-48 0 -77 -25t-29 -72q0 -44 27 -71t71 -27t71 28t27 74q0 49 -30 76q-2 2 -3 2q-2 0 -4 -2
l-12 -13q-3 -4 1 -7q20 -20 20 -56q0 -30 -16 -50t-42 -24zM240 457q44 0 71 27.5t27 70.5t-27 70t-71 27t-71 -27t-27 -70t27 -70.5t71 -27.5zM240 484q-32 0 -52 20t-20 51t20 50.5t52 19.5t51 -19.5t19 -50.5q0 -32 -19.5 -51.5t-50.5 -19.5zM50 -240v937h433v-937h-433z
" />
    <glyph glyph-name="ubreve" unicode="&#x16d;" 
d="M181 -29q-40 -25 -40 -75q0 -43 27.5 -69.5t71.5 -26.5t71 26.5t27 69.5q0 51 -39 75l31 5q4 0 4 4v14q0 5 -5 5h-180q-3 0 -3 -5v-13q0 -2 3 -5zM240 -173q-32 0 -52 20t-20 51q0 32 20 51.5t52 21.5q32 -2 51 -21.5t19 -51.5t-19.5 -51.5t-50.5 -19.5zM141 120
q0 -43 27.5 -69t71.5 -26t71 26t27 69q0 53 -39 76h39q32 0 50.5 -19.5t18.5 -53.5q-1 -36 -17 -60q-3 -3 2 -6l16 -9h1q1 -1 2 -1t3 3q20 35 20 73q0 45 -26.5 73t-71.5 28l-187 -1q-3 0 -3 -4v-12q0 -3 3 -6l33 -5q-41 -25 -41 -76zM240 52q32 0 51.5 19t19.5 51
q0 33 -19.5 53.5t-51.5 20.5q-31 0 -51 -21t-20 -53q0 -31 19.5 -50.5t51.5 -19.5zM227 265v139q-27 -4 -43 -22.5t-16 -46.5q0 -29 16 -47.5t43 -22.5zM252 265v164q0 3 -4 3q-48 0 -77 -25t-29 -72q0 -44 27 -71t71 -27t71 28t27 74q0 49 -30 76q-2 2 -3 2q-2 0 -4 -2
l-12 -13q-3 -4 1 -7q20 -20 20 -56q0 -30 -16 -50t-42 -24zM240 457q44 0 71 27.5t27 70.5t-27 70t-71 27t-71 -27t-27 -70t27 -70.5t71 -27.5zM240 484q-32 0 -52 20t-20 51t20 50.5t52 19.5t51 -19.5t19 -50.5q0 -32 -19.5 -51.5t-50.5 -19.5zM50 -240v937h433v-937h-433z
" />
    </font>
</defs>
</svg>
