<?xml version="1.0" standalone="no"?>
<!DOCTYPE svg PUBLIC "-//W3C//DTD SVG 1.1//EN" "http://www.w3.org/Graphics/SVG/1.1/DTD/svg11.dtd" >
<svg xmlns="http://www.w3.org/2000/svg" xmlns:xlink="http://www.w3.org/1999/xlink" version="1.1">
<metadata>
Created by FontForge 20170731 at Thu Feb 28 02:38:25 2019
 By Aleksey,,,
Copyright (c) 2019 by Eko Bimantara. All rights reserved.
</metadata>
<defs>
<font id="AgeoPersonalUse-Light" horiz-adv-x="533" >
  <font-face 
    font-family="Ageo Personal Use Light"
    font-weight="300"
    font-stretch="normal"
    units-per-em="1000"
    panose-1="0 0 0 0 0 0 0 0 0 0"
    ascent="760"
    descent="-240"
    x-height="443"
    cap-height="694"
    bbox="-69.9231 -240 903.016 889"
    underline-thickness="50"
    underline-position="-225"
    unicode-range="U+000D-FB04"
  />
<missing-glyph horiz-adv-x="0" 
 />
    <glyph glyph-name=".notdef" horiz-adv-x="0" 
 />
    <glyph glyph-name="uni0000" horiz-adv-x="0" 
 />
    <glyph glyph-name="uni0000" horiz-adv-x="0" 
 />
    <glyph glyph-name="uni000D" unicode="&#xd;" horiz-adv-x="0" 
 />
    <glyph glyph-name="space" unicode=" " horiz-adv-x="250" 
 />
    <glyph glyph-name="exclam" unicode="!" horiz-adv-x="252" 
d="M140 188h-27q-9 0 -9 9l-2 488q0 9 9 9h31q8 -1 8 -9l-2 -488q0 -9 -8 -9zM167 32q0 -19 -11 -30.5t-30 -11.5q-18 0 -29.5 11.5t-11.5 30.5q0 18 11.5 29t29.5 11q19 0 30 -11t11 -29z" />
    <glyph glyph-name="quotedbl" unicode="&#x22;" horiz-adv-x="381" 
d="M216 448l-10 12q-6 7 2 13q31 24 56 63.5t26 82.5q-6 -2 -8 -2q-20 0 -32 12.5t-12 31.5t12 31.5t32 12.5q31 0 41 -27q20 -55 -12 -127.5t-84 -104.5q-1 -1 -4 -1q-4 0 -7 3zM137 619q-4 -2 -8 -2q-19 0 -31 12t-12 32t12 32t31 12q31 0 41 -27q20 -55 -12 -127.5
t-83 -104.5q-4 -2 -5 -2q-3 0 -7 4l-10 13q-4 6 2 12q31 24 56 63.5t26 82.5z" />
    <glyph glyph-name="numbersign" unicode="#" horiz-adv-x="652" 
d="M49 246q2 6 13 8h102l47 177h-118q-9 0 -7 8l7 22q3 8 13 8h115l57 216q2 9 11 9h24q9 -2 7 -9l-57 -216h179l57 216q3 9 12 9h23q10 0 8 -9l-57 -216h119q10 0 7 -10l-7 -19q-4 -9 -12 -9h-118l-46 -177h131q11 0 7 -9l-7 -22q-3 -8 -13 -8h-129l-54 -205
q-2 -10 -11 -10h-25q-9 0 -6 10l54 205h-179l-55 -205q-2 -10 -10 -10h-26q-7 0 -6 10l55 205h-105q-11 0 -8 9zM385 254l47 177h-179l-47 -177h179z" />
    <glyph glyph-name="dollar" unicode="$" horiz-adv-x="560" 
d="M264 321q-112 29 -161 72.5t-51 118.5q-2 77 58 131t154 59v30q0 9 8 9h18q8 0 10 -9v-30q117 -4 182 -66q6 -5 3 -13l-13 -28q-1 -4 -5 -4q-1 0 -6 3q-68 58 -161 64v-295q115 -30 164 -70t51 -108q2 -84 -53.5 -137.5t-161.5 -57.5v-93q0 -9 -10 -9h-17q-9 0 -9 9v94
q-136 6 -215 82q-7 7 -2 14l15 25q3 4 5 4q4 0 8 -4q72 -68 189 -76v285zM300 312v-277q77 2 123 40t47 99q0 53 -38 83t-132 55zM264 658q-72 -5 -119.5 -45t-47.5 -98q0 -55 37.5 -85t129.5 -57v285z" />
    <glyph glyph-name="percent" unicode="%" horiz-adv-x="776" 
d="M38 549q0 70 42 112t112 42q69 0 111 -42t42 -112q0 -69 -42 -111t-111 -42q-70 0 -112 42t-42 111zM82 549q0 -49 30 -79t79 -30q50 0 80 30t30 79t-30.5 79.5t-79.5 30.5t-79 -30.5t-30 -79.5zM490 144q0 -49 30 -79t79 -30q50 0 80 30t30 79q0 50 -30.5 80t-79.5 30
t-79 -30.5t-30 -79.5zM446 144q0 69 42 111.5t112 42.5q69 0 111 -42.5t42 -111.5t-42 -111.5t-111 -42.5q-70 0 -112 42.5t-42 111.5zM184 11l397 704q3 7 10 7h30q11 0 5 -11l-397 -704q-5 -7 -11 -7h-31q-10 0 -3 11z" />
    <glyph glyph-name="ampersand" unicode="&#x26;" horiz-adv-x="679" 
d="M269 660q-53 0 -85 -32t-32 -89q0 -15 3.5 -29t13 -29.5t16 -25.5t23 -27t23 -23.5t26.5 -24.5t24 -22l226 -211q54 90 55 222q0 9 9 9h28q9 0 9 -9q-3 -154 -66 -255l110 -104q12 -10 -4 -10h-33q-9 0 -18 7l-79 74q-80 -97 -204 -97q-121 0 -195 63t-74 162
q0 69 36.5 116t102.5 68q-76 76 -76 149q0 75 45 118t122 43q102 0 140 -76q5 -9 -2 -13l-25 -17q-2 -2 -4 -2q-4 0 -7 5q-35 60 -108 60zM215 363q-56 -14 -90.5 -56t-34.5 -98q0 -80 61.5 -130.5t161.5 -50.5q103 0 171 84q-33 31 -134.5 125.5t-134.5 125.5z" />
    <glyph glyph-name="quotesingle" unicode="'" horiz-adv-x="229" 
d="M59 448l-10 12q-6 7 2 13q31 24 56 64t26 82q-4 -2 -8 -2q-19 0 -31.5 12.5t-12.5 31.5t12.5 31.5t31.5 12.5q31 0 41 -27q20 -56 -12 -128t-84 -104q-1 -1 -4 -1q-4 0 -7 3z" />
    <glyph glyph-name="parenleft" unicode="(" horiz-adv-x="302" 
d="M185 685q5 9 15 9h26q10 0 5 -9q-14 -24 -28.5 -54.5t-37.5 -87.5t-36.5 -130t-13.5 -147q-2 -225 115 -418q5 -8 -4 -8h-28q-9 0 -13 9q-20 31 -41.5 75.5t-47 143t-25.5 198.5q0 96 26 195t47 144.5t41 79.5z" />
    <glyph glyph-name="parenright" unicode=")" horiz-adv-x="302" 
d="M77 694h25q11 0 16 -9q20 -34 41 -79.5t47 -144.5t26 -195q0 -77 -13.5 -151t-35.5 -129t-36.5 -85t-28.5 -52q-5 -9 -13 -9h-28q-10 0 -5 8q15 23 29.5 52.5t37 85t36.5 129.5t13 151q0 74 -13.5 147t-36.5 130t-37.5 87.5t-28.5 54.5q-5 9 5 9z" />
    <glyph glyph-name="asterisk" unicode="*" horiz-adv-x="462" 
d="M232 463l-95 -123q-3 -3 -6 -3q-4 0 -7 3l-20 18q-6 6 -2 13l96 112l-134 77q-10 3 -3 12l14 24q5 5 8 5t5 -2l124 -79l-5 163q0 9 10 9h29q10 0 10 -9l-5 -163l124 79q4 2 5 2q4 0 7 -5l15 -24q5 -9 -3 -12l-135 -77l96 -112q5 -7 -1 -13l-20 -18q-3 -3 -7 -3t-6 3z" />
    <glyph glyph-name="plus" unicode="+" horiz-adv-x="549" 
d="M261 73q-9 0 -9 9v189h-187q-9 0 -9 7v25q0 10 9 10h187v188q0 9 9 9h27q9 0 9 -9v-188h187q9 0 9 -9v-24q0 -9 -9 -9h-187v-189q0 -9 -9 -9h-27z" />
    <glyph glyph-name="comma" unicode="," horiz-adv-x="243" 
d="M63 -153l-10 11q-5 6 2 13q31 24 56 63.5t26 82.5q-4 -2 -8 -2q-19 0 -31 12t-12 32t11.5 32t31.5 12q31 0 41 -27q20 -55 -12 -127.5t-83 -104.5q-2 -1 -5 -1q-4 0 -7 4z" />
    <glyph glyph-name="hyphen" unicode="-" horiz-adv-x="397" 
d="M56 281v25q0 9 8 9h268q9 0 9 -9v-25q0 -9 -9 -9h-268q-8 0 -8 9z" />
    <glyph glyph-name="period" unicode="." horiz-adv-x="263" 
d="M88 39q0 20 12 32.5t31 12.5q20 0 32 -12.5t12 -32.5q0 -19 -12 -31t-32 -12q-19 0 -31 12t-12 31z" />
    <glyph glyph-name="slash" unicode="/" horiz-adv-x="371" 
d="M11 9l304 704q5 9 13 9h26q9 0 6 -9l-304 -704q-3 -9 -12 -9h-28q-8 0 -5 9z" />
    <glyph glyph-name="zero" unicode="0" 
d="M181 -29q-40 -25 -40 -75q0 -43 27.5 -69.5t71.5 -26.5t71 26.5t27 69.5q0 51 -39 75l31 5q4 0 4 4v14q0 5 -5 5h-180q-3 0 -3 -5v-13q0 -2 3 -5zM240 -173q-32 0 -52 20t-20 51q0 32 20 51.5t52 21.5q32 -2 51 -21.5t19 -51.5t-19.5 -51.5t-50.5 -19.5zM141 120
q0 -43 27.5 -69t71.5 -26t71 26t27 69q0 53 -39 76h39q32 0 50.5 -19.5t18.5 -53.5q-1 -36 -17 -60q-3 -3 2 -6l16 -9h1q1 -1 2 -1t3 3q20 35 20 73q0 45 -26.5 73t-71.5 28l-187 -1q-3 0 -3 -4v-12q0 -3 3 -6l33 -5q-41 -25 -41 -76zM240 52q32 0 51.5 19t19.5 51
q0 33 -19.5 53.5t-51.5 20.5q-31 0 -51 -21t-20 -53q0 -31 19.5 -50.5t51.5 -19.5zM227 265v139q-27 -4 -43 -22.5t-16 -46.5q0 -29 16 -47.5t43 -22.5zM252 265v164q0 3 -4 3q-48 0 -77 -25t-29 -72q0 -44 27 -71t71 -27t71 28t27 74q0 49 -30 76q-2 2 -3 2q-2 0 -4 -2
l-12 -13q-3 -4 1 -7q20 -20 20 -56q0 -30 -16 -50t-42 -24zM240 457q44 0 71 27.5t27 70.5t-27 70t-71 27t-71 -27t-27 -70t27 -70.5t71 -27.5zM240 484q-32 0 -52 20t-20 51t20 50.5t52 19.5t51 -19.5t19 -50.5q0 -32 -19.5 -51.5t-50.5 -19.5zM50 -240v937h433v-937h-433z
" />
    <glyph glyph-name="one" unicode="1" 
d="M181 -29q-40 -25 -40 -75q0 -43 27.5 -69.5t71.5 -26.5t71 26.5t27 69.5q0 51 -39 75l31 5q4 0 4 4v14q0 5 -5 5h-180q-3 0 -3 -5v-13q0 -2 3 -5zM240 -173q-32 0 -52 20t-20 51q0 32 20 51.5t52 21.5q32 -2 51 -21.5t19 -51.5t-19.5 -51.5t-50.5 -19.5zM141 120
q0 -43 27.5 -69t71.5 -26t71 26t27 69q0 53 -39 76h39q32 0 50.5 -19.5t18.5 -53.5q-1 -36 -17 -60q-3 -3 2 -6l16 -9h1q1 -1 2 -1t3 3q20 35 20 73q0 45 -26.5 73t-71.5 28l-187 -1q-3 0 -3 -4v-12q0 -3 3 -6l33 -5q-41 -25 -41 -76zM240 52q32 0 51.5 19t19.5 51
q0 33 -19.5 53.5t-51.5 20.5q-31 0 -51 -21t-20 -53q0 -31 19.5 -50.5t51.5 -19.5zM227 265v139q-27 -4 -43 -22.5t-16 -46.5q0 -29 16 -47.5t43 -22.5zM252 265v164q0 3 -4 3q-48 0 -77 -25t-29 -72q0 -44 27 -71t71 -27t71 28t27 74q0 49 -30 76q-2 2 -3 2q-2 0 -4 -2
l-12 -13q-3 -4 1 -7q20 -20 20 -56q0 -30 -16 -50t-42 -24zM240 457q44 0 71 27.5t27 70.5t-27 70t-71 27t-71 -27t-27 -70t27 -70.5t71 -27.5zM240 484q-32 0 -52 20t-20 51t20 50.5t52 19.5t51 -19.5t19 -50.5q0 -32 -19.5 -51.5t-50.5 -19.5zM50 -240v937h433v-937h-433z
" />
    <glyph glyph-name="two" unicode="2" 
d="M181 -29q-40 -25 -40 -75q0 -43 27.5 -69.5t71.5 -26.5t71 26.5t27 69.5q0 51 -39 75l31 5q4 0 4 4v14q0 5 -5 5h-180q-3 0 -3 -5v-13q0 -2 3 -5zM240 -173q-32 0 -52 20t-20 51q0 32 20 51.5t52 21.5q32 -2 51 -21.5t19 -51.5t-19.5 -51.5t-50.5 -19.5zM141 120
q0 -43 27.5 -69t71.5 -26t71 26t27 69q0 53 -39 76h39q32 0 50.5 -19.5t18.5 -53.5q-1 -36 -17 -60q-3 -3 2 -6l16 -9h1q1 -1 2 -1t3 3q20 35 20 73q0 45 -26.5 73t-71.5 28l-187 -1q-3 0 -3 -4v-12q0 -3 3 -6l33 -5q-41 -25 -41 -76zM240 52q32 0 51.5 19t19.5 51
q0 33 -19.5 53.5t-51.5 20.5q-31 0 -51 -21t-20 -53q0 -31 19.5 -50.5t51.5 -19.5zM227 265v139q-27 -4 -43 -22.5t-16 -46.5q0 -29 16 -47.5t43 -22.5zM252 265v164q0 3 -4 3q-48 0 -77 -25t-29 -72q0 -44 27 -71t71 -27t71 28t27 74q0 49 -30 76q-2 2 -3 2q-2 0 -4 -2
l-12 -13q-3 -4 1 -7q20 -20 20 -56q0 -30 -16 -50t-42 -24zM240 457q44 0 71 27.5t27 70.5t-27 70t-71 27t-71 -27t-27 -70t27 -70.5t71 -27.5zM240 484q-32 0 -52 20t-20 51t20 50.5t52 19.5t51 -19.5t19 -50.5q0 -32 -19.5 -51.5t-50.5 -19.5zM50 -240v937h433v-937h-433z
" />
    <glyph glyph-name="three" unicode="3" 
d="M181 -29q-40 -25 -40 -75q0 -43 27.5 -69.5t71.5 -26.5t71 26.5t27 69.5q0 51 -39 75l31 5q4 0 4 4v14q0 5 -5 5h-180q-3 0 -3 -5v-13q0 -2 3 -5zM240 -173q-32 0 -52 20t-20 51q0 32 20 51.5t52 21.5q32 -2 51 -21.5t19 -51.5t-19.5 -51.5t-50.5 -19.5zM141 120
q0 -43 27.5 -69t71.5 -26t71 26t27 69q0 53 -39 76h39q32 0 50.5 -19.5t18.5 -53.5q-1 -36 -17 -60q-3 -3 2 -6l16 -9h1q1 -1 2 -1t3 3q20 35 20 73q0 45 -26.5 73t-71.5 28l-187 -1q-3 0 -3 -4v-12q0 -3 3 -6l33 -5q-41 -25 -41 -76zM240 52q32 0 51.5 19t19.5 51
q0 33 -19.5 53.5t-51.5 20.5q-31 0 -51 -21t-20 -53q0 -31 19.5 -50.5t51.5 -19.5zM227 265v139q-27 -4 -43 -22.5t-16 -46.5q0 -29 16 -47.5t43 -22.5zM252 265v164q0 3 -4 3q-48 0 -77 -25t-29 -72q0 -44 27 -71t71 -27t71 28t27 74q0 49 -30 76q-2 2 -3 2q-2 0 -4 -2
l-12 -13q-3 -4 1 -7q20 -20 20 -56q0 -30 -16 -50t-42 -24zM240 457q44 0 71 27.5t27 70.5t-27 70t-71 27t-71 -27t-27 -70t27 -70.5t71 -27.5zM240 484q-32 0 -52 20t-20 51t20 50.5t52 19.5t51 -19.5t19 -50.5q0 -32 -19.5 -51.5t-50.5 -19.5zM50 -240v937h433v-937h-433z
" />
    <glyph glyph-name="four" unicode="4" 
d="M181 -29q-40 -25 -40 -75q0 -43 27.5 -69.5t71.5 -26.5t71 26.5t27 69.5q0 51 -39 75l31 5q4 0 4 4v14q0 5 -5 5h-180q-3 0 -3 -5v-13q0 -2 3 -5zM240 -173q-32 0 -52 20t-20 51q0 32 20 51.5t52 21.5q32 -2 51 -21.5t19 -51.5t-19.5 -51.5t-50.5 -19.5zM141 120
q0 -43 27.5 -69t71.5 -26t71 26t27 69q0 53 -39 76h39q32 0 50.5 -19.5t18.5 -53.5q-1 -36 -17 -60q-3 -3 2 -6l16 -9h1q1 -1 2 -1t3 3q20 35 20 73q0 45 -26.5 73t-71.5 28l-187 -1q-3 0 -3 -4v-12q0 -3 3 -6l33 -5q-41 -25 -41 -76zM240 52q32 0 51.5 19t19.5 51
q0 33 -19.5 53.5t-51.5 20.5q-31 0 -51 -21t-20 -53q0 -31 19.5 -50.5t51.5 -19.5zM227 265v139q-27 -4 -43 -22.5t-16 -46.5q0 -29 16 -47.5t43 -22.5zM252 265v164q0 3 -4 3q-48 0 -77 -25t-29 -72q0 -44 27 -71t71 -27t71 28t27 74q0 49 -30 76q-2 2 -3 2q-2 0 -4 -2
l-12 -13q-3 -4 1 -7q20 -20 20 -56q0 -30 -16 -50t-42 -24zM240 457q44 0 71 27.5t27 70.5t-27 70t-71 27t-71 -27t-27 -70t27 -70.5t71 -27.5zM240 484q-32 0 -52 20t-20 51t20 50.5t52 19.5t51 -19.5t19 -50.5q0 -32 -19.5 -51.5t-50.5 -19.5zM50 -240v937h433v-937h-433z
" />
    <glyph glyph-name="five" unicode="5" 
d="M181 -29q-40 -25 -40 -75q0 -43 27.5 -69.5t71.5 -26.5t71 26.5t27 69.5q0 51 -39 75l31 5q4 0 4 4v14q0 5 -5 5h-180q-3 0 -3 -5v-13q0 -2 3 -5zM240 -173q-32 0 -52 20t-20 51q0 32 20 51.5t52 21.5q32 -2 51 -21.5t19 -51.5t-19.5 -51.5t-50.5 -19.5zM141 120
q0 -43 27.5 -69t71.5 -26t71 26t27 69q0 53 -39 76h39q32 0 50.5 -19.5t18.5 -53.5q-1 -36 -17 -60q-3 -3 2 -6l16 -9h1q1 -1 2 -1t3 3q20 35 20 73q0 45 -26.5 73t-71.5 28l-187 -1q-3 0 -3 -4v-12q0 -3 3 -6l33 -5q-41 -25 -41 -76zM240 52q32 0 51.5 19t19.5 51
q0 33 -19.5 53.5t-51.5 20.5q-31 0 -51 -21t-20 -53q0 -31 19.5 -50.5t51.5 -19.5zM227 265v139q-27 -4 -43 -22.5t-16 -46.5q0 -29 16 -47.5t43 -22.5zM252 265v164q0 3 -4 3q-48 0 -77 -25t-29 -72q0 -44 27 -71t71 -27t71 28t27 74q0 49 -30 76q-2 2 -3 2q-2 0 -4 -2
l-12 -13q-3 -4 1 -7q20 -20 20 -56q0 -30 -16 -50t-42 -24zM240 457q44 0 71 27.5t27 70.5t-27 70t-71 27t-71 -27t-27 -70t27 -70.5t71 -27.5zM240 484q-32 0 -52 20t-20 51t20 50.5t52 19.5t51 -19.5t19 -50.5q0 -32 -19.5 -51.5t-50.5 -19.5zM50 -240v937h433v-937h-433z
" />
    <glyph glyph-name="six" unicode="6" 
d="M181 -29q-40 -25 -40 -75q0 -43 27.5 -69.5t71.5 -26.5t71 26.5t27 69.5q0 51 -39 75l31 5q4 0 4 4v14q0 5 -5 5h-180q-3 0 -3 -5v-13q0 -2 3 -5zM240 -173q-32 0 -52 20t-20 51q0 32 20 51.5t52 21.5q32 -2 51 -21.5t19 -51.5t-19.5 -51.5t-50.5 -19.5zM141 120
q0 -43 27.5 -69t71.5 -26t71 26t27 69q0 53 -39 76h39q32 0 50.5 -19.5t18.5 -53.5q-1 -36 -17 -60q-3 -3 2 -6l16 -9h1q1 -1 2 -1t3 3q20 35 20 73q0 45 -26.5 73t-71.5 28l-187 -1q-3 0 -3 -4v-12q0 -3 3 -6l33 -5q-41 -25 -41 -76zM240 52q32 0 51.5 19t19.5 51
q0 33 -19.5 53.5t-51.5 20.5q-31 0 -51 -21t-20 -53q0 -31 19.5 -50.5t51.5 -19.5zM227 265v139q-27 -4 -43 -22.5t-16 -46.5q0 -29 16 -47.5t43 -22.5zM252 265v164q0 3 -4 3q-48 0 -77 -25t-29 -72q0 -44 27 -71t71 -27t71 28t27 74q0 49 -30 76q-2 2 -3 2q-2 0 -4 -2
l-12 -13q-3 -4 1 -7q20 -20 20 -56q0 -30 -16 -50t-42 -24zM240 457q44 0 71 27.5t27 70.5t-27 70t-71 27t-71 -27t-27 -70t27 -70.5t71 -27.5zM240 484q-32 0 -52 20t-20 51t20 50.5t52 19.5t51 -19.5t19 -50.5q0 -32 -19.5 -51.5t-50.5 -19.5zM50 -240v937h433v-937h-433z
" />
    <glyph glyph-name="seven" unicode="7" 
d="M181 -29q-40 -25 -40 -75q0 -43 27.5 -69.5t71.5 -26.5t71 26.5t27 69.5q0 51 -39 75l31 5q4 0 4 4v14q0 5 -5 5h-180q-3 0 -3 -5v-13q0 -2 3 -5zM240 -173q-32 0 -52 20t-20 51q0 32 20 51.5t52 21.5q32 -2 51 -21.5t19 -51.5t-19.5 -51.5t-50.5 -19.5zM141 120
q0 -43 27.5 -69t71.5 -26t71 26t27 69q0 53 -39 76h39q32 0 50.5 -19.5t18.5 -53.5q-1 -36 -17 -60q-3 -3 2 -6l16 -9h1q1 -1 2 -1t3 3q20 35 20 73q0 45 -26.5 73t-71.5 28l-187 -1q-3 0 -3 -4v-12q0 -3 3 -6l33 -5q-41 -25 -41 -76zM240 52q32 0 51.5 19t19.5 51
q0 33 -19.5 53.5t-51.5 20.5q-31 0 -51 -21t-20 -53q0 -31 19.5 -50.5t51.5 -19.5zM227 265v139q-27 -4 -43 -22.5t-16 -46.5q0 -29 16 -47.5t43 -22.5zM252 265v164q0 3 -4 3q-48 0 -77 -25t-29 -72q0 -44 27 -71t71 -27t71 28t27 74q0 49 -30 76q-2 2 -3 2q-2 0 -4 -2
l-12 -13q-3 -4 1 -7q20 -20 20 -56q0 -30 -16 -50t-42 -24zM240 457q44 0 71 27.5t27 70.5t-27 70t-71 27t-71 -27t-27 -70t27 -70.5t71 -27.5zM240 484q-32 0 -52 20t-20 51t20 50.5t52 19.5t51 -19.5t19 -50.5q0 -32 -19.5 -51.5t-50.5 -19.5zM50 -240v937h433v-937h-433z
" />
    <glyph glyph-name="eight" unicode="8" 
d="M181 -29q-40 -25 -40 -75q0 -43 27.5 -69.5t71.5 -26.5t71 26.5t27 69.5q0 51 -39 75l31 5q4 0 4 4v14q0 5 -5 5h-180q-3 0 -3 -5v-13q0 -2 3 -5zM240 -173q-32 0 -52 20t-20 51q0 32 20 51.5t52 21.5q32 -2 51 -21.5t19 -51.5t-19.5 -51.5t-50.5 -19.5zM141 120
q0 -43 27.5 -69t71.5 -26t71 26t27 69q0 53 -39 76h39q32 0 50.5 -19.5t18.5 -53.5q-1 -36 -17 -60q-3 -3 2 -6l16 -9h1q1 -1 2 -1t3 3q20 35 20 73q0 45 -26.5 73t-71.5 28l-187 -1q-3 0 -3 -4v-12q0 -3 3 -6l33 -5q-41 -25 -41 -76zM240 52q32 0 51.5 19t19.5 51
q0 33 -19.5 53.5t-51.5 20.5q-31 0 -51 -21t-20 -53q0 -31 19.5 -50.5t51.5 -19.5zM227 265v139q-27 -4 -43 -22.5t-16 -46.5q0 -29 16 -47.5t43 -22.5zM252 265v164q0 3 -4 3q-48 0 -77 -25t-29 -72q0 -44 27 -71t71 -27t71 28t27 74q0 49 -30 76q-2 2 -3 2q-2 0 -4 -2
l-12 -13q-3 -4 1 -7q20 -20 20 -56q0 -30 -16 -50t-42 -24zM240 457q44 0 71 27.5t27 70.5t-27 70t-71 27t-71 -27t-27 -70t27 -70.5t71 -27.5zM240 484q-32 0 -52 20t-20 51t20 50.5t52 19.5t51 -19.5t19 -50.5q0 -32 -19.5 -51.5t-50.5 -19.5zM50 -240v937h433v-937h-433z
" />
    <glyph glyph-name="nine" unicode="9" 
d="M181 -29q-40 -25 -40 -75q0 -43 27.5 -69.5t71.5 -26.5t71 26.5t27 69.5q0 51 -39 75l31 5q4 0 4 4v14q0 5 -5 5h-180q-3 0 -3 -5v-13q0 -2 3 -5zM240 -173q-32 0 -52 20t-20 51q0 32 20 51.5t52 21.5q32 -2 51 -21.5t19 -51.5t-19.5 -51.5t-50.5 -19.5zM141 120
q0 -43 27.5 -69t71.5 -26t71 26t27 69q0 53 -39 76h39q32 0 50.5 -19.5t18.5 -53.5q-1 -36 -17 -60q-3 -3 2 -6l16 -9h1q1 -1 2 -1t3 3q20 35 20 73q0 45 -26.5 73t-71.5 28l-187 -1q-3 0 -3 -4v-12q0 -3 3 -6l33 -5q-41 -25 -41 -76zM240 52q32 0 51.5 19t19.5 51
q0 33 -19.5 53.5t-51.5 20.5q-31 0 -51 -21t-20 -53q0 -31 19.5 -50.5t51.5 -19.5zM227 265v139q-27 -4 -43 -22.5t-16 -46.5q0 -29 16 -47.5t43 -22.5zM252 265v164q0 3 -4 3q-48 0 -77 -25t-29 -72q0 -44 27 -71t71 -27t71 28t27 74q0 49 -30 76q-2 2 -3 2q-2 0 -4 -2
l-12 -13q-3 -4 1 -7q20 -20 20 -56q0 -30 -16 -50t-42 -24zM240 457q44 0 71 27.5t27 70.5t-27 70t-71 27t-71 -27t-27 -70t27 -70.5t71 -27.5zM240 484q-32 0 -52 20t-20 51t20 50.5t52 19.5t51 -19.5t19 -50.5q0 -32 -19.5 -51.5t-50.5 -19.5zM50 -240v937h433v-937h-433z
" />
    <glyph glyph-name="colon" unicode=":" horiz-adv-x="238" 
d="M72 441q0 20 13 32.5t34 12.5t34 -12.5t13 -32.5q0 -21 -13 -34t-34 -13t-34 13t-13 34zM72 37q0 21 13 33.5t34 12.5t34 -12.5t13 -33.5q0 -20 -13 -33t-34 -13t-34 13t-13 33z" />
    <glyph glyph-name="semicolon" unicode=";" horiz-adv-x="255" 
d="M83 441q0 -21 13 -34t34 -13t33.5 13t12.5 34q0 20 -12.5 32.5t-33.5 12.5t-34 -12.5t-13 -32.5zM67 -153l-10 11q-5 6 2 13q31 24 56 63.5t26 82.5q-4 -2 -8 -2q-19 0 -31 12t-12 32t11.5 32t31.5 12q31 0 41 -27q20 -55 -12 -127.5t-83 -104.5q-2 -1 -5 -1q-4 0 -7 4z
" />
    <glyph glyph-name="less" unicode="&#x3c;" horiz-adv-x="539" 
d="M38 319q0 8 9 13l444 207q2 1 5 1q5 0 5 -6v-31q0 -8 -10 -13l-418 -190l418 -194q10 -5 10 -13v-31q0 -6 -5 -6q-3 0 -5 1l-444 212q-9 4 -9 13v37z" />
    <glyph glyph-name="equal" unicode="=" horiz-adv-x="524" 
d="M85 364q-9 0 -9 8v26q0 9 9 9h354q9 0 9 -9v-26q0 -8 -9 -8h-354zM85 206q-9 0 -9 9v26q0 8 9 8h354q9 0 9 -8v-26q0 -9 -9 -9h-354z" />
    <glyph glyph-name="greater" unicode="&#x3e;" horiz-adv-x="539" 
d="M465 300l-418 190q-9 5 -9 13v31q0 6 5 6q2 0 4 -1l444 -207q10 -5 10 -13v-37q0 -10 -10 -13l-444 -212q-2 -1 -4 -1q-5 0 -5 6v31q0 8 9 13z" />
    <glyph glyph-name="question" unicode="?" horiz-adv-x="503" 
d="M389 516q0 64 -39.5 104t-102.5 40q-93 0 -154 -76q-3 -4 -6 -4q-2 0 -5 3l-19 19q-7 7 -1 14q72 87 184 87q84 0 136.5 -51.5t52.5 -135.5q0 -50 -18.5 -89t-44.5 -64t-52.5 -48.5t-46.5 -53.5t-22 -67q0 -9 -8 -9h-31q-10 0 -8 9q2 43 21.5 77.5t47 58t54 47.5t45 59
t17.5 80zM272 32q0 -19 -11 -30.5t-30 -11.5t-30.5 11.5t-11.5 30.5t11.5 30t30.5 11t30 -11t11 -30z" />
    <glyph glyph-name="at" unicode="@" horiz-adv-x="906" 
d="M849 333q0 -86 -42.5 -141t-111.5 -57q-80 0 -108 72q-42 -92 -150 -92q-80 0 -129 53.5t-50 139.5q0 86 49.5 139t129.5 53q97 0 142 -77l6 52q2 6 7 6h21q6 0 6 -6v-204q-1 -45 20 -70.5t60 -25.5q49 0 79 43.5t30 114.5q0 145 -94 236t-241 91q-167 0 -270 -96.5
t-103 -253.5t103 -253.5t270 -96.5q138 0 225 87q6 4 8 4q3 0 6 -3l19 -21q6 -6 -1 -13q-100 -97 -257 -97q-187 0 -301.5 108t-114.5 284q0 177 114.5 285.5t301.5 108.5q167 0 271.5 -102t104.5 -268zM442 158q63 0 98 43t35 108t-35.5 106.5t-97.5 41.5q-64 0 -102.5 -41
t-38.5 -109q-1 -67 38 -108t103 -41z" />
    <glyph glyph-name="A" unicode="A" horiz-adv-x="645" 
d="M492 234h-340l-94 -227q-4 -7 -9 -7h-31q-11 0 -6 11l281 673q5 9 12 9h34q9 0 12 -9l281 -673q3 -5 2 -8.5t-7 -2.5h-31q-6 0 -9 6zM322 642l-153 -367h306z" />
    <glyph glyph-name="B" unicode="B" horiz-adv-x="601" 
d="M334 361l-196 -1v-319l187 1q84 0 134.5 44t50.5 116q-1 68 -49 113.5t-127 45.5zM301 396q78 0 122 37.5t44 95.5q0 57 -47.5 90t-130.5 33h-151v-257q124 0 163 1zM289 694q102 0 162 -44t61 -120q1 -51 -28.5 -88.5t-83.5 -57.5q72 -18 113 -65t42 -117
q2 -91 -60.5 -146.5t-165.5 -55.5h-226q-10 0 -10 10v673q0 11 11 11h185z" />
    <glyph glyph-name="C" unicode="C" horiz-adv-x="693" 
d="M650 82q-96 -92 -250 -92q-158 0 -256 99t-98 257q0 164 101.5 260.5t252.5 96.5q150 0 249 -93q6 -6 0 -13l-19 -17q-3 -3 -6 -3q-2 0 -7 3q-88 79 -217 79q-138 0 -223 -86t-85 -227q0 -140 84.5 -225.5t223.5 -86.5q127 1 218 79q3 3 6 3t6 -3l21 -18q6 -6 -1 -13z
" />
    <glyph glyph-name="D" unicode="D" horiz-adv-x="683" 
d="M281 652l-143 1v-611h143q141 0 226 83t85 222q-1 139 -85.5 222t-225.5 83zM281 0h-178q-10 0 -10 10v674q0 10 10 10h178q161 0 258 -95t97 -252q1 -158 -96.5 -252.5t-258.5 -94.5z" />
    <glyph glyph-name="E" unicode="E" horiz-adv-x="521" 
d="M138 333v-291h336q9 0 9 -8v-26q0 -8 -9 -8h-371q-10 0 -10 10v674q0 10 10 10h361q9 0 9 -9v-25q0 -8 -8 -8h-327v-277h279q9 0 9 -8v-26q0 -8 -9 -8h-279z" />
    <glyph glyph-name="F" unicode="F" horiz-adv-x="502" 
d="M138 333v-323q0 -10 -9 -10h-27q-9 0 -9 10v673q0 11 11 11h361q9 0 9 -9v-24q0 -9 -10 -9h-326v-277h279q9 0 9 -9v-24q0 -9 -9 -9h-279z" />
    <glyph glyph-name="G" unicode="G" horiz-adv-x="758" 
d="M668 311h-256q-9 0 -9 9v24q0 9 9 9h290q11 0 9 -9q-2 -170 -85.5 -262t-236.5 -91q-155 0 -249 98t-94 258t98.5 258t258.5 98q146 0 246 -92q7 -7 1 -12l-20 -19q-3 -3 -6 -3q-4 0 -7 3q-86 79 -214 79q-140 0 -226 -86t-85 -226q0 -140 81.5 -226t215.5 -86
q127 0 198.5 71.5t80.5 204.5z" />
    <glyph glyph-name="H" unicode="H" horiz-adv-x="674" 
d="M129 0h-27q-9 0 -9 9v676q0 9 9 9h28q8 0 8 -9v-310h398v310q0 9 9 9h28q8 0 8 -9v-676q0 -9 -9 -9h-28q-8 0 -8 9v324h-398v-324q0 -9 -9 -9z" />
    <glyph glyph-name="I" unicode="I" horiz-adv-x="231" 
d="M138 685v-677q0 -8 -9 -8h-27q-9 0 -9 8v677q0 9 9 9h27q9 0 9 -9z" />
    <glyph glyph-name="J" unicode="J" horiz-adv-x="390" 
d="M253 156l-1 529q0 9 9 9h27q9 0 9 -9l1 -530q1 -76 -38 -120t-107 -45q-71 1 -134 57q-5 3 -2 12l14 23q3 4 7 4t6 -2q64 -49 111 -50q95 2 98 122z" />
    <glyph glyph-name="K" unicode="K" horiz-adv-x="548" 
d="M138 685v-330l313 333q8 6 12 6h38q15 0 4 -11l-318 -336l348 -336q11 -11 -4 -11h-41q-8 0 -13 5l-339 334v-331q0 -8 -9 -8h-27q-9 0 -9 8v677q0 9 9 9h27q9 0 9 -9z" />
    <glyph glyph-name="L" unicode="L" horiz-adv-x="451" 
d="M138 42h275q9 0 9 -9v-25q0 -8 -9 -8h-311q-9 0 -9 9v676q0 9 9 9h27q9 0 9 -9v-643z" />
    <glyph glyph-name="M" unicode="M" horiz-adv-x="864" 
d="M133 694q7 0 11 -8l286 -538l290 539q4 7 11 7h31q9 0 9 -10v-675q0 -9 -9 -9h-27q-9 0 -9 10v594l-270 -492q-4 -6 -10 -8h-31q-6 0 -11 7l-266 492v-593q0 -10 -9 -10h-25q-11 0 -11 12v670q0 12 11 12h29z" />
    <glyph glyph-name="N" unicode="N" horiz-adv-x="725" 
d="M596 694h28q8 0 8 -9v-675q0 -10 -10 -10h-37q-7 0 -12 6l-435 620v-617q0 -9 -9 -9h-27q-9 0 -9 9v675q0 10 10 10h36q7 0 12 -7l436 -622v620q0 9 9 9z" />
    <glyph glyph-name="O" unicode="O" horiz-adv-x="805" 
d="M46 347q0 160 98.5 258t258.5 98t257.5 -98t97.5 -258q0 -161 -97.5 -258.5t-257.5 -97.5q-161 0 -259 98t-98 258zM92 347q0 -140 85.5 -226t225.5 -86q139 0 224.5 86t85.5 226t-85.5 226t-224.5 86q-140 0 -226 -86t-85 -226z" />
    <glyph glyph-name="P" unicode="P" horiz-adv-x="563" 
d="M139 299l-1 -290q0 -9 -9 -9h-27q-9 0 -9 9v674q0 11 10 11h207q102 0 162 -53t61 -144q-1 -91 -61 -144.5t-162 -53.5h-171zM139 341h173q82 0 128.5 41.5t46.5 113.5t-46.5 114.5t-128.5 41.5h-173v-311z" />
    <glyph glyph-name="Q" unicode="Q" horiz-adv-x="805" 
d="M548 16l190 -107q8 -5 3 -12l-16 -25q-4 -4 -7 -4t-6 3l-219 129q-42 -9 -90 -9q-161 0 -259 98t-98 258t98.5 258t258.5 98t257.5 -98t97.5 -258q0 -119 -56 -206t-154 -125zM713 347q0 140 -85.5 226t-224.5 86q-140 0 -225.5 -86t-85.5 -226t85.5 -226t225.5 -86
q139 0 224.5 86t85.5 226z" />
    <glyph glyph-name="R" unicode="R" horiz-adv-x="561" 
d="M274 299h-135v-290q0 -9 -9 -9h-28q-9 0 -9 9v675q0 10 10 10h196q103 0 163 -53t61 -144q-1 -86 -54.5 -138.5t-144.5 -58.5l186 -289q7 -11 -5 -11h-38q-6 0 -9 5zM301 652h-162v-311h162q83 0 129.5 41.5t46.5 113.5t-47 114.5t-129 41.5z" />
    <glyph glyph-name="S" unicode="S" horiz-adv-x="565" 
d="M52 74q-7 6 -3 13l15 24q3 5 6 5t8 -5q83 -76 214 -77q82 0 131 38.5t49 101.5q0 57 -44 87.5t-158 58.5q-115 29 -164.5 72.5t-50.5 119.5q-2 82 64 137t168 54q127 -1 197 -67q7 -5 4 -13l-13 -27q-3 -5 -5 -5t-8 4q-74 63 -180 63q-78 0 -130 -41t-52 -102
q-1 -60 43.5 -91t160.5 -61q113 -30 162 -69.5t51 -108.5q3 -87 -56.5 -141.5t-174.5 -53.5q-151 1 -234 84z" />
    <glyph glyph-name="T" unicode="T" 
d="M244 652h-226q-9 0 -9 9v24q0 9 9 9h497q9 0 9 -9v-24q0 -9 -9 -9h-226v-644q0 -8 -8 -8h-28q-9 0 -9 8v644z" />
    <glyph glyph-name="U" unicode="U" horiz-adv-x="680" 
d="M93 272v412q0 9 9 9h27q9 0 9 -9v-413q0 -111 55 -173.5t148 -62.5q91 0 145.5 62t54.5 174v414q0 8 9 8h28q9 0 9 -8v-414q0 -131 -67 -205.5t-179 -74.5q-113 -1 -180.5 74t-67.5 207z" />
    <glyph glyph-name="V" unicode="V" horiz-adv-x="627" 
d="M285 9l-272 672q-5 12 6 12h34q7 0 10 -7l251 -632l250 632q4 7 10 7h34q10 0 5 -12l-272 -672q-3 -9 -12 -9h-32q-7 0 -12 9z" />
    <glyph glyph-name="W" unicode="W" horiz-adv-x="853" 
d="M426 630l-168 -622q-2 -8 -10 -8h-27q-9 0 -12 8l-196 675q-3 11 6 11h30q7 0 10 -7l174 -617l167 616q2 8 10 8h32q6 0 10 -8l167 -618l175 619q2 7 9 7h31q9 0 6 -11l-196 -675q-3 -8 -12 -8h-26q-9 0 -12 8z" />
    <glyph glyph-name="X" unicode="X" horiz-adv-x="563" 
d="M55 0h-35q-12 0 -6 10l238 335l-230 339q-7 10 5 10h38q7 0 12 -6l202 -304l216 303q3 6 12 6h35q13 0 7 -9l-244 -339l230 -336q6 -9 -6 -9h-38q-7 0 -11 6l-202 301l-210 -301q-5 -6 -13 -6z" />
    <glyph glyph-name="Y" unicode="Y" horiz-adv-x="545" 
d="M248 8v271l-234 404q-6 10 7 10h33q9 0 13 -8l204 -362l208 362q5 8 13 8h34q10 0 4 -11l-237 -402v-272q0 -8 -9 -8h-27q-9 0 -9 8z" />
    <glyph glyph-name="Z" unicode="Z" horiz-adv-x="560" 
d="M101 42h422q8 0 8 -9v-24q0 -9 -8 -9h-484q-19 0 -9 16l416 635h-399q-9 0 -9 9v25q0 8 9 8h461q19 0 9 -16z" />
    <glyph glyph-name="bracketleft" unicode="[" horiz-adv-x="332" 
d="M119 -122h147q9 0 9 -9v-22q0 -9 -9 -9l-180 1q-10 0 -10 9v836q0 10 10 10h180q9 0 9 -8v-23q0 -9 -9 -9h-147v-776z" />
    <glyph glyph-name="backslash" unicode="\" horiz-adv-x="367" 
d="M18 722h28q6 0 9 -7l304 -703q5 -12 -5 -12h-28q-7 0 -9 7l-305 704q-5 11 6 11z" />
    <glyph glyph-name="bracketright" unicode="]" horiz-adv-x="332" 
d="M66 -121h147v775h-147q-9 0 -9 9v23q0 8 9 8h180q10 0 10 -10v-836q0 -9 -10 -9h-180q-9 0 -9 8v23q0 9 9 9z" />
    <glyph glyph-name="asciicircum" unicode="^" horiz-adv-x="571" 
d="M61 270l191 414q5 9 14 9h38q10 0 14 -9l192 -414q5 -11 -6 -11h-31q-7 0 -10 7l-178 390l-178 -390q-3 -7 -10 -7h-30q-12 0 -6 11z" />
    <glyph glyph-name="underscore" unicode="_" horiz-adv-x="581" 
d="M66 -96h449q9 0 9 -8v-22q0 -8 -9 -8h-449q-9 0 -9 9v20q0 9 9 9z" />
    <glyph glyph-name="grave" unicode="`" horiz-adv-x="263" 
d="M196 557l-152 110q-7 6 -2 11l23 30q3 3 7 3q3 0 6 -3l143 -126q4 -3 0 -10l-14 -14q-1 -3 -5 -3q-2 0 -6 2z" />
    <glyph glyph-name="a" unicode="a" horiz-adv-x="577" 
d="M461 338l6 97q1 9 9 9h18q8 0 8 -9v-427q0 -8 -9 -8h-17q-9 0 -9 8l-6 97q-26 -54 -77 -84.5t-119 -30.5q-102 0 -164.5 64t-62.5 168t62.5 167.5t164.5 63.5q68 0 119 -30.5t77 -84.5zM79 222q0 -86 52 -138.5t137 -52.5q86 0 139 52.5t54 138.5q-1 86 -54 138t-139 52
q-85 0 -137 -52.5t-52 -137.5z" />
    <glyph glyph-name="b" unicode="b" horiz-adv-x="582" 
d="M105 0h-16q-9 0 -9 8v705q0 9 8 9h25q8 0 8 -9v-375q26 55 77 85t120 30q101 0 163.5 -64t62.5 -167q0 -104 -62.5 -168t-163.5 -64q-69 0 -120 30.5t-77 85.5l-6 -98q-2 -8 -10 -8zM314 412q-86 0 -139.5 -52t-53.5 -137q0 -86 53.5 -139t139.5 -53q85 0 137.5 53
t52.5 138q0 86 -52 138t-138 52z" />
    <glyph glyph-name="c" unicode="c" horiz-adv-x="498" 
d="M460 85q-63 -95 -192 -95q-103 0 -166.5 64t-63.5 168q0 110 68.5 171t162.5 61q57 0 108.5 -24.5t82.5 -71.5q5 -8 -1 -13l-18 -16q-2 -2 -6 -2q-5 0 -7 5q-55 81 -160 81q-85 0 -137 -52.5t-52 -138.5t52 -138.5t137 -52.5q54 0 95.5 22.5t64.5 58.5q2 5 7 5q3 0 5 -2
l20 -17q5 -5 0 -13z" />
    <glyph glyph-name="d" unicode="d" horiz-adv-x="582" 
d="M265 -10q-102 0 -164.5 64t-62.5 168t62.5 167.5t164.5 63.5q68 0 119 -30t77 -84v374q0 9 8 9h25q8 0 8 -9v-705q0 -8 -8 -8h-17q-7 0 -9 8l-7 97q-26 -54 -77 -84.5t-119 -30.5zM461 223q0 85 -53.5 137t-139.5 52q-85 0 -137 -52.5t-52 -137.5q0 -86 52 -138.5
t137 -52.5q86 0 139.5 53t53.5 139z" />
    <glyph glyph-name="e" unicode="e" horiz-adv-x="537" 
d="M80 241h377q-6 78 -57 124.5t-132 46.5q-80 0 -131 -46.5t-57 -124.5zM80 203q6 -78 60.5 -125t138.5 -47q95 0 148 58q4 4 9 4q3 0 5 -2l19 -18q6 -5 -1 -12q-65 -71 -180 -71q-108 0 -174.5 64t-66.5 168q0 103 63.5 167t166.5 64q106 0 168.5 -65t62.5 -175
q0 -10 -10 -10h-409z" />
    <glyph glyph-name="f" unicode="f" horiz-adv-x="298" 
d="M145 405v-396q0 -9 -9 -9h-24q-8 0 -8 9l-1 396h-88q-9 0 -9 9v20q0 9 9 9h88v127q-1 78 29 120.5t88 42.5q47 0 99 -36q6 -6 2 -12l-14 -22q-2 -4 -5 -4q-2 0 -7 3q-37 30 -74 30q-76 0 -77 -127l1 -122h125q9 0 9 -9v-20q0 -9 -9 -9h-125z" />
    <glyph glyph-name="g" unicode="g" horiz-adv-x="577" 
d="M265 453q70 0 121 -31t76 -87l7 100q2 8 9 8h17q8 0 8 -8l1 -441q1 -103 -62.5 -167t-162.5 -64q-97 1 -184 50q-6 5 -3 12l13 23q4 4 6 4q1 0 5 -2q75 -43 163 -46q82 0 132.5 50.5t51.5 134.5v120q-26 -56 -77 -87.5t-121 -31.5q-102 0 -164.5 64t-62.5 168
q0 103 62.5 167t164.5 64zM79 222q0 -86 52 -138.5t137 -52.5q86 -1 140 52t54 139q0 85 -54 137.5t-140 52.5q-85 0 -137 -52.5t-52 -137.5z" />
    <glyph glyph-name="h" unicode="h" horiz-adv-x="544" 
d="M80 8v705q0 9 8 9h25q8 0 8 -9v-377q44 117 168 117q83 0 130 -49t47 -149v-246q0 -9 -7 -9h-26q-8 0 -8 9v247q0 78 -36.5 117t-103.5 39q-69 0 -114 -52.5t-50 -132.5l1 -219q0 -8 -8 -8h-26q-8 0 -8 8z" />
    <glyph glyph-name="i" unicode="i" horiz-adv-x="207" 
d="M124 435v-427q0 -8 -8 -8h-25q-8 0 -8 8v427q0 8 8 8h25q8 0 8 -8zM62 613q0 19 11.5 30t30.5 11t30 -11t11 -30t-11 -30.5t-30 -11.5t-30.5 11.5t-11.5 30.5z" />
    <glyph glyph-name="j" unicode="j" horiz-adv-x="236" 
d="M89 613q0 19 11.5 30t30.5 11t30.5 -11t11.5 -30t-11.5 -30.5t-30.5 -11.5t-30.5 11.5t-11.5 30.5zM113 -71v505q0 9 8 9h25q8 0 8 -9l1 -509q0 -77 -29.5 -120t-88.5 -43q-57 1 -102 31q-8 5 -3 13l13 21q1 3 5 3q1 0 9 -2q37 -25 76 -25q78 0 78 126z" />
    <glyph glyph-name="k" unicode="k" horiz-adv-x="431" 
d="M343 443h39q17 0 4 -11l-219 -194l251 -228q12 -10 -5 -10h-39q-8 0 -13 5l-240 220v-217q0 -8 -8 -8h-25q-8 0 -8 8v706q0 8 9 8h23q9 0 9 -8v-467l209 191q7 5 13 5z" />
    <glyph glyph-name="l" unicode="l" horiz-adv-x="207" 
d="M124 714v-706q0 -8 -8 -8h-25q-8 0 -8 8v706q0 8 8 8h25q8 0 8 -8z" />
    <glyph glyph-name="m" unicode="m" horiz-adv-x="827" 
d="M89 443h16q8 0 10 -8l6 -97q41 115 151 115q126 0 153 -124q20 57 60.5 90.5t99.5 33.5q76 0 119 -49t43 -149v-246q0 -9 -7 -9h-25q-9 0 -9 9v247q0 156 -125 156q-65 0 -105 -55t-42 -141v-207q0 -9 -8 -9h-25q-8 0 -8 9v247q0 156 -125 156q-62 0 -102.5 -53
t-44.5 -133l1 -217q0 -9 -9 -9h-24q-9 0 -9 9v425q0 9 9 9z" />
    <glyph glyph-name="n" unicode="n" horiz-adv-x="544" 
d="M80 8v427q0 8 8 8h18q7 0 9 -8l6 -101q20 55 62.5 87t105.5 32q83 0 130 -49t47 -149v-246q0 -9 -8 -9h-25q-8 0 -8 9v247q0 78 -36.5 117t-103.5 39q-69 0 -114 -53t-50 -133l1 -218q0 -8 -8 -8h-25q-9 0 -9 8z" />
    <glyph glyph-name="o" unicode="o" horiz-adv-x="537" 
d="M38 222q0 103 63.5 167t166.5 64q104 0 167.5 -63.5t63.5 -167.5t-64 -168t-167 -64t-166.5 64t-63.5 168zM79 222q0 -86 52 -138.5t137 -52.5t137.5 52.5t52.5 138.5t-52 138t-138 52q-85 0 -137 -52.5t-52 -137.5z" />
    <glyph glyph-name="p" unicode="p" horiz-adv-x="582" 
d="M89 -228q-9 0 -9 9v653q0 9 9 9h16q9 0 10 -9l6 -98q26 55 77 86t120 31q102 0 164.5 -64t62.5 -167q0 -104 -62.5 -168t-164.5 -64q-69 0 -120 31t-77 86v-326q0 -9 -8 -9h-24zM121 222q0 -85 54 -138t140 -53q85 0 137.5 52.5t51.5 138.5q0 85 -52 137.5t-137 52.5
q-87 0 -140.5 -52.5t-53.5 -137.5z" />
    <glyph glyph-name="q" unicode="q" horiz-adv-x="583" 
d="M503 434v-653q0 -9 -9 -9h-24q-8 0 -8 9v326q-26 -55 -77 -86t-120 -31q-102 0 -164.5 64t-62.5 168q0 103 62.5 167t164.5 64q69 0 120 -31t77 -86l6 98q2 9 10 9h16q9 0 9 -9zM78 222q0 -86 52 -138.5t138 -52.5q87 0 140.5 52.5t53.5 138.5q0 85 -54 137.5t-140 52.5
q-85 0 -137.5 -52.5t-52.5 -137.5z" />
    <glyph glyph-name="r" unicode="r" horiz-adv-x="349" 
d="M311 399q-33 12 -68 12q-39 0 -72 -27.5t-50 -75.5v-300q0 -8 -7 -8h-26q-8 0 -8 8v427q0 8 8 8h18q7 0 9 -8l3 -63q22 35 56 57t76 23q34 0 73 -12q9 -2 6 -10l-9 -27q-2 -5 -5 -5q-2 0 -4 1z" />
    <glyph glyph-name="s" unicode="s" horiz-adv-x="408" 
d="M43 40q-6 4 -3 12l12 21q2 4 6 4q1 0 5 -2q61 -44 139 -44q55 0 90 23.5t35 58.5q0 37 -30 55t-102 37q-80 21 -113 47t-34 75q-2 56 43 92t118 35q76 0 131 -42q6 -3 3 -12l-10 -21q-2 -5 -5 -5q-2 0 -6 2q-55 38 -117 38q-52 0 -84 -22.5t-32 -58.5q0 -37 27 -53.5
t103 -36.5q79 -22 113.5 -48t35.5 -77q2 -57 -45 -92.5t-124 -34.5q-98 0 -156 49z" />
    <glyph glyph-name="t" unicode="t" horiz-adv-x="331" 
d="M158 159q1 -72 18.5 -99.5t49.5 -28.5q28 0 59 28q3 3 5 3q3 0 6 -3l16 -22q5 -7 -3 -12q-40 -34 -87 -34q-52 0 -79 42.5t-26 119.5v252h-88q-9 0 -9 9v21q0 8 9 8h88l1 155q0 9 8 9h24q9 0 9 -9l-1 -155h127q9 0 9 -8v-21q0 -9 -9 -9h-127v-246z" />
    <glyph glyph-name="u" unicode="u" horiz-adv-x="545" 
d="M431 8l-6 101q-44 -119 -168 -119q-83 0 -130.5 49t-47.5 149v246q0 9 8 9h25q8 0 8 -9v-247q0 -78 36.5 -117t103.5 -39q69 0 114.5 53t49.5 133v218q0 8 8 8h25q8 0 8 -8v-427q0 -8 -8 -8h-17q-9 0 -9 8z" />
    <glyph glyph-name="v" unicode="v" horiz-adv-x="463" 
d="M449 432l-190 -423q-3 -9 -12 -9h-30q-9 0 -13 9l-190 423q-4 11 6 11h32q6 0 10 -7l170 -392l170 392q2 7 10 7h31q11 0 6 -11z" />
    <glyph glyph-name="w" unicode="w" horiz-adv-x="643" 
d="M180 45l117 390q3 8 10 8h29q7 0 10 -8l117 -390l120 390q3 8 10 8h31q8 0 5 -10l-138 -425q-3 -8 -13 -8h-30q-10 0 -12 8l-114 379l-114 -379q-3 -8 -13 -8h-30q-9 0 -12 8l-139 425q-3 10 5 10h32q7 0 10 -8z" />
    <glyph glyph-name="x" unicode="x" horiz-adv-x="426" 
d="M77 7q-6 -7 -14 -7h-34q-12 0 -5 11l160 208l-161 214q-7 10 5 10h36q8 0 12 -7l135 -182l138 181q6 8 15 8h34q12 0 4 -11l-167 -210l162 -212q7 -10 -4 -10h-36q-9 0 -13 6l-135 181z" />
    <glyph glyph-name="y" unicode="y" horiz-adv-x="443" 
d="M420 443q12 0 6 -13l-271 -649q-4 -9 -12 -9h-25q-12 0 -5 13l90 220l-186 425q-7 13 6 13h29q7 0 11 -9l160 -379l157 379q4 9 11 9h29z" />
    <glyph glyph-name="z" unicode="z" horiz-adv-x="451" 
d="M395 0h-335q-20 0 -9 16l281 389h-266q-8 0 -8 8v22q0 8 8 8h322q9 0 11.5 -4.5t-3.5 -12.5l-281 -388h280q8 0 8 -8v-22q0 -8 -8 -8z" />
    <glyph glyph-name="braceleft" unicode="{" horiz-adv-x="361" 
d="M83 287q29 2 49 30.5t20 77.5v164q0 134 100 134h43q9 0 9 -8v-24q0 -9 -9 -9h-41q-59 0 -59 -93v-160q0 -100 -65 -134q65 -34 65 -133v-160q-1 -94 59 -94h41q9 0 9 -8v-24q0 -9 -9 -9h-43q-100 0 -100 135v163q0 49 -20 77.5t-49 30.5q-7 2 -7 9v28q0 7 7 7z" />
    <glyph glyph-name="bar" unicode="|" horiz-adv-x="216" 
d="M129 713v-932q0 -9 -8 -9h-25q-9 0 -9 9v932q0 9 9 9h25q8 0 8 -9z" />
    <glyph glyph-name="braceright" unicode="}" horiz-adv-x="361" 
d="M107 652h-41q-9 0 -9 9v24q0 8 9 8h43q100 0 100 -134v-164q0 -49 20 -77.5t49 -30.5q7 0 7 -8v-28q0 -6 -7 -8q-29 -2 -49 -30.5t-20 -77.5v-163q0 -135 -100 -135h-43q-9 0 -9 9v24q0 8 9 8h41q59 1 59 94v160q0 99 65 133q-65 34 -65 134v160q0 93 -59 93z" />
    <glyph glyph-name="asciitilde" unicode="~" horiz-adv-x="553" 
d="M73 180q-1 -7 -6 -7q-4 0 -7 3l-17 18q-5 5 -2 13q20 55 55.5 85.5t79.5 30.5q31 0 56 -11t40.5 -26.5t30 -31t34.5 -26t44 -9.5q63 1 99 92q3 7 7 7q3 0 6 -3l17 -19q4 -4 3 -12q-19 -53 -54.5 -83.5t-81.5 -30.5q-37 0 -65.5 16t-44.5 36t-39.5 36t-51.5 16
q-40 0 -63.5 -25.5t-39.5 -68.5z" />
    <glyph glyph-name="exclamdown" unicode="&#xa1;" 
d="M181 -29q-40 -25 -40 -75q0 -43 27.5 -69.5t71.5 -26.5t71 26.5t27 69.5q0 51 -39 75l31 5q4 0 4 4v14q0 5 -5 5h-180q-3 0 -3 -5v-13q0 -2 3 -5zM240 -173q-32 0 -52 20t-20 51q0 32 20 51.5t52 21.5q32 -2 51 -21.5t19 -51.5t-19.5 -51.5t-50.5 -19.5zM141 120
q0 -43 27.5 -69t71.5 -26t71 26t27 69q0 53 -39 76h39q32 0 50.5 -19.5t18.5 -53.5q-1 -36 -17 -60q-3 -3 2 -6l16 -9h1q1 -1 2 -1t3 3q20 35 20 73q0 45 -26.5 73t-71.5 28l-187 -1q-3 0 -3 -4v-12q0 -3 3 -6l33 -5q-41 -25 -41 -76zM240 52q32 0 51.5 19t19.5 51
q0 33 -19.5 53.5t-51.5 20.5q-31 0 -51 -21t-20 -53q0 -31 19.5 -50.5t51.5 -19.5zM227 265v139q-27 -4 -43 -22.5t-16 -46.5q0 -29 16 -47.5t43 -22.5zM252 265v164q0 3 -4 3q-48 0 -77 -25t-29 -72q0 -44 27 -71t71 -27t71 28t27 74q0 49 -30 76q-2 2 -3 2q-2 0 -4 -2
l-12 -13q-3 -4 1 -7q20 -20 20 -56q0 -30 -16 -50t-42 -24zM240 457q44 0 71 27.5t27 70.5t-27 70t-71 27t-71 -27t-27 -70t27 -70.5t71 -27.5zM240 484q-32 0 -52 20t-20 51t20 50.5t52 19.5t51 -19.5t19 -50.5q0 -32 -19.5 -51.5t-50.5 -19.5zM50 -240v937h433v-937h-433z
" />
    <glyph glyph-name="cent" unicode="&#xa2;" 
d="M181 -29q-40 -25 -40 -75q0 -43 27.5 -69.5t71.5 -26.5t71 26.5t27 69.5q0 51 -39 75l31 5q4 0 4 4v14q0 5 -5 5h-180q-3 0 -3 -5v-13q0 -2 3 -5zM240 -173q-32 0 -52 20t-20 51q0 32 20 51.5t52 21.5q32 -2 51 -21.5t19 -51.5t-19.5 -51.5t-50.5 -19.5zM141 120
q0 -43 27.5 -69t71.5 -26t71 26t27 69q0 53 -39 76h39q32 0 50.5 -19.5t18.5 -53.5q-1 -36 -17 -60q-3 -3 2 -6l16 -9h1q1 -1 2 -1t3 3q20 35 20 73q0 45 -26.5 73t-71.5 28l-187 -1q-3 0 -3 -4v-12q0 -3 3 -6l33 -5q-41 -25 -41 -76zM240 52q32 0 51.5 19t19.5 51
q0 33 -19.5 53.5t-51.5 20.5q-31 0 -51 -21t-20 -53q0 -31 19.5 -50.5t51.5 -19.5zM227 265v139q-27 -4 -43 -22.5t-16 -46.5q0 -29 16 -47.5t43 -22.5zM252 265v164q0 3 -4 3q-48 0 -77 -25t-29 -72q0 -44 27 -71t71 -27t71 28t27 74q0 49 -30 76q-2 2 -3 2q-2 0 -4 -2
l-12 -13q-3 -4 1 -7q20 -20 20 -56q0 -30 -16 -50t-42 -24zM240 457q44 0 71 27.5t27 70.5t-27 70t-71 27t-71 -27t-27 -70t27 -70.5t71 -27.5zM240 484q-32 0 -52 20t-20 51t20 50.5t52 19.5t51 -19.5t19 -50.5q0 -32 -19.5 -51.5t-50.5 -19.5zM50 -240v937h433v-937h-433z
" />
    <glyph glyph-name="sterling" unicode="&#xa3;" 
d="M181 -29q-40 -25 -40 -75q0 -43 27.5 -69.5t71.5 -26.5t71 26.5t27 69.5q0 51 -39 75l31 5q4 0 4 4v14q0 5 -5 5h-180q-3 0 -3 -5v-13q0 -2 3 -5zM240 -173q-32 0 -52 20t-20 51q0 32 20 51.5t52 21.5q32 -2 51 -21.5t19 -51.5t-19.5 -51.5t-50.5 -19.5zM141 120
q0 -43 27.5 -69t71.5 -26t71 26t27 69q0 53 -39 76h39q32 0 50.5 -19.5t18.5 -53.5q-1 -36 -17 -60q-3 -3 2 -6l16 -9h1q1 -1 2 -1t3 3q20 35 20 73q0 45 -26.5 73t-71.5 28l-187 -1q-3 0 -3 -4v-12q0 -3 3 -6l33 -5q-41 -25 -41 -76zM240 52q32 0 51.5 19t19.5 51
q0 33 -19.5 53.5t-51.5 20.5q-31 0 -51 -21t-20 -53q0 -31 19.5 -50.5t51.5 -19.5zM227 265v139q-27 -4 -43 -22.5t-16 -46.5q0 -29 16 -47.5t43 -22.5zM252 265v164q0 3 -4 3q-48 0 -77 -25t-29 -72q0 -44 27 -71t71 -27t71 28t27 74q0 49 -30 76q-2 2 -3 2q-2 0 -4 -2
l-12 -13q-3 -4 1 -7q20 -20 20 -56q0 -30 -16 -50t-42 -24zM240 457q44 0 71 27.5t27 70.5t-27 70t-71 27t-71 -27t-27 -70t27 -70.5t71 -27.5zM240 484q-32 0 -52 20t-20 51t20 50.5t52 19.5t51 -19.5t19 -50.5q0 -32 -19.5 -51.5t-50.5 -19.5zM50 -240v937h433v-937h-433z
" />
    <glyph glyph-name="currency" unicode="&#xa4;" 
d="M181 -29q-40 -25 -40 -75q0 -43 27.5 -69.5t71.5 -26.5t71 26.5t27 69.5q0 51 -39 75l31 5q4 0 4 4v14q0 5 -5 5h-180q-3 0 -3 -5v-13q0 -2 3 -5zM240 -173q-32 0 -52 20t-20 51q0 32 20 51.5t52 21.5q32 -2 51 -21.5t19 -51.5t-19.5 -51.5t-50.5 -19.5zM141 120
q0 -43 27.5 -69t71.5 -26t71 26t27 69q0 53 -39 76h39q32 0 50.5 -19.5t18.5 -53.5q-1 -36 -17 -60q-3 -3 2 -6l16 -9h1q1 -1 2 -1t3 3q20 35 20 73q0 45 -26.5 73t-71.5 28l-187 -1q-3 0 -3 -4v-12q0 -3 3 -6l33 -5q-41 -25 -41 -76zM240 52q32 0 51.5 19t19.5 51
q0 33 -19.5 53.5t-51.5 20.5q-31 0 -51 -21t-20 -53q0 -31 19.5 -50.5t51.5 -19.5zM227 265v139q-27 -4 -43 -22.5t-16 -46.5q0 -29 16 -47.5t43 -22.5zM252 265v164q0 3 -4 3q-48 0 -77 -25t-29 -72q0 -44 27 -71t71 -27t71 28t27 74q0 49 -30 76q-2 2 -3 2q-2 0 -4 -2
l-12 -13q-3 -4 1 -7q20 -20 20 -56q0 -30 -16 -50t-42 -24zM240 457q44 0 71 27.5t27 70.5t-27 70t-71 27t-71 -27t-27 -70t27 -70.5t71 -27.5zM240 484q-32 0 -52 20t-20 51t20 50.5t52 19.5t51 -19.5t19 -50.5q0 -32 -19.5 -51.5t-50.5 -19.5zM50 -240v937h433v-937h-433z
" />
    <glyph glyph-name="yen" unicode="&#xa5;" 
d="M181 -29q-40 -25 -40 -75q0 -43 27.5 -69.5t71.5 -26.5t71 26.5t27 69.5q0 51 -39 75l31 5q4 0 4 4v14q0 5 -5 5h-180q-3 0 -3 -5v-13q0 -2 3 -5zM240 -173q-32 0 -52 20t-20 51q0 32 20 51.5t52 21.5q32 -2 51 -21.5t19 -51.5t-19.5 -51.5t-50.5 -19.5zM141 120
q0 -43 27.5 -69t71.5 -26t71 26t27 69q0 53 -39 76h39q32 0 50.5 -19.5t18.5 -53.5q-1 -36 -17 -60q-3 -3 2 -6l16 -9h1q1 -1 2 -1t3 3q20 35 20 73q0 45 -26.5 73t-71.5 28l-187 -1q-3 0 -3 -4v-12q0 -3 3 -6l33 -5q-41 -25 -41 -76zM240 52q32 0 51.5 19t19.5 51
q0 33 -19.5 53.5t-51.5 20.5q-31 0 -51 -21t-20 -53q0 -31 19.5 -50.5t51.5 -19.5zM227 265v139q-27 -4 -43 -22.5t-16 -46.5q0 -29 16 -47.5t43 -22.5zM252 265v164q0 3 -4 3q-48 0 -77 -25t-29 -72q0 -44 27 -71t71 -27t71 28t27 74q0 49 -30 76q-2 2 -3 2q-2 0 -4 -2
l-12 -13q-3 -4 1 -7q20 -20 20 -56q0 -30 -16 -50t-42 -24zM240 457q44 0 71 27.5t27 70.5t-27 70t-71 27t-71 -27t-27 -70t27 -70.5t71 -27.5zM240 484q-32 0 -52 20t-20 51t20 50.5t52 19.5t51 -19.5t19 -50.5q0 -32 -19.5 -51.5t-50.5 -19.5zM50 -240v937h433v-937h-433z
" />
    <glyph glyph-name="brokenbar" unicode="&#xa6;" 
d="M181 -29q-40 -25 -40 -75q0 -43 27.5 -69.5t71.5 -26.5t71 26.5t27 69.5q0 51 -39 75l31 5q4 0 4 4v14q0 5 -5 5h-180q-3 0 -3 -5v-13q0 -2 3 -5zM240 -173q-32 0 -52 20t-20 51q0 32 20 51.5t52 21.5q32 -2 51 -21.5t19 -51.5t-19.5 -51.5t-50.5 -19.5zM141 120
q0 -43 27.5 -69t71.5 -26t71 26t27 69q0 53 -39 76h39q32 0 50.5 -19.5t18.5 -53.5q-1 -36 -17 -60q-3 -3 2 -6l16 -9h1q1 -1 2 -1t3 3q20 35 20 73q0 45 -26.5 73t-71.5 28l-187 -1q-3 0 -3 -4v-12q0 -3 3 -6l33 -5q-41 -25 -41 -76zM240 52q32 0 51.5 19t19.5 51
q0 33 -19.5 53.5t-51.5 20.5q-31 0 -51 -21t-20 -53q0 -31 19.5 -50.5t51.5 -19.5zM227 265v139q-27 -4 -43 -22.5t-16 -46.5q0 -29 16 -47.5t43 -22.5zM252 265v164q0 3 -4 3q-48 0 -77 -25t-29 -72q0 -44 27 -71t71 -27t71 28t27 74q0 49 -30 76q-2 2 -3 2q-2 0 -4 -2
l-12 -13q-3 -4 1 -7q20 -20 20 -56q0 -30 -16 -50t-42 -24zM240 457q44 0 71 27.5t27 70.5t-27 70t-71 27t-71 -27t-27 -70t27 -70.5t71 -27.5zM240 484q-32 0 -52 20t-20 51t20 50.5t52 19.5t51 -19.5t19 -50.5q0 -32 -19.5 -51.5t-50.5 -19.5zM50 -240v937h433v-937h-433z
" />
    <glyph glyph-name="section" unicode="&#xa7;" 
d="M181 -29q-40 -25 -40 -75q0 -43 27.5 -69.5t71.5 -26.5t71 26.5t27 69.5q0 51 -39 75l31 5q4 0 4 4v14q0 5 -5 5h-180q-3 0 -3 -5v-13q0 -2 3 -5zM240 -173q-32 0 -52 20t-20 51q0 32 20 51.5t52 21.5q32 -2 51 -21.5t19 -51.5t-19.5 -51.5t-50.5 -19.5zM141 120
q0 -43 27.5 -69t71.5 -26t71 26t27 69q0 53 -39 76h39q32 0 50.5 -19.5t18.5 -53.5q-1 -36 -17 -60q-3 -3 2 -6l16 -9h1q1 -1 2 -1t3 3q20 35 20 73q0 45 -26.5 73t-71.5 28l-187 -1q-3 0 -3 -4v-12q0 -3 3 -6l33 -5q-41 -25 -41 -76zM240 52q32 0 51.5 19t19.5 51
q0 33 -19.5 53.5t-51.5 20.5q-31 0 -51 -21t-20 -53q0 -31 19.5 -50.5t51.5 -19.5zM227 265v139q-27 -4 -43 -22.5t-16 -46.5q0 -29 16 -47.5t43 -22.5zM252 265v164q0 3 -4 3q-48 0 -77 -25t-29 -72q0 -44 27 -71t71 -27t71 28t27 74q0 49 -30 76q-2 2 -3 2q-2 0 -4 -2
l-12 -13q-3 -4 1 -7q20 -20 20 -56q0 -30 -16 -50t-42 -24zM240 457q44 0 71 27.5t27 70.5t-27 70t-71 27t-71 -27t-27 -70t27 -70.5t71 -27.5zM240 484q-32 0 -52 20t-20 51t20 50.5t52 19.5t51 -19.5t19 -50.5q0 -32 -19.5 -51.5t-50.5 -19.5zM50 -240v937h433v-937h-433z
" />
    <glyph glyph-name="dieresis" unicode="&#xa8;" 
d="M181 -29q-40 -25 -40 -75q0 -43 27.5 -69.5t71.5 -26.5t71 26.5t27 69.5q0 51 -39 75l31 5q4 0 4 4v14q0 5 -5 5h-180q-3 0 -3 -5v-13q0 -2 3 -5zM240 -173q-32 0 -52 20t-20 51q0 32 20 51.5t52 21.5q32 -2 51 -21.5t19 -51.5t-19.5 -51.5t-50.5 -19.5zM141 120
q0 -43 27.5 -69t71.5 -26t71 26t27 69q0 53 -39 76h39q32 0 50.5 -19.5t18.5 -53.5q-1 -36 -17 -60q-3 -3 2 -6l16 -9h1q1 -1 2 -1t3 3q20 35 20 73q0 45 -26.5 73t-71.5 28l-187 -1q-3 0 -3 -4v-12q0 -3 3 -6l33 -5q-41 -25 -41 -76zM240 52q32 0 51.5 19t19.5 51
q0 33 -19.5 53.5t-51.5 20.5q-31 0 -51 -21t-20 -53q0 -31 19.5 -50.5t51.5 -19.5zM227 265v139q-27 -4 -43 -22.5t-16 -46.5q0 -29 16 -47.5t43 -22.5zM252 265v164q0 3 -4 3q-48 0 -77 -25t-29 -72q0 -44 27 -71t71 -27t71 28t27 74q0 49 -30 76q-2 2 -3 2q-2 0 -4 -2
l-12 -13q-3 -4 1 -7q20 -20 20 -56q0 -30 -16 -50t-42 -24zM240 457q44 0 71 27.5t27 70.5t-27 70t-71 27t-71 -27t-27 -70t27 -70.5t71 -27.5zM240 484q-32 0 -52 20t-20 51t20 50.5t52 19.5t51 -19.5t19 -50.5q0 -32 -19.5 -51.5t-50.5 -19.5zM50 -240v937h433v-937h-433z
" />
    <glyph glyph-name="copyright" unicode="&#xa9;" 
d="M181 -29q-40 -25 -40 -75q0 -43 27.5 -69.5t71.5 -26.5t71 26.5t27 69.5q0 51 -39 75l31 5q4 0 4 4v14q0 5 -5 5h-180q-3 0 -3 -5v-13q0 -2 3 -5zM240 -173q-32 0 -52 20t-20 51q0 32 20 51.5t52 21.5q32 -2 51 -21.5t19 -51.5t-19.5 -51.5t-50.5 -19.5zM141 120
q0 -43 27.5 -69t71.5 -26t71 26t27 69q0 53 -39 76h39q32 0 50.5 -19.5t18.5 -53.5q-1 -36 -17 -60q-3 -3 2 -6l16 -9h1q1 -1 2 -1t3 3q20 35 20 73q0 45 -26.5 73t-71.5 28l-187 -1q-3 0 -3 -4v-12q0 -3 3 -6l33 -5q-41 -25 -41 -76zM240 52q32 0 51.5 19t19.5 51
q0 33 -19.5 53.5t-51.5 20.5q-31 0 -51 -21t-20 -53q0 -31 19.5 -50.5t51.5 -19.5zM227 265v139q-27 -4 -43 -22.5t-16 -46.5q0 -29 16 -47.5t43 -22.5zM252 265v164q0 3 -4 3q-48 0 -77 -25t-29 -72q0 -44 27 -71t71 -27t71 28t27 74q0 49 -30 76q-2 2 -3 2q-2 0 -4 -2
l-12 -13q-3 -4 1 -7q20 -20 20 -56q0 -30 -16 -50t-42 -24zM240 457q44 0 71 27.5t27 70.5t-27 70t-71 27t-71 -27t-27 -70t27 -70.5t71 -27.5zM240 484q-32 0 -52 20t-20 51t20 50.5t52 19.5t51 -19.5t19 -50.5q0 -32 -19.5 -51.5t-50.5 -19.5zM50 -240v937h433v-937h-433z
" />
    <glyph glyph-name="ordfeminine" unicode="&#xaa;" 
d="M181 -29q-40 -25 -40 -75q0 -43 27.5 -69.5t71.5 -26.5t71 26.5t27 69.5q0 51 -39 75l31 5q4 0 4 4v14q0 5 -5 5h-180q-3 0 -3 -5v-13q0 -2 3 -5zM240 -173q-32 0 -52 20t-20 51q0 32 20 51.5t52 21.5q32 -2 51 -21.5t19 -51.5t-19.5 -51.5t-50.5 -19.5zM141 120
q0 -43 27.5 -69t71.5 -26t71 26t27 69q0 53 -39 76h39q32 0 50.5 -19.5t18.5 -53.5q-1 -36 -17 -60q-3 -3 2 -6l16 -9h1q1 -1 2 -1t3 3q20 35 20 73q0 45 -26.5 73t-71.5 28l-187 -1q-3 0 -3 -4v-12q0 -3 3 -6l33 -5q-41 -25 -41 -76zM240 52q32 0 51.5 19t19.5 51
q0 33 -19.5 53.5t-51.5 20.5q-31 0 -51 -21t-20 -53q0 -31 19.5 -50.5t51.5 -19.5zM227 265v139q-27 -4 -43 -22.5t-16 -46.5q0 -29 16 -47.5t43 -22.5zM252 265v164q0 3 -4 3q-48 0 -77 -25t-29 -72q0 -44 27 -71t71 -27t71 28t27 74q0 49 -30 76q-2 2 -3 2q-2 0 -4 -2
l-12 -13q-3 -4 1 -7q20 -20 20 -56q0 -30 -16 -50t-42 -24zM240 457q44 0 71 27.5t27 70.5t-27 70t-71 27t-71 -27t-27 -70t27 -70.5t71 -27.5zM240 484q-32 0 -52 20t-20 51t20 50.5t52 19.5t51 -19.5t19 -50.5q0 -32 -19.5 -51.5t-50.5 -19.5zM50 -240v937h433v-937h-433z
" />
    <glyph glyph-name="guillemotleft" unicode="&#xab;" 
d="M181 -29q-40 -25 -40 -75q0 -43 27.5 -69.5t71.5 -26.5t71 26.5t27 69.5q0 51 -39 75l31 5q4 0 4 4v14q0 5 -5 5h-180q-3 0 -3 -5v-13q0 -2 3 -5zM240 -173q-32 0 -52 20t-20 51q0 32 20 51.5t52 21.5q32 -2 51 -21.5t19 -51.5t-19.5 -51.5t-50.5 -19.5zM141 120
q0 -43 27.5 -69t71.5 -26t71 26t27 69q0 53 -39 76h39q32 0 50.5 -19.5t18.5 -53.5q-1 -36 -17 -60q-3 -3 2 -6l16 -9h1q1 -1 2 -1t3 3q20 35 20 73q0 45 -26.5 73t-71.5 28l-187 -1q-3 0 -3 -4v-12q0 -3 3 -6l33 -5q-41 -25 -41 -76zM240 52q32 0 51.5 19t19.5 51
q0 33 -19.5 53.5t-51.5 20.5q-31 0 -51 -21t-20 -53q0 -31 19.5 -50.5t51.5 -19.5zM227 265v139q-27 -4 -43 -22.5t-16 -46.5q0 -29 16 -47.5t43 -22.5zM252 265v164q0 3 -4 3q-48 0 -77 -25t-29 -72q0 -44 27 -71t71 -27t71 28t27 74q0 49 -30 76q-2 2 -3 2q-2 0 -4 -2
l-12 -13q-3 -4 1 -7q20 -20 20 -56q0 -30 -16 -50t-42 -24zM240 457q44 0 71 27.5t27 70.5t-27 70t-71 27t-71 -27t-27 -70t27 -70.5t71 -27.5zM240 484q-32 0 -52 20t-20 51t20 50.5t52 19.5t51 -19.5t19 -50.5q0 -32 -19.5 -51.5t-50.5 -19.5zM50 -240v937h433v-937h-433z
" />
    <glyph glyph-name="logicalnot" unicode="&#xac;" 
d="M181 -29q-40 -25 -40 -75q0 -43 27.5 -69.5t71.5 -26.5t71 26.5t27 69.5q0 51 -39 75l31 5q4 0 4 4v14q0 5 -5 5h-180q-3 0 -3 -5v-13q0 -2 3 -5zM240 -173q-32 0 -52 20t-20 51q0 32 20 51.5t52 21.5q32 -2 51 -21.5t19 -51.5t-19.5 -51.5t-50.5 -19.5zM141 120
q0 -43 27.5 -69t71.5 -26t71 26t27 69q0 53 -39 76h39q32 0 50.5 -19.5t18.5 -53.5q-1 -36 -17 -60q-3 -3 2 -6l16 -9h1q1 -1 2 -1t3 3q20 35 20 73q0 45 -26.5 73t-71.5 28l-187 -1q-3 0 -3 -4v-12q0 -3 3 -6l33 -5q-41 -25 -41 -76zM240 52q32 0 51.5 19t19.5 51
q0 33 -19.5 53.5t-51.5 20.5q-31 0 -51 -21t-20 -53q0 -31 19.5 -50.5t51.5 -19.5zM227 265v139q-27 -4 -43 -22.5t-16 -46.5q0 -29 16 -47.5t43 -22.5zM252 265v164q0 3 -4 3q-48 0 -77 -25t-29 -72q0 -44 27 -71t71 -27t71 28t27 74q0 49 -30 76q-2 2 -3 2q-2 0 -4 -2
l-12 -13q-3 -4 1 -7q20 -20 20 -56q0 -30 -16 -50t-42 -24zM240 457q44 0 71 27.5t27 70.5t-27 70t-71 27t-71 -27t-27 -70t27 -70.5t71 -27.5zM240 484q-32 0 -52 20t-20 51t20 50.5t52 19.5t51 -19.5t19 -50.5q0 -32 -19.5 -51.5t-50.5 -19.5zM50 -240v937h433v-937h-433z
" />
    <glyph glyph-name="registered" unicode="&#xae;" 
d="M181 -29q-40 -25 -40 -75q0 -43 27.5 -69.5t71.5 -26.5t71 26.5t27 69.5q0 51 -39 75l31 5q4 0 4 4v14q0 5 -5 5h-180q-3 0 -3 -5v-13q0 -2 3 -5zM240 -173q-32 0 -52 20t-20 51q0 32 20 51.5t52 21.5q32 -2 51 -21.5t19 -51.5t-19.5 -51.5t-50.5 -19.5zM141 120
q0 -43 27.5 -69t71.5 -26t71 26t27 69q0 53 -39 76h39q32 0 50.5 -19.5t18.5 -53.5q-1 -36 -17 -60q-3 -3 2 -6l16 -9h1q1 -1 2 -1t3 3q20 35 20 73q0 45 -26.5 73t-71.5 28l-187 -1q-3 0 -3 -4v-12q0 -3 3 -6l33 -5q-41 -25 -41 -76zM240 52q32 0 51.5 19t19.5 51
q0 33 -19.5 53.5t-51.5 20.5q-31 0 -51 -21t-20 -53q0 -31 19.5 -50.5t51.5 -19.5zM227 265v139q-27 -4 -43 -22.5t-16 -46.5q0 -29 16 -47.5t43 -22.5zM252 265v164q0 3 -4 3q-48 0 -77 -25t-29 -72q0 -44 27 -71t71 -27t71 28t27 74q0 49 -30 76q-2 2 -3 2q-2 0 -4 -2
l-12 -13q-3 -4 1 -7q20 -20 20 -56q0 -30 -16 -50t-42 -24zM240 457q44 0 71 27.5t27 70.5t-27 70t-71 27t-71 -27t-27 -70t27 -70.5t71 -27.5zM240 484q-32 0 -52 20t-20 51t20 50.5t52 19.5t51 -19.5t19 -50.5q0 -32 -19.5 -51.5t-50.5 -19.5zM50 -240v937h433v-937h-433z
" />
    <glyph glyph-name="macron" unicode="&#xaf;" 
d="M181 -29q-40 -25 -40 -75q0 -43 27.5 -69.5t71.5 -26.5t71 26.5t27 69.5q0 51 -39 75l31 5q4 0 4 4v14q0 5 -5 5h-180q-3 0 -3 -5v-13q0 -2 3 -5zM240 -173q-32 0 -52 20t-20 51q0 32 20 51.5t52 21.5q32 -2 51 -21.5t19 -51.5t-19.5 -51.5t-50.5 -19.5zM141 120
q0 -43 27.5 -69t71.5 -26t71 26t27 69q0 53 -39 76h39q32 0 50.5 -19.5t18.5 -53.5q-1 -36 -17 -60q-3 -3 2 -6l16 -9h1q1 -1 2 -1t3 3q20 35 20 73q0 45 -26.5 73t-71.5 28l-187 -1q-3 0 -3 -4v-12q0 -3 3 -6l33 -5q-41 -25 -41 -76zM240 52q32 0 51.5 19t19.5 51
q0 33 -19.5 53.5t-51.5 20.5q-31 0 -51 -21t-20 -53q0 -31 19.5 -50.5t51.5 -19.5zM227 265v139q-27 -4 -43 -22.5t-16 -46.5q0 -29 16 -47.5t43 -22.5zM252 265v164q0 3 -4 3q-48 0 -77 -25t-29 -72q0 -44 27 -71t71 -27t71 28t27 74q0 49 -30 76q-2 2 -3 2q-2 0 -4 -2
l-12 -13q-3 -4 1 -7q20 -20 20 -56q0 -30 -16 -50t-42 -24zM240 457q44 0 71 27.5t27 70.5t-27 70t-71 27t-71 -27t-27 -70t27 -70.5t71 -27.5zM240 484q-32 0 -52 20t-20 51t20 50.5t52 19.5t51 -19.5t19 -50.5q0 -32 -19.5 -51.5t-50.5 -19.5zM50 -240v937h433v-937h-433z
" />
    <glyph glyph-name="degree" unicode="&#xb0;" 
d="M181 -29q-40 -25 -40 -75q0 -43 27.5 -69.5t71.5 -26.5t71 26.5t27 69.5q0 51 -39 75l31 5q4 0 4 4v14q0 5 -5 5h-180q-3 0 -3 -5v-13q0 -2 3 -5zM240 -173q-32 0 -52 20t-20 51q0 32 20 51.5t52 21.5q32 -2 51 -21.5t19 -51.5t-19.5 -51.5t-50.5 -19.5zM141 120
q0 -43 27.5 -69t71.5 -26t71 26t27 69q0 53 -39 76h39q32 0 50.5 -19.5t18.5 -53.5q-1 -36 -17 -60q-3 -3 2 -6l16 -9h1q1 -1 2 -1t3 3q20 35 20 73q0 45 -26.5 73t-71.5 28l-187 -1q-3 0 -3 -4v-12q0 -3 3 -6l33 -5q-41 -25 -41 -76zM240 52q32 0 51.5 19t19.5 51
q0 33 -19.5 53.5t-51.5 20.5q-31 0 -51 -21t-20 -53q0 -31 19.5 -50.5t51.5 -19.5zM227 265v139q-27 -4 -43 -22.5t-16 -46.5q0 -29 16 -47.5t43 -22.5zM252 265v164q0 3 -4 3q-48 0 -77 -25t-29 -72q0 -44 27 -71t71 -27t71 28t27 74q0 49 -30 76q-2 2 -3 2q-2 0 -4 -2
l-12 -13q-3 -4 1 -7q20 -20 20 -56q0 -30 -16 -50t-42 -24zM240 457q44 0 71 27.5t27 70.5t-27 70t-71 27t-71 -27t-27 -70t27 -70.5t71 -27.5zM240 484q-32 0 -52 20t-20 51t20 50.5t52 19.5t51 -19.5t19 -50.5q0 -32 -19.5 -51.5t-50.5 -19.5zM50 -240v937h433v-937h-433z
" />
    <glyph glyph-name="plusminus" unicode="&#xb1;" 
d="M181 -29q-40 -25 -40 -75q0 -43 27.5 -69.5t71.5 -26.5t71 26.5t27 69.5q0 51 -39 75l31 5q4 0 4 4v14q0 5 -5 5h-180q-3 0 -3 -5v-13q0 -2 3 -5zM240 -173q-32 0 -52 20t-20 51q0 32 20 51.5t52 21.5q32 -2 51 -21.5t19 -51.5t-19.5 -51.5t-50.5 -19.5zM141 120
q0 -43 27.5 -69t71.5 -26t71 26t27 69q0 53 -39 76h39q32 0 50.5 -19.5t18.5 -53.5q-1 -36 -17 -60q-3 -3 2 -6l16 -9h1q1 -1 2 -1t3 3q20 35 20 73q0 45 -26.5 73t-71.5 28l-187 -1q-3 0 -3 -4v-12q0 -3 3 -6l33 -5q-41 -25 -41 -76zM240 52q32 0 51.5 19t19.5 51
q0 33 -19.5 53.5t-51.5 20.5q-31 0 -51 -21t-20 -53q0 -31 19.5 -50.5t51.5 -19.5zM227 265v139q-27 -4 -43 -22.5t-16 -46.5q0 -29 16 -47.5t43 -22.5zM252 265v164q0 3 -4 3q-48 0 -77 -25t-29 -72q0 -44 27 -71t71 -27t71 28t27 74q0 49 -30 76q-2 2 -3 2q-2 0 -4 -2
l-12 -13q-3 -4 1 -7q20 -20 20 -56q0 -30 -16 -50t-42 -24zM240 457q44 0 71 27.5t27 70.5t-27 70t-71 27t-71 -27t-27 -70t27 -70.5t71 -27.5zM240 484q-32 0 -52 20t-20 51t20 50.5t52 19.5t51 -19.5t19 -50.5q0 -32 -19.5 -51.5t-50.5 -19.5zM50 -240v937h433v-937h-433z
" />
    <glyph glyph-name="twosuperior" unicode="&#xb2;" 
d="M181 -29q-40 -25 -40 -75q0 -43 27.5 -69.5t71.5 -26.5t71 26.5t27 69.5q0 51 -39 75l31 5q4 0 4 4v14q0 5 -5 5h-180q-3 0 -3 -5v-13q0 -2 3 -5zM240 -173q-32 0 -52 20t-20 51q0 32 20 51.5t52 21.5q32 -2 51 -21.5t19 -51.5t-19.5 -51.5t-50.5 -19.5zM141 120
q0 -43 27.5 -69t71.5 -26t71 26t27 69q0 53 -39 76h39q32 0 50.5 -19.5t18.5 -53.5q-1 -36 -17 -60q-3 -3 2 -6l16 -9h1q1 -1 2 -1t3 3q20 35 20 73q0 45 -26.5 73t-71.5 28l-187 -1q-3 0 -3 -4v-12q0 -3 3 -6l33 -5q-41 -25 -41 -76zM240 52q32 0 51.5 19t19.5 51
q0 33 -19.5 53.5t-51.5 20.5q-31 0 -51 -21t-20 -53q0 -31 19.5 -50.5t51.5 -19.5zM227 265v139q-27 -4 -43 -22.5t-16 -46.5q0 -29 16 -47.5t43 -22.5zM252 265v164q0 3 -4 3q-48 0 -77 -25t-29 -72q0 -44 27 -71t71 -27t71 28t27 74q0 49 -30 76q-2 2 -3 2q-2 0 -4 -2
l-12 -13q-3 -4 1 -7q20 -20 20 -56q0 -30 -16 -50t-42 -24zM240 457q44 0 71 27.5t27 70.5t-27 70t-71 27t-71 -27t-27 -70t27 -70.5t71 -27.5zM240 484q-32 0 -52 20t-20 51t20 50.5t52 19.5t51 -19.5t19 -50.5q0 -32 -19.5 -51.5t-50.5 -19.5zM50 -240v937h433v-937h-433z
" />
    <glyph glyph-name="threesuperior" unicode="&#xb3;" 
d="M181 -29q-40 -25 -40 -75q0 -43 27.5 -69.5t71.5 -26.5t71 26.5t27 69.5q0 51 -39 75l31 5q4 0 4 4v14q0 5 -5 5h-180q-3 0 -3 -5v-13q0 -2 3 -5zM240 -173q-32 0 -52 20t-20 51q0 32 20 51.5t52 21.5q32 -2 51 -21.5t19 -51.5t-19.5 -51.5t-50.5 -19.5zM141 120
q0 -43 27.5 -69t71.5 -26t71 26t27 69q0 53 -39 76h39q32 0 50.5 -19.5t18.5 -53.5q-1 -36 -17 -60q-3 -3 2 -6l16 -9h1q1 -1 2 -1t3 3q20 35 20 73q0 45 -26.5 73t-71.5 28l-187 -1q-3 0 -3 -4v-12q0 -3 3 -6l33 -5q-41 -25 -41 -76zM240 52q32 0 51.5 19t19.5 51
q0 33 -19.5 53.5t-51.5 20.5q-31 0 -51 -21t-20 -53q0 -31 19.5 -50.5t51.5 -19.5zM227 265v139q-27 -4 -43 -22.5t-16 -46.5q0 -29 16 -47.5t43 -22.5zM252 265v164q0 3 -4 3q-48 0 -77 -25t-29 -72q0 -44 27 -71t71 -27t71 28t27 74q0 49 -30 76q-2 2 -3 2q-2 0 -4 -2
l-12 -13q-3 -4 1 -7q20 -20 20 -56q0 -30 -16 -50t-42 -24zM240 457q44 0 71 27.5t27 70.5t-27 70t-71 27t-71 -27t-27 -70t27 -70.5t71 -27.5zM240 484q-32 0 -52 20t-20 51t20 50.5t52 19.5t51 -19.5t19 -50.5q0 -32 -19.5 -51.5t-50.5 -19.5zM50 -240v937h433v-937h-433z
" />
    <glyph glyph-name="acute" unicode="&#xb4;" 
d="M181 -29q-40 -25 -40 -75q0 -43 27.5 -69.5t71.5 -26.5t71 26.5t27 69.5q0 51 -39 75l31 5q4 0 4 4v14q0 5 -5 5h-180q-3 0 -3 -5v-13q0 -2 3 -5zM240 -173q-32 0 -52 20t-20 51q0 32 20 51.5t52 21.5q32 -2 51 -21.5t19 -51.5t-19.5 -51.5t-50.5 -19.5zM141 120
q0 -43 27.5 -69t71.5 -26t71 26t27 69q0 53 -39 76h39q32 0 50.5 -19.5t18.5 -53.5q-1 -36 -17 -60q-3 -3 2 -6l16 -9h1q1 -1 2 -1t3 3q20 35 20 73q0 45 -26.5 73t-71.5 28l-187 -1q-3 0 -3 -4v-12q0 -3 3 -6l33 -5q-41 -25 -41 -76zM240 52q32 0 51.5 19t19.5 51
q0 33 -19.5 53.5t-51.5 20.5q-31 0 -51 -21t-20 -53q0 -31 19.5 -50.5t51.5 -19.5zM227 265v139q-27 -4 -43 -22.5t-16 -46.5q0 -29 16 -47.5t43 -22.5zM252 265v164q0 3 -4 3q-48 0 -77 -25t-29 -72q0 -44 27 -71t71 -27t71 28t27 74q0 49 -30 76q-2 2 -3 2q-2 0 -4 -2
l-12 -13q-3 -4 1 -7q20 -20 20 -56q0 -30 -16 -50t-42 -24zM240 457q44 0 71 27.5t27 70.5t-27 70t-71 27t-71 -27t-27 -70t27 -70.5t71 -27.5zM240 484q-32 0 -52 20t-20 51t20 50.5t52 19.5t51 -19.5t19 -50.5q0 -32 -19.5 -51.5t-50.5 -19.5zM50 -240v937h433v-937h-433z
" />
    <glyph glyph-name="mu" unicode="&#xb5;" 
d="M181 -29q-40 -25 -40 -75q0 -43 27.5 -69.5t71.5 -26.5t71 26.5t27 69.5q0 51 -39 75l31 5q4 0 4 4v14q0 5 -5 5h-180q-3 0 -3 -5v-13q0 -2 3 -5zM240 -173q-32 0 -52 20t-20 51q0 32 20 51.5t52 21.5q32 -2 51 -21.5t19 -51.5t-19.5 -51.5t-50.5 -19.5zM141 120
q0 -43 27.5 -69t71.5 -26t71 26t27 69q0 53 -39 76h39q32 0 50.5 -19.5t18.5 -53.5q-1 -36 -17 -60q-3 -3 2 -6l16 -9h1q1 -1 2 -1t3 3q20 35 20 73q0 45 -26.5 73t-71.5 28l-187 -1q-3 0 -3 -4v-12q0 -3 3 -6l33 -5q-41 -25 -41 -76zM240 52q32 0 51.5 19t19.5 51
q0 33 -19.5 53.5t-51.5 20.5q-31 0 -51 -21t-20 -53q0 -31 19.5 -50.5t51.5 -19.5zM227 265v139q-27 -4 -43 -22.5t-16 -46.5q0 -29 16 -47.5t43 -22.5zM252 265v164q0 3 -4 3q-48 0 -77 -25t-29 -72q0 -44 27 -71t71 -27t71 28t27 74q0 49 -30 76q-2 2 -3 2q-2 0 -4 -2
l-12 -13q-3 -4 1 -7q20 -20 20 -56q0 -30 -16 -50t-42 -24zM240 457q44 0 71 27.5t27 70.5t-27 70t-71 27t-71 -27t-27 -70t27 -70.5t71 -27.5zM240 484q-32 0 -52 20t-20 51t20 50.5t52 19.5t51 -19.5t19 -50.5q0 -32 -19.5 -51.5t-50.5 -19.5zM50 -240v937h433v-937h-433z
" />
    <glyph glyph-name="paragraph" unicode="&#xb6;" 
d="M181 -29q-40 -25 -40 -75q0 -43 27.5 -69.5t71.5 -26.5t71 26.5t27 69.5q0 51 -39 75l31 5q4 0 4 4v14q0 5 -5 5h-180q-3 0 -3 -5v-13q0 -2 3 -5zM240 -173q-32 0 -52 20t-20 51q0 32 20 51.5t52 21.5q32 -2 51 -21.5t19 -51.5t-19.5 -51.5t-50.5 -19.5zM141 120
q0 -43 27.5 -69t71.5 -26t71 26t27 69q0 53 -39 76h39q32 0 50.5 -19.5t18.5 -53.5q-1 -36 -17 -60q-3 -3 2 -6l16 -9h1q1 -1 2 -1t3 3q20 35 20 73q0 45 -26.5 73t-71.5 28l-187 -1q-3 0 -3 -4v-12q0 -3 3 -6l33 -5q-41 -25 -41 -76zM240 52q32 0 51.5 19t19.5 51
q0 33 -19.5 53.5t-51.5 20.5q-31 0 -51 -21t-20 -53q0 -31 19.5 -50.5t51.5 -19.5zM227 265v139q-27 -4 -43 -22.5t-16 -46.5q0 -29 16 -47.5t43 -22.5zM252 265v164q0 3 -4 3q-48 0 -77 -25t-29 -72q0 -44 27 -71t71 -27t71 28t27 74q0 49 -30 76q-2 2 -3 2q-2 0 -4 -2
l-12 -13q-3 -4 1 -7q20 -20 20 -56q0 -30 -16 -50t-42 -24zM240 457q44 0 71 27.5t27 70.5t-27 70t-71 27t-71 -27t-27 -70t27 -70.5t71 -27.5zM240 484q-32 0 -52 20t-20 51t20 50.5t52 19.5t51 -19.5t19 -50.5q0 -32 -19.5 -51.5t-50.5 -19.5zM50 -240v937h433v-937h-433z
" />
    <glyph glyph-name="periodcentered" unicode="&#xb7;" 
d="M181 -29q-40 -25 -40 -75q0 -43 27.5 -69.5t71.5 -26.5t71 26.5t27 69.5q0 51 -39 75l31 5q4 0 4 4v14q0 5 -5 5h-180q-3 0 -3 -5v-13q0 -2 3 -5zM240 -173q-32 0 -52 20t-20 51q0 32 20 51.5t52 21.5q32 -2 51 -21.5t19 -51.5t-19.5 -51.5t-50.5 -19.5zM141 120
q0 -43 27.5 -69t71.5 -26t71 26t27 69q0 53 -39 76h39q32 0 50.5 -19.5t18.5 -53.5q-1 -36 -17 -60q-3 -3 2 -6l16 -9h1q1 -1 2 -1t3 3q20 35 20 73q0 45 -26.5 73t-71.5 28l-187 -1q-3 0 -3 -4v-12q0 -3 3 -6l33 -5q-41 -25 -41 -76zM240 52q32 0 51.5 19t19.5 51
q0 33 -19.5 53.5t-51.5 20.5q-31 0 -51 -21t-20 -53q0 -31 19.5 -50.5t51.5 -19.5zM227 265v139q-27 -4 -43 -22.5t-16 -46.5q0 -29 16 -47.5t43 -22.5zM252 265v164q0 3 -4 3q-48 0 -77 -25t-29 -72q0 -44 27 -71t71 -27t71 28t27 74q0 49 -30 76q-2 2 -3 2q-2 0 -4 -2
l-12 -13q-3 -4 1 -7q20 -20 20 -56q0 -30 -16 -50t-42 -24zM240 457q44 0 71 27.5t27 70.5t-27 70t-71 27t-71 -27t-27 -70t27 -70.5t71 -27.5zM240 484q-32 0 -52 20t-20 51t20 50.5t52 19.5t51 -19.5t19 -50.5q0 -32 -19.5 -51.5t-50.5 -19.5zM50 -240v937h433v-937h-433z
" />
    <glyph glyph-name="cedilla" unicode="&#xb8;" 
d="M181 -29q-40 -25 -40 -75q0 -43 27.5 -69.5t71.5 -26.5t71 26.5t27 69.5q0 51 -39 75l31 5q4 0 4 4v14q0 5 -5 5h-180q-3 0 -3 -5v-13q0 -2 3 -5zM240 -173q-32 0 -52 20t-20 51q0 32 20 51.5t52 21.5q32 -2 51 -21.5t19 -51.5t-19.5 -51.5t-50.5 -19.5zM141 120
q0 -43 27.5 -69t71.5 -26t71 26t27 69q0 53 -39 76h39q32 0 50.5 -19.5t18.5 -53.5q-1 -36 -17 -60q-3 -3 2 -6l16 -9h1q1 -1 2 -1t3 3q20 35 20 73q0 45 -26.5 73t-71.5 28l-187 -1q-3 0 -3 -4v-12q0 -3 3 -6l33 -5q-41 -25 -41 -76zM240 52q32 0 51.5 19t19.5 51
q0 33 -19.5 53.5t-51.5 20.5q-31 0 -51 -21t-20 -53q0 -31 19.5 -50.5t51.5 -19.5zM227 265v139q-27 -4 -43 -22.5t-16 -46.5q0 -29 16 -47.5t43 -22.5zM252 265v164q0 3 -4 3q-48 0 -77 -25t-29 -72q0 -44 27 -71t71 -27t71 28t27 74q0 49 -30 76q-2 2 -3 2q-2 0 -4 -2
l-12 -13q-3 -4 1 -7q20 -20 20 -56q0 -30 -16 -50t-42 -24zM240 457q44 0 71 27.5t27 70.5t-27 70t-71 27t-71 -27t-27 -70t27 -70.5t71 -27.5zM240 484q-32 0 -52 20t-20 51t20 50.5t52 19.5t51 -19.5t19 -50.5q0 -32 -19.5 -51.5t-50.5 -19.5zM50 -240v937h433v-937h-433z
" />
    <glyph glyph-name="onesuperior" unicode="&#xb9;" 
d="M181 -29q-40 -25 -40 -75q0 -43 27.5 -69.5t71.5 -26.5t71 26.5t27 69.5q0 51 -39 75l31 5q4 0 4 4v14q0 5 -5 5h-180q-3 0 -3 -5v-13q0 -2 3 -5zM240 -173q-32 0 -52 20t-20 51q0 32 20 51.5t52 21.5q32 -2 51 -21.5t19 -51.5t-19.5 -51.5t-50.5 -19.5zM141 120
q0 -43 27.5 -69t71.5 -26t71 26t27 69q0 53 -39 76h39q32 0 50.5 -19.5t18.5 -53.5q-1 -36 -17 -60q-3 -3 2 -6l16 -9h1q1 -1 2 -1t3 3q20 35 20 73q0 45 -26.5 73t-71.5 28l-187 -1q-3 0 -3 -4v-12q0 -3 3 -6l33 -5q-41 -25 -41 -76zM240 52q32 0 51.5 19t19.5 51
q0 33 -19.5 53.5t-51.5 20.5q-31 0 -51 -21t-20 -53q0 -31 19.5 -50.5t51.5 -19.5zM227 265v139q-27 -4 -43 -22.5t-16 -46.5q0 -29 16 -47.5t43 -22.5zM252 265v164q0 3 -4 3q-48 0 -77 -25t-29 -72q0 -44 27 -71t71 -27t71 28t27 74q0 49 -30 76q-2 2 -3 2q-2 0 -4 -2
l-12 -13q-3 -4 1 -7q20 -20 20 -56q0 -30 -16 -50t-42 -24zM240 457q44 0 71 27.5t27 70.5t-27 70t-71 27t-71 -27t-27 -70t27 -70.5t71 -27.5zM240 484q-32 0 -52 20t-20 51t20 50.5t52 19.5t51 -19.5t19 -50.5q0 -32 -19.5 -51.5t-50.5 -19.5zM50 -240v937h433v-937h-433z
" />
    <glyph glyph-name="ordmasculine" unicode="&#xba;" 
d="M181 -29q-40 -25 -40 -75q0 -43 27.5 -69.5t71.5 -26.5t71 26.5t27 69.5q0 51 -39 75l31 5q4 0 4 4v14q0 5 -5 5h-180q-3 0 -3 -5v-13q0 -2 3 -5zM240 -173q-32 0 -52 20t-20 51q0 32 20 51.5t52 21.5q32 -2 51 -21.5t19 -51.5t-19.5 -51.5t-50.5 -19.5zM141 120
q0 -43 27.5 -69t71.5 -26t71 26t27 69q0 53 -39 76h39q32 0 50.5 -19.5t18.5 -53.5q-1 -36 -17 -60q-3 -3 2 -6l16 -9h1q1 -1 2 -1t3 3q20 35 20 73q0 45 -26.5 73t-71.5 28l-187 -1q-3 0 -3 -4v-12q0 -3 3 -6l33 -5q-41 -25 -41 -76zM240 52q32 0 51.5 19t19.5 51
q0 33 -19.5 53.5t-51.5 20.5q-31 0 -51 -21t-20 -53q0 -31 19.5 -50.5t51.5 -19.5zM227 265v139q-27 -4 -43 -22.5t-16 -46.5q0 -29 16 -47.5t43 -22.5zM252 265v164q0 3 -4 3q-48 0 -77 -25t-29 -72q0 -44 27 -71t71 -27t71 28t27 74q0 49 -30 76q-2 2 -3 2q-2 0 -4 -2
l-12 -13q-3 -4 1 -7q20 -20 20 -56q0 -30 -16 -50t-42 -24zM240 457q44 0 71 27.5t27 70.5t-27 70t-71 27t-71 -27t-27 -70t27 -70.5t71 -27.5zM240 484q-32 0 -52 20t-20 51t20 50.5t52 19.5t51 -19.5t19 -50.5q0 -32 -19.5 -51.5t-50.5 -19.5zM50 -240v937h433v-937h-433z
" />
    <glyph glyph-name="guillemotright" unicode="&#xbb;" 
d="M181 -29q-40 -25 -40 -75q0 -43 27.5 -69.5t71.5 -26.5t71 26.5t27 69.5q0 51 -39 75l31 5q4 0 4 4v14q0 5 -5 5h-180q-3 0 -3 -5v-13q0 -2 3 -5zM240 -173q-32 0 -52 20t-20 51q0 32 20 51.5t52 21.5q32 -2 51 -21.5t19 -51.5t-19.5 -51.5t-50.5 -19.5zM141 120
q0 -43 27.5 -69t71.5 -26t71 26t27 69q0 53 -39 76h39q32 0 50.5 -19.5t18.5 -53.5q-1 -36 -17 -60q-3 -3 2 -6l16 -9h1q1 -1 2 -1t3 3q20 35 20 73q0 45 -26.5 73t-71.5 28l-187 -1q-3 0 -3 -4v-12q0 -3 3 -6l33 -5q-41 -25 -41 -76zM240 52q32 0 51.5 19t19.5 51
q0 33 -19.5 53.5t-51.5 20.5q-31 0 -51 -21t-20 -53q0 -31 19.5 -50.5t51.5 -19.5zM227 265v139q-27 -4 -43 -22.5t-16 -46.5q0 -29 16 -47.5t43 -22.5zM252 265v164q0 3 -4 3q-48 0 -77 -25t-29 -72q0 -44 27 -71t71 -27t71 28t27 74q0 49 -30 76q-2 2 -3 2q-2 0 -4 -2
l-12 -13q-3 -4 1 -7q20 -20 20 -56q0 -30 -16 -50t-42 -24zM240 457q44 0 71 27.5t27 70.5t-27 70t-71 27t-71 -27t-27 -70t27 -70.5t71 -27.5zM240 484q-32 0 -52 20t-20 51t20 50.5t52 19.5t51 -19.5t19 -50.5q0 -32 -19.5 -51.5t-50.5 -19.5zM50 -240v937h433v-937h-433z
" />
    <glyph glyph-name="onequarter" unicode="&#xbc;" 
d="M181 -29q-40 -25 -40 -75q0 -43 27.5 -69.5t71.5 -26.5t71 26.5t27 69.5q0 51 -39 75l31 5q4 0 4 4v14q0 5 -5 5h-180q-3 0 -3 -5v-13q0 -2 3 -5zM240 -173q-32 0 -52 20t-20 51q0 32 20 51.5t52 21.5q32 -2 51 -21.5t19 -51.5t-19.5 -51.5t-50.5 -19.5zM141 120
q0 -43 27.5 -69t71.5 -26t71 26t27 69q0 53 -39 76h39q32 0 50.5 -19.5t18.5 -53.5q-1 -36 -17 -60q-3 -3 2 -6l16 -9h1q1 -1 2 -1t3 3q20 35 20 73q0 45 -26.5 73t-71.5 28l-187 -1q-3 0 -3 -4v-12q0 -3 3 -6l33 -5q-41 -25 -41 -76zM240 52q32 0 51.5 19t19.5 51
q0 33 -19.5 53.5t-51.5 20.5q-31 0 -51 -21t-20 -53q0 -31 19.5 -50.5t51.5 -19.5zM227 265v139q-27 -4 -43 -22.5t-16 -46.5q0 -29 16 -47.5t43 -22.5zM252 265v164q0 3 -4 3q-48 0 -77 -25t-29 -72q0 -44 27 -71t71 -27t71 28t27 74q0 49 -30 76q-2 2 -3 2q-2 0 -4 -2
l-12 -13q-3 -4 1 -7q20 -20 20 -56q0 -30 -16 -50t-42 -24zM240 457q44 0 71 27.5t27 70.5t-27 70t-71 27t-71 -27t-27 -70t27 -70.5t71 -27.5zM240 484q-32 0 -52 20t-20 51t20 50.5t52 19.5t51 -19.5t19 -50.5q0 -32 -19.5 -51.5t-50.5 -19.5zM50 -240v937h433v-937h-433z
" />
    <glyph glyph-name="onehalf" unicode="&#xbd;" 
d="M181 -29q-40 -25 -40 -75q0 -43 27.5 -69.5t71.5 -26.5t71 26.5t27 69.5q0 51 -39 75l31 5q4 0 4 4v14q0 5 -5 5h-180q-3 0 -3 -5v-13q0 -2 3 -5zM240 -173q-32 0 -52 20t-20 51q0 32 20 51.5t52 21.5q32 -2 51 -21.5t19 -51.5t-19.5 -51.5t-50.5 -19.5zM141 120
q0 -43 27.5 -69t71.5 -26t71 26t27 69q0 53 -39 76h39q32 0 50.5 -19.5t18.5 -53.5q-1 -36 -17 -60q-3 -3 2 -6l16 -9h1q1 -1 2 -1t3 3q20 35 20 73q0 45 -26.5 73t-71.5 28l-187 -1q-3 0 -3 -4v-12q0 -3 3 -6l33 -5q-41 -25 -41 -76zM240 52q32 0 51.5 19t19.5 51
q0 33 -19.5 53.5t-51.5 20.5q-31 0 -51 -21t-20 -53q0 -31 19.5 -50.5t51.5 -19.5zM227 265v139q-27 -4 -43 -22.5t-16 -46.5q0 -29 16 -47.5t43 -22.5zM252 265v164q0 3 -4 3q-48 0 -77 -25t-29 -72q0 -44 27 -71t71 -27t71 28t27 74q0 49 -30 76q-2 2 -3 2q-2 0 -4 -2
l-12 -13q-3 -4 1 -7q20 -20 20 -56q0 -30 -16 -50t-42 -24zM240 457q44 0 71 27.5t27 70.5t-27 70t-71 27t-71 -27t-27 -70t27 -70.5t71 -27.5zM240 484q-32 0 -52 20t-20 51t20 50.5t52 19.5t51 -19.5t19 -50.5q0 -32 -19.5 -51.5t-50.5 -19.5zM50 -240v937h433v-937h-433z
" />
    <glyph glyph-name="threequarters" unicode="&#xbe;" 
d="M181 -29q-40 -25 -40 -75q0 -43 27.5 -69.5t71.5 -26.5t71 26.5t27 69.5q0 51 -39 75l31 5q4 0 4 4v14q0 5 -5 5h-180q-3 0 -3 -5v-13q0 -2 3 -5zM240 -173q-32 0 -52 20t-20 51q0 32 20 51.5t52 21.5q32 -2 51 -21.5t19 -51.5t-19.5 -51.5t-50.5 -19.5zM141 120
q0 -43 27.5 -69t71.5 -26t71 26t27 69q0 53 -39 76h39q32 0 50.5 -19.5t18.5 -53.5q-1 -36 -17 -60q-3 -3 2 -6l16 -9h1q1 -1 2 -1t3 3q20 35 20 73q0 45 -26.5 73t-71.5 28l-187 -1q-3 0 -3 -4v-12q0 -3 3 -6l33 -5q-41 -25 -41 -76zM240 52q32 0 51.5 19t19.5 51
q0 33 -19.5 53.5t-51.5 20.5q-31 0 -51 -21t-20 -53q0 -31 19.5 -50.5t51.5 -19.5zM227 265v139q-27 -4 -43 -22.5t-16 -46.5q0 -29 16 -47.5t43 -22.5zM252 265v164q0 3 -4 3q-48 0 -77 -25t-29 -72q0 -44 27 -71t71 -27t71 28t27 74q0 49 -30 76q-2 2 -3 2q-2 0 -4 -2
l-12 -13q-3 -4 1 -7q20 -20 20 -56q0 -30 -16 -50t-42 -24zM240 457q44 0 71 27.5t27 70.5t-27 70t-71 27t-71 -27t-27 -70t27 -70.5t71 -27.5zM240 484q-32 0 -52 20t-20 51t20 50.5t52 19.5t51 -19.5t19 -50.5q0 -32 -19.5 -51.5t-50.5 -19.5zM50 -240v937h433v-937h-433z
" />
    <glyph glyph-name="questiondown" unicode="&#xbf;" 
d="M181 -29q-40 -25 -40 -75q0 -43 27.5 -69.5t71.5 -26.5t71 26.5t27 69.5q0 51 -39 75l31 5q4 0 4 4v14q0 5 -5 5h-180q-3 0 -3 -5v-13q0 -2 3 -5zM240 -173q-32 0 -52 20t-20 51q0 32 20 51.5t52 21.5q32 -2 51 -21.5t19 -51.5t-19.5 -51.5t-50.5 -19.5zM141 120
q0 -43 27.5 -69t71.5 -26t71 26t27 69q0 53 -39 76h39q32 0 50.5 -19.5t18.5 -53.5q-1 -36 -17 -60q-3 -3 2 -6l16 -9h1q1 -1 2 -1t3 3q20 35 20 73q0 45 -26.5 73t-71.5 28l-187 -1q-3 0 -3 -4v-12q0 -3 3 -6l33 -5q-41 -25 -41 -76zM240 52q32 0 51.5 19t19.5 51
q0 33 -19.5 53.5t-51.5 20.5q-31 0 -51 -21t-20 -53q0 -31 19.5 -50.5t51.5 -19.5zM227 265v139q-27 -4 -43 -22.5t-16 -46.5q0 -29 16 -47.5t43 -22.5zM252 265v164q0 3 -4 3q-48 0 -77 -25t-29 -72q0 -44 27 -71t71 -27t71 28t27 74q0 49 -30 76q-2 2 -3 2q-2 0 -4 -2
l-12 -13q-3 -4 1 -7q20 -20 20 -56q0 -30 -16 -50t-42 -24zM240 457q44 0 71 27.5t27 70.5t-27 70t-71 27t-71 -27t-27 -70t27 -70.5t71 -27.5zM240 484q-32 0 -52 20t-20 51t20 50.5t52 19.5t51 -19.5t19 -50.5q0 -32 -19.5 -51.5t-50.5 -19.5zM50 -240v937h433v-937h-433z
" />
    <glyph glyph-name="Agrave" unicode="&#xc0;" horiz-adv-x="645" 
d="M492 234h-340l-94 -227q-4 -7 -9 -7h-31q-11 0 -6 11l281 673q5 9 12 9h34q9 0 12 -9l281 -673q3 -5 2 -8.5t-7 -2.5h-31q-6 0 -9 6zM322 642l-153 -367h306zM379 719l-181 105q-8 4 -3 12l19 31q3 4 6 4q2 0 6 -2l173 -119q7 -4 2 -12l-10 -17q-4 -4 -7 -4q-1 0 -5 2z
" />
    <glyph glyph-name="Aacute" unicode="&#xc1;" horiz-adv-x="645" 
d="M492 234h-340l-94 -227q-4 -7 -9 -7h-31q-11 0 -6 11l281 673q5 9 12 9h34q9 0 12 -9l281 -673q3 -5 2 -8.5t-7 -2.5h-31q-6 0 -9 6zM322 642l-153 -367h306zM422 868l19 -32q5 -7 -3 -12l-181 -104q-4 -2 -5 -2q-3 0 -7 4l-10 16q-5 8 1 12l174 120q4 2 5 2q3 0 7 -4z
" />
    <glyph glyph-name="Acircumflex" unicode="&#xc2;" horiz-adv-x="645" 
d="M492 234h-340l-94 -227q-4 -7 -9 -7h-31q-11 0 -6 11l281 673q5 9 12 9h34q9 0 12 -9l281 -673q3 -5 2 -8.5t-7 -2.5h-31q-6 0 -9 6zM322 642l-153 -367h306zM322 823l-105 -76q-8 -4 -13 -4h-40q-17 0 -2 10l132 96q7 5 12 5h31q7 0 14 -5l132 -95q13 -11 -2 -11h-40
q-5 0 -13 4z" />
    <glyph glyph-name="Atilde" unicode="&#xc3;" horiz-adv-x="645" 
d="M492 234h-340l-94 -227q-4 -7 -9 -7h-31q-11 0 -6 11l281 673q5 9 12 9h34q9 0 12 -9l281 -673q3 -5 2 -8.5t-7 -2.5h-31q-6 0 -9 6zM322 642l-153 -367h306zM210 759q-2 -5 -6 -5q-3 0 -5 2l-14 10q-6 3 -4 12q14 41 38 62t51 21q21 0 39 -13t28 -28.5t24.5 -28
t30.5 -12.5q36 1 59 62q1 6 6 6q3 0 5 -2l15 -10q6 -6 3 -12q-27 -83 -90 -83q-21 0 -38.5 13t-27.5 28.5t-24.5 28t-30.5 12.5q-38 -1 -59 -63z" />
    <glyph glyph-name="Adieresis" unicode="&#xc4;" horiz-adv-x="645" 
d="M492 234h-340l-94 -227q-4 -7 -9 -7h-31q-11 0 -6 11l281 673q5 9 12 9h34q9 0 12 -9l281 -673q3 -5 2 -8.5t-7 -2.5h-31q-6 0 -9 6zM322 642l-153 -367h306zM197 791q0 20 12 32.5t32 12.5t32 -12.5t12 -32.5q0 -19 -12.5 -31t-31.5 -12t-31.5 12t-12.5 31zM361 791
q0 20 12 32.5t32 12.5q19 0 31 -12.5t12 -32.5q0 -19 -12 -31t-31 -12q-20 0 -32 12t-12 31z" />
    <glyph glyph-name="Aring" unicode="&#xc5;" horiz-adv-x="645" 
d="M492 234h-340l-94 -227q-4 -7 -9 -7h-31q-11 0 -6 11l281 673q5 9 12 9h34q9 0 12 -9l281 -673q3 -5 2 -8.5t-7 -2.5h-31q-6 0 -9 6zM322 642l-153 -367h306zM227 799q0 41 24.5 65.5t65.5 24.5t66.5 -25t25.5 -65q0 -41 -25.5 -66t-66.5 -25t-65.5 25t-24.5 66zM258 799
q0 -26 16.5 -42.5t42.5 -16.5q27 0 43 16.5t16 42.5q1 26 -15.5 42.5t-43.5 16.5q-26 0 -42.5 -16.5t-16.5 -42.5z" />
    <glyph glyph-name="AE" unicode="&#xc6;" horiz-adv-x="789" 
d="M43 0h-29q-14 0 -7 13l374 672q4 9 14 9h337q10 0 10 -9v-24q0 -9 -9 -9h-279v-276h231q9 0 9 -8v-25q0 -9 -9 -9h-231v-292h288q9 0 9 -9v-24q0 -9 -8 -9h-324q-10 0 -10 11v219h-232l-123 -223q-4 -7 -11 -7zM201 272h208v378z" />
    <glyph glyph-name="Ccedilla" unicode="&#xc7;" horiz-adv-x="693" 
d="M651 95q6 -6 -1 -13q-91 -87 -234 -92l-17 -39q96 -5 97 -73q0 -37 -27 -60t-70 -23q-51 0 -94 33q-6 5 -1 10l11 16q1 2 5 2t6 -1q38 -26 73 -26q27 0 44 13.5t17 35.5q-1 38 -79 38h-25q-9 0 -5 9l28 65q-149 8 -241 105.5t-92 250.5q0 164 101.5 260.5t252.5 96.5
q150 0 249 -93q6 -6 0 -13l-19 -17q-3 -3 -6 -3q-2 0 -7 3q-88 79 -217 79q-138 0 -223 -86t-85 -227q0 -140 84.5 -225.5t223.5 -86.5q127 1 218 79q3 3 6 3t6 -3z" />
    <glyph glyph-name="Egrave" unicode="&#xc8;" horiz-adv-x="509" 
d="M138 333v-291h336q9 0 9 -8v-26q0 -8 -9 -8h-371q-10 0 -10 10v674q0 10 10 10h361q9 0 9 -9v-25q0 -8 -8 -8h-327v-277h279q9 0 9 -8v-26q0 -8 -9 -8h-279zM332 719l-181 105q-7 4 -3 12l19 31q3 4 6 4q2 0 6 -2l173 -119q7 -4 2 -12l-10 -17q-4 -4 -7 -4q-1 0 -5 2z
" />
    <glyph glyph-name="Eacute" unicode="&#xc9;" horiz-adv-x="509" 
d="M117 333v-291h336q9 0 9 -8v-26q0 -8 -9 -8h-371q-10 0 -10 10v674q0 10 10 10h361q9 0 9 -9v-25q0 -8 -8 -8h-327v-277h279q9 0 9 -8v-26q0 -8 -9 -8h-279zM375 868l19 -32q5 -7 -3 -12l-181 -104q-4 -2 -5 -2q-3 0 -7 4l-10 16q-5 8 1 12l174 120q4 2 5 2q3 0 7 -4z
" />
    <glyph glyph-name="Ecircumflex" unicode="&#xca;" horiz-adv-x="509" 
d="M138 333v-291h336q9 0 9 -8v-26q0 -8 -9 -8h-371q-10 0 -10 10v674q0 10 10 10h361q9 0 9 -9v-25q0 -8 -8 -8h-327v-277h279q9 0 9 -8v-26q0 -8 -9 -8h-279zM283 819l-106 -76q-8 -4 -13 -4h-40q-15 0 -2 10l132 96q7 5 13 5h31q6 0 13 -5l132 -95q14 -11 -2 -11h-40
q-5 0 -13 4z" />
    <glyph glyph-name="Edieresis" unicode="&#xcb;" horiz-adv-x="509" 
d="M138 333v-291h336q9 0 9 -8v-26q0 -8 -9 -8h-371q-10 0 -10 10v674q0 10 10 10h361q9 0 9 -9v-25q0 -8 -8 -8h-327v-277h279q9 0 9 -8v-26q0 -8 -9 -8h-279zM154 793q0 19 11 31t30 12t31 -12t12 -31t-12 -31t-31 -12t-30 11.5t-11 31.5zM312 793q0 19 12 31t31 12
t31 -12t12 -31t-12 -31t-31 -12t-31 12t-12 31z" />
    <glyph glyph-name="Igrave" unicode="&#xcc;" horiz-adv-x="231" 
d="M138 685v-677q0 -8 -9 -8h-27q-9 0 -9 8v677q0 9 9 9h27q9 0 9 -9zM172 719l-182 105q-8 4 -3 12l19 31q3 4 7 4q2 0 6 -2l173 -119q6 -4 1 -12l-10 -17q-4 -4 -7 -4q-2 0 -4 2z" />
    <glyph glyph-name="Iacute" unicode="&#xcd;" horiz-adv-x="231" 
d="M138 685v-677q0 -8 -9 -8h-27q-9 0 -9 8v677q0 9 9 9h27q9 0 9 -9zM214 868l19 -32q5 -7 -3 -12l-181 -104q-4 -2 -5 -2q-3 0 -7 4l-10 16q-5 8 1 12l174 120q4 2 5 2q3 0 7 -4z" />
    <glyph glyph-name="Icircumflex" unicode="&#xce;" horiz-adv-x="231" 
d="M129 0h-27q-9 0 -9 8v677q0 9 9 9h27q9 0 9 -9v-677q0 -8 -9 -8zM144 854l140 -100q15 -11 -2 -11h-43q-6 0 -13 5l-111 82l-111 -82q-8 -6 -14 -6h-43q-8 0 -8 3.5t7 7.5l138 101q5 5 14 5h3v1h30q5 0 13 -6z" />
    <glyph glyph-name="Idieresis" unicode="&#xcf;" horiz-adv-x="231" 
d="M138 685v-677q0 -8 -9 -8h-27q-9 0 -9 8v677q0 9 9 9h27q9 0 9 -9zM-11 791q0 20 12 32.5t32 12.5t32 -12.5t12 -32.5q0 -19 -12.5 -31t-31.5 -12t-31.5 12t-12.5 31zM153 791q0 20 12 32.5t32 12.5q19 0 31.5 -12.5t12.5 -32.5q0 -19 -12.5 -31t-31.5 -12q-20 0 -32 12
t-12 31z" />
    <glyph glyph-name="Eth" unicode="&#xd0;" horiz-adv-x="666" 
d="M271 0h-178q-10 0 -10 10v312h-52q-8 0 -8 8v26q0 8 8 8h52v320q0 10 10 10h178q161 0 258 -95t97 -252q1 -158 -96.5 -252.5t-258.5 -94.5zM128 42h143q141 0 225.5 83t84.5 222t-84.5 222t-225.5 83l-143 1v-289h171q9 0 9 -7v-28q0 -7 -9 -7h-171v-280z" />
    <glyph glyph-name="Ntilde" unicode="&#xd1;" horiz-adv-x="725" 
d="M596 694h28q8 0 8 -9v-675q0 -10 -10 -10h-37q-7 0 -12 6l-435 620v-617q0 -9 -9 -9h-27q-9 0 -9 9v675q0 10 10 10h36q7 0 12 -7l436 -622v620q0 9 9 9zM239 757q-1 -6 -6 -6q-1 0 -5 2l-15 12q-6 4 -3 11q14 42 38 64.5t52 22.5q22 0 40.5 -13.5t28.5 -29.5t25 -29.5
t32 -12.5q35 1 60 64q2 6 6 6q1 0 5 -2l15 -12q6 -4 4 -10q-29 -87 -91 -87q-22 0 -40 13.5t-28.5 29.5t-25.5 29t-32 13q-37 -1 -60 -65z" />
    <glyph glyph-name="Ograve" unicode="&#xd2;" horiz-adv-x="797" 
d="M42 347q0 160 98.5 258t258.5 98t257.5 -98t97.5 -258q0 -161 -97.5 -258.5t-257.5 -97.5q-161 0 -259 98t-98 258zM88 347q0 -140 85.5 -226t225.5 -86q139 0 224.5 86t85.5 226t-85.5 226t-224.5 86q-140 0 -226 -86t-85 -226zM456 719l-182 105q-8 4 -3 12l19 31
q3 4 7 4q2 0 6 -2l172 -119q7 -4 2 -12l-10 -17q-4 -4 -7 -4q-2 0 -4 2z" />
    <glyph glyph-name="Oacute" unicode="&#xd3;" horiz-adv-x="797" 
d="M42 347q0 160 98.5 258t258.5 98t257.5 -98t97.5 -258q0 -161 -97.5 -258.5t-257.5 -97.5q-161 0 -259 98t-98 258zM88 347q0 -140 85.5 -226t225.5 -86q139 0 224.5 86t85.5 226t-85.5 226t-224.5 86q-140 0 -226 -86t-85 -226zM498 868l19 -32q5 -7 -3 -12l-181 -104
q-4 -2 -5 -2q-3 0 -7 4l-10 16q-5 8 1 12l174 120q4 2 5 2q3 0 7 -4z" />
    <glyph glyph-name="Ocircumflex" unicode="&#xd4;" horiz-adv-x="797" 
d="M43 348q0 160 98 257.5t258 97.5t257.5 -97.5t97.5 -257.5q0 -161 -97.5 -259.5t-257.5 -98.5t-258 98.5t-98 259.5zM88 347q0 -140 86 -226t225 -86q140 0 225.5 86t85.5 226q0 141 -85.5 226.5t-225.5 84.5q-140 0 -225.5 -85t-85.5 -226zM399 824l-106 -76
q-8 -4 -13 -4h-40q-17 0 -2 10l132 96q7 5 12 5h32q6 0 13 -5l132 -95q14 -11 -2 -11h-40q-5 0 -13 4z" />
    <glyph glyph-name="Otilde" unicode="&#xd5;" horiz-adv-x="797" 
d="M42 347q0 160 98.5 258t258.5 98t257.5 -98t97.5 -258q0 -161 -97.5 -258.5t-257.5 -97.5q-161 0 -259 98t-98 258zM88 347q0 -140 85.5 -226t225.5 -86q139 0 224.5 86t85.5 226t-85.5 226t-224.5 86q-140 0 -226 -86t-85 -226zM276 757q-3 -6 -7 -6q-1 0 -5 2l-15 12
q-6 4 -3 11q14 42 38.5 64.5t52.5 22.5q22 0 40 -13.5t28.5 -29.5t25 -29.5t31.5 -12.5q35 1 60 64q3 6 7 6q2 0 4 -2l15 -12q6 -4 4 -10q-14 -42 -38 -64.5t-53 -22.5q-22 0 -40 13.5t-28.5 29.5t-25.5 29t-31 13q-40 -1 -60 -65z" />
    <glyph glyph-name="Odieresis" unicode="&#xd6;" horiz-adv-x="797" 
d="M42 347q0 160 98.5 258t258.5 98t257.5 -98t97.5 -258q0 -161 -97.5 -258.5t-257.5 -97.5q-161 0 -259 98t-98 258zM88 347q0 -140 85.5 -226t225.5 -86q139 0 224.5 86t85.5 226t-85.5 226t-224.5 86q-140 0 -226 -86t-85 -226zM273 791q0 20 12 32.5t32 12.5t32 -12.5
t12 -32.5q0 -19 -12.5 -31t-31.5 -12t-31.5 12t-12.5 31zM437 791q0 20 12 32.5t32 12.5q19 0 31 -12.5t12 -32.5q0 -19 -12 -31t-31 -12q-20 0 -32 12t-12 31z" />
    <glyph glyph-name="multiply" unicode="&#xd7;" 
d="M181 -29q-40 -25 -40 -75q0 -43 27.5 -69.5t71.5 -26.5t71 26.5t27 69.5q0 51 -39 75l31 5q4 0 4 4v14q0 5 -5 5h-180q-3 0 -3 -5v-13q0 -2 3 -5zM240 -173q-32 0 -52 20t-20 51q0 32 20 51.5t52 21.5q32 -2 51 -21.5t19 -51.5t-19.5 -51.5t-50.5 -19.5zM141 120
q0 -43 27.5 -69t71.5 -26t71 26t27 69q0 53 -39 76h39q32 0 50.5 -19.5t18.5 -53.5q-1 -36 -17 -60q-3 -3 2 -6l16 -9h1q1 -1 2 -1t3 3q20 35 20 73q0 45 -26.5 73t-71.5 28l-187 -1q-3 0 -3 -4v-12q0 -3 3 -6l33 -5q-41 -25 -41 -76zM240 52q32 0 51.5 19t19.5 51
q0 33 -19.5 53.5t-51.5 20.5q-31 0 -51 -21t-20 -53q0 -31 19.5 -50.5t51.5 -19.5zM227 265v139q-27 -4 -43 -22.5t-16 -46.5q0 -29 16 -47.5t43 -22.5zM252 265v164q0 3 -4 3q-48 0 -77 -25t-29 -72q0 -44 27 -71t71 -27t71 28t27 74q0 49 -30 76q-2 2 -3 2q-2 0 -4 -2
l-12 -13q-3 -4 1 -7q20 -20 20 -56q0 -30 -16 -50t-42 -24zM240 457q44 0 71 27.5t27 70.5t-27 70t-71 27t-71 -27t-27 -70t27 -70.5t71 -27.5zM240 484q-32 0 -52 20t-20 51t20 50.5t52 19.5t51 -19.5t19 -50.5q0 -32 -19.5 -51.5t-50.5 -19.5zM50 -240v937h433v-937h-433z
" />
    <glyph glyph-name="Oslash" unicode="&#xd8;" horiz-adv-x="785" 
d="M403 703q131 0 224 -69l51 57q4 4 7 4t5 -2l19 -16q5 -5 -2 -14l-49 -55q100 -98 100 -261q0 -161 -97.5 -258.5t-257.5 -97.5q-138 0 -232 74l-69 -77q-3 -3 -6 -3t-6 3l-18 15q-5 5 0 12l69 77q-95 98 -95 255q0 160 98.5 258t258.5 98zM403 35q139 0 224.5 86
t85.5 226q0 141 -86 227l-425 -475q81 -64 201 -64zM172 127l425 473q-81 59 -194 59q-140 0 -226 -86t-85 -226q0 -135 80 -220z" />
    <glyph glyph-name="Ugrave" unicode="&#xd9;" horiz-adv-x="666" 
d="M86 272v412q0 9 9 9h27q9 0 9 -9v-413q0 -111 55 -173.5t148 -62.5q91 0 145.5 62t54.5 174v414q0 8 9 8h28q9 0 9 -8v-414q0 -131 -67 -205.5t-179 -74.5q-113 -1 -180.5 74t-67.5 207zM390 719l-182 105q-8 4 -3 12l19 31q3 4 7 4q2 0 6 -2l173 -119q6 -4 1 -12
l-10 -17q-4 -4 -7 -4q-2 0 -4 2z" />
    <glyph glyph-name="Uacute" unicode="&#xda;" horiz-adv-x="666" 
d="M86 272v412q0 9 9 9h27q9 0 9 -9v-413q0 -111 55 -173.5t148 -62.5q91 0 145.5 62t54.5 174v414q0 8 9 8h28q9 0 9 -8v-414q0 -131 -67 -205.5t-179 -74.5q-113 -1 -180.5 74t-67.5 207zM432 868l19 -32q5 -7 -3 -12l-181 -104q-4 -2 -5 -2q-3 0 -7 4l-10 16q-5 8 1 12
l174 120q4 2 5 2q3 0 7 -4z" />
    <glyph glyph-name="Ucircumflex" unicode="&#xdb;" horiz-adv-x="666" 
d="M86 272v412q0 10 8 10h28q10 -2 10 -10v-413q-1 -111 54 -173t147 -62q91 0 145.5 62t54.5 173v414q0 9 9 9h28q9 0 9 -9v-414q0 -131 -67 -205.5t-180 -74.5q-112 -1 -179 74t-67 207zM333 827l-105 -76q-8 -4 -14 -4h-40q-15 0 -2 10l132 96q7 5 13 5h31q8 0 13 -5
l133 -95q13 -11 -2 -11h-40q-6 0 -14 4z" />
    <glyph glyph-name="Udieresis" unicode="&#xdc;" horiz-adv-x="666" 
d="M86 272v412q0 9 9 9h27q9 0 9 -9v-413q0 -111 55 -173.5t148 -62.5q91 0 145.5 62t54.5 174v414q0 8 9 8h28q9 0 9 -8v-414q0 -131 -67 -205.5t-179 -74.5q-113 -1 -180.5 74t-67.5 207zM207 791q0 20 12 32.5t32 12.5t32 -12.5t12 -32.5q0 -19 -12.5 -31t-31.5 -12
t-31.5 12t-12.5 31zM371 791q0 20 12 32.5t32 12.5q19 0 31.5 -12.5t12.5 -32.5q0 -19 -12.5 -31t-31.5 -12q-20 0 -32 12t-12 31z" />
    <glyph glyph-name="Yacute" unicode="&#xdd;" horiz-adv-x="545" 
d="M248 8v271l-234 404q-6 10 7 10h33q9 0 13 -8l204 -362l208 362q5 8 13 8h34q10 0 4 -11l-237 -402v-272q0 -8 -9 -8h-27q-9 0 -9 8zM371 868l19 -32q5 -7 -3 -12l-181 -104q-4 -2 -5 -2q-3 0 -7 4l-10 16q-5 8 1 12l174 120q4 2 5 2q3 0 7 -4z" />
    <glyph glyph-name="Thorn" unicode="&#xde;" horiz-adv-x="551" 
d="M76 9v675q0 10 9 10h28q9 0 9 -9v-148h161q106 0 164 -48.5t59 -141.5q-1 -93 -59.5 -141.5t-163.5 -48.5h-161l-1 -148q0 -9 -9 -9h-27q-9 0 -9 9zM122 495v-296h163q86 -1 131 37.5t45 109.5q0 72 -45 110.5t-131 38.5h-163z" />
    <glyph glyph-name="germandbls" unicode="&#xdf;" horiz-adv-x="577" 
d="M276 42q42 -24 83 -24q54 0 90 32t36 80q0 37 -21 68t-50.5 52.5t-59 40.5t-50.5 43t-21 50q0 20 13 38.5t31.5 33.5t37 29.5t31.5 33.5t13 39q0 49 -35.5 75.5t-90.5 26.5q-47 0 -78.5 -21t-47 -59t-21 -76.5t-5.5 -88.5v-406q0 -9 -9 -9h-27q-9 0 -9 9v467
q0 99 50.5 164t146.5 65q70 0 120.5 -39.5t50.5 -107.5q0 -34 -19.5 -62t-43 -43t-43 -33.5t-20.5 -37.5q0 -17 21 -34.5t50.5 -36.5t59 -42t50.5 -58.5t21 -78.5q0 -69 -49.5 -114t-120.5 -45q-52 0 -101 26q-9 3 -6 13l11 27q3 5 6 5q2 0 6 -2z" />
    <glyph glyph-name="agrave" unicode="&#xe0;" horiz-adv-x="577" 
d="M461 338l6 97q1 9 9 9h18q8 0 8 -9v-427q0 -8 -9 -8h-17q-9 0 -9 8l-6 97q-26 -54 -77 -84.5t-119 -30.5q-102 0 -164.5 64t-62.5 168t62.5 167.5t164.5 63.5q68 0 119 -30.5t77 -84.5zM79 222q0 -86 52 -138.5t137 -52.5q86 0 139 52.5t54 138.5q-1 86 -54 138t-139 52
q-85 0 -137 -52.5t-52 -137.5zM318 534l-152 110q-7 6 -1 12l22 29q3 3 7 3q3 0 6 -3l143 -125q4 -4 0 -11l-14 -14q-1 -3 -5 -3q-2 0 -6 2z" />
    <glyph glyph-name="aacute" unicode="&#xe1;" horiz-adv-x="577" 
d="M461 338l6 97q1 9 9 9h18q8 0 8 -9v-427q0 -8 -9 -8h-17q-9 0 -9 8l-6 97q-26 -54 -77 -84.5t-119 -30.5q-102 0 -164.5 64t-62.5 168t62.5 167.5t164.5 63.5q68 0 119 -30.5t77 -84.5zM79 222q0 -86 52 -138.5t137 -52.5q86 0 139 52.5t54 138.5q-1 86 -54 138t-139 52
q-85 0 -137 -52.5t-52 -137.5zM380 675l25 -30q6 -7 -2 -12l-157 -114q-3 -3 -7 -3q-3 0 -6 3l-12 16q-5 7 0 12l148 128q3 3 6 3t5 -3z" />
    <glyph glyph-name="acircumflex" unicode="&#xe2;" horiz-adv-x="577" 
d="M461 338l6 97q1 9 9 9h18q8 0 8 -9v-427q0 -8 -9 -8h-17q-9 0 -9 8l-6 97q-26 -54 -77 -84.5t-119 -30.5q-102 0 -164.5 64t-62.5 168t62.5 167.5t164.5 63.5q68 0 119 -30.5t77 -84.5zM79 222q0 -86 52 -138.5t137 -52.5q86 0 139 52.5t54 138.5q-1 86 -54 138t-139 52
q-85 0 -137 -52.5t-52 -137.5zM134 530l107 133q5 7 13 7h32q7 0 14 -7l105 -132q7 -8 -4 -8h-33q-5 0 -9 4l-89 112l-89 -111q-3 -5 -11 -5h-32q-8 0 -4 7z" />
    <glyph glyph-name="atilde" unicode="&#xe3;" horiz-adv-x="602" 
d="M486 338l6 97q2 9 9 9h18q8 0 8 -9v-427q0 -8 -9 -8h-17q-9 0 -9 8l-6 97q-26 -54 -77 -84.5t-119 -30.5q-102 0 -164.5 64t-62.5 168t62.5 167.5t164.5 63.5q68 0 119 -30.5t77 -84.5zM104 222q0 -86 52 -138.5t137 -52.5q86 0 139 52.5t54 138.5q-1 86 -54 138t-139 52
q-85 0 -137 -52.5t-52 -137.5zM170 559q-3 -6 -6 -6t-5 2l-17 12q-4 4 -2 10q15 42 39 64.5t53 22.5q22 0 40 -13.5t28 -29.5t24.5 -29t31.5 -13q36 1 61 65q1 6 6 6q2 0 4 -2l17 -13q5 -3 2 -9q-12 -42 -36.5 -64.5t-54.5 -22.5q-27 0 -48 21t-39 42t-38 21q-37 -1 -60 -64
z" />
    <glyph glyph-name="adieresis" unicode="&#xe4;" horiz-adv-x="577" 
d="M461 338l6 97q1 9 9 9h18q8 0 8 -9v-427q0 -8 -9 -8h-17q-9 0 -9 8l-6 97q-26 -54 -77 -84.5t-119 -30.5q-102 0 -164.5 64t-62.5 168t62.5 167.5t164.5 63.5q68 0 119 -30.5t77 -84.5zM79 222q0 -86 52 -138.5t137 -52.5q86 0 139 52.5t54 138.5q-1 86 -54 138t-139 52
q-85 0 -137 -52.5t-52 -137.5zM153 617q0 20 12 32.5t32 12.5t32 -12.5t12 -32.5q0 -19 -12 -31t-32 -12t-32 11.5t-12 31.5zM317 617q0 20 12 32.5t31 12.5q20 0 32.5 -12.5t12.5 -32.5q0 -19 -12.5 -31t-32.5 -12q-19 0 -31 12t-12 31z" />
    <glyph glyph-name="aring" unicode="&#xe5;" horiz-adv-x="577" 
d="M461 338l6 97q1 9 9 9h18q8 0 8 -9v-427q0 -8 -9 -8h-17q-9 0 -9 8l-6 97q-26 -54 -77 -84.5t-119 -30.5q-102 0 -164.5 64t-62.5 168t62.5 167.5t164.5 63.5q68 0 119 -30.5t77 -84.5zM79 222q0 -86 52 -138.5t137 -52.5q86 0 139 52.5t54 138.5q-1 86 -54 138t-139 52
q-85 0 -137 -52.5t-52 -137.5zM173 607q0 41 24.5 65.5t65.5 24.5t66 -24.5t25 -65.5t-25 -66t-66 -25t-65.5 25t-24.5 66zM205 607q0 -26 16 -42.5t43 -16.5q26 0 42 16.5t16 42.5t-16 42.5t-42 16.5q-27 0 -43 -16.5t-16 -42.5z" />
    <glyph glyph-name="ae" unicode="&#xe6;" horiz-adv-x="942" 
d="M832 89q4 4 8 4q3 0 5 -2l19 -18q6 -5 -1 -12q-63 -71 -179 -71q-134 0 -192 101v-82q0 -9 -8 -9h-19q-8 0 -8 8l-6 92q-52 -110 -186 -110q-102 0 -164.5 64t-62.5 168t62.5 167.5t164.5 63.5q134 0 186 -110l6 92q1 9 9 9h18q8 0 8 -9v-79q54 97 181 97q105 0 168 -66
t62 -176q0 -8 -10 -8h-398q6 -79 55.5 -125.5t133.5 -46.5q95 0 148 58zM268 31q83 0 132 51.5t51 140.5q-1 85 -51 137t-132 52q-85 0 -137 -52.5t-52 -137.5q0 -86 52 -138.5t137 -52.5zM862 241q-6 77 -57.5 124t-131.5 47q-79 0 -125.5 -46t-52.5 -125h367z" />
    <glyph glyph-name="ccedilla" unicode="&#xe7;" horiz-adv-x="498" 
d="M460 98q5 -5 0 -13q-63 -95 -192 -95l-17 -39q96 -5 97 -73q0 -37 -27 -60t-70 -23q-51 0 -94 33q-5 5 -1 10l11 16q2 2 6 2q3 0 5 -1q38 -26 73 -26q28 0 44.5 13.5t16.5 35.5q-1 38 -79 38h-24q-10 0 -6 9l29 67q-88 11 -141 73.5t-53 156.5q0 110 68.5 171t162.5 61
q57 0 108.5 -24.5t82.5 -71.5q5 -8 -1 -13l-18 -16q-2 -2 -6 -2q-5 0 -7 5q-55 81 -160 81q-85 0 -137 -52.5t-52 -138.5t52 -138.5t137 -52.5q54 0 95.5 22.5t64.5 58.5q2 5 7 5q3 0 5 -2z" />
    <glyph glyph-name="egrave" unicode="&#xe8;" horiz-adv-x="537" 
d="M80 241h377q-6 78 -57 124.5t-132 46.5q-80 0 -131 -46.5t-57 -124.5zM80 203q6 -78 60.5 -125t138.5 -47q95 0 148 58q4 4 9 4q3 0 5 -2l19 -18q6 -5 -1 -12q-65 -71 -180 -71q-108 0 -174.5 64t-66.5 168q0 103 63.5 167t166.5 64q106 0 168.5 -65t62.5 -175
q0 -10 -10 -10h-409zM311 533l-152 110q-9 5 -2 12l23 29q3 3 6 3q4 0 6 -3l144 -125q4 -4 0 -11l-14 -14q-2 -3 -5 -3q-2 0 -6 2z" />
    <glyph glyph-name="eacute" unicode="&#xe9;" horiz-adv-x="537" 
d="M80 241h377q-6 78 -57 124.5t-132 46.5q-80 0 -131 -46.5t-57 -124.5zM489 203h-409q6 -78 60.5 -125t138.5 -47q95 0 148 58q4 4 9 4q3 0 5 -2l19 -18q6 -5 -1 -12q-65 -71 -180 -71q-108 0 -174.5 64t-66.5 168q0 103 63.5 167t166.5 64q106 0 168.5 -65t62.5 -175
q0 -10 -10 -10zM355 677l24 -29q6 -8 -2 -11l-153 -112q-4 -2 -6 -2t-6 2l-12 16q-4 6 0 12l144 124q3 3 6 3q4 0 5 -3z" />
    <glyph glyph-name="ecircumflex" unicode="&#xea;" horiz-adv-x="536" 
d="M80 241h377q-6 78 -57 124.5t-132 46.5q-80 0 -131 -46.5t-57 -124.5zM80 203q6 -78 60.5 -125t138.5 -47q95 0 148 58q4 4 9 4q3 0 5 -2l19 -18q6 -5 -1 -12q-65 -71 -180 -71q-108 0 -174.5 64t-66.5 168q0 103 63.5 167t166.5 64q106 0 168.5 -65t62.5 -175
q0 -10 -10 -10h-409zM132 530l107 133q5 7 13 7h32q7 0 14 -7l105 -132q8 -8 -4 -8h-33q-5 0 -9 4l-89 113l-89 -112q-3 -5 -11 -5h-32q-9 0 -4 7z" />
    <glyph glyph-name="edieresis" unicode="&#xeb;" horiz-adv-x="537" 
d="M80 241h377q-6 78 -57 124.5t-132 46.5q-80 0 -131 -46.5t-57 -124.5zM80 203q6 -78 60.5 -125t138.5 -47q95 0 148 58q4 4 9 4q3 0 5 -2l19 -18q6 -5 -1 -12q-65 -71 -180 -71q-108 0 -174.5 64t-66.5 168q0 103 63.5 167t166.5 64q106 0 168.5 -65t62.5 -175
q0 -10 -10 -10h-409zM143 614q0 20 12 32.5t31 12.5t31.5 -12.5t12.5 -32.5t-12 -32t-32 -12t-31.5 12t-11.5 32zM306 614q0 20 12 32.5t32 12.5q19 0 31.5 -12.5t12.5 -32.5t-12 -32t-32 -12t-32 12t-12 32z" />
    <glyph glyph-name="igrave" unicode="&#xec;" horiz-adv-x="207" 
d="M124 435v-426q0 -9 -8 -9h-24q-8 0 -8 9l-1 426q0 9 9 9h24q8 -2 8 -9zM150 528l-152 110q-8 5 -2 11l23 30q2 2 6 2t6 -2l143 -126q4 -4 0 -10l-14 -15q-2 -2 -4 -2t-6 2z" />
    <glyph glyph-name="iacute" unicode="&#xed;" horiz-adv-x="207" 
d="M124 435v-426q0 -9 -8 -9h-24q-8 0 -8 9l-1 426q0 9 9 9h24q8 -2 8 -9zM195 672l22 -28q5 -7 -1 -13l-154 -110q-3 -3 -6 -3t-6 3l-11 15q-5 6 0 11l144 125q3 3 6 3q5 0 6 -3z" />
    <glyph glyph-name="icircumflex" unicode="&#xee;" horiz-adv-x="207" 
d="M124 435v-426q0 -9 -8 -9h-24q-8 0 -8 9l-1 426q0 9 9 9h24q8 -2 8 -9zM-40 521l112 140q5 7 14 7h34q7 0 14 -7l111 -139q7 -9 -4 -9h-35q-5 0 -10 5l-93 118l-94 -117q-3 -6 -11 -6h-34q-10 0 -4 8z" />
    <glyph glyph-name="idieresis" unicode="&#xef;" horiz-adv-x="207" 
d="M124 435v-426q0 -9 -8 -9h-24q-8 0 -8 9l-1 426q0 9 9 9h24q8 -2 8 -9zM-24 611q0 20 12 32.5t32 12.5q19 0 31.5 -13t12.5 -32q0 -20 -12.5 -32t-31.5 -12q-20 0 -32 12t-12 32zM140 611q0 20 12 32.5t31 12.5q20 0 32.5 -12.5t12.5 -32.5t-12.5 -32t-32.5 -12
q-19 0 -31 12t-12 32z" />
    <glyph glyph-name="eth" unicode="&#xf0;" horiz-adv-x="539" 
d="M269 -10q-95 0 -153.5 58.5t-58.5 153.5q0 96 58 153t154 57q89 0 144 -58q-37 112 -124 199l-129 -65q-2 -1 -5 -1t-5 2l-17 17q-6 6 3 11l124 63q-56 49 -125 80q-9 4 -5 12l12 24q2 5 7 5q2 0 6 -2q84 -37 148 -96l104 53q2 1 5 1q4 0 7 -3l16 -16q7 -7 -3 -11
l-102 -52q74 -78 114 -177t38 -203q-2 -92 -60.5 -148.5t-152.5 -56.5zM439 204q-1 76 -46.5 121.5t-123.5 45.5q-76 0 -122 -46.5t-46 -123.5q0 -76 46.5 -122.5t121.5 -46.5q76 0 123 47.5t47 124.5z" />
    <glyph glyph-name="ntilde" unicode="&#xf1;" horiz-adv-x="545" 
d="M80 8v427q0 8 8 8h18q7 0 9 -8l6 -101q20 55 62.5 87t105.5 32q83 0 130 -49t47 -149v-246q0 -9 -8 -9h-25q-8 0 -8 9v247q0 78 -36.5 117t-103.5 39q-69 0 -114 -53t-50 -133l1 -218q0 -8 -8 -8h-25q-9 0 -9 8zM152 564q-1 -5 -5 -5q-3 0 -5 2l-15 11q-5 4 -3 9
q14 42 37.5 64t51.5 21q27 0 47 -21t37 -41.5t38 -19.5q36 0 59 63q2 6 5 6q1 0 5 -2l16 -13q5 -2 3 -8q-13 -42 -37 -64t-52 -22q-21 0 -39 13t-28.5 29t-25 28.5t-30.5 12.5q-34 -1 -59 -63z" />
    <glyph glyph-name="ograve" unicode="&#xf2;" horiz-adv-x="537" 
d="M38 222q0 103 63.5 167t166.5 64q104 0 167.5 -63.5t63.5 -167.5t-64 -168t-167 -64t-166.5 64t-63.5 168zM79 222q0 -86 52 -138.5t137 -52.5t137.5 52.5t52.5 138.5t-52 138t-138 52q-85 0 -137 -52.5t-52 -137.5zM296 533l-152 110q-9 5 -2 12l23 29q3 3 6 3q5 0 6 -3
l144 -125q4 -4 0 -11l-14 -14q-1 -3 -5 -3q-2 0 -6 2z" />
    <glyph glyph-name="oacute" unicode="&#xf3;" horiz-adv-x="537" 
d="M38 222q0 103 63.5 167t166.5 64q104 0 167.5 -63.5t63.5 -167.5t-64 -168t-167 -64t-166.5 64t-63.5 168zM79 222q0 -86 52 -138.5t137 -52.5t137.5 52.5t52.5 138.5t-52 138t-138 52q-85 0 -137 -52.5t-52 -137.5zM355 676l24 -29q6 -8 -2 -11l-153 -112q-4 -2 -6 -2
t-6 2l-12 16q-4 6 0 12l144 124q3 3 6 3q4 0 5 -3z" />
    <glyph glyph-name="ocircumflex" unicode="&#xf4;" horiz-adv-x="537" 
d="M38 222q0 103 63.5 167t166.5 64q104 0 167.5 -63.5t63.5 -167.5t-64 -168t-167 -64t-166.5 64t-63.5 168zM79 222q0 -86 52 -138.5t137 -52.5t137.5 52.5t52.5 138.5t-52 138t-138 52q-85 0 -137 -52.5t-52 -137.5zM133 530l106 133q4 6 13 6h33q7 0 13 -6l105 -132
q7 -9 -3 -9h-34q-4 0 -9 5l-89 112l-89 -111q-3 -6 -10 -6h-33q-9 0 -3 8z" />
    <glyph glyph-name="otilde" unicode="&#xf5;" horiz-adv-x="537" 
d="M38 222q0 103 63.5 167t166.5 64q104 0 167.5 -63.5t63.5 -167.5t-64 -168t-167 -64t-166.5 64t-63.5 168zM79 222q0 -86 52 -138.5t137 -52.5t137.5 52.5t52.5 138.5t-52 138t-138 52q-85 0 -137 -52.5t-52 -137.5zM144 553q-3 -6 -6 -6t-5 2l-17 12q-4 4 -2 10
q15 42 39 64.5t53 22.5q22 0 40 -13.5t28 -29.5t24.5 -29t31.5 -12q39 1 61 64q1 6 6 6q2 0 4 -2l18 -13q4 -3 1 -9q-12 -42 -36.5 -64.5t-54.5 -22.5q-27 0 -48 21t-39 42t-38 21q-37 -1 -60 -64z" />
    <glyph glyph-name="odieresis" unicode="&#xf6;" horiz-adv-x="537" 
d="M38 222q0 103 63.5 167t166.5 64q104 0 167.5 -63.5t63.5 -167.5t-64 -168t-167 -64t-166.5 64t-63.5 168zM79 222q0 -86 52 -138.5t137 -52.5t137.5 52.5t52.5 138.5t-52 138t-138 52q-85 0 -137 -52.5t-52 -137.5zM143 621q0 20 12 32.5t31 12.5q20 0 32 -12.5
t12 -32.5q0 -19 -12 -31t-32 -12t-31.5 12t-11.5 31zM306 621q0 20 12 32.5t32 12.5t32 -12.5t12 -32.5q0 -19 -12.5 -31t-31.5 -12q-20 0 -32 12t-12 31z" />
    <glyph glyph-name="divide" unicode="&#xf7;" 
d="M181 -29q-40 -25 -40 -75q0 -43 27.5 -69.5t71.5 -26.5t71 26.5t27 69.5q0 51 -39 75l31 5q4 0 4 4v14q0 5 -5 5h-180q-3 0 -3 -5v-13q0 -2 3 -5zM240 -173q-32 0 -52 20t-20 51q0 32 20 51.5t52 21.5q32 -2 51 -21.5t19 -51.5t-19.5 -51.5t-50.5 -19.5zM141 120
q0 -43 27.5 -69t71.5 -26t71 26t27 69q0 53 -39 76h39q32 0 50.5 -19.5t18.5 -53.5q-1 -36 -17 -60q-3 -3 2 -6l16 -9h1q1 -1 2 -1t3 3q20 35 20 73q0 45 -26.5 73t-71.5 28l-187 -1q-3 0 -3 -4v-12q0 -3 3 -6l33 -5q-41 -25 -41 -76zM240 52q32 0 51.5 19t19.5 51
q0 33 -19.5 53.5t-51.5 20.5q-31 0 -51 -21t-20 -53q0 -31 19.5 -50.5t51.5 -19.5zM227 265v139q-27 -4 -43 -22.5t-16 -46.5q0 -29 16 -47.5t43 -22.5zM252 265v164q0 3 -4 3q-48 0 -77 -25t-29 -72q0 -44 27 -71t71 -27t71 28t27 74q0 49 -30 76q-2 2 -3 2q-2 0 -4 -2
l-12 -13q-3 -4 1 -7q20 -20 20 -56q0 -30 -16 -50t-42 -24zM240 457q44 0 71 27.5t27 70.5t-27 70t-71 27t-71 -27t-27 -70t27 -70.5t71 -27.5zM240 484q-32 0 -52 20t-20 51t20 50.5t52 19.5t51 -19.5t19 -50.5q0 -32 -19.5 -51.5t-50.5 -19.5zM50 -240v937h433v-937h-433z
" />
    <glyph glyph-name="oslash" unicode="&#xf8;" horiz-adv-x="537" 
d="M408 412l45 49q3 4 7 4q1 0 5 -2l18 -16q6 -6 0 -13l-44 -49q60 -63 60 -163q0 -104 -64 -168t-167 -64q-85 0 -144 45l-45 -49q-3 -4 -7 -4t-6 2l-17 16q-6 5 0 13l45 50q-56 62 -56 159q0 103 63.5 167t166.5 64q82 0 140 -41zM153 67q48 -35 115 -35q85 0 137 52
t52 138q0 81 -47 131zM123 95l256 285q-47 31 -111 31q-85 0 -136.5 -52t-51.5 -137q0 -78 43 -127z" />
    <glyph glyph-name="ugrave" unicode="&#xf9;" horiz-adv-x="545" 
d="M431 8l-6 101q-44 -119 -168 -119q-83 0 -130.5 49t-47.5 149v246q0 9 8 9h25q8 0 8 -9v-247q0 -78 36.5 -117t103.5 -39q69 0 114.5 53t49.5 133v218q0 8 8 8h25q8 0 8 -8v-427q0 -8 -8 -8h-17q-9 0 -9 8zM315 523l-152 110q-8 5 -2 11l22 30q2 2 7 2q4 0 6 -2l143 -126
q4 -4 0 -10l-14 -15q-2 -2 -5 -2t-5 2z" />
    <glyph glyph-name="uacute" unicode="&#xfa;" horiz-adv-x="545" 
d="M431 8l-6 101q-44 -119 -168 -119q-83 0 -130.5 49t-47.5 149v246q0 9 8 9h25q8 0 8 -9v-247q0 -78 36.5 -117t103.5 -39q69 0 114.5 53t49.5 133v218q0 8 8 8h25q8 0 8 -8v-427q0 -8 -8 -8h-17q-9 0 -9 8zM354 670l24 -29q4 -8 -2 -12l-153 -111q-3 -3 -7 -3q-3 0 -6 3
l-11 15q-6 7 0 13l143 124q3 3 6 3q4 0 6 -3z" />
    <glyph glyph-name="ucircumflex" unicode="&#xfb;" horiz-adv-x="545" 
d="M431 8l-6 101q-44 -119 -168 -119q-83 0 -130.5 49t-47.5 149v246q0 9 8 9h25q8 0 8 -9v-247q0 -78 36.5 -117t103.5 -39q69 0 114.5 53t49.5 133v218q0 8 8 8h25q8 0 8 -8v-427q0 -8 -8 -8h-17q-9 0 -9 8zM132 527l110 136q5 7 13 7h33q7 0 14 -7l108 -135q8 -9 -4 -9
h-34q-4 0 -9 5l-91 115l-92 -114q-3 -6 -10 -6h-34q-9 0 -4 8z" />
    <glyph glyph-name="udieresis" unicode="&#xfc;" horiz-adv-x="545" 
d="M431 8l-6 101q-44 -119 -168 -119q-83 0 -130.5 49t-47.5 149v246q0 9 8 9h25q8 0 8 -9v-247q0 -78 36.5 -117t103.5 -39q69 0 114.5 53t49.5 133v218q0 8 8 8h25q8 0 8 -8v-427q0 -8 -8 -8h-17q-9 0 -9 8zM146 611q0 20 12.5 32.5t31.5 12.5t31.5 -12.5t12.5 -32.5
t-12 -32t-32 -12t-32 12t-12 32zM310 611q0 20 12 32.5t32 12.5q19 0 31.5 -12.5t12.5 -32.5q0 -19 -12 -31.5t-32 -12.5t-32 12t-12 32z" />
    <glyph glyph-name="yacute" unicode="&#xfd;" horiz-adv-x="443" 
d="M420 443q12 0 6 -13l-271 -649q-4 -9 -12 -9h-25q-12 0 -5 13l90 220l-186 425q-7 13 6 13h29q7 0 11 -9l160 -379l157 379q4 9 11 9h29zM323 657l24 -30q5 -7 -2 -11l-153 -111q-3 -3 -6 -3t-6 3l-11 15q-6 6 0 12l143 125q2 2 6 2t5 -2z" />
    <glyph glyph-name="thorn" unicode="&#xfe;" horiz-adv-x="578" 
d="M83 722h25q9 0 9 -9v-378q25 56 76 87t121 31q102 0 164.5 -63.5t62.5 -167.5t-62.5 -168t-164.5 -64q-70 0 -121 31.5t-76 87.5v-328q0 -9 -9 -9h-25q-8 0 -8 9v932q0 9 8 9zM500 222q0 86 -52 138t-138 52q-85 0 -139 -52t-54 -138t53.5 -138.5t139.5 -52.5
q85 0 137.5 52.5t52.5 138.5z" />
    <glyph glyph-name="ydieresis" unicode="&#xff;" horiz-adv-x="443" 
d="M420 443q12 0 6 -13l-271 -649q-4 -9 -12 -9h-25q-12 0 -5 13l90 220l-186 425q-7 13 6 13h29q7 0 11 -9l160 -379l157 379q4 9 11 9h29zM91 601q0 20 12 32.5t31 12.5q20 0 32 -12.5t12 -32.5q0 -19 -12 -31t-32 -12t-31.5 12t-11.5 31zM254 601q0 20 12 32.5t32 12.5
t32 -12.5t12 -32.5q0 -19 -12.5 -31t-31.5 -12q-20 0 -32 12t-12 31z" />
    <glyph glyph-name="Amacron" unicode="&#x100;" 
d="M181 -29q-40 -25 -40 -75q0 -43 27.5 -69.5t71.5 -26.5t71 26.5t27 69.5q0 51 -39 75l31 5q4 0 4 4v14q0 5 -5 5h-180q-3 0 -3 -5v-13q0 -2 3 -5zM240 -173q-32 0 -52 20t-20 51q0 32 20 51.5t52 21.5q32 -2 51 -21.5t19 -51.5t-19.5 -51.5t-50.5 -19.5zM141 120
q0 -43 27.5 -69t71.5 -26t71 26t27 69q0 53 -39 76h39q32 0 50.5 -19.5t18.5 -53.5q-1 -36 -17 -60q-3 -3 2 -6l16 -9h1q1 -1 2 -1t3 3q20 35 20 73q0 45 -26.5 73t-71.5 28l-187 -1q-3 0 -3 -4v-12q0 -3 3 -6l33 -5q-41 -25 -41 -76zM240 52q32 0 51.5 19t19.5 51
q0 33 -19.5 53.5t-51.5 20.5q-31 0 -51 -21t-20 -53q0 -31 19.5 -50.5t51.5 -19.5zM227 265v139q-27 -4 -43 -22.5t-16 -46.5q0 -29 16 -47.5t43 -22.5zM252 265v164q0 3 -4 3q-48 0 -77 -25t-29 -72q0 -44 27 -71t71 -27t71 28t27 74q0 49 -30 76q-2 2 -3 2q-2 0 -4 -2
l-12 -13q-3 -4 1 -7q20 -20 20 -56q0 -30 -16 -50t-42 -24zM240 457q44 0 71 27.5t27 70.5t-27 70t-71 27t-71 -27t-27 -70t27 -70.5t71 -27.5zM240 484q-32 0 -52 20t-20 51t20 50.5t52 19.5t51 -19.5t19 -50.5q0 -32 -19.5 -51.5t-50.5 -19.5zM50 -240v937h433v-937h-433z
" />
    <glyph glyph-name="amacron" unicode="&#x101;" 
d="M181 -29q-40 -25 -40 -75q0 -43 27.5 -69.5t71.5 -26.5t71 26.5t27 69.5q0 51 -39 75l31 5q4 0 4 4v14q0 5 -5 5h-180q-3 0 -3 -5v-13q0 -2 3 -5zM240 -173q-32 0 -52 20t-20 51q0 32 20 51.5t52 21.5q32 -2 51 -21.5t19 -51.5t-19.5 -51.5t-50.5 -19.5zM141 120
q0 -43 27.5 -69t71.5 -26t71 26t27 69q0 53 -39 76h39q32 0 50.5 -19.5t18.5 -53.5q-1 -36 -17 -60q-3 -3 2 -6l16 -9h1q1 -1 2 -1t3 3q20 35 20 73q0 45 -26.5 73t-71.5 28l-187 -1q-3 0 -3 -4v-12q0 -3 3 -6l33 -5q-41 -25 -41 -76zM240 52q32 0 51.5 19t19.5 51
q0 33 -19.5 53.5t-51.5 20.5q-31 0 -51 -21t-20 -53q0 -31 19.5 -50.5t51.5 -19.5zM227 265v139q-27 -4 -43 -22.5t-16 -46.5q0 -29 16 -47.5t43 -22.5zM252 265v164q0 3 -4 3q-48 0 -77 -25t-29 -72q0 -44 27 -71t71 -27t71 28t27 74q0 49 -30 76q-2 2 -3 2q-2 0 -4 -2
l-12 -13q-3 -4 1 -7q20 -20 20 -56q0 -30 -16 -50t-42 -24zM240 457q44 0 71 27.5t27 70.5t-27 70t-71 27t-71 -27t-27 -70t27 -70.5t71 -27.5zM240 484q-32 0 -52 20t-20 51t20 50.5t52 19.5t51 -19.5t19 -50.5q0 -32 -19.5 -51.5t-50.5 -19.5zM50 -240v937h433v-937h-433z
" />
    <glyph glyph-name="Abreve" unicode="&#x102;" 
d="M181 -29q-40 -25 -40 -75q0 -43 27.5 -69.5t71.5 -26.5t71 26.5t27 69.5q0 51 -39 75l31 5q4 0 4 4v14q0 5 -5 5h-180q-3 0 -3 -5v-13q0 -2 3 -5zM240 -173q-32 0 -52 20t-20 51q0 32 20 51.5t52 21.5q32 -2 51 -21.5t19 -51.5t-19.5 -51.5t-50.5 -19.5zM141 120
q0 -43 27.5 -69t71.5 -26t71 26t27 69q0 53 -39 76h39q32 0 50.5 -19.5t18.5 -53.5q-1 -36 -17 -60q-3 -3 2 -6l16 -9h1q1 -1 2 -1t3 3q20 35 20 73q0 45 -26.5 73t-71.5 28l-187 -1q-3 0 -3 -4v-12q0 -3 3 -6l33 -5q-41 -25 -41 -76zM240 52q32 0 51.5 19t19.5 51
q0 33 -19.5 53.5t-51.5 20.5q-31 0 -51 -21t-20 -53q0 -31 19.5 -50.5t51.5 -19.5zM227 265v139q-27 -4 -43 -22.5t-16 -46.5q0 -29 16 -47.5t43 -22.5zM252 265v164q0 3 -4 3q-48 0 -77 -25t-29 -72q0 -44 27 -71t71 -27t71 28t27 74q0 49 -30 76q-2 2 -3 2q-2 0 -4 -2
l-12 -13q-3 -4 1 -7q20 -20 20 -56q0 -30 -16 -50t-42 -24zM240 457q44 0 71 27.5t27 70.5t-27 70t-71 27t-71 -27t-27 -70t27 -70.5t71 -27.5zM240 484q-32 0 -52 20t-20 51t20 50.5t52 19.5t51 -19.5t19 -50.5q0 -32 -19.5 -51.5t-50.5 -19.5zM50 -240v937h433v-937h-433z
" />
    <glyph glyph-name="abreve" unicode="&#x103;" 
d="M181 -29q-40 -25 -40 -75q0 -43 27.5 -69.5t71.5 -26.5t71 26.5t27 69.5q0 51 -39 75l31 5q4 0 4 4v14q0 5 -5 5h-180q-3 0 -3 -5v-13q0 -2 3 -5zM240 -173q-32 0 -52 20t-20 51q0 32 20 51.5t52 21.5q32 -2 51 -21.5t19 -51.5t-19.5 -51.5t-50.5 -19.5zM141 120
q0 -43 27.5 -69t71.5 -26t71 26t27 69q0 53 -39 76h39q32 0 50.5 -19.5t18.5 -53.5q-1 -36 -17 -60q-3 -3 2 -6l16 -9h1q1 -1 2 -1t3 3q20 35 20 73q0 45 -26.5 73t-71.5 28l-187 -1q-3 0 -3 -4v-12q0 -3 3 -6l33 -5q-41 -25 -41 -76zM240 52q32 0 51.5 19t19.5 51
q0 33 -19.5 53.5t-51.5 20.5q-31 0 -51 -21t-20 -53q0 -31 19.5 -50.5t51.5 -19.5zM227 265v139q-27 -4 -43 -22.5t-16 -46.5q0 -29 16 -47.5t43 -22.5zM252 265v164q0 3 -4 3q-48 0 -77 -25t-29 -72q0 -44 27 -71t71 -27t71 28t27 74q0 49 -30 76q-2 2 -3 2q-2 0 -4 -2
l-12 -13q-3 -4 1 -7q20 -20 20 -56q0 -30 -16 -50t-42 -24zM240 457q44 0 71 27.5t27 70.5t-27 70t-71 27t-71 -27t-27 -70t27 -70.5t71 -27.5zM240 484q-32 0 -52 20t-20 51t20 50.5t52 19.5t51 -19.5t19 -50.5q0 -32 -19.5 -51.5t-50.5 -19.5zM50 -240v937h433v-937h-433z
" />
    <glyph glyph-name="Aogonek" unicode="&#x104;" 
d="M181 -29q-40 -25 -40 -75q0 -43 27.5 -69.5t71.5 -26.5t71 26.5t27 69.5q0 51 -39 75l31 5q4 0 4 4v14q0 5 -5 5h-180q-3 0 -3 -5v-13q0 -2 3 -5zM240 -173q-32 0 -52 20t-20 51q0 32 20 51.5t52 21.5q32 -2 51 -21.5t19 -51.5t-19.5 -51.5t-50.5 -19.5zM141 120
q0 -43 27.5 -69t71.5 -26t71 26t27 69q0 53 -39 76h39q32 0 50.5 -19.5t18.5 -53.5q-1 -36 -17 -60q-3 -3 2 -6l16 -9h1q1 -1 2 -1t3 3q20 35 20 73q0 45 -26.5 73t-71.5 28l-187 -1q-3 0 -3 -4v-12q0 -3 3 -6l33 -5q-41 -25 -41 -76zM240 52q32 0 51.5 19t19.5 51
q0 33 -19.5 53.5t-51.5 20.5q-31 0 -51 -21t-20 -53q0 -31 19.5 -50.5t51.5 -19.5zM227 265v139q-27 -4 -43 -22.5t-16 -46.5q0 -29 16 -47.5t43 -22.5zM252 265v164q0 3 -4 3q-48 0 -77 -25t-29 -72q0 -44 27 -71t71 -27t71 28t27 74q0 49 -30 76q-2 2 -3 2q-2 0 -4 -2
l-12 -13q-3 -4 1 -7q20 -20 20 -56q0 -30 -16 -50t-42 -24zM240 457q44 0 71 27.5t27 70.5t-27 70t-71 27t-71 -27t-27 -70t27 -70.5t71 -27.5zM240 484q-32 0 -52 20t-20 51t20 50.5t52 19.5t51 -19.5t19 -50.5q0 -32 -19.5 -51.5t-50.5 -19.5zM50 -240v937h433v-937h-433z
" />
    <glyph glyph-name="aogonek" unicode="&#x105;" 
d="M181 -29q-40 -25 -40 -75q0 -43 27.5 -69.5t71.5 -26.5t71 26.5t27 69.5q0 51 -39 75l31 5q4 0 4 4v14q0 5 -5 5h-180q-3 0 -3 -5v-13q0 -2 3 -5zM240 -173q-32 0 -52 20t-20 51q0 32 20 51.5t52 21.5q32 -2 51 -21.5t19 -51.5t-19.5 -51.5t-50.5 -19.5zM141 120
q0 -43 27.5 -69t71.5 -26t71 26t27 69q0 53 -39 76h39q32 0 50.5 -19.5t18.5 -53.5q-1 -36 -17 -60q-3 -3 2 -6l16 -9h1q1 -1 2 -1t3 3q20 35 20 73q0 45 -26.5 73t-71.5 28l-187 -1q-3 0 -3 -4v-12q0 -3 3 -6l33 -5q-41 -25 -41 -76zM240 52q32 0 51.5 19t19.5 51
q0 33 -19.5 53.5t-51.5 20.5q-31 0 -51 -21t-20 -53q0 -31 19.5 -50.5t51.5 -19.5zM227 265v139q-27 -4 -43 -22.5t-16 -46.5q0 -29 16 -47.5t43 -22.5zM252 265v164q0 3 -4 3q-48 0 -77 -25t-29 -72q0 -44 27 -71t71 -27t71 28t27 74q0 49 -30 76q-2 2 -3 2q-2 0 -4 -2
l-12 -13q-3 -4 1 -7q20 -20 20 -56q0 -30 -16 -50t-42 -24zM240 457q44 0 71 27.5t27 70.5t-27 70t-71 27t-71 -27t-27 -70t27 -70.5t71 -27.5zM240 484q-32 0 -52 20t-20 51t20 50.5t52 19.5t51 -19.5t19 -50.5q0 -32 -19.5 -51.5t-50.5 -19.5zM50 -240v937h433v-937h-433z
" />
    <glyph glyph-name="Cacute" unicode="&#x106;" 
d="M181 -29q-40 -25 -40 -75q0 -43 27.5 -69.5t71.5 -26.5t71 26.5t27 69.5q0 51 -39 75l31 5q4 0 4 4v14q0 5 -5 5h-180q-3 0 -3 -5v-13q0 -2 3 -5zM240 -173q-32 0 -52 20t-20 51q0 32 20 51.5t52 21.5q32 -2 51 -21.5t19 -51.5t-19.5 -51.5t-50.5 -19.5zM141 120
q0 -43 27.5 -69t71.5 -26t71 26t27 69q0 53 -39 76h39q32 0 50.5 -19.5t18.5 -53.5q-1 -36 -17 -60q-3 -3 2 -6l16 -9h1q1 -1 2 -1t3 3q20 35 20 73q0 45 -26.5 73t-71.5 28l-187 -1q-3 0 -3 -4v-12q0 -3 3 -6l33 -5q-41 -25 -41 -76zM240 52q32 0 51.5 19t19.5 51
q0 33 -19.5 53.5t-51.5 20.5q-31 0 -51 -21t-20 -53q0 -31 19.5 -50.5t51.5 -19.5zM227 265v139q-27 -4 -43 -22.5t-16 -46.5q0 -29 16 -47.5t43 -22.5zM252 265v164q0 3 -4 3q-48 0 -77 -25t-29 -72q0 -44 27 -71t71 -27t71 28t27 74q0 49 -30 76q-2 2 -3 2q-2 0 -4 -2
l-12 -13q-3 -4 1 -7q20 -20 20 -56q0 -30 -16 -50t-42 -24zM240 457q44 0 71 27.5t27 70.5t-27 70t-71 27t-71 -27t-27 -70t27 -70.5t71 -27.5zM240 484q-32 0 -52 20t-20 51t20 50.5t52 19.5t51 -19.5t19 -50.5q0 -32 -19.5 -51.5t-50.5 -19.5zM50 -240v937h433v-937h-433z
" />
    <glyph glyph-name="cacute" unicode="&#x107;" 
d="M181 -29q-40 -25 -40 -75q0 -43 27.5 -69.5t71.5 -26.5t71 26.5t27 69.5q0 51 -39 75l31 5q4 0 4 4v14q0 5 -5 5h-180q-3 0 -3 -5v-13q0 -2 3 -5zM240 -173q-32 0 -52 20t-20 51q0 32 20 51.5t52 21.5q32 -2 51 -21.5t19 -51.5t-19.5 -51.5t-50.5 -19.5zM141 120
q0 -43 27.5 -69t71.5 -26t71 26t27 69q0 53 -39 76h39q32 0 50.5 -19.5t18.5 -53.5q-1 -36 -17 -60q-3 -3 2 -6l16 -9h1q1 -1 2 -1t3 3q20 35 20 73q0 45 -26.5 73t-71.5 28l-187 -1q-3 0 -3 -4v-12q0 -3 3 -6l33 -5q-41 -25 -41 -76zM240 52q32 0 51.5 19t19.5 51
q0 33 -19.5 53.5t-51.5 20.5q-31 0 -51 -21t-20 -53q0 -31 19.5 -50.5t51.5 -19.5zM227 265v139q-27 -4 -43 -22.5t-16 -46.5q0 -29 16 -47.5t43 -22.5zM252 265v164q0 3 -4 3q-48 0 -77 -25t-29 -72q0 -44 27 -71t71 -27t71 28t27 74q0 49 -30 76q-2 2 -3 2q-2 0 -4 -2
l-12 -13q-3 -4 1 -7q20 -20 20 -56q0 -30 -16 -50t-42 -24zM240 457q44 0 71 27.5t27 70.5t-27 70t-71 27t-71 -27t-27 -70t27 -70.5t71 -27.5zM240 484q-32 0 -52 20t-20 51t20 50.5t52 19.5t51 -19.5t19 -50.5q0 -32 -19.5 -51.5t-50.5 -19.5zM50 -240v937h433v-937h-433z
" />
    <glyph glyph-name="Ccircumflex" unicode="&#x108;" 
d="M181 -29q-40 -25 -40 -75q0 -43 27.5 -69.5t71.5 -26.5t71 26.5t27 69.5q0 51 -39 75l31 5q4 0 4 4v14q0 5 -5 5h-180q-3 0 -3 -5v-13q0 -2 3 -5zM240 -173q-32 0 -52 20t-20 51q0 32 20 51.5t52 21.5q32 -2 51 -21.5t19 -51.5t-19.5 -51.5t-50.5 -19.5zM141 120
q0 -43 27.5 -69t71.5 -26t71 26t27 69q0 53 -39 76h39q32 0 50.5 -19.5t18.5 -53.5q-1 -36 -17 -60q-3 -3 2 -6l16 -9h1q1 -1 2 -1t3 3q20 35 20 73q0 45 -26.5 73t-71.5 28l-187 -1q-3 0 -3 -4v-12q0 -3 3 -6l33 -5q-41 -25 -41 -76zM240 52q32 0 51.5 19t19.5 51
q0 33 -19.5 53.5t-51.5 20.5q-31 0 -51 -21t-20 -53q0 -31 19.5 -50.5t51.5 -19.5zM227 265v139q-27 -4 -43 -22.5t-16 -46.5q0 -29 16 -47.5t43 -22.5zM252 265v164q0 3 -4 3q-48 0 -77 -25t-29 -72q0 -44 27 -71t71 -27t71 28t27 74q0 49 -30 76q-2 2 -3 2q-2 0 -4 -2
l-12 -13q-3 -4 1 -7q20 -20 20 -56q0 -30 -16 -50t-42 -24zM240 457q44 0 71 27.5t27 70.5t-27 70t-71 27t-71 -27t-27 -70t27 -70.5t71 -27.5zM240 484q-32 0 -52 20t-20 51t20 50.5t52 19.5t51 -19.5t19 -50.5q0 -32 -19.5 -51.5t-50.5 -19.5zM50 -240v937h433v-937h-433z
" />
    <glyph glyph-name="ccircumflex" unicode="&#x109;" 
d="M181 -29q-40 -25 -40 -75q0 -43 27.5 -69.5t71.5 -26.5t71 26.5t27 69.5q0 51 -39 75l31 5q4 0 4 4v14q0 5 -5 5h-180q-3 0 -3 -5v-13q0 -2 3 -5zM240 -173q-32 0 -52 20t-20 51q0 32 20 51.5t52 21.5q32 -2 51 -21.5t19 -51.5t-19.5 -51.5t-50.5 -19.5zM141 120
q0 -43 27.5 -69t71.5 -26t71 26t27 69q0 53 -39 76h39q32 0 50.5 -19.5t18.5 -53.5q-1 -36 -17 -60q-3 -3 2 -6l16 -9h1q1 -1 2 -1t3 3q20 35 20 73q0 45 -26.5 73t-71.5 28l-187 -1q-3 0 -3 -4v-12q0 -3 3 -6l33 -5q-41 -25 -41 -76zM240 52q32 0 51.5 19t19.5 51
q0 33 -19.5 53.5t-51.5 20.5q-31 0 -51 -21t-20 -53q0 -31 19.5 -50.5t51.5 -19.5zM227 265v139q-27 -4 -43 -22.5t-16 -46.5q0 -29 16 -47.5t43 -22.5zM252 265v164q0 3 -4 3q-48 0 -77 -25t-29 -72q0 -44 27 -71t71 -27t71 28t27 74q0 49 -30 76q-2 2 -3 2q-2 0 -4 -2
l-12 -13q-3 -4 1 -7q20 -20 20 -56q0 -30 -16 -50t-42 -24zM240 457q44 0 71 27.5t27 70.5t-27 70t-71 27t-71 -27t-27 -70t27 -70.5t71 -27.5zM240 484q-32 0 -52 20t-20 51t20 50.5t52 19.5t51 -19.5t19 -50.5q0 -32 -19.5 -51.5t-50.5 -19.5zM50 -240v937h433v-937h-433z
" />
    <glyph glyph-name="Cdotaccent" unicode="&#x10a;" 
d="M181 -29q-40 -25 -40 -75q0 -43 27.5 -69.5t71.5 -26.5t71 26.5t27 69.5q0 51 -39 75l31 5q4 0 4 4v14q0 5 -5 5h-180q-3 0 -3 -5v-13q0 -2 3 -5zM240 -173q-32 0 -52 20t-20 51q0 32 20 51.5t52 21.5q32 -2 51 -21.5t19 -51.5t-19.5 -51.5t-50.5 -19.5zM141 120
q0 -43 27.5 -69t71.5 -26t71 26t27 69q0 53 -39 76h39q32 0 50.5 -19.5t18.5 -53.5q-1 -36 -17 -60q-3 -3 2 -6l16 -9h1q1 -1 2 -1t3 3q20 35 20 73q0 45 -26.5 73t-71.5 28l-187 -1q-3 0 -3 -4v-12q0 -3 3 -6l33 -5q-41 -25 -41 -76zM240 52q32 0 51.5 19t19.5 51
q0 33 -19.5 53.5t-51.5 20.5q-31 0 -51 -21t-20 -53q0 -31 19.5 -50.5t51.5 -19.5zM227 265v139q-27 -4 -43 -22.5t-16 -46.5q0 -29 16 -47.5t43 -22.5zM252 265v164q0 3 -4 3q-48 0 -77 -25t-29 -72q0 -44 27 -71t71 -27t71 28t27 74q0 49 -30 76q-2 2 -3 2q-2 0 -4 -2
l-12 -13q-3 -4 1 -7q20 -20 20 -56q0 -30 -16 -50t-42 -24zM240 457q44 0 71 27.5t27 70.5t-27 70t-71 27t-71 -27t-27 -70t27 -70.5t71 -27.5zM240 484q-32 0 -52 20t-20 51t20 50.5t52 19.5t51 -19.5t19 -50.5q0 -32 -19.5 -51.5t-50.5 -19.5zM50 -240v937h433v-937h-433z
" />
    <glyph glyph-name="cdotaccent" unicode="&#x10b;" 
d="M181 -29q-40 -25 -40 -75q0 -43 27.5 -69.5t71.5 -26.5t71 26.5t27 69.5q0 51 -39 75l31 5q4 0 4 4v14q0 5 -5 5h-180q-3 0 -3 -5v-13q0 -2 3 -5zM240 -173q-32 0 -52 20t-20 51q0 32 20 51.5t52 21.5q32 -2 51 -21.5t19 -51.5t-19.5 -51.5t-50.5 -19.5zM141 120
q0 -43 27.5 -69t71.5 -26t71 26t27 69q0 53 -39 76h39q32 0 50.5 -19.5t18.5 -53.5q-1 -36 -17 -60q-3 -3 2 -6l16 -9h1q1 -1 2 -1t3 3q20 35 20 73q0 45 -26.5 73t-71.5 28l-187 -1q-3 0 -3 -4v-12q0 -3 3 -6l33 -5q-41 -25 -41 -76zM240 52q32 0 51.5 19t19.5 51
q0 33 -19.5 53.5t-51.5 20.5q-31 0 -51 -21t-20 -53q0 -31 19.5 -50.5t51.5 -19.5zM227 265v139q-27 -4 -43 -22.5t-16 -46.5q0 -29 16 -47.5t43 -22.5zM252 265v164q0 3 -4 3q-48 0 -77 -25t-29 -72q0 -44 27 -71t71 -27t71 28t27 74q0 49 -30 76q-2 2 -3 2q-2 0 -4 -2
l-12 -13q-3 -4 1 -7q20 -20 20 -56q0 -30 -16 -50t-42 -24zM240 457q44 0 71 27.5t27 70.5t-27 70t-71 27t-71 -27t-27 -70t27 -70.5t71 -27.5zM240 484q-32 0 -52 20t-20 51t20 50.5t52 19.5t51 -19.5t19 -50.5q0 -32 -19.5 -51.5t-50.5 -19.5zM50 -240v937h433v-937h-433z
" />
    <glyph glyph-name="Ccaron" unicode="&#x10c;" 
d="M181 -29q-40 -25 -40 -75q0 -43 27.5 -69.5t71.5 -26.5t71 26.5t27 69.5q0 51 -39 75l31 5q4 0 4 4v14q0 5 -5 5h-180q-3 0 -3 -5v-13q0 -2 3 -5zM240 -173q-32 0 -52 20t-20 51q0 32 20 51.5t52 21.5q32 -2 51 -21.5t19 -51.5t-19.5 -51.5t-50.5 -19.5zM141 120
q0 -43 27.5 -69t71.5 -26t71 26t27 69q0 53 -39 76h39q32 0 50.5 -19.5t18.5 -53.5q-1 -36 -17 -60q-3 -3 2 -6l16 -9h1q1 -1 2 -1t3 3q20 35 20 73q0 45 -26.5 73t-71.5 28l-187 -1q-3 0 -3 -4v-12q0 -3 3 -6l33 -5q-41 -25 -41 -76zM240 52q32 0 51.5 19t19.5 51
q0 33 -19.5 53.5t-51.5 20.5q-31 0 -51 -21t-20 -53q0 -31 19.5 -50.5t51.5 -19.5zM227 265v139q-27 -4 -43 -22.5t-16 -46.5q0 -29 16 -47.5t43 -22.5zM252 265v164q0 3 -4 3q-48 0 -77 -25t-29 -72q0 -44 27 -71t71 -27t71 28t27 74q0 49 -30 76q-2 2 -3 2q-2 0 -4 -2
l-12 -13q-3 -4 1 -7q20 -20 20 -56q0 -30 -16 -50t-42 -24zM240 457q44 0 71 27.5t27 70.5t-27 70t-71 27t-71 -27t-27 -70t27 -70.5t71 -27.5zM240 484q-32 0 -52 20t-20 51t20 50.5t52 19.5t51 -19.5t19 -50.5q0 -32 -19.5 -51.5t-50.5 -19.5zM50 -240v937h433v-937h-433z
" />
    <glyph glyph-name="ccaron" unicode="&#x10d;" 
d="M181 -29q-40 -25 -40 -75q0 -43 27.5 -69.5t71.5 -26.5t71 26.5t27 69.5q0 51 -39 75l31 5q4 0 4 4v14q0 5 -5 5h-180q-3 0 -3 -5v-13q0 -2 3 -5zM240 -173q-32 0 -52 20t-20 51q0 32 20 51.5t52 21.5q32 -2 51 -21.5t19 -51.5t-19.5 -51.5t-50.5 -19.5zM141 120
q0 -43 27.5 -69t71.5 -26t71 26t27 69q0 53 -39 76h39q32 0 50.5 -19.5t18.5 -53.5q-1 -36 -17 -60q-3 -3 2 -6l16 -9h1q1 -1 2 -1t3 3q20 35 20 73q0 45 -26.5 73t-71.5 28l-187 -1q-3 0 -3 -4v-12q0 -3 3 -6l33 -5q-41 -25 -41 -76zM240 52q32 0 51.5 19t19.5 51
q0 33 -19.5 53.5t-51.5 20.5q-31 0 -51 -21t-20 -53q0 -31 19.5 -50.5t51.5 -19.5zM227 265v139q-27 -4 -43 -22.5t-16 -46.5q0 -29 16 -47.5t43 -22.5zM252 265v164q0 3 -4 3q-48 0 -77 -25t-29 -72q0 -44 27 -71t71 -27t71 28t27 74q0 49 -30 76q-2 2 -3 2q-2 0 -4 -2
l-12 -13q-3 -4 1 -7q20 -20 20 -56q0 -30 -16 -50t-42 -24zM240 457q44 0 71 27.5t27 70.5t-27 70t-71 27t-71 -27t-27 -70t27 -70.5t71 -27.5zM240 484q-32 0 -52 20t-20 51t20 50.5t52 19.5t51 -19.5t19 -50.5q0 -32 -19.5 -51.5t-50.5 -19.5zM50 -240v937h433v-937h-433z
" />
    <glyph glyph-name="Dcaron" unicode="&#x10e;" 
d="M181 -29q-40 -25 -40 -75q0 -43 27.5 -69.5t71.5 -26.5t71 26.5t27 69.5q0 51 -39 75l31 5q4 0 4 4v14q0 5 -5 5h-180q-3 0 -3 -5v-13q0 -2 3 -5zM240 -173q-32 0 -52 20t-20 51q0 32 20 51.5t52 21.5q32 -2 51 -21.5t19 -51.5t-19.5 -51.5t-50.5 -19.5zM141 120
q0 -43 27.5 -69t71.5 -26t71 26t27 69q0 53 -39 76h39q32 0 50.5 -19.5t18.5 -53.5q-1 -36 -17 -60q-3 -3 2 -6l16 -9h1q1 -1 2 -1t3 3q20 35 20 73q0 45 -26.5 73t-71.5 28l-187 -1q-3 0 -3 -4v-12q0 -3 3 -6l33 -5q-41 -25 -41 -76zM240 52q32 0 51.5 19t19.5 51
q0 33 -19.5 53.5t-51.5 20.5q-31 0 -51 -21t-20 -53q0 -31 19.5 -50.5t51.5 -19.5zM227 265v139q-27 -4 -43 -22.5t-16 -46.5q0 -29 16 -47.5t43 -22.5zM252 265v164q0 3 -4 3q-48 0 -77 -25t-29 -72q0 -44 27 -71t71 -27t71 28t27 74q0 49 -30 76q-2 2 -3 2q-2 0 -4 -2
l-12 -13q-3 -4 1 -7q20 -20 20 -56q0 -30 -16 -50t-42 -24zM240 457q44 0 71 27.5t27 70.5t-27 70t-71 27t-71 -27t-27 -70t27 -70.5t71 -27.5zM240 484q-32 0 -52 20t-20 51t20 50.5t52 19.5t51 -19.5t19 -50.5q0 -32 -19.5 -51.5t-50.5 -19.5zM50 -240v937h433v-937h-433z
" />
    <glyph glyph-name="dcaron" unicode="&#x10f;" 
d="M181 -29q-40 -25 -40 -75q0 -43 27.5 -69.5t71.5 -26.5t71 26.5t27 69.5q0 51 -39 75l31 5q4 0 4 4v14q0 5 -5 5h-180q-3 0 -3 -5v-13q0 -2 3 -5zM240 -173q-32 0 -52 20t-20 51q0 32 20 51.5t52 21.5q32 -2 51 -21.5t19 -51.5t-19.5 -51.5t-50.5 -19.5zM141 120
q0 -43 27.5 -69t71.5 -26t71 26t27 69q0 53 -39 76h39q32 0 50.5 -19.5t18.5 -53.5q-1 -36 -17 -60q-3 -3 2 -6l16 -9h1q1 -1 2 -1t3 3q20 35 20 73q0 45 -26.5 73t-71.5 28l-187 -1q-3 0 -3 -4v-12q0 -3 3 -6l33 -5q-41 -25 -41 -76zM240 52q32 0 51.5 19t19.5 51
q0 33 -19.5 53.5t-51.5 20.5q-31 0 -51 -21t-20 -53q0 -31 19.5 -50.5t51.5 -19.5zM227 265v139q-27 -4 -43 -22.5t-16 -46.5q0 -29 16 -47.5t43 -22.5zM252 265v164q0 3 -4 3q-48 0 -77 -25t-29 -72q0 -44 27 -71t71 -27t71 28t27 74q0 49 -30 76q-2 2 -3 2q-2 0 -4 -2
l-12 -13q-3 -4 1 -7q20 -20 20 -56q0 -30 -16 -50t-42 -24zM240 457q44 0 71 27.5t27 70.5t-27 70t-71 27t-71 -27t-27 -70t27 -70.5t71 -27.5zM240 484q-32 0 -52 20t-20 51t20 50.5t52 19.5t51 -19.5t19 -50.5q0 -32 -19.5 -51.5t-50.5 -19.5zM50 -240v937h433v-937h-433z
" />
    <glyph glyph-name="Dcroat" unicode="&#x110;" horiz-adv-x="669" 
d="M271 0h-178q-10 0 -10 10v312h-52q-8 0 -8 8v26q0 8 8 8h52v320q0 10 10 10h178q161 0 258 -95t97 -252q1 -158 -96.5 -252.5t-258.5 -94.5zM128 42h143q141 0 225.5 83t84.5 222t-84.5 222t-225.5 83l-143 1v-289h171q9 0 9 -7v-28q0 -7 -9 -7h-171v-280z" />
    <glyph glyph-name="dcroat" unicode="&#x111;" horiz-adv-x="585" 
d="M335 596h126v117q0 9 8 9h25q8 0 8 -9v-117h60q9 0 9 -8v-26q0 -8 -9 -8h-60v-546q0 -8 -8 -8h-17q-7 0 -9 8l-7 97q-26 -54 -77 -84.5t-119 -30.5q-102 0 -164.5 64t-62.5 168t62.5 167.5t164.5 63.5q68 0 119 -30t77 -84v215h-126q-9 0 -9 8v26q0 8 9 8zM268 31
q86 0 139.5 53t53.5 139q0 85 -53.5 137t-139.5 52q-85 0 -137 -52.5t-52 -137.5q0 -86 52 -138.5t137 -52.5z" />
    <glyph glyph-name="Emacron" unicode="&#x112;" 
d="M181 -29q-40 -25 -40 -75q0 -43 27.5 -69.5t71.5 -26.5t71 26.5t27 69.5q0 51 -39 75l31 5q4 0 4 4v14q0 5 -5 5h-180q-3 0 -3 -5v-13q0 -2 3 -5zM240 -173q-32 0 -52 20t-20 51q0 32 20 51.5t52 21.5q32 -2 51 -21.5t19 -51.5t-19.5 -51.5t-50.5 -19.5zM141 120
q0 -43 27.5 -69t71.5 -26t71 26t27 69q0 53 -39 76h39q32 0 50.5 -19.5t18.5 -53.5q-1 -36 -17 -60q-3 -3 2 -6l16 -9h1q1 -1 2 -1t3 3q20 35 20 73q0 45 -26.5 73t-71.5 28l-187 -1q-3 0 -3 -4v-12q0 -3 3 -6l33 -5q-41 -25 -41 -76zM240 52q32 0 51.5 19t19.5 51
q0 33 -19.5 53.5t-51.5 20.5q-31 0 -51 -21t-20 -53q0 -31 19.5 -50.5t51.5 -19.5zM227 265v139q-27 -4 -43 -22.5t-16 -46.5q0 -29 16 -47.5t43 -22.5zM252 265v164q0 3 -4 3q-48 0 -77 -25t-29 -72q0 -44 27 -71t71 -27t71 28t27 74q0 49 -30 76q-2 2 -3 2q-2 0 -4 -2
l-12 -13q-3 -4 1 -7q20 -20 20 -56q0 -30 -16 -50t-42 -24zM240 457q44 0 71 27.5t27 70.5t-27 70t-71 27t-71 -27t-27 -70t27 -70.5t71 -27.5zM240 484q-32 0 -52 20t-20 51t20 50.5t52 19.5t51 -19.5t19 -50.5q0 -32 -19.5 -51.5t-50.5 -19.5zM50 -240v937h433v-937h-433z
" />
    <glyph glyph-name="emacron" unicode="&#x113;" 
d="M181 -29q-40 -25 -40 -75q0 -43 27.5 -69.5t71.5 -26.5t71 26.5t27 69.5q0 51 -39 75l31 5q4 0 4 4v14q0 5 -5 5h-180q-3 0 -3 -5v-13q0 -2 3 -5zM240 -173q-32 0 -52 20t-20 51q0 32 20 51.5t52 21.5q32 -2 51 -21.5t19 -51.5t-19.5 -51.5t-50.5 -19.5zM141 120
q0 -43 27.5 -69t71.5 -26t71 26t27 69q0 53 -39 76h39q32 0 50.5 -19.5t18.5 -53.5q-1 -36 -17 -60q-3 -3 2 -6l16 -9h1q1 -1 2 -1t3 3q20 35 20 73q0 45 -26.5 73t-71.5 28l-187 -1q-3 0 -3 -4v-12q0 -3 3 -6l33 -5q-41 -25 -41 -76zM240 52q32 0 51.5 19t19.5 51
q0 33 -19.5 53.5t-51.5 20.5q-31 0 -51 -21t-20 -53q0 -31 19.5 -50.5t51.5 -19.5zM227 265v139q-27 -4 -43 -22.5t-16 -46.5q0 -29 16 -47.5t43 -22.5zM252 265v164q0 3 -4 3q-48 0 -77 -25t-29 -72q0 -44 27 -71t71 -27t71 28t27 74q0 49 -30 76q-2 2 -3 2q-2 0 -4 -2
l-12 -13q-3 -4 1 -7q20 -20 20 -56q0 -30 -16 -50t-42 -24zM240 457q44 0 71 27.5t27 70.5t-27 70t-71 27t-71 -27t-27 -70t27 -70.5t71 -27.5zM240 484q-32 0 -52 20t-20 51t20 50.5t52 19.5t51 -19.5t19 -50.5q0 -32 -19.5 -51.5t-50.5 -19.5zM50 -240v937h433v-937h-433z
" />
    <glyph glyph-name="Ebreve" unicode="&#x114;" 
d="M181 -29q-40 -25 -40 -75q0 -43 27.5 -69.5t71.5 -26.5t71 26.5t27 69.5q0 51 -39 75l31 5q4 0 4 4v14q0 5 -5 5h-180q-3 0 -3 -5v-13q0 -2 3 -5zM240 -173q-32 0 -52 20t-20 51q0 32 20 51.5t52 21.5q32 -2 51 -21.5t19 -51.5t-19.5 -51.5t-50.5 -19.5zM141 120
q0 -43 27.5 -69t71.5 -26t71 26t27 69q0 53 -39 76h39q32 0 50.5 -19.5t18.5 -53.5q-1 -36 -17 -60q-3 -3 2 -6l16 -9h1q1 -1 2 -1t3 3q20 35 20 73q0 45 -26.5 73t-71.5 28l-187 -1q-3 0 -3 -4v-12q0 -3 3 -6l33 -5q-41 -25 -41 -76zM240 52q32 0 51.5 19t19.5 51
q0 33 -19.5 53.5t-51.5 20.5q-31 0 -51 -21t-20 -53q0 -31 19.5 -50.5t51.5 -19.5zM227 265v139q-27 -4 -43 -22.5t-16 -46.5q0 -29 16 -47.5t43 -22.5zM252 265v164q0 3 -4 3q-48 0 -77 -25t-29 -72q0 -44 27 -71t71 -27t71 28t27 74q0 49 -30 76q-2 2 -3 2q-2 0 -4 -2
l-12 -13q-3 -4 1 -7q20 -20 20 -56q0 -30 -16 -50t-42 -24zM240 457q44 0 71 27.5t27 70.5t-27 70t-71 27t-71 -27t-27 -70t27 -70.5t71 -27.5zM240 484q-32 0 -52 20t-20 51t20 50.5t52 19.5t51 -19.5t19 -50.5q0 -32 -19.5 -51.5t-50.5 -19.5zM50 -240v937h433v-937h-433z
" />
    <glyph glyph-name="ebreve" unicode="&#x115;" 
d="M181 -29q-40 -25 -40 -75q0 -43 27.5 -69.5t71.5 -26.5t71 26.5t27 69.5q0 51 -39 75l31 5q4 0 4 4v14q0 5 -5 5h-180q-3 0 -3 -5v-13q0 -2 3 -5zM240 -173q-32 0 -52 20t-20 51q0 32 20 51.5t52 21.5q32 -2 51 -21.5t19 -51.5t-19.5 -51.5t-50.5 -19.5zM141 120
q0 -43 27.5 -69t71.5 -26t71 26t27 69q0 53 -39 76h39q32 0 50.5 -19.5t18.5 -53.5q-1 -36 -17 -60q-3 -3 2 -6l16 -9h1q1 -1 2 -1t3 3q20 35 20 73q0 45 -26.5 73t-71.5 28l-187 -1q-3 0 -3 -4v-12q0 -3 3 -6l33 -5q-41 -25 -41 -76zM240 52q32 0 51.5 19t19.5 51
q0 33 -19.5 53.5t-51.5 20.5q-31 0 -51 -21t-20 -53q0 -31 19.5 -50.5t51.5 -19.5zM227 265v139q-27 -4 -43 -22.5t-16 -46.5q0 -29 16 -47.5t43 -22.5zM252 265v164q0 3 -4 3q-48 0 -77 -25t-29 -72q0 -44 27 -71t71 -27t71 28t27 74q0 49 -30 76q-2 2 -3 2q-2 0 -4 -2
l-12 -13q-3 -4 1 -7q20 -20 20 -56q0 -30 -16 -50t-42 -24zM240 457q44 0 71 27.5t27 70.5t-27 70t-71 27t-71 -27t-27 -70t27 -70.5t71 -27.5zM240 484q-32 0 -52 20t-20 51t20 50.5t52 19.5t51 -19.5t19 -50.5q0 -32 -19.5 -51.5t-50.5 -19.5zM50 -240v937h433v-937h-433z
" />
    <glyph glyph-name="Edotaccent" unicode="&#x116;" 
d="M181 -29q-40 -25 -40 -75q0 -43 27.5 -69.5t71.5 -26.5t71 26.5t27 69.5q0 51 -39 75l31 5q4 0 4 4v14q0 5 -5 5h-180q-3 0 -3 -5v-13q0 -2 3 -5zM240 -173q-32 0 -52 20t-20 51q0 32 20 51.5t52 21.5q32 -2 51 -21.5t19 -51.5t-19.5 -51.5t-50.5 -19.5zM141 120
q0 -43 27.5 -69t71.5 -26t71 26t27 69q0 53 -39 76h39q32 0 50.5 -19.5t18.5 -53.5q-1 -36 -17 -60q-3 -3 2 -6l16 -9h1q1 -1 2 -1t3 3q20 35 20 73q0 45 -26.5 73t-71.5 28l-187 -1q-3 0 -3 -4v-12q0 -3 3 -6l33 -5q-41 -25 -41 -76zM240 52q32 0 51.5 19t19.5 51
q0 33 -19.5 53.5t-51.5 20.5q-31 0 -51 -21t-20 -53q0 -31 19.5 -50.5t51.5 -19.5zM227 265v139q-27 -4 -43 -22.5t-16 -46.5q0 -29 16 -47.5t43 -22.5zM252 265v164q0 3 -4 3q-48 0 -77 -25t-29 -72q0 -44 27 -71t71 -27t71 28t27 74q0 49 -30 76q-2 2 -3 2q-2 0 -4 -2
l-12 -13q-3 -4 1 -7q20 -20 20 -56q0 -30 -16 -50t-42 -24zM240 457q44 0 71 27.5t27 70.5t-27 70t-71 27t-71 -27t-27 -70t27 -70.5t71 -27.5zM240 484q-32 0 -52 20t-20 51t20 50.5t52 19.5t51 -19.5t19 -50.5q0 -32 -19.5 -51.5t-50.5 -19.5zM50 -240v937h433v-937h-433z
" />
    <glyph glyph-name="edotaccent" unicode="&#x117;" 
d="M181 -29q-40 -25 -40 -75q0 -43 27.5 -69.5t71.5 -26.5t71 26.5t27 69.5q0 51 -39 75l31 5q4 0 4 4v14q0 5 -5 5h-180q-3 0 -3 -5v-13q0 -2 3 -5zM240 -173q-32 0 -52 20t-20 51q0 32 20 51.5t52 21.5q32 -2 51 -21.5t19 -51.5t-19.5 -51.5t-50.5 -19.5zM141 120
q0 -43 27.5 -69t71.5 -26t71 26t27 69q0 53 -39 76h39q32 0 50.5 -19.5t18.5 -53.5q-1 -36 -17 -60q-3 -3 2 -6l16 -9h1q1 -1 2 -1t3 3q20 35 20 73q0 45 -26.5 73t-71.5 28l-187 -1q-3 0 -3 -4v-12q0 -3 3 -6l33 -5q-41 -25 -41 -76zM240 52q32 0 51.5 19t19.5 51
q0 33 -19.5 53.5t-51.5 20.5q-31 0 -51 -21t-20 -53q0 -31 19.5 -50.5t51.5 -19.5zM227 265v139q-27 -4 -43 -22.5t-16 -46.5q0 -29 16 -47.5t43 -22.5zM252 265v164q0 3 -4 3q-48 0 -77 -25t-29 -72q0 -44 27 -71t71 -27t71 28t27 74q0 49 -30 76q-2 2 -3 2q-2 0 -4 -2
l-12 -13q-3 -4 1 -7q20 -20 20 -56q0 -30 -16 -50t-42 -24zM240 457q44 0 71 27.5t27 70.5t-27 70t-71 27t-71 -27t-27 -70t27 -70.5t71 -27.5zM240 484q-32 0 -52 20t-20 51t20 50.5t52 19.5t51 -19.5t19 -50.5q0 -32 -19.5 -51.5t-50.5 -19.5zM50 -240v937h433v-937h-433z
" />
    <glyph glyph-name="Eogonek" unicode="&#x118;" 
d="M181 -29q-40 -25 -40 -75q0 -43 27.5 -69.5t71.5 -26.5t71 26.5t27 69.5q0 51 -39 75l31 5q4 0 4 4v14q0 5 -5 5h-180q-3 0 -3 -5v-13q0 -2 3 -5zM240 -173q-32 0 -52 20t-20 51q0 32 20 51.5t52 21.5q32 -2 51 -21.5t19 -51.5t-19.5 -51.5t-50.5 -19.5zM141 120
q0 -43 27.5 -69t71.5 -26t71 26t27 69q0 53 -39 76h39q32 0 50.5 -19.5t18.5 -53.5q-1 -36 -17 -60q-3 -3 2 -6l16 -9h1q1 -1 2 -1t3 3q20 35 20 73q0 45 -26.5 73t-71.5 28l-187 -1q-3 0 -3 -4v-12q0 -3 3 -6l33 -5q-41 -25 -41 -76zM240 52q32 0 51.5 19t19.5 51
q0 33 -19.5 53.5t-51.5 20.5q-31 0 -51 -21t-20 -53q0 -31 19.5 -50.5t51.5 -19.5zM227 265v139q-27 -4 -43 -22.5t-16 -46.5q0 -29 16 -47.5t43 -22.5zM252 265v164q0 3 -4 3q-48 0 -77 -25t-29 -72q0 -44 27 -71t71 -27t71 28t27 74q0 49 -30 76q-2 2 -3 2q-2 0 -4 -2
l-12 -13q-3 -4 1 -7q20 -20 20 -56q0 -30 -16 -50t-42 -24zM240 457q44 0 71 27.5t27 70.5t-27 70t-71 27t-71 -27t-27 -70t27 -70.5t71 -27.5zM240 484q-32 0 -52 20t-20 51t20 50.5t52 19.5t51 -19.5t19 -50.5q0 -32 -19.5 -51.5t-50.5 -19.5zM50 -240v937h433v-937h-433z
" />
    <glyph glyph-name="eogonek" unicode="&#x119;" 
d="M181 -29q-40 -25 -40 -75q0 -43 27.5 -69.5t71.5 -26.5t71 26.5t27 69.5q0 51 -39 75l31 5q4 0 4 4v14q0 5 -5 5h-180q-3 0 -3 -5v-13q0 -2 3 -5zM240 -173q-32 0 -52 20t-20 51q0 32 20 51.5t52 21.5q32 -2 51 -21.5t19 -51.5t-19.5 -51.5t-50.5 -19.5zM141 120
q0 -43 27.5 -69t71.5 -26t71 26t27 69q0 53 -39 76h39q32 0 50.5 -19.5t18.5 -53.5q-1 -36 -17 -60q-3 -3 2 -6l16 -9h1q1 -1 2 -1t3 3q20 35 20 73q0 45 -26.5 73t-71.5 28l-187 -1q-3 0 -3 -4v-12q0 -3 3 -6l33 -5q-41 -25 -41 -76zM240 52q32 0 51.5 19t19.5 51
q0 33 -19.5 53.5t-51.5 20.5q-31 0 -51 -21t-20 -53q0 -31 19.5 -50.5t51.5 -19.5zM227 265v139q-27 -4 -43 -22.5t-16 -46.5q0 -29 16 -47.5t43 -22.5zM252 265v164q0 3 -4 3q-48 0 -77 -25t-29 -72q0 -44 27 -71t71 -27t71 28t27 74q0 49 -30 76q-2 2 -3 2q-2 0 -4 -2
l-12 -13q-3 -4 1 -7q20 -20 20 -56q0 -30 -16 -50t-42 -24zM240 457q44 0 71 27.5t27 70.5t-27 70t-71 27t-71 -27t-27 -70t27 -70.5t71 -27.5zM240 484q-32 0 -52 20t-20 51t20 50.5t52 19.5t51 -19.5t19 -50.5q0 -32 -19.5 -51.5t-50.5 -19.5zM50 -240v937h433v-937h-433z
" />
    <glyph glyph-name="Ecaron" unicode="&#x11a;" 
d="M181 -29q-40 -25 -40 -75q0 -43 27.5 -69.5t71.5 -26.5t71 26.5t27 69.5q0 51 -39 75l31 5q4 0 4 4v14q0 5 -5 5h-180q-3 0 -3 -5v-13q0 -2 3 -5zM240 -173q-32 0 -52 20t-20 51q0 32 20 51.5t52 21.5q32 -2 51 -21.5t19 -51.5t-19.5 -51.5t-50.5 -19.5zM141 120
q0 -43 27.5 -69t71.5 -26t71 26t27 69q0 53 -39 76h39q32 0 50.5 -19.5t18.5 -53.5q-1 -36 -17 -60q-3 -3 2 -6l16 -9h1q1 -1 2 -1t3 3q20 35 20 73q0 45 -26.5 73t-71.5 28l-187 -1q-3 0 -3 -4v-12q0 -3 3 -6l33 -5q-41 -25 -41 -76zM240 52q32 0 51.5 19t19.5 51
q0 33 -19.5 53.5t-51.5 20.5q-31 0 -51 -21t-20 -53q0 -31 19.5 -50.5t51.5 -19.5zM227 265v139q-27 -4 -43 -22.5t-16 -46.5q0 -29 16 -47.5t43 -22.5zM252 265v164q0 3 -4 3q-48 0 -77 -25t-29 -72q0 -44 27 -71t71 -27t71 28t27 74q0 49 -30 76q-2 2 -3 2q-2 0 -4 -2
l-12 -13q-3 -4 1 -7q20 -20 20 -56q0 -30 -16 -50t-42 -24zM240 457q44 0 71 27.5t27 70.5t-27 70t-71 27t-71 -27t-27 -70t27 -70.5t71 -27.5zM240 484q-32 0 -52 20t-20 51t20 50.5t52 19.5t51 -19.5t19 -50.5q0 -32 -19.5 -51.5t-50.5 -19.5zM50 -240v937h433v-937h-433z
" />
    <glyph glyph-name="ecaron" unicode="&#x11b;" 
d="M181 -29q-40 -25 -40 -75q0 -43 27.5 -69.5t71.5 -26.5t71 26.5t27 69.5q0 51 -39 75l31 5q4 0 4 4v14q0 5 -5 5h-180q-3 0 -3 -5v-13q0 -2 3 -5zM240 -173q-32 0 -52 20t-20 51q0 32 20 51.5t52 21.5q32 -2 51 -21.5t19 -51.5t-19.5 -51.5t-50.5 -19.5zM141 120
q0 -43 27.5 -69t71.5 -26t71 26t27 69q0 53 -39 76h39q32 0 50.5 -19.5t18.5 -53.5q-1 -36 -17 -60q-3 -3 2 -6l16 -9h1q1 -1 2 -1t3 3q20 35 20 73q0 45 -26.5 73t-71.5 28l-187 -1q-3 0 -3 -4v-12q0 -3 3 -6l33 -5q-41 -25 -41 -76zM240 52q32 0 51.5 19t19.5 51
q0 33 -19.5 53.5t-51.5 20.5q-31 0 -51 -21t-20 -53q0 -31 19.5 -50.5t51.5 -19.5zM227 265v139q-27 -4 -43 -22.5t-16 -46.5q0 -29 16 -47.5t43 -22.5zM252 265v164q0 3 -4 3q-48 0 -77 -25t-29 -72q0 -44 27 -71t71 -27t71 28t27 74q0 49 -30 76q-2 2 -3 2q-2 0 -4 -2
l-12 -13q-3 -4 1 -7q20 -20 20 -56q0 -30 -16 -50t-42 -24zM240 457q44 0 71 27.5t27 70.5t-27 70t-71 27t-71 -27t-27 -70t27 -70.5t71 -27.5zM240 484q-32 0 -52 20t-20 51t20 50.5t52 19.5t51 -19.5t19 -50.5q0 -32 -19.5 -51.5t-50.5 -19.5zM50 -240v937h433v-937h-433z
" />
    <glyph glyph-name="Gcircumflex" unicode="&#x11c;" 
d="M181 -29q-40 -25 -40 -75q0 -43 27.5 -69.5t71.5 -26.5t71 26.5t27 69.5q0 51 -39 75l31 5q4 0 4 4v14q0 5 -5 5h-180q-3 0 -3 -5v-13q0 -2 3 -5zM240 -173q-32 0 -52 20t-20 51q0 32 20 51.5t52 21.5q32 -2 51 -21.5t19 -51.5t-19.5 -51.5t-50.5 -19.5zM141 120
q0 -43 27.5 -69t71.5 -26t71 26t27 69q0 53 -39 76h39q32 0 50.5 -19.5t18.5 -53.5q-1 -36 -17 -60q-3 -3 2 -6l16 -9h1q1 -1 2 -1t3 3q20 35 20 73q0 45 -26.5 73t-71.5 28l-187 -1q-3 0 -3 -4v-12q0 -3 3 -6l33 -5q-41 -25 -41 -76zM240 52q32 0 51.5 19t19.5 51
q0 33 -19.5 53.5t-51.5 20.5q-31 0 -51 -21t-20 -53q0 -31 19.5 -50.5t51.5 -19.5zM227 265v139q-27 -4 -43 -22.5t-16 -46.5q0 -29 16 -47.5t43 -22.5zM252 265v164q0 3 -4 3q-48 0 -77 -25t-29 -72q0 -44 27 -71t71 -27t71 28t27 74q0 49 -30 76q-2 2 -3 2q-2 0 -4 -2
l-12 -13q-3 -4 1 -7q20 -20 20 -56q0 -30 -16 -50t-42 -24zM240 457q44 0 71 27.5t27 70.5t-27 70t-71 27t-71 -27t-27 -70t27 -70.5t71 -27.5zM240 484q-32 0 -52 20t-20 51t20 50.5t52 19.5t51 -19.5t19 -50.5q0 -32 -19.5 -51.5t-50.5 -19.5zM50 -240v937h433v-937h-433z
" />
    <glyph glyph-name="gcircumflex" unicode="&#x11d;" 
d="M181 -29q-40 -25 -40 -75q0 -43 27.5 -69.5t71.5 -26.5t71 26.5t27 69.5q0 51 -39 75l31 5q4 0 4 4v14q0 5 -5 5h-180q-3 0 -3 -5v-13q0 -2 3 -5zM240 -173q-32 0 -52 20t-20 51q0 32 20 51.5t52 21.5q32 -2 51 -21.5t19 -51.5t-19.5 -51.5t-50.5 -19.5zM141 120
q0 -43 27.5 -69t71.5 -26t71 26t27 69q0 53 -39 76h39q32 0 50.5 -19.5t18.5 -53.5q-1 -36 -17 -60q-3 -3 2 -6l16 -9h1q1 -1 2 -1t3 3q20 35 20 73q0 45 -26.5 73t-71.5 28l-187 -1q-3 0 -3 -4v-12q0 -3 3 -6l33 -5q-41 -25 -41 -76zM240 52q32 0 51.5 19t19.5 51
q0 33 -19.5 53.5t-51.5 20.5q-31 0 -51 -21t-20 -53q0 -31 19.5 -50.5t51.5 -19.5zM227 265v139q-27 -4 -43 -22.5t-16 -46.5q0 -29 16 -47.5t43 -22.5zM252 265v164q0 3 -4 3q-48 0 -77 -25t-29 -72q0 -44 27 -71t71 -27t71 28t27 74q0 49 -30 76q-2 2 -3 2q-2 0 -4 -2
l-12 -13q-3 -4 1 -7q20 -20 20 -56q0 -30 -16 -50t-42 -24zM240 457q44 0 71 27.5t27 70.5t-27 70t-71 27t-71 -27t-27 -70t27 -70.5t71 -27.5zM240 484q-32 0 -52 20t-20 51t20 50.5t52 19.5t51 -19.5t19 -50.5q0 -32 -19.5 -51.5t-50.5 -19.5zM50 -240v937h433v-937h-433z
" />
    <glyph glyph-name="Gbreve" unicode="&#x11e;" 
d="M181 -29q-40 -25 -40 -75q0 -43 27.5 -69.5t71.5 -26.5t71 26.5t27 69.5q0 51 -39 75l31 5q4 0 4 4v14q0 5 -5 5h-180q-3 0 -3 -5v-13q0 -2 3 -5zM240 -173q-32 0 -52 20t-20 51q0 32 20 51.5t52 21.5q32 -2 51 -21.5t19 -51.5t-19.5 -51.5t-50.5 -19.5zM141 120
q0 -43 27.5 -69t71.5 -26t71 26t27 69q0 53 -39 76h39q32 0 50.5 -19.5t18.5 -53.5q-1 -36 -17 -60q-3 -3 2 -6l16 -9h1q1 -1 2 -1t3 3q20 35 20 73q0 45 -26.5 73t-71.5 28l-187 -1q-3 0 -3 -4v-12q0 -3 3 -6l33 -5q-41 -25 -41 -76zM240 52q32 0 51.5 19t19.5 51
q0 33 -19.5 53.5t-51.5 20.5q-31 0 -51 -21t-20 -53q0 -31 19.5 -50.5t51.5 -19.5zM227 265v139q-27 -4 -43 -22.5t-16 -46.5q0 -29 16 -47.5t43 -22.5zM252 265v164q0 3 -4 3q-48 0 -77 -25t-29 -72q0 -44 27 -71t71 -27t71 28t27 74q0 49 -30 76q-2 2 -3 2q-2 0 -4 -2
l-12 -13q-3 -4 1 -7q20 -20 20 -56q0 -30 -16 -50t-42 -24zM240 457q44 0 71 27.5t27 70.5t-27 70t-71 27t-71 -27t-27 -70t27 -70.5t71 -27.5zM240 484q-32 0 -52 20t-20 51t20 50.5t52 19.5t51 -19.5t19 -50.5q0 -32 -19.5 -51.5t-50.5 -19.5zM50 -240v937h433v-937h-433z
" />
    <glyph glyph-name="gbreve" unicode="&#x11f;" 
d="M181 -29q-40 -25 -40 -75q0 -43 27.5 -69.5t71.5 -26.5t71 26.5t27 69.5q0 51 -39 75l31 5q4 0 4 4v14q0 5 -5 5h-180q-3 0 -3 -5v-13q0 -2 3 -5zM240 -173q-32 0 -52 20t-20 51q0 32 20 51.5t52 21.5q32 -2 51 -21.5t19 -51.5t-19.5 -51.5t-50.5 -19.5zM141 120
q0 -43 27.5 -69t71.5 -26t71 26t27 69q0 53 -39 76h39q32 0 50.5 -19.5t18.5 -53.5q-1 -36 -17 -60q-3 -3 2 -6l16 -9h1q1 -1 2 -1t3 3q20 35 20 73q0 45 -26.5 73t-71.5 28l-187 -1q-3 0 -3 -4v-12q0 -3 3 -6l33 -5q-41 -25 -41 -76zM240 52q32 0 51.5 19t19.5 51
q0 33 -19.5 53.5t-51.5 20.5q-31 0 -51 -21t-20 -53q0 -31 19.5 -50.5t51.5 -19.5zM227 265v139q-27 -4 -43 -22.5t-16 -46.5q0 -29 16 -47.5t43 -22.5zM252 265v164q0 3 -4 3q-48 0 -77 -25t-29 -72q0 -44 27 -71t71 -27t71 28t27 74q0 49 -30 76q-2 2 -3 2q-2 0 -4 -2
l-12 -13q-3 -4 1 -7q20 -20 20 -56q0 -30 -16 -50t-42 -24zM240 457q44 0 71 27.5t27 70.5t-27 70t-71 27t-71 -27t-27 -70t27 -70.5t71 -27.5zM240 484q-32 0 -52 20t-20 51t20 50.5t52 19.5t51 -19.5t19 -50.5q0 -32 -19.5 -51.5t-50.5 -19.5zM50 -240v937h433v-937h-433z
" />
    <glyph glyph-name="Gdotaccent" unicode="&#x120;" 
d="M181 -29q-40 -25 -40 -75q0 -43 27.5 -69.5t71.5 -26.5t71 26.5t27 69.5q0 51 -39 75l31 5q4 0 4 4v14q0 5 -5 5h-180q-3 0 -3 -5v-13q0 -2 3 -5zM240 -173q-32 0 -52 20t-20 51q0 32 20 51.5t52 21.5q32 -2 51 -21.5t19 -51.5t-19.5 -51.5t-50.5 -19.5zM141 120
q0 -43 27.5 -69t71.5 -26t71 26t27 69q0 53 -39 76h39q32 0 50.5 -19.5t18.5 -53.5q-1 -36 -17 -60q-3 -3 2 -6l16 -9h1q1 -1 2 -1t3 3q20 35 20 73q0 45 -26.5 73t-71.5 28l-187 -1q-3 0 -3 -4v-12q0 -3 3 -6l33 -5q-41 -25 -41 -76zM240 52q32 0 51.5 19t19.5 51
q0 33 -19.5 53.5t-51.5 20.5q-31 0 -51 -21t-20 -53q0 -31 19.5 -50.5t51.5 -19.5zM227 265v139q-27 -4 -43 -22.5t-16 -46.5q0 -29 16 -47.5t43 -22.5zM252 265v164q0 3 -4 3q-48 0 -77 -25t-29 -72q0 -44 27 -71t71 -27t71 28t27 74q0 49 -30 76q-2 2 -3 2q-2 0 -4 -2
l-12 -13q-3 -4 1 -7q20 -20 20 -56q0 -30 -16 -50t-42 -24zM240 457q44 0 71 27.5t27 70.5t-27 70t-71 27t-71 -27t-27 -70t27 -70.5t71 -27.5zM240 484q-32 0 -52 20t-20 51t20 50.5t52 19.5t51 -19.5t19 -50.5q0 -32 -19.5 -51.5t-50.5 -19.5zM50 -240v937h433v-937h-433z
" />
    <glyph glyph-name="gdotaccent" unicode="&#x121;" 
d="M181 -29q-40 -25 -40 -75q0 -43 27.5 -69.5t71.5 -26.5t71 26.5t27 69.5q0 51 -39 75l31 5q4 0 4 4v14q0 5 -5 5h-180q-3 0 -3 -5v-13q0 -2 3 -5zM240 -173q-32 0 -52 20t-20 51q0 32 20 51.5t52 21.5q32 -2 51 -21.5t19 -51.5t-19.5 -51.5t-50.5 -19.5zM141 120
q0 -43 27.5 -69t71.5 -26t71 26t27 69q0 53 -39 76h39q32 0 50.5 -19.5t18.5 -53.5q-1 -36 -17 -60q-3 -3 2 -6l16 -9h1q1 -1 2 -1t3 3q20 35 20 73q0 45 -26.5 73t-71.5 28l-187 -1q-3 0 -3 -4v-12q0 -3 3 -6l33 -5q-41 -25 -41 -76zM240 52q32 0 51.5 19t19.5 51
q0 33 -19.5 53.5t-51.5 20.5q-31 0 -51 -21t-20 -53q0 -31 19.5 -50.5t51.5 -19.5zM227 265v139q-27 -4 -43 -22.5t-16 -46.5q0 -29 16 -47.5t43 -22.5zM252 265v164q0 3 -4 3q-48 0 -77 -25t-29 -72q0 -44 27 -71t71 -27t71 28t27 74q0 49 -30 76q-2 2 -3 2q-2 0 -4 -2
l-12 -13q-3 -4 1 -7q20 -20 20 -56q0 -30 -16 -50t-42 -24zM240 457q44 0 71 27.5t27 70.5t-27 70t-71 27t-71 -27t-27 -70t27 -70.5t71 -27.5zM240 484q-32 0 -52 20t-20 51t20 50.5t52 19.5t51 -19.5t19 -50.5q0 -32 -19.5 -51.5t-50.5 -19.5zM50 -240v937h433v-937h-433z
" />
    <glyph glyph-name="uni0122" unicode="&#x122;" 
d="M181 -29q-40 -25 -40 -75q0 -43 27.5 -69.5t71.5 -26.5t71 26.5t27 69.5q0 51 -39 75l31 5q4 0 4 4v14q0 5 -5 5h-180q-3 0 -3 -5v-13q0 -2 3 -5zM240 -173q-32 0 -52 20t-20 51q0 32 20 51.5t52 21.5q32 -2 51 -21.5t19 -51.5t-19.5 -51.5t-50.5 -19.5zM141 120
q0 -43 27.5 -69t71.5 -26t71 26t27 69q0 53 -39 76h39q32 0 50.5 -19.5t18.5 -53.5q-1 -36 -17 -60q-3 -3 2 -6l16 -9h1q1 -1 2 -1t3 3q20 35 20 73q0 45 -26.5 73t-71.5 28l-187 -1q-3 0 -3 -4v-12q0 -3 3 -6l33 -5q-41 -25 -41 -76zM240 52q32 0 51.5 19t19.5 51
q0 33 -19.5 53.5t-51.5 20.5q-31 0 -51 -21t-20 -53q0 -31 19.5 -50.5t51.5 -19.5zM227 265v139q-27 -4 -43 -22.5t-16 -46.5q0 -29 16 -47.5t43 -22.5zM252 265v164q0 3 -4 3q-48 0 -77 -25t-29 -72q0 -44 27 -71t71 -27t71 28t27 74q0 49 -30 76q-2 2 -3 2q-2 0 -4 -2
l-12 -13q-3 -4 1 -7q20 -20 20 -56q0 -30 -16 -50t-42 -24zM240 457q44 0 71 27.5t27 70.5t-27 70t-71 27t-71 -27t-27 -70t27 -70.5t71 -27.5zM240 484q-32 0 -52 20t-20 51t20 50.5t52 19.5t51 -19.5t19 -50.5q0 -32 -19.5 -51.5t-50.5 -19.5zM50 -240v937h433v-937h-433z
" />
    <glyph glyph-name="uni0123" unicode="&#x123;" 
d="M181 -29q-40 -25 -40 -75q0 -43 27.5 -69.5t71.5 -26.5t71 26.5t27 69.5q0 51 -39 75l31 5q4 0 4 4v14q0 5 -5 5h-180q-3 0 -3 -5v-13q0 -2 3 -5zM240 -173q-32 0 -52 20t-20 51q0 32 20 51.5t52 21.5q32 -2 51 -21.5t19 -51.5t-19.5 -51.5t-50.5 -19.5zM141 120
q0 -43 27.5 -69t71.5 -26t71 26t27 69q0 53 -39 76h39q32 0 50.5 -19.5t18.5 -53.5q-1 -36 -17 -60q-3 -3 2 -6l16 -9h1q1 -1 2 -1t3 3q20 35 20 73q0 45 -26.5 73t-71.5 28l-187 -1q-3 0 -3 -4v-12q0 -3 3 -6l33 -5q-41 -25 -41 -76zM240 52q32 0 51.5 19t19.5 51
q0 33 -19.5 53.5t-51.5 20.5q-31 0 -51 -21t-20 -53q0 -31 19.5 -50.5t51.5 -19.5zM227 265v139q-27 -4 -43 -22.5t-16 -46.5q0 -29 16 -47.5t43 -22.5zM252 265v164q0 3 -4 3q-48 0 -77 -25t-29 -72q0 -44 27 -71t71 -27t71 28t27 74q0 49 -30 76q-2 2 -3 2q-2 0 -4 -2
l-12 -13q-3 -4 1 -7q20 -20 20 -56q0 -30 -16 -50t-42 -24zM240 457q44 0 71 27.5t27 70.5t-27 70t-71 27t-71 -27t-27 -70t27 -70.5t71 -27.5zM240 484q-32 0 -52 20t-20 51t20 50.5t52 19.5t51 -19.5t19 -50.5q0 -32 -19.5 -51.5t-50.5 -19.5zM50 -240v937h433v-937h-433z
" />
    <glyph glyph-name="Hcircumflex" unicode="&#x124;" 
d="M181 -29q-40 -25 -40 -75q0 -43 27.5 -69.5t71.5 -26.5t71 26.5t27 69.5q0 51 -39 75l31 5q4 0 4 4v14q0 5 -5 5h-180q-3 0 -3 -5v-13q0 -2 3 -5zM240 -173q-32 0 -52 20t-20 51q0 32 20 51.5t52 21.5q32 -2 51 -21.5t19 -51.5t-19.5 -51.5t-50.5 -19.5zM141 120
q0 -43 27.5 -69t71.5 -26t71 26t27 69q0 53 -39 76h39q32 0 50.5 -19.5t18.5 -53.5q-1 -36 -17 -60q-3 -3 2 -6l16 -9h1q1 -1 2 -1t3 3q20 35 20 73q0 45 -26.5 73t-71.5 28l-187 -1q-3 0 -3 -4v-12q0 -3 3 -6l33 -5q-41 -25 -41 -76zM240 52q32 0 51.5 19t19.5 51
q0 33 -19.5 53.5t-51.5 20.5q-31 0 -51 -21t-20 -53q0 -31 19.5 -50.5t51.5 -19.5zM227 265v139q-27 -4 -43 -22.5t-16 -46.5q0 -29 16 -47.5t43 -22.5zM252 265v164q0 3 -4 3q-48 0 -77 -25t-29 -72q0 -44 27 -71t71 -27t71 28t27 74q0 49 -30 76q-2 2 -3 2q-2 0 -4 -2
l-12 -13q-3 -4 1 -7q20 -20 20 -56q0 -30 -16 -50t-42 -24zM240 457q44 0 71 27.5t27 70.5t-27 70t-71 27t-71 -27t-27 -70t27 -70.5t71 -27.5zM240 484q-32 0 -52 20t-20 51t20 50.5t52 19.5t51 -19.5t19 -50.5q0 -32 -19.5 -51.5t-50.5 -19.5zM50 -240v937h433v-937h-433z
" />
    <glyph glyph-name="hcircumflex" unicode="&#x125;" 
d="M181 -29q-40 -25 -40 -75q0 -43 27.5 -69.5t71.5 -26.5t71 26.5t27 69.5q0 51 -39 75l31 5q4 0 4 4v14q0 5 -5 5h-180q-3 0 -3 -5v-13q0 -2 3 -5zM240 -173q-32 0 -52 20t-20 51q0 32 20 51.5t52 21.5q32 -2 51 -21.5t19 -51.5t-19.5 -51.5t-50.5 -19.5zM141 120
q0 -43 27.5 -69t71.5 -26t71 26t27 69q0 53 -39 76h39q32 0 50.5 -19.5t18.5 -53.5q-1 -36 -17 -60q-3 -3 2 -6l16 -9h1q1 -1 2 -1t3 3q20 35 20 73q0 45 -26.5 73t-71.5 28l-187 -1q-3 0 -3 -4v-12q0 -3 3 -6l33 -5q-41 -25 -41 -76zM240 52q32 0 51.5 19t19.5 51
q0 33 -19.5 53.5t-51.5 20.5q-31 0 -51 -21t-20 -53q0 -31 19.5 -50.5t51.5 -19.5zM227 265v139q-27 -4 -43 -22.5t-16 -46.5q0 -29 16 -47.5t43 -22.5zM252 265v164q0 3 -4 3q-48 0 -77 -25t-29 -72q0 -44 27 -71t71 -27t71 28t27 74q0 49 -30 76q-2 2 -3 2q-2 0 -4 -2
l-12 -13q-3 -4 1 -7q20 -20 20 -56q0 -30 -16 -50t-42 -24zM240 457q44 0 71 27.5t27 70.5t-27 70t-71 27t-71 -27t-27 -70t27 -70.5t71 -27.5zM240 484q-32 0 -52 20t-20 51t20 50.5t52 19.5t51 -19.5t19 -50.5q0 -32 -19.5 -51.5t-50.5 -19.5zM50 -240v937h433v-937h-433z
" />
    <glyph glyph-name="Hbar" unicode="&#x126;" 
d="M181 -29q-40 -25 -40 -75q0 -43 27.5 -69.5t71.5 -26.5t71 26.5t27 69.5q0 51 -39 75l31 5q4 0 4 4v14q0 5 -5 5h-180q-3 0 -3 -5v-13q0 -2 3 -5zM240 -173q-32 0 -52 20t-20 51q0 32 20 51.5t52 21.5q32 -2 51 -21.5t19 -51.5t-19.5 -51.5t-50.5 -19.5zM141 120
q0 -43 27.5 -69t71.5 -26t71 26t27 69q0 53 -39 76h39q32 0 50.5 -19.5t18.5 -53.5q-1 -36 -17 -60q-3 -3 2 -6l16 -9h1q1 -1 2 -1t3 3q20 35 20 73q0 45 -26.5 73t-71.5 28l-187 -1q-3 0 -3 -4v-12q0 -3 3 -6l33 -5q-41 -25 -41 -76zM240 52q32 0 51.5 19t19.5 51
q0 33 -19.5 53.5t-51.5 20.5q-31 0 -51 -21t-20 -53q0 -31 19.5 -50.5t51.5 -19.5zM227 265v139q-27 -4 -43 -22.5t-16 -46.5q0 -29 16 -47.5t43 -22.5zM252 265v164q0 3 -4 3q-48 0 -77 -25t-29 -72q0 -44 27 -71t71 -27t71 28t27 74q0 49 -30 76q-2 2 -3 2q-2 0 -4 -2
l-12 -13q-3 -4 1 -7q20 -20 20 -56q0 -30 -16 -50t-42 -24zM240 457q44 0 71 27.5t27 70.5t-27 70t-71 27t-71 -27t-27 -70t27 -70.5t71 -27.5zM240 484q-32 0 -52 20t-20 51t20 50.5t52 19.5t51 -19.5t19 -50.5q0 -32 -19.5 -51.5t-50.5 -19.5zM50 -240v937h433v-937h-433z
" />
    <glyph glyph-name="hbar" unicode="&#x127;" 
d="M181 -29q-40 -25 -40 -75q0 -43 27.5 -69.5t71.5 -26.5t71 26.5t27 69.5q0 51 -39 75l31 5q4 0 4 4v14q0 5 -5 5h-180q-3 0 -3 -5v-13q0 -2 3 -5zM240 -173q-32 0 -52 20t-20 51q0 32 20 51.5t52 21.5q32 -2 51 -21.5t19 -51.5t-19.5 -51.5t-50.5 -19.5zM141 120
q0 -43 27.5 -69t71.5 -26t71 26t27 69q0 53 -39 76h39q32 0 50.5 -19.5t18.5 -53.5q-1 -36 -17 -60q-3 -3 2 -6l16 -9h1q1 -1 2 -1t3 3q20 35 20 73q0 45 -26.5 73t-71.5 28l-187 -1q-3 0 -3 -4v-12q0 -3 3 -6l33 -5q-41 -25 -41 -76zM240 52q32 0 51.5 19t19.5 51
q0 33 -19.5 53.5t-51.5 20.5q-31 0 -51 -21t-20 -53q0 -31 19.5 -50.5t51.5 -19.5zM227 265v139q-27 -4 -43 -22.5t-16 -46.5q0 -29 16 -47.5t43 -22.5zM252 265v164q0 3 -4 3q-48 0 -77 -25t-29 -72q0 -44 27 -71t71 -27t71 28t27 74q0 49 -30 76q-2 2 -3 2q-2 0 -4 -2
l-12 -13q-3 -4 1 -7q20 -20 20 -56q0 -30 -16 -50t-42 -24zM240 457q44 0 71 27.5t27 70.5t-27 70t-71 27t-71 -27t-27 -70t27 -70.5t71 -27.5zM240 484q-32 0 -52 20t-20 51t20 50.5t52 19.5t51 -19.5t19 -50.5q0 -32 -19.5 -51.5t-50.5 -19.5zM50 -240v937h433v-937h-433z
" />
    <glyph glyph-name="Itilde" unicode="&#x128;" 
d="M181 -29q-40 -25 -40 -75q0 -43 27.5 -69.5t71.5 -26.5t71 26.5t27 69.5q0 51 -39 75l31 5q4 0 4 4v14q0 5 -5 5h-180q-3 0 -3 -5v-13q0 -2 3 -5zM240 -173q-32 0 -52 20t-20 51q0 32 20 51.5t52 21.5q32 -2 51 -21.5t19 -51.5t-19.5 -51.5t-50.5 -19.5zM141 120
q0 -43 27.5 -69t71.5 -26t71 26t27 69q0 53 -39 76h39q32 0 50.5 -19.5t18.5 -53.5q-1 -36 -17 -60q-3 -3 2 -6l16 -9h1q1 -1 2 -1t3 3q20 35 20 73q0 45 -26.5 73t-71.5 28l-187 -1q-3 0 -3 -4v-12q0 -3 3 -6l33 -5q-41 -25 -41 -76zM240 52q32 0 51.5 19t19.5 51
q0 33 -19.5 53.5t-51.5 20.5q-31 0 -51 -21t-20 -53q0 -31 19.5 -50.5t51.5 -19.5zM227 265v139q-27 -4 -43 -22.5t-16 -46.5q0 -29 16 -47.5t43 -22.5zM252 265v164q0 3 -4 3q-48 0 -77 -25t-29 -72q0 -44 27 -71t71 -27t71 28t27 74q0 49 -30 76q-2 2 -3 2q-2 0 -4 -2
l-12 -13q-3 -4 1 -7q20 -20 20 -56q0 -30 -16 -50t-42 -24zM240 457q44 0 71 27.5t27 70.5t-27 70t-71 27t-71 -27t-27 -70t27 -70.5t71 -27.5zM240 484q-32 0 -52 20t-20 51t20 50.5t52 19.5t51 -19.5t19 -50.5q0 -32 -19.5 -51.5t-50.5 -19.5zM50 -240v937h433v-937h-433z
" />
    <glyph glyph-name="itilde" unicode="&#x129;" 
d="M181 -29q-40 -25 -40 -75q0 -43 27.5 -69.5t71.5 -26.5t71 26.5t27 69.5q0 51 -39 75l31 5q4 0 4 4v14q0 5 -5 5h-180q-3 0 -3 -5v-13q0 -2 3 -5zM240 -173q-32 0 -52 20t-20 51q0 32 20 51.5t52 21.5q32 -2 51 -21.5t19 -51.5t-19.5 -51.5t-50.5 -19.5zM141 120
q0 -43 27.5 -69t71.5 -26t71 26t27 69q0 53 -39 76h39q32 0 50.5 -19.5t18.5 -53.5q-1 -36 -17 -60q-3 -3 2 -6l16 -9h1q1 -1 2 -1t3 3q20 35 20 73q0 45 -26.5 73t-71.5 28l-187 -1q-3 0 -3 -4v-12q0 -3 3 -6l33 -5q-41 -25 -41 -76zM240 52q32 0 51.5 19t19.5 51
q0 33 -19.5 53.5t-51.5 20.5q-31 0 -51 -21t-20 -53q0 -31 19.5 -50.5t51.5 -19.5zM227 265v139q-27 -4 -43 -22.5t-16 -46.5q0 -29 16 -47.5t43 -22.5zM252 265v164q0 3 -4 3q-48 0 -77 -25t-29 -72q0 -44 27 -71t71 -27t71 28t27 74q0 49 -30 76q-2 2 -3 2q-2 0 -4 -2
l-12 -13q-3 -4 1 -7q20 -20 20 -56q0 -30 -16 -50t-42 -24zM240 457q44 0 71 27.5t27 70.5t-27 70t-71 27t-71 -27t-27 -70t27 -70.5t71 -27.5zM240 484q-32 0 -52 20t-20 51t20 50.5t52 19.5t51 -19.5t19 -50.5q0 -32 -19.5 -51.5t-50.5 -19.5zM50 -240v937h433v-937h-433z
" />
    <glyph glyph-name="Imacron" unicode="&#x12a;" 
d="M181 -29q-40 -25 -40 -75q0 -43 27.5 -69.5t71.5 -26.5t71 26.5t27 69.5q0 51 -39 75l31 5q4 0 4 4v14q0 5 -5 5h-180q-3 0 -3 -5v-13q0 -2 3 -5zM240 -173q-32 0 -52 20t-20 51q0 32 20 51.5t52 21.5q32 -2 51 -21.5t19 -51.5t-19.5 -51.5t-50.5 -19.5zM141 120
q0 -43 27.5 -69t71.5 -26t71 26t27 69q0 53 -39 76h39q32 0 50.5 -19.5t18.5 -53.5q-1 -36 -17 -60q-3 -3 2 -6l16 -9h1q1 -1 2 -1t3 3q20 35 20 73q0 45 -26.5 73t-71.5 28l-187 -1q-3 0 -3 -4v-12q0 -3 3 -6l33 -5q-41 -25 -41 -76zM240 52q32 0 51.5 19t19.5 51
q0 33 -19.5 53.5t-51.5 20.5q-31 0 -51 -21t-20 -53q0 -31 19.5 -50.5t51.5 -19.5zM227 265v139q-27 -4 -43 -22.5t-16 -46.5q0 -29 16 -47.5t43 -22.5zM252 265v164q0 3 -4 3q-48 0 -77 -25t-29 -72q0 -44 27 -71t71 -27t71 28t27 74q0 49 -30 76q-2 2 -3 2q-2 0 -4 -2
l-12 -13q-3 -4 1 -7q20 -20 20 -56q0 -30 -16 -50t-42 -24zM240 457q44 0 71 27.5t27 70.5t-27 70t-71 27t-71 -27t-27 -70t27 -70.5t71 -27.5zM240 484q-32 0 -52 20t-20 51t20 50.5t52 19.5t51 -19.5t19 -50.5q0 -32 -19.5 -51.5t-50.5 -19.5zM50 -240v937h433v-937h-433z
" />
    <glyph glyph-name="imacron" unicode="&#x12b;" 
d="M181 -29q-40 -25 -40 -75q0 -43 27.5 -69.5t71.5 -26.5t71 26.5t27 69.5q0 51 -39 75l31 5q4 0 4 4v14q0 5 -5 5h-180q-3 0 -3 -5v-13q0 -2 3 -5zM240 -173q-32 0 -52 20t-20 51q0 32 20 51.5t52 21.5q32 -2 51 -21.5t19 -51.5t-19.5 -51.5t-50.5 -19.5zM141 120
q0 -43 27.5 -69t71.5 -26t71 26t27 69q0 53 -39 76h39q32 0 50.5 -19.5t18.5 -53.5q-1 -36 -17 -60q-3 -3 2 -6l16 -9h1q1 -1 2 -1t3 3q20 35 20 73q0 45 -26.5 73t-71.5 28l-187 -1q-3 0 -3 -4v-12q0 -3 3 -6l33 -5q-41 -25 -41 -76zM240 52q32 0 51.5 19t19.5 51
q0 33 -19.5 53.5t-51.5 20.5q-31 0 -51 -21t-20 -53q0 -31 19.5 -50.5t51.5 -19.5zM227 265v139q-27 -4 -43 -22.5t-16 -46.5q0 -29 16 -47.5t43 -22.5zM252 265v164q0 3 -4 3q-48 0 -77 -25t-29 -72q0 -44 27 -71t71 -27t71 28t27 74q0 49 -30 76q-2 2 -3 2q-2 0 -4 -2
l-12 -13q-3 -4 1 -7q20 -20 20 -56q0 -30 -16 -50t-42 -24zM240 457q44 0 71 27.5t27 70.5t-27 70t-71 27t-71 -27t-27 -70t27 -70.5t71 -27.5zM240 484q-32 0 -52 20t-20 51t20 50.5t52 19.5t51 -19.5t19 -50.5q0 -32 -19.5 -51.5t-50.5 -19.5zM50 -240v937h433v-937h-433z
" />
    <glyph glyph-name="Iogonek" unicode="&#x12e;" 
d="M181 -29q-40 -25 -40 -75q0 -43 27.5 -69.5t71.5 -26.5t71 26.5t27 69.5q0 51 -39 75l31 5q4 0 4 4v14q0 5 -5 5h-180q-3 0 -3 -5v-13q0 -2 3 -5zM240 -173q-32 0 -52 20t-20 51q0 32 20 51.5t52 21.5q32 -2 51 -21.5t19 -51.5t-19.5 -51.5t-50.5 -19.5zM141 120
q0 -43 27.5 -69t71.5 -26t71 26t27 69q0 53 -39 76h39q32 0 50.5 -19.5t18.5 -53.5q-1 -36 -17 -60q-3 -3 2 -6l16 -9h1q1 -1 2 -1t3 3q20 35 20 73q0 45 -26.5 73t-71.5 28l-187 -1q-3 0 -3 -4v-12q0 -3 3 -6l33 -5q-41 -25 -41 -76zM240 52q32 0 51.5 19t19.5 51
q0 33 -19.5 53.5t-51.5 20.5q-31 0 -51 -21t-20 -53q0 -31 19.5 -50.5t51.5 -19.5zM227 265v139q-27 -4 -43 -22.5t-16 -46.5q0 -29 16 -47.5t43 -22.5zM252 265v164q0 3 -4 3q-48 0 -77 -25t-29 -72q0 -44 27 -71t71 -27t71 28t27 74q0 49 -30 76q-2 2 -3 2q-2 0 -4 -2
l-12 -13q-3 -4 1 -7q20 -20 20 -56q0 -30 -16 -50t-42 -24zM240 457q44 0 71 27.5t27 70.5t-27 70t-71 27t-71 -27t-27 -70t27 -70.5t71 -27.5zM240 484q-32 0 -52 20t-20 51t20 50.5t52 19.5t51 -19.5t19 -50.5q0 -32 -19.5 -51.5t-50.5 -19.5zM50 -240v937h433v-937h-433z
" />
    <glyph glyph-name="iogonek" unicode="&#x12f;" 
d="M181 -29q-40 -25 -40 -75q0 -43 27.5 -69.5t71.5 -26.5t71 26.5t27 69.5q0 51 -39 75l31 5q4 0 4 4v14q0 5 -5 5h-180q-3 0 -3 -5v-13q0 -2 3 -5zM240 -173q-32 0 -52 20t-20 51q0 32 20 51.5t52 21.5q32 -2 51 -21.5t19 -51.5t-19.5 -51.5t-50.5 -19.5zM141 120
q0 -43 27.5 -69t71.5 -26t71 26t27 69q0 53 -39 76h39q32 0 50.5 -19.5t18.5 -53.5q-1 -36 -17 -60q-3 -3 2 -6l16 -9h1q1 -1 2 -1t3 3q20 35 20 73q0 45 -26.5 73t-71.5 28l-187 -1q-3 0 -3 -4v-12q0 -3 3 -6l33 -5q-41 -25 -41 -76zM240 52q32 0 51.5 19t19.5 51
q0 33 -19.5 53.5t-51.5 20.5q-31 0 -51 -21t-20 -53q0 -31 19.5 -50.5t51.5 -19.5zM227 265v139q-27 -4 -43 -22.5t-16 -46.5q0 -29 16 -47.5t43 -22.5zM252 265v164q0 3 -4 3q-48 0 -77 -25t-29 -72q0 -44 27 -71t71 -27t71 28t27 74q0 49 -30 76q-2 2 -3 2q-2 0 -4 -2
l-12 -13q-3 -4 1 -7q20 -20 20 -56q0 -30 -16 -50t-42 -24zM240 457q44 0 71 27.5t27 70.5t-27 70t-71 27t-71 -27t-27 -70t27 -70.5t71 -27.5zM240 484q-32 0 -52 20t-20 51t20 50.5t52 19.5t51 -19.5t19 -50.5q0 -32 -19.5 -51.5t-50.5 -19.5zM50 -240v937h433v-937h-433z
" />
    <glyph glyph-name="Idotaccent" unicode="&#x130;" 
d="M181 -29q-40 -25 -40 -75q0 -43 27.5 -69.5t71.5 -26.5t71 26.5t27 69.5q0 51 -39 75l31 5q4 0 4 4v14q0 5 -5 5h-180q-3 0 -3 -5v-13q0 -2 3 -5zM240 -173q-32 0 -52 20t-20 51q0 32 20 51.5t52 21.5q32 -2 51 -21.5t19 -51.5t-19.5 -51.5t-50.5 -19.5zM141 120
q0 -43 27.5 -69t71.5 -26t71 26t27 69q0 53 -39 76h39q32 0 50.5 -19.5t18.5 -53.5q-1 -36 -17 -60q-3 -3 2 -6l16 -9h1q1 -1 2 -1t3 3q20 35 20 73q0 45 -26.5 73t-71.5 28l-187 -1q-3 0 -3 -4v-12q0 -3 3 -6l33 -5q-41 -25 -41 -76zM240 52q32 0 51.5 19t19.5 51
q0 33 -19.5 53.5t-51.5 20.5q-31 0 -51 -21t-20 -53q0 -31 19.5 -50.5t51.5 -19.5zM227 265v139q-27 -4 -43 -22.5t-16 -46.5q0 -29 16 -47.5t43 -22.5zM252 265v164q0 3 -4 3q-48 0 -77 -25t-29 -72q0 -44 27 -71t71 -27t71 28t27 74q0 49 -30 76q-2 2 -3 2q-2 0 -4 -2
l-12 -13q-3 -4 1 -7q20 -20 20 -56q0 -30 -16 -50t-42 -24zM240 457q44 0 71 27.5t27 70.5t-27 70t-71 27t-71 -27t-27 -70t27 -70.5t71 -27.5zM240 484q-32 0 -52 20t-20 51t20 50.5t52 19.5t51 -19.5t19 -50.5q0 -32 -19.5 -51.5t-50.5 -19.5zM50 -240v937h433v-937h-433z
" />
    <glyph glyph-name="dotlessi" unicode="&#x131;" horiz-adv-x="207" 
d="M125 434v-425q0 -9 -9 -9h-25q-8 0 -8 9v425q0 9 8 9h25q9 0 9 -9z" />
    <glyph glyph-name="IJ" unicode="&#x132;" 
d="M181 -29q-40 -25 -40 -75q0 -43 27.5 -69.5t71.5 -26.5t71 26.5t27 69.5q0 51 -39 75l31 5q4 0 4 4v14q0 5 -5 5h-180q-3 0 -3 -5v-13q0 -2 3 -5zM240 -173q-32 0 -52 20t-20 51q0 32 20 51.5t52 21.5q32 -2 51 -21.5t19 -51.5t-19.5 -51.5t-50.5 -19.5zM141 120
q0 -43 27.5 -69t71.5 -26t71 26t27 69q0 53 -39 76h39q32 0 50.5 -19.5t18.5 -53.5q-1 -36 -17 -60q-3 -3 2 -6l16 -9h1q1 -1 2 -1t3 3q20 35 20 73q0 45 -26.5 73t-71.5 28l-187 -1q-3 0 -3 -4v-12q0 -3 3 -6l33 -5q-41 -25 -41 -76zM240 52q32 0 51.5 19t19.5 51
q0 33 -19.5 53.5t-51.5 20.5q-31 0 -51 -21t-20 -53q0 -31 19.5 -50.5t51.5 -19.5zM227 265v139q-27 -4 -43 -22.5t-16 -46.5q0 -29 16 -47.5t43 -22.5zM252 265v164q0 3 -4 3q-48 0 -77 -25t-29 -72q0 -44 27 -71t71 -27t71 28t27 74q0 49 -30 76q-2 2 -3 2q-2 0 -4 -2
l-12 -13q-3 -4 1 -7q20 -20 20 -56q0 -30 -16 -50t-42 -24zM240 457q44 0 71 27.5t27 70.5t-27 70t-71 27t-71 -27t-27 -70t27 -70.5t71 -27.5zM240 484q-32 0 -52 20t-20 51t20 50.5t52 19.5t51 -19.5t19 -50.5q0 -32 -19.5 -51.5t-50.5 -19.5zM50 -240v937h433v-937h-433z
" />
    <glyph glyph-name="ij" unicode="&#x133;" 
d="M181 -29q-40 -25 -40 -75q0 -43 27.5 -69.5t71.5 -26.5t71 26.5t27 69.5q0 51 -39 75l31 5q4 0 4 4v14q0 5 -5 5h-180q-3 0 -3 -5v-13q0 -2 3 -5zM240 -173q-32 0 -52 20t-20 51q0 32 20 51.5t52 21.5q32 -2 51 -21.5t19 -51.5t-19.5 -51.5t-50.5 -19.5zM141 120
q0 -43 27.5 -69t71.5 -26t71 26t27 69q0 53 -39 76h39q32 0 50.5 -19.5t18.5 -53.5q-1 -36 -17 -60q-3 -3 2 -6l16 -9h1q1 -1 2 -1t3 3q20 35 20 73q0 45 -26.5 73t-71.5 28l-187 -1q-3 0 -3 -4v-12q0 -3 3 -6l33 -5q-41 -25 -41 -76zM240 52q32 0 51.5 19t19.5 51
q0 33 -19.5 53.5t-51.5 20.5q-31 0 -51 -21t-20 -53q0 -31 19.5 -50.5t51.5 -19.5zM227 265v139q-27 -4 -43 -22.5t-16 -46.5q0 -29 16 -47.5t43 -22.5zM252 265v164q0 3 -4 3q-48 0 -77 -25t-29 -72q0 -44 27 -71t71 -27t71 28t27 74q0 49 -30 76q-2 2 -3 2q-2 0 -4 -2
l-12 -13q-3 -4 1 -7q20 -20 20 -56q0 -30 -16 -50t-42 -24zM240 457q44 0 71 27.5t27 70.5t-27 70t-71 27t-71 -27t-27 -70t27 -70.5t71 -27.5zM240 484q-32 0 -52 20t-20 51t20 50.5t52 19.5t51 -19.5t19 -50.5q0 -32 -19.5 -51.5t-50.5 -19.5zM50 -240v937h433v-937h-433z
" />
    <glyph glyph-name="Jcircumflex" unicode="&#x134;" 
d="M181 -29q-40 -25 -40 -75q0 -43 27.5 -69.5t71.5 -26.5t71 26.5t27 69.5q0 51 -39 75l31 5q4 0 4 4v14q0 5 -5 5h-180q-3 0 -3 -5v-13q0 -2 3 -5zM240 -173q-32 0 -52 20t-20 51q0 32 20 51.5t52 21.5q32 -2 51 -21.5t19 -51.5t-19.5 -51.5t-50.5 -19.5zM141 120
q0 -43 27.5 -69t71.5 -26t71 26t27 69q0 53 -39 76h39q32 0 50.5 -19.5t18.5 -53.5q-1 -36 -17 -60q-3 -3 2 -6l16 -9h1q1 -1 2 -1t3 3q20 35 20 73q0 45 -26.5 73t-71.5 28l-187 -1q-3 0 -3 -4v-12q0 -3 3 -6l33 -5q-41 -25 -41 -76zM240 52q32 0 51.5 19t19.5 51
q0 33 -19.5 53.5t-51.5 20.5q-31 0 -51 -21t-20 -53q0 -31 19.5 -50.5t51.5 -19.5zM227 265v139q-27 -4 -43 -22.5t-16 -46.5q0 -29 16 -47.5t43 -22.5zM252 265v164q0 3 -4 3q-48 0 -77 -25t-29 -72q0 -44 27 -71t71 -27t71 28t27 74q0 49 -30 76q-2 2 -3 2q-2 0 -4 -2
l-12 -13q-3 -4 1 -7q20 -20 20 -56q0 -30 -16 -50t-42 -24zM240 457q44 0 71 27.5t27 70.5t-27 70t-71 27t-71 -27t-27 -70t27 -70.5t71 -27.5zM240 484q-32 0 -52 20t-20 51t20 50.5t52 19.5t51 -19.5t19 -50.5q0 -32 -19.5 -51.5t-50.5 -19.5zM50 -240v937h433v-937h-433z
" />
    <glyph glyph-name="jcircumflex" unicode="&#x135;" 
d="M181 -29q-40 -25 -40 -75q0 -43 27.5 -69.5t71.5 -26.5t71 26.5t27 69.5q0 51 -39 75l31 5q4 0 4 4v14q0 5 -5 5h-180q-3 0 -3 -5v-13q0 -2 3 -5zM240 -173q-32 0 -52 20t-20 51q0 32 20 51.5t52 21.5q32 -2 51 -21.5t19 -51.5t-19.5 -51.5t-50.5 -19.5zM141 120
q0 -43 27.5 -69t71.5 -26t71 26t27 69q0 53 -39 76h39q32 0 50.5 -19.5t18.5 -53.5q-1 -36 -17 -60q-3 -3 2 -6l16 -9h1q1 -1 2 -1t3 3q20 35 20 73q0 45 -26.5 73t-71.5 28l-187 -1q-3 0 -3 -4v-12q0 -3 3 -6l33 -5q-41 -25 -41 -76zM240 52q32 0 51.5 19t19.5 51
q0 33 -19.5 53.5t-51.5 20.5q-31 0 -51 -21t-20 -53q0 -31 19.5 -50.5t51.5 -19.5zM227 265v139q-27 -4 -43 -22.5t-16 -46.5q0 -29 16 -47.5t43 -22.5zM252 265v164q0 3 -4 3q-48 0 -77 -25t-29 -72q0 -44 27 -71t71 -27t71 28t27 74q0 49 -30 76q-2 2 -3 2q-2 0 -4 -2
l-12 -13q-3 -4 1 -7q20 -20 20 -56q0 -30 -16 -50t-42 -24zM240 457q44 0 71 27.5t27 70.5t-27 70t-71 27t-71 -27t-27 -70t27 -70.5t71 -27.5zM240 484q-32 0 -52 20t-20 51t20 50.5t52 19.5t51 -19.5t19 -50.5q0 -32 -19.5 -51.5t-50.5 -19.5zM50 -240v937h433v-937h-433z
" />
    <glyph glyph-name="uni0136" unicode="&#x136;" 
d="M181 -29q-40 -25 -40 -75q0 -43 27.5 -69.5t71.5 -26.5t71 26.5t27 69.5q0 51 -39 75l31 5q4 0 4 4v14q0 5 -5 5h-180q-3 0 -3 -5v-13q0 -2 3 -5zM240 -173q-32 0 -52 20t-20 51q0 32 20 51.5t52 21.5q32 -2 51 -21.5t19 -51.5t-19.5 -51.5t-50.5 -19.5zM141 120
q0 -43 27.5 -69t71.5 -26t71 26t27 69q0 53 -39 76h39q32 0 50.5 -19.5t18.5 -53.5q-1 -36 -17 -60q-3 -3 2 -6l16 -9h1q1 -1 2 -1t3 3q20 35 20 73q0 45 -26.5 73t-71.5 28l-187 -1q-3 0 -3 -4v-12q0 -3 3 -6l33 -5q-41 -25 -41 -76zM240 52q32 0 51.5 19t19.5 51
q0 33 -19.5 53.5t-51.5 20.5q-31 0 -51 -21t-20 -53q0 -31 19.5 -50.5t51.5 -19.5zM227 265v139q-27 -4 -43 -22.5t-16 -46.5q0 -29 16 -47.5t43 -22.5zM252 265v164q0 3 -4 3q-48 0 -77 -25t-29 -72q0 -44 27 -71t71 -27t71 28t27 74q0 49 -30 76q-2 2 -3 2q-2 0 -4 -2
l-12 -13q-3 -4 1 -7q20 -20 20 -56q0 -30 -16 -50t-42 -24zM240 457q44 0 71 27.5t27 70.5t-27 70t-71 27t-71 -27t-27 -70t27 -70.5t71 -27.5zM240 484q-32 0 -52 20t-20 51t20 50.5t52 19.5t51 -19.5t19 -50.5q0 -32 -19.5 -51.5t-50.5 -19.5zM50 -240v937h433v-937h-433z
" />
    <glyph glyph-name="uni0137" unicode="&#x137;" 
d="M181 -29q-40 -25 -40 -75q0 -43 27.5 -69.5t71.5 -26.5t71 26.5t27 69.5q0 51 -39 75l31 5q4 0 4 4v14q0 5 -5 5h-180q-3 0 -3 -5v-13q0 -2 3 -5zM240 -173q-32 0 -52 20t-20 51q0 32 20 51.5t52 21.5q32 -2 51 -21.5t19 -51.5t-19.5 -51.5t-50.5 -19.5zM141 120
q0 -43 27.5 -69t71.5 -26t71 26t27 69q0 53 -39 76h39q32 0 50.5 -19.5t18.5 -53.5q-1 -36 -17 -60q-3 -3 2 -6l16 -9h1q1 -1 2 -1t3 3q20 35 20 73q0 45 -26.5 73t-71.5 28l-187 -1q-3 0 -3 -4v-12q0 -3 3 -6l33 -5q-41 -25 -41 -76zM240 52q32 0 51.5 19t19.5 51
q0 33 -19.5 53.5t-51.5 20.5q-31 0 -51 -21t-20 -53q0 -31 19.5 -50.5t51.5 -19.5zM227 265v139q-27 -4 -43 -22.5t-16 -46.5q0 -29 16 -47.5t43 -22.5zM252 265v164q0 3 -4 3q-48 0 -77 -25t-29 -72q0 -44 27 -71t71 -27t71 28t27 74q0 49 -30 76q-2 2 -3 2q-2 0 -4 -2
l-12 -13q-3 -4 1 -7q20 -20 20 -56q0 -30 -16 -50t-42 -24zM240 457q44 0 71 27.5t27 70.5t-27 70t-71 27t-71 -27t-27 -70t27 -70.5t71 -27.5zM240 484q-32 0 -52 20t-20 51t20 50.5t52 19.5t51 -19.5t19 -50.5q0 -32 -19.5 -51.5t-50.5 -19.5zM50 -240v937h433v-937h-433z
" />
    <glyph glyph-name="kgreenlandic" unicode="&#x138;" 
d="M181 -29q-40 -25 -40 -75q0 -43 27.5 -69.5t71.5 -26.5t71 26.5t27 69.5q0 51 -39 75l31 5q4 0 4 4v14q0 5 -5 5h-180q-3 0 -3 -5v-13q0 -2 3 -5zM240 -173q-32 0 -52 20t-20 51q0 32 20 51.5t52 21.5q32 -2 51 -21.5t19 -51.5t-19.5 -51.5t-50.5 -19.5zM141 120
q0 -43 27.5 -69t71.5 -26t71 26t27 69q0 53 -39 76h39q32 0 50.5 -19.5t18.5 -53.5q-1 -36 -17 -60q-3 -3 2 -6l16 -9h1q1 -1 2 -1t3 3q20 35 20 73q0 45 -26.5 73t-71.5 28l-187 -1q-3 0 -3 -4v-12q0 -3 3 -6l33 -5q-41 -25 -41 -76zM240 52q32 0 51.5 19t19.5 51
q0 33 -19.5 53.5t-51.5 20.5q-31 0 -51 -21t-20 -53q0 -31 19.5 -50.5t51.5 -19.5zM227 265v139q-27 -4 -43 -22.5t-16 -46.5q0 -29 16 -47.5t43 -22.5zM252 265v164q0 3 -4 3q-48 0 -77 -25t-29 -72q0 -44 27 -71t71 -27t71 28t27 74q0 49 -30 76q-2 2 -3 2q-2 0 -4 -2
l-12 -13q-3 -4 1 -7q20 -20 20 -56q0 -30 -16 -50t-42 -24zM240 457q44 0 71 27.5t27 70.5t-27 70t-71 27t-71 -27t-27 -70t27 -70.5t71 -27.5zM240 484q-32 0 -52 20t-20 51t20 50.5t52 19.5t51 -19.5t19 -50.5q0 -32 -19.5 -51.5t-50.5 -19.5zM50 -240v937h433v-937h-433z
" />
    <glyph glyph-name="Lacute" unicode="&#x139;" 
d="M181 -29q-40 -25 -40 -75q0 -43 27.5 -69.5t71.5 -26.5t71 26.5t27 69.5q0 51 -39 75l31 5q4 0 4 4v14q0 5 -5 5h-180q-3 0 -3 -5v-13q0 -2 3 -5zM240 -173q-32 0 -52 20t-20 51q0 32 20 51.5t52 21.5q32 -2 51 -21.5t19 -51.5t-19.5 -51.5t-50.5 -19.5zM141 120
q0 -43 27.5 -69t71.5 -26t71 26t27 69q0 53 -39 76h39q32 0 50.5 -19.5t18.5 -53.5q-1 -36 -17 -60q-3 -3 2 -6l16 -9h1q1 -1 2 -1t3 3q20 35 20 73q0 45 -26.5 73t-71.5 28l-187 -1q-3 0 -3 -4v-12q0 -3 3 -6l33 -5q-41 -25 -41 -76zM240 52q32 0 51.5 19t19.5 51
q0 33 -19.5 53.5t-51.5 20.5q-31 0 -51 -21t-20 -53q0 -31 19.5 -50.5t51.5 -19.5zM227 265v139q-27 -4 -43 -22.5t-16 -46.5q0 -29 16 -47.5t43 -22.5zM252 265v164q0 3 -4 3q-48 0 -77 -25t-29 -72q0 -44 27 -71t71 -27t71 28t27 74q0 49 -30 76q-2 2 -3 2q-2 0 -4 -2
l-12 -13q-3 -4 1 -7q20 -20 20 -56q0 -30 -16 -50t-42 -24zM240 457q44 0 71 27.5t27 70.5t-27 70t-71 27t-71 -27t-27 -70t27 -70.5t71 -27.5zM240 484q-32 0 -52 20t-20 51t20 50.5t52 19.5t51 -19.5t19 -50.5q0 -32 -19.5 -51.5t-50.5 -19.5zM50 -240v937h433v-937h-433z
" />
    <glyph glyph-name="lacute" unicode="&#x13a;" 
d="M181 -29q-40 -25 -40 -75q0 -43 27.5 -69.5t71.5 -26.5t71 26.5t27 69.5q0 51 -39 75l31 5q4 0 4 4v14q0 5 -5 5h-180q-3 0 -3 -5v-13q0 -2 3 -5zM240 -173q-32 0 -52 20t-20 51q0 32 20 51.5t52 21.5q32 -2 51 -21.5t19 -51.5t-19.5 -51.5t-50.5 -19.5zM141 120
q0 -43 27.5 -69t71.5 -26t71 26t27 69q0 53 -39 76h39q32 0 50.5 -19.5t18.5 -53.5q-1 -36 -17 -60q-3 -3 2 -6l16 -9h1q1 -1 2 -1t3 3q20 35 20 73q0 45 -26.5 73t-71.5 28l-187 -1q-3 0 -3 -4v-12q0 -3 3 -6l33 -5q-41 -25 -41 -76zM240 52q32 0 51.5 19t19.5 51
q0 33 -19.5 53.5t-51.5 20.5q-31 0 -51 -21t-20 -53q0 -31 19.5 -50.5t51.5 -19.5zM227 265v139q-27 -4 -43 -22.5t-16 -46.5q0 -29 16 -47.5t43 -22.5zM252 265v164q0 3 -4 3q-48 0 -77 -25t-29 -72q0 -44 27 -71t71 -27t71 28t27 74q0 49 -30 76q-2 2 -3 2q-2 0 -4 -2
l-12 -13q-3 -4 1 -7q20 -20 20 -56q0 -30 -16 -50t-42 -24zM240 457q44 0 71 27.5t27 70.5t-27 70t-71 27t-71 -27t-27 -70t27 -70.5t71 -27.5zM240 484q-32 0 -52 20t-20 51t20 50.5t52 19.5t51 -19.5t19 -50.5q0 -32 -19.5 -51.5t-50.5 -19.5zM50 -240v937h433v-937h-433z
" />
    <glyph glyph-name="uni013B" unicode="&#x13b;" 
d="M181 -29q-40 -25 -40 -75q0 -43 27.5 -69.5t71.5 -26.5t71 26.5t27 69.5q0 51 -39 75l31 5q4 0 4 4v14q0 5 -5 5h-180q-3 0 -3 -5v-13q0 -2 3 -5zM240 -173q-32 0 -52 20t-20 51q0 32 20 51.5t52 21.5q32 -2 51 -21.5t19 -51.5t-19.5 -51.5t-50.5 -19.5zM141 120
q0 -43 27.5 -69t71.5 -26t71 26t27 69q0 53 -39 76h39q32 0 50.5 -19.5t18.5 -53.5q-1 -36 -17 -60q-3 -3 2 -6l16 -9h1q1 -1 2 -1t3 3q20 35 20 73q0 45 -26.5 73t-71.5 28l-187 -1q-3 0 -3 -4v-12q0 -3 3 -6l33 -5q-41 -25 -41 -76zM240 52q32 0 51.5 19t19.5 51
q0 33 -19.5 53.5t-51.5 20.5q-31 0 -51 -21t-20 -53q0 -31 19.5 -50.5t51.5 -19.5zM227 265v139q-27 -4 -43 -22.5t-16 -46.5q0 -29 16 -47.5t43 -22.5zM252 265v164q0 3 -4 3q-48 0 -77 -25t-29 -72q0 -44 27 -71t71 -27t71 28t27 74q0 49 -30 76q-2 2 -3 2q-2 0 -4 -2
l-12 -13q-3 -4 1 -7q20 -20 20 -56q0 -30 -16 -50t-42 -24zM240 457q44 0 71 27.5t27 70.5t-27 70t-71 27t-71 -27t-27 -70t27 -70.5t71 -27.5zM240 484q-32 0 -52 20t-20 51t20 50.5t52 19.5t51 -19.5t19 -50.5q0 -32 -19.5 -51.5t-50.5 -19.5zM50 -240v937h433v-937h-433z
" />
    <glyph glyph-name="uni013C" unicode="&#x13c;" 
d="M181 -29q-40 -25 -40 -75q0 -43 27.5 -69.5t71.5 -26.5t71 26.5t27 69.5q0 51 -39 75l31 5q4 0 4 4v14q0 5 -5 5h-180q-3 0 -3 -5v-13q0 -2 3 -5zM240 -173q-32 0 -52 20t-20 51q0 32 20 51.5t52 21.5q32 -2 51 -21.5t19 -51.5t-19.5 -51.5t-50.5 -19.5zM141 120
q0 -43 27.5 -69t71.5 -26t71 26t27 69q0 53 -39 76h39q32 0 50.5 -19.5t18.5 -53.5q-1 -36 -17 -60q-3 -3 2 -6l16 -9h1q1 -1 2 -1t3 3q20 35 20 73q0 45 -26.5 73t-71.5 28l-187 -1q-3 0 -3 -4v-12q0 -3 3 -6l33 -5q-41 -25 -41 -76zM240 52q32 0 51.5 19t19.5 51
q0 33 -19.5 53.5t-51.5 20.5q-31 0 -51 -21t-20 -53q0 -31 19.5 -50.5t51.5 -19.5zM227 265v139q-27 -4 -43 -22.5t-16 -46.5q0 -29 16 -47.5t43 -22.5zM252 265v164q0 3 -4 3q-48 0 -77 -25t-29 -72q0 -44 27 -71t71 -27t71 28t27 74q0 49 -30 76q-2 2 -3 2q-2 0 -4 -2
l-12 -13q-3 -4 1 -7q20 -20 20 -56q0 -30 -16 -50t-42 -24zM240 457q44 0 71 27.5t27 70.5t-27 70t-71 27t-71 -27t-27 -70t27 -70.5t71 -27.5zM240 484q-32 0 -52 20t-20 51t20 50.5t52 19.5t51 -19.5t19 -50.5q0 -32 -19.5 -51.5t-50.5 -19.5zM50 -240v937h433v-937h-433z
" />
    <glyph glyph-name="Lcaron" unicode="&#x13d;" 
d="M181 -29q-40 -25 -40 -75q0 -43 27.5 -69.5t71.5 -26.5t71 26.5t27 69.5q0 51 -39 75l31 5q4 0 4 4v14q0 5 -5 5h-180q-3 0 -3 -5v-13q0 -2 3 -5zM240 -173q-32 0 -52 20t-20 51q0 32 20 51.5t52 21.5q32 -2 51 -21.5t19 -51.5t-19.5 -51.5t-50.5 -19.5zM141 120
q0 -43 27.5 -69t71.5 -26t71 26t27 69q0 53 -39 76h39q32 0 50.5 -19.5t18.5 -53.5q-1 -36 -17 -60q-3 -3 2 -6l16 -9h1q1 -1 2 -1t3 3q20 35 20 73q0 45 -26.5 73t-71.5 28l-187 -1q-3 0 -3 -4v-12q0 -3 3 -6l33 -5q-41 -25 -41 -76zM240 52q32 0 51.5 19t19.5 51
q0 33 -19.5 53.5t-51.5 20.5q-31 0 -51 -21t-20 -53q0 -31 19.5 -50.5t51.5 -19.5zM227 265v139q-27 -4 -43 -22.5t-16 -46.5q0 -29 16 -47.5t43 -22.5zM252 265v164q0 3 -4 3q-48 0 -77 -25t-29 -72q0 -44 27 -71t71 -27t71 28t27 74q0 49 -30 76q-2 2 -3 2q-2 0 -4 -2
l-12 -13q-3 -4 1 -7q20 -20 20 -56q0 -30 -16 -50t-42 -24zM240 457q44 0 71 27.5t27 70.5t-27 70t-71 27t-71 -27t-27 -70t27 -70.5t71 -27.5zM240 484q-32 0 -52 20t-20 51t20 50.5t52 19.5t51 -19.5t19 -50.5q0 -32 -19.5 -51.5t-50.5 -19.5zM50 -240v937h433v-937h-433z
" />
    <glyph glyph-name="lcaron" unicode="&#x13e;" 
d="M181 -29q-40 -25 -40 -75q0 -43 27.5 -69.5t71.5 -26.5t71 26.5t27 69.5q0 51 -39 75l31 5q4 0 4 4v14q0 5 -5 5h-180q-3 0 -3 -5v-13q0 -2 3 -5zM240 -173q-32 0 -52 20t-20 51q0 32 20 51.5t52 21.5q32 -2 51 -21.5t19 -51.5t-19.5 -51.5t-50.5 -19.5zM141 120
q0 -43 27.5 -69t71.5 -26t71 26t27 69q0 53 -39 76h39q32 0 50.5 -19.5t18.5 -53.5q-1 -36 -17 -60q-3 -3 2 -6l16 -9h1q1 -1 2 -1t3 3q20 35 20 73q0 45 -26.5 73t-71.5 28l-187 -1q-3 0 -3 -4v-12q0 -3 3 -6l33 -5q-41 -25 -41 -76zM240 52q32 0 51.5 19t19.5 51
q0 33 -19.5 53.5t-51.5 20.5q-31 0 -51 -21t-20 -53q0 -31 19.5 -50.5t51.5 -19.5zM227 265v139q-27 -4 -43 -22.5t-16 -46.5q0 -29 16 -47.5t43 -22.5zM252 265v164q0 3 -4 3q-48 0 -77 -25t-29 -72q0 -44 27 -71t71 -27t71 28t27 74q0 49 -30 76q-2 2 -3 2q-2 0 -4 -2
l-12 -13q-3 -4 1 -7q20 -20 20 -56q0 -30 -16 -50t-42 -24zM240 457q44 0 71 27.5t27 70.5t-27 70t-71 27t-71 -27t-27 -70t27 -70.5t71 -27.5zM240 484q-32 0 -52 20t-20 51t20 50.5t52 19.5t51 -19.5t19 -50.5q0 -32 -19.5 -51.5t-50.5 -19.5zM50 -240v937h433v-937h-433z
" />
    <glyph glyph-name="Ldot" unicode="&#x13f;" 
d="M181 -29q-40 -25 -40 -75q0 -43 27.5 -69.5t71.5 -26.5t71 26.5t27 69.5q0 51 -39 75l31 5q4 0 4 4v14q0 5 -5 5h-180q-3 0 -3 -5v-13q0 -2 3 -5zM240 -173q-32 0 -52 20t-20 51q0 32 20 51.5t52 21.5q32 -2 51 -21.5t19 -51.5t-19.5 -51.5t-50.5 -19.5zM141 120
q0 -43 27.5 -69t71.5 -26t71 26t27 69q0 53 -39 76h39q32 0 50.5 -19.5t18.5 -53.5q-1 -36 -17 -60q-3 -3 2 -6l16 -9h1q1 -1 2 -1t3 3q20 35 20 73q0 45 -26.5 73t-71.5 28l-187 -1q-3 0 -3 -4v-12q0 -3 3 -6l33 -5q-41 -25 -41 -76zM240 52q32 0 51.5 19t19.5 51
q0 33 -19.5 53.5t-51.5 20.5q-31 0 -51 -21t-20 -53q0 -31 19.5 -50.5t51.5 -19.5zM227 265v139q-27 -4 -43 -22.5t-16 -46.5q0 -29 16 -47.5t43 -22.5zM252 265v164q0 3 -4 3q-48 0 -77 -25t-29 -72q0 -44 27 -71t71 -27t71 28t27 74q0 49 -30 76q-2 2 -3 2q-2 0 -4 -2
l-12 -13q-3 -4 1 -7q20 -20 20 -56q0 -30 -16 -50t-42 -24zM240 457q44 0 71 27.5t27 70.5t-27 70t-71 27t-71 -27t-27 -70t27 -70.5t71 -27.5zM240 484q-32 0 -52 20t-20 51t20 50.5t52 19.5t51 -19.5t19 -50.5q0 -32 -19.5 -51.5t-50.5 -19.5zM50 -240v937h433v-937h-433z
" />
    <glyph glyph-name="ldot" unicode="&#x140;" 
d="M181 -29q-40 -25 -40 -75q0 -43 27.5 -69.5t71.5 -26.5t71 26.5t27 69.5q0 51 -39 75l31 5q4 0 4 4v14q0 5 -5 5h-180q-3 0 -3 -5v-13q0 -2 3 -5zM240 -173q-32 0 -52 20t-20 51q0 32 20 51.5t52 21.5q32 -2 51 -21.5t19 -51.5t-19.5 -51.5t-50.5 -19.5zM141 120
q0 -43 27.5 -69t71.5 -26t71 26t27 69q0 53 -39 76h39q32 0 50.5 -19.5t18.5 -53.5q-1 -36 -17 -60q-3 -3 2 -6l16 -9h1q1 -1 2 -1t3 3q20 35 20 73q0 45 -26.5 73t-71.5 28l-187 -1q-3 0 -3 -4v-12q0 -3 3 -6l33 -5q-41 -25 -41 -76zM240 52q32 0 51.5 19t19.5 51
q0 33 -19.5 53.5t-51.5 20.5q-31 0 -51 -21t-20 -53q0 -31 19.5 -50.5t51.5 -19.5zM227 265v139q-27 -4 -43 -22.5t-16 -46.5q0 -29 16 -47.5t43 -22.5zM252 265v164q0 3 -4 3q-48 0 -77 -25t-29 -72q0 -44 27 -71t71 -27t71 28t27 74q0 49 -30 76q-2 2 -3 2q-2 0 -4 -2
l-12 -13q-3 -4 1 -7q20 -20 20 -56q0 -30 -16 -50t-42 -24zM240 457q44 0 71 27.5t27 70.5t-27 70t-71 27t-71 -27t-27 -70t27 -70.5t71 -27.5zM240 484q-32 0 -52 20t-20 51t20 50.5t52 19.5t51 -19.5t19 -50.5q0 -32 -19.5 -51.5t-50.5 -19.5zM50 -240v937h433v-937h-433z
" />
    <glyph glyph-name="Lslash" unicode="&#x141;" horiz-adv-x="451" 
d="M44 289q0 8 8 12l41 18v366q0 9 9 9h27q9 0 9 -9v-347l186 80h1q1 1 2 1q5 0 5 -6v-28q0 -8 -8 -13l-186 -80v-250h275q9 0 9 -9v-25q0 -8 -9 -8h-311q-9 0 -9 9v264l-41 -18q-2 -1 -4 -1q-4 0 -4 6v29z" />
    <glyph glyph-name="lslash" unicode="&#x142;" horiz-adv-x="207" 
d="M116 722q8 0 8 -8v-361l90 43q1 1 3 1q5 0 5 -6v-28q0 -8 -8 -13l-90 -42v-300q0 -8 -8 -8h-25q-8 0 -8 8v280l-87 -42h-2l-2 -1q-5 0 -5 7v27q0 9 9 13l87 42v380q0 8 8 8h25z" />
    <glyph glyph-name="Nacute" unicode="&#x143;" 
d="M181 -29q-40 -25 -40 -75q0 -43 27.5 -69.5t71.5 -26.5t71 26.5t27 69.5q0 51 -39 75l31 5q4 0 4 4v14q0 5 -5 5h-180q-3 0 -3 -5v-13q0 -2 3 -5zM240 -173q-32 0 -52 20t-20 51q0 32 20 51.5t52 21.5q32 -2 51 -21.5t19 -51.5t-19.5 -51.5t-50.5 -19.5zM141 120
q0 -43 27.5 -69t71.5 -26t71 26t27 69q0 53 -39 76h39q32 0 50.5 -19.5t18.5 -53.5q-1 -36 -17 -60q-3 -3 2 -6l16 -9h1q1 -1 2 -1t3 3q20 35 20 73q0 45 -26.5 73t-71.5 28l-187 -1q-3 0 -3 -4v-12q0 -3 3 -6l33 -5q-41 -25 -41 -76zM240 52q32 0 51.5 19t19.5 51
q0 33 -19.5 53.5t-51.5 20.5q-31 0 -51 -21t-20 -53q0 -31 19.5 -50.5t51.5 -19.5zM227 265v139q-27 -4 -43 -22.5t-16 -46.5q0 -29 16 -47.5t43 -22.5zM252 265v164q0 3 -4 3q-48 0 -77 -25t-29 -72q0 -44 27 -71t71 -27t71 28t27 74q0 49 -30 76q-2 2 -3 2q-2 0 -4 -2
l-12 -13q-3 -4 1 -7q20 -20 20 -56q0 -30 -16 -50t-42 -24zM240 457q44 0 71 27.5t27 70.5t-27 70t-71 27t-71 -27t-27 -70t27 -70.5t71 -27.5zM240 484q-32 0 -52 20t-20 51t20 50.5t52 19.5t51 -19.5t19 -50.5q0 -32 -19.5 -51.5t-50.5 -19.5zM50 -240v937h433v-937h-433z
" />
    <glyph glyph-name="nacute" unicode="&#x144;" 
d="M181 -29q-40 -25 -40 -75q0 -43 27.5 -69.5t71.5 -26.5t71 26.5t27 69.5q0 51 -39 75l31 5q4 0 4 4v14q0 5 -5 5h-180q-3 0 -3 -5v-13q0 -2 3 -5zM240 -173q-32 0 -52 20t-20 51q0 32 20 51.5t52 21.5q32 -2 51 -21.5t19 -51.5t-19.5 -51.5t-50.5 -19.5zM141 120
q0 -43 27.5 -69t71.5 -26t71 26t27 69q0 53 -39 76h39q32 0 50.5 -19.5t18.5 -53.5q-1 -36 -17 -60q-3 -3 2 -6l16 -9h1q1 -1 2 -1t3 3q20 35 20 73q0 45 -26.5 73t-71.5 28l-187 -1q-3 0 -3 -4v-12q0 -3 3 -6l33 -5q-41 -25 -41 -76zM240 52q32 0 51.5 19t19.5 51
q0 33 -19.5 53.5t-51.5 20.5q-31 0 -51 -21t-20 -53q0 -31 19.5 -50.5t51.5 -19.5zM227 265v139q-27 -4 -43 -22.5t-16 -46.5q0 -29 16 -47.5t43 -22.5zM252 265v164q0 3 -4 3q-48 0 -77 -25t-29 -72q0 -44 27 -71t71 -27t71 28t27 74q0 49 -30 76q-2 2 -3 2q-2 0 -4 -2
l-12 -13q-3 -4 1 -7q20 -20 20 -56q0 -30 -16 -50t-42 -24zM240 457q44 0 71 27.5t27 70.5t-27 70t-71 27t-71 -27t-27 -70t27 -70.5t71 -27.5zM240 484q-32 0 -52 20t-20 51t20 50.5t52 19.5t51 -19.5t19 -50.5q0 -32 -19.5 -51.5t-50.5 -19.5zM50 -240v937h433v-937h-433z
" />
    <glyph glyph-name="uni0145" unicode="&#x145;" 
d="M181 -29q-40 -25 -40 -75q0 -43 27.5 -69.5t71.5 -26.5t71 26.5t27 69.5q0 51 -39 75l31 5q4 0 4 4v14q0 5 -5 5h-180q-3 0 -3 -5v-13q0 -2 3 -5zM240 -173q-32 0 -52 20t-20 51q0 32 20 51.5t52 21.5q32 -2 51 -21.5t19 -51.5t-19.5 -51.5t-50.5 -19.5zM141 120
q0 -43 27.5 -69t71.5 -26t71 26t27 69q0 53 -39 76h39q32 0 50.5 -19.5t18.5 -53.5q-1 -36 -17 -60q-3 -3 2 -6l16 -9h1q1 -1 2 -1t3 3q20 35 20 73q0 45 -26.5 73t-71.5 28l-187 -1q-3 0 -3 -4v-12q0 -3 3 -6l33 -5q-41 -25 -41 -76zM240 52q32 0 51.5 19t19.5 51
q0 33 -19.5 53.5t-51.5 20.5q-31 0 -51 -21t-20 -53q0 -31 19.5 -50.5t51.5 -19.5zM227 265v139q-27 -4 -43 -22.5t-16 -46.5q0 -29 16 -47.5t43 -22.5zM252 265v164q0 3 -4 3q-48 0 -77 -25t-29 -72q0 -44 27 -71t71 -27t71 28t27 74q0 49 -30 76q-2 2 -3 2q-2 0 -4 -2
l-12 -13q-3 -4 1 -7q20 -20 20 -56q0 -30 -16 -50t-42 -24zM240 457q44 0 71 27.5t27 70.5t-27 70t-71 27t-71 -27t-27 -70t27 -70.5t71 -27.5zM240 484q-32 0 -52 20t-20 51t20 50.5t52 19.5t51 -19.5t19 -50.5q0 -32 -19.5 -51.5t-50.5 -19.5zM50 -240v937h433v-937h-433z
" />
    <glyph glyph-name="uni0146" unicode="&#x146;" 
d="M181 -29q-40 -25 -40 -75q0 -43 27.5 -69.5t71.5 -26.5t71 26.5t27 69.5q0 51 -39 75l31 5q4 0 4 4v14q0 5 -5 5h-180q-3 0 -3 -5v-13q0 -2 3 -5zM240 -173q-32 0 -52 20t-20 51q0 32 20 51.5t52 21.5q32 -2 51 -21.5t19 -51.5t-19.5 -51.5t-50.5 -19.5zM141 120
q0 -43 27.5 -69t71.5 -26t71 26t27 69q0 53 -39 76h39q32 0 50.5 -19.5t18.5 -53.5q-1 -36 -17 -60q-3 -3 2 -6l16 -9h1q1 -1 2 -1t3 3q20 35 20 73q0 45 -26.5 73t-71.5 28l-187 -1q-3 0 -3 -4v-12q0 -3 3 -6l33 -5q-41 -25 -41 -76zM240 52q32 0 51.5 19t19.5 51
q0 33 -19.5 53.5t-51.5 20.5q-31 0 -51 -21t-20 -53q0 -31 19.5 -50.5t51.5 -19.5zM227 265v139q-27 -4 -43 -22.5t-16 -46.5q0 -29 16 -47.5t43 -22.5zM252 265v164q0 3 -4 3q-48 0 -77 -25t-29 -72q0 -44 27 -71t71 -27t71 28t27 74q0 49 -30 76q-2 2 -3 2q-2 0 -4 -2
l-12 -13q-3 -4 1 -7q20 -20 20 -56q0 -30 -16 -50t-42 -24zM240 457q44 0 71 27.5t27 70.5t-27 70t-71 27t-71 -27t-27 -70t27 -70.5t71 -27.5zM240 484q-32 0 -52 20t-20 51t20 50.5t52 19.5t51 -19.5t19 -50.5q0 -32 -19.5 -51.5t-50.5 -19.5zM50 -240v937h433v-937h-433z
" />
    <glyph glyph-name="Ncaron" unicode="&#x147;" 
d="M181 -29q-40 -25 -40 -75q0 -43 27.5 -69.5t71.5 -26.5t71 26.5t27 69.5q0 51 -39 75l31 5q4 0 4 4v14q0 5 -5 5h-180q-3 0 -3 -5v-13q0 -2 3 -5zM240 -173q-32 0 -52 20t-20 51q0 32 20 51.5t52 21.5q32 -2 51 -21.5t19 -51.5t-19.5 -51.5t-50.5 -19.5zM141 120
q0 -43 27.5 -69t71.5 -26t71 26t27 69q0 53 -39 76h39q32 0 50.5 -19.5t18.5 -53.5q-1 -36 -17 -60q-3 -3 2 -6l16 -9h1q1 -1 2 -1t3 3q20 35 20 73q0 45 -26.5 73t-71.5 28l-187 -1q-3 0 -3 -4v-12q0 -3 3 -6l33 -5q-41 -25 -41 -76zM240 52q32 0 51.5 19t19.5 51
q0 33 -19.5 53.5t-51.5 20.5q-31 0 -51 -21t-20 -53q0 -31 19.5 -50.5t51.5 -19.5zM227 265v139q-27 -4 -43 -22.5t-16 -46.5q0 -29 16 -47.5t43 -22.5zM252 265v164q0 3 -4 3q-48 0 -77 -25t-29 -72q0 -44 27 -71t71 -27t71 28t27 74q0 49 -30 76q-2 2 -3 2q-2 0 -4 -2
l-12 -13q-3 -4 1 -7q20 -20 20 -56q0 -30 -16 -50t-42 -24zM240 457q44 0 71 27.5t27 70.5t-27 70t-71 27t-71 -27t-27 -70t27 -70.5t71 -27.5zM240 484q-32 0 -52 20t-20 51t20 50.5t52 19.5t51 -19.5t19 -50.5q0 -32 -19.5 -51.5t-50.5 -19.5zM50 -240v937h433v-937h-433z
" />
    <glyph glyph-name="ncaron" unicode="&#x148;" 
d="M181 -29q-40 -25 -40 -75q0 -43 27.5 -69.5t71.5 -26.5t71 26.5t27 69.5q0 51 -39 75l31 5q4 0 4 4v14q0 5 -5 5h-180q-3 0 -3 -5v-13q0 -2 3 -5zM240 -173q-32 0 -52 20t-20 51q0 32 20 51.5t52 21.5q32 -2 51 -21.5t19 -51.5t-19.5 -51.5t-50.5 -19.5zM141 120
q0 -43 27.5 -69t71.5 -26t71 26t27 69q0 53 -39 76h39q32 0 50.5 -19.5t18.5 -53.5q-1 -36 -17 -60q-3 -3 2 -6l16 -9h1q1 -1 2 -1t3 3q20 35 20 73q0 45 -26.5 73t-71.5 28l-187 -1q-3 0 -3 -4v-12q0 -3 3 -6l33 -5q-41 -25 -41 -76zM240 52q32 0 51.5 19t19.5 51
q0 33 -19.5 53.5t-51.5 20.5q-31 0 -51 -21t-20 -53q0 -31 19.5 -50.5t51.5 -19.5zM227 265v139q-27 -4 -43 -22.5t-16 -46.5q0 -29 16 -47.5t43 -22.5zM252 265v164q0 3 -4 3q-48 0 -77 -25t-29 -72q0 -44 27 -71t71 -27t71 28t27 74q0 49 -30 76q-2 2 -3 2q-2 0 -4 -2
l-12 -13q-3 -4 1 -7q20 -20 20 -56q0 -30 -16 -50t-42 -24zM240 457q44 0 71 27.5t27 70.5t-27 70t-71 27t-71 -27t-27 -70t27 -70.5t71 -27.5zM240 484q-32 0 -52 20t-20 51t20 50.5t52 19.5t51 -19.5t19 -50.5q0 -32 -19.5 -51.5t-50.5 -19.5zM50 -240v937h433v-937h-433z
" />
    <glyph glyph-name="napostrophe" unicode="&#x149;" 
d="M181 -29q-40 -25 -40 -75q0 -43 27.5 -69.5t71.5 -26.5t71 26.5t27 69.5q0 51 -39 75l31 5q4 0 4 4v14q0 5 -5 5h-180q-3 0 -3 -5v-13q0 -2 3 -5zM240 -173q-32 0 -52 20t-20 51q0 32 20 51.5t52 21.5q32 -2 51 -21.5t19 -51.5t-19.5 -51.5t-50.5 -19.5zM141 120
q0 -43 27.5 -69t71.5 -26t71 26t27 69q0 53 -39 76h39q32 0 50.5 -19.5t18.5 -53.5q-1 -36 -17 -60q-3 -3 2 -6l16 -9h1q1 -1 2 -1t3 3q20 35 20 73q0 45 -26.5 73t-71.5 28l-187 -1q-3 0 -3 -4v-12q0 -3 3 -6l33 -5q-41 -25 -41 -76zM240 52q32 0 51.5 19t19.5 51
q0 33 -19.5 53.5t-51.5 20.5q-31 0 -51 -21t-20 -53q0 -31 19.5 -50.5t51.5 -19.5zM227 265v139q-27 -4 -43 -22.5t-16 -46.5q0 -29 16 -47.5t43 -22.5zM252 265v164q0 3 -4 3q-48 0 -77 -25t-29 -72q0 -44 27 -71t71 -27t71 28t27 74q0 49 -30 76q-2 2 -3 2q-2 0 -4 -2
l-12 -13q-3 -4 1 -7q20 -20 20 -56q0 -30 -16 -50t-42 -24zM240 457q44 0 71 27.5t27 70.5t-27 70t-71 27t-71 -27t-27 -70t27 -70.5t71 -27.5zM240 484q-32 0 -52 20t-20 51t20 50.5t52 19.5t51 -19.5t19 -50.5q0 -32 -19.5 -51.5t-50.5 -19.5zM50 -240v937h433v-937h-433z
" />
    <glyph glyph-name="Omacron" unicode="&#x14c;" 
d="M181 -29q-40 -25 -40 -75q0 -43 27.5 -69.5t71.5 -26.5t71 26.5t27 69.5q0 51 -39 75l31 5q4 0 4 4v14q0 5 -5 5h-180q-3 0 -3 -5v-13q0 -2 3 -5zM240 -173q-32 0 -52 20t-20 51q0 32 20 51.5t52 21.5q32 -2 51 -21.5t19 -51.5t-19.5 -51.5t-50.5 -19.5zM141 120
q0 -43 27.5 -69t71.5 -26t71 26t27 69q0 53 -39 76h39q32 0 50.5 -19.5t18.5 -53.5q-1 -36 -17 -60q-3 -3 2 -6l16 -9h1q1 -1 2 -1t3 3q20 35 20 73q0 45 -26.5 73t-71.5 28l-187 -1q-3 0 -3 -4v-12q0 -3 3 -6l33 -5q-41 -25 -41 -76zM240 52q32 0 51.5 19t19.5 51
q0 33 -19.5 53.5t-51.5 20.5q-31 0 -51 -21t-20 -53q0 -31 19.5 -50.5t51.5 -19.5zM227 265v139q-27 -4 -43 -22.5t-16 -46.5q0 -29 16 -47.5t43 -22.5zM252 265v164q0 3 -4 3q-48 0 -77 -25t-29 -72q0 -44 27 -71t71 -27t71 28t27 74q0 49 -30 76q-2 2 -3 2q-2 0 -4 -2
l-12 -13q-3 -4 1 -7q20 -20 20 -56q0 -30 -16 -50t-42 -24zM240 457q44 0 71 27.5t27 70.5t-27 70t-71 27t-71 -27t-27 -70t27 -70.5t71 -27.5zM240 484q-32 0 -52 20t-20 51t20 50.5t52 19.5t51 -19.5t19 -50.5q0 -32 -19.5 -51.5t-50.5 -19.5zM50 -240v937h433v-937h-433z
" />
    <glyph glyph-name="omacron" unicode="&#x14d;" 
d="M181 -29q-40 -25 -40 -75q0 -43 27.5 -69.5t71.5 -26.5t71 26.5t27 69.5q0 51 -39 75l31 5q4 0 4 4v14q0 5 -5 5h-180q-3 0 -3 -5v-13q0 -2 3 -5zM240 -173q-32 0 -52 20t-20 51q0 32 20 51.5t52 21.5q32 -2 51 -21.5t19 -51.5t-19.5 -51.5t-50.5 -19.5zM141 120
q0 -43 27.5 -69t71.5 -26t71 26t27 69q0 53 -39 76h39q32 0 50.5 -19.5t18.5 -53.5q-1 -36 -17 -60q-3 -3 2 -6l16 -9h1q1 -1 2 -1t3 3q20 35 20 73q0 45 -26.5 73t-71.5 28l-187 -1q-3 0 -3 -4v-12q0 -3 3 -6l33 -5q-41 -25 -41 -76zM240 52q32 0 51.5 19t19.5 51
q0 33 -19.5 53.5t-51.5 20.5q-31 0 -51 -21t-20 -53q0 -31 19.5 -50.5t51.5 -19.5zM227 265v139q-27 -4 -43 -22.5t-16 -46.5q0 -29 16 -47.5t43 -22.5zM252 265v164q0 3 -4 3q-48 0 -77 -25t-29 -72q0 -44 27 -71t71 -27t71 28t27 74q0 49 -30 76q-2 2 -3 2q-2 0 -4 -2
l-12 -13q-3 -4 1 -7q20 -20 20 -56q0 -30 -16 -50t-42 -24zM240 457q44 0 71 27.5t27 70.5t-27 70t-71 27t-71 -27t-27 -70t27 -70.5t71 -27.5zM240 484q-32 0 -52 20t-20 51t20 50.5t52 19.5t51 -19.5t19 -50.5q0 -32 -19.5 -51.5t-50.5 -19.5zM50 -240v937h433v-937h-433z
" />
    <glyph glyph-name="Obreve" unicode="&#x14e;" 
d="M181 -29q-40 -25 -40 -75q0 -43 27.5 -69.5t71.5 -26.5t71 26.5t27 69.5q0 51 -39 75l31 5q4 0 4 4v14q0 5 -5 5h-180q-3 0 -3 -5v-13q0 -2 3 -5zM240 -173q-32 0 -52 20t-20 51q0 32 20 51.5t52 21.5q32 -2 51 -21.5t19 -51.5t-19.5 -51.5t-50.5 -19.5zM141 120
q0 -43 27.5 -69t71.5 -26t71 26t27 69q0 53 -39 76h39q32 0 50.5 -19.5t18.5 -53.5q-1 -36 -17 -60q-3 -3 2 -6l16 -9h1q1 -1 2 -1t3 3q20 35 20 73q0 45 -26.5 73t-71.5 28l-187 -1q-3 0 -3 -4v-12q0 -3 3 -6l33 -5q-41 -25 -41 -76zM240 52q32 0 51.5 19t19.5 51
q0 33 -19.5 53.5t-51.5 20.5q-31 0 -51 -21t-20 -53q0 -31 19.5 -50.5t51.5 -19.5zM227 265v139q-27 -4 -43 -22.5t-16 -46.5q0 -29 16 -47.5t43 -22.5zM252 265v164q0 3 -4 3q-48 0 -77 -25t-29 -72q0 -44 27 -71t71 -27t71 28t27 74q0 49 -30 76q-2 2 -3 2q-2 0 -4 -2
l-12 -13q-3 -4 1 -7q20 -20 20 -56q0 -30 -16 -50t-42 -24zM240 457q44 0 71 27.5t27 70.5t-27 70t-71 27t-71 -27t-27 -70t27 -70.5t71 -27.5zM240 484q-32 0 -52 20t-20 51t20 50.5t52 19.5t51 -19.5t19 -50.5q0 -32 -19.5 -51.5t-50.5 -19.5zM50 -240v937h433v-937h-433z
" />
    <glyph glyph-name="obreve" unicode="&#x14f;" 
d="M181 -29q-40 -25 -40 -75q0 -43 27.5 -69.5t71.5 -26.5t71 26.5t27 69.5q0 51 -39 75l31 5q4 0 4 4v14q0 5 -5 5h-180q-3 0 -3 -5v-13q0 -2 3 -5zM240 -173q-32 0 -52 20t-20 51q0 32 20 51.5t52 21.5q32 -2 51 -21.5t19 -51.5t-19.5 -51.5t-50.5 -19.5zM141 120
q0 -43 27.5 -69t71.5 -26t71 26t27 69q0 53 -39 76h39q32 0 50.5 -19.5t18.5 -53.5q-1 -36 -17 -60q-3 -3 2 -6l16 -9h1q1 -1 2 -1t3 3q20 35 20 73q0 45 -26.5 73t-71.5 28l-187 -1q-3 0 -3 -4v-12q0 -3 3 -6l33 -5q-41 -25 -41 -76zM240 52q32 0 51.5 19t19.5 51
q0 33 -19.5 53.5t-51.5 20.5q-31 0 -51 -21t-20 -53q0 -31 19.5 -50.5t51.5 -19.5zM227 265v139q-27 -4 -43 -22.5t-16 -46.5q0 -29 16 -47.5t43 -22.5zM252 265v164q0 3 -4 3q-48 0 -77 -25t-29 -72q0 -44 27 -71t71 -27t71 28t27 74q0 49 -30 76q-2 2 -3 2q-2 0 -4 -2
l-12 -13q-3 -4 1 -7q20 -20 20 -56q0 -30 -16 -50t-42 -24zM240 457q44 0 71 27.5t27 70.5t-27 70t-71 27t-71 -27t-27 -70t27 -70.5t71 -27.5zM240 484q-32 0 -52 20t-20 51t20 50.5t52 19.5t51 -19.5t19 -50.5q0 -32 -19.5 -51.5t-50.5 -19.5zM50 -240v937h433v-937h-433z
" />
    <glyph glyph-name="Ohungarumlaut" unicode="&#x150;" 
d="M181 -29q-40 -25 -40 -75q0 -43 27.5 -69.5t71.5 -26.5t71 26.5t27 69.5q0 51 -39 75l31 5q4 0 4 4v14q0 5 -5 5h-180q-3 0 -3 -5v-13q0 -2 3 -5zM240 -173q-32 0 -52 20t-20 51q0 32 20 51.5t52 21.5q32 -2 51 -21.5t19 -51.5t-19.5 -51.5t-50.5 -19.5zM141 120
q0 -43 27.5 -69t71.5 -26t71 26t27 69q0 53 -39 76h39q32 0 50.5 -19.5t18.5 -53.5q-1 -36 -17 -60q-3 -3 2 -6l16 -9h1q1 -1 2 -1t3 3q20 35 20 73q0 45 -26.5 73t-71.5 28l-187 -1q-3 0 -3 -4v-12q0 -3 3 -6l33 -5q-41 -25 -41 -76zM240 52q32 0 51.5 19t19.5 51
q0 33 -19.5 53.5t-51.5 20.5q-31 0 -51 -21t-20 -53q0 -31 19.5 -50.5t51.5 -19.5zM227 265v139q-27 -4 -43 -22.5t-16 -46.5q0 -29 16 -47.5t43 -22.5zM252 265v164q0 3 -4 3q-48 0 -77 -25t-29 -72q0 -44 27 -71t71 -27t71 28t27 74q0 49 -30 76q-2 2 -3 2q-2 0 -4 -2
l-12 -13q-3 -4 1 -7q20 -20 20 -56q0 -30 -16 -50t-42 -24zM240 457q44 0 71 27.5t27 70.5t-27 70t-71 27t-71 -27t-27 -70t27 -70.5t71 -27.5zM240 484q-32 0 -52 20t-20 51t20 50.5t52 19.5t51 -19.5t19 -50.5q0 -32 -19.5 -51.5t-50.5 -19.5zM50 -240v937h433v-937h-433z
" />
    <glyph glyph-name="ohungarumlaut" unicode="&#x151;" 
d="M181 -29q-40 -25 -40 -75q0 -43 27.5 -69.5t71.5 -26.5t71 26.5t27 69.5q0 51 -39 75l31 5q4 0 4 4v14q0 5 -5 5h-180q-3 0 -3 -5v-13q0 -2 3 -5zM240 -173q-32 0 -52 20t-20 51q0 32 20 51.5t52 21.5q32 -2 51 -21.5t19 -51.5t-19.5 -51.5t-50.5 -19.5zM141 120
q0 -43 27.5 -69t71.5 -26t71 26t27 69q0 53 -39 76h39q32 0 50.5 -19.5t18.5 -53.5q-1 -36 -17 -60q-3 -3 2 -6l16 -9h1q1 -1 2 -1t3 3q20 35 20 73q0 45 -26.5 73t-71.5 28l-187 -1q-3 0 -3 -4v-12q0 -3 3 -6l33 -5q-41 -25 -41 -76zM240 52q32 0 51.5 19t19.5 51
q0 33 -19.5 53.5t-51.5 20.5q-31 0 -51 -21t-20 -53q0 -31 19.5 -50.5t51.5 -19.5zM227 265v139q-27 -4 -43 -22.5t-16 -46.5q0 -29 16 -47.5t43 -22.5zM252 265v164q0 3 -4 3q-48 0 -77 -25t-29 -72q0 -44 27 -71t71 -27t71 28t27 74q0 49 -30 76q-2 2 -3 2q-2 0 -4 -2
l-12 -13q-3 -4 1 -7q20 -20 20 -56q0 -30 -16 -50t-42 -24zM240 457q44 0 71 27.5t27 70.5t-27 70t-71 27t-71 -27t-27 -70t27 -70.5t71 -27.5zM240 484q-32 0 -52 20t-20 51t20 50.5t52 19.5t51 -19.5t19 -50.5q0 -32 -19.5 -51.5t-50.5 -19.5zM50 -240v937h433v-937h-433z
" />
    <glyph glyph-name="OE" unicode="&#x152;" horiz-adv-x="764" 
d="M717 0h-327q-158 3 -252.5 96.5t-94.5 250.5q0 158 96 251.5t255 95.5h313q9 0 9 -8v-26q0 -8 -9 -8h-279v-277h230q10 0 10 -9v-25q0 -8 -10 -8h-230v-291h289q9 0 9 -8v-26q0 -8 -9 -8zM383 45v604q-135 -5 -215 -86t-80 -216t80.5 -216t214.5 -86z" />
    <glyph glyph-name="oe" unicode="&#x153;" horiz-adv-x="934" 
d="M79 222q0 -86 51 -138.5t134 -52.5q84 0 134 52t50 139q0 85 -50 137.5t-134 52.5q-83 0 -134 -52t-51 -138zM489 241h365q-6 78 -55.5 124.5t-129.5 46.5q-79 0 -126.5 -46.5t-53.5 -124.5zM38 222q0 103 62.5 167t163.5 64q74 0 127 -34.5t77 -95.5q24 61 75.5 95.5
t125.5 34.5q107 0 167 -67t60 -175q0 -8 -10 -8h-397q6 -78 56.5 -125t134.5 -47q91 0 145 58q4 4 7 4q4 0 6 -2l19 -18q6 -5 -1 -12q-65 -71 -175 -71q-78 0 -133 35t-80 97q-24 -62 -76.5 -97t-127.5 -35q-101 0 -163.5 64t-62.5 168z" />
    <glyph glyph-name="Racute" unicode="&#x154;" 
d="M181 -29q-40 -25 -40 -75q0 -43 27.5 -69.5t71.5 -26.5t71 26.5t27 69.5q0 51 -39 75l31 5q4 0 4 4v14q0 5 -5 5h-180q-3 0 -3 -5v-13q0 -2 3 -5zM240 -173q-32 0 -52 20t-20 51q0 32 20 51.5t52 21.5q32 -2 51 -21.5t19 -51.5t-19.5 -51.5t-50.5 -19.5zM141 120
q0 -43 27.5 -69t71.5 -26t71 26t27 69q0 53 -39 76h39q32 0 50.5 -19.5t18.5 -53.5q-1 -36 -17 -60q-3 -3 2 -6l16 -9h1q1 -1 2 -1t3 3q20 35 20 73q0 45 -26.5 73t-71.5 28l-187 -1q-3 0 -3 -4v-12q0 -3 3 -6l33 -5q-41 -25 -41 -76zM240 52q32 0 51.5 19t19.5 51
q0 33 -19.5 53.5t-51.5 20.5q-31 0 -51 -21t-20 -53q0 -31 19.5 -50.5t51.5 -19.5zM227 265v139q-27 -4 -43 -22.5t-16 -46.5q0 -29 16 -47.5t43 -22.5zM252 265v164q0 3 -4 3q-48 0 -77 -25t-29 -72q0 -44 27 -71t71 -27t71 28t27 74q0 49 -30 76q-2 2 -3 2q-2 0 -4 -2
l-12 -13q-3 -4 1 -7q20 -20 20 -56q0 -30 -16 -50t-42 -24zM240 457q44 0 71 27.5t27 70.5t-27 70t-71 27t-71 -27t-27 -70t27 -70.5t71 -27.5zM240 484q-32 0 -52 20t-20 51t20 50.5t52 19.5t51 -19.5t19 -50.5q0 -32 -19.5 -51.5t-50.5 -19.5zM50 -240v937h433v-937h-433z
" />
    <glyph glyph-name="racute" unicode="&#x155;" 
d="M181 -29q-40 -25 -40 -75q0 -43 27.5 -69.5t71.5 -26.5t71 26.5t27 69.5q0 51 -39 75l31 5q4 0 4 4v14q0 5 -5 5h-180q-3 0 -3 -5v-13q0 -2 3 -5zM240 -173q-32 0 -52 20t-20 51q0 32 20 51.5t52 21.5q32 -2 51 -21.5t19 -51.5t-19.5 -51.5t-50.5 -19.5zM141 120
q0 -43 27.5 -69t71.5 -26t71 26t27 69q0 53 -39 76h39q32 0 50.5 -19.5t18.5 -53.5q-1 -36 -17 -60q-3 -3 2 -6l16 -9h1q1 -1 2 -1t3 3q20 35 20 73q0 45 -26.5 73t-71.5 28l-187 -1q-3 0 -3 -4v-12q0 -3 3 -6l33 -5q-41 -25 -41 -76zM240 52q32 0 51.5 19t19.5 51
q0 33 -19.5 53.5t-51.5 20.5q-31 0 -51 -21t-20 -53q0 -31 19.5 -50.5t51.5 -19.5zM227 265v139q-27 -4 -43 -22.5t-16 -46.5q0 -29 16 -47.5t43 -22.5zM252 265v164q0 3 -4 3q-48 0 -77 -25t-29 -72q0 -44 27 -71t71 -27t71 28t27 74q0 49 -30 76q-2 2 -3 2q-2 0 -4 -2
l-12 -13q-3 -4 1 -7q20 -20 20 -56q0 -30 -16 -50t-42 -24zM240 457q44 0 71 27.5t27 70.5t-27 70t-71 27t-71 -27t-27 -70t27 -70.5t71 -27.5zM240 484q-32 0 -52 20t-20 51t20 50.5t52 19.5t51 -19.5t19 -50.5q0 -32 -19.5 -51.5t-50.5 -19.5zM50 -240v937h433v-937h-433z
" />
    <glyph glyph-name="uni0156" unicode="&#x156;" 
d="M181 -29q-40 -25 -40 -75q0 -43 27.5 -69.5t71.5 -26.5t71 26.5t27 69.5q0 51 -39 75l31 5q4 0 4 4v14q0 5 -5 5h-180q-3 0 -3 -5v-13q0 -2 3 -5zM240 -173q-32 0 -52 20t-20 51q0 32 20 51.5t52 21.5q32 -2 51 -21.5t19 -51.5t-19.5 -51.5t-50.5 -19.5zM141 120
q0 -43 27.5 -69t71.5 -26t71 26t27 69q0 53 -39 76h39q32 0 50.5 -19.5t18.5 -53.5q-1 -36 -17 -60q-3 -3 2 -6l16 -9h1q1 -1 2 -1t3 3q20 35 20 73q0 45 -26.5 73t-71.5 28l-187 -1q-3 0 -3 -4v-12q0 -3 3 -6l33 -5q-41 -25 -41 -76zM240 52q32 0 51.5 19t19.5 51
q0 33 -19.5 53.5t-51.5 20.5q-31 0 -51 -21t-20 -53q0 -31 19.5 -50.5t51.5 -19.5zM227 265v139q-27 -4 -43 -22.5t-16 -46.5q0 -29 16 -47.5t43 -22.5zM252 265v164q0 3 -4 3q-48 0 -77 -25t-29 -72q0 -44 27 -71t71 -27t71 28t27 74q0 49 -30 76q-2 2 -3 2q-2 0 -4 -2
l-12 -13q-3 -4 1 -7q20 -20 20 -56q0 -30 -16 -50t-42 -24zM240 457q44 0 71 27.5t27 70.5t-27 70t-71 27t-71 -27t-27 -70t27 -70.5t71 -27.5zM240 484q-32 0 -52 20t-20 51t20 50.5t52 19.5t51 -19.5t19 -50.5q0 -32 -19.5 -51.5t-50.5 -19.5zM50 -240v937h433v-937h-433z
" />
    <glyph glyph-name="uni0157" unicode="&#x157;" 
d="M181 -29q-40 -25 -40 -75q0 -43 27.5 -69.5t71.5 -26.5t71 26.5t27 69.5q0 51 -39 75l31 5q4 0 4 4v14q0 5 -5 5h-180q-3 0 -3 -5v-13q0 -2 3 -5zM240 -173q-32 0 -52 20t-20 51q0 32 20 51.5t52 21.5q32 -2 51 -21.5t19 -51.5t-19.5 -51.5t-50.5 -19.5zM141 120
q0 -43 27.5 -69t71.5 -26t71 26t27 69q0 53 -39 76h39q32 0 50.5 -19.5t18.5 -53.5q-1 -36 -17 -60q-3 -3 2 -6l16 -9h1q1 -1 2 -1t3 3q20 35 20 73q0 45 -26.5 73t-71.5 28l-187 -1q-3 0 -3 -4v-12q0 -3 3 -6l33 -5q-41 -25 -41 -76zM240 52q32 0 51.5 19t19.5 51
q0 33 -19.5 53.5t-51.5 20.5q-31 0 -51 -21t-20 -53q0 -31 19.5 -50.5t51.5 -19.5zM227 265v139q-27 -4 -43 -22.5t-16 -46.5q0 -29 16 -47.5t43 -22.5zM252 265v164q0 3 -4 3q-48 0 -77 -25t-29 -72q0 -44 27 -71t71 -27t71 28t27 74q0 49 -30 76q-2 2 -3 2q-2 0 -4 -2
l-12 -13q-3 -4 1 -7q20 -20 20 -56q0 -30 -16 -50t-42 -24zM240 457q44 0 71 27.5t27 70.5t-27 70t-71 27t-71 -27t-27 -70t27 -70.5t71 -27.5zM240 484q-32 0 -52 20t-20 51t20 50.5t52 19.5t51 -19.5t19 -50.5q0 -32 -19.5 -51.5t-50.5 -19.5zM50 -240v937h433v-937h-433z
" />
    <glyph glyph-name="Rcaron" unicode="&#x158;" 
d="M181 -29q-40 -25 -40 -75q0 -43 27.5 -69.5t71.5 -26.5t71 26.5t27 69.5q0 51 -39 75l31 5q4 0 4 4v14q0 5 -5 5h-180q-3 0 -3 -5v-13q0 -2 3 -5zM240 -173q-32 0 -52 20t-20 51q0 32 20 51.5t52 21.5q32 -2 51 -21.5t19 -51.5t-19.5 -51.5t-50.5 -19.5zM141 120
q0 -43 27.5 -69t71.5 -26t71 26t27 69q0 53 -39 76h39q32 0 50.5 -19.5t18.5 -53.5q-1 -36 -17 -60q-3 -3 2 -6l16 -9h1q1 -1 2 -1t3 3q20 35 20 73q0 45 -26.5 73t-71.5 28l-187 -1q-3 0 -3 -4v-12q0 -3 3 -6l33 -5q-41 -25 -41 -76zM240 52q32 0 51.5 19t19.5 51
q0 33 -19.5 53.5t-51.5 20.5q-31 0 -51 -21t-20 -53q0 -31 19.5 -50.5t51.5 -19.5zM227 265v139q-27 -4 -43 -22.5t-16 -46.5q0 -29 16 -47.5t43 -22.5zM252 265v164q0 3 -4 3q-48 0 -77 -25t-29 -72q0 -44 27 -71t71 -27t71 28t27 74q0 49 -30 76q-2 2 -3 2q-2 0 -4 -2
l-12 -13q-3 -4 1 -7q20 -20 20 -56q0 -30 -16 -50t-42 -24zM240 457q44 0 71 27.5t27 70.5t-27 70t-71 27t-71 -27t-27 -70t27 -70.5t71 -27.5zM240 484q-32 0 -52 20t-20 51t20 50.5t52 19.5t51 -19.5t19 -50.5q0 -32 -19.5 -51.5t-50.5 -19.5zM50 -240v937h433v-937h-433z
" />
    <glyph glyph-name="rcaron" unicode="&#x159;" 
d="M181 -29q-40 -25 -40 -75q0 -43 27.5 -69.5t71.5 -26.5t71 26.5t27 69.5q0 51 -39 75l31 5q4 0 4 4v14q0 5 -5 5h-180q-3 0 -3 -5v-13q0 -2 3 -5zM240 -173q-32 0 -52 20t-20 51q0 32 20 51.5t52 21.5q32 -2 51 -21.5t19 -51.5t-19.5 -51.5t-50.5 -19.5zM141 120
q0 -43 27.5 -69t71.5 -26t71 26t27 69q0 53 -39 76h39q32 0 50.5 -19.5t18.5 -53.5q-1 -36 -17 -60q-3 -3 2 -6l16 -9h1q1 -1 2 -1t3 3q20 35 20 73q0 45 -26.5 73t-71.5 28l-187 -1q-3 0 -3 -4v-12q0 -3 3 -6l33 -5q-41 -25 -41 -76zM240 52q32 0 51.5 19t19.5 51
q0 33 -19.5 53.5t-51.5 20.5q-31 0 -51 -21t-20 -53q0 -31 19.5 -50.5t51.5 -19.5zM227 265v139q-27 -4 -43 -22.5t-16 -46.5q0 -29 16 -47.5t43 -22.5zM252 265v164q0 3 -4 3q-48 0 -77 -25t-29 -72q0 -44 27 -71t71 -27t71 28t27 74q0 49 -30 76q-2 2 -3 2q-2 0 -4 -2
l-12 -13q-3 -4 1 -7q20 -20 20 -56q0 -30 -16 -50t-42 -24zM240 457q44 0 71 27.5t27 70.5t-27 70t-71 27t-71 -27t-27 -70t27 -70.5t71 -27.5zM240 484q-32 0 -52 20t-20 51t20 50.5t52 19.5t51 -19.5t19 -50.5q0 -32 -19.5 -51.5t-50.5 -19.5zM50 -240v937h433v-937h-433z
" />
    <glyph glyph-name="Sacute" unicode="&#x15a;" 
d="M181 -29q-40 -25 -40 -75q0 -43 27.5 -69.5t71.5 -26.5t71 26.5t27 69.5q0 51 -39 75l31 5q4 0 4 4v14q0 5 -5 5h-180q-3 0 -3 -5v-13q0 -2 3 -5zM240 -173q-32 0 -52 20t-20 51q0 32 20 51.5t52 21.5q32 -2 51 -21.5t19 -51.5t-19.5 -51.5t-50.5 -19.5zM141 120
q0 -43 27.5 -69t71.5 -26t71 26t27 69q0 53 -39 76h39q32 0 50.5 -19.5t18.5 -53.5q-1 -36 -17 -60q-3 -3 2 -6l16 -9h1q1 -1 2 -1t3 3q20 35 20 73q0 45 -26.5 73t-71.5 28l-187 -1q-3 0 -3 -4v-12q0 -3 3 -6l33 -5q-41 -25 -41 -76zM240 52q32 0 51.5 19t19.5 51
q0 33 -19.5 53.5t-51.5 20.5q-31 0 -51 -21t-20 -53q0 -31 19.5 -50.5t51.5 -19.5zM227 265v139q-27 -4 -43 -22.5t-16 -46.5q0 -29 16 -47.5t43 -22.5zM252 265v164q0 3 -4 3q-48 0 -77 -25t-29 -72q0 -44 27 -71t71 -27t71 28t27 74q0 49 -30 76q-2 2 -3 2q-2 0 -4 -2
l-12 -13q-3 -4 1 -7q20 -20 20 -56q0 -30 -16 -50t-42 -24zM240 457q44 0 71 27.5t27 70.5t-27 70t-71 27t-71 -27t-27 -70t27 -70.5t71 -27.5zM240 484q-32 0 -52 20t-20 51t20 50.5t52 19.5t51 -19.5t19 -50.5q0 -32 -19.5 -51.5t-50.5 -19.5zM50 -240v937h433v-937h-433z
" />
    <glyph glyph-name="sacute" unicode="&#x15b;" 
d="M181 -29q-40 -25 -40 -75q0 -43 27.5 -69.5t71.5 -26.5t71 26.5t27 69.5q0 51 -39 75l31 5q4 0 4 4v14q0 5 -5 5h-180q-3 0 -3 -5v-13q0 -2 3 -5zM240 -173q-32 0 -52 20t-20 51q0 32 20 51.5t52 21.5q32 -2 51 -21.5t19 -51.5t-19.5 -51.5t-50.5 -19.5zM141 120
q0 -43 27.5 -69t71.5 -26t71 26t27 69q0 53 -39 76h39q32 0 50.5 -19.5t18.5 -53.5q-1 -36 -17 -60q-3 -3 2 -6l16 -9h1q1 -1 2 -1t3 3q20 35 20 73q0 45 -26.5 73t-71.5 28l-187 -1q-3 0 -3 -4v-12q0 -3 3 -6l33 -5q-41 -25 -41 -76zM240 52q32 0 51.5 19t19.5 51
q0 33 -19.5 53.5t-51.5 20.5q-31 0 -51 -21t-20 -53q0 -31 19.5 -50.5t51.5 -19.5zM227 265v139q-27 -4 -43 -22.5t-16 -46.5q0 -29 16 -47.5t43 -22.5zM252 265v164q0 3 -4 3q-48 0 -77 -25t-29 -72q0 -44 27 -71t71 -27t71 28t27 74q0 49 -30 76q-2 2 -3 2q-2 0 -4 -2
l-12 -13q-3 -4 1 -7q20 -20 20 -56q0 -30 -16 -50t-42 -24zM240 457q44 0 71 27.5t27 70.5t-27 70t-71 27t-71 -27t-27 -70t27 -70.5t71 -27.5zM240 484q-32 0 -52 20t-20 51t20 50.5t52 19.5t51 -19.5t19 -50.5q0 -32 -19.5 -51.5t-50.5 -19.5zM50 -240v937h433v-937h-433z
" />
    <glyph glyph-name="Scircumflex" unicode="&#x15c;" 
d="M181 -29q-40 -25 -40 -75q0 -43 27.5 -69.5t71.5 -26.5t71 26.5t27 69.5q0 51 -39 75l31 5q4 0 4 4v14q0 5 -5 5h-180q-3 0 -3 -5v-13q0 -2 3 -5zM240 -173q-32 0 -52 20t-20 51q0 32 20 51.5t52 21.5q32 -2 51 -21.5t19 -51.5t-19.5 -51.5t-50.5 -19.5zM141 120
q0 -43 27.5 -69t71.5 -26t71 26t27 69q0 53 -39 76h39q32 0 50.5 -19.5t18.5 -53.5q-1 -36 -17 -60q-3 -3 2 -6l16 -9h1q1 -1 2 -1t3 3q20 35 20 73q0 45 -26.5 73t-71.5 28l-187 -1q-3 0 -3 -4v-12q0 -3 3 -6l33 -5q-41 -25 -41 -76zM240 52q32 0 51.5 19t19.5 51
q0 33 -19.5 53.5t-51.5 20.5q-31 0 -51 -21t-20 -53q0 -31 19.5 -50.5t51.5 -19.5zM227 265v139q-27 -4 -43 -22.5t-16 -46.5q0 -29 16 -47.5t43 -22.5zM252 265v164q0 3 -4 3q-48 0 -77 -25t-29 -72q0 -44 27 -71t71 -27t71 28t27 74q0 49 -30 76q-2 2 -3 2q-2 0 -4 -2
l-12 -13q-3 -4 1 -7q20 -20 20 -56q0 -30 -16 -50t-42 -24zM240 457q44 0 71 27.5t27 70.5t-27 70t-71 27t-71 -27t-27 -70t27 -70.5t71 -27.5zM240 484q-32 0 -52 20t-20 51t20 50.5t52 19.5t51 -19.5t19 -50.5q0 -32 -19.5 -51.5t-50.5 -19.5zM50 -240v937h433v-937h-433z
" />
    <glyph glyph-name="scircumflex" unicode="&#x15d;" 
d="M181 -29q-40 -25 -40 -75q0 -43 27.5 -69.5t71.5 -26.5t71 26.5t27 69.5q0 51 -39 75l31 5q4 0 4 4v14q0 5 -5 5h-180q-3 0 -3 -5v-13q0 -2 3 -5zM240 -173q-32 0 -52 20t-20 51q0 32 20 51.5t52 21.5q32 -2 51 -21.5t19 -51.5t-19.5 -51.5t-50.5 -19.5zM141 120
q0 -43 27.5 -69t71.5 -26t71 26t27 69q0 53 -39 76h39q32 0 50.5 -19.5t18.5 -53.5q-1 -36 -17 -60q-3 -3 2 -6l16 -9h1q1 -1 2 -1t3 3q20 35 20 73q0 45 -26.5 73t-71.5 28l-187 -1q-3 0 -3 -4v-12q0 -3 3 -6l33 -5q-41 -25 -41 -76zM240 52q32 0 51.5 19t19.5 51
q0 33 -19.5 53.5t-51.5 20.5q-31 0 -51 -21t-20 -53q0 -31 19.5 -50.5t51.5 -19.5zM227 265v139q-27 -4 -43 -22.5t-16 -46.5q0 -29 16 -47.5t43 -22.5zM252 265v164q0 3 -4 3q-48 0 -77 -25t-29 -72q0 -44 27 -71t71 -27t71 28t27 74q0 49 -30 76q-2 2 -3 2q-2 0 -4 -2
l-12 -13q-3 -4 1 -7q20 -20 20 -56q0 -30 -16 -50t-42 -24zM240 457q44 0 71 27.5t27 70.5t-27 70t-71 27t-71 -27t-27 -70t27 -70.5t71 -27.5zM240 484q-32 0 -52 20t-20 51t20 50.5t52 19.5t51 -19.5t19 -50.5q0 -32 -19.5 -51.5t-50.5 -19.5zM50 -240v937h433v-937h-433z
" />
    <glyph glyph-name="Scedilla" unicode="&#x15e;" 
d="M181 -29q-40 -25 -40 -75q0 -43 27.5 -69.5t71.5 -26.5t71 26.5t27 69.5q0 51 -39 75l31 5q4 0 4 4v14q0 5 -5 5h-180q-3 0 -3 -5v-13q0 -2 3 -5zM240 -173q-32 0 -52 20t-20 51q0 32 20 51.5t52 21.5q32 -2 51 -21.5t19 -51.5t-19.5 -51.5t-50.5 -19.5zM141 120
q0 -43 27.5 -69t71.5 -26t71 26t27 69q0 53 -39 76h39q32 0 50.5 -19.5t18.5 -53.5q-1 -36 -17 -60q-3 -3 2 -6l16 -9h1q1 -1 2 -1t3 3q20 35 20 73q0 45 -26.5 73t-71.5 28l-187 -1q-3 0 -3 -4v-12q0 -3 3 -6l33 -5q-41 -25 -41 -76zM240 52q32 0 51.5 19t19.5 51
q0 33 -19.5 53.5t-51.5 20.5q-31 0 -51 -21t-20 -53q0 -31 19.5 -50.5t51.5 -19.5zM227 265v139q-27 -4 -43 -22.5t-16 -46.5q0 -29 16 -47.5t43 -22.5zM252 265v164q0 3 -4 3q-48 0 -77 -25t-29 -72q0 -44 27 -71t71 -27t71 28t27 74q0 49 -30 76q-2 2 -3 2q-2 0 -4 -2
l-12 -13q-3 -4 1 -7q20 -20 20 -56q0 -30 -16 -50t-42 -24zM240 457q44 0 71 27.5t27 70.5t-27 70t-71 27t-71 -27t-27 -70t27 -70.5t71 -27.5zM240 484q-32 0 -52 20t-20 51t20 50.5t52 19.5t51 -19.5t19 -50.5q0 -32 -19.5 -51.5t-50.5 -19.5zM50 -240v937h433v-937h-433z
" />
    <glyph glyph-name="scedilla" unicode="&#x15f;" 
d="M181 -29q-40 -25 -40 -75q0 -43 27.5 -69.5t71.5 -26.5t71 26.5t27 69.5q0 51 -39 75l31 5q4 0 4 4v14q0 5 -5 5h-180q-3 0 -3 -5v-13q0 -2 3 -5zM240 -173q-32 0 -52 20t-20 51q0 32 20 51.5t52 21.5q32 -2 51 -21.5t19 -51.5t-19.5 -51.5t-50.5 -19.5zM141 120
q0 -43 27.5 -69t71.5 -26t71 26t27 69q0 53 -39 76h39q32 0 50.5 -19.5t18.5 -53.5q-1 -36 -17 -60q-3 -3 2 -6l16 -9h1q1 -1 2 -1t3 3q20 35 20 73q0 45 -26.5 73t-71.5 28l-187 -1q-3 0 -3 -4v-12q0 -3 3 -6l33 -5q-41 -25 -41 -76zM240 52q32 0 51.5 19t19.5 51
q0 33 -19.5 53.5t-51.5 20.5q-31 0 -51 -21t-20 -53q0 -31 19.5 -50.5t51.5 -19.5zM227 265v139q-27 -4 -43 -22.5t-16 -46.5q0 -29 16 -47.5t43 -22.5zM252 265v164q0 3 -4 3q-48 0 -77 -25t-29 -72q0 -44 27 -71t71 -27t71 28t27 74q0 49 -30 76q-2 2 -3 2q-2 0 -4 -2
l-12 -13q-3 -4 1 -7q20 -20 20 -56q0 -30 -16 -50t-42 -24zM240 457q44 0 71 27.5t27 70.5t-27 70t-71 27t-71 -27t-27 -70t27 -70.5t71 -27.5zM240 484q-32 0 -52 20t-20 51t20 50.5t52 19.5t51 -19.5t19 -50.5q0 -32 -19.5 -51.5t-50.5 -19.5zM50 -240v937h433v-937h-433z
" />
    <glyph glyph-name="Scaron" unicode="&#x160;" horiz-adv-x="565" 
d="M52 74q-7 6 -3 13l15 24q3 5 6 5t8 -5q83 -76 214 -77q82 0 131 38.5t49 101.5q0 57 -44 87.5t-158 58.5q-115 29 -164.5 72.5t-50.5 119.5q-2 82 64 137t168 54q127 -1 197 -67q7 -5 4 -13l-13 -27q-3 -5 -5 -5t-8 4q-74 63 -180 63q-78 0 -130 -41t-52 -102
q-1 -60 43.5 -91t160.5 -61q113 -30 162 -69.5t51 -108.5q3 -87 -56.5 -141.5t-174.5 -53.5q-151 1 -234 84zM172 845l111 -81l111 81q7 5 14 5h42q18 0 1 -12l-138 -100q-7 -5 -14 -5h-33q-6 0 -13 5l-138 100q-15 12 2 12h41q7 0 14 -5z" />
    <glyph glyph-name="scaron" unicode="&#x161;" horiz-adv-x="409" 
d="M45 40q-6 4 -3 12l12 21q2 4 6 4q1 0 5 -2q61 -44 139 -44q55 0 90 23.5t35 58.5q0 37 -30 55t-102 37q-80 21 -113 47t-34 75q-2 56 43 92t118 35q76 0 131 -42q6 -3 3 -12l-10 -21q-2 -5 -5 -5q-2 0 -6 2q-55 38 -117 38q-52 0 -84 -22.5t-32 -58.5q0 -37 27 -53.5
t103 -36.5q79 -22 113.5 -48t35.5 -77q2 -57 -45 -92.5t-124 -34.5q-98 0 -156 49zM63 669h33q6 0 12 -6l93 -118l93 118q6 6 11 6h34q12 0 5 -10l-112 -138q-5 -7 -13 -7h-35q-8 0 -14 6l-111 139q-8 10 4 10z" />
    <glyph glyph-name="uni0162" unicode="&#x162;" 
d="M181 -29q-40 -25 -40 -75q0 -43 27.5 -69.5t71.5 -26.5t71 26.5t27 69.5q0 51 -39 75l31 5q4 0 4 4v14q0 5 -5 5h-180q-3 0 -3 -5v-13q0 -2 3 -5zM240 -173q-32 0 -52 20t-20 51q0 32 20 51.5t52 21.5q32 -2 51 -21.5t19 -51.5t-19.5 -51.5t-50.5 -19.5zM141 120
q0 -43 27.5 -69t71.5 -26t71 26t27 69q0 53 -39 76h39q32 0 50.5 -19.5t18.5 -53.5q-1 -36 -17 -60q-3 -3 2 -6l16 -9h1q1 -1 2 -1t3 3q20 35 20 73q0 45 -26.5 73t-71.5 28l-187 -1q-3 0 -3 -4v-12q0 -3 3 -6l33 -5q-41 -25 -41 -76zM240 52q32 0 51.5 19t19.5 51
q0 33 -19.5 53.5t-51.5 20.5q-31 0 -51 -21t-20 -53q0 -31 19.5 -50.5t51.5 -19.5zM227 265v139q-27 -4 -43 -22.5t-16 -46.5q0 -29 16 -47.5t43 -22.5zM252 265v164q0 3 -4 3q-48 0 -77 -25t-29 -72q0 -44 27 -71t71 -27t71 28t27 74q0 49 -30 76q-2 2 -3 2q-2 0 -4 -2
l-12 -13q-3 -4 1 -7q20 -20 20 -56q0 -30 -16 -50t-42 -24zM240 457q44 0 71 27.5t27 70.5t-27 70t-71 27t-71 -27t-27 -70t27 -70.5t71 -27.5zM240 484q-32 0 -52 20t-20 51t20 50.5t52 19.5t51 -19.5t19 -50.5q0 -32 -19.5 -51.5t-50.5 -19.5zM50 -240v937h433v-937h-433z
" />
    <glyph glyph-name="uni0163" unicode="&#x163;" 
d="M181 -29q-40 -25 -40 -75q0 -43 27.5 -69.5t71.5 -26.5t71 26.5t27 69.5q0 51 -39 75l31 5q4 0 4 4v14q0 5 -5 5h-180q-3 0 -3 -5v-13q0 -2 3 -5zM240 -173q-32 0 -52 20t-20 51q0 32 20 51.5t52 21.5q32 -2 51 -21.5t19 -51.5t-19.5 -51.5t-50.5 -19.5zM141 120
q0 -43 27.5 -69t71.5 -26t71 26t27 69q0 53 -39 76h39q32 0 50.5 -19.5t18.5 -53.5q-1 -36 -17 -60q-3 -3 2 -6l16 -9h1q1 -1 2 -1t3 3q20 35 20 73q0 45 -26.5 73t-71.5 28l-187 -1q-3 0 -3 -4v-12q0 -3 3 -6l33 -5q-41 -25 -41 -76zM240 52q32 0 51.5 19t19.5 51
q0 33 -19.5 53.5t-51.5 20.5q-31 0 -51 -21t-20 -53q0 -31 19.5 -50.5t51.5 -19.5zM227 265v139q-27 -4 -43 -22.5t-16 -46.5q0 -29 16 -47.5t43 -22.5zM252 265v164q0 3 -4 3q-48 0 -77 -25t-29 -72q0 -44 27 -71t71 -27t71 28t27 74q0 49 -30 76q-2 2 -3 2q-2 0 -4 -2
l-12 -13q-3 -4 1 -7q20 -20 20 -56q0 -30 -16 -50t-42 -24zM240 457q44 0 71 27.5t27 70.5t-27 70t-71 27t-71 -27t-27 -70t27 -70.5t71 -27.5zM240 484q-32 0 -52 20t-20 51t20 50.5t52 19.5t51 -19.5t19 -50.5q0 -32 -19.5 -51.5t-50.5 -19.5zM50 -240v937h433v-937h-433z
" />
    <glyph glyph-name="Tcaron" unicode="&#x164;" 
d="M181 -29q-40 -25 -40 -75q0 -43 27.5 -69.5t71.5 -26.5t71 26.5t27 69.5q0 51 -39 75l31 5q4 0 4 4v14q0 5 -5 5h-180q-3 0 -3 -5v-13q0 -2 3 -5zM240 -173q-32 0 -52 20t-20 51q0 32 20 51.5t52 21.5q32 -2 51 -21.5t19 -51.5t-19.5 -51.5t-50.5 -19.5zM141 120
q0 -43 27.5 -69t71.5 -26t71 26t27 69q0 53 -39 76h39q32 0 50.5 -19.5t18.5 -53.5q-1 -36 -17 -60q-3 -3 2 -6l16 -9h1q1 -1 2 -1t3 3q20 35 20 73q0 45 -26.5 73t-71.5 28l-187 -1q-3 0 -3 -4v-12q0 -3 3 -6l33 -5q-41 -25 -41 -76zM240 52q32 0 51.5 19t19.5 51
q0 33 -19.5 53.5t-51.5 20.5q-31 0 -51 -21t-20 -53q0 -31 19.5 -50.5t51.5 -19.5zM227 265v139q-27 -4 -43 -22.5t-16 -46.5q0 -29 16 -47.5t43 -22.5zM252 265v164q0 3 -4 3q-48 0 -77 -25t-29 -72q0 -44 27 -71t71 -27t71 28t27 74q0 49 -30 76q-2 2 -3 2q-2 0 -4 -2
l-12 -13q-3 -4 1 -7q20 -20 20 -56q0 -30 -16 -50t-42 -24zM240 457q44 0 71 27.5t27 70.5t-27 70t-71 27t-71 -27t-27 -70t27 -70.5t71 -27.5zM240 484q-32 0 -52 20t-20 51t20 50.5t52 19.5t51 -19.5t19 -50.5q0 -32 -19.5 -51.5t-50.5 -19.5zM50 -240v937h433v-937h-433z
" />
    <glyph glyph-name="tcaron" unicode="&#x165;" 
d="M181 -29q-40 -25 -40 -75q0 -43 27.5 -69.5t71.5 -26.5t71 26.5t27 69.5q0 51 -39 75l31 5q4 0 4 4v14q0 5 -5 5h-180q-3 0 -3 -5v-13q0 -2 3 -5zM240 -173q-32 0 -52 20t-20 51q0 32 20 51.5t52 21.5q32 -2 51 -21.5t19 -51.5t-19.5 -51.5t-50.5 -19.5zM141 120
q0 -43 27.5 -69t71.5 -26t71 26t27 69q0 53 -39 76h39q32 0 50.5 -19.5t18.5 -53.5q-1 -36 -17 -60q-3 -3 2 -6l16 -9h1q1 -1 2 -1t3 3q20 35 20 73q0 45 -26.5 73t-71.5 28l-187 -1q-3 0 -3 -4v-12q0 -3 3 -6l33 -5q-41 -25 -41 -76zM240 52q32 0 51.5 19t19.5 51
q0 33 -19.5 53.5t-51.5 20.5q-31 0 -51 -21t-20 -53q0 -31 19.5 -50.5t51.5 -19.5zM227 265v139q-27 -4 -43 -22.5t-16 -46.5q0 -29 16 -47.5t43 -22.5zM252 265v164q0 3 -4 3q-48 0 -77 -25t-29 -72q0 -44 27 -71t71 -27t71 28t27 74q0 49 -30 76q-2 2 -3 2q-2 0 -4 -2
l-12 -13q-3 -4 1 -7q20 -20 20 -56q0 -30 -16 -50t-42 -24zM240 457q44 0 71 27.5t27 70.5t-27 70t-71 27t-71 -27t-27 -70t27 -70.5t71 -27.5zM240 484q-32 0 -52 20t-20 51t20 50.5t52 19.5t51 -19.5t19 -50.5q0 -32 -19.5 -51.5t-50.5 -19.5zM50 -240v937h433v-937h-433z
" />
    <glyph glyph-name="Tbar" unicode="&#x166;" 
d="M181 -29q-40 -25 -40 -75q0 -43 27.5 -69.5t71.5 -26.5t71 26.5t27 69.5q0 51 -39 75l31 5q4 0 4 4v14q0 5 -5 5h-180q-3 0 -3 -5v-13q0 -2 3 -5zM240 -173q-32 0 -52 20t-20 51q0 32 20 51.5t52 21.5q32 -2 51 -21.5t19 -51.5t-19.5 -51.5t-50.5 -19.5zM141 120
q0 -43 27.5 -69t71.5 -26t71 26t27 69q0 53 -39 76h39q32 0 50.5 -19.5t18.5 -53.5q-1 -36 -17 -60q-3 -3 2 -6l16 -9h1q1 -1 2 -1t3 3q20 35 20 73q0 45 -26.5 73t-71.5 28l-187 -1q-3 0 -3 -4v-12q0 -3 3 -6l33 -5q-41 -25 -41 -76zM240 52q32 0 51.5 19t19.5 51
q0 33 -19.5 53.5t-51.5 20.5q-31 0 -51 -21t-20 -53q0 -31 19.5 -50.5t51.5 -19.5zM227 265v139q-27 -4 -43 -22.5t-16 -46.5q0 -29 16 -47.5t43 -22.5zM252 265v164q0 3 -4 3q-48 0 -77 -25t-29 -72q0 -44 27 -71t71 -27t71 28t27 74q0 49 -30 76q-2 2 -3 2q-2 0 -4 -2
l-12 -13q-3 -4 1 -7q20 -20 20 -56q0 -30 -16 -50t-42 -24zM240 457q44 0 71 27.5t27 70.5t-27 70t-71 27t-71 -27t-27 -70t27 -70.5t71 -27.5zM240 484q-32 0 -52 20t-20 51t20 50.5t52 19.5t51 -19.5t19 -50.5q0 -32 -19.5 -51.5t-50.5 -19.5zM50 -240v937h433v-937h-433z
" />
    <glyph glyph-name="tbar" unicode="&#x167;" 
d="M181 -29q-40 -25 -40 -75q0 -43 27.5 -69.5t71.5 -26.5t71 26.5t27 69.5q0 51 -39 75l31 5q4 0 4 4v14q0 5 -5 5h-180q-3 0 -3 -5v-13q0 -2 3 -5zM240 -173q-32 0 -52 20t-20 51q0 32 20 51.5t52 21.5q32 -2 51 -21.5t19 -51.5t-19.5 -51.5t-50.5 -19.5zM141 120
q0 -43 27.5 -69t71.5 -26t71 26t27 69q0 53 -39 76h39q32 0 50.5 -19.5t18.5 -53.5q-1 -36 -17 -60q-3 -3 2 -6l16 -9h1q1 -1 2 -1t3 3q20 35 20 73q0 45 -26.5 73t-71.5 28l-187 -1q-3 0 -3 -4v-12q0 -3 3 -6l33 -5q-41 -25 -41 -76zM240 52q32 0 51.5 19t19.5 51
q0 33 -19.5 53.5t-51.5 20.5q-31 0 -51 -21t-20 -53q0 -31 19.5 -50.5t51.5 -19.5zM227 265v139q-27 -4 -43 -22.5t-16 -46.5q0 -29 16 -47.5t43 -22.5zM252 265v164q0 3 -4 3q-48 0 -77 -25t-29 -72q0 -44 27 -71t71 -27t71 28t27 74q0 49 -30 76q-2 2 -3 2q-2 0 -4 -2
l-12 -13q-3 -4 1 -7q20 -20 20 -56q0 -30 -16 -50t-42 -24zM240 457q44 0 71 27.5t27 70.5t-27 70t-71 27t-71 -27t-27 -70t27 -70.5t71 -27.5zM240 484q-32 0 -52 20t-20 51t20 50.5t52 19.5t51 -19.5t19 -50.5q0 -32 -19.5 -51.5t-50.5 -19.5zM50 -240v937h433v-937h-433z
" />
    <glyph glyph-name="Utilde" unicode="&#x168;" 
d="M181 -29q-40 -25 -40 -75q0 -43 27.5 -69.5t71.5 -26.5t71 26.5t27 69.5q0 51 -39 75l31 5q4 0 4 4v14q0 5 -5 5h-180q-3 0 -3 -5v-13q0 -2 3 -5zM240 -173q-32 0 -52 20t-20 51q0 32 20 51.5t52 21.5q32 -2 51 -21.5t19 -51.5t-19.5 -51.5t-50.5 -19.5zM141 120
q0 -43 27.5 -69t71.5 -26t71 26t27 69q0 53 -39 76h39q32 0 50.5 -19.5t18.5 -53.5q-1 -36 -17 -60q-3 -3 2 -6l16 -9h1q1 -1 2 -1t3 3q20 35 20 73q0 45 -26.5 73t-71.5 28l-187 -1q-3 0 -3 -4v-12q0 -3 3 -6l33 -5q-41 -25 -41 -76zM240 52q32 0 51.5 19t19.5 51
q0 33 -19.5 53.5t-51.5 20.5q-31 0 -51 -21t-20 -53q0 -31 19.5 -50.5t51.5 -19.5zM227 265v139q-27 -4 -43 -22.5t-16 -46.5q0 -29 16 -47.5t43 -22.5zM252 265v164q0 3 -4 3q-48 0 -77 -25t-29 -72q0 -44 27 -71t71 -27t71 28t27 74q0 49 -30 76q-2 2 -3 2q-2 0 -4 -2
l-12 -13q-3 -4 1 -7q20 -20 20 -56q0 -30 -16 -50t-42 -24zM240 457q44 0 71 27.5t27 70.5t-27 70t-71 27t-71 -27t-27 -70t27 -70.5t71 -27.5zM240 484q-32 0 -52 20t-20 51t20 50.5t52 19.5t51 -19.5t19 -50.5q0 -32 -19.5 -51.5t-50.5 -19.5zM50 -240v937h433v-937h-433z
" />
    <glyph glyph-name="utilde" unicode="&#x169;" 
d="M181 -29q-40 -25 -40 -75q0 -43 27.5 -69.5t71.5 -26.5t71 26.5t27 69.5q0 51 -39 75l31 5q4 0 4 4v14q0 5 -5 5h-180q-3 0 -3 -5v-13q0 -2 3 -5zM240 -173q-32 0 -52 20t-20 51q0 32 20 51.5t52 21.5q32 -2 51 -21.5t19 -51.5t-19.5 -51.5t-50.5 -19.5zM141 120
q0 -43 27.5 -69t71.5 -26t71 26t27 69q0 53 -39 76h39q32 0 50.5 -19.5t18.5 -53.5q-1 -36 -17 -60q-3 -3 2 -6l16 -9h1q1 -1 2 -1t3 3q20 35 20 73q0 45 -26.5 73t-71.5 28l-187 -1q-3 0 -3 -4v-12q0 -3 3 -6l33 -5q-41 -25 -41 -76zM240 52q32 0 51.5 19t19.5 51
q0 33 -19.5 53.5t-51.5 20.5q-31 0 -51 -21t-20 -53q0 -31 19.5 -50.5t51.5 -19.5zM227 265v139q-27 -4 -43 -22.5t-16 -46.5q0 -29 16 -47.5t43 -22.5zM252 265v164q0 3 -4 3q-48 0 -77 -25t-29 -72q0 -44 27 -71t71 -27t71 28t27 74q0 49 -30 76q-2 2 -3 2q-2 0 -4 -2
l-12 -13q-3 -4 1 -7q20 -20 20 -56q0 -30 -16 -50t-42 -24zM240 457q44 0 71 27.5t27 70.5t-27 70t-71 27t-71 -27t-27 -70t27 -70.5t71 -27.5zM240 484q-32 0 -52 20t-20 51t20 50.5t52 19.5t51 -19.5t19 -50.5q0 -32 -19.5 -51.5t-50.5 -19.5zM50 -240v937h433v-937h-433z
" />
    <glyph glyph-name="Umacron" unicode="&#x16a;" 
d="M181 -29q-40 -25 -40 -75q0 -43 27.5 -69.5t71.5 -26.5t71 26.5t27 69.5q0 51 -39 75l31 5q4 0 4 4v14q0 5 -5 5h-180q-3 0 -3 -5v-13q0 -2 3 -5zM240 -173q-32 0 -52 20t-20 51q0 32 20 51.5t52 21.5q32 -2 51 -21.5t19 -51.5t-19.5 -51.5t-50.5 -19.5zM141 120
q0 -43 27.5 -69t71.5 -26t71 26t27 69q0 53 -39 76h39q32 0 50.5 -19.5t18.5 -53.5q-1 -36 -17 -60q-3 -3 2 -6l16 -9h1q1 -1 2 -1t3 3q20 35 20 73q0 45 -26.5 73t-71.5 28l-187 -1q-3 0 -3 -4v-12q0 -3 3 -6l33 -5q-41 -25 -41 -76zM240 52q32 0 51.5 19t19.5 51
q0 33 -19.5 53.5t-51.5 20.5q-31 0 -51 -21t-20 -53q0 -31 19.5 -50.5t51.5 -19.5zM227 265v139q-27 -4 -43 -22.5t-16 -46.5q0 -29 16 -47.5t43 -22.5zM252 265v164q0 3 -4 3q-48 0 -77 -25t-29 -72q0 -44 27 -71t71 -27t71 28t27 74q0 49 -30 76q-2 2 -3 2q-2 0 -4 -2
l-12 -13q-3 -4 1 -7q20 -20 20 -56q0 -30 -16 -50t-42 -24zM240 457q44 0 71 27.5t27 70.5t-27 70t-71 27t-71 -27t-27 -70t27 -70.5t71 -27.5zM240 484q-32 0 -52 20t-20 51t20 50.5t52 19.5t51 -19.5t19 -50.5q0 -32 -19.5 -51.5t-50.5 -19.5zM50 -240v937h433v-937h-433z
" />
    <glyph glyph-name="umacron" unicode="&#x16b;" 
d="M181 -29q-40 -25 -40 -75q0 -43 27.5 -69.5t71.5 -26.5t71 26.5t27 69.5q0 51 -39 75l31 5q4 0 4 4v14q0 5 -5 5h-180q-3 0 -3 -5v-13q0 -2 3 -5zM240 -173q-32 0 -52 20t-20 51q0 32 20 51.5t52 21.5q32 -2 51 -21.5t19 -51.5t-19.5 -51.5t-50.5 -19.5zM141 120
q0 -43 27.5 -69t71.5 -26t71 26t27 69q0 53 -39 76h39q32 0 50.5 -19.5t18.5 -53.5q-1 -36 -17 -60q-3 -3 2 -6l16 -9h1q1 -1 2 -1t3 3q20 35 20 73q0 45 -26.5 73t-71.5 28l-187 -1q-3 0 -3 -4v-12q0 -3 3 -6l33 -5q-41 -25 -41 -76zM240 52q32 0 51.5 19t19.5 51
q0 33 -19.5 53.5t-51.5 20.5q-31 0 -51 -21t-20 -53q0 -31 19.5 -50.5t51.5 -19.5zM227 265v139q-27 -4 -43 -22.5t-16 -46.5q0 -29 16 -47.5t43 -22.5zM252 265v164q0 3 -4 3q-48 0 -77 -25t-29 -72q0 -44 27 -71t71 -27t71 28t27 74q0 49 -30 76q-2 2 -3 2q-2 0 -4 -2
l-12 -13q-3 -4 1 -7q20 -20 20 -56q0 -30 -16 -50t-42 -24zM240 457q44 0 71 27.5t27 70.5t-27 70t-71 27t-71 -27t-27 -70t27 -70.5t71 -27.5zM240 484q-32 0 -52 20t-20 51t20 50.5t52 19.5t51 -19.5t19 -50.5q0 -32 -19.5 -51.5t-50.5 -19.5zM50 -240v937h433v-937h-433z
" />
    <glyph glyph-name="Ubreve" unicode="&#x16c;" 
d="M181 -29q-40 -25 -40 -75q0 -43 27.5 -69.5t71.5 -26.5t71 26.5t27 69.5q0 51 -39 75l31 5q4 0 4 4v14q0 5 -5 5h-180q-3 0 -3 -5v-13q0 -2 3 -5zM240 -173q-32 0 -52 20t-20 51q0 32 20 51.5t52 21.5q32 -2 51 -21.5t19 -51.5t-19.5 -51.5t-50.5 -19.5zM141 120
q0 -43 27.5 -69t71.5 -26t71 26t27 69q0 53 -39 76h39q32 0 50.5 -19.5t18.5 -53.5q-1 -36 -17 -60q-3 -3 2 -6l16 -9h1q1 -1 2 -1t3 3q20 35 20 73q0 45 -26.5 73t-71.5 28l-187 -1q-3 0 -3 -4v-12q0 -3 3 -6l33 -5q-41 -25 -41 -76zM240 52q32 0 51.5 19t19.5 51
q0 33 -19.5 53.5t-51.5 20.5q-31 0 -51 -21t-20 -53q0 -31 19.5 -50.5t51.5 -19.5zM227 265v139q-27 -4 -43 -22.5t-16 -46.5q0 -29 16 -47.5t43 -22.5zM252 265v164q0 3 -4 3q-48 0 -77 -25t-29 -72q0 -44 27 -71t71 -27t71 28t27 74q0 49 -30 76q-2 2 -3 2q-2 0 -4 -2
l-12 -13q-3 -4 1 -7q20 -20 20 -56q0 -30 -16 -50t-42 -24zM240 457q44 0 71 27.5t27 70.5t-27 70t-71 27t-71 -27t-27 -70t27 -70.5t71 -27.5zM240 484q-32 0 -52 20t-20 51t20 50.5t52 19.5t51 -19.5t19 -50.5q0 -32 -19.5 -51.5t-50.5 -19.5zM50 -240v937h433v-937h-433z
" />
    <glyph glyph-name="ubreve" unicode="&#x16d;" 
d="M181 -29q-40 -25 -40 -75q0 -43 27.5 -69.5t71.5 -26.5t71 26.5t27 69.5q0 51 -39 75l31 5q4 0 4 4v14q0 5 -5 5h-180q-3 0 -3 -5v-13q0 -2 3 -5zM240 -173q-32 0 -52 20t-20 51q0 32 20 51.5t52 21.5q32 -2 51 -21.5t19 -51.5t-19.5 -51.5t-50.5 -19.5zM141 120
q0 -43 27.5 -69t71.5 -26t71 26t27 69q0 53 -39 76h39q32 0 50.5 -19.5t18.5 -53.5q-1 -36 -17 -60q-3 -3 2 -6l16 -9h1q1 -1 2 -1t3 3q20 35 20 73q0 45 -26.5 73t-71.5 28l-187 -1q-3 0 -3 -4v-12q0 -3 3 -6l33 -5q-41 -25 -41 -76zM240 52q32 0 51.5 19t19.5 51
q0 33 -19.5 53.5t-51.5 20.5q-31 0 -51 -21t-20 -53q0 -31 19.5 -50.5t51.5 -19.5zM227 265v139q-27 -4 -43 -22.5t-16 -46.5q0 -29 16 -47.5t43 -22.5zM252 265v164q0 3 -4 3q-48 0 -77 -25t-29 -72q0 -44 27 -71t71 -27t71 28t27 74q0 49 -30 76q-2 2 -3 2q-2 0 -4 -2
l-12 -13q-3 -4 1 -7q20 -20 20 -56q0 -30 -16 -50t-42 -24zM240 457q44 0 71 27.5t27 70.5t-27 70t-71 27t-71 -27t-27 -70t27 -70.5t71 -27.5zM240 484q-32 0 -52 20t-20 51t20 50.5t52 19.5t51 -19.5t19 -50.5q0 -32 -19.5 -51.5t-50.5 -19.5zM50 -240v937h433v-937h-433z
" />
    <glyph glyph-name="Uring" unicode="&#x16e;" 
d="M181 -29q-40 -25 -40 -75q0 -43 27.5 -69.5t71.5 -26.5t71 26.5t27 69.5q0 51 -39 75l31 5q4 0 4 4v14q0 5 -5 5h-180q-3 0 -3 -5v-13q0 -2 3 -5zM240 -173q-32 0 -52 20t-20 51q0 32 20 51.5t52 21.5q32 -2 51 -21.5t19 -51.5t-19.5 -51.5t-50.5 -19.5zM141 120
q0 -43 27.5 -69t71.5 -26t71 26t27 69q0 53 -39 76h39q32 0 50.5 -19.5t18.5 -53.5q-1 -36 -17 -60q-3 -3 2 -6l16 -9h1q1 -1 2 -1t3 3q20 35 20 73q0 45 -26.5 73t-71.5 28l-187 -1q-3 0 -3 -4v-12q0 -3 3 -6l33 -5q-41 -25 -41 -76zM240 52q32 0 51.5 19t19.5 51
q0 33 -19.5 53.5t-51.5 20.5q-31 0 -51 -21t-20 -53q0 -31 19.5 -50.5t51.5 -19.5zM227 265v139q-27 -4 -43 -22.5t-16 -46.5q0 -29 16 -47.5t43 -22.5zM252 265v164q0 3 -4 3q-48 0 -77 -25t-29 -72q0 -44 27 -71t71 -27t71 28t27 74q0 49 -30 76q-2 2 -3 2q-2 0 -4 -2
l-12 -13q-3 -4 1 -7q20 -20 20 -56q0 -30 -16 -50t-42 -24zM240 457q44 0 71 27.5t27 70.5t-27 70t-71 27t-71 -27t-27 -70t27 -70.5t71 -27.5zM240 484q-32 0 -52 20t-20 51t20 50.5t52 19.5t51 -19.5t19 -50.5q0 -32 -19.5 -51.5t-50.5 -19.5zM50 -240v937h433v-937h-433z
" />
    </font>
</defs>
</svg>
